<?xml version="1.0" encoding="utf-8"?>
<!-- Generator: Adobe Illustrator 22.0.0, SVG Export Plug-In . SVG Version: 6.00 Build 0)  -->
<svg version="1.1" id="Layer_1" xmlns="http://www.w3.org/2000/svg" xmlns:xlink="http://www.w3.org/1999/xlink" x="0px" y="0px"
	 viewBox="0 0 3000 2000" style="enable-background:new 0 0 3000 2000;" xml:space="preserve">
<style type="text/css">
	.st0{fill:#011523;}
	.st1{fill:#1C2F3C;}
	.st2{fill:#852120;}
	.st3{fill:#8D5FFF;}
	.st4{fill:#354653;}
	.st5{fill:#E9463E;}
	.st6{fill:#F76363;}
	.st7{fill:#7356CC;}
	.st8{fill:#4F5D6A;}
	.st9{fill:#843A21;}
	.st10{fill:#68747F;}
	.st11{fill:#55419E;}
	.st12{fill:#818A93;}
	.st13{fill:#FF7144;}
	.st14{fill:#26224C;}
	.st15{fill:#FF9B80;}
	.st16{fill:#B3B4BB;}
	.st17{fill:#FFFFFF;}
	.st18{fill:none;stroke:#E6E3E5;stroke-miterlimit:10;}
	.st19{fill:#2F3234;}
	.st20{fill:none;stroke:#F3F3F3;stroke-miterlimit:10;}
	.st21{fill:#F3F4F5;}
	.st22{opacity:0.7;}
	.st23{fill:none;stroke:#1A1B18;stroke-miterlimit:10;}
</style>
<rect class="st0" width="3000" height="2000"/>
<polygon class="st1" points="800,300 800,1700 900,1600 900,400 2100,400 2200,300 "/>
<polygon class="st2" points="2100,400 2100,1600 2200,1700 2200,300 "/>
<polygon class="st3" points="2100,1600 2000,1500 1000,1500 900,1600 800,1700 2200,1700 "/>
<polygon class="st4" points="900,400 900,1600 1000,1500 1000,500 2000,500 2100,400 "/>
<polygon class="st5" points="2000,1500 2100,1600 2100,400 2000,500 "/>
<polygon class="st6" points="1900,1400 2000,1500 2000,500 1900,600 "/>
<polygon class="st7" points="1100,1400 1000,1500 2000,1500 1900,1400 "/>
<polygon class="st8" points="1000,500 1000,1500 1100,1400 1100,600 1900,600 2000,500 "/>
<polygon class="st9" points="1800,1300 1900,1400 1900,600 1800,700 "/>
<polygon class="st10" points="1100,600 1100,1400 1200,1300 1200,700 1800,700 1900,600 "/>
<polygon class="st11" points="1800,1300 1200,1300 1100,1400 1900,1400 "/>
<polygon class="st12" points="1200,700 1200,1300 1300,1200 1300,800 1700,800 1800,700 "/>
<polygon class="st13" points="1700,800 1700,1200 1800,1300 1800,700 "/>
<polygon class="st14" points="1700,1200 1600,1100 1400,1100 1300,1200 1200,1300 1800,1300 "/>
<polygon class="st15" points="1600,1100 1700,1200 1700,800 1600,900 "/>
<polygon class="st16" points="1300,800 1300,1200 1400,1100 1400,900 1600,900 1700,800 "/>
<rect x="1400" y="900" class="st17" width="200" height="200"/>
<g>
	<line class="st18" x1="185" y1="358" x2="853" y2="358"/>
	<line class="st18" x1="2150" y1="405.5" x2="2818" y2="405.5"/>
	<line class="st18" x1="2049.5" y1="510.5" x2="2818" y2="510.5"/>
	<line class="st18" x1="1949.5" y1="605.5" x2="2818" y2="605.5"/>
	<line class="st18" x1="1849.5" y1="710.5" x2="2818" y2="710.5"/>
	<line class="st18" x1="1749.5" y1="815.5" x2="2818" y2="815.5"/>
	<line class="st18" x1="1649.5" y1="910.5" x2="2818" y2="910.5"/>
	<line class="st18" x1="185" y1="461.5" x2="954.5" y2="461.5"/>
	<line class="st18" x1="185" y1="555.5" x2="1056.5" y2="555.5"/>
	<line class="st18" x1="185" y1="647.5" x2="1158.5" y2="647.5"/>
	<line class="st18" x1="185" y1="750" x2="1252.5" y2="750"/>
	<line class="st18" x1="185" y1="853.5" x2="1350.5" y2="853.5"/>
	<line class="st18" x1="185" y1="1004.5" x2="1499.5" y2="1004.5"/>
	<line class="st18" x1="185" y1="1647.5" x2="954.5" y2="1647.5"/>
	<line class="st18" x1="185" y1="1447.5" x2="1158.5" y2="1447.5"/>
	<line class="st18" x1="185" y1="1355.5" x2="1247.5" y2="1355.5"/>
	<line class="st18" x1="185" y1="1252.5" x2="1350.5" y2="1252.5"/>
</g>
<circle class="st17" cx="853.5" cy="357.5" r="6.5"/>
<circle class="st17" cx="954.5" cy="461.5" r="6.5"/>
<circle class="st17" cx="1056.5" cy="555.5" r="6.5"/>
<circle class="st17" cx="1158.5" cy="647.5" r="6.5"/>
<circle class="st17" cx="1252.5" cy="750.5" r="6.5"/>
<circle class="st17" cx="1350.5" cy="853.5" r="6.5"/>
<circle class="st19" cx="1499.5" cy="1004.5" r="6.5"/>
<circle class="st17" cx="1350.5" cy="1252.5" r="6.5"/>
<circle class="st17" cx="1247.5" cy="1355.5" r="6.5"/>
<circle class="st17" cx="1158.5" cy="1447.5" r="6.5"/>
<circle class="st17" cx="954.5" cy="1647.5" r="6.5"/>
<circle class="st17" cx="1649.5" cy="910.5" r="6.5"/>
<circle class="st17" cx="1749.5" cy="815.5" r="6.5"/>
<circle class="st17" cx="1849.5" cy="710.5" r="6.5"/>
<circle class="st17" cx="1949.5" cy="605.5" r="6.5"/>
<circle class="st17" cx="2049.5" cy="510.5" r="6.5"/>
<circle class="st17" cx="2152.5" cy="405.5" r="6.5"/>
<line class="st20" x1="2200" y1="405" x2="2158" y2="405"/>
<g>
	<g>
		<g>
			<path class="st21" d="M188.2,322.5h3.8v25.2h-3.8V322.5z"/>
			<path class="st21" d="M198.5,322.5h5.6l5,13.9c0.4,1.1,0.7,1.9,0.8,2.4c0.2,0.5,0.5,1.3,0.8,2.4c0.2,0.5,0.4,1.2,0.7,2.2h0.1
				c0.6-2.1,1.4-4.2,2.2-6.6l5-14.4h5.4v25.2h-3.7v-12.5c0-3.6,0-6.6,0.1-9l0.4,0.1l-7.7,21.5h-3.8l-7.7-21.5l0.4-0.1
				c0.1,1.9,0.1,4.9,0.1,9v12.5h-3.7V322.5z"/>
			<path class="st21" d="M230.6,322.5h4.9l12.9,21.6l-0.7,0.2c-0.1-2.6-0.1-5.6-0.1-9.1v-12.7h3.7v25.2h-4.9L233.6,326l0.6-0.2
				c0.1,3.7,0.2,6.7,0.2,8.9v12.9h-3.7V322.5z"/>
			<path class="st21" d="M256.1,332.2h9.5v3.3h-9.5V332.2z"/>
			<path class="st21" d="M270.4,322.5h7.9c2.5,0,4.7,0.5,6.7,1.6c2,1.1,3.5,2.5,4.7,4.4c1.1,1.9,1.7,4.1,1.7,6.6
				c0,2.5-0.6,4.7-1.7,6.6c-1.1,1.9-2.7,3.4-4.7,4.4c-2,1.1-4.2,1.6-6.7,1.6h-7.9V322.5z M272.5,344.3h5.5c2,0,3.7-0.4,5.1-1.1
				c1.4-0.7,2.5-1.8,3.3-3.2c0.8-1.4,1.1-3.1,1.1-5c0-1.9-0.4-3.6-1.1-5c-0.8-1.4-1.9-2.5-3.3-3.2c-1.4-0.7-3.2-1.1-5.1-1.1h-5.5
				l1.7-1.7v22L272.5,344.3z"/>
			<path class="st21" d="M300.8,346.5c-1.8-1.1-3.3-2.6-4.3-4.6c-1-2-1.6-4.2-1.6-6.6c0-2.6,0.6-4.9,1.7-7c1.1-2,2.7-3.6,4.6-4.7
				c2-1.1,4.1-1.7,6.6-1.7c2.1,0,3.9,0.4,5.5,1.1c1.6,0.7,2.8,1.7,3.7,2.8c0.9,1.2,1.5,2.4,1.9,3.7H315c-0.6-1.3-1.5-2.3-2.6-3.1
				s-2.7-1.2-4.6-1.2c-1.7,0-3.1,0.4-4.5,1.2s-2.4,1.9-3.1,3.5c-0.8,1.5-1.2,3.3-1.2,5.4c0,2,0.4,3.7,1.1,5.2
				c0.7,1.5,1.7,2.6,3.1,3.4c1.3,0.8,2.9,1.2,4.7,1.2c1.6,0,2.9-0.3,4.1-1c1.2-0.7,2.1-1.6,2.8-2.9c0.7-1.3,1-2.8,1-4.5l0.6,0.5
				h-9.8V334h12.3v13.6h-3.5v-4l0.2,0.4c-0.7,1.2-1.8,2.2-3.2,3c-1.4,0.8-3.2,1.2-5.4,1.2C304.7,348.2,302.6,347.6,300.8,346.5z"/>
			<path class="st21" d="M323.5,332.2h9.5v3.3h-9.5V332.2z"/>
			<path class="st21" d="M340.5,347.2c-1.4-0.6-2.5-1.5-3.3-2.7c-0.8-1.2-1.2-2.4-1.2-3.9c0-1.2,0.3-2.3,0.8-3.3
				c0.5-0.9,1.2-1.7,2.1-2.3c0.9-0.6,2-1,3.2-1.2l0,0.5c-1.7-0.3-2.9-1-3.9-2.1c-0.9-1.1-1.4-2.4-1.4-4c0-1.2,0.4-2.3,1.1-3.3
				c0.7-1,1.7-1.8,3-2.3c1.3-0.6,2.7-0.8,4.3-0.8c1.6,0,3,0.3,4.3,0.8c1.3,0.6,2.3,1.3,3,2.3c0.7,1,1,2.1,1,3.3c0,1-0.2,1.9-0.6,2.8
				c-0.4,0.8-1,1.5-1.8,2.1c-0.8,0.6-1.7,1-2.7,1.2l0-0.5c1.2,0.2,2.2,0.5,3.1,1.1c0.9,0.6,1.6,1.4,2.1,2.3c0.5,1,0.8,2.1,0.8,3.3
				c0,1.4-0.4,2.7-1.2,3.9c-0.8,1.2-1.9,2.1-3.3,2.7c-1.4,0.6-3,1-4.8,1C343.5,348.2,341.9,347.9,340.5,347.2z M348,344.5
				c0.8-0.4,1.5-0.9,1.9-1.7c0.5-0.7,0.7-1.5,0.7-2.4c0-0.9-0.2-1.8-0.7-2.5c-0.4-0.7-1.1-1.3-1.9-1.6c-0.8-0.4-1.8-0.6-2.8-0.6
				s-2,0.2-2.8,0.6c-0.8,0.4-1.4,0.9-1.9,1.6c-0.4,0.7-0.7,1.5-0.7,2.5c0,0.9,0.2,1.7,0.7,2.4c0.5,0.7,1.1,1.3,1.9,1.7
				s1.7,0.6,2.8,0.6C346.3,345.1,347.2,344.9,348,344.5z M347.6,332.2c0.7-0.3,1.2-0.8,1.6-1.4c0.4-0.6,0.6-1.3,0.6-2.1
				c0-1.1-0.4-2-1.2-2.7c-0.8-0.7-1.9-1-3.3-1c-0.9,0-1.7,0.2-2.4,0.5c-0.7,0.3-1.2,0.8-1.6,1.3c-0.4,0.6-0.6,1.2-0.6,2
				c0,1.2,0.4,2.1,1.3,2.8c0.9,0.7,1.9,1.1,3.3,1.1C346.1,332.8,346.9,332.6,347.6,332.2z"/>
			<path class="st21" d="M362.9,346.7c-1.4-1-2.6-2.5-3.4-4.4c-0.8-2-1.2-4.4-1.2-7.2c0-2.9,0.4-5.3,1.2-7.2c0.8-2,1.9-3.4,3.4-4.4
				c1.4-1,3.1-1.5,4.9-1.5c1.9,0,3.5,0.5,5,1.5c1.4,1,2.5,2.5,3.4,4.4c0.8,2,1.2,4.4,1.2,7.2c0,2.9-0.4,5.3-1.2,7.2
				s-1.9,3.4-3.4,4.4c-1.4,1-3.1,1.5-5,1.5C366,348.2,364.3,347.7,362.9,346.7z M370.9,344c0.9-0.7,1.5-1.8,1.9-3.3
				c0.4-1.5,0.7-3.4,0.7-5.7c0-3.4-0.5-5.9-1.5-7.5c-1-1.6-2.4-2.5-4.2-2.5c-1.2,0-2.2,0.4-3.1,1.1c-0.9,0.7-1.5,1.8-1.9,3.3
				c-0.4,1.5-0.7,3.4-0.7,5.7c0,3.4,0.5,5.9,1.5,7.6c1,1.6,2.4,2.4,4.2,2.4C369,345.1,370.1,344.7,370.9,344z"/>
		</g>
	</g>
	<g>
		<g>
			<path class="st21" d="M2617.6,370h3.8v25.2h-3.8V370z"/>
			<path class="st21" d="M2627.9,370h4.9l12.9,21.6l-0.7,0.2c-0.1-2.6-0.1-5.6-0.1-9.1V370h3.7v25.2h-4.9l-12.9-21.6l0.6-0.2
				c0.1,3.7,0.2,6.7,0.2,8.9v12.9h-3.7V370z"/>
			<path class="st21" d="M2655,370h5.6l5,13.9c0.4,1.1,0.7,1.9,0.8,2.4c0.2,0.5,0.5,1.3,0.8,2.4c0.2,0.5,0.4,1.2,0.7,2.2h0.1
				c0.6-2.1,1.4-4.2,2.2-6.6l5-14.4h5.4v25.2h-3.7v-12.5c0-3.6,0-6.6,0.1-9l0.4,0.1l-7.7,21.5h-3.8l-7.7-21.5l0.4-0.1
				c0.1,1.9,0.1,4.9,0.1,9v12.5h-3.7V370z"/>
			<path class="st21" d="M2685.5,379.7h9.5v3.3h-9.5V379.7z"/>
			<path class="st21" d="M2699.8,370h9.3c1.9,0,3.5,0.3,4.9,0.9c1.4,0.6,2.4,1.5,3.1,2.6c0.7,1.1,1.1,2.4,1.1,3.8s-0.4,2.7-1.2,3.8
				c-0.8,1.1-1.8,2-3.2,2.6c-1.4,0.6-3,0.9-4.8,0.9h-5.9v-3.1h5.7c1.7,0,3-0.4,4-1.1c1-0.7,1.5-1.8,1.5-3.1c0-1.4-0.5-2.4-1.5-3.1
				c-1-0.7-2.3-1-4-1h-5.9l0.6-0.6v22.7h-3.8V370z M2706.2,383.1h4.2l8.5,12.1h-4.5L2706.2,383.1z"/>
			<path class="st21" d="M2730.1,370h4.2l9.5,25.2h-4.1l-5.1-14.1c-0.8-2.3-1.6-4.6-2.5-6.9h0c-0.8,2.2-1.6,4.6-2.6,7.1l-5.1,14h-4
				L2730.1,370z M2726.3,386.3h11.5l1.4,3.2h-14.5L2726.3,386.3z"/>
			<path class="st21" d="M2744.2,379.7h9.5v3.3h-9.5V379.7z"/>
			<path class="st21" d="M2761.2,394.7c-1.4-0.6-2.5-1.5-3.3-2.7c-0.8-1.2-1.2-2.4-1.2-3.9c0-1.2,0.3-2.3,0.8-3.3
				c0.5-0.9,1.2-1.7,2.1-2.3c0.9-0.6,2-1,3.2-1.2l0,0.5c-1.7-0.3-2.9-1-3.9-2.1s-1.4-2.4-1.4-4c0-1.2,0.4-2.3,1.1-3.3
				c0.7-1,1.7-1.8,3-2.3c1.3-0.6,2.7-0.8,4.3-0.8c1.6,0,3,0.3,4.3,0.8c1.3,0.6,2.3,1.3,3,2.3c0.7,1,1,2.1,1,3.3c0,1-0.2,1.9-0.6,2.8
				c-0.4,0.8-1,1.5-1.8,2.1c-0.8,0.6-1.7,1-2.7,1.2l0-0.5c1.2,0.2,2.2,0.5,3.1,1.1c0.9,0.6,1.6,1.4,2.1,2.3c0.5,1,0.8,2.1,0.8,3.3
				c0,1.4-0.4,2.7-1.2,3.9c-0.8,1.2-1.9,2.1-3.3,2.7c-1.4,0.6-3,1-4.8,1C2764.2,395.7,2762.6,395.4,2761.2,394.7z M2768.8,392
				c0.8-0.4,1.5-0.9,1.9-1.7c0.5-0.7,0.7-1.5,0.7-2.4c0-0.9-0.2-1.8-0.7-2.5c-0.4-0.7-1.1-1.3-1.9-1.6c-0.8-0.4-1.8-0.6-2.8-0.6
				s-2,0.2-2.8,0.6c-0.8,0.4-1.4,0.9-1.9,1.6c-0.4,0.7-0.7,1.5-0.7,2.5c0,0.9,0.2,1.7,0.7,2.4c0.5,0.7,1.1,1.3,1.9,1.7
				c0.8,0.4,1.7,0.6,2.8,0.6C2767,392.6,2767.9,392.4,2768.8,392z M2768.3,379.7c0.7-0.3,1.2-0.8,1.6-1.4c0.4-0.6,0.6-1.3,0.6-2.1
				c0-1.1-0.4-2-1.2-2.7c-0.8-0.7-1.9-1-3.3-1c-0.9,0-1.7,0.2-2.4,0.5c-0.7,0.3-1.2,0.8-1.6,1.3c-0.4,0.6-0.6,1.2-0.6,2
				c0,1.2,0.4,2.1,1.3,2.8c0.9,0.7,1.9,1.1,3.3,1.1C2766.8,380.3,2767.6,380.1,2768.3,379.7z"/>
			<path class="st21" d="M2783.6,394.2c-1.4-1-2.6-2.5-3.4-4.4c-0.8-2-1.2-4.4-1.2-7.2c0-2.9,0.4-5.3,1.2-7.2c0.8-2,1.9-3.4,3.4-4.4
				c1.4-1,3.1-1.5,4.9-1.5c1.9,0,3.5,0.5,4.9,1.5c1.4,1,2.6,2.5,3.4,4.4c0.8,2,1.2,4.4,1.2,7.2c0,2.9-0.4,5.3-1.2,7.2
				s-1.9,3.4-3.4,4.4s-3.1,1.5-4.9,1.5C2786.7,395.7,2785,395.2,2783.6,394.2z M2791.6,391.5c0.9-0.7,1.5-1.8,1.9-3.3
				c0.4-1.5,0.7-3.4,0.7-5.7c0-3.4-0.5-5.9-1.5-7.5c-1-1.6-2.4-2.5-4.2-2.5c-1.2,0-2.2,0.4-3.1,1.1c-0.9,0.7-1.5,1.8-1.9,3.3
				c-0.4,1.5-0.7,3.4-0.7,5.7c0,3.4,0.5,5.9,1.5,7.6c1,1.6,2.4,2.4,4.2,2.4C2789.7,392.6,2790.8,392.2,2791.6,391.5z"/>
		</g>
	</g>
	<g>
		<g>
			<path class="st21" d="M2617.6,475h3.8v25.2h-3.8V475z"/>
			<path class="st21" d="M2627.9,475h4.9l12.9,21.6l-0.7,0.2c-0.1-2.6-0.1-5.6-0.1-9.1V475h3.7v25.2h-4.9l-12.9-21.6l0.6-0.2
				c0.1,3.7,0.2,6.7,0.2,8.9v12.9h-3.7V475z"/>
			<path class="st21" d="M2655,475h5.6l5,13.9c0.4,1.1,0.7,1.9,0.8,2.4c0.2,0.5,0.5,1.3,0.8,2.4c0.2,0.5,0.4,1.2,0.7,2.2h0.1
				c0.6-2.1,1.4-4.2,2.2-6.6l5-14.4h5.4v25.2h-3.7v-12.5c0-3.6,0-6.6,0.1-9l0.4,0.1l-7.7,21.5h-3.8l-7.7-21.5l0.4-0.1
				c0.1,1.9,0.1,4.9,0.1,9v12.5h-3.7V475z"/>
			<path class="st21" d="M2685.5,484.7h9.5v3.3h-9.5V484.7z"/>
			<path class="st21" d="M2699.8,475h9.3c1.9,0,3.5,0.3,4.9,0.9c1.4,0.6,2.4,1.5,3.1,2.6c0.7,1.1,1.1,2.4,1.1,3.8s-0.4,2.7-1.2,3.8
				c-0.8,1.1-1.8,2-3.2,2.6c-1.4,0.6-3,0.9-4.8,0.9h-5.9v-3.1h5.7c1.7,0,3-0.4,4-1.1c1-0.7,1.5-1.8,1.5-3.1c0-1.4-0.5-2.4-1.5-3.1
				c-1-0.7-2.3-1-4-1h-5.9l0.6-0.6v22.7h-3.8V475z M2706.2,488.1h4.2l8.5,12.1h-4.5L2706.2,488.1z"/>
			<path class="st21" d="M2730.1,475h4.2l9.5,25.2h-4.1l-5.1-14.1c-0.8-2.3-1.6-4.6-2.5-6.9h0c-0.8,2.2-1.6,4.6-2.6,7.1l-5.1,14h-4
				L2730.1,475z M2726.3,491.3h11.5l1.4,3.2h-14.5L2726.3,491.3z"/>
			<path class="st21" d="M2744.2,484.7h9.5v3.3h-9.5V484.7z"/>
			<path class="st21" d="M2762.5,482l0.6,0.6h-6.7V480c1.6,0,3-0.4,4.2-1.3c1.2-0.9,1.9-2.1,2.3-3.7h3.2v25.2h-3.7V482z"/>
			<path class="st21" d="M2776,499.2c-1.4-1-2.6-2.5-3.4-4.4c-0.8-2-1.2-4.4-1.2-7.2c0-2.9,0.4-5.3,1.2-7.2c0.8-2,1.9-3.4,3.4-4.4
				c1.4-1,3.1-1.5,4.9-1.5c1.9,0,3.5,0.5,5,1.5c1.4,1,2.5,2.5,3.4,4.4c0.8,2,1.2,4.4,1.2,7.2c0,2.9-0.4,5.3-1.2,7.2
				c-0.8,2-1.9,3.4-3.4,4.4s-3.1,1.5-5,1.5C2779.1,500.7,2777.4,500.2,2776,499.2z M2784,496.5c0.9-0.7,1.5-1.8,1.9-3.3
				c0.4-1.5,0.7-3.4,0.7-5.7c0-3.4-0.5-5.9-1.5-7.5c-1-1.6-2.4-2.5-4.2-2.5c-1.2,0-2.2,0.4-3.1,1.1c-0.9,0.7-1.5,1.8-1.9,3.3
				c-0.4,1.5-0.7,3.4-0.7,5.7c0,3.4,0.5,5.9,1.5,7.6c1,1.6,2.4,2.4,4.2,2.4C2782.2,497.6,2783.2,497.2,2784,496.5z"/>
			<path class="st21" d="M2799,499.2c-1.4-1-2.6-2.5-3.4-4.4s-1.2-4.4-1.2-7.2c0-2.9,0.4-5.3,1.2-7.2c0.8-2,1.9-3.4,3.4-4.4
				c1.4-1,3.1-1.5,4.9-1.5c1.9,0,3.5,0.5,5,1.5c1.4,1,2.5,2.5,3.4,4.4c0.8,2,1.2,4.4,1.2,7.2c0,2.9-0.4,5.3-1.2,7.2
				c-0.8,2-1.9,3.4-3.4,4.4c-1.4,1-3.1,1.5-5,1.5C2802.1,500.7,2800.5,500.2,2799,499.2z M2807.1,496.5c0.9-0.7,1.5-1.8,1.9-3.3
				c0.4-1.5,0.7-3.4,0.7-5.7c0-3.4-0.5-5.9-1.5-7.5c-1-1.6-2.4-2.5-4.2-2.5c-1.2,0-2.2,0.4-3.1,1.1c-0.9,0.7-1.5,1.8-1.9,3.3
				c-0.4,1.5-0.7,3.4-0.7,5.7c0,3.4,0.5,5.9,1.5,7.6c1,1.6,2.4,2.4,4.2,2.4C2805.2,497.6,2806.2,497.2,2807.1,496.5z"/>
		</g>
	</g>
	<g>
		<g>
			<path class="st21" d="M2617.6,570h3.8v25.2h-3.8V570z"/>
			<path class="st21" d="M2627.9,570h4.9l12.9,21.6l-0.7,0.2c-0.1-2.6-0.1-5.6-0.1-9.1V570h3.7v25.2h-4.9l-12.9-21.6l0.6-0.2
				c0.1,3.7,0.2,6.7,0.2,8.9v12.9h-3.7V570z"/>
			<path class="st21" d="M2655,570h5.6l5,13.9c0.4,1.1,0.7,1.9,0.8,2.4c0.2,0.5,0.5,1.3,0.8,2.4c0.2,0.5,0.4,1.2,0.7,2.2h0.1
				c0.6-2.1,1.4-4.2,2.2-6.6l5-14.4h5.4v25.2h-3.7v-12.5c0-3.6,0-6.6,0.1-9l0.4,0.1l-7.7,21.5h-3.8l-7.7-21.5l0.4-0.1
				c0.1,1.9,0.1,4.9,0.1,9v12.5h-3.7V570z"/>
			<path class="st21" d="M2685.5,579.7h9.5v3.3h-9.5V579.7z"/>
			<path class="st21" d="M2699.8,570h9.3c1.9,0,3.5,0.3,4.9,0.9c1.4,0.6,2.4,1.5,3.1,2.6c0.7,1.1,1.1,2.4,1.1,3.8s-0.4,2.7-1.2,3.8
				c-0.8,1.1-1.8,2-3.2,2.6c-1.4,0.6-3,0.9-4.8,0.9h-5.9v-3.1h5.7c1.7,0,3-0.4,4-1.1c1-0.7,1.5-1.8,1.5-3.1c0-1.4-0.5-2.4-1.5-3.1
				c-1-0.7-2.3-1-4-1h-5.9l0.6-0.6v22.7h-3.8V570z M2706.2,583.1h4.2l8.5,12.1h-4.5L2706.2,583.1z"/>
			<path class="st21" d="M2730.1,570h4.2l9.5,25.2h-4.1l-5.1-14.1c-0.8-2.3-1.6-4.6-2.5-6.9h0c-0.8,2.2-1.6,4.6-2.6,7.1l-5.1,14h-4
				L2730.1,570z M2726.3,586.3h11.5l1.4,3.2h-14.5L2726.3,586.3z"/>
			<path class="st21" d="M2744.2,579.7h9.5v3.3h-9.5V579.7z"/>
			<path class="st21" d="M2762.5,577l0.6,0.6h-6.7V575c1.6,0,3-0.4,4.2-1.3c1.2-0.9,1.9-2.1,2.3-3.7h3.2v25.2h-3.7V577z"/>
			<path class="st21" d="M2775.3,594.8c-1.3-0.6-2.3-1.4-3-2.4c-0.7-1-1.1-2-1.2-3.1h4.1c0.3,0.9,0.8,1.6,1.5,2.3
				c0.8,0.6,1.8,0.9,3.1,0.9c1.1,0,2-0.2,2.8-0.7c0.8-0.5,1.4-1.1,1.8-1.9c0.4-0.8,0.6-1.7,0.6-2.8c0-1-0.2-1.9-0.6-2.7
				s-0.9-1.5-1.6-1.9c-0.7-0.5-1.6-0.7-2.6-0.7c-1.1,0-2.1,0.2-2.8,0.7c-0.8,0.5-1.4,1.1-1.9,1.9h-3.9l1.8-14.4h14v3.3h-12.7
				l1.8-1.7l-1.2,10.3l-0.1-0.4c0.4-0.7,1.1-1.3,2.1-1.9s2.2-0.8,3.5-0.8c1.7,0,3.1,0.3,4.3,1s2.1,1.7,2.8,2.9c0.6,1.3,1,2.7,1,4.4
				c0,1.6-0.4,3.1-1.1,4.4c-0.7,1.3-1.8,2.3-3.2,3.1s-3,1.1-4.7,1.1S2776.5,595.4,2775.3,594.8z"/>
			<path class="st21" d="M2797.1,594.2c-1.4-1-2.6-2.5-3.4-4.4s-1.2-4.4-1.2-7.2c0-2.9,0.4-5.3,1.2-7.2c0.8-2,1.9-3.4,3.4-4.4
				c1.4-1,3.1-1.5,4.9-1.5c1.9,0,3.5,0.5,5,1.5c1.4,1,2.5,2.5,3.4,4.4c0.8,2,1.2,4.4,1.2,7.2c0,2.9-0.4,5.3-1.2,7.2
				c-0.8,2-1.9,3.4-3.4,4.4c-1.4,1-3.1,1.5-5,1.5C2800.1,595.7,2798.5,595.2,2797.1,594.2z M2805.1,591.5c0.9-0.7,1.5-1.8,1.9-3.3
				c0.4-1.5,0.7-3.4,0.7-5.7c0-3.4-0.5-5.9-1.5-7.5c-1-1.6-2.4-2.5-4.2-2.5c-1.2,0-2.2,0.4-3.1,1.1c-0.9,0.7-1.5,1.8-1.9,3.3
				c-0.4,1.5-0.7,3.4-0.7,5.7c0,3.4,0.5,5.9,1.5,7.6c1,1.6,2.4,2.4,4.2,2.4C2803.2,592.6,2804.3,592.2,2805.1,591.5z"/>
		</g>
	</g>
	<g>
		<g>
			<path class="st21" d="M2617.6,675h3.8v25.2h-3.8V675z"/>
			<path class="st21" d="M2627.9,675h4.9l12.9,21.6l-0.7,0.2c-0.1-2.6-0.1-5.6-0.1-9.1V675h3.7v25.2h-4.9l-12.9-21.6l0.6-0.2
				c0.1,3.7,0.2,6.7,0.2,8.9v12.9h-3.7V675z"/>
			<path class="st21" d="M2655,675h5.6l5,13.9c0.4,1.1,0.7,1.9,0.8,2.4c0.2,0.5,0.5,1.3,0.8,2.4c0.2,0.5,0.4,1.2,0.7,2.2h0.1
				c0.6-2.1,1.4-4.2,2.2-6.6l5-14.4h5.4v25.2h-3.7v-12.5c0-3.6,0-6.6,0.1-9l0.4,0.1l-7.7,21.5h-3.8l-7.7-21.5l0.4-0.1
				c0.1,1.9,0.1,4.9,0.1,9v12.5h-3.7V675z"/>
			<path class="st21" d="M2685.5,684.7h9.5v3.3h-9.5V684.7z"/>
			<path class="st21" d="M2705.1,699c-1.9-1.1-3.5-2.7-4.6-4.7c-1.2-2-1.7-4.3-1.7-6.8s0.6-4.8,1.7-6.8c1.2-2,2.7-3.6,4.6-4.7
				c1.9-1.1,4-1.7,6.3-1.7c2.3,0,4.4,0.6,6.3,1.7c1.9,1.1,3.5,2.7,4.6,4.7c1.2,2,1.7,4.3,1.7,6.8s-0.6,4.8-1.7,6.8
				c-1.2,2-2.7,3.6-4.6,4.7c-1.9,1.1-4.1,1.7-6.3,1.7C2709.1,700.7,2707,700.1,2705.1,699z M2715.9,696.2c1.3-0.8,2.3-1.9,3.1-3.4
				c0.7-1.5,1.1-3.2,1.1-5.2c0-2-0.4-3.7-1.1-5.2c-0.7-1.5-1.8-2.6-3.1-3.4c-1.3-0.8-2.8-1.2-4.6-1.2c-1.7,0-3.2,0.4-4.5,1.2
				c-1.3,0.8-2.3,2-3.1,3.4c-0.7,1.5-1.1,3.2-1.1,5.2c0,2,0.4,3.7,1.1,5.2c0.7,1.5,1.8,2.6,3.1,3.4c1.3,0.8,2.8,1.2,4.5,1.2
				C2713.1,697.4,2714.6,697,2715.9,696.2z"/>
			<path class="st21" d="M2735,675h4.2l9.5,25.2h-4.1l-5.1-14.1c-0.8-2.3-1.6-4.6-2.5-6.9h0c-0.8,2.2-1.6,4.6-2.6,7.1l-5.1,14h-4
				L2735,675z M2731.2,691.3h11.5l1.4,3.2h-14.5L2731.2,691.3z"/>
			<path class="st21" d="M2749.2,684.7h9.5v3.3h-9.5V684.7z"/>
			<path class="st21" d="M2767.4,682l0.6,0.6h-6.7V680c1.6,0,3-0.4,4.2-1.3c1.2-0.9,1.9-2.1,2.3-3.7h3.2v25.2h-3.7V682z"/>
			<path class="st21" d="M2780.2,699.8c-1.3-0.6-2.3-1.4-3-2.4c-0.7-1-1.1-2-1.2-3.1h4.1c0.3,0.9,0.8,1.6,1.5,2.3
				c0.8,0.6,1.8,0.9,3.1,0.9c1.1,0,2-0.2,2.8-0.7c0.8-0.5,1.4-1.1,1.8-1.9c0.4-0.8,0.6-1.7,0.6-2.8c0-1-0.2-1.9-0.6-2.7
				s-0.9-1.5-1.6-1.9c-0.7-0.5-1.6-0.7-2.6-0.7c-1.1,0-2.1,0.2-2.8,0.7c-0.8,0.5-1.4,1.1-1.9,1.9h-3.9l1.8-14.4h14v3.3h-12.7
				l1.8-1.7l-1.2,10.3l-0.1-0.4c0.4-0.7,1.1-1.3,2.1-1.9c1.1-0.6,2.2-0.8,3.5-0.8c1.7,0,3.1,0.3,4.3,1c1.2,0.7,2.1,1.7,2.8,2.9
				c0.6,1.3,1,2.7,1,4.4c0,1.6-0.4,3.1-1.1,4.4c-0.7,1.3-1.8,2.3-3.2,3.1c-1.4,0.7-3,1.1-4.7,1.1
				C2783,700.7,2781.5,700.4,2780.2,699.8z"/>
			<path class="st21" d="M2802,699.2c-1.4-1-2.6-2.5-3.4-4.4c-0.8-2-1.2-4.4-1.2-7.2c0-2.9,0.4-5.3,1.2-7.2c0.8-2,1.9-3.4,3.4-4.4
				c1.4-1,3.1-1.5,4.9-1.5c1.9,0,3.5,0.5,4.9,1.5c1.4,1,2.6,2.5,3.4,4.4c0.8,2,1.2,4.4,1.2,7.2c0,2.9-0.4,5.3-1.2,7.2
				s-1.9,3.4-3.4,4.4s-3.1,1.5-4.9,1.5C2805.1,700.7,2803.5,700.2,2802,699.2z M2810.1,696.5c0.9-0.7,1.5-1.8,1.9-3.3
				c0.4-1.5,0.7-3.4,0.7-5.7c0-3.4-0.5-5.9-1.5-7.5c-1-1.6-2.4-2.5-4.2-2.5c-1.2,0-2.2,0.4-3.1,1.1c-0.9,0.7-1.5,1.8-1.9,3.3
				c-0.4,1.5-0.7,3.4-0.7,5.7c0,3.4,0.5,5.9,1.5,7.6c1,1.6,2.4,2.4,4.2,2.4C2808.2,697.6,2809.2,697.2,2810.1,696.5z"/>
		</g>
	</g>
	<g>
		<g>
			<path class="st21" d="M2617.6,780h3.8v25.2h-3.8V780z"/>
			<path class="st21" d="M2627.9,780h4.9l12.9,21.6l-0.7,0.2c-0.1-2.6-0.1-5.6-0.1-9.1V780h3.7v25.2h-4.9l-12.9-21.6l0.6-0.2
				c0.1,3.7,0.2,6.7,0.2,8.9v12.9h-3.7V780z"/>
			<path class="st21" d="M2655,780h5.6l5,13.9c0.4,1.1,0.7,1.9,0.8,2.4c0.2,0.5,0.5,1.3,0.8,2.4c0.2,0.5,0.4,1.2,0.7,2.2h0.1
				c0.6-2.1,1.4-4.2,2.2-6.6l5-14.4h5.4v25.2h-3.7v-12.5c0-3.6,0-6.6,0.1-9l0.4,0.1l-7.7,21.5h-3.8l-7.7-21.5l0.4-0.1
				c0.1,1.9,0.1,4.9,0.1,9v12.5h-3.7V780z"/>
			<path class="st21" d="M2685.5,789.7h9.5v3.3h-9.5V789.7z"/>
			<path class="st21" d="M2705.1,804c-1.9-1.1-3.5-2.7-4.6-4.7c-1.2-2-1.7-4.3-1.7-6.8s0.6-4.8,1.7-6.8c1.2-2,2.7-3.6,4.6-4.7
				c1.9-1.1,4-1.7,6.3-1.7c2.3,0,4.4,0.6,6.3,1.7c1.9,1.1,3.5,2.7,4.6,4.7c1.2,2,1.7,4.3,1.7,6.8s-0.6,4.8-1.7,6.8
				c-1.2,2-2.7,3.6-4.6,4.7c-1.9,1.1-4.1,1.7-6.3,1.7C2709.1,805.7,2707,805.1,2705.1,804z M2715.9,801.2c1.3-0.8,2.3-1.9,3.1-3.4
				c0.7-1.5,1.1-3.2,1.1-5.2c0-2-0.4-3.7-1.1-5.2c-0.7-1.5-1.8-2.6-3.1-3.4c-1.3-0.8-2.8-1.2-4.6-1.2c-1.7,0-3.2,0.4-4.5,1.2
				c-1.3,0.8-2.3,2-3.1,3.4c-0.7,1.5-1.1,3.2-1.1,5.2c0,2,0.4,3.7,1.1,5.2c0.7,1.5,1.8,2.6,3.1,3.4c1.3,0.8,2.8,1.2,4.5,1.2
				C2713.1,802.4,2714.6,802,2715.9,801.2z"/>
			<path class="st21" d="M2735,780h4.2l9.5,25.2h-4.1l-5.1-14.1c-0.8-2.3-1.6-4.6-2.5-6.9h0c-0.8,2.2-1.6,4.6-2.6,7.1l-5.1,14h-4
				L2735,780z M2731.2,796.3h11.5l1.4,3.2h-14.5L2731.2,796.3z"/>
			<path class="st21" d="M2749.2,789.7h9.5v3.3h-9.5V789.7z"/>
			<path class="st21" d="M2767.4,787l0.6,0.6h-6.7V785c1.6,0,3-0.4,4.2-1.3c1.2-0.9,1.9-2.1,2.3-3.7h3.2v25.2h-3.7V787z"/>
			<path class="st21" d="M2781,804.2c-1.4-1-2.6-2.5-3.4-4.4s-1.2-4.4-1.2-7.2c0-2.9,0.4-5.3,1.2-7.2c0.8-2,1.9-3.4,3.4-4.4
				c1.4-1,3.1-1.5,4.9-1.5c1.9,0,3.5,0.5,5,1.5c1.4,1,2.5,2.5,3.4,4.4c0.8,2,1.2,4.4,1.2,7.2c0,2.9-0.4,5.3-1.2,7.2
				c-0.8,2-1.9,3.4-3.4,4.4c-1.4,1-3.1,1.5-5,1.5C2784,805.7,2782.4,805.2,2781,804.2z M2789,801.5c0.9-0.7,1.5-1.8,1.9-3.3
				c0.4-1.5,0.7-3.4,0.7-5.7c0-3.4-0.5-5.9-1.5-7.5c-1-1.6-2.4-2.5-4.2-2.5c-1.2,0-2.2,0.4-3.1,1.1c-0.9,0.7-1.5,1.8-1.9,3.3
				c-0.4,1.5-0.7,3.4-0.7,5.7c0,3.4,0.5,5.9,1.5,7.6c1,1.6,2.4,2.4,4.2,2.4C2787.1,802.6,2788.2,802.2,2789,801.5z"/>
			<path class="st21" d="M2804,804.2c-1.4-1-2.6-2.5-3.4-4.4c-0.8-2-1.2-4.4-1.2-7.2c0-2.9,0.4-5.3,1.2-7.2c0.8-2,1.9-3.4,3.4-4.4
				c1.4-1,3.1-1.5,4.9-1.5c1.9,0,3.5,0.5,5,1.5c1.4,1,2.5,2.5,3.4,4.4c0.8,2,1.2,4.4,1.2,7.2c0,2.9-0.4,5.3-1.2,7.2
				c-0.8,2-1.9,3.4-3.4,4.4s-3.1,1.5-5,1.5C2807.1,805.7,2805.4,805.2,2804,804.2z M2812.1,801.5c0.9-0.7,1.5-1.8,1.9-3.3
				c0.4-1.5,0.7-3.4,0.7-5.7c0-3.4-0.5-5.9-1.5-7.5c-1-1.6-2.4-2.5-4.2-2.5c-1.2,0-2.2,0.4-3.1,1.1c-0.9,0.7-1.5,1.8-1.9,3.3
				c-0.4,1.5-0.7,3.4-0.7,5.7c0,3.4,0.5,5.9,1.5,7.6c1,1.6,2.4,2.4,4.2,2.4C2810.2,802.6,2811.2,802.2,2812.1,801.5z"/>
		</g>
	</g>
	<g>
		<g>
			<path class="st21" d="M2617.6,875h3.8v25.2h-3.8V875z"/>
			<path class="st21" d="M2627.9,875h4.9l12.9,21.6l-0.7,0.2c-0.1-2.6-0.1-5.6-0.1-9.1V875h3.7v25.2h-4.9l-12.9-21.6l0.6-0.2
				c0.1,3.7,0.2,6.7,0.2,8.9v12.9h-3.7V875z"/>
			<path class="st21" d="M2655,875h5.6l5,13.9c0.4,1.1,0.7,1.9,0.8,2.4c0.2,0.5,0.5,1.3,0.8,2.4c0.2,0.5,0.4,1.2,0.7,2.2h0.1
				c0.6-2.1,1.4-4.2,2.2-6.6l5-14.4h5.4v25.2h-3.7v-12.5c0-3.6,0-6.6,0.1-9l0.4,0.1l-7.7,21.5h-3.8l-7.7-21.5l0.4-0.1
				c0.1,1.9,0.1,4.9,0.1,9v12.5h-3.7V875z"/>
			<path class="st21" d="M2685.5,884.7h9.5v3.3h-9.5V884.7z"/>
			<path class="st21" d="M2705.1,899c-1.9-1.1-3.5-2.7-4.6-4.7c-1.2-2-1.7-4.3-1.7-6.8s0.6-4.8,1.7-6.8c1.2-2,2.7-3.6,4.6-4.7
				c1.9-1.1,4-1.7,6.3-1.7c2.3,0,4.4,0.6,6.3,1.7c1.9,1.1,3.5,2.7,4.6,4.7c1.2,2,1.7,4.3,1.7,6.8s-0.6,4.8-1.7,6.8
				c-1.2,2-2.7,3.6-4.6,4.7c-1.9,1.1-4.1,1.7-6.3,1.7C2709.1,900.7,2707,900.1,2705.1,899z M2715.9,896.2c1.3-0.8,2.3-1.9,3.1-3.4
				c0.7-1.5,1.1-3.2,1.1-5.2c0-2-0.4-3.7-1.1-5.2c-0.7-1.5-1.8-2.6-3.1-3.4c-1.3-0.8-2.8-1.2-4.6-1.2c-1.7,0-3.2,0.4-4.5,1.2
				c-1.3,0.8-2.3,2-3.1,3.4c-0.7,1.5-1.1,3.2-1.1,5.2c0,2,0.4,3.7,1.1,5.2c0.7,1.5,1.8,2.6,3.1,3.4c1.3,0.8,2.8,1.2,4.5,1.2
				C2713.1,897.4,2714.6,897,2715.9,896.2z"/>
			<path class="st21" d="M2735,875h4.2l9.5,25.2h-4.1l-5.1-14.1c-0.8-2.3-1.6-4.6-2.5-6.9h0c-0.8,2.2-1.6,4.6-2.6,7.1l-5.1,14h-4
				L2735,875z M2731.2,891.3h11.5l1.4,3.2h-14.5L2731.2,891.3z"/>
			<path class="st21" d="M2749.2,884.7h9.5v3.3h-9.5V884.7z"/>
			<path class="st21" d="M2766.2,899.7c-1.4-0.6-2.5-1.5-3.3-2.7c-0.8-1.2-1.2-2.4-1.2-3.9c0-1.2,0.3-2.3,0.8-3.3
				c0.5-0.9,1.2-1.7,2.1-2.3c0.9-0.6,2-1,3.2-1.2l0,0.5c-1.7-0.3-2.9-1-3.9-2.1c-0.9-1.1-1.4-2.4-1.4-4c0-1.2,0.4-2.3,1.1-3.3
				c0.7-1,1.7-1.8,3-2.3c1.3-0.6,2.7-0.8,4.3-0.8c1.6,0,3,0.3,4.3,0.8c1.3,0.6,2.3,1.3,3,2.3c0.7,1,1,2.1,1,3.3c0,1-0.2,1.9-0.6,2.8
				c-0.4,0.8-1,1.5-1.8,2.1c-0.8,0.6-1.7,1-2.7,1.2l0-0.5c1.2,0.2,2.2,0.5,3.1,1.1c0.9,0.6,1.6,1.4,2.1,2.3c0.5,1,0.8,2.1,0.8,3.3
				c0,1.4-0.4,2.7-1.2,3.9c-0.8,1.2-1.9,2.1-3.3,2.7s-3,1-4.8,1C2769.1,900.7,2767.6,900.4,2766.2,899.7z M2773.7,897
				c0.8-0.4,1.5-0.9,1.9-1.7s0.7-1.5,0.7-2.4c0-0.9-0.2-1.8-0.7-2.5s-1.1-1.3-1.9-1.6c-0.8-0.4-1.8-0.6-2.8-0.6s-2,0.2-2.8,0.6
				c-0.8,0.4-1.4,0.9-1.9,1.6c-0.4,0.7-0.7,1.5-0.7,2.5c0,0.9,0.2,1.7,0.7,2.4s1.1,1.3,1.9,1.7s1.7,0.6,2.8,0.6
				C2772,897.6,2772.9,897.4,2773.7,897z M2773.3,884.7c0.7-0.3,1.2-0.8,1.6-1.4c0.4-0.6,0.6-1.3,0.6-2.1c0-1.1-0.4-2-1.2-2.7
				c-0.8-0.7-1.9-1-3.3-1c-0.9,0-1.7,0.2-2.4,0.5c-0.7,0.3-1.2,0.8-1.6,1.3c-0.4,0.6-0.6,1.2-0.6,2c0,1.2,0.4,2.1,1.3,2.8
				c0.9,0.7,1.9,1.1,3.3,1.1C2771.8,885.3,2772.6,885.1,2773.3,884.7z"/>
			<path class="st21" d="M2788.6,899.2c-1.4-1-2.6-2.5-3.4-4.4c-0.8-2-1.2-4.4-1.2-7.2c0-2.9,0.4-5.3,1.2-7.2c0.8-2,1.9-3.4,3.4-4.4
				c1.4-1,3.1-1.5,4.9-1.5c1.9,0,3.5,0.5,5,1.5c1.4,1,2.5,2.5,3.4,4.4c0.8,2,1.2,4.4,1.2,7.2c0,2.9-0.4,5.3-1.2,7.2
				c-0.8,2-1.9,3.4-3.4,4.4s-3.1,1.5-5,1.5C2791.6,900.7,2790,900.2,2788.6,899.2z M2796.6,896.5c0.9-0.7,1.5-1.8,1.9-3.3
				c0.4-1.5,0.7-3.4,0.7-5.7c0-3.4-0.5-5.9-1.5-7.5c-1-1.6-2.4-2.5-4.2-2.5c-1.2,0-2.2,0.4-3.1,1.1c-0.9,0.7-1.5,1.8-1.9,3.3
				c-0.4,1.5-0.7,3.4-0.7,5.7c0,3.4,0.5,5.9,1.5,7.6c1,1.6,2.4,2.4,4.2,2.4C2794.7,897.6,2795.8,897.2,2796.6,896.5z"/>
		</g>
	</g>
	<g>
		<g>
			<path class="st21" d="M188.2,426h3.8v25.2h-3.8V426z"/>
			<path class="st21" d="M198.5,426h5.6l5,13.9c0.4,1.1,0.7,1.9,0.8,2.4c0.2,0.5,0.5,1.3,0.8,2.4c0.2,0.5,0.4,1.2,0.7,2.2h0.1
				c0.6-2.1,1.4-4.2,2.2-6.6l5-14.4h5.4v25.2h-3.7v-12.5c0-3.6,0-6.6,0.1-9l0.4,0.1l-7.7,21.5h-3.8l-7.7-21.5l0.4-0.1
				c0.1,1.9,0.1,4.9,0.1,9v12.5h-3.7V426z"/>
			<path class="st21" d="M230.6,426h4.9l12.9,21.6l-0.7,0.2c-0.1-2.6-0.1-5.6-0.1-9.1V426h3.7v25.2h-4.9l-12.9-21.6l0.6-0.2
				c0.1,3.7,0.2,6.7,0.2,8.9v12.9h-3.7V426z"/>
			<path class="st21" d="M256.1,435.7h9.5v3.3h-9.5V435.7z"/>
			<path class="st21" d="M270.4,426h7.9c2.5,0,4.7,0.5,6.7,1.6c2,1.1,3.5,2.5,4.7,4.4c1.1,1.9,1.7,4.1,1.7,6.6
				c0,2.5-0.6,4.7-1.7,6.6c-1.1,1.9-2.7,3.4-4.7,4.4c-2,1.1-4.2,1.6-6.7,1.6h-7.9V426z M272.5,447.8h5.5c2,0,3.7-0.4,5.1-1.1
				c1.4-0.7,2.5-1.8,3.3-3.2c0.8-1.4,1.1-3.1,1.1-5c0-1.9-0.4-3.6-1.1-5c-0.8-1.4-1.9-2.5-3.3-3.2c-1.4-0.7-3.2-1.1-5.1-1.1h-5.5
				l1.7-1.7v22L272.5,447.8z"/>
			<path class="st21" d="M300.8,450c-1.8-1.1-3.3-2.6-4.3-4.6c-1-2-1.6-4.2-1.6-6.6c0-2.6,0.6-4.9,1.7-7c1.1-2,2.7-3.6,4.6-4.7
				c2-1.1,4.1-1.7,6.6-1.7c2.1,0,3.9,0.4,5.5,1.1c1.6,0.7,2.8,1.7,3.7,2.8c0.9,1.2,1.5,2.4,1.9,3.7H315c-0.6-1.3-1.5-2.3-2.6-3.1
				s-2.7-1.2-4.6-1.2c-1.7,0-3.1,0.4-4.5,1.2s-2.4,1.9-3.1,3.5c-0.8,1.5-1.2,3.3-1.2,5.4c0,2,0.4,3.7,1.1,5.2
				c0.7,1.5,1.7,2.6,3.1,3.4c1.3,0.8,2.9,1.2,4.7,1.2c1.6,0,2.9-0.3,4.1-1c1.2-0.7,2.1-1.6,2.8-2.9c0.7-1.3,1-2.8,1-4.5l0.6,0.5
				h-9.8v-3.1h12.3v13.6h-3.5v-4l0.2,0.4c-0.7,1.2-1.8,2.2-3.2,3c-1.4,0.8-3.2,1.2-5.4,1.2C304.7,451.7,302.6,451.1,300.8,450z"/>
			<path class="st21" d="M323.5,435.7h9.5v3.3h-9.5V435.7z"/>
			<path class="st21" d="M340.5,450.7c-1.4-0.6-2.5-1.5-3.3-2.7c-0.8-1.2-1.2-2.4-1.2-3.9c0-1.2,0.3-2.3,0.8-3.3
				c0.5-0.9,1.2-1.7,2.1-2.3c0.9-0.6,2-1,3.2-1.2l0,0.5c-1.7-0.3-2.9-1-3.9-2.1c-0.9-1.1-1.4-2.4-1.4-4c0-1.2,0.4-2.3,1.1-3.3
				c0.7-1,1.7-1.8,3-2.3c1.3-0.6,2.7-0.8,4.3-0.8c1.6,0,3,0.3,4.3,0.8c1.3,0.6,2.3,1.3,3,2.3c0.7,1,1,2.1,1,3.3c0,1-0.2,1.9-0.6,2.8
				c-0.4,0.8-1,1.5-1.8,2.1c-0.8,0.6-1.7,1-2.7,1.2l0-0.5c1.2,0.2,2.2,0.5,3.1,1.1c0.9,0.6,1.6,1.4,2.1,2.3c0.5,1,0.8,2.1,0.8,3.3
				c0,1.4-0.4,2.7-1.2,3.9c-0.8,1.2-1.9,2.1-3.3,2.7c-1.4,0.6-3,1-4.8,1C343.5,451.7,341.9,451.4,340.5,450.7z M348,448
				c0.8-0.4,1.5-0.9,1.9-1.7c0.5-0.7,0.7-1.5,0.7-2.4c0-0.9-0.2-1.8-0.7-2.5c-0.4-0.7-1.1-1.3-1.9-1.6c-0.8-0.4-1.8-0.6-2.8-0.6
				s-2,0.2-2.8,0.6c-0.8,0.4-1.4,0.9-1.9,1.6c-0.4,0.7-0.7,1.5-0.7,2.5c0,0.9,0.2,1.7,0.7,2.4c0.5,0.7,1.1,1.3,1.9,1.7
				s1.7,0.6,2.8,0.6C346.3,448.6,347.2,448.4,348,448z M347.6,435.7c0.7-0.3,1.2-0.8,1.6-1.4c0.4-0.6,0.6-1.3,0.6-2.1
				c0-1.1-0.4-2-1.2-2.7c-0.8-0.7-1.9-1-3.3-1c-0.9,0-1.7,0.2-2.4,0.5c-0.7,0.3-1.2,0.8-1.6,1.3c-0.4,0.6-0.6,1.2-0.6,2
				c0,1.2,0.4,2.1,1.3,2.8c0.9,0.7,1.9,1.1,3.3,1.1C346.1,436.3,346.9,436.1,347.6,435.7z"/>
			<path class="st21" d="M362.9,450.2c-1.4-1-2.6-2.5-3.4-4.4c-0.8-2-1.2-4.4-1.2-7.2c0-2.9,0.4-5.3,1.2-7.2c0.8-2,1.9-3.4,3.4-4.4
				c1.4-1,3.1-1.5,4.9-1.5c1.9,0,3.5,0.5,5,1.5c1.4,1,2.5,2.5,3.4,4.4c0.8,2,1.2,4.4,1.2,7.2c0,2.9-0.4,5.3-1.2,7.2
				s-1.9,3.4-3.4,4.4c-1.4,1-3.1,1.5-5,1.5C366,451.7,364.3,451.2,362.9,450.2z M370.9,447.5c0.9-0.7,1.5-1.8,1.9-3.3
				c0.4-1.5,0.7-3.4,0.7-5.7c0-3.4-0.5-5.9-1.5-7.5c-1-1.6-2.4-2.5-4.2-2.5c-1.2,0-2.2,0.4-3.1,1.1c-0.9,0.7-1.5,1.8-1.9,3.3
				c-0.4,1.5-0.7,3.4-0.7,5.7c0,3.4,0.5,5.9,1.5,7.6c1,1.6,2.4,2.4,4.2,2.4C369,448.6,370.1,448.2,370.9,447.5z"/>
		</g>
	</g>
	<g>
		<g>
			<path class="st21" d="M188.2,520h3.8v25.2h-3.8V520z"/>
			<path class="st21" d="M198.5,520h5.6l5,13.9c0.4,1.1,0.7,1.9,0.8,2.4c0.2,0.5,0.5,1.3,0.8,2.4c0.2,0.5,0.4,1.2,0.7,2.2h0.1
				c0.6-2.1,1.4-4.2,2.2-6.6l5-14.4h5.4v25.2h-3.7v-12.5c0-3.6,0-6.6,0.1-9l0.4,0.1l-7.7,21.5h-3.8l-7.7-21.5l0.4-0.1
				c0.1,1.9,0.1,4.9,0.1,9v12.5h-3.7V520z"/>
			<path class="st21" d="M230.6,520h4.9l12.9,21.6l-0.7,0.2c-0.1-2.6-0.1-5.6-0.1-9.1V520h3.7v25.2h-4.9l-12.9-21.6l0.6-0.2
				c0.1,3.7,0.2,6.7,0.2,8.9v12.9h-3.7V520z"/>
			<path class="st21" d="M256.1,529.7h9.5v3.3h-9.5V529.7z"/>
			<path class="st21" d="M270.4,520h7.9c2.5,0,4.7,0.5,6.7,1.6c2,1.1,3.5,2.5,4.7,4.4c1.1,1.9,1.7,4.1,1.7,6.6
				c0,2.5-0.6,4.7-1.7,6.6c-1.1,1.9-2.7,3.4-4.7,4.4c-2,1.1-4.2,1.6-6.7,1.6h-7.9V520z M272.5,541.8h5.5c2,0,3.7-0.4,5.1-1.1
				c1.4-0.7,2.5-1.8,3.3-3.2c0.8-1.4,1.1-3.1,1.1-5c0-1.9-0.4-3.6-1.1-5c-0.8-1.4-1.9-2.5-3.3-3.2c-1.4-0.7-3.2-1.1-5.1-1.1h-5.5
				l1.7-1.7v22L272.5,541.8z"/>
			<path class="st21" d="M300.8,544c-1.8-1.1-3.3-2.6-4.3-4.6c-1-2-1.6-4.2-1.6-6.6c0-2.6,0.6-4.9,1.7-7c1.1-2,2.7-3.6,4.6-4.7
				c2-1.1,4.1-1.7,6.6-1.7c2.1,0,3.9,0.4,5.5,1.1c1.6,0.7,2.8,1.7,3.7,2.8c0.9,1.2,1.5,2.4,1.9,3.7H315c-0.6-1.3-1.5-2.3-2.6-3.1
				s-2.7-1.2-4.6-1.2c-1.7,0-3.1,0.4-4.5,1.2s-2.4,1.9-3.1,3.5c-0.8,1.5-1.2,3.3-1.2,5.4c0,2,0.4,3.7,1.1,5.2
				c0.7,1.5,1.7,2.6,3.1,3.4c1.3,0.8,2.9,1.2,4.7,1.2c1.6,0,2.9-0.3,4.1-1c1.2-0.7,2.1-1.6,2.8-2.9c0.7-1.3,1-2.8,1-4.5l0.6,0.5
				h-9.8v-3.1h12.3v13.6h-3.5v-4l0.2,0.4c-0.7,1.2-1.8,2.2-3.2,3c-1.4,0.8-3.2,1.2-5.4,1.2C304.7,545.7,302.6,545.1,300.8,544z"/>
			<path class="st21" d="M323.5,529.7h9.5v3.3h-9.5V529.7z"/>
			<path class="st21" d="M341.6,544.2c-1.5-1-2.6-2.4-3.4-4.3c-0.8-1.9-1.2-4.1-1.2-6.8c0-2.8,0.4-5.3,1.2-7.3
				c0.8-2.1,1.9-3.7,3.4-4.8c1.5-1.1,3.3-1.7,5.5-1.7c2.3,0,4.1,0.5,5.4,1.6c1.3,1.1,2.1,2.4,2.4,4.1h-3.8c-0.3-0.8-0.8-1.4-1.5-1.9
				s-1.5-0.7-2.6-0.7c-1.5,0-2.7,0.5-3.6,1.4s-1.6,2.2-2,3.8s-0.6,3.4-0.6,5.4l-0.2-0.2c0.6-1.2,1.4-2.1,2.6-2.9
				c1.2-0.8,2.6-1.1,4.2-1.1c1.6,0,2.9,0.4,4.1,1.1c1.2,0.7,2.1,1.8,2.8,3c0.7,1.3,1,2.7,1,4.3c0,1.6-0.4,3-1.1,4.2
				c-0.7,1.3-1.7,2.3-3,3c-1.3,0.7-2.8,1.1-4.4,1.1C344.8,545.7,343.1,545.2,341.6,544.2z M349.2,541.9c0.8-0.5,1.4-1.1,1.8-1.9
				c0.4-0.8,0.6-1.7,0.6-2.7c0-1.1-0.2-2-0.6-2.8s-1-1.4-1.8-1.9c-0.8-0.4-1.6-0.7-2.6-0.7c-1,0-1.8,0.2-2.6,0.7
				c-0.8,0.5-1.4,1.1-1.8,1.9c-0.4,0.8-0.6,1.7-0.6,2.8s0.2,2,0.6,2.8c0.4,0.8,1,1.4,1.8,1.9c0.8,0.4,1.6,0.7,2.6,0.7
				C347.5,542.6,348.4,542.3,349.2,541.9z"/>
			<path class="st21" d="M363.7,544.2c-1.4-1-2.6-2.5-3.4-4.4c-0.8-2-1.2-4.4-1.2-7.2c0-2.9,0.4-5.3,1.2-7.2c0.8-2,1.9-3.4,3.4-4.4
				c1.4-1,3.1-1.5,4.9-1.5c1.9,0,3.5,0.5,5,1.5c1.4,1,2.5,2.5,3.4,4.4c0.8,2,1.2,4.4,1.2,7.2c0,2.9-0.4,5.3-1.2,7.2
				s-1.9,3.4-3.4,4.4c-1.4,1-3.1,1.5-5,1.5C366.8,545.7,365.1,545.2,363.7,544.2z M371.7,541.5c0.9-0.7,1.5-1.8,1.9-3.3
				c0.4-1.5,0.7-3.4,0.7-5.7c0-3.4-0.5-5.9-1.5-7.5c-1-1.6-2.4-2.5-4.2-2.5c-1.2,0-2.2,0.4-3.1,1.1c-0.9,0.7-1.5,1.8-1.9,3.3
				c-0.4,1.5-0.7,3.4-0.7,5.7c0,3.4,0.5,5.9,1.5,7.6c1,1.6,2.4,2.4,4.2,2.4C369.8,542.6,370.9,542.2,371.7,541.5z"/>
		</g>
	</g>
	<g>
		<g>
			<path class="st21" d="M188.2,612h3.8v25.2h-3.8V612z"/>
			<path class="st21" d="M198.5,612h5.6l5,13.9c0.4,1.1,0.7,1.9,0.8,2.4c0.2,0.5,0.5,1.3,0.8,2.4c0.2,0.5,0.4,1.2,0.7,2.2h0.1
				c0.6-2.1,1.4-4.2,2.2-6.6l5-14.4h5.4v25.2h-3.7v-12.5c0-3.6,0-6.6,0.1-9l0.4,0.1l-7.7,21.5h-3.8l-7.7-21.5l0.4-0.1
				c0.1,1.9,0.1,4.9,0.1,9v12.5h-3.7V612z"/>
			<path class="st21" d="M230.6,612h4.9l12.9,21.6l-0.7,0.2c-0.1-2.6-0.1-5.6-0.1-9.1V612h3.7v25.2h-4.9l-12.9-21.6l0.6-0.2
				c0.1,3.7,0.2,6.7,0.2,8.9v12.9h-3.7V612z"/>
			<path class="st21" d="M256.1,621.7h9.5v3.3h-9.5V621.7z"/>
			<path class="st21" d="M270.4,612h7.9c2.5,0,4.7,0.5,6.7,1.6c2,1.1,3.5,2.5,4.7,4.4c1.1,1.9,1.7,4.1,1.7,6.6
				c0,2.5-0.6,4.7-1.7,6.6c-1.1,1.9-2.7,3.4-4.7,4.4c-2,1.1-4.2,1.6-6.7,1.6h-7.9V612z M272.5,633.8h5.5c2,0,3.7-0.4,5.1-1.1
				c1.4-0.7,2.5-1.8,3.3-3.2c0.8-1.4,1.1-3.1,1.1-5c0-1.9-0.4-3.6-1.1-5c-0.8-1.4-1.9-2.5-3.3-3.2c-1.4-0.7-3.2-1.1-5.1-1.1h-5.5
				l1.7-1.7v22L272.5,633.8z"/>
			<path class="st21" d="M300.8,636c-1.8-1.1-3.3-2.6-4.3-4.6c-1-2-1.6-4.2-1.6-6.6c0-2.6,0.6-4.9,1.7-7c1.1-2,2.7-3.6,4.6-4.7
				c2-1.1,4.1-1.7,6.6-1.7c2.1,0,3.9,0.4,5.5,1.1c1.6,0.7,2.8,1.7,3.7,2.8c0.9,1.2,1.5,2.4,1.9,3.7H315c-0.6-1.3-1.5-2.3-2.6-3.1
				s-2.7-1.2-4.6-1.2c-1.7,0-3.1,0.4-4.5,1.2s-2.4,1.9-3.1,3.5c-0.8,1.5-1.2,3.3-1.2,5.4c0,2,0.4,3.7,1.1,5.2
				c0.7,1.5,1.7,2.6,3.1,3.4c1.3,0.8,2.9,1.2,4.7,1.2c1.6,0,2.9-0.3,4.1-1c1.2-0.7,2.1-1.6,2.8-2.9c0.7-1.3,1-2.8,1-4.5l0.6,0.5
				h-9.8v-3.1h12.3v13.6h-3.5v-4l0.2,0.4c-0.7,1.2-1.8,2.2-3.2,3c-1.4,0.8-3.2,1.2-5.4,1.2C304.7,637.7,302.6,637.1,300.8,636z"/>
			<path class="st21" d="M323.5,621.7h9.5v3.3h-9.5V621.7z"/>
			<path class="st21" d="M335.3,627.8l12.2-15.8h4v25.2h-3.7v-23.7l2.1,0.5l-12.3,15.9l-0.6-1.7h17.8v3.2h-19.4V627.8z"/>
			<path class="st21" d="M362.7,636.2c-1.4-1-2.6-2.5-3.4-4.4c-0.8-2-1.2-4.4-1.2-7.2c0-2.9,0.4-5.3,1.2-7.2c0.8-2,1.9-3.4,3.4-4.4
				c1.4-1,3.1-1.5,4.9-1.5c1.9,0,3.5,0.5,5,1.5c1.4,1,2.5,2.5,3.4,4.4c0.8,2,1.2,4.4,1.2,7.2c0,2.9-0.4,5.3-1.2,7.2
				s-1.9,3.4-3.4,4.4c-1.4,1-3.1,1.5-5,1.5C365.8,637.7,364.2,637.2,362.7,636.2z M370.8,633.5c0.9-0.7,1.5-1.8,1.9-3.3
				c0.4-1.5,0.7-3.4,0.7-5.7c0-3.4-0.5-5.9-1.5-7.5c-1-1.6-2.4-2.5-4.2-2.5c-1.2,0-2.2,0.4-3.1,1.1c-0.9,0.7-1.5,1.8-1.9,3.3
				c-0.4,1.5-0.7,3.4-0.7,5.7c0,3.4,0.5,5.9,1.5,7.6c1,1.6,2.4,2.4,4.2,2.4C368.9,634.6,369.9,634.2,370.8,633.5z"/>
		</g>
	</g>
	<g>
		<g>
			<path class="st21" d="M188.2,714.5h3.8v25.2h-3.8V714.5z"/>
			<path class="st21" d="M198.5,714.5h5.6l5,13.9c0.4,1.1,0.7,1.9,0.8,2.4c0.2,0.5,0.5,1.3,0.8,2.4c0.2,0.5,0.4,1.2,0.7,2.2h0.1
				c0.6-2.1,1.4-4.2,2.2-6.6l5-14.4h5.4v25.2h-3.7v-12.5c0-3.6,0-6.6,0.1-9l0.4,0.1l-7.7,21.5h-3.8l-7.7-21.5l0.4-0.1
				c0.1,1.9,0.1,4.9,0.1,9v12.5h-3.7V714.5z"/>
			<path class="st21" d="M230.6,714.5h4.9l12.9,21.6l-0.7,0.2c-0.1-2.6-0.1-5.6-0.1-9.1v-12.7h3.7v25.2h-4.9L233.6,718l0.6-0.2
				c0.1,3.7,0.2,6.7,0.2,8.9v12.9h-3.7V714.5z"/>
			<path class="st21" d="M256.1,724.2h9.5v3.3h-9.5V724.2z"/>
			<path class="st21" d="M270.4,714.5h7.9c2.5,0,4.7,0.5,6.7,1.6c2,1.1,3.5,2.5,4.7,4.4c1.1,1.9,1.7,4.1,1.7,6.6
				c0,2.5-0.6,4.7-1.7,6.6c-1.1,1.9-2.7,3.4-4.7,4.4c-2,1.1-4.2,1.6-6.7,1.6h-7.9V714.5z M272.5,736.3h5.5c2,0,3.7-0.4,5.1-1.1
				c1.4-0.7,2.5-1.8,3.3-3.2c0.8-1.4,1.1-3.1,1.1-5c0-1.9-0.4-3.6-1.1-5c-0.8-1.4-1.9-2.5-3.3-3.2c-1.4-0.7-3.2-1.1-5.1-1.1h-5.5
				l1.7-1.7v22L272.5,736.3z"/>
			<path class="st21" d="M300.8,738.5c-1.8-1.1-3.3-2.6-4.3-4.6c-1-2-1.6-4.2-1.6-6.6c0-2.6,0.6-4.9,1.7-7c1.1-2,2.7-3.6,4.6-4.7
				c2-1.1,4.1-1.7,6.6-1.7c2.1,0,3.9,0.4,5.5,1.1c1.6,0.7,2.8,1.7,3.7,2.8c0.9,1.2,1.5,2.4,1.9,3.7H315c-0.6-1.3-1.5-2.3-2.6-3.1
				s-2.7-1.2-4.6-1.2c-1.7,0-3.1,0.4-4.5,1.2s-2.4,1.9-3.1,3.5c-0.8,1.5-1.2,3.3-1.2,5.4c0,2,0.4,3.7,1.1,5.2
				c0.7,1.5,1.7,2.6,3.1,3.4c1.3,0.8,2.9,1.2,4.7,1.2c1.6,0,2.9-0.3,4.1-1c1.2-0.7,2.1-1.6,2.8-2.9c0.7-1.3,1-2.8,1-4.5l0.6,0.5
				h-9.8V726h12.3v13.6h-3.5v-4l0.2,0.4c-0.7,1.2-1.8,2.2-3.2,3c-1.4,0.8-3.2,1.2-5.4,1.2C304.7,740.2,302.6,739.6,300.8,738.5z"/>
			<path class="st21" d="M323.5,724.2h9.5v3.3h-9.5V724.2z"/>
			<path class="st21" d="M336.8,734.9c0.5-1.4,1.3-2.6,2.4-3.7c1.1-1.1,2.5-2.2,4.3-3.2l1.7-1c1.2-0.7,2.1-1.4,2.8-1.9
				c0.7-0.6,1.2-1.1,1.5-1.8c0.3-0.6,0.5-1.3,0.5-2.2c0-0.8-0.2-1.6-0.6-2.2c-0.4-0.6-0.9-1.1-1.6-1.4c-0.7-0.3-1.5-0.5-2.3-0.5
				c-1.5,0-2.8,0.5-3.7,1.4s-1.4,2.1-1.4,3.7h-3.9c0-1.7,0.4-3.1,1.2-4.4s1.8-2.2,3.2-2.8c1.3-0.6,2.9-1,4.6-1c1.6,0,3.1,0.3,4.4,1
				c1.3,0.6,2.3,1.5,3,2.6c0.7,1.1,1.1,2.3,1.1,3.7c0,1.2-0.2,2.2-0.7,3.2c-0.5,0.9-1.1,1.8-1.9,2.5c-0.8,0.8-1.9,1.5-3.1,2.2
				l-2.4,1.4c-1.3,0.7-2.3,1.4-3.1,2.1c-0.8,0.6-1.4,1.3-1.9,2c-0.5,0.7-0.7,1.4-0.9,2.3l-2.2-0.6h16.4v3.4h-18.2
				C336,737.9,336.3,736.3,336.8,734.9z"/>
			<path class="st21" d="M362.6,738.7c-1.4-1-2.6-2.5-3.4-4.4c-0.8-2-1.2-4.4-1.2-7.2c0-2.9,0.4-5.3,1.2-7.2c0.8-2,1.9-3.4,3.4-4.4
				c1.4-1,3.1-1.5,4.9-1.5c1.9,0,3.5,0.5,5,1.5c1.4,1,2.5,2.5,3.4,4.4c0.8,2,1.2,4.4,1.2,7.2c0,2.9-0.4,5.3-1.2,7.2
				s-1.9,3.4-3.4,4.4c-1.4,1-3.1,1.5-5,1.5C365.7,740.2,364,739.7,362.6,738.7z M370.6,736c0.9-0.7,1.5-1.8,1.9-3.3
				c0.4-1.5,0.7-3.4,0.7-5.7c0-3.4-0.5-5.9-1.5-7.5c-1-1.6-2.4-2.5-4.2-2.5c-1.2,0-2.2,0.4-3.1,1.1c-0.9,0.7-1.5,1.8-1.9,3.3
				c-0.4,1.5-0.7,3.4-0.7,5.7c0,3.4,0.5,5.9,1.5,7.6c1,1.6,2.4,2.4,4.2,2.4C368.7,737.1,369.8,736.7,370.6,736z"/>
		</g>
	</g>
	<g>
		<g>
			<path class="st21" d="M188.2,818h3.8v25.2h-3.8V818z"/>
			<path class="st21" d="M198.5,818h5.6l5,13.9c0.4,1.1,0.7,1.9,0.8,2.4c0.2,0.5,0.5,1.3,0.8,2.4c0.2,0.5,0.4,1.2,0.7,2.2h0.1
				c0.6-2.1,1.4-4.2,2.2-6.6l5-14.4h5.4v25.2h-3.7v-12.5c0-3.6,0-6.6,0.1-9l0.4,0.1l-7.7,21.5h-3.8l-7.7-21.5l0.4-0.1
				c0.1,1.9,0.1,4.9,0.1,9v12.5h-3.7V818z"/>
			<path class="st21" d="M230.6,818h4.9l12.9,21.6l-0.7,0.2c-0.1-2.6-0.1-5.6-0.1-9.1V818h3.7v25.2h-4.9l-12.9-21.6l0.6-0.2
				c0.1,3.7,0.2,6.7,0.2,8.9v12.9h-3.7V818z"/>
			<path class="st21" d="M256.1,827.7h9.5v3.3h-9.5V827.7z"/>
			<path class="st21" d="M270.4,818h3.8v22.3l-0.6-0.6h11.4v3.5h-14.5V818z"/>
			<path class="st21" d="M292.1,842c-1.8-1.1-3.3-2.6-4.3-4.6c-1-2-1.6-4.2-1.6-6.6c0-2.6,0.6-4.9,1.7-7c1.1-2,2.7-3.6,4.6-4.7
				c2-1.1,4.1-1.7,6.6-1.7c2.1,0,3.9,0.4,5.5,1.1c1.6,0.7,2.8,1.7,3.7,2.8c0.9,1.2,1.5,2.4,1.9,3.7h-3.9c-0.6-1.3-1.5-2.3-2.6-3.1
				s-2.7-1.2-4.6-1.2c-1.7,0-3.1,0.4-4.5,1.2s-2.4,1.9-3.1,3.5c-0.8,1.5-1.2,3.3-1.2,5.4c0,2,0.4,3.7,1.1,5.2
				c0.7,1.5,1.7,2.6,3.1,3.4c1.3,0.8,2.9,1.2,4.7,1.2c1.6,0,2.9-0.3,4.1-1c1.2-0.7,2.1-1.6,2.8-2.9c0.7-1.3,1-2.8,1-4.5l0.6,0.5
				h-9.8v-3.1h12.3v13.6h-3.5v-4l0.2,0.4c-0.7,1.2-1.8,2.2-3.2,3c-1.4,0.8-3.2,1.2-5.4,1.2C296,843.7,294,843.1,292.1,842z"/>
			<path class="st21" d="M314.8,827.7h9.5v3.3h-9.5V827.7z"/>
			<path class="st21" d="M333.1,825l0.6,0.6h-6.7V823c1.6,0,3-0.4,4.2-1.3c1.2-0.9,1.9-2.1,2.3-3.7h3.2v25.2h-3.7V825z"/>
			<path class="st21" d="M346.6,842.2c-1.4-1-2.6-2.5-3.4-4.4c-0.8-2-1.2-4.4-1.2-7.2c0-2.9,0.4-5.3,1.2-7.2c0.8-2,1.9-3.4,3.4-4.4
				c1.4-1,3.1-1.5,4.9-1.5c1.9,0,3.5,0.5,5,1.5c1.4,1,2.5,2.5,3.4,4.4c0.8,2,1.2,4.4,1.2,7.2c0,2.9-0.4,5.3-1.2,7.2
				s-1.9,3.4-3.4,4.4c-1.4,1-3.1,1.5-5,1.5C349.7,843.7,348,843.2,346.6,842.2z M354.6,839.5c0.9-0.7,1.5-1.8,1.9-3.3
				c0.4-1.5,0.7-3.4,0.7-5.7c0-3.4-0.5-5.9-1.5-7.5c-1-1.6-2.4-2.5-4.2-2.5c-1.2,0-2.2,0.4-3.1,1.1c-0.9,0.7-1.5,1.8-1.9,3.3
				c-0.4,1.5-0.7,3.4-0.7,5.7c0,3.4,0.5,5.9,1.5,7.6c1,1.6,2.4,2.4,4.2,2.4C352.8,840.6,353.8,840.2,354.6,839.5z"/>
		</g>
	</g>
	<g>
		<g>
			<path class="st21" d="M188.2,969h3.8v25.2h-3.8V969z"/>
			<path class="st21" d="M198.5,969h5.6l5,13.9c0.4,1.1,0.7,1.9,0.8,2.4c0.2,0.5,0.5,1.3,0.8,2.4c0.2,0.5,0.4,1.2,0.7,2.2h0.1
				c0.6-2.1,1.4-4.2,2.2-6.6l5-14.4h5.4v25.2h-3.7v-12.5c0-3.6,0-6.6,0.1-9l0.4,0.1l-7.7,21.5h-3.8l-7.7-21.5l0.4-0.1
				c0.1,1.9,0.1,4.9,0.1,9v12.5h-3.7V969z"/>
			<path class="st21" d="M230.6,969h4.9l12.9,21.6l-0.7,0.2c-0.1-2.6-0.1-5.6-0.1-9.1V969h3.7v25.2h-4.9l-12.9-21.6l0.6-0.2
				c0.1,3.7,0.2,6.7,0.2,8.9v12.9h-3.7V969z"/>
			<path class="st21" d="M256.1,978.7h9.5v3.3h-9.5V978.7z"/>
			<path class="st21" d="M267.4,969h3.9l5.7,23.5h-1.5l5.3-23.5h4.8l5.2,23.5h-1.5l5.5-23.5h3.9l-6.3,25.2h-4.4l-5.6-23.9h1.5
				l-5.5,23.9h-4.4L267.4,969z"/>
			<path class="st21" d="M300.3,978.7h9.5v3.3h-9.5V978.7z"/>
			<path class="st21" d="M318.6,976l0.6,0.6h-6.7V974c1.6,0,3-0.4,4.2-1.3c1.2-0.9,1.9-2.1,2.3-3.7h3.2v25.2h-3.7V976z"/>
			<path class="st21" d="M332.1,993.2c-1.4-1-2.6-2.5-3.4-4.4c-0.8-2-1.2-4.4-1.2-7.2c0-2.9,0.4-5.3,1.2-7.2c0.8-2,1.9-3.4,3.4-4.4
				c1.4-1,3.1-1.5,4.9-1.5c1.9,0,3.5,0.5,5,1.5c1.4,1,2.5,2.5,3.4,4.4c0.8,2,1.2,4.4,1.2,7.2c0,2.9-0.4,5.3-1.2,7.2
				s-1.9,3.4-3.4,4.4c-1.4,1-3.1,1.5-5,1.5C335.2,994.7,333.5,994.2,332.1,993.2z M340.1,990.5c0.9-0.7,1.5-1.8,1.9-3.3
				c0.4-1.5,0.7-3.4,0.7-5.7c0-3.4-0.5-5.9-1.5-7.5c-1-1.6-2.4-2.5-4.2-2.5c-1.2,0-2.2,0.4-3.1,1.1c-0.9,0.7-1.5,1.8-1.9,3.3
				c-0.4,1.5-0.7,3.4-0.7,5.7c0,3.4,0.5,5.9,1.5,7.6c1,1.6,2.4,2.4,4.2,2.4C338.3,991.6,339.3,991.2,340.1,990.5z"/>
			<path class="st21" d="M355.1,993.2c-1.4-1-2.6-2.5-3.4-4.4c-0.8-2-1.2-4.4-1.2-7.2c0-2.9,0.4-5.3,1.2-7.2c0.8-2,1.9-3.4,3.4-4.4
				c1.4-1,3.1-1.5,4.9-1.5c1.9,0,3.5,0.5,5,1.5c1.4,1,2.5,2.5,3.4,4.4c0.8,2,1.2,4.4,1.2,7.2c0,2.9-0.4,5.3-1.2,7.2
				s-1.9,3.4-3.4,4.4c-1.4,1-3.1,1.5-5,1.5C358.2,994.7,356.6,994.2,355.1,993.2z M363.2,990.5c0.9-0.7,1.5-1.8,1.9-3.3
				c0.4-1.5,0.7-3.4,0.7-5.7c0-3.4-0.5-5.9-1.5-7.5c-1-1.6-2.4-2.5-4.2-2.5c-1.2,0-2.2,0.4-3.1,1.1c-0.9,0.7-1.5,1.8-1.9,3.3
				c-0.4,1.5-0.7,3.4-0.7,5.7c0,3.4,0.5,5.9,1.5,7.6c1,1.6,2.4,2.4,4.2,2.4C361.3,991.6,362.3,991.2,363.2,990.5z"/>
		</g>
	</g>
	<g>
		<g>
			<path class="st21" d="M188.2,1612h3.8v25.2h-3.8V1612z"/>
			<path class="st21" d="M198.5,1612h5.6l5,13.9c0.4,1.1,0.7,1.9,0.8,2.4c0.2,0.5,0.5,1.3,0.8,2.4c0.2,0.5,0.4,1.2,0.7,2.2h0.1
				c0.6-2.1,1.4-4.2,2.2-6.6l5-14.4h5.4v25.2h-3.7v-12.5c0-3.6,0-6.6,0.1-9l0.4,0.1l-7.7,21.5h-3.8l-7.7-21.5l0.4-0.1
				c0.1,1.9,0.1,4.9,0.1,9v12.5h-3.7V1612z"/>
			<path class="st21" d="M230.6,1612h4.9l12.9,21.6l-0.7,0.2c-0.1-2.6-0.1-5.6-0.1-9.1V1612h3.7v25.2h-4.9l-12.9-21.6l0.6-0.2
				c0.1,3.7,0.2,6.7,0.2,8.9v12.9h-3.7V1612z"/>
			<path class="st21" d="M256.1,1621.7h9.5v3.3h-9.5V1621.7z"/>
			<path class="st21" d="M270.4,1612h5.6l5,13.9c0.4,1.1,0.7,1.9,0.8,2.4c0.2,0.5,0.5,1.3,0.8,2.4c0.2,0.5,0.4,1.2,0.7,2.2h0.1
				c0.6-2.1,1.4-4.2,2.2-6.6l5-14.4h5.4v25.2h-3.7v-12.5c0-3.6,0-6.6,0.1-9l0.4,0.1l-7.7,21.5h-3.8l-7.7-21.5l0.4-0.1
				c0.1,1.9,0.1,4.9,0.1,9v12.5h-3.7V1612z"/>
			<path class="st21" d="M309.2,1612h4.2l9.5,25.2h-4.1l-5.1-14.1c-0.8-2.3-1.6-4.6-2.5-6.9h0c-0.8,2.2-1.6,4.6-2.6,7.1l-5.1,14h-4
				L309.2,1612z M305.5,1628.3H317l1.4,3.2h-14.5L305.5,1628.3z"/>
			<path class="st21" d="M323.4,1621.7h9.5v3.3h-9.5V1621.7z"/>
			<path class="st21" d="M341.6,1619l0.6,0.6h-6.7v-2.6c1.6,0,3-0.4,4.2-1.3c1.2-0.9,1.9-2.1,2.3-3.7h3.2v25.2h-3.7V1619z"/>
			<path class="st21" d="M355.2,1636.2c-1.4-1-2.6-2.5-3.4-4.4c-0.8-2-1.2-4.4-1.2-7.2c0-2.9,0.4-5.3,1.2-7.2c0.8-2,1.9-3.4,3.4-4.4
				c1.4-1,3.1-1.5,4.9-1.5c1.9,0,3.5,0.5,5,1.5c1.4,1,2.5,2.5,3.4,4.4s1.2,4.4,1.2,7.2c0,2.9-0.4,5.3-1.2,7.2
				c-0.8,2-1.9,3.4-3.4,4.4c-1.4,1-3.1,1.5-5,1.5C358.3,1637.7,356.6,1637.2,355.2,1636.2z M363.2,1633.5c0.9-0.7,1.5-1.8,1.9-3.3
				c0.4-1.5,0.7-3.4,0.7-5.7c0-3.4-0.5-5.9-1.5-7.5c-1-1.6-2.4-2.5-4.2-2.5c-1.2,0-2.2,0.4-3.1,1.1c-0.9,0.7-1.5,1.8-1.9,3.3
				c-0.4,1.5-0.7,3.4-0.7,5.7c0,3.4,0.5,5.9,1.5,7.6c1,1.6,2.4,2.4,4.2,2.4C361.3,1634.6,362.4,1634.2,363.2,1633.5z"/>
			<path class="st21" d="M378.2,1636.2c-1.4-1-2.6-2.5-3.4-4.4c-0.8-2-1.2-4.4-1.2-7.2c0-2.9,0.4-5.3,1.2-7.2c0.8-2,1.9-3.4,3.4-4.4
				c1.4-1,3.1-1.5,4.9-1.5c1.9,0,3.5,0.5,5,1.5c1.4,1,2.5,2.5,3.4,4.4s1.2,4.4,1.2,7.2c0,2.9-0.4,5.3-1.2,7.2
				c-0.8,2-1.9,3.4-3.4,4.4c-1.4,1-3.1,1.5-5,1.5C381.3,1637.7,379.7,1637.2,378.2,1636.2z M386.3,1633.5c0.9-0.7,1.5-1.8,1.9-3.3
				c0.4-1.5,0.7-3.4,0.7-5.7c0-3.4-0.5-5.9-1.5-7.5c-1-1.6-2.4-2.5-4.2-2.5c-1.2,0-2.2,0.4-3.1,1.1c-0.9,0.7-1.5,1.8-1.9,3.3
				c-0.4,1.5-0.7,3.4-0.7,5.7c0,3.4,0.5,5.9,1.5,7.6c1,1.6,2.4,2.4,4.2,2.4C384.4,1634.6,385.4,1634.2,386.3,1633.5z"/>
		</g>
	</g>
	<g>
		<g>
			<path class="st21" d="M188.2,1412h3.8v25.2h-3.8V1412z"/>
			<path class="st21" d="M198.5,1412h5.6l5,13.9c0.4,1.1,0.7,1.9,0.8,2.4c0.2,0.5,0.5,1.3,0.8,2.4c0.2,0.5,0.4,1.2,0.7,2.2h0.1
				c0.6-2.1,1.4-4.2,2.2-6.6l5-14.4h5.4v25.2h-3.7v-12.5c0-3.6,0-6.6,0.1-9l0.4,0.1l-7.7,21.5h-3.8l-7.7-21.5l0.4-0.1
				c0.1,1.9,0.1,4.9,0.1,9v12.5h-3.7V1412z"/>
			<path class="st21" d="M230.6,1412h4.9l12.9,21.6l-0.7,0.2c-0.1-2.6-0.1-5.6-0.1-9.1V1412h3.7v25.2h-4.9l-12.9-21.6l0.6-0.2
				c0.1,3.7,0.2,6.7,0.2,8.9v12.9h-3.7V1412z"/>
			<path class="st21" d="M256.1,1421.7h9.5v3.3h-9.5V1421.7z"/>
			<path class="st21" d="M270.4,1412h5.6l5,13.9c0.4,1.1,0.7,1.9,0.8,2.4c0.2,0.5,0.5,1.3,0.8,2.4c0.2,0.5,0.4,1.2,0.7,2.2h0.1
				c0.6-2.1,1.4-4.2,2.2-6.6l5-14.4h5.4v25.2h-3.7v-12.5c0-3.6,0-6.6,0.1-9l0.4,0.1l-7.7,21.5h-3.8l-7.7-21.5l0.4-0.1
				c0.1,1.9,0.1,4.9,0.1,9v12.5h-3.7V1412z"/>
			<path class="st21" d="M309.2,1412h4.2l9.5,25.2h-4.1l-5.1-14.1c-0.8-2.3-1.6-4.6-2.5-6.9h0c-0.8,2.2-1.6,4.6-2.6,7.1l-5.1,14h-4
				L309.2,1412z M305.5,1428.3H317l1.4,3.2h-14.5L305.5,1428.3z"/>
			<path class="st21" d="M323.4,1421.7h9.5v3.3h-9.5V1421.7z"/>
			<path class="st21" d="M341.6,1419l0.6,0.6h-6.7v-2.6c1.6,0,3-0.4,4.2-1.3c1.2-0.9,1.9-2.1,2.3-3.7h3.2v25.2h-3.7V1419z"/>
			<path class="st21" d="M350,1427.8l12.2-15.8h4v25.2h-3.7v-23.7l2.1,0.5l-12.3,15.9l-0.6-1.7h17.8v3.2H350V1427.8z"/>
			<path class="st21" d="M377.5,1436.2c-1.4-1-2.6-2.5-3.4-4.4c-0.8-2-1.2-4.4-1.2-7.2c0-2.9,0.4-5.3,1.2-7.2c0.8-2,1.9-3.4,3.4-4.4
				c1.4-1,3.1-1.5,4.9-1.5c1.9,0,3.5,0.5,5,1.5c1.4,1,2.5,2.5,3.4,4.4s1.2,4.4,1.2,7.2c0,2.9-0.4,5.3-1.2,7.2
				c-0.8,2-1.9,3.4-3.4,4.4c-1.4,1-3.1,1.5-5,1.5C380.5,1437.7,378.9,1437.2,377.5,1436.2z M385.5,1433.5c0.9-0.7,1.5-1.8,1.9-3.3
				c0.4-1.5,0.7-3.4,0.7-5.7c0-3.4-0.5-5.9-1.5-7.5c-1-1.6-2.4-2.5-4.2-2.5c-1.2,0-2.2,0.4-3.1,1.1c-0.9,0.7-1.5,1.8-1.9,3.3
				c-0.4,1.5-0.7,3.4-0.7,5.7c0,3.4,0.5,5.9,1.5,7.6c1,1.6,2.4,2.4,4.2,2.4C383.6,1434.6,384.6,1434.2,385.5,1433.5z"/>
		</g>
	</g>
	<g>
		<g>
			<path class="st21" d="M188.2,1320h3.8v25.2h-3.8V1320z"/>
			<path class="st21" d="M198.5,1320h5.6l5,13.9c0.4,1.1,0.7,1.9,0.8,2.4c0.2,0.5,0.5,1.3,0.8,2.4c0.2,0.5,0.4,1.2,0.7,2.2h0.1
				c0.6-2.1,1.4-4.2,2.2-6.6l5-14.4h5.4v25.2h-3.7v-12.5c0-3.6,0-6.6,0.1-9l0.4,0.1l-7.7,21.5h-3.8l-7.7-21.5l0.4-0.1
				c0.1,1.9,0.1,4.9,0.1,9v12.5h-3.7V1320z"/>
			<path class="st21" d="M230.6,1320h4.9l12.9,21.6l-0.7,0.2c-0.1-2.6-0.1-5.6-0.1-9.1V1320h3.7v25.2h-4.9l-12.9-21.6l0.6-0.2
				c0.1,3.7,0.2,6.7,0.2,8.9v12.9h-3.7V1320z"/>
			<path class="st21" d="M256.1,1329.7h9.5v3.3h-9.5V1329.7z"/>
			<path class="st21" d="M270.4,1320h5.6l5,13.9c0.4,1.1,0.7,1.9,0.8,2.4c0.2,0.5,0.5,1.3,0.8,2.4c0.2,0.5,0.4,1.2,0.7,2.2h0.1
				c0.6-2.1,1.4-4.2,2.2-6.6l5-14.4h5.4v25.2h-3.7v-12.5c0-3.6,0-6.6,0.1-9l0.4,0.1l-7.7,21.5h-3.8l-7.7-21.5l0.4-0.1
				c0.1,1.9,0.1,4.9,0.1,9v12.5h-3.7V1320z"/>
			<path class="st21" d="M309.2,1320h4.2l9.5,25.2h-4.1l-5.1-14.1c-0.8-2.3-1.6-4.6-2.5-6.9h0c-0.8,2.2-1.6,4.6-2.6,7.1l-5.1,14h-4
				L309.2,1320z M305.5,1336.3H317l1.4,3.2h-14.5L305.5,1336.3z"/>
			<path class="st21" d="M323.4,1329.7h9.5v3.3h-9.5V1329.7z"/>
			<path class="st21" d="M341.6,1327l0.6,0.6h-6.7v-2.6c1.6,0,3-0.4,4.2-1.3c1.2-0.9,1.9-2.1,2.3-3.7h3.2v25.2h-3.7V1327z"/>
			<path class="st21" d="M355.3,1344.2c-1.5-1-2.6-2.4-3.4-4.3c-0.8-1.9-1.2-4.1-1.2-6.8c0-2.8,0.4-5.3,1.2-7.3s1.9-3.7,3.4-4.8
				c1.5-1.1,3.3-1.7,5.5-1.7c2.3,0,4.1,0.5,5.4,1.6c1.3,1.1,2.1,2.4,2.4,4.1h-3.8c-0.3-0.8-0.8-1.4-1.5-1.9s-1.5-0.7-2.6-0.7
				c-1.5,0-2.7,0.5-3.6,1.4s-1.6,2.2-2,3.8s-0.6,3.4-0.6,5.4l-0.2-0.2c0.6-1.2,1.4-2.1,2.6-2.9c1.2-0.8,2.6-1.1,4.2-1.1
				c1.6,0,2.9,0.4,4.1,1.1c1.2,0.7,2.1,1.8,2.8,3c0.7,1.3,1,2.7,1,4.3c0,1.6-0.4,3-1.1,4.2c-0.7,1.3-1.7,2.3-3,3
				c-1.3,0.7-2.8,1.1-4.4,1.1C358.5,1345.7,356.7,1345.2,355.3,1344.2z M362.8,1341.9c0.8-0.5,1.4-1.1,1.8-1.9s0.6-1.7,0.6-2.7
				c0-1.1-0.2-2-0.6-2.8s-1-1.4-1.8-1.9c-0.8-0.4-1.6-0.7-2.6-0.7c-1,0-1.8,0.2-2.6,0.7c-0.8,0.5-1.4,1.1-1.8,1.9s-0.6,1.7-0.6,2.8
				s0.2,2,0.6,2.8c0.4,0.8,1,1.4,1.8,1.9s1.6,0.7,2.6,0.7C361.2,1342.6,362,1342.3,362.8,1341.9z"/>
			<path class="st21" d="M377.3,1344.2c-1.4-1-2.6-2.5-3.4-4.4c-0.8-2-1.2-4.4-1.2-7.2c0-2.9,0.4-5.3,1.2-7.2c0.8-2,1.9-3.4,3.4-4.4
				c1.4-1,3.1-1.5,4.9-1.5c1.9,0,3.5,0.5,5,1.5c1.4,1,2.5,2.5,3.4,4.4s1.2,4.4,1.2,7.2c0,2.9-0.4,5.3-1.2,7.2
				c-0.8,2-1.9,3.4-3.4,4.4c-1.4,1-3.1,1.5-5,1.5C380.4,1345.7,378.8,1345.2,377.3,1344.2z M385.4,1341.5c0.9-0.7,1.5-1.8,1.9-3.3
				c0.4-1.5,0.7-3.4,0.7-5.7c0-3.4-0.5-5.9-1.5-7.5c-1-1.6-2.4-2.5-4.2-2.5c-1.2,0-2.2,0.4-3.1,1.1c-0.9,0.7-1.5,1.8-1.9,3.3
				c-0.4,1.5-0.7,3.4-0.7,5.7c0,3.4,0.5,5.9,1.5,7.6c1,1.6,2.4,2.4,4.2,2.4C383.5,1342.6,384.5,1342.2,385.4,1341.5z"/>
		</g>
	</g>
	<g>
		<g>
			<path class="st21" d="M188.2,1217h3.8v25.2h-3.8V1217z"/>
			<path class="st21" d="M198.5,1217h5.6l5,13.9c0.4,1.1,0.7,1.9,0.8,2.4c0.2,0.5,0.5,1.3,0.8,2.4c0.2,0.5,0.4,1.2,0.7,2.2h0.1
				c0.6-2.1,1.4-4.2,2.2-6.6l5-14.4h5.4v25.2h-3.7v-12.5c0-3.6,0-6.6,0.1-9l0.4,0.1l-7.7,21.5h-3.8l-7.7-21.5l0.4-0.1
				c0.1,1.9,0.1,4.9,0.1,9v12.5h-3.7V1217z"/>
			<path class="st21" d="M230.6,1217h4.9l12.9,21.6l-0.7,0.2c-0.1-2.6-0.1-5.6-0.1-9.1V1217h3.7v25.2h-4.9l-12.9-21.6l0.6-0.2
				c0.1,3.7,0.2,6.7,0.2,8.9v12.9h-3.7V1217z"/>
			<path class="st21" d="M256.1,1226.7h9.5v3.3h-9.5V1226.7z"/>
			<path class="st21" d="M270.4,1217h5.6l5,13.9c0.4,1.1,0.7,1.9,0.8,2.4c0.2,0.5,0.5,1.3,0.8,2.4c0.2,0.5,0.4,1.2,0.7,2.2h0.1
				c0.6-2.1,1.4-4.2,2.2-6.6l5-14.4h5.4v25.2h-3.7v-12.5c0-3.6,0-6.6,0.1-9l0.4,0.1l-7.7,21.5h-3.8l-7.7-21.5l0.4-0.1
				c0.1,1.9,0.1,4.9,0.1,9v12.5h-3.7V1217z"/>
			<path class="st21" d="M309.2,1217h4.2l9.5,25.2h-4.1l-5.1-14.1c-0.8-2.3-1.6-4.6-2.5-6.9h0c-0.8,2.2-1.6,4.6-2.6,7.1l-5.1,14h-4
				L309.2,1217z M305.5,1233.3H317l1.4,3.2h-14.5L305.5,1233.3z"/>
			<path class="st21" d="M323.4,1226.7h9.5v3.3h-9.5V1226.7z"/>
			<path class="st21" d="M341.6,1224l0.6,0.6h-6.7v-2.6c1.6,0,3-0.4,4.2-1.3c1.2-0.9,1.9-2.1,2.3-3.7h3.2v25.2h-3.7V1224z"/>
			<path class="st21" d="M354.9,1241.7c-1.4-0.6-2.5-1.5-3.3-2.7c-0.8-1.2-1.2-2.4-1.2-3.9c0-1.2,0.3-2.3,0.8-3.3
				c0.5-0.9,1.2-1.7,2.1-2.3c0.9-0.6,2-1,3.2-1.2l0,0.5c-1.7-0.3-2.9-1-3.9-2.1c-0.9-1.1-1.4-2.4-1.4-4c0-1.2,0.4-2.3,1.1-3.3
				c0.7-1,1.7-1.8,3-2.3c1.3-0.6,2.7-0.8,4.3-0.8c1.6,0,3,0.3,4.3,0.8c1.3,0.6,2.3,1.3,3,2.3c0.7,1,1,2.1,1,3.3c0,1-0.2,1.9-0.6,2.8
				s-1,1.5-1.8,2.1c-0.8,0.6-1.7,1-2.7,1.2l0-0.5c1.2,0.2,2.2,0.5,3.1,1.1c0.9,0.6,1.6,1.4,2.1,2.3c0.5,1,0.8,2.1,0.8,3.3
				c0,1.4-0.4,2.7-1.2,3.9s-1.9,2.1-3.3,2.7c-1.4,0.6-3,1-4.8,1C357.9,1242.7,356.3,1242.4,354.9,1241.7z M362.5,1239
				c0.8-0.4,1.5-0.9,1.9-1.7c0.5-0.7,0.7-1.5,0.7-2.4c0-0.9-0.2-1.8-0.7-2.5c-0.4-0.7-1.1-1.3-1.9-1.6c-0.8-0.4-1.8-0.6-2.8-0.6
				s-2,0.2-2.8,0.6c-0.8,0.4-1.4,0.9-1.9,1.6c-0.4,0.7-0.7,1.5-0.7,2.5c0,0.9,0.2,1.7,0.7,2.4c0.5,0.7,1.1,1.3,1.9,1.7
				c0.8,0.4,1.7,0.6,2.8,0.6C360.8,1239.6,361.7,1239.4,362.5,1239z M362.1,1226.7c0.7-0.3,1.2-0.8,1.6-1.4c0.4-0.6,0.6-1.3,0.6-2.1
				c0-1.1-0.4-2-1.2-2.7c-0.8-0.7-1.9-1-3.3-1c-0.9,0-1.7,0.2-2.4,0.5s-1.2,0.8-1.6,1.3c-0.4,0.6-0.6,1.2-0.6,2
				c0,1.2,0.4,2.1,1.3,2.8c0.9,0.7,1.9,1.1,3.3,1.1C360.6,1227.3,361.4,1227.1,362.1,1226.7z"/>
			<path class="st21" d="M377.3,1241.2c-1.4-1-2.6-2.5-3.4-4.4c-0.8-2-1.2-4.4-1.2-7.2c0-2.9,0.4-5.3,1.2-7.2c0.8-2,1.9-3.4,3.4-4.4
				c1.4-1,3.1-1.5,4.9-1.5c1.9,0,3.5,0.5,5,1.5c1.4,1,2.5,2.5,3.4,4.4s1.2,4.4,1.2,7.2c0,2.9-0.4,5.3-1.2,7.2
				c-0.8,2-1.9,3.4-3.4,4.4c-1.4,1-3.1,1.5-5,1.5C380.4,1242.7,378.8,1242.2,377.3,1241.2z M385.4,1238.5c0.9-0.7,1.5-1.8,1.9-3.3
				c0.4-1.5,0.7-3.4,0.7-5.7c0-3.4-0.5-5.9-1.5-7.5c-1-1.6-2.4-2.5-4.2-2.5c-1.2,0-2.2,0.4-3.1,1.1c-0.9,0.7-1.5,1.8-1.9,3.3
				c-0.4,1.5-0.7,3.4-0.7,5.7c0,3.4,0.5,5.9,1.5,7.6c1,1.6,2.4,2.4,4.2,2.4C383.5,1239.6,384.5,1239.2,385.4,1238.5z"/>
		</g>
	</g>
	<g class="st22">
		<path class="st21" d="M2616.1,1589h4.8c1,0,1.8,0.2,2.6,0.5c0.7,0.3,1.3,0.7,1.7,1.3c0.4,0.6,0.6,1.3,0.6,2.1
			c0,0.6-0.1,1.2-0.4,1.7c-0.3,0.5-0.7,0.9-1.1,1.2c-0.5,0.3-1,0.5-1.6,0.5l0.1-0.2c0.6,0,1.2,0.2,1.7,0.5c0.5,0.3,1,0.7,1.3,1.2
			c0.3,0.5,0.5,1.1,0.5,1.8c0,0.9-0.2,1.6-0.7,2.2s-1.1,1.1-1.9,1.4c-0.8,0.3-1.7,0.5-2.7,0.5h-4.9V1589z M2622.9,1594.7
			c0.5-0.4,0.7-1,0.7-1.7c0-0.8-0.3-1.3-0.8-1.7s-1.2-0.5-2.1-0.5h-3.4l1-1v13l-1-1h3.5c1,0,1.8-0.2,2.4-0.6c0.5-0.4,0.8-1,0.8-1.8
			c0-0.7-0.3-1.3-0.8-1.8c-0.5-0.4-1.3-0.6-2.3-0.6h-2.8v-1.7h2.8C2621.7,1595.3,2622.4,1595.1,2622.9,1594.7z"/>
		<path class="st21" d="M2629.2,1589h10v1.9h-8.8l1-1v5.6l-0.4-0.4h7v1.9h-7l0.4-0.4v6l-1-1h8.9v1.9h-10.1V1589z"/>
		<path class="st21" d="M2653.7,1602.1l-0.4-0.4h2.6v4.8h-2v-3.3l0.4,0.4h-12.1l0.4-0.4v3.3h-2v-4.8h0.4c0.6,0,1.1-0.2,1.5-0.7
			s0.6-1.2,0.8-2.3c0.1-1.1,0.2-2.7,0.3-4.9l0.1-4.9h10.1V1602.1z M2642.7,1601.8h9.2l-0.4,0.4v-11.7l0.4,0.4h-7.2l1-1l-0.1,3.9
			c0,1-0.1,1.9-0.1,2.6c0,0.7-0.1,1.4-0.2,2.1c-0.1,1-0.4,1.8-0.7,2.5c-0.3,0.6-0.8,1-1.4,1.2L2642.7,1601.8z"/>
		<path class="st21" d="M2659.7,1601.8c0.5,0,0.9-0.1,1.2-0.2s0.6-0.4,0.7-0.7c0.2-0.3,0.2-0.6,0.2-1c0-0.4-0.1-0.8-0.2-1.2
			c-0.1-0.4-0.4-1-0.7-1.6l-4.4-8.2h2.5l3.3,6.2c0.2,0.5,0.4,0.9,0.6,1.3c0.2,0.4,0.3,0.8,0.4,1.1h0c0.3-0.8,0.7-1.6,1.1-2.5
			l2.8-6.1h2.3l-5.5,11.7c-0.2,0.4-0.4,0.8-0.6,1.2c-0.2,0.4-0.4,0.6-0.7,0.8c-0.4,0.4-0.8,0.7-1.3,0.8c-0.5,0.2-1.1,0.3-1.7,0.3
			c-0.5,0-1-0.1-1.4-0.2v-2C2658.8,1601.8,2659.3,1601.8,2659.7,1601.8z"/>
		<path class="st21" d="M2689.5,1603.7h-17.9V1589h2.2v13.1l-0.4-0.4h6.4l-0.4,0.4V1589h2.2v13.1l-0.4-0.4h6.4l-0.4,0.4V1589h2.2
			V1603.7z M2691.7,1606.6h-2.1v-2.9h-1.1v-2h3.1V1606.6z"/>
		<path class="st21" d="M2704.2,1603.7v-7.3c0-2,0-4,0.1-5.8l0.4,0.2l-7.7,13h-2.8V1589h2.2v7.2c0,2,0,4-0.1,5.9l-0.4-0.2l7.7-13
			h2.8v14.7H2704.2z"/>
		<path class="st21" d="M2720,1603.7v-7.3c0-2,0-4,0.1-5.8l0.4,0.2l-7.7,13h-2.8V1589h2.2v7.2c0,2,0,4-0.1,5.9l-0.4-0.2l7.7-13h2.8
			v14.7H2720z M2714.4,1587.8c-0.5-0.2-0.9-0.5-1.2-1c-0.3-0.4-0.4-0.9-0.4-1.4h2c0,0.4,0.2,0.7,0.4,1c0.3,0.3,0.6,0.4,1,0.4
			s0.8-0.1,1-0.4c0.3-0.3,0.4-0.6,0.4-1h2c0,0.8-0.3,1.5-0.9,2s-1.5,0.8-2.5,0.8C2715.5,1588.1,2714.9,1588,2714.4,1587.8z"/>
		<path class="st21" d="M2627.2,1627.7h-11.1V1613h2.2v13.1l-0.4-0.4h7.5l-0.4,0.4V1613h2.2V1627.7z M2629.4,1630.6h-2.1v-2.9h-1.1
			v-2h3.1V1630.6z"/>
		<path class="st21" d="M2632.1,1613h4.8c1,0,1.8,0.2,2.6,0.5c0.7,0.3,1.3,0.7,1.7,1.3c0.4,0.6,0.6,1.3,0.6,2.1
			c0,0.6-0.1,1.2-0.4,1.7c-0.3,0.5-0.7,0.9-1.1,1.2s-1,0.5-1.6,0.5l0.1-0.2c0.6,0,1.2,0.2,1.7,0.5c0.5,0.3,1,0.7,1.3,1.2
			c0.3,0.5,0.5,1.1,0.5,1.8c0,0.9-0.2,1.6-0.7,2.2c-0.5,0.6-1.1,1.1-1.9,1.4c-0.8,0.3-1.7,0.5-2.7,0.5h-4.9V1613z M2638.8,1618.7
			c0.5-0.4,0.7-1,0.7-1.7c0-0.8-0.3-1.3-0.8-1.7s-1.2-0.5-2.1-0.5h-3.4l1-1v13l-1-1h3.5c1,0,1.8-0.2,2.4-0.6c0.5-0.4,0.8-1,0.8-1.8
			c0-0.7-0.3-1.3-0.8-1.8c-0.5-0.4-1.3-0.6-2.3-0.6h-2.8v-1.7h2.8C2637.6,1619.3,2638.3,1619.1,2638.8,1618.7z"/>
		<path class="st21" d="M2645.1,1613h10v1.9h-8.8l1-1v5.6l-0.4-0.4h7v1.9h-7l0.4-0.4v6l-1-1h8.9v1.9h-10.1V1613z"/>
		<path class="st21" d="M2660.7,1614.6l0.4,0.4h-4.4v-2h10.2v2h-4.4l0.4-0.4v13.1h-2.2V1614.6z"/>
	</g>
	<g>
		<path class="st21" d="M2618.7,1674.4h5.1v34.3h-5.1V1674.4z"/>
		<path class="st21" d="M2632.6,1674.4h6.6l17.6,29.4l-0.9,0.2c-0.1-3.5-0.2-7.6-0.2-12.4v-17.3h5.1v34.3h-6.6l-17.6-29.4l0.8-0.2
			c0.2,5,0.3,9.1,0.3,12.2v17.5h-5.1V1674.4z"/>
		<path class="st21" d="M2669.6,1674.4h7.6l6.8,19c0.5,1.5,0.9,2.6,1.2,3.3c0.2,0.7,0.6,1.8,1.1,3.2c0.2,0.7,0.5,1.7,0.9,3h0.1
			c0.8-2.8,1.8-5.8,3-8.9l6.9-19.6h7.4v34.3h-5v-17c0-4.9,0-9,0.1-12.3l0.5,0.1l-10.5,29.2h-5.2l-10.5-29.2l0.5-0.1
			c0.1,2.5,0.2,6.6,0.2,12.3v17h-5V1674.4z"/>
		<path class="st21" d="M2711.1,1687.7h12.9v4.5h-12.9V1687.7z"/>
		<path class="st21" d="M2730.5,1674.4h11.2c2.3,0,4.2,0.4,6,1.1c1.7,0.7,3.1,1.7,4,3.1s1.4,3,1.4,4.8c0,1.4-0.3,2.7-1,3.9
			c-0.7,1.2-1.5,2.1-2.7,2.8s-2.4,1.1-3.7,1.1l0.2-0.5c1.4,0.1,2.8,0.5,4,1.2c1.2,0.7,2.2,1.7,3,2.9c0.8,1.2,1.1,2.7,1.1,4.3
			c0,2-0.5,3.7-1.6,5.2s-2.5,2.6-4.3,3.3c-1.8,0.8-3.9,1.2-6.2,1.2h-11.4V1674.4z M2746.2,1687.7c1.1-0.9,1.7-2.2,1.7-3.9
			c0-1.8-0.6-3.1-1.8-3.9s-2.8-1.2-4.9-1.2h-7.8l2.3-2.3v30.3l-2.3-2.3h8.1c2.4,0,4.2-0.5,5.5-1.4c1.3-1,1.9-2.3,1.9-4.1
			c0-1.7-0.6-3.1-1.9-4.1c-1.3-1-3.1-1.5-5.4-1.5h-6.6v-4.1h6.6C2743.5,1689.1,2745.1,1688.6,2746.2,1687.7z"/>
		<path class="st21" d="M2758.3,1687.7h12.9v4.5h-12.9V1687.7z"/>
		<path class="st21" d="M2783.2,1683.9l0.9,0.9h-9.1v-3.6c2.2,0,4.1-0.6,5.7-1.8s2.6-2.9,3.1-5.1h4.4v34.3h-5V1683.9z"/>
		<path class="st21" d="M2801.6,1707.4c-2-1.3-3.5-3.3-4.6-6s-1.6-6-1.6-9.8c0-3.9,0.5-7.2,1.6-9.8c1.1-2.7,2.6-4.7,4.6-6
			c2-1.3,4.2-2,6.7-2c2.5,0,4.8,0.7,6.7,2c1.9,1.3,3.5,3.3,4.6,6c1.1,2.7,1.7,6,1.7,9.8c0,3.9-0.6,7.2-1.7,9.8
			c-1.1,2.7-2.6,4.7-4.6,6c-1.9,1.3-4.2,2-6.7,2C2805.8,1709.4,2803.6,1708.7,2801.6,1707.4z M2812.6,1703.7c1.2-1,2-2.5,2.6-4.5
			c0.6-2,0.9-4.6,0.9-7.7c0-4.6-0.7-8-2-10.3c-1.3-2.2-3.3-3.4-5.8-3.4c-1.6,0-3,0.5-4.2,1.4c-1.2,1-2,2.5-2.6,4.5s-0.9,4.6-0.9,7.7
			c0,4.6,0.7,8.1,2,10.3c1.3,2.2,3.3,3.3,5.7,3.3C2810,1705.1,2811.4,1704.6,2812.6,1703.7z"/>
		<path class="st21" d="M2833,1707.4c-2-1.3-3.5-3.3-4.6-6c-1.1-2.7-1.6-6-1.6-9.8c0-3.9,0.5-7.2,1.6-9.8c1.1-2.7,2.6-4.7,4.6-6
			c2-1.3,4.2-2,6.7-2c2.5,0,4.8,0.7,6.7,2c1.9,1.3,3.5,3.3,4.6,6c1.1,2.7,1.7,6,1.7,9.8c0,3.9-0.6,7.2-1.7,9.8
			c-1.1,2.7-2.6,4.7-4.6,6c-1.9,1.3-4.2,2-6.7,2C2837.2,1709.4,2834.9,1708.7,2833,1707.4z M2843.9,1703.7c1.2-1,2-2.5,2.6-4.5
			c0.6-2,0.9-4.6,0.9-7.7c0-4.6-0.7-8-2-10.3c-1.3-2.2-3.3-3.4-5.8-3.4c-1.6,0-3,0.5-4.2,1.4c-1.2,1-2,2.5-2.6,4.5
			c-0.6,2-0.9,4.6-0.9,7.7c0,4.6,0.7,8.1,2,10.3c1.3,2.2,3.3,3.3,5.7,3.3C2841.4,1705.1,2842.8,1704.6,2843.9,1703.7z"/>
	</g>
</g>
<line class="st23" x1="1299.5" y1="1004.5" x2="1499.5" y2="1004.5"/>
</svg>
