<?xml version="1.0" encoding="utf-8"?>
<!-- Generator: Adobe Illustrator 22.0.0, SVG Export Plug-In . SVG Version: 6.00 Build 0)  -->
<svg version="1.1" id="Layer_1" xmlns="http://www.w3.org/2000/svg" xmlns:xlink="http://www.w3.org/1999/xlink" x="0px" y="0px"
	 viewBox="0 0 3000 2000" style="enable-background:new 0 0 3000 2000;" xml:space="preserve">
<style type="text/css">
	.st0{fill:#E7E7E7;}
	.st1{opacity:0.15;}
	.st2{fill:none;stroke:#000000;stroke-width:0.9923;stroke-miterlimit:10;}
	.st3{fill:none;stroke:#000000;stroke-width:0.9762;stroke-miterlimit:10;}
	.st4{fill:none;stroke:#000000;stroke-width:0.9964;stroke-miterlimit:10;}
	.st5{fill:none;stroke:#000000;stroke-width:0.9802;stroke-miterlimit:10;}
	.st6{opacity:0.2;fill:none;stroke:#031F30;stroke-width:2;stroke-miterlimit:10;enable-background:new    ;}
	.st7{fill:none;}
	.st8{fill:#031F30;}
	.st9{fill:#011523;}
	.st10{opacity:0.2;fill:none;stroke:#031F30;stroke-width:2.0055;stroke-miterlimit:10;enable-background:new    ;}
</style>
<rect class="st0" width="3000" height="2000"/>
<g class="st1">
	<polyline class="st2" points="1551.4,1252 1173.1,1252 1173.1,867 1551.4,867 	"/>
	<line class="st3" x1="1173.1" y1="1239.6" x2="1551.4" y2="1239.6"/>
	<line class="st3" x1="1173.1" y1="1227.2" x2="1551.4" y2="1227.2"/>
	<line class="st3" x1="1173.1" y1="1214.7" x2="1551.4" y2="1214.7"/>
	<line class="st3" x1="1173.1" y1="1202.3" x2="1551.4" y2="1202.3"/>
	<line class="st3" x1="1173.1" y1="1189.9" x2="1551.4" y2="1189.9"/>
	<line class="st3" x1="1173.1" y1="1177.5" x2="1551.4" y2="1177.5"/>
	<line class="st3" x1="1173.1" y1="1165.1" x2="1551.4" y2="1165.1"/>
	<line class="st3" x1="1173.1" y1="1152.6" x2="1551.4" y2="1152.6"/>
	<line class="st3" x1="1173.1" y1="1140.2" x2="1551.4" y2="1140.2"/>
	<line class="st3" x1="1173.1" y1="1127.8" x2="1551.4" y2="1127.8"/>
	<line class="st3" x1="1173.1" y1="1115.4" x2="1551.4" y2="1115.4"/>
	<line class="st3" x1="1173.1" y1="1103" x2="1551.4" y2="1103"/>
	<line class="st3" x1="1173.1" y1="1090.5" x2="1551.4" y2="1090.5"/>
	<line class="st3" x1="1173.1" y1="1078.1" x2="1551.4" y2="1078.1"/>
	<line class="st3" x1="1173.1" y1="1065.7" x2="1551.4" y2="1065.7"/>
	<line class="st3" x1="1173.1" y1="1053.3" x2="1551.4" y2="1053.3"/>
	<line class="st3" x1="1173.1" y1="1040.9" x2="1551.4" y2="1040.9"/>
	<line class="st3" x1="1173.1" y1="1028.5" x2="1551.4" y2="1028.5"/>
	<line class="st3" x1="1173.1" y1="1016" x2="1551.4" y2="1016"/>
	<line class="st3" x1="1173.1" y1="1003.6" x2="1551.4" y2="1003.6"/>
	<line class="st3" x1="1173.1" y1="991.2" x2="1551.4" y2="991.2"/>
	<line class="st3" x1="1173.1" y1="978.8" x2="1551.4" y2="978.8"/>
	<line class="st3" x1="1173.1" y1="966.4" x2="1551.4" y2="966.4"/>
	<line class="st3" x1="1173.1" y1="953.9" x2="1551.4" y2="953.9"/>
	<line class="st3" x1="1173.1" y1="941.5" x2="1551.4" y2="941.5"/>
	<line class="st3" x1="1173.1" y1="929.1" x2="1551.4" y2="929.1"/>
	<line class="st3" x1="1173.1" y1="916.7" x2="1551.4" y2="916.7"/>
	<line class="st3" x1="1173.1" y1="904.3" x2="1551.4" y2="904.3"/>
	<line class="st3" x1="1173.1" y1="891.8" x2="1551.4" y2="891.8"/>
	<line class="st3" x1="1173.1" y1="879.4" x2="1551.4" y2="879.4"/>
	<line class="st2" x1="1551.4" y1="867" x2="1551.4" y2="1252"/>
	<line class="st2" x1="1538.8" y1="867" x2="1538.8" y2="1252"/>
	<line class="st2" x1="1526.2" y1="867" x2="1526.2" y2="1252"/>
	<line class="st2" x1="1513.6" y1="867" x2="1513.6" y2="1252"/>
	<line class="st2" x1="1501" y1="867" x2="1501" y2="1252"/>
	<line class="st2" x1="1488.4" y1="867" x2="1488.4" y2="1252"/>
	<line class="st2" x1="1475.8" y1="867" x2="1475.8" y2="1252"/>
	<line class="st2" x1="1463.1" y1="867" x2="1463.1" y2="1252"/>
	<line class="st2" x1="1450.5" y1="867" x2="1450.5" y2="1252"/>
	<line class="st2" x1="1437.9" y1="867" x2="1437.9" y2="1252"/>
	<line class="st2" x1="1425.3" y1="867" x2="1425.3" y2="1252"/>
	<line class="st2" x1="1412.7" y1="867" x2="1412.7" y2="1252"/>
	<line class="st2" x1="1400.1" y1="867" x2="1400.1" y2="1252"/>
	<line class="st2" x1="1387.5" y1="867" x2="1387.5" y2="1252"/>
	<line class="st2" x1="1374.9" y1="867" x2="1374.9" y2="1252"/>
	<line class="st2" x1="1362.2" y1="867" x2="1362.2" y2="1252"/>
	<line class="st2" x1="1349.6" y1="867" x2="1349.6" y2="1252"/>
	<line class="st2" x1="1337" y1="867" x2="1337" y2="1252"/>
	<line class="st2" x1="1324.4" y1="867" x2="1324.4" y2="1252"/>
	<line class="st2" x1="1311.8" y1="867" x2="1311.8" y2="1252"/>
	<line class="st2" x1="1299.2" y1="867" x2="1299.2" y2="1252"/>
	<line class="st2" x1="1286.6" y1="867" x2="1286.6" y2="1252"/>
	<line class="st2" x1="1274" y1="867" x2="1274" y2="1252"/>
	<line class="st2" x1="1261.3" y1="867" x2="1261.3" y2="1252"/>
	<line class="st2" x1="1248.7" y1="867" x2="1248.7" y2="1252"/>
	<line class="st2" x1="1236.1" y1="867" x2="1236.1" y2="1252"/>
	<line class="st2" x1="1223.5" y1="867" x2="1223.5" y2="1252"/>
	<line class="st2" x1="1210.9" y1="867" x2="1210.9" y2="1252"/>
	<line class="st2" x1="1198.3" y1="867" x2="1198.3" y2="1252"/>
	<line class="st2" x1="1185.7" y1="867" x2="1185.7" y2="1252"/>
</g>
<g class="st1">
	<polyline class="st2" points="2138.7,1252 1760.4,1252 1760.4,867 2138.7,867 	"/>
	<line class="st3" x1="1760.4" y1="1239.6" x2="2138.7" y2="1239.6"/>
	<line class="st3" x1="1760.4" y1="1227.2" x2="2138.7" y2="1227.2"/>
	<line class="st3" x1="1760.4" y1="1214.7" x2="2138.7" y2="1214.7"/>
	<line class="st3" x1="1760.4" y1="1202.3" x2="2138.7" y2="1202.3"/>
	<line class="st3" x1="1760.4" y1="1189.9" x2="2138.7" y2="1189.9"/>
	<line class="st3" x1="1760.4" y1="1177.5" x2="2138.7" y2="1177.5"/>
	<line class="st3" x1="1760.4" y1="1165.1" x2="2138.7" y2="1165.1"/>
	<line class="st3" x1="1760.4" y1="1152.6" x2="2138.7" y2="1152.6"/>
	<line class="st3" x1="1760.4" y1="1140.2" x2="2138.7" y2="1140.2"/>
	<line class="st3" x1="1760.4" y1="1127.8" x2="2138.7" y2="1127.8"/>
	<line class="st3" x1="1760.4" y1="1115.4" x2="2138.7" y2="1115.4"/>
	<line class="st3" x1="1760.4" y1="1103" x2="2138.7" y2="1103"/>
	<line class="st3" x1="1760.4" y1="1090.5" x2="2138.7" y2="1090.5"/>
	<line class="st3" x1="1760.4" y1="1078.1" x2="2138.7" y2="1078.1"/>
	<line class="st3" x1="1760.4" y1="1065.7" x2="2138.7" y2="1065.7"/>
	<line class="st3" x1="1760.4" y1="1053.3" x2="2138.7" y2="1053.3"/>
	<line class="st3" x1="1760.4" y1="1040.9" x2="2138.7" y2="1040.9"/>
	<line class="st3" x1="1760.4" y1="1028.5" x2="2138.7" y2="1028.5"/>
	<line class="st3" x1="1760.4" y1="1016" x2="2138.7" y2="1016"/>
	<line class="st3" x1="1760.4" y1="1003.6" x2="2138.7" y2="1003.6"/>
	<line class="st3" x1="1760.4" y1="991.2" x2="2138.7" y2="991.2"/>
	<line class="st3" x1="1760.4" y1="978.8" x2="2138.7" y2="978.8"/>
	<line class="st3" x1="1760.4" y1="966.4" x2="2138.7" y2="966.4"/>
	<line class="st3" x1="1760.4" y1="953.9" x2="2138.7" y2="953.9"/>
	<line class="st3" x1="1760.4" y1="941.5" x2="2138.7" y2="941.5"/>
	<line class="st3" x1="1760.4" y1="929.1" x2="2138.7" y2="929.1"/>
	<line class="st3" x1="1760.4" y1="916.7" x2="2138.7" y2="916.7"/>
	<line class="st3" x1="1760.4" y1="904.3" x2="2138.7" y2="904.3"/>
	<line class="st3" x1="1760.4" y1="891.8" x2="2138.7" y2="891.8"/>
	<line class="st3" x1="1760.4" y1="879.4" x2="2138.7" y2="879.4"/>
	<line class="st2" x1="2138.7" y1="867" x2="2138.7" y2="1252"/>
	<line class="st2" x1="2126.1" y1="867" x2="2126.1" y2="1252"/>
	<line class="st2" x1="2113.5" y1="867" x2="2113.5" y2="1252"/>
	<line class="st2" x1="2100.9" y1="867" x2="2100.9" y2="1252"/>
	<line class="st2" x1="2088.3" y1="867" x2="2088.3" y2="1252"/>
	<line class="st2" x1="2075.7" y1="867" x2="2075.7" y2="1252"/>
	<line class="st2" x1="2063.1" y1="867" x2="2063.1" y2="1252"/>
	<line class="st2" x1="2050.5" y1="867" x2="2050.5" y2="1252"/>
	<line class="st2" x1="2037.8" y1="867" x2="2037.8" y2="1252"/>
	<line class="st2" x1="2025.2" y1="867" x2="2025.2" y2="1252"/>
	<line class="st2" x1="2012.6" y1="867" x2="2012.6" y2="1252"/>
	<line class="st2" x1="2000" y1="867" x2="2000" y2="1252"/>
	<line class="st2" x1="1987.4" y1="867" x2="1987.4" y2="1252"/>
	<line class="st2" x1="1974.8" y1="867" x2="1974.8" y2="1252"/>
	<line class="st2" x1="1962.2" y1="867" x2="1962.2" y2="1252"/>
	<line class="st2" x1="1949.5" y1="867" x2="1949.5" y2="1252"/>
	<line class="st2" x1="1936.9" y1="867" x2="1936.9" y2="1252"/>
	<line class="st2" x1="1924.3" y1="867" x2="1924.3" y2="1252"/>
	<line class="st2" x1="1911.7" y1="867" x2="1911.7" y2="1252"/>
	<line class="st2" x1="1899.1" y1="867" x2="1899.1" y2="1252"/>
	<line class="st2" x1="1886.5" y1="867" x2="1886.5" y2="1252"/>
	<line class="st2" x1="1873.9" y1="867" x2="1873.9" y2="1252"/>
	<line class="st2" x1="1861.3" y1="867" x2="1861.3" y2="1252"/>
	<line class="st2" x1="1848.6" y1="867" x2="1848.6" y2="1252"/>
	<line class="st2" x1="1836" y1="867" x2="1836" y2="1252"/>
	<line class="st2" x1="1823.4" y1="867" x2="1823.4" y2="1252"/>
	<line class="st2" x1="1810.8" y1="867" x2="1810.8" y2="1252"/>
	<line class="st2" x1="1798.2" y1="867" x2="1798.2" y2="1252"/>
	<line class="st2" x1="1785.6" y1="867" x2="1785.6" y2="1252"/>
	<line class="st2" x1="1773" y1="867" x2="1773" y2="1252"/>
</g>
<g class="st1">
	<polyline class="st4" points="2728.7,1252 2347.1,1252 2347.1,867 2728.7,867 	"/>
	<line class="st5" x1="2347.1" y1="1239.6" x2="2728.7" y2="1239.6"/>
	<line class="st5" x1="2347.1" y1="1227.2" x2="2728.7" y2="1227.2"/>
	<line class="st5" x1="2347.1" y1="1214.7" x2="2728.7" y2="1214.7"/>
	<line class="st5" x1="2347.1" y1="1202.3" x2="2728.7" y2="1202.3"/>
	<line class="st5" x1="2347.1" y1="1189.9" x2="2728.7" y2="1189.9"/>
	<line class="st5" x1="2347.1" y1="1177.5" x2="2728.7" y2="1177.5"/>
	<line class="st5" x1="2347.1" y1="1165.1" x2="2728.7" y2="1165.1"/>
	<line class="st5" x1="2347.1" y1="1152.6" x2="2728.7" y2="1152.6"/>
	<line class="st5" x1="2347.1" y1="1140.2" x2="2728.7" y2="1140.2"/>
	<line class="st5" x1="2347.1" y1="1127.8" x2="2728.7" y2="1127.8"/>
	<line class="st5" x1="2347.1" y1="1115.4" x2="2728.7" y2="1115.4"/>
	<line class="st5" x1="2347.1" y1="1103" x2="2728.7" y2="1103"/>
	<line class="st5" x1="2347.1" y1="1090.5" x2="2728.7" y2="1090.5"/>
	<line class="st5" x1="2347.1" y1="1078.1" x2="2728.7" y2="1078.1"/>
	<line class="st5" x1="2347.1" y1="1065.7" x2="2728.7" y2="1065.7"/>
	<line class="st5" x1="2347.1" y1="1053.3" x2="2728.7" y2="1053.3"/>
	<line class="st5" x1="2347.1" y1="1040.9" x2="2728.7" y2="1040.9"/>
	<line class="st5" x1="2347.1" y1="1028.5" x2="2728.7" y2="1028.5"/>
	<line class="st5" x1="2347.1" y1="1016" x2="2728.7" y2="1016"/>
	<line class="st5" x1="2347.1" y1="1003.6" x2="2728.7" y2="1003.6"/>
	<line class="st5" x1="2347.1" y1="991.2" x2="2728.7" y2="991.2"/>
	<line class="st5" x1="2347.1" y1="978.8" x2="2728.7" y2="978.8"/>
	<line class="st5" x1="2347.1" y1="966.4" x2="2728.7" y2="966.4"/>
	<line class="st5" x1="2347.1" y1="953.9" x2="2728.7" y2="953.9"/>
	<line class="st5" x1="2347.1" y1="941.5" x2="2728.7" y2="941.5"/>
	<line class="st5" x1="2347.1" y1="929.1" x2="2728.7" y2="929.1"/>
	<line class="st5" x1="2347.1" y1="916.7" x2="2728.7" y2="916.7"/>
	<line class="st5" x1="2347.1" y1="904.3" x2="2728.7" y2="904.3"/>
	<line class="st5" x1="2347.1" y1="891.8" x2="2728.7" y2="891.8"/>
	<line class="st5" x1="2347.1" y1="879.4" x2="2728.7" y2="879.4"/>
	<line class="st4" x1="2728.7" y1="867" x2="2728.7" y2="1252"/>
	<line class="st4" x1="2715.9" y1="867" x2="2715.9" y2="1252"/>
	<line class="st4" x1="2703.2" y1="867" x2="2703.2" y2="1252"/>
	<line class="st4" x1="2690.5" y1="867" x2="2690.5" y2="1252"/>
	<line class="st4" x1="2677.8" y1="867" x2="2677.8" y2="1252"/>
	<line class="st4" x1="2665.1" y1="867" x2="2665.1" y2="1252"/>
	<line class="st4" x1="2652.4" y1="867" x2="2652.4" y2="1252"/>
	<line class="st4" x1="2639.6" y1="867" x2="2639.6" y2="1252"/>
	<line class="st4" x1="2626.9" y1="867" x2="2626.9" y2="1252"/>
	<line class="st4" x1="2614.2" y1="867" x2="2614.2" y2="1252"/>
	<line class="st4" x1="2601.5" y1="867" x2="2601.5" y2="1252"/>
	<line class="st4" x1="2588.8" y1="867" x2="2588.8" y2="1252"/>
	<line class="st4" x1="2576" y1="867" x2="2576" y2="1252"/>
	<line class="st4" x1="2563.3" y1="867" x2="2563.3" y2="1252"/>
	<line class="st4" x1="2550.6" y1="867" x2="2550.6" y2="1252"/>
	<line class="st4" x1="2537.9" y1="867" x2="2537.9" y2="1252"/>
	<line class="st4" x1="2525.2" y1="867" x2="2525.2" y2="1252"/>
	<line class="st4" x1="2512.4" y1="867" x2="2512.4" y2="1252"/>
	<line class="st4" x1="2499.7" y1="867" x2="2499.7" y2="1252"/>
	<line class="st4" x1="2487" y1="867" x2="2487" y2="1252"/>
	<line class="st4" x1="2474.3" y1="867" x2="2474.3" y2="1252"/>
	<line class="st4" x1="2461.6" y1="867" x2="2461.6" y2="1252"/>
	<line class="st4" x1="2448.9" y1="867" x2="2448.9" y2="1252"/>
	<line class="st4" x1="2436.1" y1="867" x2="2436.1" y2="1252"/>
	<line class="st4" x1="2423.4" y1="867" x2="2423.4" y2="1252"/>
	<line class="st4" x1="2410.7" y1="867" x2="2410.7" y2="1252"/>
	<line class="st4" x1="2398" y1="867" x2="2398" y2="1252"/>
	<line class="st4" x1="2385.3" y1="867" x2="2385.3" y2="1252"/>
	<line class="st4" x1="2372.5" y1="867" x2="2372.5" y2="1252"/>
	<line class="st4" x1="2359.8" y1="867" x2="2359.8" y2="1252"/>
</g>
<line class="st6" x1="0" y1="1165" x2="3000" y2="1165"/>
<line class="st6" x1="0" y1="953.8" x2="3000" y2="953.8"/>
<polygon class="st7" points="2543.9,999.7 2601.8,999.7 2543.9,941.8 "/>
<path class="st8" d="M2605.1,1143.4v61.9h-172.8V926.5h93v94.8h101.6l0,0v-26.1l-80-84l-6.3-6.3h-15.3h-87.6
	c-10.6,10.6-16.5,16.5-27.1,27.1v267.9c10.6,10.6,16.5,16.5,27.1,27.1h162c10.6-10.6,16.5-16.5,27.1-27.1v-56.5H2605.1z
	 M2543.9,941.8l55.9,57.9h-55.9V941.8z"/>
<g>
	<path class="st8" d="M2525.3,1050.3h30.8c4.5,0,8.6,0.9,12.2,2.6c3.6,1.7,6.5,4.2,8.6,7.5s3.1,7.1,3.1,11.5s-1,8.2-3.1,11.5
		s-4.9,5.7-8.6,7.5c-3.6,1.7-7.7,2.6-12.2,2.6h-13.6v21.2h-17.2V1050.3z M2557.9,1079.2c1.4-0.6,2.5-1.6,3.3-2.9s1.2-2.7,1.2-4.4
		c0-1.6-0.4-3-1.2-4.2s-1.9-2.2-3.4-2.8s-3.2-1-5.1-1h-10.4v16.2h10.4C2554.8,1080.1,2556.5,1079.8,2557.9,1079.2z"/>
	<path class="st8" d="M2585.2,1050.3h26.2c6.6,0,12.5,1.3,17.7,3.8s9.4,6.2,12.4,11s4.5,10.5,4.5,17c0,6.6-1.5,12.3-4.5,17.2
		c-3,4.9-7.1,8.7-12.3,11.4c-5.2,2.6-11,4-17.4,4h-26.6L2585.2,1050.3L2585.2,1050.3z M2601.7,1100.9h8.8c3.8,0,7-0.7,9.6-2.1
		s4.5-3.5,5.8-6.3s1.9-6.2,1.9-10.2c0-3.7-0.6-6.9-1.9-9.7c-1.3-2.8-3.2-4.9-5.7-6.3c-2.5-1.5-5.6-2.2-9.2-2.2h-9.3l0.8-0.8v38.5
		L2601.7,1100.9z"/>
	<path class="st8" d="M2653.1,1050.3h50.5v13.9h-34.1l0.8-0.8v51.3h-17.2V1050.3z M2668.8,1078.6h28.4v13.4h-28.4V1078.6z"/>
</g>
<g>
	<rect x="1869.6" y="901.3" class="st7" width="159.8" height="52.3"/>
	<polygon class="st7" points="1844,975.2 1819.7,975.2 1819.7,1143.2 1848,1143.2 1848,1090.9 2051,1090.9 2051,1143.2 
		2079.4,1143.2 2079.4,975.2 2055,975.2 	"/>
	<path class="st8" d="M2074,953.6h-23v-46.9c-10.6-10.6-16.5-16.5-27.1-27.1H1875c-10.6,10.6-16.5,16.5-27.1,27.1v46.9H1825
		c-10.6,10.6-16.5,16.5-27.1,27.1v184.2h50v35.2c10.6,10.6,16.5,16.5,27.1,27.1h149c10.6-10.6,16.5-16.5,27.1-27.1v-35.2h50V980.6
		C2090.5,970.1,2084.6,964.2,2074,953.6z M1869.6,901.3h159.8v52.3h-159.8V901.3z M2029.4,1205.5h-159.8v-93h159.8V1205.5z
		 M2079.4,1143.2H2051v-52.3h-203v52.3h-28.4v-168h24.4h211h24.4V1143.2z"/>
</g>
<g>
	<path class="st9" d="M415.6,1165h-92.7c-10.4-10.4-16.2-16.2-26.5-26.5V980.3c10.4-10.4,16.2-16.2,26.5-26.5h92.7
		c10.4,10.4,16.2,16.2,26.5,26.5v158.2C431.8,1148.9,426,1154.7,415.6,1165z M318.5,1142.9H420V975.8H318.5V1142.9z"/>
</g>
<g>
	<path class="st9" d="M595.4,1165h-92.7c-10.4-10.4-16.2-16.2-26.5-26.5V806.2c10.4-10.4,16.2-16.2,26.5-26.5h92.7
		c10.4,10.4,16.2,16.2,26.5,26.5v332.3C611.6,1148.9,605.8,1154.7,595.4,1165z M498.3,1142.9h101.5V801.8H498.3V1142.9z"/>
</g>
<g>
	<path class="st9" d="M775.2,1165h-92.7c-10.4-10.4-16.2-16.2-26.5-26.5v-266c10.4-10.4,16.2-16.2,26.5-26.5h92.7
		c10.4,10.4,16.2,16.2,26.5,26.5v266C791.4,1148.9,785.6,1154.7,775.2,1165z M678.1,1142.9h101.5V868.1H678.1V1142.9z"/>
</g>
<g>
	<path class="st9" d="M955,1165h-92.7c-10.4-10.4-16.2-16.2-26.5-26.5V726.6c10.4-10.4,16.2-16.2,26.5-26.5H955
		c10.4,10.4,16.2,16.2,26.5,26.5v411.9C971.2,1148.9,965.4,1154.7,955,1165z M857.9,1142.9h101.5V722.2H857.9V1142.9z"/>
</g>
<line class="st6" x1="0" y1="700.1" x2="3000" y2="700.1"/>
<line class="st6" x1="0" y1="867" x2="3000" y2="867"/>
<line class="st6" x1="0" y1="1227.2" x2="3000" y2="1227.2"/>
<line class="st6" x1="296" y1="700" x2="296" y2="1224"/>
<line class="st6" x1="981.6" y1="700.1" x2="981.6" y2="1224.1"/>
<line class="st6" x1="296" y1="700" x2="296" y2="1224"/>
<line class="st6" x1="835.8" y1="700.1" x2="835.8" y2="1224.1"/>
<line class="st6" x1="801.8" y1="700.1" x2="801.8" y2="1224.1"/>
<line class="st6" x1="656" y1="700.1" x2="656" y2="1224.1"/>
<line class="st6" x1="621.9" y1="700.1" x2="621.9" y2="1224.1"/>
<line class="st6" x1="476.2" y1="700.1" x2="476.2" y2="1224.1"/>
<line class="st6" x1="442.1" y1="700.1" x2="442.1" y2="1224.1"/>
<line class="st10" x1="1210.4" y1="700.1" x2="1210.4" y2="1227"/>
<line class="st10" x1="1513.4" y1="700.1" x2="1513.4" y2="1227"/>
<line class="st10" x1="1798" y1="700.1" x2="1798" y2="1227"/>
<line class="st10" x1="2101" y1="700.1" x2="2101" y2="1227"/>
<line class="st10" x1="1848" y1="700.1" x2="1848" y2="1227"/>
<line class="st10" x1="2051" y1="700.1" x2="2051" y2="1227"/>
<line class="st10" x1="2410.6" y1="700.1" x2="2410.6" y2="1227"/>
<line class="st10" x1="2525" y1="700.1" x2="2525" y2="1227"/>
<line class="st10" x1="2703.6" y1="700.1" x2="2703.6" y2="1227"/>
<line class="st10" x1="2627" y1="700.1" x2="2627" y2="1227"/>
<g>
	<g>
		<path class="st9" d="M320.2,1356h1.8v12.9h-1.8V1356z"/>
		<path class="st9" d="M325.7,1356h2.8l6.7,10.6l0.7-0.5c-0.2-0.4-0.4-0.7-0.5-1s-0.2-0.6-0.3-1c0-0.4-0.1-0.8-0.1-1.4v-6.8h1.8
			v12.9h-2.3l-7.2-11.3l-0.7,0.4c0.3,0.5,0.5,1.1,0.6,1.6c0.1,0.6,0.2,1.3,0.2,2.1v7.2h-1.8L325.7,1356L325.7,1356z"/>
		<path class="st9" d="M340.6,1356h3.1l2.9,7.4c0.2,0.6,0.4,1.1,0.4,1.6s0.1,1.1,0.1,1.8h0.8c0-0.7,0.1-1.3,0.1-1.8s0.2-1,0.5-1.6
			l2.8-7.4h3v12.9h-1.8v-6.7c0-0.9,0.1-1.7,0.2-2.5s0.4-1.5,0.7-2.1l-0.8-0.3l-4.5,11.6h-1.3l-4.5-11.6l-0.8,0.3
			c0.3,0.6,0.5,1.3,0.7,2.1c0.2,0.8,0.2,1.6,0.2,2.5v6.7h-1.8L340.6,1356L340.6,1356z"/>
		<path class="st9" d="M362.3,1356h1.8v12.9h-1.8V1356z"/>
		<path class="st9" d="M370,1368.3c-1-0.6-1.7-1.4-2.2-2.4s-0.7-2.2-0.7-3.5c0-1.2,0.3-2.4,0.8-3.4s1.3-1.8,2.2-2.4
			c1-0.6,2-0.9,3.3-0.9c1,0,2,0.2,2.7,0.6c0.8,0.4,1.4,0.8,1.9,1.4s0.8,1.2,1,1.8l-1.8,0.7c-0.1-0.5-0.4-0.9-0.7-1.3
			s-0.7-0.8-1.2-1.1c-0.5-0.3-1.2-0.4-1.9-0.4c-0.9,0-1.6,0.2-2.3,0.6c-0.7,0.4-1.2,1-1.5,1.7c-0.4,0.7-0.5,1.6-0.5,2.6
			s0.2,1.9,0.5,2.7c0.4,0.8,0.9,1.4,1.5,1.8c0.7,0.4,1.4,0.7,2.3,0.7c1.1,0,2-0.3,2.6-0.8s1-1.2,1.3-2.1l1.8,0.7
			c-0.2,0.7-0.6,1.4-1.1,2s-1.1,1.1-1.9,1.4s-1.7,0.5-2.7,0.5C372,1369.2,370.9,1368.9,370,1368.3z"/>
		<path class="st9" d="M384,1368.3c-1-0.6-1.8-1.3-2.3-2.4s-0.8-2.2-0.8-3.5s0.3-2.5,0.8-3.5c0.6-1,1.3-1.8,2.3-2.4s2.1-0.8,3.3-0.8
			s2.3,0.3,3.3,0.8c1,0.6,1.7,1.4,2.3,2.4c0.6,1,0.8,2.2,0.8,3.5s-0.3,2.5-0.8,3.5c-0.6,1-1.3,1.8-2.3,2.4s-2.1,0.8-3.3,0.8
			S385,1368.9,384,1368.3z M389.7,1366.8c0.7-0.4,1.2-1,1.6-1.8s0.5-1.6,0.5-2.6s-0.2-1.8-0.5-2.6c-0.4-0.8-0.9-1.4-1.6-1.8
			s-1.5-0.7-2.4-0.7s-1.7,0.2-2.4,0.7c-0.7,0.4-1.2,1-1.6,1.8s-0.5,1.6-0.5,2.6s0.2,1.8,0.5,2.6c0.4,0.8,0.9,1.4,1.6,1.8
			s1.5,0.7,2.4,0.7S389,1367.3,389.7,1366.8z"/>
		<path class="st9" d="M396.6,1356h2.8l6.7,10.6l0.7-0.5c-0.2-0.4-0.4-0.7-0.5-1s-0.2-0.6-0.3-1c0-0.4-0.1-0.8-0.1-1.4v-6.8h1.8
			v12.9h-2.3l-7.2-11.3l-0.7,0.4c0.3,0.5,0.5,1.1,0.6,1.6c0.1,0.6,0.2,1.3,0.2,2.1v7.2h-1.8L396.6,1356L396.6,1356z"/>
		<path class="st9" d="M413.1,1368.7c-0.7-0.3-1.3-0.7-1.8-1.3s-0.8-1.1-1-1.8l1.8-0.8c0.2,0.5,0.4,1,0.7,1.4c0.3,0.4,0.7,0.7,1.2,1
			c0.5,0.2,1,0.4,1.7,0.4c0.9,0,1.5-0.2,2-0.6s0.7-0.9,0.7-1.5c0-0.5-0.2-1-0.6-1.3s-1-0.6-1.8-0.8l-1.7-0.4
			c-0.7-0.1-1.3-0.4-1.8-0.7s-0.9-0.7-1.2-1.1c-0.3-0.5-0.4-1.1-0.4-1.8c0-0.7,0.2-1.3,0.6-1.9s0.9-1,1.6-1.3s1.5-0.5,2.3-0.5
			c0.9,0,1.6,0.2,2.3,0.5c0.6,0.3,1.2,0.7,1.6,1.2s0.7,0.9,0.8,1.4l-1.7,0.8c-0.1-0.4-0.3-0.7-0.5-1s-0.6-0.6-1-0.8
			c-0.4-0.2-0.9-0.3-1.6-0.3c-0.5,0-1,0.1-1.3,0.2c-0.4,0.2-0.7,0.4-0.9,0.7c-0.2,0.3-0.3,0.6-0.3,1c0,0.5,0.2,0.9,0.5,1.2
			c0.3,0.3,0.8,0.5,1.6,0.7l1.8,0.4c1.1,0.2,2,0.7,2.7,1.3c0.7,0.6,1,1.4,1,2.4c0,0.8-0.2,1.4-0.6,2s-0.9,1-1.6,1.4
			c-0.7,0.3-1.6,0.5-2.6,0.5C414.7,1369.2,413.9,1369,413.1,1368.7z"/>
		<path class="st9" d="M320.2,1376.1h8.6v1.7H322v11.2h-1.8V1376.1z"/>
		<path class="st9" d="M331,1376.1h5.2c0.9,0,1.7,0.2,2.3,0.5c0.6,0.3,1.1,0.8,1.5,1.4c0.3,0.6,0.5,1.3,0.5,2c0,0.8-0.2,1.5-0.5,2.1
			s-0.8,1-1.5,1.4c-0.6,0.3-1.4,0.5-2.3,0.5h-3.4v5H331V1376.1z M337.3,1382.1c0.4-0.2,0.7-0.5,0.9-0.8c0.2-0.3,0.3-0.8,0.3-1.2
			c0-0.5-0.1-0.8-0.3-1.2c-0.2-0.3-0.5-0.6-0.9-0.8c-0.4-0.2-0.9-0.3-1.5-0.3h-3v4.6h3C336.4,1382.4,336.9,1382.3,337.3,1382.1z"/>
		<path class="st9" d="M345.4,1376.1h2.5l4.7,12.9h-2.1l-3-8.6c-0.2-0.6-0.4-1.1-0.4-1.5c-0.1-0.4-0.1-0.9-0.1-1.5h-0.8
			c0,0.6-0.1,1.1-0.2,1.5s-0.2,0.9-0.5,1.5l-3.1,8.6h-2L345.4,1376.1z M343.8,1383.9h5.7l0.6,1.7h-6.9L343.8,1383.9z"/>
		<path class="st9" d="M356.5,1387.3c-1-0.5-1.7-1.2-2.2-2s-0.7-1.7-0.7-2.7s0.2-1.9,0.7-2.7s1.2-1.5,2.2-2s2.2-0.8,3.6-0.9v-1.4
			h1.8v1.4c1.4,0.1,2.6,0.3,3.6,0.9c1,0.5,1.7,1.2,2.2,2s0.7,1.7,0.7,2.7s-0.2,1.9-0.7,2.7s-1.2,1.5-2.2,2s-2.2,0.8-3.6,0.9v1.4
			h-1.8v-1.4C358.7,1388.1,357.5,1387.8,356.5,1387.3z M360.2,1379.6c0.1-0.3,0.3-0.6,0.6-0.8l-0.3-0.7c-1,0.1-1.9,0.3-2.6,0.7
			c-0.7,0.4-1.3,0.9-1.7,1.5c-0.4,0.6-0.6,1.4-0.6,2.2c0,0.7,0.2,1.4,0.5,1.9c0.3,0.6,0.8,1,1.5,1.4s1.5,0.6,2.5,0.6v-5.6
			C360.1,1380.3,360.1,1379.9,360.2,1379.6z M361.8,1385.6c-0.1,0.3-0.3,0.6-0.6,0.8l0.3,0.7c1-0.1,1.9-0.3,2.6-0.7
			c0.7-0.4,1.3-0.9,1.7-1.5c0.4-0.6,0.6-1.4,0.6-2.2c0-0.7-0.2-1.4-0.5-1.9c-0.3-0.6-0.8-1-1.5-1.4s-1.5-0.6-2.5-0.6v5.6
			C361.9,1384.8,361.9,1385.3,361.8,1385.6z"/>
		<path class="st9" d="M371.2,1376.1h1.8v7.6c0,0.8-0.1,1.4-0.2,1.9s-0.3,1-0.7,1.5l0.7,0.5l6.9-11.5h2.7v12.9h-1.8v-7.6
			c0-0.8,0.1-1.4,0.2-1.9s0.3-1,0.7-1.5l-0.7-0.5l-6.9,11.5h-2.7V1376.1z"/>
		<path class="st9" d="M386.1,1376.1h1.8v6.3h0.7c0-0.4,0.1-0.8,0.3-1.2c0.2-0.3,0.5-0.8,1-1.4l3.5-3.8h2.5l-5.6,5.7l-0.4,0.4
			l-2.7,2.8l0.6-1.3v5.3H386v-12.8H386.1z M389.3,1382.3l1.3-1.3l6.4,7.9h-2.4L389.3,1382.3z"/>
		<path class="st9" d="M404.8,1388.4c-1-0.6-1.7-1.4-2.2-2.4s-0.7-2.2-0.7-3.5c0-1.2,0.3-2.4,0.8-3.4s1.3-1.8,2.2-2.4
			c1-0.6,2-0.9,3.3-0.9c1,0,2,0.2,2.7,0.6c0.8,0.4,1.4,0.8,1.9,1.4s0.8,1.2,1,1.8l-1.8,0.7c-0.1-0.5-0.4-0.9-0.7-1.3
			s-0.7-0.8-1.2-1.1c-0.5-0.3-1.2-0.4-1.9-0.4c-0.9,0-1.6,0.2-2.3,0.6c-0.7,0.4-1.2,1-1.5,1.7c-0.4,0.7-0.5,1.6-0.5,2.6
			s0.2,1.9,0.5,2.7c0.4,0.8,0.9,1.4,1.5,1.8c0.7,0.4,1.4,0.7,2.3,0.7c1.1,0,2-0.3,2.6-0.8s1-1.2,1.3-2.1l1.8,0.7
			c-0.2,0.7-0.6,1.4-1.1,2s-1.1,1.1-1.9,1.4s-1.7,0.5-2.7,0.5C406.8,1389.3,405.7,1389,404.8,1388.4z"/>
		<path class="st9" d="M419.3,1377.6l0.3,0.3h-4.9v-1.7h11.1v1.7h-4.9l0.2-0.3v11.4h-1.8L419.3,1377.6L419.3,1377.6z"/>
		<path class="st9" d="M429.6,1388.4c-1-0.6-1.8-1.3-2.3-2.4s-0.8-2.2-0.8-3.5s0.3-2.5,0.8-3.5c0.6-1,1.3-1.8,2.3-2.4
			s2.1-0.8,3.3-0.8s2.3,0.3,3.3,0.8c1,0.6,1.7,1.4,2.3,2.4c0.6,1,0.8,2.2,0.8,3.5s-0.3,2.5-0.8,3.5c-0.6,1-1.3,1.8-2.3,2.4
			s-2.1,0.8-3.3,0.8S430.6,1389,429.6,1388.4z M435.3,1386.9c0.7-0.4,1.2-1,1.6-1.8s0.5-1.6,0.5-2.6s-0.2-1.8-0.5-2.6
			c-0.4-0.8-0.9-1.4-1.6-1.8s-1.5-0.7-2.4-0.7s-1.7,0.2-2.4,0.7c-0.7,0.4-1.2,1-1.6,1.8s-0.5,1.6-0.5,2.6s0.2,1.8,0.5,2.6
			c0.4,0.8,0.9,1.4,1.6,1.8s1.5,0.7,2.4,0.7C433.9,1387.6,434.7,1387.4,435.3,1386.9z"/>
		<path class="st9" d="M440.4,1387.3h0.6c0.4,0,0.6,0,0.9-0.1c0.2-0.1,0.4-0.2,0.6-0.4c0.1-0.2,0.3-0.4,0.3-0.7
			c0.1-0.5,0.2-1.2,0.2-2.1s0.1-2,0.1-3.3l0.1-4.6h9.1v12.9h-1.8v-11.2H445l-0.1,3.5c0,1.3-0.1,2.4-0.1,3.2
			c-0.1,0.8-0.2,1.5-0.3,2.1c-0.1,0.6-0.3,1-0.6,1.3c-0.3,0.3-0.6,0.6-1,0.8c-0.4,0.2-1,0.2-1.7,0.2h-0.8L440.4,1387.3L440.4,1387.3
			z"/>
		<path class="st9" d="M456.1,1376.1h9v1.7h-7.2v11.1h-1.8V1376.1z M456.1,1387.3h5.1c0.9,0,1.6-0.2,2-0.7c0.5-0.4,0.7-1,0.7-1.7
			c0-0.5-0.1-0.8-0.3-1.2c-0.2-0.3-0.5-0.6-0.9-0.8s-0.9-0.3-1.5-0.3h-5.1v-1.6h5.4c0.9,0,1.7,0.2,2.3,0.5c0.7,0.3,1.2,0.8,1.5,1.4
			s0.5,1.2,0.5,2s-0.2,1.5-0.5,2.1s-0.8,1.1-1.5,1.4s-1.4,0.5-2.3,0.5h-5.4L456.1,1387.3L456.1,1387.3z"/>
		<path class="st9" d="M468.6,1376.1h1.8v11.2h6.3v-11.2h1.8v12.9h-10v-12.9H468.6z M478.9,1389h-1.2l-0.9-1.7h3.8v4.1h-1.7
			L478.9,1389L478.9,1389z"/>
		<path class="st9" d="M483.1,1376.1h1.8v4.6h2.9c0.9,0,1.8,0.2,2.4,0.5c0.7,0.3,1.2,0.8,1.6,1.4s0.5,1.3,0.5,2.1
			c0,0.9-0.2,1.6-0.5,2.3c-0.4,0.6-0.9,1.1-1.6,1.5c-0.7,0.3-1.5,0.5-2.4,0.5h-4.7L483.1,1376.1L483.1,1376.1z M489.7,1386.6
			c0.5-0.5,0.8-1.1,0.8-1.9c0-0.5-0.1-0.9-0.3-1.3c-0.2-0.4-0.6-0.7-1-0.9c-0.4-0.2-1-0.3-1.7-0.3H485v5h2.5
			C488.4,1387.3,489.2,1387.1,489.7,1386.6z M494.1,1376.1h1.8v12.9h-1.8V1376.1z"/>
		<path class="st9" d="M322.2,1408.6c-0.9-0.5-1.6-1.3-2.1-2.3s-0.7-2.2-0.7-3.5s0.3-2.4,0.9-3.5c0.6-1,1.4-1.8,2.3-2.4
			c1-0.6,2.1-0.9,3.2-0.9c1,0,2,0.2,2.7,0.5s1.4,0.8,1.9,1.4s0.9,1.2,1.1,1.9l-1.9,0.8c-0.2-0.6-0.5-1.1-0.8-1.5s-0.8-0.8-1.3-1
			s-1.1-0.4-1.8-0.4c-0.8,0-1.5,0.2-2.2,0.6s-1.2,0.9-1.6,1.7c-0.4,0.8-0.6,1.7-0.6,2.7s0.2,1.9,0.6,2.7s0.9,1.3,1.5,1.7
			s1.4,0.6,2.3,0.6c0.8,0,1.5-0.2,2.1-0.5s1-0.7,1.4-1.2s0.5-1,0.5-1.6h-4.4v-1.7h6.3v6.3h-1.8c0-0.5,0.1-0.9,0.2-1.4
			s0.3-0.9,0.5-1.3h-0.9c-0.3,0.7-0.8,1.4-1.5,2s-1.7,0.9-3,0.9C324,1409.4,323,1409.1,322.2,1408.6z"/>
		<path class="st9" d="M334.7,1396.2h9.4v1.7h-7.7l0.2-0.2v11.3h-1.8v-12.8H334.7z M336.3,1402h6.2v1.7h-6.2V1402z"/>
		<path class="st9" d="M345.2,1401.6h5.3v1.8h-5.3V1401.6z"/>
		<path class="st9" d="M355.4,1408.6c-0.8-0.5-1.4-1.3-1.8-2.3s-0.6-2.2-0.6-3.7c0-1.4,0.2-2.6,0.7-3.6s1.1-1.8,1.9-2.3
			s1.7-0.8,2.6-0.8c1,0,1.8,0.3,2.6,0.8c0.8,0.5,1.4,1.3,1.8,2.3c0.5,1,0.7,2.2,0.7,3.6s-0.2,2.7-0.6,3.7s-1,1.8-1.8,2.3
			s-1.7,0.8-2.7,0.8C357.1,1409.4,356.1,1409.1,355.4,1408.6z M359.8,1407.2c0.5-0.4,0.8-1,1.1-1.7c0.3-0.8,0.4-1.7,0.4-2.8
			c0-1-0.1-1.9-0.4-2.7c-0.3-0.8-0.6-1.3-1.1-1.7s-1-0.6-1.7-0.6c-0.6,0-1.2,0.2-1.7,0.6s-0.9,1-1.1,1.7s-0.4,1.6-0.4,2.7
			s0.1,2,0.4,2.8s0.6,1.3,1.1,1.7c0.5,0.4,1.1,0.6,1.7,0.6C358.7,1407.7,359.3,1407.5,359.8,1407.2z"/>
		<path class="st9" d="M367.9,1408.6c-0.8-0.5-1.4-1.3-1.8-2.3s-0.6-2.2-0.6-3.7c0-1.4,0.2-2.6,0.7-3.6s1.1-1.8,1.9-2.3
			s1.7-0.8,2.6-0.8c1,0,1.8,0.3,2.6,0.8c0.8,0.5,1.4,1.3,1.8,2.3c0.5,1,0.7,2.2,0.7,3.6s-0.2,2.7-0.6,3.7s-1,1.8-1.8,2.3
			s-1.7,0.8-2.7,0.8C369.6,1409.4,368.7,1409.1,367.9,1408.6z M372.3,1407.2c0.5-0.4,0.8-1,1.1-1.7c0.3-0.8,0.4-1.7,0.4-2.8
			c0-1-0.1-1.9-0.4-2.7c-0.3-0.8-0.6-1.3-1.1-1.7s-1-0.6-1.7-0.6c-0.6,0-1.2,0.2-1.7,0.6s-0.9,1-1.1,1.7s-0.4,1.6-0.4,2.7
			s0.1,2,0.4,2.8s0.6,1.3,1.1,1.7c0.5,0.4,1.1,0.6,1.7,0.6C371.3,1407.7,371.8,1407.5,372.3,1407.2z"/>
		<path class="st9" d="M379.4,1408.5c-0.8-0.6-1.3-1.4-1.5-2.3l1.9-0.6c0.2,0.7,0.5,1.3,1,1.7c0.5,0.4,1.1,0.6,1.8,0.6
			c0.5,0,1-0.1,1.4-0.3c0.4-0.2,0.7-0.5,0.9-0.9c0.2-0.4,0.3-0.9,0.3-1.4s-0.1-1-0.3-1.4c-0.2-0.4-0.5-0.7-0.9-0.9
			c-0.4-0.2-0.9-0.3-1.4-0.3c-0.6,0-1.1,0.1-1.5,0.4s-0.8,0.6-1,1l-1.9-0.3l1.1-7.3h7.4v1.7h-6.1l-0.3,2.1c-0.1,0.7-0.3,1.3-0.4,1.7
			s-0.3,0.7-0.6,1h0.9c0.3-0.5,0.6-0.9,1.1-1.2s1-0.5,1.8-0.5s1.5,0.2,2.1,0.5s1.1,0.8,1.4,1.4s0.5,1.3,0.5,2.2
			c0,0.8-0.2,1.6-0.5,2.2c-0.4,0.6-0.9,1.1-1.5,1.5s-1.4,0.5-2.3,0.5C381.3,1409.4,380.2,1409.1,379.4,1408.5z"/>
		<path class="st9" d="M391.4,1408.6c-0.7-0.5-1.3-1.2-1.7-2.1s-0.6-2.1-0.6-3.4c0-1.4,0.2-2.6,0.7-3.7s1.2-1.9,2.1-2.5
			s2.1-0.9,3.4-0.9c0.4,0,0.8,0,1.3,0.1s0.8,0.2,1.2,0.3v1.8c-0.4-0.1-0.7-0.2-1.1-0.3s-0.8-0.1-1.2-0.1c-0.9,0-1.8,0.2-2.5,0.6
			s-1.3,1-1.8,1.9c-0.4,0.8-0.7,1.9-0.7,3.1h0.7c0.1-0.4,0.3-0.9,0.6-1.2c0.3-0.4,0.6-0.7,1.1-0.9c0.5-0.2,1-0.4,1.6-0.4
			c0.8,0,1.5,0.2,2.1,0.6s1.1,0.9,1.4,1.5s0.5,1.3,0.5,2.1c0,0.8-0.2,1.6-0.5,2.3c-0.4,0.7-0.9,1.2-1.6,1.6s-1.5,0.6-2.4,0.6
			C393,1409.4,392.2,1409.1,391.4,1408.6z M395.3,1407.4c0.4-0.2,0.7-0.5,0.9-1c0.2-0.4,0.3-0.9,0.3-1.4s-0.1-1-0.3-1.4
			c-0.2-0.4-0.5-0.7-0.9-1c-0.4-0.2-0.8-0.3-1.3-0.3s-1,0.1-1.3,0.3s-0.7,0.5-0.9,0.9c-0.2,0.4-0.3,0.9-0.3,1.4s0.1,1,0.3,1.4
			c0.2,0.4,0.5,0.7,0.9,1c0.4,0.2,0.8,0.3,1.3,0.3C394.5,1407.8,394.9,1407.7,395.3,1407.4z"/>
		<path class="st9" d="M405.7,1396.2h3.1l2.9,7.4c0.2,0.6,0.4,1.1,0.4,1.6s0.1,1.1,0.1,1.8h0.8c0-0.7,0.1-1.3,0.1-1.8s0.2-1,0.5-1.6
			l2.8-7.4h3v12.9h-1.8v-6.7c0-0.9,0.1-1.7,0.2-2.5s0.4-1.5,0.7-2.1l-0.8-0.3l-4.5,11.6h-1.3l-4.5-11.6l-0.8,0.3
			c0.3,0.6,0.5,1.3,0.7,2.1c0.2,0.8,0.2,1.6,0.2,2.5v6.7h-1.8L405.7,1396.2L405.7,1396.2z"/>
	</g>
</g>
<g>
	<g>
		<path class="st9" d="M1234.2,1356h1.8v12.9h-1.8V1356z"/>
		<path class="st9" d="M1239.7,1356h2.8l6.7,10.6l0.7-0.5c-0.2-0.4-0.4-0.7-0.5-1s-0.2-0.6-0.3-1c0-0.4-0.1-0.8-0.1-1.4v-6.8h1.8
			v12.9h-2.3l-7.2-11.3l-0.7,0.4c0.3,0.5,0.5,1.1,0.6,1.6c0.1,0.6,0.2,1.3,0.2,2.1v7.2h-1.8V1356H1239.7z"/>
		<path class="st9" d="M1254.6,1356h3.1l2.9,7.4c0.2,0.6,0.4,1.1,0.4,1.6s0.1,1.1,0.1,1.8h0.8c0-0.7,0.1-1.3,0.1-1.8s0.2-1,0.5-1.6
			l2.8-7.4h3v12.9h-1.8v-6.7c0-0.9,0.1-1.7,0.2-2.5s0.4-1.5,0.7-2.1l-0.8-0.3l-4.5,11.6h-1.3l-4.5-11.6l-0.8,0.3
			c0.3,0.6,0.5,1.3,0.7,2.1c0.2,0.8,0.2,1.6,0.2,2.5v6.7h-1.8L1254.6,1356L1254.6,1356z"/>
		<path class="st9" d="M1276.3,1356h1.8v12.9h-1.8V1356z"/>
		<path class="st9" d="M1284,1368.3c-1-0.6-1.7-1.4-2.2-2.4s-0.7-2.2-0.7-3.5c0-1.2,0.3-2.4,0.8-3.4s1.3-1.8,2.2-2.4
			c1-0.6,2-0.9,3.3-0.9c1,0,2,0.2,2.7,0.6c0.8,0.4,1.4,0.8,1.9,1.4s0.8,1.2,1,1.8l-1.8,0.7c-0.1-0.5-0.4-0.9-0.7-1.3
			s-0.7-0.8-1.2-1.1c-0.5-0.3-1.2-0.4-1.9-0.4c-0.9,0-1.6,0.2-2.3,0.6c-0.7,0.4-1.2,1-1.5,1.7c-0.4,0.7-0.5,1.6-0.5,2.6
			s0.2,1.9,0.5,2.7c0.4,0.8,0.9,1.4,1.5,1.8c0.7,0.4,1.4,0.7,2.3,0.7c1.1,0,2-0.3,2.6-0.8s1-1.2,1.3-2.1l1.8,0.7
			c-0.2,0.7-0.6,1.4-1.1,2s-1.1,1.1-1.9,1.4s-1.7,0.5-2.7,0.5C1286,1369.2,1284.9,1368.9,1284,1368.3z"/>
		<path class="st9" d="M1298,1368.3c-1-0.6-1.8-1.3-2.3-2.4s-0.8-2.2-0.8-3.5s0.3-2.5,0.8-3.5c0.6-1,1.3-1.8,2.3-2.4
			s2.1-0.8,3.3-0.8s2.3,0.3,3.3,0.8c1,0.6,1.7,1.4,2.3,2.4c0.6,1,0.8,2.2,0.8,3.5s-0.3,2.5-0.8,3.5c-0.6,1-1.3,1.8-2.3,2.4
			s-2.1,0.8-3.3,0.8S1299,1368.9,1298,1368.3z M1303.7,1366.8c0.7-0.4,1.2-1,1.6-1.8s0.5-1.6,0.5-2.6s-0.2-1.8-0.5-2.6
			c-0.4-0.8-0.9-1.4-1.6-1.8s-1.5-0.7-2.4-0.7s-1.7,0.2-2.4,0.7c-0.7,0.4-1.2,1-1.6,1.8s-0.5,1.6-0.5,2.6s0.2,1.8,0.5,2.6
			c0.4,0.8,0.9,1.4,1.6,1.8s1.5,0.7,2.4,0.7S1303,1367.3,1303.7,1366.8z"/>
		<path class="st9" d="M1310.6,1356h2.8l6.7,10.6l0.7-0.5c-0.2-0.4-0.4-0.7-0.5-1s-0.2-0.6-0.3-1c0-0.4-0.1-0.8-0.1-1.4v-6.8h1.8
			v12.9h-2.3l-7.2-11.3l-0.7,0.4c0.3,0.5,0.5,1.1,0.6,1.6c0.1,0.6,0.2,1.3,0.2,2.1v7.2h-1.8V1356H1310.6z"/>
		<path class="st9" d="M1327.1,1368.7c-0.7-0.3-1.3-0.7-1.8-1.3s-0.8-1.1-1-1.8l1.8-0.8c0.2,0.5,0.4,1,0.7,1.4
			c0.3,0.4,0.7,0.7,1.2,1c0.5,0.2,1,0.4,1.7,0.4c0.9,0,1.5-0.2,2-0.6s0.7-0.9,0.7-1.5c0-0.5-0.2-1-0.6-1.3s-1-0.6-1.8-0.8l-1.7-0.4
			c-0.7-0.1-1.3-0.4-1.8-0.7s-0.9-0.7-1.2-1.1c-0.3-0.5-0.4-1.1-0.4-1.8c0-0.7,0.2-1.3,0.6-1.9s0.9-1,1.6-1.3s1.5-0.5,2.3-0.5
			c0.9,0,1.6,0.2,2.3,0.5c0.6,0.3,1.2,0.7,1.6,1.2s0.7,0.9,0.8,1.4l-1.7,0.8c-0.1-0.4-0.3-0.7-0.5-1s-0.6-0.6-1-0.8
			c-0.4-0.2-0.9-0.3-1.6-0.3c-0.5,0-1,0.1-1.3,0.2c-0.4,0.2-0.7,0.4-0.9,0.7c-0.2,0.3-0.3,0.6-0.3,1c0,0.5,0.2,0.9,0.5,1.2
			c0.3,0.3,0.8,0.5,1.6,0.7l1.8,0.4c1.1,0.2,2,0.7,2.7,1.3c0.7,0.6,1,1.4,1,2.4c0,0.8-0.2,1.4-0.6,2s-0.9,1-1.6,1.4
			c-0.7,0.3-1.6,0.5-2.6,0.5C1328.7,1369.2,1327.9,1369,1327.1,1368.7z"/>
		<path class="st9" d="M1235,1388.3c-1-0.6-1.6-1.5-1.9-2.6l1.8-0.7c0.2,0.8,0.6,1.4,1.3,1.9c0.6,0.5,1.5,0.7,2.6,0.7
			c0.9,0,1.7-0.2,2.3-0.6c0.7-0.4,1.2-1,1.5-1.8s0.5-1.7,0.5-2.7l0,0c0-1-0.2-1.9-0.5-2.6s-0.8-1.3-1.4-1.7
			c-0.6-0.4-1.3-0.6-2.2-0.6c-1,0-1.9,0.2-2.5,0.6s-1.1,1-1.5,1.8l-1.8-0.7c0.5-1.1,1.3-1.9,2.2-2.5c0.9-0.6,2.1-0.9,3.6-0.9
			c1.3,0,2.4,0.3,3.3,0.9s1.6,1.4,2,2.4s0.7,2.1,0.7,3.4s-0.2,2.4-0.7,3.5c-0.5,1-1.2,1.8-2.2,2.4s-2.1,0.9-3.4,0.9
			C1237.2,1389.3,1236,1388.9,1235,1388.3z M1236.8,1381.6h6.5v1.7h-6.5V1381.6z"/>
		<path class="st9" d="M1246.1,1387.3h0.6c0.4,0,0.6,0,0.9-0.1c0.2-0.1,0.4-0.2,0.6-0.4c0.1-0.2,0.3-0.4,0.3-0.7
			c0.1-0.5,0.2-1.2,0.2-2.1s0.1-2,0.1-3.3l0.1-4.6h9.1v12.9h-1.8v-11.2h-5.5l-0.1,3.5c0,1.3-0.1,2.4-0.1,3.2
			c-0.1,0.8-0.2,1.5-0.3,2.1c-0.1,0.6-0.3,1-0.6,1.3c-0.3,0.3-0.6,0.6-1,0.8c-0.4,0.2-1,0.2-1.7,0.2h-0.8L1246.1,1387.3
			L1246.1,1387.3z"/>
		<path class="st9" d="M1263.5,1387.3h7.4v1.7h-9.1v-12.9h9.1v1.7h-7.4l0.2-0.2v9.8L1263.5,1387.3z M1269,1381.5v1.7h-5.7v-1.7H1269
			z"/>
		<path class="st9" d="M1273.7,1376.1h1.8v6.3h0.7c0-0.4,0.1-0.8,0.3-1.2c0.2-0.3,0.5-0.8,1-1.4l3.5-3.8h2.5l-5.6,5.7l-0.4,0.4
			l-2.7,2.8l0.6-1.3v5.3h-1.8L1273.7,1376.1L1273.7,1376.1z M1277,1382.3l1.3-1.3l6.4,7.9h-2.4L1277,1382.3z"/>
		<path class="st9" d="M1289.5,1377.6l0.3,0.3h-4.9v-1.7h11.1v1.7h-4.9l0.2-0.3v11.4h-1.8L1289.5,1377.6L1289.5,1377.6z"/>
		<path class="st9" d="M1298.2,1376.1h5.2c0.9,0,1.7,0.2,2.3,0.5c0.6,0.3,1.1,0.8,1.5,1.4c0.3,0.6,0.5,1.3,0.5,2
			c0,0.8-0.2,1.5-0.5,2.1s-0.8,1-1.5,1.4c-0.6,0.3-1.4,0.5-2.3,0.5h-3.4v5h-1.8L1298.2,1376.1L1298.2,1376.1z M1304.6,1382.1
			c0.4-0.2,0.7-0.5,0.9-0.8c0.2-0.3,0.3-0.8,0.3-1.2c0-0.5-0.1-0.8-0.3-1.2c-0.2-0.3-0.5-0.6-0.9-0.8c-0.4-0.2-0.9-0.3-1.5-0.3h-3
			v4.6h3C1303.7,1382.4,1304.2,1382.3,1304.6,1382.1z"/>
		<path class="st9" d="M1312.6,1388.4c-1-0.6-1.8-1.3-2.3-2.4s-0.8-2.2-0.8-3.5s0.3-2.5,0.8-3.5c0.6-1,1.3-1.8,2.3-2.4
			s2.1-0.8,3.3-0.8s2.3,0.3,3.3,0.8c1,0.6,1.7,1.4,2.3,2.4c0.6,1,0.8,2.2,0.8,3.5s-0.3,2.5-0.8,3.5c-0.6,1-1.3,1.8-2.3,2.4
			s-2.1,0.8-3.3,0.8S1313.6,1389,1312.6,1388.4z M1318.3,1386.9c0.7-0.4,1.2-1,1.6-1.8s0.5-1.6,0.5-2.6s-0.2-1.8-0.5-2.6
			c-0.4-0.8-0.9-1.4-1.6-1.8s-1.5-0.7-2.4-0.7s-1.7,0.2-2.4,0.7c-0.7,0.4-1.2,1-1.6,1.8s-0.5,1.6-0.5,2.6s0.2,1.8,0.5,2.6
			c0.4,0.8,0.9,1.4,1.6,1.8s1.5,0.7,2.4,0.7S1317.6,1387.4,1318.3,1386.9z"/>
		<path class="st9" d="M1325.2,1376.1h1.8v12.9h-1.8V1376.1z M1326.8,1381.5h7.1v1.7h-7.1V1381.5z M1333.8,1376.1h1.8v12.9h-1.8
			V1376.1z"/>
		<path class="st9" d="M1339.3,1376.1h1.8v12.9h-1.8V1376.1z M1340.9,1381.5h7.1v1.7h-7.1V1381.5z M1347.9,1376.1h1.8v12.9h-1.8
			V1376.1z"/>
		<path class="st9" d="M1356.7,1376.1h2.5l4.7,12.9h-2.1l-3-8.6c-0.2-0.6-0.4-1.1-0.4-1.5c-0.1-0.4-0.1-0.9-0.1-1.5h-0.8
			c0,0.6-0.1,1.1-0.2,1.5s-0.2,0.9-0.5,1.5l-3.1,8.6h-2L1356.7,1376.1z M1355,1383.9h5.7l0.6,1.7h-6.9L1355,1383.9z"/>
		<path class="st9" d="M1373.5,1389v-4.9h-3.7l-2.5,4.9h-2.2l1.9-3.5c0.3-0.5,0.5-0.8,0.6-1s0.4-0.4,0.6-0.5s0.5-0.2,0.9-0.2v-0.8
			c-1,0-1.9-0.3-2.5-0.9c-0.7-0.6-1-1.4-1-2.5c0-0.6,0.2-1.2,0.5-1.8c0.3-0.5,0.8-1,1.4-1.3s1.4-0.5,2.3-0.5h5.6v12.9h-1.9V1389z
			 M1373.5,1377.8h-3.2c-0.8,0-1.5,0.2-2,0.6s-0.7,1-0.7,1.7c0,0.5,0.1,0.9,0.3,1.3c0.2,0.3,0.6,0.6,1,0.8c0.4,0.2,0.9,0.2,1.4,0.2
			h3.2L1373.5,1377.8L1373.5,1377.8z"/>
		<path class="st9" d="M1383.4,1376.1h10.1v12.9h-1.8v-11.2h-6.4v11.2h-1.8L1383.4,1376.1L1383.4,1376.1z"/>
		<path class="st9" d="M1399.5,1388.4c-1-0.6-1.8-1.3-2.3-2.4s-0.8-2.2-0.8-3.5s0.3-2.5,0.8-3.5c0.6-1,1.3-1.8,2.3-2.4
			s2.1-0.8,3.3-0.8s2.3,0.3,3.3,0.8c1,0.6,1.7,1.4,2.3,2.4c0.6,1,0.8,2.2,0.8,3.5s-0.3,2.5-0.8,3.5c-0.6,1-1.3,1.8-2.3,2.4
			s-2.1,0.8-3.3,0.8S1400.5,1389,1399.5,1388.4z M1405.2,1386.9c0.7-0.4,1.2-1,1.6-1.8s0.5-1.6,0.5-2.6s-0.2-1.8-0.5-2.6
			c-0.4-0.8-0.9-1.4-1.6-1.8s-1.5-0.7-2.4-0.7s-1.7,0.2-2.4,0.7c-0.7,0.4-1.2,1-1.6,1.8s-0.5,1.6-0.5,2.6s0.2,1.8,0.5,2.6
			c0.4,0.8,0.9,1.4,1.6,1.8s1.5,0.7,2.4,0.7S1404.5,1387.4,1405.2,1386.9z"/>
		<path class="st9" d="M1413.1,1384.2c-0.6-0.3-1.1-0.8-1.4-1.4s-0.5-1.4-0.5-2.3v-4.4h1.8v4.1c0,0.9,0.2,1.6,0.7,2s1.2,0.6,2.1,0.6
			c0.6,0,1.1-0.1,1.6-0.2s1-0.3,1.4-0.5v-6.1h1.8v12.9h-1.8v-2.3c0-1,0-1.8,0.1-2.3s0.2-1,0.5-1.5h-0.9c-0.3,0.5-0.8,0.9-1.4,1.2
			c-0.6,0.3-1.3,0.4-2,0.4C1414.4,1384.6,1413.7,1384.5,1413.1,1384.2z"/>
		<path class="st9" d="M1427.6,1377.6l0.3,0.3h-4.9v-1.7h11.1v1.7h-4.9l0.2-0.3v11.4h-1.8L1427.6,1377.6L1427.6,1377.6z"/>
		<path class="st9" d="M1438,1376.1h2.5l4.7,12.9h-2.1l-3-8.6c-0.2-0.6-0.4-1.1-0.4-1.5c-0.1-0.4-0.1-0.9-0.1-1.5h-0.8
			c0,0.6-0.1,1.1-0.2,1.5s-0.2,0.9-0.5,1.5l-3.1,8.6h-2L1438,1376.1z M1436.3,1383.9h5.7l0.6,1.7h-6.9L1436.3,1383.9z"/>
		<path class="st9" d="M1236.2,1408.6c-0.9-0.5-1.6-1.3-2.1-2.3s-0.7-2.2-0.7-3.5s0.3-2.4,0.9-3.5c0.6-1,1.4-1.8,2.3-2.4
			c1-0.6,2.1-0.9,3.2-0.9c1,0,2,0.2,2.7,0.5s1.4,0.8,1.9,1.4s0.9,1.2,1.1,1.9l-1.9,0.8c-0.2-0.6-0.5-1.1-0.8-1.5s-0.8-0.8-1.3-1
			s-1.1-0.4-1.8-0.4c-0.8,0-1.5,0.2-2.2,0.6s-1.2,0.9-1.6,1.7c-0.4,0.8-0.6,1.7-0.6,2.7s0.2,1.9,0.6,2.7s0.9,1.3,1.5,1.7
			s1.4,0.6,2.3,0.6c0.8,0,1.5-0.2,2.1-0.5s1-0.7,1.4-1.2s0.5-1,0.5-1.6h-4.4v-1.7h6.3v6.3h-1.8c0-0.5,0.1-0.9,0.2-1.4
			s0.3-0.9,0.5-1.3h-0.9c-0.3,0.7-0.8,1.4-1.5,2s-1.7,0.9-3,0.9C1238,1409.4,1237,1409.1,1236.2,1408.6z"/>
		<path class="st9" d="M1248.7,1396.2h9.4v1.7h-7.7l0.2-0.2v11.3h-1.8L1248.7,1396.2L1248.7,1396.2z M1250.3,1402h6.2v1.7h-6.2V1402
			z"/>
		<path class="st9" d="M1259.2,1401.6h5.3v1.8h-5.3V1401.6z"/>
		<path class="st9" d="M1269.4,1408.6c-0.8-0.5-1.4-1.3-1.8-2.3s-0.6-2.2-0.6-3.7c0-1.4,0.2-2.6,0.7-3.6s1.1-1.8,1.9-2.3
			s1.7-0.8,2.6-0.8c1,0,1.8,0.3,2.6,0.8c0.8,0.5,1.4,1.3,1.8,2.3c0.5,1,0.7,2.2,0.7,3.6s-0.2,2.7-0.6,3.7s-1,1.8-1.8,2.3
			s-1.7,0.8-2.7,0.8C1271.1,1409.4,1270.1,1409.1,1269.4,1408.6z M1273.8,1407.2c0.5-0.4,0.8-1,1.1-1.7c0.3-0.8,0.4-1.7,0.4-2.8
			c0-1-0.1-1.9-0.4-2.7c-0.3-0.8-0.6-1.3-1.1-1.7s-1-0.6-1.7-0.6c-0.6,0-1.2,0.2-1.7,0.6s-0.9,1-1.1,1.7s-0.4,1.6-0.4,2.7
			s0.1,2,0.4,2.8s0.6,1.3,1.1,1.7c0.5,0.4,1.1,0.6,1.7,0.6C1272.7,1407.7,1273.3,1407.5,1273.8,1407.2z"/>
		<path class="st9" d="M1282.5,1399.4c0-0.3,0.1-0.6,0.3-0.9h-0.8c-0.2,0.5-0.4,0.9-0.7,1.3c-0.3,0.4-0.6,0.7-1,0.9
			c-0.4,0.2-0.8,0.4-1.3,0.4v-1.9c0.8-0.2,1.5-0.5,2.2-1s1.2-1.1,1.6-1.8h1.5v12.9h-1.8v-8.7
			C1282.4,1400,1282.4,1399.6,1282.5,1399.4z"/>
		<path class="st9" d="M1288.1,1406.6c1.2-0.8,2.2-1.5,3-2.1c0.8-0.7,1.5-1.3,1.9-2.1c0.5-0.7,0.7-1.4,0.7-2.2c0-0.5-0.1-1-0.3-1.4
			c-0.2-0.4-0.5-0.7-0.8-0.9c-0.3-0.2-0.7-0.3-1.2-0.3s-0.9,0.1-1.3,0.3s-0.7,0.5-0.9,1c-0.2,0.4-0.3,0.9-0.3,1.5l-1.9-0.3
			c0-0.8,0.2-1.6,0.5-2.2s0.8-1.1,1.5-1.5c0.6-0.4,1.4-0.5,2.3-0.5s1.6,0.2,2.3,0.5s1.1,0.8,1.5,1.4c0.3,0.6,0.5,1.3,0.5,2.1
			c0,0.7-0.1,1.3-0.3,1.9c-0.2,0.6-0.6,1.2-1,1.7c-0.5,0.6-1.3,1.2-2.2,1.9c-0.9,0.6-2.1,1.4-3.4,2.1l0.5,0.7
			c0.4-0.3,0.8-0.5,1.2-0.6c0.4-0.1,0.9-0.2,1.5-0.2h3.9v1.7h-8.6v-2C1287.5,1406.9,1287.8,1406.7,1288.1,1406.6z"/>
		<path class="st9" d="M1300,1404.7c0.4-1.4,1-2.6,1.8-3.7s1.7-2.1,2.8-3l0.2-0.2l-0.5-0.6c-0.3,0.3-0.7,0.5-1.1,0.6
			c-0.4,0.2-0.9,0.2-1.5,0.2h-4.3v-1.7h8.7v2c-1.3,1-2.2,2.1-2.9,3.2c-0.7,1.1-1.2,2.3-1.5,3.5s-0.4,2.6-0.4,4.1h-2
			C1299.3,1407.5,1299.5,1406.1,1300,1404.7z"/>
		<path class="st9" d="M1314.5,1408.9c-0.7-0.3-1.3-0.7-1.8-1.3s-0.8-1.1-1-1.8l1.8-0.8c0.2,0.5,0.4,1,0.7,1.4
			c0.3,0.4,0.7,0.7,1.2,1c0.5,0.2,1,0.4,1.7,0.4c0.9,0,1.5-0.2,2-0.6s0.7-0.9,0.7-1.5c0-0.5-0.2-1-0.6-1.3s-1-0.6-1.8-0.8l-1.7-0.4
			c-0.7-0.1-1.3-0.4-1.8-0.7s-0.9-0.7-1.2-1.1c-0.3-0.5-0.4-1.1-0.4-1.8c0-0.7,0.2-1.3,0.6-1.9s0.9-1,1.6-1.3s1.5-0.5,2.3-0.5
			c0.9,0,1.6,0.2,2.3,0.5c0.6,0.3,1.2,0.7,1.6,1.2s0.7,0.9,0.8,1.4l-1.7,0.8c-0.1-0.4-0.3-0.7-0.5-1s-0.6-0.6-1-0.8
			c-0.4-0.2-0.9-0.3-1.6-0.3c-0.5,0-1,0.1-1.3,0.2c-0.4,0.2-0.7,0.4-0.9,0.7c-0.2,0.3-0.3,0.6-0.3,1c0,0.5,0.2,0.9,0.5,1.2
			c0.3,0.3,0.8,0.5,1.6,0.7l1.8,0.4c1.1,0.2,2,0.7,2.7,1.3c0.7,0.6,1,1.4,1,2.4c0,0.8-0.2,1.4-0.6,2s-0.9,1-1.6,1.4
			c-0.7,0.3-1.6,0.5-2.6,0.5C1316.1,1409.4,1315.2,1409.2,1314.5,1408.9z"/>
	</g>
</g>
<g>
	<g>
		<path class="st9" d="M1821.2,1356h1.8v12.9h-1.8V1356z"/>
		<path class="st9" d="M1826.7,1356h2.8l6.7,10.6l0.7-0.5c-0.2-0.4-0.4-0.7-0.5-1s-0.2-0.6-0.3-1c0-0.4-0.1-0.8-0.1-1.4v-6.8h1.8
			v12.9h-2.3l-7.2-11.3l-0.7,0.4c0.3,0.5,0.5,1.1,0.6,1.6c0.1,0.6,0.2,1.3,0.2,2.1v7.2h-1.8V1356H1826.7z"/>
		<path class="st9" d="M1841.6,1356h3.1l2.9,7.4c0.2,0.6,0.4,1.1,0.4,1.6s0.1,1.1,0.1,1.8h0.8c0-0.7,0.1-1.3,0.1-1.8s0.2-1,0.5-1.6
			l2.8-7.4h3v12.9h-1.8v-6.7c0-0.9,0.1-1.7,0.2-2.5c0.2-0.8,0.4-1.5,0.7-2.1l-0.8-0.3l-4.5,11.6h-1.3l-4.5-11.6l-0.8,0.3
			c0.3,0.6,0.5,1.3,0.7,2.1c0.2,0.8,0.2,1.6,0.2,2.5v6.7h-1.8L1841.6,1356L1841.6,1356z"/>
		<path class="st9" d="M1863.3,1356h1.8v12.9h-1.8V1356z"/>
		<path class="st9" d="M1871,1368.3c-1-0.6-1.7-1.4-2.2-2.4s-0.7-2.2-0.7-3.5c0-1.2,0.3-2.4,0.8-3.4s1.3-1.8,2.2-2.4
			c1-0.6,2-0.9,3.3-0.9c1,0,2,0.2,2.7,0.6c0.8,0.4,1.4,0.8,1.9,1.4s0.8,1.2,1,1.8l-1.8,0.7c-0.1-0.5-0.4-0.9-0.7-1.3
			s-0.7-0.8-1.2-1.1c-0.5-0.3-1.2-0.4-1.9-0.4c-0.9,0-1.6,0.2-2.3,0.6c-0.7,0.4-1.2,1-1.5,1.7c-0.4,0.7-0.5,1.6-0.5,2.6
			s0.2,1.9,0.5,2.7c0.4,0.8,0.9,1.4,1.5,1.8c0.7,0.4,1.4,0.7,2.3,0.7c1.1,0,2-0.3,2.6-0.8s1-1.2,1.3-2.1l1.8,0.7
			c-0.2,0.7-0.6,1.4-1.1,2s-1.1,1.1-1.9,1.4s-1.7,0.5-2.7,0.5C1873,1369.2,1871.9,1368.9,1871,1368.3z"/>
		<path class="st9" d="M1885,1368.3c-1-0.6-1.8-1.3-2.3-2.4s-0.8-2.2-0.8-3.5s0.3-2.5,0.8-3.5c0.6-1,1.3-1.8,2.3-2.4
			s2.1-0.8,3.3-0.8s2.3,0.3,3.3,0.8s1.7,1.4,2.3,2.4c0.6,1,0.8,2.2,0.8,3.5s-0.3,2.5-0.8,3.5c-0.6,1-1.3,1.8-2.3,2.4
			s-2.1,0.8-3.3,0.8S1886,1368.9,1885,1368.3z M1890.7,1366.8c0.7-0.4,1.2-1,1.6-1.8s0.5-1.6,0.5-2.6s-0.2-1.8-0.5-2.6
			s-0.9-1.4-1.6-1.8s-1.5-0.7-2.4-0.7s-1.7,0.2-2.4,0.7c-0.7,0.4-1.2,1-1.6,1.8s-0.5,1.6-0.5,2.6s0.2,1.8,0.5,2.6s0.9,1.4,1.6,1.8
			s1.5,0.7,2.4,0.7S1890,1367.3,1890.7,1366.8z"/>
		<path class="st9" d="M1897.6,1356h2.8l6.7,10.6l0.7-0.5c-0.2-0.4-0.4-0.7-0.5-1s-0.2-0.6-0.3-1c0-0.4-0.1-0.8-0.1-1.4v-6.8h1.8
			v12.9h-2.3l-7.2-11.3l-0.7,0.4c0.3,0.5,0.5,1.1,0.6,1.6c0.1,0.6,0.2,1.3,0.2,2.1v7.2h-1.8V1356H1897.6z"/>
		<path class="st9" d="M1914.1,1368.7c-0.7-0.3-1.3-0.7-1.8-1.3s-0.8-1.1-1-1.8l1.8-0.8c0.2,0.5,0.4,1,0.7,1.4s0.7,0.7,1.2,1
			c0.5,0.2,1,0.4,1.7,0.4c0.9,0,1.5-0.2,2-0.6s0.7-0.9,0.7-1.5c0-0.5-0.2-1-0.6-1.3s-1-0.6-1.8-0.8l-1.7-0.4
			c-0.7-0.1-1.3-0.4-1.8-0.7c-0.5-0.3-0.9-0.7-1.2-1.1c-0.3-0.5-0.4-1.1-0.4-1.8c0-0.7,0.2-1.3,0.6-1.9s0.9-1,1.6-1.3
			s1.5-0.5,2.3-0.5c0.9,0,1.6,0.2,2.3,0.5c0.7,0.3,1.2,0.7,1.6,1.2s0.7,0.9,0.8,1.4l-1.7,0.8c-0.1-0.4-0.3-0.7-0.5-1s-0.6-0.6-1-0.8
			c-0.4-0.2-0.9-0.3-1.6-0.3c-0.5,0-1,0.1-1.3,0.2c-0.4,0.2-0.7,0.4-0.9,0.7c-0.2,0.3-0.3,0.6-0.3,1c0,0.5,0.2,0.9,0.5,1.2
			c0.3,0.3,0.8,0.5,1.6,0.7l1.8,0.4c1.1,0.2,2,0.7,2.7,1.3c0.7,0.6,1,1.4,1,2.4c0,0.8-0.2,1.4-0.6,2s-0.9,1-1.6,1.4
			s-1.6,0.5-2.6,0.5C1915.7,1369.2,1914.8,1369,1914.1,1368.7z"/>
		<path class="st9" d="M1821.2,1376.1h10.1v12.9h-1.8v-11.2h-6.4v11.2h-1.8L1821.2,1376.1L1821.2,1376.1z"/>
		<path class="st9" d="M1836.6,1387.3h7.4v1.7h-9.1v-12.9h9.1v1.7h-7.4l0.2-0.2v9.8L1836.6,1387.3z M1842.2,1381.5v1.7h-5.7v-1.7
			H1842.2z"/>
		<path class="st9" d="M1847.9,1384.2c-0.6-0.3-1.1-0.8-1.4-1.4s-0.5-1.4-0.5-2.3v-4.4h1.8v4.1c0,0.9,0.2,1.6,0.7,2s1.2,0.6,2.1,0.6
			c0.6,0,1.1-0.1,1.6-0.2s1-0.3,1.4-0.5v-6.1h1.8v12.9h-1.8v-2.3c0-1,0-1.8,0.1-2.3s0.2-1,0.5-1.5h-0.9c-0.3,0.5-0.8,0.9-1.4,1.2
			c-0.6,0.3-1.3,0.4-2,0.4C1849.2,1384.6,1848.5,1384.5,1847.9,1384.2z"/>
		<path class="st9" d="M1862.5,1376.1h2.5l4.7,12.9h-2.1l-3-8.6c-0.2-0.6-0.4-1.1-0.4-1.5c-0.1-0.4-0.1-0.9-0.1-1.5h-0.8
			c0,0.6-0.1,1.1-0.2,1.5s-0.2,0.9-0.5,1.5l-3.1,8.6h-2L1862.5,1376.1z M1860.9,1383.9h5.7l0.6,1.7h-6.9L1860.9,1383.9z"/>
		<path class="st9" d="M1873.5,1377.6l0.3,0.3h-4.9v-1.7h11.1v1.7h-4.9l0.2-0.3v11.4h-1.8L1873.5,1377.6L1873.5,1377.6z"/>
		<path class="st9" d="M1883.9,1376.1h2.5l4.7,12.9h-2.1l-3-8.6c-0.2-0.6-0.4-1.1-0.4-1.5c-0.1-0.4-0.1-0.9-0.1-1.5h-0.8
			c0,0.6-0.1,1.1-0.2,1.5s-0.2,0.9-0.5,1.5l-3.1,8.6h-2L1883.9,1376.1z M1882.2,1383.9h5.7l0.6,1.7h-6.9L1882.2,1383.9z"/>
		<path class="st9" d="M1894.9,1377.6l0.3,0.3h-4.9v-1.7h11.1v1.7h-4.9l0.2-0.3v11.4h-1.8L1894.9,1377.6L1894.9,1377.6z"/>
		<path class="st9" d="M1903.6,1376.1h1.8v4.6h3.1c0.9,0,1.8,0.2,2.4,0.5c0.7,0.3,1.2,0.8,1.6,1.4s0.5,1.3,0.5,2.1
			c0,0.9-0.2,1.6-0.5,2.3c-0.4,0.6-0.9,1.1-1.6,1.5c-0.7,0.3-1.5,0.5-2.4,0.5h-4.9V1376.1z M1910.3,1386.6c0.5-0.5,0.8-1.1,0.8-1.9
			c0-0.5-0.1-0.9-0.3-1.3c-0.2-0.4-0.6-0.7-1-0.9c-0.4-0.2-1-0.3-1.7-0.3h-2.7v5h2.7C1909.1,1387.3,1909.8,1387.1,1910.3,1386.6z"/>
		<path class="st9" d="M1823.2,1408.6c-0.9-0.5-1.6-1.3-2.1-2.3s-0.7-2.2-0.7-3.5s0.3-2.4,0.9-3.5c0.6-1,1.4-1.8,2.3-2.4
			c1-0.6,2.1-0.9,3.2-0.9c1,0,2,0.2,2.7,0.5s1.4,0.8,1.9,1.4s0.9,1.2,1.1,1.9l-1.9,0.8c-0.2-0.6-0.5-1.1-0.8-1.5s-0.8-0.8-1.3-1
			s-1.1-0.4-1.8-0.4c-0.8,0-1.5,0.2-2.2,0.6s-1.2,0.9-1.6,1.7c-0.4,0.8-0.6,1.7-0.6,2.7s0.2,1.9,0.6,2.7s0.9,1.3,1.5,1.7
			c0.7,0.4,1.4,0.6,2.3,0.6c0.8,0,1.5-0.2,2.1-0.5s1-0.7,1.4-1.2c0.3-0.5,0.5-1,0.5-1.6h-4.4v-1.7h6.3v6.3h-1.8
			c0-0.5,0.1-0.9,0.2-1.4s0.3-0.9,0.5-1.3h-0.9c-0.3,0.7-0.8,1.4-1.5,2s-1.7,0.9-3,0.9C1825,1409.4,1824,1409.1,1823.2,1408.6z"/>
		<path class="st9" d="M1835.7,1396.2h9.4v1.7h-7.7l0.2-0.2v11.3h-1.8L1835.7,1396.2L1835.7,1396.2z M1837.3,1402h6.2v1.7h-6.2V1402
			z"/>
		<path class="st9" d="M1846.2,1401.6h5.3v1.8h-5.3V1401.6z"/>
		<path class="st9" d="M1856.4,1408.6c-0.8-0.5-1.4-1.3-1.8-2.3s-0.6-2.2-0.6-3.7c0-1.4,0.2-2.6,0.7-3.6s1.1-1.8,1.9-2.3
			s1.7-0.8,2.6-0.8c1,0,1.8,0.3,2.6,0.8c0.8,0.5,1.4,1.3,1.8,2.3s0.7,2.2,0.7,3.6s-0.2,2.7-0.6,3.7s-1,1.8-1.8,2.3s-1.7,0.8-2.7,0.8
			S1857.1,1409.1,1856.4,1408.6z M1860.8,1407.2c0.5-0.4,0.8-1,1.1-1.7c0.3-0.8,0.4-1.7,0.4-2.8c0-1-0.1-1.9-0.4-2.7
			c-0.3-0.8-0.6-1.3-1.1-1.7s-1-0.6-1.7-0.6c-0.6,0-1.2,0.2-1.7,0.6s-0.9,1-1.1,1.7s-0.4,1.6-0.4,2.7s0.1,2,0.4,2.8s0.6,1.3,1.1,1.7
			c0.5,0.4,1.1,0.6,1.7,0.6C1859.7,1407.7,1860.3,1407.5,1860.8,1407.2z"/>
		<path class="st9" d="M1869.5,1399.4c0-0.3,0.1-0.6,0.3-0.9h-0.8c-0.2,0.5-0.4,0.9-0.7,1.3c-0.3,0.4-0.6,0.7-1,0.9
			c-0.4,0.2-0.8,0.4-1.3,0.4v-1.9c0.8-0.2,1.5-0.5,2.2-1s1.2-1.1,1.6-1.8h1.5v12.9h-1.8v-8.7
			C1869.4,1400,1869.4,1399.6,1869.5,1399.4z"/>
		<path class="st9" d="M1875.6,1408.5c-0.8-0.6-1.3-1.4-1.5-2.3l1.9-0.6c0.2,0.7,0.5,1.3,1,1.7c0.5,0.4,1.1,0.6,1.8,0.6
			c0.5,0,1-0.1,1.4-0.3c0.4-0.2,0.7-0.5,0.9-0.9c0.2-0.4,0.3-0.9,0.3-1.4s-0.1-1-0.3-1.4c-0.2-0.4-0.5-0.7-0.9-0.9
			c-0.4-0.2-0.9-0.3-1.4-0.3c-0.6,0-1.1,0.1-1.5,0.4s-0.8,0.6-1,1l-1.9-0.3l1.1-7.3h7.4v1.7h-6.1l-0.3,2.1c-0.1,0.7-0.3,1.3-0.4,1.7
			c-0.1,0.4-0.3,0.7-0.6,1h0.9c0.3-0.5,0.6-0.9,1.1-1.2s1-0.5,1.8-0.5s1.5,0.2,2.1,0.5s1.1,0.8,1.4,1.4s0.5,1.3,0.5,2.2
			c0,0.8-0.2,1.6-0.5,2.2c-0.4,0.6-0.9,1.1-1.5,1.5s-1.4,0.5-2.3,0.5C1877.5,1409.4,1876.4,1409.1,1875.6,1408.5z"/>
		<path class="st9" d="M1887.7,1408.6c-0.7-0.5-1.3-1.2-1.7-2.1s-0.6-2.1-0.6-3.4c0-1.4,0.2-2.6,0.7-3.7s1.2-1.9,2.1-2.5
			s2.1-0.9,3.4-0.9c0.4,0,0.8,0,1.3,0.1s0.8,0.2,1.2,0.3v1.8c-0.4-0.1-0.7-0.2-1.1-0.3s-0.8-0.1-1.2-0.1c-0.9,0-1.8,0.2-2.5,0.6
			s-1.3,1-1.8,1.9c-0.4,0.8-0.7,1.9-0.7,3.1h0.7c0.1-0.4,0.3-0.9,0.6-1.2c0.3-0.4,0.6-0.7,1.1-0.9c0.5-0.2,1-0.4,1.6-0.4
			c0.8,0,1.5,0.2,2.1,0.6s1.1,0.9,1.4,1.5s0.5,1.3,0.5,2.1c0,0.8-0.2,1.6-0.5,2.3c-0.4,0.7-0.9,1.2-1.6,1.6s-1.5,0.6-2.4,0.6
			C1889.3,1409.4,1888.4,1409.1,1887.7,1408.6z M1891.6,1407.4c0.4-0.2,0.7-0.5,0.9-1c0.2-0.4,0.3-0.9,0.3-1.4s-0.1-1-0.3-1.4
			c-0.2-0.4-0.5-0.7-0.9-1s-0.8-0.3-1.3-0.3s-0.9,0.1-1.3,0.3s-0.7,0.5-0.9,0.9c-0.2,0.4-0.3,0.9-0.3,1.4s0.1,1,0.3,1.4
			c0.2,0.4,0.5,0.7,0.9,1c0.4,0.2,0.8,0.3,1.3,0.3C1890.7,1407.8,1891.2,1407.7,1891.6,1407.4z"/>
		<path class="st9" d="M1903.6,1408.9c-0.7-0.3-1.3-0.7-1.8-1.3c-0.5-0.5-0.8-1.1-1-1.8l1.8-0.8c0.2,0.5,0.4,1,0.7,1.4
			c0.3,0.4,0.7,0.7,1.2,1c0.5,0.2,1,0.4,1.7,0.4c0.9,0,1.5-0.2,2-0.6s0.7-0.9,0.7-1.5c0-0.5-0.2-1-0.6-1.3s-1-0.6-1.8-0.8l-1.7-0.4
			c-0.7-0.1-1.3-0.4-1.8-0.7s-0.9-0.7-1.2-1.1c-0.3-0.5-0.4-1.1-0.4-1.8c0-0.7,0.2-1.3,0.6-1.9s0.9-1,1.6-1.3s1.5-0.5,2.3-0.5
			s1.6,0.2,2.3,0.5c0.6,0.3,1.2,0.7,1.6,1.2s0.7,0.9,0.8,1.4l-1.7,0.8c-0.1-0.4-0.3-0.7-0.5-1s-0.6-0.6-1-0.8
			c-0.4-0.2-0.9-0.3-1.6-0.3c-0.5,0-1,0.1-1.3,0.2c-0.4,0.2-0.7,0.4-0.9,0.7c-0.2,0.3-0.3,0.6-0.3,1c0,0.5,0.2,0.9,0.5,1.2
			c0.3,0.3,0.8,0.5,1.6,0.7l1.8,0.4c1.1,0.2,2,0.7,2.7,1.3c0.7,0.6,1,1.4,1,2.4c0,0.8-0.2,1.4-0.6,2s-0.9,1-1.6,1.4
			c-0.7,0.3-1.6,0.5-2.6,0.5C1905.1,1409.4,1904.3,1409.2,1903.6,1408.9z"/>
	</g>
</g>
<g>
	<g>
		<path class="st9" d="M2436.2,1356h1.8v12.9h-1.8V1356z"/>
		<path class="st9" d="M2441.7,1356h2.8l6.7,10.6l0.7-0.5c-0.2-0.4-0.4-0.7-0.5-1s-0.2-0.6-0.3-1c0-0.4-0.1-0.8-0.1-1.4v-6.8h1.8
			v12.9h-2.3l-7.2-11.3l-0.7,0.4c0.3,0.5,0.5,1.1,0.6,1.6c0.1,0.6,0.2,1.3,0.2,2.1v7.2h-1.8V1356H2441.7z"/>
		<path class="st9" d="M2456.6,1356h3.1l2.9,7.4c0.2,0.6,0.4,1.1,0.4,1.6s0.1,1.1,0.1,1.8h0.8c0-0.7,0.1-1.3,0.1-1.8s0.2-1,0.5-1.6
			l2.8-7.4h3v12.9h-1.8v-6.7c0-0.9,0.1-1.7,0.2-2.5c0.2-0.8,0.4-1.5,0.7-2.1l-0.8-0.3l-4.5,11.6h-1.3l-4.5-11.6l-0.8,0.3
			c0.3,0.6,0.5,1.3,0.7,2.1c0.2,0.8,0.2,1.6,0.2,2.5v6.7h-1.8L2456.6,1356L2456.6,1356z"/>
		<path class="st9" d="M2478.3,1356h1.8v12.9h-1.8V1356z"/>
		<path class="st9" d="M2486,1368.3c-1-0.6-1.7-1.4-2.2-2.4s-0.7-2.2-0.7-3.5c0-1.2,0.3-2.4,0.8-3.4s1.3-1.8,2.2-2.4
			c1-0.6,2-0.9,3.3-0.9c1,0,2,0.2,2.7,0.6c0.8,0.4,1.4,0.8,1.9,1.4s0.8,1.2,1,1.8l-1.8,0.7c-0.1-0.5-0.4-0.9-0.7-1.3
			s-0.7-0.8-1.2-1.1c-0.5-0.3-1.2-0.4-1.9-0.4c-0.9,0-1.6,0.2-2.3,0.6s-1.2,1-1.5,1.7c-0.4,0.7-0.5,1.6-0.5,2.6s0.2,1.9,0.5,2.7
			c0.4,0.8,0.9,1.4,1.5,1.8c0.7,0.4,1.4,0.7,2.3,0.7c1.1,0,2-0.3,2.6-0.8s1-1.2,1.3-2.1l1.8,0.7c-0.2,0.7-0.6,1.4-1.1,2
			s-1.1,1.1-1.9,1.4s-1.7,0.5-2.7,0.5C2488,1369.2,2486.9,1368.9,2486,1368.3z"/>
		<path class="st9" d="M2500,1368.3c-1-0.6-1.8-1.3-2.3-2.4s-0.8-2.2-0.8-3.5s0.3-2.5,0.8-3.5c0.6-1,1.3-1.8,2.3-2.4
			s2.1-0.8,3.3-0.8s2.3,0.3,3.3,0.8s1.7,1.4,2.3,2.4s0.8,2.2,0.8,3.5s-0.3,2.5-0.8,3.5c-0.6,1-1.3,1.8-2.3,2.4s-2.1,0.8-3.3,0.8
			S2501,1368.9,2500,1368.3z M2505.7,1366.8c0.7-0.4,1.2-1,1.6-1.8s0.5-1.6,0.5-2.6s-0.2-1.8-0.5-2.6s-0.9-1.4-1.6-1.8
			c-0.7-0.4-1.5-0.7-2.4-0.7s-1.7,0.2-2.4,0.7c-0.7,0.4-1.2,1-1.6,1.8s-0.5,1.6-0.5,2.6s0.2,1.8,0.5,2.6s0.9,1.4,1.6,1.8
			c0.7,0.4,1.5,0.7,2.4,0.7S2505,1367.3,2505.7,1366.8z"/>
		<path class="st9" d="M2512.6,1356h2.8l6.7,10.6l0.7-0.5c-0.2-0.4-0.4-0.7-0.5-1s-0.2-0.6-0.3-1c0-0.4-0.1-0.8-0.1-1.4v-6.8h1.8
			v12.9h-2.3l-7.2-11.3l-0.7,0.4c0.3,0.5,0.5,1.1,0.6,1.6c0.1,0.6,0.2,1.3,0.2,2.1v7.2h-1.8V1356H2512.6z"/>
		<path class="st9" d="M2529.1,1368.7c-0.7-0.3-1.3-0.7-1.8-1.3s-0.8-1.1-1-1.8l1.8-0.8c0.2,0.5,0.4,1,0.7,1.4s0.7,0.7,1.2,1
			c0.5,0.2,1,0.4,1.7,0.4c0.9,0,1.5-0.2,2-0.6s0.7-0.9,0.7-1.5c0-0.5-0.2-1-0.6-1.3s-1-0.6-1.8-0.8l-1.7-0.4
			c-0.7-0.1-1.3-0.4-1.8-0.7c-0.5-0.3-0.9-0.7-1.2-1.1c-0.3-0.5-0.4-1.1-0.4-1.8c0-0.7,0.2-1.3,0.6-1.9s0.9-1,1.6-1.3
			c0.7-0.3,1.5-0.5,2.3-0.5c0.9,0,1.6,0.2,2.3,0.5s1.2,0.7,1.6,1.2c0.4,0.5,0.7,0.9,0.8,1.4l-1.7,0.8c-0.1-0.4-0.3-0.7-0.5-1
			s-0.6-0.6-1-0.8c-0.4-0.2-0.9-0.3-1.6-0.3c-0.5,0-1,0.1-1.3,0.2c-0.4,0.2-0.7,0.4-0.9,0.7c-0.2,0.3-0.3,0.6-0.3,1
			c0,0.5,0.2,0.9,0.5,1.2c0.3,0.3,0.8,0.5,1.6,0.7l1.8,0.4c1.1,0.2,2,0.7,2.7,1.3c0.7,0.6,1,1.4,1,2.4c0,0.8-0.2,1.4-0.6,2
			c-0.4,0.6-0.9,1-1.6,1.4s-1.6,0.5-2.6,0.5C2530.7,1369.2,2529.8,1369,2529.1,1368.7z"/>
		<path class="st9" d="M2436.2,1376.1h5.2c0.9,0,1.7,0.2,2.3,0.5s1.1,0.8,1.5,1.4c0.3,0.6,0.5,1.3,0.5,2c0,0.8-0.2,1.5-0.5,2.1
			s-0.8,1-1.5,1.4c-0.6,0.3-1.4,0.5-2.3,0.5h-3.4v5h-1.8V1376.1z M2442.5,1382.1c0.4-0.2,0.7-0.5,0.9-0.8s0.3-0.8,0.3-1.2
			c0-0.5-0.1-0.8-0.3-1.2s-0.5-0.6-0.9-0.8c-0.4-0.2-0.9-0.3-1.5-0.3h-3v4.6h3C2441.6,1382.4,2442.1,1382.3,2442.5,1382.1z"/>
		<path class="st9" d="M2448.2,1376.1h4.5c1.2,0,2.3,0.3,3.2,0.8s1.7,1.3,2.2,2.2c0.5,1,0.8,2.1,0.8,3.4s-0.3,2.5-0.8,3.5
			s-1.2,1.7-2.2,2.2s-2.1,0.8-3.3,0.8h-4.4V1376.1z M2449.8,1387.3h2.5c1,0,1.9-0.2,2.6-0.5s1.2-0.9,1.5-1.6s0.5-1.6,0.5-2.6
			s-0.2-1.8-0.5-2.5s-0.8-1.3-1.5-1.6c-0.7-0.4-1.5-0.6-2.5-0.6h-2.6l0.2-0.2v9.8L2449.8,1387.3z"/>
		<path class="st9" d="M2461.8,1376.1h9.4v1.7h-7.7l0.2-0.2v11.3h-1.8L2461.8,1376.1L2461.8,1376.1z M2463.3,1381.9h6.2v1.7h-6.2
			V1381.9z"/>
		<path class="st9" d="M2479.3,1387.3c-1-0.5-1.7-1.2-2.2-2s-0.7-1.7-0.7-2.7s0.2-1.9,0.7-2.7c0.5-0.8,1.2-1.5,2.2-2
			s2.2-0.8,3.6-0.9v-1.4h1.8v1.4c1.4,0.1,2.6,0.3,3.6,0.9c1,0.5,1.7,1.2,2.2,2s0.7,1.7,0.7,2.7s-0.2,1.9-0.7,2.7
			c-0.5,0.8-1.2,1.5-2.2,2s-2.2,0.8-3.6,0.9v1.4h-1.8v-1.4C2481.4,1388.1,2480.2,1387.8,2479.3,1387.3z M2483,1379.6
			c0.1-0.3,0.3-0.6,0.6-0.8l-0.3-0.7c-1,0.1-1.9,0.3-2.6,0.7c-0.7,0.4-1.3,0.9-1.7,1.5s-0.6,1.4-0.6,2.2c0,0.7,0.2,1.4,0.5,1.9
			c0.3,0.6,0.8,1,1.5,1.4s1.5,0.6,2.5,0.6v-5.6C2482.8,1380.3,2482.9,1379.9,2483,1379.6z M2484.5,1385.6c-0.1,0.3-0.3,0.6-0.6,0.8
			l0.3,0.7c1-0.1,1.9-0.3,2.6-0.7c0.7-0.4,1.3-0.9,1.7-1.5s0.6-1.4,0.6-2.2c0-0.7-0.2-1.4-0.5-1.9c-0.3-0.6-0.8-1-1.5-1.4
			s-1.5-0.6-2.5-0.6v5.6C2484.7,1384.8,2484.6,1385.3,2484.5,1385.6z"/>
		<path class="st9" d="M2496.8,1376.1h2.5l4.7,12.9h-2.1l-3-8.6c-0.2-0.6-0.4-1.1-0.4-1.5s-0.1-0.9-0.1-1.5h-0.8
			c0,0.6-0.1,1.1-0.2,1.5c-0.1,0.4-0.2,0.9-0.4,1.5l-3.1,8.6h-2L2496.8,1376.1z M2495.2,1383.9h5.7l0.6,1.7h-6.9L2495.2,1383.9z"/>
		<path class="st9" d="M2506.3,1376.1h1.8v7.6c0,0.8-0.1,1.4-0.2,1.9c-0.1,0.5-0.3,1-0.7,1.5l0.7,0.5l6.9-11.5h2.7v12.9h-1.8v-7.6
			c0-0.8,0.1-1.4,0.2-1.9c0.1-0.5,0.3-1,0.7-1.5l-0.7-0.5l-6.9,11.5h-2.7V1376.1z M2510.1,1374.7c-0.5-0.2-0.8-0.5-1-0.9
			s-0.3-0.8-0.4-1.2h1.8c0.1,0.3,0.2,0.6,0.5,0.8c0.3,0.2,0.6,0.3,1,0.3s0.8-0.1,1-0.3c0.3-0.2,0.4-0.5,0.5-0.8h1.8
			c0,0.7-0.3,1.3-0.8,1.8s-1.3,0.7-2.4,0.7C2511.1,1375.1,2510.5,1375,2510.1,1374.7z"/>
		<path class="st9" d="M2519.7,1387.3h0.6c0.4,0,0.7,0,0.9-0.1s0.4-0.2,0.6-0.4c0.1-0.2,0.3-0.4,0.3-0.7c0.1-0.5,0.2-1.2,0.2-2.1
			s0.1-2,0.1-3.3l0.1-4.6h9.1v12.9h-1.8v-11.2h-5.5l-0.1,3.5c0,1.3-0.1,2.4-0.1,3.2c-0.1,0.8-0.2,1.5-0.3,2.1s-0.3,1-0.6,1.3
			s-0.6,0.6-1,0.8c-0.4,0.2-1,0.2-1.7,0.2h-0.8V1387.3z"/>
		<path class="st9" d="M2438.2,1408.6c-0.9-0.5-1.6-1.3-2.1-2.3s-0.7-2.2-0.7-3.5s0.3-2.4,0.9-3.5c0.6-1,1.4-1.8,2.3-2.4
			c1-0.6,2.1-0.9,3.2-0.9c1,0,2,0.2,2.7,0.5s1.4,0.8,1.9,1.4s0.9,1.2,1.1,1.9l-1.9,0.8c-0.2-0.6-0.5-1.1-0.8-1.5s-0.8-0.8-1.3-1
			s-1.1-0.4-1.8-0.4c-0.8,0-1.5,0.2-2.2,0.6s-1.2,0.9-1.6,1.7c-0.4,0.8-0.6,1.7-0.6,2.7s0.2,1.9,0.6,2.7s0.9,1.3,1.5,1.7
			c0.7,0.4,1.4,0.6,2.3,0.6c0.8,0,1.5-0.2,2.1-0.5s1-0.7,1.4-1.2c0.3-0.5,0.5-1,0.5-1.6h-4.4v-1.7h6.3v6.3h-1.8
			c0-0.5,0.1-0.9,0.2-1.4c0.1-0.5,0.3-0.9,0.5-1.3h-0.9c-0.3,0.7-0.8,1.4-1.5,2s-1.7,0.9-3,0.9
			C2440,1409.4,2439,1409.1,2438.2,1408.6z"/>
		<path class="st9" d="M2450.7,1396.2h9.4v1.7h-7.7l0.2-0.2v11.3h-1.8L2450.7,1396.2L2450.7,1396.2z M2452.3,1402h6.2v1.7h-6.2V1402
			z"/>
		<path class="st9" d="M2461.2,1401.6h5.3v1.8h-5.3V1401.6z"/>
		<path class="st9" d="M2471.4,1408.6c-0.8-0.5-1.4-1.3-1.8-2.3c-0.4-1-0.6-2.2-0.6-3.7c0-1.4,0.2-2.6,0.7-3.6s1.1-1.8,1.9-2.3
			c0.8-0.5,1.7-0.8,2.6-0.8c1,0,1.8,0.3,2.6,0.8s1.4,1.3,1.8,2.3s0.7,2.2,0.7,3.6s-0.2,2.7-0.6,3.7c-0.4,1-1,1.8-1.8,2.3
			s-1.7,0.8-2.7,0.8S2472.1,1409.1,2471.4,1408.6z M2475.8,1407.2c0.5-0.4,0.8-1,1.1-1.7c0.3-0.8,0.4-1.7,0.4-2.8
			c0-1-0.1-1.9-0.4-2.7c-0.3-0.8-0.6-1.3-1.1-1.7s-1-0.6-1.7-0.6c-0.6,0-1.2,0.2-1.7,0.6s-0.9,1-1.1,1.7s-0.4,1.6-0.4,2.7
			s0.1,2,0.4,2.8s0.6,1.3,1.1,1.7c0.5,0.4,1.1,0.6,1.7,0.6C2474.7,1407.7,2475.3,1407.5,2475.8,1407.2z"/>
		<path class="st9" d="M2484.5,1399.4c0-0.3,0.1-0.6,0.3-0.9h-0.8c-0.2,0.5-0.4,0.9-0.7,1.3s-0.6,0.7-1,0.9
			c-0.4,0.2-0.8,0.4-1.3,0.4v-1.9c0.8-0.2,1.5-0.5,2.2-1s1.2-1.1,1.6-1.8h1.5v12.9h-1.8v-8.7
			C2484.4,1400,2484.4,1399.6,2484.5,1399.4z"/>
		<path class="st9" d="M2490.9,1409.3c-0.5-0.1-0.9-0.2-1.2-0.3v-1.9c0.4,0.1,0.7,0.2,1.1,0.3s0.8,0.1,1.3,0.1
			c0.8,0,1.6-0.2,2.2-0.5c0.6-0.3,1.1-0.8,1.5-1.4c0.3-0.4,0.5-1,0.6-1.6c0.2-0.6,0.2-1.2,0.2-1.8h-0.8c-0.2,0.6-0.6,1.1-1.1,1.5
			s-1.2,0.6-1.9,0.6c-0.8,0-1.4-0.2-2-0.5s-1-0.8-1.3-1.4s-0.5-1.3-0.5-2c0-0.8,0.2-1.6,0.5-2.3c0.3-0.7,0.8-1.2,1.5-1.6
			c0.6-0.4,1.4-0.6,2.3-0.6c0.6,0,1.3,0.1,1.8,0.3c0.6,0.2,1,0.6,1.5,1c0.5,0.5,0.9,1.2,1.2,2s0.4,1.8,0.4,2.9
			c0,1.4-0.2,2.7-0.7,3.7c-0.4,1.1-1.1,1.9-2,2.5s-2,0.9-3.3,0.9C2491.8,1409.4,2491.4,1409.3,2490.9,1409.3z M2494.7,1402.5
			c0.4-0.2,0.7-0.5,0.9-0.9s0.3-0.9,0.3-1.4s-0.1-1-0.3-1.4s-0.5-0.7-0.9-0.9c-0.4-0.2-0.8-0.3-1.3-0.3s-0.9,0.1-1.3,0.3
			c-0.4,0.2-0.7,0.5-0.9,0.9s-0.3,0.9-0.3,1.4s0.1,1,0.3,1.4s0.5,0.7,0.9,0.9c0.4,0.2,0.8,0.3,1.3,0.3S2494.4,1402.7,2494.7,1402.5z
			"/>
		<path class="st9" d="M2502.9,1408.6c-0.8-0.5-1.4-1.3-1.8-2.3c-0.4-1-0.6-2.2-0.6-3.7c0-1.4,0.2-2.6,0.7-3.6s1.1-1.8,1.9-2.3
			s1.7-0.8,2.6-0.8c1,0,1.8,0.3,2.6,0.8s1.4,1.3,1.8,2.3s0.7,2.2,0.7,3.6s-0.2,2.7-0.6,3.7c-0.4,1-1,1.8-1.8,2.3s-1.7,0.8-2.7,0.8
			C2504.6,1409.4,2503.7,1409.1,2502.9,1408.6z M2507.4,1407.2c0.5-0.4,0.8-1,1.1-1.7c0.3-0.8,0.4-1.7,0.4-2.8c0-1-0.1-1.9-0.4-2.7
			c-0.3-0.8-0.6-1.3-1.1-1.7s-1-0.6-1.7-0.6c-0.6,0-1.2,0.2-1.7,0.6s-0.9,1-1.1,1.7s-0.4,1.6-0.4,2.7s0.1,2,0.4,2.8
			c0.3,0.8,0.6,1.3,1.1,1.7c0.5,0.4,1.1,0.6,1.7,0.6C2506.3,1407.7,2506.9,1407.5,2507.4,1407.2z"/>
		<path class="st9" d="M2519.7,1408.9c-0.7-0.3-1.3-0.7-1.8-1.3c-0.5-0.5-0.8-1.1-1-1.8l1.8-0.8c0.2,0.5,0.4,1,0.7,1.4
			s0.7,0.7,1.2,1c0.5,0.2,1,0.4,1.7,0.4c0.9,0,1.5-0.2,2-0.6s0.7-0.9,0.7-1.5c0-0.5-0.2-1-0.6-1.3c-0.4-0.3-1-0.6-1.8-0.8l-1.7-0.4
			c-0.7-0.1-1.3-0.4-1.8-0.7s-0.9-0.7-1.2-1.1c-0.3-0.5-0.4-1.1-0.4-1.8c0-0.7,0.2-1.3,0.6-1.9c0.4-0.6,0.9-1,1.6-1.3
			c0.7-0.3,1.5-0.5,2.3-0.5s1.6,0.2,2.3,0.5c0.6,0.3,1.2,0.7,1.6,1.2c0.4,0.5,0.7,0.9,0.8,1.4l-1.7,0.8c-0.1-0.4-0.3-0.7-0.5-1
			s-0.6-0.6-1-0.8c-0.4-0.2-0.9-0.3-1.6-0.3c-0.5,0-1,0.1-1.3,0.2c-0.4,0.2-0.7,0.4-0.9,0.7c-0.2,0.3-0.3,0.6-0.3,1
			c0,0.5,0.2,0.9,0.5,1.2c0.3,0.3,0.8,0.5,1.6,0.7l1.8,0.4c1.1,0.2,2,0.7,2.7,1.3c0.7,0.6,1,1.4,1,2.4c0,0.8-0.2,1.4-0.6,2
			s-0.9,1-1.6,1.4c-0.7,0.3-1.6,0.5-2.6,0.5C2521.3,1409.4,2520.5,1409.2,2519.7,1408.9z"/>
	</g>
</g>
<line class="st6" x1="296" y1="1262" x2="296" y2="1414"/>
<line class="st6" x1="1210" y1="1262" x2="1210" y2="1414"/>
<line class="st6" x1="1798" y1="1262" x2="1798" y2="1414"/>
<line class="st6" x1="2411" y1="1262" x2="2411" y2="1414"/>
<path class="st8" d="M1210.4,980.8V1138c10.6,10.6,16.5,16.5,27.1,27.1h248.9c10.6-10.6,16.5-16.5,27.1-27.1V980.8
	c-10.6-10.6-16.5-16.5-27.1-27.1h-248.9C1226.9,964.3,1221,970.3,1210.4,980.8z M1308.7,1076.9l12.8,14.1l4,3.5h72.9l4-3.5
	l12.8-14.1l62.6,66.5h-231.7L1308.7,1076.9z M1232.1,1126.7V992.6l62,68.2L1232.1,1126.7z M1429.8,1060.8l62-68.2v134.1
	L1429.8,1060.8z M1478.2,975.4l-88.5,97.4h-55.4l-88.5-97.4H1478.2z"/>
</svg>
