<?xml version="1.0" encoding="utf-8"?>
<!-- Generator: Adobe Illustrator 22.0.0, SVG Export Plug-In . SVG Version: 6.00 Build 0)  -->
<svg version="1.1" id="Layer_1" xmlns="http://www.w3.org/2000/svg" xmlns:xlink="http://www.w3.org/1999/xlink" x="0px" y="0px"
	 viewBox="0 0 3000 2000" style="enable-background:new 0 0 3000 2000;" xml:space="preserve">
<style type="text/css">
	.st0{fill:#E7E7E7;}
	.st1{fill:#F3F4F5;}
	.st2{fill:#852120;}
	.st3{fill:#8D5FFF;}
	.st4{fill:#E6E3E5;}
	.st5{fill:#E9463E;}
	.st6{fill:#F76363;}
	.st7{fill:#6B55C6;}
	.st8{fill:#B3B4BB;}
	.st9{fill:#843A21;}
	.st10{fill:#818A93;}
	.st11{fill:#55419E;}
	.st12{fill:#4F5D6A;}
	.st13{fill:#FF7144;}
	.st14{fill:#26224C;}
	.st15{fill:#FF9B80;}
	.st16{fill:#354653;}
	.st17{fill:#011523;}
	.st18{fill:none;stroke:#011523;stroke-miterlimit:10;}
	.st19{fill:#2F3234;}
	.st20{fill:#1C2F3C;}
	.st21{fill:#F3F3F3;}
	.st22{fill:none;stroke:#F3F3F3;stroke-miterlimit:10;}
	.st23{opacity:0.5;fill:none;stroke:#F3F3F3;stroke-miterlimit:10;}
</style>
<rect class="st0" width="3000" height="2000"/>
<polygon class="st1" points="800,300 800,1700 900,1600 900,400 2100,400 2200,300 "/>
<polygon class="st2" points="2100,400 2100,1600 2200,1700 2200,300 "/>
<polygon class="st3" points="2100,1600 2000,1500 1000,1500 900,1600 800,1700 2200,1700 "/>
<polygon class="st4" points="900,400 900,1600 1000,1500 1000,500 2000,500 2100,400 "/>
<polygon class="st5" points="2000,1500 2100,1600 2100,400 2000,500 "/>
<polygon class="st6" points="1900,1400 2000,1500 2000,500 1900,600 "/>
<polygon class="st7" points="1100,1400 1000,1500 2000,1500 1900,1400 "/>
<polygon class="st8" points="1000,500 1000,1500 1100,1400 1100,600 1900,600 2000,500 "/>
<polygon class="st9" points="1800,1300 1900,1400 1900,600 1800,700 "/>
<polygon class="st10" points="1100,600 1100,1400 1200,1300 1200,700 1800,700 1900,600 "/>
<polygon class="st11" points="1800,1300 1200,1300 1100,1400 1900,1400 "/>
<polygon class="st12" points="1200,700 1200,1300 1300,1200 1300,800 1700,800 1800,700 "/>
<polygon class="st13" points="1700,800 1700,1200 1800,1300 1800,700 "/>
<polygon class="st14" points="1700,1200 1600,1100 1400,1100 1300,1200 1200,1300 1800,1300 "/>
<polygon class="st15" points="1600,1100 1700,1200 1700,800 1600,900 "/>
<polygon class="st16" points="1300,800 1300,1200 1400,1100 1400,900 1600,900 1700,800 "/>
<rect x="1400" y="900" class="st17" width="200" height="200"/>
<g>
	<line class="st18" x1="185" y1="358" x2="853" y2="358"/>
	<line class="st18" x1="2150" y1="405.5" x2="2838" y2="405.5"/>
	<line class="st18" x1="2049.5" y1="510.5" x2="2838" y2="510.5"/>
	<line class="st18" x1="1949.5" y1="605.5" x2="2838" y2="605.5"/>
	<line class="st18" x1="1849.5" y1="710.5" x2="2838" y2="710.5"/>
	<line class="st18" x1="1749.5" y1="815.5" x2="2838" y2="815.5"/>
	<line class="st18" x1="1649.5" y1="910.5" x2="2838" y2="910.5"/>
	<line class="st18" x1="185" y1="461.5" x2="954.5" y2="461.5"/>
	<line class="st18" x1="185" y1="555.5" x2="1056.5" y2="555.5"/>
	<line class="st18" x1="185" y1="647.5" x2="1158.5" y2="647.5"/>
	<line class="st18" x1="185" y1="750" x2="1252.5" y2="750"/>
	<line class="st18" x1="185" y1="853.5" x2="1350.5" y2="853.5"/>
	<line class="st18" x1="185" y1="1004.5" x2="1499.5" y2="1004.5"/>
	<line class="st18" x1="185" y1="1647.5" x2="954.5" y2="1647.5"/>
	<line class="st18" x1="185" y1="1447.5" x2="1158.5" y2="1447.5"/>
	<line class="st18" x1="185" y1="1355.5" x2="1247.5" y2="1355.5"/>
	<line class="st18" x1="185" y1="1252.5" x2="1350.5" y2="1252.5"/>
</g>
<circle class="st19" cx="853.5" cy="357.5" r="6.5"/>
<circle class="st19" cx="954.5" cy="461.5" r="6.5"/>
<circle class="st19" cx="1056.5" cy="555.5" r="6.5"/>
<circle class="st19" cx="1158.5" cy="647.5" r="6.5"/>
<circle class="st19" cx="1252.5" cy="750.5" r="6.5"/>
<circle class="st20" cx="1350.5" cy="853.5" r="6.5"/>
<circle class="st19" cx="1350.5" cy="1252.5" r="6.5"/>
<circle class="st19" cx="1247.5" cy="1355.5" r="6.5"/>
<circle class="st19" cx="1158.5" cy="1447.5" r="6.5"/>
<circle class="st19" cx="954.5" cy="1647.5" r="6.5"/>
<circle class="st19" cx="1649.5" cy="910.5" r="6.5"/>
<circle class="st19" cx="1749.5" cy="815.5" r="6.5"/>
<circle class="st19" cx="1849.5" cy="710.5" r="6.5"/>
<circle class="st19" cx="1949.5" cy="605.5" r="6.5"/>
<circle class="st19" cx="2049.5" cy="510.5" r="6.5"/>
<circle class="st21" cx="2152.5" cy="405.5" r="6.5"/>
<line class="st22" x1="2200" y1="405" x2="2158" y2="405"/>
<line class="st22" x1="2199.5" y1="510.5" x2="2100" y2="510.5"/>
<line class="st22" x1="2199.5" y1="605.5" x2="2100" y2="605.5"/>
<line class="st22" x1="2199.5" y1="710.5" x2="2100" y2="710.5"/>
<line class="st22" x1="2199.5" y1="815.5" x2="2100" y2="815.5"/>
<line class="st22" x1="2199.5" y1="910.5" x2="2100" y2="910.5"/>
<g>
	<g>
		<path class="st19" d="M188.4,322.5h3.6v25.2h-3.6V322.5z"/>
		<path class="st19" d="M198.9,322.5h5.5l13.2,20.8l1.3-0.9c-0.5-0.7-0.8-1.4-1-2c-0.2-0.6-0.4-1.2-0.5-1.9
			c-0.1-0.7-0.1-1.6-0.1-2.7v-13.4h3.6v25.2h-4.5l-14.1-22.2l-1.3,0.8c0.5,1.1,0.9,2.1,1.2,3.2c0.2,1.1,0.4,2.5,0.4,4.1v14h-3.6
			V322.5z"/>
		<path class="st19" d="M227.6,322.5h6l5.6,14.4c0.4,1.1,0.7,2.1,0.8,3.1c0.2,1,0.2,2.2,0.3,3.6h1.5c0-1.4,0.1-2.6,0.3-3.5
			c0.2-0.9,0.4-2,0.9-3.1l5.5-14.4h5.9v25.2h-3.6v-13.1c0-1.8,0.2-3.4,0.5-4.9c0.3-1.5,0.7-2.9,1.3-4.2l-1.5-0.6l-8.7,22.7h-2.6
			L231,325l-1.5,0.6c0.5,1.2,1,2.6,1.3,4.1c0.3,1.5,0.5,3.1,0.5,4.9v13.1h-3.6V322.5z"/>
		<path class="st19" d="M260.2,332.9h10.4v3.5h-10.4V332.9z"/>
		<path class="st19" d="M276.3,322.5h3.6v22.3l-0.5-0.5h14v3.4h-17.2V322.5z"/>
		<path class="st19" d="M300.2,346.6c-1.7-1.1-3.1-2.6-4-4.6s-1.4-4.3-1.4-6.9c0-2.5,0.6-4.8,1.7-6.8c1.1-2,2.7-3.5,4.6-4.7
			c1.9-1.1,4-1.7,6.4-1.7c2,0,3.8,0.4,5.4,1.1c1.5,0.7,2.8,1.6,3.8,2.8c1,1.1,1.7,2.4,2.2,3.7L315,331c-0.4-1.2-1-2.2-1.7-3
			c-0.7-0.9-1.5-1.5-2.5-2c-1-0.5-2.2-0.7-3.6-0.7c-1.5,0-2.9,0.4-4.3,1.1c-1.3,0.7-2.4,1.9-3.2,3.3c-0.8,1.5-1.2,3.2-1.2,5.3
			c0,2,0.4,3.8,1.1,5.3c0.7,1.5,1.7,2.6,3,3.4c1.3,0.8,2.8,1.2,4.5,1.2c1.5,0,2.9-0.3,4-0.9s2-1.4,2.7-2.4c0.6-1,1-2,1.1-3h-8.7
			v-3.3h12.4v12.4h-3.5c0-0.9,0.1-1.8,0.4-2.7c0.3-0.9,0.6-1.8,1-2.6h-1.7c-0.5,1.4-1.5,2.8-2.8,4c-1.4,1.2-3.3,1.9-5.9,1.9
			C303.9,348.2,301.9,347.6,300.2,346.6z"/>
		<path class="st19" d="M323.3,332.9h10.4v3.5h-10.4V332.9z"/>
		<path class="st19" d="M343.9,328.5c0.1-0.6,0.3-1.2,0.5-1.8h-1.6c-0.3,0.9-0.8,1.8-1.3,2.5c-0.6,0.7-1.2,1.3-2,1.7
			c-0.8,0.4-1.6,0.7-2.5,0.8V328c1.6-0.4,3-1,4.3-1.9s2.3-2.1,3.1-3.6h2.9v25.2h-3.6v-17C343.8,329.8,343.8,329.1,343.9,328.5z"/>
		<path class="st19" d="M357.7,346.6c-1.5-1-2.7-2.5-3.5-4.5c-0.8-2-1.3-4.4-1.3-7.2c0-2.8,0.4-5.2,1.4-7.1c0.9-2,2.1-3.4,3.6-4.4
			c1.5-1,3.2-1.5,5.1-1.5c1.9,0,3.6,0.5,5.1,1.5c1.5,1,2.7,2.5,3.6,4.4c0.9,2,1.3,4.3,1.3,7.1c0,2.8-0.4,5.2-1.3,7.2
			c-0.8,2-2,3.5-3.5,4.5c-1.5,1-3.3,1.5-5.3,1.5C361,348.2,359.2,347.7,357.7,346.6z M366.3,343.8c0.9-0.8,1.7-1.9,2.2-3.4
			s0.8-3.3,0.8-5.5c0-2-0.3-3.7-0.8-5.2c-0.5-1.5-1.2-2.6-2.2-3.4c-0.9-0.8-2-1.2-3.3-1.2c-1.3,0-2.4,0.4-3.3,1.2
			c-1,0.8-1.7,1.9-2.2,3.4c-0.5,1.5-0.8,3.2-0.8,5.2c0,2.1,0.3,3.9,0.8,5.4c0.5,1.5,1.2,2.6,2.2,3.4c0.9,0.8,2.1,1.2,3.4,1.2
			C364.3,345,365.4,344.6,366.3,343.8z"/>
		<path class="st19" d="M381.9,346.6c-1.5-1-2.7-2.5-3.5-4.5c-0.8-2-1.3-4.4-1.3-7.2c0-2.8,0.4-5.2,1.4-7.1c0.9-2,2.1-3.4,3.6-4.4
			c1.5-1,3.2-1.5,5.1-1.5c1.9,0,3.6,0.5,5.1,1.5c1.5,1,2.7,2.5,3.6,4.4c0.9,2,1.3,4.3,1.3,7.1c0,2.8-0.4,5.2-1.3,7.2
			c-0.8,2-2,3.5-3.5,4.5c-1.5,1-3.3,1.5-5.3,1.5C385.2,348.2,383.4,347.7,381.9,346.6z M390.5,343.8c0.9-0.8,1.7-1.9,2.2-3.4
			s0.8-3.3,0.8-5.5c0-2-0.3-3.7-0.8-5.2c-0.5-1.5-1.2-2.6-2.2-3.4c-0.9-0.8-2-1.2-3.3-1.2c-1.3,0-2.4,0.4-3.3,1.2
			c-1,0.8-1.7,1.9-2.2,3.4c-0.5,1.5-0.8,3.2-0.8,5.2c0,2.1,0.3,3.9,0.8,5.4c0.5,1.5,1.2,2.6,2.2,3.4c0.9,0.8,2.1,1.2,3.4,1.2
			C388.5,345,389.6,344.6,390.5,343.8z"/>
	</g>
	<g>
		<path class="st19" d="M2629.8,370h3.6v25.2h-3.6V370z"/>
		<path class="st19" d="M2640.2,370h5.5l13.2,20.8l1.3-0.9c-0.5-0.7-0.8-1.4-1-2c-0.2-0.6-0.4-1.2-0.5-1.9c-0.1-0.7-0.1-1.6-0.1-2.7
			V370h3.6v25.2h-4.5l-14.1-22.2l-1.3,0.8c0.5,1.1,0.9,2.1,1.2,3.2c0.2,1.1,0.4,2.5,0.4,4.1v14h-3.6V370z"/>
		<path class="st19" d="M2669,370h6l5.6,14.4c0.4,1.1,0.7,2.1,0.8,3.1s0.2,2.2,0.3,3.6h1.5c0-1.4,0.1-2.6,0.3-3.5
			c0.2-0.9,0.4-2,0.9-3.1l5.5-14.4h5.9v25.2h-3.6v-13.1c0-1.8,0.2-3.4,0.5-4.9c0.3-1.5,0.7-2.9,1.3-4.2l-1.5-0.6l-8.7,22.7h-2.6
			l-8.9-22.7l-1.5,0.6c0.5,1.2,1,2.6,1.3,4.1c0.3,1.5,0.5,3.1,0.5,4.9v13.1h-3.6V370z"/>
		<path class="st19" d="M2701.6,380.4h10.4v3.5h-10.4V380.4z"/>
		<path class="st19" d="M2717.7,370h10.8c1.7,0,3.2,0.3,4.4,0.9c1.2,0.6,2.2,1.4,2.8,2.4c0.6,1,1,2.2,1,3.5c0,1.3-0.3,2.4-0.9,3.3
			c-0.6,0.8-1.4,1.4-2.4,1.8c-1,0.4-2,0.6-3.2,0.7v1.5c1.2,0,2.2,0.2,3,0.5c0.7,0.3,1.3,0.8,1.7,1.5c0.4,0.7,0.7,1.6,1,2.8l1.3,6.3
			h-3.9l-1-6c-0.2-1.1-0.5-1.9-1-2.6c-0.4-0.6-1-1.1-1.8-1.4c-0.8-0.3-1.7-0.4-2.9-0.4h-5.6v-3.2h7c1.5,0,2.6-0.3,3.5-1
			c0.9-0.7,1.4-1.7,1.4-3.1c0-1.4-0.4-2.4-1.3-3.1c-0.9-0.7-2.1-1-3.6-1h-7.1l0.5-0.5v22.4h-3.6V370z"/>
		<path class="st19" d="M2748.7,370h5l9.3,25.2h-4l-5.9-16.8c-0.4-1.2-0.7-2.1-0.9-3c-0.2-0.8-0.3-1.8-0.3-2.9h-1.5
			c0,1.1-0.1,2.1-0.3,3c-0.2,0.9-0.5,1.8-0.9,2.9l-6,16.8h-3.9L2748.7,370z M2745.5,385.2h11.2l1.2,3.3h-13.5L2745.5,385.2z"/>
		<path class="st19" d="M2764.2,380.4h10.4v3.5h-10.4V380.4z"/>
		<path class="st19" d="M2782.2,394.7c-1.3-0.6-2.3-1.5-3-2.5c-0.7-1.1-1-2.2-1-3.6c0-1.2,0.3-2.2,0.8-3c0.5-0.8,1.3-1.5,2.3-2
			c1-0.5,2.1-0.7,3.3-0.8v-1.5c-1.7-0.1-3-0.6-4.1-1.5s-1.6-2.2-1.6-3.8c0-1.2,0.3-2.4,1-3.4s1.6-1.8,2.9-2.4
			c1.2-0.6,2.7-0.8,4.3-0.8c1.6,0,3.1,0.3,4.3,0.8c1.2,0.6,2.2,1.4,2.9,2.4c0.7,1,1,2.1,1,3.4c0,1.6-0.5,2.9-1.5,3.8
			s-2.4,1.4-4.1,1.5v1.5c1.9,0.1,3.4,0.7,4.6,1.7c1.2,1,1.7,2.4,1.7,4.1c0,1.3-0.3,2.5-1,3.6c-0.7,1.1-1.7,1.9-3,2.5
			c-1.3,0.6-2.9,0.9-4.8,0.9C2785.1,395.7,2783.5,395.3,2782.2,394.7z M2789.8,392c0.8-0.4,1.4-0.9,1.8-1.5s0.6-1.4,0.6-2.3
			c0-0.9-0.2-1.6-0.6-2.3c-0.4-0.7-1-1.2-1.8-1.5c-0.8-0.4-1.7-0.5-2.7-0.5c-0.9,0-1.7,0.2-2.5,0.5c-0.8,0.4-1.4,0.9-1.9,1.5
			c-0.5,0.7-0.7,1.4-0.7,2.3c0,1.3,0.5,2.4,1.4,3.2s2.2,1.2,3.7,1.2C2788.1,392.5,2789,392.3,2789.8,392z M2789.4,380
			c0.7-0.3,1.2-0.8,1.7-1.4c0.4-0.6,0.6-1.3,0.6-2.2c0-1.1-0.4-2.1-1.3-2.8c-0.9-0.7-2-1.1-3.3-1.1c-0.9,0-1.7,0.2-2.4,0.5
			c-0.7,0.3-1.2,0.8-1.6,1.4c-0.4,0.6-0.6,1.3-0.6,2c0,1.2,0.4,2.2,1.3,3c0.9,0.7,2,1.1,3.3,1.1
			C2787.9,380.5,2788.7,380.3,2789.4,380z"/>
		<path class="st19" d="M2804.8,394.1c-1.5-1-2.7-2.5-3.5-4.5c-0.8-2-1.3-4.4-1.3-7.2c0-2.8,0.4-5.2,1.3-7.1c0.9-2,2.1-3.4,3.6-4.4
			c1.5-1,3.2-1.5,5.1-1.5c1.9,0,3.6,0.5,5.1,1.5c1.5,1,2.7,2.5,3.6,4.4c0.9,2,1.3,4.3,1.3,7.1c0,2.8-0.4,5.2-1.3,7.2
			c-0.8,2-2,3.5-3.5,4.5c-1.5,1-3.3,1.5-5.3,1.5S2806.3,395.2,2804.8,394.1z M2813.4,391.3c0.9-0.8,1.7-1.9,2.2-3.4s0.8-3.3,0.8-5.5
			c0-2-0.3-3.7-0.8-5.2c-0.5-1.5-1.2-2.6-2.2-3.4c-0.9-0.8-2-1.2-3.3-1.2c-1.3,0-2.4,0.4-3.3,1.2c-1,0.8-1.7,1.9-2.2,3.4
			c-0.5,1.5-0.8,3.2-0.8,5.2c0,2.1,0.3,3.9,0.8,5.4c0.5,1.5,1.2,2.6,2.2,3.4c0.9,0.8,2.1,1.2,3.4,1.2
			C2811.4,392.5,2812.5,392.1,2813.4,391.3z"/>
	</g>
	<g>
		<path class="st19" d="M2629.8,475h3.6v25.2h-3.6V475z"/>
		<path class="st19" d="M2640.2,475h5.5l13.2,20.8l1.3-0.9c-0.5-0.7-0.8-1.4-1-2c-0.2-0.6-0.4-1.2-0.5-1.9c-0.1-0.7-0.1-1.6-0.1-2.7
			V475h3.6v25.2h-4.5l-14.1-22.2l-1.3,0.8c0.5,1.1,0.9,2.1,1.2,3.2c0.2,1.1,0.4,2.5,0.4,4.1v14h-3.6V475z"/>
		<path class="st19" d="M2669,475h6l5.6,14.4c0.4,1.1,0.7,2.1,0.8,3.1s0.2,2.2,0.3,3.6h1.5c0-1.4,0.1-2.6,0.3-3.5
			c0.2-0.9,0.4-2,0.9-3.1l5.5-14.4h5.9v25.2h-3.6v-13.1c0-1.8,0.2-3.4,0.5-4.9c0.3-1.5,0.7-2.9,1.3-4.2l-1.5-0.6l-8.7,22.7h-2.6
			l-8.9-22.7l-1.5,0.6c0.5,1.2,1,2.6,1.3,4.1c0.3,1.5,0.5,3.1,0.5,4.9v13.1h-3.6V475z"/>
		<path class="st19" d="M2701.6,485.4h10.4v3.5h-10.4V485.4z"/>
		<path class="st19" d="M2717.7,475h10.8c1.7,0,3.2,0.3,4.4,0.9c1.2,0.6,2.2,1.4,2.8,2.4c0.6,1,1,2.2,1,3.5c0,1.3-0.3,2.4-0.9,3.3
			c-0.6,0.8-1.4,1.4-2.4,1.8c-1,0.4-2,0.6-3.2,0.7v1.5c1.2,0,2.2,0.2,3,0.5c0.7,0.3,1.3,0.8,1.7,1.5c0.4,0.7,0.7,1.6,1,2.8l1.3,6.3
			h-3.9l-1-6c-0.2-1.1-0.5-1.9-1-2.6c-0.4-0.6-1-1.1-1.8-1.4c-0.8-0.3-1.7-0.4-2.9-0.4h-5.6v-3.2h7c1.5,0,2.6-0.3,3.5-1
			c0.9-0.7,1.4-1.7,1.4-3.1c0-1.4-0.4-2.4-1.3-3.1c-0.9-0.7-2.1-1-3.6-1h-7.1l0.5-0.5v22.4h-3.6V475z"/>
		<path class="st19" d="M2748.7,475h5l9.3,25.2h-4l-5.9-16.8c-0.4-1.2-0.7-2.1-0.9-3c-0.2-0.8-0.3-1.8-0.3-2.9h-1.5
			c0,1.1-0.1,2.1-0.3,3c-0.2,0.9-0.5,1.8-0.9,2.9l-6,16.8h-3.9L2748.7,475z M2745.5,490.2h11.2l1.2,3.3h-13.5L2745.5,490.2z"/>
		<path class="st19" d="M2764.2,485.4h10.4v3.5h-10.4V485.4z"/>
		<path class="st19" d="M2784.8,481c0.1-0.6,0.3-1.2,0.5-1.8h-1.6c-0.3,0.9-0.8,1.8-1.3,2.5c-0.6,0.7-1.2,1.3-2,1.7
			c-0.8,0.4-1.6,0.7-2.5,0.8v-3.7c1.6-0.4,3-1,4.3-1.9c1.3-0.9,2.3-2.1,3.1-3.6h2.9v25.2h-3.6v-17
			C2784.6,482.3,2784.7,481.6,2784.8,481z"/>
		<path class="st19" d="M2798.5,499.1c-1.5-1-2.7-2.5-3.5-4.5c-0.8-2-1.3-4.4-1.3-7.2c0-2.8,0.4-5.2,1.3-7.1c0.9-2,2.1-3.4,3.6-4.4
			c1.5-1,3.2-1.5,5.1-1.5c1.9,0,3.6,0.5,5.1,1.5c1.5,1,2.7,2.5,3.6,4.4c0.9,2,1.3,4.3,1.3,7.1c0,2.8-0.4,5.2-1.3,7.2
			c-0.8,2-2,3.5-3.5,4.5c-1.5,1-3.3,1.5-5.3,1.5S2800,500.2,2798.5,499.1z M2807.2,496.3c0.9-0.8,1.7-1.9,2.2-3.4s0.8-3.3,0.8-5.5
			c0-2-0.3-3.7-0.8-5.2c-0.5-1.5-1.2-2.6-2.2-3.4c-0.9-0.8-2-1.2-3.3-1.2c-1.3,0-2.4,0.4-3.3,1.2c-1,0.8-1.7,1.9-2.2,3.4
			c-0.5,1.5-0.8,3.2-0.8,5.2c0,2.1,0.3,3.9,0.8,5.4c0.5,1.5,1.2,2.6,2.2,3.4c0.9,0.8,2.1,1.2,3.4,1.2
			C2805.1,497.5,2806.2,497.1,2807.2,496.3z"/>
		<path class="st19" d="M2822.7,499.1c-1.5-1-2.7-2.5-3.5-4.5c-0.8-2-1.3-4.4-1.3-7.2c0-2.8,0.4-5.2,1.3-7.1c0.9-2,2.1-3.4,3.6-4.4
			c1.5-1,3.2-1.5,5.1-1.5c1.9,0,3.6,0.5,5.1,1.5c1.5,1,2.7,2.5,3.6,4.4c0.9,2,1.3,4.3,1.3,7.1c0,2.8-0.4,5.2-1.3,7.2
			c-0.8,2-2,3.5-3.5,4.5c-1.5,1-3.3,1.5-5.3,1.5C2826,500.7,2824.2,500.2,2822.7,499.1z M2831.4,496.3c0.9-0.8,1.7-1.9,2.2-3.4
			s0.8-3.3,0.8-5.5c0-2-0.3-3.7-0.8-5.2s-1.2-2.6-2.2-3.4c-0.9-0.8-2-1.2-3.3-1.2c-1.3,0-2.4,0.4-3.3,1.2s-1.7,1.9-2.2,3.4
			c-0.5,1.5-0.8,3.2-0.8,5.2c0,2.1,0.3,3.9,0.8,5.4c0.5,1.5,1.2,2.6,2.2,3.4c0.9,0.8,2.1,1.2,3.4,1.2
			C2829.3,497.5,2830.4,497.1,2831.4,496.3z"/>
	</g>
	<g>
		<path class="st19" d="M2629.8,570h3.6v25.2h-3.6V570z"/>
		<path class="st19" d="M2640.2,570h5.5l13.2,20.8l1.3-0.9c-0.5-0.7-0.8-1.4-1-2c-0.2-0.6-0.4-1.2-0.5-1.9c-0.1-0.7-0.1-1.6-0.1-2.7
			V570h3.6v25.2h-4.5l-14.1-22.2l-1.3,0.8c0.5,1.1,0.9,2.1,1.2,3.2c0.2,1.1,0.4,2.5,0.4,4.1v14h-3.6V570z"/>
		<path class="st19" d="M2669,570h6l5.6,14.4c0.4,1.1,0.7,2.1,0.8,3.1s0.2,2.2,0.3,3.6h1.5c0-1.4,0.1-2.6,0.3-3.5
			c0.2-0.9,0.4-2,0.9-3.1l5.5-14.4h5.9v25.2h-3.6v-13.1c0-1.8,0.2-3.4,0.5-4.9c0.3-1.5,0.7-2.9,1.3-4.2l-1.5-0.6l-8.7,22.7h-2.6
			l-8.9-22.7l-1.5,0.6c0.5,1.2,1,2.6,1.3,4.1c0.3,1.5,0.5,3.1,0.5,4.9v13.1h-3.6V570z"/>
		<path class="st19" d="M2701.6,580.4h10.4v3.5h-10.4V580.4z"/>
		<path class="st19" d="M2717.7,570h10.8c1.7,0,3.2,0.3,4.4,0.9c1.2,0.6,2.2,1.4,2.8,2.4c0.6,1,1,2.2,1,3.5c0,1.3-0.3,2.4-0.9,3.3
			c-0.6,0.8-1.4,1.4-2.4,1.8c-1,0.4-2,0.6-3.2,0.7v1.5c1.2,0,2.2,0.2,3,0.5c0.7,0.3,1.3,0.8,1.7,1.5c0.4,0.7,0.7,1.6,1,2.8l1.3,6.3
			h-3.9l-1-6c-0.2-1.1-0.5-1.9-1-2.6c-0.4-0.6-1-1.1-1.8-1.4c-0.8-0.3-1.7-0.4-2.9-0.4h-5.6v-3.2h7c1.5,0,2.6-0.3,3.5-1
			c0.9-0.7,1.4-1.7,1.4-3.1c0-1.4-0.4-2.4-1.3-3.1c-0.9-0.7-2.1-1-3.6-1h-7.1l0.5-0.5v22.4h-3.6V570z"/>
		<path class="st19" d="M2748.7,570h5l9.3,25.2h-4l-5.9-16.8c-0.4-1.2-0.7-2.1-0.9-3c-0.2-0.8-0.3-1.8-0.3-2.9h-1.5
			c0,1.1-0.1,2.1-0.3,3c-0.2,0.9-0.5,1.8-0.9,2.9l-6,16.8h-3.9L2748.7,570z M2745.5,585.2h11.2l1.2,3.3h-13.5L2745.5,585.2z"/>
		<path class="st19" d="M2764.2,580.4h10.4v3.5h-10.4V580.4z"/>
		<path class="st19" d="M2784.8,576c0.1-0.6,0.3-1.2,0.5-1.8h-1.6c-0.3,0.9-0.8,1.8-1.3,2.5c-0.6,0.7-1.2,1.3-2,1.7
			c-0.8,0.4-1.6,0.7-2.5,0.8v-3.7c1.6-0.4,3-1,4.3-1.9c1.3-0.9,2.3-2.1,3.1-3.6h2.9v25.2h-3.6v-17
			C2784.6,577.3,2784.7,576.6,2784.8,576z"/>
		<path class="st19" d="M2796.4,593.9c-1.6-1.2-2.6-2.7-3-4.6l3.6-1.2c0.3,1.4,1,2.5,1.9,3.2s2.1,1.2,3.5,1.2c1.1,0,2-0.2,2.7-0.6
			c0.8-0.4,1.4-1,1.8-1.8c0.4-0.8,0.6-1.7,0.6-2.7c0-1-0.2-1.9-0.6-2.7c-0.4-0.8-1-1.4-1.8-1.8c-0.8-0.4-1.7-0.6-2.7-0.6
			c-1.1,0-2.1,0.3-3,0.8c-0.9,0.5-1.5,1.2-1.9,1.9l-3.6-0.6l2.2-14.4h14.5v3.3h-11.9l-0.6,4c-0.2,1.5-0.5,2.6-0.8,3.3
			c-0.3,0.7-0.7,1.4-1.2,2.1h1.8c0.5-1,1.2-1.8,2.1-2.4c0.9-0.7,2-1,3.5-1c1.5,0,2.9,0.3,4.1,1c1.2,0.6,2.1,1.6,2.8,2.8
			c0.6,1.2,1,2.6,1,4.3c0,1.7-0.4,3.1-1.1,4.4c-0.7,1.3-1.7,2.2-3,3c-1.3,0.7-2.8,1.1-4.6,1.1C2800.1,595.7,2798,595.1,2796.4,593.9
			z"/>
		<path class="st19" d="M2820,594.1c-1.5-1-2.7-2.5-3.5-4.5c-0.8-2-1.3-4.4-1.3-7.2c0-2.8,0.5-5.2,1.4-7.1c0.9-2,2.1-3.4,3.6-4.4
			c1.5-1,3.2-1.5,5.1-1.5c1.9,0,3.6,0.5,5.1,1.5c1.5,1,2.7,2.5,3.6,4.4c0.9,2,1.3,4.3,1.3,7.1c0,2.8-0.4,5.2-1.3,7.2
			c-0.8,2-2,3.5-3.5,4.5c-1.5,1-3.3,1.5-5.3,1.5C2823.3,595.7,2821.5,595.2,2820,594.1z M2828.6,591.3c0.9-0.8,1.7-1.9,2.2-3.4
			s0.8-3.3,0.8-5.5c0-2-0.3-3.7-0.8-5.2c-0.5-1.5-1.2-2.6-2.2-3.4c-0.9-0.8-2-1.2-3.3-1.2c-1.3,0-2.4,0.4-3.3,1.2s-1.7,1.9-2.2,3.4
			c-0.5,1.5-0.8,3.2-0.8,5.2c0,2.1,0.3,3.9,0.8,5.4c0.5,1.5,1.2,2.6,2.2,3.4c0.9,0.8,2.1,1.2,3.4,1.2
			C2826.6,592.5,2827.7,592.1,2828.6,591.3z"/>
	</g>
	<g>
		<path class="st19" d="M2629.8,675h3.6v25.2h-3.6V675z"/>
		<path class="st19" d="M2640.2,675h5.5l13.2,20.8l1.3-0.9c-0.5-0.7-0.8-1.4-1-2c-0.2-0.6-0.4-1.2-0.5-1.9c-0.1-0.7-0.1-1.6-0.1-2.7
			V675h3.6v25.2h-4.5l-14.1-22.2l-1.3,0.8c0.5,1.1,0.9,2.1,1.2,3.2c0.2,1.1,0.4,2.5,0.4,4.1v14h-3.6V675z"/>
		<path class="st19" d="M2669,675h6l5.6,14.4c0.4,1.1,0.7,2.1,0.8,3.1s0.2,2.2,0.3,3.6h1.5c0-1.4,0.1-2.6,0.3-3.5
			c0.2-0.9,0.4-2,0.9-3.1l5.5-14.4h5.9v25.2h-3.6v-13.1c0-1.8,0.2-3.4,0.5-4.9c0.3-1.5,0.7-2.9,1.3-4.2l-1.5-0.6l-8.7,22.7h-2.6
			l-8.9-22.7l-1.5,0.6c0.5,1.2,1,2.6,1.3,4.1c0.3,1.5,0.5,3.1,0.5,4.9v13.1h-3.6V675z"/>
		<path class="st19" d="M2701.6,685.4h10.4v3.5h-10.4V685.4z"/>
		<path class="st19" d="M2722.2,699c-1.9-1.1-3.4-2.6-4.5-4.6s-1.6-4.3-1.6-6.8c0-2.6,0.6-4.8,1.7-6.8s2.6-3.5,4.5-4.6
			c1.9-1.1,4.1-1.7,6.5-1.7c2.4,0,4.6,0.6,6.5,1.7s3.4,2.6,4.5,4.6s1.6,4.3,1.6,6.8c0,2.6-0.5,4.8-1.6,6.8s-2.6,3.5-4.5,4.6
			c-1.9,1.1-4.1,1.6-6.5,1.6C2726.3,700.7,2724.2,700.1,2722.2,699z M2733.4,696.1c1.3-0.9,2.3-2,3-3.5c0.7-1.5,1.1-3.2,1.1-5
			s-0.4-3.6-1.1-5c-0.7-1.5-1.7-2.7-3-3.5c-1.3-0.9-2.9-1.3-4.7-1.3c-1.8,0-3.4,0.4-4.7,1.3c-1.3,0.9-2.3,2-3,3.5
			c-0.7,1.5-1.1,3.2-1.1,5s0.4,3.6,1.1,5c0.7,1.5,1.7,2.7,3,3.5c1.3,0.9,2.9,1.3,4.7,1.3C2730.5,697.4,2732.1,697,2733.4,696.1z"/>
		<path class="st19" d="M2752.4,675h5l9.3,25.2h-4l-5.9-16.8c-0.4-1.2-0.7-2.1-0.9-3c-0.2-0.8-0.3-1.8-0.3-2.9h-1.5
			c0,1.1-0.1,2.1-0.3,3c-0.2,0.9-0.5,1.8-0.9,2.9l-6,16.8h-3.9L2752.4,675z M2749.2,690.2h11.2l1.2,3.3H2748L2749.2,690.2z"/>
		<path class="st19" d="M2767.8,685.4h10.4v3.5h-10.4V685.4z"/>
		<path class="st19" d="M2788.5,681c0.1-0.6,0.3-1.2,0.5-1.8h-1.6c-0.3,0.9-0.8,1.8-1.3,2.5c-0.6,0.7-1.2,1.3-2,1.7
			c-0.8,0.4-1.6,0.7-2.5,0.8v-3.7c1.6-0.4,3-1,4.3-1.9s2.3-2.1,3.1-3.6h2.9v25.2h-3.6v-17C2788.3,682.3,2788.4,681.6,2788.5,681z"/>
		<path class="st19" d="M2800.1,698.9c-1.6-1.2-2.6-2.7-3-4.6l3.6-1.2c0.3,1.4,1,2.5,1.9,3.2c1,0.8,2.1,1.2,3.5,1.2
			c1.1,0,2-0.2,2.7-0.6c0.8-0.4,1.4-1,1.8-1.8c0.4-0.8,0.6-1.7,0.6-2.7c0-1-0.2-1.9-0.6-2.7c-0.4-0.8-1-1.4-1.8-1.8
			c-0.8-0.4-1.7-0.6-2.7-0.6c-1.1,0-2.1,0.3-3,0.8c-0.9,0.5-1.5,1.2-1.9,1.9l-3.6-0.6l2.2-14.4h14.5v3.3h-11.9l-0.6,4
			c-0.2,1.5-0.5,2.6-0.8,3.3c-0.3,0.7-0.7,1.4-1.2,2.1h1.8c0.5-1,1.2-1.8,2.1-2.4c0.9-0.7,2-1,3.5-1c1.5,0,2.9,0.3,4.1,1
			s2.1,1.6,2.8,2.8s1,2.6,1,4.3c0,1.7-0.4,3.1-1.1,4.4c-0.7,1.3-1.7,2.2-3,3s-2.8,1.1-4.6,1.1
			C2803.8,700.7,2801.7,700.1,2800.1,698.9z"/>
		<path class="st19" d="M2823.7,699.1c-1.5-1-2.7-2.5-3.5-4.5c-0.8-2-1.3-4.4-1.3-7.2c0-2.8,0.5-5.2,1.4-7.1c0.9-2,2.1-3.4,3.6-4.4
			c1.5-1,3.2-1.5,5.1-1.5c1.9,0,3.6,0.5,5.1,1.5c1.5,1,2.7,2.5,3.6,4.4c0.9,2,1.3,4.3,1.3,7.1c0,2.8-0.4,5.2-1.3,7.2
			c-0.8,2-2,3.5-3.5,4.5c-1.5,1-3.3,1.5-5.3,1.5C2826.9,700.7,2825.2,700.2,2823.7,699.1z M2832.3,696.3c0.9-0.8,1.7-1.9,2.2-3.4
			s0.8-3.3,0.8-5.5c0-2-0.3-3.7-0.8-5.2c-0.5-1.5-1.2-2.6-2.2-3.4c-0.9-0.8-2-1.2-3.3-1.2c-1.3,0-2.4,0.4-3.3,1.2s-1.7,1.9-2.2,3.4
			c-0.5,1.5-0.8,3.2-0.8,5.2c0,2.1,0.3,3.9,0.8,5.4c0.5,1.5,1.2,2.6,2.2,3.4c0.9,0.8,2.1,1.2,3.4,1.2
			C2830.3,697.5,2831.4,697.1,2832.3,696.3z"/>
	</g>
	<g>
		<path class="st19" d="M2629.8,780h3.6v25.2h-3.6V780z"/>
		<path class="st19" d="M2640.2,780h5.5l13.2,20.8l1.3-0.9c-0.5-0.7-0.8-1.4-1-2c-0.2-0.6-0.4-1.2-0.5-1.9c-0.1-0.7-0.1-1.6-0.1-2.7
			V780h3.6v25.2h-4.5l-14.1-22.2l-1.3,0.8c0.5,1.1,0.9,2.1,1.2,3.2c0.2,1.1,0.4,2.5,0.4,4.1v14h-3.6V780z"/>
		<path class="st19" d="M2669,780h6l5.6,14.4c0.4,1.1,0.7,2.1,0.8,3.1s0.2,2.2,0.3,3.6h1.5c0-1.4,0.1-2.6,0.3-3.5
			c0.2-0.9,0.4-2,0.9-3.1l5.5-14.4h5.9v25.2h-3.6v-13.1c0-1.8,0.2-3.4,0.5-4.9c0.3-1.5,0.7-2.9,1.3-4.2l-1.5-0.6l-8.7,22.7h-2.6
			l-8.9-22.7l-1.5,0.6c0.5,1.2,1,2.6,1.3,4.1c0.3,1.5,0.5,3.1,0.5,4.9v13.1h-3.6V780z"/>
		<path class="st19" d="M2701.6,790.4h10.4v3.5h-10.4V790.4z"/>
		<path class="st19" d="M2722.2,804c-1.9-1.1-3.4-2.6-4.5-4.6s-1.6-4.3-1.6-6.8c0-2.6,0.6-4.8,1.7-6.8s2.6-3.5,4.5-4.6
			c1.9-1.1,4.1-1.7,6.5-1.7c2.4,0,4.6,0.6,6.5,1.7s3.4,2.6,4.5,4.6s1.6,4.3,1.6,6.8c0,2.6-0.5,4.8-1.6,6.8s-2.6,3.5-4.5,4.6
			c-1.9,1.1-4.1,1.6-6.5,1.6C2726.3,805.7,2724.2,805.1,2722.2,804z M2733.4,801.1c1.3-0.9,2.3-2,3-3.5c0.7-1.5,1.1-3.2,1.1-5
			s-0.4-3.6-1.1-5c-0.7-1.5-1.7-2.7-3-3.5c-1.3-0.9-2.9-1.3-4.7-1.3c-1.8,0-3.4,0.4-4.7,1.3c-1.3,0.9-2.3,2-3,3.5
			c-0.7,1.5-1.1,3.2-1.1,5s0.4,3.6,1.1,5c0.7,1.5,1.7,2.7,3,3.5c1.3,0.9,2.9,1.3,4.7,1.3C2730.5,802.4,2732.1,802,2733.4,801.1z"/>
		<path class="st19" d="M2752.4,780h5l9.3,25.2h-4l-5.9-16.8c-0.4-1.2-0.7-2.1-0.9-3c-0.2-0.8-0.3-1.8-0.3-2.9h-1.5
			c0,1.1-0.1,2.1-0.3,3c-0.2,0.9-0.5,1.8-0.9,2.9l-6,16.8h-3.9L2752.4,780z M2749.2,795.2h11.2l1.2,3.3H2748L2749.2,795.2z"/>
		<path class="st19" d="M2767.8,790.4h10.4v3.5h-10.4V790.4z"/>
		<path class="st19" d="M2788.5,786c0.1-0.6,0.3-1.2,0.5-1.8h-1.6c-0.3,0.9-0.8,1.8-1.3,2.5c-0.6,0.7-1.2,1.3-2,1.7
			c-0.8,0.4-1.6,0.7-2.5,0.8v-3.7c1.6-0.4,3-1,4.3-1.9s2.3-2.1,3.1-3.6h2.9v25.2h-3.6v-17C2788.3,787.3,2788.4,786.6,2788.5,786z"/>
		<path class="st19" d="M2802.2,804.1c-1.5-1-2.7-2.5-3.5-4.5c-0.8-2-1.3-4.4-1.3-7.2c0-2.8,0.4-5.2,1.3-7.1c0.9-2,2.1-3.4,3.6-4.4
			c1.5-1,3.2-1.5,5.1-1.5c1.9,0,3.6,0.5,5.1,1.5c1.5,1,2.7,2.5,3.6,4.4c0.9,2,1.3,4.3,1.3,7.1c0,2.8-0.4,5.2-1.3,7.2
			c-0.8,2-2,3.5-3.5,4.5c-1.5,1-3.3,1.5-5.3,1.5C2805.5,805.7,2803.7,805.2,2802.2,804.1z M2810.9,801.3c0.9-0.8,1.7-1.9,2.2-3.4
			s0.8-3.3,0.8-5.5c0-2-0.3-3.7-0.8-5.2s-1.2-2.6-2.2-3.4c-0.9-0.8-2-1.2-3.3-1.2c-1.3,0-2.4,0.4-3.3,1.2s-1.7,1.9-2.2,3.4
			c-0.5,1.5-0.8,3.2-0.8,5.2c0,2.1,0.3,3.9,0.8,5.4c0.5,1.5,1.2,2.6,2.2,3.4c0.9,0.8,2.1,1.2,3.4,1.2
			C2808.8,802.5,2809.9,802.1,2810.9,801.3z"/>
		<path class="st19" d="M2826.4,804.1c-1.5-1-2.7-2.5-3.5-4.5c-0.8-2-1.3-4.4-1.3-7.2c0-2.8,0.5-5.2,1.4-7.1c0.9-2,2.1-3.4,3.6-4.4
			c1.5-1,3.2-1.5,5.1-1.5c1.9,0,3.6,0.5,5.1,1.5c1.5,1,2.7,2.5,3.6,4.4c0.9,2,1.3,4.3,1.3,7.1c0,2.8-0.4,5.2-1.3,7.2
			c-0.8,2-2,3.5-3.5,4.5c-1.5,1-3.3,1.5-5.3,1.5C2829.7,805.7,2827.9,805.2,2826.4,804.1z M2835,801.3c0.9-0.8,1.7-1.9,2.2-3.4
			s0.8-3.3,0.8-5.5c0-2-0.3-3.7-0.8-5.2c-0.5-1.5-1.2-2.6-2.2-3.4c-0.9-0.8-2-1.2-3.3-1.2c-1.3,0-2.4,0.4-3.3,1.2s-1.7,1.9-2.2,3.4
			c-0.5,1.5-0.8,3.2-0.8,5.2c0,2.1,0.3,3.9,0.8,5.4c0.5,1.5,1.2,2.6,2.2,3.4c0.9,0.8,2.1,1.2,3.4,1.2
			C2833,802.5,2834.1,802.1,2835,801.3z"/>
	</g>
	<g>
		<path class="st19" d="M2629.8,875h3.6v25.2h-3.6V875z"/>
		<path class="st19" d="M2640.2,875h5.5l13.2,20.8l1.3-0.9c-0.5-0.7-0.8-1.4-1-2c-0.2-0.6-0.4-1.2-0.5-1.9c-0.1-0.7-0.1-1.6-0.1-2.7
			V875h3.6v25.2h-4.5l-14.1-22.2l-1.3,0.8c0.5,1.1,0.9,2.1,1.2,3.2c0.2,1.1,0.4,2.5,0.4,4.1v14h-3.6V875z"/>
		<path class="st19" d="M2669,875h6l5.6,14.4c0.4,1.1,0.7,2.1,0.8,3.1s0.2,2.2,0.3,3.6h1.5c0-1.4,0.1-2.6,0.3-3.5
			c0.2-0.9,0.4-2,0.9-3.1l5.5-14.4h5.9v25.2h-3.6v-13.1c0-1.8,0.2-3.4,0.5-4.9c0.3-1.5,0.7-2.9,1.3-4.2l-1.5-0.6l-8.7,22.7h-2.6
			l-8.9-22.7l-1.5,0.6c0.5,1.2,1,2.6,1.3,4.1c0.3,1.5,0.5,3.1,0.5,4.9v13.1h-3.6V875z"/>
		<path class="st19" d="M2701.6,885.4h10.4v3.5h-10.4V885.4z"/>
		<path class="st19" d="M2721.1,899.1c-1.5-1-2.7-2.5-3.5-4.5c-0.8-2-1.3-4.4-1.3-7.2c0-2.8,0.5-5.2,1.4-7.1c0.9-2,2.1-3.4,3.6-4.4
			c1.5-1,3.2-1.5,5.1-1.5c1.9,0,3.6,0.5,5.1,1.5c1.5,1,2.7,2.5,3.6,4.4c0.9,2,1.3,4.3,1.3,7.1c0,2.8-0.4,5.2-1.3,7.2
			c-0.8,2-2,3.5-3.5,4.5c-1.5,1-3.3,1.5-5.3,1.5S2722.6,900.2,2721.1,899.1z M2729.7,896.3c0.9-0.8,1.7-1.9,2.2-3.4s0.8-3.3,0.8-5.5
			c0-2-0.3-3.7-0.8-5.2c-0.5-1.5-1.2-2.6-2.2-3.4c-0.9-0.8-2-1.2-3.3-1.2c-1.3,0-2.4,0.4-3.3,1.2c-1,0.8-1.7,1.9-2.2,3.4
			c-0.5,1.5-0.8,3.2-0.8,5.2c0,2.1,0.3,3.9,0.8,5.4c0.5,1.5,1.2,2.6,2.2,3.4c0.9,0.8,2.1,1.2,3.4,1.2
			C2727.7,897.5,2728.8,897.1,2729.7,896.3z"/>
		<path class="st19" d="M2747.9,875h5l9.3,25.2h-4l-5.9-16.8c-0.4-1.2-0.7-2.1-0.9-3c-0.2-0.8-0.3-1.8-0.3-2.9h-1.5
			c0,1.1-0.1,2.1-0.3,3c-0.2,0.9-0.5,1.8-0.9,2.9l-6,16.8h-3.9L2747.9,875z M2744.6,890.2h11.2l1.2,3.3h-13.5L2744.6,890.2z"/>
		<path class="st19" d="M2763.3,885.4h10.4v3.5h-10.4V885.4z"/>
		<path class="st19" d="M2781.3,899.7c-1.3-0.6-2.3-1.5-3-2.5c-0.7-1.1-1-2.2-1-3.6c0-1.2,0.3-2.2,0.8-3c0.5-0.8,1.3-1.5,2.3-2
			c1-0.5,2.1-0.7,3.3-0.8v-1.5c-1.7-0.1-3-0.6-4.1-1.5c-1-0.9-1.6-2.2-1.6-3.8c0-1.2,0.3-2.4,1-3.4s1.6-1.8,2.9-2.4
			c1.2-0.6,2.7-0.8,4.3-0.8c1.6,0,3.1,0.3,4.3,0.8c1.2,0.6,2.2,1.4,2.9,2.4s1,2.1,1,3.4c0,1.6-0.5,2.9-1.5,3.8
			c-1,0.9-2.4,1.4-4.1,1.5v1.5c1.9,0.1,3.4,0.7,4.6,1.7c1.2,1,1.7,2.4,1.7,4.1c0,1.3-0.3,2.5-1,3.6c-0.7,1.1-1.7,1.9-3,2.5
			c-1.3,0.6-2.9,0.9-4.8,0.9C2784.3,900.7,2782.7,900.3,2781.3,899.7z M2788.9,897c0.8-0.4,1.4-0.9,1.8-1.5c0.4-0.6,0.6-1.4,0.6-2.3
			c0-0.9-0.2-1.6-0.6-2.3c-0.4-0.7-1-1.2-1.8-1.5c-0.8-0.4-1.7-0.5-2.7-0.5c-0.9,0-1.7,0.2-2.5,0.5c-0.8,0.4-1.4,0.9-1.9,1.5
			c-0.5,0.7-0.7,1.4-0.7,2.3c0,1.3,0.5,2.4,1.4,3.2s2.2,1.2,3.7,1.2C2787.2,897.5,2788.1,897.3,2788.9,897z M2788.5,885
			c0.7-0.3,1.2-0.8,1.7-1.4c0.4-0.6,0.6-1.3,0.6-2.2c0-1.1-0.4-2.1-1.3-2.8c-0.9-0.7-2-1.1-3.3-1.1c-0.9,0-1.7,0.2-2.4,0.5
			c-0.7,0.3-1.2,0.8-1.6,1.4c-0.4,0.6-0.6,1.3-0.6,2c0,1.2,0.4,2.2,1.3,3c0.9,0.7,2,1.1,3.3,1.1
			C2787.1,885.5,2787.8,885.3,2788.5,885z"/>
		<path class="st19" d="M2803.9,899.1c-1.5-1-2.7-2.5-3.5-4.5c-0.8-2-1.3-4.4-1.3-7.2c0-2.8,0.5-5.2,1.4-7.1c0.9-2,2.1-3.4,3.6-4.4
			c1.5-1,3.2-1.5,5.1-1.5c1.9,0,3.6,0.5,5.1,1.5c1.5,1,2.7,2.5,3.6,4.4c0.9,2,1.3,4.3,1.3,7.1c0,2.8-0.4,5.2-1.3,7.2
			c-0.8,2-2,3.5-3.5,4.5c-1.5,1-3.3,1.5-5.3,1.5S2805.4,900.2,2803.9,899.1z M2812.5,896.3c0.9-0.8,1.7-1.9,2.2-3.4s0.8-3.3,0.8-5.5
			c0-2-0.3-3.7-0.8-5.2c-0.5-1.5-1.2-2.6-2.2-3.4c-0.9-0.8-2-1.2-3.3-1.2c-1.3,0-2.4,0.4-3.3,1.2c-1,0.8-1.7,1.9-2.2,3.4
			c-0.5,1.5-0.8,3.2-0.8,5.2c0,2.1,0.3,3.9,0.8,5.4c0.5,1.5,1.2,2.6,2.2,3.4c0.9,0.8,2.1,1.2,3.4,1.2
			C2810.5,897.5,2811.6,897.1,2812.5,896.3z"/>
	</g>
	<g>
		<path class="st19" d="M188.4,426h3.6v25.2h-3.6V426z"/>
		<path class="st19" d="M198.9,426h5.5l13.2,20.8l1.3-0.9c-0.5-0.7-0.8-1.4-1-2c-0.2-0.6-0.4-1.2-0.5-1.9c-0.1-0.7-0.1-1.6-0.1-2.7
			V426h3.6v25.2h-4.5L202.2,429l-1.3,0.8c0.5,1.1,0.9,2.1,1.2,3.2c0.2,1.1,0.4,2.5,0.4,4.1v14h-3.6V426z"/>
		<path class="st19" d="M227.6,426h6l5.6,14.4c0.4,1.1,0.7,2.1,0.8,3.1c0.2,1,0.2,2.2,0.3,3.6h1.5c0-1.4,0.1-2.6,0.3-3.5
			c0.2-0.9,0.4-2,0.9-3.1l5.5-14.4h5.9v25.2h-3.6v-13.1c0-1.8,0.2-3.4,0.5-4.9c0.3-1.5,0.7-2.9,1.3-4.2l-1.5-0.6l-8.7,22.7h-2.6
			l-8.9-22.7l-1.5,0.6c0.5,1.2,1,2.6,1.3,4.1c0.3,1.5,0.5,3.1,0.5,4.9v13.1h-3.6V426z"/>
		<path class="st19" d="M260.2,436.4h10.4v3.5h-10.4V436.4z"/>
		<path class="st19" d="M276.3,426h8.8c2.4,0,4.5,0.5,6.3,1.5c1.8,1,3.3,2.5,4.3,4.4c1,1.9,1.5,4.1,1.5,6.6c0,2.6-0.5,4.9-1.5,6.8
			c-1,1.9-2.4,3.4-4.3,4.4c-1.9,1-4,1.5-6.5,1.5h-8.6V426z M279.6,447.8h4.8c2,0,3.7-0.4,5.1-1.1c1.4-0.7,2.4-1.8,3-3.1
			c0.7-1.4,1-3.1,1-5.2c0-1.9-0.3-3.5-1-4.9c-0.7-1.4-1.7-2.4-3-3.2c-1.3-0.8-3-1.1-4.9-1.1h-5.1l0.3-0.3v19.2L279.6,447.8z"/>
		<path class="st19" d="M306.5,450.1c-1.7-1.1-3.1-2.6-4-4.6s-1.4-4.3-1.4-6.9c0-2.5,0.6-4.8,1.7-6.8c1.1-2,2.7-3.5,4.6-4.7
			c1.9-1.1,4-1.7,6.4-1.7c2,0,3.8,0.4,5.4,1.1c1.5,0.7,2.8,1.6,3.8,2.8c1,1.1,1.7,2.4,2.2,3.7l-3.7,1.5c-0.4-1.2-1-2.2-1.7-3
			c-0.7-0.9-1.5-1.5-2.5-2c-1-0.5-2.2-0.7-3.6-0.7c-1.5,0-2.9,0.4-4.3,1.1c-1.3,0.7-2.4,1.9-3.2,3.3c-0.8,1.5-1.2,3.2-1.2,5.3
			c0,2,0.4,3.8,1.1,5.3c0.7,1.5,1.7,2.6,3,3.4c1.3,0.8,2.8,1.2,4.5,1.2c1.5,0,2.9-0.3,4-0.9s2-1.4,2.7-2.4c0.6-1,1-2,1.1-3h-8.7
			v-3.3h12.4v12.4h-3.5c0-0.9,0.1-1.8,0.4-2.7c0.3-0.9,0.6-1.8,1-2.6h-1.7c-0.5,1.4-1.5,2.8-2.8,4c-1.4,1.2-3.3,1.9-5.9,1.9
			C310.2,451.7,308.2,451.1,306.5,450.1z"/>
		<path class="st19" d="M329.6,436.4H340v3.5h-10.4V436.4z"/>
		<path class="st19" d="M349.1,450.1c-1.5-1-2.7-2.5-3.5-4.5c-0.8-2-1.3-4.4-1.3-7.2c0-2.8,0.4-5.2,1.4-7.1c0.9-2,2.1-3.4,3.6-4.4
			c1.5-1,3.2-1.5,5.1-1.5c1.9,0,3.6,0.5,5.1,1.5c1.5,1,2.7,2.5,3.6,4.4c0.9,2,1.3,4.3,1.3,7.1c0,2.8-0.4,5.2-1.3,7.2
			c-0.8,2-2,3.5-3.5,4.5c-1.5,1-3.3,1.5-5.3,1.5C352.4,451.7,350.6,451.2,349.1,450.1z M357.8,447.3c0.9-0.8,1.7-1.9,2.2-3.4
			s0.8-3.3,0.8-5.5c0-2-0.3-3.7-0.8-5.2c-0.5-1.5-1.2-2.6-2.2-3.4c-0.9-0.8-2-1.2-3.3-1.2c-1.3,0-2.4,0.4-3.3,1.2
			c-1,0.8-1.7,1.9-2.2,3.4c-0.5,1.5-0.8,3.2-0.8,5.2c0,2.1,0.3,3.9,0.8,5.4c0.5,1.5,1.2,2.6,2.2,3.4c0.9,0.8,2.1,1.2,3.4,1.2
			C355.7,448.5,356.8,448.1,357.8,447.3z"/>
	</g>
	<g>
		<path class="st19" d="M188.4,520h3.6v25.2h-3.6V520z"/>
		<path class="st19" d="M198.9,520h5.5l13.2,20.8l1.3-0.9c-0.5-0.7-0.8-1.4-1-2c-0.2-0.6-0.4-1.2-0.5-1.9c-0.1-0.7-0.1-1.6-0.1-2.7
			V520h3.6v25.2h-4.5L202.2,523l-1.3,0.8c0.5,1.1,0.9,2.1,1.2,3.2c0.2,1.1,0.4,2.5,0.4,4.1v14h-3.6V520z"/>
		<path class="st19" d="M227.6,520h6l5.6,14.4c0.4,1.1,0.7,2.1,0.8,3.1c0.2,1,0.2,2.2,0.3,3.6h1.5c0-1.4,0.1-2.6,0.3-3.5
			c0.2-0.9,0.4-2,0.9-3.1l5.5-14.4h5.9v25.2h-3.6v-13.1c0-1.8,0.2-3.4,0.5-4.9c0.3-1.5,0.7-2.9,1.3-4.2l-1.5-0.6l-8.7,22.7h-2.6
			l-8.9-22.7l-1.5,0.6c0.5,1.2,1,2.6,1.3,4.1c0.3,1.5,0.5,3.1,0.5,4.9v13.1h-3.6V520z"/>
		<path class="st19" d="M260.2,530.4h10.4v3.5h-10.4V530.4z"/>
		<path class="st19" d="M276.3,520h8.8c2.4,0,4.5,0.5,6.3,1.5c1.8,1,3.3,2.5,4.3,4.4c1,1.9,1.5,4.1,1.5,6.6c0,2.6-0.5,4.9-1.5,6.8
			c-1,1.9-2.4,3.4-4.3,4.4c-1.9,1-4,1.5-6.5,1.5h-8.6V520z M279.6,541.8h4.8c2,0,3.7-0.4,5.1-1.1c1.4-0.7,2.4-1.8,3-3.1
			c0.7-1.4,1-3.1,1-5.2c0-1.9-0.3-3.5-1-4.9c-0.7-1.4-1.7-2.4-3-3.2c-1.3-0.8-3-1.1-4.9-1.1h-5.1l0.3-0.3v19.2L279.6,541.8z"/>
		<path class="st19" d="M306.5,544.1c-1.7-1.1-3.1-2.6-4-4.6s-1.4-4.3-1.4-6.9c0-2.5,0.6-4.8,1.7-6.8c1.1-2,2.7-3.5,4.6-4.7
			c1.9-1.1,4-1.7,6.4-1.7c2,0,3.8,0.4,5.4,1.1c1.5,0.7,2.8,1.6,3.8,2.8c1,1.1,1.7,2.4,2.2,3.7l-3.7,1.5c-0.4-1.2-1-2.2-1.7-3
			c-0.7-0.9-1.5-1.5-2.5-2c-1-0.5-2.2-0.7-3.6-0.7c-1.5,0-2.9,0.4-4.3,1.1c-1.3,0.7-2.4,1.9-3.2,3.3c-0.8,1.5-1.2,3.2-1.2,5.3
			c0,2,0.4,3.8,1.1,5.3c0.7,1.5,1.7,2.6,3,3.4c1.3,0.8,2.8,1.2,4.5,1.2c1.5,0,2.9-0.3,4-0.9s2-1.4,2.7-2.4c0.6-1,1-2,1.1-3h-8.7
			v-3.3h12.4v12.4h-3.5c0-0.9,0.1-1.8,0.4-2.7c0.3-0.9,0.6-1.8,1-2.6h-1.7c-0.5,1.4-1.5,2.8-2.8,4c-1.4,1.2-3.3,1.9-5.9,1.9
			C310.2,545.7,308.2,545.1,306.5,544.1z"/>
		<path class="st19" d="M329.6,530.4H340v3.5h-10.4V530.4z"/>
		<path class="st19" d="M347,543.9c-1.6-1.2-2.6-2.7-3-4.6l3.6-1.2c0.3,1.4,1,2.5,1.9,3.2c1,0.8,2.1,1.2,3.5,1.2
			c1.1,0,2-0.2,2.7-0.6c0.8-0.4,1.4-1,1.8-1.8c0.4-0.8,0.6-1.7,0.6-2.7c0-1-0.2-1.9-0.6-2.7c-0.4-0.8-1-1.4-1.8-1.8
			c-0.8-0.4-1.7-0.6-2.7-0.6c-1.1,0-2.1,0.3-3,0.8c-0.9,0.5-1.5,1.2-1.9,1.9l-3.6-0.6l2.2-14.4h14.5v3.3h-11.9l-0.6,4
			c-0.2,1.5-0.5,2.6-0.8,3.3c-0.3,0.7-0.7,1.4-1.2,2.1h1.8c0.5-1,1.2-1.8,2.1-2.4c0.9-0.7,2-1,3.5-1c1.5,0,2.9,0.3,4.1,1
			s2.1,1.6,2.8,2.8s1,2.6,1,4.3c0,1.7-0.4,3.1-1.1,4.4c-0.7,1.3-1.7,2.2-3,3c-1.3,0.7-2.8,1.1-4.6,1.1
			C350.7,545.7,348.6,545.1,347,543.9z"/>
	</g>
	<g>
		<path class="st19" d="M188.4,612h3.6v25.2h-3.6V612z"/>
		<path class="st19" d="M198.9,612h5.5l13.2,20.8l1.3-0.9c-0.5-0.7-0.8-1.4-1-2c-0.2-0.6-0.4-1.2-0.5-1.9c-0.1-0.7-0.1-1.6-0.1-2.7
			V612h3.6v25.2h-4.5L202.2,615l-1.3,0.8c0.5,1.1,0.9,2.1,1.2,3.2c0.2,1.1,0.4,2.5,0.4,4.1v14h-3.6V612z"/>
		<path class="st19" d="M227.6,612h6l5.6,14.4c0.4,1.1,0.7,2.1,0.8,3.1c0.2,1,0.2,2.2,0.3,3.6h1.5c0-1.4,0.1-2.6,0.3-3.5
			c0.2-0.9,0.4-2,0.9-3.1l5.5-14.4h5.9v25.2h-3.6v-13.1c0-1.8,0.2-3.4,0.5-4.9c0.3-1.5,0.7-2.9,1.3-4.2l-1.5-0.6l-8.7,22.7h-2.6
			l-8.9-22.7l-1.5,0.6c0.5,1.2,1,2.6,1.3,4.1c0.3,1.5,0.5,3.1,0.5,4.9v13.1h-3.6V612z"/>
		<path class="st19" d="M260.2,622.4h10.4v3.5h-10.4V622.4z"/>
		<path class="st19" d="M276.3,612h8.8c2.4,0,4.5,0.5,6.3,1.5c1.8,1,3.3,2.5,4.3,4.4c1,1.9,1.5,4.1,1.5,6.6c0,2.6-0.5,4.9-1.5,6.8
			c-1,1.9-2.4,3.4-4.3,4.4c-1.9,1-4,1.5-6.5,1.5h-8.6V612z M279.6,633.8h4.8c2,0,3.7-0.4,5.1-1.1c1.4-0.7,2.4-1.8,3-3.1
			c0.7-1.4,1-3.1,1-5.2c0-1.9-0.3-3.5-1-4.9c-0.7-1.4-1.7-2.4-3-3.2c-1.3-0.8-3-1.1-4.9-1.1h-5.1l0.3-0.3v19.2L279.6,633.8z"/>
		<path class="st19" d="M306.5,636.1c-1.7-1.1-3.1-2.6-4-4.6s-1.4-4.3-1.4-6.9c0-2.5,0.6-4.8,1.7-6.8c1.1-2,2.7-3.5,4.6-4.7
			c1.9-1.1,4-1.7,6.4-1.7c2,0,3.8,0.4,5.4,1.1c1.5,0.7,2.8,1.6,3.8,2.8c1,1.1,1.7,2.4,2.2,3.7l-3.7,1.5c-0.4-1.2-1-2.2-1.7-3
			c-0.7-0.9-1.5-1.5-2.5-2c-1-0.5-2.2-0.7-3.6-0.7c-1.5,0-2.9,0.4-4.3,1.1c-1.3,0.7-2.4,1.9-3.2,3.3c-0.8,1.5-1.2,3.2-1.2,5.3
			c0,2,0.4,3.8,1.1,5.3c0.7,1.5,1.7,2.6,3,3.4c1.3,0.8,2.8,1.2,4.5,1.2c1.5,0,2.9-0.3,4-0.9s2-1.4,2.7-2.4c0.6-1,1-2,1.1-3h-8.7
			v-3.3h12.4v12.4h-3.5c0-0.9,0.1-1.8,0.4-2.7c0.3-0.9,0.6-1.8,1-2.6h-1.7c-0.5,1.4-1.5,2.8-2.8,4c-1.4,1.2-3.3,1.9-5.9,1.9
			C310.2,637.7,308.2,637.1,306.5,636.1z"/>
		<path class="st19" d="M329.6,622.4H340v3.5h-10.4V622.4z"/>
		<path class="st19" d="M350.2,618c0.1-0.6,0.3-1.2,0.5-1.8h-1.6c-0.3,0.9-0.8,1.8-1.3,2.5c-0.6,0.7-1.2,1.3-2,1.7
			c-0.8,0.4-1.6,0.7-2.5,0.8v-3.7c1.6-0.4,3-1,4.3-1.9s2.3-2.1,3.1-3.6h2.9v25.2h-3.6v-17C350.1,619.3,350.1,618.6,350.2,618z"/>
		<path class="st19" d="M364,636.1c-1.5-1-2.7-2.5-3.5-4.5c-0.8-2-1.3-4.4-1.3-7.2c0-2.8,0.4-5.2,1.4-7.1c0.9-2,2.1-3.4,3.6-4.4
			c1.5-1,3.2-1.5,5.1-1.5c1.9,0,3.6,0.5,5.1,1.5c1.5,1,2.7,2.5,3.6,4.4c0.9,2,1.3,4.3,1.3,7.1c0,2.8-0.4,5.2-1.3,7.2
			c-0.8,2-2,3.5-3.5,4.5c-1.5,1-3.3,1.5-5.3,1.5C367.3,637.7,365.5,637.2,364,636.1z M372.6,633.3c0.9-0.8,1.7-1.9,2.2-3.4
			s0.8-3.3,0.8-5.5c0-2-0.3-3.7-0.8-5.2c-0.5-1.5-1.2-2.6-2.2-3.4c-0.9-0.8-2-1.2-3.3-1.2c-1.3,0-2.4,0.4-3.3,1.2
			c-1,0.8-1.7,1.9-2.2,3.4c-0.5,1.5-0.8,3.2-0.8,5.2c0,2.1,0.3,3.9,0.8,5.4c0.5,1.5,1.2,2.6,2.2,3.4c0.9,0.8,2.1,1.2,3.4,1.2
			C370.6,634.5,371.7,634.1,372.6,633.3z"/>
	</g>
	<g>
		<path class="st19" d="M188.4,714.5h3.6v25.2h-3.6V714.5z"/>
		<path class="st19" d="M198.9,714.5h5.5l13.2,20.8l1.3-0.9c-0.5-0.7-0.8-1.4-1-2c-0.2-0.6-0.4-1.2-0.5-1.9
			c-0.1-0.7-0.1-1.6-0.1-2.7v-13.4h3.6v25.2h-4.5l-14.1-22.2l-1.3,0.8c0.5,1.1,0.9,2.1,1.2,3.2c0.2,1.1,0.4,2.5,0.4,4.1v14h-3.6
			V714.5z"/>
		<path class="st19" d="M227.6,714.5h6l5.6,14.4c0.4,1.1,0.7,2.1,0.8,3.1c0.2,1,0.2,2.2,0.3,3.6h1.5c0-1.4,0.1-2.6,0.3-3.5
			c0.2-0.9,0.4-2,0.9-3.1l5.5-14.4h5.9v25.2h-3.6v-13.1c0-1.8,0.2-3.4,0.5-4.9c0.3-1.5,0.7-2.9,1.3-4.2l-1.5-0.6l-8.7,22.7h-2.6
			L231,717l-1.5,0.6c0.5,1.2,1,2.6,1.3,4.1c0.3,1.5,0.5,3.1,0.5,4.9v13.1h-3.6V714.5z"/>
		<path class="st19" d="M260.2,724.9h10.4v3.5h-10.4V724.9z"/>
		<path class="st19" d="M276.3,714.5h8.8c2.4,0,4.5,0.5,6.3,1.5c1.8,1,3.3,2.5,4.3,4.4c1,1.9,1.5,4.1,1.5,6.6c0,2.6-0.5,4.9-1.5,6.8
			c-1,1.9-2.4,3.4-4.3,4.4c-1.9,1-4,1.5-6.5,1.5h-8.6V714.5z M279.6,736.3h4.8c2,0,3.7-0.4,5.1-1.1c1.4-0.7,2.4-1.8,3-3.1
			c0.7-1.4,1-3.1,1-5.2c0-1.9-0.3-3.5-1-4.9c-0.7-1.4-1.7-2.4-3-3.2c-1.3-0.8-3-1.1-4.9-1.1h-5.1l0.3-0.3v19.2L279.6,736.3z"/>
		<path class="st19" d="M306.5,738.6c-1.7-1.1-3.1-2.6-4-4.6s-1.4-4.3-1.4-6.9c0-2.5,0.6-4.8,1.7-6.8c1.1-2,2.7-3.5,4.6-4.7
			c1.9-1.1,4-1.7,6.4-1.7c2,0,3.8,0.4,5.4,1.1c1.5,0.7,2.8,1.6,3.8,2.8c1,1.1,1.7,2.4,2.2,3.7l-3.7,1.5c-0.4-1.2-1-2.2-1.7-3
			c-0.7-0.9-1.5-1.5-2.5-2c-1-0.5-2.2-0.7-3.6-0.7c-1.5,0-2.9,0.4-4.3,1.1c-1.3,0.7-2.4,1.9-3.2,3.3c-0.8,1.5-1.2,3.2-1.2,5.3
			c0,2,0.4,3.8,1.1,5.3c0.7,1.5,1.7,2.6,3,3.4c1.3,0.8,2.8,1.2,4.5,1.2c1.5,0,2.9-0.3,4-0.9s2-1.4,2.7-2.4c0.6-1,1-2,1.1-3h-8.7
			v-3.3h12.4v12.4h-3.5c0-0.9,0.1-1.8,0.4-2.7c0.3-0.9,0.6-1.8,1-2.6h-1.7c-0.5,1.4-1.5,2.8-2.8,4c-1.4,1.2-3.3,1.9-5.9,1.9
			C310.2,740.2,308.2,739.6,306.5,738.6z"/>
		<path class="st19" d="M329.6,724.9H340v3.5h-10.4V724.9z"/>
		<path class="st19" d="M356.1,720.2c0.3-0.8,0.7-1.5,1.2-2.3l-1.4-0.9l-8.8,13.2l1.3,1c0.3-0.3,0.6-0.6,0.9-0.8
			c0.3-0.2,0.7-0.3,1.1-0.5c0.5-0.1,1.1-0.2,1.9-0.2h10.6v3h-19v-3.3l10-15h5.4v25.2h-3.5v-16.3C355.6,722,355.8,720.9,356.1,720.2z
			"/>
		<path class="st19" d="M371.1,738.6c-1.5-1-2.7-2.5-3.5-4.5c-0.8-2-1.3-4.4-1.3-7.2c0-2.8,0.4-5.2,1.4-7.1c0.9-2,2.1-3.4,3.6-4.4
			c1.5-1,3.2-1.5,5.1-1.5c1.9,0,3.6,0.5,5.1,1.5c1.5,1,2.7,2.5,3.6,4.4c0.9,2,1.3,4.3,1.3,7.1c0,2.8-0.4,5.2-1.3,7.2
			c-0.8,2-2,3.5-3.5,4.5c-1.5,1-3.3,1.5-5.3,1.5C374.4,740.2,372.6,739.7,371.1,738.6z M379.7,735.8c0.9-0.8,1.7-1.9,2.2-3.4
			s0.8-3.3,0.8-5.5c0-2-0.3-3.7-0.8-5.2c-0.5-1.5-1.2-2.6-2.2-3.4c-0.9-0.8-2-1.2-3.3-1.2c-1.3,0-2.4,0.4-3.3,1.2
			c-1,0.8-1.7,1.9-2.2,3.4c-0.5,1.5-0.8,3.2-0.8,5.2c0,2.1,0.3,3.9,0.8,5.4c0.5,1.5,1.2,2.6,2.2,3.4c0.9,0.8,2.1,1.2,3.4,1.2
			C377.7,737,378.8,736.6,379.7,735.8z"/>
	</g>
	<g>
		<path class="st19" d="M188.4,818h3.6v25.2h-3.6V818z"/>
		<path class="st19" d="M198.9,818h5.5l13.2,20.8l1.3-0.9c-0.5-0.7-0.8-1.4-1-2c-0.2-0.6-0.4-1.2-0.5-1.9c-0.1-0.7-0.1-1.6-0.1-2.7
			V818h3.6v25.2h-4.5L202.2,821l-1.3,0.8c0.5,1.1,0.9,2.1,1.2,3.2c0.2,1.1,0.4,2.5,0.4,4.1v14h-3.6V818z"/>
		<path class="st19" d="M227.6,818h6l5.6,14.4c0.4,1.1,0.7,2.1,0.8,3.1c0.2,1,0.2,2.2,0.3,3.6h1.5c0-1.4,0.1-2.6,0.3-3.5
			c0.2-0.9,0.4-2,0.9-3.1l5.5-14.4h5.9v25.2h-3.6v-13.1c0-1.8,0.2-3.4,0.5-4.9c0.3-1.5,0.7-2.9,1.3-4.2l-1.5-0.6l-8.7,22.7h-2.6
			l-8.9-22.7l-1.5,0.6c0.5,1.2,1,2.6,1.3,4.1c0.3,1.5,0.5,3.1,0.5,4.9v13.1h-3.6V818z"/>
		<path class="st19" d="M260.2,828.4h10.4v3.5h-10.4V828.4z"/>
		<path class="st19" d="M276.3,818h3.6v22.3l-0.5-0.5h14v3.4h-17.2V818z"/>
		<path class="st19" d="M300.2,842.1c-1.7-1.1-3.1-2.6-4-4.6s-1.4-4.3-1.4-6.9c0-2.5,0.6-4.8,1.7-6.8c1.1-2,2.7-3.5,4.6-4.7
			c1.9-1.1,4-1.7,6.4-1.7c2,0,3.8,0.4,5.4,1.1c1.5,0.7,2.8,1.6,3.8,2.8c1,1.1,1.7,2.4,2.2,3.7l-3.7,1.5c-0.4-1.2-1-2.2-1.7-3
			c-0.7-0.9-1.5-1.5-2.5-2c-1-0.5-2.2-0.7-3.6-0.7c-1.5,0-2.9,0.4-4.3,1.1c-1.3,0.7-2.4,1.9-3.2,3.3c-0.8,1.5-1.2,3.2-1.2,5.3
			c0,2,0.4,3.8,1.1,5.3c0.7,1.5,1.7,2.6,3,3.4c1.3,0.8,2.8,1.2,4.5,1.2c1.5,0,2.9-0.3,4-0.9s2-1.4,2.7-2.4c0.6-1,1-2,1.1-3h-8.7
			v-3.3h12.4v12.4h-3.5c0-0.9,0.1-1.8,0.4-2.7c0.3-0.9,0.6-1.8,1-2.6h-1.7c-0.5,1.4-1.5,2.8-2.8,4c-1.4,1.2-3.3,1.9-5.9,1.9
			C303.9,843.7,301.9,843.1,300.2,842.1z"/>
		<path class="st19" d="M323.3,828.4h10.4v3.5h-10.4V828.4z"/>
		<path class="st19" d="M342.5,842.2c-1.4-0.9-2.5-2.3-3.3-4.2c-0.8-1.8-1.2-4-1.2-6.6c0-2.7,0.5-5.1,1.4-7.2c0.9-2.1,2.3-3.8,4.1-5
			c1.8-1.2,4-1.8,6.6-1.8c0.8,0,1.6,0.1,2.5,0.2c0.9,0.1,1.7,0.3,2.3,0.6v3.5c-0.7-0.3-1.5-0.5-2.2-0.6s-1.5-0.2-2.4-0.2
			c-1.8,0-3.5,0.4-4.9,1.2s-2.6,2-3.4,3.7c-0.9,1.6-1.3,3.7-1.3,6.1h1.4c0.2-0.9,0.6-1.7,1.1-2.4c0.6-0.8,1.3-1.4,2.2-1.8
			c0.9-0.5,1.9-0.7,3.1-0.7c1.6,0,2.9,0.4,4.1,1.1s2.1,1.7,2.8,2.9c0.7,1.2,1,2.6,1,4.1c0,1.6-0.3,3.1-1,4.4c-0.7,1.3-1.7,2.4-3,3.2
			s-2.9,1.2-4.8,1.2C345.6,843.7,343.9,843.2,342.5,842.2z M350.1,839.9c0.8-0.4,1.4-1.1,1.9-1.9c0.5-0.8,0.7-1.7,0.7-2.8
			c0-1.1-0.2-2-0.7-2.8c-0.5-0.8-1.1-1.4-1.9-1.9c-0.8-0.4-1.6-0.7-2.6-0.7c-1,0-1.9,0.2-2.6,0.6c-0.8,0.4-1.4,1.1-1.8,1.9
			c-0.4,0.8-0.7,1.7-0.7,2.8c0,1.1,0.2,2,0.7,2.8c0.4,0.8,1.1,1.4,1.8,1.9c0.8,0.4,1.6,0.7,2.6,0.7
			C348.5,840.5,349.3,840.3,350.1,839.9z"/>
		<path class="st19" d="M364.9,842.1c-1.5-1-2.7-2.5-3.5-4.5c-0.8-2-1.3-4.4-1.3-7.2c0-2.8,0.4-5.2,1.4-7.1c0.9-2,2.1-3.4,3.6-4.4
			c1.5-1,3.2-1.5,5.1-1.5c1.9,0,3.6,0.5,5.1,1.5c1.5,1,2.7,2.5,3.6,4.4c0.9,2,1.3,4.3,1.3,7.1c0,2.8-0.4,5.2-1.3,7.2
			c-0.8,2-2,3.5-3.5,4.5c-1.5,1-3.3,1.5-5.3,1.5C368.2,843.7,366.5,843.2,364.9,842.1z M373.6,839.3c0.9-0.8,1.7-1.9,2.2-3.4
			s0.8-3.3,0.8-5.5c0-2-0.3-3.7-0.8-5.2c-0.5-1.5-1.2-2.6-2.2-3.4c-0.9-0.8-2-1.2-3.3-1.2c-1.3,0-2.4,0.4-3.3,1.2
			c-1,0.8-1.7,1.9-2.2,3.4c-0.5,1.5-0.8,3.2-0.8,5.2c0,2.1,0.3,3.9,0.8,5.4c0.5,1.5,1.2,2.6,2.2,3.4c0.9,0.8,2.1,1.2,3.4,1.2
			C371.6,840.5,372.7,840.1,373.6,839.3z"/>
	</g>
	<g>
		<path class="st19" d="M188.4,969h3.6v25.2h-3.6V969z"/>
		<path class="st19" d="M198.9,969h5.5l13.2,20.8l1.3-0.9c-0.5-0.7-0.8-1.4-1-2c-0.2-0.6-0.4-1.2-0.5-1.9c-0.1-0.7-0.1-1.6-0.1-2.7
			V969h3.6v25.2h-4.5L202.2,972l-1.3,0.8c0.5,1.1,0.9,2.1,1.2,3.2c0.2,1.1,0.4,2.5,0.4,4.1v14h-3.6V969z"/>
		<path class="st19" d="M227.6,969h6l5.6,14.4c0.4,1.1,0.7,2.1,0.8,3.1c0.2,1,0.2,2.2,0.3,3.6h1.5c0-1.4,0.1-2.6,0.3-3.5
			c0.2-0.9,0.4-2,0.9-3.1l5.5-14.4h5.9v25.2h-3.6v-13.1c0-1.8,0.2-3.4,0.5-4.9c0.3-1.5,0.7-2.9,1.3-4.2l-1.5-0.6l-8.7,22.7h-2.6
			l-8.9-22.7l-1.5,0.6c0.5,1.2,1,2.6,1.3,4.1c0.3,1.5,0.5,3.1,0.5,4.9v13.1h-3.6V969z"/>
		<path class="st19" d="M260.2,979.4h10.4v3.5h-10.4V979.4z"/>
		<path class="st19" d="M276.3,969h11.1c1.7,0,3.2,0.3,4.4,0.8c1.2,0.5,2.1,1.2,2.6,2.1c0.6,0.9,0.9,1.9,0.9,3
			c0,1.6-0.5,2.9-1.5,3.8c-1,0.9-2.3,1.4-3.9,1.5v1.5c1.1,0,2.2,0.3,3.1,0.7c0.9,0.4,1.7,1.1,2.3,1.9c0.6,0.9,0.9,1.9,0.9,3.1
			c0,1.5-0.4,2.7-1.1,3.7c-0.7,1-1.7,1.8-3,2.3c-1.2,0.5-2.7,0.8-4.2,0.8h-11.4V969z M279.6,990.8h7.6c1,0,1.9-0.2,2.7-0.5
			c0.7-0.3,1.3-0.8,1.7-1.4c0.4-0.6,0.6-1.3,0.6-2.2c0-1.3-0.4-2.3-1.3-3c-0.9-0.7-2.1-1.1-3.7-1.1h-7.9v-3.2h7.6
			c0.9,0,1.7-0.1,2.4-0.5c0.7-0.3,1.2-0.7,1.6-1.3c0.4-0.6,0.6-1.2,0.6-2c0-1.2-0.4-2-1.2-2.6c-0.8-0.6-1.9-0.9-3.3-0.9h-7.3
			l0.3-0.3v19.2L279.6,990.8z"/>
		<path class="st19" d="M299.6,979.4h10.4v3.5h-10.4V979.4z"/>
		<path class="st19" d="M320.2,975c0.1-0.6,0.3-1.2,0.5-1.8h-1.6c-0.3,0.9-0.8,1.8-1.3,2.5c-0.6,0.7-1.2,1.3-2,1.7
			c-0.8,0.4-1.6,0.7-2.5,0.8v-3.7c1.6-0.4,3-1,4.3-1.9s2.3-2.1,3.1-3.6h2.9v25.2H320v-17C320,976.3,320.1,975.6,320.2,975z"/>
		<path class="st19" d="M333.9,993.1c-1.5-1-2.7-2.5-3.5-4.5c-0.8-2-1.3-4.4-1.3-7.2c0-2.8,0.4-5.2,1.4-7.1c0.9-2,2.1-3.4,3.6-4.4
			c1.5-1,3.2-1.5,5.1-1.5c1.9,0,3.6,0.5,5.1,1.5c1.5,1,2.7,2.5,3.6,4.4c0.9,2,1.3,4.3,1.3,7.1c0,2.8-0.4,5.2-1.3,7.2
			c-0.8,2-2,3.5-3.5,4.5c-1.5,1-3.3,1.5-5.3,1.5C337.2,994.7,335.4,994.2,333.9,993.1z M342.6,990.3c0.9-0.8,1.7-1.9,2.2-3.4
			s0.8-3.3,0.8-5.5c0-2-0.3-3.7-0.8-5.2c-0.5-1.5-1.2-2.6-2.2-3.4c-0.9-0.8-2-1.2-3.3-1.2c-1.3,0-2.4,0.4-3.3,1.2
			c-1,0.8-1.7,1.9-2.2,3.4c-0.5,1.5-0.8,3.2-0.8,5.2c0,2.1,0.3,3.9,0.8,5.4c0.5,1.5,1.2,2.6,2.2,3.4c0.9,0.8,2.1,1.2,3.4,1.2
			C340.5,991.5,341.6,991.1,342.6,990.3z"/>
		<path class="st19" d="M358.1,993.1c-1.5-1-2.7-2.5-3.5-4.5c-0.8-2-1.3-4.4-1.3-7.2c0-2.8,0.4-5.2,1.4-7.1c0.9-2,2.1-3.4,3.6-4.4
			c1.5-1,3.2-1.5,5.1-1.5c1.9,0,3.6,0.5,5.1,1.5c1.5,1,2.7,2.5,3.6,4.4c0.9,2,1.3,4.3,1.3,7.1c0,2.8-0.4,5.2-1.3,7.2
			c-0.8,2-2,3.5-3.5,4.5c-1.5,1-3.3,1.5-5.3,1.5C361.4,994.7,359.6,994.2,358.1,993.1z M366.8,990.3c0.9-0.8,1.7-1.9,2.2-3.4
			s0.8-3.3,0.8-5.5c0-2-0.3-3.7-0.8-5.2c-0.5-1.5-1.2-2.6-2.2-3.4c-0.9-0.8-2-1.2-3.3-1.2c-1.3,0-2.4,0.4-3.3,1.2
			c-1,0.8-1.7,1.9-2.2,3.4c-0.5,1.5-0.8,3.2-0.8,5.2c0,2.1,0.3,3.9,0.8,5.4c0.5,1.5,1.2,2.6,2.2,3.4c0.9,0.8,2.1,1.2,3.4,1.2
			C364.7,991.5,365.8,991.1,366.8,990.3z"/>
	</g>
	<g>
		<path class="st19" d="M188.4,1612h3.6v25.2h-3.6V1612z"/>
		<path class="st19" d="M198.9,1612h5.5l13.2,20.8l1.3-0.9c-0.5-0.7-0.8-1.4-1-2c-0.2-0.6-0.4-1.2-0.5-1.9c-0.1-0.7-0.1-1.6-0.1-2.7
			V1612h3.6v25.2h-4.5l-14.1-22.2l-1.3,0.8c0.5,1.1,0.9,2.1,1.2,3.2c0.2,1.1,0.4,2.5,0.4,4.1v14h-3.6V1612z"/>
		<path class="st19" d="M227.6,1612h6l5.6,14.4c0.4,1.1,0.7,2.1,0.8,3.1c0.2,1,0.2,2.2,0.3,3.6h1.5c0-1.4,0.1-2.6,0.3-3.5
			c0.2-0.9,0.4-2,0.9-3.1l5.5-14.4h5.9v25.2h-3.6v-13.1c0-1.8,0.2-3.4,0.5-4.9c0.3-1.5,0.7-2.9,1.3-4.2l-1.5-0.6l-8.7,22.7h-2.6
			l-8.9-22.7l-1.5,0.6c0.5,1.2,1,2.6,1.3,4.1c0.3,1.5,0.5,3.1,0.5,4.9v13.1h-3.6V1612z"/>
		<path class="st19" d="M260.2,1622.4h10.4v3.5h-10.4V1622.4z"/>
		<path class="st19" d="M276.3,1612h6l5.6,14.4c0.4,1.1,0.7,2.1,0.8,3.1c0.2,1,0.2,2.2,0.3,3.6h1.5c0-1.4,0.1-2.6,0.3-3.5
			c0.2-0.9,0.4-2,0.9-3.1l5.5-14.4h5.9v25.2h-3.6v-13.1c0-1.8,0.2-3.4,0.5-4.9c0.3-1.5,0.7-2.9,1.3-4.2l-1.5-0.6l-8.7,22.7h-2.6
			l-8.9-22.7l-1.5,0.6c0.5,1.2,1,2.6,1.3,4.1c0.3,1.5,0.5,3.1,0.5,4.9v13.1h-3.6V1612z"/>
		<path class="st19" d="M316.5,1612h5l9.3,25.2h-4l-5.9-16.8c-0.4-1.2-0.7-2.1-0.9-3s-0.3-1.8-0.3-2.9h-1.5c0,1.1-0.1,2.1-0.3,3
			c-0.2,0.9-0.5,1.8-0.9,2.9l-6,16.8H307L316.5,1612z M313.2,1627.2h11.2l1.2,3.3h-13.5L313.2,1627.2z"/>
		<path class="st19" d="M331.9,1622.4h10.4v3.5h-10.4V1622.4z"/>
		<path class="st19" d="M352.5,1618c0.1-0.6,0.3-1.2,0.5-1.8h-1.6c-0.3,0.9-0.8,1.8-1.3,2.5c-0.6,0.7-1.2,1.3-2,1.7
			s-1.6,0.7-2.5,0.8v-3.7c1.6-0.4,3-1,4.3-1.9c1.3-0.9,2.3-2.1,3.1-3.6h2.9v25.2h-3.6v-17C352.4,1619.3,352.4,1618.6,352.5,1618z"/>
		<path class="st19" d="M366.3,1636.1c-1.5-1-2.7-2.5-3.5-4.5c-0.8-2-1.3-4.4-1.3-7.2c0-2.8,0.4-5.2,1.4-7.1c0.9-2,2.1-3.4,3.6-4.4
			c1.5-1,3.2-1.5,5.1-1.5c1.9,0,3.6,0.5,5.1,1.5c1.5,1,2.7,2.5,3.6,4.4c0.9,2,1.3,4.3,1.3,7.1c0,2.8-0.4,5.2-1.3,7.2
			c-0.8,2-2,3.5-3.5,4.5c-1.5,1-3.3,1.5-5.3,1.5C369.6,1637.7,367.8,1637.2,366.3,1636.1z M374.9,1633.3c0.9-0.8,1.7-1.9,2.2-3.4
			s0.8-3.3,0.8-5.5c0-2-0.3-3.7-0.8-5.2c-0.5-1.5-1.2-2.6-2.2-3.4c-0.9-0.8-2-1.2-3.3-1.2c-1.3,0-2.4,0.4-3.3,1.2
			c-1,0.8-1.7,1.9-2.2,3.4s-0.8,3.2-0.8,5.2c0,2.1,0.3,3.9,0.8,5.4c0.5,1.5,1.2,2.6,2.2,3.4c0.9,0.8,2.1,1.2,3.4,1.2
			C372.9,1634.5,374,1634.1,374.9,1633.3z"/>
		<path class="st19" d="M390.5,1636.1c-1.5-1-2.7-2.5-3.5-4.5c-0.8-2-1.3-4.4-1.3-7.2c0-2.8,0.4-5.2,1.4-7.1c0.9-2,2.1-3.4,3.6-4.4
			c1.5-1,3.2-1.5,5.1-1.5c1.9,0,3.6,0.5,5.1,1.5c1.5,1,2.7,2.5,3.6,4.4c0.9,2,1.3,4.3,1.3,7.1c0,2.8-0.4,5.2-1.3,7.2
			c-0.8,2-2,3.5-3.5,4.5c-1.5,1-3.3,1.5-5.3,1.5C393.8,1637.7,392,1637.2,390.5,1636.1z M399.1,1633.3c0.9-0.8,1.7-1.9,2.2-3.4
			s0.8-3.3,0.8-5.5c0-2-0.3-3.7-0.8-5.2c-0.5-1.5-1.2-2.6-2.2-3.4c-0.9-0.8-2-1.2-3.3-1.2c-1.3,0-2.4,0.4-3.3,1.2
			c-1,0.8-1.7,1.9-2.2,3.4s-0.8,3.2-0.8,5.2c0,2.1,0.3,3.9,0.8,5.4c0.5,1.5,1.2,2.6,2.2,3.4c0.9,0.8,2.1,1.2,3.4,1.2
			C397.1,1634.5,398.2,1634.1,399.1,1633.3z"/>
	</g>
	<g>
		<path class="st19" d="M188.4,1412h3.6v25.2h-3.6V1412z"/>
		<path class="st19" d="M198.9,1412h5.5l13.2,20.8l1.3-0.9c-0.5-0.7-0.8-1.4-1-2c-0.2-0.6-0.4-1.2-0.5-1.9c-0.1-0.7-0.1-1.6-0.1-2.7
			V1412h3.6v25.2h-4.5l-14.1-22.2l-1.3,0.8c0.5,1.1,0.9,2.1,1.2,3.2c0.2,1.1,0.4,2.5,0.4,4.1v14h-3.6V1412z"/>
		<path class="st19" d="M227.6,1412h6l5.6,14.4c0.4,1.1,0.7,2.1,0.8,3.1c0.2,1,0.2,2.2,0.3,3.6h1.5c0-1.4,0.1-2.6,0.3-3.5
			c0.2-0.9,0.4-2,0.9-3.1l5.5-14.4h5.9v25.2h-3.6v-13.1c0-1.8,0.2-3.4,0.5-4.9c0.3-1.5,0.7-2.9,1.3-4.2l-1.5-0.6l-8.7,22.7h-2.6
			l-8.9-22.7l-1.5,0.6c0.5,1.2,1,2.6,1.3,4.1c0.3,1.5,0.5,3.1,0.5,4.9v13.1h-3.6V1412z"/>
		<path class="st19" d="M260.2,1422.4h10.4v3.5h-10.4V1422.4z"/>
		<path class="st19" d="M276.3,1412h6l5.6,14.4c0.4,1.1,0.7,2.1,0.8,3.1c0.2,1,0.2,2.2,0.3,3.6h1.5c0-1.4,0.1-2.6,0.3-3.5
			c0.2-0.9,0.4-2,0.9-3.1l5.5-14.4h5.9v25.2h-3.6v-13.1c0-1.8,0.2-3.4,0.5-4.9c0.3-1.5,0.7-2.9,1.3-4.2l-1.5-0.6l-8.7,22.7h-2.6
			l-8.9-22.7l-1.5,0.6c0.5,1.2,1,2.6,1.3,4.1c0.3,1.5,0.5,3.1,0.5,4.9v13.1h-3.6V1412z"/>
		<path class="st19" d="M316.5,1412h5l9.3,25.2h-4l-5.9-16.8c-0.4-1.2-0.7-2.1-0.9-3s-0.3-1.8-0.3-2.9h-1.5c0,1.1-0.1,2.1-0.3,3
			c-0.2,0.9-0.5,1.8-0.9,2.9l-6,16.8H307L316.5,1412z M313.2,1427.2h11.2l1.2,3.3h-13.5L313.2,1427.2z"/>
		<path class="st19" d="M331.9,1422.4h10.4v3.5h-10.4V1422.4z"/>
		<path class="st19" d="M352.5,1418c0.1-0.6,0.3-1.2,0.5-1.8h-1.6c-0.3,0.9-0.8,1.8-1.3,2.5c-0.6,0.7-1.2,1.3-2,1.7
			s-1.6,0.7-2.5,0.8v-3.7c1.6-0.4,3-1,4.3-1.9c1.3-0.9,2.3-2.1,3.1-3.6h2.9v25.2h-3.6v-17C352.4,1419.3,352.4,1418.6,352.5,1418z"/>
		<path class="st19" d="M373.2,1417.7c0.3-0.8,0.7-1.5,1.2-2.3l-1.4-0.9l-8.8,13.2l1.3,1c0.3-0.3,0.6-0.6,0.9-0.8
			c0.3-0.2,0.7-0.3,1.1-0.5c0.5-0.1,1.1-0.2,1.9-0.2H380v3h-19v-3.3l10-15h5.4v25.2h-3.5v-16.3
			C372.8,1419.5,372.9,1418.4,373.2,1417.7z"/>
		<path class="st19" d="M388.2,1436.1c-1.5-1-2.7-2.5-3.5-4.5c-0.8-2-1.3-4.4-1.3-7.2c0-2.8,0.4-5.2,1.4-7.1c0.9-2,2.1-3.4,3.6-4.4
			c1.5-1,3.2-1.5,5.1-1.5c1.9,0,3.6,0.5,5.1,1.5c1.5,1,2.7,2.5,3.6,4.4c0.9,2,1.3,4.3,1.3,7.1c0,2.8-0.4,5.2-1.3,7.2
			c-0.8,2-2,3.5-3.5,4.5c-1.5,1-3.3,1.5-5.3,1.5C391.5,1437.7,389.8,1437.2,388.2,1436.1z M396.9,1433.3c0.9-0.8,1.7-1.9,2.2-3.4
			s0.8-3.3,0.8-5.5c0-2-0.3-3.7-0.8-5.2c-0.5-1.5-1.2-2.6-2.2-3.4c-0.9-0.8-2-1.2-3.3-1.2c-1.3,0-2.4,0.4-3.3,1.2
			c-1,0.8-1.7,1.9-2.2,3.4s-0.8,3.2-0.8,5.2c0,2.1,0.3,3.9,0.8,5.4c0.5,1.5,1.2,2.6,2.2,3.4c0.9,0.8,2.1,1.2,3.4,1.2
			C394.8,1434.5,396,1434.1,396.9,1433.3z"/>
	</g>
	<g>
		<path class="st19" d="M188.4,1320h3.6v25.2h-3.6V1320z"/>
		<path class="st19" d="M198.9,1320h5.5l13.2,20.8l1.3-0.9c-0.5-0.7-0.8-1.4-1-2c-0.2-0.6-0.4-1.2-0.5-1.9c-0.1-0.7-0.1-1.6-0.1-2.7
			V1320h3.6v25.2h-4.5l-14.1-22.2l-1.3,0.8c0.5,1.1,0.9,2.1,1.2,3.2c0.2,1.1,0.4,2.5,0.4,4.1v14h-3.6V1320z"/>
		<path class="st19" d="M227.6,1320h6l5.6,14.4c0.4,1.1,0.7,2.1,0.8,3.1c0.2,1,0.2,2.2,0.3,3.6h1.5c0-1.4,0.1-2.6,0.3-3.5
			c0.2-0.9,0.4-2,0.9-3.1l5.5-14.4h5.9v25.2h-3.6v-13.1c0-1.8,0.2-3.4,0.5-4.9c0.3-1.5,0.7-2.9,1.3-4.2l-1.5-0.6l-8.7,22.7h-2.6
			l-8.9-22.7l-1.5,0.6c0.5,1.2,1,2.6,1.3,4.1c0.3,1.5,0.5,3.1,0.5,4.9v13.1h-3.6V1320z"/>
		<path class="st19" d="M260.2,1330.4h10.4v3.5h-10.4V1330.4z"/>
		<path class="st19" d="M276.3,1320h6l5.6,14.4c0.4,1.1,0.7,2.1,0.8,3.1c0.2,1,0.2,2.2,0.3,3.6h1.5c0-1.4,0.1-2.6,0.3-3.5
			c0.2-0.9,0.4-2,0.9-3.1l5.5-14.4h5.9v25.2h-3.6v-13.1c0-1.8,0.2-3.4,0.5-4.9c0.3-1.5,0.7-2.9,1.3-4.2l-1.5-0.6l-8.7,22.7h-2.6
			l-8.9-22.7l-1.5,0.6c0.5,1.2,1,2.6,1.3,4.1c0.3,1.5,0.5,3.1,0.5,4.9v13.1h-3.6V1320z"/>
		<path class="st19" d="M316.5,1320h5l9.3,25.2h-4l-5.9-16.8c-0.4-1.2-0.7-2.1-0.9-3s-0.3-1.8-0.3-2.9h-1.5c0,1.1-0.1,2.1-0.3,3
			c-0.2,0.9-0.5,1.8-0.9,2.9l-6,16.8H307L316.5,1320z M313.2,1335.2h11.2l1.2,3.3h-13.5L313.2,1335.2z"/>
		<path class="st19" d="M331.9,1330.4h10.4v3.5h-10.4V1330.4z"/>
		<path class="st19" d="M352.5,1326c0.1-0.6,0.3-1.2,0.5-1.8h-1.6c-0.3,0.9-0.8,1.8-1.3,2.5c-0.6,0.7-1.2,1.3-2,1.7
			s-1.6,0.7-2.5,0.8v-3.7c1.6-0.4,3-1,4.3-1.9c1.3-0.9,2.3-2.1,3.1-3.6h2.9v25.2h-3.6v-17C352.4,1327.3,352.4,1326.6,352.5,1326z"/>
		<path class="st19" d="M366,1344.2c-1.4-0.9-2.5-2.3-3.3-4.2c-0.8-1.8-1.2-4-1.2-6.6c0-2.7,0.5-5.1,1.4-7.2c0.9-2.1,2.3-3.8,4.1-5
			c1.8-1.2,4-1.8,6.6-1.8c0.8,0,1.6,0.1,2.5,0.2c0.9,0.1,1.7,0.3,2.3,0.6v3.5c-0.7-0.3-1.5-0.5-2.2-0.6c-0.8-0.1-1.5-0.2-2.4-0.2
			c-1.8,0-3.5,0.4-4.9,1.2c-1.4,0.8-2.6,2-3.4,3.7c-0.9,1.6-1.3,3.7-1.3,6.1h1.4c0.2-0.9,0.6-1.7,1.1-2.4c0.6-0.8,1.3-1.4,2.2-1.8
			c0.9-0.5,1.9-0.7,3.1-0.7c1.6,0,2.9,0.4,4.1,1.1c1.2,0.7,2.1,1.7,2.8,2.9s1,2.6,1,4c0,1.6-0.3,3.1-1,4.4c-0.7,1.3-1.7,2.4-3,3.2
			s-2.9,1.2-4.8,1.2C369.1,1345.7,367.4,1345.2,366,1344.2z M373.6,1341.9c0.8-0.4,1.4-1.1,1.9-1.9c0.5-0.8,0.7-1.7,0.7-2.8
			c0-1.1-0.2-2-0.7-2.8c-0.5-0.8-1.1-1.4-1.9-1.9c-0.8-0.4-1.6-0.7-2.6-0.7c-1,0-1.9,0.2-2.6,0.6c-0.8,0.4-1.4,1-1.8,1.9
			c-0.4,0.8-0.7,1.7-0.7,2.8c0,1.1,0.2,2,0.7,2.8c0.4,0.8,1.1,1.4,1.8,1.9c0.8,0.4,1.6,0.7,2.6,0.7
			C371.9,1342.5,372.8,1342.3,373.6,1341.9z"/>
		<path class="st19" d="M388.4,1344.1c-1.5-1-2.7-2.5-3.5-4.5c-0.8-2-1.3-4.4-1.3-7.2c0-2.8,0.4-5.2,1.4-7.1c0.9-2,2.1-3.4,3.6-4.4
			c1.5-1,3.2-1.5,5.1-1.5c1.9,0,3.6,0.5,5.1,1.5c1.5,1,2.7,2.5,3.6,4.4c0.9,2,1.3,4.3,1.3,7.1c0,2.8-0.4,5.2-1.3,7.2
			c-0.8,2-2,3.5-3.5,4.5c-1.5,1-3.3,1.5-5.3,1.5C391.7,1345.7,389.9,1345.2,388.4,1344.1z M397.1,1341.3c0.9-0.8,1.7-1.9,2.2-3.4
			s0.8-3.3,0.8-5.5c0-2-0.3-3.7-0.8-5.2c-0.5-1.5-1.2-2.6-2.2-3.4c-0.9-0.8-2-1.2-3.3-1.2c-1.3,0-2.4,0.4-3.3,1.2
			c-1,0.8-1.7,1.9-2.2,3.4s-0.8,3.2-0.8,5.2c0,2.1,0.3,3.9,0.8,5.4c0.5,1.5,1.2,2.6,2.2,3.4c0.9,0.8,2.1,1.2,3.4,1.2
			C395,1342.5,396.1,1342.1,397.1,1341.3z"/>
	</g>
	<g>
		<path class="st19" d="M188.4,1217h3.6v25.2h-3.6V1217z"/>
		<path class="st19" d="M198.9,1217h5.5l13.2,20.8l1.3-0.9c-0.5-0.7-0.8-1.4-1-2c-0.2-0.6-0.4-1.2-0.5-1.9c-0.1-0.7-0.1-1.6-0.1-2.7
			V1217h3.6v25.2h-4.5l-14.1-22.2l-1.3,0.8c0.5,1.1,0.9,2.1,1.2,3.2c0.2,1.1,0.4,2.5,0.4,4.1v14h-3.6V1217z"/>
		<path class="st19" d="M227.6,1217h6l5.6,14.4c0.4,1.1,0.7,2.1,0.8,3.1c0.2,1,0.2,2.2,0.3,3.6h1.5c0-1.4,0.1-2.6,0.3-3.5
			c0.2-0.9,0.4-2,0.9-3.1l5.5-14.4h5.9v25.2h-3.6v-13.1c0-1.8,0.2-3.4,0.5-4.9c0.3-1.5,0.7-2.9,1.3-4.2l-1.5-0.6l-8.7,22.7h-2.6
			l-8.9-22.7l-1.5,0.6c0.5,1.2,1,2.6,1.3,4.1c0.3,1.5,0.5,3.1,0.5,4.9v13.1h-3.6V1217z"/>
		<path class="st19" d="M260.2,1227.4h10.4v3.5h-10.4V1227.4z"/>
		<path class="st19" d="M276.3,1217h6l5.6,14.4c0.4,1.1,0.7,2.1,0.8,3.1c0.2,1,0.2,2.2,0.3,3.6h1.5c0-1.4,0.1-2.6,0.3-3.5
			c0.2-0.9,0.4-2,0.9-3.1l5.5-14.4h5.9v25.2h-3.6v-13.1c0-1.8,0.2-3.4,0.5-4.9c0.3-1.5,0.7-2.9,1.3-4.2l-1.5-0.6l-8.7,22.7h-2.6
			l-8.9-22.7l-1.5,0.6c0.5,1.2,1,2.6,1.3,4.1c0.3,1.5,0.5,3.1,0.5,4.9v13.1h-3.6V1217z"/>
		<path class="st19" d="M316.5,1217h5l9.3,25.2h-4l-5.9-16.8c-0.4-1.2-0.7-2.1-0.9-3s-0.3-1.8-0.3-2.9h-1.5c0,1.1-0.1,2.1-0.3,3
			c-0.2,0.9-0.5,1.8-0.9,2.9l-6,16.8H307L316.5,1217z M313.2,1232.2h11.2l1.2,3.3h-13.5L313.2,1232.2z"/>
		<path class="st19" d="M331.9,1227.4h10.4v3.5h-10.4V1227.4z"/>
		<path class="st19" d="M352.5,1223c0.1-0.6,0.3-1.2,0.5-1.8h-1.6c-0.3,0.9-0.8,1.8-1.3,2.5c-0.6,0.7-1.2,1.3-2,1.7
			s-1.6,0.7-2.5,0.8v-3.7c1.6-0.4,3-1,4.3-1.9c1.3-0.9,2.3-2.1,3.1-3.6h2.9v25.2h-3.6v-17C352.4,1224.3,352.4,1223.6,352.5,1223z"/>
		<path class="st19" d="M365.4,1241.7c-1.3-0.6-2.3-1.5-3-2.5c-0.7-1.1-1-2.2-1-3.6c0-1.2,0.3-2.2,0.8-3s1.3-1.5,2.3-2
			c1-0.5,2.1-0.7,3.3-0.8v-1.5c-1.7-0.1-3-0.6-4.1-1.5s-1.6-2.2-1.6-3.8c0-1.2,0.3-2.4,1-3.4s1.6-1.8,2.9-2.4
			c1.2-0.6,2.7-0.8,4.3-0.8c1.6,0,3.1,0.3,4.3,0.8c1.2,0.6,2.2,1.4,2.9,2.4c0.7,1,1,2.1,1,3.4c0,1.6-0.5,2.9-1.5,3.8
			c-1,0.9-2.4,1.4-4.1,1.5v1.5c1.9,0.1,3.4,0.7,4.6,1.7c1.2,1,1.7,2.4,1.7,4.1c0,1.3-0.3,2.5-1,3.6c-0.7,1.1-1.7,1.9-3,2.5
			c-1.3,0.6-2.9,0.9-4.8,0.9C368.4,1242.7,366.8,1242.3,365.4,1241.7z M373,1239c0.8-0.4,1.4-0.9,1.8-1.5c0.4-0.6,0.6-1.4,0.6-2.3
			c0-0.9-0.2-1.6-0.6-2.3c-0.4-0.7-1-1.2-1.8-1.5c-0.8-0.4-1.7-0.5-2.7-0.5c-0.9,0-1.7,0.2-2.5,0.5c-0.8,0.4-1.4,0.9-1.9,1.5
			c-0.5,0.7-0.7,1.4-0.7,2.3c0,1.3,0.5,2.4,1.4,3.2c0.9,0.8,2.2,1.2,3.7,1.2C371.3,1239.5,372.3,1239.3,373,1239z M372.7,1227
			c0.7-0.3,1.2-0.8,1.7-1.4c0.4-0.6,0.6-1.3,0.6-2.2c0-1.1-0.4-2.1-1.3-2.8c-0.9-0.7-2-1.1-3.3-1.1c-0.9,0-1.7,0.2-2.4,0.5
			c-0.7,0.3-1.2,0.8-1.6,1.4s-0.6,1.3-0.6,2c0,1.2,0.4,2.2,1.3,3c0.9,0.7,2,1.1,3.3,1.1C371.2,1227.5,372,1227.3,372.7,1227z"/>
		<path class="st19" d="M388,1241.1c-1.5-1-2.7-2.5-3.5-4.5c-0.8-2-1.3-4.4-1.3-7.2c0-2.8,0.4-5.2,1.4-7.1c0.9-2,2.1-3.4,3.6-4.4
			c1.5-1,3.2-1.5,5.1-1.5c1.9,0,3.6,0.5,5.1,1.5c1.5,1,2.7,2.5,3.6,4.4c0.9,2,1.3,4.3,1.3,7.1c0,2.8-0.4,5.2-1.3,7.2
			c-0.8,2-2,3.5-3.5,4.5c-1.5,1-3.3,1.5-5.3,1.5C391.3,1242.7,389.5,1242.2,388,1241.1z M396.7,1238.3c0.9-0.8,1.7-1.9,2.2-3.4
			s0.8-3.3,0.8-5.5c0-2-0.3-3.7-0.8-5.2c-0.5-1.5-1.2-2.6-2.2-3.4c-0.9-0.8-2-1.2-3.3-1.2c-1.3,0-2.4,0.4-3.3,1.2
			c-1,0.8-1.7,1.9-2.2,3.4s-0.8,3.2-0.8,5.2c0,2.1,0.3,3.9,0.8,5.4c0.5,1.5,1.2,2.6,2.2,3.4c0.9,0.8,2.1,1.2,3.4,1.2
			C394.6,1239.5,395.7,1239.1,396.7,1238.3z"/>
	</g>
	<g>
		<path class="st19" d="M2628.4,1582h6.4c1,0,1.9,0.2,2.5,0.5c0.7,0.3,1.2,0.7,1.5,1.2s0.5,1.1,0.5,1.8c0,1-0.3,1.7-0.9,2.2
			s-1.3,0.8-2.3,0.9v0.9c0.7,0,1.3,0.2,1.8,0.4c0.5,0.2,1,0.6,1.3,1.1c0.3,0.5,0.5,1.1,0.5,1.8c0,0.9-0.2,1.6-0.6,2.2
			c-0.4,0.6-1,1-1.7,1.3c-0.7,0.3-1.6,0.4-2.5,0.4h-6.7V1582z M2630.3,1594.7h4.5c0.6,0,1.1-0.1,1.6-0.3c0.4-0.2,0.8-0.5,1-0.8
			c0.2-0.4,0.4-0.8,0.4-1.3c0-0.7-0.3-1.3-0.8-1.7c-0.5-0.4-1.2-0.6-2.1-0.6h-4.6v-1.9h4.4c0.5,0,1-0.1,1.4-0.3
			c0.4-0.2,0.7-0.4,0.9-0.8c0.2-0.3,0.3-0.7,0.3-1.2c0-0.7-0.2-1.2-0.7-1.5c-0.5-0.3-1.1-0.5-1.9-0.5h-4.3l0.2-0.2v11.2
			L2630.3,1594.7z"/>
		<path class="st19" d="M2644.8,1594.7h8.5v1.9h-10.4V1582h10.4v1.9h-8.5l0.2-0.2v11.2L2644.8,1594.7z M2651.2,1588.1v1.9h-6.5v-1.9
			H2651.2z"/>
		<path class="st19" d="M2654.5,1594.7h0.6c0.5,0,0.9,0,1.2-0.1c0.3-0.1,0.5-0.3,0.7-0.5c0.2-0.2,0.3-0.5,0.4-1
			c0.1-0.6,0.2-1.2,0.2-1.9s0.1-1.6,0.1-2.8c0-0.4,0-0.8,0-1.2l0.1-5.3h10.5v12.8h2.2v4.7h-1.9v-2.7h-12.2v2.7h-1.9V1594.7z
			 M2666.2,1594.7v-10.8h-6.3l-0.1,3.9c0,1.3-0.1,2.4-0.1,3.2c-0.1,0.8-0.1,1.6-0.3,2.2c-0.1,0.6-0.3,1.1-0.5,1.6H2666.2z"/>
		<path class="st19" d="M2673.1,1594.7h1.8c0.4,0,0.8,0,1-0.1c0.2-0.1,0.5-0.2,0.6-0.4s0.3-0.5,0.5-0.8l0.8-1.9l-0.2,1.6l-6.2-11.1
			h2.4l3.1,5.8c0.3,0.6,0.6,1.2,0.7,1.7s0.2,1,0.3,1.5h0.9c0-0.6,0-1.2,0.1-1.7c0.1-0.5,0.3-1.1,0.5-1.7l2.5-5.8h2.3l-5.4,12.4
			c-0.3,0.6-0.6,1.1-0.9,1.4c-0.3,0.3-0.7,0.6-1.2,0.7c-0.5,0.1-1,0.2-1.7,0.2h-1.7V1594.7z"/>
		<path class="st19" d="M2686.3,1582h2.1v12.8h6.3V1582h2.1v12.8h6.3V1582h2.1v14.7h-18.9V1582z M2705.5,1596.7h-1.4l-1.1-1.9h4.3
			v4.7h-1.9V1596.7z"/>
		<path class="st19" d="M2710.1,1582h2.1v8.7c0,0.9-0.1,1.6-0.2,2.2c-0.1,0.5-0.4,1.1-0.8,1.7l0.8,0.5l7.8-13.1h3.1v14.7h-2.1v-8.7
			c0-0.9,0.1-1.6,0.2-2.2c0.1-0.5,0.4-1.1,0.8-1.7l-0.8-0.5l-7.8,13.1h-3.1V1582z"/>
		<path class="st19" d="M2726.9,1582h2.1v8.7c0,0.9-0.1,1.6-0.2,2.2s-0.4,1.1-0.8,1.7l0.8,0.5l7.8-13.1h3.1v14.7h-2.1v-8.7
			c0-0.9,0.1-1.6,0.2-2.2c0.1-0.5,0.4-1.1,0.8-1.7l-0.8-0.5l-7.8,13.1h-3.1V1582z M2731.1,1580.3c-0.5-0.3-0.9-0.6-1.2-1.1
			c-0.3-0.4-0.4-0.9-0.4-1.4h2c0.1,0.4,0.2,0.7,0.5,1s0.7,0.4,1.1,0.4s0.9-0.1,1.1-0.4s0.5-0.6,0.5-1h2c0,0.8-0.4,1.5-1,2
			c-0.6,0.6-1.5,0.8-2.7,0.8C2732.4,1580.8,2731.7,1580.6,2731.1,1580.3z"/>
		<path class="st19" d="M2628.4,1606h2.1v12.8h7.2V1606h2.1v14.7h-11.4V1606z M2640.2,1620.7h-1.4l-1-1.9h4.3v4.7h-1.9V1620.7z"/>
		<path class="st19" d="M2644.7,1606h6.4c1,0,1.9,0.2,2.5,0.5c0.7,0.3,1.2,0.7,1.5,1.2s0.5,1.1,0.5,1.8c0,1-0.3,1.7-0.9,2.2
			c-0.6,0.5-1.3,0.8-2.3,0.9v0.9c0.7,0,1.3,0.2,1.8,0.4c0.5,0.2,1,0.6,1.3,1.1c0.3,0.5,0.5,1.1,0.5,1.8c0,0.9-0.2,1.6-0.6,2.2
			c-0.4,0.6-1,1-1.7,1.3c-0.7,0.3-1.6,0.4-2.5,0.4h-6.7V1606z M2646.6,1618.7h4.5c0.6,0,1.1-0.1,1.6-0.3c0.4-0.2,0.8-0.5,1-0.8
			s0.4-0.8,0.4-1.3c0-0.7-0.3-1.3-0.8-1.7s-1.2-0.6-2.1-0.6h-4.6v-1.9h4.4c0.5,0,1-0.1,1.4-0.3c0.4-0.2,0.7-0.4,0.9-0.8
			c0.2-0.3,0.3-0.7,0.3-1.2c0-0.7-0.2-1.2-0.7-1.5s-1.1-0.5-1.9-0.5h-4.3l0.2-0.2v11.2L2646.6,1618.7z"/>
		<path class="st19" d="M2661.2,1618.7h8.5v1.9h-10.4V1606h10.4v1.9h-8.5l0.2-0.2v11.2L2661.2,1618.7z M2667.5,1612.1v1.9h-6.5v-1.9
			H2667.5z"/>
		<path class="st19" d="M2676.3,1607.6l0.3,0.3h-5.6v-1.9h12.7v1.9h-5.6l0.3-0.3v13.1h-2.1V1607.6z"/>
	</g>
	<g>
		<path class="st19" d="M2631,1667.4h4.9v34.3h-4.9V1667.4z"/>
		<path class="st19" d="M2645.2,1667.4h7.5l18,28.4l1.8-1.2c-0.6-1-1.1-1.9-1.4-2.7c-0.3-0.8-0.6-1.7-0.7-2.6
			c-0.1-1-0.2-2.2-0.2-3.7v-18.2h4.9v34.3h-6.1l-19.2-30.2l-1.8,1.1c0.7,1.4,1.2,2.9,1.6,4.4s0.5,3.3,0.5,5.6v19.1h-4.9V1667.4z"/>
		<path class="st19" d="M2684.4,1667.4h8.2l7.6,19.6c0.6,1.5,0.9,2.9,1.2,4.2c0.2,1.3,0.3,2.9,0.4,4.9h2.1c0-1.9,0.2-3.5,0.4-4.8
			c0.2-1.3,0.6-2.7,1.2-4.2l7.4-19.6h8v34.3h-4.9v-17.8c0-2.4,0.2-4.6,0.7-6.6s1-3.9,1.7-5.7l-2.1-0.8l-11.9,30.9h-3.5l-12.1-30.9
			l-2.1,0.8c0.7,1.7,1.3,3.6,1.7,5.6c0.4,2,0.7,4.3,0.7,6.7v17.8h-4.9V1667.4z"/>
		<path class="st19" d="M2728.7,1681.6h14.1v4.8h-14.1V1681.6z"/>
		<path class="st19" d="M2746,1667.4h5.2l4.4,19.3c0.3,1.5,0.6,3,0.7,4.7s0.2,3.6,0.3,5.7h2.1c0.1-1.6,0.2-3.2,0.4-4.8
			s0.6-3.3,1.1-4.9l5.6-19.9h6l5.8,21.8c0.3,1,0.5,2.3,0.7,3.7c0.2,1.4,0.3,2.8,0.3,4.2h2.1c0-1.9,0.1-3.7,0.3-5.5
			c0.1-1.8,0.4-3.5,0.8-5l4.6-19.1h5.1l-8.9,34.3h-6.3l-5.5-20.7c-0.4-1.5-0.7-2.9-0.8-4.3c-0.1-1.4-0.2-3-0.2-5h-2.1
			c0,2-0.1,3.7-0.2,5.1c-0.1,1.4-0.4,2.8-0.7,4.2l-5.9,20.7h-6.4L2746,1667.4z"/>
		<path class="st19" d="M2794.3,1681.6h14.1v4.8h-14.1V1681.6z"/>
		<path class="st19" d="M2822.4,1675.6c0.1-0.8,0.4-1.6,0.7-2.5h-2.2c-0.4,1.3-1,2.4-1.8,3.4s-1.7,1.7-2.7,2.4c-1,0.6-2.2,1-3.5,1.2
			v-5.1c2.1-0.5,4.1-1.4,5.8-2.6c1.8-1.3,3.2-2.9,4.3-4.9h4v34.3h-4.9v-23.1C2822.2,1677.4,2822.3,1676.4,2822.4,1675.6z"/>
		<path class="st19" d="M2841.1,1700.3c-2.1-1.4-3.7-3.4-4.8-6.1c-1.1-2.7-1.7-6-1.7-9.8c0-3.8,0.6-7,1.8-9.7s2.9-4.7,4.9-6
			c2.1-1.4,4.4-2,7-2c2.5,0,4.9,0.7,6.9,2c2.1,1.4,3.7,3.4,4.9,6s1.8,5.9,1.8,9.7c0,3.8-0.6,7.1-1.7,9.8c-1.1,2.7-2.7,4.7-4.8,6.1
			s-4.4,2.1-7.2,2.1S2843.2,1701.7,2841.1,1700.3z M2852.9,1696.4c1.3-1,2.3-2.6,2.9-4.6c0.7-2,1-4.5,1-7.4c0-2.7-0.4-5.1-1.1-7.1
			c-0.7-2-1.7-3.6-3-4.7c-1.3-1.1-2.8-1.6-4.5-1.6c-1.7,0-3.3,0.5-4.6,1.6c-1.3,1.1-2.3,2.6-3,4.7c-0.7,2-1.1,4.4-1.1,7.1
			c0,2.9,0.3,5.4,1,7.4c0.7,2,1.7,3.6,3,4.6c1.3,1,2.8,1.6,4.6,1.6C2850.1,1698,2851.6,1697.5,2852.9,1696.4z"/>
		<path class="st19" d="M2874,1700.3c-2.1-1.4-3.7-3.4-4.8-6.1c-1.1-2.7-1.7-6-1.7-9.8c0-3.8,0.6-7,1.8-9.7s2.9-4.7,4.9-6
			c2.1-1.4,4.4-2,7-2c2.5,0,4.9,0.7,6.9,2c2.1,1.4,3.7,3.4,4.9,6s1.8,5.9,1.8,9.7c0,3.8-0.6,7.1-1.7,9.8c-1.1,2.7-2.7,4.7-4.8,6.1
			s-4.4,2.1-7.2,2.1S2876.1,1701.7,2874,1700.3z M2885.8,1696.4c1.3-1,2.3-2.6,2.9-4.6c0.7-2,1-4.5,1-7.4c0-2.7-0.4-5.1-1.1-7.1
			c-0.7-2-1.7-3.6-3-4.7c-1.3-1.1-2.8-1.6-4.5-1.6c-1.7,0-3.3,0.5-4.6,1.6c-1.3,1.1-2.3,2.6-3,4.7c-0.7,2-1.1,4.4-1.1,7.1
			c0,2.9,0.3,5.4,1,7.4c0.7,2,1.7,3.6,3,4.6c1.3,1,2.8,1.6,4.6,1.6C2883,1698,2884.5,1697.5,2885.8,1696.4z"/>
	</g>
</g>
<line class="st23" x1="1499.5" y1="1004.5" x2="1400" y2="1004.5"/>
<circle class="st8" cx="1499.5" cy="1004.5" r="6.5"/>
</svg>
