<?xml version="1.0" encoding="utf-8"?>
<!-- Generator: Adobe Illustrator 22.0.0, SVG Export Plug-In . SVG Version: 6.00 Build 0)  -->
<svg version="1.1" id="Layer_1" xmlns="http://www.w3.org/2000/svg" xmlns:xlink="http://www.w3.org/1999/xlink" x="0px" y="0px"
	 viewBox="0 0 3000 2000" style="enable-background:new 0 0 3000 2000;" xml:space="preserve">
<style type="text/css">
	.st0{fill:#F3F3F3;}
	.st1{opacity:0.3;}
	.st2{fill:none;stroke:#031F30;stroke-miterlimit:10;}
	.st3{fill:none;stroke:#031F30;stroke-width:1.25;stroke-miterlimit:10;}
	.st4{fill:#031F30;}
	.st5{opacity:0.5;}
	.st6{fill:#F3F4F5;}
	.st7{font-family:'MyriadPro-Regular';}
	.st8{font-size:12px;}
</style>
<rect class="st0" width="3000" height="2000"/>
<g class="st1">
	<rect x="1000" y="454.8" class="st2" width="1000" height="1090.4"/>
	<line class="st2" x1="1000" y1="1521" x2="2000" y2="1521"/>
	<line class="st2" x1="1000" y1="1496.7" x2="2000" y2="1496.7"/>
	<line class="st2" x1="1000" y1="1472.5" x2="2000" y2="1472.5"/>
	<line class="st2" x1="1000" y1="1448.3" x2="2000" y2="1448.3"/>
	<line class="st2" x1="1000" y1="1424" x2="2000" y2="1424"/>
	<line class="st2" x1="1000" y1="1399.8" x2="2000" y2="1399.8"/>
	<line class="st2" x1="1000" y1="1375.6" x2="2000" y2="1375.6"/>
	<line class="st2" x1="1000" y1="1351.3" x2="2000" y2="1351.3"/>
	<line class="st2" x1="1000" y1="1327.1" x2="2000" y2="1327.1"/>
	<line class="st2" x1="1000" y1="1302.9" x2="2000" y2="1302.9"/>
	<line class="st2" x1="1000" y1="1278.7" x2="2000" y2="1278.7"/>
	<line class="st2" x1="1000" y1="1254.4" x2="2000" y2="1254.4"/>
	<line class="st2" x1="1000" y1="1230.2" x2="2000" y2="1230.2"/>
	<line class="st2" x1="1000" y1="1206" x2="2000" y2="1206"/>
	<line class="st2" x1="1000" y1="1181.7" x2="2000" y2="1181.7"/>
	<line class="st2" x1="1000" y1="1157.5" x2="2000" y2="1157.5"/>
	<line class="st2" x1="1000" y1="1133.3" x2="2000" y2="1133.3"/>
	<line class="st2" x1="1000" y1="1109" x2="2000" y2="1109"/>
	<line class="st2" x1="1000" y1="1084.8" x2="2000" y2="1084.8"/>
	<line class="st2" x1="1000" y1="1060.6" x2="2000" y2="1060.6"/>
	<line class="st2" x1="1000" y1="1036.3" x2="2000" y2="1036.3"/>
	<line class="st2" x1="1000" y1="1012.1" x2="2000" y2="1012.1"/>
	<line class="st2" x1="1000" y1="987.9" x2="2000" y2="987.9"/>
	<line class="st2" x1="1000" y1="963.7" x2="2000" y2="963.7"/>
	<line class="st2" x1="1000" y1="939.4" x2="2000" y2="939.4"/>
	<line class="st2" x1="1000" y1="915.2" x2="2000" y2="915.2"/>
	<line class="st2" x1="1000" y1="891" x2="2000" y2="891"/>
	<line class="st2" x1="1000" y1="866.7" x2="2000" y2="866.7"/>
	<line class="st2" x1="1000" y1="842.5" x2="2000" y2="842.5"/>
	<line class="st2" x1="1000" y1="818.3" x2="2000" y2="818.3"/>
	<line class="st2" x1="1000" y1="794" x2="2000" y2="794"/>
	<line class="st2" x1="1000" y1="769.8" x2="2000" y2="769.8"/>
	<line class="st2" x1="1000" y1="745.6" x2="2000" y2="745.6"/>
	<line class="st2" x1="1000" y1="721.3" x2="2000" y2="721.3"/>
	<line class="st2" x1="1000" y1="697.1" x2="2000" y2="697.1"/>
	<line class="st2" x1="1000" y1="672.9" x2="2000" y2="672.9"/>
	<line class="st2" x1="1000" y1="648.7" x2="2000" y2="648.7"/>
	<line class="st2" x1="1000" y1="624.4" x2="2000" y2="624.4"/>
	<line class="st2" x1="1000" y1="600.2" x2="2000" y2="600.2"/>
	<line class="st2" x1="1000" y1="576" x2="2000" y2="576"/>
	<line class="st2" x1="1000" y1="551.7" x2="2000" y2="551.7"/>
	<line class="st2" x1="1000" y1="527.5" x2="2000" y2="527.5"/>
	<line class="st2" x1="1000" y1="503.3" x2="2000" y2="503.3"/>
	<line class="st2" x1="1000" y1="479" x2="2000" y2="479"/>
	<line class="st2" x1="1974.4" y1="454.8" x2="1974.4" y2="1545.2"/>
	<line class="st2" x1="1948.7" y1="454.8" x2="1948.7" y2="1545.2"/>
	<line class="st2" x1="1923.1" y1="454.8" x2="1923.1" y2="1545.2"/>
	<line class="st2" x1="1897.4" y1="454.8" x2="1897.4" y2="1545.2"/>
	<line class="st2" x1="1871.8" y1="454.8" x2="1871.8" y2="1545.2"/>
	<line class="st2" x1="1846.2" y1="454.8" x2="1846.2" y2="1545.2"/>
	<line class="st2" x1="1820.5" y1="454.8" x2="1820.5" y2="1545.2"/>
	<line class="st2" x1="1794.9" y1="454.8" x2="1794.9" y2="1545.2"/>
	<line class="st2" x1="1769.2" y1="454.8" x2="1769.2" y2="1545.2"/>
	<line class="st2" x1="1743.6" y1="454.8" x2="1743.6" y2="1545.2"/>
	<line class="st2" x1="1717.9" y1="454.8" x2="1717.9" y2="1545.2"/>
	<line class="st2" x1="1692.3" y1="454.8" x2="1692.3" y2="1545.2"/>
	<line class="st2" x1="1666.7" y1="454.8" x2="1666.7" y2="1545.2"/>
	<line class="st2" x1="1641" y1="454.8" x2="1641" y2="1545.2"/>
	<line class="st2" x1="1615.4" y1="454.8" x2="1615.4" y2="1545.2"/>
	<line class="st2" x1="1589.7" y1="454.8" x2="1589.7" y2="1545.2"/>
	<line class="st2" x1="1564.1" y1="454.8" x2="1564.1" y2="1545.2"/>
	<line class="st2" x1="1538.5" y1="454.8" x2="1538.5" y2="1545.2"/>
	<line class="st2" x1="1512.8" y1="454.8" x2="1512.8" y2="1545.2"/>
	<line class="st2" x1="1487.2" y1="454.8" x2="1487.2" y2="1545.2"/>
	<line class="st2" x1="1461.5" y1="454.8" x2="1461.5" y2="1545.2"/>
	<line class="st2" x1="1435.9" y1="454.8" x2="1435.9" y2="1545.2"/>
	<line class="st2" x1="1410.3" y1="454.8" x2="1410.3" y2="1545.2"/>
	<line class="st2" x1="1384.6" y1="454.8" x2="1384.6" y2="1545.2"/>
	<line class="st2" x1="1359" y1="454.8" x2="1359" y2="1545.2"/>
	<line class="st2" x1="1333.3" y1="454.8" x2="1333.3" y2="1545.2"/>
	<line class="st2" x1="1307.7" y1="454.8" x2="1307.7" y2="1545.2"/>
	<line class="st2" x1="1282.1" y1="454.8" x2="1282.1" y2="1545.2"/>
	<line class="st2" x1="1256.4" y1="454.8" x2="1256.4" y2="1545.2"/>
	<line class="st2" x1="1230.8" y1="454.8" x2="1230.8" y2="1545.2"/>
	<line class="st2" x1="1205.1" y1="454.8" x2="1205.1" y2="1545.2"/>
	<line class="st2" x1="1179.5" y1="454.8" x2="1179.5" y2="1545.2"/>
	<line class="st2" x1="1153.8" y1="454.8" x2="1153.8" y2="1545.2"/>
	<line class="st2" x1="1128.2" y1="454.8" x2="1128.2" y2="1545.2"/>
	<line class="st2" x1="1102.6" y1="454.8" x2="1102.6" y2="1545.2"/>
	<line class="st2" x1="1076.9" y1="454.8" x2="1076.9" y2="1545.2"/>
	<line class="st2" x1="1051.3" y1="454.8" x2="1051.3" y2="1545.2"/>
	<line class="st2" x1="1025.6" y1="454.8" x2="1025.6" y2="1545.2"/>
</g>
<path class="st3" d="M2000,1199.4V862.3c0-88.9-48-171.8-124.9-216.5l-291.6-168.6c-51.2-29.8-115.4-29.8-166.9,0L1124.9,646
	c-77,44.4-124.9,126.6-124.9,216.5v337.1c0,59.9,31.7,114.6,82.9,143.6l291.6,168.6c77.8,44.4,172.9,44.4,249.9,0l291.6-168.6
	C1968.3,1313.2,2000,1258.5,2000,1199.4z M1908.7,1303.2h-817.9l-55.6-92.7l408.9-707.3h111.1l408.9,708.4L1908.7,1303.2z"/>
<g>
	<g>
		<line class="st3" x1="1048" y1="690.4" x2="1124.9" y2="646"/>
		<line class="st3" x1="1000" y1="772.6" x2="1000" y2="866.7"/>
		<line class="st3" x1="1468" y1="447.4" x2="1416.5" y2="477.2"/>
		<line class="st3" x1="1952.2" y1="690.4" x2="1875.3" y2="646"/>
		<line class="st3" x1="2000.2" y1="772.6" x2="2000.2" y2="866.7"/>
		<line class="st3" x1="1532.2" y1="447.4" x2="1583.7" y2="477.2"/>
	</g>
	<g>
		<circle class="st4" cx="1000" cy="774.1" r="4.5"/>
		<circle class="st4" cx="1048" cy="690.4" r="4.5"/>
		<rect x="1121.8" y="642.9" class="st4" width="6.3" height="6.3"/>
		<rect x="996.9" y="863.6" class="st4" width="6.3" height="6.3"/>
		<rect x="1413.4" y="474" class="st4" width="6.3" height="6.3"/>
		<circle class="st4" cx="1468" cy="447.4" r="4.5"/>
		<circle class="st4" cx="2000.2" cy="774.1" r="4.5"/>
		<circle class="st4" cx="1952.2" cy="690.4" r="4.5"/>
		
			<rect x="1872.2" y="642.9" transform="matrix(-1 -4.481982e-11 4.481982e-11 -1 3750.554 1292.0055)" class="st4" width="6.3" height="6.3"/>
		
			<rect x="1997.1" y="863.6" transform="matrix(-1 -4.481982e-11 4.481982e-11 -1 4000.4185 1733.4628)" class="st4" width="6.3" height="6.3"/>
		
			<rect x="1580.6" y="474" transform="matrix(-1 -4.467461e-11 4.467461e-11 -1 3167.3562 954.3359)" class="st4" width="6.3" height="6.3"/>
		<circle class="st4" cx="1532.3" cy="447.4" r="4.5"/>
	</g>
</g>
<g>
	<g>
		<line class="st3" x1="1020.1" y1="1306.5" x2="1078.3" y2="1340.2"/>
		<line class="st3" x1="1000" y1="1264.7" x2="1000" y2="1201"/>
		<line class="st3" x1="1451.2" y1="1555.9" x2="1378.6" y2="1513.9"/>
		<line class="st3" x1="1980.4" y1="1306.5" x2="1922.2" y2="1340.2"/>
		<line class="st3" x1="2000.5" y1="1264.7" x2="2000.5" y2="1201"/>
		<line class="st3" x1="1549.3" y1="1555.9" x2="1621.9" y2="1513.9"/>
	</g>
	<g>
		<circle class="st4" cx="1000" cy="1264.7" r="4.5"/>
		<circle class="st4" cx="1020.1" cy="1306.5" r="4.5"/>
		<rect x="1075.2" y="1337" class="st4" width="6.3" height="6.3"/>
		<rect x="996.9" y="1197.9" class="st4" width="6.3" height="6.3"/>
		<rect x="1375.4" y="1510.8" class="st4" width="6.3" height="6.3"/>
		<circle class="st4" cx="1451.2" cy="1555.9" r="4.5"/>
		<circle class="st4" cx="2000.5" cy="1264.7" r="4.5"/>
		<circle class="st4" cx="1980.4" cy="1306.5" r="4.5"/>
		
			<rect x="1919" y="1337" transform="matrix(-1 -1.224647e-16 1.224647e-16 -1 3844.3206 2680.3342)" class="st4" width="6.3" height="6.3"/>
		
			<rect x="1997.4" y="1197.9" transform="matrix(-1 -1.224647e-16 1.224647e-16 -1 4001 2402.0015)" class="st4" width="6.3" height="6.3"/>
		
			<rect x="1618.8" y="1510.8" transform="matrix(-1 -1.224647e-16 1.224647e-16 -1 3243.8516 3027.7876)" class="st4" width="6.3" height="6.3"/>
		<circle class="st4" cx="1549.3" cy="1555.9" r="4.5"/>
	</g>
</g>
<g>
	<g>
		<path class="st4" d="M-812.5,602.3h3v23.3h-3V602.3z M-809.9,612.2h13.4v2.8h-13.4V612.2z M-796.8,602.3h3v23.3h-3V602.3z"/>
		<path class="st4" d="M-778.8,612.6c-0.3-0.5-0.7-0.9-1.2-1.1c-0.5-0.3-1.2-0.4-2.1-0.4c-1.3,0-2.3,0.3-3,0.9
			c-0.7,0.6-1.2,1.3-1.5,2.2l-2.6-0.9c0.2-0.8,0.6-1.5,1.2-2.2c0.6-0.7,1.4-1.2,2.4-1.7c1-0.4,2.2-0.7,3.6-0.7
			c1.5,0,2.7,0.2,3.6,0.7c1,0.5,1.7,1.1,2.2,2c0.5,0.9,0.7,1.9,0.7,3v7.7c0,0.4,0.1,0.7,0.2,0.9c0.2,0.2,0.4,0.2,0.8,0.2h1.7v2.4
			h-1.4c-0.8,0-1.4-0.1-1.9-0.3c-0.4-0.2-0.8-0.6-1-1.1c-0.2-0.5-0.3-1.2-0.3-2.1h-1.2c-0.3,1.2-0.9,2.1-1.8,2.8
			c-0.9,0.7-2,1.1-3.4,1.1c-1.6,0-2.9-0.4-3.8-1.3c-0.9-0.8-1.4-2-1.4-3.4c0-1.5,0.5-2.7,1.5-3.6c1-0.9,2.3-1.6,3.9-2.1
			c1.6-0.5,3.4-0.8,5.5-0.9l0,2.1c-2.4,0.2-4.4,0.6-5.8,1.3c-1.4,0.7-2.2,1.7-2.2,3c0,0.8,0.3,1.4,0.8,1.9c0.5,0.5,1.3,0.7,2.3,0.7
			c0.8,0,1.5-0.2,2.2-0.5c0.7-0.4,1.2-0.9,1.7-1.7c0.4-0.8,0.6-1.7,0.6-2.8v-4.4C-778.4,613.7-778.5,613.1-778.8,612.6z"/>
		<path class="st4" d="M-769.8,609.2h2.8v14.1h7v-14.1h2.8v14.1h7v-14.1h2.8v16.5h-22.6V609.2z"/>
		<path class="st4" d="M-732.6,612.6c-0.3-0.5-0.7-0.9-1.2-1.1c-0.5-0.3-1.2-0.4-2.1-0.4c-1.3,0-2.3,0.3-3,0.9
			c-0.7,0.6-1.2,1.3-1.5,2.2l-2.6-0.9c0.2-0.8,0.6-1.5,1.2-2.2c0.6-0.7,1.4-1.2,2.4-1.7c1-0.4,2.2-0.7,3.6-0.7
			c1.5,0,2.7,0.2,3.6,0.7c1,0.5,1.7,1.1,2.2,2c0.5,0.9,0.7,1.9,0.7,3v7.7c0,0.4,0.1,0.7,0.2,0.9c0.2,0.2,0.4,0.2,0.8,0.2h1.7v2.4
			h-1.4c-0.8,0-1.4-0.1-1.9-0.3c-0.4-0.2-0.8-0.6-1-1.1c-0.2-0.5-0.3-1.2-0.3-2.1h-1.2c-0.3,1.2-0.9,2.1-1.8,2.8
			c-0.9,0.7-2,1.1-3.4,1.1c-1.6,0-2.9-0.4-3.8-1.3c-0.9-0.8-1.4-2-1.4-3.4c0-1.5,0.5-2.7,1.5-3.6c1-0.9,2.3-1.6,3.9-2.1
			c1.6-0.5,3.4-0.8,5.5-0.9l0,2.1c-2.4,0.2-4.4,0.6-5.8,1.3c-1.4,0.7-2.2,1.7-2.2,3c0,0.8,0.3,1.4,0.8,1.9c0.5,0.5,1.3,0.7,2.3,0.7
			c0.8,0,1.5-0.2,2.2-0.5c0.7-0.4,1.2-0.9,1.7-1.7c0.4-0.8,0.6-1.7,0.6-2.8v-4.4C-732.2,613.7-732.3,613.1-732.6,612.6z"/>
		<path class="st4" d="M-716,609.2h2.8v8.5h1.2c0.1-0.7,0.3-1.3,0.6-1.8c0.3-0.5,0.9-1.1,1.8-2l4.9-4.7h3.7l-8,7.5l-0.6,0.5
			l-4.5,4.3l1-1.8v5.9h-2.8V609.2z M-710.7,617.5l2.1-1.8l8.2,10h-3.6L-710.7,617.5z"/>
		<path class="st4" d="M-694.7,625c-1.2-0.7-2.1-1.8-2.8-3.1s-1.1-2.8-1.1-4.5c0-1.7,0.3-3.2,1-4.5s1.6-2.4,2.8-3.1
			c1.2-0.7,2.5-1.1,4-1.1c1.4,0,2.8,0.4,4,1.1c1.2,0.7,2.1,1.8,2.8,3.1c0.7,1.3,1,2.8,1,4.5c0,1.7-0.3,3.2-1,4.5
			c-0.7,1.3-1.6,2.3-2.8,3.1c-1.2,0.7-2.5,1.1-3.9,1.1C-692.2,626.1-693.5,625.8-694.7,625z M-688.2,623c0.7-0.5,1.3-1.2,1.7-2.1
			c0.4-0.9,0.6-2.1,0.6-3.4c0-1.4-0.2-2.5-0.6-3.5c-0.4-0.9-1-1.7-1.7-2.1c-0.7-0.5-1.6-0.7-2.5-0.7c-1,0-1.8,0.2-2.6,0.7
			c-0.7,0.5-1.3,1.2-1.7,2.1c-0.4,0.9-0.6,2.1-0.6,3.5c0,1.4,0.2,2.5,0.6,3.4c0.4,0.9,1,1.6,1.7,2.1c0.7,0.5,1.6,0.7,2.6,0.7
			C-689.8,623.7-689,623.5-688.2,623z"/>
		<path class="st4" d="M-678.7,609.2h4.8l3.7,8.5c0.1,0.2,0.2,0.5,0.3,0.7c0.3,0.6,0.5,1.3,0.6,2c0.1,0.7,0.2,1.4,0.2,2.1h1.4
			c0-0.8,0.1-1.5,0.3-2.2c0.1-0.7,0.4-1.4,0.6-2.1c0-0.1,0.1-0.3,0.3-0.6l3.8-8.5h4.6v16.5h-2.8v-8.6c0-1.1,0.1-2.1,0.3-2.9
			c0.2-0.9,0.5-1.7,0.8-2.5l-1.3-0.4l-6.2,14.5h-2.1l-6.2-14.5l-1.3,0.5c0.4,0.8,0.6,1.7,0.8,2.5c0.2,0.9,0.3,1.8,0.3,2.9v8.5h-2.8
			V609.2z"/>
		<path class="st4" d="M-652.2,609.2h13.6v16.5h-2.8v-14.1h-8v14.1h-2.8V609.2z"/>
		<path class="st4" d="M-623.9,612.6c-0.3-0.5-0.7-0.9-1.2-1.1c-0.5-0.3-1.2-0.4-2.1-0.4c-1.3,0-2.3,0.3-3,0.9
			c-0.7,0.6-1.2,1.3-1.5,2.2l-2.6-0.9c0.2-0.8,0.6-1.5,1.2-2.2c0.6-0.7,1.4-1.2,2.4-1.7c1-0.4,2.2-0.7,3.6-0.7
			c1.5,0,2.7,0.2,3.6,0.7c1,0.5,1.7,1.1,2.2,2c0.5,0.9,0.7,1.9,0.7,3v7.7c0,0.4,0.1,0.7,0.2,0.9c0.2,0.2,0.4,0.2,0.8,0.2h1.7v2.4
			h-1.4c-0.8,0-1.4-0.1-1.9-0.3c-0.4-0.2-0.8-0.6-1-1.1c-0.2-0.5-0.3-1.2-0.3-2.1h-1.2c-0.3,1.2-0.9,2.1-1.8,2.8
			c-0.9,0.7-2,1.1-3.4,1.1c-1.6,0-2.9-0.4-3.8-1.3c-0.9-0.8-1.4-2-1.4-3.4c0-1.5,0.5-2.7,1.5-3.6c1-0.9,2.3-1.6,3.9-2.1
			c1.6-0.5,3.4-0.8,5.5-0.9l0,2.1c-2.4,0.2-4.4,0.6-5.8,1.3c-1.4,0.7-2.2,1.7-2.2,3c0,0.8,0.3,1.4,0.8,1.9c0.5,0.5,1.3,0.7,2.3,0.7
			c0.8,0,1.5-0.2,2.2-0.5c0.7-0.4,1.2-0.9,1.7-1.7c0.4-0.8,0.6-1.7,0.6-2.8v-4.4C-623.5,613.7-623.7,613.1-623.9,612.6z"/>
		<path class="st4" d="M-614.9,609.2h2.8v6.8h8.1v-6.8h2.8v16.5h-2.8v-7.3h-8.1v7.3h-2.8V609.2z"/>
		<path class="st4" d="M-595.5,609.2h2.8v9c0,1-0.1,1.8-0.3,2.5c-0.2,0.7-0.4,1.4-0.8,2l1.3,0.6l7-14.2h4.4v16.5h-2.8v-9
			c0-1,0.1-1.8,0.3-2.5c0.2-0.7,0.4-1.4,0.8-2.1l-1.3-0.6l-7,14.2h-4.5V609.2z"/>
		<path class="st4" d="M-573.8,620.1c0.3-0.3,0.6-0.6,0.9-0.7c0.3-0.2,0.7-0.3,1.2-0.3V618c-1.4-0.1-2.5-0.5-3.3-1.3
			c-0.8-0.7-1.2-1.7-1.2-3c0-0.9,0.2-1.7,0.7-2.4c0.4-0.7,1.1-1.2,1.9-1.6c0.8-0.4,1.8-0.6,3-0.6h7.9v16.5h-2.8v-6.3h-4.8l-3.1,6.3
			h-3.3l2.2-4.1C-574.4,620.9-574,620.5-573.8,620.1z M-565.6,611.5h-4.5c-0.9,0-1.7,0.2-2.3,0.7c-0.6,0.5-0.9,1.2-0.9,2.2
			c0,0.9,0.3,1.6,0.9,2.1c0.6,0.5,1.3,0.7,2.3,0.7h4.5V611.5z"/>
		<path class="st4" d="M-549,624.9c-1.2-0.8-2-1.9-2.4-3.4l2.7-1c0.3,1,0.8,1.9,1.6,2.4c0.8,0.6,1.8,0.9,3.1,0.9
			c1.2,0,2.1-0.2,2.8-0.7s1-1.2,1-2s-0.3-1.5-0.8-2c-0.5-0.5-1.3-0.7-2.4-0.7h-3.1V616h3.3c0.8,0,1.5-0.2,2-0.6
			c0.5-0.4,0.8-1,0.8-1.8c0-0.8-0.3-1.4-0.9-1.9c-0.6-0.5-1.4-0.7-2.4-0.7c-1.1,0-2,0.2-2.8,0.7c-0.8,0.5-1.3,1.2-1.6,2l-2.6-1.1
			c0.5-1.2,1.4-2.1,2.5-2.8c1.1-0.7,2.7-1.1,4.6-1.1c1.4,0,2.5,0.2,3.4,0.6c0.9,0.4,1.6,0.9,2,1.6c0.4,0.7,0.7,1.4,0.7,2.2
			c0,1-0.3,1.8-1,2.5s-1.5,1-2.5,1v1.3c1.1,0.1,2,0.5,2.7,1.1s1.1,1.5,1.1,2.6c0,1-0.3,1.8-0.8,2.5c-0.5,0.7-1.3,1.2-2.3,1.6
			c-1,0.4-2.2,0.5-3.6,0.5C-546.2,626.1-547.8,625.7-549,624.9z"/>
		<path class="st4" d="M-523.9,612.6c-0.3-0.5-0.7-0.9-1.2-1.1c-0.5-0.3-1.2-0.4-2.1-0.4c-1.3,0-2.3,0.3-3,0.9
			c-0.7,0.6-1.2,1.3-1.5,2.2l-2.6-0.9c0.2-0.8,0.6-1.5,1.2-2.2c0.6-0.7,1.4-1.2,2.4-1.7c1-0.4,2.2-0.7,3.6-0.7
			c1.5,0,2.7,0.2,3.6,0.7c1,0.5,1.7,1.1,2.2,2c0.5,0.9,0.7,1.9,0.7,3v7.7c0,0.4,0.1,0.7,0.2,0.9c0.2,0.2,0.4,0.2,0.8,0.2h1.7v2.4
			h-1.4c-0.8,0-1.4-0.1-1.9-0.3c-0.4-0.2-0.8-0.6-1-1.1c-0.2-0.5-0.3-1.2-0.3-2.1h-1.2c-0.3,1.2-0.9,2.1-1.8,2.8
			c-0.9,0.7-2,1.1-3.4,1.1c-1.6,0-2.9-0.4-3.8-1.3c-0.9-0.8-1.4-2-1.4-3.4c0-1.5,0.5-2.7,1.5-3.6c1-0.9,2.3-1.6,3.9-2.1
			c1.6-0.5,3.4-0.8,5.5-0.9l0,2.1c-2.4,0.2-4.4,0.6-5.8,1.3c-1.4,0.7-2.2,1.7-2.2,3c0,0.8,0.3,1.4,0.8,1.9c0.5,0.5,1.3,0.7,2.3,0.7
			c0.8,0,1.5-0.2,2.2-0.5c0.7-0.4,1.2-0.9,1.7-1.7c0.4-0.8,0.6-1.7,0.6-2.8v-4.4C-523.5,613.7-523.6,613.1-523.9,612.6z"/>
		<path class="st4" d="M-514.9,609.2h2.8v6.8h8.1v-6.8h2.8v16.5h-2.8v-7.3h-8.1v7.3h-2.8V609.2z"/>
		<path class="st4" d="M-495.5,609.2h2.8v9c0,1-0.1,1.8-0.3,2.5c-0.2,0.7-0.4,1.4-0.8,2l1.3,0.6l7-14.2h4.4v16.5h-2.8v-9
			c0-1,0.1-1.8,0.3-2.5c0.2-0.7,0.4-1.4,0.8-2.1l-1.3-0.6l-7,14.2h-4.5V609.2z"/>
		<path class="st4" d="M-475.3,609.2h4.8l3.7,8.5c0.1,0.2,0.2,0.5,0.3,0.7c0.3,0.6,0.5,1.3,0.6,2c0.1,0.7,0.2,1.4,0.2,2.1h1.4
			c0-0.8,0.1-1.5,0.3-2.2c0.1-0.7,0.4-1.4,0.6-2.1c0-0.1,0.1-0.3,0.3-0.6l3.8-8.5h4.6v16.5h-2.8v-8.6c0-1.1,0.1-2.1,0.3-2.9
			c0.2-0.9,0.5-1.7,0.8-2.5l-1.3-0.4l-6.2,14.5h-2.1l-6.2-14.5l-1.3,0.5c0.4,0.8,0.6,1.7,0.8,2.5c0.2,0.9,0.3,1.8,0.3,2.9v8.5h-2.8
			V609.2z"/>
		<path class="st4" d="M-439.8,612.6c-0.3-0.5-0.7-0.9-1.2-1.1c-0.5-0.3-1.2-0.4-2.1-0.4c-1.3,0-2.3,0.3-3,0.9
			c-0.7,0.6-1.2,1.3-1.5,2.2l-2.6-0.9c0.2-0.8,0.6-1.5,1.2-2.2c0.6-0.7,1.4-1.2,2.4-1.7c1-0.4,2.2-0.7,3.6-0.7
			c1.5,0,2.7,0.2,3.6,0.7c1,0.5,1.7,1.1,2.2,2c0.5,0.9,0.7,1.9,0.7,3v7.7c0,0.4,0.1,0.7,0.2,0.9c0.2,0.2,0.4,0.2,0.8,0.2h1.7v2.4
			h-1.4c-0.8,0-1.4-0.1-1.9-0.3c-0.4-0.2-0.8-0.6-1-1.1c-0.2-0.5-0.3-1.2-0.3-2.1h-1.2c-0.3,1.2-0.9,2.1-1.8,2.8
			c-0.9,0.7-2,1.1-3.4,1.1c-1.6,0-2.9-0.4-3.8-1.3c-0.9-0.8-1.4-2-1.4-3.4c0-1.5,0.5-2.7,1.5-3.6c1-0.9,2.3-1.6,3.9-2.1
			c1.6-0.5,3.4-0.8,5.5-0.9l0,2.1c-2.4,0.2-4.4,0.6-5.8,1.3c-1.4,0.7-2.2,1.7-2.2,3c0,0.8,0.3,1.4,0.8,1.9c0.5,0.5,1.3,0.7,2.3,0.7
			c0.8,0,1.5-0.2,2.2-0.5c0.7-0.4,1.2-0.9,1.7-1.7c0.4-0.8,0.6-1.7,0.6-2.8v-4.4C-439.4,613.7-439.6,613.1-439.8,612.6z"/>
		<path class="st4" d="M-428.5,625.1c-1.1-0.7-2-1.7-2.6-3c-0.6-1.3-1-2.9-1-4.7c0-1.8,0.3-3.3,1-4.6c0.6-1.3,1.5-2.3,2.6-3.1
			c1.1-0.7,2.4-1.1,3.8-1.1c1.6,0,3,0.4,4.1,1.2c1.1,0.8,2,1.9,2.5,3.4c0.5,1.4,0.7,3,0.6,4.8h-11.8c0,1.3,0.3,2.4,0.7,3.2
			s1,1.5,1.7,1.9c0.7,0.4,1.5,0.6,2.4,0.6c1.2,0,2.2-0.3,2.9-1c0.7-0.7,1.3-1.4,1.6-2.3l2.6,0.9c-0.6,1.5-1.5,2.7-2.7,3.5
			c-1.2,0.8-2.7,1.2-4.4,1.2C-426.1,626.1-427.4,625.8-428.5,625.1z M-420.9,613.2c-0.4-0.7-0.9-1.3-1.6-1.7
			c-0.7-0.4-1.4-0.6-2.2-0.6c-1.2,0-2.2,0.4-3,1.3s-1.3,2-1.5,3.5h8.8C-420.3,614.8-420.5,614-420.9,613.2z"/>
		<path class="st4" d="M-409,611.6h-6.1v-2.4h15v2.4h-6.1v14.1h-2.8V611.6z"/>
		<path class="st4" d="M-394,625.1c-1.2-0.7-2.1-1.7-2.8-3.1c-0.7-1.3-1-2.9-1-4.6c0-1.7,0.3-3.2,1-4.5c0.7-1.3,1.6-2.4,2.8-3.1
			c1.2-0.7,2.5-1.1,4.1-1.1c1.2,0,2.2,0.2,3.2,0.6c1,0.4,1.7,1,2.4,1.7s1.1,1.5,1.3,2.4l-2.6,0.9c-0.3-0.9-0.8-1.7-1.5-2.3
			c-0.7-0.6-1.6-0.9-2.7-0.9c-0.9,0-1.7,0.2-2.5,0.7c-0.7,0.5-1.3,1.2-1.8,2.1c-0.4,0.9-0.7,2.1-0.7,3.4c0,1.4,0.2,2.5,0.6,3.5
			c0.4,0.9,1,1.7,1.8,2.1c0.7,0.5,1.6,0.7,2.5,0.7c1.2,0,2.2-0.3,3-1s1.3-1.6,1.6-2.7l2.7,0.9c-0.6,1.6-1.5,2.8-2.7,3.8
			c-1.2,1-2.7,1.4-4.5,1.4C-391.4,626.1-392.8,625.8-394,625.1z"/>
		<path class="st4" d="M-377,620.1c0.3-0.3,0.6-0.6,0.9-0.7c0.3-0.2,0.7-0.3,1.2-0.3V618c-1.4-0.1-2.5-0.5-3.3-1.3
			c-0.8-0.7-1.2-1.7-1.2-3c0-0.9,0.2-1.7,0.7-2.4c0.4-0.7,1.1-1.2,1.9-1.6c0.8-0.4,1.8-0.6,3-0.6h7.9v16.5h-2.8v-6.3h-4.8l-3.1,6.3
			h-3.3l2.2-4.1C-377.6,620.9-377.3,620.5-377,620.1z M-368.9,611.5h-4.5c-0.9,0-1.7,0.2-2.3,0.7c-0.6,0.5-0.9,1.2-0.9,2.2
			c0,0.9,0.3,1.6,0.9,2.1c0.6,0.5,1.3,0.7,2.3,0.7h4.5V611.5z"/>
		<path class="st4" d="M-814.7,669.7h3.1c0.6,0,1.2-0.1,1.5-0.4c0.4-0.2,0.7-0.7,1-1.4l1.5-4.2l-0.3,2.4l-7.6-17h3.1l3.7,8.6
			c0.1,0.2,0.1,0.4,0.2,0.4c0.2,0.7,0.4,1.3,0.5,2c0.1,0.7,0.2,1.5,0.2,2.3h1.3c0-0.9,0.1-1.7,0.2-2.4c0.1-0.7,0.3-1.4,0.5-2.1
			l3-8.9h3l-6.6,18.9c-0.4,1.1-0.7,1.9-1.2,2.5c-0.4,0.6-0.9,1-1.6,1.3c-0.6,0.3-1.4,0.4-2.4,0.4h-3.2V669.7z"/>
		<path class="st4" d="M-793.4,665.1c-1.2-0.7-2.1-1.7-2.8-3.1c-0.7-1.3-1-2.9-1-4.6c0-1.7,0.3-3.2,1-4.5c0.7-1.3,1.6-2.4,2.8-3.1
			c1.2-0.7,2.5-1.1,4.1-1.1c1.2,0,2.2,0.2,3.2,0.6c1,0.4,1.7,1,2.4,1.7s1.1,1.5,1.3,2.4l-2.6,0.9c-0.3-0.9-0.8-1.7-1.5-2.3
			c-0.7-0.6-1.6-0.9-2.7-0.9c-0.9,0-1.7,0.2-2.5,0.7c-0.7,0.5-1.3,1.2-1.8,2.1c-0.4,0.9-0.7,2.1-0.7,3.4c0,1.4,0.2,2.5,0.6,3.5
			c0.4,0.9,1,1.7,1.8,2.1c0.7,0.5,1.6,0.7,2.5,0.7c1.2,0,2.2-0.3,3-1s1.3-1.6,1.6-2.7l2.7,0.9c-0.6,1.6-1.5,2.8-2.7,3.8
			c-1.2,1-2.7,1.4-4.5,1.4C-790.9,666.2-792.2,665.8-793.4,665.1z"/>
		<path class="st4" d="M-774.1,651.6h-6.1v-2.4h15v2.4h-6.1v14.1h-2.8V651.6z"/>
		<path class="st4" d="M-752.6,652.6c-0.3-0.5-0.7-0.9-1.2-1.1c-0.5-0.3-1.2-0.4-2.1-0.4c-1.3,0-2.3,0.3-3,0.9
			c-0.7,0.6-1.2,1.3-1.5,2.2l-2.6-0.9c0.2-0.8,0.6-1.5,1.2-2.2c0.6-0.7,1.4-1.2,2.4-1.7c1-0.4,2.2-0.7,3.6-0.7
			c1.5,0,2.7,0.2,3.6,0.7c1,0.5,1.7,1.1,2.2,2c0.5,0.9,0.7,1.9,0.7,3v7.7c0,0.4,0.1,0.7,0.2,0.9c0.2,0.2,0.4,0.2,0.8,0.2h1.7v2.4
			h-1.4c-0.8,0-1.4-0.1-1.9-0.3c-0.4-0.2-0.8-0.6-1-1.1c-0.2-0.5-0.3-1.2-0.3-2.1h-1.2c-0.3,1.2-0.9,2.1-1.8,2.8
			c-0.9,0.7-2,1.1-3.4,1.1c-1.6,0-2.9-0.4-3.8-1.3c-0.9-0.8-1.4-2-1.4-3.4c0-1.5,0.5-2.7,1.5-3.6c1-0.9,2.3-1.6,3.9-2.1
			c1.6-0.5,3.4-0.8,5.5-0.9l0,2.1c-2.4,0.2-4.4,0.6-5.8,1.3c-1.4,0.7-2.2,1.7-2.2,3c0,0.8,0.3,1.4,0.8,1.9c0.5,0.5,1.3,0.7,2.3,0.7
			c0.8,0,1.5-0.2,2.2-0.5c0.7-0.4,1.2-0.9,1.7-1.7c0.4-0.8,0.6-1.7,0.6-2.8v-4.4C-752.2,653.7-752.4,653.1-752.6,652.6z"/>
		<path class="st4" d="M-743.6,649.2h2.8v6.8h8.1v-6.8h2.8v16.5h-2.8v-7.3h-8.1v7.3h-2.8V649.2z"/>
		<path class="st4" d="M-721.6,665c-1.2-0.7-2.1-1.8-2.8-3.1s-1.1-2.8-1.1-4.5c0-1.7,0.3-3.2,1-4.5s1.6-2.4,2.8-3.1
			c1.2-0.7,2.5-1.1,4-1.1c1.4,0,2.8,0.4,4,1.1c1.2,0.7,2.1,1.8,2.8,3.1c0.7,1.3,1,2.8,1,4.5c0,1.7-0.3,3.2-1,4.5
			c-0.7,1.3-1.6,2.3-2.8,3.1c-1.2,0.7-2.5,1.1-3.9,1.1C-719.1,666.2-720.4,665.8-721.6,665z M-715.2,663c0.7-0.5,1.3-1.2,1.7-2.1
			c0.4-0.9,0.6-2.1,0.6-3.4c0-1.4-0.2-2.5-0.6-3.5c-0.4-0.9-1-1.7-1.7-2.1c-0.7-0.5-1.6-0.7-2.5-0.7c-1,0-1.8,0.2-2.6,0.7
			c-0.7,0.5-1.3,1.2-1.7,2.1c-0.4,0.9-0.6,2.1-0.6,3.5c0,1.4,0.2,2.5,0.6,3.4c0.4,0.9,1,1.6,1.7,2.1c0.7,0.5,1.6,0.7,2.6,0.7
			C-716.7,663.7-715.9,663.5-715.2,663z"/>
		<path class="st4" d="M-705.6,649.2h8.1c1.7,0,2.9,0.4,3.8,1.1c0.9,0.7,1.3,1.7,1.3,2.8c0,1-0.3,1.7-0.9,2.3s-1.4,0.9-2.4,1v1.3
			c1.1,0.1,2,0.4,2.8,1c0.7,0.6,1.1,1.5,1.1,2.6c0,0.9-0.2,1.7-0.7,2.3s-1.1,1.2-1.9,1.5c-0.8,0.4-1.7,0.5-2.7,0.5h-8.5V649.2z
			 M-695.9,655.4c0.5-0.4,0.7-1,0.7-1.7c0-0.7-0.2-1.2-0.7-1.6c-0.5-0.4-1.1-0.6-2-0.6h-4.8v4.5h4.8
			C-697.1,656-696.4,655.8-695.9,655.4z M-695.5,662.6c0.5-0.5,0.8-1.1,0.8-1.9c0-0.8-0.3-1.4-0.8-1.9c-0.5-0.4-1.3-0.7-2.2-0.7
			h-5.1v5.1h5.1C-696.7,663.4-696,663.1-695.5,662.6z"/>
		<path class="st4" d="M-687.4,649.2h2.8v8.5h1.2c0.1-0.7,0.3-1.3,0.6-1.8c0.3-0.5,0.9-1.1,1.8-2l4.9-4.7h3.7l-8,7.5l-0.6,0.5
			l-4.5,4.3l1-1.8v5.9h-2.8V649.2z M-682.1,657.5l2.1-1.8l8.2,10h-3.6L-682.1,657.5z"/>
		<path class="st4" d="M-666.1,665c-1.2-0.7-2.1-1.8-2.8-3.1s-1.1-2.8-1.1-4.5c0-1.7,0.3-3.2,1-4.5s1.6-2.4,2.8-3.1
			c1.2-0.7,2.5-1.1,4-1.1c1.4,0,2.8,0.4,4,1.1c1.2,0.7,2.1,1.8,2.8,3.1c0.7,1.3,1,2.8,1,4.5c0,1.7-0.3,3.2-1,4.5
			c-0.7,1.3-1.6,2.3-2.8,3.1c-1.2,0.7-2.5,1.1-3.9,1.1C-663.6,666.2-664.9,665.8-666.1,665z M-659.6,663c0.7-0.5,1.3-1.2,1.7-2.1
			c0.4-0.9,0.6-2.1,0.6-3.4c0-1.4-0.2-2.5-0.6-3.5c-0.4-0.9-1-1.7-1.7-2.1c-0.7-0.5-1.6-0.7-2.5-0.7c-1,0-1.8,0.2-2.6,0.7
			c-0.7,0.5-1.3,1.2-1.7,2.1c-0.4,0.9-0.6,2.1-0.6,3.5c0,1.4,0.2,2.5,0.6,3.4c0.4,0.9,1,1.6,1.7,2.1c0.7,0.5,1.6,0.7,2.6,0.7
			C-661.2,663.7-660.3,663.5-659.6,663z"/>
		<path class="st4" d="M-650,649.2h2.8v9c0,1-0.1,1.8-0.3,2.5c-0.2,0.7-0.4,1.4-0.8,2l1.3,0.6l7-14.2h4.4v16.5h-2.8v-9
			c0-1,0.1-1.8,0.3-2.5c0.2-0.7,0.4-1.4,0.8-2.1l-1.3-0.6l-7,14.2h-4.5V649.2z M-645.6,646.5c-0.7-0.4-1.3-1-1.7-1.6
			s-0.5-1.4-0.6-2.2h2.5c0.1,0.7,0.3,1.3,0.8,1.7c0.4,0.4,1,0.6,1.8,0.6c0.8,0,1.4-0.2,1.8-0.6c0.4-0.4,0.7-1,0.8-1.7h2.5
			c0,1.2-0.5,2.3-1.3,3.1c-0.8,0.9-2.1,1.3-3.7,1.3C-643.9,647.1-644.8,646.9-645.6,646.5z"/>
		<path class="st4" d="M-628.4,665.7h-2.1v-4.1h3.9v4.1l-2.5,4.5h-1.8L-628.4,665.7z"/>
		<path class="st4" d="M-611,665c-1.2-0.7-2.1-1.8-2.8-3.1s-1.1-2.8-1.1-4.5c0-1.7,0.3-3.2,1-4.5s1.6-2.4,2.8-3.1
			c1.2-0.7,2.5-1.1,4-1.1c1.4,0,2.8,0.4,4,1.1c1.2,0.7,2.1,1.8,2.8,3.1c0.7,1.3,1,2.8,1,4.5c0,1.7-0.3,3.2-1,4.5
			c-0.7,1.3-1.6,2.3-2.8,3.1c-1.2,0.7-2.5,1.1-3.9,1.1C-608.5,666.2-609.9,665.8-611,665z M-604.6,663c0.7-0.5,1.3-1.2,1.7-2.1
			c0.4-0.9,0.6-2.1,0.6-3.4c0-1.4-0.2-2.5-0.6-3.5c-0.4-0.9-1-1.7-1.7-2.1c-0.7-0.5-1.6-0.7-2.5-0.7c-1,0-1.8,0.2-2.6,0.7
			c-0.7,0.5-1.3,1.2-1.7,2.1c-0.4,0.9-0.6,2.1-0.6,3.5c0,1.4,0.2,2.5,0.6,3.4c0.4,0.9,1,1.6,1.7,2.1c0.7,0.5,1.6,0.7,2.6,0.7
			C-606.2,663.7-605.3,663.5-604.6,663z"/>
		<path class="st4" d="M-592,665c-1.2-0.7-2-1.8-2.6-3.2c-0.6-1.4-0.9-3-0.9-4.8v-6.8c0-1.4,0.3-2.7,0.8-3.7c0.5-1,1.3-1.9,2.4-2.5
			c1.1-0.6,2.5-0.9,4.2-0.9h4.1c0.6,0,0.9-0.1,1.1-0.3c0.2-0.2,0.3-0.5,0.3-1v-0.1h2.5v0.4c0,0.8-0.1,1.5-0.4,2
			c-0.2,0.5-0.6,0.9-1.2,1.2s-1.2,0.4-2.1,0.4h-4.3c-1.7,0-2.9,0.4-3.7,1.2s-1.1,2-1.1,3.5v2.9h1.2c0.4-0.9,1-1.7,1.9-2.3
			c0.8-0.6,1.9-0.8,3.2-0.8c1.2,0,2.4,0.3,3.4,1c1,0.7,1.8,1.6,2.4,2.8c0.6,1.2,0.9,2.6,0.9,4.2c0,1.5-0.3,2.9-1,4.1
			c-0.6,1.2-1.5,2.2-2.7,2.9c-1.2,0.7-2.5,1-4,1C-589.4,666.2-590.8,665.8-592,665z M-585.2,663.1c0.7-0.4,1.3-1.1,1.7-1.9
			c0.4-0.8,0.6-1.8,0.6-3c0-1.2-0.2-2.2-0.6-3c-0.4-0.8-1-1.5-1.7-1.9c-0.7-0.4-1.6-0.7-2.5-0.7c-1,0-1.8,0.2-2.5,0.7
			c-0.7,0.4-1.3,1.1-1.7,1.9c-0.4,0.8-0.6,1.9-0.6,3c0,1.2,0.2,2.2,0.6,3c0.4,0.8,1,1.5,1.7,1.9c0.7,0.4,1.6,0.6,2.6,0.6
			C-586.8,663.7-585.9,663.5-585.2,663.1z"/>
		<path class="st4" d="M-573,665.1c-1.2-0.7-2.1-1.7-2.8-3.1c-0.7-1.3-1-2.9-1-4.6c0-1.7,0.3-3.2,1-4.5c0.7-1.3,1.6-2.4,2.8-3.1
			c1.2-0.7,2.5-1.1,4.1-1.1c1.2,0,2.2,0.2,3.2,0.6c1,0.4,1.7,1,2.4,1.7s1.1,1.5,1.3,2.4l-2.6,0.9c-0.3-0.9-0.8-1.7-1.5-2.3
			c-0.7-0.6-1.6-0.9-2.7-0.9c-0.9,0-1.7,0.2-2.5,0.7c-0.7,0.5-1.3,1.2-1.8,2.1c-0.4,0.9-0.7,2.1-0.7,3.4c0,1.4,0.2,2.5,0.6,3.5
			c0.4,0.9,1,1.7,1.8,2.1c0.7,0.5,1.6,0.7,2.5,0.7c1.2,0,2.2-0.3,3-1s1.3-1.6,1.6-2.7l2.7,0.9c-0.6,1.6-1.5,2.8-2.7,3.8
			c-1.2,1-2.7,1.4-4.5,1.4C-570.4,666.2-571.8,665.8-573,665.1z"/>
		<path class="st4" d="M-559.8,663.2h1c0.5,0,0.9,0,1.2-0.2c0.3-0.1,0.6-0.3,0.8-0.5c0.2-0.2,0.3-0.6,0.4-1c0.2-1,0.3-2.8,0.4-5.5
			c0-0.2,0-0.5,0-0.9l0.1-5.9h12.3v16.5h-2.8v-14.1h-6.9l-0.1,4.5c0,1.6-0.1,3-0.2,4c-0.1,1-0.2,1.8-0.4,2.5c-0.2,1-0.7,1.8-1.4,2.3
			c-0.7,0.5-1.7,0.8-3,0.8h-1.4V663.2z"/>
		<path class="st4" d="M-539.5,669.7h3.1c0.6,0,1.2-0.1,1.5-0.4c0.4-0.2,0.7-0.7,1-1.4l1.5-4.2l-0.3,2.4l-7.6-17h3.1l3.7,8.6
			c0.1,0.2,0.1,0.4,0.2,0.4c0.2,0.7,0.4,1.3,0.5,2c0.1,0.7,0.2,1.5,0.2,2.3h1.3c0-0.9,0.1-1.7,0.2-2.4c0.1-0.7,0.3-1.4,0.5-2.1
			l3-8.9h3l-6.6,18.9c-0.4,1.1-0.7,1.9-1.2,2.5c-0.4,0.6-0.9,1-1.6,1.3c-0.6,0.3-1.4,0.4-2.4,0.4h-3.2V669.7z"/>
		<path class="st4" d="M-523.4,665.7l7.7-10l1.9,1.8l-6.1,8.2H-523.4z M-513.2,655.9c0.3,0.5,0.5,1.1,0.5,1.8h1.2v-8.5h2.8v16.5
			h-2.8v-5.8l0.9,1.8l-4.3-4.4l-0.6-0.5l-7.3-7.5h3.6l4.5,4.7C-514.1,654.7-513.5,655.4-513.2,655.9z M-497.3,649.2l-7.3,7.5
			l-0.6,0.5l-4.3,4.4l0.9-1.8v5.8h-2.8v-16.5h2.8v8.5h1.2c0.1-0.7,0.2-1.3,0.5-1.8c0.3-0.5,0.8-1.1,1.6-2l4.5-4.7H-497.3z
			 M-506.5,657.5l2-1.8l7.7,10h-3.5L-506.5,657.5z"/>
		<path class="st4" d="M-493.6,649.2h2.8v9c0,1-0.1,1.8-0.3,2.5c-0.2,0.7-0.4,1.4-0.8,2l1.3,0.6l7-14.2h4.4v16.5h-2.8v-9
			c0-1,0.1-1.8,0.3-2.5c0.2-0.7,0.4-1.4,0.8-2.1l-1.3-0.6l-7,14.2h-4.5V649.2z"/>
		<path class="st4" d="M-473.4,649.2h8.1c1.7,0,2.9,0.4,3.8,1.1c0.9,0.7,1.3,1.7,1.3,2.8c0,1-0.3,1.7-0.9,2.3s-1.4,0.9-2.4,1v1.3
			c1.1,0.1,2,0.4,2.8,1c0.7,0.6,1.1,1.5,1.1,2.6c0,0.9-0.2,1.7-0.7,2.3s-1.1,1.2-1.9,1.5c-0.8,0.4-1.7,0.5-2.7,0.5h-8.5V649.2z
			 M-463.7,655.4c0.5-0.4,0.7-1,0.7-1.7c0-0.7-0.2-1.2-0.7-1.6c-0.5-0.4-1.1-0.6-2-0.6h-4.8v4.5h4.8
			C-464.9,656-464.2,655.8-463.7,655.4z M-463.3,662.6c0.5-0.5,0.8-1.1,0.8-1.9c0-0.8-0.3-1.4-0.8-1.9c-0.5-0.4-1.3-0.7-2.2-0.7
			h-5.1v5.1h5.1C-464.5,663.4-463.8,663.1-463.3,662.6z"/>
		<path class="st4" d="M-446.2,652.6c-0.3-0.5-0.7-0.9-1.2-1.1c-0.5-0.3-1.2-0.4-2.1-0.4c-1.3,0-2.3,0.3-3,0.9
			c-0.7,0.6-1.2,1.3-1.5,2.2l-2.6-0.9c0.2-0.8,0.6-1.5,1.2-2.2c0.6-0.7,1.4-1.2,2.4-1.7c1-0.4,2.2-0.7,3.6-0.7
			c1.5,0,2.7,0.2,3.6,0.7c1,0.5,1.7,1.1,2.2,2c0.5,0.9,0.7,1.9,0.7,3v7.7c0,0.4,0.1,0.7,0.2,0.9c0.2,0.2,0.4,0.2,0.8,0.2h1.7v2.4
			h-1.4c-0.8,0-1.4-0.1-1.9-0.3c-0.4-0.2-0.8-0.6-1-1.1c-0.2-0.5-0.3-1.2-0.3-2.1h-1.2c-0.3,1.2-0.9,2.1-1.8,2.8
			c-0.9,0.7-2,1.1-3.4,1.1c-1.6,0-2.9-0.4-3.8-1.3c-0.9-0.8-1.4-2-1.4-3.4c0-1.5,0.5-2.7,1.5-3.6c1-0.9,2.3-1.6,3.9-2.1
			c1.6-0.5,3.4-0.8,5.5-0.9l0,2.1c-2.4,0.2-4.4,0.6-5.8,1.3c-1.4,0.7-2.2,1.7-2.2,3c0,0.8,0.3,1.4,0.8,1.9c0.5,0.5,1.3,0.7,2.3,0.7
			c0.8,0,1.5-0.2,2.2-0.5c0.7-0.4,1.2-0.9,1.7-1.7c0.4-0.8,0.6-1.7,0.6-2.8v-4.4C-445.8,653.7-445.9,653.1-446.2,652.6z"/>
		<path class="st4" d="M-437.2,649.2h2.8v6.8h8.1v-6.8h2.8v16.5h-2.8v-7.3h-8.1v7.3h-2.8V649.2z"/>
		<path class="st4" d="M-417.8,649.2h2.8v9c0,1-0.1,1.8-0.3,2.5c-0.2,0.7-0.4,1.4-0.8,2l1.3,0.6l7-14.2h4.4v16.5h-2.8v-9
			c0-1,0.1-1.8,0.3-2.5c0.2-0.7,0.4-1.4,0.8-2.1l-1.3-0.6l-7,14.2h-4.5V649.2z"/>
		<path class="st4" d="M-395.2,665.1c-1.1-0.7-2-1.7-2.6-3c-0.6-1.3-1-2.9-1-4.7c0-1.8,0.3-3.3,1-4.6c0.6-1.3,1.5-2.3,2.6-3.1
			c1.1-0.7,2.4-1.1,3.8-1.1c1.6,0,3,0.4,4.1,1.2c1.1,0.8,2,1.9,2.5,3.4c0.5,1.4,0.7,3,0.6,4.8H-396c0,1.3,0.3,2.4,0.7,3.2
			s1,1.5,1.7,1.9c0.7,0.4,1.5,0.6,2.4,0.6c1.2,0,2.2-0.3,2.9-1c0.7-0.7,1.3-1.4,1.6-2.3l2.6,0.9c-0.6,1.5-1.5,2.7-2.7,3.5
			c-1.2,0.8-2.7,1.2-4.4,1.2C-392.8,666.2-394.1,665.8-395.2,665.1z M-387.7,653.2c-0.4-0.7-0.9-1.3-1.6-1.7
			c-0.7-0.4-1.4-0.6-2.2-0.6c-1.2,0-2.2,0.4-3,1.3s-1.3,2-1.5,3.5h8.8C-387.1,654.8-387.3,654-387.7,653.2z"/>
		<path class="st4" d="M-379.7,649.2h4.8l3.7,8.5c0.1,0.2,0.2,0.5,0.3,0.7c0.3,0.6,0.5,1.3,0.6,2c0.1,0.7,0.2,1.4,0.2,2.1h1.4
			c0-0.8,0.1-1.5,0.3-2.2c0.1-0.7,0.4-1.4,0.6-2.1c0-0.1,0.1-0.3,0.3-0.6l3.8-8.5h4.6v16.5h-2.8v-8.6c0-1.1,0.1-2.1,0.3-2.9
			c0.2-0.9,0.5-1.7,0.8-2.5l-1.3-0.4l-6.2,14.5h-2.1l-6.2-14.5l-1.3,0.5c0.4,0.8,0.6,1.7,0.8,2.5c0.2,0.9,0.3,1.8,0.3,2.9v8.5h-2.8
			V649.2z"/>
		<path class="st4" d="M-351.7,665.7h-2.1v-4.1h3.9v4.1l-2.5,4.5h-1.8L-351.7,665.7z"/>
		<path class="st4" d="M-813,689.2h2.6c0,0.6-0.1,1.2-0.4,1.8c-0.3,0.7-0.6,1.3-0.9,1.8h1.6c0.3-0.7,0.6-1.3,1-1.9
			c0.4-0.6,1-1.1,1.7-1.5c0.7-0.4,1.6-0.6,2.7-0.6c1.3,0,2.4,0.3,3.4,1c1,0.7,1.8,1.7,2.4,3c0.6,1.3,0.9,2.9,0.9,4.7
			c0,1.8-0.3,3.3-0.9,4.7c-0.6,1.3-1.4,2.3-2.4,3c-1,0.7-2.2,1-3.4,1c-1.5,0-2.6-0.4-3.5-1.2c-0.9-0.8-1.5-1.7-1.9-2.9h-1.7
			c0.5,0.9,0.9,1.8,1.2,2.7c0.3,0.9,0.4,2,0.4,3.4v4h-2.8V689.2z M-803.2,703.1c0.7-0.4,1.2-1.1,1.6-2c0.4-0.9,0.6-2.1,0.6-3.6
			c0-1.5-0.2-2.7-0.6-3.6s-0.9-1.6-1.6-2.1c-0.7-0.4-1.5-0.7-2.4-0.7c-0.9,0-1.7,0.2-2.4,0.7s-1.3,1.2-1.7,2.1
			c-0.4,1-0.6,2.1-0.6,3.5c0,1.4,0.2,2.5,0.6,3.5c0.4,0.9,0.9,1.6,1.7,2.1c0.7,0.5,1.5,0.7,2.5,0.7
			C-804.7,703.7-803.9,703.5-803.2,703.1z"/>
		<path class="st4" d="M-791.2,705.2c-1.1-0.7-2-1.7-2.6-3c-0.6-1.3-1-2.9-1-4.7c0-1.8,0.3-3.3,1-4.6c0.6-1.3,1.5-2.3,2.6-3.1
			c1.1-0.7,2.4-1.1,3.8-1.1c1.6,0,3,0.4,4.1,1.2c1.1,0.8,2,1.9,2.5,3.4c0.5,1.4,0.7,3,0.6,4.8h-11.8c0,1.3,0.3,2.4,0.7,3.2
			s1,1.5,1.7,1.9c0.7,0.4,1.5,0.6,2.4,0.6c1.2,0,2.2-0.3,2.9-1c0.7-0.7,1.3-1.4,1.6-2.3l2.6,0.9c-0.6,1.5-1.5,2.7-2.7,3.5
			c-1.2,0.8-2.7,1.2-4.4,1.2C-788.8,706.2-790.1,705.8-791.2,705.2z M-783.6,693.3c-0.4-0.7-0.9-1.3-1.6-1.7
			c-0.7-0.4-1.4-0.6-2.2-0.6c-1.2,0-2.2,0.4-3,1.3s-1.3,2-1.5,3.5h8.8C-783,694.8-783.2,694-783.6,693.3z"/>
		<path class="st4" d="M-775.6,689.2h4.8l3.7,8.5c0.1,0.2,0.2,0.5,0.3,0.7c0.3,0.6,0.5,1.3,0.6,2c0.1,0.7,0.2,1.4,0.2,2.1h1.4
			c0-0.8,0.1-1.5,0.3-2.2c0.1-0.7,0.4-1.4,0.6-2.1c0-0.1,0.1-0.3,0.3-0.6l3.8-8.5h4.6v16.5h-2.8v-8.6c0-1.1,0.1-2.1,0.3-2.9
			c0.2-0.9,0.5-1.7,0.8-2.5l-1.3-0.4l-6.2,14.5h-2.1l-6.2-14.5l-1.3,0.5c0.4,0.8,0.6,1.7,0.8,2.5c0.2,0.9,0.3,1.8,0.3,2.9v8.5h-2.8
			V689.2z"/>
		<path class="st4" d="M-746.5,705.1c-1.2-0.7-2.1-1.8-2.8-3.1s-1.1-2.8-1.1-4.5c0-1.7,0.3-3.2,1-4.5s1.6-2.4,2.8-3.1
			c1.2-0.7,2.5-1.1,4-1.1c1.4,0,2.8,0.4,4,1.1c1.2,0.7,2.1,1.8,2.8,3.1c0.7,1.3,1,2.8,1,4.5c0,1.7-0.3,3.2-1,4.5
			c-0.7,1.3-1.6,2.3-2.8,3.1c-1.2,0.7-2.5,1.1-3.9,1.1C-744,706.2-745.3,705.8-746.5,705.1z M-740.1,703c0.7-0.5,1.3-1.2,1.7-2.1
			c0.4-0.9,0.6-2.1,0.6-3.4c0-1.4-0.2-2.5-0.6-3.5c-0.4-0.9-1-1.7-1.7-2.1c-0.7-0.5-1.6-0.7-2.5-0.7c-1,0-1.8,0.2-2.6,0.7
			c-0.7,0.5-1.3,1.2-1.7,2.1c-0.4,0.9-0.6,2.1-0.6,3.5c0,1.4,0.2,2.5,0.6,3.4c0.4,0.9,1,1.6,1.7,2.1c0.7,0.5,1.6,0.7,2.6,0.7
			C-741.6,703.7-740.8,703.5-740.1,703z"/>
		<path class="st4" d="M-730.5,689.2h2.8v6.8h8.1v-6.8h2.8v16.5h-2.8v-7.3h-8.1v7.3h-2.8V689.2z"/>
		<path class="st4" d="M-707.2,691.6h-6.1v-2.4h15v2.4h-6.1v14.1h-2.8V691.6z"/>
		<path class="st4" d="M-692.1,705.1c-1.2-0.7-2.1-1.8-2.8-3.1s-1.1-2.8-1.1-4.5c0-1.7,0.3-3.2,1-4.5s1.6-2.4,2.8-3.1
			c1.2-0.7,2.5-1.1,4-1.1c1.4,0,2.8,0.4,4,1.1c1.2,0.7,2.1,1.8,2.8,3.1c0.7,1.3,1,2.8,1,4.5c0,1.7-0.3,3.2-1,4.5
			c-0.7,1.3-1.6,2.3-2.8,3.1c-1.2,0.7-2.5,1.1-3.9,1.1C-689.6,706.2-690.9,705.8-692.1,705.1z M-685.6,703c0.7-0.5,1.3-1.2,1.7-2.1
			c0.4-0.9,0.6-2.1,0.6-3.4c0-1.4-0.2-2.5-0.6-3.5c-0.4-0.9-1-1.7-1.7-2.1c-0.7-0.5-1.6-0.7-2.5-0.7c-1,0-1.8,0.2-2.6,0.7
			c-0.7,0.5-1.3,1.2-1.7,2.1c-0.4,0.9-0.6,2.1-0.6,3.5c0,1.4,0.2,2.5,0.6,3.4c0.4,0.9,1,1.6,1.7,2.1c0.7,0.5,1.6,0.7,2.6,0.7
			C-687.2,703.7-686.3,703.5-685.6,703z"/>
		<path class="st4" d="M-676,689.2h4.8l3.7,8.5c0.1,0.2,0.2,0.5,0.3,0.7c0.3,0.6,0.5,1.3,0.6,2c0.1,0.7,0.2,1.4,0.2,2.1h1.4
			c0-0.8,0.1-1.5,0.3-2.2c0.1-0.7,0.4-1.4,0.6-2.1c0-0.1,0.1-0.3,0.3-0.6l3.8-8.5h4.6v16.5h-2.8v-8.6c0-1.1,0.1-2.1,0.3-2.9
			c0.2-0.9,0.5-1.7,0.8-2.5l-1.3-0.4l-6.2,14.5h-2.1l-6.2-14.5l-1.3,0.5c0.4,0.8,0.6,1.7,0.8,2.5c0.2,0.9,0.3,1.8,0.3,2.9v8.5h-2.8
			V689.2z"/>
		<path class="st4" d="M-641.9,689.2h2.8v9c0,1-0.1,1.8-0.3,2.5c-0.2,0.7-0.4,1.4-0.8,2l1.3,0.6l7-14.2h4.4v16.5h-2.8v-9
			c0-1,0.1-1.8,0.3-2.5c0.2-0.7,0.4-1.4,0.8-2.1l-1.3-0.6l-7,14.2h-4.5V689.2z"/>
		<path class="st4" d="M-616.4,703.3h0.9c0.5,0,0.9-0.1,1.2-0.2c0.3-0.1,0.6-0.3,0.7-0.6c0.2-0.3,0.3-0.7,0.4-1.1
			c0.2-1.3,0.4-3.3,0.4-6l0.1-6.1h12.3v14.1h2.8v6h-2.6v-3.5h-13.8v3.5h-2.6V703.3z M-603.1,703.3v-11.6h-6.9l-0.1,4.5
			c0,1.2-0.1,2.3-0.1,3.2c-0.1,0.9-0.2,1.6-0.3,2.3s-0.3,1.2-0.5,1.7H-603.1z"/>
		<path class="st4" d="M-593.6,689.2h2.8v9c0,1-0.1,1.8-0.3,2.5c-0.2,0.7-0.4,1.4-0.8,2l1.3,0.6l7-14.2h4.4v16.5h-2.8v-9
			c0-1,0.1-1.8,0.3-2.5c0.2-0.7,0.4-1.4,0.8-2.1l-1.3-0.6l-7,14.2h-4.5V689.2z"/>
		<path class="st4" d="M-564.4,692.6c-0.3-0.5-0.7-0.9-1.2-1.1c-0.5-0.3-1.2-0.4-2.1-0.4c-1.3,0-2.3,0.3-3,0.9
			c-0.7,0.6-1.2,1.3-1.5,2.2l-2.6-0.9c0.2-0.8,0.6-1.5,1.2-2.2c0.6-0.7,1.4-1.2,2.4-1.7c1-0.4,2.2-0.7,3.6-0.7
			c1.5,0,2.7,0.2,3.6,0.7c1,0.5,1.7,1.1,2.2,2c0.5,0.9,0.7,1.9,0.7,3v7.7c0,0.4,0.1,0.7,0.2,0.9c0.2,0.2,0.4,0.2,0.8,0.2h1.7v2.4
			h-1.4c-0.8,0-1.4-0.1-1.9-0.3c-0.4-0.2-0.8-0.6-1-1.1c-0.2-0.5-0.3-1.2-0.3-2.1h-1.2c-0.3,1.2-0.9,2.1-1.8,2.8
			c-0.9,0.7-2,1.1-3.4,1.1c-1.6,0-2.9-0.4-3.8-1.3c-0.9-0.8-1.4-2-1.4-3.4c0-1.5,0.5-2.7,1.5-3.6c1-0.9,2.3-1.6,3.9-2.1
			c1.6-0.5,3.4-0.8,5.5-0.9l0,2.1c-2.4,0.2-4.4,0.6-5.8,1.3c-1.4,0.7-2.2,1.7-2.2,3c0,0.8,0.3,1.4,0.8,1.9c0.5,0.5,1.3,0.7,2.3,0.7
			c0.8,0,1.5-0.2,2.2-0.5c0.7-0.4,1.2-0.9,1.7-1.7c0.4-0.8,0.6-1.7,0.6-2.8v-4.4C-564,693.7-564.1,693.1-564.4,692.6z"/>
		<path class="st4" d="M-555.4,689.2h11.4v2.4h-8.5v14.1h-2.8V689.2z"/>
		<path class="st4" d="M-540.5,689.2h2.8v6.8h8.1v-6.8h2.8v16.5h-2.8v-7.3h-8.1v7.3h-2.8V689.2z"/>
		<path class="st4" d="M-518.4,705.1c-1.2-0.7-2.1-1.8-2.8-3.1s-1.1-2.8-1.1-4.5c0-1.7,0.3-3.2,1-4.5s1.6-2.4,2.8-3.1
			c1.2-0.7,2.5-1.1,4-1.1c1.4,0,2.8,0.4,4,1.1c1.2,0.7,2.1,1.8,2.8,3.1c0.7,1.3,1,2.8,1,4.5c0,1.7-0.3,3.2-1,4.5
			c-0.7,1.3-1.6,2.3-2.8,3.1c-1.2,0.7-2.5,1.1-3.9,1.1C-515.9,706.2-517.3,705.8-518.4,705.1z M-512,703c0.7-0.5,1.3-1.2,1.7-2.1
			c0.4-0.9,0.6-2.1,0.6-3.4c0-1.4-0.2-2.5-0.6-3.5c-0.4-0.9-1-1.7-1.7-2.1c-0.7-0.5-1.6-0.7-2.5-0.7c-1,0-1.8,0.2-2.6,0.7
			c-0.7,0.5-1.3,1.2-1.7,2.1c-0.4,0.9-0.6,2.1-0.6,3.5c0,1.4,0.2,2.5,0.6,3.4c0.4,0.9,1,1.6,1.7,2.1c0.7,0.5,1.6,0.7,2.6,0.7
			C-513.6,703.7-512.7,703.5-512,703z"/>
		<path class="st4" d="M-499.9,705.1c-1.2-0.7-2.1-1.7-2.8-3.1c-0.7-1.3-1-2.9-1-4.6c0-1.7,0.3-3.2,1-4.5c0.7-1.3,1.6-2.4,2.8-3.1
			c1.2-0.7,2.5-1.1,4.1-1.1c1.2,0,2.2,0.2,3.2,0.6c1,0.4,1.7,1,2.4,1.7s1.1,1.5,1.3,2.4l-2.6,0.9c-0.3-0.9-0.8-1.7-1.5-2.3
			c-0.7-0.6-1.6-0.9-2.7-0.9c-0.9,0-1.7,0.2-2.5,0.7c-0.7,0.5-1.3,1.2-1.8,2.1c-0.4,0.9-0.7,2.1-0.7,3.4c0,1.4,0.2,2.5,0.6,3.5
			c0.4,0.9,1,1.7,1.8,2.1c0.7,0.5,1.6,0.7,2.5,0.7c1.2,0,2.2-0.3,3-1s1.3-1.6,1.6-2.7l2.7,0.9c-0.6,1.6-1.5,2.8-2.7,3.8
			c-1.2,1-2.7,1.4-4.5,1.4C-497.3,706.2-498.7,705.8-499.9,705.1z"/>
		<path class="st4" d="M-480.6,691.6h-6.1v-2.4h15v2.4h-6.1v14.1h-2.8V691.6z"/>
		<path class="st4" d="M-468.1,689.2h2.8v9c0,1-0.1,1.8-0.3,2.5c-0.2,0.7-0.4,1.4-0.8,2l1.3,0.6l7-14.2h4.4v16.5h-2.8v-9
			c0-1,0.1-1.8,0.3-2.5c0.2-0.7,0.4-1.4,0.8-2.1l-1.3-0.6l-7,14.2h-4.5V689.2z"/>
		<path class="st4" d="M-447.9,689.2h2.8v8.5h1.2c0.1-0.7,0.3-1.3,0.6-1.8c0.3-0.5,0.9-1.1,1.8-2l4.9-4.7h3.7l-8,7.5l-0.6,0.5
			l-4.5,4.3l1-1.8v5.9h-2.8V689.2z M-442.6,697.5l2.1-1.8l8.2,10h-3.6L-442.6,697.5z"/>
		<path class="st4" d="M-426.6,705.1c-1.2-0.7-2.1-1.8-2.8-3.1s-1.1-2.8-1.1-4.5c0-1.7,0.3-3.2,1-4.5s1.6-2.4,2.8-3.1
			c1.2-0.7,2.5-1.1,4-1.1c1.4,0,2.8,0.4,4,1.1c1.2,0.7,2.1,1.8,2.8,3.1c0.7,1.3,1,2.8,1,4.5c0,1.7-0.3,3.2-1,4.5
			c-0.7,1.3-1.6,2.3-2.8,3.1c-1.2,0.7-2.5,1.1-3.9,1.1C-424.1,706.2-425.4,705.8-426.6,705.1z M-420.2,703c0.7-0.5,1.3-1.2,1.7-2.1
			c0.4-0.9,0.6-2.1,0.6-3.4c0-1.4-0.2-2.5-0.6-3.5c-0.4-0.9-1-1.7-1.7-2.1c-0.7-0.5-1.6-0.7-2.5-0.7c-1,0-1.8,0.2-2.6,0.7
			c-0.7,0.5-1.3,1.2-1.7,2.1c-0.4,0.9-0.6,2.1-0.6,3.5c0,1.4,0.2,2.5,0.6,3.4c0.4,0.9,1,1.6,1.7,2.1c0.7,0.5,1.6,0.7,2.6,0.7
			C-421.7,703.7-420.9,703.5-420.2,703z"/>
		<path class="st4" d="M-410.6,689.2h2.8v9c0,1-0.1,1.8-0.3,2.5c-0.2,0.7-0.4,1.4-0.8,2l1.3,0.6l7-14.2h4.4v16.5h-2.8v-9
			c0-1,0.1-1.8,0.3-2.5c0.2-0.7,0.4-1.4,0.8-2.1l-1.3-0.6l-7,14.2h-4.5V689.2z M-406.1,686.5c-0.7-0.4-1.3-1-1.7-1.6
			s-0.5-1.4-0.6-2.2h2.5c0.1,0.7,0.3,1.3,0.8,1.7c0.4,0.4,1,0.6,1.8,0.6c0.8,0,1.4-0.2,1.8-0.6c0.4-0.4,0.7-1,0.8-1.7h2.5
			c0,1.2-0.5,2.3-1.3,3.1c-0.8,0.9-2.1,1.3-3.7,1.3C-404.5,687.1-405.4,686.9-406.1,686.5z"/>
		<path class="st4" d="M-813,729.2h2.6c0,0.6-0.1,1.2-0.4,1.8c-0.3,0.7-0.6,1.3-0.9,1.8h1.6c0.3-0.7,0.6-1.3,1-1.9
			c0.4-0.6,1-1.1,1.7-1.5c0.7-0.4,1.6-0.6,2.7-0.6c1.3,0,2.4,0.3,3.4,1c1,0.7,1.8,1.7,2.4,3c0.6,1.3,0.9,2.9,0.9,4.7
			c0,1.8-0.3,3.3-0.9,4.7c-0.6,1.3-1.4,2.3-2.4,3c-1,0.7-2.2,1-3.4,1c-1.5,0-2.6-0.4-3.5-1.2c-0.9-0.8-1.5-1.7-1.9-2.9h-1.7
			c0.5,0.9,0.9,1.8,1.2,2.7c0.3,0.9,0.4,2,0.4,3.4v4h-2.8V729.2z M-803.2,743.1c0.7-0.4,1.2-1.1,1.6-2c0.4-0.9,0.6-2.1,0.6-3.6
			c0-1.5-0.2-2.7-0.6-3.6s-0.9-1.6-1.6-2.1c-0.7-0.4-1.5-0.7-2.4-0.7c-0.9,0-1.7,0.2-2.4,0.7s-1.3,1.2-1.7,2.1
			c-0.4,1-0.6,2.1-0.6,3.5c0,1.4,0.2,2.5,0.6,3.5c0.4,0.9,0.9,1.6,1.7,2.1c0.7,0.5,1.5,0.7,2.5,0.7
			C-804.7,743.8-803.9,743.5-803.2,743.1z"/>
		<path class="st4" d="M-784.6,732.6c-0.3-0.5-0.7-0.9-1.2-1.1c-0.5-0.3-1.2-0.4-2.1-0.4c-1.3,0-2.3,0.3-3,0.9
			c-0.7,0.6-1.2,1.3-1.5,2.2l-2.6-0.9c0.2-0.8,0.6-1.5,1.2-2.2c0.6-0.7,1.4-1.2,2.4-1.7c1-0.4,2.2-0.7,3.6-0.7
			c1.5,0,2.7,0.2,3.6,0.7c1,0.5,1.7,1.1,2.2,2c0.5,0.9,0.7,1.9,0.7,3v7.7c0,0.4,0.1,0.7,0.2,0.9c0.2,0.2,0.4,0.2,0.8,0.2h1.7v2.4
			h-1.4c-0.8,0-1.4-0.1-1.9-0.3c-0.4-0.2-0.8-0.6-1-1.1c-0.2-0.5-0.3-1.2-0.3-2.1h-1.2c-0.3,1.2-0.9,2.1-1.8,2.8
			c-0.9,0.7-2,1.1-3.4,1.1c-1.6,0-2.9-0.4-3.8-1.3c-0.9-0.8-1.4-2-1.4-3.4c0-1.5,0.5-2.7,1.5-3.6c1-0.9,2.3-1.6,3.9-2.1
			c1.6-0.5,3.4-0.8,5.5-0.9l0,2.1c-2.4,0.2-4.4,0.6-5.8,1.3c-1.4,0.7-2.2,1.7-2.2,3c0,0.8,0.3,1.4,0.8,1.9c0.5,0.5,1.3,0.7,2.3,0.7
			c0.8,0,1.5-0.2,2.2-0.5c0.7-0.4,1.2-0.9,1.7-1.7c0.4-0.8,0.6-1.7,0.6-2.8v-4.4C-784.2,733.7-784.3,733.1-784.6,732.6z"/>
		<path class="st4" d="M-775,745c-1.2-0.8-2-1.9-2.4-3.4l2.7-1c0.3,1,0.8,1.9,1.6,2.4c0.8,0.6,1.8,0.9,3.1,0.9
			c1.2,0,2.1-0.2,2.8-0.7s1-1.2,1-2s-0.3-1.5-0.8-2c-0.5-0.5-1.3-0.7-2.4-0.7h-3.1v-2.3h3.3c0.8,0,1.5-0.2,2-0.6
			c0.5-0.4,0.8-1,0.8-1.8c0-0.8-0.3-1.4-0.9-1.9c-0.6-0.5-1.4-0.7-2.4-0.7c-1.1,0-2,0.2-2.8,0.7c-0.8,0.5-1.3,1.2-1.6,2l-2.6-1.1
			c0.5-1.2,1.4-2.1,2.5-2.8c1.1-0.7,2.7-1.1,4.6-1.1c1.4,0,2.5,0.2,3.4,0.6c0.9,0.4,1.6,0.9,2,1.6c0.4,0.7,0.7,1.4,0.7,2.2
			c0,1-0.3,1.8-1,2.5s-1.5,1-2.5,1v1.3c1.1,0.1,2,0.5,2.7,1.1s1.1,1.5,1.1,2.6c0,1-0.3,1.8-0.8,2.5c-0.5,0.7-1.3,1.2-2.3,1.6
			c-1,0.4-2.2,0.5-3.6,0.5C-772.2,746.2-773.8,745.8-775,745z"/>
		<path class="st4" d="M-761.1,743.2h1c0.5,0,0.9,0,1.2-0.2c0.3-0.1,0.6-0.3,0.8-0.5c0.2-0.2,0.3-0.6,0.4-1c0.2-1,0.3-2.8,0.4-5.5
			c0-0.2,0-0.5,0-0.9l0.1-5.9h12.3v16.5h-2.8v-14.1h-6.9l-0.1,4.5c0,1.6-0.1,3-0.2,4c-0.1,1-0.2,1.8-0.4,2.5c-0.2,1-0.7,1.8-1.4,2.3
			c-0.7,0.5-1.7,0.8-3,0.8h-1.4V743.2z"/>
		<path class="st4" d="M-739.2,729.2h2.8v9c0,1-0.1,1.8-0.3,2.5c-0.2,0.7-0.4,1.4-0.8,2l1.3,0.6l7-14.2h4.4v16.5h-2.8v-9
			c0-1,0.1-1.8,0.3-2.5c0.2-0.7,0.4-1.4,0.8-2.1l-1.3-0.6l-7,14.2h-4.5V729.2z"/>
		<path class="st4" d="M-717.9,739.5c-0.8-0.4-1.4-1-1.9-1.9c-0.4-0.8-0.6-1.9-0.6-3.1v-5.3h2.8v4.9c0,1.2,0.3,2.1,0.9,2.7
			s1.5,0.8,2.7,0.8c0.9,0,1.6-0.1,2.2-0.3c0.6-0.2,1.2-0.5,1.7-0.8v-7.4h2.8v16.5h-2.8V744c0-1.6,0.1-2.9,0.2-3.7
			c0.2-0.8,0.5-1.7,0.9-2.5h-1.4c-0.5,0.7-1.1,1.3-1.9,1.7c-0.8,0.4-1.7,0.6-2.7,0.6C-716,740.1-717,739.9-717.9,739.5z"/>
		<path class="st4" d="M-701.4,729.2h2.8v6.8h8.1v-6.8h2.8v16.5h-2.8v-7.3h-8.1v7.3h-2.8V729.2z"/>
		<path class="st4" d="M-682,729.2h2.8v5.6h3.9c1.2,0,2.3,0.2,3.3,0.7s1.6,1.1,2.1,1.9c0.5,0.8,0.7,1.7,0.7,2.8
			c0,1.1-0.2,2.1-0.7,2.9c-0.5,0.9-1.2,1.5-2.1,2c-0.9,0.5-2,0.7-3.3,0.7h-6.7V729.2z M-673.1,742.4c0.6-0.6,0.9-1.4,0.9-2.3
			s-0.3-1.6-0.9-2.2c-0.6-0.6-1.5-0.8-2.7-0.8h-3.4v6.2h3.4C-674.6,743.3-673.7,743-673.1,742.4z M-667,729.2h2.8v16.5h-2.8V729.2z"
			/>
		<path class="st4" d="M-654.8,737.3l-5.5-8h3.3l1.9,2.9c0.4,0.6,0.7,1.3,0.9,1.9c0.2,0.6,0.3,1.3,0.4,2.1h1.3
			c0-0.6,0.2-1.3,0.4-1.9c0.3-0.6,0.6-1.3,1.1-2.1l1.9-2.9h3.2l-5.5,8.1l5.9,8.4h-3.4l-2.2-3.3c-0.4-0.6-0.7-1.2-0.9-1.8
			s-0.3-1.3-0.4-2.1h-1.3c0,0.7-0.2,1.3-0.4,1.9c-0.3,0.6-0.7,1.3-1.2,2l-2.3,3.3h-3.1L-654.8,737.3z"/>
		<path class="st4" d="M-631.9,745.1c-1.2-0.7-2.1-1.7-2.8-3.1c-0.7-1.3-1-2.9-1-4.6c0-1.7,0.3-3.2,1-4.5c0.7-1.3,1.6-2.4,2.8-3.1
			c1.2-0.7,2.5-1.1,4.1-1.1c1.2,0,2.2,0.2,3.2,0.6c1,0.4,1.7,1,2.4,1.7s1.1,1.5,1.3,2.4l-2.6,0.9c-0.3-0.9-0.8-1.7-1.5-2.3
			c-0.7-0.6-1.6-0.9-2.7-0.9c-0.9,0-1.7,0.2-2.5,0.7c-0.7,0.5-1.3,1.2-1.8,2.1c-0.4,0.9-0.7,2.1-0.7,3.4c0,1.4,0.2,2.5,0.6,3.5
			c0.4,0.9,1,1.7,1.8,2.1c0.7,0.5,1.6,0.7,2.5,0.7c1.2,0,2.2-0.3,3-1s1.3-1.6,1.6-2.7l2.7,0.9c-0.6,1.6-1.5,2.8-2.7,3.8
			c-1.2,1-2.7,1.4-4.5,1.4C-629.4,746.2-630.8,745.8-631.9,745.1z"/>
		<path class="st4" d="M-616.5,729.2h2.8v9c0,1-0.1,1.8-0.3,2.5c-0.2,0.7-0.4,1.4-0.8,2l1.3,0.6l7-14.2h4.4v16.5h-2.8v-9
			c0-1,0.1-1.8,0.3-2.5c0.2-0.7,0.4-1.4,0.8-2.1l-1.3-0.6l-7,14.2h-4.5V729.2z"/>
		<path class="st4" d="M-593.8,745.1c-1.2-0.7-2.1-1.7-2.8-3.1c-0.7-1.3-1-2.9-1-4.6c0-1.7,0.3-3.2,1-4.5c0.7-1.3,1.6-2.4,2.8-3.1
			c1.2-0.7,2.5-1.1,4.1-1.1c1.2,0,2.2,0.2,3.2,0.6c1,0.4,1.7,1,2.4,1.7s1.1,1.5,1.3,2.4l-2.6,0.9c-0.3-0.9-0.8-1.7-1.5-2.3
			c-0.7-0.6-1.6-0.9-2.7-0.9c-0.9,0-1.7,0.2-2.5,0.7c-0.7,0.5-1.3,1.2-1.8,2.1c-0.4,0.9-0.7,2.1-0.7,3.4c0,1.4,0.2,2.5,0.6,3.5
			c0.4,0.9,1,1.7,1.8,2.1c0.7,0.5,1.6,0.7,2.5,0.7c1.2,0,2.2-0.3,3-1s1.3-1.6,1.6-2.7l2.7,0.9c-0.6,1.6-1.5,2.8-2.7,3.8
			c-1.2,1-2.7,1.4-4.5,1.4C-591.3,746.2-592.6,745.8-593.8,745.1z"/>
		<path class="st4" d="M-574.5,731.6h-6.1v-2.4h15v2.4h-6.1v14.1h-2.8V731.6z"/>
		<path class="st4" d="M-559.7,745.2c-1.1-0.7-2-1.7-2.6-3c-0.6-1.3-1-2.9-1-4.7c0-1.8,0.3-3.3,1-4.6c0.6-1.3,1.5-2.3,2.6-3.1
			c1.1-0.7,2.4-1.1,3.8-1.1c1.6,0,3,0.4,4.1,1.2c1.1,0.8,2,1.9,2.5,3.4c0.5,1.4,0.7,3,0.6,4.8h-11.8c0,1.3,0.3,2.4,0.7,3.2
			s1,1.5,1.7,1.9c0.7,0.4,1.5,0.6,2.4,0.6c1.2,0,2.2-0.3,2.9-1c0.7-0.7,1.3-1.4,1.6-2.3l2.6,0.9c-0.6,1.5-1.5,2.7-2.7,3.5
			c-1.2,0.8-2.7,1.2-4.4,1.2C-557.2,746.2-558.5,745.8-559.7,745.2z M-552.1,733.3c-0.4-0.7-0.9-1.3-1.6-1.7
			c-0.7-0.4-1.4-0.6-2.2-0.6c-1.2,0-2.2,0.4-3,1.3s-1.3,2-1.5,3.5h8.8C-551.5,734.9-551.7,734-552.1,733.3z"/>
		<path class="st4" d="M-544.1,729.2h4.8l3.7,8.5c0.1,0.2,0.2,0.5,0.3,0.7c0.3,0.6,0.5,1.3,0.6,2c0.1,0.7,0.2,1.4,0.2,2.1h1.4
			c0-0.8,0.1-1.5,0.3-2.2c0.1-0.7,0.4-1.4,0.6-2.1c0-0.1,0.1-0.3,0.3-0.6l3.8-8.5h4.6v16.5h-2.8v-8.6c0-1.1,0.1-2.1,0.3-2.9
			c0.2-0.9,0.5-1.7,0.8-2.5l-1.3-0.4l-6.2,14.5h-2.1l-6.2-14.5l-1.3,0.5c0.4,0.8,0.6,1.7,0.8,2.5c0.2,0.9,0.3,1.8,0.3,2.9v8.5h-2.8
			V729.2z"/>
		<path class="st4" d="M-506.9,745.1c-1.2-0.7-2-1.8-2.6-3.2c-0.6-1.4-0.9-3-0.9-4.8v-6.8c0-1.4,0.3-2.7,0.8-3.7
			c0.5-1,1.3-1.9,2.4-2.5c1.1-0.6,2.5-0.9,4.2-0.9h4.1c0.6,0,0.9-0.1,1.1-0.3c0.2-0.2,0.3-0.5,0.3-1v-0.1h2.5v0.4
			c0,0.8-0.1,1.5-0.4,2c-0.2,0.5-0.6,0.9-1.2,1.2s-1.2,0.4-2.1,0.4h-4.3c-1.7,0-2.9,0.4-3.7,1.2s-1.1,2-1.1,3.5v2.9h1.2
			c0.4-0.9,1-1.7,1.9-2.3c0.8-0.6,1.9-0.8,3.2-0.8c1.2,0,2.4,0.3,3.4,1c1,0.7,1.8,1.6,2.4,2.8c0.6,1.2,0.9,2.6,0.9,4.2
			c0,1.5-0.3,2.9-1,4.1c-0.6,1.2-1.5,2.2-2.7,2.9c-1.2,0.7-2.5,1-4,1C-504.3,746.2-505.8,745.8-506.9,745.1z M-500.2,743.1
			c0.7-0.4,1.3-1.1,1.7-1.9c0.4-0.8,0.6-1.8,0.6-3c0-1.2-0.2-2.2-0.6-3c-0.4-0.8-1-1.5-1.7-1.9c-0.7-0.4-1.6-0.7-2.5-0.7
			c-1,0-1.8,0.2-2.5,0.7c-0.7,0.4-1.3,1.1-1.7,1.9c-0.4,0.8-0.6,1.9-0.6,3c0,1.2,0.2,2.2,0.6,3c0.4,0.8,1,1.5,1.7,1.9
			c0.7,0.4,1.6,0.6,2.6,0.6C-501.7,743.7-500.9,743.5-500.2,743.1z"/>
		<path class="st4" d="M-488.1,745.2c-1.1-0.7-2-1.7-2.6-3c-0.6-1.3-1-2.9-1-4.7c0-1.8,0.3-3.3,1-4.6c0.6-1.3,1.5-2.3,2.6-3.1
			c1.1-0.7,2.4-1.1,3.8-1.1c1.6,0,3,0.4,4.1,1.2c1.1,0.8,2,1.9,2.5,3.4c0.5,1.4,0.7,3,0.6,4.8h-11.8c0,1.3,0.3,2.4,0.7,3.2
			s1,1.5,1.7,1.9c0.7,0.4,1.5,0.6,2.4,0.6c1.2,0,2.2-0.3,2.9-1c0.7-0.7,1.3-1.4,1.6-2.3l2.6,0.9c-0.6,1.5-1.5,2.7-2.7,3.5
			c-1.2,0.8-2.7,1.2-4.4,1.2C-485.7,746.2-487,745.8-488.1,745.2z M-480.6,733.3c-0.4-0.7-0.9-1.3-1.6-1.7c-0.7-0.4-1.4-0.6-2.2-0.6
			c-1.2,0-2.2,0.4-3,1.3s-1.3,2-1.5,3.5h8.8C-480,734.9-480.2,734-480.6,733.3z"/>
		<path class="st4" d="M-472,745c-1.2-0.8-2-1.9-2.4-3.4l2.7-1c0.3,1,0.8,1.9,1.6,2.4c0.8,0.6,1.8,0.9,3.1,0.9
			c1.2,0,2.1-0.2,2.8-0.7s1-1.2,1-2s-0.3-1.5-0.8-2c-0.5-0.5-1.3-0.7-2.4-0.7h-3.1v-2.3h3.3c0.8,0,1.5-0.2,2-0.6
			c0.5-0.4,0.8-1,0.8-1.8c0-0.8-0.3-1.4-0.9-1.9c-0.6-0.5-1.4-0.7-2.4-0.7c-1.1,0-2,0.2-2.8,0.7c-0.8,0.5-1.3,1.2-1.6,2l-2.6-1.1
			c0.5-1.2,1.4-2.1,2.5-2.8c1.1-0.7,2.7-1.1,4.6-1.1c1.4,0,2.5,0.2,3.4,0.6c0.9,0.4,1.6,0.9,2,1.6c0.4,0.7,0.7,1.4,0.7,2.2
			c0,1-0.3,1.8-1,2.5s-1.5,1-2.5,1v1.3c1.1,0.1,2,0.5,2.7,1.1s1.1,1.5,1.1,2.6c0,1-0.3,1.8-0.8,2.5c-0.5,0.7-1.3,1.2-2.3,1.6
			c-1,0.4-2.2,0.5-3.6,0.5C-469.2,746.2-470.8,745.8-472,745z"/>
		<path class="st4" d="M-453.3,745.1c-1.2-0.7-2.1-1.8-2.8-3.1s-1.1-2.8-1.1-4.5c0-1.7,0.3-3.2,1-4.5s1.6-2.4,2.8-3.1
			c1.2-0.7,2.5-1.1,4-1.1c1.4,0,2.8,0.4,4,1.1c1.2,0.7,2.1,1.8,2.8,3.1c0.7,1.3,1,2.8,1,4.5c0,1.7-0.3,3.2-1,4.5
			c-0.7,1.3-1.6,2.3-2.8,3.1c-1.2,0.7-2.5,1.1-3.9,1.1C-450.8,746.2-452.1,745.8-453.3,745.1z M-446.8,743c0.7-0.5,1.3-1.2,1.7-2.1
			c0.4-0.9,0.6-2.1,0.6-3.4c0-1.4-0.2-2.5-0.6-3.5c-0.4-0.9-1-1.7-1.7-2.1c-0.7-0.5-1.6-0.7-2.5-0.7c-1,0-1.8,0.2-2.6,0.7
			c-0.7,0.5-1.3,1.2-1.7,2.1c-0.4,0.9-0.6,2.1-0.6,3.5c0,1.4,0.2,2.5,0.6,3.4c0.4,0.9,1,1.6,1.7,2.1c0.7,0.5,1.6,0.7,2.6,0.7
			C-448.4,743.7-447.6,743.5-446.8,743z"/>
		<path class="st4" d="M-437.3,729.2h13.6v16.5h-2.8v-14.1h-8v14.1h-2.8V729.2z"/>
		<path class="st4" d="M-409,732.6c-0.3-0.5-0.7-0.9-1.2-1.1c-0.5-0.3-1.2-0.4-2.1-0.4c-1.3,0-2.3,0.3-3,0.9
			c-0.7,0.6-1.2,1.3-1.5,2.2l-2.6-0.9c0.2-0.8,0.6-1.5,1.2-2.2c0.6-0.7,1.4-1.2,2.4-1.7c1-0.4,2.2-0.7,3.6-0.7
			c1.5,0,2.7,0.2,3.6,0.7c1,0.5,1.7,1.1,2.2,2c0.5,0.9,0.7,1.9,0.7,3v7.7c0,0.4,0.1,0.7,0.2,0.9c0.2,0.2,0.4,0.2,0.8,0.2h1.7v2.4
			h-1.4c-0.8,0-1.4-0.1-1.9-0.3c-0.4-0.2-0.8-0.6-1-1.1c-0.2-0.5-0.3-1.2-0.3-2.1h-1.2c-0.3,1.2-0.9,2.1-1.8,2.8
			c-0.9,0.7-2,1.1-3.4,1.1c-1.6,0-2.9-0.4-3.8-1.3c-0.9-0.8-1.4-2-1.4-3.4c0-1.5,0.5-2.7,1.5-3.6c1-0.9,2.3-1.6,3.9-2.1
			c1.6-0.5,3.4-0.8,5.5-0.9l0,2.1c-2.4,0.2-4.4,0.6-5.8,1.3c-1.4,0.7-2.2,1.7-2.2,3c0,0.8,0.3,1.4,0.8,1.9c0.5,0.5,1.3,0.7,2.3,0.7
			c0.8,0,1.5-0.2,2.2-0.5c0.7-0.4,1.2-0.9,1.7-1.7c0.4-0.8,0.6-1.7,0.6-2.8v-4.4C-408.6,733.7-408.8,733.1-409,732.6z"/>
		<path class="st4" d="M-397.5,745.1c-1.2-0.7-2.1-1.7-2.8-3.1c-0.7-1.3-1-2.9-1-4.6c0-1.7,0.3-3.2,1-4.5c0.7-1.3,1.6-2.4,2.8-3.1
			c1.2-0.7,2.5-1.1,4.1-1.1c1.2,0,2.2,0.2,3.2,0.6c1,0.4,1.7,1,2.4,1.7s1.1,1.5,1.3,2.4l-2.6,0.9c-0.3-0.9-0.8-1.7-1.5-2.3
			c-0.7-0.6-1.6-0.9-2.7-0.9c-0.9,0-1.7,0.2-2.5,0.7c-0.7,0.5-1.3,1.2-1.8,2.1c-0.4,0.9-0.7,2.1-0.7,3.4c0,1.4,0.2,2.5,0.6,3.5
			c0.4,0.9,1,1.7,1.8,2.1c0.7,0.5,1.6,0.7,2.5,0.7c1.2,0,2.2-0.3,3-1s1.3-1.6,1.6-2.7l2.7,0.9c-0.6,1.6-1.5,2.8-2.7,3.8
			c-1.2,1-2.7,1.4-4.5,1.4C-394.9,746.2-396.3,745.8-397.5,745.1z"/>
		<path class="st4" d="M-382.1,729.2h2.8v6.8h8.1v-6.8h2.8v16.5h-2.8v-7.3h-8.1v7.3h-2.8V729.2z"/>
		<path class="st4" d="M-360.1,745.1c-1.2-0.7-2.1-1.8-2.8-3.1s-1.1-2.8-1.1-4.5c0-1.7,0.3-3.2,1-4.5s1.6-2.4,2.8-3.1
			c1.2-0.7,2.5-1.1,4-1.1c1.4,0,2.8,0.4,4,1.1c1.2,0.7,2.1,1.8,2.8,3.1c0.7,1.3,1,2.8,1,4.5c0,1.7-0.3,3.2-1,4.5
			c-0.7,1.3-1.6,2.3-2.8,3.1c-1.2,0.7-2.5,1.1-3.9,1.1C-357.6,746.2-358.9,745.8-360.1,745.1z M-353.6,743c0.7-0.5,1.3-1.2,1.7-2.1
			c0.4-0.9,0.6-2.1,0.6-3.4c0-1.4-0.2-2.5-0.6-3.5c-0.4-0.9-1-1.7-1.7-2.1c-0.7-0.5-1.6-0.7-2.5-0.7c-1,0-1.8,0.2-2.6,0.7
			c-0.7,0.5-1.3,1.2-1.7,2.1c-0.4,0.9-0.6,2.1-0.6,3.5c0,1.4,0.2,2.5,0.6,3.4c0.4,0.9,1,1.6,1.7,2.1c0.7,0.5,1.6,0.7,2.6,0.7
			C-355.2,743.7-354.4,743.5-353.6,743z"/>
		<path class="st4" d="M-341.5,745.1c-1.2-0.7-2.1-1.7-2.8-3.1c-0.7-1.3-1-2.9-1-4.6c0-1.7,0.3-3.2,1-4.5c0.7-1.3,1.6-2.4,2.8-3.1
			c1.2-0.7,2.5-1.1,4.1-1.1c1.2,0,2.2,0.2,3.2,0.6c1,0.4,1.7,1,2.4,1.7s1.1,1.5,1.3,2.4l-2.6,0.9c-0.3-0.9-0.8-1.7-1.5-2.3
			c-0.7-0.6-1.6-0.9-2.7-0.9c-0.9,0-1.7,0.2-2.5,0.7c-0.7,0.5-1.3,1.2-1.8,2.1c-0.4,0.9-0.7,2.1-0.7,3.4c0,1.4,0.2,2.5,0.6,3.5
			c0.4,0.9,1,1.7,1.8,2.1c0.7,0.5,1.6,0.7,2.5,0.7c1.2,0,2.2-0.3,3-1s1.3-1.6,1.6-2.7l2.7,0.9c-0.6,1.6-1.5,2.8-2.7,3.8
			c-1.2,1-2.7,1.4-4.5,1.4C-339,746.2-340.3,745.8-341.5,745.1z"/>
		<path class="st4" d="M-322.2,731.6h-6.1v-2.4h15v2.4h-6.1v14.1h-2.8V731.6z"/>
		<path class="st4" d="M-309.7,729.2h2.8v9c0,1-0.1,1.8-0.3,2.5c-0.2,0.7-0.4,1.4-0.8,2l1.3,0.6l7-14.2h4.4v16.5h-2.8v-9
			c0-1,0.1-1.8,0.3-2.5c0.2-0.7,0.4-1.4,0.8-2.1l-1.3-0.6l-7,14.2h-4.5V729.2z"/>
		<path class="st4" d="M-288,745.7h-2.1v-4.1h3.9v4.1l-2.5,4.5h-1.8L-288,745.7z"/>
		<path class="st4" d="M-813,769.2h4.8l3.7,8.5c0.1,0.2,0.2,0.5,0.3,0.7c0.3,0.6,0.5,1.3,0.6,2c0.1,0.7,0.2,1.4,0.2,2.1h1.4
			c0-0.8,0.1-1.5,0.3-2.2c0.1-0.7,0.4-1.4,0.6-2.1c0-0.1,0.1-0.3,0.3-0.6l3.8-8.5h4.6v16.5h-2.8v-8.6c0-1.1,0.1-2.1,0.3-2.9
			c0.2-0.9,0.5-1.7,0.8-2.5l-1.3-0.4l-6.2,14.5h-2.1l-6.2-14.5l-1.3,0.5c0.4,0.8,0.6,1.7,0.8,2.5c0.2,0.9,0.3,1.8,0.3,2.9v8.5h-2.8
			V769.2z"/>
		<path class="st4" d="M-788.1,789.7h3.1c0.6,0,1.2-0.1,1.5-0.4c0.4-0.2,0.7-0.7,1-1.4l1.5-4.2l-0.3,2.4l-7.6-17h3.1l3.7,8.6
			c0.1,0.2,0.1,0.4,0.2,0.4c0.2,0.7,0.4,1.3,0.5,2c0.1,0.7,0.2,1.5,0.2,2.3h1.3c0-0.9,0.1-1.7,0.2-2.4c0.1-0.7,0.3-1.4,0.5-2.1
			l3-8.9h3l-6.6,18.9c-0.4,1.1-0.7,1.9-1.2,2.5c-0.4,0.6-0.9,1-1.6,1.3c-0.6,0.3-1.4,0.4-2.4,0.4h-3.2V789.7z"/>
		<path class="st4" d="M-771.6,783.2h1c0.5,0,0.9,0,1.2-0.2c0.3-0.1,0.6-0.3,0.8-0.5c0.2-0.2,0.3-0.6,0.4-1c0.2-1,0.3-2.8,0.4-5.5
			c0-0.2,0-0.5,0-0.9l0.1-5.9h12.3v16.5h-2.8v-14.1h-6.9l-0.1,4.5c0,1.6-0.1,3-0.2,4c-0.1,1-0.2,1.8-0.4,2.5c-0.2,1-0.7,1.8-1.4,2.3
			c-0.7,0.5-1.7,0.8-3,0.8h-1.4V783.2z"/>
		<path class="st4" d="M-749.7,769.2h2.8v5.6h4.2c1.3,0,2.4,0.2,3.3,0.7c0.9,0.5,1.6,1.1,2.1,1.9c0.5,0.8,0.7,1.7,0.7,2.8
			c0,1.1-0.2,2.1-0.7,2.9c-0.5,0.9-1.2,1.5-2.1,2c-0.9,0.5-2,0.7-3.2,0.7h-7V769.2z M-740.5,782.4c0.6-0.6,0.9-1.4,0.9-2.3
			s-0.3-1.6-0.9-2.2c-0.6-0.6-1.5-0.8-2.7-0.8h-3.7v6.2h3.7C-742,783.3-741.1,783-740.5,782.4z"/>
		<path class="st4" d="M-728.7,771.7h-6.1v-2.4h15v2.4h-6.1v14.1h-2.8V771.7z"/>
		<path class="st4" d="M-716.3,769.2h2.8v9c0,1-0.1,1.8-0.3,2.5c-0.2,0.7-0.4,1.4-0.8,2l1.3,0.6l7-14.2h4.4v16.5h-2.8v-9
			c0-1,0.1-1.8,0.3-2.5c0.2-0.7,0.4-1.4,0.8-2.1l-1.3-0.6l-7,14.2h-4.5V769.2z"/>
		<path class="st4" d="M-696.1,769.2h2.6c0,0.6-0.1,1.2-0.4,1.8c-0.3,0.7-0.6,1.3-0.9,1.8h1.6c0.3-0.7,0.6-1.3,1-1.9
			c0.4-0.6,1-1.1,1.7-1.5c0.7-0.4,1.6-0.6,2.7-0.6c1.3,0,2.4,0.3,3.4,1c1,0.7,1.8,1.7,2.4,3c0.6,1.3,0.9,2.9,0.9,4.7
			c0,1.8-0.3,3.3-0.9,4.7c-0.6,1.3-1.4,2.3-2.4,3c-1,0.7-2.2,1-3.4,1c-1.5,0-2.6-0.4-3.5-1.2c-0.9-0.8-1.5-1.7-1.9-2.9h-1.7
			c0.5,0.9,0.9,1.8,1.2,2.7c0.3,0.9,0.4,2,0.4,3.4v4h-2.8V769.2z M-686.3,783.1c0.7-0.4,1.2-1.1,1.6-2c0.4-0.9,0.6-2.1,0.6-3.6
			c0-1.5-0.2-2.7-0.6-3.6s-0.9-1.6-1.6-2.1c-0.7-0.4-1.5-0.7-2.4-0.7c-0.9,0-1.7,0.2-2.4,0.7s-1.3,1.2-1.7,2.1
			c-0.4,1-0.6,2.1-0.6,3.5c0,1.4,0.2,2.5,0.6,3.5c0.4,0.9,0.9,1.6,1.7,2.1c0.7,0.5,1.5,0.7,2.5,0.7
			C-687.8,783.8-687,783.6-686.3,783.1z"/>
		<path class="st4" d="M-678.3,789.7h3.1c0.6,0,1.2-0.1,1.5-0.4c0.4-0.2,0.7-0.7,1-1.4l1.5-4.2l-0.3,2.4l-7.6-17h3.1l3.7,8.6
			c0.1,0.2,0.1,0.4,0.2,0.4c0.2,0.7,0.4,1.3,0.5,2c0.1,0.7,0.2,1.5,0.2,2.3h1.3c0-0.9,0.1-1.7,0.2-2.4c0.1-0.7,0.3-1.4,0.5-2.1
			l3-8.9h3l-6.6,18.9c-0.4,1.1-0.7,1.9-1.2,2.5c-0.4,0.6-0.9,1-1.6,1.3c-0.6,0.3-1.4,0.4-2.4,0.4h-3.2V789.7z"/>
		<path class="st4" d="M-659.6,769.2h4.8l3.7,8.5c0.1,0.2,0.2,0.5,0.3,0.7c0.3,0.6,0.5,1.3,0.6,2c0.1,0.7,0.2,1.4,0.2,2.1h1.4
			c0-0.8,0.1-1.5,0.3-2.2c0.1-0.7,0.4-1.4,0.6-2.1c0-0.1,0.1-0.3,0.3-0.6l3.8-8.5h4.6v16.5h-2.8v-8.6c0-1.1,0.1-2.1,0.3-2.9
			c0.2-0.9,0.5-1.7,0.8-2.5l-1.3-0.4l-6.2,14.5h-2.1l-6.2-14.5l-1.3,0.5c0.4,0.8,0.6,1.7,0.8,2.5c0.2,0.9,0.3,1.8,0.3,2.9v8.5h-2.8
			V769.2z"/>
		<path class="st4" d="M-625.5,769.2h2.8v9c0,1-0.1,1.8-0.3,2.5c-0.2,0.7-0.4,1.4-0.8,2l1.3,0.6l7-14.2h4.4v16.5h-2.8v-9
			c0-1,0.1-1.8,0.3-2.5c0.2-0.7,0.4-1.4,0.8-2.1l-1.3-0.6l-7,14.2h-4.5V769.2z"/>
		<path class="st4" d="M-597.7,769.2h8.1c1.7,0,2.9,0.4,3.8,1.1c0.9,0.7,1.3,1.7,1.3,2.8c0,1-0.3,1.7-0.9,2.3s-1.4,0.9-2.4,1v1.3
			c1.1,0.1,2,0.4,2.8,1c0.7,0.6,1.1,1.5,1.1,2.6c0,0.9-0.2,1.7-0.7,2.3s-1.1,1.2-1.9,1.5c-0.8,0.4-1.7,0.5-2.7,0.5h-8.5V769.2z
			 M-588.1,775.4c0.5-0.4,0.7-1,0.7-1.7c0-0.7-0.2-1.2-0.7-1.6c-0.5-0.4-1.1-0.6-2-0.6h-4.8v4.5h4.8
			C-589.2,776-588.5,775.8-588.1,775.4z M-587.6,782.7c0.5-0.5,0.8-1.1,0.8-1.9c0-0.8-0.3-1.4-0.8-1.9c-0.5-0.4-1.3-0.7-2.2-0.7
			h-5.1v5.1h5.1C-588.9,783.4-588.2,783.2-587.6,782.7z"/>
		<path class="st4" d="M-579.5,769.2h2.8v6.8h8.1v-6.8h2.8v16.5h-2.8v-7.3h-8.1v7.3h-2.8V769.2z"/>
		<path class="st4" d="M-557.7,785.2c-1.1-0.7-2-1.7-2.6-3c-0.6-1.3-1-2.9-1-4.7c0-1.8,0.3-3.3,1-4.6c0.6-1.3,1.5-2.3,2.6-3.1
			c1.1-0.7,2.4-1.1,3.8-1.1c1.6,0,3,0.4,4.1,1.2c1.1,0.8,2,1.9,2.5,3.4c0.5,1.4,0.7,3,0.6,4.8h-11.8c0,1.3,0.3,2.4,0.7,3.2
			s1,1.5,1.7,1.9c0.7,0.4,1.5,0.6,2.4,0.6c1.2,0,2.2-0.3,2.9-1c0.7-0.7,1.3-1.4,1.6-2.3l2.6,0.9c-0.6,1.5-1.5,2.7-2.7,3.5
			c-1.2,0.8-2.7,1.2-4.4,1.2C-555.3,786.2-556.6,785.9-557.7,785.2z M-550.2,773.3c-0.4-0.7-0.9-1.3-1.6-1.7
			c-0.7-0.4-1.4-0.6-2.2-0.6c-1.2,0-2.2,0.4-3,1.3s-1.3,2-1.5,3.5h8.8C-549.6,774.9-549.8,774-550.2,773.3z"/>
		<path class="st4" d="M-544.4,783.3h0.9c0.5,0,0.9-0.1,1.2-0.2c0.3-0.1,0.6-0.3,0.7-0.6c0.2-0.3,0.3-0.7,0.4-1.1
			c0.2-1.3,0.4-3.3,0.4-6l0.1-6.1h12.3v14.1h2.8v6h-2.6v-3.5h-13.8v3.5h-2.6V783.3z M-531.1,783.3v-11.6h-6.9l-0.1,4.5
			c0,1.2-0.1,2.3-0.1,3.2c-0.1,0.9-0.2,1.6-0.3,2.3s-0.3,1.2-0.5,1.7H-531.1z"/>
		<path class="st4" d="M-521.6,769.2h2.6c0,0.6-0.1,1.2-0.4,1.8c-0.3,0.7-0.6,1.3-0.9,1.8h1.6c0.3-0.7,0.6-1.3,1-1.9
			c0.4-0.6,1-1.1,1.7-1.5c0.7-0.4,1.6-0.6,2.7-0.6c1.3,0,2.4,0.3,3.4,1c1,0.7,1.8,1.7,2.4,3c0.6,1.3,0.9,2.9,0.9,4.7
			c0,1.8-0.3,3.3-0.9,4.7c-0.6,1.3-1.4,2.3-2.4,3c-1,0.7-2.2,1-3.4,1c-1.5,0-2.6-0.4-3.5-1.2c-0.9-0.8-1.5-1.7-1.9-2.9h-1.7
			c0.5,0.9,0.9,1.8,1.2,2.7c0.3,0.9,0.4,2,0.4,3.4v4h-2.8V769.2z M-511.7,783.1c0.7-0.4,1.2-1.1,1.6-2c0.4-0.9,0.6-2.1,0.6-3.6
			c0-1.5-0.2-2.7-0.6-3.6s-0.9-1.6-1.6-2.1c-0.7-0.4-1.5-0.7-2.4-0.7c-0.9,0-1.7,0.2-2.4,0.7s-1.3,1.2-1.7,2.1
			c-0.4,1-0.6,2.1-0.6,3.5c0,1.4,0.2,2.5,0.6,3.5c0.4,0.9,0.9,1.6,1.7,2.1c0.7,0.5,1.5,0.7,2.5,0.7
			C-513.3,783.8-512.4,783.6-511.7,783.1z"/>
		<path class="st4" d="M-499.8,785.2c-1.1-0.7-2-1.7-2.6-3c-0.6-1.3-1-2.9-1-4.7c0-1.8,0.3-3.3,1-4.6c0.6-1.3,1.5-2.3,2.6-3.1
			c1.1-0.7,2.4-1.1,3.8-1.1c1.6,0,3,0.4,4.1,1.2c1.1,0.8,2,1.9,2.5,3.4c0.5,1.4,0.7,3,0.6,4.8h-11.8c0,1.3,0.3,2.4,0.7,3.2
			s1,1.5,1.7,1.9c0.7,0.4,1.5,0.6,2.4,0.6c1.2,0,2.2-0.3,2.9-1c0.7-0.7,1.3-1.4,1.6-2.3l2.6,0.9c-0.6,1.5-1.5,2.7-2.7,3.5
			c-1.2,0.8-2.7,1.2-4.4,1.2C-497.3,786.2-498.7,785.9-499.8,785.2z M-492.2,773.3c-0.4-0.7-0.9-1.3-1.6-1.7
			c-0.7-0.4-1.4-0.6-2.2-0.6c-1.2,0-2.2,0.4-3,1.3s-1.3,2-1.5,3.5h8.8C-491.6,774.9-491.8,774-492.2,773.3z"/>
		<path class="st4" d="M-484.2,769.2h2.8v6.8h8.1v-6.8h2.8v16.5h-2.8v-7.3h-8.1v7.3h-2.8V769.2z"/>
		<path class="st4" d="M-464.8,769.2h2.8v9c0,1-0.1,1.8-0.3,2.5c-0.2,0.7-0.4,1.4-0.8,2l1.3,0.6l7-14.2h4.4v16.5h-2.8v-9
			c0-1,0.1-1.8,0.3-2.5c0.2-0.7,0.4-1.4,0.8-2.1l-1.3-0.6l-7,14.2h-4.5V769.2z"/>
		<path class="st4" d="M-442.3,785.2c-1.1-0.7-2-1.7-2.6-3c-0.6-1.3-1-2.9-1-4.7c0-1.8,0.3-3.3,1-4.6c0.6-1.3,1.5-2.3,2.6-3.1
			c1.1-0.7,2.4-1.1,3.8-1.1c1.6,0,3,0.4,4.1,1.2c1.1,0.8,2,1.9,2.5,3.4c0.5,1.4,0.7,3,0.6,4.8H-443c0,1.3,0.3,2.4,0.7,3.2
			s1,1.5,1.7,1.9c0.7,0.4,1.5,0.6,2.4,0.6c1.2,0,2.2-0.3,2.9-1c0.7-0.7,1.3-1.4,1.6-2.3l2.6,0.9c-0.6,1.5-1.5,2.7-2.7,3.5
			c-1.2,0.8-2.7,1.2-4.4,1.2C-439.9,786.2-441.2,785.9-442.3,785.2z M-434.7,773.3c-0.4-0.7-0.9-1.3-1.6-1.7
			c-0.7-0.4-1.4-0.6-2.2-0.6c-1.2,0-2.2,0.4-3,1.3s-1.3,2-1.5,3.5h8.8C-434.1,774.9-434.3,774-434.7,773.3z"/>
		<path class="st4" d="M-426.7,769.2h4.8l3.7,8.5c0.1,0.2,0.2,0.5,0.3,0.7c0.3,0.6,0.5,1.3,0.6,2c0.1,0.7,0.2,1.4,0.2,2.1h1.4
			c0-0.8,0.1-1.5,0.3-2.2c0.1-0.7,0.4-1.4,0.6-2.1c0-0.1,0.1-0.3,0.3-0.6l3.8-8.5h4.6v16.5h-2.8v-8.6c0-1.1,0.1-2.1,0.3-2.9
			c0.2-0.9,0.5-1.7,0.8-2.5l-1.3-0.4l-6.2,14.5h-2.1l-6.2-14.5l-1.3,0.5c0.4,0.8,0.6,1.7,0.8,2.5c0.2,0.9,0.3,1.8,0.3,2.9v8.5h-2.8
			V769.2z"/>
		<path class="st4" d="M-809.1,811.7h-6.1v-2.4h15v2.4h-6.1v14.1h-2.8V811.7z"/>
		<path class="st4" d="M-794.2,825.2c-1.1-0.7-2-1.7-2.6-3c-0.6-1.3-1-2.9-1-4.7c0-1.8,0.3-3.3,1-4.6c0.6-1.3,1.5-2.3,2.6-3.1
			c1.1-0.7,2.4-1.1,3.8-1.1c1.6,0,3,0.4,4.1,1.2c1.1,0.8,2,1.9,2.5,3.4c0.5,1.4,0.7,3,0.6,4.8H-795c0,1.3,0.3,2.4,0.7,3.2
			s1,1.5,1.7,1.9c0.7,0.4,1.5,0.6,2.4,0.6c1.2,0,2.2-0.3,2.9-1c0.7-0.7,1.3-1.4,1.6-2.3l2.6,0.9c-0.6,1.5-1.5,2.7-2.7,3.5
			c-1.2,0.8-2.7,1.2-4.4,1.2C-791.8,826.2-793.1,825.9-794.2,825.2z M-786.7,813.3c-0.4-0.7-0.9-1.3-1.6-1.7
			c-0.7-0.4-1.4-0.6-2.2-0.6c-1.2,0-2.2,0.4-3,1.3s-1.3,2-1.5,3.5h8.8C-786.1,814.9-786.3,814-786.7,813.3z"/>
		<path class="st4" d="M-775.1,817.3l-5.5-8h3.3l1.9,2.9c0.4,0.6,0.7,1.3,0.9,1.9c0.2,0.6,0.3,1.3,0.4,2.1h1.3
			c0-0.6,0.2-1.3,0.4-1.9c0.3-0.6,0.6-1.3,1.1-2.1l1.9-2.9h3.2l-5.5,8.1l5.9,8.4h-3.4l-2.2-3.3c-0.4-0.6-0.7-1.2-0.9-1.8
			s-0.3-1.3-0.4-2.1h-1.3c0,0.7-0.2,1.3-0.4,1.9c-0.3,0.6-0.7,1.3-1.2,2l-2.3,3.3h-3.1L-775.1,817.3z"/>
		<path class="st4" d="M-762.4,809.2h2.8v6.8h8.1v-6.8h2.8v16.5h-2.8v-7.3h-8.1v7.3h-2.8V809.2z"/>
		<path class="st4" d="M-740.4,825.1c-1.2-0.7-2.1-1.8-2.8-3.1s-1.1-2.8-1.1-4.5c0-1.7,0.3-3.2,1-4.5s1.6-2.4,2.8-3.1
			c1.2-0.7,2.5-1.1,4-1.1c1.4,0,2.8,0.4,4,1.1c1.2,0.7,2.1,1.8,2.8,3.1c0.7,1.3,1,2.8,1,4.5c0,1.7-0.3,3.2-1,4.5
			c-0.7,1.3-1.6,2.3-2.8,3.1c-1.2,0.7-2.5,1.1-3.9,1.1C-737.9,826.2-739.2,825.8-740.4,825.1z M-733.9,823.1
			c0.7-0.5,1.3-1.2,1.7-2.1c0.4-0.9,0.6-2.1,0.6-3.4c0-1.4-0.2-2.5-0.6-3.5c-0.4-0.9-1-1.7-1.7-2.1c-0.7-0.5-1.6-0.7-2.5-0.7
			c-1,0-1.8,0.2-2.6,0.7c-0.7,0.5-1.3,1.2-1.7,2.1c-0.4,0.9-0.6,2.1-0.6,3.5c0,1.4,0.2,2.5,0.6,3.4c0.4,0.9,1,1.6,1.7,2.1
			c0.7,0.5,1.6,0.7,2.6,0.7C-735.5,823.7-734.7,823.5-733.9,823.1z"/>
		<path class="st4" d="M-726.6,823.2h1c0.5,0,0.9,0,1.2-0.2c0.3-0.1,0.6-0.3,0.8-0.5c0.2-0.2,0.3-0.6,0.4-1c0.2-1,0.3-2.8,0.4-5.5
			c0-0.2,0-0.5,0-0.9l0.1-5.9h12.3v16.5h-2.8v-14.1h-6.9l-0.1,4.5c0,1.6-0.1,3-0.2,4c-0.1,1-0.2,1.8-0.4,2.5c-0.2,1-0.7,1.8-1.4,2.3
			c-0.7,0.5-1.7,0.8-3,0.8h-1.4V823.2z"/>
		<path class="st4" d="M-702,825.1c-1.2-0.7-2.1-1.8-2.8-3.1s-1.1-2.8-1.1-4.5c0-1.7,0.3-3.2,1-4.5s1.6-2.4,2.8-3.1
			c1.2-0.7,2.5-1.1,4-1.1c1.4,0,2.8,0.4,4,1.1c1.2,0.7,2.1,1.8,2.8,3.1c0.7,1.3,1,2.8,1,4.5c0,1.7-0.3,3.2-1,4.5
			c-0.7,1.3-1.6,2.3-2.8,3.1c-1.2,0.7-2.5,1.1-3.9,1.1C-699.5,826.2-700.8,825.8-702,825.1z M-695.6,823.1c0.7-0.5,1.3-1.2,1.7-2.1
			c0.4-0.9,0.6-2.1,0.6-3.4c0-1.4-0.2-2.5-0.6-3.5c-0.4-0.9-1-1.7-1.7-2.1c-0.7-0.5-1.6-0.7-2.5-0.7c-1,0-1.8,0.2-2.6,0.7
			c-0.7,0.5-1.3,1.2-1.7,2.1c-0.4,0.9-0.6,2.1-0.6,3.5c0,1.4,0.2,2.5,0.6,3.4c0.4,0.9,1,1.6,1.7,2.1c0.7,0.5,1.6,0.7,2.6,0.7
			C-697.2,823.7-696.3,823.5-695.6,823.1z"/>
		<path class="st4" d="M-686,809.2h11.4v2.4h-8.5v14.1h-2.8V809.2z"/>
		<path class="st4" d="M-671.1,809.2h2.8v9c0,1-0.1,1.8-0.3,2.5c-0.2,0.7-0.4,1.4-0.8,2l1.3,0.6l7-14.2h4.4v16.5h-2.8v-9
			c0-1,0.1-1.8,0.3-2.5c0.2-0.7,0.4-1.4,0.8-2.1l-1.3-0.6l-7,14.2h-4.5V809.2z"/>
		<path class="st4" d="M-650.9,809.2h2.8v9c0,1-0.1,1.8-0.3,2.5c-0.2,0.7-0.4,1.4-0.8,2l1.3,0.6l7-14.2h4.4v16.5h-2.8v-9
			c0-1,0.1-1.8,0.3-2.5c0.2-0.7,0.4-1.4,0.8-2.1l-1.3-0.6l-7,14.2h-4.5V809.2z"/>
		<path class="st4" d="M-624.8,829.7h3.1c0.6,0,1.2-0.1,1.5-0.4c0.4-0.2,0.7-0.7,1-1.4l1.5-4.2l-0.3,2.4l-7.6-17h3.1l3.7,8.6
			c0.1,0.2,0.1,0.4,0.2,0.4c0.2,0.7,0.4,1.3,0.5,2c0.1,0.7,0.2,1.5,0.2,2.3h1.3c0-0.9,0.1-1.7,0.2-2.4c0.1-0.7,0.3-1.4,0.5-2.1
			l3-8.9h3l-6.6,18.9c-0.4,1.1-0.7,1.9-1.2,2.5c-0.4,0.6-0.9,1-1.6,1.3c-0.6,0.3-1.4,0.4-2.4,0.4h-3.2V829.7z"/>
		<path class="st4" d="M-606.1,809.2h4.8l3.7,8.5c0.1,0.2,0.2,0.5,0.3,0.7c0.3,0.6,0.5,1.3,0.6,2c0.1,0.7,0.2,1.4,0.2,2.1h1.4
			c0-0.8,0.1-1.5,0.3-2.2c0.1-0.7,0.4-1.4,0.6-2.1c0-0.1,0.1-0.3,0.3-0.6l3.8-8.5h4.6v16.5h-2.8v-8.6c0-1.1,0.1-2.1,0.3-2.9
			c0.2-0.9,0.5-1.7,0.8-2.5l-1.3-0.4l-6.2,14.5h-2.1l-6.2-14.5l-1.3,0.5c0.4,0.8,0.6,1.7,0.8,2.5c0.2,0.9,0.3,1.8,0.3,2.9v8.5h-2.8
			V809.2z"/>
		<path class="st4" d="M-579.6,809.2h2.8v6.8h8.1v-6.8h2.8v16.5h-2.8v-7.3h-8.1v7.3h-2.8V809.2z"/>
		<path class="st4" d="M-560.2,809.2h2.8v5.6h3.9c1.2,0,2.3,0.2,3.3,0.7s1.6,1.1,2.1,1.9c0.5,0.8,0.7,1.7,0.7,2.8
			c0,1.1-0.2,2.1-0.7,2.9c-0.5,0.9-1.2,1.5-2.1,2c-0.9,0.5-2,0.7-3.3,0.7h-6.7V809.2z M-551.3,822.4c0.6-0.6,0.9-1.4,0.9-2.3
			s-0.3-1.6-0.9-2.2c-0.6-0.6-1.5-0.8-2.7-0.8h-3.4v6.2h3.4C-552.8,823.3-551.9,823-551.3,822.4z M-545.1,809.2h2.8v16.5h-2.8V809.2
			z"/>
		<path class="st4" d="M-536.5,809.2h2.8v9c0,1-0.1,1.8-0.3,2.5c-0.2,0.7-0.4,1.4-0.8,2l1.3,0.6l7-14.2h4.4v16.5h-2.8v-9
			c0-1,0.1-1.8,0.3-2.5c0.2-0.7,0.4-1.4,0.8-2.1l-1.3-0.6l-7,14.2h-4.5V809.2z M-532.1,806.6c-0.7-0.4-1.3-1-1.7-1.6
			s-0.5-1.4-0.6-2.2h2.5c0.1,0.7,0.3,1.3,0.8,1.7c0.4,0.4,1,0.6,1.8,0.6c0.8,0,1.4-0.2,1.8-0.6c0.4-0.4,0.7-1,0.8-1.7h2.5
			c0,1.2-0.5,2.3-1.3,3.1c-0.8,0.9-2.1,1.3-3.7,1.3C-530.4,807.2-531.3,807-532.1,806.6z"/>
		<path class="st4" d="M-511,823.3h0.9c0.5,0,0.9-0.1,1.2-0.2c0.3-0.1,0.6-0.3,0.7-0.6c0.2-0.3,0.3-0.7,0.4-1.1
			c0.2-1.3,0.4-3.3,0.4-6l0.1-6.1h12.3v14.1h2.8v6h-2.6v-3.5h-13.8v3.5h-2.6V823.3z M-497.6,823.3v-11.6h-6.9l-0.1,4.5
			c0,1.2-0.1,2.3-0.1,3.2c-0.1,0.9-0.2,1.6-0.3,2.3s-0.3,1.2-0.5,1.7H-497.6z"/>
		<path class="st4" d="M-485.5,825.1c-1.2-0.7-2.1-1.8-2.8-3.1s-1.1-2.8-1.1-4.5c0-1.7,0.3-3.2,1-4.5s1.6-2.4,2.8-3.1
			c1.2-0.7,2.5-1.1,4-1.1c1.4,0,2.8,0.4,4,1.1c1.2,0.7,2.1,1.8,2.8,3.1c0.7,1.3,1,2.8,1,4.5c0,1.7-0.3,3.2-1,4.5
			c-0.7,1.3-1.6,2.3-2.8,3.1c-1.2,0.7-2.5,1.1-3.9,1.1C-483,826.2-484.3,825.8-485.5,825.1z M-479.1,823.1c0.7-0.5,1.3-1.2,1.7-2.1
			c0.4-0.9,0.6-2.1,0.6-3.4c0-1.4-0.2-2.5-0.6-3.5c-0.4-0.9-1-1.7-1.7-2.1c-0.7-0.5-1.6-0.7-2.5-0.7c-1,0-1.8,0.2-2.6,0.7
			c-0.7,0.5-1.3,1.2-1.7,2.1c-0.4,0.9-0.6,2.1-0.6,3.5c0,1.4,0.2,2.5,0.6,3.4c0.4,0.9,1,1.6,1.7,2.1c0.7,0.5,1.6,0.7,2.6,0.7
			C-480.6,823.7-479.8,823.5-479.1,823.1z"/>
		<path class="st4" d="M-469.5,809.2h4.8l3.7,8.5c0.1,0.2,0.2,0.5,0.3,0.7c0.3,0.6,0.5,1.3,0.6,2c0.1,0.7,0.2,1.4,0.2,2.1h1.4
			c0-0.8,0.1-1.5,0.3-2.2c0.1-0.7,0.4-1.4,0.6-2.1c0-0.1,0.1-0.3,0.3-0.6l3.8-8.5h4.6v16.5h-2.8v-8.6c0-1.1,0.1-2.1,0.3-2.9
			c0.2-0.9,0.5-1.7,0.8-2.5l-1.3-0.4l-6.2,14.5h-2.1l-6.2-14.5l-1.3,0.5c0.4,0.8,0.6,1.7,0.8,2.5c0.2,0.9,0.3,1.8,0.3,2.9v8.5h-2.8
			V809.2z"/>
		<path class="st4" d="M-443.5,821.6h3.9v4.1h-3.9V821.6z"/>
	</g>
</g>
<g>
	<g>
		<g>
			<g>
				<path class="st4" d="M1574.8,393.6c-1.5-1.3-2.3-3-2.4-5.2l3.1-0.7c0,1,0.3,1.9,0.7,2.7c0.4,0.8,1,1.4,1.8,1.8
					c0.8,0.4,1.6,0.6,2.6,0.6c0.9,0,1.7-0.2,2.4-0.5c0.7-0.3,1.3-0.8,1.7-1.5c0.4-0.6,0.6-1.4,0.6-2.2c0-0.9-0.2-1.6-0.6-2.3
					c-0.4-0.6-1-1.1-1.7-1.5c-0.7-0.3-1.6-0.5-2.5-0.5h-1.7v-2.6h1.7c0.8,0,1.5-0.2,2.2-0.5s1.2-0.8,1.6-1.4
					c0.4-0.6,0.6-1.3,0.6-2.1s-0.2-1.5-0.6-2.1c-0.4-0.6-0.9-1.1-1.5-1.4c-0.6-0.3-1.4-0.5-2.2-0.5c-1.3,0-2.4,0.4-3.2,1.2
					c-0.8,0.8-1.2,1.9-1.3,3.2l-3.1-0.6c0.1-1.2,0.5-2.3,1.1-3.3c0.6-1,1.5-1.8,2.6-2.3c1.1-0.6,2.4-0.9,3.9-0.9
					c1.5,0,2.8,0.3,3.9,0.8c1.1,0.5,1.9,1.3,2.5,2.2s0.9,2,0.9,3.1c0,1-0.2,1.9-0.7,2.6c-0.5,0.7-1.1,1.3-1.9,1.7
					c-0.8,0.4-1.6,0.6-2.6,0.7v1.3c1.6,0.1,2.9,0.6,4,1.5c1.1,0.9,1.6,2.2,1.6,3.9c0,1.2-0.3,2.3-0.9,3.2c-0.6,1-1.5,1.7-2.7,2.3
					c-1.2,0.6-2.6,0.9-4.2,0.9C1578.1,395.5,1576.2,394.8,1574.8,393.6z"/>
				<path class="st4" d="M1595.7,386.8c0.8-2.5,1.8-4.8,3.3-6.9c1.4-2,3.1-3.9,5.1-5.5l0.4-0.4l-0.8-1.1c-0.6,0.4-1.2,0.8-1.9,1
					c-0.7,0.2-1.6,0.4-2.7,0.4h-8.1v-2.8h15.7v3.2c-2.3,2-4.2,4-5.5,6.1c-1.3,2.1-2.2,4.3-2.7,6.5c-0.5,2.2-0.7,4.7-0.7,7.5h-3.3
					C1594.6,392.1,1595,389.4,1595.7,386.8z"/>
				<path class="st4" d="M1614.1,394.1c-1.4-0.9-2.5-2.3-3.3-4.2c-0.8-1.8-1.2-4.1-1.2-6.7c0-2.6,0.4-4.7,1.3-6.6
					c0.8-1.8,2-3.2,3.4-4.1c1.4-0.9,3-1.4,4.7-1.4c1.7,0,3.3,0.5,4.7,1.4c1.4,0.9,2.5,2.3,3.3,4.1c0.8,1.8,1.2,4,1.2,6.6
					c0,2.6-0.4,4.8-1.2,6.7c-0.8,1.8-1.9,3.2-3.3,4.2c-1.4,0.9-3,1.4-4.9,1.4C1617.1,395.5,1615.5,395,1614.1,394.1z M1622.2,391.7
					c0.9-0.7,1.6-1.8,2.1-3.3c0.5-1.4,0.7-3.2,0.7-5.2c0-1.9-0.2-3.5-0.7-4.9s-1.2-2.5-2.1-3.3c-0.9-0.8-2-1.2-3.3-1.2
					c-1.2,0-2.3,0.4-3.3,1.1c-0.9,0.8-1.7,1.8-2.2,3.3c-0.5,1.4-0.8,3.1-0.8,4.9c0,2,0.2,3.7,0.7,5.2c0.5,1.4,1.2,2.5,2.1,3.3
					c0.9,0.7,2,1.1,3.3,1.1C1620.2,392.8,1621.3,392.4,1622.2,391.7z"/>
				<path class="st4" d="M1641,371.7h7.8c2.2,0,4.2,0.5,5.9,1.4c1.7,1,3.1,2.3,4,4.1c0.9,1.8,1.4,3.8,1.4,6.1c0,2.4-0.5,4.5-1.4,6.3
					c-0.9,1.8-2.2,3.1-4,4.1s-3.8,1.4-6.1,1.4h-7.7V371.7z M1643.7,392.2h4.5c2,0,3.6-0.3,4.9-1c1.3-0.7,2.3-1.7,2.9-3
					c0.6-1.3,1-3,1-4.9c0-1.8-0.3-3.4-1-4.7c-0.6-1.3-1.6-2.3-2.9-3.1c-1.3-0.7-2.9-1.1-4.7-1.1h-4.7l0.3-0.3v18.4L1643.7,392.2z"/>
				<path class="st4" d="M1668.9,394c-1.6-1-2.9-2.4-3.7-4.3c-0.9-1.8-1.3-4-1.3-6.4c0-2.3,0.5-4.4,1.5-6.3c1-1.8,2.4-3.3,4.2-4.3
					c1.8-1,3.7-1.6,5.9-1.6c1.9,0,3.6,0.3,5.1,1c1.4,0.7,2.6,1.5,3.5,2.6c0.9,1,1.5,2.2,1.9,3.4l-3.1,1.2c-0.4-1-0.9-2-1.5-2.8
					c-0.6-0.8-1.4-1.5-2.4-1.9s-2.2-0.7-3.5-0.7c-1.5,0-2.9,0.4-4.2,1.1c-1.3,0.7-2.3,1.8-3.1,3.2c-0.8,1.4-1.2,3.1-1.2,5
					c0,1.9,0.3,3.6,1,5c0.7,1.4,1.6,2.5,2.9,3.3c1.2,0.8,2.7,1.2,4.3,1.2c1.5,0,2.8-0.3,3.9-0.9c1.1-0.6,2-1.4,2.6-2.4
					c0.6-1,1-2,1-3.1h-8.2v-2.8h11.3V395h-2.9c0-0.9,0.1-1.8,0.3-2.7c0.2-0.8,0.5-1.6,0.9-2.4h-1.5c-0.5,1.4-1.4,2.7-2.7,3.8
					c-1.3,1.1-3.1,1.7-5.5,1.7C1672.3,395.5,1670.5,395,1668.9,394z"/>
			</g>
		</g>
	</g>
	<g>
		<g>
			<g>
				<path class="st4" d="M802,1290.5c-1.5-1.3-2.3-3-2.4-5.2l3.1-0.7c0,1,0.3,1.9,0.7,2.7c0.4,0.8,1,1.4,1.8,1.8
					c0.8,0.4,1.6,0.6,2.6,0.6c0.9,0,1.7-0.2,2.4-0.5s1.3-0.8,1.7-1.5c0.4-0.6,0.6-1.4,0.6-2.2c0-0.9-0.2-1.6-0.6-2.3
					c-0.4-0.6-1-1.1-1.7-1.5c-0.7-0.3-1.6-0.5-2.5-0.5h-1.7v-2.6h1.7c0.8,0,1.5-0.2,2.2-0.5s1.2-0.8,1.6-1.4
					c0.4-0.6,0.6-1.3,0.6-2.1c0-0.8-0.2-1.5-0.6-2.1c-0.4-0.6-0.9-1.1-1.5-1.4c-0.6-0.3-1.4-0.5-2.2-0.5c-1.3,0-2.4,0.4-3.2,1.2
					c-0.8,0.8-1.2,1.9-1.3,3.2l-3.1-0.6c0.1-1.2,0.5-2.3,1.1-3.3c0.6-1,1.5-1.8,2.6-2.3c1.1-0.6,2.4-0.9,3.9-0.9
					c1.5,0,2.8,0.3,3.9,0.8c1.1,0.5,1.9,1.3,2.5,2.2c0.6,0.9,0.9,2,0.9,3.1c0,1-0.2,1.9-0.7,2.6s-1.1,1.3-1.9,1.7
					c-0.8,0.4-1.6,0.6-2.6,0.7v1.3c1.6,0.1,2.9,0.6,4,1.5c1.1,0.9,1.6,2.2,1.6,3.9c0,1.2-0.3,2.3-0.9,3.2c-0.6,1-1.5,1.7-2.7,2.3
					c-1.2,0.6-2.6,0.9-4.2,0.9C805.3,1292.4,803.4,1291.8,802,1290.5z"/>
				<path class="st4" d="M822.9,1283.8c0.8-2.5,1.9-4.8,3.3-6.9c1.4-2,3.1-3.9,5.1-5.5l0.4-0.4l-0.8-1.1c-0.6,0.4-1.2,0.8-1.9,1
					c-0.7,0.2-1.6,0.4-2.7,0.4h-8.1v-2.8h15.7v3.2c-2.3,2-4.2,4-5.5,6.1c-1.3,2.1-2.2,4.3-2.7,6.5c-0.5,2.2-0.7,4.7-0.7,7.5h-3.3
					C821.8,1289,822.2,1286.3,822.9,1283.8z"/>
				<path class="st4" d="M841.3,1291c-1.4-0.9-2.5-2.3-3.3-4.2c-0.8-1.8-1.2-4.1-1.2-6.7c0-2.6,0.4-4.7,1.3-6.6
					c0.8-1.8,2-3.2,3.4-4.1c1.4-0.9,3-1.4,4.7-1.4s3.3,0.5,4.7,1.4c1.4,0.9,2.5,2.3,3.3,4.1c0.8,1.8,1.2,4,1.2,6.6
					c0,2.6-0.4,4.8-1.2,6.7c-0.8,1.8-1.9,3.2-3.3,4.2s-3,1.4-4.9,1.4S842.7,1292,841.3,1291z M849.4,1288.6c0.9-0.7,1.6-1.8,2.1-3.3
					c0.5-1.4,0.7-3.2,0.7-5.2c0-1.9-0.2-3.5-0.7-4.9c-0.5-1.4-1.2-2.5-2.1-3.3s-2-1.2-3.3-1.2c-1.2,0-2.3,0.4-3.3,1.1
					s-1.7,1.8-2.2,3.3c-0.5,1.4-0.8,3.1-0.8,4.9c0,2,0.2,3.7,0.7,5.2c0.5,1.4,1.2,2.5,2.1,3.3c0.9,0.7,2,1.1,3.3,1.1
					C847.4,1289.7,848.5,1289.4,849.4,1288.6z"/>
				<path class="st4" d="M868.2,1268.6h7.8c2.2,0,4.2,0.5,5.9,1.4c1.7,1,3.1,2.3,4,4.1c0.9,1.8,1.4,3.8,1.4,6.1
					c0,2.4-0.5,4.5-1.4,6.3c-0.9,1.8-2.2,3.1-4,4.1c-1.7,0.9-3.8,1.4-6.1,1.4h-7.7V1268.6z M870.9,1289.2h4.5c2,0,3.6-0.3,4.9-1
					c1.3-0.7,2.3-1.7,2.9-3c0.6-1.3,1-3,1-4.9c0-1.8-0.3-3.4-1-4.7c-0.6-1.3-1.6-2.3-2.9-3.1c-1.3-0.7-2.9-1.1-4.7-1.1h-4.7l0.3-0.3
					v18.4L870.9,1289.2z"/>
				<path class="st4" d="M896.1,1290.9c-1.6-1-2.9-2.4-3.7-4.3c-0.9-1.8-1.3-4-1.3-6.4c0-2.3,0.5-4.4,1.5-6.3c1-1.8,2.4-3.3,4.2-4.3
					c1.8-1,3.7-1.6,5.9-1.6c1.9,0,3.6,0.3,5.1,1c1.4,0.7,2.6,1.5,3.5,2.6c0.9,1,1.5,2.2,1.9,3.4l-3.1,1.2c-0.4-1-0.9-2-1.5-2.8
					c-0.6-0.8-1.4-1.5-2.4-1.9c-1-0.5-2.2-0.7-3.5-0.7c-1.5,0-2.9,0.4-4.2,1.1c-1.3,0.7-2.3,1.8-3.1,3.2c-0.8,1.4-1.2,3.1-1.2,5
					c0,1.9,0.3,3.6,1,5c0.7,1.4,1.6,2.5,2.9,3.3c1.2,0.8,2.7,1.2,4.3,1.2c1.5,0,2.8-0.3,3.9-0.9c1.1-0.6,2-1.4,2.6-2.4
					c0.6-1,1-2,1-3.1h-8.2v-2.8H913v11.4h-2.9c0-0.9,0.1-1.8,0.3-2.7s0.5-1.6,0.9-2.4h-1.5c-0.5,1.4-1.4,2.7-2.7,3.8
					c-1.3,1.1-3.1,1.7-5.5,1.7C899.5,1292.4,897.7,1291.9,896.1,1290.9z"/>
			</g>
		</g>
	</g>
	<g>
		<g>
			<g>
				<path class="st4" d="M2047.7,1267.7c-1.5-1.3-2.3-3-2.4-5.2l3.1-0.7c0,1,0.3,1.9,0.7,2.7c0.4,0.8,1,1.4,1.8,1.8
					c0.8,0.4,1.6,0.6,2.6,0.6c0.9,0,1.7-0.2,2.4-0.5s1.3-0.8,1.7-1.5c0.4-0.6,0.6-1.4,0.6-2.2c0-0.9-0.2-1.6-0.6-2.3
					c-0.4-0.6-1-1.1-1.7-1.5c-0.7-0.3-1.6-0.5-2.5-0.5h-1.7v-2.6h1.7c0.8,0,1.5-0.2,2.2-0.5s1.2-0.8,1.6-1.4s0.6-1.3,0.6-2.1
					c0-0.8-0.2-1.5-0.6-2.1c-0.4-0.6-0.9-1.1-1.5-1.4c-0.6-0.3-1.4-0.5-2.2-0.5c-1.3,0-2.4,0.4-3.2,1.2c-0.8,0.8-1.2,1.9-1.3,3.2
					l-3.1-0.6c0.1-1.2,0.5-2.3,1.1-3.3c0.6-1,1.5-1.8,2.6-2.3c1.1-0.6,2.4-0.9,3.9-0.9c1.5,0,2.8,0.3,3.9,0.8s1.9,1.3,2.5,2.2
					s0.9,2,0.9,3.1c0,1-0.2,1.9-0.7,2.6s-1.1,1.3-1.9,1.7c-0.8,0.4-1.6,0.6-2.6,0.7v1.3c1.6,0.1,2.9,0.6,4,1.5
					c1.1,0.9,1.6,2.2,1.6,3.9c0,1.2-0.3,2.3-0.9,3.2c-0.6,1-1.5,1.7-2.7,2.3c-1.2,0.6-2.6,0.9-4.2,0.9
					C2051.1,1269.6,2049.2,1269,2047.7,1267.7z"/>
				<path class="st4" d="M2068.7,1261c0.8-2.5,1.9-4.8,3.3-6.9c1.4-2,3.1-3.9,5.1-5.5l0.4-0.4l-0.8-1.1c-0.6,0.4-1.2,0.8-1.9,1
					c-0.7,0.2-1.6,0.4-2.7,0.4h-8.1v-2.8h15.7v3.2c-2.3,2-4.2,4-5.5,6.1s-2.2,4.3-2.7,6.5c-0.5,2.2-0.7,4.7-0.7,7.5h-3.3
					C2067.5,1266.3,2067.9,1263.5,2068.7,1261z"/>
				<path class="st4" d="M2087,1268.2c-1.4-0.9-2.5-2.3-3.3-4.2c-0.8-1.8-1.2-4.1-1.2-6.7c0-2.6,0.4-4.7,1.3-6.6
					c0.8-1.8,2-3.2,3.4-4.1c1.4-0.9,3-1.4,4.7-1.4c1.7,0,3.3,0.5,4.7,1.4c1.4,0.9,2.5,2.3,3.3,4.1c0.8,1.8,1.2,4,1.2,6.6
					c0,2.6-0.4,4.8-1.2,6.7c-0.8,1.8-1.9,3.2-3.3,4.2c-1.4,0.9-3,1.4-4.9,1.4C2090.1,1269.6,2088.4,1269.2,2087,1268.2z
					 M2095.2,1265.8c0.9-0.7,1.6-1.8,2.1-3.3c0.5-1.4,0.7-3.2,0.7-5.2c0-1.9-0.2-3.5-0.7-4.9c-0.5-1.4-1.2-2.5-2.1-3.3
					c-0.9-0.8-2-1.2-3.3-1.2c-1.2,0-2.3,0.4-3.3,1.1s-1.7,1.8-2.2,3.3c-0.5,1.4-0.8,3.1-0.8,4.9c0,2,0.2,3.7,0.7,5.2
					c0.5,1.4,1.2,2.5,2.1,3.3c0.9,0.7,2,1.1,3.3,1.1C2093.2,1266.9,2094.3,1266.6,2095.2,1265.8z"/>
				<path class="st4" d="M2113.9,1245.8h7.8c2.2,0,4.2,0.5,5.9,1.4s3.1,2.3,4,4.1c0.9,1.8,1.4,3.8,1.4,6.1c0,2.4-0.5,4.5-1.4,6.3
					c-0.9,1.8-2.2,3.1-4,4.1c-1.7,0.9-3.8,1.4-6.1,1.4h-7.7V1245.8z M2116.6,1266.4h4.5c2,0,3.6-0.3,4.9-1c1.3-0.7,2.3-1.7,2.9-3
					c0.6-1.3,1-3,1-4.9c0-1.8-0.3-3.4-1-4.7c-0.6-1.3-1.6-2.3-2.9-3.1c-1.3-0.7-2.9-1.1-4.7-1.1h-4.7l0.3-0.3v18.4L2116.6,1266.4z"
					/>
				<path class="st4" d="M2141.8,1268.1c-1.6-1-2.9-2.4-3.7-4.3c-0.9-1.8-1.3-4-1.3-6.4c0-2.3,0.5-4.4,1.5-6.3
					c1-1.8,2.4-3.3,4.2-4.3c1.8-1,3.7-1.6,5.9-1.6c1.9,0,3.6,0.3,5.1,1s2.6,1.5,3.5,2.6c0.9,1,1.5,2.2,1.9,3.4l-3.1,1.2
					c-0.4-1-0.9-2-1.5-2.8c-0.6-0.8-1.4-1.5-2.4-1.9s-2.2-0.7-3.5-0.7c-1.5,0-2.9,0.4-4.2,1.1c-1.3,0.7-2.3,1.8-3.1,3.2
					s-1.2,3.1-1.2,5c0,1.9,0.3,3.6,1,5c0.7,1.4,1.6,2.5,2.9,3.3c1.2,0.8,2.7,1.2,4.3,1.2c1.5,0,2.8-0.3,3.9-0.9
					c1.1-0.6,2-1.4,2.6-2.4c0.6-1,1-2,1-3.1h-8.2v-2.8h11.3v11.4h-2.9c0-0.9,0.1-1.8,0.3-2.7c0.2-0.8,0.5-1.6,0.9-2.4h-1.5
					c-0.5,1.4-1.4,2.7-2.7,3.8c-1.3,1.1-3.1,1.7-5.5,1.7C2145.3,1269.6,2143.4,1269.1,2141.8,1268.1z"/>
			</g>
		</g>
	</g>
	<g>
		<g>
			<g>
				<path class="st4" d="M804.1,688.7c-1.3-0.9-2.3-2.1-3.1-3.8c-0.7-1.7-1.1-3.8-1.1-6.2c0-2.5,0.4-4.7,1.3-6.7
					c0.8-2,2.1-3.5,3.7-4.6c1.6-1.1,3.7-1.7,6-1.7c0.7,0,1.5,0.1,2.3,0.2c0.8,0.1,1.5,0.3,2.1,0.6v2.9c-0.7-0.2-1.4-0.4-2.1-0.6
					s-1.4-0.2-2.2-0.2c-1.8,0-3.3,0.4-4.7,1.2c-1.3,0.8-2.4,2-3.2,3.6c-0.8,1.6-1.2,3.5-1.2,5.8h1.3c0.2-0.8,0.5-1.6,1-2.3
					c0.5-0.7,1.2-1.3,2-1.7c0.8-0.4,1.8-0.7,2.9-0.7c1.5,0,2.8,0.3,3.9,1c1.1,0.7,2,1.6,2.6,2.7c0.6,1.1,0.9,2.4,0.9,3.8
					c0,1.5-0.3,2.8-1,4.1c-0.6,1.2-1.6,2.2-2.8,2.9c-1.2,0.7-2.7,1.1-4.4,1.1C806.9,690,805.4,689.6,804.1,688.7z M811.2,686.7
					c0.8-0.4,1.4-1,1.8-1.8c0.4-0.8,0.7-1.7,0.7-2.7c0-1-0.2-2-0.7-2.7c-0.4-0.8-1-1.4-1.8-1.8c-0.8-0.4-1.6-0.6-2.5-0.6
					c-1,0-1.8,0.2-2.6,0.6c-0.7,0.4-1.3,1-1.8,1.8c-0.4,0.8-0.7,1.7-0.7,2.7c0,1,0.2,1.9,0.7,2.7c0.4,0.8,1,1.4,1.8,1.8
					c0.8,0.4,1.6,0.6,2.5,0.6C809.6,687.4,810.4,687.1,811.2,686.7z"/>
				<path class="st4" d="M822.5,688.1c-1.5-1.3-2.3-3-2.4-5.2l3.1-0.7c0,1,0.3,1.9,0.7,2.7c0.4,0.8,1,1.4,1.8,1.8
					c0.8,0.4,1.6,0.6,2.6,0.6c0.9,0,1.7-0.2,2.4-0.5c0.7-0.3,1.3-0.8,1.7-1.5c0.4-0.6,0.6-1.4,0.6-2.2c0-0.9-0.2-1.6-0.6-2.3
					c-0.4-0.6-1-1.1-1.7-1.5c-0.7-0.3-1.6-0.5-2.5-0.5h-1.7v-2.6h1.7c0.8,0,1.5-0.2,2.2-0.5s1.2-0.8,1.6-1.4
					c0.4-0.6,0.6-1.3,0.6-2.1s-0.2-1.5-0.6-2.1c-0.4-0.6-0.9-1.1-1.5-1.4c-0.6-0.3-1.4-0.5-2.2-0.5c-1.3,0-2.4,0.4-3.2,1.2
					c-0.8,0.8-1.2,1.9-1.3,3.2l-3.1-0.6c0.1-1.2,0.5-2.3,1.1-3.3c0.6-1,1.5-1.8,2.6-2.3c1.1-0.6,2.4-0.9,3.9-0.9
					c1.5,0,2.8,0.3,3.9,0.8c1.1,0.5,1.9,1.3,2.5,2.2c0.6,0.9,0.9,2,0.9,3.1c0,1-0.2,1.9-0.7,2.6c-0.5,0.7-1.1,1.3-1.9,1.7
					c-0.8,0.4-1.6,0.6-2.6,0.7v1.3c1.6,0.1,2.9,0.6,4,1.5c1.1,0.9,1.6,2.2,1.6,3.9c0,1.2-0.3,2.3-0.9,3.2c-0.6,1-1.5,1.7-2.7,2.3
					c-1.2,0.6-2.6,0.9-4.2,0.9C825.8,690,823.9,689.3,822.5,688.1z"/>
				<path class="st4" d="M844.4,688.6c-1.4-0.9-2.5-2.3-3.3-4.2c-0.8-1.8-1.2-4.1-1.2-6.7c0-2.6,0.4-4.7,1.3-6.6
					c0.8-1.8,2-3.2,3.4-4.1c1.4-0.9,3-1.4,4.7-1.4s3.3,0.5,4.7,1.4c1.4,0.9,2.5,2.3,3.3,4.1c0.8,1.8,1.2,4,1.2,6.6
					c0,2.6-0.4,4.8-1.2,6.7c-0.8,1.8-1.9,3.2-3.3,4.2s-3,1.4-4.9,1.4S845.8,689.5,844.4,688.6z M852.6,686.2
					c0.9-0.7,1.6-1.8,2.1-3.3c0.5-1.4,0.7-3.2,0.7-5.2c0-1.9-0.2-3.5-0.7-4.9c-0.5-1.4-1.2-2.5-2.1-3.3c-0.9-0.8-2-1.2-3.3-1.2
					c-1.2,0-2.3,0.4-3.3,1.1c-0.9,0.8-1.7,1.8-2.2,3.3c-0.5,1.4-0.8,3.1-0.8,4.9c0,2,0.2,3.7,0.7,5.2c0.5,1.4,1.2,2.5,2.1,3.3
					c0.9,0.7,2,1.1,3.3,1.1C850.6,687.3,851.7,686.9,852.6,686.2z"/>
				<path class="st4" d="M871.3,666.2h7.8c2.2,0,4.2,0.5,5.9,1.4c1.7,1,3.1,2.3,4,4.1c0.9,1.8,1.4,3.8,1.4,6.1
					c0,2.4-0.5,4.5-1.4,6.3c-0.9,1.8-2.2,3.1-4,4.1s-3.8,1.4-6.1,1.4h-7.7V666.2z M874,686.8h4.5c2,0,3.6-0.3,4.9-1
					c1.3-0.7,2.3-1.7,2.9-3c0.6-1.3,1-3,1-4.9c0-1.8-0.3-3.4-1-4.7c-0.6-1.3-1.6-2.3-2.9-3.1c-1.3-0.7-2.9-1.1-4.7-1.1H874l0.3-0.3
					v18.4L874,686.8z"/>
				<path class="st4" d="M899.2,688.5c-1.6-1-2.9-2.4-3.7-4.3c-0.9-1.8-1.3-4-1.3-6.4c0-2.3,0.5-4.4,1.5-6.3c1-1.8,2.4-3.3,4.2-4.3
					c1.8-1,3.7-1.6,5.9-1.6c1.9,0,3.6,0.3,5.1,1c1.4,0.7,2.6,1.5,3.5,2.6c0.9,1,1.5,2.2,1.9,3.4l-3.1,1.2c-0.4-1-0.9-2-1.5-2.8
					c-0.6-0.8-1.4-1.5-2.4-1.9c-1-0.5-2.2-0.7-3.5-0.7c-1.5,0-2.9,0.4-4.2,1.1c-1.3,0.7-2.3,1.8-3.1,3.2c-0.8,1.4-1.2,3.1-1.2,5
					c0,1.9,0.3,3.6,1,5c0.7,1.4,1.6,2.5,2.9,3.3c1.2,0.8,2.7,1.2,4.3,1.2c1.5,0,2.8-0.3,3.9-0.9c1.1-0.6,2-1.4,2.6-2.4
					c0.6-1,1-2,1-3.1h-8.2v-2.8h11.3v11.4h-2.9c0-0.9,0.1-1.8,0.3-2.7c0.2-0.8,0.5-1.6,0.9-2.4H913c-0.5,1.4-1.4,2.7-2.7,3.8
					c-1.3,1.1-3.1,1.7-5.5,1.7C902.7,690,900.9,689.5,899.2,688.5z"/>
			</g>
		</g>
	</g>
	<g>
		<g>
			<g>
				<path class="st4" d="M1568.9,1696.7c-1.3-0.9-2.3-2.1-3.1-3.8c-0.7-1.7-1.1-3.8-1.1-6.2c0-2.5,0.4-4.7,1.3-6.7
					c0.8-2,2.1-3.5,3.7-4.6c1.6-1.1,3.7-1.7,6-1.7c0.7,0,1.5,0.1,2.3,0.2s1.5,0.3,2.1,0.5v2.9c-0.7-0.2-1.4-0.4-2.1-0.6
					c-0.7-0.1-1.4-0.2-2.2-0.2c-1.8,0-3.3,0.4-4.7,1.2s-2.4,2-3.2,3.6c-0.8,1.6-1.2,3.5-1.2,5.8h1.3c0.2-0.8,0.5-1.6,1-2.3
					c0.5-0.7,1.2-1.3,2-1.7c0.8-0.4,1.8-0.7,2.9-0.7c1.5,0,2.8,0.3,3.9,1c1.1,0.7,2,1.6,2.6,2.7c0.6,1.1,0.9,2.4,0.9,3.8
					c0,1.5-0.3,2.8-1,4.1c-0.6,1.2-1.6,2.2-2.8,2.9c-1.2,0.7-2.7,1.1-4.4,1.1C1571.7,1698,1570.2,1697.6,1568.9,1696.7z
					 M1575.9,1694.7c0.8-0.4,1.4-1,1.8-1.8c0.4-0.8,0.7-1.7,0.7-2.7c0-1-0.2-2-0.7-2.7c-0.4-0.8-1-1.4-1.8-1.8
					c-0.8-0.4-1.6-0.6-2.5-0.6c-1,0-1.8,0.2-2.6,0.6c-0.7,0.4-1.3,1-1.8,1.8c-0.4,0.8-0.7,1.7-0.7,2.7c0,1,0.2,1.9,0.7,2.7
					c0.4,0.8,1,1.4,1.8,1.8c0.8,0.4,1.6,0.6,2.5,0.6C1574.3,1695.4,1575.2,1695.1,1575.9,1694.7z"/>
				<path class="st4" d="M1587.2,1696.1c-1.5-1.3-2.3-3-2.4-5.2l3.1-0.7c0,1,0.3,1.9,0.7,2.7c0.4,0.8,1,1.4,1.8,1.8s1.6,0.6,2.6,0.6
					c0.9,0,1.7-0.2,2.4-0.5c0.7-0.3,1.3-0.8,1.7-1.5c0.4-0.6,0.6-1.4,0.6-2.2c0-0.9-0.2-1.6-0.6-2.3c-0.4-0.6-1-1.1-1.7-1.5
					c-0.7-0.3-1.6-0.5-2.5-0.5h-1.7v-2.6h1.7c0.8,0,1.5-0.2,2.2-0.5s1.2-0.8,1.6-1.4s0.6-1.3,0.6-2.1c0-0.8-0.2-1.5-0.6-2.1
					c-0.4-0.6-0.9-1.1-1.5-1.4c-0.6-0.3-1.4-0.5-2.2-0.5c-1.3,0-2.4,0.4-3.2,1.2c-0.8,0.8-1.2,1.9-1.3,3.2l-3.1-0.6
					c0.1-1.2,0.5-2.3,1.1-3.3c0.6-1,1.5-1.8,2.6-2.3s2.4-0.9,3.9-0.9c1.5,0,2.8,0.3,3.9,0.8c1.1,0.5,1.9,1.3,2.5,2.2s0.9,2,0.9,3.1
					c0,1-0.2,1.9-0.7,2.6s-1.1,1.3-1.9,1.7c-0.8,0.4-1.6,0.6-2.6,0.7v1.3c1.6,0.1,2.9,0.6,4,1.5c1.1,0.9,1.6,2.2,1.6,3.9
					c0,1.2-0.3,2.3-0.9,3.2c-0.6,1-1.5,1.7-2.7,2.3c-1.2,0.6-2.6,0.9-4.2,0.9C1590.6,1698,1588.7,1697.3,1587.2,1696.1z"/>
				<path class="st4" d="M1609.2,1696.6c-1.4-0.9-2.5-2.3-3.3-4.2s-1.2-4.1-1.2-6.7c0-2.6,0.4-4.7,1.3-6.6c0.8-1.8,2-3.2,3.4-4.1
					c1.4-0.9,3-1.4,4.7-1.4c1.7,0,3.3,0.5,4.7,1.4c1.4,0.9,2.5,2.3,3.3,4.1c0.8,1.8,1.2,4,1.2,6.6c0,2.6-0.4,4.8-1.2,6.7
					c-0.8,1.8-1.9,3.2-3.3,4.2c-1.4,0.9-3,1.4-4.9,1.4C1612.2,1698,1610.6,1697.5,1609.2,1696.6z M1617.4,1694.2
					c0.9-0.7,1.6-1.8,2.1-3.3c0.5-1.4,0.7-3.2,0.7-5.2c0-1.9-0.2-3.5-0.7-4.9c-0.5-1.4-1.2-2.5-2.1-3.3c-0.9-0.8-2-1.2-3.3-1.2
					s-2.3,0.4-3.3,1.1s-1.7,1.8-2.2,3.3c-0.5,1.4-0.8,3.1-0.8,4.9c0,2,0.2,3.7,0.7,5.2c0.5,1.4,1.2,2.5,2.1,3.3
					c0.9,0.7,2,1.1,3.3,1.1C1615.3,1695.3,1616.4,1694.9,1617.4,1694.2z"/>
				<path class="st4" d="M1636.1,1674.2h7.8c2.2,0,4.2,0.5,5.9,1.4c1.7,1,3.1,2.3,4,4.1c0.9,1.8,1.4,3.8,1.4,6.1
					c0,2.4-0.5,4.5-1.4,6.3c-0.9,1.8-2.2,3.1-4,4.1s-3.8,1.4-6.1,1.4h-7.7V1674.2z M1638.8,1694.8h4.5c2,0,3.6-0.3,4.9-1
					c1.3-0.7,2.3-1.7,2.9-3s1-3,1-4.9c0-1.8-0.3-3.4-1-4.7s-1.6-2.3-2.9-3.1c-1.3-0.7-2.9-1.1-4.7-1.1h-4.7l0.3-0.3v18.4
					L1638.8,1694.8z"/>
				<path class="st4" d="M1664,1696.5c-1.6-1-2.9-2.4-3.7-4.3c-0.9-1.8-1.3-4-1.3-6.4c0-2.3,0.5-4.4,1.5-6.3c1-1.8,2.4-3.3,4.2-4.3
					c1.8-1,3.7-1.6,5.9-1.6c1.9,0,3.6,0.3,5.1,1c1.4,0.7,2.6,1.5,3.5,2.6c0.9,1,1.5,2.2,1.9,3.4l-3.1,1.2c-0.4-1-0.9-2-1.5-2.8
					c-0.6-0.8-1.4-1.5-2.4-1.9s-2.2-0.7-3.5-0.7c-1.5,0-2.9,0.4-4.2,1.1c-1.3,0.7-2.3,1.8-3.1,3.2s-1.2,3.1-1.2,5c0,1.9,0.3,3.6,1,5
					s1.6,2.5,2.9,3.3c1.2,0.8,2.7,1.2,4.3,1.2c1.5,0,2.8-0.3,3.9-0.9c1.1-0.6,2-1.4,2.6-2.4s1-2,1-3.1h-8.2v-2.8h11.3v11.4h-2.9
					c0-0.9,0.1-1.8,0.3-2.7c0.2-0.8,0.5-1.6,0.9-2.4h-1.5c-0.5,1.4-1.4,2.7-2.7,3.8c-1.3,1.1-3.1,1.7-5.5,1.7
					C1667.5,1698,1665.6,1697.5,1664,1696.5z"/>
			</g>
		</g>
	</g>
	<g>
		<g>
			<g>
				<path class="st4" d="M2049.9,688.7c-1.3-0.9-2.3-2.1-3.1-3.8c-0.7-1.7-1.1-3.8-1.1-6.2c0-2.5,0.4-4.7,1.3-6.7
					c0.8-2,2.1-3.5,3.7-4.6c1.6-1.1,3.7-1.7,6-1.7c0.7,0,1.5,0.1,2.3,0.2c0.8,0.1,1.5,0.3,2.1,0.6v2.9c-0.7-0.2-1.4-0.4-2.1-0.6
					s-1.4-0.2-2.2-0.2c-1.8,0-3.3,0.4-4.7,1.2c-1.3,0.8-2.4,2-3.2,3.6c-0.8,1.6-1.2,3.5-1.2,5.8h1.3c0.2-0.8,0.5-1.6,1-2.3
					s1.2-1.3,2-1.7c0.8-0.4,1.8-0.7,2.9-0.7c1.5,0,2.8,0.3,3.9,1s2,1.6,2.6,2.7c0.6,1.1,0.9,2.4,0.9,3.8c0,1.5-0.3,2.8-1,4.1
					c-0.6,1.2-1.6,2.2-2.8,2.9s-2.7,1.1-4.4,1.1C2052.7,690,2051.2,689.6,2049.9,688.7z M2056.9,686.7c0.8-0.4,1.4-1,1.8-1.8
					c0.4-0.8,0.7-1.7,0.7-2.7c0-1-0.2-2-0.7-2.7c-0.4-0.8-1-1.4-1.8-1.8c-0.8-0.4-1.6-0.6-2.5-0.6c-1,0-1.8,0.2-2.6,0.6
					c-0.7,0.4-1.3,1-1.8,1.8c-0.4,0.8-0.7,1.7-0.7,2.7c0,1,0.2,1.9,0.7,2.7c0.4,0.8,1,1.4,1.8,1.8c0.8,0.4,1.6,0.6,2.5,0.6
					C2055.3,687.4,2056.2,687.1,2056.9,686.7z"/>
				<path class="st4" d="M2068.2,688.1c-1.5-1.3-2.3-3-2.4-5.2l3.1-0.7c0,1,0.3,1.9,0.7,2.7c0.4,0.8,1,1.4,1.8,1.8
					c0.8,0.4,1.6,0.6,2.6,0.6c0.9,0,1.7-0.2,2.4-0.5c0.7-0.3,1.3-0.8,1.7-1.5c0.4-0.6,0.6-1.4,0.6-2.2c0-0.9-0.2-1.6-0.6-2.3
					c-0.4-0.6-1-1.1-1.7-1.5c-0.7-0.3-1.6-0.5-2.5-0.5h-1.7v-2.6h1.7c0.8,0,1.5-0.2,2.2-0.5s1.2-0.8,1.6-1.4s0.6-1.3,0.6-2.1
					s-0.2-1.5-0.6-2.1s-0.9-1.1-1.5-1.4c-0.6-0.3-1.4-0.5-2.2-0.5c-1.3,0-2.4,0.4-3.2,1.2c-0.8,0.8-1.2,1.9-1.3,3.2l-3.1-0.6
					c0.1-1.2,0.5-2.3,1.1-3.3c0.6-1,1.5-1.8,2.6-2.3s2.4-0.9,3.9-0.9c1.5,0,2.8,0.3,3.9,0.8c1.1,0.5,1.9,1.3,2.5,2.2s0.9,2,0.9,3.1
					c0,1-0.2,1.9-0.7,2.6c-0.5,0.7-1.1,1.3-1.9,1.7c-0.8,0.4-1.6,0.6-2.6,0.7v1.3c1.6,0.1,2.9,0.6,4,1.5c1.1,0.9,1.6,2.2,1.6,3.9
					c0,1.2-0.3,2.3-0.9,3.2c-0.6,1-1.5,1.7-2.7,2.3c-1.2,0.6-2.6,0.9-4.2,0.9C2071.6,690,2069.7,689.3,2068.2,688.1z"/>
				<path class="st4" d="M2090.2,688.6c-1.4-0.9-2.5-2.3-3.3-4.2s-1.2-4.1-1.2-6.7c0-2.6,0.4-4.7,1.3-6.6c0.8-1.8,2-3.2,3.4-4.1
					c1.4-0.9,3-1.4,4.7-1.4c1.7,0,3.3,0.5,4.7,1.4c1.4,0.9,2.5,2.3,3.3,4.1c0.8,1.8,1.2,4,1.2,6.6c0,2.6-0.4,4.8-1.2,6.7
					c-0.8,1.8-1.9,3.2-3.3,4.2c-1.4,0.9-3,1.4-4.9,1.4C2093.2,690,2091.6,689.5,2090.2,688.6z M2098.4,686.2
					c0.9-0.7,1.6-1.8,2.1-3.3c0.5-1.4,0.7-3.2,0.7-5.2c0-1.9-0.2-3.5-0.7-4.9c-0.5-1.4-1.2-2.5-2.1-3.3c-0.9-0.8-2-1.2-3.3-1.2
					s-2.3,0.4-3.3,1.1c-0.9,0.8-1.7,1.8-2.2,3.3c-0.5,1.4-0.8,3.1-0.8,4.9c0,2,0.2,3.7,0.7,5.2c0.5,1.4,1.2,2.5,2.1,3.3
					c0.9,0.7,2,1.1,3.3,1.1C2096.3,687.3,2097.4,686.9,2098.4,686.2z"/>
				<path class="st4" d="M2117.1,666.2h7.8c2.2,0,4.2,0.5,5.9,1.4c1.7,1,3.1,2.3,4,4.1c0.9,1.8,1.4,3.8,1.4,6.1
					c0,2.4-0.5,4.5-1.4,6.3c-0.9,1.8-2.2,3.1-4,4.1s-3.8,1.4-6.1,1.4h-7.7V666.2z M2119.8,686.8h4.5c2,0,3.6-0.3,4.9-1
					c1.3-0.7,2.3-1.7,2.9-3c0.6-1.3,1-3,1-4.9c0-1.8-0.3-3.4-1-4.7c-0.6-1.3-1.6-2.3-2.9-3.1c-1.3-0.7-2.9-1.1-4.7-1.1h-4.7l0.3-0.3
					v18.4L2119.8,686.8z"/>
				<path class="st4" d="M2145,688.5c-1.6-1-2.9-2.4-3.7-4.3c-0.9-1.8-1.3-4-1.3-6.4c0-2.3,0.5-4.4,1.5-6.3c1-1.8,2.4-3.3,4.2-4.3
					c1.8-1,3.7-1.6,5.9-1.6c1.9,0,3.6,0.3,5.1,1c1.4,0.7,2.6,1.5,3.5,2.6c0.9,1,1.5,2.2,1.9,3.4l-3.1,1.2c-0.4-1-0.9-2-1.5-2.8
					c-0.6-0.8-1.4-1.5-2.4-1.9s-2.2-0.7-3.5-0.7c-1.5,0-2.9,0.4-4.2,1.1c-1.3,0.7-2.3,1.8-3.1,3.2c-0.8,1.4-1.2,3.1-1.2,5
					c0,1.9,0.3,3.6,1,5c0.7,1.4,1.6,2.5,2.9,3.3c1.2,0.8,2.7,1.2,4.3,1.2c1.5,0,2.8-0.3,3.9-0.9c1.1-0.6,2-1.4,2.6-2.4
					c0.6-1,1-2,1-3.1h-8.2v-2.8h11.3v11.4h-2.9c0-0.9,0.1-1.8,0.3-2.7c0.2-0.8,0.5-1.6,0.9-2.4h-1.5c-0.5,1.4-1.4,2.7-2.7,3.8
					c-1.3,1.1-3.1,1.7-5.5,1.7C2148.5,690,2146.6,689.5,2145,688.5z"/>
			</g>
		</g>
	</g>
</g>
<g>
	<g>
		<g>
			<g>
				<path class="st4" d="M1573.8,297.7h22.1c3.5,0,6.5,0.6,9,1.8c2.5,1.2,4.4,2.9,5.7,5c1.3,2.1,2,4.5,2,7.2c0,2.8-0.6,5-1.9,6.7
					c-1.3,1.7-2.9,2.9-4.9,3.7c-2,0.8-4.1,1.2-6.5,1.4v3.1c2.5,0,4.5,0.4,6.1,1.1c1.5,0.7,2.7,1.7,3.6,3.1c0.9,1.4,1.5,3.3,2,5.6
					l2.6,13h-8l-2.1-12.3c-0.4-2.2-1-4-2-5.3c-0.9-1.3-2.1-2.3-3.7-2.8s-3.5-0.9-5.9-0.9h-11.4v-6.6h14.3c3,0,5.4-0.7,7.3-2.1
					c1.8-1.4,2.8-3.5,2.8-6.4s-0.9-4.9-2.7-6.3c-1.8-1.4-4.3-2.1-7.3-2.1h-14.5l1-1v45.9h-7.4V297.7z"/>
				<path class="st4" d="M1621.5,322.9h21.3v7.2h-21.3V322.9z"/>
				<path class="st4" d="M1660.9,347.4c-3.1-2.1-5.6-5.1-7.3-9.2c-1.7-4.1-2.6-9-2.6-14.7c0-5.7,0.9-10.6,2.8-14.6
					c1.8-4,4.3-7,7.5-9.1c3.1-2,6.6-3.1,10.5-3.1c3.8,0,7.3,1,10.4,3.1c3.1,2,5.6,5.1,7.4,9.1c1.8,4,2.7,8.9,2.7,14.6
					c0,5.8-0.9,10.7-2.6,14.7s-4.1,7.1-7.2,9.2c-3.1,2.1-6.7,3.1-10.8,3.1C1667.7,350.5,1664,349.4,1660.9,347.4z M1678.7,341.6
					c1.9-1.6,3.4-3.9,4.4-6.9c1-3.1,1.6-6.8,1.6-11.2c0-4.1-0.5-7.6-1.6-10.7c-1.1-3-2.6-5.4-4.5-7c-1.9-1.6-4.2-2.5-6.8-2.5
					c-2.6,0-4.9,0.8-6.9,2.4c-2,1.6-3.5,4-4.5,7c-1.1,3.1-1.6,6.6-1.6,10.7c0,4.4,0.5,8.1,1.6,11.2c1,3.1,2.5,5.4,4.5,6.9
					c1.9,1.6,4.3,2.4,7,2.4C1674.5,343.9,1676.8,343.1,1678.7,341.6z"/>
				<path class="st4" d="M1712.9,310.2c0.2-1.1,0.6-2.4,1.1-3.8h-3.3c-0.6,1.9-1.5,3.6-2.7,5.1c-1.2,1.5-2.5,2.6-4.1,3.5
					c-1.6,0.9-3.3,1.5-5.2,1.7v-7.7c3.2-0.7,6.1-2.1,8.8-4c2.7-1.9,4.8-4.4,6.4-7.4h6v51.7h-7.3v-34.9
					C1712.6,312.8,1712.7,311.4,1712.9,310.2z"/>
			</g>
		</g>
	</g>
	<g>
		<g>
			<g>
				<path class="st4" d="M801,1194.7h22.1c3.5,0,6.5,0.6,9,1.8c2.5,1.2,4.4,2.9,5.7,5c1.3,2.1,2,4.5,2,7.2c0,2.8-0.6,5-1.9,6.7
					c-1.3,1.7-2.9,2.9-4.9,3.7c-2,0.8-4.1,1.2-6.5,1.4v3.1c2.5,0,4.5,0.4,6.1,1.1c1.5,0.7,2.7,1.7,3.6,3.1c0.9,1.4,1.5,3.3,2,5.6
					l2.6,13h-8l-2.1-12.3c-0.4-2.2-1-4-2-5.3c-0.9-1.3-2.1-2.3-3.7-2.8s-3.5-0.9-5.9-0.9h-11.4v-6.6H822c3,0,5.4-0.7,7.3-2.1
					s2.8-3.5,2.8-6.4c0-2.8-0.9-4.9-2.7-6.3c-1.8-1.4-4.3-2.1-7.3-2.1h-14.5l1-1v45.9H801V1194.7z"/>
				<path class="st4" d="M848.6,1219.9h21.3v7.2h-21.3V1219.9z"/>
				<path class="st4" d="M888.1,1244.3c-3.1-2.1-5.6-5.1-7.3-9.2c-1.7-4.1-2.6-9-2.6-14.7c0-5.7,0.9-10.6,2.8-14.6s4.3-7,7.5-9.1
					c3.1-2,6.6-3.1,10.5-3.1c3.8,0,7.3,1,10.4,3.1c3.1,2,5.6,5.1,7.4,9.1c1.8,4,2.7,8.9,2.7,14.6c0,5.8-0.9,10.7-2.6,14.7
					c-1.7,4.1-4.1,7.1-7.2,9.2c-3.1,2.1-6.7,3.1-10.8,3.1C894.9,1247.4,891.2,1246.4,888.1,1244.3z M905.9,1238.5
					c1.9-1.6,3.4-3.9,4.4-6.9c1-3.1,1.6-6.8,1.6-11.2c0-4.1-0.5-7.6-1.6-10.7c-1.1-3-2.6-5.4-4.5-7c-1.9-1.6-4.2-2.5-6.8-2.5
					c-2.6,0-4.9,0.8-6.9,2.4c-2,1.6-3.5,4-4.5,7c-1.1,3.1-1.6,6.6-1.6,10.7c0,4.4,0.5,8.1,1.6,11.2c1,3.1,2.5,5.4,4.5,6.9
					c1.9,1.6,4.3,2.4,7,2.4C901.7,1240.8,904,1240.1,905.9,1238.5z"/>
				<path class="st4" d="M940.1,1207.2c0.2-1.1,0.6-2.4,1.1-3.8h-3.3c-0.6,1.9-1.5,3.6-2.7,5.1c-1.2,1.5-2.5,2.6-4.1,3.5
					s-3.3,1.5-5.2,1.7v-7.7c3.2-0.7,6.1-2.1,8.8-4c2.7-1.9,4.8-4.4,6.4-7.4h6v51.7h-7.3v-34.9
					C939.8,1209.8,939.9,1208.3,940.1,1207.2z"/>
			</g>
		</g>
	</g>
	<g>
		<g>
			<g>
				<path class="st4" d="M2046.8,1171.9h22.1c3.5,0,6.5,0.6,9,1.8c2.5,1.2,4.4,2.9,5.7,5c1.3,2.1,2,4.5,2,7.2c0,2.8-0.6,5-1.9,6.7
					c-1.3,1.7-2.9,2.9-4.9,3.7c-2,0.8-4.1,1.2-6.5,1.4v3.1c2.5,0,4.5,0.4,6.1,1.1c1.5,0.7,2.7,1.7,3.6,3.1c0.9,1.4,1.5,3.3,2,5.6
					l2.6,13h-8l-2.1-12.3c-0.4-2.2-1-4-2-5.3c-0.9-1.3-2.1-2.3-3.7-2.8s-3.5-0.9-5.9-0.9h-11.4v-6.6h14.3c3,0,5.4-0.7,7.3-2.1
					c1.8-1.4,2.8-3.5,2.8-6.4c0-2.8-0.9-4.9-2.7-6.3c-1.8-1.4-4.3-2.1-7.3-2.1h-14.5l1-1v45.9h-7.4V1171.9z"/>
				<path class="st4" d="M2094.4,1197.1h21.3v7.2h-21.3V1197.1z"/>
				<path class="st4" d="M2133.9,1221.5c-3.1-2.1-5.6-5.1-7.3-9.2c-1.7-4.1-2.6-9-2.6-14.7c0-5.7,0.9-10.6,2.8-14.6
					c1.8-4,4.3-7,7.5-9.1c3.1-2,6.6-3.1,10.5-3.1c3.8,0,7.3,1,10.4,3.1c3.1,2,5.6,5.1,7.4,9.1c1.8,4,2.7,8.9,2.7,14.6
					c0,5.8-0.9,10.7-2.6,14.7c-1.7,4.1-4.1,7.1-7.2,9.2c-3.1,2.1-6.7,3.1-10.8,3.1S2137,1223.6,2133.9,1221.5z M2151.6,1215.7
					c1.9-1.6,3.4-3.9,4.4-6.9c1-3.1,1.6-6.8,1.6-11.2c0-4.1-0.5-7.6-1.6-10.7c-1.1-3-2.6-5.4-4.5-7c-1.9-1.6-4.2-2.5-6.8-2.5
					c-2.6,0-4.9,0.8-6.9,2.4c-2,1.6-3.5,4-4.5,7c-1.1,3.1-1.6,6.6-1.6,10.7c0,4.4,0.5,8.1,1.6,11.2c1,3.1,2.5,5.4,4.5,6.9
					c1.9,1.6,4.3,2.4,7,2.4C2147.4,1218.1,2149.7,1217.3,2151.6,1215.7z"/>
				<path class="st4" d="M2185.8,1184.4c0.2-1.1,0.6-2.4,1.1-3.8h-3.3c-0.6,1.9-1.5,3.6-2.7,5.1c-1.2,1.5-2.5,2.6-4.1,3.5
					s-3.3,1.5-5.2,1.7v-7.7c3.2-0.7,6.1-2.1,8.8-4c2.7-1.9,4.8-4.4,6.4-7.4h6v51.7h-7.3v-34.9
					C2185.5,1187,2185.6,1185.5,2185.8,1184.4z"/>
			</g>
		</g>
	</g>
	<g>
		<g>
			<g>
				<path class="st4" d="M801,592.3h22.1c3.5,0,6.5,0.6,9,1.8c2.5,1.2,4.4,2.9,5.7,5c1.3,2.1,2,4.5,2,7.2c0,2.8-0.6,5-1.9,6.7
					c-1.3,1.7-2.9,2.9-4.9,3.7c-2,0.8-4.1,1.2-6.5,1.4v3.1c2.5,0,4.5,0.4,6.1,1.1c1.5,0.7,2.7,1.7,3.6,3.1c0.9,1.4,1.5,3.3,2,5.6
					l2.6,13h-8l-2.1-12.3c-0.4-2.2-1-4-2-5.3c-0.9-1.3-2.1-2.3-3.7-2.8s-3.5-0.9-5.9-0.9h-11.4V616H822c3,0,5.4-0.7,7.3-2.1
					c1.8-1.4,2.8-3.5,2.8-6.4s-0.9-4.9-2.7-6.3c-1.8-1.4-4.3-2.1-7.3-2.1h-14.5l1-1v45.9H801V592.3z"/>
				<path class="st4" d="M848.6,617.4h21.3v7.2h-21.3V617.4z"/>
				<path class="st4" d="M888.1,641.9c-3.1-2.1-5.6-5.1-7.3-9.2c-1.7-4.1-2.6-9-2.6-14.7c0-5.7,0.9-10.6,2.8-14.6
					c1.8-4,4.3-7,7.5-9.1c3.1-2,6.6-3.1,10.5-3.1c3.8,0,7.3,1,10.4,3.1c3.1,2,5.6,5.1,7.4,9.1c1.8,4,2.7,8.9,2.7,14.6
					c0,5.8-0.9,10.7-2.6,14.7c-1.7,4.1-4.1,7.1-7.2,9.2c-3.1,2.1-6.7,3.1-10.8,3.1C894.9,645,891.2,643.9,888.1,641.9z M905.9,636.1
					c1.9-1.6,3.4-3.9,4.4-6.9c1-3.1,1.6-6.8,1.6-11.2c0-4.1-0.5-7.6-1.6-10.7c-1.1-3-2.6-5.4-4.5-7c-1.9-1.6-4.2-2.5-6.8-2.5
					c-2.6,0-4.9,0.8-6.9,2.4c-2,1.6-3.5,4-4.5,7c-1.1,3.1-1.6,6.6-1.6,10.7c0,4.4,0.5,8.1,1.6,11.2c1,3.1,2.5,5.4,4.5,6.9
					c1.9,1.6,4.3,2.4,7,2.4C901.7,638.4,904,637.6,905.9,636.1z"/>
				<path class="st4" d="M931.4,633.7c4.8-3.1,8.8-5.9,12.1-8.6c3.3-2.7,5.9-5.4,7.8-8.3c1.9-2.9,2.9-5.8,2.9-8.8
					c0-2.2-0.4-4-1.3-5.5c-0.8-1.5-2-2.7-3.4-3.5c-1.4-0.8-3-1.2-4.8-1.2c-1.9,0-3.6,0.4-5.1,1.3c-1.5,0.9-2.7,2.2-3.5,3.9
					c-0.9,1.7-1.3,3.8-1.3,6.1l-7.5-1c0-3.3,0.8-6.2,2.2-8.8c1.4-2.6,3.4-4.6,6-6c2.6-1.5,5.7-2.2,9.2-2.2c3.5,0,6.5,0.7,9.1,2.1
					c2.6,1.4,4.6,3.3,5.9,5.7c1.4,2.4,2,5.2,2,8.3c0,2.7-0.5,5.3-1.4,7.6c-0.9,2.4-2.3,4.6-4,6.8c-2.1,2.4-5,4.9-8.8,7.5
					c-3.7,2.6-8.3,5.4-13.8,8.5l1.8,2.8c1.6-1.1,3.2-1.9,4.8-2.5c1.6-0.6,3.7-0.8,6.2-0.8h15.7v6.8h-34.6v-8.1
					C929.1,635.1,930.2,634.4,931.4,633.7z"/>
			</g>
		</g>
	</g>
	<g>
		<g>
			<g>
				<path class="st4" d="M1565.8,1600.3h22.1c3.5,0,6.5,0.6,9,1.8c2.5,1.2,4.4,2.9,5.7,5c1.3,2.1,2,4.5,2,7.2c0,2.8-0.6,5-1.9,6.7
					c-1.3,1.7-2.9,2.9-4.9,3.7c-2,0.8-4.1,1.2-6.5,1.4v3.1c2.5,0,4.5,0.4,6.1,1.1c1.5,0.7,2.7,1.7,3.6,3.1c0.9,1.4,1.5,3.3,2,5.6
					l2.6,13h-8l-2.1-12.3c-0.4-2.2-1-4-2-5.3c-0.9-1.3-2.1-2.3-3.7-2.8c-1.6-0.6-3.5-0.9-5.9-0.9h-11.4v-6.6h14.3
					c3,0,5.4-0.7,7.3-2.1c1.8-1.4,2.8-3.5,2.8-6.4s-0.9-4.9-2.7-6.3c-1.8-1.4-4.3-2.1-7.3-2.1h-14.5l1-1v45.9h-7.4V1600.3z"/>
				<path class="st4" d="M1613.4,1625.4h21.3v7.2h-21.3V1625.4z"/>
				<path class="st4" d="M1652.9,1649.9c-3.1-2.1-5.6-5.1-7.3-9.2c-1.7-4.1-2.6-9-2.6-14.7c0-5.7,0.9-10.6,2.8-14.6
					c1.8-4,4.3-7,7.5-9.1c3.1-2,6.6-3.1,10.5-3.1c3.8,0,7.3,1,10.4,3.1c3.1,2,5.6,5.1,7.4,9.1c1.8,4,2.7,8.9,2.7,14.6
					c0,5.8-0.9,10.7-2.6,14.7c-1.7,4.1-4.1,7.1-7.2,9.2c-3.1,2.1-6.7,3.1-10.8,3.1S1656,1651.9,1652.9,1649.9z M1670.6,1644.1
					c1.9-1.6,3.4-3.9,4.4-6.9c1-3.1,1.6-6.8,1.6-11.2c0-4.1-0.5-7.6-1.6-10.7c-1.1-3-2.6-5.4-4.5-7c-1.9-1.6-4.2-2.5-6.8-2.5
					c-2.6,0-4.9,0.8-6.9,2.4c-2,1.6-3.5,4-4.5,7c-1.1,3.1-1.6,6.6-1.6,10.7c0,4.4,0.5,8.1,1.6,11.2c1,3.1,2.5,5.4,4.5,6.9
					c1.9,1.6,4.3,2.4,7,2.4C1666.4,1646.4,1668.7,1645.6,1670.6,1644.1z"/>
				<path class="st4" d="M1696.1,1641.7c4.8-3.1,8.8-5.9,12.1-8.6c3.3-2.7,5.9-5.4,7.8-8.3c1.9-2.9,2.9-5.8,2.9-8.8
					c0-2.2-0.4-4-1.3-5.5c-0.8-1.5-2-2.7-3.4-3.5c-1.4-0.8-3-1.2-4.8-1.2c-1.9,0-3.6,0.4-5.1,1.3c-1.5,0.9-2.7,2.2-3.5,3.9
					c-0.9,1.7-1.3,3.8-1.3,6.1l-7.5-1c0-3.3,0.8-6.2,2.2-8.8c1.4-2.6,3.4-4.6,6-6s5.7-2.2,9.2-2.2c3.5,0,6.5,0.7,9.1,2.1
					c2.6,1.4,4.6,3.3,5.9,5.7c1.4,2.4,2,5.2,2,8.3c0,2.7-0.5,5.3-1.4,7.6c-0.9,2.4-2.3,4.6-4,6.8c-2.1,2.4-5,4.9-8.8,7.5
					c-3.7,2.6-8.3,5.4-13.8,8.5l1.8,2.8c1.6-1.1,3.2-1.9,4.8-2.5c1.6-0.6,3.7-0.8,6.2-0.8h15.7v6.8h-34.6v-8.1
					C1693.8,1643.1,1695,1642.4,1696.1,1641.7z"/>
			</g>
		</g>
	</g>
	<g>
		<g>
			<g>
				<path class="st4" d="M2046.8,592.3h22.1c3.5,0,6.5,0.6,9,1.8c2.5,1.2,4.4,2.9,5.7,5c1.3,2.1,2,4.5,2,7.2c0,2.8-0.6,5-1.9,6.7
					c-1.3,1.7-2.9,2.9-4.9,3.7c-2,0.8-4.1,1.2-6.5,1.4v3.1c2.5,0,4.5,0.4,6.1,1.1c1.5,0.7,2.7,1.7,3.6,3.1c0.9,1.4,1.5,3.3,2,5.6
					l2.6,13h-8l-2.1-12.3c-0.4-2.2-1-4-2-5.3c-0.9-1.3-2.1-2.3-3.7-2.8s-3.5-0.9-5.9-0.9h-11.4V616h14.3c3,0,5.4-0.7,7.3-2.1
					c1.8-1.4,2.8-3.5,2.8-6.4s-0.9-4.9-2.7-6.3c-1.8-1.4-4.3-2.1-7.3-2.1h-14.5l1-1v45.9h-7.4V592.3z"/>
				<path class="st4" d="M2094.4,617.4h21.3v7.2h-21.3V617.4z"/>
				<path class="st4" d="M2133.9,641.9c-3.1-2.1-5.6-5.1-7.3-9.2c-1.7-4.1-2.6-9-2.6-14.7c0-5.7,0.9-10.6,2.8-14.6
					c1.8-4,4.3-7,7.5-9.1c3.1-2,6.6-3.1,10.5-3.1c3.8,0,7.3,1,10.4,3.1c3.1,2,5.6,5.1,7.4,9.1c1.8,4,2.7,8.9,2.7,14.6
					c0,5.8-0.9,10.7-2.6,14.7c-1.7,4.1-4.1,7.1-7.2,9.2c-3.1,2.1-6.7,3.1-10.8,3.1S2137,643.9,2133.9,641.9z M2151.6,636.1
					c1.9-1.6,3.4-3.9,4.4-6.9c1-3.1,1.6-6.8,1.6-11.2c0-4.1-0.5-7.6-1.6-10.7c-1.1-3-2.6-5.4-4.5-7c-1.9-1.6-4.2-2.5-6.8-2.5
					c-2.6,0-4.9,0.8-6.9,2.4c-2,1.6-3.5,4-4.5,7c-1.1,3.1-1.6,6.6-1.6,10.7c0,4.4,0.5,8.1,1.6,11.2c1,3.1,2.5,5.4,4.5,6.9
					c1.9,1.6,4.3,2.4,7,2.4C2147.4,638.4,2149.7,637.6,2151.6,636.1z"/>
				<path class="st4" d="M2177.1,633.7c4.8-3.1,8.8-5.9,12.1-8.6c3.3-2.7,5.9-5.4,7.8-8.3c1.9-2.9,2.9-5.8,2.9-8.8
					c0-2.2-0.4-4-1.3-5.5c-0.8-1.5-2-2.7-3.4-3.5c-1.4-0.8-3-1.2-4.8-1.2c-1.9,0-3.6,0.4-5.1,1.3c-1.5,0.9-2.7,2.2-3.5,3.9
					c-0.9,1.7-1.3,3.8-1.3,6.1l-7.5-1c0-3.3,0.8-6.2,2.2-8.8c1.4-2.6,3.4-4.6,6-6c2.6-1.5,5.7-2.2,9.2-2.2c3.5,0,6.5,0.7,9.1,2.1
					c2.6,1.4,4.6,3.3,5.9,5.7c1.4,2.4,2,5.2,2,8.3c0,2.7-0.5,5.3-1.4,7.6c-0.9,2.4-2.3,4.6-4,6.8c-2.1,2.4-5,4.9-8.8,7.5
					c-3.7,2.6-8.3,5.4-13.8,8.5l1.8,2.8c1.6-1.1,3.2-1.9,4.8-2.5c1.6-0.6,3.7-0.8,6.2-0.8h15.7v6.8h-34.6v-8.1
					C2174.8,635.1,2176,634.4,2177.1,633.7z"/>
			</g>
		</g>
	</g>
</g>
<g class="st5">
	<g>
		<g>
			<polyline class="st3" points="798,1311 960,1311 1020.1,1278.7 			"/>
			<polyline class="st3" points="798,712 970,712 1029,745.6 			"/>
		</g>
		<g>
			<polyline class="st3" points="2201.2,1311 2039.2,1311 1979.1,1278.7 			"/>
			<polyline class="st3" points="2201.2,712 2029.2,712 1970.2,745.6 			"/>
		</g>
		<polyline class="st3" points="1499.7,454.8 1527.8,410 1717.9,410 		"/>
	</g>
	<polyline class="st3" points="1499.7,1545.2 1549.3,1712 1720.9,1712 	"/>
</g>
<rect x="-455.7" class="st4" width="301.4" height="301.4"/>
<text transform="matrix(1 0 0 1 1374.02 766)" class="st6 st7 st8">f3f4f5</text>
</svg>
