<?xml version="1.0" encoding="utf-8"?>
<!-- Generator: Adobe Illustrator 22.0.0, SVG Export Plug-In . SVG Version: 6.00 Build 0)  -->
<svg version="1.1" id="Layer_1" xmlns="http://www.w3.org/2000/svg" xmlns:xlink="http://www.w3.org/1999/xlink" x="0px" y="0px"
	 viewBox="0 0 3000 2000" style="enable-background:new 0 0 3000 2000;" xml:space="preserve">
<style type="text/css">
	.st0{fill:#011523;}
	.st1{fill:#FFFFFF;}
	.st2{fill:#F3F4F5;}
	.st3{fill:#031F30;}
	.st4{opacity:0.7;}
	.st5{fill:#1C2F3C;}
	.st6{fill:#354653;}
	.st7{fill:#4F5D6A;}
	.st8{fill:#68747F;}
	.st9{fill:#818A93;}
	.st10{fill:#B3B4BB;}
	.st11{fill:#E6E3E5;}
	.st12{fill:#8D5FFF;}
	.st13{fill:#55419E;}
	.st14{fill:#FF7144;}
	.st15{fill:#E9463E;}
	.st16{fill:#852120;}
	.st17{fill:#26224C;}
</style>
<rect class="st0" width="3000" height="2000"/>
<rect x="977" y="0" class="st1" width="2023" height="998"/>
<rect class="st2" width="2029" height="998"/>
<rect class="st3" width="977" height="998"/>
<rect class="st0" width="488" height="2000"/>
<g>
	<g class="st4">
		<path class="st1" d="M522.5,63.8c-1.3-0.8-2.3-1.9-2.9-3.3c-0.7-1.4-1-3-1-4.7c0-1.7,0.4-3.2,1.1-4.6c0.7-1.4,1.7-2.4,3-3.2
			c1.3-0.8,2.8-1.1,4.4-1.1c1.4,0,2.7,0.3,3.7,0.8c1.1,0.5,1.9,1.2,2.5,1.9c0.6,0.8,1.1,1.6,1.3,2.4l-2.3,0.8
			c-0.2-0.6-0.5-1.2-0.9-1.8c-0.4-0.6-1-1.1-1.7-1.5c-0.7-0.4-1.6-0.6-2.7-0.6c-1.2,0-2.3,0.3-3.2,0.8c-0.9,0.6-1.6,1.3-2.1,2.4
			c-0.5,1-0.8,2.3-0.8,3.6c0,1.4,0.3,2.7,0.8,3.8c0.5,1.1,1.2,2,2.1,2.6c0.9,0.6,2,0.9,3.2,0.9c1.6,0,2.8-0.4,3.6-1.1s1.5-1.8,1.9-3
			l2.2,0.9c-0.3,1-0.8,1.9-1.4,2.7c-0.7,0.8-1.5,1.4-2.6,1.9s-2.3,0.7-3.7,0.7C525.3,65,523.8,64.6,522.5,63.8z"/>
		<path class="st1" d="M539.8,64.2c-0.9-0.6-1.6-1.3-2.1-2.3c-0.5-1-0.8-2.1-0.8-3.4c0-1.3,0.3-2.4,0.8-3.4c0.5-1,1.2-1.8,2.1-2.3
			c0.9-0.6,1.9-0.8,3-0.8c1.1,0,2.1,0.3,3,0.8c0.9,0.6,1.6,1.3,2.1,2.3c0.5,1,0.8,2.1,0.8,3.4s-0.3,2.4-0.8,3.4
			c-0.5,1-1.2,1.8-2.1,2.3c-0.9,0.6-1.9,0.8-2.9,0.8C541.7,65,540.7,64.7,539.8,64.2z M544.6,62.6c0.6-0.3,1-0.9,1.3-1.6
			c0.3-0.7,0.5-1.6,0.5-2.6c0-1-0.2-1.9-0.5-2.6c-0.3-0.7-0.7-1.2-1.3-1.6c-0.5-0.4-1.2-0.5-1.9-0.5c-0.7,0-1.4,0.2-1.9,0.5
			s-1,0.9-1.3,1.6c-0.3,0.7-0.5,1.6-0.5,2.6c0,1,0.2,1.9,0.5,2.6c0.3,0.7,0.7,1.2,1.3,1.6c0.5,0.3,1.2,0.5,1.9,0.5
			C543.4,63.2,544.1,63,544.6,62.6z"/>
		<path class="st1" d="M554.5,65c0,0-0.4-0.3-1.1-0.8c-0.8-0.5-1.4-1.3-1.8-2.3c-0.5-1-0.7-2.2-0.7-3.5c0-1.4,0.2-2.5,0.7-3.5
			s1.1-1.7,1.8-2.3c0.8-0.5,1.6-0.8,2.6-0.8c1,0,1.8,0.2,2.5,0.7c0.7,0.5,1.2,1,1.5,1.7c0-0.5,0-1,0-1.2s0-0.7,0-1.2v-4.7h2.1v17.5
			H560c0-0.5,0-0.8,0-1c0-0.2,0-0.5,0-1c-0.4,0.6-0.9,1.2-1.6,1.7c-0.7,0.5-1.5,0.7-2.5,0.7C555,65,554.5,65,554.5,65z M558.4,62.7
			c0.5-0.3,0.9-0.9,1.3-1.6c0.3-0.7,0.5-1.6,0.5-2.6s-0.2-1.9-0.5-2.6c-0.3-0.7-0.7-1.2-1.3-1.6s-1.1-0.5-1.9-0.5
			c-0.7,0-1.3,0.2-1.8,0.5c-0.5,0.3-0.9,0.8-1.2,1.5c-0.3,0.7-0.5,1.6-0.5,2.7c0,1.1,0.1,2,0.5,2.7c0.3,0.7,0.7,1.2,1.2,1.5
			c0.5,0.3,1.1,0.5,1.8,0.5C557.3,63.2,557.9,63,558.4,62.7z"/>
		<path class="st1" d="M572.4,47.2h7.5c1.2,0,2.1,0.2,2.9,0.5c0.8,0.4,1.4,0.9,1.8,1.5c0.4,0.7,0.6,1.4,0.6,2.3c0,0.8-0.2,1.5-0.5,2
			c-0.3,0.6-0.7,1-1.2,1.4c-0.5,0.3-1,0.6-1.6,0.7v0c0.7,0.1,1.3,0.3,1.9,0.7c0.6,0.4,1.1,0.9,1.5,1.5c0.4,0.6,0.6,1.3,0.6,2.1
			c0,1.1-0.3,1.9-0.8,2.7s-1.2,1.3-2,1.6c-0.9,0.4-1.8,0.5-2.9,0.5h-7.9V47.2z M574.5,62.6h5.5c0.7,0,1.4-0.1,1.9-0.4
			c0.5-0.3,0.9-0.6,1.2-1c0.3-0.5,0.4-1,0.4-1.6c0-0.9-0.3-1.6-1-2.2c-0.6-0.5-1.5-0.8-2.6-0.8h-5.7v-2h5.4c0.7,0,1.3-0.1,1.8-0.3
			s0.9-0.5,1.1-1c0.3-0.4,0.4-0.9,0.4-1.5c0-0.8-0.3-1.5-0.9-1.9c-0.6-0.4-1.4-0.7-2.4-0.7h-5.2l0.2-0.2v13.8L574.5,62.6z"/>
		<path class="st1" d="M589.3,47.2h2.1v17.5h-2.1V47.2z"/>
		<path class="st1" d="M598.3,65c0,0-0.3-0.2-0.9-0.6c-0.6-0.4-1.1-0.9-1.4-1.6c-0.3-0.7-0.4-1.5-0.4-2.5v-8h2.1v7.5
			c0,1.1,0.2,2,0.7,2.5c0.5,0.5,1.1,0.8,2,0.8c1.4,0,2.3-0.5,2.7-1.5s0.7-2.3,0.7-3.8v-5.5h2.1v12.4h-2.1c0-0.5,0-0.9,0-1.1
			s0-0.6,0-1.1c-0.3,0.6-0.8,1.2-1.5,1.8c-0.7,0.6-1.6,0.8-2.7,0.8C598.8,65,598.3,65,598.3,65z"/>
		<path class="st1" d="M611.9,64.2c-0.8-0.5-1.5-1.3-2-2.2c-0.5-1-0.7-2.1-0.7-3.5c0-1.3,0.2-2.5,0.7-3.5c0.5-1,1.1-1.8,2-2.3
			c0.8-0.5,1.8-0.8,2.9-0.8c1.2,0,2.2,0.3,3.1,0.9s1.5,1.5,1.9,2.5c0.4,1.1,0.5,2.3,0.4,3.6h-8.8c0,1,0.2,1.8,0.5,2.4
			c0.3,0.6,0.8,1.1,1.3,1.4c0.5,0.3,1.1,0.4,1.8,0.4c0.9,0,1.6-0.2,2.2-0.7c0.6-0.5,1-1.1,1.2-1.7l2,0.7c-0.4,1.2-1.1,2-2.1,2.6
			c-0.9,0.6-2,0.9-3.3,0.9C613.8,65,612.8,64.8,611.9,64.2z M617.6,55.3c-0.3-0.5-0.7-1-1.2-1.3s-1-0.4-1.6-0.4
			c-0.9,0-1.6,0.3-2.3,1c-0.6,0.6-1,1.5-1.1,2.6h6.6C618,56.5,617.9,55.9,617.6,55.3z"/>
	</g>
	<g class="st4">
		<path class="st1" d="M40.3,65c0,0-0.6-0.4-1.9-1.1s-2.2-1.8-2.9-3.2c-0.7-1.4-1-3-1-4.8c0-1.8,0.4-3.3,1.1-4.7s1.8-2.5,3.1-3.2
			s2.8-1.2,4.4-1.2c1.5,0,2.7,0.3,3.8,0.8c1.1,0.5,1.9,1.2,2.6,1.9c0.7,0.8,1.1,1.6,1.4,2.5L48.8,53c-0.3-0.8-0.7-1.5-1.1-2.1
			s-1.1-1.1-1.8-1.5c-0.7-0.4-1.6-0.5-2.6-0.5c-1.1,0-2.2,0.3-3.1,0.8c-0.9,0.5-1.7,1.3-2.3,2.4c-0.6,1-0.9,2.3-0.9,3.8
			c0,1.4,0.3,2.7,0.8,3.8c0.5,1.1,1.2,1.9,2.2,2.5s2,0.9,3.2,0.9c1.1,0,2.1-0.2,2.9-0.7s1.5-1,2-1.8c0.5-0.7,0.7-1.5,0.8-2.3h-6.2
			v-2.1h8.5v8.5h-2.2c0-0.7,0-1.3,0-1.6c0-0.4,0-0.9,0-1.6c-0.4,1-1.1,1.8-2.1,2.5c-1,0.7-2.3,1.1-3.9,1.1C41.2,65,40.3,65,40.3,65z
			"/>
		<path class="st1" d="M54.8,47.2h2.1v17.5h-2.1V47.2z"/>
		<path class="st1" d="M61.2,47.2h2.3v2.7h-2.3V47.2z M61.2,52.3h2.1v12.4h-2.1V52.3z"/>
		<path class="st1" d="M67.7,52.3h2c0,0.4,0,0.8,0,1c0,0.2,0,0.5,0,1c0.2-0.4,0.5-0.7,0.8-1.1s0.7-0.6,1.2-0.9
			c0.5-0.2,1.1-0.4,1.8-0.4c0.9,0,1.7,0.2,2.4,0.7c0.7,0.5,1.2,1.1,1.5,2c0.3-0.7,0.8-1.4,1.5-1.9c0.7-0.5,1.6-0.8,2.7-0.8
			c0.9,0,1.7,0.2,2.4,0.5c0.6,0.4,1.1,0.9,1.5,1.5c0.3,0.7,0.5,1.5,0.5,2.5v8.2h-2.1v-7.6c0-1.1-0.2-1.9-0.7-2.5s-1.2-0.8-2-0.8
			c-1,0-1.7,0.3-2.1,0.8c-0.5,0.5-0.8,1.1-0.9,1.8c-0.1,0.7-0.2,1.4-0.2,2.3v6h-2.1v-7.6c0-1.1-0.2-2-0.7-2.5
			c-0.5-0.5-1.2-0.8-2-0.8c-0.9,0-1.6,0.3-2.1,0.8c-0.5,0.5-0.8,1.2-0.9,1.9c-0.1,0.7-0.2,1.5-0.2,2.3v5.9h-2.1V52.3z"/>
		<path class="st1" d="M89.9,52.3H92c0,0.4,0,0.8,0,1c0,0.2,0,0.6,0,1c0.2-0.4,0.5-0.8,0.9-1.1c0.4-0.4,0.8-0.6,1.4-0.9
			c0.5-0.2,1.2-0.3,1.8-0.3c1,0,1.8,0.3,2.6,0.8c0.8,0.5,1.4,1.3,1.8,2.3c0.4,1,0.7,2.2,0.7,3.5c0,1.4-0.2,2.5-0.6,3.5
			c-0.4,1-1,1.7-1.8,2.3S97,65,96.1,65c-1,0-1.8-0.2-2.5-0.7c-0.7-0.4-1.2-1-1.5-1.6c0,0.5,0,0.9,0,1.2s0,0.7,0,1.2v4.5h-2.1V52.3z
			 M97.3,62.7c0.5-0.3,0.9-0.8,1.2-1.5c0.3-0.7,0.5-1.6,0.5-2.7c0-1.1-0.1-2-0.4-2.7c-0.3-0.7-0.7-1.2-1.2-1.5
			c-0.5-0.3-1.1-0.5-1.8-0.5c-0.7,0-1.3,0.2-1.8,0.5c-0.5,0.3-1,0.9-1.3,1.6c-0.3,0.7-0.4,1.6-0.4,2.6c0,1,0.1,1.9,0.5,2.6
			c0.3,0.7,0.7,1.3,1.3,1.6c0.5,0.4,1.1,0.5,1.8,0.5C96.2,63.2,96.8,63,97.3,62.7z"/>
		<path class="st1" d="M106.2,64.6c-0.8-0.3-1.4-0.7-1.9-1.2c-0.5-0.5-0.8-1.2-1-1.9l2-0.6c0.1,0.5,0.3,0.9,0.6,1.2
			c0.3,0.4,0.6,0.7,1.1,0.9c0.5,0.2,1,0.3,1.7,0.3c0.9,0,1.6-0.2,2.1-0.5c0.5-0.3,0.7-0.8,0.7-1.4c0-0.5-0.2-0.9-0.5-1.2
			c-0.4-0.3-0.9-0.6-1.8-0.7l-1.5-0.3c-0.8-0.2-1.4-0.4-2-0.6c-0.6-0.3-1-0.6-1.3-1.1c-0.3-0.5-0.5-1.1-0.5-1.8
			c0-0.7,0.2-1.3,0.6-1.9c0.4-0.6,1-1,1.7-1.3c0.7-0.3,1.5-0.5,2.3-0.5c1.4,0,2.5,0.3,3.3,0.9c0.8,0.6,1.4,1.3,1.6,2.2l-1.9,0.7
			c-0.1-0.4-0.3-0.7-0.5-1c-0.2-0.3-0.6-0.6-1-0.8c-0.4-0.2-0.9-0.3-1.6-0.3c-0.8,0-1.4,0.2-1.9,0.5c-0.4,0.3-0.7,0.8-0.7,1.3
			c0,0.5,0.2,0.8,0.5,1.1c0.3,0.3,0.9,0.5,1.7,0.6l1.6,0.3c1.1,0.3,2.1,0.7,2.9,1.2c0.8,0.6,1.2,1.4,1.2,2.6c0,0.8-0.2,1.4-0.6,2
			c-0.4,0.6-1,1-1.7,1.3c-0.7,0.3-1.6,0.5-2.7,0.5C107.7,65,106.9,64.9,106.2,64.6z"/>
		<path class="st1" d="M118.6,64.2c-0.8-0.5-1.5-1.3-2-2.2c-0.5-1-0.7-2.1-0.7-3.5c0-1.3,0.2-2.5,0.7-3.5c0.5-1,1.1-1.8,2-2.3
			c0.8-0.5,1.8-0.8,2.9-0.8c1.2,0,2.2,0.3,3.1,0.9s1.5,1.5,1.9,2.5c0.4,1.1,0.5,2.3,0.4,3.6H118c0,1,0.2,1.8,0.5,2.4
			c0.3,0.6,0.8,1.1,1.3,1.4c0.5,0.3,1.1,0.4,1.8,0.4c0.9,0,1.6-0.2,2.2-0.7c0.6-0.5,1-1.1,1.2-1.7l2,0.7c-0.4,1.2-1.1,2-2.1,2.6
			c-0.9,0.6-2,0.9-3.3,0.9C120.4,65,119.4,64.8,118.6,64.2z M124.3,55.3c-0.3-0.5-0.7-1-1.2-1.3s-1-0.4-1.6-0.4
			c-0.9,0-1.6,0.3-2.3,1c-0.6,0.6-1,1.5-1.1,2.6h6.6C124.7,56.5,124.6,55.9,124.3,55.3z"/>
		<path class="st1" d="M136.3,47.2h2.3v17.5h-2.3V47.2z"/>
		<path class="st1" d="M143.1,52.3h2c0,0.5,0,0.8,0,1.1c0,0.2,0,0.6,0,1.1c0.1-0.3,0.3-0.6,0.7-1c0.3-0.4,0.8-0.7,1.4-1
			c0.6-0.3,1.3-0.5,2-0.5c1,0,1.8,0.2,2.5,0.6c0.6,0.4,1.1,0.9,1.4,1.6c0.3,0.7,0.5,1.5,0.5,2.5v8h-2.1v-7.5c0-1.1-0.2-2-0.7-2.5
			c-0.5-0.6-1.2-0.8-2.1-0.8c-1,0-1.8,0.3-2.3,0.9s-0.8,1.3-1,2s-0.2,1.6-0.2,2.5v5.5h-2.1V52.3z"/>
		<path class="st1" d="M160.2,64.3c-0.5-0.2-0.8-0.6-1.1-1s-0.4-1-0.4-1.7v-7.5h-2.9v-1.8h2.9v-3.8h2.1v3.8h3.4v1.8h-3.4v7.4
			c0,0.5,0.1,0.8,0.4,1.1s0.6,0.3,1.1,0.3h2.4v1.8H162C161.3,64.7,160.7,64.5,160.2,64.3z"/>
		<path class="st1" d="M169.3,64.2c-0.9-0.6-1.6-1.3-2.1-2.3c-0.5-1-0.8-2.1-0.8-3.4c0-1.3,0.3-2.4,0.8-3.4c0.5-1,1.2-1.8,2.1-2.3
			c0.9-0.6,1.9-0.8,3-0.8c1.1,0,2.1,0.3,3,0.8c0.9,0.6,1.6,1.3,2.1,2.3c0.5,1,0.8,2.1,0.8,3.4s-0.3,2.4-0.8,3.4
			c-0.5,1-1.2,1.8-2.1,2.3c-0.9,0.6-1.9,0.8-2.9,0.8C171.1,65,170.1,64.7,169.3,64.2z M174.1,62.6c0.6-0.3,1-0.9,1.3-1.6
			c0.3-0.7,0.5-1.6,0.5-2.6c0-1-0.2-1.9-0.5-2.6c-0.3-0.7-0.7-1.2-1.3-1.6c-0.5-0.4-1.2-0.5-1.9-0.5c-0.7,0-1.4,0.2-1.9,0.5
			s-1,0.9-1.3,1.6c-0.3,0.7-0.5,1.6-0.5,2.6c0,1,0.2,1.9,0.5,2.6c0.3,0.7,0.7,1.2,1.3,1.6c0.5,0.3,1.2,0.5,1.9,0.5
			C172.9,63.2,173.5,63,174.1,62.6z"/>
		<path class="st1" d="M189.5,64.4c-0.9-0.4-1.7-1-2.3-1.7c-0.6-0.7-1.1-1.5-1.4-2.5l2.2-1c0.2,0.7,0.5,1.4,1,1.9
			c0.4,0.6,1,1,1.6,1.3c0.7,0.3,1.4,0.5,2.3,0.5c1.2,0,2.2-0.3,2.9-0.8c0.7-0.5,1-1.3,1-2.1c0-0.8-0.3-1.4-0.8-1.9
			c-0.5-0.5-1.4-0.8-2.5-1.1l-2.4-0.6c-0.9-0.2-1.7-0.5-2.4-0.9c-0.7-0.4-1.2-0.9-1.6-1.5s-0.6-1.4-0.6-2.4c0-0.9,0.3-1.8,0.8-2.5
			s1.2-1.3,2.1-1.8c0.9-0.4,1.9-0.6,3.1-0.6c1.2,0,2.2,0.2,3.1,0.6c0.9,0.4,1.6,0.9,2.1,1.6c0.5,0.6,0.9,1.2,1.1,1.9l-2.1,1
			c-0.2-0.5-0.4-0.9-0.7-1.4c-0.3-0.4-0.8-0.8-1.4-1.1c-0.6-0.3-1.3-0.5-2.2-0.5c-0.7,0-1.4,0.1-1.9,0.4c-0.5,0.2-0.9,0.6-1.2,1
			c-0.3,0.4-0.4,0.9-0.4,1.4c0,0.7,0.2,1.3,0.7,1.7c0.5,0.4,1.2,0.8,2.3,1l2.4,0.6c1.5,0.3,2.7,0.9,3.6,1.8c0.9,0.8,1.3,1.9,1.3,3.2
			c0,1-0.2,1.9-0.7,2.7c-0.5,0.8-1.2,1.4-2.2,1.8c-1,0.4-2.1,0.7-3.5,0.7C191.5,65,190.4,64.8,189.5,64.4z"/>
		<path class="st1" d="M202.4,52.3h2.1c0,0.4,0,0.8,0,1c0,0.2,0,0.6,0,1c0.2-0.4,0.5-0.8,0.9-1.1c0.4-0.4,0.8-0.6,1.4-0.9
			c0.5-0.2,1.2-0.3,1.8-0.3c1,0,1.8,0.3,2.6,0.8c0.8,0.5,1.4,1.3,1.8,2.3c0.4,1,0.7,2.2,0.7,3.5c0,1.4-0.2,2.5-0.6,3.5
			c-0.4,1-1,1.7-1.8,2.3s-1.6,0.8-2.6,0.8c-1,0-1.8-0.2-2.5-0.7c-0.7-0.4-1.2-1-1.5-1.6c0,0.5,0,0.9,0,1.2s0,0.7,0,1.2v4.5h-2.1
			V52.3z M209.7,62.7c0.5-0.3,0.9-0.8,1.2-1.5c0.3-0.7,0.5-1.6,0.5-2.7c0-1.1-0.1-2-0.4-2.7c-0.3-0.7-0.7-1.2-1.2-1.5
			c-0.5-0.3-1.1-0.5-1.8-0.5c-0.7,0-1.3,0.2-1.8,0.5c-0.5,0.3-1,0.9-1.3,1.6c-0.3,0.7-0.4,1.6-0.4,2.6c0,1,0.1,1.9,0.5,2.6
			c0.3,0.7,0.7,1.3,1.3,1.6c0.5,0.4,1.1,0.5,1.8,0.5C208.6,63.2,209.2,63,209.7,62.7z"/>
		<path class="st1" d="M224,55.4c0,0-0.1-0.2-0.3-0.5c-0.2-0.4-0.5-0.6-0.9-0.8c-0.4-0.2-0.9-0.3-1.6-0.3c-1,0-1.7,0.2-2.2,0.6
			c-0.5,0.4-0.9,1-1.1,1.6l-2-0.7c0.1-0.6,0.4-1.1,0.9-1.6c0.4-0.5,1-0.9,1.8-1.3c0.8-0.3,1.7-0.5,2.7-0.5c1.1,0,2,0.2,2.7,0.5
			c0.7,0.4,1.3,0.9,1.6,1.5s0.5,1.4,0.5,2.3V62c0,0.3,0.1,0.5,0.2,0.6c0.1,0.1,0.3,0.2,0.6,0.2h1.3v1.8h-1.7c-0.6,0-1-0.1-1.3-0.2
			c-0.3-0.2-0.5-0.4-0.7-0.7c-0.1-0.3-0.3-0.6-0.3-1.1c-0.5,0.8-1,1.3-1.7,1.7S221,65,220.1,65c-1.2,0-2.2-0.3-2.9-0.9
			c-0.7-0.6-1.1-1.5-1.1-2.6c0-1.1,0.4-2,1.1-2.7c0.8-0.7,1.7-1.2,2.9-1.6c1.2-0.3,2.6-0.6,4.1-0.7l0,1.6c-1.8,0.1-3.3,0.5-4.4,1
			c-1.1,0.5-1.6,1.2-1.6,2.2c0,0.6,0.2,1.1,0.6,1.4c0.4,0.3,1,0.5,1.7,0.5c0.6,0,1.1-0.1,1.6-0.4c0.5-0.3,0.9-0.7,1.3-1.3
			c0.3-0.6,0.5-1.3,0.5-2.1v-3.3C224,55.7,224,55.4,224,55.4z"/>
		<path class="st1" d="M232.3,64.2c-0.9-0.5-1.6-1.3-2.1-2.3c-0.5-1-0.7-2.1-0.7-3.5c0-1.3,0.3-2.4,0.8-3.4c0.5-1,1.2-1.8,2.1-2.3
			c0.9-0.6,1.9-0.8,3-0.8c0.9,0,1.7,0.2,2.4,0.5c0.7,0.3,1.3,0.8,1.8,1.3c0.5,0.6,0.8,1.2,1,1.8l-2,0.7c-0.2-0.7-0.6-1.3-1.1-1.7
			c-0.5-0.4-1.2-0.7-2.1-0.7c-0.7,0-1.3,0.2-1.8,0.5c-0.6,0.4-1,0.9-1.3,1.6c-0.3,0.7-0.5,1.6-0.5,2.6c0,1,0.2,1.9,0.5,2.6
			c0.3,0.7,0.8,1.2,1.3,1.6c0.6,0.4,1.2,0.5,1.9,0.5c0.9,0,1.7-0.3,2.2-0.8c0.6-0.5,1-1.2,1.2-2l2,0.7c-0.4,1.2-1.1,2.1-2,2.9
			c-0.9,0.7-2.1,1.1-3.4,1.1C234.2,65,233.2,64.7,232.3,64.2z"/>
		<path class="st1" d="M245.6,64.2c-0.8-0.5-1.5-1.3-2-2.2c-0.5-1-0.7-2.1-0.7-3.5c0-1.3,0.2-2.5,0.7-3.5c0.5-1,1.1-1.8,2-2.3
			c0.8-0.5,1.8-0.8,2.9-0.8c1.2,0,2.2,0.3,3.1,0.9s1.5,1.5,1.9,2.5c0.4,1.1,0.5,2.3,0.4,3.6h-8.8c0,1,0.2,1.8,0.5,2.4
			c0.3,0.6,0.8,1.1,1.3,1.4c0.5,0.3,1.1,0.4,1.8,0.4c0.9,0,1.6-0.2,2.2-0.7c0.6-0.5,1-1.1,1.2-1.7l2,0.7c-0.4,1.2-1.1,2-2.1,2.6
			c-0.9,0.6-2,0.9-3.3,0.9C247.5,65,246.5,64.8,245.6,64.2z M251.3,55.3c-0.3-0.5-0.7-1-1.2-1.3s-1-0.4-1.6-0.4
			c-0.9,0-1.6,0.3-2.3,1c-0.6,0.6-1,1.5-1.1,2.6h6.6C251.7,56.5,251.6,55.9,251.3,55.3z"/>
	</g>
</g>
<g>
	<g>
		<g>
			<g>
				<path class="st0" d="M1015.1,47.2h2.4l2.4,10.3c0.3,1.3,0.5,2.3,0.7,3c0.2,0.7,0.3,1.3,0.4,1.7c0.3-0.9,0.5-1.7,0.6-2.2
					s0.3-1.2,0.6-2.2l3-10.5h2.7l3.1,11.4c0.2,0.8,0.4,1.4,0.5,1.8s0.3,1,0.5,1.8c0.3-1.1,0.4-1.9,0.6-2.4c0.1-0.5,0.3-1.3,0.6-2.3
					l2.5-10.2h2.3l-4.5,17.5h-2.9l-3-10.9c-0.2-0.9-0.4-1.5-0.5-1.9c-0.1-0.4-0.3-1-0.5-1.9c-0.2,0.8-0.4,1.5-0.5,1.9
					c-0.1,0.4-0.3,1-0.5,1.8l-3.1,11h-3L1015.1,47.2z"/>
				<path class="st0" d="M1041,47.2h2.1V52c0,0.5,0,1,0,1.2s0,0.7,0,1.2c0.1-0.3,0.3-0.7,0.6-1c0.3-0.4,0.8-0.7,1.4-1
					c0.6-0.3,1.3-0.5,2.2-0.5c0.9,0,1.7,0.2,2.4,0.6c0.6,0.4,1.1,0.9,1.4,1.6c0.3,0.7,0.5,1.5,0.5,2.5v8h-2.1v-7.5
					c0-1.1-0.2-2-0.7-2.5c-0.5-0.6-1.2-0.8-2.1-0.8c-1,0-1.8,0.3-2.3,0.9s-0.8,1.3-1,2s-0.2,1.6-0.2,2.5v5.5h-2.1V47.2z"/>
				<path class="st0" d="M1055.5,47.2h2.3v2.7h-2.3V47.2z M1055.6,52.3h2.1v12.4h-2.1V52.3z"/>
				<path class="st0" d="M1064.8,64.3c-0.5-0.2-0.8-0.6-1.1-1s-0.4-1-0.4-1.7v-7.5h-2.9v-1.8h2.9v-3.8h2.1v3.8h3.4v1.8h-3.4v7.4
					c0,0.5,0.1,0.8,0.4,1.1s0.6,0.3,1.1,0.3h2.4v1.8h-2.8C1065.8,64.7,1065.3,64.5,1064.8,64.3z"/>
				<path class="st0" d="M1073.6,64.2c-0.8-0.5-1.5-1.3-2-2.2c-0.5-1-0.7-2.1-0.7-3.5c0-1.3,0.2-2.5,0.7-3.5c0.5-1,1.1-1.8,2-2.3
					c0.8-0.5,1.8-0.8,2.9-0.8c1.2,0,2.2,0.3,3.1,0.9s1.5,1.5,1.9,2.5c0.4,1.1,0.5,2.3,0.4,3.6h-8.8c0,1,0.2,1.8,0.5,2.4
					c0.3,0.6,0.8,1.1,1.3,1.4c0.5,0.3,1.1,0.4,1.8,0.4c0.9,0,1.6-0.2,2.2-0.7c0.6-0.5,1-1.1,1.2-1.7l2,0.7c-0.4,1.2-1.1,2-2.1,2.6
					c-0.9,0.6-2,0.9-3.3,0.9C1075.4,65,1074.4,64.8,1073.6,64.2z M1079.3,55.3c-0.3-0.5-0.7-1-1.2-1.3s-1-0.4-1.6-0.4
					c-0.9,0-1.6,0.3-2.3,1c-0.6,0.6-1,1.5-1.1,2.6h6.6C1079.7,56.5,1079.6,55.9,1079.3,55.3z"/>
				<path class="st0" d="M1093.5,64.4c-0.9-0.4-1.7-1-2.3-1.7c-0.6-0.7-1.1-1.5-1.4-2.5l2.2-1c0.2,0.7,0.5,1.4,1,1.9
					c0.4,0.6,1,1,1.6,1.3c0.7,0.3,1.4,0.5,2.3,0.5c1.2,0,2.2-0.3,2.9-0.8c0.7-0.5,1-1.3,1-2.1c0-0.8-0.3-1.4-0.8-1.9
					c-0.5-0.5-1.4-0.8-2.5-1.1l-2.4-0.6c-0.9-0.2-1.7-0.5-2.4-0.9c-0.7-0.4-1.2-0.9-1.6-1.5s-0.6-1.4-0.6-2.4c0-0.9,0.3-1.8,0.8-2.5
					s1.2-1.3,2.1-1.8c0.9-0.4,1.9-0.6,3.1-0.6c1.2,0,2.2,0.2,3.1,0.6c0.9,0.4,1.6,0.9,2.1,1.6c0.5,0.6,0.9,1.2,1.1,1.9l-2.1,1
					c-0.2-0.5-0.4-0.9-0.7-1.4c-0.3-0.4-0.8-0.8-1.4-1.1c-0.6-0.3-1.3-0.5-2.2-0.5c-0.7,0-1.4,0.1-1.9,0.4c-0.5,0.2-0.9,0.6-1.2,1
					c-0.3,0.4-0.4,0.9-0.4,1.4c0,0.7,0.2,1.3,0.7,1.7c0.5,0.4,1.2,0.8,2.3,1l2.4,0.6c1.5,0.3,2.7,0.9,3.6,1.8
					c0.9,0.8,1.3,1.9,1.3,3.2c0,1-0.2,1.9-0.7,2.7c-0.5,0.8-1.2,1.4-2.2,1.8c-1,0.4-2.1,0.7-3.5,0.7
					C1095.5,65,1094.4,64.8,1093.5,64.4z"/>
				<path class="st0" d="M1106.4,52.3h2c0,0.4,0,0.8,0,1c0,0.2,0,0.5,0,1c0.2-0.4,0.5-0.7,0.8-1.1s0.7-0.6,1.2-0.9
					c0.5-0.2,1.1-0.4,1.8-0.4c0.9,0,1.7,0.2,2.4,0.7c0.7,0.5,1.2,1.1,1.5,2c0.3-0.7,0.8-1.4,1.5-1.9c0.7-0.5,1.6-0.8,2.7-0.8
					c0.9,0,1.7,0.2,2.4,0.5c0.6,0.4,1.1,0.9,1.5,1.5c0.3,0.7,0.5,1.5,0.5,2.5v8.2h-2.1v-7.6c0-1.1-0.2-1.9-0.7-2.5s-1.2-0.8-2-0.8
					c-1,0-1.7,0.3-2.1,0.8c-0.5,0.5-0.8,1.1-0.9,1.8c-0.1,0.7-0.2,1.4-0.2,2.3v6h-2.1v-7.6c0-1.1-0.2-2-0.7-2.5
					c-0.5-0.5-1.2-0.8-2-0.8c-0.9,0-1.6,0.3-2.1,0.8c-0.5,0.5-0.8,1.2-0.9,1.9c-0.1,0.7-0.2,1.5-0.2,2.3v5.9h-2.1V52.3z"/>
				<path class="st0" d="M1130.6,64.2c-0.9-0.6-1.6-1.3-2.1-2.3c-0.5-1-0.8-2.1-0.8-3.4c0-1.3,0.3-2.4,0.8-3.4
					c0.5-1,1.2-1.8,2.1-2.3c0.9-0.6,1.9-0.8,3-0.8c1.1,0,2.1,0.3,3,0.8c0.9,0.6,1.6,1.3,2.1,2.3c0.5,1,0.8,2.1,0.8,3.4
					s-0.3,2.4-0.8,3.4c-0.5,1-1.2,1.8-2.1,2.3c-0.9,0.6-1.9,0.8-2.9,0.8C1132.5,65,1131.5,64.7,1130.6,64.2z M1135.4,62.6
					c0.6-0.3,1-0.9,1.3-1.6c0.3-0.7,0.5-1.6,0.5-2.6c0-1-0.2-1.9-0.5-2.6c-0.3-0.7-0.7-1.2-1.3-1.6c-0.5-0.4-1.2-0.5-1.9-0.5
					c-0.7,0-1.4,0.2-1.9,0.5s-1,0.9-1.3,1.6c-0.3,0.7-0.5,1.6-0.5,2.6c0,1,0.2,1.9,0.5,2.6c0.3,0.7,0.7,1.2,1.3,1.6
					c0.5,0.3,1.2,0.5,1.9,0.5C1134.2,63.2,1134.9,63,1135.4,62.6z"/>
				<path class="st0" d="M1142.6,47.2h2.1v7.4c0,0.9,0,1.6,0,2c0,0.4,0,1.1,0,2l6.6-6.3h2.8l-6,5.6l-0.5,0.4l-3.6,3.4l0.7-1.6v4.7
					h-2.1V47.2z M1146.8,58.5l1.5-1.3l6.2,7.5h-2.8L1146.8,58.5z"/>
				<path class="st0" d="M1158.1,64.2c-0.8-0.5-1.5-1.3-2-2.2c-0.5-1-0.7-2.1-0.7-3.5c0-1.3,0.2-2.5,0.7-3.5c0.5-1,1.1-1.8,2-2.3
					c0.8-0.5,1.8-0.8,2.9-0.8c1.2,0,2.2,0.3,3.1,0.9s1.5,1.5,1.9,2.5c0.4,1.1,0.5,2.3,0.4,3.6h-8.8c0,1,0.2,1.8,0.5,2.4
					c0.3,0.6,0.8,1.1,1.3,1.4c0.5,0.3,1.1,0.4,1.8,0.4c0.9,0,1.6-0.2,2.2-0.7c0.6-0.5,1-1.1,1.2-1.7l2,0.7c-0.4,1.2-1.1,2-2.1,2.6
					c-0.9,0.6-2,0.9-3.3,0.9C1159.9,65,1158.9,64.8,1158.1,64.2z M1163.8,55.3c-0.3-0.5-0.7-1-1.2-1.3s-1-0.4-1.6-0.4
					c-0.9,0-1.6,0.3-2.3,1c-0.6,0.6-1,1.5-1.1,2.6h6.6C1164.2,56.5,1164,55.9,1163.8,55.3z"/>
			</g>
		</g>
		<g>
			<g>
				<path class="st0" d="M2071.1,47.2h2.4l2.4,10.3c0.3,1.3,0.5,2.3,0.7,3c0.2,0.7,0.3,1.3,0.4,1.7c0.3-0.9,0.5-1.7,0.6-2.2
					c0.1-0.5,0.3-1.2,0.6-2.2l3-10.5h2.7l3,11.4c0.2,0.8,0.4,1.4,0.5,1.8c0.1,0.4,0.3,1,0.5,1.8c0.3-1.1,0.4-1.9,0.6-2.4
					c0.1-0.5,0.3-1.3,0.6-2.3l2.5-10.2h2.3l-4.5,17.5h-2.9l-3-10.9c-0.2-0.9-0.4-1.5-0.5-1.9c-0.1-0.4-0.3-1-0.5-1.9
					c-0.2,0.8-0.4,1.5-0.5,1.9c-0.1,0.4-0.3,1-0.5,1.8l-3.1,11h-3L2071.1,47.2z"/>
				<path class="st0" d="M2097,47.2h2.1V52c0,0.5,0,1,0,1.2s0,0.7,0,1.2c0.1-0.3,0.3-0.7,0.6-1c0.3-0.4,0.8-0.7,1.3-1
					c0.6-0.3,1.3-0.5,2.2-0.5c0.9,0,1.7,0.2,2.3,0.6c0.6,0.4,1.1,0.9,1.4,1.6c0.3,0.7,0.5,1.5,0.5,2.5v8h-2.1v-7.5
					c0-1.1-0.2-2-0.7-2.5c-0.5-0.6-1.2-0.8-2.1-0.8c-1,0-1.8,0.3-2.3,0.9s-0.8,1.3-1,2c-0.1,0.8-0.2,1.6-0.2,2.5v5.5h-2.1V47.2z"/>
				<path class="st0" d="M2111.5,47.2h2.3v2.7h-2.3V47.2z M2111.6,52.3h2.1v12.4h-2.1V52.3z"/>
				<path class="st0" d="M2120.8,64.3c-0.5-0.2-0.8-0.6-1.1-1c-0.2-0.5-0.4-1-0.4-1.7v-7.5h-2.9v-1.8h2.9v-3.8h2.1v3.8h3.4v1.8h-3.4
					v7.4c0,0.5,0.1,0.8,0.3,1.1s0.6,0.3,1.1,0.3h2.5v1.8h-2.8C2121.8,64.7,2121.3,64.5,2120.8,64.3z"/>
				<path class="st0" d="M2129.6,64.2c-0.8-0.5-1.5-1.3-2-2.2c-0.5-1-0.7-2.1-0.7-3.5c0-1.3,0.2-2.5,0.7-3.5s1.1-1.8,2-2.3
					c0.8-0.5,1.8-0.8,2.9-0.8c1.2,0,2.2,0.3,3.1,0.9s1.5,1.5,1.9,2.5c0.4,1.1,0.5,2.3,0.4,3.6h-8.8c0,1,0.2,1.8,0.5,2.4
					c0.3,0.6,0.8,1.1,1.3,1.4c0.5,0.3,1.1,0.4,1.8,0.4c0.9,0,1.6-0.2,2.2-0.7c0.6-0.5,1-1.1,1.2-1.7l2,0.7c-0.4,1.2-1.1,2-2.1,2.6
					s-2,0.9-3.3,0.9C2131.4,65,2130.4,64.8,2129.6,64.2z M2135.3,55.3c-0.3-0.5-0.7-1-1.2-1.3s-1-0.4-1.6-0.4c-0.9,0-1.6,0.3-2.3,1
					c-0.6,0.6-1,1.5-1.1,2.6h6.6C2135.7,56.5,2135.6,55.9,2135.3,55.3z"/>
			</g>
		</g>
	</g>
</g>
<rect x="488" y="998" class="st5" width="1541" height="143.1"/>
<rect x="488" y="1141.1" class="st6" width="1541" height="143.1"/>
<rect x="488" y="1284.3" class="st7" width="1541" height="143.1"/>
<rect x="488" y="1427.4" class="st8" width="1541" height="143.1"/>
<rect x="488" y="1570.6" class="st9" width="1541" height="143.1"/>
<rect x="488" y="1713.7" class="st10" width="1541" height="143.1"/>
<rect x="488" y="1856.9" class="st11" width="1541" height="143.1"/>
<rect x="2029" y="998" class="st12" width="971" height="286"/>
<rect x="2029" y="1284.3" class="st13" width="971" height="143"/>
<rect x="2029" y="1571" class="st14" width="971" height="143"/>
<rect x="2029" y="1713.7" class="st15" width="971" height="143.1"/>
<rect x="2029" y="1856.9" class="st16" width="971" height="143.1"/>
<rect x="2029" y="1427.4" class="st17" width="971" height="143.1"/>
<g>
	<g class="st4">
		<path class="st1" d="M35.3,846h6.3c1,0,1.8,0.2,2.5,0.5c0.7,0.3,1.2,0.7,1.5,1.3c0.3,0.5,0.5,1.2,0.5,1.9c0,0.7-0.1,1.2-0.4,1.7
			s-0.6,0.9-1,1.2c-0.4,0.3-0.9,0.5-1.3,0.6v0c0.6,0.1,1.1,0.3,1.6,0.6c0.5,0.3,0.9,0.7,1.2,1.2c0.3,0.5,0.5,1.1,0.5,1.8
			c0,0.9-0.2,1.6-0.6,2.2c-0.4,0.6-1,1.1-1.7,1.4s-1.5,0.5-2.4,0.5h-6.6V846z M37,858.9h4.6c0.6,0,1.1-0.1,1.6-0.3
			c0.4-0.2,0.8-0.5,1-0.9c0.2-0.4,0.4-0.8,0.4-1.3c0-0.8-0.3-1.4-0.8-1.8c-0.5-0.4-1.3-0.7-2.2-0.7h-4.8v-1.7h4.5
			c0.6,0,1.1-0.1,1.5-0.3s0.7-0.5,1-0.8c0.2-0.3,0.3-0.8,0.3-1.2c0-0.7-0.2-1.2-0.7-1.6c-0.5-0.4-1.2-0.6-2-0.6H37l0.2-0.2v11.6
			L37,858.9z"/>
		<path class="st1" d="M51.6,858.9h8.6v1.7H49.9V846h10.3v1.7h-8.6l0.2-0.2v11.6L51.6,858.9z M58,852.2v1.7h-6.6v-1.7H58z"/>
		<path class="st1" d="M61.4,858.9h0.7c0.5,0,0.9-0.1,1.2-0.2s0.5-0.3,0.7-0.5c0.2-0.2,0.3-0.6,0.4-1c0.1-0.6,0.2-1.2,0.2-1.9
			c0-0.7,0.1-1.6,0.1-2.8c0-0.4,0-0.8,0-1.2l0.1-5.4H75v13h2.2v4.5h-1.7v-2.7H63.1v2.7h-1.7V858.9z M73.1,858.9v-11.2h-6.5l-0.1,4.2
			c0,1.4-0.1,2.5-0.1,3.4c-0.1,0.9-0.2,1.6-0.3,2.2c-0.1,0.6-0.3,1.1-0.5,1.5H73.1z"/>
		<path class="st1" d="M80,858.9h1.7c0.4,0,0.8,0,1-0.1c0.3-0.1,0.5-0.2,0.6-0.4c0.2-0.2,0.3-0.5,0.5-0.9l0.8-1.8l-0.2,1.4L78.3,846
			h2.2l3.5,6.7c0.3,0.4,0.4,0.8,0.6,1c0.1,0.2,0.3,0.6,0.5,1c0.1-0.2,0.1-0.3,0.2-0.5c0.1-0.2,0.2-0.4,0.3-0.7
			c0.1-0.3,0.2-0.5,0.4-0.8l2.9-6.6h2l-5.4,12.4c-0.3,0.6-0.6,1.1-0.9,1.4c-0.3,0.3-0.7,0.6-1.2,0.7c-0.4,0.1-1,0.2-1.7,0.2H80
			V858.9z"/>
		<path class="st1" d="M93.2,846h1.9v13h6.6v-13h1.9v13h6.6v-13h1.9v14.7H93.2V846z M112.6,860.7h-1.5l-1-1.7h4.1v4.5h-1.7V860.7z"
			/>
		<path class="st1" d="M117,846h1.9v9.2c0,0.7,0,1.3,0,1.7c0,0.4,0,0.9,0,1.6l8.2-12.4h2.4v14.7h-1.9v-9.2c0-0.7,0-1.3,0-1.7
			c0-0.4,0-0.9,0-1.6l-8.2,12.4H117V846z"/>
		<path class="st1" d="M133.8,846h1.9v9.2c0,0.7,0,1.3,0,1.7c0,0.4,0,0.9,0,1.6l8.2-12.4h2.4v14.7h-1.9v-9.2c0-0.7,0-1.3,0-1.7
			c0-0.4,0-0.9,0-1.6l-8.2,12.4h-2.4V846z M138.1,844.3c-0.5-0.3-0.9-0.6-1.2-1c-0.3-0.4-0.4-0.9-0.4-1.4h1.8c0.1,0.4,0.3,0.8,0.6,1
			c0.3,0.3,0.7,0.4,1.2,0.4c0.5,0,0.9-0.1,1.2-0.4c0.3-0.3,0.5-0.6,0.6-1h1.8c0,0.8-0.4,1.5-0.9,2c-0.6,0.5-1.5,0.8-2.7,0.8
			C139.3,844.7,138.6,844.6,138.1,844.3z"/>
		<path class="st1" d="M35.3,870h1.9v13h7.5v-13h1.9v14.7H35.3V870z M47.1,884.7h-1.5l-1-1.7h4.1v4.5h-1.7V884.7z"/>
		<path class="st1" d="M51.7,870H58c1,0,1.8,0.2,2.5,0.5c0.7,0.3,1.2,0.7,1.5,1.3c0.3,0.5,0.5,1.2,0.5,1.9c0,0.7-0.1,1.2-0.4,1.7
			s-0.6,0.9-1,1.2c-0.4,0.3-0.9,0.5-1.3,0.6v0c0.6,0.1,1.1,0.3,1.6,0.6c0.5,0.3,0.9,0.7,1.2,1.2c0.3,0.5,0.5,1.1,0.5,1.8
			c0,0.9-0.2,1.6-0.6,2.2c-0.4,0.6-1,1.1-1.7,1.4s-1.5,0.5-2.4,0.5h-6.6V870z M53.4,882.9H58c0.6,0,1.1-0.1,1.6-0.3
			c0.4-0.2,0.8-0.5,1-0.9c0.2-0.4,0.4-0.8,0.4-1.3c0-0.8-0.3-1.4-0.8-1.8c-0.5-0.4-1.3-0.7-2.2-0.7h-4.8v-1.7h4.5
			c0.6,0,1.1-0.1,1.5-0.3s0.7-0.5,1-0.8c0.2-0.3,0.3-0.8,0.3-1.2c0-0.7-0.2-1.2-0.7-1.6c-0.5-0.4-1.2-0.6-2-0.6h-4.4l0.2-0.2v11.6
			L53.4,882.9z"/>
		<path class="st1" d="M67.9,882.9h8.6v1.7H66.2V870h10.3v1.7h-8.6l0.2-0.2v11.6L67.9,882.9z M74.4,876.2v1.7h-6.6v-1.7H74.4z"/>
		<path class="st1" d="M83.3,871.4l0.3,0.3h-5.6V870h12.6v1.7h-5.6l0.3-0.3v13.3h-1.9V871.4z"/>
	</g>
	<g class="st4">
		<path class="st1" d="M519.3,846h6.3c1,0,1.8,0.2,2.5,0.5c0.7,0.3,1.2,0.7,1.5,1.3c0.3,0.5,0.5,1.2,0.5,1.9c0,0.7-0.1,1.2-0.4,1.7
			s-0.6,0.9-1,1.2c-0.4,0.3-0.9,0.5-1.3,0.6v0c0.6,0.1,1.1,0.3,1.6,0.6c0.5,0.3,0.9,0.7,1.2,1.2c0.3,0.5,0.5,1.1,0.5,1.8
			c0,0.9-0.2,1.6-0.6,2.2c-0.4,0.6-1,1.1-1.7,1.4s-1.5,0.5-2.4,0.5h-6.6V846z M521,858.9h4.6c0.6,0,1.1-0.1,1.6-0.3
			c0.4-0.2,0.8-0.5,1-0.9c0.2-0.4,0.4-0.8,0.4-1.3c0-0.8-0.3-1.4-0.8-1.8c-0.5-0.4-1.3-0.7-2.2-0.7h-4.8v-1.7h4.5
			c0.6,0,1.1-0.1,1.5-0.3s0.7-0.5,1-0.8c0.2-0.3,0.3-0.8,0.3-1.2c0-0.7-0.2-1.2-0.7-1.6c-0.5-0.4-1.2-0.6-2-0.6H521l0.2-0.2v11.6
			L521,858.9z"/>
		<path class="st1" d="M535.6,858.9h8.6v1.7h-10.3V846h10.3v1.7h-8.6l0.2-0.2v11.6L535.6,858.9z M542,852.2v1.7h-6.6v-1.7H542z"/>
		<path class="st1" d="M545.4,858.9h0.7c0.5,0,0.9-0.1,1.2-0.2s0.5-0.3,0.7-0.5c0.2-0.2,0.3-0.6,0.4-1c0.1-0.6,0.2-1.2,0.2-1.9
			c0-0.7,0.1-1.6,0.1-2.8c0-0.4,0-0.8,0-1.2l0.1-5.4H559v13h2.2v4.5h-1.7v-2.7h-12.4v2.7h-1.7V858.9z M557.1,858.9v-11.2h-6.5
			l-0.1,4.2c0,1.4-0.1,2.5-0.1,3.4c-0.1,0.9-0.2,1.6-0.3,2.2c-0.1,0.6-0.3,1.1-0.5,1.5H557.1z"/>
		<path class="st1" d="M564,858.9h1.7c0.4,0,0.8,0,1-0.1c0.3-0.1,0.5-0.2,0.6-0.4c0.2-0.2,0.3-0.5,0.5-0.9l0.8-1.8l-0.2,1.4
			l-6.1-11.1h2.2l3.5,6.7c0.3,0.4,0.4,0.8,0.6,1c0.1,0.2,0.3,0.6,0.5,1c0.1-0.2,0.1-0.3,0.2-0.5c0.1-0.2,0.2-0.4,0.3-0.7
			c0.1-0.3,0.2-0.5,0.4-0.8l2.9-6.6h2l-5.4,12.4c-0.3,0.6-0.6,1.1-0.9,1.4c-0.3,0.3-0.7,0.6-1.2,0.7c-0.4,0.1-1,0.2-1.7,0.2H564
			V858.9z"/>
		<path class="st1" d="M577.2,846h1.9v13h6.6v-13h1.9v13h6.6v-13h1.9v14.7h-18.8V846z M596.6,860.7h-1.5l-1-1.7h4.1v4.5h-1.7V860.7z
			"/>
		<path class="st1" d="M601,846h1.9v9.2c0,0.7,0,1.3,0,1.7c0,0.4,0,0.9,0,1.6l8.2-12.4h2.4v14.7h-1.9v-9.2c0-0.7,0-1.3,0-1.7
			c0-0.4,0-0.9,0-1.6l-8.2,12.4H601V846z"/>
		<path class="st1" d="M617.8,846h1.9v9.2c0,0.7,0,1.3,0,1.7c0,0.4,0,0.9,0,1.6l8.2-12.4h2.4v14.7h-1.9v-9.2c0-0.7,0-1.3,0-1.7
			c0-0.4,0-0.9,0-1.6l-8.2,12.4h-2.4V846z M622.1,844.3c-0.5-0.3-0.9-0.6-1.2-1c-0.3-0.4-0.4-0.9-0.4-1.4h1.8c0.1,0.4,0.3,0.8,0.6,1
			c0.3,0.3,0.7,0.4,1.2,0.4c0.5,0,0.9-0.1,1.2-0.4c0.3-0.3,0.5-0.6,0.6-1h1.8c0,0.8-0.4,1.5-0.9,2c-0.6,0.5-1.5,0.8-2.7,0.8
			C623.3,844.7,622.6,844.6,622.1,844.3z"/>
		<path class="st1" d="M519.3,870h1.9v13h7.5v-13h1.9v14.7h-11.3V870z M531.1,884.7h-1.5l-1-1.7h4.1v4.5h-1.7V884.7z"/>
		<path class="st1" d="M535.7,870h6.3c1,0,1.8,0.2,2.5,0.5c0.7,0.3,1.2,0.7,1.5,1.3c0.3,0.5,0.5,1.2,0.5,1.9c0,0.7-0.1,1.2-0.4,1.7
			s-0.6,0.9-1,1.2c-0.4,0.3-0.9,0.5-1.3,0.6v0c0.6,0.1,1.1,0.3,1.6,0.6c0.5,0.3,0.9,0.7,1.2,1.2c0.3,0.5,0.5,1.1,0.5,1.8
			c0,0.9-0.2,1.6-0.6,2.2c-0.4,0.6-1,1.1-1.7,1.4s-1.5,0.5-2.4,0.5h-6.6V870z M537.4,882.9h4.6c0.6,0,1.1-0.1,1.6-0.3
			c0.4-0.2,0.8-0.5,1-0.9c0.2-0.4,0.4-0.8,0.4-1.3c0-0.8-0.3-1.4-0.8-1.8c-0.5-0.4-1.3-0.7-2.2-0.7h-4.8v-1.7h4.5
			c0.6,0,1.1-0.1,1.5-0.3s0.7-0.5,1-0.8c0.2-0.3,0.3-0.8,0.3-1.2c0-0.7-0.2-1.2-0.7-1.6c-0.5-0.4-1.2-0.6-2-0.6h-4.4l0.2-0.2v11.6
			L537.4,882.9z"/>
		<path class="st1" d="M551.9,882.9h8.6v1.7h-10.3V870h10.3v1.7h-8.6l0.2-0.2v11.6L551.9,882.9z M558.4,876.2v1.7h-6.6v-1.7H558.4z"
			/>
		<path class="st1" d="M567.3,871.4l0.3,0.3h-5.6V870h12.6v1.7h-5.6l0.3-0.3v13.3h-1.9V871.4z"/>
	</g>
	<g>
		<path class="st1" d="M1754.3,1049h1.9v9.2c0,0.7,0,1.3,0,1.7s0,0.9,0,1.6l8.2-12.4h2.4v14.7h-1.9v-9.2c0-0.7,0-1.3,0-1.7
			c0-0.4,0-0.9,0-1.6l-8.2,12.4h-2.4V1049z"/>
		<path class="st1" d="M1771.1,1049h1.9v14.7h-1.9V1049z M1772.8,1055.2h8.4v1.7h-8.4V1055.2z M1781,1049h1.9v14.7h-1.9V1049z"/>
		<path class="st1" d="M1789.2,1061.7c-1.1-0.6-1.9-1.4-2.5-2.3c-0.5-0.9-0.8-2-0.8-3.1c0-1.1,0.3-2.1,0.8-3.1s1.4-1.7,2.5-2.3
			c1.1-0.6,2.5-0.9,4.1-1v-1.6h1.9v1.6c1.6,0.1,3,0.4,4.1,1c1.1,0.6,1.9,1.4,2.5,2.3c0.5,0.9,0.8,2,0.8,3.1c0,1.1-0.3,2.1-0.8,3.1
			c-0.5,0.9-1.4,1.7-2.5,2.3c-1.1,0.6-2.5,0.9-4.1,1v1.6h-1.9v-1.6C1791.7,1062.6,1790.3,1062.2,1789.2,1061.7z M1793.3,1053.5
			c0,0,0-0.3,0-0.9c0-0.3,0-0.6,0-0.9c-1.2,0.1-2.2,0.3-3,0.7c-0.8,0.4-1.4,1-1.8,1.7c-0.4,0.7-0.6,1.4-0.6,2.3
			c0,0.8,0.2,1.6,0.6,2.3c0.4,0.7,1,1.2,1.8,1.7c0.8,0.4,1.8,0.7,3,0.7v-6.6C1793.3,1053.8,1793.3,1053.5,1793.3,1053.5z
			 M1795.2,1059.1c0,0,0,0.3,0,0.9c0,0.3,0,0.6,0,0.9c1.2-0.1,2.2-0.3,3-0.7c0.8-0.4,1.4-1,1.8-1.7c0.4-0.7,0.6-1.4,0.6-2.3
			c0-0.8-0.2-1.6-0.6-2.3c-0.4-0.7-1-1.2-1.8-1.7c-0.8-0.4-1.8-0.7-3-0.7v6.6C1795.2,1058.8,1795.2,1059.1,1795.2,1059.1z"/>
		<path class="st1" d="M1808.5,1063c-1.1-0.6-2-1.5-2.6-2.7c-0.6-1.2-1-2.5-1-4c0-1.5,0.3-2.8,1-4c0.6-1.2,1.5-2.1,2.6-2.7
			c1.1-0.6,2.4-1,3.7-1c1.4,0,2.6,0.3,3.7,1c1.1,0.6,2,1.5,2.6,2.7c0.6,1.2,0.9,2.5,0.9,4c0,1.5-0.3,2.8-0.9,4
			c-0.6,1.2-1.5,2.1-2.6,2.7c-1.1,0.6-2.3,1-3.7,1C1810.9,1063.9,1809.6,1063.6,1808.5,1063z M1815,1061.5c0.8-0.5,1.4-1.2,1.8-2.1
			c0.4-0.9,0.7-1.9,0.7-3c0-1.1-0.2-2.1-0.7-3c-0.4-0.9-1.1-1.6-1.8-2.1s-1.7-0.8-2.8-0.8c-1.1,0-2,0.3-2.8,0.8s-1.4,1.2-1.8,2.1
			c-0.4,0.9-0.7,1.9-0.7,3c0,1.1,0.2,2.1,0.6,3c0.4,0.9,1,1.6,1.8,2.1c0.8,0.5,1.7,0.8,2.8,0.8
			C1813.3,1062.2,1814.2,1062,1815,1061.5z"/>
		<path class="st1" d="M1822.7,1049h5.8c1,0,1.9,0.2,2.6,0.6c0.7,0.4,1.3,0.9,1.7,1.6c0.4,0.7,0.6,1.4,0.6,2.3
			c0,0.9-0.2,1.7-0.6,2.3c-0.4,0.7-0.9,1.2-1.7,1.6c-0.7,0.4-1.6,0.6-2.6,0.6h-3.9v5.8h-1.9V1049z M1830,1055.8
			c0.5-0.2,0.8-0.6,1.1-1s0.4-0.9,0.4-1.4c0-0.5-0.1-1-0.3-1.4s-0.6-0.7-1.1-0.9c-0.5-0.2-1.1-0.3-1.8-0.3h-3.6v5.5h3.6
			C1828.9,1056.2,1829.5,1056,1830,1055.8z"/>
		<path class="st1" d="M1836.2,1049h3.1l3.6,8.9c0.3,0.7,0.5,1.3,0.7,1.7c0.2,0.4,0.3,0.7,0.4,1c0.2-0.6,0.4-1,0.5-1.3
			c0.1-0.3,0.3-0.7,0.5-1.3l3.5-8.9h3v14.7h-1.9v-8.2c0-1,0-1.8,0-2.3s0-1.3,0-2.3l-5.1,12.8h-1.4l-5.1-12.8c0,1.1,0,1.8,0,2.3
			s0,1.3,0,2.3v8.2h-1.9V1049z"/>
		<path class="st1" d="M1859.6,1049h2.6l5.5,14.7h-2.1l-3.7-10.2c-0.2-0.7-0.4-1.3-0.6-1.7c-0.2-0.5-0.3-0.9-0.4-1.2
			c-0.2,0.7-0.4,1.1-0.5,1.5s-0.3,0.8-0.5,1.5l-3.7,10.2h-2L1859.6,1049z M1857.6,1057.9h6.6l0.6,1.7h-7.9L1857.6,1057.9z"/>
		<path class="st1" d="M1870.3,1049h1.9v13h7.5v-13h1.9v14.7h-11.3V1049z M1882.1,1063.7h-1.5l-1-1.7h4.1v4.5h-1.7V1063.7z"/>
		<path class="st1" d="M1886.6,1049h1.9v9.2c0,0.7,0,1.3,0,1.7s0,0.9,0,1.6l8.2-12.4h2.4v14.7h-1.9v-9.2c0-0.7,0-1.3,0-1.7
			c0-0.4,0-0.9,0-1.6l-8.2,12.4h-2.4V1049z"/>
		<path class="st1" d="M1906,1063c-1.1-0.6-2-1.5-2.6-2.7s-1-2.5-1-4c0-1.5,0.3-2.8,1-4c0.6-1.2,1.5-2.1,2.6-2.7
			c1.1-0.6,2.4-1,3.7-1c1.4,0,2.6,0.3,3.7,1c1.1,0.6,2,1.5,2.6,2.7c0.6,1.2,0.9,2.5,0.9,4c0,1.5-0.3,2.8-0.9,4
			c-0.6,1.2-1.5,2.1-2.6,2.7c-1.1,0.6-2.3,1-3.7,1C1908.4,1063.9,1907.2,1063.6,1906,1063z M1912.6,1061.5c0.8-0.5,1.4-1.2,1.8-2.1
			c0.4-0.9,0.7-1.9,0.7-3c0-1.1-0.2-2.1-0.7-3s-1-1.6-1.8-2.1c-0.8-0.5-1.7-0.8-2.8-0.8c-1.1,0-2,0.3-2.8,0.8
			c-0.8,0.5-1.4,1.2-1.8,2.1s-0.7,1.9-0.7,3c0,1.1,0.2,2.1,0.6,3c0.4,0.9,1,1.6,1.8,2.1c0.8,0.5,1.7,0.8,2.8,0.8
			C1910.8,1062.2,1911.8,1062,1912.6,1061.5z"/>
		<path class="st1" d="M1920.3,1049h1.9v14.7h-1.9V1049z M1921.9,1055.2h8.4v1.7h-8.4V1055.2z M1930.2,1049h1.9v14.7h-1.9V1049z"/>
		<path class="st1" d="M1936.2,1049h1.9v14.7h-1.9V1049z M1937.8,1055.2h8.4v1.7h-8.4V1055.2z M1946,1049h1.9v14.7h-1.9V1049z"/>
		<path class="st1" d="M1952.1,1049h1.9v5.3h3.4c1.1,0,2,0.2,2.8,0.6s1.4,0.9,1.8,1.6c0.4,0.7,0.6,1.5,0.6,2.4c0,1-0.2,1.8-0.6,2.5
			c-0.4,0.7-1,1.3-1.8,1.7s-1.7,0.6-2.8,0.6h-5.3V1049z M1959.6,1061.1c0.6-0.6,0.9-1.3,0.9-2.2c0-0.6-0.1-1.1-0.4-1.5
			c-0.3-0.4-0.7-0.8-1.2-1c-0.5-0.3-1.2-0.4-2-0.4h-3.1v6h3.1C1958.2,1061.9,1959,1061.6,1959.6,1061.1z M1964.8,1049h1.9v14.7h-1.9
			V1049z"/>
		<path class="st1" d="M1970.8,1049h1.9v9.2c0,0.7,0,1.3,0,1.7s0,0.9,0,1.6l8.2-12.4h2.4v14.7h-1.9v-9.2c0-0.7,0-1.3,0-1.7
			c0-0.4,0-0.9,0-1.6l-8.2,12.4h-2.4V1049z M1975.1,1047.3c-0.5-0.3-0.9-0.6-1.2-1c-0.3-0.4-0.4-0.9-0.4-1.4h1.8
			c0.1,0.4,0.3,0.8,0.6,1.1c0.3,0.3,0.7,0.4,1.2,0.4c0.5,0,0.9-0.1,1.2-0.4c0.3-0.3,0.5-0.6,0.6-1.1h1.8c0,0.8-0.4,1.5-0.9,2
			s-1.5,0.8-2.7,0.8C1976.3,1047.7,1975.6,1047.6,1975.1,1047.3z"/>
		<path class="st1" d="M1754.3,1073h1.9v13h7.5v-13h1.9v14.7h-11.3V1073z M1766.1,1087.7h-1.5l-1-1.7h4.1v4.5h-1.7V1087.7z"/>
		<path class="st1" d="M1770.7,1073h6.3c1,0,1.8,0.2,2.5,0.5c0.7,0.3,1.2,0.7,1.5,1.3c0.3,0.5,0.5,1.2,0.5,1.9
			c0,0.7-0.1,1.2-0.4,1.7c-0.3,0.5-0.6,0.9-1,1.2c-0.4,0.3-0.9,0.5-1.3,0.6v0c0.6,0.1,1.1,0.3,1.6,0.6c0.5,0.3,0.9,0.7,1.2,1.2
			c0.3,0.5,0.5,1.1,0.5,1.8c0,0.9-0.2,1.6-0.6,2.2s-1,1.1-1.7,1.4c-0.7,0.3-1.5,0.5-2.4,0.5h-6.6V1073z M1772.4,1085.9h4.6
			c0.6,0,1.1-0.1,1.6-0.3c0.4-0.2,0.8-0.5,1-0.9c0.2-0.4,0.4-0.8,0.4-1.3c0-0.8-0.3-1.4-0.8-1.8c-0.5-0.4-1.3-0.7-2.2-0.7h-4.8v-1.7
			h4.5c0.6,0,1.1-0.1,1.5-0.3s0.7-0.5,1-0.8c0.2-0.3,0.3-0.8,0.3-1.2c0-0.7-0.2-1.2-0.7-1.6c-0.5-0.4-1.2-0.6-2-0.6h-4.4l0.2-0.2
			v11.6L1772.4,1085.9z"/>
		<path class="st1" d="M1786.9,1085.9h8.6v1.7h-10.3V1073h10.3v1.7h-8.6l0.2-0.2v11.6L1786.9,1085.9z M1793.4,1079.2v1.7h-6.6v-1.7
			H1793.4z"/>
		<path class="st1" d="M1802.3,1074.4l0.3,0.3h-5.6v-1.7h12.6v1.7h-5.6l0.3-0.3v13.3h-1.9V1074.4z"/>
	</g>
</g>
<g>
	<g>
		<g>
			<g>
				<g>
					<g>
						<path class="st0" d="M1016.3,846h6.3c1,0,1.8,0.2,2.5,0.5c0.7,0.3,1.2,0.7,1.5,1.3c0.3,0.5,0.5,1.2,0.5,1.9
							c0,0.7-0.1,1.2-0.4,1.7s-0.6,0.9-1,1.2c-0.4,0.3-0.9,0.5-1.3,0.6v0c0.6,0.1,1.1,0.3,1.6,0.6c0.5,0.3,0.9,0.7,1.2,1.2
							c0.3,0.5,0.5,1.1,0.5,1.8c0,0.9-0.2,1.6-0.6,2.2c-0.4,0.6-1,1.1-1.7,1.4s-1.5,0.5-2.4,0.5h-6.6V846z M1018,858.9h4.6
							c0.6,0,1.1-0.1,1.6-0.3c0.4-0.2,0.8-0.5,1-0.9c0.2-0.4,0.4-0.8,0.4-1.3c0-0.8-0.3-1.4-0.8-1.8c-0.5-0.4-1.3-0.7-2.2-0.7h-4.8
							v-1.7h4.5c0.6,0,1.1-0.1,1.5-0.3s0.7-0.5,1-0.8c0.2-0.3,0.3-0.8,0.3-1.2c0-0.7-0.2-1.2-0.7-1.6c-0.5-0.4-1.2-0.6-2-0.6h-4.4
							l0.2-0.2v11.6L1018,858.9z"/>
						<path class="st0" d="M1032.6,858.9h8.6v1.7h-10.3V846h10.3v1.7h-8.6l0.2-0.2v11.6L1032.6,858.9z M1039,852.2v1.7h-6.6v-1.7
							H1039z"/>
						<path class="st0" d="M1042.4,858.9h0.7c0.5,0,0.9-0.1,1.2-0.2s0.5-0.3,0.7-0.5c0.2-0.2,0.3-0.6,0.4-1c0.1-0.6,0.2-1.2,0.2-1.9
							c0-0.7,0.1-1.6,0.1-2.8c0-0.4,0-0.8,0-1.2l0.1-5.4h10.3v13h2.2v4.5h-1.7v-2.7h-12.4v2.7h-1.7V858.9z M1054.1,858.9v-11.2h-6.5
							l-0.1,4.2c0,1.4-0.1,2.5-0.1,3.4c-0.1,0.9-0.2,1.6-0.3,2.2c-0.1,0.6-0.3,1.1-0.5,1.5H1054.1z"/>
						<path class="st0" d="M1061,858.9h1.7c0.4,0,0.8,0,1-0.1c0.3-0.1,0.5-0.2,0.6-0.4c0.2-0.2,0.3-0.5,0.5-0.9l0.8-1.8l-0.2,1.4
							l-6.1-11.1h2.2l3.5,6.7c0.3,0.4,0.4,0.8,0.6,1c0.1,0.2,0.3,0.6,0.5,1c0.1-0.2,0.1-0.3,0.2-0.5c0.1-0.2,0.2-0.4,0.3-0.7
							c0.1-0.3,0.2-0.5,0.4-0.8l2.9-6.6h2l-5.4,12.4c-0.3,0.6-0.6,1.1-0.9,1.4c-0.3,0.3-0.7,0.6-1.2,0.7c-0.4,0.1-1,0.2-1.7,0.2
							h-1.7V858.9z"/>
						<path class="st0" d="M1074.2,846h1.9v13h6.6v-13h1.9v13h6.6v-13h1.9v14.7h-18.8V846z M1093.6,860.7h-1.5l-1-1.7h4.1v4.5h-1.7
							V860.7z"/>
						<path class="st0" d="M1098,846h1.9v9.2c0,0.7,0,1.3,0,1.7c0,0.4,0,0.9,0,1.6l8.2-12.4h2.4v14.7h-1.9v-9.2c0-0.7,0-1.3,0-1.7
							c0-0.4,0-0.9,0-1.6l-8.2,12.4h-2.4V846z"/>
						<path class="st0" d="M1114.8,846h1.9v9.2c0,0.7,0,1.3,0,1.7c0,0.4,0,0.9,0,1.6l8.2-12.4h2.4v14.7h-1.9v-9.2c0-0.7,0-1.3,0-1.7
							c0-0.4,0-0.9,0-1.6l-8.2,12.4h-2.4V846z M1119.1,844.3c-0.5-0.3-0.9-0.6-1.2-1c-0.3-0.4-0.4-0.9-0.4-1.4h1.8
							c0.1,0.4,0.3,0.8,0.6,1c0.3,0.3,0.7,0.4,1.2,0.4c0.5,0,0.9-0.1,1.2-0.4c0.3-0.3,0.5-0.6,0.6-1h1.8c0,0.8-0.4,1.5-0.9,2
							c-0.6,0.5-1.5,0.8-2.7,0.8C1120.3,844.7,1119.6,844.6,1119.1,844.3z"/>
						<path class="st0" d="M1016.3,870h1.9v13h7.5v-13h1.9v14.7h-11.3V870z M1028.1,884.7h-1.5l-1-1.7h4.1v4.5h-1.7V884.7z"/>
						<path class="st0" d="M1032.7,870h6.3c1,0,1.8,0.2,2.5,0.5c0.7,0.3,1.2,0.7,1.5,1.3c0.3,0.5,0.5,1.2,0.5,1.9
							c0,0.7-0.1,1.2-0.4,1.7s-0.6,0.9-1,1.2c-0.4,0.3-0.9,0.5-1.3,0.6v0c0.6,0.1,1.1,0.3,1.6,0.6c0.5,0.3,0.9,0.7,1.2,1.2
							c0.3,0.5,0.5,1.1,0.5,1.8c0,0.9-0.2,1.6-0.6,2.2c-0.4,0.6-1,1.1-1.7,1.4s-1.5,0.5-2.4,0.5h-6.6V870z M1034.4,882.9h4.6
							c0.6,0,1.1-0.1,1.6-0.3c0.4-0.2,0.8-0.5,1-0.9c0.2-0.4,0.4-0.8,0.4-1.3c0-0.8-0.3-1.4-0.8-1.8c-0.5-0.4-1.3-0.7-2.2-0.7h-4.8
							v-1.7h4.5c0.6,0,1.1-0.1,1.5-0.3s0.7-0.5,1-0.8c0.2-0.3,0.3-0.8,0.3-1.2c0-0.7-0.2-1.2-0.7-1.6c-0.5-0.4-1.2-0.6-2-0.6h-4.4
							l0.2-0.2v11.6L1034.4,882.9z"/>
						<path class="st0" d="M1048.9,882.9h8.6v1.7h-10.3V870h10.3v1.7h-8.6l0.2-0.2v11.6L1048.9,882.9z M1055.4,876.2v1.7h-6.6v-1.7
							H1055.4z"/>
						<path class="st0" d="M1064.3,871.4l0.3,0.3h-5.6V870h12.6v1.7h-5.6l0.3-0.3v13.3h-1.9V871.4z"/>
					</g>
				</g>
				<g>
					<g>
						<path class="st0" d="M2072.3,846h6.3c1,0,1.8,0.2,2.5,0.5c0.7,0.3,1.2,0.7,1.5,1.3c0.3,0.5,0.5,1.2,0.5,1.9
							c0,0.7-0.1,1.2-0.4,1.7s-0.6,0.9-1,1.2c-0.4,0.3-0.9,0.5-1.3,0.6v0c0.6,0.1,1.1,0.3,1.6,0.6c0.5,0.3,0.9,0.7,1.2,1.2
							s0.5,1.1,0.5,1.8c0,0.9-0.2,1.6-0.6,2.2c-0.4,0.6-1,1.1-1.7,1.4s-1.5,0.5-2.4,0.5h-6.6V846z M2074,858.9h4.6
							c0.6,0,1.1-0.1,1.6-0.3c0.4-0.2,0.8-0.5,1-0.9c0.2-0.4,0.4-0.8,0.4-1.3c0-0.8-0.3-1.4-0.8-1.8c-0.5-0.4-1.3-0.7-2.2-0.7h-4.8
							v-1.7h4.5c0.6,0,1.1-0.1,1.5-0.3c0.4-0.2,0.7-0.5,1-0.8c0.2-0.3,0.3-0.8,0.3-1.2c0-0.7-0.2-1.2-0.7-1.6
							c-0.5-0.4-1.2-0.6-2-0.6h-4.4l0.2-0.2v11.6L2074,858.9z"/>
						<path class="st0" d="M2088.6,858.9h8.6v1.7h-10.3V846h10.3v1.7h-8.6l0.2-0.2v11.6L2088.6,858.9z M2095,852.2v1.7h-6.6v-1.7
							H2095z"/>
						<path class="st0" d="M2098.4,858.9h0.7c0.5,0,0.9-0.1,1.2-0.2s0.5-0.3,0.7-0.5c0.2-0.2,0.3-0.6,0.4-1c0.1-0.6,0.2-1.2,0.2-1.9
							c0-0.7,0.1-1.6,0.1-2.8c0-0.4,0-0.8,0-1.2l0.1-5.4h10.3v13h2.2v4.5h-1.7v-2.7h-12.4v2.7h-1.7V858.9z M2110.1,858.9v-11.2h-6.5
							l-0.1,4.2c0,1.4-0.1,2.5-0.1,3.4c-0.1,0.9-0.2,1.6-0.3,2.2c-0.1,0.6-0.3,1.1-0.5,1.5H2110.1z"/>
						<path class="st0" d="M2117,858.9h1.7c0.4,0,0.8,0,1-0.1c0.3-0.1,0.5-0.2,0.6-0.4s0.3-0.5,0.5-0.9l0.8-1.8l-0.2,1.4l-6.1-11.1
							h2.2l3.5,6.7c0.3,0.4,0.4,0.8,0.6,1c0.1,0.2,0.3,0.6,0.5,1c0.1-0.2,0.1-0.3,0.2-0.5c0.1-0.2,0.2-0.4,0.3-0.7
							c0.1-0.3,0.2-0.5,0.4-0.8l2.9-6.6h2l-5.4,12.4c-0.3,0.6-0.6,1.1-0.9,1.4c-0.3,0.3-0.7,0.6-1.2,0.7c-0.4,0.1-1,0.2-1.7,0.2
							h-1.7V858.9z"/>
						<path class="st0" d="M2130.2,846h1.9v13h6.6v-13h1.9v13h6.6v-13h1.9v14.7h-18.8V846z M2149.6,860.7h-1.5l-1-1.7h4.1v4.5h-1.7
							V860.7z"/>
						<path class="st0" d="M2154,846h1.9v9.2c0,0.7,0,1.3,0,1.7c0,0.4,0,0.9,0,1.6l8.2-12.4h2.4v14.7h-1.9v-9.2c0-0.7,0-1.3,0-1.7
							c0-0.4,0-0.9,0-1.6l-8.2,12.4h-2.4V846z"/>
						<path class="st0" d="M2170.8,846h1.9v9.2c0,0.7,0,1.3,0,1.7c0,0.4,0,0.9,0,1.6l8.2-12.4h2.4v14.7h-1.9v-9.2c0-0.7,0-1.3,0-1.7
							c0-0.4,0-0.9,0-1.6l-8.2,12.4h-2.4V846z M2175.1,844.3c-0.5-0.3-0.9-0.6-1.2-1c-0.3-0.4-0.4-0.9-0.4-1.4h1.8
							c0.1,0.4,0.3,0.8,0.6,1c0.3,0.3,0.7,0.4,1.2,0.4c0.5,0,0.9-0.1,1.2-0.4c0.3-0.3,0.5-0.6,0.6-1h1.8c0,0.8-0.4,1.5-0.9,2
							c-0.6,0.5-1.5,0.8-2.7,0.8C2176.3,844.7,2175.6,844.6,2175.1,844.3z"/>
						<path class="st0" d="M2072.3,870h1.9v13h7.5v-13h1.9v14.7h-11.3V870z M2084.1,884.7h-1.5l-1-1.7h4.1v4.5h-1.7V884.7z"/>
						<path class="st0" d="M2088.7,870h6.3c1,0,1.8,0.2,2.5,0.5c0.7,0.3,1.2,0.7,1.5,1.3c0.3,0.5,0.5,1.2,0.5,1.9
							c0,0.7-0.1,1.2-0.4,1.7c-0.3,0.5-0.6,0.9-1,1.2c-0.4,0.3-0.9,0.5-1.3,0.6v0c0.6,0.1,1.1,0.3,1.6,0.6c0.5,0.3,0.9,0.7,1.2,1.2
							s0.5,1.1,0.5,1.8c0,0.9-0.2,1.6-0.6,2.2c-0.4,0.6-1,1.1-1.7,1.4c-0.7,0.3-1.5,0.5-2.4,0.5h-6.6V870z M2090.4,882.9h4.6
							c0.6,0,1.1-0.1,1.6-0.3c0.4-0.2,0.8-0.5,1-0.9c0.2-0.4,0.4-0.8,0.4-1.3c0-0.8-0.3-1.4-0.8-1.8s-1.3-0.7-2.2-0.7h-4.8v-1.7h4.5
							c0.6,0,1.1-0.1,1.5-0.3s0.7-0.5,1-0.8c0.2-0.3,0.3-0.8,0.3-1.2c0-0.7-0.2-1.2-0.7-1.6c-0.5-0.4-1.2-0.6-2-0.6h-4.4l0.2-0.2
							v11.6L2090.4,882.9z"/>
						<path class="st0" d="M2104.9,882.9h8.6v1.7h-10.3V870h10.3v1.7h-8.6l0.2-0.2v11.6L2104.9,882.9z M2111.4,876.2v1.7h-6.6v-1.7
							H2111.4z"/>
						<path class="st0" d="M2120.3,871.4l0.3,0.3h-5.6V870h12.6v1.7h-5.6l0.3-0.3v13.3h-1.9V871.4z"/>
					</g>
				</g>
			</g>
		</g>
		<g>
			<g>
				<path class="st0" d="M2823.1,1049h2.6l5.5,14.7h-2.1l-3.7-10.2c-0.2-0.7-0.4-1.3-0.6-1.7s-0.3-0.9-0.4-1.2
					c-0.2,0.7-0.4,1.1-0.5,1.5s-0.3,0.8-0.5,1.5l-3.7,10.2h-2L2823.1,1049z M2821,1057.9h6.6l0.6,1.7h-7.9L2821,1057.9z"/>
				<path class="st0" d="M2833.7,1049h1.9v7.2c0.5-0.5,0.9-1,1.1-1.2c0.3-0.3,0.6-0.7,1.1-1.2l4.5-4.8h2.5l-6.3,6.5l-0.4,0.5
					l-3.1,3.3l0.6-1.4v5.9h-1.9V1049z M2837.4,1055.9l1.3-1.3l7.3,9h-2.5L2837.4,1055.9z"/>
				<path class="st0" d="M2848,1049h1.9v13h7.5v-13h1.9v14.7H2848V1049z M2859.8,1063.7h-1.5l-1-1.7h4.1v4.5h-1.7V1063.7z"/>
				<path class="st0" d="M2866,1061.9h8.6v1.7h-10.3V1049h10.3v1.7h-8.6l0.2-0.2v11.6L2866,1061.9z M2872.5,1055.2v1.7h-6.6v-1.7
					H2872.5z"/>
				<path class="st0" d="M2877.7,1049h1.9v14.7h-1.9V1049z M2879.4,1055.2h8.4v1.7h-8.4V1055.2z M2887.6,1049h1.9v14.7h-1.9V1049z"
					/>
				<path class="st0" d="M2897.3,1050.4l0.3,0.3h-5.6v-1.7h12.6v1.7h-5.6l0.3-0.3v13.3h-1.9V1050.4z"/>
				<path class="st0" d="M2907,1049h1.9v14.7h-1.9V1049z M2908.6,1055.2h8.4v1.7h-8.4V1055.2z M2916.8,1049h1.9v14.7h-1.9V1049z"/>
				<path class="st0" d="M2922.8,1049h1.9v5.3h3.4c1.1,0,2,0.2,2.8,0.6c0.8,0.4,1.4,0.9,1.8,1.6s0.6,1.5,0.6,2.4
					c0,1-0.2,1.8-0.6,2.5s-1,1.3-1.8,1.7c-0.8,0.4-1.7,0.6-2.8,0.6h-5.3V1049z M2930.4,1061.1c0.6-0.6,0.9-1.3,0.9-2.2
					c0-0.6-0.1-1.1-0.4-1.5s-0.7-0.8-1.2-1s-1.2-0.4-2-0.4h-3.1v6h3.1C2929,1061.9,2929.8,1061.6,2930.4,1061.1z M2935.6,1049h1.9
					v14.7h-1.9V1049z"/>
				<path class="st0" d="M2941.6,1049h1.9v9.2c0,0.7,0,1.3,0,1.7s0,0.9,0,1.6l8.2-12.4h2.4v14.7h-1.9v-9.2c0-0.7,0-1.3,0-1.7
					c0-0.4,0-0.9,0-1.6l-8.2,12.4h-2.4V1049z M2945.9,1047.3c-0.5-0.3-0.9-0.6-1.2-1c-0.3-0.4-0.4-0.9-0.4-1.4h1.8
					c0.1,0.4,0.3,0.8,0.6,1.1s0.7,0.4,1.2,0.4c0.5,0,0.9-0.1,1.2-0.4s0.5-0.6,0.6-1.1h1.8c0,0.8-0.4,1.5-0.9,2s-1.5,0.8-2.7,0.8
					C2947.1,1047.7,2946.4,1047.6,2945.9,1047.3z"/>
				<path class="st0" d="M2819.3,1073h1.9v13h7.5v-13h1.9v14.7h-11.3V1073z M2831.1,1087.7h-1.5l-1-1.7h4.1v4.5h-1.7V1087.7z"/>
				<path class="st0" d="M2835.7,1073h6.3c1,0,1.8,0.2,2.5,0.5c0.7,0.3,1.2,0.7,1.5,1.3c0.3,0.5,0.5,1.2,0.5,1.9
					c0,0.7-0.1,1.2-0.4,1.7c-0.3,0.5-0.6,0.9-1,1.2c-0.4,0.3-0.9,0.5-1.3,0.6v0c0.6,0.1,1.1,0.3,1.6,0.6c0.5,0.3,0.9,0.7,1.2,1.2
					c0.3,0.5,0.5,1.1,0.5,1.8c0,0.9-0.2,1.6-0.6,2.2s-1,1.1-1.7,1.4c-0.7,0.3-1.5,0.5-2.4,0.5h-6.6V1073z M2837.4,1085.9h4.6
					c0.6,0,1.1-0.1,1.6-0.3c0.4-0.2,0.8-0.5,1-0.9c0.2-0.4,0.4-0.8,0.4-1.3c0-0.8-0.3-1.4-0.8-1.8c-0.5-0.4-1.3-0.7-2.2-0.7h-4.8
					v-1.7h4.5c0.6,0,1.1-0.1,1.5-0.3s0.7-0.5,1-0.8c0.2-0.3,0.3-0.8,0.3-1.2c0-0.7-0.2-1.2-0.7-1.6c-0.5-0.4-1.2-0.6-2-0.6h-4.4
					l0.2-0.2v11.6L2837.4,1085.9z"/>
				<path class="st0" d="M2851.9,1085.9h8.6v1.7h-10.3V1073h10.3v1.7h-8.6l0.2-0.2v11.6L2851.9,1085.9z M2858.4,1079.2v1.7h-6.6
					v-1.7H2858.4z"/>
				<path class="st0" d="M2867.3,1074.4l0.3,0.3h-5.6v-1.7h12.6v1.7h-5.6l0.3-0.3v13.3h-1.9V1074.4z"/>
			</g>
		</g>
	</g>
</g>
<g>
	<g>
		<g>
			<g>
				<path class="st0" d="M1019,931.4h4.4v34.3h-4.4V931.4z"/>
				<path class="st0" d="M1032.4,931.4h6.8l18.5,29.1l1.7-1.2c-0.6-0.9-1-1.7-1.3-2.5c-0.3-0.8-0.5-1.6-0.6-2.5
					c-0.1-0.9-0.2-2.1-0.2-3.5v-19.4h4.4v34.3h-5.6l-19.5-30.6l-1.7,1.1c0.7,1.3,1.2,2.7,1.5,4.1s0.4,3.1,0.4,5.2v20.2h-4.4V931.4z"
					/>
				<path class="st0" d="M1070.7,931.4h7.4l8.1,20.7c0.6,1.4,0.9,2.8,1.2,4c0.2,1.2,0.3,2.7,0.4,4.5h2c0-1.8,0.1-3.3,0.3-4.5
					c0.2-1.2,0.6-2.6,1.2-4l7.9-20.7h7.3v34.3h-4.4v-19.1c0-2.3,0.2-4.3,0.6-6.2c0.4-1.8,0.9-3.6,1.6-5.2l-2-0.7l-12.1,31.2h-3.2
					l-12.3-31.2l-2,0.7c0.7,1.6,1.2,3.3,1.6,5.1c0.4,1.8,0.6,3.9,0.6,6.2v19.1h-4.4V931.4z"/>
				<path class="st0" d="M1114.3,945.9h13.5v4.3h-13.5V945.9z"/>
				<path class="st0" d="M1135.7,931.4h4.4v30.8l-0.6-0.6h19.2v4.2h-22.9V931.4z"/>
				<path class="st0" d="M1168.3,964.1c-2.4-1.5-4.2-3.6-5.5-6.3c-1.3-2.7-1.9-5.8-1.9-9.4c0-3.4,0.8-6.5,2.3-9.2
					c1.5-2.7,3.6-4.8,6.2-6.3c2.6-1.5,5.5-2.3,8.6-2.3c2.8,0,5.3,0.5,7.4,1.5c2.1,1,3.8,2.3,5.1,3.8c1.3,1.5,2.3,3.2,2.8,5l-4.5,1.8
					c-0.6-1.5-1.3-2.9-2.2-4.1c-0.9-1.2-2.1-2.2-3.6-2.8c-1.5-0.7-3.2-1-5.1-1c-2.2,0-4.3,0.5-6.1,1.6c-1.9,1.1-3.4,2.6-4.5,4.7
					c-1.1,2.1-1.7,4.5-1.7,7.4c0,2.8,0.5,5.3,1.5,7.4c1,2.1,2.4,3.7,4.2,4.8c1.8,1.1,3.9,1.7,6.3,1.7c2.2,0,4.1-0.4,5.7-1.3
					c1.6-0.9,2.9-2,3.8-3.5c0.9-1.4,1.4-3,1.5-4.6h-12.1v-4.1h16.6v16.8h-4.3c0-1.4,0.2-2.7,0.5-3.9c0.3-1.2,0.8-2.4,1.3-3.5h-2.2
					c-0.8,2.1-2.1,3.9-3.9,5.6c-1.9,1.7-4.6,2.5-8.1,2.5C1173.3,966.3,1170.6,965.6,1168.3,964.1z"/>
				<path class="st0" d="M1199.3,945.9h13.5v4.3h-13.5V945.9z"/>
				<path class="st0" d="M1226.3,939.3c0.1-0.8,0.4-1.6,0.7-2.5h-2.1c-0.4,1.2-1,2.3-1.8,3.3c-0.8,1-1.7,1.8-2.7,2.4
					c-1,0.6-2.2,1.1-3.5,1.2v-4.6c2.1-0.5,4.1-1.4,5.8-2.8c1.8-1.3,3.2-3,4.3-5h3.5v34.3h-4.4v-23.5
					C1226.1,941,1226.1,940,1226.3,939.3z"/>
				<path class="st0" d="M1244.3,964.3c-2.1-1.4-3.7-3.4-4.8-6.1c-1.2-2.7-1.7-6-1.7-9.8c0-3.8,0.6-7,1.8-9.6c1.2-2.7,2.9-4.7,4.9-6
					c2.1-1.4,4.4-2,6.9-2s4.9,0.7,6.9,2c2.1,1.4,3.7,3.4,4.9,6c1.2,2.7,1.8,5.9,1.8,9.6c0,3.8-0.6,7.1-1.7,9.8
					c-1.1,2.7-2.7,4.8-4.8,6.1c-2,1.4-4.4,2.1-7.1,2.1C1248.7,966.3,1246.4,965.6,1244.3,964.3z M1256.3,960.7
					c1.4-1.1,2.4-2.7,3.1-4.8c0.7-2.1,1.1-4.6,1.1-7.6c0-2.7-0.4-5.2-1.1-7.2c-0.7-2.1-1.8-3.7-3.1-4.8c-1.4-1.1-2.9-1.7-4.8-1.7
					c-1.8,0-3.4,0.6-4.8,1.7c-1.4,1.1-2.4,2.7-3.2,4.8c-0.7,2.1-1.1,4.5-1.1,7.3c0,2.9,0.4,5.5,1.1,7.6c0.7,2.1,1.8,3.7,3.1,4.8
					c1.4,1.1,3,1.6,4.9,1.6C1253.3,962.4,1254.9,961.8,1256.3,960.7z"/>
				<path class="st0" d="M1276.9,964.3c-2.1-1.4-3.7-3.4-4.8-6.1c-1.2-2.7-1.7-6-1.7-9.8c0-3.8,0.6-7,1.8-9.6c1.2-2.7,2.9-4.7,4.9-6
					c2.1-1.4,4.4-2,6.9-2s4.9,0.7,6.9,2c2.1,1.4,3.7,3.4,4.9,6c1.2,2.7,1.8,5.9,1.8,9.6c0,3.8-0.6,7.1-1.7,9.8
					c-1.1,2.7-2.7,4.8-4.8,6.1c-2,1.4-4.4,2.1-7.1,2.1C1281.3,966.3,1279,965.6,1276.9,964.3z M1288.9,960.7
					c1.4-1.1,2.4-2.7,3.1-4.8c0.7-2.1,1.1-4.6,1.1-7.6c0-2.7-0.4-5.2-1.1-7.2c-0.7-2.1-1.8-3.7-3.1-4.8c-1.4-1.1-2.9-1.7-4.8-1.7
					c-1.8,0-3.4,0.6-4.8,1.7c-1.4,1.1-2.4,2.7-3.2,4.8c-0.7,2.1-1.1,4.5-1.1,7.3c0,2.9,0.4,5.5,1.1,7.6c0.7,2.1,1.8,3.7,3.1,4.8
					c1.4,1.1,3,1.6,4.9,1.6C1285.9,962.4,1287.5,961.8,1288.9,960.7z"/>
			</g>
		</g>
		<g>
			<g>
				<path class="st0" d="M2075,931.4h4.4v34.3h-4.4V931.4z"/>
				<path class="st0" d="M2088.4,931.4h6.8l18.5,29.1l1.7-1.2c-0.6-0.9-1-1.7-1.3-2.5c-0.3-0.8-0.5-1.6-0.6-2.5
					c-0.1-0.9-0.2-2.1-0.2-3.5v-19.4h4.4v34.3h-5.6l-19.5-30.6l-1.7,1.1c0.7,1.3,1.2,2.7,1.5,4.1s0.4,3.1,0.4,5.2v20.2h-4.4V931.4z"
					/>
				<path class="st0" d="M2126.7,931.4h7.4l8.1,20.7c0.6,1.4,0.9,2.8,1.2,4c0.2,1.2,0.3,2.7,0.4,4.5h2c0-1.8,0.1-3.3,0.3-4.5
					c0.2-1.2,0.6-2.6,1.2-4l7.9-20.7h7.3v34.3h-4.4v-19.1c0-2.3,0.2-4.3,0.6-6.2c0.4-1.8,0.9-3.6,1.6-5.2l-2-0.7l-12.1,31.2h-3.2
					l-12.3-31.2l-2,0.7c0.7,1.6,1.2,3.3,1.6,5.1c0.4,1.8,0.6,3.9,0.6,6.2v19.1h-4.4V931.4z"/>
				<path class="st0" d="M2170.3,945.9h13.5v4.3h-13.5V945.9z"/>
				<path class="st0" d="M2187.7,931.4h4.7l4.6,20.1c0.4,1.6,0.6,3.2,0.7,4.8c0.1,1.6,0.2,3.4,0.3,5.3h2c0.1-1.6,0.2-3.1,0.4-4.6
					c0.2-1.5,0.6-3.2,1.1-4.9l5.9-20.7h5.3l6,22.3c0.4,1.2,0.6,2.5,0.8,3.8c0.2,1.3,0.3,2.7,0.3,4.1h2c0-1.8,0.1-3.6,0.3-5.3
					s0.4-3.4,0.8-5l4.9-20h4.6l-8.8,34.3h-5.7l-5.9-21.4c-0.4-1.5-0.7-3-0.8-4.3c-0.1-1.3-0.2-2.9-0.2-4.7h-2c0,1.8-0.1,3.4-0.2,4.8
					c-0.1,1.4-0.4,2.8-0.8,4.2l-6.2,21.4h-5.8L2187.7,931.4z"/>
				<path class="st0" d="M2236,945.9h13.5v4.3H2236V945.9z"/>
				<path class="st0" d="M2263,939.3c0.1-0.8,0.4-1.6,0.7-2.5h-2.1c-0.4,1.2-1,2.3-1.8,3.3c-0.8,1-1.7,1.8-2.7,2.4
					c-1,0.6-2.2,1.1-3.5,1.2v-4.6c2.1-0.5,4.1-1.4,5.8-2.8c1.8-1.3,3.2-3,4.3-5h3.5v34.3h-4.4v-23.5
					C2262.8,941,2262.9,940,2263,939.3z"/>
				<path class="st0" d="M2281.1,964.3c-2.1-1.4-3.7-3.4-4.8-6.1s-1.7-6-1.7-9.8c0-3.8,0.6-7,1.8-9.6c1.2-2.7,2.9-4.7,4.9-6
					c2.1-1.4,4.4-2,6.9-2c2.5,0,4.9,0.7,6.9,2c2.1,1.4,3.7,3.4,4.9,6c1.2,2.7,1.8,5.9,1.8,9.6c0,3.8-0.6,7.1-1.7,9.8
					c-1.1,2.7-2.7,4.8-4.8,6.1c-2,1.4-4.4,2.1-7.1,2.1S2283.1,965.6,2281.1,964.3z M2293.1,960.7c1.4-1.1,2.4-2.7,3.1-4.8
					c0.7-2.1,1.1-4.6,1.1-7.6c0-2.7-0.4-5.2-1.1-7.2c-0.7-2.1-1.8-3.7-3.1-4.8s-2.9-1.7-4.8-1.7s-3.4,0.6-4.8,1.7
					c-1.4,1.1-2.4,2.7-3.2,4.8c-0.7,2.1-1.1,4.5-1.1,7.3c0,2.9,0.4,5.5,1.1,7.6c0.7,2.1,1.8,3.7,3.1,4.8c1.4,1.1,3,1.6,4.9,1.6
					C2290.1,962.4,2291.7,961.8,2293.1,960.7z"/>
				<path class="st0" d="M2313.7,964.3c-2.1-1.4-3.7-3.4-4.8-6.1s-1.7-6-1.7-9.8c0-3.8,0.6-7,1.8-9.6c1.2-2.7,2.9-4.7,4.9-6
					c2.1-1.4,4.4-2,6.9-2c2.5,0,4.9,0.7,6.9,2c2.1,1.4,3.7,3.4,4.9,6c1.2,2.7,1.8,5.9,1.8,9.6c0,3.8-0.6,7.1-1.7,9.8
					c-1.1,2.7-2.7,4.8-4.8,6.1c-2,1.4-4.4,2.1-7.1,2.1S2315.7,965.6,2313.7,964.3z M2325.6,960.7c1.4-1.1,2.4-2.7,3.1-4.8
					c0.7-2.1,1.1-4.6,1.1-7.6c0-2.7-0.4-5.2-1.1-7.2c-0.7-2.1-1.8-3.7-3.1-4.8s-2.9-1.7-4.8-1.7s-3.4,0.6-4.8,1.7
					c-1.4,1.1-2.4,2.7-3.2,4.8c-0.7,2.1-1.1,4.5-1.1,7.3c0,2.9,0.4,5.5,1.1,7.6c0.7,2.1,1.8,3.7,3.1,4.8c1.4,1.1,3,1.6,4.9,1.6
					C2322.7,962.4,2324.3,961.8,2325.6,960.7z"/>
			</g>
		</g>
		<g>
			<g>
				<path class="st0" d="M522,1628.4h4.4v34.3H522V1628.4z"/>
				<path class="st0" d="M535.4,1628.4h6.8l18.5,29.1l1.7-1.2c-0.6-0.9-1-1.7-1.3-2.5c-0.3-0.8-0.5-1.6-0.6-2.5
					c-0.1-0.9-0.2-2.1-0.2-3.5v-19.4h4.4v34.3H559l-19.5-30.6l-1.7,1.1c0.7,1.3,1.2,2.7,1.5,4.1c0.3,1.4,0.4,3.1,0.4,5.2v20.2h-4.4
					V1628.4z"/>
				<path class="st0" d="M573.7,1628.4h7.4l8.1,20.7c0.6,1.4,0.9,2.8,1.2,4c0.2,1.2,0.3,2.7,0.4,4.5h2c0-1.8,0.1-3.3,0.3-4.5
					c0.2-1.2,0.6-2.6,1.2-4l7.9-20.7h7.3v34.3h-4.4v-19.1c0-2.3,0.2-4.3,0.6-6.2c0.4-1.8,0.9-3.6,1.6-5.2l-2-0.7l-12.1,31.2h-3.2
					l-12.3-31.2l-2,0.7c0.7,1.6,1.2,3.3,1.6,5.1c0.4,1.8,0.6,3.9,0.6,6.2v19.1h-4.4V1628.4z"/>
				<path class="st0" d="M617.3,1642.9h13.5v4.3h-13.5V1642.9z"/>
				<path class="st0" d="M638.7,1628.4h11.5c3.3,0,6.2,0.7,8.7,2.1c2.5,1.4,4.5,3.4,5.9,6c1.4,2.6,2.1,5.6,2.1,9
					c0,3.6-0.7,6.6-2,9.2c-1.4,2.6-3.3,4.6-5.8,6c-2.5,1.4-5.5,2.1-8.9,2.1h-11.3V1628.4z M642.6,1658.6h6.7c2.9,0,5.3-0.5,7.2-1.5
					c1.9-1,3.3-2.5,4.3-4.4c0.9-1.9,1.4-4.4,1.4-7.2c0-2.6-0.5-4.9-1.4-6.9c-0.9-1.9-2.4-3.4-4.2-4.5c-1.9-1.1-4.2-1.6-6.9-1.6h-7
					l0.4-0.4v27L642.6,1658.6z"/>
				<path class="st0" d="M679.2,1661.1c-2.4-1.5-4.2-3.6-5.5-6.3c-1.3-2.7-1.9-5.8-1.9-9.4c0-3.4,0.8-6.5,2.3-9.2
					c1.5-2.7,3.6-4.8,6.2-6.3c2.6-1.5,5.5-2.3,8.6-2.3c2.8,0,5.3,0.5,7.4,1.5s3.8,2.3,5.1,3.8c1.3,1.5,2.3,3.2,2.8,5l-4.5,1.8
					c-0.6-1.5-1.3-2.9-2.2-4.1c-0.9-1.2-2.1-2.2-3.6-2.8c-1.5-0.7-3.2-1-5.1-1c-2.2,0-4.3,0.5-6.1,1.6c-1.9,1.1-3.4,2.6-4.5,4.7
					c-1.1,2.1-1.7,4.5-1.7,7.4c0,2.8,0.5,5.3,1.5,7.4c1,2.1,2.4,3.7,4.2,4.8c1.8,1.1,3.9,1.7,6.3,1.7c2.2,0,4.1-0.4,5.7-1.3
					c1.6-0.9,2.9-2,3.8-3.5c0.9-1.4,1.4-3,1.5-4.6h-12.1v-4.1h16.6v16.8h-4.3c0-1.4,0.2-2.7,0.5-3.9c0.3-1.2,0.8-2.4,1.3-3.5h-2.2
					c-0.8,2.1-2.1,3.9-3.9,5.6c-1.9,1.7-4.6,2.5-8.1,2.5C684.3,1663.3,681.6,1662.6,679.2,1661.1z"/>
				<path class="st0" d="M710.2,1642.9h13.5v4.3h-13.5V1642.9z"/>
				<path class="st0" d="M737.2,1636.3c0.1-0.8,0.4-1.6,0.7-2.5h-2.1c-0.4,1.2-1,2.3-1.8,3.3c-0.8,1-1.7,1.8-2.7,2.4
					c-1,0.6-2.2,1.1-3.5,1.2v-4.6c2.1-0.5,4.1-1.4,5.8-2.8c1.8-1.3,3.2-3,4.3-5h3.5v34.3H737v-23.5
					C737,1638,737.1,1637,737.2,1636.3z"/>
				<path class="st0" d="M755.2,1661.3c-2.1-1.4-3.7-3.4-4.8-6.1c-1.2-2.7-1.7-6-1.7-9.8c0-3.8,0.6-7,1.8-9.6c1.2-2.7,2.9-4.7,4.9-6
					c2.1-1.4,4.4-2,6.9-2s4.9,0.7,6.9,2c2.1,1.4,3.7,3.4,4.9,6c1.2,2.7,1.8,5.9,1.8,9.6c0,3.8-0.6,7.1-1.7,9.8
					c-1.1,2.7-2.7,4.8-4.8,6.1c-2,1.4-4.4,2.1-7.1,2.1C759.7,1663.3,757.3,1662.6,755.2,1661.3z M767.2,1657.7
					c1.4-1.1,2.4-2.7,3.1-4.8c0.7-2.1,1.1-4.6,1.1-7.6c0-2.7-0.4-5.2-1.1-7.2c-0.7-2.1-1.8-3.7-3.1-4.8c-1.4-1.1-2.9-1.7-4.8-1.7
					c-1.8,0-3.4,0.6-4.8,1.7c-1.4,1.1-2.4,2.7-3.2,4.8c-0.7,2.1-1.1,4.5-1.1,7.3c0,2.9,0.4,5.5,1.1,7.6c0.7,2.1,1.8,3.7,3.1,4.8
					c1.4,1.1,3,1.6,4.9,1.6C764.3,1659.4,765.9,1658.8,767.2,1657.7z"/>
			</g>
		</g>
		<g>
			<g>
				<path class="st0" d="M522,1769.4h4.4v34.3H522V1769.4z"/>
				<path class="st0" d="M535.4,1769.4h6.8l18.5,29.1l1.7-1.2c-0.6-0.9-1-1.7-1.3-2.5c-0.3-0.8-0.5-1.6-0.6-2.5
					c-0.1-0.9-0.2-2.1-0.2-3.5v-19.4h4.4v34.3H559l-19.5-30.6l-1.7,1.1c0.7,1.3,1.2,2.7,1.5,4.1c0.3,1.4,0.4,3.1,0.4,5.2v20.2h-4.4
					V1769.4z"/>
				<path class="st0" d="M573.7,1769.4h7.4l8.1,20.7c0.6,1.4,0.9,2.8,1.2,4c0.2,1.2,0.3,2.7,0.4,4.5h2c0-1.8,0.1-3.3,0.3-4.5
					c0.2-1.2,0.6-2.6,1.2-4l7.9-20.7h7.3v34.3h-4.4v-19.1c0-2.3,0.2-4.3,0.6-6.2c0.4-1.8,0.9-3.6,1.6-5.2l-2-0.7l-12.1,31.2h-3.2
					l-12.3-31.2l-2,0.7c0.7,1.6,1.2,3.3,1.6,5.1c0.4,1.8,0.6,3.9,0.6,6.2v19.1h-4.4V1769.4z"/>
				<path class="st0" d="M617.3,1783.9h13.5v4.3h-13.5V1783.9z"/>
				<path class="st0" d="M638.7,1769.4h11.5c3.3,0,6.2,0.7,8.7,2.1c2.5,1.4,4.5,3.4,5.9,6c1.4,2.6,2.1,5.6,2.1,9
					c0,3.6-0.7,6.6-2,9.2c-1.4,2.6-3.3,4.6-5.8,6c-2.5,1.4-5.5,2.1-8.9,2.1h-11.3V1769.4z M642.6,1799.6h6.7c2.9,0,5.3-0.5,7.2-1.5
					c1.9-1,3.3-2.5,4.3-4.4c0.9-1.9,1.4-4.4,1.4-7.2c0-2.6-0.5-4.9-1.4-6.9c-0.9-1.9-2.4-3.4-4.2-4.5c-1.9-1.1-4.2-1.6-6.9-1.6h-7
					l0.4-0.4v27L642.6,1799.6z"/>
				<path class="st0" d="M679.2,1802.1c-2.4-1.5-4.2-3.6-5.5-6.3c-1.3-2.7-1.9-5.8-1.9-9.4c0-3.4,0.8-6.5,2.3-9.2
					c1.5-2.7,3.6-4.8,6.2-6.3c2.6-1.5,5.5-2.3,8.6-2.3c2.8,0,5.3,0.5,7.4,1.5s3.8,2.3,5.1,3.8c1.3,1.5,2.3,3.2,2.8,5l-4.5,1.8
					c-0.6-1.5-1.3-2.9-2.2-4.1c-0.9-1.2-2.1-2.2-3.6-2.8c-1.5-0.7-3.2-1-5.1-1c-2.2,0-4.3,0.5-6.1,1.6c-1.9,1.1-3.4,2.6-4.5,4.7
					c-1.1,2.1-1.7,4.5-1.7,7.4c0,2.8,0.5,5.3,1.5,7.4c1,2.1,2.4,3.7,4.2,4.8c1.8,1.1,3.9,1.7,6.3,1.7c2.2,0,4.1-0.4,5.7-1.3
					c1.6-0.9,2.9-2,3.8-3.5c0.9-1.4,1.4-3,1.5-4.6h-12.1v-4.1h16.6v16.8h-4.3c0-1.4,0.2-2.7,0.5-3.9c0.3-1.2,0.8-2.4,1.3-3.5h-2.2
					c-0.8,2.1-2.1,3.9-3.9,5.6c-1.9,1.7-4.6,2.5-8.1,2.5C684.3,1804.3,681.6,1803.6,679.2,1802.1z"/>
				<path class="st0" d="M710.2,1783.9h13.5v4.3h-13.5V1783.9z"/>
				<path class="st0" d="M733.3,1801.9c-2.1-1.6-3.5-3.7-4-6.2l4.5-1.5c0.4,2,1.3,3.5,2.7,4.6c1.4,1.1,3,1.6,5,1.6
					c1.5,0,2.8-0.3,3.9-0.9c1.1-0.6,1.9-1.5,2.5-2.6c0.6-1.1,0.9-2.4,0.9-3.9c0-1.5-0.3-2.8-0.9-3.9c-0.6-1.1-1.5-2-2.6-2.6
					c-1.1-0.6-2.4-0.9-3.9-0.9c-1.6,0-2.9,0.4-4.1,1.1c-1.2,0.8-2.1,1.7-2.8,2.7l-4.5-0.7l2.8-19.4h19.5v4.1h-16.2l-0.9,5.9
					c-0.3,2-0.7,3.5-1.1,4.5c-0.4,1-0.9,2-1.5,2.8h2.4c0.7-1.3,1.7-2.5,2.9-3.3c1.2-0.9,2.8-1.3,4.8-1.3c2.1,0,4,0.5,5.6,1.3
					c1.6,0.9,2.9,2.2,3.7,3.8c0.9,1.6,1.3,3.6,1.3,5.8c0,2.3-0.5,4.2-1.4,6c-1,1.7-2.3,3.1-4.1,4c-1.8,1-3.8,1.4-6.1,1.4
					C738.3,1804.3,735.5,1803.5,733.3,1801.9z"/>
			</g>
		</g>
		<g>
			<g>
				<path class="st0" d="M522,1911.4h4.4v34.3H522V1911.4z"/>
				<path class="st0" d="M535.4,1911.4h6.8l18.5,29.1l1.7-1.2c-0.6-0.9-1-1.7-1.3-2.5c-0.3-0.8-0.5-1.6-0.6-2.5
					c-0.1-0.9-0.2-2.1-0.2-3.5v-19.4h4.4v34.3H559l-19.5-30.6l-1.7,1.1c0.7,1.3,1.2,2.7,1.5,4.1c0.3,1.4,0.4,3.1,0.4,5.2v20.2h-4.4
					V1911.4z"/>
				<path class="st0" d="M573.7,1911.4h7.4l8.1,20.7c0.6,1.4,0.9,2.8,1.2,4c0.2,1.2,0.3,2.7,0.4,4.5h2c0-1.8,0.1-3.3,0.3-4.5
					c0.2-1.2,0.6-2.6,1.2-4l7.9-20.7h7.3v34.3h-4.4v-19.1c0-2.3,0.2-4.3,0.6-6.2c0.4-1.8,0.9-3.6,1.6-5.2l-2-0.7l-12.1,31.2h-3.2
					l-12.3-31.2l-2,0.7c0.7,1.6,1.2,3.3,1.6,5.1c0.4,1.8,0.6,3.9,0.6,6.2v19.1h-4.4V1911.4z"/>
				<path class="st0" d="M617.3,1925.9h13.5v4.3h-13.5V1925.9z"/>
				<path class="st0" d="M638.7,1911.4h11.5c3.3,0,6.2,0.7,8.7,2.1c2.5,1.4,4.5,3.4,5.9,6c1.4,2.6,2.1,5.6,2.1,9
					c0,3.6-0.7,6.6-2,9.2c-1.4,2.6-3.3,4.6-5.8,6c-2.5,1.4-5.5,2.1-8.9,2.1h-11.3V1911.4z M642.6,1941.6h6.7c2.9,0,5.3-0.5,7.2-1.5
					c1.9-1,3.3-2.5,4.3-4.4c0.9-1.9,1.4-4.4,1.4-7.2c0-2.6-0.5-4.9-1.4-6.9c-0.9-1.9-2.4-3.4-4.2-4.5c-1.9-1.1-4.2-1.6-6.9-1.6h-7
					l0.4-0.4v27L642.6,1941.6z"/>
				<path class="st0" d="M679.2,1944.1c-2.4-1.5-4.2-3.6-5.5-6.3c-1.3-2.7-1.9-5.8-1.9-9.4c0-3.4,0.8-6.5,2.3-9.2
					c1.5-2.7,3.6-4.8,6.2-6.3c2.6-1.5,5.5-2.3,8.6-2.3c2.8,0,5.3,0.5,7.4,1.5s3.8,2.3,5.1,3.8c1.3,1.5,2.3,3.2,2.8,5l-4.5,1.8
					c-0.6-1.5-1.3-2.9-2.2-4.1c-0.9-1.2-2.1-2.2-3.6-2.8c-1.5-0.7-3.2-1-5.1-1c-2.2,0-4.3,0.5-6.1,1.6c-1.9,1.1-3.4,2.6-4.5,4.7
					c-1.1,2.1-1.7,4.5-1.7,7.4c0,2.8,0.5,5.3,1.5,7.4c1,2.1,2.4,3.7,4.2,4.8c1.8,1.1,3.9,1.7,6.3,1.7c2.2,0,4.1-0.4,5.7-1.3
					c1.6-0.9,2.9-2,3.8-3.5c0.9-1.4,1.4-3,1.5-4.6h-12.1v-4.1h16.6v16.8h-4.3c0-1.4,0.2-2.7,0.5-3.9c0.3-1.2,0.8-2.4,1.3-3.5h-2.2
					c-0.8,2.1-2.1,3.9-3.9,5.6c-1.9,1.7-4.6,2.5-8.1,2.5C684.3,1946.3,681.6,1945.6,679.2,1944.1z"/>
				<path class="st0" d="M710.2,1925.9h13.5v4.3h-13.5V1925.9z"/>
				<path class="st0" d="M737.1,1944.3c-2.1-1.4-3.7-3.4-4.8-6.1c-1.2-2.7-1.7-6-1.7-9.8c0-3.8,0.6-7,1.8-9.6c1.2-2.7,2.9-4.7,4.9-6
					c2.1-1.4,4.4-2,6.9-2s4.9,0.7,6.9,2c2.1,1.4,3.7,3.4,4.9,6c1.2,2.7,1.8,5.9,1.8,9.6c0,3.8-0.6,7.1-1.7,9.8
					c-1.1,2.7-2.7,4.8-4.8,6.1c-2,1.4-4.4,2.1-7.1,2.1C741.6,1946.3,739.2,1945.6,737.1,1944.3z M749.1,1940.7
					c1.4-1.1,2.4-2.7,3.1-4.8c0.7-2.1,1.1-4.6,1.1-7.6c0-2.7-0.4-5.2-1.1-7.2c-0.7-2.1-1.8-3.7-3.1-4.8c-1.4-1.1-2.9-1.7-4.8-1.7
					c-1.8,0-3.4,0.6-4.8,1.7c-1.4,1.1-2.4,2.7-3.2,4.8c-0.7,2.1-1.1,4.5-1.1,7.3c0,2.9,0.4,5.5,1.1,7.6c0.7,2.1,1.8,3.7,3.1,4.8
					c1.4,1.1,3,1.6,4.9,1.6C746.1,1942.4,747.7,1941.8,749.1,1940.7z"/>
			</g>
		</g>
		<g>
			<g>
				<path class="st0" d="M2075,1054.4h4.4v34.3h-4.4V1054.4z"/>
				<path class="st0" d="M2088.4,1054.4h6.8l18.5,29.1l1.7-1.2c-0.6-0.9-1-1.7-1.3-2.5c-0.3-0.8-0.5-1.6-0.6-2.5
					c-0.1-0.9-0.2-2.1-0.2-3.5v-19.4h4.4v34.3h-5.6l-19.5-30.6l-1.7,1.1c0.7,1.3,1.2,2.7,1.5,4.1c0.3,1.4,0.4,3.1,0.4,5.2v20.2h-4.4
					V1054.4z"/>
				<path class="st0" d="M2126.7,1054.4h7.4l8.1,20.7c0.6,1.4,0.9,2.8,1.2,4c0.2,1.2,0.3,2.7,0.4,4.5h2c0-1.8,0.1-3.3,0.3-4.5
					c0.2-1.2,0.6-2.6,1.2-4l7.9-20.7h7.3v34.3h-4.4v-19.1c0-2.3,0.2-4.3,0.6-6.2c0.4-1.8,0.9-3.6,1.6-5.2l-2-0.7l-12.1,31.2h-3.2
					l-12.3-31.2l-2,0.7c0.7,1.6,1.2,3.3,1.6,5.1c0.4,1.8,0.6,3.9,0.6,6.2v19.1h-4.4V1054.4z"/>
				<path class="st0" d="M2170.3,1068.9h13.5v4.3h-13.5V1068.9z"/>
				<path class="st0" d="M2191.7,1054.4h7.4l8.1,20.7c0.6,1.4,0.9,2.8,1.2,4c0.2,1.2,0.3,2.7,0.4,4.5h2c0-1.8,0.1-3.3,0.3-4.5
					s0.6-2.6,1.2-4l7.9-20.7h7.3v34.3h-4.4v-19.1c0-2.3,0.2-4.3,0.6-6.2c0.4-1.8,0.9-3.6,1.6-5.2l-2-0.7l-12.1,31.2h-3.2l-12.3-31.2
					l-2,0.7c0.7,1.6,1.2,3.3,1.6,5.1c0.4,1.8,0.6,3.9,0.6,6.2v19.1h-4.4V1054.4z"/>
				<path class="st0" d="M2245.6,1054.4h6.1l12.7,34.3h-4.9l-8.5-23.8c-0.5-1.5-0.8-2.7-1.1-3.8s-0.3-2.3-0.3-3.7h-2
					c0,1.4-0.2,2.7-0.4,3.7c-0.2,1.1-0.6,2.3-1.1,3.7l-8.6,23.8h-4.8L2245.6,1054.4z M2240.7,1075.2h15.5l1.5,4h-18.4L2240.7,1075.2
					z"/>
				<path class="st0" d="M2266.6,1068.9h13.5v4.3h-13.5V1068.9z"/>
				<path class="st0" d="M2293.6,1062.3c0.1-0.8,0.4-1.6,0.7-2.5h-2.1c-0.4,1.2-1,2.3-1.8,3.3c-0.8,1-1.7,1.8-2.7,2.4
					c-1,0.6-2.2,1.1-3.5,1.2v-4.6c2.1-0.5,4.1-1.4,5.8-2.8s3.2-3,4.3-5h3.5v34.3h-4.4v-23.5C2293.4,1064,2293.5,1063,2293.6,1062.3z
					"/>
				<path class="st0" d="M2311.6,1087.3c-2.1-1.4-3.7-3.4-4.8-6.1c-1.2-2.7-1.7-6-1.7-9.8c0-3.8,0.6-7,1.8-9.6s2.9-4.7,4.9-6
					s4.4-2,6.9-2s4.9,0.7,6.9,2s3.7,3.4,4.9,6s1.8,5.9,1.8,9.6c0,3.8-0.6,7.1-1.7,9.8c-1.1,2.7-2.7,4.8-4.8,6.1s-4.4,2.1-7.1,2.1
					C2316.1,1089.3,2313.7,1088.6,2311.6,1087.3z M2323.6,1083.7c1.4-1.1,2.4-2.7,3.1-4.8c0.7-2.1,1.1-4.6,1.1-7.6
					c0-2.7-0.4-5.2-1.1-7.2s-1.8-3.7-3.1-4.8s-2.9-1.7-4.8-1.7c-1.8,0-3.4,0.6-4.8,1.7c-1.4,1.1-2.4,2.7-3.2,4.8
					c-0.7,2.1-1.1,4.5-1.1,7.3c0,2.9,0.4,5.5,1.1,7.6c0.7,2.1,1.8,3.7,3.1,4.8c1.4,1.1,3,1.6,4.9,1.6
					C2320.7,1085.4,2322.3,1084.8,2323.6,1083.7z"/>
				<path class="st0" d="M2344.2,1087.3c-2.1-1.4-3.7-3.4-4.8-6.1c-1.2-2.7-1.7-6-1.7-9.8c0-3.8,0.6-7,1.8-9.6s2.9-4.7,4.9-6
					c2.1-1.4,4.4-2,6.9-2c2.5,0,4.9,0.7,6.9,2c2.1,1.4,3.7,3.4,4.9,6c1.2,2.7,1.8,5.9,1.8,9.6c0,3.8-0.6,7.1-1.7,9.8
					c-1.1,2.7-2.7,4.8-4.8,6.1c-2,1.4-4.4,2.1-7.1,2.1C2348.7,1089.3,2346.3,1088.6,2344.2,1087.3z M2356.2,1083.7
					c1.4-1.1,2.4-2.7,3.1-4.8c0.7-2.1,1.1-4.6,1.1-7.6c0-2.7-0.4-5.2-1.1-7.2c-0.7-2.1-1.8-3.7-3.1-4.8c-1.4-1.1-2.9-1.7-4.8-1.7
					c-1.8,0-3.4,0.6-4.8,1.7c-1.4,1.1-2.4,2.7-3.2,4.8c-0.7,2.1-1.1,4.5-1.1,7.3c0,2.9,0.4,5.5,1.1,7.6c0.7,2.1,1.8,3.7,3.1,4.8
					c1.4,1.1,3,1.6,4.9,1.6C2353.2,1085.4,2354.9,1084.8,2356.2,1083.7z"/>
			</g>
		</g>
	</g>
</g>
<g>
	<g>
		<path class="st1" d="M38,931.4h4.4v34.3H38V931.4z"/>
		<path class="st1" d="M51.4,931.4h6.8l18.5,29.1l1.7-1.2c-0.6-0.9-1-1.7-1.3-2.5c-0.3-0.8-0.5-1.6-0.6-2.5
			c-0.1-0.9-0.2-2.1-0.2-3.5v-19.4h4.4v34.3H75l-19.5-30.6l-1.7,1.1c0.7,1.3,1.2,2.7,1.5,4.1s0.4,3.1,0.4,5.2v20.2h-4.4V931.4z"/>
		<path class="st1" d="M89.7,931.4h7.4l8.1,20.7c0.6,1.4,0.9,2.8,1.2,4c0.2,1.2,0.3,2.7,0.4,4.5h2c0-1.8,0.1-3.3,0.3-4.5
			c0.2-1.2,0.6-2.6,1.2-4l7.9-20.7h7.3v34.3h-4.4v-19.1c0-2.3,0.2-4.3,0.6-6.2c0.4-1.8,0.9-3.6,1.6-5.2l-2-0.7l-12.1,31.2h-3.2
			l-12.3-31.2l-2,0.7c0.7,1.6,1.2,3.3,1.6,5.1c0.4,1.8,0.6,3.9,0.6,6.2v19.1h-4.4V931.4z"/>
		<path class="st1" d="M133.3,945.9h13.5v4.3h-13.5V945.9z"/>
		<path class="st1" d="M154.7,931.4h14.8c2.3,0,4.2,0.4,5.8,1.1c1.6,0.7,2.7,1.7,3.5,2.9c0.8,1.2,1.2,2.6,1.2,4.1
			c0,2.2-0.7,3.9-2,5.1c-1.3,1.2-3,1.9-5.1,2.1v1.9c1.5,0.1,2.8,0.4,4.1,1c1.2,0.6,2.3,1.5,3,2.6c0.8,1.2,1.2,2.6,1.2,4.3
			c0,2-0.5,3.6-1.5,5s-2.3,2.4-3.9,3.1c-1.6,0.7-3.5,1.1-5.7,1.1h-15.4V931.4z M158.6,961.6h10.8c1.4,0,2.7-0.2,3.7-0.7
			c1-0.5,1.9-1.2,2.4-2.1c0.6-0.9,0.9-1.9,0.9-3.1c0-1.8-0.6-3.2-1.9-4.3c-1.2-1-3-1.6-5.2-1.6h-11.1v-4h10.5c1.3,0,2.5-0.2,3.5-0.7
			s1.7-1.1,2.3-1.9c0.5-0.8,0.8-1.8,0.8-2.9c0-1.6-0.6-2.9-1.7-3.7c-1.1-0.9-2.7-1.3-4.8-1.3h-10.2l0.4-0.4v27L158.6,961.6z"/>
		<path class="st1" d="M186,945.9h13.5v4.3H186V945.9z"/>
		<path class="st1" d="M212.9,939.3c0.1-0.8,0.4-1.6,0.7-2.5h-2.1c-0.4,1.2-1,2.3-1.8,3.3c-0.8,1-1.7,1.8-2.7,2.4
			c-1,0.6-2.2,1.1-3.5,1.2v-4.6c2.1-0.5,4.1-1.4,5.8-2.8c1.8-1.3,3.2-3,4.3-5h3.5v34.3h-4.4v-23.5C212.7,941,212.8,940,212.9,939.3z
			"/>
		<path class="st1" d="M231,964.3c-2.1-1.4-3.7-3.4-4.8-6.1c-1.2-2.7-1.7-6-1.7-9.8c0-3.8,0.6-7,1.8-9.6c1.2-2.7,2.9-4.7,4.9-6
			c2.1-1.4,4.4-2,6.9-2s4.9,0.7,6.9,2c2.1,1.4,3.7,3.4,4.9,6c1.2,2.7,1.8,5.9,1.8,9.6c0,3.8-0.6,7.1-1.7,9.8
			c-1.1,2.7-2.7,4.8-4.8,6.1c-2,1.4-4.4,2.1-7.1,2.1C235.4,966.3,233,965.6,231,964.3z M243,960.7c1.4-1.1,2.4-2.7,3.1-4.8
			c0.7-2.1,1.1-4.6,1.1-7.6c0-2.7-0.4-5.2-1.1-7.2c-0.7-2.1-1.8-3.7-3.1-4.8c-1.4-1.1-2.9-1.7-4.8-1.7c-1.8,0-3.4,0.6-4.8,1.7
			c-1.4,1.1-2.4,2.7-3.2,4.8c-0.7,2.1-1.1,4.5-1.1,7.3c0,2.9,0.4,5.5,1.1,7.6c0.7,2.1,1.8,3.7,3.1,4.8c1.4,1.1,3,1.6,4.9,1.6
			C240,962.4,241.6,961.8,243,960.7z"/>
		<path class="st1" d="M263.6,964.3c-2.1-1.4-3.7-3.4-4.8-6.1c-1.2-2.7-1.7-6-1.7-9.8c0-3.8,0.6-7,1.8-9.6c1.2-2.7,2.9-4.7,4.9-6
			c2.1-1.4,4.4-2,6.9-2s4.9,0.7,6.9,2c2.1,1.4,3.7,3.4,4.9,6c1.2,2.7,1.8,5.9,1.8,9.6c0,3.8-0.6,7.1-1.7,9.8
			c-1.1,2.7-2.7,4.8-4.8,6.1c-2,1.4-4.4,2.1-7.1,2.1C268,966.3,265.6,965.6,263.6,964.3z M275.5,960.7c1.4-1.1,2.4-2.7,3.1-4.8
			c0.7-2.1,1.1-4.6,1.1-7.6c0-2.7-0.4-5.2-1.1-7.2c-0.7-2.1-1.8-3.7-3.1-4.8c-1.4-1.1-2.9-1.7-4.8-1.7c-1.8,0-3.4,0.6-4.8,1.7
			c-1.4,1.1-2.4,2.7-3.2,4.8c-0.7,2.1-1.1,4.5-1.1,7.3c0,2.9,0.4,5.5,1.1,7.6c0.7,2.1,1.8,3.7,3.1,4.8c1.4,1.1,3,1.6,4.9,1.6
			C272.6,962.4,274.2,961.8,275.5,960.7z"/>
	</g>
	<g>
		<path class="st1" d="M522,931.4h4.4v34.3H522V931.4z"/>
		<path class="st1" d="M535.4,931.4h6.8l18.5,29.1l1.7-1.2c-0.6-0.9-1-1.7-1.3-2.5c-0.3-0.8-0.5-1.6-0.6-2.5
			c-0.1-0.9-0.2-2.1-0.2-3.5v-19.4h4.4v34.3H559l-19.5-30.6l-1.7,1.1c0.7,1.3,1.2,2.7,1.5,4.1s0.4,3.1,0.4,5.2v20.2h-4.4V931.4z"/>
		<path class="st1" d="M573.7,931.4h7.4l8.1,20.7c0.6,1.4,0.9,2.8,1.2,4c0.2,1.2,0.3,2.7,0.4,4.5h2c0-1.8,0.1-3.3,0.3-4.5
			c0.2-1.2,0.6-2.6,1.2-4l7.9-20.7h7.3v34.3h-4.4v-19.1c0-2.3,0.2-4.3,0.6-6.2c0.4-1.8,0.9-3.6,1.6-5.2l-2-0.7l-12.1,31.2h-3.2
			l-12.3-31.2l-2,0.7c0.7,1.6,1.2,3.3,1.6,5.1c0.4,1.8,0.6,3.9,0.6,6.2v19.1h-4.4V931.4z"/>
		<path class="st1" d="M617.3,945.9h13.5v4.3h-13.5V945.9z"/>
		<path class="st1" d="M638.7,931.4h11.5c3.3,0,6.2,0.7,8.7,2.1c2.5,1.4,4.5,3.4,5.9,6c1.4,2.6,2.1,5.6,2.1,9c0,3.6-0.7,6.6-2,9.2
			c-1.4,2.6-3.3,4.6-5.8,6c-2.5,1.4-5.5,2.1-8.9,2.1h-11.3V931.4z M642.6,961.6h6.7c2.9,0,5.3-0.5,7.2-1.5c1.9-1,3.3-2.5,4.3-4.4
			c0.9-1.9,1.4-4.4,1.4-7.2c0-2.6-0.5-4.9-1.4-6.9c-0.9-1.9-2.4-3.4-4.2-4.5c-1.9-1.1-4.2-1.6-6.9-1.6h-7l0.4-0.4v27L642.6,961.6z"
			/>
		<path class="st1" d="M679.2,964.1c-2.4-1.5-4.2-3.6-5.5-6.3c-1.3-2.7-1.9-5.8-1.9-9.4c0-3.4,0.8-6.5,2.3-9.2
			c1.5-2.7,3.6-4.8,6.2-6.3c2.6-1.5,5.5-2.3,8.6-2.3c2.8,0,5.3,0.5,7.4,1.5c2.1,1,3.8,2.3,5.1,3.8c1.3,1.5,2.3,3.2,2.8,5l-4.5,1.8
			c-0.6-1.5-1.3-2.9-2.2-4.1c-0.9-1.2-2.1-2.2-3.6-2.8c-1.5-0.7-3.2-1-5.1-1c-2.2,0-4.3,0.5-6.1,1.6c-1.9,1.1-3.4,2.6-4.5,4.7
			c-1.1,2.1-1.7,4.5-1.7,7.4c0,2.8,0.5,5.3,1.5,7.4c1,2.1,2.4,3.7,4.2,4.8c1.8,1.1,3.9,1.7,6.3,1.7c2.2,0,4.1-0.4,5.7-1.3
			c1.6-0.9,2.9-2,3.8-3.5c0.9-1.4,1.4-3,1.5-4.6h-12.1v-4.1h16.6v16.8h-4.3c0-1.4,0.2-2.7,0.5-3.9c0.3-1.2,0.8-2.4,1.3-3.5h-2.2
			c-0.8,2.1-2.1,3.9-3.9,5.6c-1.9,1.7-4.6,2.5-8.1,2.5C684.3,966.3,681.6,965.6,679.2,964.1z"/>
		<path class="st1" d="M710.2,945.9h13.5v4.3h-13.5V945.9z"/>
		<path class="st1" d="M737.2,939.3c0.1-0.8,0.4-1.6,0.7-2.5h-2.1c-0.4,1.2-1,2.3-1.8,3.3c-0.8,1-1.7,1.8-2.7,2.4
			c-1,0.6-2.2,1.1-3.5,1.2v-4.6c2.1-0.5,4.1-1.4,5.8-2.8c1.8-1.3,3.2-3,4.3-5h3.5v34.3H737v-23.5C737,941,737.1,940,737.2,939.3z"/>
		<path class="st1" d="M755.2,964.3c-2.1-1.4-3.7-3.4-4.8-6.1c-1.2-2.7-1.7-6-1.7-9.8c0-3.8,0.6-7,1.8-9.6c1.2-2.7,2.9-4.7,4.9-6
			c2.1-1.4,4.4-2,6.9-2s4.9,0.7,6.9,2c2.1,1.4,3.7,3.4,4.9,6c1.2,2.7,1.8,5.9,1.8,9.6c0,3.8-0.6,7.1-1.7,9.8
			c-1.1,2.7-2.7,4.8-4.8,6.1c-2,1.4-4.4,2.1-7.1,2.1C759.7,966.3,757.3,965.6,755.2,964.3z M767.2,960.7c1.4-1.1,2.4-2.7,3.1-4.8
			c0.7-2.1,1.1-4.6,1.1-7.6c0-2.7-0.4-5.2-1.1-7.2c-0.7-2.1-1.8-3.7-3.1-4.8c-1.4-1.1-2.9-1.7-4.8-1.7c-1.8,0-3.4,0.6-4.8,1.7
			c-1.4,1.1-2.4,2.7-3.2,4.8c-0.7,2.1-1.1,4.5-1.1,7.3c0,2.9,0.4,5.5,1.1,7.6c0.7,2.1,1.8,3.7,3.1,4.8c1.4,1.1,3,1.6,4.9,1.6
			C764.3,962.4,765.9,961.8,767.2,960.7z"/>
		<path class="st1" d="M787.8,964.3c-2.1-1.4-3.7-3.4-4.8-6.1c-1.2-2.7-1.7-6-1.7-9.8c0-3.8,0.6-7,1.8-9.6c1.2-2.7,2.9-4.7,4.9-6
			c2.1-1.4,4.4-2,6.9-2s4.9,0.7,6.9,2c2.1,1.4,3.7,3.4,4.9,6c1.2,2.7,1.8,5.9,1.8,9.6c0,3.8-0.6,7.1-1.7,9.8
			c-1.1,2.7-2.7,4.8-4.8,6.1c-2,1.4-4.4,2.1-7.1,2.1C792.3,966.3,789.9,965.6,787.8,964.3z M799.8,960.7c1.4-1.1,2.4-2.7,3.1-4.8
			c0.7-2.1,1.1-4.6,1.1-7.6c0-2.7-0.4-5.2-1.1-7.2c-0.7-2.1-1.8-3.7-3.1-4.8c-1.4-1.1-2.9-1.7-4.8-1.7c-1.8,0-3.4,0.6-4.8,1.7
			c-1.4,1.1-2.4,2.7-3.2,4.8c-0.7,2.1-1.1,4.5-1.1,7.3c0,2.9,0.4,5.5,1.1,7.6c0.7,2.1,1.8,3.7,3.1,4.8c1.4,1.1,3,1.6,4.9,1.6
			C796.8,962.4,798.5,961.8,799.8,960.7z"/>
	</g>
	<g>
		<path class="st1" d="M522,1053.4h4.4v34.3H522V1053.4z"/>
		<path class="st1" d="M535.4,1053.4h6.8l18.5,29.1l1.7-1.2c-0.6-0.9-1-1.7-1.3-2.5c-0.3-0.8-0.5-1.6-0.6-2.5
			c-0.1-0.9-0.2-2.1-0.2-3.5v-19.4h4.4v34.3H559l-19.5-30.6l-1.7,1.1c0.7,1.3,1.2,2.7,1.5,4.1c0.3,1.4,0.4,3.1,0.4,5.2v20.2h-4.4
			V1053.4z"/>
		<path class="st1" d="M573.7,1053.4h7.4l8.1,20.7c0.6,1.4,0.9,2.8,1.2,4c0.2,1.2,0.3,2.7,0.4,4.5h2c0-1.8,0.1-3.3,0.3-4.5
			c0.2-1.2,0.6-2.6,1.2-4l7.9-20.7h7.3v34.3h-4.4v-19.1c0-2.3,0.2-4.3,0.6-6.2c0.4-1.8,0.9-3.6,1.6-5.2l-2-0.7l-12.1,31.2h-3.2
			l-12.3-31.2l-2,0.7c0.7,1.6,1.2,3.3,1.6,5.1c0.4,1.8,0.6,3.9,0.6,6.2v19.1h-4.4V1053.4z"/>
		<path class="st1" d="M617.3,1067.9h13.5v4.3h-13.5V1067.9z"/>
		<path class="st1" d="M638.7,1053.4h11.5c3.3,0,6.2,0.7,8.7,2.1c2.5,1.4,4.5,3.4,5.9,6c1.4,2.6,2.1,5.6,2.1,9c0,3.6-0.7,6.6-2,9.2
			c-1.4,2.6-3.3,4.6-5.8,6c-2.5,1.4-5.5,2.1-8.9,2.1h-11.3V1053.4z M642.6,1083.6h6.7c2.9,0,5.3-0.5,7.2-1.5c1.9-1,3.3-2.5,4.3-4.4
			c0.9-1.9,1.4-4.4,1.4-7.2c0-2.6-0.5-4.9-1.4-6.9c-0.9-1.9-2.4-3.4-4.2-4.5c-1.9-1.1-4.2-1.6-6.9-1.6h-7l0.4-0.4v27L642.6,1083.6z"
			/>
		<path class="st1" d="M679.2,1086.1c-2.4-1.5-4.2-3.6-5.5-6.3c-1.3-2.7-1.9-5.8-1.9-9.4c0-3.4,0.8-6.5,2.3-9.2
			c1.5-2.7,3.6-4.8,6.2-6.3c2.6-1.5,5.5-2.3,8.6-2.3c2.8,0,5.3,0.5,7.4,1.5s3.8,2.3,5.1,3.8c1.3,1.5,2.3,3.2,2.8,5l-4.5,1.8
			c-0.6-1.5-1.3-2.9-2.2-4.1c-0.9-1.2-2.1-2.2-3.6-2.8c-1.5-0.7-3.2-1-5.1-1c-2.2,0-4.3,0.5-6.1,1.6c-1.9,1.1-3.4,2.6-4.5,4.7
			c-1.1,2.1-1.7,4.5-1.7,7.4c0,2.8,0.5,5.3,1.5,7.4c1,2.1,2.4,3.7,4.2,4.8c1.8,1.1,3.9,1.7,6.3,1.7c2.2,0,4.1-0.4,5.7-1.3
			c1.6-0.9,2.9-2,3.8-3.5c0.9-1.4,1.4-3,1.5-4.6h-12.1v-4.1h16.6v16.8h-4.3c0-1.4,0.2-2.7,0.5-3.9c0.3-1.2,0.8-2.4,1.3-3.5h-2.2
			c-0.8,2.1-2.1,3.9-3.9,5.6c-1.9,1.7-4.6,2.5-8.1,2.5C684.3,1088.3,681.6,1087.6,679.2,1086.1z"/>
		<path class="st1" d="M710.2,1067.9h13.5v4.3h-13.5V1067.9z"/>
		<path class="st1" d="M734.3,1087c-1.8-0.9-3.1-2-4-3.5c-0.9-1.4-1.3-3-1.3-4.8c0-1.6,0.4-3,1.1-4.1c0.7-1.2,1.7-2.1,3-2.7
			c1.3-0.7,2.7-1,4.3-1.1v-1.9c-2.2-0.2-4-0.9-5.4-2.2c-1.4-1.3-2.1-3-2.1-5.2c0-1.7,0.4-3.2,1.3-4.6c0.9-1.4,2.2-2.4,3.8-3.2
			c1.7-0.8,3.6-1.2,5.8-1.2c2.2,0,4.1,0.4,5.8,1.2c1.6,0.8,2.9,1.8,3.8,3.2c0.9,1.4,1.4,2.9,1.4,4.6c0,2.2-0.7,3.9-2.1,5.2
			c-1.4,1.3-3.2,2-5.4,2.2v1.9c2.5,0.2,4.5,1,6.1,2.4c1.6,1.4,2.3,3.3,2.3,5.6c0,1.8-0.4,3.4-1.3,4.8c-0.9,1.4-2.2,2.6-4,3.5
			c-1.8,0.9-4,1.3-6.5,1.3C738.3,1088.3,736.1,1087.9,734.3,1087z M744.8,1083.7c1.1-0.5,1.9-1.2,2.5-2.2c0.6-0.9,0.9-2,0.9-3.3
			c0-1.2-0.3-2.3-0.9-3.3c-0.6-0.9-1.5-1.7-2.6-2.2c-1.1-0.5-2.4-0.8-3.9-0.8c-1.3,0-2.5,0.3-3.7,0.8s-2,1.3-2.7,2.2
			c-0.7,1-1,2.1-1,3.3c0,1.9,0.7,3.4,2,4.5c1.3,1.1,3.1,1.7,5.4,1.7C742.4,1084.5,743.7,1084.2,744.8,1083.7z M744.2,1067.1
			c1-0.5,1.8-1.1,2.4-2c0.6-0.9,0.9-1.9,0.9-3.1c0-1.6-0.6-3-1.8-4c-1.2-1-2.8-1.6-4.7-1.6c-1.3,0-2.4,0.2-3.4,0.7
			c-1,0.5-1.8,1.1-2.4,2c-0.6,0.9-0.9,1.8-0.9,2.9c0,1.8,0.6,3.2,1.9,4.2c1.2,1,2.8,1.6,4.8,1.6
			C742.1,1067.9,743.2,1067.6,744.2,1067.1z"/>
		<path class="st1" d="M764.4,1086.3c-2.1-1.4-3.7-3.4-4.8-6.1c-1.2-2.7-1.7-6-1.7-9.8c0-3.8,0.6-7,1.8-9.6c1.2-2.7,2.9-4.7,4.9-6
			c2.1-1.4,4.4-2,6.9-2s4.9,0.7,6.9,2c2.1,1.4,3.7,3.4,4.9,6c1.2,2.7,1.8,5.9,1.8,9.6c0,3.8-0.6,7.1-1.7,9.8
			c-1.1,2.7-2.7,4.8-4.8,6.1c-2,1.4-4.4,2.1-7.1,2.1C768.8,1088.3,766.4,1087.6,764.4,1086.3z M776.4,1082.7
			c1.4-1.1,2.4-2.7,3.1-4.8c0.7-2.1,1.1-4.6,1.1-7.6c0-2.7-0.4-5.2-1.1-7.2c-0.7-2.1-1.8-3.7-3.1-4.8c-1.4-1.1-2.9-1.7-4.8-1.7
			c-1.8,0-3.4,0.6-4.8,1.7c-1.4,1.1-2.4,2.7-3.2,4.8c-0.7,2.1-1.1,4.5-1.1,7.3c0,2.9,0.4,5.5,1.1,7.6c0.7,2.1,1.8,3.7,3.1,4.8
			c1.4,1.1,3,1.6,4.9,1.6C773.4,1084.4,775,1083.8,776.4,1082.7z"/>
	</g>
	<g>
		<path class="st1" d="M522,1199.4h4.4v34.3H522V1199.4z"/>
		<path class="st1" d="M535.4,1199.4h6.8l18.5,29.1l1.7-1.2c-0.6-0.9-1-1.7-1.3-2.5c-0.3-0.8-0.5-1.6-0.6-2.5
			c-0.1-0.9-0.2-2.1-0.2-3.5v-19.4h4.4v34.3H559l-19.5-30.6l-1.7,1.1c0.7,1.3,1.2,2.7,1.5,4.1c0.3,1.4,0.4,3.1,0.4,5.2v20.2h-4.4
			V1199.4z"/>
		<path class="st1" d="M573.7,1199.4h7.4l8.1,20.7c0.6,1.4,0.9,2.8,1.2,4c0.2,1.2,0.3,2.7,0.4,4.5h2c0-1.8,0.1-3.3,0.3-4.5
			c0.2-1.2,0.6-2.6,1.2-4l7.9-20.7h7.3v34.3h-4.4v-19.1c0-2.3,0.2-4.3,0.6-6.2c0.4-1.8,0.9-3.6,1.6-5.2l-2-0.7l-12.1,31.2h-3.2
			l-12.3-31.2l-2,0.7c0.7,1.6,1.2,3.3,1.6,5.1c0.4,1.8,0.6,3.9,0.6,6.2v19.1h-4.4V1199.4z"/>
		<path class="st1" d="M617.3,1213.9h13.5v4.3h-13.5V1213.9z"/>
		<path class="st1" d="M638.7,1199.4h11.5c3.3,0,6.2,0.7,8.7,2.1c2.5,1.4,4.5,3.4,5.9,6c1.4,2.6,2.1,5.6,2.1,9c0,3.6-0.7,6.6-2,9.2
			c-1.4,2.6-3.3,4.6-5.8,6c-2.5,1.4-5.5,2.1-8.9,2.1h-11.3V1199.4z M642.6,1229.6h6.7c2.9,0,5.3-0.5,7.2-1.5c1.9-1,3.3-2.5,4.3-4.4
			c0.9-1.9,1.4-4.4,1.4-7.2c0-2.6-0.5-4.9-1.4-6.9c-0.9-1.9-2.4-3.4-4.2-4.5c-1.9-1.1-4.2-1.6-6.9-1.6h-7l0.4-0.4v27L642.6,1229.6z"
			/>
		<path class="st1" d="M679.2,1232.1c-2.4-1.5-4.2-3.6-5.5-6.3c-1.3-2.7-1.9-5.8-1.9-9.4c0-3.4,0.8-6.5,2.3-9.2
			c1.5-2.7,3.6-4.8,6.2-6.3c2.6-1.5,5.5-2.3,8.6-2.3c2.8,0,5.3,0.5,7.4,1.5s3.8,2.3,5.1,3.8c1.3,1.5,2.3,3.2,2.8,5l-4.5,1.8
			c-0.6-1.5-1.3-2.9-2.2-4.1c-0.9-1.2-2.1-2.2-3.6-2.8c-1.5-0.7-3.2-1-5.1-1c-2.2,0-4.3,0.5-6.1,1.6c-1.9,1.1-3.4,2.6-4.5,4.7
			c-1.1,2.1-1.7,4.5-1.7,7.4c0,2.8,0.5,5.3,1.5,7.4c1,2.1,2.4,3.7,4.2,4.8c1.8,1.1,3.9,1.7,6.3,1.7c2.2,0,4.1-0.4,5.7-1.3
			c1.6-0.9,2.9-2,3.8-3.5c0.9-1.4,1.4-3,1.5-4.6h-12.1v-4.1h16.6v16.8h-4.3c0-1.4,0.2-2.7,0.5-3.9c0.3-1.2,0.8-2.4,1.3-3.5h-2.2
			c-0.8,2.1-2.1,3.9-3.9,5.6c-1.9,1.7-4.6,2.5-8.1,2.5C684.3,1234.3,681.6,1233.6,679.2,1232.1z"/>
		<path class="st1" d="M710.2,1213.9h13.5v4.3h-13.5V1213.9z"/>
		<path class="st1" d="M736.7,1232.5c-1.9-1.3-3.4-3.1-4.5-5.6c-1.1-2.5-1.6-5.5-1.6-9.1c0-3.7,0.6-6.9,1.8-9.8
			c1.2-2.9,3-5.1,5.5-6.8c2.4-1.6,5.4-2.4,8.9-2.4c1,0,2.2,0.1,3.4,0.3c1.2,0.2,2.2,0.4,3.1,0.8v4.3c-1-0.4-2-0.6-3-0.8
			c-1-0.2-2.1-0.3-3.2-0.3c-2.6,0-4.9,0.6-6.9,1.7s-3.5,2.9-4.6,5.2c-1.1,2.3-1.7,5.2-1.7,8.5h1.9c0.3-1.2,0.8-2.3,1.5-3.3
			c0.8-1,1.7-1.9,3-2.5c1.2-0.6,2.7-1,4.3-1c2.2,0,4.1,0.5,5.7,1.5c1.6,1,2.9,2.3,3.8,3.9c0.9,1.7,1.3,3.5,1.3,5.5
			c0,2.2-0.5,4.1-1.4,6c-0.9,1.8-2.3,3.3-4.1,4.3c-1.8,1.1-3.9,1.6-6.4,1.6C740.8,1234.3,738.6,1233.7,736.7,1232.5z M747.1,1229.5
			c1.1-0.6,2-1.5,2.6-2.7c0.6-1.2,1-2.5,1-4c0-1.5-0.3-2.9-1-4c-0.6-1.1-1.5-2-2.6-2.6c-1.1-0.6-2.3-0.9-3.7-0.9
			c-1.4,0-2.7,0.3-3.7,0.9c-1.1,0.6-2,1.5-2.6,2.6c-0.6,1.1-1,2.5-1,4c0,1.5,0.3,2.8,1,4c0.6,1.1,1.5,2,2.6,2.7c1.1,0.6,2.4,1,3.7,1
			C744.7,1230.5,745.9,1230.2,747.1,1229.5z"/>
		<path class="st1" d="M766.4,1232.3c-2.1-1.4-3.7-3.4-4.8-6.1c-1.2-2.7-1.7-6-1.7-9.8c0-3.8,0.6-7,1.8-9.6c1.2-2.7,2.9-4.7,4.9-6
			c2.1-1.4,4.4-2,6.9-2s4.9,0.7,6.9,2c2.1,1.4,3.7,3.4,4.9,6c1.2,2.7,1.8,5.9,1.8,9.6c0,3.8-0.6,7.1-1.7,9.8
			c-1.1,2.7-2.7,4.8-4.8,6.1c-2,1.4-4.4,2.1-7.1,2.1C770.9,1234.3,768.5,1233.6,766.4,1232.3z M778.4,1228.7
			c1.4-1.1,2.4-2.7,3.1-4.8c0.7-2.1,1.1-4.6,1.1-7.6c0-2.7-0.4-5.2-1.1-7.2c-0.7-2.1-1.8-3.7-3.1-4.8c-1.4-1.1-2.9-1.7-4.8-1.7
			c-1.8,0-3.4,0.6-4.8,1.7c-1.4,1.1-2.4,2.7-3.2,4.8c-0.7,2.1-1.1,4.5-1.1,7.3c0,2.9,0.4,5.5,1.1,7.6c0.7,2.1,1.8,3.7,3.1,4.8
			c1.4,1.1,3,1.6,4.9,1.6C775.5,1230.4,777.1,1229.8,778.4,1228.7z"/>
	</g>
	<g>
		<path class="st1" d="M522,1340.4h4.4v34.3H522V1340.4z"/>
		<path class="st1" d="M535.4,1340.4h6.8l18.5,29.1l1.7-1.2c-0.6-0.9-1-1.7-1.3-2.5c-0.3-0.8-0.5-1.6-0.6-2.5
			c-0.1-0.9-0.2-2.1-0.2-3.5v-19.4h4.4v34.3H559l-19.5-30.6l-1.7,1.1c0.7,1.3,1.2,2.7,1.5,4.1c0.3,1.4,0.4,3.1,0.4,5.2v20.2h-4.4
			V1340.4z"/>
		<path class="st1" d="M573.7,1340.4h7.4l8.1,20.7c0.6,1.4,0.9,2.8,1.2,4c0.2,1.2,0.3,2.7,0.4,4.5h2c0-1.8,0.1-3.3,0.3-4.5
			c0.2-1.2,0.6-2.6,1.2-4l7.9-20.7h7.3v34.3h-4.4v-19.1c0-2.3,0.2-4.3,0.6-6.2c0.4-1.8,0.9-3.6,1.6-5.2l-2-0.7l-12.1,31.2h-3.2
			l-12.3-31.2l-2,0.7c0.7,1.6,1.2,3.3,1.6,5.1c0.4,1.8,0.6,3.9,0.6,6.2v19.1h-4.4V1340.4z"/>
		<path class="st1" d="M617.3,1354.9h13.5v4.3h-13.5V1354.9z"/>
		<path class="st1" d="M638.7,1340.4h11.5c3.3,0,6.2,0.7,8.7,2.1c2.5,1.4,4.5,3.4,5.9,6c1.4,2.6,2.1,5.6,2.1,9c0,3.6-0.7,6.6-2,9.2
			c-1.4,2.6-3.3,4.6-5.8,6c-2.5,1.4-5.5,2.1-8.9,2.1h-11.3V1340.4z M642.6,1370.6h6.7c2.9,0,5.3-0.5,7.2-1.5c1.9-1,3.3-2.5,4.3-4.4
			c0.9-1.9,1.4-4.4,1.4-7.2c0-2.6-0.5-4.9-1.4-6.9c-0.9-1.9-2.4-3.4-4.2-4.5c-1.9-1.1-4.2-1.6-6.9-1.6h-7l0.4-0.4v27L642.6,1370.6z"
			/>
		<path class="st1" d="M679.2,1373.1c-2.4-1.5-4.2-3.6-5.5-6.3c-1.3-2.7-1.9-5.8-1.9-9.4c0-3.4,0.8-6.5,2.3-9.2
			c1.5-2.7,3.6-4.8,6.2-6.3c2.6-1.5,5.5-2.3,8.6-2.3c2.8,0,5.3,0.5,7.4,1.5s3.8,2.3,5.1,3.8c1.3,1.5,2.3,3.2,2.8,5l-4.5,1.8
			c-0.6-1.5-1.3-2.9-2.2-4.1c-0.9-1.2-2.1-2.2-3.6-2.8c-1.5-0.7-3.2-1-5.1-1c-2.2,0-4.3,0.5-6.1,1.6c-1.9,1.1-3.4,2.6-4.5,4.7
			c-1.1,2.1-1.7,4.5-1.7,7.4c0,2.8,0.5,5.3,1.5,7.4c1,2.1,2.4,3.7,4.2,4.8c1.8,1.1,3.9,1.7,6.3,1.7c2.2,0,4.1-0.4,5.7-1.3
			c1.6-0.9,2.9-2,3.8-3.5c0.9-1.4,1.4-3,1.5-4.6h-12.1v-4.1h16.6v16.8h-4.3c0-1.4,0.2-2.7,0.5-3.9c0.3-1.2,0.8-2.4,1.3-3.5h-2.2
			c-0.8,2.1-2.1,3.9-3.9,5.6c-1.9,1.7-4.6,2.5-8.1,2.5C684.3,1375.3,681.6,1374.6,679.2,1373.1z"/>
		<path class="st1" d="M710.2,1354.9h13.5v4.3h-13.5V1354.9z"/>
		<path class="st1" d="M745.5,1347.5c0.3-1,0.8-2,1.4-2.9l-1.7-1.2l-12.3,18.6l1.6,1.2c0.4-0.4,0.8-0.7,1.2-1
			c0.4-0.2,0.9-0.4,1.5-0.6c0.6-0.1,1.4-0.2,2.4-0.2h14.9v3.7h-25.6v-4.2l13.8-20.7h6.7v34.3H745v-23.1
			C745,1349.8,745.2,1348.5,745.5,1347.5z"/>
		<path class="st1" d="M765.6,1373.3c-2.1-1.4-3.7-3.4-4.8-6.1c-1.2-2.7-1.7-6-1.7-9.8c0-3.8,0.6-7,1.8-9.6c1.2-2.7,2.9-4.7,4.9-6
			c2.1-1.4,4.4-2,6.9-2s4.9,0.7,6.9,2c2.1,1.4,3.7,3.4,4.9,6c1.2,2.7,1.8,5.9,1.8,9.6c0,3.8-0.6,7.1-1.7,9.8
			c-1.1,2.7-2.7,4.8-4.8,6.1c-2,1.4-4.4,2.1-7.1,2.1C770,1375.3,767.6,1374.6,765.6,1373.3z M777.5,1369.7c1.4-1.1,2.4-2.7,3.1-4.8
			c0.7-2.1,1.1-4.6,1.1-7.6c0-2.7-0.4-5.2-1.1-7.2c-0.7-2.1-1.8-3.7-3.1-4.8c-1.4-1.1-2.9-1.7-4.8-1.7c-1.8,0-3.4,0.6-4.8,1.7
			c-1.4,1.1-2.4,2.7-3.2,4.8c-0.7,2.1-1.1,4.5-1.1,7.3c0,2.9,0.4,5.5,1.1,7.6c0.7,2.1,1.8,3.7,3.1,4.8c1.4,1.1,3,1.6,4.9,1.6
			C774.6,1371.4,776.2,1370.8,777.5,1369.7z"/>
	</g>
	<g>
		<path class="st1" d="M522,1483.4h4.4v34.3H522V1483.4z"/>
		<path class="st1" d="M535.4,1483.4h6.8l18.5,29.1l1.7-1.2c-0.6-0.9-1-1.7-1.3-2.5c-0.3-0.8-0.5-1.6-0.6-2.5
			c-0.1-0.9-0.2-2.1-0.2-3.5v-19.4h4.4v34.3H559l-19.5-30.6l-1.7,1.1c0.7,1.3,1.2,2.7,1.5,4.1c0.3,1.4,0.4,3.1,0.4,5.2v20.2h-4.4
			V1483.4z"/>
		<path class="st1" d="M573.7,1483.4h7.4l8.1,20.7c0.6,1.4,0.9,2.8,1.2,4c0.2,1.2,0.3,2.7,0.4,4.5h2c0-1.8,0.1-3.3,0.3-4.5
			c0.2-1.2,0.6-2.6,1.2-4l7.9-20.7h7.3v34.3h-4.4v-19.1c0-2.3,0.2-4.3,0.6-6.2c0.4-1.8,0.9-3.6,1.6-5.2l-2-0.7l-12.1,31.2h-3.2
			l-12.3-31.2l-2,0.7c0.7,1.6,1.2,3.3,1.6,5.1c0.4,1.8,0.6,3.9,0.6,6.2v19.1h-4.4V1483.4z"/>
		<path class="st1" d="M617.3,1497.9h13.5v4.3h-13.5V1497.9z"/>
		<path class="st1" d="M638.7,1483.4h11.5c3.3,0,6.2,0.7,8.7,2.1c2.5,1.4,4.5,3.4,5.9,6c1.4,2.6,2.1,5.6,2.1,9c0,3.6-0.7,6.6-2,9.2
			c-1.4,2.6-3.3,4.6-5.8,6c-2.5,1.4-5.5,2.1-8.9,2.1h-11.3V1483.4z M642.6,1513.6h6.7c2.9,0,5.3-0.5,7.2-1.5c1.9-1,3.3-2.5,4.3-4.4
			c0.9-1.9,1.4-4.4,1.4-7.2c0-2.6-0.5-4.9-1.4-6.9c-0.9-1.9-2.4-3.4-4.2-4.5c-1.9-1.1-4.2-1.6-6.9-1.6h-7l0.4-0.4v27L642.6,1513.6z"
			/>
		<path class="st1" d="M679.2,1516.1c-2.4-1.5-4.2-3.6-5.5-6.3c-1.3-2.7-1.9-5.8-1.9-9.4c0-3.4,0.8-6.5,2.3-9.2
			c1.5-2.7,3.6-4.8,6.2-6.3c2.6-1.5,5.5-2.3,8.6-2.3c2.8,0,5.3,0.5,7.4,1.5s3.8,2.3,5.1,3.8c1.3,1.5,2.3,3.2,2.8,5l-4.5,1.8
			c-0.6-1.5-1.3-2.9-2.2-4.1c-0.9-1.2-2.1-2.2-3.6-2.8c-1.5-0.7-3.2-1-5.1-1c-2.2,0-4.3,0.5-6.1,1.6c-1.9,1.1-3.4,2.6-4.5,4.7
			c-1.1,2.1-1.7,4.5-1.7,7.4c0,2.8,0.5,5.3,1.5,7.4c1,2.1,2.4,3.7,4.2,4.8c1.8,1.1,3.9,1.7,6.3,1.7c2.2,0,4.1-0.4,5.7-1.3
			c1.6-0.9,2.9-2,3.8-3.5c0.9-1.4,1.4-3,1.5-4.6h-12.1v-4.1h16.6v16.8h-4.3c0-1.4,0.2-2.7,0.5-3.9c0.3-1.2,0.8-2.4,1.3-3.5h-2.2
			c-0.8,2.1-2.1,3.9-3.9,5.6c-1.9,1.7-4.6,2.5-8.1,2.5C684.3,1518.3,681.6,1517.6,679.2,1516.1z"/>
		<path class="st1" d="M710.2,1497.9h13.5v4.3h-13.5V1497.9z"/>
		<path class="st1" d="M729.8,1511.4c3-1.9,5.7-3.8,7.9-5.6c2.2-1.8,4.1-3.8,5.4-5.8c1.4-2,2.1-4.1,2.1-6.2c0-1.5-0.3-2.8-0.9-3.8
			c-0.6-1.1-1.4-1.9-2.4-2.4c-1-0.6-2.1-0.8-3.3-0.8c-1.3,0-2.4,0.3-3.5,0.9c-1,0.6-1.8,1.5-2.4,2.7c-0.6,1.2-0.9,2.6-0.9,4.3
			l-4.5-0.6c0-2.2,0.5-4.2,1.4-5.9c0.9-1.7,2.2-3,3.9-3.9c1.7-0.9,3.7-1.4,6-1.4c2.3,0,4.2,0.5,5.9,1.4c1.7,0.9,3,2.2,3.9,3.7
			c0.9,1.6,1.3,3.4,1.3,5.5c0,1.8-0.3,3.4-0.9,5c-0.6,1.6-1.4,3.1-2.5,4.5c-1.5,1.8-3.4,3.5-5.9,5.3c-2.5,1.8-5.5,3.7-9.2,5.8
			l1.1,1.8c1-0.7,2-1.2,3-1.5c1-0.3,2.3-0.5,3.9-0.5h11v4.1h-22.6v-4.9C728.4,1512.3,729.1,1511.9,729.8,1511.4z"/>
		<path class="st1" d="M761.7,1516.3c-2.1-1.4-3.7-3.4-4.8-6.1c-1.2-2.7-1.7-6-1.7-9.8c0-3.8,0.6-7,1.8-9.6c1.2-2.7,2.9-4.7,4.9-6
			c2.1-1.4,4.4-2,6.9-2s4.9,0.7,6.9,2c2.1,1.4,3.7,3.4,4.9,6c1.2,2.7,1.8,5.9,1.8,9.6c0,3.8-0.6,7.1-1.7,9.8
			c-1.1,2.7-2.7,4.8-4.8,6.1c-2,1.4-4.4,2.1-7.1,2.1C766.1,1518.3,763.7,1517.6,761.7,1516.3z M773.7,1512.7
			c1.4-1.1,2.4-2.7,3.1-4.8c0.7-2.1,1.1-4.6,1.1-7.6c0-2.7-0.4-5.2-1.1-7.2c-0.7-2.1-1.8-3.7-3.1-4.8c-1.4-1.1-2.9-1.7-4.8-1.7
			c-1.8,0-3.4,0.6-4.8,1.7c-1.4,1.1-2.4,2.7-3.2,4.8c-0.7,2.1-1.1,4.5-1.1,7.3c0,2.9,0.4,5.5,1.1,7.6c0.7,2.1,1.8,3.7,3.1,4.8
			c1.4,1.1,3,1.6,4.9,1.6C770.7,1514.4,772.3,1513.8,773.7,1512.7z"/>
	</g>
	<g>
		<path class="st1" d="M2075,1340.4h4.4v34.3h-4.4V1340.4z"/>
		<path class="st1" d="M2088.4,1340.4h6.8l18.5,29.1l1.7-1.2c-0.6-0.9-1-1.7-1.3-2.5c-0.3-0.8-0.5-1.6-0.6-2.5
			c-0.1-0.9-0.2-2.1-0.2-3.5v-19.4h4.4v34.3h-5.6l-19.5-30.6l-1.7,1.1c0.7,1.3,1.2,2.7,1.5,4.1c0.3,1.4,0.4,3.1,0.4,5.2v20.2h-4.4
			V1340.4z"/>
		<path class="st1" d="M2126.7,1340.4h7.4l8.1,20.7c0.6,1.4,0.9,2.8,1.2,4c0.2,1.2,0.3,2.7,0.4,4.5h2c0-1.8,0.1-3.3,0.3-4.5
			c0.2-1.2,0.6-2.6,1.2-4l7.9-20.7h7.3v34.3h-4.4v-19.1c0-2.3,0.2-4.3,0.6-6.2c0.4-1.8,0.9-3.6,1.6-5.2l-2-0.7l-12.1,31.2h-3.2
			l-12.3-31.2l-2,0.7c0.7,1.6,1.2,3.3,1.6,5.1c0.4,1.8,0.6,3.9,0.6,6.2v19.1h-4.4V1340.4z"/>
		<path class="st1" d="M2170.3,1354.9h13.5v4.3h-13.5V1354.9z"/>
		<path class="st1" d="M2191.7,1340.4h7.4l8.1,20.7c0.6,1.4,0.9,2.8,1.2,4c0.2,1.2,0.3,2.7,0.4,4.5h2c0-1.8,0.1-3.3,0.3-4.5
			s0.6-2.6,1.2-4l7.9-20.7h7.3v34.3h-4.4v-19.1c0-2.3,0.2-4.3,0.6-6.2c0.4-1.8,0.9-3.6,1.6-5.2l-2-0.7l-12.1,31.2h-3.2l-12.3-31.2
			l-2,0.7c0.7,1.6,1.2,3.3,1.6,5.1c0.4,1.8,0.6,3.9,0.6,6.2v19.1h-4.4V1340.4z"/>
		<path class="st1" d="M2245.6,1340.4h6.1l12.7,34.3h-4.9l-8.5-23.8c-0.5-1.5-0.8-2.7-1.1-3.8s-0.3-2.3-0.3-3.7h-2
			c0,1.4-0.2,2.7-0.4,3.7c-0.2,1.1-0.6,2.3-1.1,3.7l-8.6,23.8h-4.8L2245.6,1340.4z M2240.7,1361.2h15.5l1.5,4h-18.4L2240.7,1361.2z"
			/>
		<path class="st1" d="M2266.6,1354.9h13.5v4.3h-13.5V1354.9z"/>
		<path class="st1" d="M2293.6,1348.3c0.1-0.8,0.4-1.6,0.7-2.5h-2.1c-0.4,1.2-1,2.3-1.8,3.3c-0.8,1-1.7,1.8-2.7,2.4
			c-1,0.6-2.2,1.1-3.5,1.2v-4.6c2.1-0.5,4.1-1.4,5.8-2.8s3.2-3,4.3-5h3.5v34.3h-4.4v-23.5C2293.4,1350,2293.5,1349,2293.6,1348.3z"
			/>
		<path class="st1" d="M2308.7,1372.9c-2.1-1.6-3.5-3.7-4-6.2l4.5-1.5c0.4,2,1.3,3.5,2.7,4.6c1.4,1.1,3,1.6,5,1.6
			c1.5,0,2.8-0.3,3.9-0.9c1.1-0.6,1.9-1.5,2.5-2.6c0.6-1.1,0.9-2.4,0.9-3.9c0-1.5-0.3-2.8-0.9-3.9c-0.6-1.1-1.5-2-2.6-2.6
			c-1.1-0.6-2.4-0.9-3.9-0.9c-1.6,0-2.9,0.4-4.1,1.1c-1.2,0.8-2.1,1.7-2.8,2.7l-4.5-0.7l2.8-19.4h19.5v4.1h-16.2l-0.9,5.9
			c-0.3,2-0.7,3.5-1.1,4.5c-0.4,1-0.9,2-1.5,2.8h2.4c0.7-1.3,1.7-2.5,2.9-3.3c1.2-0.9,2.8-1.3,4.8-1.3c2.1,0,4,0.5,5.6,1.3
			c1.6,0.9,2.9,2.2,3.7,3.8c0.9,1.6,1.3,3.6,1.3,5.8c0,2.3-0.5,4.2-1.4,6c-1,1.7-2.3,3.1-4.1,4c-1.8,1-3.8,1.4-6.1,1.4
			C2313.6,1375.3,2310.9,1374.5,2308.7,1372.9z"/>
		<path class="st1" d="M2340,1373.3c-2.1-1.4-3.7-3.4-4.8-6.1c-1.2-2.7-1.7-6-1.7-9.8c0-3.8,0.6-7,1.8-9.6s2.9-4.7,4.9-6
			c2.1-1.4,4.4-2,6.9-2c2.5,0,4.9,0.7,6.9,2c2.1,1.4,3.7,3.4,4.9,6c1.2,2.7,1.8,5.9,1.8,9.6c0,3.8-0.6,7.1-1.7,9.8
			c-1.1,2.7-2.7,4.8-4.8,6.1c-2,1.4-4.4,2.1-7.1,2.1C2344.4,1375.3,2342,1374.6,2340,1373.3z M2352,1369.7c1.4-1.1,2.4-2.7,3.1-4.8
			c0.7-2.1,1.1-4.6,1.1-7.6c0-2.7-0.4-5.2-1.1-7.2c-0.7-2.1-1.8-3.7-3.1-4.8c-1.4-1.1-2.9-1.7-4.8-1.7c-1.8,0-3.4,0.6-4.8,1.7
			c-1.4,1.1-2.4,2.7-3.2,4.8c-0.7,2.1-1.1,4.5-1.1,7.3c0,2.9,0.4,5.5,1.1,7.6c0.7,2.1,1.8,3.7,3.1,4.8c1.4,1.1,3,1.6,4.9,1.6
			C2349,1371.4,2350.6,1370.8,2352,1369.7z"/>
	</g>
	<g>
		<path class="st1" d="M2075,1483.4h4.4v34.3h-4.4V1483.4z"/>
		<path class="st1" d="M2088.4,1483.4h6.8l18.5,29.1l1.7-1.2c-0.6-0.9-1-1.7-1.3-2.5c-0.3-0.8-0.5-1.6-0.6-2.5
			c-0.1-0.9-0.2-2.1-0.2-3.5v-19.4h4.4v34.3h-5.6l-19.5-30.6l-1.7,1.1c0.7,1.3,1.2,2.7,1.5,4.1c0.3,1.4,0.4,3.1,0.4,5.2v20.2h-4.4
			V1483.4z"/>
		<path class="st1" d="M2126.7,1483.4h7.4l8.1,20.7c0.6,1.4,0.9,2.8,1.2,4c0.2,1.2,0.3,2.7,0.4,4.5h2c0-1.8,0.1-3.3,0.3-4.5
			c0.2-1.2,0.6-2.6,1.2-4l7.9-20.7h7.3v34.3h-4.4v-19.1c0-2.3,0.2-4.3,0.6-6.2c0.4-1.8,0.9-3.6,1.6-5.2l-2-0.7l-12.1,31.2h-3.2
			l-12.3-31.2l-2,0.7c0.7,1.6,1.2,3.3,1.6,5.1c0.4,1.8,0.6,3.9,0.6,6.2v19.1h-4.4V1483.4z"/>
		<path class="st1" d="M2170.3,1497.9h13.5v4.3h-13.5V1497.9z"/>
		<path class="st1" d="M2191.7,1483.4h7.4l8.1,20.7c0.6,1.4,0.9,2.8,1.2,4c0.2,1.2,0.3,2.7,0.4,4.5h2c0-1.8,0.1-3.3,0.3-4.5
			s0.6-2.6,1.2-4l7.9-20.7h7.3v34.3h-4.4v-19.1c0-2.3,0.2-4.3,0.6-6.2c0.4-1.8,0.9-3.6,1.6-5.2l-2-0.7l-12.1,31.2h-3.2l-12.3-31.2
			l-2,0.7c0.7,1.6,1.2,3.3,1.6,5.1c0.4,1.8,0.6,3.9,0.6,6.2v19.1h-4.4V1483.4z"/>
		<path class="st1" d="M2245.6,1483.4h6.1l12.7,34.3h-4.9l-8.5-23.8c-0.5-1.5-0.8-2.7-1.1-3.8s-0.3-2.3-0.3-3.7h-2
			c0,1.4-0.2,2.7-0.4,3.7c-0.2,1.1-0.6,2.3-1.1,3.7l-8.6,23.8h-4.8L2245.6,1483.4z M2240.7,1504.2h15.5l1.5,4h-18.4L2240.7,1504.2z"
			/>
		<path class="st1" d="M2266.6,1497.9h13.5v4.3h-13.5V1497.9z"/>
		<path class="st1" d="M2293.6,1491.3c0.1-0.8,0.4-1.6,0.7-2.5h-2.1c-0.4,1.2-1,2.3-1.8,3.3c-0.8,1-1.7,1.8-2.7,2.4
			c-1,0.6-2.2,1.1-3.5,1.2v-4.6c2.1-0.5,4.1-1.4,5.8-2.8s3.2-3,4.3-5h3.5v34.3h-4.4v-23.5C2293.4,1493,2293.5,1492,2293.6,1491.3z"
			/>
		<path class="st1" d="M2310.3,1517c-1.8-0.9-3.1-2-4-3.5c-0.9-1.4-1.3-3-1.3-4.8c0-1.6,0.4-3,1.1-4.1c0.7-1.2,1.7-2.1,3-2.7
			c1.3-0.7,2.7-1,4.3-1.1v-1.9c-2.2-0.2-4-0.9-5.4-2.2c-1.4-1.3-2.1-3-2.1-5.2c0-1.7,0.4-3.2,1.3-4.6c0.9-1.4,2.2-2.4,3.8-3.2
			c1.7-0.8,3.6-1.2,5.8-1.2c2.2,0,4.1,0.4,5.8,1.2c1.6,0.8,2.9,1.8,3.8,3.2c0.9,1.4,1.4,2.9,1.4,4.6c0,2.2-0.7,3.9-2.1,5.2
			c-1.4,1.3-3.2,2-5.4,2.2v1.9c2.5,0.2,4.5,1,6.1,2.4c1.6,1.4,2.3,3.3,2.3,5.6c0,1.8-0.4,3.4-1.3,4.8c-0.9,1.4-2.2,2.6-4,3.5
			c-1.8,0.9-4,1.3-6.5,1.3C2314.3,1518.3,2312.1,1517.9,2310.3,1517z M2320.8,1513.7c1.1-0.5,1.9-1.2,2.5-2.2s0.9-2,0.9-3.3
			c0-1.2-0.3-2.3-0.9-3.3s-1.5-1.7-2.6-2.2s-2.4-0.8-3.9-0.8c-1.3,0-2.5,0.3-3.7,0.8s-2,1.3-2.7,2.2c-0.7,1-1,2.1-1,3.3
			c0,1.9,0.7,3.4,2,4.5c1.3,1.1,3.1,1.7,5.4,1.7C2318.4,1514.5,2319.7,1514.2,2320.8,1513.7z M2320.3,1497.1c1-0.5,1.8-1.1,2.4-2
			c0.6-0.9,0.9-1.9,0.9-3.1c0-1.6-0.6-3-1.8-4c-1.2-1-2.8-1.6-4.7-1.6c-1.3,0-2.4,0.2-3.4,0.7c-1,0.5-1.8,1.1-2.4,2
			c-0.6,0.9-0.9,1.8-0.9,2.9c0,1.8,0.6,3.2,1.9,4.2c1.2,1,2.8,1.6,4.8,1.6C2318.2,1497.9,2319.3,1497.6,2320.3,1497.1z"/>
		<path class="st1" d="M2340.4,1516.3c-2.1-1.4-3.7-3.4-4.8-6.1s-1.7-6-1.7-9.8c0-3.8,0.6-7,1.8-9.6c1.2-2.7,2.9-4.7,4.9-6
			s4.4-2,6.9-2c2.5,0,4.9,0.7,6.9,2c2.1,1.4,3.7,3.4,4.9,6c1.2,2.7,1.8,5.9,1.8,9.6c0,3.8-0.6,7.1-1.7,9.8c-1.1,2.7-2.7,4.8-4.8,6.1
			c-2,1.4-4.4,2.1-7.1,2.1S2342.5,1517.6,2340.4,1516.3z M2352.4,1512.7c1.4-1.1,2.4-2.7,3.1-4.8c0.7-2.1,1.1-4.6,1.1-7.6
			c0-2.7-0.4-5.2-1.1-7.2c-0.7-2.1-1.8-3.7-3.1-4.8s-2.9-1.7-4.8-1.7s-3.4,0.6-4.8,1.7s-2.4,2.7-3.2,4.8s-1.1,4.5-1.1,7.3
			c0,2.9,0.4,5.5,1.1,7.6c0.7,2.1,1.8,3.7,3.1,4.8c1.4,1.1,3,1.6,4.9,1.6C2349.4,1514.4,2351.1,1513.8,2352.4,1512.7z"/>
	</g>
	<g>
		<path class="st1" d="M2075,1628.4h4.4v34.3h-4.4V1628.4z"/>
		<path class="st1" d="M2088.4,1628.4h6.8l18.5,29.1l1.7-1.2c-0.6-0.9-1-1.7-1.3-2.5c-0.3-0.8-0.5-1.6-0.6-2.5
			c-0.1-0.9-0.2-2.1-0.2-3.5v-19.4h4.4v34.3h-5.6l-19.5-30.6l-1.7,1.1c0.7,1.3,1.2,2.7,1.5,4.1c0.3,1.4,0.4,3.1,0.4,5.2v20.2h-4.4
			V1628.4z"/>
		<path class="st1" d="M2126.7,1628.4h7.4l8.1,20.7c0.6,1.4,0.9,2.8,1.2,4c0.2,1.2,0.3,2.7,0.4,4.5h2c0-1.8,0.1-3.3,0.3-4.5
			c0.2-1.2,0.6-2.6,1.2-4l7.9-20.7h7.3v34.3h-4.4v-19.1c0-2.3,0.2-4.3,0.6-6.2c0.4-1.8,0.9-3.6,1.6-5.2l-2-0.7l-12.1,31.2h-3.2
			l-12.3-31.2l-2,0.7c0.7,1.6,1.2,3.3,1.6,5.1c0.4,1.8,0.6,3.9,0.6,6.2v19.1h-4.4V1628.4z"/>
		<path class="st1" d="M2170.3,1642.9h13.5v4.3h-13.5V1642.9z"/>
		<path class="st1" d="M2198.9,1661.1c-2.6-1.5-4.7-3.6-6.2-6.3c-1.5-2.7-2.2-5.8-2.2-9.3c0-3.5,0.8-6.6,2.3-9.3
			c1.5-2.7,3.6-4.8,6.1-6.3c2.6-1.5,5.5-2.3,8.7-2.3c3.2,0,6.1,0.8,8.7,2.3c2.6,1.5,4.6,3.6,6.1,6.3c1.5,2.7,2.2,5.8,2.2,9.3
			c0,3.5-0.7,6.5-2.2,9.3c-1.5,2.7-3.5,4.8-6.1,6.3c-2.6,1.5-5.5,2.3-8.7,2.3C2204.5,1663.3,2201.5,1662.6,2198.9,1661.1z
			 M2214.2,1657.5c1.9-1.2,3.3-2.9,4.3-4.9c1-2.1,1.5-4.4,1.5-7.1s-0.5-5-1.5-7.1c-1-2.1-2.5-3.7-4.3-4.9c-1.9-1.2-4-1.8-6.5-1.8
			c-2.5,0-4.7,0.6-6.5,1.8c-1.8,1.2-3.3,2.9-4.3,4.9c-1,2.1-1.5,4.4-1.5,7.1s0.5,5,1.5,7.1c1,2.1,2.4,3.7,4.3,4.9
			c1.9,1.2,4,1.8,6.6,1.8C2210.1,1659.3,2212.3,1658.7,2214.2,1657.5z"/>
		<path class="st1" d="M2239,1628.4h6.1l12.7,34.3h-4.9l-8.5-23.8c-0.5-1.5-0.8-2.7-1.1-3.8s-0.3-2.3-0.3-3.7h-2
			c0,1.4-0.2,2.7-0.4,3.7c-0.2,1.1-0.6,2.3-1.1,3.7l-8.6,23.8h-4.8L2239,1628.4z M2234.1,1649.2h15.5l1.5,4h-18.4L2234.1,1649.2z"/>
		<path class="st1" d="M2260,1642.9h13.5v4.3H2260V1642.9z"/>
		<path class="st1" d="M2287,1636.3c0.1-0.8,0.4-1.6,0.7-2.5h-2.1c-0.4,1.2-1,2.3-1.8,3.3c-0.8,1-1.7,1.8-2.7,2.4
			c-1,0.6-2.2,1.1-3.5,1.2v-4.6c2.1-0.5,4.1-1.4,5.8-2.8s3.2-3,4.3-5h3.5v34.3h-4.4v-23.5C2286.8,1638,2286.9,1637,2287,1636.3z"/>
		<path class="st1" d="M2305,1661.3c-2.1-1.4-3.7-3.4-4.8-6.1s-1.7-6-1.7-9.8c0-3.8,0.6-7,1.8-9.6c1.2-2.7,2.9-4.7,4.9-6
			s4.4-2,6.9-2c2.5,0,4.9,0.7,6.9,2c2.1,1.4,3.7,3.4,4.9,6c1.2,2.7,1.8,5.9,1.8,9.6c0,3.8-0.6,7.1-1.7,9.8c-1.1,2.7-2.7,4.8-4.8,6.1
			c-2,1.4-4.4,2.1-7.1,2.1S2307.1,1662.6,2305,1661.3z M2317,1657.7c1.4-1.1,2.4-2.7,3.1-4.8c0.7-2.1,1.1-4.6,1.1-7.6
			c0-2.7-0.4-5.2-1.1-7.2c-0.7-2.1-1.8-3.7-3.1-4.8s-2.9-1.7-4.8-1.7s-3.4,0.6-4.8,1.7s-2.4,2.7-3.2,4.8s-1.1,4.5-1.1,7.3
			c0,2.9,0.4,5.5,1.1,7.6c0.7,2.1,1.8,3.7,3.1,4.8c1.4,1.1,3,1.6,4.9,1.6C2314,1659.4,2315.6,1658.8,2317,1657.7z"/>
		<path class="st1" d="M2337.6,1661.3c-2.1-1.4-3.7-3.4-4.8-6.1c-1.2-2.7-1.7-6-1.7-9.8c0-3.8,0.6-7,1.8-9.6s2.9-4.7,4.9-6
			s4.4-2,6.9-2s4.9,0.7,6.9,2s3.7,3.4,4.9,6s1.8,5.9,1.8,9.6c0,3.8-0.6,7.1-1.7,9.8c-1.1,2.7-2.7,4.8-4.8,6.1s-4.4,2.1-7.1,2.1
			C2342.1,1663.3,2339.7,1662.6,2337.6,1661.3z M2349.6,1657.7c1.4-1.1,2.4-2.7,3.1-4.8c0.7-2.1,1.1-4.6,1.1-7.6
			c0-2.7-0.4-5.2-1.1-7.2s-1.8-3.7-3.1-4.8s-2.9-1.7-4.8-1.7c-1.8,0-3.4,0.6-4.8,1.7c-1.4,1.1-2.4,2.7-3.2,4.8
			c-0.7,2.1-1.1,4.5-1.1,7.3c0,2.9,0.4,5.5,1.1,7.6c0.7,2.1,1.8,3.7,3.1,4.8c1.4,1.1,3,1.6,4.9,1.6
			C2346.6,1659.4,2348.2,1658.8,2349.6,1657.7z"/>
	</g>
	<g>
		<path class="st1" d="M2075,1769.4h4.4v34.3h-4.4V1769.4z"/>
		<path class="st1" d="M2088.4,1769.4h6.8l18.5,29.1l1.7-1.2c-0.6-0.9-1-1.7-1.3-2.5c-0.3-0.8-0.5-1.6-0.6-2.5
			c-0.1-0.9-0.2-2.1-0.2-3.5v-19.4h4.4v34.3h-5.6l-19.5-30.6l-1.7,1.1c0.7,1.3,1.2,2.7,1.5,4.1c0.3,1.4,0.4,3.1,0.4,5.2v20.2h-4.4
			V1769.4z"/>
		<path class="st1" d="M2126.7,1769.4h7.4l8.1,20.7c0.6,1.4,0.9,2.8,1.2,4c0.2,1.2,0.3,2.7,0.4,4.5h2c0-1.8,0.1-3.3,0.3-4.5
			c0.2-1.2,0.6-2.6,1.2-4l7.9-20.7h7.3v34.3h-4.4v-19.1c0-2.3,0.2-4.3,0.6-6.2c0.4-1.8,0.9-3.6,1.6-5.2l-2-0.7l-12.1,31.2h-3.2
			l-12.3-31.2l-2,0.7c0.7,1.6,1.2,3.3,1.6,5.1c0.4,1.8,0.6,3.9,0.6,6.2v19.1h-4.4V1769.4z"/>
		<path class="st1" d="M2170.3,1783.9h13.5v4.3h-13.5V1783.9z"/>
		<path class="st1" d="M2191.7,1769.4h14.3c2.3,0,4.2,0.4,5.9,1.2c1.7,0.8,2.9,1.9,3.8,3.3s1.3,3,1.3,4.8c0,1.8-0.4,3.2-1.2,4.3
			c-0.8,1.1-1.9,2-3.1,2.5c-1.3,0.5-2.6,0.9-4.1,1v1.9c1.6,0,2.8,0.3,3.8,0.7c1,0.5,1.7,1.1,2.3,2.1c0.6,0.9,1,2.1,1.3,3.7l1.8,8.8
			h-4.8l-1.5-8.4c-0.3-1.5-0.7-2.6-1.3-3.5c-0.6-0.9-1.4-1.5-2.4-1.9c-1-0.4-2.3-0.6-3.9-0.6h-8v-4h9.7c2.1,0,3.8-0.5,5-1.5
			c1.3-1,1.9-2.5,1.9-4.4c0-2-0.6-3.4-1.9-4.4c-1.3-1-3-1.5-5-1.5h-9.8l0.6-0.7v30.9h-4.4V1769.4z"/>
		<path class="st1" d="M2234.4,1769.4h6.1l12.7,34.3h-4.9l-8.5-23.8c-0.5-1.5-0.8-2.7-1.1-3.8s-0.3-2.3-0.3-3.7h-2
			c0,1.4-0.2,2.7-0.4,3.7c-0.2,1.1-0.6,2.3-1.1,3.7l-8.6,23.8h-4.8L2234.4,1769.4z M2229.5,1790.2h15.5l1.5,4H2228L2229.5,1790.2z"
			/>
		<path class="st1" d="M2255.4,1783.9h13.5v4.3h-13.5V1783.9z"/>
		<path class="st1" d="M2282.4,1777.3c0.1-0.8,0.4-1.6,0.7-2.5h-2.1c-0.4,1.2-1,2.3-1.8,3.3c-0.8,1-1.7,1.8-2.7,2.4
			c-1,0.6-2.2,1.1-3.5,1.2v-4.6c2.1-0.5,4.1-1.4,5.8-2.8c1.8-1.3,3.2-3,4.3-5h3.5v34.3h-4.4v-23.5
			C2282.2,1779,2282.2,1778,2282.4,1777.3z"/>
		<path class="st1" d="M2300.4,1802.3c-2.1-1.4-3.7-3.4-4.8-6.1c-1.2-2.7-1.7-6-1.7-9.8c0-3.8,0.6-7,1.8-9.6c1.2-2.7,2.9-4.7,4.9-6
			c2.1-1.4,4.4-2,6.9-2s4.9,0.7,6.9,2c2.1,1.4,3.7,3.4,4.9,6c1.2,2.7,1.8,5.9,1.8,9.6c0,3.8-0.6,7.1-1.7,9.8
			c-1.1,2.7-2.7,4.8-4.8,6.1c-2,1.4-4.4,2.1-7.1,2.1C2304.9,1804.3,2302.5,1803.6,2300.4,1802.3z M2312.4,1798.7
			c1.4-1.1,2.4-2.7,3.1-4.8s1.1-4.6,1.1-7.6c0-2.7-0.4-5.2-1.1-7.2c-0.7-2.1-1.8-3.7-3.1-4.8c-1.4-1.1-2.9-1.7-4.8-1.7
			c-1.8,0-3.4,0.6-4.8,1.7c-1.4,1.1-2.4,2.7-3.2,4.8c-0.7,2.1-1.1,4.5-1.1,7.3c0,2.9,0.4,5.5,1.1,7.6s1.8,3.7,3.1,4.8
			c1.4,1.1,3,1.6,4.9,1.6C2309.4,1800.4,2311,1799.8,2312.4,1798.7z"/>
		<path class="st1" d="M2333,1802.3c-2.1-1.4-3.7-3.4-4.8-6.1c-1.2-2.7-1.7-6-1.7-9.8c0-3.8,0.6-7,1.8-9.6c1.2-2.7,2.9-4.7,4.9-6
			c2.1-1.4,4.4-2,6.9-2s4.9,0.7,6.9,2c2.1,1.4,3.7,3.4,4.9,6c1.2,2.7,1.8,5.9,1.8,9.6c0,3.8-0.6,7.1-1.7,9.8
			c-1.1,2.7-2.7,4.8-4.8,6.1c-2,1.4-4.4,2.1-7.1,2.1C2337.4,1804.3,2335.1,1803.6,2333,1802.3z M2345,1798.7
			c1.4-1.1,2.4-2.7,3.1-4.8s1.1-4.6,1.1-7.6c0-2.7-0.4-5.2-1.1-7.2c-0.7-2.1-1.8-3.7-3.1-4.8c-1.4-1.1-2.9-1.7-4.8-1.7
			c-1.8,0-3.4,0.6-4.8,1.7c-1.4,1.1-2.4,2.7-3.2,4.8c-0.7,2.1-1.1,4.5-1.1,7.3c0,2.9,0.4,5.5,1.1,7.6s1.8,3.7,3.1,4.8
			c1.4,1.1,3,1.6,4.9,1.6C2342,1800.4,2343.6,1799.8,2345,1798.7z"/>
	</g>
	<g>
		<path class="st1" d="M2075,1911.4h4.4v34.3h-4.4V1911.4z"/>
		<path class="st1" d="M2088.4,1911.4h6.8l18.5,29.1l1.7-1.2c-0.6-0.9-1-1.7-1.3-2.5c-0.3-0.8-0.5-1.6-0.6-2.5
			c-0.1-0.9-0.2-2.1-0.2-3.5v-19.4h4.4v34.3h-5.6l-19.5-30.6l-1.7,1.1c0.7,1.3,1.2,2.7,1.5,4.1c0.3,1.4,0.4,3.1,0.4,5.2v20.2h-4.4
			V1911.4z"/>
		<path class="st1" d="M2126.7,1911.4h7.4l8.1,20.7c0.6,1.4,0.9,2.8,1.2,4c0.2,1.2,0.3,2.7,0.4,4.5h2c0-1.8,0.1-3.3,0.3-4.5
			c0.2-1.2,0.6-2.6,1.2-4l7.9-20.7h7.3v34.3h-4.4v-19.1c0-2.3,0.2-4.3,0.6-6.2c0.4-1.8,0.9-3.6,1.6-5.2l-2-0.7l-12.1,31.2h-3.2
			l-12.3-31.2l-2,0.7c0.7,1.6,1.2,3.3,1.6,5.1c0.4,1.8,0.6,3.9,0.6,6.2v19.1h-4.4V1911.4z"/>
		<path class="st1" d="M2170.3,1925.9h13.5v4.3h-13.5V1925.9z"/>
		<path class="st1" d="M2191.7,1911.4h11.5c3.3,0,6.2,0.7,8.7,2.1c2.5,1.4,4.5,3.4,5.9,6c1.4,2.6,2.1,5.6,2.1,9c0,3.6-0.7,6.6-2,9.2
			c-1.4,2.6-3.3,4.6-5.8,6c-2.5,1.4-5.5,2.1-8.9,2.1h-11.3V1911.4z M2195.6,1941.6h6.7c2.9,0,5.3-0.5,7.2-1.5c1.9-1,3.3-2.5,4.3-4.4
			s1.4-4.4,1.4-7.2c0-2.6-0.5-4.9-1.4-6.9s-2.4-3.4-4.2-4.5s-4.2-1.6-6.9-1.6h-7l0.4-0.4v27L2195.6,1941.6z"/>
		<path class="st1" d="M2226.7,1911.4h14.3c2.3,0,4.2,0.4,5.9,1.2c1.6,0.8,2.9,1.9,3.8,3.3s1.3,3,1.3,4.8c0,1.8-0.4,3.2-1.2,4.3
			s-1.9,2-3.1,2.5c-1.3,0.5-2.6,0.9-4.1,1v1.9c1.6,0,2.8,0.3,3.8,0.7c1,0.5,1.7,1.1,2.3,2.1c0.6,0.9,1,2.1,1.3,3.7l1.8,8.8h-4.8
			l-1.5-8.4c-0.3-1.5-0.7-2.6-1.3-3.5c-0.6-0.9-1.4-1.5-2.4-1.9c-1-0.4-2.3-0.6-3.9-0.6h-8v-4h9.7c2.1,0,3.8-0.5,5-1.5
			c1.3-1,1.9-2.5,1.9-4.4c0-2-0.6-3.4-1.9-4.4c-1.3-1-3-1.5-5-1.5h-9.8l0.6-0.7v30.9h-4.4V1911.4z"/>
		<path class="st1" d="M2257.1,1925.9h13.5v4.3h-13.5V1925.9z"/>
		<path class="st1" d="M2284.1,1919.3c0.1-0.8,0.4-1.6,0.7-2.5h-2.1c-0.4,1.2-1,2.3-1.8,3.3c-0.8,1-1.7,1.8-2.7,2.4
			c-1,0.6-2.2,1.1-3.5,1.2v-4.6c2.1-0.5,4.1-1.4,5.8-2.8c1.8-1.3,3.2-3,4.3-5h3.5v34.3h-4.4v-23.5
			C2283.9,1921,2284,1920,2284.1,1919.3z"/>
		<path class="st1" d="M2302.1,1944.3c-2.1-1.4-3.7-3.4-4.8-6.1c-1.2-2.7-1.7-6-1.7-9.8c0-3.8,0.6-7,1.8-9.6s2.9-4.7,4.9-6
			c2.1-1.4,4.4-2,6.9-2c2.5,0,4.9,0.7,6.9,2c2.1,1.4,3.7,3.4,4.9,6c1.2,2.7,1.8,5.9,1.8,9.6c0,3.8-0.6,7.1-1.7,9.8
			c-1.1,2.7-2.7,4.8-4.8,6.1c-2,1.4-4.4,2.1-7.1,2.1C2306.6,1946.3,2304.2,1945.6,2302.1,1944.3z M2314.1,1940.7
			c1.4-1.1,2.4-2.7,3.1-4.8c0.7-2.1,1.1-4.6,1.1-7.6c0-2.7-0.4-5.2-1.1-7.2c-0.7-2.1-1.8-3.7-3.1-4.8c-1.4-1.1-2.9-1.7-4.8-1.7
			c-1.8,0-3.4,0.6-4.8,1.7c-1.4,1.1-2.4,2.7-3.2,4.8c-0.7,2.1-1.1,4.5-1.1,7.3c0,2.9,0.4,5.5,1.1,7.6c0.7,2.1,1.8,3.7,3.1,4.8
			c1.4,1.1,3,1.6,4.9,1.6C2311.2,1942.4,2312.8,1941.8,2314.1,1940.7z"/>
		<path class="st1" d="M2334.7,1944.3c-2.1-1.4-3.7-3.4-4.8-6.1c-1.2-2.7-1.7-6-1.7-9.8c0-3.8,0.6-7,1.8-9.6s2.9-4.7,4.9-6
			c2.1-1.4,4.4-2,6.9-2c2.5,0,4.9,0.7,6.9,2c2.1,1.4,3.7,3.4,4.9,6c1.2,2.7,1.8,5.9,1.8,9.6c0,3.8-0.6,7.1-1.7,9.8
			c-1.1,2.7-2.7,4.8-4.8,6.1c-2,1.4-4.4,2.1-7.1,2.1C2339.2,1946.3,2336.8,1945.6,2334.7,1944.3z M2346.7,1940.7
			c1.4-1.1,2.4-2.7,3.1-4.8c0.7-2.1,1.1-4.6,1.1-7.6c0-2.7-0.4-5.2-1.1-7.2c-0.7-2.1-1.8-3.7-3.1-4.8c-1.4-1.1-2.9-1.7-4.8-1.7
			c-1.8,0-3.4,0.6-4.8,1.7c-1.4,1.1-2.4,2.7-3.2,4.8c-0.7,2.1-1.1,4.5-1.1,7.3c0,2.9,0.4,5.5,1.1,7.6c0.7,2.1,1.8,3.7,3.1,4.8
			c1.4,1.1,3,1.6,4.9,1.6C2343.7,1942.4,2345.4,1941.8,2346.7,1940.7z"/>
	</g>
</g>
</svg>
