<?xml version="1.0" encoding="utf-8"?>
<!-- Generator: Adobe Illustrator 22.0.0, SVG Export Plug-In . SVG Version: 6.00 Build 0)  -->
<svg version="1.1" id="Layer_1" xmlns="http://www.w3.org/2000/svg" xmlns:xlink="http://www.w3.org/1999/xlink" x="0px" y="0px"
	 viewBox="0 0 3000 2000" style="enable-background:new 0 0 3000 2000;" xml:space="preserve">
<style type="text/css">
	.st0{fill:#E7E7E7;}
	.st1{opacity:0.2;fill:none;stroke:#031F30;stroke-width:2;stroke-miterlimit:10;}
	.st2{fill:#031F30;}
	.st3{fill:none;}
	.st4{fill:#011523;}
</style>
<rect class="st0" width="3000" height="2000"/>
<line class="st1" x1="0" y1="1165" x2="3000" y2="1165"/>
<line class="st1" x1="0" y1="953.8" x2="3000" y2="953.8"/>
<path class="st2" d="M1210.4,980.8V1138c10.6,10.6,16.5,16.5,27.1,27.1h248.9c10.6-10.6,16.5-16.5,27.1-27.1V980.8
	c-10.6-10.6-16.5-16.5-27.1-27.1h-248.9C1226.9,964.3,1221,970.3,1210.4,980.8z M1308.7,1076.9l12.8,14.1l4,3.5h72.9l4-3.5
	l12.8-14.1l62.6,66.5h-231.7L1308.7,1076.9z M1232.1,1126.7V992.6l62,68.2L1232.1,1126.7z M1429.8,1060.8l62-68.2v134.1
	L1429.8,1060.8z M1478.2,975.4l-88.5,97.4h-55.4l-88.5-97.4H1478.2z"/>
<polygon class="st3" points="2543.9,1002.7 2601.8,1002.7 2543.9,944.8 "/>
<path class="st2" d="M2605.1,1143.4v57.9h-172.8V929.5h90v94.8h105.6h0v-26.1l-84-84l-6.3-6.3h-15.3h-84.6
	c-10.6,10.6-16.5,16.5-27.1,27.1v260.9c10.6,10.6,16.5,16.5,27.1,27.1h162c10.6-10.6,16.5-16.5,27.1-27.1v-52.5H2605.1z
	 M2543.9,944.8l57.9,57.9h-57.9V944.8z"/>
<g>
	<path class="st2" d="M2522.3,1050.3h30.8c4.5,0,8.6,0.9,12.2,2.6c3.6,1.7,6.5,4.2,8.6,7.5c2.1,3.3,3.1,7.1,3.1,11.5
		c0,4.4-1,8.2-3.1,11.5c-2.1,3.3-4.9,5.7-8.6,7.5c-3.6,1.7-7.7,2.6-12.2,2.6h-13.6v21.2h-17.2V1050.3z M2554.9,1079.2
		c1.4-0.6,2.5-1.6,3.3-2.9c0.8-1.3,1.2-2.7,1.2-4.4c0-1.6-0.4-3-1.2-4.2c-0.8-1.2-1.9-2.2-3.4-2.8s-3.2-1-5.1-1h-10.4v16.2h10.4
		C2551.8,1080.1,2553.5,1079.8,2554.9,1079.2z"/>
	<path class="st2" d="M2584.2,1050.3h26.2c6.6,0,12.5,1.3,17.7,3.8c5.2,2.5,9.4,6.2,12.4,11c3,4.8,4.5,10.5,4.5,17
		c0,6.6-1.5,12.3-4.5,17.2c-3,4.9-7.1,8.7-12.3,11.4c-5.2,2.6-11,4-17.4,4h-26.6V1050.3z M2600.7,1100.9h8.8c3.8,0,7-0.7,9.6-2.1
		c2.6-1.4,4.5-3.5,5.8-6.3c1.3-2.8,1.9-6.2,1.9-10.2c0-3.7-0.6-6.9-1.9-9.7c-1.3-2.8-3.2-4.9-5.7-6.3c-2.5-1.5-5.6-2.2-9.2-2.2h-9.3
		l0.8-0.8v38.5L2600.7,1100.9z"/>
	<path class="st2" d="M2653.1,1050.3h50.5v13.9h-34.1l0.8-0.8v51.3h-17.2V1050.3z M2668.8,1078.6h28.4v13.4h-28.4V1078.6z"/>
</g>
<g>
	<rect x="1848.6" y="910.3" class="st3" width="167.8" height="43.3"/>
	<polygon class="st3" points="1827,975.2 1802.7,975.2 1802.7,1143.2 1827,1143.2 1827,1088.9 2038,1088.9 2038,1143.2 
		2062.4,1143.2 2062.4,975.2 2038,975.2 	"/>
	<path class="st2" d="M2057,953.6H2038v-37.9c-10.6-10.6-16.5-16.5-27.1-27.1h-156.9c-10.6,10.6-16.5,16.5-27.1,27.1v37.9h-18.9
		c-10.6,10.6-16.5,16.5-27.1,27.1v184.2h46v32.2c10.6,10.6,16.5,16.5,27.1,27.1H2011c10.6-10.6,16.5-16.5,27.1-27.1v-32.2h46V980.6
		C2073.5,970.1,2067.6,964.2,2057,953.6z M1848.6,910.3h167.8v43.3h-167.8V910.3z M2016.4,1202.5h-167.8v-92h167.8V1202.5z
		 M2062.4,1143.2H2038v-54.3h-211v54.3h-24.4v-168h24.4h211h24.4V1143.2z"/>
</g>
<g>
	<path class="st4" d="M415.6,1165h-92.7c-10.4-10.4-16.2-16.2-26.5-26.5V980.3c10.4-10.4,16.2-16.2,26.5-26.5h92.7
		c10.4,10.4,16.2,16.2,26.5,26.5v158.2C431.8,1148.9,426,1154.7,415.6,1165z M318.5,1142.9H420V975.8H318.5V1142.9z"/>
</g>
<g>
	<path class="st4" d="M595.4,1165h-92.7c-10.4-10.4-16.2-16.2-26.5-26.5V806.2c10.4-10.4,16.2-16.2,26.5-26.5h92.7
		c10.4,10.4,16.2,16.2,26.5,26.5v332.3C611.6,1148.9,605.8,1154.7,595.4,1165z M498.3,1142.9h101.5V801.8H498.3V1142.9z"/>
</g>
<g>
	<path class="st4" d="M775.2,1165h-92.7c-10.4-10.4-16.2-16.2-26.5-26.5v-266c10.4-10.4,16.2-16.2,26.5-26.5h92.7
		c10.4,10.4,16.2,16.2,26.5,26.5v266C791.4,1148.9,785.6,1154.7,775.2,1165z M678.1,1142.9h101.5V868.1H678.1V1142.9z"/>
</g>
<g>
	<path class="st4" d="M955,1165h-92.7c-10.4-10.4-16.2-16.2-26.5-26.5V726.6c10.4-10.4,16.2-16.2,26.5-26.5H955
		c10.4,10.4,16.2,16.2,26.5,26.5v411.9C971.2,1148.9,965.4,1154.7,955,1165z M857.9,1142.9h101.5V722.2H857.9V1142.9z"/>
</g>
<line class="st1" x1="0" y1="700.1" x2="3000" y2="700.1"/>
<line class="st1" x1="0" y1="1224.2" x2="3000" y2="1224.2"/>
<line class="st1" x1="296" y1="700" x2="296" y2="1224"/>
<line class="st1" x1="981.6" y1="700.1" x2="981.6" y2="1224.1"/>
<line class="st1" x1="296" y1="700" x2="296" y2="1224"/>
<line class="st1" x1="835.8" y1="700.1" x2="835.8" y2="1224.1"/>
<line class="st1" x1="801.8" y1="700.1" x2="801.8" y2="1224.1"/>
<line class="st1" x1="656" y1="700.1" x2="656" y2="1224.1"/>
<line class="st1" x1="621.9" y1="700.1" x2="621.9" y2="1224.1"/>
<line class="st1" x1="476.2" y1="700.1" x2="476.2" y2="1224.1"/>
<line class="st1" x1="442.1" y1="700.1" x2="442.1" y2="1224.1"/>
<line class="st1" x1="1210.4" y1="700.1" x2="1210.4" y2="1224.1"/>
<line class="st1" x1="1513.4" y1="700.1" x2="1513.4" y2="1224.1"/>
<line class="st1" x1="1781" y1="700.1" x2="1781" y2="1224.1"/>
<line class="st1" x1="2084" y1="700.1" x2="2084" y2="1224.1"/>
<line class="st1" x1="1826" y1="700.1" x2="1826" y2="1224.1"/>
<line class="st1" x1="2039" y1="700.1" x2="2039" y2="1224.1"/>
<line class="st1" x1="2410.6" y1="700.1" x2="2410.6" y2="1224.1"/>
<line class="st1" x1="2522" y1="700.1" x2="2522" y2="1224.1"/>
<line class="st1" x1="2703.6" y1="700.1" x2="2703.6" y2="1224.1"/>
<line class="st1" x1="2627" y1="700.1" x2="2627" y2="1224.1"/>
<g>
	<g>
		<path class="st4" d="M320.2,1356h1.8v12.9h-1.8V1356z"/>
		<path class="st4" d="M325.7,1356h2.8l6.7,10.6l0.7-0.5c-0.2-0.4-0.4-0.7-0.5-1c-0.1-0.3-0.2-0.6-0.3-1c0-0.4-0.1-0.8-0.1-1.4v-6.8
			h1.8v12.9h-2.3l-7.2-11.3l-0.7,0.4c0.3,0.5,0.5,1.1,0.6,1.6c0.1,0.6,0.2,1.3,0.2,2.1v7.2h-1.8V1356z"/>
		<path class="st4" d="M340.6,1356h3.1l2.9,7.4c0.2,0.6,0.4,1.1,0.4,1.6s0.1,1.1,0.1,1.8h0.8c0-0.7,0.1-1.3,0.1-1.8s0.2-1,0.5-1.6
			l2.8-7.4h3v12.9h-1.8v-6.7c0-0.9,0.1-1.7,0.2-2.5s0.4-1.5,0.7-2.1l-0.8-0.3l-4.5,11.6h-1.3l-4.5-11.6l-0.8,0.3
			c0.3,0.6,0.5,1.3,0.7,2.1c0.2,0.8,0.2,1.6,0.2,2.5v6.7h-1.8V1356z"/>
		<path class="st4" d="M362.3,1356h1.8v12.9h-1.8V1356z"/>
		<path class="st4" d="M370,1368.3c-1-0.6-1.7-1.4-2.2-2.4c-0.5-1-0.7-2.2-0.7-3.5c0-1.2,0.3-2.4,0.8-3.4s1.3-1.8,2.2-2.4
			c1-0.6,2-0.9,3.3-0.9c1,0,2,0.2,2.7,0.6c0.8,0.4,1.4,0.8,1.9,1.4s0.8,1.2,1,1.8l-1.8,0.7c-0.1-0.5-0.4-0.9-0.7-1.3
			s-0.7-0.8-1.2-1.1c-0.5-0.3-1.2-0.4-1.9-0.4c-0.9,0-1.6,0.2-2.3,0.6c-0.7,0.4-1.2,1-1.5,1.7c-0.4,0.7-0.5,1.6-0.5,2.6
			c0,1,0.2,1.9,0.5,2.7c0.4,0.8,0.9,1.4,1.5,1.8c0.7,0.4,1.4,0.7,2.3,0.7c1.1,0,2-0.3,2.6-0.8c0.6-0.5,1-1.2,1.3-2.1l1.8,0.7
			c-0.2,0.7-0.6,1.4-1.1,2c-0.5,0.6-1.1,1.1-1.9,1.4c-0.8,0.3-1.7,0.5-2.7,0.5C372,1369.2,370.9,1368.9,370,1368.3z"/>
		<path class="st4" d="M384,1368.3c-1-0.6-1.8-1.3-2.3-2.4s-0.8-2.2-0.8-3.5s0.3-2.5,0.8-3.5c0.6-1,1.3-1.8,2.3-2.4s2.1-0.8,3.3-0.8
			s2.3,0.3,3.3,0.8c1,0.6,1.7,1.4,2.3,2.4c0.6,1,0.8,2.2,0.8,3.5s-0.3,2.5-0.8,3.5c-0.6,1-1.3,1.8-2.3,2.4c-1,0.6-2.1,0.8-3.3,0.8
			S385,1368.9,384,1368.3z M389.7,1366.8c0.7-0.4,1.2-1,1.6-1.8c0.4-0.8,0.5-1.6,0.5-2.6s-0.2-1.8-0.5-2.6c-0.4-0.8-0.9-1.4-1.6-1.8
			c-0.7-0.4-1.5-0.7-2.4-0.7c-0.9,0-1.7,0.2-2.4,0.7c-0.7,0.4-1.2,1-1.6,1.8c-0.4,0.8-0.5,1.6-0.5,2.6s0.2,1.8,0.5,2.6
			c0.4,0.8,0.9,1.4,1.6,1.8c0.7,0.4,1.5,0.7,2.4,0.7C388.2,1367.5,389,1367.3,389.7,1366.8z"/>
		<path class="st4" d="M396.6,1356h2.8l6.7,10.6l0.7-0.5c-0.2-0.4-0.4-0.7-0.5-1c-0.1-0.3-0.2-0.6-0.3-1c0-0.4-0.1-0.8-0.1-1.4v-6.8
			h1.8v12.9h-2.3l-7.2-11.3l-0.7,0.4c0.3,0.5,0.5,1.1,0.6,1.6c0.1,0.6,0.2,1.3,0.2,2.1v7.2h-1.8V1356z"/>
		<path class="st4" d="M413.1,1368.7c-0.7-0.3-1.3-0.7-1.8-1.3s-0.8-1.1-1-1.8l1.8-0.8c0.2,0.5,0.4,1,0.7,1.4c0.3,0.4,0.7,0.7,1.2,1
			c0.5,0.2,1,0.4,1.7,0.4c0.9,0,1.5-0.2,2-0.6s0.7-0.9,0.7-1.5c0-0.5-0.2-1-0.6-1.3s-1-0.6-1.8-0.8l-1.7-0.4
			c-0.7-0.1-1.3-0.4-1.8-0.7s-0.9-0.7-1.2-1.1c-0.3-0.5-0.4-1.1-0.4-1.8c0-0.7,0.2-1.3,0.6-1.9s0.9-1,1.6-1.3
			c0.7-0.3,1.5-0.5,2.3-0.5c0.9,0,1.6,0.2,2.3,0.5c0.6,0.3,1.2,0.7,1.6,1.2c0.4,0.5,0.7,0.9,0.8,1.4l-1.7,0.8
			c-0.1-0.4-0.3-0.7-0.5-1c-0.2-0.3-0.6-0.6-1-0.8c-0.4-0.2-0.9-0.3-1.6-0.3c-0.5,0-1,0.1-1.3,0.2c-0.4,0.2-0.7,0.4-0.9,0.7
			c-0.2,0.3-0.3,0.6-0.3,1c0,0.5,0.2,0.9,0.5,1.2c0.3,0.3,0.8,0.5,1.6,0.7l1.8,0.4c1.1,0.2,2,0.7,2.7,1.3c0.7,0.6,1,1.4,1,2.4
			c0,0.8-0.2,1.4-0.6,2s-0.9,1-1.6,1.4c-0.7,0.3-1.6,0.5-2.6,0.5C414.7,1369.2,413.9,1369,413.1,1368.7z"/>
		<path class="st4" d="M320.2,1376.1h8.6v1.7H322v11.2h-1.8V1376.1z"/>
		<path class="st4" d="M331,1376.1h5.2c0.9,0,1.7,0.2,2.3,0.5c0.6,0.3,1.1,0.8,1.5,1.4c0.3,0.6,0.5,1.3,0.5,2c0,0.8-0.2,1.5-0.5,2.1
			c-0.3,0.6-0.8,1-1.5,1.4c-0.6,0.3-1.4,0.5-2.3,0.5h-3.4v5H331V1376.1z M337.3,1382.1c0.4-0.2,0.7-0.5,0.9-0.8
			c0.2-0.3,0.3-0.8,0.3-1.2c0-0.5-0.1-0.8-0.3-1.2c-0.2-0.3-0.5-0.6-0.9-0.8c-0.4-0.2-0.9-0.3-1.5-0.3h-3v4.6h3
			C336.4,1382.4,336.9,1382.3,337.3,1382.1z"/>
		<path class="st4" d="M345.4,1376.1h2.5l4.7,12.9h-2.1l-3-8.6c-0.2-0.6-0.4-1.1-0.4-1.5c-0.1-0.4-0.1-0.9-0.1-1.5h-0.8
			c0,0.6-0.1,1.1-0.2,1.5c-0.1,0.4-0.2,0.9-0.5,1.5l-3.1,8.6h-2L345.4,1376.1z M343.8,1383.9h5.7l0.6,1.7h-6.9L343.8,1383.9z"/>
		<path class="st4" d="M356.5,1387.3c-1-0.5-1.7-1.2-2.2-2s-0.7-1.7-0.7-2.7c0-1,0.2-1.9,0.7-2.7s1.2-1.5,2.2-2
			c1-0.5,2.2-0.8,3.6-0.9v-1.4h1.8v1.4c1.4,0.1,2.6,0.3,3.6,0.9c1,0.5,1.7,1.2,2.2,2s0.7,1.7,0.7,2.7c0,1-0.2,1.9-0.7,2.7
			s-1.2,1.5-2.2,2c-1,0.5-2.2,0.8-3.6,0.9v1.4h-1.8v-1.4C358.7,1388.1,357.5,1387.8,356.5,1387.3z M360.2,1379.6
			c0.1-0.3,0.3-0.6,0.6-0.8l-0.3-0.7c-1,0.1-1.9,0.3-2.6,0.7c-0.7,0.4-1.3,0.9-1.7,1.5c-0.4,0.6-0.6,1.4-0.6,2.2
			c0,0.7,0.2,1.4,0.5,1.9c0.3,0.6,0.8,1,1.5,1.4c0.7,0.4,1.5,0.6,2.5,0.6v-5.6C360.1,1380.3,360.1,1379.9,360.2,1379.6z
			 M361.8,1385.6c-0.1,0.3-0.3,0.6-0.6,0.8l0.3,0.7c1-0.1,1.9-0.3,2.6-0.7c0.7-0.4,1.3-0.9,1.7-1.5c0.4-0.6,0.6-1.4,0.6-2.2
			c0-0.7-0.2-1.4-0.5-1.9c-0.3-0.6-0.8-1-1.5-1.4s-1.5-0.6-2.5-0.6v5.6C361.9,1384.8,361.9,1385.3,361.8,1385.6z"/>
		<path class="st4" d="M371.2,1376.1h1.8v7.6c0,0.8-0.1,1.4-0.2,1.9c-0.1,0.5-0.3,1-0.7,1.5l0.7,0.5l6.9-11.5h2.7v12.9h-1.8v-7.6
			c0-0.8,0.1-1.4,0.2-1.9s0.3-1,0.7-1.5l-0.7-0.5l-6.9,11.5h-2.7V1376.1z"/>
		<path class="st4" d="M386.1,1376.1h1.8v6.3h0.7c0-0.4,0.1-0.8,0.3-1.2c0.2-0.3,0.5-0.8,1-1.4l3.5-3.8h2.5l-5.6,5.7l-0.4,0.4
			l-2.7,2.8l0.6-1.3v5.3h-1.8V1376.1z M389.3,1382.3l1.3-1.3l6.4,7.9h-2.4L389.3,1382.3z"/>
		<path class="st4" d="M404.8,1388.4c-1-0.6-1.7-1.4-2.2-2.4c-0.5-1-0.7-2.2-0.7-3.5c0-1.2,0.3-2.4,0.8-3.4s1.3-1.8,2.2-2.4
			c1-0.6,2-0.9,3.3-0.9c1,0,2,0.2,2.7,0.6c0.8,0.4,1.4,0.8,1.9,1.4s0.8,1.2,1,1.8l-1.8,0.7c-0.1-0.5-0.4-0.9-0.7-1.3
			s-0.7-0.8-1.2-1.1c-0.5-0.3-1.2-0.4-1.9-0.4c-0.9,0-1.6,0.2-2.3,0.6c-0.7,0.4-1.2,1-1.5,1.7c-0.4,0.7-0.5,1.6-0.5,2.6
			c0,1,0.2,1.9,0.5,2.7c0.4,0.8,0.9,1.4,1.5,1.8c0.7,0.4,1.4,0.7,2.3,0.7c1.1,0,2-0.3,2.6-0.8c0.6-0.5,1-1.2,1.3-2.1l1.8,0.7
			c-0.2,0.7-0.6,1.4-1.1,2c-0.5,0.6-1.1,1.1-1.9,1.4c-0.8,0.3-1.7,0.5-2.7,0.5C406.8,1389.3,405.7,1389,404.8,1388.4z"/>
		<path class="st4" d="M419.3,1377.6l0.3,0.3h-4.9v-1.7h11.1v1.7h-4.9l0.2-0.3v11.4h-1.8V1377.6z"/>
		<path class="st4" d="M429.6,1388.4c-1-0.6-1.8-1.3-2.3-2.4s-0.8-2.2-0.8-3.5s0.3-2.5,0.8-3.5c0.6-1,1.3-1.8,2.3-2.4
			s2.1-0.8,3.3-0.8s2.3,0.3,3.3,0.8c1,0.6,1.7,1.4,2.3,2.4c0.6,1,0.8,2.2,0.8,3.5s-0.3,2.5-0.8,3.5c-0.6,1-1.3,1.8-2.3,2.4
			c-1,0.6-2.1,0.8-3.3,0.8S430.6,1389,429.6,1388.4z M435.3,1386.9c0.7-0.4,1.2-1,1.6-1.8c0.4-0.8,0.5-1.6,0.5-2.6s-0.2-1.8-0.5-2.6
			c-0.4-0.8-0.9-1.4-1.6-1.8c-0.7-0.4-1.5-0.7-2.4-0.7c-0.9,0-1.7,0.2-2.4,0.7c-0.7,0.4-1.2,1-1.6,1.8c-0.4,0.8-0.5,1.6-0.5,2.6
			s0.2,1.8,0.5,2.6c0.4,0.8,0.9,1.4,1.6,1.8c0.7,0.4,1.5,0.7,2.4,0.7C433.9,1387.6,434.7,1387.4,435.3,1386.9z"/>
		<path class="st4" d="M440.4,1387.3h0.6c0.4,0,0.6,0,0.9-0.1c0.2-0.1,0.4-0.2,0.6-0.4c0.1-0.2,0.3-0.4,0.3-0.7
			c0.1-0.5,0.2-1.2,0.2-2.1c0-0.9,0.1-2,0.1-3.3l0.1-4.6h9.1v12.9h-1.8v-11.2h-5.5l-0.1,3.5c0,1.3-0.1,2.4-0.1,3.2
			c-0.1,0.8-0.2,1.5-0.3,2.1c-0.1,0.6-0.3,1-0.6,1.3c-0.3,0.3-0.6,0.6-1,0.8c-0.4,0.2-1,0.2-1.7,0.2h-0.8V1387.3z"/>
		<path class="st4" d="M456.1,1376.1h9v1.7h-7.2v11.1h-1.8V1376.1z M456.1,1387.3h5.1c0.9,0,1.6-0.2,2-0.7c0.5-0.4,0.7-1,0.7-1.7
			c0-0.5-0.1-0.8-0.3-1.2c-0.2-0.3-0.5-0.6-0.9-0.8s-0.9-0.3-1.5-0.3h-5.1v-1.6h5.4c0.9,0,1.7,0.2,2.3,0.5c0.7,0.3,1.2,0.8,1.5,1.4
			s0.5,1.2,0.5,2c0,0.8-0.2,1.5-0.5,2.1s-0.8,1.1-1.5,1.4c-0.7,0.3-1.4,0.5-2.3,0.5h-5.4V1387.3z"/>
		<path class="st4" d="M468.6,1376.1h1.8v11.2h6.3v-11.2h1.8v12.9h-10V1376.1z M478.9,1389h-1.2l-0.9-1.7h3.8v4.1h-1.7V1389z"/>
		<path class="st4" d="M483.1,1376.1h1.8v4.6h2.9c0.9,0,1.8,0.2,2.4,0.5c0.7,0.3,1.2,0.8,1.6,1.4c0.4,0.6,0.5,1.3,0.5,2.1
			c0,0.9-0.2,1.6-0.5,2.3c-0.4,0.6-0.9,1.1-1.6,1.5c-0.7,0.3-1.5,0.5-2.4,0.5h-4.7V1376.1z M489.7,1386.6c0.5-0.5,0.8-1.1,0.8-1.9
			c0-0.5-0.1-0.9-0.3-1.3c-0.2-0.4-0.6-0.7-1-0.9c-0.4-0.2-1-0.3-1.7-0.3h-2.5v5h2.5C488.4,1387.3,489.2,1387.1,489.7,1386.6z
			 M494.1,1376.1h1.8v12.9h-1.8V1376.1z"/>
		<path class="st4" d="M322.2,1408.6c-0.9-0.5-1.6-1.3-2.1-2.3s-0.7-2.2-0.7-3.5c0-1.3,0.3-2.4,0.9-3.5c0.6-1,1.4-1.8,2.3-2.4
			c1-0.6,2.1-0.9,3.2-0.9c1,0,2,0.2,2.7,0.5s1.4,0.8,1.9,1.4s0.9,1.2,1.1,1.9l-1.9,0.8c-0.2-0.6-0.5-1.1-0.8-1.5
			c-0.3-0.4-0.8-0.8-1.3-1c-0.5-0.2-1.1-0.4-1.8-0.4c-0.8,0-1.5,0.2-2.2,0.6s-1.2,0.9-1.6,1.7c-0.4,0.8-0.6,1.7-0.6,2.7
			c0,1,0.2,1.9,0.6,2.7s0.9,1.3,1.5,1.7s1.4,0.6,2.3,0.6c0.8,0,1.5-0.2,2.1-0.5c0.6-0.3,1-0.7,1.4-1.2s0.5-1,0.5-1.6h-4.4v-1.7h6.3
			v6.3h-1.8c0-0.5,0.1-0.9,0.2-1.4c0.1-0.5,0.3-0.9,0.5-1.3h-0.9c-0.3,0.7-0.8,1.4-1.5,2c-0.7,0.6-1.7,0.9-3,0.9
			C324,1409.4,323,1409.1,322.2,1408.6z"/>
		<path class="st4" d="M334.7,1396.2h9.4v1.7h-7.7l0.2-0.2v11.3h-1.8V1396.2z M336.3,1402h6.2v1.7h-6.2V1402z"/>
		<path class="st4" d="M345.2,1401.6h5.3v1.8h-5.3V1401.6z"/>
		<path class="st4" d="M355.4,1408.6c-0.8-0.5-1.4-1.3-1.8-2.3c-0.4-1-0.6-2.2-0.6-3.7c0-1.4,0.2-2.6,0.7-3.6c0.5-1,1.1-1.8,1.9-2.3
			s1.7-0.8,2.6-0.8c1,0,1.8,0.3,2.6,0.8c0.8,0.5,1.4,1.3,1.8,2.3c0.5,1,0.7,2.2,0.7,3.6c0,1.4-0.2,2.7-0.6,3.7c-0.4,1-1,1.8-1.8,2.3
			c-0.8,0.5-1.7,0.8-2.7,0.8C357.1,1409.4,356.1,1409.1,355.4,1408.6z M359.8,1407.2c0.5-0.4,0.8-1,1.1-1.7c0.3-0.8,0.4-1.7,0.4-2.8
			c0-1-0.1-1.9-0.4-2.7c-0.3-0.8-0.6-1.3-1.1-1.7s-1-0.6-1.7-0.6c-0.6,0-1.2,0.2-1.7,0.6c-0.5,0.4-0.9,1-1.1,1.7s-0.4,1.6-0.4,2.7
			c0,1.1,0.1,2,0.4,2.8s0.6,1.3,1.1,1.7c0.5,0.4,1.1,0.6,1.7,0.6C358.7,1407.7,359.3,1407.5,359.8,1407.2z"/>
		<path class="st4" d="M367.9,1408.6c-0.8-0.5-1.4-1.3-1.8-2.3c-0.4-1-0.6-2.2-0.6-3.7c0-1.4,0.2-2.6,0.7-3.6c0.5-1,1.1-1.8,1.9-2.3
			s1.7-0.8,2.6-0.8c1,0,1.8,0.3,2.6,0.8c0.8,0.5,1.4,1.3,1.8,2.3c0.5,1,0.7,2.2,0.7,3.6c0,1.4-0.2,2.7-0.6,3.7c-0.4,1-1,1.8-1.8,2.3
			c-0.8,0.5-1.7,0.8-2.7,0.8C369.6,1409.4,368.7,1409.1,367.9,1408.6z M372.3,1407.2c0.5-0.4,0.8-1,1.1-1.7c0.3-0.8,0.4-1.7,0.4-2.8
			c0-1-0.1-1.9-0.4-2.7c-0.3-0.8-0.6-1.3-1.1-1.7s-1-0.6-1.7-0.6c-0.6,0-1.2,0.2-1.7,0.6c-0.5,0.4-0.9,1-1.1,1.7s-0.4,1.6-0.4,2.7
			c0,1.1,0.1,2,0.4,2.8s0.6,1.3,1.1,1.7c0.5,0.4,1.1,0.6,1.7,0.6C371.3,1407.7,371.8,1407.5,372.3,1407.2z"/>
		<path class="st4" d="M379.4,1408.5c-0.8-0.6-1.3-1.4-1.5-2.3l1.9-0.6c0.2,0.7,0.5,1.3,1,1.7c0.5,0.4,1.1,0.6,1.8,0.6
			c0.5,0,1-0.1,1.4-0.3c0.4-0.2,0.7-0.5,0.9-0.9c0.2-0.4,0.3-0.9,0.3-1.4s-0.1-1-0.3-1.4c-0.2-0.4-0.5-0.7-0.9-0.9
			c-0.4-0.2-0.9-0.3-1.4-0.3c-0.6,0-1.1,0.1-1.5,0.4c-0.4,0.3-0.8,0.6-1,1l-1.9-0.3l1.1-7.3h7.4v1.7h-6.1l-0.3,2.1
			c-0.1,0.7-0.3,1.3-0.4,1.7s-0.3,0.7-0.6,1h0.9c0.3-0.5,0.6-0.9,1.1-1.2s1-0.5,1.8-0.5c0.8,0,1.5,0.2,2.1,0.5
			c0.6,0.3,1.1,0.8,1.4,1.4c0.3,0.6,0.5,1.3,0.5,2.2c0,0.8-0.2,1.6-0.5,2.2c-0.4,0.6-0.9,1.1-1.5,1.5s-1.4,0.5-2.3,0.5
			C381.3,1409.4,380.2,1409.1,379.4,1408.5z"/>
		<path class="st4" d="M391.4,1408.6c-0.7-0.5-1.3-1.2-1.7-2.1s-0.6-2.1-0.6-3.4c0-1.4,0.2-2.6,0.7-3.7s1.2-1.9,2.1-2.5
			c0.9-0.6,2.1-0.9,3.4-0.9c0.4,0,0.8,0,1.3,0.1c0.5,0.1,0.8,0.2,1.2,0.3v1.8c-0.4-0.1-0.7-0.2-1.1-0.3s-0.8-0.1-1.2-0.1
			c-0.9,0-1.8,0.2-2.5,0.6c-0.7,0.4-1.3,1-1.8,1.9c-0.4,0.8-0.7,1.9-0.7,3.1h0.7c0.1-0.4,0.3-0.9,0.6-1.2c0.3-0.4,0.6-0.7,1.1-0.9
			c0.5-0.2,1-0.4,1.6-0.4c0.8,0,1.5,0.2,2.1,0.6c0.6,0.4,1.1,0.9,1.4,1.5c0.3,0.6,0.5,1.3,0.5,2.1c0,0.8-0.2,1.6-0.5,2.3
			c-0.4,0.7-0.9,1.2-1.6,1.6c-0.7,0.4-1.5,0.6-2.4,0.6C393,1409.4,392.2,1409.1,391.4,1408.6z M395.3,1407.4c0.4-0.2,0.7-0.5,0.9-1
			c0.2-0.4,0.3-0.9,0.3-1.4s-0.1-1-0.3-1.4c-0.2-0.4-0.5-0.7-0.9-1c-0.4-0.2-0.8-0.3-1.3-0.3c-0.5,0-1,0.1-1.3,0.3s-0.7,0.5-0.9,0.9
			c-0.2,0.4-0.3,0.9-0.3,1.4c0,0.5,0.1,1,0.3,1.4c0.2,0.4,0.5,0.7,0.9,1c0.4,0.2,0.8,0.3,1.3,0.3
			C394.5,1407.8,394.9,1407.7,395.3,1407.4z"/>
		<path class="st4" d="M405.7,1396.2h3.1l2.9,7.4c0.2,0.6,0.4,1.1,0.4,1.6s0.1,1.1,0.1,1.8h0.8c0-0.7,0.1-1.3,0.1-1.8s0.2-1,0.5-1.6
			l2.8-7.4h3v12.9h-1.8v-6.7c0-0.9,0.1-1.7,0.2-2.5s0.4-1.5,0.7-2.1l-0.8-0.3l-4.5,11.6h-1.3l-4.5-11.6l-0.8,0.3
			c0.3,0.6,0.5,1.3,0.7,2.1c0.2,0.8,0.2,1.6,0.2,2.5v6.7h-1.8V1396.2z"/>
	</g>
</g>
<g>
	<g>
		<path class="st4" d="M1234.2,1356h1.8v12.9h-1.8V1356z"/>
		<path class="st4" d="M1239.7,1356h2.8l6.7,10.6l0.7-0.5c-0.2-0.4-0.4-0.7-0.5-1c-0.1-0.3-0.2-0.6-0.3-1c0-0.4-0.1-0.8-0.1-1.4
			v-6.8h1.8v12.9h-2.3l-7.2-11.3l-0.7,0.4c0.3,0.5,0.5,1.1,0.6,1.6c0.1,0.6,0.2,1.3,0.2,2.1v7.2h-1.8V1356z"/>
		<path class="st4" d="M1254.6,1356h3.1l2.9,7.4c0.2,0.6,0.4,1.1,0.4,1.6s0.1,1.1,0.1,1.8h0.8c0-0.7,0.1-1.3,0.1-1.8s0.2-1,0.5-1.6
			l2.8-7.4h3v12.9h-1.8v-6.7c0-0.9,0.1-1.7,0.2-2.5s0.4-1.5,0.7-2.1l-0.8-0.3l-4.5,11.6h-1.3l-4.5-11.6l-0.8,0.3
			c0.3,0.6,0.5,1.3,0.7,2.1c0.2,0.8,0.2,1.6,0.2,2.5v6.7h-1.8V1356z"/>
		<path class="st4" d="M1276.3,1356h1.8v12.9h-1.8V1356z"/>
		<path class="st4" d="M1284,1368.3c-1-0.6-1.7-1.4-2.2-2.4c-0.5-1-0.7-2.2-0.7-3.5c0-1.2,0.3-2.4,0.8-3.4s1.3-1.8,2.2-2.4
			c1-0.6,2-0.9,3.3-0.9c1,0,2,0.2,2.7,0.6c0.8,0.4,1.4,0.8,1.9,1.4s0.8,1.2,1,1.8l-1.8,0.7c-0.1-0.5-0.4-0.9-0.7-1.3
			s-0.7-0.8-1.2-1.1c-0.5-0.3-1.2-0.4-1.9-0.4c-0.9,0-1.6,0.2-2.3,0.6c-0.7,0.4-1.2,1-1.5,1.7c-0.4,0.7-0.5,1.6-0.5,2.6
			c0,1,0.2,1.9,0.5,2.7c0.4,0.8,0.9,1.4,1.5,1.8c0.7,0.4,1.4,0.7,2.3,0.7c1.1,0,2-0.3,2.6-0.8c0.6-0.5,1-1.2,1.3-2.1l1.8,0.7
			c-0.2,0.7-0.6,1.4-1.1,2c-0.5,0.6-1.1,1.1-1.9,1.4c-0.8,0.3-1.7,0.5-2.7,0.5C1286,1369.2,1284.9,1368.9,1284,1368.3z"/>
		<path class="st4" d="M1298,1368.3c-1-0.6-1.8-1.3-2.3-2.4s-0.8-2.2-0.8-3.5s0.3-2.5,0.8-3.5c0.6-1,1.3-1.8,2.3-2.4
			s2.1-0.8,3.3-0.8s2.3,0.3,3.3,0.8c1,0.6,1.7,1.4,2.3,2.4c0.6,1,0.8,2.2,0.8,3.5s-0.3,2.5-0.8,3.5c-0.6,1-1.3,1.8-2.3,2.4
			c-1,0.6-2.1,0.8-3.3,0.8S1299,1368.9,1298,1368.3z M1303.7,1366.8c0.7-0.4,1.2-1,1.6-1.8c0.4-0.8,0.5-1.6,0.5-2.6
			s-0.2-1.8-0.5-2.6c-0.4-0.8-0.9-1.4-1.6-1.8c-0.7-0.4-1.5-0.7-2.4-0.7c-0.9,0-1.7,0.2-2.4,0.7c-0.7,0.4-1.2,1-1.6,1.8
			c-0.4,0.8-0.5,1.6-0.5,2.6s0.2,1.8,0.5,2.6c0.4,0.8,0.9,1.4,1.6,1.8c0.7,0.4,1.5,0.7,2.4,0.7
			C1302.2,1367.5,1303,1367.3,1303.7,1366.8z"/>
		<path class="st4" d="M1310.6,1356h2.8l6.7,10.6l0.7-0.5c-0.2-0.4-0.4-0.7-0.5-1c-0.1-0.3-0.2-0.6-0.3-1c0-0.4-0.1-0.8-0.1-1.4
			v-6.8h1.8v12.9h-2.3l-7.2-11.3l-0.7,0.4c0.3,0.5,0.5,1.1,0.6,1.6c0.1,0.6,0.2,1.3,0.2,2.1v7.2h-1.8V1356z"/>
		<path class="st4" d="M1327.1,1368.7c-0.7-0.3-1.3-0.7-1.8-1.3s-0.8-1.1-1-1.8l1.8-0.8c0.2,0.5,0.4,1,0.7,1.4
			c0.3,0.4,0.7,0.7,1.2,1c0.5,0.2,1,0.4,1.7,0.4c0.9,0,1.5-0.2,2-0.6s0.7-0.9,0.7-1.5c0-0.5-0.2-1-0.6-1.3s-1-0.6-1.8-0.8l-1.7-0.4
			c-0.7-0.1-1.3-0.4-1.8-0.7s-0.9-0.7-1.2-1.1c-0.3-0.5-0.4-1.1-0.4-1.8c0-0.7,0.2-1.3,0.6-1.9s0.9-1,1.6-1.3
			c0.7-0.3,1.5-0.5,2.3-0.5c0.9,0,1.6,0.2,2.3,0.5c0.6,0.3,1.2,0.7,1.6,1.2c0.4,0.5,0.7,0.9,0.8,1.4l-1.7,0.8
			c-0.1-0.4-0.3-0.7-0.5-1c-0.2-0.3-0.6-0.6-1-0.8c-0.4-0.2-0.9-0.3-1.6-0.3c-0.5,0-1,0.1-1.3,0.2c-0.4,0.2-0.7,0.4-0.9,0.7
			c-0.2,0.3-0.3,0.6-0.3,1c0,0.5,0.2,0.9,0.5,1.2c0.3,0.3,0.8,0.5,1.6,0.7l1.8,0.4c1.1,0.2,2,0.7,2.7,1.3c0.7,0.6,1,1.4,1,2.4
			c0,0.8-0.2,1.4-0.6,2s-0.9,1-1.6,1.4c-0.7,0.3-1.6,0.5-2.6,0.5C1328.7,1369.2,1327.9,1369,1327.1,1368.7z"/>
		<path class="st4" d="M1235,1388.3c-1-0.6-1.6-1.5-1.9-2.6l1.8-0.7c0.2,0.8,0.6,1.4,1.3,1.9c0.6,0.5,1.5,0.7,2.6,0.7
			c0.9,0,1.7-0.2,2.3-0.6c0.7-0.4,1.2-1,1.5-1.8c0.3-0.8,0.5-1.7,0.5-2.7v0c0-1-0.2-1.9-0.5-2.6c-0.3-0.7-0.8-1.3-1.4-1.7
			c-0.6-0.4-1.3-0.6-2.2-0.6c-1,0-1.9,0.2-2.5,0.6s-1.1,1-1.5,1.8l-1.8-0.7c0.5-1.1,1.3-1.9,2.2-2.5c0.9-0.6,2.1-0.9,3.6-0.9
			c1.3,0,2.4,0.3,3.3,0.9s1.6,1.4,2,2.4c0.4,1,0.7,2.1,0.7,3.4c0,1.3-0.2,2.4-0.7,3.5c-0.5,1-1.2,1.8-2.2,2.4
			c-1,0.6-2.1,0.9-3.4,0.9C1237.2,1389.3,1236,1388.9,1235,1388.3z M1236.8,1381.6h6.5v1.7h-6.5V1381.6z"/>
		<path class="st4" d="M1246.1,1387.3h0.6c0.4,0,0.6,0,0.9-0.1c0.2-0.1,0.4-0.2,0.6-0.4c0.1-0.2,0.3-0.4,0.3-0.7
			c0.1-0.5,0.2-1.2,0.2-2.1c0-0.9,0.1-2,0.1-3.3l0.1-4.6h9.1v12.9h-1.8v-11.2h-5.5l-0.1,3.5c0,1.3-0.1,2.4-0.1,3.2
			c-0.1,0.8-0.2,1.5-0.3,2.1c-0.1,0.6-0.3,1-0.6,1.3c-0.3,0.3-0.6,0.6-1,0.8c-0.4,0.2-1,0.2-1.7,0.2h-0.8V1387.3z"/>
		<path class="st4" d="M1263.5,1387.3h7.4v1.7h-9.1v-12.9h9.1v1.7h-7.4l0.2-0.2v9.8L1263.5,1387.3z M1269,1381.5v1.7h-5.7v-1.7H1269
			z"/>
		<path class="st4" d="M1273.7,1376.1h1.8v6.3h0.7c0-0.4,0.1-0.8,0.3-1.2c0.2-0.3,0.5-0.8,1-1.4l3.5-3.8h2.5l-5.6,5.7l-0.4,0.4
			l-2.7,2.8l0.6-1.3v5.3h-1.8V1376.1z M1277,1382.3l1.3-1.3l6.4,7.9h-2.4L1277,1382.3z"/>
		<path class="st4" d="M1289.5,1377.6l0.3,0.3h-4.9v-1.7h11.1v1.7h-4.9l0.2-0.3v11.4h-1.8V1377.6z"/>
		<path class="st4" d="M1298.2,1376.1h5.2c0.9,0,1.7,0.2,2.3,0.5c0.6,0.3,1.1,0.8,1.5,1.4c0.3,0.6,0.5,1.3,0.5,2
			c0,0.8-0.2,1.5-0.5,2.1c-0.3,0.6-0.8,1-1.5,1.4c-0.6,0.3-1.4,0.5-2.3,0.5h-3.4v5h-1.8V1376.1z M1304.6,1382.1
			c0.4-0.2,0.7-0.5,0.9-0.8c0.2-0.3,0.3-0.8,0.3-1.2c0-0.5-0.1-0.8-0.3-1.2c-0.2-0.3-0.5-0.6-0.9-0.8c-0.4-0.2-0.9-0.3-1.5-0.3h-3
			v4.6h3C1303.7,1382.4,1304.2,1382.3,1304.6,1382.1z"/>
		<path class="st4" d="M1312.6,1388.4c-1-0.6-1.8-1.3-2.3-2.4s-0.8-2.2-0.8-3.5s0.3-2.5,0.8-3.5c0.6-1,1.3-1.8,2.3-2.4
			s2.1-0.8,3.3-0.8s2.3,0.3,3.3,0.8c1,0.6,1.7,1.4,2.3,2.4c0.6,1,0.8,2.2,0.8,3.5s-0.3,2.5-0.8,3.5c-0.6,1-1.3,1.8-2.3,2.4
			c-1,0.6-2.1,0.8-3.3,0.8S1313.6,1389,1312.6,1388.4z M1318.3,1386.9c0.7-0.4,1.2-1,1.6-1.8c0.4-0.8,0.5-1.6,0.5-2.6
			s-0.2-1.8-0.5-2.6c-0.4-0.8-0.9-1.4-1.6-1.8c-0.7-0.4-1.5-0.7-2.4-0.7c-0.9,0-1.7,0.2-2.4,0.7c-0.7,0.4-1.2,1-1.6,1.8
			c-0.4,0.8-0.5,1.6-0.5,2.6s0.2,1.8,0.5,2.6c0.4,0.8,0.9,1.4,1.6,1.8c0.7,0.4,1.5,0.7,2.4,0.7
			C1316.8,1387.6,1317.6,1387.4,1318.3,1386.9z"/>
		<path class="st4" d="M1325.2,1376.1h1.8v12.9h-1.8V1376.1z M1326.8,1381.5h7.1v1.7h-7.1V1381.5z M1333.8,1376.1h1.8v12.9h-1.8
			V1376.1z"/>
		<path class="st4" d="M1339.3,1376.1h1.8v12.9h-1.8V1376.1z M1340.9,1381.5h7.1v1.7h-7.1V1381.5z M1347.9,1376.1h1.8v12.9h-1.8
			V1376.1z"/>
		<path class="st4" d="M1356.7,1376.1h2.5l4.7,12.9h-2.1l-3-8.6c-0.2-0.6-0.4-1.1-0.4-1.5c-0.1-0.4-0.1-0.9-0.1-1.5h-0.8
			c0,0.6-0.1,1.1-0.2,1.5c-0.1,0.4-0.2,0.9-0.5,1.5l-3.1,8.6h-2L1356.7,1376.1z M1355,1383.9h5.7l0.6,1.7h-6.9L1355,1383.9z"/>
		<path class="st4" d="M1373.5,1389v-4.9h-3.7l-2.5,4.9h-2.2l1.9-3.5c0.3-0.5,0.5-0.8,0.6-1s0.4-0.4,0.6-0.5
			c0.2-0.1,0.5-0.2,0.9-0.2v-0.8c-1,0-1.9-0.3-2.5-0.9c-0.7-0.6-1-1.4-1-2.5c0-0.6,0.2-1.2,0.5-1.8c0.3-0.5,0.8-1,1.4-1.3
			c0.6-0.3,1.4-0.5,2.3-0.5h5.6v12.9H1373.5z M1373.5,1377.8h-3.2c-0.8,0-1.5,0.2-2,0.6c-0.5,0.4-0.7,1-0.7,1.7
			c0,0.5,0.1,0.9,0.3,1.3c0.2,0.3,0.6,0.6,1,0.8c0.4,0.2,0.9,0.2,1.4,0.2h3.2V1377.8z"/>
		<path class="st4" d="M1383.4,1376.1h10.1v12.9h-1.8v-11.2h-6.4v11.2h-1.8V1376.1z"/>
		<path class="st4" d="M1399.5,1388.4c-1-0.6-1.8-1.3-2.3-2.4s-0.8-2.2-0.8-3.5s0.3-2.5,0.8-3.5c0.6-1,1.3-1.8,2.3-2.4
			s2.1-0.8,3.3-0.8s2.3,0.3,3.3,0.8c1,0.6,1.7,1.4,2.3,2.4c0.6,1,0.8,2.2,0.8,3.5s-0.3,2.5-0.8,3.5c-0.6,1-1.3,1.8-2.3,2.4
			c-1,0.6-2.1,0.8-3.3,0.8S1400.5,1389,1399.5,1388.4z M1405.2,1386.9c0.7-0.4,1.2-1,1.6-1.8c0.4-0.8,0.5-1.6,0.5-2.6
			s-0.2-1.8-0.5-2.6c-0.4-0.8-0.9-1.4-1.6-1.8c-0.7-0.4-1.5-0.7-2.4-0.7c-0.9,0-1.7,0.2-2.4,0.7c-0.7,0.4-1.2,1-1.6,1.8
			c-0.4,0.8-0.5,1.6-0.5,2.6s0.2,1.8,0.5,2.6c0.4,0.8,0.9,1.4,1.6,1.8c0.7,0.4,1.5,0.7,2.4,0.7
			C1403.7,1387.6,1404.5,1387.4,1405.2,1386.9z"/>
		<path class="st4" d="M1413.1,1384.2c-0.6-0.3-1.1-0.8-1.4-1.4c-0.3-0.6-0.5-1.4-0.5-2.3v-4.4h1.8v4.1c0,0.9,0.2,1.6,0.7,2
			s1.2,0.6,2.1,0.6c0.6,0,1.1-0.1,1.6-0.2s1-0.3,1.4-0.5v-6.1h1.8v12.9h-1.8v-2.3c0-1,0-1.8,0.1-2.3c0.1-0.5,0.2-1,0.5-1.5h-0.9
			c-0.3,0.5-0.8,0.9-1.4,1.2c-0.6,0.3-1.3,0.4-2,0.4C1414.4,1384.6,1413.7,1384.5,1413.1,1384.2z"/>
		<path class="st4" d="M1427.6,1377.6l0.3,0.3h-4.9v-1.7h11.1v1.7h-4.9l0.2-0.3v11.4h-1.8V1377.6z"/>
		<path class="st4" d="M1438,1376.1h2.5l4.7,12.9h-2.1l-3-8.6c-0.2-0.6-0.4-1.1-0.4-1.5c-0.1-0.4-0.1-0.9-0.1-1.5h-0.8
			c0,0.6-0.1,1.1-0.2,1.5c-0.1,0.4-0.2,0.9-0.5,1.5l-3.1,8.6h-2L1438,1376.1z M1436.3,1383.9h5.7l0.6,1.7h-6.9L1436.3,1383.9z"/>
		<path class="st4" d="M1236.2,1408.6c-0.9-0.5-1.6-1.3-2.1-2.3s-0.7-2.2-0.7-3.5c0-1.3,0.3-2.4,0.9-3.5c0.6-1,1.4-1.8,2.3-2.4
			c1-0.6,2.1-0.9,3.2-0.9c1,0,2,0.2,2.7,0.5s1.4,0.8,1.9,1.4s0.9,1.2,1.1,1.9l-1.9,0.8c-0.2-0.6-0.5-1.1-0.8-1.5
			c-0.3-0.4-0.8-0.8-1.3-1c-0.5-0.2-1.1-0.4-1.8-0.4c-0.8,0-1.5,0.2-2.2,0.6s-1.2,0.9-1.6,1.7c-0.4,0.8-0.6,1.7-0.6,2.7
			c0,1,0.2,1.9,0.6,2.7s0.9,1.3,1.5,1.7s1.4,0.6,2.3,0.6c0.8,0,1.5-0.2,2.1-0.5c0.6-0.3,1-0.7,1.4-1.2s0.5-1,0.5-1.6h-4.4v-1.7h6.3
			v6.3h-1.8c0-0.5,0.1-0.9,0.2-1.4c0.1-0.5,0.3-0.9,0.5-1.3h-0.9c-0.3,0.7-0.8,1.4-1.5,2c-0.7,0.6-1.7,0.9-3,0.9
			C1238,1409.4,1237,1409.1,1236.2,1408.6z"/>
		<path class="st4" d="M1248.7,1396.2h9.4v1.7h-7.7l0.2-0.2v11.3h-1.8V1396.2z M1250.3,1402h6.2v1.7h-6.2V1402z"/>
		<path class="st4" d="M1259.2,1401.6h5.3v1.8h-5.3V1401.6z"/>
		<path class="st4" d="M1269.4,1408.6c-0.8-0.5-1.4-1.3-1.8-2.3c-0.4-1-0.6-2.2-0.6-3.7c0-1.4,0.2-2.6,0.7-3.6
			c0.5-1,1.1-1.8,1.9-2.3s1.7-0.8,2.6-0.8c1,0,1.8,0.3,2.6,0.8c0.8,0.5,1.4,1.3,1.8,2.3c0.5,1,0.7,2.2,0.7,3.6
			c0,1.4-0.2,2.7-0.6,3.7c-0.4,1-1,1.8-1.8,2.3c-0.8,0.5-1.7,0.8-2.7,0.8C1271.1,1409.4,1270.1,1409.1,1269.4,1408.6z
			 M1273.8,1407.2c0.5-0.4,0.8-1,1.1-1.7c0.3-0.8,0.4-1.7,0.4-2.8c0-1-0.1-1.9-0.4-2.7c-0.3-0.8-0.6-1.3-1.1-1.7s-1-0.6-1.7-0.6
			c-0.6,0-1.2,0.2-1.7,0.6c-0.5,0.4-0.9,1-1.1,1.7s-0.4,1.6-0.4,2.7c0,1.1,0.1,2,0.4,2.8s0.6,1.3,1.1,1.7c0.5,0.4,1.1,0.6,1.7,0.6
			C1272.7,1407.7,1273.3,1407.5,1273.8,1407.2z"/>
		<path class="st4" d="M1282.5,1399.4c0-0.3,0.1-0.6,0.3-0.9h-0.8c-0.2,0.5-0.4,0.9-0.7,1.3c-0.3,0.4-0.6,0.7-1,0.9
			c-0.4,0.2-0.8,0.4-1.3,0.4v-1.9c0.8-0.2,1.5-0.5,2.2-1c0.7-0.5,1.2-1.1,1.6-1.8h1.5v12.9h-1.8v-8.7
			C1282.4,1400,1282.4,1399.6,1282.5,1399.4z"/>
		<path class="st4" d="M1288.1,1406.6c1.2-0.8,2.2-1.5,3-2.1c0.8-0.7,1.5-1.3,1.9-2.1c0.5-0.7,0.7-1.4,0.7-2.2c0-0.5-0.1-1-0.3-1.4
			c-0.2-0.4-0.5-0.7-0.8-0.9c-0.3-0.2-0.7-0.3-1.2-0.3c-0.5,0-0.9,0.1-1.3,0.3s-0.7,0.5-0.9,1c-0.2,0.4-0.3,0.9-0.3,1.5l-1.9-0.3
			c0-0.8,0.2-1.6,0.5-2.2c0.3-0.6,0.8-1.1,1.5-1.5c0.6-0.4,1.4-0.5,2.3-0.5c0.9,0,1.6,0.2,2.3,0.5s1.1,0.8,1.5,1.4
			c0.3,0.6,0.5,1.3,0.5,2.1c0,0.7-0.1,1.3-0.3,1.9c-0.2,0.6-0.6,1.2-1,1.7c-0.5,0.6-1.3,1.2-2.2,1.9c-0.9,0.6-2.1,1.4-3.4,2.1
			l0.5,0.7c0.4-0.3,0.8-0.5,1.2-0.6c0.4-0.1,0.9-0.2,1.5-0.2h3.9v1.7h-8.6v-2C1287.5,1406.9,1287.8,1406.7,1288.1,1406.6z"/>
		<path class="st4" d="M1300,1404.7c0.4-1.4,1-2.6,1.8-3.7c0.8-1.1,1.7-2.1,2.8-3l0.2-0.2l-0.5-0.6c-0.3,0.3-0.7,0.5-1.1,0.6
			c-0.4,0.2-0.9,0.2-1.5,0.2h-4.3v-1.7h8.7v2c-1.3,1-2.2,2.1-2.9,3.2c-0.7,1.1-1.2,2.3-1.5,3.5c-0.3,1.2-0.4,2.6-0.4,4.1h-2
			C1299.3,1407.5,1299.5,1406.1,1300,1404.7z"/>
		<path class="st4" d="M1314.5,1408.9c-0.7-0.3-1.3-0.7-1.8-1.3s-0.8-1.1-1-1.8l1.8-0.8c0.2,0.5,0.4,1,0.7,1.4
			c0.3,0.4,0.7,0.7,1.2,1c0.5,0.2,1,0.4,1.7,0.4c0.9,0,1.5-0.2,2-0.6s0.7-0.9,0.7-1.5c0-0.5-0.2-1-0.6-1.3s-1-0.6-1.8-0.8l-1.7-0.4
			c-0.7-0.1-1.3-0.4-1.8-0.7s-0.9-0.7-1.2-1.1c-0.3-0.5-0.4-1.1-0.4-1.8c0-0.7,0.2-1.3,0.6-1.9s0.9-1,1.6-1.3
			c0.7-0.3,1.5-0.5,2.3-0.5c0.9,0,1.6,0.2,2.3,0.5c0.6,0.3,1.2,0.7,1.6,1.2c0.4,0.5,0.7,0.9,0.8,1.4l-1.7,0.8
			c-0.1-0.4-0.3-0.7-0.5-1c-0.2-0.3-0.6-0.6-1-0.8c-0.4-0.2-0.9-0.3-1.6-0.3c-0.5,0-1,0.1-1.3,0.2c-0.4,0.2-0.7,0.4-0.9,0.7
			c-0.2,0.3-0.3,0.6-0.3,1c0,0.5,0.2,0.9,0.5,1.2c0.3,0.3,0.8,0.5,1.6,0.7l1.8,0.4c1.1,0.2,2,0.7,2.7,1.3c0.7,0.6,1,1.4,1,2.4
			c0,0.8-0.2,1.4-0.6,2s-0.9,1-1.6,1.4c-0.7,0.3-1.6,0.5-2.6,0.5C1316.1,1409.4,1315.2,1409.2,1314.5,1408.9z"/>
	</g>
</g>
<g>
	<g>
		<path class="st4" d="M1804.2,1356h1.8v12.9h-1.8V1356z"/>
		<path class="st4" d="M1809.7,1356h2.8l6.7,10.6l0.7-0.5c-0.2-0.4-0.4-0.7-0.5-1c-0.1-0.3-0.2-0.6-0.3-1c0-0.4-0.1-0.8-0.1-1.4
			v-6.8h1.8v12.9h-2.3l-7.2-11.3l-0.7,0.4c0.3,0.5,0.5,1.1,0.6,1.6c0.1,0.6,0.2,1.3,0.2,2.1v7.2h-1.8V1356z"/>
		<path class="st4" d="M1824.6,1356h3.1l2.9,7.4c0.2,0.6,0.4,1.1,0.4,1.6s0.1,1.1,0.1,1.8h0.8c0-0.7,0.1-1.3,0.1-1.8s0.2-1,0.5-1.6
			l2.8-7.4h3v12.9h-1.8v-6.7c0-0.9,0.1-1.7,0.2-2.5c0.2-0.8,0.4-1.5,0.7-2.1l-0.8-0.3l-4.5,11.6h-1.3l-4.5-11.6l-0.8,0.3
			c0.3,0.6,0.5,1.3,0.7,2.1c0.2,0.8,0.2,1.6,0.2,2.5v6.7h-1.8V1356z"/>
		<path class="st4" d="M1846.3,1356h1.8v12.9h-1.8V1356z"/>
		<path class="st4" d="M1854,1368.3c-1-0.6-1.7-1.4-2.2-2.4c-0.5-1-0.7-2.2-0.7-3.5c0-1.2,0.3-2.4,0.8-3.4s1.3-1.8,2.2-2.4
			c1-0.6,2-0.9,3.3-0.9c1,0,2,0.2,2.7,0.6c0.8,0.4,1.4,0.8,1.9,1.4c0.5,0.6,0.8,1.2,1,1.8l-1.8,0.7c-0.1-0.5-0.4-0.9-0.7-1.3
			s-0.7-0.8-1.2-1.1c-0.5-0.3-1.2-0.4-1.9-0.4c-0.9,0-1.6,0.2-2.3,0.6c-0.7,0.4-1.2,1-1.5,1.7c-0.4,0.7-0.5,1.6-0.5,2.6
			c0,1,0.2,1.9,0.5,2.7c0.4,0.8,0.9,1.4,1.5,1.8c0.7,0.4,1.4,0.7,2.3,0.7c1.1,0,2-0.3,2.6-0.8c0.6-0.5,1-1.2,1.3-2.1l1.8,0.7
			c-0.2,0.7-0.6,1.4-1.1,2c-0.5,0.6-1.1,1.1-1.9,1.4s-1.7,0.5-2.7,0.5C1856,1369.2,1854.9,1368.9,1854,1368.3z"/>
		<path class="st4" d="M1868,1368.3c-1-0.6-1.8-1.3-2.3-2.4s-0.8-2.2-0.8-3.5s0.3-2.5,0.8-3.5c0.6-1,1.3-1.8,2.3-2.4
			s2.1-0.8,3.3-0.8s2.3,0.3,3.3,0.8s1.7,1.4,2.3,2.4c0.6,1,0.8,2.2,0.8,3.5s-0.3,2.5-0.8,3.5c-0.6,1-1.3,1.8-2.3,2.4
			s-2.1,0.8-3.3,0.8S1869,1368.9,1868,1368.3z M1873.7,1366.8c0.7-0.4,1.2-1,1.6-1.8s0.5-1.6,0.5-2.6s-0.2-1.8-0.5-2.6
			s-0.9-1.4-1.6-1.8c-0.7-0.4-1.5-0.7-2.4-0.7c-0.9,0-1.7,0.2-2.4,0.7c-0.7,0.4-1.2,1-1.6,1.8s-0.5,1.6-0.5,2.6s0.2,1.8,0.5,2.6
			s0.9,1.4,1.6,1.8c0.7,0.4,1.5,0.7,2.4,0.7C1872.2,1367.5,1873,1367.3,1873.7,1366.8z"/>
		<path class="st4" d="M1880.6,1356h2.8l6.7,10.6l0.7-0.5c-0.2-0.4-0.4-0.7-0.5-1c-0.1-0.3-0.2-0.6-0.3-1c0-0.4-0.1-0.8-0.1-1.4
			v-6.8h1.8v12.9h-2.3l-7.2-11.3l-0.7,0.4c0.3,0.5,0.5,1.1,0.6,1.6c0.1,0.6,0.2,1.3,0.2,2.1v7.2h-1.8V1356z"/>
		<path class="st4" d="M1897.1,1368.7c-0.7-0.3-1.3-0.7-1.8-1.3s-0.8-1.1-1-1.8l1.8-0.8c0.2,0.5,0.4,1,0.7,1.4s0.7,0.7,1.2,1
			c0.5,0.2,1,0.4,1.7,0.4c0.9,0,1.5-0.2,2-0.6c0.5-0.4,0.7-0.9,0.7-1.5c0-0.5-0.2-1-0.6-1.3s-1-0.6-1.8-0.8l-1.7-0.4
			c-0.7-0.1-1.3-0.4-1.8-0.7c-0.5-0.3-0.9-0.7-1.2-1.1c-0.3-0.5-0.4-1.1-0.4-1.8c0-0.7,0.2-1.3,0.6-1.9s0.9-1,1.6-1.3
			c0.7-0.3,1.5-0.5,2.3-0.5c0.9,0,1.6,0.2,2.3,0.5c0.7,0.3,1.2,0.7,1.6,1.2c0.4,0.5,0.7,0.9,0.8,1.4l-1.7,0.8
			c-0.1-0.4-0.3-0.7-0.5-1c-0.2-0.3-0.6-0.6-1-0.8c-0.4-0.2-0.9-0.3-1.6-0.3c-0.5,0-1,0.1-1.3,0.2c-0.4,0.2-0.7,0.4-0.9,0.7
			c-0.2,0.3-0.3,0.6-0.3,1c0,0.5,0.2,0.9,0.5,1.2c0.3,0.3,0.8,0.5,1.6,0.7l1.8,0.4c1.1,0.2,2,0.7,2.7,1.3c0.7,0.6,1,1.4,1,2.4
			c0,0.8-0.2,1.4-0.6,2c-0.4,0.6-0.9,1-1.6,1.4s-1.6,0.5-2.6,0.5C1898.7,1369.2,1897.8,1369,1897.1,1368.7z"/>
		<path class="st4" d="M1804.2,1376.1h10.1v12.9h-1.8v-11.2h-6.4v11.2h-1.8V1376.1z"/>
		<path class="st4" d="M1819.6,1387.3h7.4v1.7h-9.1v-12.9h9.1v1.7h-7.4l0.2-0.2v9.8L1819.6,1387.3z M1825.2,1381.5v1.7h-5.7v-1.7
			H1825.2z"/>
		<path class="st4" d="M1830.9,1384.2c-0.6-0.3-1.1-0.8-1.4-1.4c-0.3-0.6-0.5-1.4-0.5-2.3v-4.4h1.8v4.1c0,0.9,0.2,1.6,0.7,2
			s1.2,0.6,2.1,0.6c0.6,0,1.1-0.1,1.6-0.2c0.5-0.1,1-0.3,1.4-0.5v-6.1h1.8v12.9h-1.8v-2.3c0-1,0-1.8,0.1-2.3c0.1-0.5,0.2-1,0.5-1.5
			h-0.9c-0.3,0.5-0.8,0.9-1.4,1.2c-0.6,0.3-1.3,0.4-2,0.4C1832.2,1384.6,1831.5,1384.5,1830.9,1384.2z"/>
		<path class="st4" d="M1845.5,1376.1h2.5l4.7,12.9h-2.1l-3-8.6c-0.2-0.6-0.4-1.1-0.4-1.5c-0.1-0.4-0.1-0.9-0.1-1.5h-0.8
			c0,0.6-0.1,1.1-0.2,1.5c-0.1,0.4-0.2,0.9-0.5,1.5l-3.1,8.6h-2L1845.5,1376.1z M1843.9,1383.9h5.7l0.6,1.7h-6.9L1843.9,1383.9z"/>
		<path class="st4" d="M1856.5,1377.6l0.3,0.3h-4.9v-1.7h11.1v1.7h-4.9l0.2-0.3v11.4h-1.8V1377.6z"/>
		<path class="st4" d="M1866.9,1376.1h2.5l4.7,12.9h-2.1l-3-8.6c-0.2-0.6-0.4-1.1-0.4-1.5c-0.1-0.4-0.1-0.9-0.1-1.5h-0.8
			c0,0.6-0.1,1.1-0.2,1.5c-0.1,0.4-0.2,0.9-0.5,1.5l-3.1,8.6h-2L1866.9,1376.1z M1865.2,1383.9h5.7l0.6,1.7h-6.9L1865.2,1383.9z"/>
		<path class="st4" d="M1877.9,1377.6l0.3,0.3h-4.9v-1.7h11.1v1.7h-4.9l0.2-0.3v11.4h-1.8V1377.6z"/>
		<path class="st4" d="M1886.6,1376.1h1.8v4.6h3.1c0.9,0,1.8,0.2,2.4,0.5c0.7,0.3,1.2,0.8,1.6,1.4c0.4,0.6,0.5,1.3,0.5,2.1
			c0,0.9-0.2,1.6-0.5,2.3c-0.4,0.6-0.9,1.1-1.6,1.5c-0.7,0.3-1.5,0.5-2.4,0.5h-4.9V1376.1z M1893.3,1386.6c0.5-0.5,0.8-1.1,0.8-1.9
			c0-0.5-0.1-0.9-0.3-1.3c-0.2-0.4-0.6-0.7-1-0.9c-0.4-0.2-1-0.3-1.7-0.3h-2.7v5h2.7C1892.1,1387.3,1892.8,1387.1,1893.3,1386.6z"/>
		<path class="st4" d="M1806.2,1408.6c-0.9-0.5-1.6-1.3-2.1-2.3s-0.7-2.2-0.7-3.5c0-1.3,0.3-2.4,0.9-3.5c0.6-1,1.4-1.8,2.3-2.4
			c1-0.6,2.1-0.9,3.2-0.9c1,0,2,0.2,2.7,0.5s1.4,0.8,1.9,1.4s0.9,1.2,1.1,1.9l-1.9,0.8c-0.2-0.6-0.5-1.1-0.8-1.5
			c-0.3-0.4-0.8-0.8-1.3-1c-0.5-0.2-1.1-0.4-1.8-0.4c-0.8,0-1.5,0.2-2.2,0.6c-0.7,0.4-1.2,0.9-1.6,1.7c-0.4,0.8-0.6,1.7-0.6,2.7
			c0,1,0.2,1.9,0.6,2.7s0.9,1.3,1.5,1.7c0.7,0.4,1.4,0.6,2.3,0.6c0.8,0,1.5-0.2,2.1-0.5c0.6-0.3,1-0.7,1.4-1.2
			c0.3-0.5,0.5-1,0.5-1.6h-4.4v-1.7h6.3v6.3h-1.8c0-0.5,0.1-0.9,0.2-1.4c0.1-0.5,0.3-0.9,0.5-1.3h-0.9c-0.3,0.7-0.8,1.4-1.5,2
			c-0.7,0.6-1.7,0.9-3,0.9C1808,1409.4,1807,1409.1,1806.2,1408.6z"/>
		<path class="st4" d="M1818.7,1396.2h9.4v1.7h-7.7l0.2-0.2v11.3h-1.8V1396.2z M1820.3,1402h6.2v1.7h-6.2V1402z"/>
		<path class="st4" d="M1829.2,1401.6h5.3v1.8h-5.3V1401.6z"/>
		<path class="st4" d="M1839.4,1408.6c-0.8-0.5-1.4-1.3-1.8-2.3c-0.4-1-0.6-2.2-0.6-3.7c0-1.4,0.2-2.6,0.7-3.6
			c0.5-1,1.1-1.8,1.9-2.3c0.8-0.5,1.7-0.8,2.6-0.8c1,0,1.8,0.3,2.6,0.8c0.8,0.5,1.4,1.3,1.8,2.3s0.7,2.2,0.7,3.6
			c0,1.4-0.2,2.7-0.6,3.7c-0.4,1-1,1.8-1.8,2.3s-1.7,0.8-2.7,0.8S1840.1,1409.1,1839.4,1408.6z M1843.8,1407.2
			c0.5-0.4,0.8-1,1.1-1.7c0.3-0.8,0.4-1.7,0.4-2.8c0-1-0.1-1.9-0.4-2.7c-0.3-0.8-0.6-1.3-1.1-1.7s-1-0.6-1.7-0.6
			c-0.6,0-1.2,0.2-1.7,0.6c-0.5,0.4-0.9,1-1.1,1.7s-0.4,1.6-0.4,2.7c0,1.1,0.1,2,0.4,2.8s0.6,1.3,1.1,1.7c0.5,0.4,1.1,0.6,1.7,0.6
			C1842.7,1407.7,1843.3,1407.5,1843.8,1407.2z"/>
		<path class="st4" d="M1852.5,1399.4c0-0.3,0.1-0.6,0.3-0.9h-0.8c-0.2,0.5-0.4,0.9-0.7,1.3c-0.3,0.4-0.6,0.7-1,0.9
			c-0.4,0.2-0.8,0.4-1.3,0.4v-1.9c0.8-0.2,1.5-0.5,2.2-1c0.7-0.5,1.2-1.1,1.6-1.8h1.5v12.9h-1.8v-8.7
			C1852.4,1400,1852.4,1399.6,1852.5,1399.4z"/>
		<path class="st4" d="M1858.6,1408.5c-0.8-0.6-1.3-1.4-1.5-2.3l1.9-0.6c0.2,0.7,0.5,1.3,1,1.7c0.5,0.4,1.1,0.6,1.8,0.6
			c0.5,0,1-0.1,1.4-0.3c0.4-0.2,0.7-0.5,0.9-0.9c0.2-0.4,0.3-0.9,0.3-1.4s-0.1-1-0.3-1.4c-0.2-0.4-0.5-0.7-0.9-0.9
			c-0.4-0.2-0.9-0.3-1.4-0.3c-0.6,0-1.1,0.1-1.5,0.4c-0.4,0.3-0.8,0.6-1,1l-1.9-0.3l1.1-7.3h7.4v1.7h-6.1l-0.3,2.1
			c-0.1,0.7-0.3,1.3-0.4,1.7c-0.1,0.4-0.3,0.7-0.6,1h0.9c0.3-0.5,0.6-0.9,1.1-1.2s1-0.5,1.8-0.5c0.8,0,1.5,0.2,2.1,0.5
			c0.6,0.3,1.1,0.8,1.4,1.4c0.3,0.6,0.5,1.3,0.5,2.2c0,0.8-0.2,1.6-0.5,2.2c-0.4,0.6-0.9,1.1-1.5,1.5s-1.4,0.5-2.3,0.5
			C1860.5,1409.4,1859.4,1409.1,1858.6,1408.5z"/>
		<path class="st4" d="M1870.7,1408.6c-0.7-0.5-1.3-1.2-1.7-2.1s-0.6-2.1-0.6-3.4c0-1.4,0.2-2.6,0.7-3.7s1.2-1.9,2.1-2.5
			c0.9-0.6,2.1-0.9,3.4-0.9c0.4,0,0.8,0,1.3,0.1c0.5,0.1,0.8,0.2,1.2,0.3v1.8c-0.4-0.1-0.7-0.2-1.1-0.3s-0.8-0.1-1.2-0.1
			c-0.9,0-1.8,0.2-2.5,0.6c-0.7,0.4-1.3,1-1.8,1.9c-0.4,0.8-0.7,1.9-0.7,3.1h0.7c0.1-0.4,0.3-0.9,0.6-1.2c0.3-0.4,0.6-0.7,1.1-0.9
			c0.5-0.2,1-0.4,1.6-0.4c0.8,0,1.5,0.2,2.1,0.6c0.6,0.4,1.1,0.9,1.4,1.5c0.3,0.6,0.5,1.3,0.5,2.1c0,0.8-0.2,1.6-0.5,2.3
			c-0.4,0.7-0.9,1.2-1.6,1.6c-0.7,0.4-1.5,0.6-2.4,0.6C1872.3,1409.4,1871.4,1409.1,1870.7,1408.6z M1874.6,1407.4
			c0.4-0.2,0.7-0.5,0.9-1c0.2-0.4,0.3-0.9,0.3-1.4s-0.1-1-0.3-1.4c-0.2-0.4-0.5-0.7-0.9-1s-0.8-0.3-1.3-0.3c-0.5,0-0.9,0.1-1.3,0.3
			s-0.7,0.5-0.9,0.9c-0.2,0.4-0.3,0.9-0.3,1.4c0,0.5,0.1,1,0.3,1.4c0.2,0.4,0.5,0.7,0.9,1c0.4,0.2,0.8,0.3,1.3,0.3
			C1873.7,1407.8,1874.2,1407.7,1874.6,1407.4z"/>
		<path class="st4" d="M1886.6,1408.9c-0.7-0.3-1.3-0.7-1.8-1.3c-0.5-0.5-0.8-1.1-1-1.8l1.8-0.8c0.2,0.5,0.4,1,0.7,1.4
			c0.3,0.4,0.7,0.7,1.2,1c0.5,0.2,1,0.4,1.7,0.4c0.9,0,1.5-0.2,2-0.6s0.7-0.9,0.7-1.5c0-0.5-0.2-1-0.6-1.3c-0.4-0.3-1-0.6-1.8-0.8
			l-1.7-0.4c-0.7-0.1-1.3-0.4-1.8-0.7s-0.9-0.7-1.2-1.1c-0.3-0.5-0.4-1.1-0.4-1.8c0-0.7,0.2-1.3,0.6-1.9c0.4-0.6,0.9-1,1.6-1.3
			c0.7-0.3,1.5-0.5,2.3-0.5s1.6,0.2,2.3,0.5c0.6,0.3,1.2,0.7,1.6,1.2c0.4,0.5,0.7,0.9,0.8,1.4l-1.7,0.8c-0.1-0.4-0.3-0.7-0.5-1
			c-0.2-0.3-0.6-0.6-1-0.8c-0.4-0.2-0.9-0.3-1.6-0.3c-0.5,0-1,0.1-1.3,0.2c-0.4,0.2-0.7,0.4-0.9,0.7c-0.2,0.3-0.3,0.6-0.3,1
			c0,0.5,0.2,0.9,0.5,1.2c0.3,0.3,0.8,0.5,1.6,0.7l1.8,0.4c1.1,0.2,2,0.7,2.7,1.3c0.7,0.6,1,1.4,1,2.4c0,0.8-0.2,1.4-0.6,2
			s-0.9,1-1.6,1.4c-0.7,0.3-1.6,0.5-2.6,0.5C1888.1,1409.4,1887.3,1409.2,1886.6,1408.9z"/>
	</g>
</g>
<g>
	<g>
		<path class="st4" d="M2436.2,1356h1.8v12.9h-1.8V1356z"/>
		<path class="st4" d="M2441.7,1356h2.8l6.7,10.6l0.7-0.5c-0.2-0.4-0.4-0.7-0.5-1c-0.1-0.3-0.2-0.6-0.3-1c0-0.4-0.1-0.8-0.1-1.4
			v-6.8h1.8v12.9h-2.3l-7.2-11.3l-0.7,0.4c0.3,0.5,0.5,1.1,0.6,1.6c0.1,0.6,0.2,1.3,0.2,2.1v7.2h-1.8V1356z"/>
		<path class="st4" d="M2456.6,1356h3.1l2.9,7.4c0.2,0.6,0.4,1.1,0.4,1.6s0.1,1.1,0.1,1.8h0.8c0-0.7,0.1-1.3,0.1-1.8s0.2-1,0.5-1.6
			l2.8-7.4h3v12.9h-1.8v-6.7c0-0.9,0.1-1.7,0.2-2.5c0.2-0.8,0.4-1.5,0.7-2.1l-0.8-0.3l-4.5,11.6h-1.3l-4.5-11.6l-0.8,0.3
			c0.3,0.6,0.5,1.3,0.7,2.1c0.2,0.8,0.2,1.6,0.2,2.5v6.7h-1.8V1356z"/>
		<path class="st4" d="M2478.3,1356h1.8v12.9h-1.8V1356z"/>
		<path class="st4" d="M2486,1368.3c-1-0.6-1.7-1.4-2.2-2.4c-0.5-1-0.7-2.2-0.7-3.5c0-1.2,0.3-2.4,0.8-3.4s1.3-1.8,2.2-2.4
			c1-0.6,2-0.9,3.3-0.9c1,0,2,0.2,2.7,0.6c0.8,0.4,1.4,0.8,1.9,1.4c0.5,0.6,0.8,1.2,1,1.8l-1.8,0.7c-0.1-0.5-0.4-0.9-0.7-1.3
			s-0.7-0.8-1.2-1.1c-0.5-0.3-1.2-0.4-1.9-0.4c-0.9,0-1.6,0.2-2.3,0.6c-0.7,0.4-1.2,1-1.5,1.7c-0.4,0.7-0.5,1.6-0.5,2.6
			c0,1,0.2,1.9,0.5,2.7c0.4,0.8,0.9,1.4,1.5,1.8c0.7,0.4,1.4,0.7,2.3,0.7c1.1,0,2-0.3,2.6-0.8c0.6-0.5,1-1.2,1.3-2.1l1.8,0.7
			c-0.2,0.7-0.6,1.4-1.1,2c-0.5,0.6-1.1,1.1-1.9,1.4s-1.7,0.5-2.7,0.5C2488,1369.2,2486.9,1368.9,2486,1368.3z"/>
		<path class="st4" d="M2500,1368.3c-1-0.6-1.8-1.3-2.3-2.4s-0.8-2.2-0.8-3.5s0.3-2.5,0.8-3.5c0.6-1,1.3-1.8,2.3-2.4
			s2.1-0.8,3.3-0.8s2.3,0.3,3.3,0.8s1.7,1.4,2.3,2.4c0.6,1,0.8,2.2,0.8,3.5s-0.3,2.5-0.8,3.5c-0.6,1-1.3,1.8-2.3,2.4
			s-2.1,0.8-3.3,0.8S2501,1368.9,2500,1368.3z M2505.7,1366.8c0.7-0.4,1.2-1,1.6-1.8s0.5-1.6,0.5-2.6s-0.2-1.8-0.5-2.6
			s-0.9-1.4-1.6-1.8c-0.7-0.4-1.5-0.7-2.4-0.7c-0.9,0-1.7,0.2-2.4,0.7c-0.7,0.4-1.2,1-1.6,1.8s-0.5,1.6-0.5,2.6s0.2,1.8,0.5,2.6
			s0.9,1.4,1.6,1.8c0.7,0.4,1.5,0.7,2.4,0.7C2504.2,1367.5,2505,1367.3,2505.7,1366.8z"/>
		<path class="st4" d="M2512.6,1356h2.8l6.7,10.6l0.7-0.5c-0.2-0.4-0.4-0.7-0.5-1c-0.1-0.3-0.2-0.6-0.3-1c0-0.4-0.1-0.8-0.1-1.4
			v-6.8h1.8v12.9h-2.3l-7.2-11.3l-0.7,0.4c0.3,0.5,0.5,1.1,0.6,1.6c0.1,0.6,0.2,1.3,0.2,2.1v7.2h-1.8V1356z"/>
		<path class="st4" d="M2529.1,1368.7c-0.7-0.3-1.3-0.7-1.8-1.3s-0.8-1.1-1-1.8l1.8-0.8c0.2,0.5,0.4,1,0.7,1.4s0.7,0.7,1.2,1
			c0.5,0.2,1,0.4,1.7,0.4c0.9,0,1.5-0.2,2-0.6c0.5-0.4,0.7-0.9,0.7-1.5c0-0.5-0.2-1-0.6-1.3s-1-0.6-1.8-0.8l-1.7-0.4
			c-0.7-0.1-1.3-0.4-1.8-0.7c-0.5-0.3-0.9-0.7-1.2-1.1c-0.3-0.5-0.4-1.1-0.4-1.8c0-0.7,0.2-1.3,0.6-1.9s0.9-1,1.6-1.3
			c0.7-0.3,1.5-0.5,2.3-0.5c0.9,0,1.6,0.2,2.3,0.5c0.7,0.3,1.2,0.7,1.6,1.2c0.4,0.5,0.7,0.9,0.8,1.4l-1.7,0.8
			c-0.1-0.4-0.3-0.7-0.5-1c-0.2-0.3-0.6-0.6-1-0.8c-0.4-0.2-0.9-0.3-1.6-0.3c-0.5,0-1,0.1-1.3,0.2c-0.4,0.2-0.7,0.4-0.9,0.7
			c-0.2,0.3-0.3,0.6-0.3,1c0,0.5,0.2,0.9,0.5,1.2c0.3,0.3,0.8,0.5,1.6,0.7l1.8,0.4c1.1,0.2,2,0.7,2.7,1.3c0.7,0.6,1,1.4,1,2.4
			c0,0.8-0.2,1.4-0.6,2c-0.4,0.6-0.9,1-1.6,1.4s-1.6,0.5-2.6,0.5C2530.7,1369.2,2529.8,1369,2529.1,1368.7z"/>
		<path class="st4" d="M2436.2,1376.1h5.2c0.9,0,1.7,0.2,2.3,0.5c0.6,0.3,1.1,0.8,1.5,1.4c0.3,0.6,0.5,1.3,0.5,2
			c0,0.8-0.2,1.5-0.5,2.1c-0.3,0.6-0.8,1-1.5,1.4c-0.6,0.3-1.4,0.5-2.3,0.5h-3.4v5h-1.8V1376.1z M2442.5,1382.1
			c0.4-0.2,0.7-0.5,0.9-0.8c0.2-0.3,0.3-0.8,0.3-1.2c0-0.5-0.1-0.8-0.3-1.2s-0.5-0.6-0.9-0.8c-0.4-0.2-0.9-0.3-1.5-0.3h-3v4.6h3
			C2441.6,1382.4,2442.1,1382.3,2442.5,1382.1z"/>
		<path class="st4" d="M2448.2,1376.1h4.5c1.2,0,2.3,0.3,3.2,0.8s1.7,1.3,2.2,2.2c0.5,1,0.8,2.1,0.8,3.4c0,1.3-0.3,2.5-0.8,3.5
			c-0.5,1-1.2,1.7-2.2,2.2c-1,0.5-2.1,0.8-3.3,0.8h-4.4V1376.1z M2449.8,1387.3h2.5c1,0,1.9-0.2,2.6-0.5s1.2-0.9,1.5-1.6
			c0.3-0.7,0.5-1.6,0.5-2.6c0-1-0.2-1.8-0.5-2.5c-0.3-0.7-0.8-1.3-1.5-1.6c-0.7-0.4-1.5-0.6-2.5-0.6h-2.6l0.2-0.2v9.8L2449.8,1387.3
			z"/>
		<path class="st4" d="M2461.8,1376.1h9.4v1.7h-7.7l0.2-0.2v11.3h-1.8V1376.1z M2463.3,1381.9h6.2v1.7h-6.2V1381.9z"/>
		<path class="st4" d="M2479.3,1387.3c-1-0.5-1.7-1.2-2.2-2c-0.5-0.8-0.7-1.7-0.7-2.7c0-1,0.2-1.9,0.7-2.7c0.5-0.8,1.2-1.5,2.2-2
			c1-0.5,2.2-0.8,3.6-0.9v-1.4h1.8v1.4c1.4,0.1,2.6,0.3,3.6,0.9c1,0.5,1.7,1.2,2.2,2c0.5,0.8,0.7,1.7,0.7,2.7c0,1-0.2,1.9-0.7,2.7
			c-0.5,0.8-1.2,1.5-2.2,2c-1,0.5-2.2,0.8-3.6,0.9v1.4h-1.8v-1.4C2481.4,1388.1,2480.2,1387.8,2479.3,1387.3z M2483,1379.6
			c0.1-0.3,0.3-0.6,0.6-0.8l-0.3-0.7c-1,0.1-1.9,0.3-2.6,0.7c-0.7,0.4-1.3,0.9-1.7,1.5c-0.4,0.6-0.6,1.4-0.6,2.2
			c0,0.7,0.2,1.4,0.5,1.9c0.3,0.6,0.8,1,1.5,1.4c0.7,0.4,1.5,0.6,2.5,0.6v-5.6C2482.8,1380.3,2482.9,1379.9,2483,1379.6z
			 M2484.5,1385.6c-0.1,0.3-0.3,0.6-0.6,0.8l0.3,0.7c1-0.1,1.9-0.3,2.6-0.7c0.7-0.4,1.3-0.9,1.7-1.5c0.4-0.6,0.6-1.4,0.6-2.2
			c0-0.7-0.2-1.4-0.5-1.9c-0.3-0.6-0.8-1-1.5-1.4s-1.5-0.6-2.5-0.6v5.6C2484.7,1384.8,2484.6,1385.3,2484.5,1385.6z"/>
		<path class="st4" d="M2496.8,1376.1h2.5l4.7,12.9h-2.1l-3-8.6c-0.2-0.6-0.4-1.1-0.4-1.5s-0.1-0.9-0.1-1.5h-0.8
			c0,0.6-0.1,1.1-0.2,1.5c-0.1,0.4-0.2,0.9-0.4,1.5l-3.1,8.6h-2L2496.8,1376.1z M2495.2,1383.9h5.7l0.6,1.7h-6.9L2495.2,1383.9z"/>
		<path class="st4" d="M2506.3,1376.1h1.8v7.6c0,0.8-0.1,1.4-0.2,1.9c-0.1,0.5-0.3,1-0.7,1.5l0.7,0.5l6.9-11.5h2.7v12.9h-1.8v-7.6
			c0-0.8,0.1-1.4,0.2-1.9c0.1-0.5,0.3-1,0.7-1.5l-0.7-0.5l-6.9,11.5h-2.7V1376.1z M2510.1,1374.7c-0.5-0.2-0.8-0.5-1-0.9
			s-0.3-0.8-0.4-1.2h1.8c0.1,0.3,0.2,0.6,0.5,0.8c0.3,0.2,0.6,0.3,1,0.3c0.4,0,0.8-0.1,1-0.3c0.3-0.2,0.4-0.5,0.5-0.8h1.8
			c0,0.7-0.3,1.3-0.8,1.8c-0.5,0.5-1.3,0.7-2.4,0.7C2511.1,1375.1,2510.5,1375,2510.1,1374.7z"/>
		<path class="st4" d="M2519.7,1387.3h0.6c0.4,0,0.7,0,0.9-0.1c0.2-0.1,0.4-0.2,0.6-0.4c0.1-0.2,0.3-0.4,0.3-0.7
			c0.1-0.5,0.2-1.2,0.2-2.1c0-0.9,0.1-2,0.1-3.3l0.1-4.6h9.1v12.9h-1.8v-11.2h-5.5l-0.1,3.5c0,1.3-0.1,2.4-0.1,3.2
			c-0.1,0.8-0.2,1.5-0.3,2.1c-0.1,0.6-0.3,1-0.6,1.3c-0.3,0.3-0.6,0.6-1,0.8c-0.4,0.2-1,0.2-1.7,0.2h-0.8V1387.3z"/>
		<path class="st4" d="M2438.2,1408.6c-0.9-0.5-1.6-1.3-2.1-2.3s-0.7-2.2-0.7-3.5c0-1.3,0.3-2.4,0.9-3.5c0.6-1,1.4-1.8,2.3-2.4
			c1-0.6,2.1-0.9,3.2-0.9c1,0,2,0.2,2.7,0.5s1.4,0.8,1.9,1.4s0.9,1.2,1.1,1.9l-1.9,0.8c-0.2-0.6-0.5-1.1-0.8-1.5
			c-0.3-0.4-0.8-0.8-1.3-1c-0.5-0.2-1.1-0.4-1.8-0.4c-0.8,0-1.5,0.2-2.2,0.6c-0.7,0.4-1.2,0.9-1.6,1.7c-0.4,0.8-0.6,1.7-0.6,2.7
			c0,1,0.2,1.9,0.6,2.7s0.9,1.3,1.5,1.7c0.7,0.4,1.4,0.6,2.3,0.6c0.8,0,1.5-0.2,2.1-0.5c0.6-0.3,1-0.7,1.4-1.2
			c0.3-0.5,0.5-1,0.5-1.6h-4.4v-1.7h6.3v6.3h-1.8c0-0.5,0.1-0.9,0.2-1.4c0.1-0.5,0.3-0.9,0.5-1.3h-0.9c-0.3,0.7-0.8,1.4-1.5,2
			c-0.7,0.6-1.7,0.9-3,0.9C2440,1409.4,2439,1409.1,2438.2,1408.6z"/>
		<path class="st4" d="M2450.7,1396.2h9.4v1.7h-7.7l0.2-0.2v11.3h-1.8V1396.2z M2452.3,1402h6.2v1.7h-6.2V1402z"/>
		<path class="st4" d="M2461.2,1401.6h5.3v1.8h-5.3V1401.6z"/>
		<path class="st4" d="M2471.4,1408.6c-0.8-0.5-1.4-1.3-1.8-2.3c-0.4-1-0.6-2.2-0.6-3.7c0-1.4,0.2-2.6,0.7-3.6
			c0.5-1,1.1-1.8,1.9-2.3c0.8-0.5,1.7-0.8,2.6-0.8c1,0,1.8,0.3,2.6,0.8c0.8,0.5,1.4,1.3,1.8,2.3s0.7,2.2,0.7,3.6
			c0,1.4-0.2,2.7-0.6,3.7c-0.4,1-1,1.8-1.8,2.3s-1.7,0.8-2.7,0.8S2472.1,1409.1,2471.4,1408.6z M2475.8,1407.2
			c0.5-0.4,0.8-1,1.1-1.7c0.3-0.8,0.4-1.7,0.4-2.8c0-1-0.1-1.9-0.4-2.7c-0.3-0.8-0.6-1.3-1.1-1.7s-1-0.6-1.7-0.6
			c-0.6,0-1.2,0.2-1.7,0.6c-0.5,0.4-0.9,1-1.1,1.7s-0.4,1.6-0.4,2.7c0,1.1,0.1,2,0.4,2.8s0.6,1.3,1.1,1.7c0.5,0.4,1.1,0.6,1.7,0.6
			C2474.7,1407.7,2475.3,1407.5,2475.8,1407.2z"/>
		<path class="st4" d="M2484.5,1399.4c0-0.3,0.1-0.6,0.3-0.9h-0.8c-0.2,0.5-0.4,0.9-0.7,1.3c-0.3,0.4-0.6,0.7-1,0.9
			c-0.4,0.2-0.8,0.4-1.3,0.4v-1.9c0.8-0.2,1.5-0.5,2.2-1c0.7-0.5,1.2-1.1,1.6-1.8h1.5v12.9h-1.8v-8.7
			C2484.4,1400,2484.4,1399.6,2484.5,1399.4z"/>
		<path class="st4" d="M2490.9,1409.3c-0.5-0.1-0.9-0.2-1.2-0.3v-1.9c0.4,0.1,0.7,0.2,1.1,0.3s0.8,0.1,1.3,0.1
			c0.8,0,1.6-0.2,2.2-0.5c0.6-0.3,1.1-0.8,1.5-1.4c0.3-0.4,0.5-1,0.6-1.6c0.2-0.6,0.2-1.2,0.2-1.8h-0.8c-0.2,0.6-0.6,1.1-1.1,1.5
			c-0.5,0.4-1.2,0.6-1.9,0.6c-0.8,0-1.4-0.2-2-0.5c-0.6-0.3-1-0.8-1.3-1.4s-0.5-1.3-0.5-2c0-0.8,0.2-1.6,0.5-2.3
			c0.3-0.7,0.8-1.2,1.5-1.6c0.6-0.4,1.4-0.6,2.3-0.6c0.6,0,1.3,0.1,1.8,0.3c0.6,0.2,1,0.6,1.5,1c0.5,0.5,0.9,1.2,1.2,2
			c0.3,0.8,0.4,1.8,0.4,2.9c0,1.4-0.2,2.7-0.7,3.7c-0.4,1.1-1.1,1.9-2,2.5s-2,0.9-3.3,0.9
			C2491.8,1409.4,2491.4,1409.3,2490.9,1409.3z M2494.7,1402.5c0.4-0.2,0.7-0.5,0.9-0.9s0.3-0.9,0.3-1.4c0-0.5-0.1-1-0.3-1.4
			s-0.5-0.7-0.9-0.9c-0.4-0.2-0.8-0.3-1.3-0.3c-0.5,0-0.9,0.1-1.3,0.3c-0.4,0.2-0.7,0.5-0.9,0.9c-0.2,0.4-0.3,0.9-0.3,1.4
			c0,0.5,0.1,1,0.3,1.4c0.2,0.4,0.5,0.7,0.9,0.9c0.4,0.2,0.8,0.3,1.3,0.3C2493.9,1402.8,2494.4,1402.7,2494.7,1402.5z"/>
		<path class="st4" d="M2502.9,1408.6c-0.8-0.5-1.4-1.3-1.8-2.3c-0.4-1-0.6-2.2-0.6-3.7c0-1.4,0.2-2.6,0.7-3.6
			c0.5-1,1.1-1.8,1.9-2.3s1.7-0.8,2.6-0.8c1,0,1.8,0.3,2.6,0.8c0.8,0.5,1.4,1.3,1.8,2.3s0.7,2.2,0.7,3.6c0,1.4-0.2,2.7-0.6,3.7
			c-0.4,1-1,1.8-1.8,2.3s-1.7,0.8-2.7,0.8C2504.6,1409.4,2503.7,1409.1,2502.9,1408.6z M2507.4,1407.2c0.5-0.4,0.8-1,1.1-1.7
			c0.3-0.8,0.4-1.7,0.4-2.8c0-1-0.1-1.9-0.4-2.7c-0.3-0.8-0.6-1.3-1.1-1.7s-1-0.6-1.7-0.6c-0.6,0-1.2,0.2-1.7,0.6
			c-0.5,0.4-0.9,1-1.1,1.7s-0.4,1.6-0.4,2.7c0,1.1,0.1,2,0.4,2.8c0.3,0.8,0.6,1.3,1.1,1.7c0.5,0.4,1.1,0.6,1.7,0.6
			C2506.3,1407.7,2506.9,1407.5,2507.4,1407.2z"/>
		<path class="st4" d="M2519.7,1408.9c-0.7-0.3-1.3-0.7-1.8-1.3c-0.5-0.5-0.8-1.1-1-1.8l1.8-0.8c0.2,0.5,0.4,1,0.7,1.4
			c0.3,0.4,0.7,0.7,1.2,1c0.5,0.2,1,0.4,1.7,0.4c0.9,0,1.5-0.2,2-0.6s0.7-0.9,0.7-1.5c0-0.5-0.2-1-0.6-1.3c-0.4-0.3-1-0.6-1.8-0.8
			l-1.7-0.4c-0.7-0.1-1.3-0.4-1.8-0.7s-0.9-0.7-1.2-1.1c-0.3-0.5-0.4-1.1-0.4-1.8c0-0.7,0.2-1.3,0.6-1.9c0.4-0.6,0.9-1,1.6-1.3
			c0.7-0.3,1.5-0.5,2.3-0.5s1.6,0.2,2.3,0.5c0.6,0.3,1.2,0.7,1.6,1.2c0.4,0.5,0.7,0.9,0.8,1.4l-1.7,0.8c-0.1-0.4-0.3-0.7-0.5-1
			c-0.2-0.3-0.6-0.6-1-0.8c-0.4-0.2-0.9-0.3-1.6-0.3c-0.5,0-1,0.1-1.3,0.2c-0.4,0.2-0.7,0.4-0.9,0.7c-0.2,0.3-0.3,0.6-0.3,1
			c0,0.5,0.2,0.9,0.5,1.2c0.3,0.3,0.8,0.5,1.6,0.7l1.8,0.4c1.1,0.2,2,0.7,2.7,1.3c0.7,0.6,1,1.4,1,2.4c0,0.8-0.2,1.4-0.6,2
			s-0.9,1-1.6,1.4c-0.7,0.3-1.6,0.5-2.6,0.5C2521.3,1409.4,2520.5,1409.2,2519.7,1408.9z"/>
	</g>
</g>
<line class="st1" x1="296" y1="1262" x2="296" y2="1414"/>
<line class="st1" x1="1210" y1="1262" x2="1210" y2="1414"/>
<line class="st1" x1="1781" y1="1262" x2="1781" y2="1414"/>
<line class="st1" x1="2411" y1="1262" x2="2411" y2="1414"/>
</svg>
