<?xml version="1.0" encoding="utf-8"?>
<!-- Generator: Adobe Illustrator 22.0.0, SVG Export Plug-In . SVG Version: 6.00 Build 0)  -->
<svg version="1.1" id="Layer_1" xmlns="http://www.w3.org/2000/svg" xmlns:xlink="http://www.w3.org/1999/xlink" x="0px" y="0px"
	 viewBox="0 0 397 228" style="enable-background:new 0 0 397 228;" xml:space="preserve">
<style type="text/css">
	.st0{fill:#FFFFFF;}
	.st1{fill:none;stroke:#D5D5D6;stroke-width:15;stroke-miterlimit:10;}
	.st2{fill:none;stroke:#A292FF;stroke-width:15;stroke-miterlimit:10;}
	.st3{fill:#A292FF;}
</style>
<rect class="st0" width="397" height="228"/>
<g>
	<path class="st1" d="M53.5,220.5c0-81.2,65.8-147,147-147s147,65.8,147,147"/>
	<path class="st2" d="M53.5,220.5c0-30.4,9.3-58.7,25.1-82.2"/>
	<g>
		<g>
			<path class="st3" d="M101,210.9l26.5-22.6c6.2-5.2,10.8-10,10.8-16.7c0-7.9-5.2-12.2-13.1-12.2s-13.2,5.3-13.2,13.9v1.2h-10.9
				v-1.8c0-13.1,9.5-22.7,24.1-22.7c15.5,0,24.1,8.5,24.1,21.1c0,10.2-6.2,16.7-14.6,23.6L116.4,210h33.4v9.6H101V210.9z"/>
			<path class="st3" d="M154.1,183.6c0-20,11.1-33.5,27.2-33.5s27.2,13.5,27.2,33.5v3.2c0,20.8-11.1,33.5-27.2,33.5
				s-27.2-12.7-27.2-33.5C154.1,186.8,154.1,183.6,154.1,183.6z M197.4,184c0-15.4-6.5-24.3-16.2-24.3s-16.2,9-16.2,24.3v2.4
				c0,15.5,6.5,24.3,16.2,24.3s16.2-8.9,16.2-24.3V184z"/>
			<path class="st3" d="M232.1,150.1c10.1,0,17.6,7.1,17.6,16.8s-7.5,16.7-17.6,16.7s-17.6-7-17.6-16.7S222,150.1,232.1,150.1z
				 M232.1,158.2c-4.9,0-8.6,3.7-8.6,8.8s3.6,8.8,8.6,8.8s8.7-3.7,8.7-8.8S237.1,158.2,232.1,158.2z M225.9,219.7l47.1-69h10.5
				l-47.2,69H225.9z M277.1,186.7c10.1,0,17.6,7,17.6,16.8c0,9.7-7.5,16.7-17.6,16.7s-17.6-7.1-17.6-16.7
				C259.5,193.7,267,186.7,277.1,186.7z M277.1,194.6c-4.9,0-8.7,3.8-8.7,8.9s3.7,8.7,8.7,8.7s8.7-3.6,8.7-8.7
				S282.1,194.6,277.1,194.6z"/>
		</g>
	</g>
</g>
</svg>
