<?xml version="1.0" encoding="utf-8"?>
<!-- Generator: Adobe Illustrator 22.0.0, SVG Export Plug-In . SVG Version: 6.00 Build 0)  -->
<svg version="1.1" id="Layer_1" xmlns="http://www.w3.org/2000/svg" xmlns:xlink="http://www.w3.org/1999/xlink" x="0px" y="0px"
	 viewBox="0 0 397 228" style="enable-background:new 0 0 397 228;" xml:space="preserve">
<style type="text/css">
	.st0{fill:#FFFFFF;}
	.st1{fill:none;stroke:#D5D5D6;stroke-width:15;stroke-miterlimit:10;}
	.st2{fill:none;stroke:#A292FF;stroke-width:15;stroke-miterlimit:10;}
	.st3{fill:#A292FF;}
</style>
<rect class="st0" width="397" height="228"/>
<g>
	<path class="st1" d="M53.5,220.5c0-81.2,65.8-147,147-147s147,65.8,147,147"/>
	<path class="st2" d="M53.5,220.5c0-81.2,65.8-147,147-147c29.2,0,56.4,8.5,79.2,23.2"/>
	<g>
		<g>
			<path class="st3" d="M101.8,150.7h49.5v7.3L119,219.7h-11.8l32.1-59.4h-37.5V150.7z"/>
			<path class="st3" d="M151.9,183.6c0-20,11.1-33.5,27.2-33.5s27.2,13.5,27.2,33.5v3.2c0,20.8-11.1,33.5-27.2,33.5
				s-27.2-12.7-27.2-33.5C151.9,186.8,151.9,183.6,151.9,183.6z M195.3,184c0-15.4-6.5-24.3-16.2-24.3s-16.2,9-16.2,24.3v2.4
				c0,15.5,6.5,24.3,16.2,24.3s16.2-8.9,16.2-24.3V184z"/>
			<path class="st3" d="M229.9,150.1c10.1,0,17.6,7.1,17.6,16.8s-7.5,16.7-17.6,16.7s-17.6-7-17.6-16.7S219.8,150.1,229.9,150.1z
				 M229.9,158.2c-4.9,0-8.6,3.7-8.6,8.8s3.6,8.8,8.6,8.8s8.7-3.7,8.7-8.8S235,158.2,229.9,158.2z M223.7,219.7l47.1-69h10.5
				l-47.2,69H223.7z M275,186.7c10.1,0,17.6,7,17.6,16.8c0,9.7-7.5,16.7-17.6,16.7s-17.6-7.1-17.6-16.7
				C257.3,193.7,264.8,186.7,275,186.7z M275,194.6c-4.9,0-8.7,3.8-8.7,8.9s3.7,8.7,8.7,8.7s8.7-3.6,8.7-8.7S279.9,194.6,275,194.6z
				"/>
		</g>
	</g>
</g>
</svg>
