<?xml version="1.0" encoding="utf-8"?>
<!-- Generator: Adobe Illustrator 22.0.0, SVG Export Plug-In . SVG Version: 6.00 Build 0)  -->
<svg version="1.1" id="Layer_1" xmlns="http://www.w3.org/2000/svg" xmlns:xlink="http://www.w3.org/1999/xlink" x="0px" y="0px"
	 viewBox="0 0 309 154.5" style="enable-background:new 0 0 309 154.5;" xml:space="preserve">
<style type="text/css">
	.st0{fill:none;stroke:#D5D5D6;stroke-width:15;stroke-miterlimit:10;}
	.st1{fill:none;stroke:#A292FF;stroke-width:15;stroke-miterlimit:10;}
	.st2{fill:#A292FF;}
</style>
<path class="st0" d="M7.5,154.5c0-81.2,65.8-147,147-147s147,65.8,147,147"/>
<path class="st1" d="M7.5,154.5c0-81.2,65.8-147,147-147c29.2,0,56.4,8.5,79.2,23.2"/>
<g>
	<g>
		<path class="st2" d="M55.8,84.7h49.5V92l-32.3,61.7H61.2l32.1-59.4H55.8V84.7z"/>
		<path class="st2" d="M105.9,117.6c0-20,11.1-33.5,27.2-33.5s27.2,13.5,27.2,33.5v3.2c0,20.8-11.1,33.5-27.2,33.5
			s-27.2-12.7-27.2-33.5V117.6z M149.3,118c0-15.4-6.5-24.3-16.2-24.3c-9.7,0-16.2,9-16.2,24.3v2.4c0,15.5,6.5,24.3,16.2,24.3
			c9.7,0,16.2-8.9,16.2-24.3V118z"/>
		<path class="st2" d="M183.9,84.1c10.1,0,17.6,7.1,17.6,16.8s-7.5,16.7-17.6,16.7c-10.1,0-17.6-7-17.6-16.7S173.8,84.1,183.9,84.1z
			 M183.9,92.2c-4.9,0-8.6,3.7-8.6,8.8s3.6,8.8,8.6,8.8c5,0,8.7-3.7,8.7-8.8S189,92.2,183.9,92.2z M177.7,153.7l47.1-69h10.5
			l-47.2,69H177.7z M229,120.7c10.1,0,17.6,7,17.6,16.8c0,9.7-7.5,16.7-17.6,16.7c-10.1,0-17.6-7.1-17.6-16.7
			C211.3,127.7,218.8,120.7,229,120.7z M229,128.6c-4.9,0-8.7,3.8-8.7,8.9s3.7,8.7,8.7,8.7s8.7-3.6,8.7-8.7S233.9,128.6,229,128.6z"
			/>
	</g>
</g>
</svg>
