<?xml version="1.0" encoding="utf-8"?>
<!-- Generator: Adobe Illustrator 22.0.0, SVG Export Plug-In . SVG Version: 6.00 Build 0)  -->
<svg version="1.1" id="Layer_1" xmlns="http://www.w3.org/2000/svg" xmlns:xlink="http://www.w3.org/1999/xlink" x="0px" y="0px"
	 viewBox="0 0 397 228" style="enable-background:new 0 0 397 228;" xml:space="preserve">
<style type="text/css">
	.st0{fill:#FFFFFF;}
	.st1{fill:none;stroke:#D5D5D6;stroke-width:15;stroke-miterlimit:10;}
	.st2{fill:none;stroke:#A292FF;stroke-width:15;stroke-miterlimit:10;}
	.st3{fill:#A292FF;}
</style>
<rect class="st0" width="397" height="228"/>
<path class="st1" d="M53.5,220.5c0-81.2,65.8-147,147-147s147,65.8,147,147"/>
<path class="st2" d="M53.5,220.5c0-81.2,65.8-147,147-147c77.8,0,141.5,60.5,146.7,137"/>
<g>
	<g>
		<path class="st3" d="M102.3,200.7H113c1.5,6.3,6.1,10.4,13.5,10.4c10.8,0,16.7-9.5,16.7-23.5c0-0.8,0-1.5-0.1-2.8
			c-0.3,0.6-0.5,1.2-1,2.1c-3.2,5.8-9.5,9.5-17.5,9.5c-13.7,0-23.3-9-23.3-23.1c0-13.5,10-23.3,24.7-23.3c9.5,0,16.5,4,21.1,10.8
			c3.8,5.9,6.1,14.3,6.1,23.7c0,22.2-10,35.6-27.2,35.6C112.8,220.3,103.9,212.9,102.3,200.7z M140.1,173.2c0-8.4-5.6-14.1-14-14.1
			s-13.9,5.9-13.9,14.3c0,8.3,5.2,14.2,13.7,14.2C134.3,187.5,140.1,181.7,140.1,173.2z"/>
		<path class="st3" d="M209.8,200.8c0,11.4-9.7,19.4-25.9,19.4s-25.8-8-25.8-19.4c0-9.6,6.3-15.3,13.7-16.9
			c-6.3-1.6-11.8-7.1-11.8-15.5c0-10.7,9.3-18.3,23.9-18.3c14.8,0,24,7.6,24,18.3c0,8.1-5.5,13.9-11.9,15.4
			C203.4,185.4,209.8,191.1,209.8,200.8z M198.7,200.3c0-6.7-6-11.5-14.8-11.5c-8.7,0-14.7,4.8-14.7,11.5s6,11.6,14.7,11.6
			C192.7,211.9,198.7,207,198.7,200.3z M171,168.7c0,6.1,5.1,10.2,12.9,10.2c7.9,0,13-4.1,13-10.2c0-6-5.1-10.1-13-10.1
			C176.1,158.6,171,162.7,171,168.7z"/>
		<path class="st3" d="M233,150.1c10.1,0,17.6,7.1,17.6,16.8s-7.5,16.7-17.6,16.7s-17.6-7-17.6-16.7S222.9,150.1,233,150.1z
			 M233,158.2c-4.9,0-8.6,3.7-8.6,8.8s3.6,8.8,8.6,8.8s8.7-3.7,8.7-8.8S238.1,158.2,233,158.2z M226.8,219.7l47.1-69h10.5l-47.2,69
			H226.8z M278.1,186.7c10.1,0,17.6,7,17.6,16.8c0,9.7-7.5,16.7-17.6,16.7s-17.6-7.1-17.6-16.7C260.4,193.7,267.9,186.7,278.1,186.7
			z M278.1,194.6c-4.9,0-8.7,3.8-8.7,8.9s3.7,8.7,8.7,8.7s8.7-3.6,8.7-8.7S283,194.6,278.1,194.6z"/>
	</g>
</g>
</svg>
