<?xml version="1.0" encoding="utf-8"?>
<!-- Generator: Adobe Illustrator 22.0.0, SVG Export Plug-In . SVG Version: 6.00 Build 0)  -->
<svg version="1.1" id="Layer_1" xmlns="http://www.w3.org/2000/svg" xmlns:xlink="http://www.w3.org/1999/xlink" x="0px" y="0px"
	 viewBox="0 0 46.7 42" style="enable-background:new 0 0 46.7 42;" xml:space="preserve">
<style type="text/css">
	.st0{fill:none;stroke:#FFFFFF;stroke-width:3;stroke-linecap:round;stroke-linejoin:round;}
</style>
<g>
	<path class="st0" d="M23.6,6.4L27,3c2-2,5.2-2,7.2,0l9.5,9.5c2,2,2,5.2,0,7.2L32.8,30.6l-9,9c-1.2,1.2-3,1.2-4.2,0l0,0
		c-1.2-1.2-1.2-3,0-4.2l8.6-8.6"/>
	<path class="st0" d="M19.9,18.5l-8.6,8.6c-1.2,1.2-3,1.2-4.2,0l0,0c-1.2-1.2-1.2-3,0-4.2l9-9l3.2-3.2"/>
	<path class="st0" d="M24,22.7l-8.6,8.6c-1.2,1.2-3,1.2-4.2,0l0,0c-1.2-1.2-1.2-3,0-4.2l8.6-8.6"/>
	<path class="st0" d="M28.2,26.8l-8.6,8.6c-1.2,1.2-3,1.2-4.2,0l0,0c-1.2-1.2-1.2-3,0-4.2l8.6-8.6"/>
	<path class="st0" d="M19.5,10.6l6.2,6.2c1.2,1.2,3,1.2,4.2,0l0,0c1.2-1.2,1.2-3,0-4.2L20.2,3c-2-2-5.2-2-7.2,0L3,13.1
		c-2,2-2,5.2,0,7.2l2,2"/>
</g>
</svg>
