<?xml version="1.0" encoding="utf-8"?>
<!-- Generator: Adobe Illustrator 22.0.0, SVG Export Plug-In . SVG Version: 6.00 Build 0)  -->
<svg version="1.1" id="Layer_1" xmlns="http://www.w3.org/2000/svg" xmlns:xlink="http://www.w3.org/1999/xlink" x="0px" y="0px"
	 viewBox="0 0 894 242.5" style="enable-background:new 0 0 894 242.5;" xml:space="preserve">
<style type="text/css">
	.st0{fill:#3B3B4B;}
	.st1{opacity:0;}
</style>
<g>
	<g>
		<path class="st0" d="M194,121.2c0,22.5-6.9,44.4-20,62.9c-13.1,18.4-31.5,32.4-52.7,39.8v-26.1c14.6-6.9,26.7-17.7,35.4-31.3
			c8.5-13.6,13.1-29.3,13.1-45.3s-4.6-31.7-13.2-45.3c-8.5-13.6-20.8-24.4-35.4-31.2V18.6C142.6,26.1,161,40,174,58.4
			C187,76.7,194,98.8,194,121.2z"/>
		<rect y="109.1" class="st0" width="96.9" height="24.2"/>
		<path class="st0" d="M145.5,121.2c0-8-1.5-15.8-4.6-23.2c-3.1-7.4-7.6-14-13.1-19.6c-5.6-5.6-12.4-10.1-19.6-13.1
			c-7.2-3-15.2-4.6-23.2-4.6H48.6v24.1h72.7v72.6H48.6v24.2H85c8,0,15.8-1.5,23.2-4.6s14.1-7.6,19.6-13.1
			c5.6-5.6,10.1-12.3,13.1-19.6C144,137,145.5,129.2,145.5,121.2z"/>
	</g>
</g>
<g>
	<g>
		<path class="st0" d="M275-844.7c0,22.5-6.9,44.4-20,62.9c-13.1,18.4-31.5,32.4-52.7,39.8v-26.1c14.6-6.9,26.7-17.7,35.4-31.3
			c8.5-13.6,13.1-29.3,13.1-45.3s-4.6-31.7-13.2-45.3c-8.5-13.6-20.8-24.4-35.4-31.2v-26.1c21.3,7.6,39.7,21.5,52.8,39.8
			C268-889.2,275-867.2,275-844.7z"/>
		<rect x="81" y="-856.9" class="st0" width="96.9" height="24.2"/>
		<path class="st0" d="M226.5-844.7c0-8-1.5-15.8-4.6-23.2c-3.1-7.4-7.6-14-13.1-19.6c-5.6-5.6-12.4-10.1-19.6-13.1
			c-7.2-3-15.2-4.6-23.2-4.6h-36.3v24.1h72.7v72.6h-72.7v24.2h36.3c8,0,15.8-1.5,23.2-4.6c7.4-3.1,14.1-7.6,19.6-13.1
			c5.6-5.6,10.1-12.3,13.1-19.6C225-828.9,226.5-836.7,226.5-844.7z"/>
	</g>
</g>
<g>
	<path class="st0" d="M310.3,58.3c-29.2,0-50.4,16.8-55.4,43.9l-0.2,1.2h22.8l0.2-0.8c3.8-15.3,16.4-25.1,32.3-25.1
		c19.7,0,34,13.1,37.4,34.2h-52.3v19.2h52.5c-3.2,21.7-17.5,35.1-37.7,35.1c-17.1,0-29-9.3-32.6-25.6l-0.2-0.8h-22.6l0.2,1.2
		c5.3,28.2,25.3,44.4,54.9,44.4c36.3,0,60.6-25.6,60.6-63.8C370.5,83.1,346.9,58.3,310.3,58.3z"/>
	<path class="st0" d="M390,119.9c0,37.7-5.6,44-18.2,44h-4.6v20h7.7c26.4,0,36.2-17.1,36.2-63.3V79.7h51.7v104.2h21.6V59.7H390
		V119.9z"/>
	<polygon class="st0" points="600.4,59.7 492.6,59.7 492.6,79.7 535.7,79.7 535.7,183.9 557.3,183.9 557.3,79.7 600.4,79.7 	"/>
	<path class="st0" d="M701.3,59.7l-2.4,17.5c-9.2-12.4-23.4-18.9-41.3-18.9c-35.1,0-59.7,26.1-59.7,63.5c0,38.6,23.4,63.5,59.7,63.5
		c16.9,0,31.1-6.7,41.2-19.5l2.4,18.1h18.9V59.7H701.3z M659.5,165.8c-23.6,0-39.5-17.7-39.5-44c0-26.3,15.9-44,39.5-44
		c23.1,0,39.2,18.3,39.2,44.5C698.8,147.9,682.6,165.8,659.5,165.8z"/>
</g>
<g>
	<g>
		<path class="st0" d="M82-423.3c0,22.5-6.9,44.4-20,62.9C48.9-342,30.5-328,9.3-320.6v-26.1c14.6-6.9,26.7-17.7,35.4-31.3
			c8.5-13.6,13.1-29.3,13.1-45.3s-4.6-31.7-13.2-45.3c-8.5-13.6-20.8-24.4-35.4-31.2v-26.1c21.3,7.6,39.7,21.5,52.8,39.8
			C74.9-467.8,82-445.7,82-423.3z"/>
		<rect x="-112" y="-435.4" class="st0" width="96.9" height="24.2"/>
		<path class="st0" d="M33.4-423.3c0-8-1.5-15.8-4.6-23.2c-3.1-7.4-7.6-14-13.1-19.6c-5.6-5.6-12.4-10.1-19.6-13.1
			c-7.2-3-15.2-4.6-23.2-4.6h-36.3v24.1H9.3v72.6h-72.7v24.2h36.3c8,0,15.8-1.5,23.2-4.6s14.1-7.6,19.6-13.1
			c5.6-5.6,10.1-12.3,13.1-19.6C31.9-407.4,33.4-415.3,33.4-423.3z"/>
	</g>
</g>
<text transform="matrix(1 0 0 1 129.4518 -362.7732)" style="fill:#3B3B4B;stroke:#3B3B4B;stroke-width:2;stroke-miterlimit:10; font-family:'AeonikPro-Regular'; font-size:239.5132px;">элта</text>
<g class="st1">
	<path class="st0" d="M311.3,56.4c-29.7,0-50.9,17-55.4,44.4l-0.2,1h23.3l0.2-0.6c4.3-16.1,16-24.9,32.9-24.9
		c19.7,0,33.3,13.2,36.5,35.2h-48.6V131h48.6c-3,22.4-17.4,36.3-37.6,36.3c-16.8,0-28.4-8.8-32.7-24.9l-0.2-0.6h-23.3l0.2,1
		c4.5,27.4,25.5,44.4,54.9,44.4c37.7,0,62.1-25.7,62.1-65.4c0-19.5-5.6-35.9-16.1-47.5C345.1,62.6,329.7,56.4,311.3,56.4z"/>
	<path class="st0" d="M394.3,120.9c0,38-6.1,45-18,45h-4.1v20.2h6.7c26.7,0,37.1-17.8,37.1-63.6V77.7h49.2v108.4h22.6V57.5h-93.5
		V120.9z"/>
	<polygon class="st0" points="605.1,57.5 498.2,57.5 498.2,77.7 540.4,77.7 540.4,186.1 563,186.1 563,77.7 605.1,77.7 	"/>
	<path class="st0" d="M662.4,58.1l-0.2-0.6h-26l-47.7,127.4l-0.4,1.2h23.4l11.8-31.4H674l11.7,30.8l0.2,0.6h24.2L662.4,58.1z
		 M667.6,135.2h-37.9l18.9-51.9L667.6,135.2z"/>
</g>
</svg>
