<?xml version="1.0" encoding="utf-8"?>
<!-- Generator: Adobe Illustrator 22.0.0, SVG Export Plug-In . SVG Version: 6.00 Build 0)  -->
<svg version="1.1" id="Layer_1" xmlns="http://www.w3.org/2000/svg" xmlns:xlink="http://www.w3.org/1999/xlink" x="0px" y="0px"
	 viewBox="0 0 300 317.8" style="enable-background:new 0 0 300 317.8;" xml:space="preserve">
<style type="text/css">
	.st0{fill:#FFFFFF;}
</style>
<g>
	<g>
		<path class="st0" d="M300,158.9c0,34.8-10.8,68.9-30.8,97.2s-48.6,50.1-81.5,61.7v-40.3c22.6-10.6,41.4-27.5,54.8-48.4
			c13.2-20.9,20.3-45.3,20.3-70.1s-7-49.2-20.5-70.1C229,67.9,210,51.1,187.4,40.3V0c32.9,11.6,61.4,33.1,81.5,61.7
			C289,90,300,124.1,300,158.9z"/>
		<rect y="140.3" class="st0" width="150" height="37.4"/>
		<path class="st0" d="M224.7,158.9c0-12.2-2.5-24.4-7-35.8c-4.8-11.4-11.6-21.7-20.3-30.4s-19-15.5-30.4-20.3
			c-11.4-4.8-23.6-7-35.8-7H74.9v37.4h112.6v112.3H74.9v37.4h56.3c12.4,0,24.4-2.5,35.8-7c11.4-4.8,21.7-11.6,30.4-20.3
			s15.5-19,20.3-30.4C222.4,183.3,224.7,171.3,224.7,158.9z"/>
	</g>
</g>
</svg>
