<?xml version="1.0" encoding="utf-8"?>
<!-- Generator: Adobe Illustrator 22.0.0, SVG Export Plug-In . SVG Version: 6.00 Build 0)  -->
<svg version="1.1" id="Layer_1" xmlns="http://www.w3.org/2000/svg" xmlns:xlink="http://www.w3.org/1999/xlink" x="0px" y="0px"
	 viewBox="0 0 179.6 190.1" style="enable-background:new 0 0 179.6 190.1;" xml:space="preserve">
<style type="text/css">
	.st0{opacity:0;}
	.st1{fill:#FFFFFF;}
	.st2{opacity:0.9;}
</style>
<g class="st0">
	<g>
		<g>
			<path class="st1" d="M170,95c0,19.7-6,39-17.6,55.2c-11.4,16.1-27.5,28.4-46.3,34.9v-23c12.8-6,23.5-15.6,31-27.4
				c7.5-12,11.4-25.6,11.4-39.7s-3.8-27.8-11.3-39.7c-7.5-12-18.3-21.4-31-27.4V5.1c18.6,6.7,34.7,18.8,46.2,34.8
				C163.9,55.9,170,75.4,170,95z"/>
			<rect y="84.4" class="st1" width="85" height="21.2"/>
			<path class="st1" d="M127.5,95c0-7-1.4-13.9-4-20.3c-2.6-6.5-6.7-12.2-11.4-17.3c-5-5-10.9-8.9-17.3-11.4c-6.4-2.5-13.3-4-20.4-4
				H42.6V63h63.7v63.6H42.6v21.2h31.9c7,0,13.9-1.4,20.3-4c6.5-2.6,12.3-6.7,17.3-11.4c5-5,8.9-10.7,11.4-17.3
				C126.3,108.9,127.5,102,127.5,95z"/>
		</g>
	</g>
</g>
<g class="st2">
	<g>
		<path class="st1" d="M151.8,40.6L151.8,40.6c-10.9-15.5-26-27.1-43.9-33.9l-0.7-0.3v21.1l0.3,0.1c12.6,6,23.2,15.6,30.6,27.2
			c7.6,11.8,11.5,25.6,11.5,40.1c0,14.1-4,28-11.5,40.1c-7.5,11.8-18.1,21.3-30.6,27.4l-0.3,0.1v21.2l0.7-0.3
			c17.6-6.6,32.8-18.3,43.9-33.9c11.3-16,17.4-34.8,17.4-54.5C169.1,75.7,163,56.2,151.8,40.6z"/>
		<rect x="1" y="85.4" class="st1" width="83.2" height="19.4"/>
		<path class="st1" d="M122.6,114.9c2.8-6,4-12.8,4-19.9c0-6.9-1.4-13.7-4-20l0,0c-2.4-6-6.2-11.8-11.2-16.8
			c-4.9-4.9-10.6-8.6-16.8-11.2c-6.2-2.6-13.2-4-20-4h-31v19.4h63.7v65.3H43.5V147h30.9c6.9,0,13.7-1.4,20-4
			c6.2-2.4,12.2-6.5,16.8-11.2C116.3,127,120.2,121,122.6,114.9z"/>
	</g>
</g>
</svg>
