<?xml version="1.0" encoding="utf-8"?>
<!-- Generator: Adobe Illustrator 22.0.0, SVG Export Plug-In . SVG Version: 6.00 Build 0)  -->
<svg version="1.1" id="Layer_1" xmlns="http://www.w3.org/2000/svg" xmlns:xlink="http://www.w3.org/1999/xlink" x="0px" y="0px"
	 viewBox="0 0 179.6 190.1" style="enable-background:new 0 0 179.6 190.1;" xml:space="preserve">
<style type="text/css">
	.st0{opacity:0;}
	.st1{fill:#FFFFFF;}
</style>
<g class="st0">
	<g>
		<g>
			<path class="st1" d="M179.5,95c0,20.8-6.4,41.1-18.5,58.2c-12.1,17-29.1,30-48.8,36.9v-24.2c13.5-6.4,24.8-16.4,32.7-29
				c7.9-12.6,12.1-27.1,12.1-41.9S153,65.6,145,53.1c-7.9-12.6-19.3-22.6-32.7-28.9V0.1C132,7.1,149,20,161,36.9
				C173,53.8,179.5,74.3,179.5,95z"/>
			<rect y="83.8" class="st1" width="89.7" height="22.4"/>
			<path class="st1" d="M134.6,95c0-7.4-1.4-14.6-4.2-21.5c-2.8-6.8-7-12.9-12.1-18.2c-5.2-5.2-11.5-9.4-18.2-12.1
				C93.4,40.5,86,39,78.5,39H44.9v22.2h67.3v67.2H44.9v22.4h33.6c7.4,0,14.6-1.4,21.5-4.2c6.8-2.8,13-7,18.2-12.1
				c5.2-5.2,9.4-11.3,12.1-18.2C133.3,109.6,134.6,102.4,134.6,95z"/>
		</g>
	</g>
</g>
<g>
	<g>
		<path class="st1" d="M160.3,37.5L160.3,37.5c-11.5-16.3-27.5-28.6-46.4-35.8l-0.8-0.3v22.2l0.3,0.1c13.3,6.4,24.5,16.4,32.3,28.7
			c8,12.4,12.2,27.1,12.2,42.4c0,14.9-4.2,29.5-12.2,42.4c-7.9,12.4-19.1,22.5-32.3,28.9l-0.3,0.1v22.4l0.8-0.3
			c18.5-6.9,34.6-19.3,46.4-35.8c12-16.9,18.3-36.8,18.3-57.6C178.5,74.6,172,54.1,160.3,37.5z"/>
		<rect x="1" y="84.8" class="st1" width="87.8" height="20.5"/>
		<path class="st1" d="M129.4,116c2.9-6.4,4.3-13.5,4.3-21c0-7.3-1.4-14.4-4.2-21.1l0,0c-2.6-6.4-6.6-12.4-11.9-17.8
			c-5.1-5.1-11.2-9.1-17.8-11.8c-6.6-2.8-14-4.2-21.1-4.2H45.9v20.4h67.3v69H45.9v20.5h32.6c7.3,0,14.4-1.4,21.1-4.2
			c6.6-2.6,12.8-6.8,17.8-11.9C122.7,128.7,126.8,122.5,129.4,116z"/>
	</g>
</g>
</svg>
