<?xml version="1.0" encoding="utf-8"?>
<!-- Generator: Adobe Illustrator 22.0.0, SVG Export Plug-In . SVG Version: 6.00 Build 0)  -->
<svg version="1.1" id="Layer_1" xmlns="http://www.w3.org/2000/svg" xmlns:xlink="http://www.w3.org/1999/xlink" x="0px" y="0px"
	 viewBox="0 0 64 44" style="enable-background:new 0 0 64 44;" xml:space="preserve">
<style type="text/css">
	.st0{fill:none;stroke:#3B3B4B;stroke-linecap:round;stroke-linejoin:round;}
</style>
<g>
	<path class="st0" d="M63.5,16.4l-10.3-3.5L45,4.2L31.2,0.5l-9.6,10.1L8.9,12.9L0.5,20l7.4,10.4l11.7,3.3L32,43.3l11.8-14.8l11.9-1
		L63.5,16.4z"/>
	<path class="st0" d="M21.6,10.6l9.7,6.7L45.5,18l10.3,9.5"/>
	<path class="st0" d="M8.9,12.9l8.7,9.1l14.5,4.9l11.7,1.7"/>
	<path class="st0" d="M44.7,4.3l-13.6,13l-13.5,4.6l-9.7,8.4"/>
	<path class="st0" d="M53.2,12.9l-8.1,4.8l-13.5,9.1l-12.1,6.9"/>
</g>
</svg>
