<?xml version="1.0" encoding="utf-8"?>
<!-- Generator: Adobe Illustrator 22.0.0, SVG Export Plug-In . SVG Version: 6.00 Build 0)  -->
<svg version="1.1" id="Layer_1" xmlns="http://www.w3.org/2000/svg" xmlns:xlink="http://www.w3.org/1999/xlink" x="0px" y="0px"
	 viewBox="0 0 894 242.5" style="enable-background:new 0 0 894 242.5;" xml:space="preserve">
<style type="text/css">
	.st0{fill:#3B3B4B;}
</style>
<g>
	<g>
		<path class="st0" d="M220.6,121.2c0,25.6-7.9,50.5-22.7,71.5C183,213.6,162.1,229.5,138,238v-29.7c16.6-7.8,30.4-20.1,40.2-35.6
			c9.7-15.5,14.9-33.3,14.9-51.5s-5.2-36.1-15-51.5c-9.7-15.5-23.7-27.7-40.2-35.5V4.5c24.2,8.6,45.2,24.4,60,45.3
			C212.6,70.6,220.6,95.7,220.6,121.2z"/>
		<rect y="107.4" class="st0" width="110.2" height="27.5"/>
		<path class="st0" d="M165.4,121.2c0-9.1-1.7-18-5.2-26.4s-8.6-15.9-14.9-22.3c-6.4-6.4-14.1-11.5-22.3-14.9s-17.3-5.2-26.4-5.2
			H55.3v27.4H138v82.6H55.3v27.5h41.3c9.1,0,18-1.7,26.4-5.2c8.4-3.5,16-8.6,22.3-14.9c6.4-6.4,11.5-14,14.9-22.3
			C163.7,139.2,165.4,130.3,165.4,121.2z"/>
	</g>
</g>
<g>
	<g>
		<path class="st0" d="M394.6,121.8c0,36.8-22.4,60.9-58.7,60.9c-28.6,0-47.9-17.5-51.7-42.6h26c3.1,12.5,12.3,21.2,27,21.2
			c16.8,0,27.9-11.1,30.8-29.6h-41.6v-20.5h41.4c-2.9-18.1-13.7-28.9-30-28.9c-15.2,0-24.3,8.9-27.2,21.2h-26
			c3.8-25.2,23.6-42.6,52.7-42.6C373,60.8,394.6,85,394.6,121.8z"/>
	</g>
	<g>
		<path class="st0" d="M396.8,181.7v-22.1h3.3c11,0,16.3-7.7,16.3-38.5V61.9H507v119.8h-25.7V83.9h-40.7v39.4
			c0,43-11.8,58.4-37.7,58.4H396.8z"/>
	</g>
	<g>
		<path class="st0" d="M520,61.9h95v22.1h-34.7v97.7h-25.7V83.9H520V61.9z"/>
	</g>
	<g>
		<path class="st0" d="M602.9,181.7l43.8-119.8h30.8L721,181.7h-27.6l-9.2-26.2h-45.5l-9.2,26.2H602.9z M645.5,134.8h31.7
			l-15.9-45.5L645.5,134.8z"/>
	</g>
</g>
</svg>
