<?xml version="1.0" encoding="utf-8"?>
<!-- Generator: Adobe Illustrator 22.0.0, SVG Export Plug-In . SVG Version: 6.00 Build 0)  -->
<svg version="1.1" id="Layer_1" xmlns="http://www.w3.org/2000/svg" xmlns:xlink="http://www.w3.org/1999/xlink" x="0px" y="0px"
	 viewBox="0 0 788.1 222.9" style="enable-background:new 0 0 788.1 222.9;" xml:space="preserve">
<style type="text/css">
	.st0{fill:#FFFFFF;}
</style>
<g>
	<path class="st0" d="M351.2,63.7c-10.2-10.2-24.4-15.5-41-15.5c-0.1,0-0.2,0-0.3,0c-14.1,0-26.5,4.1-36.1,11.7
		c-9.5,7.6-15.6,18.5-17.7,31.3l-0.3,1.7h23.6l0.3-1.1c4-15,15-23.3,30.9-23.3c18.3,0,31,12,34.1,32.3h-46.6V121h46.6
		c-3.1,20.8-16.6,33.6-35.4,33.6c-15.6,0-26.5-8.3-30.7-23.5l-0.3-1.1h-23.6l0.3,1.7c4.3,26.6,24.7,43.1,53.2,43.1
		c18,0,33.2-6.1,43.9-17.5c10.7-11.3,16.3-27.2,16.3-45.9C368.5,91.5,362.5,74.9,351.2,63.7z"/>
	<path class="st0" d="M388.5,110.8c0,35.8-5.6,42.4-16.5,42.4h-4.6v20.7h7c26,0,36.2-17.3,36.2-61.7V69.8h45.9v103.9h23V49.1h-90.9
		V110.8z"/>
	<polygon class="st0" points="589.3,49.1 491.1,49.1 491.1,69.8 528.7,69.8 528.7,173.7 551.7,173.7 551.7,69.7 589.3,69.7 	"/>
	<path class="st0" d="M646.6,49.2h-25.9l-46.7,124.6h24.1l11.3-30.1h47.8l11.4,30.1h24.6L646.6,49.2z M650.5,123.6H616l17.2-47.2
		L650.5,123.6z"/>
	<path class="st0" d="M123.7,6.5v26.7c14.8,6.9,27.5,18,36.2,31.9c8.7,13.7,13.4,29.8,13.4,46.2c0,16.4-4.7,32.5-13.4,46.4
		c-8.7,13.9-21.2,25-36.1,32v26.7c21.7-7.8,40.4-22,53.7-40.8c13.3-18.7,20.5-41.2,20.5-64.2c0-23-7-45.4-20.5-64.3
		C164.3,28.4,145.4,14.2,123.7,6.5z"/>
	<rect y="99.1" class="st0" width="99" height="24.7"/>
	<path class="st0" d="M144,135c3-7.5,4.5-15.5,4.5-23.6c0-8.1-1.6-16.1-4.7-23.7c-3.1-7.5-7.7-14.4-13.4-20
		c-5.8-5.8-12.6-10.3-20.1-13.4c-7.5-3.1-15.6-4.7-23.7-4.7h-37v24.7h74.2v74.2H49.5v24.7h37.2c8.1,0,16.2-1.6,23.7-4.7
		s14.4-7.7,20.1-13.4C136.3,149.2,140.8,142.5,144,135z"/>
</g>
</svg>
