<?xml version="1.0" encoding="utf-8"?>
<!-- Generator: Adobe Illustrator 22.0.0, SVG Export Plug-In . SVG Version: 6.00 Build 0)  -->
<svg version="1.1" id="Layer_1" xmlns="http://www.w3.org/2000/svg" xmlns:xlink="http://www.w3.org/1999/xlink" x="0px" y="0px"
	 viewBox="0 0 179.6 190.1" style="enable-background:new 0 0 179.6 190.1;" xml:space="preserve">
<style type="text/css">
	.st0{fill:#1A1B26;}
</style>
<g>
	<g>
		<path class="st0" d="M179.6,95c0,20.8-6.4,41.1-18.5,58.2c-12.1,17-29.1,30-48.8,36.9v-24.2c13.5-6.4,24.8-16.4,32.7-29
			s12.1-27.1,12.1-41.9S153,65.6,145,53.1c-7.9-12.6-19.3-22.6-32.7-28.9V0c19.7,7,36.8,19.9,48.8,36.9
			C173.1,53.8,179.6,74.3,179.6,95z"/>
		<rect y="83.8" class="st0" width="89.7" height="22.4"/>
		<path class="st0" d="M134.7,95c0-7.4-1.4-14.7-4.2-21.5s-7-12.9-12.1-18.2c-5.2-5.2-11.5-9.4-18.2-12.1C93.5,40.5,86.1,39,78.6,39
			H45v22.3h67.3v67.2H45v22.4h33.6c7.4,0,14.7-1.4,21.5-4.2s13-7,18.2-12.1c5.2-5.2,9.4-11.4,12.1-18.2
			C133.3,109.7,134.7,102.4,134.7,95z"/>
	</g>
</g>
</svg>
