<?xml version="1.0" encoding="utf-8"?>
<!-- Generator: Adobe Illustrator 22.0.0, SVG Export Plug-In . SVG Version: 6.00 Build 0)  -->
<svg version="1.1" id="Layer_1" xmlns="http://www.w3.org/2000/svg" xmlns:xlink="http://www.w3.org/1999/xlink" x="0px" y="0px"
	 viewBox="0 0 788.1 222.9" style="enable-background:new 0 0 788.1 222.9;" xml:space="preserve">
<style type="text/css">
	.st0{fill:#FFFFFF;}
</style>
<g>
	<g>
		<path class="st0" d="M236.1,129.8h24.7c3.7,20.3,18.9,27.4,34.4,27.4c19.1,0,33.9-13.1,36.2-36.2h-53.2v-20.5h53
			c-2.8-22.1-16.8-34.8-35.8-34.8c-16.1,0-29.8,8.3-33.9,27.4h-24.7c4.8-28.4,26.7-47.9,57.7-47.9c39.2,0,63.2,26,63.2,66
			c0,40.3-23.3,66.4-62.3,66.4C264,177.7,240.9,158.6,236.1,129.8z"/>
		<path class="st0" d="M358.9,175.4v-20.5h3.2c16.6,0,18.5-26,20-63.2l1.4-44.3h85.5v128h-25.3V67.8h-36l-1.2,32.8
			c-1.4,42.2-10.9,74.7-40.3,74.7H358.9z"/>
		<path class="st0" d="M519.5,67.8h-39.4V47.4h104.2v20.5h-39.6v107.5h-25.3V67.8z"/>
		<path class="st0" d="M611.3,47.4h25.4l47.9,128h-27.4l-9-26h-49.8l-9,26h-25.8L611.3,47.4z M605.6,128.8H641l-17.7-50.5
			L605.6,128.8z"/>
	</g>
	<g>
		<g>
			<path class="st0" d="M190.4,111.4c0,22.1-6.8,43.6-19.6,61.7c-12.8,18-30.9,31.8-51.7,39.1v-25.7c14.3-6.8,26.3-17.4,34.7-30.7
				c8.4-13.4,12.8-28.7,12.8-44.4s-4.3-31.2-12.8-44.4c-8.4-13.4-20.5-24-34.7-30.6V10.7c20.9,7.4,39,21.1,51.7,39.1
				C183.5,67.7,190.4,89.5,190.4,111.4z"/>
			<rect y="99.5" class="st0" width="95.1" height="23.8"/>
			<path class="st0" d="M142.8,111.4c0-7.8-1.5-15.6-4.5-22.8c-3-7.2-7.4-13.7-12.8-19.3c-5.5-5.5-12.2-10-19.3-12.8
				c-7.1-3-15-4.5-22.8-4.5H47.7v23.6h71.4v71.3H47.7v23.8h35.6c7.8,0,15.6-1.5,22.8-4.5c7.2-3,13.8-7.4,19.3-12.8
				c5.5-5.5,10-12.1,12.8-19.3C141.3,127,142.8,119.3,142.8,111.4z"/>
		</g>
	</g>
</g>
</svg>
