<?xml version="1.0" encoding="utf-8"?>
<!-- Generator: Adobe Illustrator 22.0.0, SVG Export Plug-In . SVG Version: 6.00 Build 0)  -->
<svg version="1.1" id="Layer_1" xmlns="http://www.w3.org/2000/svg" xmlns:xlink="http://www.w3.org/1999/xlink" x="0px" y="0px"
	 viewBox="0 0 894 242.5" style="enable-background:new 0 0 894 242.5;" xml:space="preserve">
<style type="text/css">
	.st0{fill:#FFFFFF;}
</style>
<g>
	<g>
		<path class="st0" d="M194,121.2c0,22.5-6.9,44.4-20,62.9c-13.1,18.4-31.5,32.4-52.7,39.8v-26.1c14.6-6.9,26.7-17.7,35.4-31.3
			c8.5-13.6,13.1-29.3,13.1-45.3s-4.6-31.7-13.2-45.3c-8.5-13.6-20.8-24.4-35.4-31.2V18.6C142.6,26.1,161,40,174,58.4
			C187,76.7,194,98.8,194,121.2z"/>
		<rect y="109.1" class="st0" width="96.9" height="24.2"/>
		<path class="st0" d="M145.5,121.2c0-8-1.5-15.8-4.6-23.2c-3.1-7.4-7.6-14-13.1-19.6c-5.6-5.6-12.4-10.1-19.6-13.1
			c-7.2-3-15.2-4.6-23.2-4.6H48.6v24.1h72.7v72.6H48.6v24.2H85c8,0,15.8-1.5,23.2-4.6s14.1-7.6,19.6-13.1
			c5.6-5.6,10.1-12.3,13.1-19.6C144,137,145.5,129.2,145.5,121.2z"/>
	</g>
</g>
<g>
	<g>
		<path class="st0" d="M82-423.3c0,22.5-6.9,44.4-20,62.9C48.9-342,30.5-328,9.3-320.6v-26.1c14.6-6.9,26.7-17.7,35.4-31.3
			c8.5-13.6,13.1-29.3,13.1-45.3s-4.6-31.7-13.2-45.3c-8.5-13.6-20.8-24.4-35.4-31.2v-26.1c21.3,7.6,39.7,21.5,52.8,39.8
			C74.9-467.8,82-445.7,82-423.3z"/>
		<rect x="-112" y="-435.4" class="st0" width="96.9" height="24.2"/>
		<path class="st0" d="M33.4-423.3c0-8-1.5-15.8-4.6-23.2c-3.1-7.4-7.6-14-13.1-19.6c-5.6-5.6-12.4-10.1-19.6-13.1
			c-7.2-3-15.2-4.6-23.2-4.6h-36.3v24.1H9.3v72.6h-72.7v24.2h36.3c8,0,15.8-1.5,23.2-4.6s14.1-7.6,19.6-13.1
			c5.6-5.6,10.1-12.3,13.1-19.6C31.9-407.4,33.4-415.3,33.4-423.3z"/>
	</g>
</g>
<text transform="matrix(1 0 0 1 129.4521 -364.985)" class="st0" style="font-family:'AeonikPro-Medium'; font-size:232.6432px;">элта</text>
<g>
	<path class="st0" d="M311.3,56.4c-29.7,0-50.9,17-55.4,44.4l-0.2,1h23.3l0.2-0.6c4.3-16.1,16-24.9,32.9-24.9
		c19.7,0,33.3,13.2,36.5,35.2h-48.6V131h48.6c-3,22.4-17.4,36.3-37.6,36.3c-16.8,0-28.4-8.8-32.7-24.9l-0.2-0.6h-23.3l0.2,1
		c4.5,27.4,25.5,44.4,54.9,44.4c37.7,0,62.1-25.7,62.1-65.4c0-19.5-5.6-35.9-16.1-47.5C345.1,62.6,329.7,56.4,311.3,56.4z"/>
	<path class="st0" d="M392.3,120.9c0,38-6.1,45-18,45h-4.1v20.2h6.7c26.7,0,37.1-17.8,37.1-63.6V77.7h49.2v108.4h22.6V57.5h-93.5
		V120.9z"/>
	<polygon class="st0" points="603.1,57.5 496.2,57.5 496.2,77.7 538.4,77.7 538.4,186.1 561,186.1 561,77.7 603.1,77.7 	"/>
	<path class="st0" d="M660.4,58.1l-0.2-0.6h-26l-47.7,127.4l-0.4,1.2h23.4l11.8-31.4H672l11.7,30.8l0.2,0.6h24.2L660.4,58.1z
		 M665.6,135.2h-37.9l18.9-51.9L665.6,135.2z"/>
</g>
</svg>
