<?xml version="1.0" encoding="utf-8"?>
<!-- Generator: Adobe Illustrator 22.0.0, SVG Export Plug-In . SVG Version: 6.00 Build 0)  -->
<svg version="1.1" id="Layer_1" xmlns="http://www.w3.org/2000/svg" xmlns:xlink="http://www.w3.org/1999/xlink" x="0px" y="0px"
	 viewBox="0 0 894 242.5" style="enable-background:new 0 0 894 242.5;" xml:space="preserve">
<style type="text/css">
	.st0{fill:#1B1B2D;}
	.st1{fill:#1B1B2D;stroke:#FFFFFF;stroke-width:3;stroke-miterlimit:10;}
</style>
<g>
	<path class="st0" d="M181.1,56.4c-13.2-18.6-31.5-32.7-53-40.8v24.5c15.4,7.5,28.2,18.9,37.1,33.1c9.3,14.6,14.2,31.4,14.2,48.6
		c0,17.1-4.9,33.9-14.1,48.6c-9.1,14.4-21.9,25.9-37.1,33.2v24.5c21.3-7.9,39.5-22,52.9-40.8c13.6-19.3,20.8-42,20.8-65.5
		C201.9,98.7,194.5,75.4,181.1,56.4z"/>
	<rect y="110.6" class="st0" width="99.4" height="22.5"/>
	<path class="st0" d="M145.9,98c-3.1-7.5-7.7-14.3-13.5-20.2c-5.7-5.7-12.7-10.4-20.2-13.5c-7.4-3.1-15.7-4.7-23.9-4.7H51.4v22.5
		h76.8v79.7H51.4v22.5h36.9c8.4,0,16.4-1.6,23.9-4.7c7.5-3.1,14.5-7.8,20.2-13.5c5.8-5.8,10.5-12.8,13.5-20.2
		c3.1-7.4,4.7-15.5,4.7-23.9C150.6,113.5,149.1,105.5,145.9,98z"/>
</g>
<g>
	<g>
		<path class="st1" d="M-69.6,121.9c0,23.8-7.3,46.9-21.1,66.4c-13.8,19.4-33.3,34.2-55.6,42.1v-27.6c15.4-7.2,28.2-18.7,37.3-33.1
			c9-14.4,13.8-30.9,13.8-47.8s-4.8-33.5-13.9-47.8c-9-14.4-22-25.7-37.3-33V13.5c22.5,8,42,22.7,55.7,42.1
			C-77,74.9-69.6,98.2-69.6,121.9z"/>
		<rect x="-274.5" y="109.1" class="st1" width="102.4" height="25.5"/>
		<path class="st1" d="M-120.9,121.9c0-8.5-1.6-16.7-4.8-24.5c-3.3-7.8-8-14.8-13.8-20.7c-5.9-5.9-13.1-10.7-20.7-13.8
			c-7.6-3.2-16.1-4.8-24.5-4.8h-38.4v25.5h76.8v76.7h-76.8v25.5h38.4c8.5,0,16.7-1.6,24.5-4.8c7.8-3.3,14.9-8,20.7-13.8
			c5.9-5.9,10.7-13,13.8-20.7C-122.5,138.6-120.9,130.4-120.9,121.9z"/>
	</g>
</g>
<text transform="matrix(1 0 0 1 -153.4173 -319.0129)" class="st0" style="font-family:'AeonikPro-Regular'; font-size:232.6432px;">Элта</text>
<text transform="matrix(1 0 0 1 447 -297.8756)" class="st0" style="font-family:'TTHovesTrl-Regular'; font-size:257.5108px;">Элта</text>
<g>
	<path class="st0" d="M342.8,41.9c-35.1,0-60.6,20.3-66.4,52.9l-0.1,0.6h21.8l0.1-0.4c5.9-22.1,22-34.3,45.6-34.3
		c28.3,0,47.9,19.6,51.3,51.1h-64.8v18.9H395c-3.1,31.9-23.8,52.4-52.9,52.4c-23.4,0-39.6-12.2-45.8-34.3l-0.1-0.4h-21.8l0.1,0.6
		c2.9,16.1,10.5,29.5,22.1,38.7c11.6,9.3,27,14.2,44.5,14.2c22.3,0,41.2-7.7,54.7-22.2c13.4-14.4,20.4-34.4,20.4-57.9
		c0-23.8-6.8-43.8-19.7-58C383.7,49.5,365.1,41.9,342.8,41.9z"/>
	<path class="st0" d="M440,141.4c0,35.5-5.4,41.5-17.4,41.5h-3.9v17.8h6.8c24.3,0,33.4-15.9,33.4-58.6v-38.6h49.1v97.2h19.3v-115
		H440V141.4z"/>
	<polygon class="st0" points="537.8,103.5 579,103.5 579,200.7 598.3,200.7 598.3,103.5 639.4,103.5 639.4,85.7 537.8,85.7 	"/>
	<path class="st0" d="M745.5,182.9c-4.6,0-6.9-1.1-6.9-7.1V126c0-26.4-16.9-41.6-46.3-41.6c-27.8,0-46.1,13.4-48.8,36l-0.1,0.6h19.3
		l0.1-0.4c2.2-11.6,13.2-18.8,28.6-18.8c17.5,0,27.9,8.7,27.9,23.2v7.3h-33c-29.9,0-46.3,12.8-46.3,36c0,20.5,16.7,33.8,42.5,33.8
		c16.5,0,28.8-5.9,37.8-18c0.7,11.5,7.3,16.7,21,16.7h10.6v-17.8H745.5z M719.3,148.6v5.1c0,19.5-13.6,31.7-35.5,31.7
		c-14.8,0-24.3-7.2-24.3-18.3c0-12.3,8.4-18.5,25-18.5H719.3z"/>
</g>
<text transform="matrix(1 0 0 1 6 -1003.9955)" class="st0" style="font-family:'AeonikPro-Medium'; font-size:232.6432px;">элта</text>
<g>
	<g>
		<g>
			<path class="st0" d="M-51-1065.1c0,23.8-7.3,46.9-21.1,66.4c-13.8,19.4-33.3,34.2-55.6,42.1v-27.6c15.4-7.2,28.2-18.7,37.3-33.1
				c9-14.4,13.8-30.9,13.8-47.8s-4.8-33.5-13.9-47.8c-9-14.4-22-25.7-37.3-33v-27.6c22.5,8,42,22.7,55.7,42.1
				C-58.4-1112.1-51-1088.8-51-1065.1z"/>
			<rect x="-255.9" y="-1077.9" class="st0" width="102.4" height="25.5"/>
			<path class="st0" d="M-102.3-1065.1c0-8.5-1.6-16.7-4.8-24.5c-3.3-7.8-8-14.8-13.8-20.7c-5.9-5.9-13.1-10.7-20.7-13.8
				c-7.6-3.2-16.1-4.8-24.5-4.8h-38.4v25.5h76.8v76.7h-76.8v25.5h38.4c8.5,0,16.7-1.6,24.5-4.8c7.8-3.3,14.9-8,20.7-13.8
				c5.9-5.9,10.7-13,13.8-20.7C-103.9-1048.4-102.3-1056.7-102.3-1065.1z"/>
		</g>
	</g>
</g>
</svg>
