<?xml version="1.0" encoding="utf-8"?>
<!-- Generator: Adobe Illustrator 22.0.0, SVG Export Plug-In . SVG Version: 6.00 Build 0)  -->
<svg version="1.1" id="Layer_1" xmlns="http://www.w3.org/2000/svg" xmlns:xlink="http://www.w3.org/1999/xlink" x="0px" y="0px"
	 viewBox="0 0 179.6 190.1" style="enable-background:new 0 0 179.6 190.1;" xml:space="preserve">
<style type="text/css">
	.st0{opacity:0;}
	.st1{fill:#242435;}
	.st2{fill:#1B1B2D;}
</style>
<g class="st0">
	<g>
		<path class="st1" d="M179.6,95c0,20.8-6.4,41.1-18.5,58.2c-12.1,17-29.1,30-48.8,36.9v-24.2c13.5-6.4,24.8-16.4,32.7-29
			s12.1-27.1,12.1-41.9S153,65.6,145,53.1c-7.9-12.6-19.3-22.6-32.7-28.9V0c19.7,7,36.8,19.9,48.8,36.9
			C173.1,53.8,179.6,74.3,179.6,95z"/>
		<rect y="83.8" class="st1" width="89.7" height="22.4"/>
		<path class="st1" d="M134.7,95c0-7.4-1.4-14.7-4.2-21.5s-7-12.9-12.1-18.2c-5.2-5.2-11.5-9.4-18.2-12.1C93.5,40.5,86.1,39,78.6,39
			H45v22.3h67.3v67.2H45v22.4h33.6c7.4,0,14.7-1.4,21.5-4.2s13-7,18.2-12.1c5.2-5.2,9.4-11.4,12.1-18.2
			C133.3,109.7,134.7,102.4,134.7,95z"/>
	</g>
</g>
<g>
	<path class="st2" d="M161.9,36.4c-11.7-16.6-27.8-29.1-46.7-36.3V21c13.8,6.8,25.3,17.2,33.5,30.1c8.4,13.1,12.9,28.3,12.9,44.1
		c0,15.6-4.4,30.9-12.8,44.1c-8.3,13-19.9,23.3-33.4,29.9v20.9c18.6-7.1,35.1-20,46.7-36.3c12-17,18.6-37.8,18.6-58.7
		C180.7,74.3,174,53.4,161.9,36.4z"/>
	<rect y="85.5" class="st2" width="88.5" height="19.2"/>
	<path class="st2" d="M130.2,73.7c-2.9-6.9-7-12.9-12.1-18.1c-5.1-5.1-11.2-9.2-18.1-12.1c-6.6-2.8-13.7-4.2-21.3-4.2H46.1v19.2
		h69.2v72.8H46.1v19.2h32.7c7.1,0,14.3-1.4,21.3-4.2c6.8-2.9,12.9-6.9,18.1-12.1c5.1-5.1,9.2-11.2,12.1-18.1
		c2.8-6.7,4.2-13.9,4.2-21.3C134.4,87.9,133,80.7,130.2,73.7z"/>
</g>
</svg>
