<?xml version="1.0" encoding="utf-8"?>
<!-- Generator: Adobe Illustrator 22.0.0, SVG Export Plug-In . SVG Version: 6.00 Build 0)  -->
<svg version="1.1" id="Layer_1" xmlns="http://www.w3.org/2000/svg" xmlns:xlink="http://www.w3.org/1999/xlink" x="0px" y="0px"
	 viewBox="0 0 788.1 240.6" style="enable-background:new 0 0 788.1 240.6;" xml:space="preserve">
<style type="text/css">
	.st0{fill:#0F0F0F;}
</style>
<g>
	<g>
		<path class="st0" d="M292.2,140.6h27.3c4.1,22.5,20.9,30.3,38.1,30.3c21.1,0,37.5-14.5,40-40h-58.8v-22.7h58.6
			c-3.1-24.4-18.6-38.5-39.6-38.5c-17.8,0-33,9.2-37.5,30.3h-27.3c5.3-31.4,29.5-52.9,63.9-52.9c43.4,0,69.9,28.7,69.9,73
			c0,44.5-25.8,73.4-68.9,73.4C323,193.6,297.4,172.5,292.2,140.6z"/>
		<path class="st0" d="M427.9,191v-22.7h3.5c18.4,0,20.5-28.7,22.1-69.9l1.6-49h94.5V191h-27.9V72.1h-39.8l-1.4,36.3
			c-1.6,46.7-12.1,82.6-44.5,82.6H427.9z"/>
		<path class="st0" d="M605.5,72.1h-43.6V49.4h115.2v22.7h-43.7V191h-27.9V72.1z"/>
		<path class="st0" d="M707,49.4h28.1L788.1,191h-30.3l-10-28.7h-55.1l-10,28.7h-28.5L707,49.4z M700.8,139.5h39.1l-19.5-55.9
			L700.8,139.5z"/>
	</g>
	<g>
		<g>
			<path class="st0" d="M227.3,120.3c0,26.3-8.1,52-23.4,73.7c-15.3,21.5-36.8,38-61.8,46.7V210c17.1-8.1,31.4-20.8,41.4-36.7
				c10-15.9,15.3-34.3,15.3-53s-5.2-37.2-15.3-53c-10-15.9-24.4-28.6-41.4-36.6V0c24.9,8.9,46.6,25.2,61.8,46.7
				C219.1,68.1,227.3,94.1,227.3,120.3z"/>
			<rect y="106.1" class="st0" width="113.5" height="28.4"/>
			<path class="st0" d="M170.5,120.3c0-9.4-1.8-18.6-5.3-27.2c-3.5-8.6-8.9-16.3-15.3-23c-6.6-6.6-14.6-11.9-23-15.3
				c-8.5-3.5-17.8-5.3-27.2-5.3H57v28.2h85.2v85.1H57V191h42.5c9.4,0,18.6-1.8,27.2-5.3c8.6-3.5,16.5-8.9,23-15.3
				c6.6-6.6,11.9-14.4,15.3-23C168.7,138.9,170.5,129.6,170.5,120.3z"/>
		</g>
	</g>
</g>
</svg>
