<?xml version="1.0" encoding="utf-8"?>
<!-- Generator: Adobe Illustrator 22.0.0, SVG Export Plug-In . SVG Version: 6.00 Build 0)  -->
<svg version="1.1" id="Layer_1" xmlns="http://www.w3.org/2000/svg" xmlns:xlink="http://www.w3.org/1999/xlink" x="0px" y="0px"
	 viewBox="0 0 788.1 222.9" style="enable-background:new 0 0 788.1 222.9;" xml:space="preserve">
<style type="text/css">
	.st0{fill:#242435;}
</style>
<g>
	<path class="st0" d="M380.3,110.9c0,41.6-25.6,69.5-65.9,69.5c-31.6,0-53.5-18.5-58.1-47h23.2c4.5,16.8,16.8,27.5,36.1,27.5
		c23,0,38.6-16.2,41.6-41h-52.5v-19.1h52.5c-3.1-24.2-17.8-39.8-40.4-39.8c-19.5,0-31.8,10.7-36.3,27.5h-23.2
		c4.7-28.5,27.1-47,58.7-47C356.1,41.4,380.3,68.9,380.3,110.9z"/>
	<path class="st0" d="M382.4,179.2v-19.9h3.5c14,0,20.3-9,20.3-49.4V42.6H505v136.6h-22.4V62.5h-54.8v49.2c0,50.9-12.3,67.5-39,67.5
		H382.4z"/>
	<path class="st0" d="M521.4,42.6h106.7v19.9h-42.1v116.7h-22.4V62.5h-42.1V42.6z"/>
	<path class="st0" d="M615.2,179.2l51.1-136.6h26.7L744,179.2h-24l-12.9-33.8h-56l-12.7,33.8H615.2z M657.4,126.3h43.5L679,66.8
		L657.4,126.3z"/>
</g>
<g>
	<path class="st0" d="M124.3,5.4v26.8c14.9,6.9,27.6,18.1,36.4,32c8.8,13.8,13.5,30,13.5,46.5c0,16.5-4.7,32.7-13.5,46.6
		c-8.8,14-21.4,25.1-36.3,32.2v26.8c21.8-7.8,40.7-22.1,54-41c13.3-18.8,20.6-41.4,20.6-64.5c0-23.1-7.1-45.7-20.6-64.7
		C165.2,27.4,146.2,13.1,124.3,5.4z"/>
	<rect y="98.5" class="st0" width="99.5" height="24.8"/>
	<path class="st0" d="M144.7,134.6c3-7.5,4.6-15.5,4.6-23.7c0-8.2-1.6-16.2-4.7-23.9c-3.1-7.5-7.7-14.4-13.5-20.1
		c-5.8-5.8-12.7-10.4-20.3-13.5c-7.5-3.1-15.7-4.7-23.9-4.7H49.8v24.8h74.6v74.6H49.8v24.8h37.4c8.2,0,16.3-1.6,23.9-4.7
		c7.5-3.1,14.4-7.7,20.3-13.5C137.1,148.9,141.6,142.1,144.7,134.6z"/>
</g>
</svg>
