<?xml version="1.0" encoding="utf-8"?>
<!-- Generator: Adobe Illustrator 22.0.0, SVG Export Plug-In . SVG Version: 6.00 Build 0)  -->
<svg version="1.1" id="Layer_1" xmlns="http://www.w3.org/2000/svg" xmlns:xlink="http://www.w3.org/1999/xlink" x="0px" y="0px"
	 viewBox="0 0 788.1 222.9" style="enable-background:new 0 0 788.1 222.9;" xml:space="preserve">
<style type="text/css">
	.st0{fill:#242435;stroke:#242435;stroke-width:3;stroke-miterlimit:10;}
	.st1{fill:#242435;}
</style>
<g>
	<g>
		<path class="st0" d="M367,111.5c0,37.1-22.8,61.9-58.7,61.9c-28.3,0-47.6-16.5-51.7-41.8h20.7c4.1,15,15,24.6,32.1,24.6
			c20.6,0,34.4-14.5,37.1-36.6h-46.8v-17.1h46.8c-2.7-21.5-15.7-35.3-35.8-35.3c-17.4,0-28.4,9.5-32.4,24.4h-20.7
			c4.2-25.3,24.2-41.8,52.3-41.8C345.5,49.5,367,74,367,111.5z"/>
		<path class="st0" d="M368.9,172.3v-17.7h3.1c12.5,0,18-7.9,18-43.9V50.6h87.9v121.6h-20V68.3h-48.9v43.7
			c0,45.4-10.9,60.2-34.7,60.2C374.4,172.3,368.9,172.3,368.9,172.3z"/>
		<path class="st0" d="M492.7,50.6h95v17.7h-37.6v104h-20V68.3h-37.6V50.6H492.7z"/>
		<path class="st0" d="M576.3,172.3l45.5-121.6h23.8L691,172.3h-21.4l-11.4-30.1h-49.9l-11.3,30.1H576.3z M613.9,125.1h38.8
			l-19.4-53.1L613.9,125.1z"/>
	</g>
	<g>
		<path class="st1" d="M198,111.5c0,23-7.2,45.4-20.5,64.2c-13.3,18.7-32,32.9-53.7,40.8v-26.7c14.8-7,27.3-18.1,36.1-32
			s13.4-30,13.4-46.4s-4.7-32.5-13.4-46.2c-8.7-13.9-21.4-25-36.2-31.9V6.5c21.7,7.7,40.6,21.9,53.9,40.6C191,66,198,88.5,198,111.5
			z"/>
		<rect y="99.1" class="st1" width="99" height="24.7"/>
		<path class="st1" d="M148.5,111.5c0-8.1-1.6-16.1-4.7-23.7c-3.1-7.5-7.7-14.4-13.4-20c-5.8-5.8-12.6-10.3-20.1-13.4
			s-15.6-4.7-23.7-4.7h-37v24.7h74.2v74.2H49.5v24.7h37.2c8.1,0,16.2-1.6,23.7-4.7c7.5-3.1,14.4-7.7,20.1-13.4
			c5.8-5.8,10.3-12.5,13.4-20C146.9,127.5,148.5,119.6,148.5,111.5z"/>
	</g>
</g>
</svg>
