<?xml version="1.0" encoding="utf-8"?>
<!-- Generator: Adobe Illustrator 22.0.0, SVG Export Plug-In . SVG Version: 6.00 Build 0)  -->
<svg version="1.1" id="Layer_1" xmlns="http://www.w3.org/2000/svg" xmlns:xlink="http://www.w3.org/1999/xlink" x="0px" y="0px"
	 viewBox="0 0 894 242.5" style="enable-background:new 0 0 894 242.5;" xml:space="preserve">
<style type="text/css">
	.st0{fill:#1B1B2D;stroke:#FFFFFF;stroke-width:3;stroke-miterlimit:10;}
	.st1{fill:#1B1B2D;stroke:#1B1B2D;stroke-miterlimit:10;}
	.st2{fill:#1B1B2D;}
</style>
<g>
	<g>
		<path class="st0" d="M204.9,121.9c0,23.8-7.3,46.9-21.1,66.4c-13.8,19.4-33.3,34.2-55.6,42.1v-27.6c15.4-7.2,28.2-18.7,37.3-33.1
			c9-14.4,13.8-30.9,13.8-47.8s-4.8-33.5-13.9-47.8c-9-14.4-22-25.7-37.3-33V13.5c22.5,8,42,22.7,55.7,42.1
			C197.5,74.9,204.9,98.2,204.9,121.9z"/>
		<rect y="109.1" class="st0" width="102.4" height="25.5"/>
		<path class="st0" d="M153.6,121.9c0-8.5-1.6-16.7-4.8-24.5s-8-14.8-13.8-20.7c-5.9-5.9-13.1-10.7-20.7-13.8
			c-7.6-3.2-16.1-4.8-24.5-4.8H51.4v25.5h76.8v76.7H51.4v25.5h38.4c8.5,0,16.7-1.6,24.5-4.8c7.8-3.3,14.9-8,20.7-13.8
			c5.9-5.9,10.7-13,13.8-20.7C152.1,138.6,153.6,130.4,153.6,121.9z"/>
	</g>
</g>
<text transform="matrix(1 0 0 1 -153.4173 -319.0129)" class="st2" style="font-family:'AeonikPro-Regular'; font-size:232.6432px;">Элта</text>
<g>
	<path class="st1" d="M415.9,122c0,47.4-29.3,79.6-74.6,79.6c-35.5,0-60.3-20.1-66.1-52.5h20.8c6,21.7,21.9,34.6,46.3,34.6
		c30.4,0,50.5-21.7,53.4-53.4h-64.8v-17.9h64.8c-3.1-30.8-21.9-52.1-51.8-52.1c-24.1,0-40.2,12.7-46,34.6h-20.8
		c5.8-32.4,31.1-52.5,65.9-52.5C388.2,42.4,415.9,74.1,415.9,122z"/>
	<path class="st1" d="M419.2,200.2v-16.8h3.4c13,0,17.9-7.8,17.9-42V86.2h86.3v114h-18.3V103h-50.1v39.1c0,45.4-10.7,58.1-32.8,58.1
		H419.2z"/>
	<path class="st1" d="M579.5,200.2V103h-41.1V86.2h100.6V103h-41.1v97.2H579.5z"/>
	<path class="st1" d="M751.3,183.4v16.8h-10.1c-15.2,0-20.3-6.5-20.6-17.7c-7.2,10.3-18.5,19-38.2,19c-25,0-42-12.5-42-33.3
		c0-22.8,15.9-35.5,45.8-35.5h33.5v-7.8c0-14.7-10.5-23.7-28.4-23.7c-16.1,0-26.8,7.6-29.1,19.2H644c2.7-22.3,20.8-35.5,48.3-35.5
		c29.1,0,45.8,14.5,45.8,41.1v49.8c0,6,2.2,7.6,7.4,7.6H751.3z M719.8,148.1h-35.3c-16.3,0-25.5,6-25.5,19
		c0,11.2,9.6,18.8,24.8,18.8c22.8,0,36-13.2,36-32.2V148.1z"/>
</g>
<text transform="matrix(1 0 0 1 6 -1003.9955)" class="st2" style="font-family:'AeonikPro-Medium'; font-size:232.6432px;">элта</text>
<g>
	<g>
		<g>
			<path class="st2" d="M-51-1065.1c0,23.8-7.3,46.9-21.1,66.4c-13.8,19.4-33.3,34.2-55.6,42.1v-27.6c15.4-7.2,28.2-18.7,37.3-33.1
				c9-14.4,13.8-30.9,13.8-47.8s-4.8-33.5-13.9-47.8c-9-14.4-22-25.7-37.3-33v-27.6c22.5,8,42,22.7,55.7,42.1
				C-58.4-1112.1-51-1088.8-51-1065.1z"/>
			<rect x="-255.9" y="-1077.9" class="st2" width="102.4" height="25.5"/>
			<path class="st2" d="M-102.3-1065.1c0-8.5-1.6-16.7-4.8-24.5c-3.3-7.8-8-14.8-13.8-20.7c-5.9-5.9-13.1-10.7-20.7-13.8
				c-7.6-3.2-16.1-4.8-24.5-4.8h-38.4v25.5h76.8v76.7h-76.8v25.5h38.4c8.5,0,16.7-1.6,24.5-4.8c7.8-3.3,14.9-8,20.7-13.8
				c5.9-5.9,10.7-13,13.8-20.7C-103.9-1048.4-102.3-1056.7-102.3-1065.1z"/>
		</g>
	</g>
</g>
<g>
	<path class="st2" d="M1120.8-90.3c0,47.1-29,78.7-74.8,78.7c-35.8,0-60.6-21-65.9-53.3h26.3c5.1,19,19,31.2,40.9,31.2
		c26.1,0,43.8-18.4,47.1-46.4H1035v-21.7h59.5c-3.5-27.4-20.1-45.1-45.8-45.1c-22.1,0-36.1,12.2-41.1,31.2h-26.3
		c5.3-32.3,30.7-53.3,66.6-53.3C1093.3-169.1,1120.8-137.9,1120.8-90.3z"/>
	<path class="st2" d="M1123.6-12.9v-21h4c11.7,0,16.4-7.3,16.4-37.8v-54.4h90v113.2h-23.9v-92.2h-43.6v34.3
		c0,44.9-11.5,57.9-35.2,57.9H1123.6z"/>
	<path class="st2" d="M1283.4-12.9v-92.2h-38.5v-21h100.9v21h-38.5v92.2H1283.4z"/>
	<path class="st2" d="M1461-33.7v20.8h-12.6c-15.5,0-20.8-6.9-20.8-18.1c-7.5,11.5-19,19.5-37.4,19.5c-24.8,0-42-12.2-42-33.2
		c0-23.2,16.8-36.3,48.4-36.3h28.5v-6.9c0-12.6-9.1-20.3-24.8-20.3c-14.2,0-23.7,6.6-25.4,16.6h-23.4c2.4-22.1,21.5-35.8,50-35.8
		c30.1,0,47.3,14.4,47.3,41.1V-41c0,5.8,2.4,7.3,7.3,7.3H1461z M1425.2-63.3h-29.6c-14.8,0-23,5.5-23,17c0,9.5,8,16.1,21,16.1
		c19.9,0,31.4-11.7,31.6-29.2V-63.3z"/>
</g>
</svg>
