<?xml version="1.0" encoding="utf-8"?>
<!-- Generator: Adobe Illustrator 22.0.0, SVG Export Plug-In . SVG Version: 6.00 Build 0)  -->
<svg version="1.1" id="Layer_1" xmlns="http://www.w3.org/2000/svg" xmlns:xlink="http://www.w3.org/1999/xlink" x="0px" y="0px"
	 viewBox="0 0 894 242.5" style="enable-background:new 0 0 894 242.5;" xml:space="preserve">
<style type="text/css">
	.st0{fill:#3B3B4B;}
	.st1{opacity:0;}
	.st2{fill:#333333;stroke:#333333;stroke-width:2;stroke-miterlimit:10;}
</style>
<g>
	<g>
		<path class="st0" d="M220.6,121.2c0,25.6-7.9,50.5-22.7,71.5C183,213.6,162.1,229.5,138,238v-29.7c16.6-7.8,30.4-20.1,40.2-35.6
			c9.7-15.5,14.9-33.3,14.9-51.5s-5.2-36.1-15-51.5c-9.7-15.5-23.7-27.7-40.2-35.5V4.5c24.2,8.6,45.2,24.4,60,45.3
			C212.6,70.6,220.6,95.7,220.6,121.2z"/>
		<rect y="107.4" class="st0" width="110.2" height="27.5"/>
		<path class="st0" d="M165.4,121.2c0-9.1-1.7-18-5.2-26.4s-8.6-15.9-14.9-22.3c-6.4-6.4-14.1-11.5-22.3-14.9s-17.3-5.2-26.4-5.2
			H55.3v27.4H138v82.6H55.3v27.5h41.3c9.1,0,18-1.7,26.4-5.2s16-8.6,22.3-14.9c6.4-6.4,11.5-14,14.9-22.3
			C163.7,139.2,165.4,130.3,165.4,121.2z"/>
	</g>
</g>
<g class="st1">
	<path class="st0" d="M341.7,61.4c-27.6,0-48,16.3-52.1,41.6h25c3.3-13.5,13.4-21.2,27.6-21.2c16.4,0,27.5,10.7,30.5,29.3l0.1,0.6
		h-41.5v19.5H373l-0.1,0.6c-3,19.1-14.4,30-31.3,30c-13.9,0-23.9-7.7-27.4-21.2h-25c4.1,25.3,24.1,41.6,51.1,41.6
		c35.4,0,58.2-23.7,58.2-60.4c0-18.9-5.7-34.6-16.5-45.3c-9.9-9.9-23.8-15.1-40.1-15.1C341.9,61.4,341.8,61.4,341.7,61.4z"/>
	<path class="st0" d="M400.7,160.1v21.1h5.6c26.4,0,37.2-16.8,37.2-57.9V83.4h41.7v97.8h24.7V62.4h-89.6v58.7c0,28.8-4.4,39-16.8,39
		H400.7z"/>
	<polygon class="st0" points="558.5,181.2 583.2,181.2 583.2,83.5 617.9,83.5 617.9,62.4 523.9,62.4 523.9,83.4 558.5,83.4 	"/>
	<path class="st0" d="M680.6,62.4h-30.1L607,181.2h25.5l9.2-26.2H688l9.2,26.2h26.5L680.6,62.4z M648.2,135.3l16.5-47.5l16.6,47.5
		H648.2z"/>
</g>
<g>
	<g>
		<path class="st0" d="M-741.4-432.8c0,25.6-7.9,50.5-22.7,71.5c-14.9,20.9-35.8,36.8-59.9,45.3v-29.7c16.6-7.8,30.4-20.1,40.2-35.6
			c9.7-15.5,14.9-33.3,14.9-51.5c0-18.2-5.2-36.1-15-51.5c-9.7-15.5-23.7-27.7-40.2-35.5v-29.7c24.2,8.6,45.2,24.4,60,45.3
			C-749.4-483.4-741.4-458.3-741.4-432.8z"/>
		<rect x="-962" y="-446.6" class="st0" width="110.2" height="27.5"/>
		<path class="st0" d="M-796.6-432.8c0-9.1-1.7-18-5.2-26.4s-8.6-15.9-14.9-22.3c-6.4-6.4-14.1-11.5-22.3-14.9
			c-8.2-3.4-17.3-5.2-26.4-5.2h-41.3v27.4h82.7v82.6h-82.7v27.5h41.3c9.1,0,18-1.7,26.4-5.2s16-8.6,22.3-14.9
			c6.4-6.4,11.5-14,14.9-22.3C-798.3-414.8-796.6-423.7-796.6-432.8z"/>
	</g>
</g>
<text transform="matrix(1 0 0 1 -673.001 -372.4879)" class="st0" style="font-family:'AeonikPro-Medium'; font-size:176.8427px;">ЭЛТА</text>
<g>
	<g>
		<path class="st0" d="M255.4-520.8c0,25.6-7.9,50.5-22.7,71.5c-14.9,20.9-35.8,36.8-59.9,45.3v-29.7c16.6-7.8,30.4-20.1,40.2-35.6
			c9.7-15.5,14.9-33.3,14.9-51.5c0-18.2-5.2-36.1-15-51.5c-9.7-15.5-23.7-27.7-40.2-35.5v-29.7c24.2,8.6,45.2,24.4,60,45.3
			C247.4-571.4,255.4-546.3,255.4-520.8z"/>
		<rect x="34.8" y="-534.6" class="st0" width="110.2" height="27.5"/>
		<path class="st0" d="M200.2-520.8c0-9.1-1.7-18-5.2-26.4s-8.6-15.9-14.9-22.3c-6.4-6.4-14.1-11.5-22.3-14.9
			c-8.2-3.4-17.3-5.2-26.4-5.2H90.1v27.4h82.7v82.6H90.1v27.5h41.3c9.1,0,18-1.7,26.4-5.2s16-8.6,22.3-14.9
			c6.4-6.4,11.5-14,14.9-22.3C198.5-502.8,200.2-511.7,200.2-520.8z"/>
	</g>
</g>
<g>
	<path class="st2" d="M404.5,121.8c0,38.6-23.7,64.5-61.3,64.5c-29.4,0-49.7-17.2-54-43.7h21.6c4.2,15.6,15.6,25.6,33.5,25.6
		c21.4,0,35.9-15,38.6-38.1h-48.8v-17.8h48.8c-2.9-22.5-16.5-37-37.5-37c-18.1,0-29.5,10-33.7,25.6h-21.6
		c4.3-26.5,25.2-43.7,54.6-43.7C382,57.3,404.5,82.8,404.5,121.8z"/>
	<path class="st2" d="M406.5,185.2v-18.5h3.3c13,0,18.9-8.3,18.9-45.9V58.4h91.7v126.9h-20.8V76.8h-50.9v45.7
		c0,47.3-11.4,62.7-36.2,62.7H406.5z"/>
	<path class="st2" d="M535.5,58.4h99.1v18.5h-39.1v108.4h-20.8V76.8h-39.1V58.4z"/>
	<path class="st2" d="M622.7,185.2l47.5-126.9H695l47.3,126.9H720l-12-31.4h-52l-11.8,31.4H622.7z M661.8,136.1h40.4L682,80.8
		L661.8,136.1z"/>
</g>
</svg>
