<?xml version="1.0" encoding="utf-8"?>
<!-- Generator: Adobe Illustrator 22.0.0, SVG Export Plug-In . SVG Version: 6.00 Build 0)  -->
<svg version="1.1" id="Layer_1" xmlns="http://www.w3.org/2000/svg" xmlns:xlink="http://www.w3.org/1999/xlink" x="0px" y="0px"
	 viewBox="0 0 48.7 42.7" style="enable-background:new 0 0 48.7 42.7;" xml:space="preserve">
<style type="text/css">
	.st0{fill:none;stroke:#1A1B27;stroke-linejoin:round;}
	.st1{fill:none;stroke:#1A1B27;stroke-linecap:round;stroke-linejoin:round;}
</style>
<g>
	<path class="st0" d="M0.8,14.4v13.8L24.4,42L48,28.3V14.4"/>
	<path class="st0" d="M48,14.4L24.4,0.8L0.8,14.4l23.6,13.8L48,14.4z"/>
	<path class="st0" d="M24.4,28.3V42"/>
	<path class="st1" d="M4.2,25.3V27"/>
	<path class="st1" d="M8.1,27.5v1.8"/>
	<path class="st1" d="M12.1,30v1.8"/>
	<path class="st1" d="M16,32.2V34"/>
	<path class="st1" d="M20,34.5v1.8"/>
	<path class="st1" d="M4.2,25.3V27"/>
	<path class="st1" d="M4.2,20.1v1.8"/>
	<path class="st1" d="M8.1,22.5v1.8"/>
	<path class="st1" d="M12.1,24.9v1.8"/>
	<path class="st1" d="M16,27v1.8"/>
	<path class="st1" d="M20,29.4v1.8"/>
	<path class="st1" d="M28.6,31.1v-1.8"/>
	<path class="st1" d="M32.5,28.9v-1.8"/>
	<path class="st1" d="M36.5,26.5v-1.8"/>
	<path class="st1" d="M40.5,24.3v-1.8"/>
	<path class="st1" d="M44.5,22v-1.8"/>
	<path class="st1" d="M28.6,36.3v-1.8"/>
	<path class="st1" d="M32.5,34v-1.8"/>
	<path class="st1" d="M36.5,31.6v-1.8"/>
	<path class="st1" d="M40.5,29.4v-1.8"/>
	<path class="st1" d="M44.5,27v-1.8"/>
</g>
</svg>
