<?xml version="1.0" encoding="utf-8"?>
<!-- Generator: Adobe Illustrator 22.0.0, SVG Export Plug-In . SVG Version: 6.00 Build 0)  -->
<svg version="1.1" id="Layer_1" xmlns="http://www.w3.org/2000/svg" xmlns:xlink="http://www.w3.org/1999/xlink" x="0px" y="0px"
	 viewBox="0 0 80.8 80.8" style="enable-background:new 0 0 80.8 80.8;" xml:space="preserve">
<style type="text/css">
	.st0{opacity:0.6;fill:none;stroke:#FFFFFF;stroke-linejoin:round;}
	.st1{fill:none;stroke:#FFFFFF;stroke-width:3;stroke-linecap:round;stroke-linejoin:round;}
</style>
<circle class="st0" cx="40.4" cy="40.4" r="39.9"/>
<g>
	<path class="st1" d="M40.7,25.3l4-4c2.3-2.3,6.1-2.3,8.4,0l11.1,11.1c2.3,2.3,2.3,6.1,0,8.4L51.5,53.7L40.9,64.2
		c-1.4,1.4-3.5,1.4-4.9,0l0,0c-1.4-1.4-1.4-3.5,0-4.9l10.1-10.1"/>
	<path class="st1" d="M36.4,39.5L26.3,49.6c-1.4,1.4-3.5,1.4-4.9,0l0,0c-1.4-1.4-1.4-3.5,0-4.9l10.5-10.5l3.7-3.7"/>
	<path class="st1" d="M41.2,44.4L31.1,54.5c-1.4,1.4-3.5,1.4-4.9,0l0,0c-1.4-1.4-1.4-3.5,0-4.9l10.1-10.1"/>
	<path class="st1" d="M46.1,49.2L36,59.3c-1.4,1.4-3.5,1.4-4.9,0l0,0c-1.4-1.4-1.4-3.5,0-4.9l10.1-10.1"/>
	<path class="st1" d="M35.9,30.2l7.3,7.3c1.4,1.4,3.5,1.4,4.9,0l0,0c1.4-1.4,1.4-3.5,0-4.9L36.7,21.3c-2.3-2.3-6.1-2.3-8.4,0
		L16.6,33.2c-2.3,2.3-2.3,6.1,0,8.4l2.3,2.3"/>
</g>
</svg>
