<?xml version="1.0" encoding="utf-8"?>
<!-- Generator: Adobe Illustrator 22.0.0, SVG Export Plug-In . SVG Version: 6.00 Build 0)  -->
<svg version="1.1" id="Layer_1" xmlns="http://www.w3.org/2000/svg" xmlns:xlink="http://www.w3.org/1999/xlink" x="0px" y="0px"
	 viewBox="0 0 179.6 190.1" style="enable-background:new 0 0 179.6 190.1;" xml:space="preserve">
<style type="text/css">
	.st0{opacity:0;}
	.st1{fill:#FFFFFF;}
	.st2{opacity:0.9;}
</style>
<g class="st0">
	<g>
		<g>
			<path class="st1" d="M160.6,95c0,18.6-5.7,36.8-16.6,52.1c-10.8,15.2-26,26.8-43.7,33v-21.7c12.1-5.7,22.2-14.7,29.3-25.9
				c7.1-11.3,10.8-24.2,10.8-37.5s-3.6-26.3-10.7-37.5c-7.1-11.3-17.3-20.2-29.3-25.9V10.1c17.6,6.3,32.8,17.8,43.6,32.9
				S160.6,76.5,160.6,95z"/>
			<rect y="85" class="st1" width="80.3" height="20"/>
			<path class="st1" d="M120.4,95c0-6.6-1.3-13.1-3.8-19.2c-2.5-6.1-6.3-11.5-10.8-16.3c-4.7-4.7-10.3-8.4-16.3-10.8
				c-6-2.4-12.6-3.8-19.3-3.8H40.2v19.9h60.2v60.1H40.2v20h30.1c6.6,0,13.1-1.3,19.2-3.8c6.1-2.5,11.6-6.3,16.3-10.8
				c4.7-4.7,8.4-10.1,10.8-16.3C119.3,108.1,120.4,101.6,120.4,95z"/>
		</g>
	</g>
</g>
<g class="st2">
	<g>
		<path class="st1" d="M143.4,43.6L143.4,43.6c-10.3-14.6-24.6-25.6-41.5-32l-0.7-0.3v19.9l0.3,0.1c11.9,5.7,21.9,14.7,28.9,25.7
			c7.2,11.1,10.9,24.2,10.9,37.9c0,13.3-3.8,26.4-10.9,37.9c-7.1,11.1-17.1,20.1-28.9,25.9l-0.3,0.1v20l0.7-0.3
			c16.6-6.2,31-17.3,41.5-32c10.7-15.1,16.4-32.9,16.4-51.5C159.7,76.8,153.9,58.4,143.4,43.6z"/>
		<rect x="0.9" y="85.9" class="st1" width="78.6" height="18.3"/>
		<path class="st1" d="M115.8,113.8c2.6-5.7,3.8-12.1,3.8-18.8c0-6.5-1.3-12.9-3.8-18.9l0,0c-2.3-5.7-5.9-11.1-10.6-15.9
			c-4.6-4.6-10-8.1-15.9-10.6c-5.9-2.5-12.5-3.8-18.9-3.8H41.1v18.3h60.2v61.7H41.1v18.3h29.2c6.5,0,12.9-1.3,18.9-3.8
			c5.9-2.3,11.5-6.1,15.9-10.6C109.8,125.2,113.5,119.6,115.8,113.8z"/>
	</g>
</g>
</svg>
