<?xml version="1.0" encoding="utf-8"?>
<!-- Generator: Adobe Illustrator 22.0.0, SVG Export Plug-In . SVG Version: 6.00 Build 0)  -->
<svg version="1.1" id="Layer_1" xmlns="http://www.w3.org/2000/svg" xmlns:xlink="http://www.w3.org/1999/xlink" x="0px" y="0px"
	 viewBox="0 0 894 242.5" style="enable-background:new 0 0 894 242.5;" xml:space="preserve">
<style type="text/css">
	.st0{fill:#3B3B4B;}
</style>
<g>
	<g>
		<path class="st0" d="M204.9,121.2c0,23.8-7.3,46.9-21.1,66.4c-13.8,19.4-33.3,34.2-55.6,42.1v-27.6c15.4-7.2,28.2-18.7,37.3-33.1
			c9-14.4,13.8-30.9,13.8-47.8s-4.8-33.5-13.9-47.8c-9-14.4-22-25.7-37.3-33V12.8c22.5,8,42,22.7,55.7,42.1
			C197.5,74.2,204.9,97.5,204.9,121.2z"/>
		<rect y="108.4" class="st0" width="102.4" height="25.5"/>
		<path class="st0" d="M153.6,121.2c0-8.5-1.6-16.7-4.8-24.5s-8-14.8-13.8-20.7c-5.9-5.9-13.1-10.7-20.7-13.8s-16.1-4.8-24.5-4.8
			H51.4v25.5h76.8v76.7H51.4V185h38.4c8.5,0,16.7-1.6,24.5-4.8c7.8-3.3,14.9-8,20.7-13.8c5.9-5.9,10.7-13,13.8-20.7
			C152.1,137.9,153.6,129.7,153.6,121.2z"/>
	</g>
</g>
<text transform="matrix(1 0 0 1 0 -154.9955)" class="st0" style="font-family:'AeonikPro-Medium'; font-size:232.6432px;">элта</text>
<g>
	<path class="st0" d="M393.8,122c0,41.4-25.5,69.2-65.7,69.2c-31.5,0-53.3-18.5-58-46.9h23.1c4.5,16.7,16.7,27.4,36,27.4
		c23,0,38.5-16.1,41.4-40.8h-52.3v-19.1h52.3c-3.1-24.1-17.7-39.7-40.3-39.7c-19.5,0-31.7,10.7-36.2,27.4h-23.1
		c4.7-28.4,27-46.9,58.5-46.9C369.7,52.7,393.8,80.1,393.8,122z"/>
	<path class="st0" d="M395.2,190v-19.8h3.5c14,0,20.2-8.9,20.2-49.2V53.9h98.4V190H495V73.7h-54.7v49c0,50.8-12.3,67.3-38.9,67.3
		H395.2z"/>
	<path class="st0" d="M530.9,53.9h106.4v19.8h-42V190h-22.4V73.7h-42V53.9z"/>
	<path class="st0" d="M621.6,190l51-136.2h26.6L750,190h-23.9l-12.8-33.7h-55.8L644.8,190H621.6z M663.6,137.3H707L685.2,78
		L663.6,137.3z"/>
</g>
</svg>
