<?xml version="1.0" encoding="utf-8"?>
<!-- Generator: Adobe Illustrator 22.0.0, SVG Export Plug-In . SVG Version: 6.00 Build 0)  -->
<svg version="1.1" id="Layer_1" xmlns="http://www.w3.org/2000/svg" xmlns:xlink="http://www.w3.org/1999/xlink" x="0px" y="0px"
	 viewBox="0 0 894 242.5" style="enable-background:new 0 0 894 242.5;" xml:space="preserve">
<style type="text/css">
	.st0{fill:#3B3B4B;}
</style>
<g>
	<g>
		<path class="st0" d="M194,121.2c0,22.5-6.9,44.4-20,62.9c-13.1,18.4-31.5,32.4-52.7,39.8v-26.1c14.6-6.9,26.7-17.7,35.4-31.3
			c8.5-13.6,13.1-29.3,13.1-45.3s-4.6-31.7-13.2-45.3c-8.5-13.6-20.8-24.4-35.4-31.2V18.6C142.6,26.1,161,40,174,58.4
			C187,76.7,194,98.8,194,121.2z"/>
		<rect y="109.1" class="st0" width="96.9" height="24.2"/>
		<path class="st0" d="M145.5,121.2c0-8-1.5-15.8-4.6-23.2c-3.1-7.4-7.6-14-13.1-19.6c-5.6-5.6-12.4-10.1-19.6-13.1
			c-7.2-3-15.2-4.6-23.2-4.6H48.6v24.1h72.7v72.6H48.6v24.2H85c8,0,15.8-1.5,23.2-4.6s14.1-7.6,19.6-13.1
			c5.6-5.6,10.1-12.3,13.1-19.6C144,137,145.5,129.2,145.5,121.2z"/>
	</g>
</g>
<text transform="matrix(1 0 0 1 0 -154.9955)" class="st0" style="font-family:'AeonikPro-Medium'; font-size:232.6432px;">элта</text>
<g>
	<path class="st0" d="M372.8,121.9c0,39.2-24.1,65.6-62.2,65.6c-29.8,0-50.5-17.5-54.9-44.4h21.9c4.2,15.8,15.8,26,34.1,26
		c21.7,0,36.5-15.3,39.2-38.7h-49.5v-18h49.5c-2.9-22.8-16.8-37.6-38.1-37.6c-18.4,0-30,10.1-34.3,26h-21.9
		c4.4-26.9,25.6-44.4,55.4-44.4C350,56.4,372.8,82.3,372.8,121.9z"/>
	<path class="st0" d="M371.2,186.4v-18.8h3.3c13.3,0,19.2-8.5,19.2-46.6V57.5h93.2v128.9h-21.2V76.3h-51.7v46.4
		c0,48.1-11.6,63.7-36.8,63.7H371.2z"/>
	<path class="st0" d="M498.6,57.5h100.7v18.8h-39.8v110.1h-21.2V76.3h-39.8V57.5z"/>
	<path class="st0" d="M583.5,186.4l48.2-128.9h25.2L705,186.4h-22.6l-12.2-31.9h-52.8l-12,31.9H583.5z M623.2,136.5h41.1l-20.6-56.2
		L623.2,136.5z"/>
</g>
</svg>
