<?xml version="1.0" encoding="utf-8"?>
<!-- Generator: Adobe Illustrator 22.0.0, SVG Export Plug-In . SVG Version: 6.00 Build 0)  -->
<svg version="1.1" id="Layer_1" xmlns="http://www.w3.org/2000/svg" xmlns:xlink="http://www.w3.org/1999/xlink" x="0px" y="0px"
	 viewBox="0 0 788.1 222.9" style="enable-background:new 0 0 788.1 222.9;" xml:space="preserve">
<style type="text/css">
	.st0{fill:#FFFFFF;}
</style>
<g>
	<g>
		<path class="st0" d="M261.2,131.8h27.3c4.1,22.5,20.9,30.3,38.1,30.3c21.1,0,37.5-14.5,40-40h-58.8V99.3h58.6
			c-3.1-24.4-18.6-38.5-39.6-38.5c-17.8,0-33,9.2-37.5,30.3h-27.3c5.3-31.4,29.5-52.9,63.9-52.9c43.4,0,69.9,28.7,69.9,73
			c0,44.5-25.8,73.4-68.9,73.4C292,184.7,266.4,163.6,261.2,131.8z"/>
		<path class="st0" d="M396.9,182.2v-22.7h3.5c18.4,0,20.5-28.7,22.1-69.9l1.6-49h94.5v141.6h-27.9V63.2h-39.8l-1.4,36.3
			c-1.6,46.7-12.1,82.6-44.5,82.6H396.9z"/>
		<path class="st0" d="M574.5,63.2h-43.6V40.6h115.2v22.7h-43.7v118.9h-27.9V63.2z"/>
		<path class="st0" d="M676,40.6h28.1l52.9,141.6h-30.3l-10-28.7h-55.1l-10,28.7h-28.5L676,40.6z M669.8,130.6h39.1l-19.5-55.9
			L669.8,130.6z"/>
	</g>
	<g>
		<g>
			<path class="st0" d="M210.6,111.4c0,24.4-7.5,48.2-21.7,68.2c-14.2,19.9-34.1,35.2-57.2,43.3v-28.4c15.8-7.5,29.1-19.2,38.3-34
				c9.3-14.8,14.2-31.8,14.2-49.1s-4.8-34.5-14.2-49.1c-9.3-14.8-22.6-26.5-38.3-33.9V0c23.1,8.2,43.2,23.3,57.2,43.3
				C203,63.1,210.6,87.1,210.6,111.4z"/>
			<rect y="98.3" class="st0" width="105.2" height="26.3"/>
			<path class="st0" d="M158,111.4c0-8.7-1.6-17.2-4.9-25.2c-3.3-8-8.2-15.1-14.2-21.3c-6.1-6.1-13.5-11-21.3-14.2
				c-7.9-3.3-16.5-4.9-25.2-4.9H52.8v26.1h78.9v78.8H52.8v26.3h39.4c8.7,0,17.2-1.6,25.2-4.9c8-3.3,15.2-8.2,21.3-14.2
				c6.1-6.1,11-13.4,14.2-21.3C156.3,128.6,158,120.1,158,111.4z"/>
		</g>
	</g>
</g>
</svg>
