<?xml version="1.0" encoding="utf-8"?>
<!-- Generator: Adobe Illustrator 22.0.0, SVG Export Plug-In . SVG Version: 6.00 Build 0)  -->
<svg version="1.1" id="Layer_1" xmlns="http://www.w3.org/2000/svg" xmlns:xlink="http://www.w3.org/1999/xlink" x="0px" y="0px"
	 viewBox="0 0 179.6 190.1" style="enable-background:new 0 0 179.6 190.1;" xml:space="preserve">
<style type="text/css">
	.st0{opacity:0;}
	.st1{fill:#1A1B27;}
</style>
<g class="st0">
	<g>
		<path class="st1" d="M163,95c0,18.9-5.8,37.3-16.8,52.8c-11,15.4-26.4,27.2-44.3,33.5v-22c12.3-5.8,22.5-14.9,29.7-26.3
			c7.2-11.4,11-24.6,11-38s-3.7-26.7-11-38c-7.2-11.4-17.5-20.5-29.7-26.2v-22c17.9,6.4,33.4,18.1,44.3,33.5
			C157.1,57.6,163,76.2,163,95z"/>
		<rect y="84.8" class="st1" width="81.4" height="20.3"/>
		<path class="st1" d="M122.2,95c0-6.7-1.3-13.3-3.8-19.5s-6.4-11.7-11-16.5c-4.7-4.7-10.4-8.5-16.5-11c-6.1-2.5-12.8-3.8-19.6-3.8
			H40.8v20.2h61.1v61H40.8v20.3h30.5c6.7,0,13.3-1.3,19.5-3.8c6.2-2.5,11.8-6.4,16.5-11c4.7-4.7,8.5-10.3,11-16.5
			C121,108.3,122.2,101.7,122.2,95z"/>
	</g>
</g>
<g>
	<path class="st1" d="M145.5,42.8L145.5,42.8c-10.4-14.8-25-26-42.1-32.5l-0.7-0.3v20.2l0.3,0.1c12.1,5.8,22.2,14.9,29.3,26.1
		c7.3,11.3,11.1,24.6,11.1,38.5c0,13.5-3.8,26.8-11.1,38.5c-7.2,11.3-17.3,20.4-29.3,26.2l-0.3,0.1v20.3l0.7-0.3
		c16.8-6.3,31.4-17.5,42.1-32.5c10.9-15.3,16.6-33.4,16.6-52.3C162.1,76.5,156.2,57.9,145.5,42.8z"/>
	<rect x="0.9" y="85.7" class="st1" width="79.7" height="18.6"/>
	<path class="st1" d="M117.5,114.1c2.6-5.8,3.9-12.3,3.9-19.1c0-6.6-1.3-13.1-3.8-19.2l0,0c-2.4-5.8-6-11.3-10.8-16.2
		c-4.6-4.6-10.2-8.3-16.2-10.7c-6-2.5-12.7-3.8-19.2-3.8H41.7v18.5h61.1v62.6H41.7v18.6h29.6c6.6,0,13.1-1.3,19.2-3.8
		c6-2.4,11.6-6.2,16.2-10.8C111.4,125.6,115.1,120,117.5,114.1z"/>
</g>
</svg>
