<?xml version="1.0" encoding="utf-8"?>
<!-- Generator: Adobe Illustrator 22.0.0, SVG Export Plug-In . SVG Version: 6.00 Build 0)  -->
<svg version="1.1" id="Layer_1" xmlns="http://www.w3.org/2000/svg" xmlns:xlink="http://www.w3.org/1999/xlink" x="0px" y="0px"
	 viewBox="0 0 894 242.5" style="enable-background:new 0 0 894 242.5;" xml:space="preserve">
<style type="text/css">
	.st0{fill:#FFFFFF;}
</style>
<g>
	<g>
		<path class="st0" d="M229.1,121.2c0,26.6-8.2,52.5-23.6,74.3c-15.4,21.7-37.1,38.2-62.2,47v-30.8c17.2-8.1,31.6-20.9,41.8-37
			c10.1-16.1,15.5-34.6,15.5-53.5s-5.4-37.5-15.6-53.5c-10.1-16.1-24.6-28.8-41.8-36.9V0c25.1,8.9,46.9,25.3,62.3,47
			C220.8,68.6,229.1,94.7,229.1,121.2z"/>
		<rect y="106.9" class="st0" width="114.5" height="28.6"/>
		<path class="st0" d="M171.8,121.2c0-9.4-1.8-18.7-5.4-27.4s-8.9-16.5-15.5-23.2c-6.6-6.6-14.6-11.9-23.2-15.5s-18-5.4-27.4-5.4
			H57.4v28.5h85.9V164H57.4v28.6h42.9c9.4,0,18.7-1.8,27.4-5.4c8.7-3.6,16.6-8.9,23.2-15.5s11.9-14.5,15.5-23.2
			C170,139.9,171.8,130.6,171.8,121.2z"/>
	</g>
</g>
<g>
	<path class="st0" d="M392,121.8c0,35.9-21.9,59.5-57.3,59.5c-27.9,0-46.8-17.1-50.5-41.6h25.4c3,12.2,12,20.7,26.4,20.7
		c16.4,0,27.3-10.9,30.1-28.9h-40.6v-20.1h40.5c-2.8-17.7-13.4-28.3-29.3-28.3c-14.9,0-23.7,8.7-26.6,20.7h-25.4
		c3.7-24.6,23.1-41.6,51.5-41.6C371,62.3,392,85.8,392,121.8z"/>
	<path class="st0" d="M390.3,180.3v-21.6h3.2c10.7,0,15.9-7.5,15.9-37.6V63.3H498v117h-25.1V84.8h-39.8v38.5c0,42-11.5,57-36.8,57
		H390.3z"/>
	<path class="st0" d="M507.9,63.3h92.8v21.6h-33.9v95.5h-25.1V84.8h-33.8V63.3z"/>
	<path class="st0" d="M585.9,180.3l42.8-117h30.1l42.5,117h-26.9l-9-25.6h-44.5l-9,25.6H585.9z M627.6,134.5h30.9L643,90
		L627.6,134.5z"/>
</g>
</svg>
