<?xml version="1.0" encoding="utf-8"?>
<!-- Generator: Adobe Illustrator 22.0.0, SVG Export Plug-In . SVG Version: 6.00 Build 0)  -->
<svg version="1.1" id="Layer_1" xmlns="http://www.w3.org/2000/svg" xmlns:xlink="http://www.w3.org/1999/xlink" x="0px" y="0px"
	 viewBox="0 0 179.6 190.1" style="enable-background:new 0 0 179.6 190.1;" xml:space="preserve">
<style type="text/css">
	.st0{opacity:0;}
	.st1{fill:#1A1B27;}
</style>
<g class="st0">
	<g>
		<path class="st1" d="M179.6,95c0,20.8-6.4,41.1-18.5,58.2c-12.1,17-29.1,30-48.8,36.9v-24.2c13.5-6.4,24.8-16.4,32.7-29
			s12.1-27.1,12.1-41.9S153,65.6,145,53.1c-7.9-12.6-19.3-22.6-32.7-28.9V0c19.7,7,36.8,19.9,48.8,36.9
			C173.1,53.8,179.6,74.3,179.6,95z"/>
		<rect y="83.8" class="st1" width="89.7" height="22.4"/>
		<path class="st1" d="M134.7,95c0-7.4-1.4-14.7-4.2-21.5s-7-12.9-12.1-18.2c-5.2-5.2-11.5-9.4-18.2-12.1C93.5,40.5,86.1,39,78.6,39
			H45v22.3h67.3v67.2H45v22.4h33.6c7.4,0,14.7-1.4,21.5-4.2s13-7,18.2-12.1c5.2-5.2,9.4-11.4,12.1-18.2
			C133.3,109.7,134.7,102.4,134.7,95z"/>
	</g>
</g>
<g>
	<path class="st1" d="M159.9,37.8c-11.5-16.3-27.4-28.5-46.1-35.6v21.1c13.4,6.5,24.6,16.5,32.5,29c8.1,12.6,12.3,27.4,12.3,42.7
		c0,15.1-4.3,29.8-12.3,42.7c-7.9,12.5-19.1,22.6-32.5,29.1V188c18.5-6.9,34.4-19.2,46.1-35.6c11.9-16.8,18.2-36.7,18.2-57.3
		C178.1,74.6,171.6,54.3,159.9,37.8z"/>
	<rect x="1.5" y="85.3" class="st1" width="86.7" height="19.4"/>
	<path class="st1" d="M129.1,74.1c-2.6-6.3-6.6-12.3-11.8-17.7c-5.1-5.1-11.2-9.1-17.7-11.7c-6.6-2.7-13.9-4.1-21-4.1H46.5v19.3
		h67.3V130H46.5v19.4h32.1c7.3,0,14.3-1.4,20.9-4.1c6.4-2.6,12.6-6.7,17.7-11.8s9.2-11.3,11.8-17.7c2.8-6.4,4.2-13.4,4.2-20.8
		C133.2,87.7,131.8,80.7,129.1,74.1z"/>
</g>
</svg>
