<?xml version="1.0" encoding="utf-8"?>
<!-- Generator: Adobe Illustrator 22.0.0, SVG Export Plug-In . SVG Version: 6.00 Build 0)  -->
<svg version="1.1" id="Layer_1" xmlns="http://www.w3.org/2000/svg" xmlns:xlink="http://www.w3.org/1999/xlink" x="0px" y="0px"
	 viewBox="0 0 201.9 212.6" style="enable-background:new 0 0 201.9 212.6;" xml:space="preserve">
<style type="text/css">
	.st0{fill:#1B1B2D;}
</style>
<g>
	<path class="st0" d="M181.1,40.8c-13.2-18.6-31.5-32.7-53-40.8v24.5c15.4,7.5,28.2,18.9,37.1,33.1c9.3,14.6,14.2,31.4,14.2,48.6
		c0,17.1-4.9,33.9-14.1,48.6c-9.1,14.4-21.9,25.9-37.1,33.2v24.5c21.3-7.9,39.5-22,52.9-40.8c13.6-19.3,20.8-42,20.8-65.5
		C201.9,83,194.5,59.8,181.1,40.8z"/>
	<rect y="94.9" class="st0" width="99.4" height="22.5"/>
	<path class="st0" d="M145.9,82.3c-3.1-7.5-7.7-14.3-13.5-20.2c-5.7-5.7-12.7-10.4-20.2-13.5c-7.4-3.1-15.7-4.7-23.9-4.7H51.4v22.5
		h76.8V146H51.4v22.5h36.9c8.4,0,16.4-1.6,23.9-4.7c7.5-3.1,14.5-7.8,20.2-13.5c5.8-5.8,10.5-12.8,13.5-20.2
		c3.1-7.4,4.7-15.5,4.7-23.9C150.6,97.9,149.1,89.8,145.9,82.3z"/>
</g>
</svg>
