<?xml version="1.0" encoding="utf-8"?>
<!-- Generator: Adobe Illustrator 22.0.0, SVG Export Plug-In . SVG Version: 6.00 Build 0)  -->
<svg version="1.1" id="Layer_1" xmlns="http://www.w3.org/2000/svg" xmlns:xlink="http://www.w3.org/1999/xlink" x="0px" y="0px"
	 viewBox="0 0 48.2 42.2" style="enable-background:new 0 0 48.2 42.2;" xml:space="preserve">
<style type="text/css">
	.st0{fill:none;stroke:#FFFFFF;stroke-linejoin:round;}
	.st1{fill:none;stroke:#FFFFFF;stroke-linecap:round;stroke-linejoin:round;}
</style>
<g>
	<path class="st0" d="M0.5,14.2V28l23.6,13.7L47.7,28V14.2"/>
	<path class="st0" d="M47.7,14.2L24.1,0.5L0.5,14.2L24.1,28L47.7,14.2z"/>
	<path class="st0" d="M24.1,28v13.7"/>
	<path class="st1" d="M3.9,25v1.8"/>
	<path class="st1" d="M7.9,27.3v1.8"/>
	<path class="st1" d="M11.8,29.7v1.8"/>
	<path class="st1" d="M15.8,31.9v1.8"/>
	<path class="st1" d="M19.7,34.2V36"/>
	<path class="st1" d="M3.9,25v1.8"/>
	<path class="st1" d="M3.9,19.9v1.8"/>
	<path class="st1" d="M7.9,22.2V24"/>
	<path class="st1" d="M11.8,24.6v1.8"/>
	<path class="st1" d="M15.8,26.8v1.8"/>
	<path class="st1" d="M19.7,29.1v1.8"/>
	<path class="st1" d="M28.4,30.9v-1.8"/>
	<path class="st1" d="M32.3,28.6v-1.8"/>
	<path class="st1" d="M36.3,26.3v-1.8"/>
	<path class="st1" d="M40.2,24v-1.8"/>
	<path class="st1" d="M44.2,21.7v-1.8"/>
	<path class="st1" d="M28.4,36v-1.8"/>
	<path class="st1" d="M32.3,33.7v-1.8"/>
	<path class="st1" d="M36.3,31.4v-1.8"/>
	<path class="st1" d="M40.2,29.1v-1.8"/>
	<path class="st1" d="M44.2,26.8V25"/>
</g>
</svg>
