<?xml version="1.0" encoding="utf-8"?>
<!-- Generator: Adobe Illustrator 22.0.0, SVG Export Plug-In . SVG Version: 6.00 Build 0)  -->
<svg version="1.1" id="Layer_1" xmlns="http://www.w3.org/2000/svg" xmlns:xlink="http://www.w3.org/1999/xlink" x="0px" y="0px"
	 viewBox="0 0 894 242.5" style="enable-background:new 0 0 894 242.5;" xml:space="preserve">
<style type="text/css">
	.st0{fill:#FFFFFF;}
</style>
<g>
	<g>
		<path class="st0" d="M229.1,121.2c0,26.6-8.2,52.5-23.6,74.3c-15.4,21.7-37.1,38.2-62.2,47v-30.8c17.2-8.1,31.6-20.9,41.8-37
			c10.1-16.1,15.5-34.6,15.5-53.5s-5.4-37.5-15.6-53.5c-10.1-16.1-24.6-28.8-41.8-36.9V0c25.1,8.9,46.9,25.3,62.3,47
			C220.8,68.6,229.1,94.7,229.1,121.2z"/>
		<rect y="106.9" class="st0" width="114.5" height="28.6"/>
		<path class="st0" d="M171.8,121.2c0-9.4-1.8-18.7-5.4-27.4s-8.9-16.5-15.5-23.2c-6.6-6.6-14.6-11.9-23.2-15.5s-18-5.4-27.4-5.4
			H57.4v28.5h85.9V164H57.4v28.6h42.9c9.4,0,18.7-1.8,27.4-5.4c8.7-3.6,16.6-8.9,23.2-15.5s11.9-14.5,15.5-23.2
			C170,139.9,171.8,130.6,171.8,121.2z"/>
	</g>
</g>
<g>
	<path class="st0" d="M397.4,121.8c0,37.7-23,62.5-60.2,62.5c-29.3,0-49.1-17.9-53-43.7h26.7c3.2,12.8,12.6,21.8,27.7,21.8
		c17.2,0,28.6-11.4,31.6-30.4h-42.7v-21.1H370c-3-18.6-14-29.7-30.7-29.7c-15.6,0-24.9,9.1-27.9,21.8h-26.7
		c3.9-25.8,24.2-43.7,54.1-43.7C375.3,59.3,397.4,84,397.4,121.8z"/>
	<path class="st0" d="M395.6,183.2v-22.6h3.3c11.2,0,16.7-7.9,16.7-39.5V60.3h93v122.9h-26.3V83h-41.8v40.4
		c0,44.1-12.1,59.9-38.6,59.9H395.6z"/>
	<path class="st0" d="M519,60.3h97.4V83h-35.6v100.2h-26.3V83H519V60.3z"/>
	<path class="st0" d="M601,183.2l44.9-122.9h31.6l44.6,122.9h-28.3l-9.5-26.9h-46.7l-9.5,26.9H601z M644.7,135.1h32.5l-16.3-46.7
		L644.7,135.1z"/>
</g>
</svg>
