<?xml version="1.0" encoding="utf-8"?>
<!-- Generator: Adobe Illustrator 22.0.0, SVG Export Plug-In . SVG Version: 6.00 Build 0)  -->
<svg version="1.1" id="Layer_1" xmlns="http://www.w3.org/2000/svg" xmlns:xlink="http://www.w3.org/1999/xlink" x="0px" y="0px"
	 viewBox="0 0 758 200" style="enable-background:new 0 0 758 200;" xml:space="preserve">
<g>
	<g>
		<g>
			<path d="M384.7,100c0,42.6-32.4,75.9-73.8,75.9c-22,0-36.4-7.3-43.2-12.9v-23.9c5.8,5.8,18.9,14.6,40.3,14.6
				c26,0,47.2-18.1,51.5-43.9h-74.8V89.6h74.8C355,64,333.6,46.4,308,46.4c-21.4,0-34.5,8.9-40.3,14.5V37
				c6.9-5.6,21.2-12.9,43.2-12.9C352.3,24.1,384.7,57.4,384.7,100z"/>
			<path d="M391.1,152c12.5-0.6,20.2-8.7,20.2-27.4V26.2h106.2v147.6h-24.3V48.2h-58v76.7c0,33.1-19.1,50.7-44.3,49.1L391.1,152z"/>
			<path d="M574.1,173.8V48.2h-40.1v-22h104.3v22h-39.9v125.5H574.1z"/>
			<path d="M731.8,173.8c-4.6-13.3-8.7-24.9-12.3-35.5h-58.4l-12.1,35.5h-25.2l53-147.6h27.6L758,173.8H731.8z M712.7,118.1
				c-17.9-52.4-21.6-65.3-22.9-75.7c-1.2,10.6-4.6,23.7-22,75.7H712.7z"/>
		</g>
	</g>
	<g>
		<g>
			<path d="M189,99.9c0,21.9-6.7,43.2-19.5,61.2c-12.7,17.9-30.6,31.6-51.3,38.8v-25.5c14.2-6.7,26.1-17.3,34.4-30.5
				c8.3-13.3,12.7-28.5,12.7-44.1S161,69,152.6,55.9c-8.3-13.3-20.3-23.8-34.4-30.4V0c20.7,7.4,38.7,20.9,51.3,38.8
				C182.1,56.6,189,78.2,189,99.9z"/>
			<rect y="88.2" width="94.4" height="23.6"/>
			<path d="M141.7,99.9c0-7.8-1.5-15.5-4.4-22.6c-2.9-7.2-7.4-13.6-12.7-19.1c-5.5-5.5-12.1-9.9-19.1-12.7c-7-2.8-14.8-4.4-22.7-4.4
				H47.3v23.5h70.8v70.7H47.3v23.6h35.3c7.8,0,15.5-1.5,22.6-4.4s13.7-7.4,19.1-12.7c5.5-5.5,9.9-12,12.7-19.1
				C140.2,115.4,141.7,107.7,141.7,99.9z"/>
		</g>
	</g>
</g>
</svg>
