<?xml version="1.0" encoding="utf-8"?>
<!-- Generator: Adobe Illustrator 22.0.0, SVG Export Plug-In . SVG Version: 6.00 Build 0)  -->
<svg version="1.1" id="Layer_1" xmlns="http://www.w3.org/2000/svg" xmlns:xlink="http://www.w3.org/1999/xlink" x="0px" y="0px"
	 viewBox="0 0 788.1 222.9" style="enable-background:new 0 0 788.1 222.9;" xml:space="preserve">
<style type="text/css">
	.st0{fill:#242435;}
</style>
<g>
	<path class="st0" d="M376.5,110.9c0,35.3-21.7,59-56.1,59c-26.9,0-45.4-15.8-49.4-40h19.7c3.8,14.3,14.3,23.4,30.7,23.4
		c19.6,0,32.8-13.8,35.3-34.8h-44.6v-16.3h44.6c-2.7-20.6-15.1-33.8-34.3-33.8c-16.6,0-27,9.1-30.9,23.4h-19.7
		c4-24.2,23.1-40,49.9-40C355.9,51.8,376.5,75.2,376.5,110.9z"/>
	<path class="st0" d="M378.3,168.9V152h3c11.9,0,17.3-7.6,17.3-42V52.8h83.9v116.1h-19.1V69.7h-46.6v41.8
		c0,43.3-10.5,57.4-33.2,57.4H378.3z"/>
	<path class="st0" d="M496.4,52.8h90.7v16.9h-35.8v99.2h-19.1V69.7h-35.8V52.8z"/>
	<path class="st0" d="M576.2,168.9l43.5-116.1h22.7l43.3,116.1h-20.4l-10.9-28.7h-47.6l-10.8,28.7H576.2z M612,124h37l-18.6-50.6
		L612,124z"/>
</g>
<g>
	<path class="st0" d="M124.3,5.4v26.8c14.9,6.9,27.6,18.1,36.4,32c8.8,13.8,13.5,30,13.5,46.5c0,16.5-4.7,32.7-13.5,46.6
		c-8.8,14-21.4,25.1-36.3,32.2v26.8c21.8-7.8,40.7-22.1,54-41c13.3-18.8,20.6-41.4,20.6-64.5c0-23.1-7.1-45.7-20.6-64.7
		C165.2,27.4,146.2,13.1,124.3,5.4z"/>
	<rect y="98.5" class="st0" width="99.5" height="24.8"/>
	<path class="st0" d="M144.7,134.6c3-7.5,4.6-15.5,4.6-23.7c0-8.2-1.6-16.2-4.7-23.9c-3.1-7.5-7.7-14.4-13.5-20.1
		c-5.8-5.8-12.7-10.4-20.3-13.5c-7.5-3.1-15.7-4.7-23.9-4.7H49.8v24.8h74.6v74.6H49.8v24.8h37.4c8.2,0,16.3-1.6,23.9-4.7
		c7.5-3.1,14.4-7.7,20.3-13.5C137.1,148.9,141.6,142.1,144.7,134.6z"/>
</g>
</svg>
