<?xml version="1.0" encoding="utf-8"?>
<!-- Generator: Adobe Illustrator 22.0.0, SVG Export Plug-In . SVG Version: 6.00 Build 0)  -->
<svg version="1.1" id="Layer_1" xmlns="http://www.w3.org/2000/svg" xmlns:xlink="http://www.w3.org/1999/xlink" x="0px" y="0px"
	 viewBox="0 0 894 242.5" style="enable-background:new 0 0 894 242.5;" xml:space="preserve">
<style type="text/css">
	.st0{fill:#0F0F0F;}
</style>
<g>
	<path class="st0" d="M230.8,138h21.6c3.2,17.7,16.5,23.9,30.1,23.9c16.7,0,29.6-11.4,31.6-31.6h-46.4v-17.9H314
		C311.5,93.1,299.3,82,282.6,82c-14,0-26.1,7.3-29.6,23.9h-21.6c4.2-24.8,23.3-41.8,50.5-41.8c34.3,0,55.2,22.7,55.2,57.7
		c0,35.2-20.4,58-54.5,58C255.2,179.8,235,163.1,230.8,138z"/>
	<path class="st0" d="M338,177.8v-17.9h2.8c14.5,0,16.2-22.7,17.4-55.2l1.2-38.7h74.7v111.9h-22.1v-94h-31.5l-1.1,28.7
		c-1.2,36.9-9.6,65.3-35.2,65.3H338z"/>
	<path class="st0" d="M478.3,83.8h-34.4V65.9h91v17.9h-34.6v94h-22.1V83.8z"/>
	<path class="st0" d="M558.6,65.9h22.2l41.8,111.9h-23.9l-7.9-22.7h-43.5l-7.9,22.7h-22.5L558.6,65.9z M553.6,137.1h30.9L569,92.9
		L553.6,137.1z"/>
</g>
<g>
	<g>
		<path class="st0" d="M179.6,121.9c0,20.8-6.4,41.1-18.5,58.2c-12.1,17-29.1,30-48.8,36.9v-24.2c13.5-6.4,24.8-16.4,32.7-29
			s12.1-27.1,12.1-41.9S153,92.5,145,80c-7.9-12.6-19.3-22.6-32.7-28.9V26.9c19.7,7,36.8,19.9,48.8,36.9
			C173.1,80.7,179.6,101.2,179.6,121.9z"/>
		<rect y="110.7" class="st0" width="89.7" height="22.4"/>
		<path class="st0" d="M134.7,121.9c0-7.4-1.4-14.7-4.2-21.5s-7-12.9-12.1-18.2c-5.2-5.2-11.5-9.4-18.2-12.1
			c-6.7-2.8-14.1-4.2-21.5-4.2H45v22.3h67.3v67.2H45v22.4h33.6c7.4,0,14.7-1.4,21.5-4.2s13-7,18.2-12.1c5.2-5.2,9.4-11.4,12.1-18.2
			C133.3,136.6,134.7,129.3,134.7,121.9z"/>
	</g>
</g>
</svg>
