<?xml version="1.0" encoding="utf-8"?>
<!-- Generator: Adobe Illustrator 22.0.0, SVG Export Plug-In . SVG Version: 6.00 Build 0)  -->
<svg version="1.1" id="Layer_1" xmlns="http://www.w3.org/2000/svg" xmlns:xlink="http://www.w3.org/1999/xlink" x="0px" y="0px"
	 viewBox="0 0 65 44.8" style="enable-background:new 0 0 65 44.8;" xml:space="preserve">
<style type="text/css">
	.st0{fill:none;stroke:#1A1A1A;stroke-linecap:round;stroke-linejoin:round;}
</style>
<g>
	<path class="st0" d="M64,16.9l-10.3-3.5l-8.2-8.7L31.7,1l-9.6,10.1L9.4,13.4L1,20.5l7.4,10.4l11.7,3.3l12.4,9.6L44.3,29l11.9-1
		L64,16.9z"/>
	<path class="st0" d="M22.1,11.1l9.7,6.7L46,18.5L56.3,28"/>
	<path class="st0" d="M9.4,13.4l8.7,9.1l14.5,4.9l11.7,1.7"/>
	<path class="st0" d="M45.2,4.8l-13.6,13l-13.5,4.6l-9.7,8.4"/>
	<path class="st0" d="M53.7,13.4l-8.1,4.8l-13.5,9.1L20,34.2"/>
</g>
</svg>
