<?xml version="1.0" encoding="utf-8"?>
<!-- Generator: Adobe Illustrator 22.0.0, SVG Export Plug-In . SVG Version: 6.00 Build 0)  -->
<svg version="1.1" id="Layer_1" xmlns="http://www.w3.org/2000/svg" xmlns:xlink="http://www.w3.org/1999/xlink" x="0px" y="0px"
	 viewBox="0 0 894 242.5" style="enable-background:new 0 0 894 242.5;" xml:space="preserve">
<style type="text/css">
	.st0{fill:#1B1B2D;}
	.st1{opacity:0;}
</style>
<g>
	<g>
		<g>
			<path class="st0" d="M204.9,121.9c0,23.8-7.3,46.9-21.1,66.4c-13.8,19.4-33.3,34.2-55.6,42.1v-27.6c15.4-7.2,28.2-18.7,37.3-33.1
				c9-14.4,13.8-30.9,13.8-47.8s-4.8-33.5-13.9-47.8c-9-14.4-22-25.7-37.3-33V13.5c22.5,8,42,22.7,55.7,42.1
				C197.5,74.9,204.9,98.2,204.9,121.9z"/>
			<rect y="109.1" class="st0" width="102.4" height="25.5"/>
			<path class="st0" d="M153.6,121.9c0-8.5-1.6-16.7-4.8-24.5s-8-14.8-13.8-20.7c-5.9-5.9-13.1-10.7-20.7-13.8
				c-7.6-3.2-16.1-4.8-24.5-4.8H51.4v25.5h76.8v76.7H51.4v25.5h38.4c8.5,0,16.7-1.6,24.5-4.8c7.8-3.3,14.9-8,20.7-13.8
				c5.9-5.9,10.7-13,13.8-20.7C152.1,138.6,153.6,130.4,153.6,121.9z"/>
		</g>
	</g>
</g>
<text transform="matrix(1 0 0 1 685.8099 -144.9955)" class="st0" style="font-family:'AeonikPro-Medium'; font-size:232.6432px;">элта</text>
<g class="st1">
	<g>
		<path class="st0" d="M397.6,120c0,38.5-24.5,63.2-62,63.2c-32.2,0-51.9-17.5-56.7-45.4h26.7c3.1,15.1,13.9,23.8,30.5,23.8
			c18.5,0,31.5-12.3,34.6-31.7h-47.1v-20.2h46.9c-3.4-18.8-16.1-30.8-34.4-30.8c-15.6,0-26.9,9.1-30.3,23.3h-26.9
			c4.8-27.6,26.9-45,57.5-45C373.8,57.3,397.6,81.5,397.6,120z"/>
		<path class="st0" d="M401.3,181.8V159h4.3c12.7,0,17.8-7.9,17.8-41.1V58.7h97.8v123.1h-26V81.5H448v37.3c0,48.8-12.5,63-38.2,63
			H401.3z"/>
		<path class="st0" d="M577.2,181.8V81.5h-41.8V58.7H645v22.8h-41.8v100.2H577.2z"/>
		<path class="st0" d="M748.4,58.7H771v123.1h-22.8l-2.9-18.8c-7.9,11.1-20.9,20.2-40.1,20.2c-33.4,0-58.2-23.6-58.2-63
			c0-38,24.8-63,58.2-63c19.2,0,32.2,8.2,40.1,19.5L748.4,58.7z M745.3,120.7c0-24.3-14.2-41.4-35.8-41.4
			c-21.6,0-35.8,16.8-35.8,40.9c0,24.3,14.2,41.1,35.8,41.1C731.1,161.4,745.3,144.5,745.3,120.7z"/>
	</g>
</g>
<text transform="matrix(1 0 0 1 6 -1003.9955)" class="st0" style="font-family:'AeonikPro-Medium'; font-size:232.6432px;">элта</text>
<g class="st1">
	<path class="st0" d="M393.8,122c0,41.4-25.5,69.2-65.7,69.2c-31.5,0-53.3-18.5-58-46.9h23.1c4.5,16.7,16.7,27.4,36,27.4
		c23,0,38.5-16.1,41.4-40.8h-52.3v-19.1h52.3c-3.1-24.1-17.7-39.7-40.3-39.7c-19.5,0-31.7,10.7-36.2,27.4h-23.1
		c4.7-28.4,27-46.9,58.5-46.9C369.7,52.7,393.8,80.1,393.8,122z"/>
	<path class="st0" d="M395.2,190v-19.8h3.5c14,0,20.2-8.9,20.2-49.2V53.9h98.4V190H495V73.7h-54.7v49c0,50.8-12.3,67.3-38.9,67.3
		H395.2z"/>
	<path class="st0" d="M530.9,53.9h106.4v19.8h-42V190h-22.4V73.7h-42V53.9z"/>
	<path class="st0" d="M621.6,190l51-136.2h26.6L750,190h-23.9l-12.8-33.7h-55.8L644.8,190H621.6z M663.6,137.3H707L685.2,78
		L663.6,137.3z"/>
</g>
<g>
	<g>
		<g>
			<path class="st0" d="M-51-1065.1c0,23.8-7.3,46.9-21.1,66.4c-13.8,19.4-33.3,34.2-55.6,42.1v-27.6c15.4-7.2,28.2-18.7,37.3-33.1
				c9-14.4,13.8-30.9,13.8-47.8s-4.8-33.5-13.9-47.8c-9-14.4-22-25.7-37.3-33v-27.6c22.5,8,42,22.7,55.7,42.1
				C-58.4-1112.1-51-1088.8-51-1065.1z"/>
			<rect x="-255.9" y="-1077.9" class="st0" width="102.4" height="25.5"/>
			<path class="st0" d="M-102.3-1065.1c0-8.5-1.6-16.7-4.8-24.5c-3.3-7.8-8-14.8-13.8-20.7c-5.9-5.9-13.1-10.7-20.7-13.8
				c-7.6-3.2-16.1-4.8-24.5-4.8h-38.4v25.5h76.8v76.7h-76.8v25.5h38.4c8.5,0,16.7-1.6,24.5-4.8c7.8-3.3,14.9-8,20.7-13.8
				c5.9-5.9,10.7-13,13.8-20.7C-103.9-1048.4-102.3-1056.7-102.3-1065.1z"/>
		</g>
	</g>
</g>
<g>
	<path class="st0" d="M255,629.3c-10-8.2-16.5-18.7-19.4-31.4h24.1c2.1,6.6,6.1,11.9,11.9,16c5.8,4.1,12.7,6.1,20.8,6.1
		c9.3,0,17.4-2.9,24.1-8.8c6.7-5.9,10.8-13.7,12.3-23.3h-50.1v-20.6h50.1c-1.5-9.8-5.6-17.7-12.3-23.6c-6.7-5.9-14.7-8.8-24.1-8.8
		c-7.9,0-14.7,2-20.6,5.9s-9.9,9.1-12,15.5h-24.1c1.8-7.7,5.2-14.8,10.3-21.4c5.1-6.5,11.6-11.8,19.5-15.7
		c7.9-3.9,16.9-5.9,26.9-5.9c11.5,0,21.9,2.7,31.2,8.2c9.3,5.5,16.7,13.1,22,22.8c5.3,9.7,8,20.8,8,33c0,12.4-2.7,23.5-8,33.3
		c-5.3,9.7-12.7,17.4-22,22.8c-9.3,5.5-19.7,8.2-31.2,8.2C277.4,641.6,264.9,637.5,255,629.3z"/>
	<path class="st0" d="M359.9,640.6V617h6.9c10,0,15.4-5.9,16.2-17.7l7.1-83.8h87.5v123.6h-24.3v-101h-40.8l-5.6,63.6
		c-1.3,12.9-5,22.6-11.1,29.1c-6.1,6.5-15,9.7-26.8,9.7H359.9z"/>
	<path class="st0" d="M562.8,639.1h-24.3v-101h-40.8v-22.6h105.6v22.6h-40.5V639.1z"/>
	<path class="st0" d="M639.8,633.5c-8.8-5.4-15.7-13-20.8-22.8c-5.1-9.8-7.6-21-7.6-33.4c0-12.4,2.5-23.5,7.6-33.3
		c5.1-9.7,12-17.3,20.8-22.7c8.8-5.4,18.5-8.1,29.1-8.1c15.7,0,28.4,6.1,38.1,18.2h1.2l2.5-15.7h20.9v123.6h-20.9l-2.5-15.7H707
		c-9.7,12.1-22.4,18.2-38.1,18.2C658.2,641.6,648.5,638.9,639.8,633.5z M689.4,613.8c5.5-3.4,9.8-8.4,13-14.7
		c3.2-6.4,4.8-13.7,4.8-21.9c0-8.2-1.6-15.4-4.8-21.7c-3.2-6.3-7.5-11.2-13-14.6c-5.5-3.4-11.4-5.2-17.8-5.2
		c-6.6,0-12.5,1.7-17.9,5.2c-5.4,3.4-9.7,8.3-12.9,14.6c-3.2,6.3-4.8,13.6-4.8,21.7c0,8.4,1.6,15.7,4.8,22
		c3.2,6.3,7.5,11.2,12.9,14.6c5.4,3.4,11.4,5.2,17.9,5.2C678,619,683.9,617.2,689.4,613.8z"/>
</g>
<g>
	<path class="st0" d="M417.8,120.7c0,48.8-30,81.6-77.4,81.6c-37.1,0-62.8-21.8-68.3-55.2h27.3c5.3,19.7,19.7,32.3,42.4,32.3
		c27,0,45.4-19,48.8-48.1h-61.6v-22.5h61.6C386.9,80.4,369.7,62,343.1,62c-22.9,0-37.3,12.6-42.6,32.3h-27.3
		c5.5-33.5,31.8-55.2,69-55.2C389.4,39.1,417.8,71.4,417.8,120.7z"/>
	<path class="st0" d="M424.9,200.9v-21.8h4.1c12.1,0,17-7.6,17-39.2V83.6h93.3v117.3h-24.7v-95.5h-45.1v35.5c0,46.5-11.9,60-36.4,60
		H424.9z"/>
	<path class="st0" d="M593.6,200.9v-95.5h-39.9V83.6h104.5v21.8h-39.9v95.5H593.6z"/>
	<path class="st0" d="M779.6,179.3v21.5h-13.1c-16,0-21.5-7.1-21.5-18.8c-7.8,11.9-19.7,20.2-38.7,20.2c-25.7,0-43.5-12.6-43.5-34.4
		c0-24.1,17.4-37.6,50.2-37.6h29.6v-7.1c0-13.1-9.4-21.1-25.7-21.1c-14.7,0-24.5,6.9-26.3,17.2h-24.3c2.5-22.9,22.2-37.1,51.8-37.1
		c31.2,0,49,14.9,49,42.6v47c0,6,2.5,7.6,7.6,7.6H779.6z M742.5,148.6h-30.7c-15.4,0-23.8,5.7-23.8,17.6c0,9.9,8.2,16.7,21.8,16.7
		c20.6,0,32.5-12.1,32.8-30.2V148.6z"/>
</g>
</svg>
