<?xml version="1.0" encoding="utf-8"?>
<!-- Generator: Adobe Illustrator 22.0.0, SVG Export Plug-In . SVG Version: 6.00 Build 0)  -->
<svg version="1.1" id="Layer_1" xmlns="http://www.w3.org/2000/svg" xmlns:xlink="http://www.w3.org/1999/xlink" x="0px" y="0px"
	 viewBox="0 0 60 41" style="enable-background:new 0 0 60 41;" xml:space="preserve">
<style type="text/css">
	.st0{fill:none;stroke:#FFFFFF;stroke-linejoin:round;}
	.st1{fill:none;stroke:#FFFFFF;stroke-linecap:round;stroke-linejoin:round;}
</style>
<g>
	<path class="st0" d="M7.1,13.7v13.4L30,40.5l22.9-13.3V13.7"/>
	<path class="st0" d="M52.9,13.7L30,0.5L7.1,13.7L30,27.1L52.9,13.7z"/>
	<path class="st0" d="M30,27.2v13.3"/>
	<path class="st1" d="M10.4,24.3v1.7"/>
	<path class="st1" d="M14.2,26.4v1.7"/>
	<path class="st1" d="M18.1,28.8v1.7"/>
	<path class="st1" d="M21.8,31v1.7"/>
	<path class="st1" d="M25.7,33.2V35"/>
	<path class="st1" d="M10.4,24.3v1.7"/>
	<path class="st1" d="M10.4,19.2V21"/>
	<path class="st1" d="M14.2,21.6v1.7"/>
	<path class="st1" d="M18.1,23.9v1.7"/>
	<path class="st1" d="M21.8,25.9v1.7"/>
	<path class="st1" d="M25.7,28.3V30"/>
	<path class="st1" d="M34.1,29.9v-1.7"/>
	<path class="st1" d="M37.9,27.8V26"/>
	<path class="st1" d="M41.7,25.5v-1.7"/>
	<path class="st1" d="M45.6,23.3v-1.7"/>
	<path class="st1" d="M49.5,21.1v-1.7"/>
	<path class="st1" d="M34.1,35v-1.7"/>
	<path class="st1" d="M37.9,32.7V31"/>
	<path class="st1" d="M41.7,30.4v-1.7"/>
	<path class="st1" d="M45.6,28.3v-1.7"/>
	<path class="st1" d="M49.5,25.9v-1.7"/>
</g>
</svg>
