<?xml version="1.0" encoding="utf-8"?>
<!-- Generator: Adobe Illustrator 22.0.0, SVG Export Plug-In . SVG Version: 6.00 Build 0)  -->
<svg version="1.1" id="Layer_1" xmlns="http://www.w3.org/2000/svg" xmlns:xlink="http://www.w3.org/1999/xlink" x="0px" y="0px"
	 viewBox="0 0 788.1 222.9" style="enable-background:new 0 0 788.1 222.9;" xml:space="preserve">
<style type="text/css">
	.st0{fill:#1A1B27;}
</style>
<g>
	<path class="st0" d="M381.2,110.9c0,36.9-22.7,61.7-58.6,61.7c-28.1,0-47.5-16.5-51.7-41.8h20.6c4,14.9,14.9,24.4,32.1,24.4
		c20.5,0,34.3-14.4,36.9-36.4H314v-17h46.6c-2.8-21.5-15.8-35.4-35.9-35.4c-17.3,0-28.3,9.5-32.2,24.4h-20.6
		C276,65.6,296,49.2,324,49.2C359.7,49.2,381.2,73.6,381.2,110.9z"/>
	<path class="st0" d="M385.1,171.6v-17.7h3.1c12.5,0,18-8,18-43.9V50.2H494v121.3h-19.9V67.9h-48.7v43.7c0,45.2-10.9,60-34.7,60
		H385.1z"/>
	<path class="st0" d="M509.6,50.2h94.8v17.7H567v103.7h-20V67.9h-37.4V50.2z"/>
	<path class="st0" d="M593.9,171.6l45.4-121.3H663l45.2,121.3H687l-11.4-30h-49.7l-11.3,30H593.9z M631.4,124.6H670l-19.4-52.9
		L631.4,124.6z"/>
</g>
<g>
	<path class="st0" d="M124.3,5.4v26.8c14.9,6.9,27.6,18.1,36.4,32c8.8,13.8,13.5,30,13.5,46.5s-4.7,32.7-13.5,46.6
		c-8.8,14-21.4,25.1-36.3,32.2v26.8c21.8-7.8,40.7-22.1,54-41c13.3-18.8,20.6-41.4,20.6-64.5s-7.1-45.7-20.6-64.7
		C165.2,27.4,146.2,13.1,124.3,5.4z"/>
	<rect y="98.5" class="st0" width="99.5" height="24.8"/>
	<path class="st0" d="M144.7,134.6c3-7.5,4.6-15.5,4.6-23.7s-1.6-16.2-4.7-23.9c-3.1-7.5-7.7-14.4-13.5-20.1
		c-5.8-5.8-12.7-10.4-20.3-13.5c-7.5-3.1-15.7-4.7-23.9-4.7H49.8v24.8h74.6v74.6H49.8v24.8h37.4c8.2,0,16.3-1.6,23.9-4.7
		c7.5-3.1,14.4-7.7,20.3-13.5C137.1,148.9,141.6,142.1,144.7,134.6z"/>
</g>
</svg>
