<?xml version="1.0" encoding="utf-8"?>
<!-- Generator: Adobe Illustrator 22.0.0, SVG Export Plug-In . SVG Version: 6.00 Build 0)  -->
<svg version="1.1" id="Layer_1" xmlns="http://www.w3.org/2000/svg" xmlns:xlink="http://www.w3.org/1999/xlink" x="0px" y="0px"
	 viewBox="0 0 60 41" style="enable-background:new 0 0 60 41;" xml:space="preserve">
<style type="text/css">
	.st0{fill:none;stroke:#000000;stroke-width:0.9346;stroke-linecap:round;stroke-linejoin:round;}
</style>
<g>
	<path class="st0" d="M59.4,15.4l-9.6-3.3L42.1,4L29.3,0.5l-9,9.4L8.4,12.1l-7.9,6.6l6.9,9.7l10.9,3.1l11.6,9l11-13.8l11.1-0.9
		L59.4,15.4z"/>
	<path class="st0" d="M20.3,9.9l9.1,6.3l13.3,0.7l9.6,8.9"/>
	<path class="st0" d="M8.4,12.1l8.1,8.5l13.6,4.6L41,26.8"/>
	<path class="st0" d="M41.9,4.1L29.2,16.2l-12.6,4.3l-9.1,7.9"/>
	<path class="st0" d="M49.8,12.1l-7.6,4.5l-12.6,8.5l-11.3,6.4"/>
</g>
</svg>
