<?xml version="1.0" encoding="utf-8"?>
<!-- Generator: Adobe Illustrator 22.0.0, SVG Export Plug-In . SVG Version: 6.00 Build 0)  -->
<svg version="1.1" id="Layer_1" xmlns="http://www.w3.org/2000/svg" xmlns:xlink="http://www.w3.org/1999/xlink" x="0px" y="0px"
	 viewBox="0 0 343.4 120" style="enable-background:new 0 0 343.4 120;" xml:space="preserve">
<style type="text/css">
	.st0{fill:#212121;}
</style>
<g>
	<g>
		<path class="st0" d="M107.2,60c0,35.9-22.1,60-57,60C22.9,120,4,104,0,79.4h20.1c3.9,14.5,14.5,23.8,31.2,23.8
			c19.9,0,33.4-14,35.9-35.4H41.8V51.2h45.3c-2.7-20.9-15.3-34.4-34.9-34.4c-16.9,0-27.5,9.3-31.3,23.8H0.8C4.9,16,24.3,0,51.6,0
			C86.3,0,107.2,23.8,107.2,60z"/>
		<path class="st0" d="M100.9,119v-16h3c8.9,0,12.5-5.6,12.5-28.8V32.7H185V119h-18.2V48.7h-33.2v26.1c0,34.2-8.8,44.2-26.8,44.2
			H100.9z"/>
		<path class="st0" d="M219.9,119V48.7h-29.3v-16h76.9v16h-29.3V119H219.9z"/>
		<path class="st0" d="M343.4,63v56h-15.8l-1.5-12.3c-5.9,7.8-14.2,13.3-27.8,13.3c-18.9,0-31.5-9.3-31.5-25.3
			c0-17.7,12.8-27.6,37.1-27.6h21.6v-5.2c0-9.6-6.9-15.5-18.9-15.5c-10.8,0-18,5.1-19.4,12.6h-17.9c1.9-16.9,16.3-27.3,38.1-27.3
			C330.3,31.7,343.4,42.6,343.4,63z M325.4,83.6v-3h-22.6c-11.3,0-17.5,4.2-17.5,13c0,7.2,6.1,12.3,16,12.3
			C316.4,105.8,325.2,96.9,325.4,83.6z"/>
	</g>
</g>
</svg>
