<?xml version="1.0" encoding="utf-8"?>
<!-- Generator: Adobe Illustrator 22.0.0, SVG Export Plug-In . SVG Version: 6.00 Build 0)  -->
<svg version="1.1" id="Layer_1" xmlns="http://www.w3.org/2000/svg" xmlns:xlink="http://www.w3.org/1999/xlink" x="0px" y="0px"
	 viewBox="0 0 894 242.5" style="enable-background:new 0 0 894 242.5;" xml:space="preserve">
<style type="text/css">
	.st0{fill:#FFFFFF;}
</style>
<g>
	<g>
		<path class="st0" d="M220.6,121.2c0,25.6-7.9,50.5-22.7,71.5C183,213.6,162.1,229.5,138,238v-29.7c16.6-7.8,30.4-20.1,40.2-35.6
			c9.7-15.5,14.9-33.3,14.9-51.5s-5.2-36.1-15-51.5c-9.7-15.5-23.7-27.7-40.2-35.5V4.5c24.2,8.6,45.2,24.4,60,45.3
			C212.6,70.6,220.6,95.7,220.6,121.2z"/>
		<rect y="107.4" class="st0" width="110.2" height="27.5"/>
		<path class="st0" d="M165.4,121.2c0-9.1-1.7-18-5.2-26.4s-8.6-15.9-14.9-22.3c-6.4-6.4-14.1-11.5-22.3-14.9s-17.3-5.2-26.4-5.2
			H55.3v27.4H138v82.6H55.3v27.5h41.3c9.1,0,18-1.7,26.4-5.2c8.4-3.5,16-8.6,22.3-14.9c6.4-6.4,11.5-14,14.9-22.3
			C163.7,139.2,165.4,130.3,165.4,121.2z"/>
	</g>
</g>
<g>
	<path class="st0" d="M397.4,121.8c0,37.7-23,62.5-60.2,62.5c-29.3,0-49.1-17.9-53-43.7h26.7c3.2,12.8,12.6,21.8,27.7,21.8
		c17.2,0,28.6-11.4,31.6-30.4h-42.7v-21.1H370c-3-18.6-14-29.7-30.7-29.7c-15.6,0-24.9,9.1-27.9,21.8h-26.7
		c3.9-25.8,24.2-43.7,54.1-43.7C375.3,59.3,397.4,84,397.4,121.8z"/>
	<path class="st0" d="M397.6,183.2v-22.6h3.3c11.2,0,16.7-7.9,16.7-39.5V60.3h93v122.9h-26.3V83h-41.8v40.4
		c0,44.1-12.1,59.9-38.6,59.9H397.6z"/>
	<path class="st0" d="M522,60.3h97.4V83h-35.6v100.2h-26.3V83H522V60.3z"/>
	<path class="st0" d="M605,183.2l44.9-122.9h31.6l44.6,122.9h-28.3l-9.5-26.9h-46.7l-9.5,26.9H605z M648.7,135.1h32.5l-16.3-46.7
		L648.7,135.1z"/>
</g>
</svg>
