<?xml version="1.0" encoding="utf-8"?>
<!-- Generator: Adobe Illustrator 22.0.0, SVG Export Plug-In . SVG Version: 6.00 Build 0)  -->
<svg version="1.1" id="border" xmlns="http://www.w3.org/2000/svg" xmlns:xlink="http://www.w3.org/1999/xlink" x="0px" y="0px"
	 viewBox="0 0 1200 475" style="enable-background:new 0 0 1200 475;" xml:space="preserve">
<style type="text/css">
	.st0{fill:#13232D;}
	.st1{fill:#FFFFFF;}
</style>
<rect class="st0" width="1200" height="475"/>
<g>
	<path class="st1" d="M991.6,225.5h-62.7c-9.3,0-17.1-7.3-17.4-16.5c-0.3-9.6,7.5-17.6,17-17.6h97.8c1.4,0,2.6-1.2,2.6-2.6v-18.7
		c0-1.4-1.2-2.6-2.6-2.6H925.9c-22.4,0-41.1,17.8-41.5,40.2c-0.3,22.8,18.1,41.5,40.9,41.5H988c9.3,0,17.1,7.3,17.4,16.5
		c0.3,9.6-7.5,17.6-17,17.6H876.7c-1.4,0-2.6-1.2-2.6-2.6v-72.4c0-22.6-21.5-40.9-44.1-40.9H713.4h-4h-34
		c-22.6,0-40.9,18.3-40.9,40.9v96.2c0,1.4,1.2,2.6,2.6,2.6H659c1.4,0,2.6-1.2,2.6-2.6v-96.2c0-9.4,7.6-17.1,17.1-17.1h30.8l0,75
		c0,22.6,18.3,40.9,40.9,40.9h104.9h15.8h116.8c22.4,0,44.3-17.8,44.7-40.2C1032.8,244.2,1014.3,225.5,991.6,225.5z M847.1,280.9
		c0,1.4-1.2,2.6-2.6,2.6h-91c-9.4,0-17.1-7.6-17.1-17.1V194c0-1.4,1.2-2.6,2.6-2.6h91c9.4,0,17.1,7.6,17.1,17.1V280.9z"/>
	<path class="st1" d="M167.4,237.9c0.2,38.5,32.1,69.4,70.6,69.4h93.5c1.4,0,2.6-1.2,2.6-2.6V170.2c0-1.4-1.2-2.6-2.6-2.6h-94.3
		C198.6,167.6,167.2,199.2,167.4,237.9z M304.5,283.5H241c-25.3,0-46.3-20.2-46.6-45.5c-0.2-25.6,20.5-46.5,46-46.5h64
		c1.4,0,2.6,1.2,2.6,2.6v86.9C307,282.3,305.9,283.5,304.5,283.5z"/>
	<path class="st1" d="M572.2,167.6h-34.1c-1.4,0-2.6,1.2-2.6,2.6v18.7c0,1.4,1.2,2.6,2.6,2.6H569c9.4,0,17.1,7.6,17.1,17.1v75H438.9
		c-9.3,0-17.1-7.3-17.4-16.5c-0.3-9.6,7.5-17.6,17-17.6h47.6c22.4,0,41.1-17.8,41.5-40.2c0.3-22.8-18.1-41.5-40.9-41.5H358.4
		c-1.4,0-2.6,1.2-2.6,2.6v134.5c0,1.4,1.2,2.6,2.6,2.6h21.9c1.4,0,2.6-1.2,2.6-2.6V194c0-1.4,1.2-2.6,2.6-2.6h97.8
		c9.3,0,17.1,7.3,17.4,16.5c0.3,9.6-7.5,17.6-17,17.6h-47.6c-22.4,0-41.1,17.8-41.5,40.2c-0.3,22.8,18.1,41.5,40.9,41.5h175.2
		c1.4,0,2.6-1.2,2.6-2.6v-96.2C613,185.9,594.7,167.6,572.2,167.6z"/>
</g>
</svg>
