<?xml version="1.0" encoding="utf-8"?>
<!-- Generator: Adobe Illustrator 22.0.0, SVG Export Plug-In . SVG Version: 6.00 Build 0)  -->
<svg version="1.1" id="clearspace" xmlns="http://www.w3.org/2000/svg" xmlns:xlink="http://www.w3.org/1999/xlink" x="0px" y="0px"
	 viewBox="0 0 800 800" style="enable-background:new 0 0 800 800;" xml:space="preserve">
<style type="text/css">
	.st0{fill:#F3F4F4;}
	.st1{fill:#2BC8B9;}
</style>
<g>
	<rect class="st0" width="800" height="800"/>
</g>
<g>
	<circle class="st0" cx="400" cy="400" r="400"/>
</g>
<g>
	<g>
		<path class="st1" d="M723.5,390.2H672c-7.6,0-14.1-6-14.3-13.6c-0.2-7.9,6.1-14.4,14-14.4H752c1.2,0,2.1-0.9,2.1-2.1v-15.3
			c0-1.2-0.9-2.1-2.1-2.1h-82.5c-18.4,0-33.8,14.6-34.1,33.1c-0.3,18.8,14.9,34.1,33.6,34.1h51.5c7.6,0,14.1,6,14.3,13.6
			c0.2,7.9-6.1,14.4-14,14.4h-91.7c-1.2,0-2.1-0.9-2.1-2.1v-59.5c0-18.5-17.7-33.6-36.2-33.6h-95.9h-3.3h-27.9
			c-18.5,0-33.6,15-33.6,33.6v79.1c0,1.2,0.9,2.1,2.1,2.1h18c1.2,0,2.1-0.9,2.1-2.1v-79.1c0-7.7,6.3-14,14-14h25.3l0,61.6
			c0,18.5,15,33.6,33.6,33.6h86.2h13h96c18.4,0,36.4-14.6,36.7-33.1C757.4,405.6,742.2,390.2,723.5,390.2z M604.8,435.7
			c0,1.2-0.9,2.1-2.1,2.1h-74.8c-7.7,0-14-6.3-14-14v-59.5c0-1.2,0.9-2.1,2.1-2.1h74.8c7.7,0,14,6.3,14,14V435.7z"/>
	</g>
	<g>
		<path class="st1" d="M46.2,400.3c0.2,31.7,26.3,57,58,57H181c1.2,0,2.1-0.9,2.1-2.1V344.7c0-1.2-0.9-2.1-2.1-2.1h-77.5
			C71.8,342.6,46,368.5,46.2,400.3z M158.8,437.8h-52.1c-20.8,0-38.1-16.6-38.3-37.4c-0.2-21,16.8-38.2,37.8-38.2h52.6
			c1.2,0,2.1,0.9,2.1,2.1v71.4C160.9,436.9,160,437.8,158.8,437.8z"/>
	</g>
	<g>
		<path class="st1" d="M378.8,342.6h-28c-1.2,0-2.1,0.9-2.1,2.1v15.3c0,1.2,0.9,2.1,2.1,2.1h25.4c7.7,0,14,6.3,14,14v61.6H269.3
			c-7.6,0-14.1-6-14.3-13.6c-0.2-7.9,6.1-14.4,14-14.4h39.1c18.4,0,33.8-14.6,34.1-33.1c0.3-18.8-14.9-34.1-33.6-34.1H203.1
			c-1.2,0-2.1,0.9-2.1,2.1v110.5c0,1.2,0.9,2.1,2.1,2.1h18c1.2,0,2.1-0.9,2.1-2.1v-91c0-1.2,0.9-2.1,2.1-2.1h80.3
			c7.6,0,14.1,6,14.3,13.6c0.2,7.9-6.1,14.4-14,14.4h-39.1c-18.4,0-33.8,14.6-34.1,33.1c-0.3,18.8,14.9,34.1,33.6,34.1h144
			c1.2,0,2.1-0.9,2.1-2.1v-79.1C412.4,357.7,397.4,342.6,378.8,342.6z"/>
	</g>
</g>
</svg>
