<?xml version="1.0" encoding="utf-8"?>
<!-- Generator: Adobe Illustrator 22.0.0, SVG Export Plug-In . SVG Version: 6.00 Build 0)  -->
<svg version="1.1" id="artos_x5F_logotype" xmlns="http://www.w3.org/2000/svg" xmlns:xlink="http://www.w3.org/1999/xlink" x="0px"
	 y="0px" viewBox="0 0 600 96.8" style="enable-background:new 0 0 600 96.8;" xml:space="preserve">
<style type="text/css">
	.st0{fill:#13232D;}
</style>
<g>
	<g>
		<path class="st0" d="M571.7,40.2h-43.5c-6.4,0-11.9-5-12.1-11.5c-0.2-6.7,5.2-12.2,11.8-12.2h67.8c1,0,1.8-0.8,1.8-1.8V1.8
			c0-1-0.8-1.8-1.8-1.8h-69.6c-15.6,0-28.5,12.3-28.8,27.9c-0.2,15.8,12.6,28.8,28.3,28.8h43.5c6.4,0,11.9,5,12.1,11.5
			c0.2,6.7-5.2,12.2-11.8,12.2H492c-1,0-1.8-0.8-1.8-1.8V28.3c0-15.7-14.9-28.3-30.6-28.3h-80.9H376h-23.6
			C336.7,0,324,12.7,324,28.3v66.7c0,1,0.8,1.8,1.8,1.8H341c1,0,1.8-0.8,1.8-1.8V28.3c0-6.5,5.3-11.8,11.8-11.8H376l0,52
			c0,15.7,12.7,28.3,28.3,28.3H477H488h81c15.6,0,30.8-12.3,31-27.9C600.2,53.1,587.4,40.2,571.7,40.2z M471.5,78.5
			c0,1-0.8,1.8-1.8,1.8h-63.2c-6.5,0-11.8-5.3-11.8-11.8V18.3c0-1,0.8-1.8,1.8-1.8h63.2c6.5,0,11.8,5.3,11.8,11.8V78.5z"/>
		<path class="st0" d="M0,48.7c0.2,26.7,22.2,48.1,49,48.1h64.8c1,0,1.8-0.8,1.8-1.8V1.8c0-1-0.8-1.8-1.8-1.8H48.4
			C21.6,0-0.2,21.9,0,48.7z M95.1,80.3h-44c-17.6,0-32.1-14-32.3-31.6C18.6,31,33,16.5,50.7,16.5h44.4c1,0,1.8,0.8,1.8,1.8v60.2
			C96.8,79.5,96,80.3,95.1,80.3z"/>
		<path class="st0" d="M280.8,0h-23.7c-1,0-1.8,0.8-1.8,1.8v12.9c0,1,0.8,1.8,1.8,1.8h21.4c6.5,0,11.8,5.3,11.8,11.8v52H188.3
			c-6.4,0-11.9-5-12.1-11.5c-0.2-6.7,5.2-12.2,11.8-12.2h33c15.6,0,28.5-12.3,28.8-27.9C250.1,13,237.3,0,221.5,0h-89
			c-1,0-1.8,0.8-1.8,1.8v93.3c0,1,0.8,1.8,1.8,1.8h15.2c1,0,1.8-0.8,1.8-1.8V18.3c0-1,0.8-1.8,1.8-1.8H219c6.4,0,11.9,5,12.1,11.5
			c0.2,6.7-5.2,12.2-11.8,12.2h-33c-15.6,0-28.5,12.3-28.8,27.9c-0.2,15.8,12.6,28.8,28.3,28.8h121.5c1,0,1.8-0.8,1.8-1.8V28.3
			C309.1,12.7,296.4,0,280.8,0z"/>
	</g>
</g>
</svg>
