<?xml version="1.0" encoding="utf-8"?>
<!-- Generator: Adobe Illustrator 22.0.0, SVG Export Plug-In . SVG Version: 6.00 Build 0)  -->
<svg version="1.1" id="Layer_1" xmlns="http://www.w3.org/2000/svg" xmlns:xlink="http://www.w3.org/1999/xlink" x="0px" y="0px"
	 viewBox="0 0 3000 2000" style="enable-background:new 0 0 3000 2000;" xml:space="preserve">
<style type="text/css">
	.st0{fill:#0F0E13;}
	.st1{fill:none;stroke:#FFFFFF;stroke-width:2;stroke-miterlimit:10;}
	.st2{fill:#FFFFFF;}
	.st3{opacity:0.3;fill:#FFFFFF;}
</style>
<rect class="st0" width="3000" height="2000"/>
<g>
	<g>
		<g>
			<rect x="1281.8" y="781.5" class="st1" width="87.3" height="87.3"/>
		</g>
		<g>
			<rect x="1281.8" y="868.8" class="st1" width="87.3" height="87.3"/>
		</g>
		<g>
			<rect x="1281.8" y="956.1" class="st1" width="87.3" height="87.3"/>
		</g>
		<g>
			<rect x="1281.8" y="1043.4" class="st1" width="87.3" height="87.3"/>
		</g>
		<g>
			<rect x="1281.8" y="1130.7" class="st1" width="87.3" height="87.3"/>
		</g>
		<g>
			<rect x="1369.1" y="781.5" class="st1" width="87.3" height="87.3"/>
		</g>
		<g>
			<rect x="1369.1" y="868.8" class="st1" width="87.3" height="87.3"/>
		</g>
		<g>
			<rect x="1369.1" y="956.1" class="st1" width="87.3" height="87.3"/>
		</g>
		<g>
			<rect x="1369.1" y="1043.4" class="st1" width="87.3" height="87.3"/>
		</g>
		<g>
			<rect x="1369.1" y="1130.7" class="st1" width="87.3" height="87.3"/>
		</g>
		<g>
			<rect x="1456.3" y="781.5" class="st1" width="87.3" height="87.3"/>
		</g>
		<g>
			<rect x="1456.3" y="868.8" class="st1" width="87.3" height="87.3"/>
		</g>
		<g>
			<rect x="1456.3" y="956.1" class="st1" width="87.3" height="87.3"/>
		</g>
		<g>
			<rect x="1456.3" y="1043.4" class="st1" width="87.3" height="87.3"/>
		</g>
		<g>
			<rect x="1456.3" y="1130.7" class="st1" width="87.3" height="87.3"/>
		</g>
		<g>
			<rect x="1543.7" y="781.5" class="st1" width="87.3" height="87.3"/>
		</g>
		<g>
			<rect x="1543.7" y="868.8" class="st1" width="87.3" height="87.3"/>
		</g>
		<g>
			<rect x="1543.7" y="956.1" class="st1" width="87.3" height="87.3"/>
		</g>
		<g>
			<rect x="1543.7" y="1043.4" class="st1" width="87.3" height="87.3"/>
		</g>
		<g>
			<rect x="1543.7" y="1130.7" class="st1" width="87.3" height="87.3"/>
		</g>
		<g>
			<rect x="1630.9" y="781.5" class="st1" width="87.3" height="87.3"/>
		</g>
		<g>
			<rect x="1630.9" y="868.8" class="st1" width="87.3" height="87.3"/>
		</g>
		<g>
			<rect x="1630.9" y="956.1" class="st1" width="87.3" height="87.3"/>
		</g>
		<g>
			<rect x="1630.9" y="1043.4" class="st1" width="87.3" height="87.3"/>
		</g>
		<g>
			<rect x="1630.9" y="1130.7" class="st1" width="87.3" height="87.3"/>
		</g>
	</g>
</g>
<polygon class="st2" points="887.6,781.5 800.3,781.5 713,781.5 625.7,781.5 538.4,781.5 538.4,868.8 538.4,956.1 538.4,1043.4 
	538.4,1130.7 538.4,1218 625.7,1218 713,1218 800.3,1218 887.6,1218 974.9,1218 974.9,1130.7 974.9,1043.4 974.9,956.1 974.9,868.8 
	974.9,781.5 "/>
<rect x="2025.1" y="781.5" class="st2" width="87.3" height="87.3"/>
<rect x="2025.1" y="956.1" class="st2" width="87.3" height="87.3"/>
<rect x="2025.1" y="1130.7" class="st2" width="87.3" height="87.3"/>
<rect x="2199.7" y="781.5" class="st2" width="87.3" height="87.3"/>
<rect x="2199.7" y="956.1" class="st2" width="87.3" height="87.3"/>
<rect x="2199.7" y="1130.7" class="st2" width="87.3" height="87.3"/>
<rect x="2374.3" y="781.5" class="st2" width="87.3" height="87.3"/>
<rect x="2374.3" y="956.1" class="st2" width="87.3" height="87.3"/>
<path class="st3" d="M2461.6,956.1v-87.3h-87.3v-87.3H2287v87.3h-87.3v-87.3h-87.3v87.3h-87.3v87.3h87.3v87.3h-87.3v87.3h87.3v87.3
	h87.3v-87.3h87.3v87.3h87.3v-87.3h87.3v-87.3h-87.3v-87.3H2461.6z M2287,1043.4h-87.3v-87.3h87.3V1043.4z"/>
<rect x="2374.3" y="1130.7" class="st2" width="87.3" height="87.3"/>
<g>
	<g>
		<path class="st2" d="M623.7,1380.3c-3.8,0-6.8-1-9.1-3.1c-2.3-2.1-3.4-4.8-3.4-8.3c0-3.4,1.2-6.2,3.5-8.3c2.3-2.1,5.4-3.1,9.3-3.1
			c3.1,0,5.6,0.7,7.7,2.2c2.1,1.4,3.3,3.4,3.7,5.9H631c-0.4-1.4-1.3-2.5-2.5-3.2c-1.2-0.7-2.8-1.1-4.6-1.1c-2.5,0-4.6,0.7-6.1,2.1
			c-1.5,1.4-2.2,3.3-2.2,5.6c0,2.4,0.7,4.2,2.2,5.6c1.5,1.4,3.5,2.1,6,2.1c1.9,0,3.5-0.4,4.7-1.1s2.1-1.8,2.5-3.2h4.4
			c-0.4,2.5-1.7,4.4-3.8,5.9S626.8,1380.3,623.7,1380.3z"/>
		<path class="st2" d="M644.8,1380.1v-18.6h-8.3v-3.8h21v3.8h-8.3v18.6H644.8z"/>
		<path class="st2" d="M654.7,1380.1l10.1-22.4h5.2l10,22.4h-4.8l-2.3-5.2h-11.3l-2.2,5.2H654.7z M663.1,1371.4h8.3l-4.2-9.6
			L663.1,1371.4z"/>
		<path class="st2" d="M682.4,1380.1v-22.4h17.2v3.6h-12.9v5.2h7.1c2.7,0,4.7,0.6,6.1,1.7c1.4,1.2,2.1,2.9,2.1,5.1
			c0,2.2-0.7,3.9-2.1,5c-1.4,1.2-3.5,1.8-6.1,1.8H682.4z M686.7,1376.5h6.8c2.8,0,4.2-1.1,4.2-3.2c0-1-0.4-1.8-1.1-2.4
			c-0.7-0.5-1.8-0.8-3.1-0.8h-6.8V1376.5z"/>
		<path class="st2" d="M705,1380.1v-22.4h4.2v15.9l13.3-15.9h3.9v22.4h-4.2v-15.9l-13.3,15.9H705z"/>
		<path class="st2" d="M729,1380.1v-3.8h0.7c1.5,0,2.5-0.5,3.2-1.6c0.6-1.1,0.9-3.1,0.9-6v-11H753v22.4h-4.3v-18.6h-10.9v7.7
			c0,4-0.6,6.8-1.8,8.5c-1.2,1.7-3.2,2.5-5.8,2.5H729z"/>
		<path class="st2" d="M757.1,1380.1v-22.4h4.3v7.7h7.1c2.6,0,4.7,0.7,6.2,2s2.3,3.1,2.3,5.4c0,2.3-0.8,4-2.3,5.4s-3.6,2-6.2,2
			H757.1z M761.4,1376.4h6.9c1.4,0,2.4-0.3,3.2-0.9s1.1-1.5,1.1-2.7c0-1.2-0.4-2.1-1.1-2.7c-0.7-0.6-1.8-0.9-3.2-0.9h-6.9V1376.4z"
			/>
		<path class="st2" d="M780.1,1380.1v-22.4h4.3v9.2H797v-9.2h4.3v22.4H797v-9.5h-12.6v9.5H780.1z"/>
		<path class="st2" d="M817.6,1380.3c-3.8,0-7-1.1-9.4-3.2c-2.4-2.1-3.6-4.9-3.6-8.2s1.2-6.1,3.6-8.2c2.4-2.1,5.5-3.2,9.4-3.2
			c3.9,0,7,1.1,9.4,3.2c2.4,2.1,3.6,4.9,3.6,8.2s-1.2,6.1-3.6,8.2C824.6,1379.2,821.4,1380.3,817.6,1380.3z M817.6,1376.6
			c2.6,0,4.7-0.7,6.3-2.1c1.6-1.4,2.3-3.3,2.3-5.6s-0.8-4.2-2.3-5.6c-1.6-1.4-3.6-2.1-6.3-2.1c-2.6,0-4.7,0.7-6.2,2.1
			c-1.6,1.4-2.3,3.3-2.3,5.6s0.8,4.2,2.3,5.6C812.9,1375.9,815,1376.6,817.6,1376.6z"/>
		<path class="st2" d="M845.7,1380.3c-3.8,0-6.8-1-9.1-3.1c-2.3-2.1-3.4-4.8-3.4-8.3c0-3.4,1.2-6.2,3.5-8.3c2.3-2.1,5.4-3.1,9.3-3.1
			c3.1,0,5.6,0.7,7.7,2.2c2.1,1.4,3.3,3.4,3.7,5.9H853c-0.4-1.4-1.3-2.5-2.5-3.2c-1.2-0.7-2.8-1.1-4.6-1.1c-2.5,0-4.6,0.7-6.1,2.1
			c-1.5,1.4-2.2,3.3-2.2,5.6c0,2.4,0.7,4.2,2.2,5.6c1.5,1.4,3.5,2.1,6,2.1c1.9,0,3.5-0.4,4.7-1.1s2.1-1.8,2.5-3.2h4.4
			c-0.4,2.5-1.7,4.4-3.8,5.9S848.9,1380.3,845.7,1380.3z"/>
		<path class="st2" d="M866.9,1380.1v-18.6h-8.3v-3.8h21v3.8h-8.3v18.6H866.9z"/>
		<path class="st2" d="M882.6,1380.1v-22.4h4.3v7.7h7.1c2.6,0,4.7,0.7,6.2,2s2.3,3.1,2.3,5.4c0,2.3-0.8,4-2.3,5.4s-3.6,2-6.2,2
			H882.6z M886.9,1376.4h6.9c1.4,0,2.4-0.3,3.2-0.9s1.1-1.5,1.1-2.7c0-1.2-0.4-2.1-1.1-2.7c-0.7-0.6-1.8-0.9-3.2-0.9h-6.9V1376.4z"
			/>
	</g>
</g>
<g>
	<g>
		<path class="st2" d="M1369.8,1380.1v-22.4h4.3v9.2h12.6v-9.2h4.3v22.4h-4.3v-9.5h-12.6v9.5H1369.8z"/>
		<path class="st2" d="M1393.5,1380.1l10.1-22.4h5.2l10,22.4h-4.8l-2.3-5.2h-11.3l-2.2,5.2H1393.5z M1401.9,1371.4h8.3l-4.2-9.6
			L1401.9,1371.4z"/>
		<path class="st2" d="M1421.2,1380.1v-22.4h21.1v22.4h-4.3v-18.6h-12.4v18.6H1421.2z"/>
		<path class="st2" d="M1446.3,1380.1v-22.4h11.3c2.6,0,4.7,0.7,6.2,2s2.3,3.1,2.3,5.3c0,2.3-0.8,4-2.3,5.4s-3.6,2-6.2,2h-6.9v7.8
			H1446.3z M1450.6,1368.7h6.8c1.3,0,2.4-0.3,3.1-1c0.8-0.7,1.1-1.6,1.1-2.7c0-1.1-0.4-2-1.1-2.6c-0.8-0.7-1.8-1-3.1-1h-6.8V1368.7z
			"/>
		<path class="st2" d="M1464.4,1380.1l10.1-22.4h5.2l10,22.4h-4.8l-2.3-5.2h-11.3l-2.2,5.2H1464.4z M1472.8,1371.4h8.3l-4.2-9.6
			L1472.8,1371.4z"/>
		<path class="st2" d="M1492.1,1380.1v-22.4h10.7c2.7,0,4.8,0.5,6.2,1.5s2.2,2.5,2.2,4.4c0,2.6-1.3,4.2-4,4.9
			c3.4,0.5,5.1,2.2,5.1,5.2c0,2.1-0.8,3.7-2.4,4.8c-1.6,1.1-3.9,1.6-7,1.6H1492.1z M1496.4,1367h6.7c1.2,0,2.1-0.3,2.8-0.8
			c0.7-0.5,1-1.2,1-2.2s-0.3-1.7-1-2.2c-0.7-0.5-1.6-0.8-2.8-0.8h-6.7V1367z M1496.4,1376.6h6.8c3.1,0,4.6-1,4.6-3.1
			s-1.5-3.1-4.6-3.1h-6.8V1376.6z"/>
		<path class="st2" d="M1513.6,1380.1v-3.8h0.7c1.5,0,2.5-0.5,3.2-1.6c0.6-1.1,0.9-3.1,0.9-6v-11h19.3v22.4h-4.3v-18.6h-10.9v7.7
			c0,4-0.6,6.8-1.8,8.5c-1.2,1.7-3.2,2.5-5.8,2.5H1513.6z"/>
		<path class="st2" d="M1541.7,1380.1v-22.4h17.5v3.8H1546v5.5h10.9v3.6H1546v5.7h13.6v3.8H1541.7z"/>
		<path class="st2" d="M1562.7,1380.1v-22.4h4.3v9.2h12.6v-9.2h4.3v22.4h-4.3v-9.5H1567v9.5H1562.7z"/>
		<path class="st2" d="M1588,1380.1v-22.4h4.2v15.9l13.3-15.9h3.9v22.4h-4.2v-15.9l-13.3,15.9H1588z"/>
		<path class="st2" d="M1613.6,1380.1v-22.4h17.5v3.8h-13.2v5.5h10.9v3.6h-10.9v5.7h13.6v3.8H1613.6z"/>
	</g>
</g>
<g>
	<g>
		<path class="st2" d="M2113.4,1380.1v-22.4h11.3c2.6,0,4.7,0.7,6.2,2s2.3,3.1,2.3,5.3c0,2.3-0.8,4-2.3,5.4s-3.6,2-6.2,2h-6.9v7.8
			H2113.4z M2117.7,1368.7h6.8c1.3,0,2.4-0.3,3.1-1c0.8-0.7,1.1-1.6,1.1-2.7c0-1.1-0.4-2-1.1-2.6c-0.8-0.7-1.8-1-3.1-1h-6.8V1368.7z
			"/>
		<path class="st2" d="M2136.1,1380.1v-22.4h17.5v3.8h-13.2v5.5h10.9v3.6h-10.9v5.7h13.6v3.8H2136.1z"/>
		<path class="st2" d="M2157.1,1380.1v-22.4h17.1v3.8h-12.7v18.6H2157.1z"/>
		<path class="st2" d="M2178.9,1380.1v-3.8h2.3c1.2,0,2.1-0.1,2.7-0.4c0.6-0.2,1.1-0.7,1.5-1.5l0.7-1.2l-10.3-15.7h5l7.6,11.7
			l6.4-11.7h4.7l-10.1,18c-0.9,1.7-1.9,2.8-3,3.5c-1.1,0.7-2.5,1-4.3,1H2178.9z"/>
		<path class="st2" d="M2197.3,1380.1v-3.8h0.7c1.5,0,2.5-0.5,3.2-1.6c0.6-1.1,0.9-3.1,0.9-6v-11h19.3v22.4h-4.3v-18.6h-10.9v7.7
			c0,4-0.6,6.8-1.8,8.5c-1.2,1.7-3.2,2.5-5.8,2.5H2197.3z"/>
		<path class="st2" d="M2225.4,1380.1v-22.4h4.2v15.9l13.3-15.9h3.9v22.4h-4.2v-15.9l-13.3,15.9H2225.4z"/>
		<path class="st2" d="M2251,1380.1v-22.4h11.3c2.6,0,4.7,0.7,6.2,2c1.5,1.3,2.3,3.1,2.3,5.3c0,2.3-0.8,4-2.3,5.4
			c-1.5,1.3-3.6,2-6.2,2h-6.9v7.8H2251z M2255.4,1368.7h6.8c1.3,0,2.4-0.3,3.1-1c0.8-0.7,1.1-1.6,1.1-2.7c0-1.1-0.4-2-1.1-2.6
			c-0.8-0.7-1.8-1-3.1-1h-6.8V1368.7z"/>
		<path class="st2" d="M2285.9,1380.3c-3.8,0-7-1.1-9.4-3.2c-2.4-2.1-3.6-4.9-3.6-8.2s1.2-6.1,3.6-8.2c2.4-2.1,5.5-3.2,9.4-3.2
			c3.9,0,7,1.1,9.4,3.2c2.4,2.1,3.6,4.9,3.6,8.2s-1.2,6.1-3.6,8.2C2292.9,1379.2,2289.8,1380.3,2285.9,1380.3z M2285.9,1376.6
			c2.6,0,4.7-0.7,6.3-2.1c1.6-1.4,2.3-3.3,2.3-5.6s-0.8-4.2-2.3-5.6c-1.6-1.4-3.7-2.1-6.3-2.1c-2.6,0-4.7,0.7-6.2,2.1
			c-1.6,1.4-2.3,3.3-2.3,5.6s0.8,4.2,2.3,5.6C2281.2,1375.9,2283.3,1376.6,2285.9,1376.6z"/>
		<path class="st2" d="M2302.2,1380.1v-22.4h10.7c2.7,0,4.8,0.5,6.2,1.5s2.2,2.5,2.2,4.4c0,2.6-1.3,4.2-4,4.9
			c3.4,0.5,5.1,2.2,5.1,5.2c0,2.1-0.8,3.7-2.4,4.8c-1.6,1.1-3.9,1.6-7,1.6H2302.2z M2306.5,1367h6.7c1.2,0,2.2-0.3,2.8-0.8
			c0.7-0.5,1-1.2,1-2.2s-0.3-1.7-1-2.2c-0.7-0.5-1.6-0.8-2.8-0.8h-6.7V1367z M2306.5,1376.6h6.8c3.1,0,4.6-1,4.6-3.1
			s-1.5-3.1-4.6-3.1h-6.8V1376.6z"/>
		<path class="st2" d="M2325.6,1380.1v-22.4h4.3v9.2h4.6l7.8-9.2h5.3l-9.3,10.8l9.9,11.7h-5.6l-8-9.5h-4.7v9.5H2325.6z"/>
		<path class="st2" d="M2349.4,1380.1l10.1-22.4h5.2l10,22.4h-4.8l-2.3-5.2h-11.3l-2.2,5.2H2349.4z M2357.7,1371.4h8.3l-4.2-9.6
			L2357.7,1371.4z"/>
	</g>
</g>
<g>
	<g>
		<path class="st2" d="M727.8,660.3c-3.8,0-6.8-1-9.1-3.1c-2.3-2.1-3.4-4.8-3.4-8.3c0-3.4,1.2-6.2,3.5-8.3c2.3-2.1,5.4-3.1,9.3-3.1
			c3.1,0,5.6,0.7,7.7,2.2c2.1,1.4,3.3,3.4,3.7,5.9h-4.4c-0.4-1.4-1.3-2.5-2.5-3.2c-1.2-0.7-2.8-1.1-4.6-1.1c-2.5,0-4.6,0.7-6.1,2.1
			c-1.5,1.4-2.2,3.3-2.2,5.6c0,2.4,0.7,4.2,2.2,5.6c1.5,1.4,3.5,2.1,6,2.1c1.9,0,3.5-0.4,4.7-1.1s2.1-1.8,2.5-3.2h4.4
			c-0.4,2.5-1.7,4.4-3.8,5.9S731,660.3,727.8,660.3z"/>
		<path class="st2" d="M742.7,660.1v-22.4h17.5v3.8H747v5.5h10.9v3.6H747v5.7h13.6v3.8H742.7z"/>
		<path class="st2" d="M763.7,660.1v-22.4h4.3v18.6h11.6v3.8H763.7z"/>
		<path class="st2" d="M782.6,660.1v-22.4h4.3v18.6h11.6v3.8H782.6z"/>
	</g>
</g>
<g>
	<g>
		<path class="st2" d="M1471.2,660.3c-3.7,0-6.8-1.1-9.1-3.2c-2.3-2.1-3.5-4.9-3.5-8.2c0-3.4,1.2-6.2,3.5-8.3
			c2.3-2.1,5.5-3.1,9.4-3.1c3.1,0,5.7,0.7,7.8,2.1c2.1,1.4,3.4,3.3,3.8,5.7h-4.4c-0.4-1.3-1.3-2.3-2.5-3.1c-1.3-0.7-2.8-1.1-4.7-1.1
			c-2.6,0-4.6,0.7-6.2,2.1c-1.5,1.4-2.3,3.3-2.3,5.6s0.8,4.2,2.3,5.6c1.5,1.4,3.5,2.1,6.1,2.1c2.4,0,4.3-0.4,5.6-1.3
			c1.3-0.9,2.1-2,2.2-3.5l0-0.5h-7.6v-3.5h11.6v12.4h-3.3l-0.4-2.8c-0.8,0.9-1.9,1.6-3.4,2.2C1474.8,660,1473.1,660.3,1471.2,660.3z
			"/>
		<path class="st2" d="M1487.3,660.1v-22.4h11.3c2.6,0,4.7,0.7,6.2,2c1.5,1.3,2.3,3.1,2.3,5.3c0,3.4-1.7,5.5-5.2,6.5l5.6,8.6h-5.1
			l-5.1-7.8h-5.9v7.8H1487.3z M1491.6,648.7h6.9c1.3,0,2.4-0.3,3.1-1c0.8-0.7,1.1-1.6,1.1-2.7s-0.4-2-1.1-2.7c-0.8-0.6-1.8-1-3.1-1
			h-6.9V648.7z"/>
		<path class="st2" d="M1510.5,660.1v-22.4h4.3v22.4H1510.5z"/>
		<path class="st2" d="M1518.9,660.1v-22.4h9.4c4.1,0,7.4,1,9.8,3c2.4,2,3.6,4.7,3.6,8.2s-1.2,6.2-3.6,8.2s-5.7,3-9.8,3H1518.9z
			 M1523.2,656.3h5.1c2.9,0,5.1-0.6,6.6-1.9c1.5-1.3,2.3-3.1,2.3-5.6s-0.8-4.3-2.3-5.5c-1.5-1.2-3.8-1.9-6.7-1.9h-5.1V656.3z"/>
	</g>
</g>
<g>
	<g>
		<path class="st2" d="M2166.5,660.1v-22.4h11.3c2.6,0,4.7,0.7,6.2,2s2.3,3.1,2.3,5.3c0,2.3-0.8,4-2.3,5.4s-3.6,2-6.2,2h-6.9v7.8
			H2166.5z M2170.8,648.7h6.8c1.3,0,2.4-0.3,3.1-1c0.8-0.7,1.1-1.6,1.1-2.7c0-1.1-0.4-2-1.1-2.6c-0.8-0.7-1.8-1-3.1-1h-6.8V648.7z"
			/>
		<path class="st2" d="M2184.6,660.1l10.1-22.4h5.2l10,22.4h-4.8l-2.3-5.2h-11.3l-2.2,5.2H2184.6z M2193,651.4h8.3l-4.2-9.6
			L2193,651.4z"/>
		<path class="st2" d="M2215.4,660.1v-18.6h-8.3v-3.8h21v3.8h-8.3v18.6H2215.4z"/>
		<path class="st2" d="M2238.6,660.1v-18.6h-8.3v-3.8h21v3.8h-8.3v18.6H2238.6z"/>
		<path class="st2" d="M2254.2,660.1v-22.4h17.5v3.8h-13.2v5.5h10.9v3.6h-10.9v5.7h13.6v3.8H2254.2z"/>
		<path class="st2" d="M2275.2,660.1v-22.4h11.3c2.6,0,4.7,0.7,6.2,2s2.3,3.1,2.3,5.3c0,3.4-1.7,5.5-5.2,6.5l5.6,8.6h-5.1l-5.1-7.8
			h-5.9v7.8H2275.2z M2279.6,648.7h6.9c1.3,0,2.4-0.3,3.1-1c0.8-0.7,1.1-1.6,1.1-2.7s-0.4-2-1.1-2.7c-0.8-0.6-1.8-1-3.1-1h-6.9
			V648.7z"/>
		<path class="st2" d="M2298.5,660.1v-22.4h3.9l13.2,15.5v-15.5h4.2v22.4h-3.9l-13.2-15.5v15.5H2298.5z"/>
	</g>
</g>
</svg>
