<?xml version="1.0" encoding="utf-8"?>
<!-- Generator: Adobe Illustrator 22.0.0, SVG Export Plug-In . SVG Version: 6.00 Build 0)  -->
<svg version="1.1" id="Layer_1_copy" xmlns="http://www.w3.org/2000/svg" xmlns:xlink="http://www.w3.org/1999/xlink" x="0px"
	 y="0px" viewBox="0 0 3000 2000" style="enable-background:new 0 0 3000 2000;" xml:space="preserve">
<style type="text/css">
	.st0{fill:#322D2B;}
	.st1{fill:#606F91;stroke:#B1C5E8;stroke-width:3;stroke-miterlimit:10;}
	.st2{fill:#B1C5E8;}
	.st3{fill:none;stroke:#B1C5E8;stroke-width:3;stroke-miterlimit:10;}
	.st4{fill:#FFFFFF;}
	.st5{opacity:0.5;fill:#FFFFFF;enable-background:new    ;}
</style>
<rect class="st0" width="3000" height="2000"/>
<g>
	<path class="st1" d="M802,563.1V273h878.2c-29.7-149.8-102.8-267.4-219.5-352.8c-116.8-85.3-265.7-128.1-446.9-128.1
		c-151.6,0-277.5,30.5-377.7,91.5S467.5,29.1,430.9,137.1H72.8C105.9-58,207.4-214,377.3-330.7s380.3-175.1,631.2-175.1
		c315.3,0,568.5,85.4,759.2,256.1c190.8,170.8,286.2,395.5,286.2,674.3c0,280.5-95,505.7-284.9,675.6S1328.2,1355,1016.3,1355
		c-256.1,0-468.7-57.9-637.7-173.8S107.6,909,72.8,712.1h358.1c36.6,109.8,105.4,194.7,206.5,254.8c101,60.1,229.1,90.2,384.2,90.2
		c181.2,0,329.7-44,445.6-132s187.7-208.6,215.6-362H802z"/>
	<g>
		<circle class="st2" cx="752.6" cy="-505.8" r="15.1"/>
		<circle class="st2" cx="1349.4" cy="-505.8" r="15.1"/>
		<circle class="st2" cx="1572.9" cy="-423.2" r="15.1"/>
		<circle class="st2" cx="1974" cy="-68" r="15.1"/>
		
			<ellipse transform="matrix(0.2238 -0.9746 0.9746 0.2238 1463.7242 2105.5525)" class="st2" cx="2053.8" cy="133.8" rx="15.1" ry="15.1"/>
		<circle class="st2" cx="1646.6" cy="107.2" r="15.1"/>
		<circle class="st2" cx="1603.1" cy="23.8" r="15.1"/>
		<circle class="st2" cx="1333.7" cy="-171.9" r="15.1"/>
		<circle class="st2" cx="1210.5" cy="-208.1" r="15.1"/>
		<circle class="st2" cx="846.9" cy="-208.1" r="15.1"/>
		<circle class="st2" cx="756.3" cy="-190" r="15.1"/>
		
			<ellipse transform="matrix(0.1891 -0.982 0.982 0.1891 472.9722 475.3492)" class="st2" cx="524.3" cy="-48.7" rx="15.1" ry="15.1"/>
		<circle class="st2" cx="471.2" cy="16.6" r="15.1"/>
		<circle class="st2" cx="108.7" cy="-70.4" r="15.1"/>
		<circle class="st2" cx="199.3" cy="-208.1" r="15.1"/>
		<circle class="st2" cx="578.7" cy="-470.3" r="15.1"/>
		
			<ellipse transform="matrix(0.1602 -0.9871 0.9871 0.1602 1000.0988 2643.8748)" class="st2" cx="2053.8" cy="734.2" rx="15.1" ry="15.1"/>
		<circle class="st2" cx="1978.9" cy="908.1" r="15.1"/>
		<circle class="st2" cx="1569.3" cy="1279" r="15.1"/>
		<circle class="st2" cx="566.6" cy="1312.9" r="15.1"/>
		<circle class="st2" cx="200.6" cy="1059.2" r="15.1"/>
		<circle class="st2" cx="109.9" cy="922.6" r="15.1"/>
		<circle class="st2" cx="471.2" cy="834.5" r="15.1"/>
		
			<ellipse transform="matrix(0.9239 -0.3827 0.3827 0.9239 -304.4818 268.6674)" class="st2" cx="523.1" cy="899.7" rx="15.1" ry="15.1"/>
		<circle class="st2" cx="750.2" cy="1036.2" r="15.1"/>
		<circle class="st2" cx="854.1" cy="1056.7" r="15.1"/>
		<circle class="st2" cx="1231.1" cy="1056.7" r="15.1"/>
		<circle class="st2" cx="1339.8" cy="1020.5" r="15.1"/>
		<circle class="st2" cx="1594.7" cy="826" r="15.1"/>
		<circle class="st2" cx="1652.7" cy="730.6" r="15.1"/>
		<circle class="st2" cx="764.7" cy="1354.6" r="15.1"/>
		<circle class="st2" cx="1361.5" cy="1354.6" r="15.1"/>
	</g>
	<g>
		<line class="st3" x1="752" y1="-505.8" x2="1334.3" y2="-505.8"/>
		<line class="st3" x1="1576.6" y1="-420.8" x2="1965.6" y2="-75.2"/>
		<line class="st3" x1="2053.9" y1="145.8" x2="2053.9" y2="722.1"/>
		<line class="st3" x1="1579" y1="1270.6" x2="1970.4" y2="915.4"/>
		<line class="st3" x1="209" y1="1065.2" x2="556.9" y2="1306.8"/>
		<line class="st3" x1="107.5" y1="909.4" x2="72.5" y2="712.4"/>
		<line class="st3" x1="467.5" y1="822.4" x2="431.3" y2="712.4"/>
		<line class="st3" x1="536.4" y1="906.9" x2="738.2" y2="1029"/>
		<line class="st3" x1="866.2" y1="1056.7" x2="1217.8" y2="1056.7"/>
		<line class="st3" x1="1351.9" y1="1013.2" x2="1583.8" y2="834.5"/>
		<line class="st3" x1="1655.1" y1="716.1" x2="1682.9" y2="562.6"/>
		<line class="st3" x1="1650.3" y1="122.9" x2="1680.5" y2="272.7"/>
		<line class="st3" x1="1343.4" y1="-164.6" x2="1592.3" y2="16.6"/>
		<line class="st3" x1="862.6" y1="-208.1" x2="1198.4" y2="-208.1"/>
		<line class="st3" x1="536.4" y1="-55.9" x2="747.8" y2="-185.2"/>
		<line class="st3" x1="467.5" y1="28.7" x2="431.3" y2="137.4"/>
		<line class="st3" x1="106.3" y1="-58.3" x2="72.5" y2="137.4"/>
		<line class="st3" x1="207.8" y1="-214.2" x2="569" y2="-464.2"/>
		<path class="st3" d="M1010-481.7L1010-481.7c-13.3,0-24.2-10.8-24.2-24.2l0,0c0-13.3,10.8-24.2,24.2-24.2l0,0
			c13.3,0,24.2,10.8,24.2,24.2l0,0C1034.1-492.5,1023.3-481.7,1010-481.7z"/>
		<line class="st3" x1="764.1" y1="1354.6" x2="1346.4" y2="1354.6"/>
		<path class="st3" d="M1022.1,1378.8L1022.1,1378.8c-13.3,0-24.2-10.8-24.2-24.2l0,0c0-13.3,10.8-24.2,24.2-24.2l0,0
			c13.3,0,24.2,10.8,24.2,24.2l0,0C1046.2,1368,1035.4,1378.8,1022.1,1378.8z"/>
		<path class="st3" d="M381.2-310.2L381.2-310.2c-13.3,0-24.2-10.8-24.2-24.2l0,0c0-13.3,10.8-24.2,24.2-24.2l0,0
			c13.3,0,24.2,10.8,24.2,24.2l0,0C405.3-321,394.5-310.2,381.2-310.2z"/>
		<path class="st3" d="M642.1-96.4L642.1-96.4c-13.3,0-24.2-10.8-24.2-24.2l0,0c0-13.3,10.8-24.2,24.2-24.2l0,0
			c13.3,0,24.2,10.8,24.2,24.2l0,0C666.3-107.2,655.5-96.4,642.1-96.4z"/>
		<path class="st3" d="M1017.8-184.6L1017.8-184.6c-13.3,0-24.2-10.8-24.2-24.2l0,0c0-13.3,10.8-24.2,24.2-24.2l0,0
			c13.3,0,24.2,10.8,24.2,24.2l0,0C1042-195.4,1031.2-184.6,1017.8-184.6z"/>
		<path class="st3" d="M1452.7-61.3L1452.7-61.3c-13.3,0-24.2-10.8-24.2-24.2l0,0c0-13.3,10.8-24.2,24.2-24.2l0,0
			c13.3,0,24.2,10.8,24.2,24.2l0,0C1476.9-72.2,1466.1-61.3,1452.7-61.3z"/>
		<rect x="1652.7" y="244.9" class="st3" width="56.8" height="56.8"/>
		<rect x="774.4" y="244.9" class="st3" width="56.8" height="56.8"/>
		<rect x="774.4" y="534.8" class="st3" width="56.8" height="56.8"/>
		<rect x="403.5" y="684.6" class="st3" width="56.8" height="56.8"/>
		<rect x="44.7" y="684.6" class="st3" width="56.8" height="56.8"/>
		<rect x="1653.9" y="534.8" class="st3" width="56.8" height="56.8"/>
		<path class="st3" d="M1467.2,948.6L1467.2,948.6c-13.3,0-24.2-10.8-24.2-24.2l0,0c0-13.3,10.8-24.2,24.2-24.2l0,0
			c13.3,0,24.2,10.8,24.2,24.2l0,0C1491.4,937.8,1480.6,948.6,1467.2,948.6z"/>
		<path class="st3" d="M2054.4,448.5L2054.4,448.5c-13.3,0-24.2-10.8-24.2-24.2l0,0c0-13.3,10.8-24.2,24.2-24.2l0,0
			c13.3,0,24.2,10.8,24.2,24.2l0,0C2078.5,437.6,2067.7,448.5,2054.4,448.5z"/>
		<path class="st3" d="M1774.1,1117.7L1774.1,1117.7c-13.3,0-24.2-10.8-24.2-24.2l0,0c0-13.3,10.8-24.2,24.2-24.2l0,0
			c13.3,0,24.2,10.8,24.2,24.2l0,0C1798.3,1106.9,1787.4,1117.7,1774.1,1117.7z"/>
		<path class="st3" d="M1017.8,1081.5L1017.8,1081.5c-13.3,0-24.2-10.8-24.2-24.2l0,0c0-13.3,10.8-24.2,24.2-24.2l0,0
			c13.3,0,24.2,10.8,24.2,24.2l0,0C1042,1070.7,1031.2,1081.5,1017.8,1081.5z"/>
		<path class="st3" d="M626.4,986.1L626.4,986.1c-13.3,0-24.2-10.8-24.2-24.2l0,0c0-13.3,10.8-24.2,24.2-24.2l0,0
			c13.3,0,24.2,10.8,24.2,24.2l0,0C650.6,975.2,639.7,986.1,626.4,986.1z"/>
		<path class="st3" d="M383.6,1210.8L383.6,1210.8c-13.3,0-24.2-10.8-24.2-24.2l0,0c0-13.3,10.8-24.2,24.2-24.2l0,0
			c13.3,0,24.2,10.8,24.2,24.2l0,0C407.7,1200,396.9,1210.8,383.6,1210.8z"/>
		<rect x="43.5" y="109.6" class="st3" width="56.8" height="56.8"/>
		<rect x="402.3" y="109.6" class="st3" width="56.8" height="56.8"/>
		<path class="st3" d="M1771.7-224.4L1771.7-224.4c-13.3,0-24.2-10.8-24.2-24.2l0,0c0-13.3,10.8-24.2,24.2-24.2l0,0
			c13.3,0,24.2,10.8,24.2,24.2l0,0C1795.8-235.3,1785-224.4,1771.7-224.4z"/>
	</g>
</g>
<g>
	<path class="st1" d="M2285,2076.1V1786h878.2c-29.7-149.8-102.8-267.4-219.5-352.8c-116.8-85.3-265.7-128.1-446.9-128.1
		c-151.6,0-277.5,30.5-377.7,91.5s-168.6,145.5-205.2,253.5h-358.1c33.1-195.1,134.6-351.1,304.5-467.8s380.3-175.1,631.2-175.1
		c315.3,0,568.5,85.4,759.2,256.1c190.8,170.8,286.2,395.5,286.2,674.3c0,280.5-95,505.7-284.9,675.6
		c-189.9,169.9-440.8,254.8-752.7,254.8c-256.1,0-468.7-57.9-637.7-173.8c-169-115.9-271-272.2-305.8-469.1h358.1
		c36.6,109.8,105.4,194.7,206.5,254.8c101,60.1,229.1,90.2,384.2,90.2c181.2,0,329.7-44,445.6-132c115.9-88,187.7-208.6,215.6-362
		H2285z"/>
	<g>
		<circle class="st2" cx="2235.6" cy="1007.2" r="15.1"/>
		<circle class="st2" cx="2832.4" cy="1007.2" r="15.1"/>
		<circle class="st2" cx="3055.9" cy="1089.8" r="15.1"/>
		<circle class="st2" cx="3457" cy="1445" r="15.1"/>
		<circle class="st2" cx="3536.8" cy="1646.8" r="15.1"/>
		<circle class="st2" cx="3129.6" cy="1620.2" r="15.1"/>
		<circle class="st2" cx="3086.1" cy="1536.8" r="15.1"/>
		<circle class="st2" cx="2816.7" cy="1341.1" r="15.1"/>
		<circle class="st2" cx="2693.5" cy="1304.9" r="15.1"/>
		<circle class="st2" cx="2329.9" cy="1304.9" r="15.1"/>
		<circle class="st2" cx="2239.3" cy="1323" r="15.1"/>
		<circle class="st2" cx="2007.3" cy="1464.3" r="15.1"/>
		<circle class="st2" cx="1954.2" cy="1529.6" r="15.1"/>
		<circle class="st2" cx="1591.7" cy="1442.6" r="15.1"/>
		<circle class="st2" cx="1682.3" cy="1304.9" r="15.1"/>
		
			<ellipse transform="matrix(0.1602 -0.9871 0.9871 0.1602 702.2168 2910.7566)" class="st2" cx="2061.7" cy="1042.7" rx="15.1" ry="15.1"/>
		<circle class="st2" cx="3536.8" cy="2247.2" r="15.1"/>
		<circle class="st2" cx="3461.9" cy="2421.1" r="15.1"/>
		<circle class="st2" cx="3052.3" cy="2792" r="15.1"/>
		
			<ellipse transform="matrix(0.9239 -0.3827 0.3827 0.9239 -925.4077 999.4553)" class="st2" cx="2049.6" cy="2825.9" rx="15.1" ry="15.1"/>
		<circle class="st2" cx="1683.6" cy="2572.2" r="15.1"/>
		<circle class="st2" cx="1592.9" cy="2435.6" r="15.1"/>
		<circle class="st2" cx="1954.2" cy="2347.5" r="15.1"/>
		<circle class="st2" cx="2006.1" cy="2412.7" r="15.1"/>
		<circle class="st2" cx="2233.2" cy="2549.2" r="15.1"/>
		<circle class="st2" cx="2337.1" cy="2569.7" r="15.1"/>
		<circle class="st2" cx="2714.1" cy="2569.7" r="15.1"/>
		<circle class="st2" cx="2822.8" cy="2533.5" r="15.1"/>
		<circle class="st2" cx="3077.7" cy="2339" r="15.1"/>
		<circle class="st2" cx="3135.7" cy="2243.6" r="15.1"/>
		<circle class="st2" cx="2247.7" cy="2867.6" r="15.1"/>
		<circle class="st2" cx="2844.5" cy="2867.6" r="15.1"/>
	</g>
	<g>
		<line class="st3" x1="2235" y1="1007.2" x2="2817.3" y2="1007.2"/>
		<line class="st3" x1="3059.6" y1="1092.2" x2="3448.6" y2="1437.8"/>
		<line class="st3" x1="3536.9" y1="1658.8" x2="3536.9" y2="2235.1"/>
		<line class="st3" x1="3062" y1="2783.6" x2="3453.4" y2="2428.4"/>
		<line class="st3" x1="1692" y1="2578.2" x2="2039.9" y2="2819.8"/>
		<line class="st3" x1="1590.5" y1="2422.4" x2="1555.5" y2="2225.4"/>
		<line class="st3" x1="1950.5" y1="2335.4" x2="1914.3" y2="2225.4"/>
		<line class="st3" x1="2019.4" y1="2419.9" x2="2221.2" y2="2542"/>
		<line class="st3" x1="2349.2" y1="2569.7" x2="2700.8" y2="2569.7"/>
		<line class="st3" x1="2834.9" y1="2526.2" x2="3066.8" y2="2347.5"/>
		<line class="st3" x1="3138.1" y1="2229.1" x2="3165.9" y2="2075.6"/>
		<line class="st3" x1="3133.3" y1="1635.9" x2="3163.5" y2="1785.7"/>
		<line class="st3" x1="2826.4" y1="1348.4" x2="3075.3" y2="1529.6"/>
		<line class="st3" x1="2345.6" y1="1304.9" x2="2681.4" y2="1304.9"/>
		<line class="st3" x1="2019.4" y1="1457.1" x2="2230.8" y2="1327.8"/>
		<line class="st3" x1="1950.5" y1="1541.7" x2="1914.3" y2="1650.4"/>
		<line class="st3" x1="1589.3" y1="1454.7" x2="1555.5" y2="1650.4"/>
		<line class="st3" x1="1690.8" y1="1298.8" x2="2052" y2="1048.8"/>
		<path class="st3" d="M2493,1031.3L2493,1031.3c-13.3,0-24.2-10.8-24.2-24.2l0,0c0-13.3,10.8-24.2,24.2-24.2l0,0
			c13.3,0,24.2,10.8,24.2,24.2l0,0C2517.1,1020.5,2506.3,1031.3,2493,1031.3z"/>
		<line class="st3" x1="2247.1" y1="2867.6" x2="2829.4" y2="2867.6"/>
		<path class="st3" d="M2505.1,2891.8L2505.1,2891.8c-13.3,0-24.2-10.8-24.2-24.2l0,0c0-13.3,10.8-24.2,24.2-24.2l0,0
			c13.3,0,24.2,10.8,24.2,24.2l0,0C2529.2,2881,2518.4,2891.8,2505.1,2891.8z"/>
		<path class="st3" d="M1864.2,1202.8L1864.2,1202.8c-13.3,0-24.2-10.8-24.2-24.2l0,0c0-13.3,10.8-24.2,24.2-24.2l0,0
			c13.3,0,24.2,10.8,24.2,24.2l0,0C1888.3,1192,1877.5,1202.8,1864.2,1202.8z"/>
		<path class="st3" d="M2125.1,1416.6L2125.1,1416.6c-13.3,0-24.2-10.8-24.2-24.2l0,0c0-13.3,10.8-24.2,24.2-24.2l0,0
			c13.3,0,24.2,10.8,24.2,24.2l0,0C2149.3,1405.8,2138.5,1416.6,2125.1,1416.6z"/>
		<path class="st3" d="M2500.8,1328.4L2500.8,1328.4c-13.3,0-24.2-10.8-24.2-24.2l0,0c0-13.3,10.8-24.2,24.2-24.2l0,0
			c13.3,0,24.2,10.8,24.2,24.2l0,0C2525,1317.6,2514.2,1328.4,2500.8,1328.4z"/>
		<path class="st3" d="M2935.7,1451.7L2935.7,1451.7c-13.3,0-24.2-10.8-24.2-24.2l0,0c0-13.3,10.8-24.2,24.2-24.2l0,0
			c13.3,0,24.2,10.8,24.2,24.2l0,0C2959.9,1440.8,2949.1,1451.7,2935.7,1451.7z"/>
		<rect x="3135.7" y="1757.9" class="st3" width="56.8" height="56.8"/>
		<rect x="2257.4" y="1757.9" class="st3" width="56.8" height="56.8"/>
		<rect x="2257.4" y="2047.8" class="st3" width="56.8" height="56.8"/>
		<rect x="1886.5" y="2197.6" class="st3" width="56.8" height="56.8"/>
		<rect x="1527.7" y="2197.6" class="st3" width="56.8" height="56.8"/>
		<rect x="3136.9" y="2047.8" class="st3" width="56.8" height="56.8"/>
		<path class="st3" d="M2950.2,2461.6L2950.2,2461.6c-13.3,0-24.2-10.8-24.2-24.2l0,0c0-13.3,10.8-24.2,24.2-24.2l0,0
			c13.3,0,24.2,10.8,24.2,24.2l0,0C2974.4,2450.8,2963.6,2461.6,2950.2,2461.6z"/>
		<path class="st3" d="M3537.4,1961.5L3537.4,1961.5c-13.3,0-24.2-10.8-24.2-24.2l0,0c0-13.3,10.8-24.2,24.2-24.2l0,0
			c13.3,0,24.2,10.8,24.2,24.2l0,0C3561.5,1950.6,3550.7,1961.5,3537.4,1961.5z"/>
		<path class="st3" d="M3257.1,2630.7L3257.1,2630.7c-13.3,0-24.2-10.8-24.2-24.2l0,0c0-13.3,10.8-24.2,24.2-24.2l0,0
			c13.3,0,24.2,10.8,24.2,24.2l0,0C3281.3,2619.9,3270.4,2630.7,3257.1,2630.7z"/>
		<path class="st3" d="M2500.8,2594.5L2500.8,2594.5c-13.3,0-24.2-10.8-24.2-24.2l0,0c0-13.3,10.8-24.2,24.2-24.2l0,0
			c13.3,0,24.2,10.8,24.2,24.2l0,0C2525,2583.7,2514.2,2594.5,2500.8,2594.5z"/>
		<path class="st3" d="M2109.4,2499.1L2109.4,2499.1c-13.3,0-24.2-10.8-24.2-24.2l0,0c0-13.3,10.8-24.2,24.2-24.2l0,0
			c13.3,0,24.2,10.8,24.2,24.2l0,0C2133.6,2488.2,2122.7,2499.1,2109.4,2499.1z"/>
		<path class="st3" d="M1866.6,2723.8L1866.6,2723.8c-13.3,0-24.2-10.8-24.2-24.2l0,0c0-13.3,10.8-24.2,24.2-24.2l0,0
			c13.3,0,24.2,10.8,24.2,24.2l0,0C1890.7,2713,1879.9,2723.8,1866.6,2723.8z"/>
		<rect x="1526.5" y="1622.6" class="st3" width="56.8" height="56.8"/>
		<rect x="1885.3" y="1622.6" class="st3" width="56.8" height="56.8"/>
		<path class="st3" d="M3254.7,1288.6L3254.7,1288.6c-13.3,0-24.2-10.8-24.2-24.2l0,0c0-13.3,10.8-24.2,24.2-24.2l0,0
			c13.3,0,24.2,10.8,24.2,24.2l0,0C3278.8,1277.7,3268,1288.6,3254.7,1288.6z"/>
	</g>
</g>
<g>
	<g>
		<path class="st4" d="M1867.2,190.6V52.3h107.9v23.3h-81.3v34h67v22.4h-67v35.3h84.2v23.3L1867.2,190.6L1867.2,190.6z"/>
		<path class="st4" d="M1989.9,190.6V52.3h26.7v115h71.3v23.3H1989.9z"/>
		<path class="st4" d="M2119.6,190.6v-115h-51.3V52.3h129.5v23.3h-51.3v115H2119.6z"/>
		<path class="st4" d="M2173.5,190.6l62-138.4h31.8l61.8,138.4h-29.4l-14.1-31.8h-69.9l-13.8,31.8L2173.5,190.6L2173.5,190.6z
			 M2225.2,136.7h51.3l-25.9-59.1L2225.2,136.7z"/>
		<path class="st4" d="M2447.5,191.8c-20.3,0-36.3-4.1-48-12.3c-11.7-8.2-17.8-19.6-18.2-34.1h26.5c0.6,7.7,4.5,13.8,11.6,18.2
			c7.1,4.3,16.5,6.5,28.3,6.5c23.2,0,34.8-6.2,34.8-18.6c0-5.7-2.6-9.7-7.6-12.1c-5.1-2.4-15-4.5-29.7-6.3
			c-21.9-2.7-37.4-7-46.4-13.1c-9-6.1-13.5-15.2-13.5-27.5c0-12.8,5.3-22.9,15.9-30.4c10.6-7.5,25-11.1,43.2-11.1
			c18.9,0,33.8,3.8,44.8,11.3s16.8,18.1,17.5,31.7h-26.5c-1-6.8-4.7-12.1-10.9-15.8s-14.6-5.5-25.3-5.5c-21.3,0-32,5.9-32,17.8
			c0,5.7,2.6,9.7,7.7,12.1c5.2,2.4,15.1,4.4,29.8,6.2c21.4,2.4,36.8,6.6,46,12.9c9.2,6.2,13.8,15.4,13.8,27.5
			c0,13.1-5.6,23.5-16.8,31.1C2481.3,187.9,2466.3,191.8,2447.5,191.8z"/>
		<path class="st4" d="M2510.1,190.6l62-138.4h31.8l61.8,138.4h-29.4l-14.1-31.8h-69.9l-13.8,31.8L2510.1,190.6L2510.1,190.6z
			 M2561.8,136.7h51.3l-25.9-59.1L2561.8,136.7z"/>
		<path class="st4" d="M2674.2,190.6V52.3h24.3l81.6,95.9V52.3h26.1v138.4h-24.4l-81.6-95.9v95.9L2674.2,190.6L2674.2,190.6z"/>
		<path class="st4" d="M2884.9,191.8c-20.3,0-36.3-4.1-48-12.3c-11.7-8.2-17.8-19.6-18.2-34.1h26.5c0.6,7.7,4.5,13.8,11.6,18.2
			c7.1,4.3,16.5,6.5,28.3,6.5c23.2,0,34.8-6.2,34.8-18.6c0-5.7-2.6-9.7-7.6-12.1c-5.1-2.4-15-4.5-29.7-6.3
			c-21.9-2.7-37.4-7-46.4-13.1c-9-6.1-13.5-15.2-13.5-27.5c0-12.8,5.3-22.9,15.9-30.4s25-11.1,43.2-11.1c18.9,0,33.8,3.8,44.8,11.3
			s16.8,18.1,17.5,31.7h-26.5c-1-6.8-4.7-12.1-10.9-15.8c-6.2-3.7-14.6-5.5-25.3-5.5c-21.3,0-32,5.9-32,17.8c0,5.7,2.6,9.7,7.7,12.1
			c5.2,2.4,15.1,4.4,29.8,6.2c21.4,2.4,36.8,6.6,46,12.9c9.2,6.2,13.8,15.4,13.8,27.5c0,13.1-5.6,23.5-16.8,31.1
			C2918.7,187.9,2903.7,191.8,2884.9,191.8z"/>
		<path class="st4" d="M1867.2,357.8V219.5h107.9v23.3h-81.3v34h67v22.4h-67v35.3h84.2v23.3L1867.2,357.8L1867.2,357.8z"/>
		<path class="st4" d="M1979.8,357.8l55.3-70.9l-52.4-67.4h33.2l36.5,47.4l36.8-47.4h31.8l-52.4,67l55.3,71.3h-33.2l-39.8-51.2
			l-39.6,51.2L1979.8,357.8L1979.8,357.8z"/>
		<path class="st4" d="M2177.1,357.8v-115h-51.3v-23.3h129.5v23.3h-51.3v115H2177.1z"/>
		<path class="st4" d="M2316.3,357.8V219.5h69.6c16.2,0,29,4,38.5,12.1c9.4,8.1,14.2,19,14.2,32.9c0,14-4.7,25-14.2,33.1
			c-9.4,8.1-22.3,12.1-38.5,12.1h-42.9v48L2316.3,357.8L2316.3,357.8z M2342.9,287.2h42.1c8.2,0,14.6-2,19.2-6.2c4.7-4,7-9.7,7-16.6
			c0-6.8-2.3-12.3-7-16.3c-4.7-4-11.1-6.1-19.2-6.1h-42.1V287.2z"/>
		<path class="st4" d="M2449.9,357.8V219.5h69.9c16.2,0,29.1,4,38.6,12.1c9.5,8.1,14.3,19,14.3,32.9c0,20.7-10.7,34.1-32,40.3
			l34.8,53h-31.2l-31.2-48h-36.3v48L2449.9,357.8L2449.9,357.8z M2476.6,287.2h42.5c8.2,0,14.6-2,19.2-6.2c4.7-4,7-9.7,7-16.6
			c0-7-2.3-12.4-7-16.4c-4.7-4-11.1-5.9-19.2-5.9h-42.5V287.2z"/>
		<path class="st4" d="M2659.8,359c-23.7,0-43.1-6.5-57.9-19.6c-14.9-13.1-22.4-30-22.4-50.8s7.5-37.7,22.4-50.8
			c14.9-13.1,34.2-19.6,57.9-19.6c23.8,0,43.3,6.5,58.1,19.6c14.9,13.1,22.4,30,22.4,50.8s-7.5,37.7-22.4,50.8
			C2703,352.5,2683.6,359,2659.8,359z M2659.8,336.1c16.2,0,29.1-4.3,38.7-12.9s14.4-20.1,14.4-34.6c0-14.5-4.8-26-14.4-34.6
			c-9.7-8.6-22.5-12.9-38.7-12.9c-16.1,0-28.9,4.3-38.6,13c-9.7,8.7-14.4,20.2-14.4,34.5c0,14.4,4.8,25.9,14.4,34.5
			C2630.9,331.8,2643.7,336.1,2659.8,336.1z"/>
	</g>
</g>
<g>
	<g>
		<g>
			<path class="st5" d="M678.2,63.4h2.1c0,2.3,2,3.6,5.4,3.6c3.3,0,5.2-1.2,5.2-3.2c0-2-1.7-3-4.9-3h-2.2v-1.9h2
				c2.7,0,4.5-1.1,4.5-3c0-1.8-1.6-2.9-4.7-2.9s-4.7,1.1-4.9,3.3h-2.1c0.1-3.2,2.8-5.2,7-5.2c4.3,0,6.8,1.7,6.8,4.6
				c0,2.1-1.1,3.4-3.2,3.9c2.3,0.4,3.8,1.9,3.8,4.1c0,3.2-2.8,5.2-7.4,5.2C680.9,68.9,678.2,66.9,678.2,63.4z"/>
			<path class="st5" d="M694.5,67.5c0-0.8,0.6-1.4,1.4-1.4c0.8,0,1.4,0.6,1.4,1.4s-0.6,1.4-1.4,1.4S694.5,68.3,694.5,67.5z"/>
			<path class="st5" d="M698.1,60.4v-0.8c0-5.4,2.8-8.5,7.8-8.5c4.9,0,7.8,3.1,7.8,8.5v0.8c0,5.5-2.7,8.5-7.8,8.5
				S698.1,65.9,698.1,60.4z M711.6,60.3v-0.7c0-4.4-1.9-6.6-5.7-6.6s-5.7,2.2-5.7,6.6v0.7c0,4.4,1.9,6.6,5.7,6.6
				C709.7,67,711.6,64.8,711.6,60.3z"/>
			<path class="st5" d="M719.8,56.2c-0.3,0.3-0.8,0.3-1.4,0.3h-3.5v-1.9h3.5c0.9,0,1.4-0.6,1.4-1.5v-1.9h2v17.5h-2.1L719.8,56.2
				L719.8,56.2z"/>
			<path class="st4" d="M745.4,53.2h-7v-2h16.1v2h-7v15.5h-2.2V53.2H745.4z"/>
			<path class="st4" d="M756.8,51.2h2.1v14.2l11.8-14.2h2v17.5h-2.1V54.6l-11.8,14.2h-2V51.2z"/>
			<path class="st4" d="M776.1,51.2h15.6v17.5h-2.2V53.2h-11.3v15.5H776V51.2H776.1z"/>
			<path class="st4" d="M794.3,60c0-5.3,4-8.9,9.9-8.9s9.9,3.6,9.9,8.9s-4,8.9-9.9,8.9S794.3,65.3,794.3,60z M811.9,60
				c0-4.2-3-6.9-7.7-6.9s-7.7,2.7-7.7,6.9s3,6.9,7.7,6.9S811.9,64.2,811.9,60z"/>
			<path class="st4" d="M816.7,51.2h12.8v2h-10.6v15.5h-2.2V51.2z"/>
			<path class="st4" d="M831.7,51.2h8.5c3.8,0,6.2,2.1,6.2,5.4S844,62,840.2,62h-6.4v6.7h-2.2V51.2H831.7z M840.3,60
				c2.4,0,4-1.3,4-3.4s-1.5-3.4-4-3.4h-6.4V60H840.3z"/>
			<path class="st4" d="M853.2,51.2h2.5l8,17.5h-2.4l-2.2-4.7h-9.6l-2.1,4.7h-2.3L853.2,51.2z M858.3,62l-3.9-8.7l-3.9,8.7H858.3z"
				/>
			<path class="st4" d="M874.5,67.4H874c-6.3,0-10.2-2.8-10.2-7.4s3.8-7.4,10.2-7.4h0.5v-1.4h2.1v1.4h0.5c6.3,0,10.2,2.8,10.2,7.4
				s-3.8,7.4-10.2,7.4h-0.5v1.4h-2.1V67.4z M874.5,65.4V54.5H874c-5,0-8,2-8,5.4s3,5.4,8,5.4L874.5,65.4L874.5,65.4z M877,65.4
				c5,0,8-2,8-5.4s-2.9-5.4-8-5.4h-0.5v10.9L877,65.4L877,65.4z"/>
			<path class="st4" d="M889.8,51.2h2.1v14.2l11.8-14.2h2v17.5h-2.1V54.6l-11.8,14.2h-2V51.2z"/>
			<path class="st4" d="M909,51.2h2.2v7.6h4.1l6.9-7.6h2.7l-7.7,8.5l8.2,9h-2.9l-7.2-7.9h-4.1v7.9H909V51.2z"/>
			<path class="st4" d="M934.5,51.2h2.5l8,17.5h-2.4l-2.1-4.7h-9.6l-2.1,4.7h-2.3L934.5,51.2z M939.6,62l-3.9-8.7l-3.9,8.7H939.6z"
				/>
		</g>
	</g>
	<g>
		<g>
			<path class="st4" d="M1084.1,51.2h2.2v15.5h8.8V51.2h2.2v15.5h8.8V51.2h2.2v17.5h-24.2V51.2z"/>
			<path class="st4" d="M1111.6,51.2h8.5c3.8,0,6.2,2.1,6.2,5.4s-2.4,5.4-6.2,5.4h-6.4v6.7h-2.2L1111.6,51.2L1111.6,51.2z
				 M1120.1,60c2.4,0,4-1.3,4-3.4s-1.5-3.4-4-3.4h-6.4V60H1120.1z"/>
			<path class="st4" d="M1128.6,51.2h2.1v14.2l11.8-14.2h2v17.5h-2.1V54.6l-11.8,14.2h-2V51.2z"/>
			<path class="st4" d="M1157.8,67.4h-0.5c-6.3,0-10.2-2.8-10.2-7.4s3.8-7.4,10.2-7.4h0.5v-1.4h2.1v1.4h0.5c6.3,0,10.2,2.8,10.2,7.4
				s-3.8,7.4-10.2,7.4h-0.5v1.4h-2.1V67.4z M1157.8,65.4V54.5h-0.5c-5,0-8,2-8,5.4s2.9,5.4,8,5.4L1157.8,65.4L1157.8,65.4z
				 M1160.4,65.4c5,0,8-2,8-5.4s-2.9-5.4-8-5.4h-0.5v10.9L1160.4,65.4L1160.4,65.4z"/>
			<path class="st4" d="M1177.8,53.2h-7v-2h16.1v2h-7v15.5h-2.2L1177.8,53.2L1177.8,53.2z"/>
			<path class="st4" d="M1195.1,66.7h1.6c1.2-1,1.8-2.7,1.8-7.8v-7.7h14.3v15.5h1.8v5.6h-2.2v-3.6h-15.3v3.6h-2.2v-5.6H1195.1z
				 M1210.8,53.1h-10.1v6.1c0,4.1-0.4,6.1-1.4,7.5h11.5V53.1z"/>
			<path class="st4" d="M1216.1,66.7h0.5c2.4,0,3.5-1.2,3.5-6.9v-8.6h14.1v17.5h-2.2V53.2h-9.9V60c0,6.7-1.7,8.7-5.3,8.7h-0.7V66.7z
				"/>
			<path class="st4" d="M1242.2,61.8c-3.2-0.5-5-2.3-5-5.2c0-3.3,2.4-5.4,6.2-5.4h8.8v17.5h-2.2V62h-5.3l-5,6.7h-2.7L1242.2,61.8z
				 M1250,60v-6.8h-6.6c-2.5,0-4,1.3-4,3.4c0,2.1,1.5,3.4,4,3.4C1243.4,60,1250,60,1250,60z"/>
			<path class="st4" d="M1261.8,63.5h2.2c0.1,2.2,2.1,3.4,5.7,3.4c3.3,0,5.2-1,5.2-3.1c0-2-1.7-3-4.9-3h-3.1v-1.9h3
				c2.8,0,4.6-1.1,4.6-3c0-1.8-1.6-2.8-4.8-2.8c-3.3,0-5.2,1-5.4,3.2h-2.2c0.1-3.2,3.2-5.2,7.7-5.2c4.4,0,7,1.7,7,4.6
				c0,2.1-1.2,3.4-3.3,3.9c2.3,0.4,3.8,1.9,3.8,4.1c0,3.2-2.9,5.2-7.5,5.2C1264.7,68.9,1261.9,66.9,1261.8,63.5z"/>
			<path class="st4" d="M1286.1,51.2h2.5l8,17.5h-2.4l-2.1-4.7h-9.6l-2.1,4.7h-2.3L1286.1,51.2z M1291.3,62l-3.9-8.7l-3.9,8.7
				H1291.3z"/>
			<path class="st4" d="M1298.7,51.2h12.8v2h-10.6v15.5h-2.2L1298.7,51.2L1298.7,51.2z"/>
			<path class="st4" d="M1311.7,60c0-5.3,4-8.9,9.9-8.9s9.9,3.6,9.9,8.9s-4,8.9-9.9,8.9S1311.7,65.3,1311.7,60z M1329.4,60
				c0-4.2-3-6.9-7.7-6.9c-4.6,0-7.7,2.7-7.7,6.9s3,6.9,7.7,6.9C1326.3,66.9,1329.4,64.2,1329.4,60z"/>
			<path class="st4" d="M1331.6,66.7h0.5c2.4,0,3.5-1.2,3.5-6.9v-8.6h14.1v17.5h-2.2V53.2h-9.9V60c0,6.7-1.7,8.7-5.3,8.7h-0.8v-2
				H1331.6z"/>
			<path class="st4" d="M1352.3,60c0-5.3,4-8.9,9.9-8.9s9.9,3.6,9.9,8.9s-4,8.9-9.9,8.9S1352.3,65.3,1352.3,60z M1370,60
				c0-4.2-3-6.9-7.7-6.9c-4.6,0-7.7,2.7-7.7,6.9s3,6.9,7.7,6.9C1366.9,66.9,1370,64.2,1370,60z"/>
			<path class="st4" d="M1374.8,51.2h8c3.9,0,6.1,1.7,6.1,4.6c0,1.9-0.9,3.1-2.8,3.8c2.4,0.5,3.7,1.8,3.7,4.1c0,3.2-2.4,5-6.9,5
				h-8.1L1374.8,51.2L1374.8,51.2z M1382.8,58.8c2.5,0,3.8-1,3.8-2.8s-1.3-2.8-3.8-2.8h-5.9v5.6H1382.8z M1382.8,66.8
				c3.2,0,4.7-1,4.7-3c0-2-1.5-3-4.7-3h-5.9v6H1382.8z"/>
			<path class="st4" d="M1392.4,51.2h2.2v7.6h4.1l6.9-7.6h2.7l-7.7,8.5l8.2,9h-2.9l-7.2-7.9h-4.1v7.9h-2.2V51.2z"/>
			<path class="st4" d="M1408.8,60c0-5.3,4-8.9,9.9-8.9s9.9,3.6,9.9,8.9s-4,8.9-9.9,8.9S1408.8,65.3,1408.8,60z M1426.4,60
				c0-4.2-3-6.9-7.7-6.9s-7.7,2.7-7.7,6.9s3,6.9,7.7,6.9S1426.4,64.2,1426.4,60z"/>
			<path class="st4" d="M1431.2,51.2h8c3.9,0,6.1,1.7,6.1,4.6c0,1.9-0.9,3.1-2.8,3.8c2.4,0.5,3.7,1.8,3.7,4.1c0,3.2-2.4,5-6.9,5
				h-8.1L1431.2,51.2L1431.2,51.2z M1439.3,58.8c2.5,0,3.8-1,3.8-2.8s-1.3-2.8-3.8-2.8h-5.9v5.6H1439.3z M1439.3,66.8
				c3.2,0,4.7-1,4.7-3c0-2-1.5-3-4.7-3h-5.9v6H1439.3z"/>
			<path class="st4" d="M1084.1,77.2h2.1v14.2l11.8-14.2h2v17.5h-2.1V80.6l-11.8,14.2h-2V77.2z"/>
			<path class="st4" d="M1110.5,77.2h8c3.9,0,6.1,1.7,6.1,4.6c0,1.9-0.9,3.1-2.8,3.8c2.4,0.5,3.7,1.8,3.7,4.1c0,3.2-2.4,5-6.9,5
				h-8.1L1110.5,77.2L1110.5,77.2z M1118.5,84.8c2.5,0,3.8-1,3.8-2.8s-1.3-2.8-3.8-2.8h-5.9v5.6H1118.5z M1118.5,92.8
				c3.2,0,4.7-1,4.7-3s-1.5-3-4.7-3h-5.9v6H1118.5z"/>
			<path class="st4" d="M1128.1,77.2h2.2v6.6h6.1c3.9,0,6.2,2,6.2,5.4c0,3.4-2.3,5.4-6.2,5.4h-8.3L1128.1,77.2L1128.1,77.2z
				 M1136.2,92.7c2.7,0,4.1-1.2,4.1-3.4s-1.5-3.4-4.2-3.4h-5.9v6.9L1136.2,92.7L1136.2,92.7z M1144.9,77.2h2.2v17.5h-2.2V77.2z"/>
			<path class="st4" d="M1150.3,77.2h8.5c3.8,0,6.2,2.1,6.2,5.4c0,3.3-2.4,5.4-6.2,5.4h-6.4v6.7h-2.2L1150.3,77.2L1150.3,77.2z
				 M1158.9,86c2.4,0,4-1.3,4-3.4s-1.5-3.4-4-3.4h-6.4V86H1158.9z"/>
			<path class="st4" d="M1171.7,77.2h2.5l8,17.5h-2.4l-2.2-4.7h-9.6l-2.1,4.7h-2.3L1171.7,77.2z M1176.9,88l-3.9-8.7l-4,8.7H1176.9z
				"/>
			<path class="st4" d="M1183,89.5h2.2c0.1,2.2,2.1,3.4,5.7,3.4c3.3,0,5.2-1,5.2-3.1c0-2-1.7-3-4.9-3h-3.1v-1.9h3
				c2.8,0,4.6-1.1,4.6-3c0-1.8-1.7-2.8-4.8-2.8c-3.3,0-5.2,1-5.4,3.2h-2.2c0.1-3.2,3.2-5.2,7.7-5.2c4.4,0,7,1.7,7,4.6
				c0,2.1-1.2,3.4-3.3,3.9c2.3,0.4,3.8,1.9,3.8,4.1c0,3.2-2.9,5.2-7.5,5.2C1186,94.9,1183.1,92.9,1183,89.5z"/>
			<path class="st4" d="M1201.2,77.2h2.1v14.2l11.8-14.2h2v17.5h-2.2V80.6l-11.8,14.2h-2L1201.2,77.2L1201.2,77.2z"/>
			<path class="st4" d="M1226.4,79.2h-7v-2h16.1v2h-7v15.5h-2.2L1226.4,79.2L1226.4,79.2z"/>
			<path class="st4" d="M1237.8,77.2h13.2v2h-11v5.6h9.2v2h-9.2v5.9h11.4v2h-13.6V77.2z"/>
			<path class="st4" d="M1252.7,92.7h0.5c2.4,0,3.5-1.2,3.5-6.9v-8.6h14.1v17.5h-2.2V79.2h-9.9V86c0,6.7-1.7,8.7-5.3,8.7h-0.8v-2
				H1252.7z"/>
			<path class="st4" d="M1274.1,77.2h2.2v6.6h6.4c3.9,0,6.2,2,6.2,5.4c0,3.4-2.3,5.4-6.2,5.4h-8.6V77.2z M1282.5,92.7
				c2.7,0,4.1-1.2,4.1-3.4s-1.5-3.4-4.2-3.4h-6.2v6.9L1282.5,92.7L1282.5,92.7z"/>
			<path class="st4" d="M1291.3,77.2h2.2v7.6h11.4v-7.6h2.2v17.5h-2.2v-7.9h-11.4v7.9h-2.2V77.2z"/>
			<path class="st4" d="M1309.6,86c0-5.3,4-8.9,9.9-8.9s9.9,3.6,9.9,8.9s-4,8.9-9.9,8.9S1309.6,91.3,1309.6,86z M1327.3,86
				c0-4.2-3-6.9-7.7-6.9c-4.6,0-7.7,2.7-7.7,6.9s3,6.9,7.7,6.9C1324.2,92.9,1327.3,90.2,1327.3,86z"/>
			<path class="st4" d="M1332.1,77.2h12.8v2h-10.6v15.5h-2.2L1332.1,77.2L1332.1,77.2z"/>
			<path class="st4" d="M1345.1,86c0-5.3,4-8.9,9.9-8.9s9.9,3.6,9.9,8.9s-4,8.9-9.9,8.9S1345.1,91.3,1345.1,86z M1362.8,86
				c0-4.2-3-6.9-7.7-6.9c-4.6,0-7.7,2.7-7.7,6.9s3,6.9,7.7,6.9C1359.7,92.9,1362.8,90.2,1362.8,86z"/>
			<path class="st4" d="M1380.7,79.2h-7v-2h16.1v2h-7v15.5h-2.2L1380.7,79.2L1380.7,79.2z"/>
			<path class="st4" d="M1392.1,77.2h13.2v2h-11v5.6h9.2v2h-9.2v5.9h11.4v2h-13.6V77.2z"/>
			<path class="st4" d="M1408,77.2h2.2v7.6h4.1l6.9-7.6h2.7l-7.7,8.5l8.2,9h-2.9l-7.2-7.9h-4.1v7.9h-2.2V77.2z"/>
			<path class="st4" d="M1424.3,86c0-5.3,3.9-8.9,9.9-8.9c4.6,0,7.8,2.1,8.7,5.9h-2.3c-0.9-2.5-3.1-3.9-6.5-3.9
				c-4.6,0-7.6,2.6-7.6,6.9s2.9,6.9,7.5,6.9c3.5,0,5.7-1.3,6.5-3.9h2.3c-0.9,3.7-4.1,5.9-8.8,5.9C1428.1,94.9,1424.3,91.4,1424.3,86
				z"/>
			<path class="st4" d="M1450.6,79.2h-7v-2h16.1v2h-7v15.5h-2.2L1450.6,79.2L1450.6,79.2z"/>
			<path class="st4" d="M1465.5,77.2h2.5l8,17.5h-2.4l-2.2-4.7h-9.6l-2.1,4.7h-2.3L1465.5,77.2z M1470.6,88l-3.9-8.7l-3.9,8.7
				H1470.6z"/>
		</g>
	</g>
</g>
<g>
	<g>
		<g>
			<path class="st4" d="M63.2,360.5h32.4c14.5,0,23.7,7.8,23.7,20.1s-9.2,20.1-23.7,20.1h-27v28.8h-5.3V360.5z M95.5,395.8
				c11.1,0,18.3-5.9,18.3-15.2c0-9.4-7.1-15.2-18.3-15.2h-27v30.4H95.5z"/>
			<path class="st4" d="M146.3,360.5h6.2l32.2,69.1h-5.9l-9.8-21.1h-39.4l-9.8,21.1h-5.7L146.3,360.5z M166.8,403.5l-17.5-37.7
				l-17.4,37.7H166.8z"/>
			<path class="st4" d="M185.8,395c0-21.1,15.2-35.1,38.2-35.1c17.5,0,29.4,7.9,33.2,21.8h-5.6c-3.9-11-13.5-16.9-27.9-16.9
				c-19.7,0-32.5,11.7-32.5,30.2c0,18.4,12.6,30.2,32.3,30.2c14.7,0,24.2-5.7,27.9-17h5.6c-3.8,14.1-15.7,21.9-33.4,21.9
				C200.7,430.2,185.8,416.4,185.8,395z"/>
			<path class="st4" d="M288.6,365.5h-28.8v-4.9h62.9v4.9h-28.8v64.1h-5.3V365.5z"/>
			<path class="st4" d="M349.6,400.4c-14.3-0.9-22.2-8.4-22.2-19.7c0-12.6,9.5-20.1,24.3-20.1h32.8v69.1H379v-28.8h-23.4l-22.3,28.8
				h-6.5L349.6,400.4z M379,395.8v-30.4h-27.4c-11.4,0-18.8,5.5-18.8,15.2c0,9.7,7.4,15.2,18.5,15.2H379z"/>
			<path class="st4" d="M398,360.5h5.3v31.4h49.2v-31.4h5.3v69.1h-5.3v-32.8h-49.2v32.8H398V360.5z"/>
			<path class="st4" d="M474.3,424.6h6.4c7.8,0,10.6-1.5,13.9-7.7l3.4-5.9l-32.4-50.5h6.4l28.9,45.6l25.2-45.6h6l-32.6,58
				c-4.8,8.6-8.9,11-18.2,11h-7.1V424.6z"/>
			<path class="st4" d="M565.1,365.5h-28.8v-4.9h62.9v4.9h-28.8v64.1h-5.3V365.5z"/>
			<path class="st4" d="M608.3,360.5h5.3v27.6h25.9c14.9,0,23.8,7.7,23.8,20.7s-9,20.7-23.9,20.7h-31.2V360.5z M639.1,424.6
				c12.1,0,18.7-5.6,18.7-15.8c0-10.2-6.7-15.8-18.7-15.8h-25.5v31.6H639.1z M672.9,360.5h5.3v69.1h-5.3V360.5z"/>
			<path class="st4" d="M691.8,360.5h5.2v61l50.4-61h4.9v69.1h-5.2v-61l-50.4,61h-4.9V360.5z M706.4,341.2h4.2
				c0,5.5,3.5,8.8,11.3,8.8c8.1,0,11.5-3.3,11.5-8.8h4.3c-0.1,7.9-5.5,12.5-15.9,12.5C711.8,353.7,706.5,349,706.4,341.2z"/>
			<path class="st4" d="M63.2,445.5H93c15.2,0,23.7,6.3,23.7,17.8c0,8.2-4.4,13.3-13.4,15.6c11.5,1.7,17.2,7.2,17.2,16.5
				c0,12.6-9.3,19.2-27.2,19.2h-30V445.5z M93.2,476.9c11.8,0,18.2-4.6,18.2-13.3c0-8.6-6.2-13.2-18.2-13.2H68.5v26.5H93.2z
				 M93.2,509.7c14.7,0,21.8-4.7,21.8-14.2c0-9.3-7.2-13.8-21.8-13.8H68.5v28H93.2z"/>
			<path class="st4" d="M159.6,445.5h6.4l33.2,62.6l33.3-62.6h6.3v69.1h-5.3v-60.1l-32,60.1h-4.7l-32-60.1v60.1h-5.3V445.5z"/>
			<path class="st4" d="M252.4,445.5h50.4v4.9h-45.1v26.3h38v4.9h-38v27.9h46.8v4.9h-52.1V445.5z"/>
			<path class="st4" d="M314.1,445.5h32.4c14.5,0,23.7,7.8,23.7,20.1s-9.2,20.1-23.7,20.1h-27v28.8h-5.3V445.5z M346.5,480.8
				c11.1,0,18.3-5.9,18.3-15.2c0-9.4-7.1-15.2-18.3-15.2h-27v30.4H346.5z"/>
			<path class="st4" d="M380,509.6h6.4c7.8,0,10.6-1.5,13.9-7.7l3.4-5.9l-32.4-50.5h6.4l28.9,45.6l25.2-45.6h6l-32.6,58
				c-4.8,8.6-8.9,11-18.2,11H380V509.6z"/>
		</g>
	</g>
	<g>
		<g>
			<path class="st4" d="M63.2,285.8h1.4v16.9h10.6v1.3h-12V285.8z"/>
			<path class="st4" d="M77.6,285.8H79V304h-1.4V285.8z"/>
			<path class="st4" d="M81.9,294.9c0-5.6,4-9.3,10-9.3c4.7,0,7.9,2.1,8.8,5.7h-1.5c-1-2.9-3.5-4.4-7.4-4.4c-5.2,0-8.5,3.1-8.5,8
				c0,4.8,3.3,8,8.3,8c4.8,0,8-2.5,8-6.3v-0.8h-7.3v-1.3h8.7v9.5h-1.2l-0.1-4c-1.1,2.6-4.2,4.2-8.1,4.2
				C85.9,304.1,81.9,300.4,81.9,294.9z"/>
			<path class="st4" d="M104.5,285.8h1.4v8.3h13v-8.3h1.4V304h-1.4v-8.6h-13v8.6h-1.4V285.8z"/>
			<path class="st4" d="M130.3,287.1h-7.6v-1.3h16.6v1.3h-7.6V304h-1.4V287.1z"/>
			<path class="st4" d="M148,298.7h1.4c0.1,2.7,2.3,4.2,6.2,4.2c3.8,0,6.1-1.5,6.1-4c0-2.4-1.9-3.6-5.9-3.6h-2.1V294h2
				c3.3,0,5.4-1.4,5.4-3.7c0-2.2-2-3.5-5.4-3.5c-3.5,0-5.6,1.4-5.8,3.9h-1.4c0.1-3.2,2.9-5.1,7.2-5.1c4.2,0,6.8,1.7,6.8,4.7
				c0,2.3-1.4,3.8-4,4.2c2.9,0.3,4.6,1.8,4.6,4.3c0,3.2-2.9,5.3-7.5,5.3C150.8,304.1,148.1,302.1,148,298.7z"/>
			<path class="st4" d="M165.5,295.3v-0.8c0-5.6,2.8-8.8,7.8-8.8c4.9,0,7.7,3.2,7.7,8.8v0.8c0,5.7-2.8,8.8-7.7,8.8
				C168.2,304.1,165.5,301,165.5,295.3z M179.6,295.2v-0.7c0-5-2.2-7.6-6.4-7.6c-4.2,0-6.4,2.7-6.4,7.6v0.7c0,5,2.2,7.6,6.4,7.6
				C177.4,302.9,179.6,300.2,179.6,295.2z"/>
			<path class="st4" d="M183.5,295.3v-0.8c0-5.6,2.8-8.8,7.8-8.8c4.9,0,7.7,3.2,7.7,8.8v0.8c0,5.7-2.8,8.8-7.7,8.8
				C186.2,304.1,183.5,301,183.5,295.3z M197.6,295.2v-0.7c0-5-2.2-7.6-6.4-7.6c-4.2,0-6.4,2.7-6.4,7.6v0.7c0,5,2.2,7.6,6.4,7.6
				C195.4,302.9,197.6,300.2,197.6,295.2z"/>
		</g>
	</g>
</g>
<g>
	<g>
		<g>
			<path class="st4" d="M71.9,1486.2c-2.7,0-4.8-0.5-6.3-1.6c-1.5-1.1-2.3-2.6-2.4-4.5h3.5c0.1,1,0.6,1.8,1.5,2.4
				c0.9,0.6,2.2,0.9,3.7,0.9c3.1,0,4.6-0.8,4.6-2.4c0-0.7-0.3-1.3-1-1.6c-0.7-0.3-2-0.6-3.9-0.8c-2.9-0.3-4.9-0.9-6.1-1.7
				c-1.2-0.8-1.8-2-1.8-3.6c0-1.7,0.7-3,2.1-4c1.4-1,3.3-1.5,5.7-1.5c2.5,0,4.4,0.5,5.9,1.5c1.4,1,2.2,2.4,2.3,4.2h-3.5
				c-0.1-0.9-0.6-1.6-1.4-2.1c-0.8-0.5-1.9-0.7-3.3-0.7c-2.8,0-4.2,0.8-4.2,2.3c0,0.7,0.3,1.3,1,1.6c0.7,0.3,2,0.6,3.9,0.8
				c2.8,0.3,4.8,0.9,6.1,1.7c1.2,0.8,1.8,2,1.8,3.6c0,1.7-0.7,3.1-2.2,4.1C76.3,1485.7,74.4,1486.2,71.9,1486.2z"/>
			<path class="st4" d="M82.4,1486v-18.2h14.2v3.1H85.9v4.5h8.8v2.9h-8.8v4.7H97v3.1H82.4z"/>
			<path class="st4" d="M99.2,1486v-18.2h4.4l7.1,14l7-14h4.4v18.2h-3.5v-12.8l-6.6,12.8h-2.9l-6.6-12.8v12.8H99.2z"/>
			<path class="st4" d="M125.2,1486v-18.2h3.5v18.2H125.2z"/>
			<path class="st4" d="M131.8,1486v-18.2h8.7c2.2,0,3.9,0.4,5.1,1.2c1.2,0.8,1.8,2,1.8,3.6c0,2.1-1.1,3.4-3.3,4
				c2.7,0.4,4.1,1.8,4.1,4.2c0,1.7-0.6,3-1.9,3.9c-1.3,0.9-3.2,1.3-5.7,1.3H131.8z M135.3,1475.4h5.4c1,0,1.7-0.2,2.3-0.6
				c0.5-0.4,0.8-1,0.8-1.8s-0.3-1.4-0.8-1.8c-0.5-0.4-1.3-0.6-2.3-0.6h-5.4V1475.4z M135.3,1483.2h5.5c2.5,0,3.7-0.8,3.7-2.5
				s-1.2-2.5-3.7-2.5h-5.5V1483.2z"/>
			<path class="st4" d="M160.3,1486.2c-3.1,0-5.7-0.9-7.6-2.6c-2-1.7-2.9-3.9-2.9-6.7c0-2.7,1-5,2.9-6.7c2-1.7,4.5-2.6,7.6-2.6
				c3.1,0,5.7,0.9,7.6,2.6c2,1.7,2.9,3.9,2.9,6.7c0,2.7-1,5-2.9,6.7C166,1485.3,163.5,1486.2,160.3,1486.2z M160.3,1483.1
				c2.1,0,3.8-0.6,5.1-1.7s1.9-2.6,1.9-4.5c0-1.9-0.6-3.4-1.9-4.6c-1.3-1.1-3-1.7-5.1-1.7c-2.1,0-3.8,0.6-5.1,1.7
				c-1.3,1.1-1.9,2.6-1.9,4.5c0,1.9,0.6,3.4,1.9,4.5C156.5,1482.6,158.2,1483.1,160.3,1483.1z"/>
			<path class="st4" d="M173.3,1486v-18.2h3.5v15.1h9.4v3.1H173.3z"/>
			<path class="st4" d="M188.4,1486v-18.2h7.6c3.3,0,6,0.8,7.9,2.4c2,1.6,2.9,3.8,2.9,6.7s-1,5.1-2.9,6.7c-2,1.6-4.6,2.4-7.9,2.4
				H188.4z M191.9,1482.9h4.1c2.3,0,4.1-0.5,5.4-1.5c1.3-1,1.9-2.5,1.9-4.5s-0.6-3.5-1.9-4.5c-1.2-1-3.1-1.5-5.4-1.5h-4.1V1482.9z"
				/>
			<path class="st4" d="M223.7,1486.2c-2.5,0-4.4-0.5-5.7-1.5c-1.3-1-2.1-2.3-2.2-4h3.4c0.3,1.8,1.9,2.7,4.6,2.7
				c1.4,0,2.5-0.3,3.3-0.9s1.2-1.5,1.2-2.6c0-1.1-0.4-2-1.1-2.6c-0.8-0.6-1.9-0.9-3.3-0.9c-2.1,0-3.6,0.7-4.4,2.1l-3.3-0.3l0.7-10.3
				h13.6v2.9h-10.6l-0.3,4.3c1.1-0.9,2.7-1.4,4.8-1.4c2.3,0,4.1,0.6,5.4,1.7c1.3,1.1,2,2.6,2,4.5c0,2-0.7,3.6-2.2,4.7
				S226.1,1486.2,223.7,1486.2z"/>
			<path class="st4" d="M241.9,1486.2c-2.7,0-4.8-0.8-6.3-2.3c-1.5-1.6-2.2-3.7-2.2-6.5v-0.8c0-2.8,0.8-4.9,2.3-6.5
				c1.5-1.6,3.6-2.3,6.3-2.3c2.7,0,4.8,0.8,6.3,2.3c1.5,1.6,2.3,3.7,2.3,6.5v0.8c0,2.8-0.8,5-2.2,6.5
				C246.7,1485.4,244.6,1486.2,241.9,1486.2z M241.9,1483.3c3.5,0,5.2-2,5.2-6.1v-0.6c0-4-1.7-6.1-5.2-6.1c-3.4,0-5.2,2-5.2,6.1v0.6
				C236.7,1481.3,238.4,1483.3,241.9,1483.3z"/>
			<path class="st4" d="M261,1486.2c-2.7,0-4.8-0.8-6.3-2.3c-1.5-1.6-2.2-3.7-2.2-6.5v-0.8c0-2.8,0.8-4.9,2.3-6.5
				c1.5-1.6,3.6-2.3,6.3-2.3c2.7,0,4.8,0.8,6.3,2.3c1.5,1.6,2.3,3.7,2.3,6.5v0.8c0,2.8-0.8,5-2.2,6.5
				C265.8,1485.4,263.7,1486.2,261,1486.2z M261,1483.3c3.5,0,5.2-2,5.2-6.1v-0.6c0-4-1.7-6.1-5.2-6.1c-3.4,0-5.2,2-5.2,6.1v0.6
				C255.8,1481.3,257.5,1483.3,261,1483.3z"/>
		</g>
	</g>
	<g>
		<g>
			<path class="st4" d="M74.3,1640.9V1628H82c4.1,0,7.2-0.4,9.1-1.3c1.9-0.8,3.6-2.5,5-5l2.3-3.9l-35.2-53.3h17l25.7,40l21.8-40
				h15.9l-34.3,61.2c-3.2,5.7-6.6,9.6-10.2,11.8c-3.6,2.2-8.5,3.3-14.6,3.3H74.3z"/>
			<path class="st4" d="M174.4,1640.9v-63.5H146v-12.9h71.4v12.9h-28.3v63.5H174.4z"/>
			<path class="st4" d="M225.5,1640.9v-76.3h36.3c9.2,0,16.3,1.7,21.3,5.2c4.9,3.5,7.4,8.5,7.4,14.9c0,8.7-4.6,14.3-13.7,16.7
				c11.5,1.7,17.2,7.6,17.2,17.7c0,7.1-2.7,12.5-8.2,16.2c-5.5,3.7-13.4,5.6-23.9,5.6H225.5z M240.2,1596.4h22.7
				c4.1,0,7.3-0.9,9.5-2.6c2.2-1.7,3.3-4.2,3.3-7.4c0-3.2-1.1-5.7-3.3-7.4c-2.2-1.7-5.4-2.6-9.5-2.6h-22.7V1596.4z M240.2,1629h23.2
				c10.4,0,15.6-3.5,15.6-10.5s-5.2-10.5-15.6-10.5h-23.2V1629z"/>
			<path class="st4" d="M302.9,1640.9v-76.3h59.5v12.9h-44.8v18.8h37v12.3h-37v19.5h46.4v12.9H302.9z"/>
			<path class="st4" d="M372.3,1640.9v-76.3h38.4c8.9,0,16,2.2,21.2,6.7c5.2,4.5,7.8,10.5,7.8,18.2c0,7.7-2.6,13.8-7.8,18.3
				c-5.2,4.5-12.3,6.7-21.2,6.7H387v26.5H372.3z M387,1602h23.2c4.5,0,8-1.1,10.6-3.4c2.6-2.3,3.9-5.3,3.9-9.2c0-3.8-1.3-6.8-3.9-9
				c-2.6-2.2-6.1-3.3-10.6-3.3H387V1602z"/>
			<path class="st4" d="M435.8,1656.5V1628h7.1c2.6-2,4.5-5.3,5.8-9.9c1.2-4.5,1.9-11.7,1.9-21.5v-32.1h66.1v63.5h8.7v28.5H511
				v-15.6h-60.9v15.6H435.8z M501.9,1628v-51.1h-37.5v21.6c0,14.2-1.8,24-5.5,29.5H501.9z"/>
			<path class="st4" d="M532.7,1640.9v-76.3h14.4v54.3l45.5-54.3H606v76.3h-14.4v-54.3l-45.5,54.3H532.7z"/>
			<path class="st4" d="M642.4,1640.9v-63.5h-28.3v-12.9h71.4v12.9h-28.3v63.5H642.4z"/>
			<path class="st4" d="M693.5,1640.9v-76.3h59.5v12.9h-44.8v18.8h37v12.3h-37v19.5h46.4v12.9H693.5z"/>
			<path class="st4" d="M759.4,1640.9V1628h2.3c5,0,8.6-1.8,10.7-5.4c2.1-3.6,3.2-10.4,3.2-20.4v-37.6h65.6v76.3h-14.7v-63.5h-37.1
				v26.1c0,13.7-2.1,23.3-6.2,28.9c-4.1,5.6-10.7,8.4-19.9,8.4H759.4z"/>
			<path class="st4" d="M852.9,1640.9v-76.3h14.7v26.4h24.2c8.9,0,15.9,2.2,21.1,6.7c5.2,4.5,7.8,10.6,7.8,18.3
				c0,7.7-2.6,13.8-7.8,18.3c-5.2,4.5-12.2,6.7-21.1,6.7H852.9z M867.6,1628.4h23.4c4.7,0,8.3-1.1,10.8-3.2c2.5-2.1,3.8-5.2,3.8-9.3
				c0-4-1.3-7.1-3.8-9.2c-2.5-2.1-6.2-3.2-10.9-3.2h-23.3V1628.4z"/>
			<path class="st4" d="M929.2,1640.9v-76.3H944v31.3h42.8v-31.3h14.7v76.3h-14.7v-32.3H944v32.3H929.2z"/>
			<path class="st4" d="M1013.3,1640.9v-76.3h14.7v26.4h23.2c8.9,0,15.9,2.2,21.1,6.7c5.2,4.5,7.8,10.6,7.8,18.3
				c0,7.7-2.6,13.8-7.8,18.3c-5.2,4.5-12.2,6.7-21.1,6.7H1013.3z M1028,1628.4h22.5c4.7,0,8.3-1.1,10.8-3.2c2.5-2.1,3.8-5.2,3.8-9.3
				c0-4-1.3-7.1-3.8-9.2c-2.5-2.1-6.2-3.2-10.9-3.2H1028V1628.4z M1088.8,1640.9v-76.3h14.7v76.3H1088.8z"/>
			<path class="st4" d="M1115.3,1640.9v-76.3h14.4v54.3l45.5-54.3h13.4v76.3h-14.4v-54.3l-45.5,54.3H1115.3z M1151.6,1558.9
				c-13.1,0-19.7-5.2-19.8-15.7h10.4c0,5.2,3.2,7.7,9.7,7.7c6.5,0,9.8-2.6,9.8-7.7h10.6c-0.1,5-1.9,8.9-5.3,11.6
				C1163.5,1557.6,1158.4,1558.9,1151.6,1558.9z"/>
			<path class="st4" d="M109,1746.5c-12.9,0-23.3-3.5-31-10.6c-7.7-7-11.6-16.5-11.6-28.2c0-11.6,4-21,12-28.1
				c8-7.1,18.5-10.7,31.6-10.7c10.5,0,19.2,2.5,26.3,7.4c7,4.9,11.3,11.6,12.6,20h-15c-1.5-4.7-4.3-8.4-8.4-10.9
				c-4.2-2.5-9.4-3.8-15.8-3.8c-8.6,0-15.5,2.4-20.6,7.1c-5.1,4.7-7.6,11.1-7.6,19.1c0,8.1,2.5,14.4,7.5,19.1c5,4.7,11.8,7,20.4,7
				c6.5,0,11.8-1.3,16-3.8c4.2-2.5,7-6.2,8.5-10.9h14.9c-1.4,8.4-5.7,15.1-12.9,20C128.7,1744.1,119.7,1746.5,109,1746.5z"/>
			<path class="st4" d="M157.3,1745.9v-76.3h58.5v12.4H172v17.6h24.1c9.2,0,16.1,2,20.9,5.9c4.8,4,7.2,9.7,7.2,17.3
				c0,7.4-2.4,13.1-7.3,17.1c-4.8,4-11.8,6-20.8,6H157.3z M172,1733.6h23c9.5,0,14.3-3.6,14.3-10.8c0-3.6-1.2-6.3-3.7-8.1
				c-2.4-1.9-6-2.8-10.6-2.8h-23V1733.6z"/>
			<path class="st4" d="M223.4,1745.9l34.2-76.3h17.6l34.1,76.3h-16.2l-7.7-17.6h-38.6l-7.6,17.6H223.4z M251.9,1716.1h28.3
				l-14.3-32.6L251.9,1716.1z"/>
			<path class="st4" d="M311.7,1745.9V1733h2.3c5,0,8.6-1.8,10.7-5.4c2.1-3.6,3.2-10.4,3.2-20.4v-37.6h65.6v76.3h-14.7v-63.5h-37.1
				v26.1c0,13.7-2.1,23.3-6.2,28.9c-4.1,5.6-10.7,8.4-19.9,8.4H311.7z"/>
			<path class="st4" d="M399.7,1745.9l34.2-76.3h17.6l34.1,76.3h-16.2l-7.7-17.6h-38.6l-7.6,17.6H399.7z M428.2,1716.1h28.3
				l-14.3-32.6L428.2,1716.1z"/>
			<path class="st4" d="M491.8,1745.9v-76.3h14.7v31.3h42.8v-31.3h14.7v76.3h-14.7v-32.3h-42.8v32.3H491.8z"/>
			<path class="st4" d="M615.6,1746.5c-12.9,0-23.3-3.5-31-10.6c-7.7-7-11.6-16.5-11.6-28.2c0-11.6,4-21,12-28.1
				c8-7.1,18.5-10.7,31.6-10.7c10.5,0,19.2,2.5,26.3,7.4c7,4.9,11.3,11.6,12.6,20h-15c-1.5-4.7-4.3-8.4-8.4-10.9
				c-4.2-2.5-9.4-3.8-15.8-3.8c-8.6,0-15.5,2.4-20.6,7.1c-5.1,4.7-7.6,11.1-7.6,19.1c0,8.1,2.5,14.4,7.5,19.1c5,4.7,11.8,7,20.4,7
				c6.5,0,11.8-1.3,16-3.8c4.2-2.5,7-6.2,8.5-10.9h14.9c-1.4,8.4-5.7,15.1-12.9,20C635.3,1744.1,626.3,1746.5,615.6,1746.5z"/>
			<path class="st4" d="M663.9,1745.9v-76.3h14.4v54.3l45.5-54.3h13.4v76.3h-14.4v-54.3l-45.5,54.3H663.9z"/>
			<path class="st4" d="M748.9,1745.9v-76.3h38.4c8.9,0,16,2.2,21.2,6.7c5.2,4.5,7.8,10.5,7.8,18.2c0,7.7-2.6,13.8-7.8,18.3
				c-5.2,4.5-12.3,6.7-21.2,6.7h-23.7v26.5H748.9z M763.6,1707h23.2c4.5,0,8-1.1,10.6-3.4c2.6-2.3,3.9-5.3,3.9-9.2
				c0-3.8-1.3-6.8-3.9-9c-2.6-2.2-6.1-3.3-10.6-3.3h-23.2V1707z"/>
			<path class="st4" d="M865.6,1746.5c-13.1,0-23.7-3.6-31.9-10.8s-12.3-16.5-12.3-28c0-11.5,4.1-20.8,12.3-28s18.9-10.8,31.9-10.8
				c13.2,0,23.8,3.6,32.1,10.8c8.2,7.2,12.3,16.5,12.3,28c0,11.5-4.1,20.8-12.3,28C889.4,1742.9,878.7,1746.5,865.6,1746.5z
				 M865.6,1733.9c8.9,0,16.1-2.4,21.4-7.1c5.3-4.7,8-11.1,8-19.1c0-8-2.7-14.4-8-19.1c-5.3-4.7-12.4-7.1-21.4-7.1
				c-8.9,0-16,2.4-21.3,7.1c-5.3,4.8-8,11.1-8,19c0,7.9,2.7,14.3,8,19C849.6,1731.5,856.7,1733.9,865.6,1733.9z"/>
			<path class="st4" d="M918.8,1745.9v-76.3h36.3c9.2,0,16.3,1.7,21.3,5.2c4.9,3.5,7.4,8.5,7.4,14.9c0,8.7-4.6,14.3-13.7,16.7
				c11.5,1.7,17.2,7.6,17.2,17.7c0,7.1-2.7,12.5-8.2,16.2c-5.5,3.7-13.4,5.6-23.9,5.6H918.8z M933.5,1701.4h22.7
				c4.1,0,7.3-0.9,9.5-2.6c2.2-1.7,3.3-4.2,3.3-7.4c0-3.2-1.1-5.7-3.3-7.4c-2.2-1.7-5.4-2.6-9.5-2.6h-22.7V1701.4z M933.5,1734h23.2
				c10.4,0,15.6-3.5,15.6-10.5s-5.2-10.5-15.6-10.5h-23.2V1734z"/>
			<path class="st4" d="M988.4,1745.9l34.2-76.3h17.6l34.1,76.3h-16.2l-7.7-17.6h-38.6l-7.6,17.6H988.4z M1016.9,1716.1h28.3
				l-14.3-32.6L1016.9,1716.1z"/>
			<path class="st4" d="M1080.6,1745.9v-76.3h14.7v31.3h42.8v-31.3h14.7v76.3h-14.7v-32.3h-42.8v32.3H1080.6z"/>
			<path class="st4" d="M1164.6,1745.9v-76.3h14.7v26.4h23.2c8.9,0,15.9,2.2,21.1,6.7c5.2,4.5,7.8,10.6,7.8,18.3
				c0,7.7-2.6,13.8-7.8,18.3c-5.2,4.5-12.2,6.7-21.1,6.7H1164.6z M1179.3,1733.4h22.5c4.7,0,8.3-1.1,10.8-3.2
				c2.5-2.1,3.8-5.2,3.8-9.3c0-4-1.3-7.1-3.8-9.2c-2.5-2.1-6.2-3.2-10.9-3.2h-22.3V1733.4z M1240.2,1745.9v-76.3h14.7v76.3H1240.2z"
				/>
			<path class="st4" d="M1266.7,1745.9v-76.3h14.4v54.3l45.5-54.3h13.4v76.3h-14.4v-54.3l-45.5,54.3H1266.7z M1303,1663.9
				c-13.1,0-19.7-5.2-19.8-15.7h10.4c0,5.2,3.2,7.7,9.7,7.7c6.5,0,9.8-2.6,9.8-7.7h10.6c-0.1,5-1.9,8.9-5.3,11.6
				S1309.7,1663.9,1303,1663.9z"/>
			<path class="st4" d="M109,1851.5c-12.9,0-23.3-3.5-31-10.6c-7.7-7-11.6-16.5-11.6-28.2c0-11.6,4-21,12-28.1
				c8-7.1,18.5-10.7,31.6-10.7c10.5,0,19.2,2.5,26.3,7.4c7,4.9,11.3,11.6,12.6,20h-15c-1.5-4.7-4.3-8.4-8.4-10.9
				c-4.2-2.5-9.4-3.8-15.8-3.8c-8.6,0-15.5,2.4-20.6,7.1c-5.1,4.7-7.6,11.1-7.6,19.1c0,8.1,2.5,14.4,7.5,19.1c5,4.7,11.8,7,20.4,7
				c6.5,0,11.8-1.3,16-3.8c4.2-2.5,7-6.2,8.5-10.9h14.9c-1.4,8.4-5.7,15.1-12.9,20C128.7,1849.1,119.7,1851.5,109,1851.5z"/>
			<path class="st4" d="M178.9,1850.9v-63.5h-28.3v-12.9h71.4v12.9h-28.3v63.5H178.9z"/>
			<path class="st4" d="M210.3,1850.9l34.2-76.3H262l34.1,76.3h-16.2l-7.7-17.6h-38.6l-7.6,17.6H210.3z M238.7,1821.1h28.3
				l-14.3-32.6L238.7,1821.1z"/>
			<path class="st4" d="M302.4,1850.9v-76.3h58.5v12.4h-43.8v17.6h24.1c9.2,0,16.1,2,20.9,5.9c4.8,4,7.2,9.7,7.2,17.3
				c0,7.4-2.4,13.1-7.3,17.1c-4.8,4-11.8,6-20.8,6H302.4z M317.1,1838.6h23c9.5,0,14.3-3.6,14.3-10.8c0-3.6-1.2-6.3-3.7-8.1
				c-2.4-1.9-6-2.8-10.6-2.8h-23V1838.6z"/>
			<path class="st4" d="M377.2,1850.9v-76.3h14.4v54.3l45.5-54.3h13.4v76.3H436v-54.3l-45.5,54.3H377.2z"/>
			<path class="st4" d="M456.6,1850.9V1838h2.3c5,0,8.6-1.8,10.7-5.4c2.1-3.6,3.2-10.4,3.2-20.4v-37.6h65.6v76.3h-14.7v-63.5h-37.1
				v26.1c0,13.7-2.1,23.3-6.2,28.9c-4.1,5.6-10.7,8.4-19.9,8.4H456.6z"/>
			<path class="st4" d="M550.2,1850.9v-76.3h14.7v26.4h24.2c8.9,0,15.9,2.2,21.1,6.7c5.2,4.5,7.8,10.6,7.8,18.3
				c0,7.7-2.6,13.8-7.8,18.3c-5.2,4.5-12.2,6.7-21.1,6.7H550.2z M564.9,1838.3h23.4c4.7,0,8.3-1.1,10.8-3.2c2.5-2.1,3.8-5.2,3.8-9.3
				c0-4-1.3-7.1-3.8-9.2c-2.5-2.1-6.2-3.2-10.9-3.2h-23.3V1838.3z"/>
			<path class="st4" d="M626.5,1850.9v-76.3h14.7v31.3h42.8v-31.3h14.7v76.3h-14.7v-32.3h-42.8v32.3H626.5z"/>
			<path class="st4" d="M710.5,1850.9v-76.3h14.7v26.4h23.2c8.9,0,15.9,2.2,21.1,6.7c5.2,4.5,7.8,10.6,7.8,18.3
				c0,7.7-2.6,13.8-7.8,18.3c-5.2,4.5-12.2,6.7-21.1,6.7H710.5z M725.3,1838.3h22.5c4.7,0,8.3-1.1,10.8-3.2c2.5-2.1,3.8-5.2,3.8-9.3
				c0-4-1.3-7.1-3.8-9.2c-2.5-2.1-6.2-3.2-10.9-3.2h-22.3V1838.3z M786.1,1850.9v-76.3h14.7v76.3H786.1z"/>
			<path class="st4" d="M812.6,1850.9v-76.3H827v54.3l45.5-54.3h13.4v76.3h-14.4v-54.3l-45.5,54.3H812.6z M848.9,1768.9
				c-13.1,0-19.7-5.2-19.8-15.7h10.4c0,5.2,3.2,7.7,9.7,7.7c6.5,0,9.8-2.6,9.8-7.7h10.6c-0.1,5-1.9,8.9-5.3,11.6
				C860.7,1767.5,855.7,1768.9,848.9,1768.9z"/>
		</g>
	</g>
</g>
<g>
	<g>
		<g>
			<path class="st4" d="M2758.1,445.7h8.9c4,0,6.5,2.2,6.5,5.6c0,2.8-1.7,4.7-4.8,5.3l5,7.3h-2.7l-4.7-7h-5.8v7h-2.3V445.7z
				 M2766.9,454.8c2.5,0,4.2-1.4,4.2-3.5c0-2.1-1.6-3.5-4.2-3.5h-6.6v7H2766.9z"/>
			<path class="st4" d="M2776.1,445.7h13.7v2.1h-11.4v5.8h9.6v2.1h-9.6v6.1h11.9v2.1h-14.1V445.7z"/>
			<path class="st4" d="M2791.2,454.8c0-5.6,4.1-9.3,10.3-9.3c4.9,0,8.2,2.3,9.1,6.1h-2.4c-0.9-2.6-3.2-4-6.7-4
				c-4.8,0-7.9,2.8-7.9,7.2c0,4.4,3,7.2,7.8,7.2c4.4,0,7.3-2.1,7.3-5.2v-0.6h-6.8V454h9v9.9h-2l-0.2-2.7c-1.2,1.7-4.2,2.8-7.4,2.8
				C2795.3,464,2791.2,460.3,2791.2,454.8z"/>
			<path class="st4" d="M2814,456.1v-10.4h2.3v10.6c0,3.8,2,5.7,6,5.7c4,0,6-1.9,6-5.7v-10.6h2.3v10.4c0,5.2-2.9,7.9-8.3,7.9
				C2816.8,464,2814,461.3,2814,456.1z"/>
			<path class="st4" d="M2833.7,445.7h2.3v16.1h10.2v2.1h-12.4V445.7z"/>
			<path class="st4" d="M2855.9,445.7h2.7l8.4,18.2h-2.5l-2.2-4.9h-10l-2.2,4.9h-2.4L2855.9,445.7z M2861.3,456.9l-4.1-9l-4.1,9
				H2861.3z"/>
			<path class="st4" d="M2868.9,445.7h8.9c4,0,6.5,2.2,6.5,5.6c0,2.8-1.7,4.7-4.8,5.3l5,7.3h-2.7l-4.7-7h-5.8v7h-2.3V445.7z
				 M2877.8,454.8c2.5,0,4.2-1.4,4.2-3.5c0-2.1-1.6-3.5-4.2-3.5h-6.6v7H2877.8z"/>
			<path class="st4" d="M2904.8,459.4h-11.5v-2.1l11.2-11.7h2.5v11.8h3.6v2h-3.6v4.4h-2.2V459.4z M2904.8,457.4v-9.3l-8.9,9.3
				H2904.8z"/>
			<path class="st4" d="M2911.9,455.2v-0.8c0-5.6,3-8.8,8.1-8.8s8.1,3.2,8.1,8.8v0.8c0,5.7-2.8,8.8-8.1,8.8
				S2911.9,460.9,2911.9,455.2z M2925.9,455.1v-0.7c0-4.6-2-6.9-5.9-6.9s-5.9,2.3-5.9,6.9v0.7c0,4.6,2,6.9,5.9,6.9
				S2925.9,459.7,2925.9,455.1z"/>
			<path class="st4" d="M2930.4,455.2v-0.8c0-5.6,3-8.8,8.1-8.8c5.1,0,8.1,3.2,8.1,8.8v0.8c0,5.7-2.8,8.8-8.1,8.8
				S2930.4,460.9,2930.4,455.2z M2944.4,455.1v-0.7c0-4.6-2-6.9-5.9-6.9s-5.9,2.3-5.9,6.9v0.7c0,4.6,2,6.9,5.9,6.9
				S2944.4,459.7,2944.4,455.1z"/>
		</g>
	</g>
	<g>
		<g>
			<path class="st4" d="M2540.1,544.9v-20.5h8.6v18.8c0,11.8,7,17.3,21,17.3c6.7,0,14.6-1.5,21.6-3.9v-32.2h8.6v69.1h-8.6v-28.6
				c-6.9,2.3-14.8,3.6-21.8,3.6C2550.4,568.4,2540.1,560.5,2540.1,544.9z"/>
			<path class="st4" d="M2611.7,524.4h52v7.9h-43.4v22.1h36.3v7.9h-36.3v23.3h45v7.9h-53.6V524.4z"/>
			<path class="st4" d="M2696.4,532.3h-27.5v-7.9h63.6v7.9h-27.5v61.2h-8.6V532.3z"/>
			<path class="st4" d="M2740.3,524.4h8.6v26h24.2c15.3,0,24.5,8,24.5,21.5c0,13.4-9.3,21.5-24.5,21.5h-32.8V524.4z M2772.4,585.6
				c10.8,0,16.4-4.6,16.4-13.6c0-9-5.7-13.6-16.5-13.6h-23.4v27.2H2772.4z M2806.5,524.4h8.6v69.1h-8.6V524.4z"/>
			<path class="st4" d="M2827,524.4h33.7c15,0,24.5,8.3,24.5,21.2c0,13-9.5,21.3-24.5,21.3h-25.2v26.5h-8.6V524.4z M2860.7,559
				c9.6,0,15.7-5.2,15.7-13.4c0-8.2-6.1-13.3-15.7-13.3h-25.2V559H2860.7z"/>
			<path class="st4" d="M2893,524.4h52v7.9h-43.4v22.1h36.3v7.9h-36.3v23.3h45v7.9H2893V524.4z"/>
			<path class="st4" d="M2418.5,615.4h31.5c15.4,0,24.2,6.6,24.2,18.3c0,7.4-3.5,12.1-11,15c9.6,1.9,14.5,7.3,14.5,16.1
				c0,12.8-9.5,19.7-27.3,19.7h-31.9V615.4z M2450.3,645.4c9.9,0,15.2-3.9,15.2-11.1s-5.2-11.1-15.2-11.1H2427v22.3H2450.3z
				 M2450.3,676.8c12.6,0,18.5-3.8,18.5-11.8s-6-11.8-18.5-11.8H2427v23.7H2450.3z"/>
			<path class="st4" d="M2487.1,615.4h52v7.9h-43.4v22.1h36.3v7.9h-36.3v23.3h45v7.9h-53.6V615.4z"/>
			<path class="st4" d="M2543.4,649.9c0-21.1,15.6-35.1,39.1-35.1c18.3,0,30.8,8.5,34.2,23.2h-9.1c-3.7-10.1-12.3-15.3-25.6-15.3
				c-18.3,0-29.9,10.5-29.9,27.2c0,16.8,11.3,27.2,29.5,27.2c13.7,0,22.4-5.1,25.8-15.3h9.1c-3.5,14.7-16.2,23.2-34.8,23.2
				C2558.5,685.1,2543.4,671.3,2543.4,649.9z"/>
			<path class="st4" d="M2649.1,615.4h10.1l31.8,69.1h-9.5l-8.5-18.6h-38.1l-8.4,18.6h-9.2L2649.1,615.4z M2669.4,658l-15.5-34.2
				l-15.5,34.2H2669.4z"/>
			<path class="st4" d="M2719.9,676.6h6.5c4.6-4.1,7.3-10.6,7.3-30.8v-30.4h56.5v61.2h7.3v22h-8.6v-14.1h-60.5v14.1h-8.6V676.6z
				 M2781.7,622.8h-39.9v24.1c0,16.1-1.7,24.2-5.4,29.7h45.3V622.8z"/>
			<path class="st4" d="M2801.8,676.6h2c9.5,0,13.9-4.7,13.9-27.2v-33.9h55.8v69.1h-8.6v-61.2h-39.2V650c0,26.5-6.6,34.4-21,34.4h-3
				V676.6z"/>
			<path class="st4" d="M2903.6,657c-12.7-1.9-19.9-9.3-19.9-20.4c0-12.9,9.6-21.2,24.6-21.2h34.7v69.1h-8.6v-26.5h-21.1l-19.9,26.5
				h-10.6L2903.6,657z M2934.4,650v-26.7h-26.1c-9.7,0-15.8,5.2-15.8,13.3c0,8.2,6.1,13.4,15.8,13.4H2934.4z"/>
			<path class="st4" d="M2169,706.4h33.7c15,0,24.5,8.3,24.5,21.2c0,13-9.5,21.3-24.5,21.3h-25.2v26.5h-8.6V706.4z M2202.7,741
				c9.6,0,15.7-5.2,15.7-13.4c0-8.2-6.1-13.3-15.7-13.3h-25.2V741H2202.7z"/>
			<path class="st4" d="M2252.5,706.4h10.1l31.8,69.1h-9.5l-8.5-18.6h-38.1l-8.4,18.6h-9.2L2252.5,706.4z M2272.9,749l-15.5-34.2
				l-15.5,34.2H2272.9z"/>
			<path class="st4" d="M2293.6,740.9c0-21.1,15.6-35.1,39.1-35.1c18.3,0,30.8,8.5,34.2,23.2h-9.1c-3.7-10.1-12.3-15.3-25.6-15.3
				c-18.3,0-29.9,10.5-29.9,27.2c0,16.8,11.3,27.2,29.5,27.2c13.7,0,22.4-5.1,25.8-15.3h9.1c-3.5,14.7-16.2,23.2-34.8,23.2
				C2308.7,776.1,2293.6,762.3,2293.6,740.9z"/>
			<path class="st4" d="M2371.8,740.9c0-21.1,15.6-35.1,39.1-35.1c18.3,0,30.8,8.5,34.2,23.2h-9.1c-3.7-10.1-12.3-15.3-25.6-15.3
				c-18.3,0-29.9,10.5-29.9,27.2c0,16.8,11.3,27.2,29.5,27.2c13.7,0,22.4-5.1,25.8-15.3h9.1c-3.5,14.7-16.2,23.2-34.8,23.2
				C2386.9,776.1,2371.8,762.3,2371.8,740.9z"/>
			<path class="st4" d="M2474.5,714.3H2447v-7.9h63.6v7.9h-27.5v61.2h-8.6V714.3z"/>
			<path class="st4" d="M2532.2,706.4h10.1l31.8,69.1h-9.5l-8.5-18.6H2518l-8.4,18.6h-9.2L2532.2,706.4z M2552.5,749l-15.5-34.2
				l-15.5,34.2H2552.5z"/>
			<path class="st4" d="M2580.6,706.4h8.6v30h45.1v-30h8.6v69.1h-8.6v-31.2h-45.1v31.2h-8.6V706.4z"/>
			<path class="st4" d="M2652.1,740.9c0-20.9,15.8-35.1,39.2-35.1c23.4,0,39.2,14.2,39.2,35.1c0,20.9-15.8,35.1-39.2,35.1
				C2667.8,776.1,2652.1,761.9,2652.1,740.9z M2721.6,740.9c0-16.5-12-27.2-30.4-27.2c-18.3,0-30.4,10.8-30.4,27.2
				c0,16.5,12,27.2,30.4,27.2C2709.6,768.2,2721.6,757.4,2721.6,740.9z"/>
			<path class="st4" d="M2739.6,706.4h31.5c15.4,0,24.2,6.6,24.2,18.3c0,7.4-3.5,12.1-11,15c9.6,1.9,14.5,7.3,14.5,16.1
				c0,12.8-9.5,19.7-27.3,19.7h-31.9V706.4z M2771.4,736.4c9.9,0,15.2-3.9,15.2-11.1s-5.2-11.1-15.2-11.1h-23.3v22.3H2771.4z
				 M2771.4,767.8c12.6,0,18.5-3.8,18.5-11.8s-6-11.8-18.5-11.8h-23.3v23.7H2771.4z"/>
			<path class="st4" d="M2808.2,706.4h8.6v30h16.4l27.2-30h10.7l-30.4,33.4l32.4,35.6h-11.3l-28.5-31.2h-16.4v31.2h-8.6V706.4z"/>
			<path class="st4" d="M2879.9,706.4h8.5v55.9l46.7-55.9h7.9v69.1h-8.5v-55.9l-46.7,55.9h-7.9V706.4z"/>
			<path class="st4" d="M2406.6,797.4h10.1l31.8,69.1h-9.5l-8.5-18.6h-38.1l-8.4,18.6h-9.2L2406.6,797.4z M2427,840l-15.5-34.2
				L2396,840H2427z"/>
			<path class="st4" d="M2455.1,797.4h8.6v30h16.4l27.2-30h10.7l-30.4,33.4l32.4,35.6h-11.3l-28.5-31.2h-16.4v31.2h-8.6V797.4z"/>
			<path class="st4" d="M2526.8,797.4h8.6v61.2h44.3v-61.2h8.6v61.2h7.3v22h-8.6v-14.1h-60.2V797.4z"/>
			<path class="st4" d="M2603,797.4h52v7.9h-43.4v22.1h36.3v7.9h-36.3v23.3h45v7.9H2603V797.4z"/>
			<path class="st4" d="M2664.8,797.4h8.6v30h45.1v-30h8.6v69.1h-8.6v-31.2h-45.1v31.2h-8.6V797.4z"/>
			<path class="st4" d="M2762.4,805.3h-27.5v-7.9h63.6v7.9H2771v61.2h-8.6V805.3z"/>
			<path class="st4" d="M2798.6,831.9c0-20.9,15.8-35.1,39.2-35.1c23.4,0,39.2,14.2,39.2,35.1c0,20.9-15.8,35.1-39.2,35.1
				C2814.4,867.1,2798.6,852.9,2798.6,831.9z M2868.2,831.9c0-16.5-12-27.2-30.4-27.2c-18.3,0-30.4,10.8-30.4,27.2
				c0,16.5,12,27.2,30.4,27.2C2856.2,859.2,2868.2,848.4,2868.2,831.9z"/>
			<path class="st4" d="M2886.1,797.4h31.5c15.4,0,24.2,6.6,24.2,18.3c0,7.4-3.5,12.1-11,15c9.6,1.9,14.5,7.3,14.5,16.1
				c0,12.8-9.5,19.7-27.3,19.7h-31.9V797.4z M2918,827.4c9.9,0,15.2-3.9,15.2-11.1s-5.2-11.1-15.2-11.1h-23.3v22.3H2918z
				 M2918,858.8c12.6,0,18.5-3.8,18.5-11.8s-6-11.8-18.5-11.8h-23.3v23.7H2918z"/>
		</g>
	</g>
</g>
</svg>
