<?xml version="1.0" encoding="utf-8"?>
<!-- Generator: Adobe Illustrator 22.0.0, SVG Export Plug-In . SVG Version: 6.00 Build 0)  -->
<svg version="1.1" id="Layer_1" xmlns="http://www.w3.org/2000/svg" xmlns:xlink="http://www.w3.org/1999/xlink" x="0px" y="0px"
	 viewBox="0 0 2303.5 800.8" style="enable-background:new 0 0 2303.5 800.8;" xml:space="preserve">
<style type="text/css">
	.st0{stroke:#606F91;stroke-width:0.7999;stroke-miterlimit:10;}
	.st1{fill:#0F0E13;}
	.st2{opacity:0.45;}
	.st3{fill:#606F91;}
	.st4{fill:none;stroke:#606F91;stroke-width:0.7999;stroke-miterlimit:10;}
	.st5{fill:#FFFFFF;}
	.st6{fill:none;stroke:#606F91;stroke-width:0.7991;stroke-miterlimit:10;}
</style>
<g>
	<rect x="0.4" y="0.4" class="st0" width="1512.8" height="799.9"/>
	<rect x="267.1" y="267.1" class="st1" width="251.8" height="266.6"/>
	<rect x="596.7" y="267.1" class="st1" width="649.8" height="266.6"/>
	<g class="st2">
		<rect x="0.4" y="0.4" class="st3" width="266.6" height="266.6"/>
		<rect x="1246.6" y="0.4" class="st3" width="266.6" height="266.6"/>
		<rect x="0.4" y="533.8" class="st3" width="266.6" height="266.6"/>
		<rect x="1246.6" y="533.8" class="st3" width="266.6" height="266.6"/>
	</g>
	<g>
		<line class="st4" x1="0.4" y1="267.1" x2="1513" y2="267.1"/>
		<line class="st4" x1="0.4" y1="533.7" x2="1513" y2="533.7"/>
		<line class="st4" x1="0.4" y1="322.1" x2="1513" y2="322.1"/>
		<line class="st4" x1="0.4" y1="478.7" x2="1513" y2="478.7"/>
		<line class="st4" x1="267" y1="0.4" x2="267" y2="800.3"/>
		<line class="st4" x1="1246.6" y1="0.4" x2="1246.6" y2="800.3"/>
		<line class="st4" x1="519" y1="0.4" x2="519" y2="800.3"/>
		<line class="st4" x1="596.8" y1="0.4" x2="596.8" y2="800.3"/>
		<line class="st4" x1="767.1" y1="0.4" x2="767.1" y2="800.3"/>
		<line class="st4" x1="934.8" y1="0.4" x2="934.8" y2="800.3"/>
		<line class="st4" x1="947.6" y1="0.4" x2="947.6" y2="800.3"/>
		<line class="st4" x1="1094.2" y1="0.4" x2="1094.2" y2="800.3"/>
		<line class="st4" x1="1070.5" y1="0.4" x2="1070.5" y2="800.3"/>
	</g>
	<g>
		<g>
			<g>
				<path class="st5" d="M519,400.4c0,29.3-9.3,58-26,81.3c-16.7,24-40.7,42-68.7,52v-34c18.7-8.7,34.7-23.3,46-40.7
					c11.3-17.3,17.3-38,17.3-58.7s-6-41.3-17.3-58.7s-27.3-32-46-40.7v-34c27.3,10,51.3,28,68.7,52C509.6,342.4,519,371.1,519,400.4
					z"/>
				<rect x="267" y="384.7" class="st5" width="126" height="31.3"/>
				<path class="st5" d="M455.7,400.7c0-10-2-20.7-6-30c-4-9.3-10-18-17.3-25.3c-7.3-7.3-16-13.3-25.3-17.3c-9.3-4-20-6-30-6h-47.3
					v31.3h94.7v94h-94.7v31.3H377c10.7,0,20.7-2,30-6c9.3-4,18-10,25.3-17.3c7.3-7.3,13.3-16,17.3-25.3
					C453.7,421.4,455.7,411.4,455.7,400.7z"/>
			</g>
			<g id="wm_8_">
				<path class="st5" d="M660.4,411.5V387h75.2c-3.2-12.9-9-22.5-18.6-29.6c-9.6-7.7-22.5-10.3-37.9-10.3c-12.9,0-23.8,3.2-32.1,8.4
					c-9,5.1-14.8,12.9-17.4,22.5h-32.1c3.2-16.7,10.9-29.6,26.4-40.5c14.8-9.6,32.8-14.8,54-14.8c27,0,48.2,7.7,64.9,22.5
					c16.1,14.8,24.4,34.1,24.4,57.2c0,23.8-8.4,43.1-24.4,57.8c-16.1,14.8-37.9,22.5-64.9,22.5c-22.5,0-40.5-4.5-54.6-14.8
					c-14.8-9.6-23.1-23.1-26.4-40.5h30.9c3.2,9.6,9.6,16.7,17.4,22.5c9,5.1,19.3,8.4,32.8,8.4c15.4,0,28.3-3.9,37.9-10.9
					c9.6-7.7,16.1-18,18.6-30.9h-73.9V411.5z"/>
				<path class="st5" d="M766.9,478.9v-27h4.1c9.6,0,17.4-3.9,22.5-10.9c4.5-7.7,6.4-21.9,6.4-41.8v-77.1h135v156.8h-29.6V348.5
					h-77.1v53.3c0,28.3-3.9,47.6-12.9,59.8c-9,10.9-22.5,17.4-41.1,17.4H766.9z"/>
				<path class="st5" d="M1005.5,478.9V348.5h-57.8v-26.4h146.5v26.4h-57.8v130.5H1005.5z"/>
				<path class="st5" d="M1070.5,478.9l70.1-156.8h36l70.1,156.8h-33.4l-16.1-36H1118l-15.4,36H1070.5z M1128.3,417.2h57.8
					l-29.6-66.8L1128.3,417.2z"/>
			</g>
		</g>
	</g>
</g>
<g>
	<rect x="1529.4" y="0.5" class="st0" width="773.7" height="799.9"/>
	<rect x="1689.6" y="160.4" class="st1" width="453.3" height="480"/>
	<g class="st2">
		<g>
			<rect x="1529.4" y="0.4" class="st3" width="160" height="160"/>
			<rect x="1529.4" y="640.4" class="st3" width="160" height="160"/>
			<rect x="2143" y="640.4" class="st3" width="160" height="160"/>
			<rect x="2143" y="0.4" class="st3" width="160" height="160"/>
		</g>
	</g>
	<g>
		<line class="st6" x1="1689.6" y1="0.4" x2="1689.6" y2="800.4"/>
		<line class="st6" x1="2143" y1="0.4" x2="2143" y2="800.4"/>
		<line class="st6" x1="2303.1" y1="160.4" x2="1529.5" y2="160.4"/>
		<line class="st6" x1="2303.1" y1="640.4" x2="1529.5" y2="640.4"/>
		<line class="st6" x1="1972.8" y1="0.4" x2="1972.8" y2="800.4"/>
		<line class="st6" x1="1802.4" y1="0.4" x2="1802.4" y2="800.4"/>
		<line class="st6" x1="2303" y1="372.2" x2="1529.4" y2="372.2"/>
		<line class="st6" x1="2303" y1="428.6" x2="1529.4" y2="428.6"/>
		<line class="st6" x1="2303" y1="259.4" x2="1529.4" y2="259.4"/>
		<line class="st6" x1="2303" y1="541.4" x2="1529.4" y2="541.4"/>
		<line class="st6" x1="2303" y1="315.8" x2="1529.4" y2="315.8"/>
		<line class="st6" x1="2303" y1="485" x2="1529.4" y2="485"/>
		<line class="st6" x1="1916.4" y1="0.4" x2="1916.4" y2="800.4"/>
	</g>
	<g>
		<path class="st5" d="M2143,400.4c0,52.8-16.8,104.4-46.8,146.4c-30,43.2-73.2,75.6-123.6,93.6v-61.2c33.6-15.6,62.4-42,82.8-73.2
			c20.4-31.2,31.2-68.4,31.2-105.6s-10.8-74.4-31.2-105.6c-20.4-31.2-49.2-57.6-82.8-73.2v-61.2c49.2,18,92.4,50.4,123.6,93.6
			C2126.2,296,2143,347.6,2143,400.4z"/>
		<rect x="1689.4" y="372.2" class="st5" width="226.8" height="56.4"/>
		<path class="st5" d="M2029,401c0-18-3.6-37.2-10.8-54c-7.2-16.8-18-32.4-31.2-45.6s-28.8-24-45.6-31.2s-36-10.8-54-10.8h-85.2
			v56.4h170.4V485h-170.4v56.4h85.2c19.2,0,37.2-3.6,54-10.8s32.4-18,45.6-31.2s24-28.8,31.2-45.6C2025.4,438.2,2029,420.2,2029,401
			z"/>
	</g>
</g>
</svg>
