<?xml version="1.0" encoding="utf-8"?>
<!-- Generator: Adobe Illustrator 22.0.0, SVG Export Plug-In . SVG Version: 6.00 Build 0)  -->
<svg version="1.1" id="Layer_1" xmlns="http://www.w3.org/2000/svg" xmlns:xlink="http://www.w3.org/1999/xlink" x="0px" y="0px"
	 viewBox="0 0 3000 2000" style="enable-background:new 0 0 3000 2000;" xml:space="preserve">
<style type="text/css">
	.st0{fill:#606F91;}
	.st1{fill:#FFFFFF;}
	.st2{fill:#FC273F;}
	.st3{fill:#AA1834;}
	.st4{fill:#641432;}
	.st5{fill:#FFBB00;}
	.st6{fill:#33B1FF;}
	.st7{fill:#26224C;}
	.st8{fill:#0F0E13;}
	.st9{fill:#322E2B;}
	.st10{fill:#645A58;}
	.st11{fill:#C1B7B5;}
	.st12{fill:#F0EFEB;}
	.st13{fill:#7F96C5;}
	.st14{fill:#B1C5E8;}
	.st15{fill:none;stroke:#FFFFFF;stroke-width:2;stroke-miterlimit:10;}
	.st16{fill:none;stroke:#FFFFFF;stroke-width:2.4965;stroke-miterlimit:10;}
</style>
<rect class="st0" width="3000" height="2000"/>
<g>
	<path class="st1" d="M124.8,173.9H186c-4.6-19.9-21.4-32.3-45.9-32.3c-21.8,0-36.1,9.4-40.7,23.7H70.6
		c4.4-28.5,31.9-47.6,69.2-47.6c46.2,0,76.6,27.3,76.6,68c0,41.1-30.6,68-76.2,68c-38,0-65.2-19.1-69.6-47.6h28.9
		c4.6,14.3,19.1,23.7,41.1,23.7c24.8,0,41.5-12.6,45.7-33.1h-61.3V173.9z"/>
	<path class="st1" d="M216.4,228h4.2c15.9,0,23.5-8.6,23.5-43v-66.1h117.1v133.8h-28.7V143.5H271v44c0,48-14.7,65.2-47.2,65.2h-7.5
		V228z"/>
	<path class="st1" d="M425.2,143.5h-48.5v-24.7h125.9v24.7h-48.7v109.1h-28.7V143.5z"/>
	<path class="st1" d="M543.3,118.9h34.4L637,252.6h-31.5l-12.6-29.2h-65.9l-12.4,29.2h-30.8L543.3,118.9z M582.9,200.3L559.6,146
		l-22.9,54.3H582.9z"/>
</g>
<g>
	<path class="st1" d="M70.6,458.6h28.3c1.3,14.1,12.8,21.4,35,21.4c21.2,0,32.7-6.1,32.7-18c0-11.3-9.6-16.6-29.4-16.6h-22.4v-22.9
		h20.6c17.8,0,27.9-6.1,27.9-17.4c0-10.7-9.6-15.7-29.8-15.7c-20.1,0-32.1,6.7-33.8,20.1H71.7c1.3-26.2,26-42.8,62.1-42.8
		c37.1,0,58.5,13.4,58.5,36.5c0,14.3-9.4,25-25.2,28.9c18.2,3.4,28.7,14.7,28.7,31.1c0,24.3-24.5,39.6-62.9,39.6
		C93.1,502.8,71.9,487.7,70.6,458.6z"/>
	<path class="st1" d="M259.4,367.9h34.4L353,501.6h-31.5l-12.6-29.2h-65.9l-12.4,29.2h-30.8L259.4,367.9z M298.9,449.3L275.6,395
		l-22.9,54.3H298.9z"/>
	<path class="st1" d="M365,367.9h103.2v24.7h-74.5v109.1H365V367.9z"/>
	<path class="st1" d="M469.2,434.7c0-39.9,32.1-68,78.4-68c46.1,0,78.4,27.9,78.4,68s-32.3,68-78.4,68
		C501.3,502.8,469.2,474.7,469.2,434.7z M596.5,434.7c0-26.8-19.1-43.8-48.9-43.8c-30,0-49.1,17-49.1,43.8
		c0,26.8,19.1,43.8,49.1,43.8C577.3,478.5,596.5,461.5,596.5,434.7z"/>
	<path class="st1" d="M625.9,477h4.2c15.9,0,23.5-8.6,23.5-43v-66.1h117.1v133.8h-28.7V392.5h-61.5v44c0,48-14.7,65.2-47.2,65.2
		h-7.5V477z"/>
	<path class="st1" d="M787.2,434.7c0-39.9,32.1-68,78.4-68c46.1,0,78.4,27.9,78.4,68s-32.3,68-78.4,68
		C819.3,502.8,787.2,474.7,787.2,434.7z M914.4,434.7c0-26.8-19.1-43.8-48.9-43.8c-30,0-49.1,17-49.1,43.8
		c0,26.8,19.1,43.8,49.1,43.8C895.3,478.5,914.4,461.5,914.4,434.7z"/>
	<path class="st1" d="M960.3,367.9h64.6c33.1,0,51.2,12.6,51.2,35.4c0,15.9-8.2,25.4-24.8,29.2c20.6,2.9,30.8,13.4,30.8,31.1
		c0,24.7-19.9,38-57.3,38h-64.4V367.9z M1027,422.9c13,0,20.4-5.9,20.4-16.2c0-10.3-7.3-16.2-20.4-16.2h-38v32.5H1027z
		 M1028.3,479.1c16.6,0,24.7-5.7,24.7-17c0-11.1-8.4-17-24.7-17H989v34H1028.3z"/>
	<path class="st1" d="M1093.3,434.7c0-39.9,32.1-68,78.4-68c46.1,0,78.4,27.9,78.4,68s-32.3,68-78.4,68
		C1125.4,502.8,1093.3,474.7,1093.3,434.7z M1220.6,434.7c0-26.8-19.1-43.8-48.9-43.8c-30,0-49.1,17-49.1,43.8
		c0,26.8,19.1,43.8,49.1,43.8C1201.5,478.5,1220.6,461.5,1220.6,434.7z"/>
	<path class="st1" d="M1266.4,367.9h28.7v53.7h26l44.5-53.7h35l-54.7,63.8l58.1,69.9h-36.9l-45.3-55.4h-26.8v55.4h-28.7V367.9z"/>
</g>
<g>
	<path class="st1" d="M1041.8,118.9h100.7v15.3h-84.1V177h70.3v15.3h-70.3v45.1h87.1v15.3h-103.8V118.9z"/>
	<path class="st1" d="M1163.4,118.9h16.6v118.5h74.7v15.3h-91.3V118.9z"/>
	<path class="st1" d="M1294.8,134.1h-53.3v-15.3h123.3v15.3h-53.3v118.5h-16.6V134.1z"/>
	<path class="st1" d="M1408.5,118.9h19.5l61.5,133.8h-18.3l-16.4-36.1H1381l-16.2,36.1H1347L1408.5,118.9z M1447.9,201.4l-30-66.3
		l-30,66.3H1447.9z"/>
	<path class="st1" d="M1553,208.9h17.2c1.5,18.9,18,29.8,44.7,29.8c26.2,0,39.7-8,39.7-22.9c0-14.7-10.9-18.5-41.1-22.6
		c-40.3-5.4-56.8-14.9-56.8-37.5c0-23.7,20.6-38,54.5-38c34.6,0,55.8,14.9,57.9,40.7H1652c-2.3-16.4-16.8-25.6-40.7-25.6
		c-25.4,0-37.8,7.5-37.8,22.2c0,14.3,10.1,18,41.5,22c39.6,5,56.4,15.3,56.4,37.5c0,24.3-21.8,39.4-56.6,39.4
		C1577.1,253.8,1554.3,237.1,1553,208.9z"/>
	<path class="st1" d="M1740.5,118.9h19.5l61.5,133.8h-18.3l-16.4-36.1h-73.8l-16.2,36.1h-17.8L1740.5,118.9z M1779.8,201.4l-30-66.3
		l-30,66.3H1779.8z"/>
	<path class="st1" d="M1836.2,118.9h15.3l90.2,107v-107h16.2v133.8h-15.3l-90.2-107v107h-16.2V118.9z"/>
	<path class="st1" d="M1977,208.9h17.2c1.5,18.9,18,29.8,44.7,29.8c26.2,0,39.7-8,39.7-22.9c0-14.7-10.9-18.5-41.1-22.6
		c-40.3-5.4-56.8-14.9-56.8-37.5c0-23.7,20.6-38,54.5-38c34.6,0,55.8,14.9,57.9,40.7H2076c-2.3-16.4-16.8-25.6-40.7-25.6
		c-25.4,0-37.8,7.5-37.8,22.2c0,14.3,10.1,18,41.5,22c39.6,5,56.4,15.3,56.4,37.5c0,24.3-21.8,39.4-56.6,39.4
		C2001.1,253.8,1978.4,237.1,1977,208.9z"/>
	<path class="st1" d="M2169.8,118.9h65.4c29,0,47.4,16.1,47.4,41.1c0,25.2-18.3,41.3-47.4,41.3h-48.7v51.4h-16.6V118.9z
		 M2235.2,185.9c18.5,0,30.4-10.1,30.4-26s-11.8-25.8-30.4-25.8h-48.7v51.8H2235.2z"/>
	<path class="st1" d="M2299.8,118.9h65.2c29,0,47.6,16.1,47.6,41.1c0,20.6-12.8,34.6-35.5,39l36.7,53.7H2394l-34.8-51.4h-42.8v51.4
		h-16.6V118.9z M2364.9,185.9c18.7,0,30.6-10.1,30.6-26c0-15.7-11.8-25.8-30.6-25.8h-48.5v51.8H2364.9z"/>
	<path class="st1" d="M2425.5,185.7c0-40.5,30.6-68,75.9-68s75.9,27.5,75.9,68c0,40.5-30.6,68-75.9,68S2425.5,226.3,2425.5,185.7z
		 M2560.2,185.7c0-31.9-23.3-52.7-58.9-52.7s-58.9,20.8-58.9,52.7c0,31.9,23.3,52.7,58.9,52.7S2560.2,217.7,2560.2,185.7z"/>
</g>
<g>
	<path class="st1" d="M1508.3,367.9h16.6V426h87.3v-58.1h16.6v133.8h-16.6v-60.4h-87.3v60.4h-16.6V367.9z"/>
	<path class="st1" d="M1653.7,367.9h53.1c47.6,0,77,25.6,77,66.9s-29.4,66.9-77,66.9h-53.1V367.9z M1706.8,486.3
		c38,0,60-18.9,60-51.6s-22-51.6-60-51.6h-36.5v103.2H1706.8z"/>
	<path class="st1" d="M1803.5,367.9h16.6v118.5h74.7v15.3h-91.3V367.9z"/>
	<path class="st1" d="M1912.1,367.9h16.6v133.8h-16.6V367.9z"/>
	<path class="st1" d="M1953.5,367.9h16.6v133.8h-16.6V367.9z"/>
	<path class="st1" d="M1995,367.9h15.3l90.2,107v-107h16.2v133.8h-15.3l-90.2-107v107H1995V367.9z"/>
	<path class="st1" d="M2141.6,367.9h100.7v15.3h-84.1V426h70.3v15.3h-70.3v45.1h87.1v15.3h-103.8V367.9z"/>
	<path class="st1" d="M2312.8,465.7c0-17.4,11.8-30.2,32.3-33.8c-17.2-2.9-27.7-14-27.7-29.6c0-22,20.3-35.5,52.9-35.5
		c32.7,0,52.9,13.6,52.9,35.5c0,15.5-10.9,26.8-27.7,29.6c20.4,3.6,32.3,16.4,32.3,33.8c0,22.7-22.2,37.1-57.5,37.1
		C2334.9,502.8,2312.8,488.4,2312.8,465.7z M2411.4,464.2c0-15.7-14.5-24.3-41.1-24.3c-26.6,0-41.1,8.6-41.1,24.3
		c0,15.9,14.5,24.5,41.1,24.5C2396.9,488.6,2411.4,480,2411.4,464.2z M2406.8,402.6c0-14-13-21.8-36.5-21.8
		c-23.5,0-36.5,7.6-36.5,21.8s13,22,36.5,22C2393.8,424.6,2406.8,416.8,2406.8,402.6z"/>
	<path class="st1" d="M2443.7,437.8v-6.1c0-41.3,21.8-65,59.6-65s59.6,23.7,59.6,65v6.1c0,42.2-20.8,65-59.6,65
		C2464.5,502.8,2443.7,480,2443.7,437.8z M2546.7,437.2v-5c0-34-14.3-50.8-43.4-50.8c-29,0-43.4,16.8-43.4,50.8v5
		c0,34,14.3,50.8,43.4,50.8C2532.3,488.1,2546.7,471.2,2546.7,437.2z"/>
	<path class="st1" d="M2579.3,437.8v-6.1c0-41.3,21.8-65,59.6-65s59.6,23.7,59.6,65v6.1c0,42.2-20.8,65-59.6,65
		C2600.2,502.8,2579.3,480,2579.3,437.8z M2682.3,437.2v-5c0-34-14.3-50.8-43.4-50.8c-29,0-43.4,16.8-43.4,50.8v5
		c0,34,14.3,50.8,43.4,50.8C2668,488.1,2682.3,471.2,2682.3,437.2z"/>
	<path class="st1" d="M2768.5,434.7c0-40.5,30.6-68,75.9-68s75.9,27.5,75.9,68c0,40.5-30.6,68-75.9,68S2768.5,475.3,2768.5,434.7z
		 M2815.9,421.9c24.8,0,38.6,10.3,57.1,10.3c12.6,0,23.1-3.1,29.4-7.5c-4.4-26.2-26.4-42.8-58.1-42.8c-33.1,0-55.6,18.2-58.5,46.4
		C2794.5,424.6,2805.2,421.9,2815.9,421.9z M2902.9,441.2c-8.6,3.6-19.1,6.3-29.8,6.3c-20.3,0-41.3-10.3-57.1-10.3
		c-12.4,0-23.1,3.1-29.6,7.5c4.4,26.2,26.4,42.8,58.1,42.8C2877.5,487.5,2900,469.3,2902.9,441.2z"/>
</g>
<g>
	<path class="st1" d="M127.5,635.1H74.2v-15.3h123.3v15.3h-53.3v118.5h-16.6V635.1z"/>
	<path class="st1" d="M214.6,619.9h100.7v15.3h-84.1V678h70.3v15.3h-70.3v45.1h87.1v15.3H214.6V619.9z"/>
	<path class="st1" d="M336.2,619.9h16.6V678h31.7l52.7-58.1h20.6L399,684.6l62.7,69h-22l-55.2-60.4h-31.7v60.4h-16.6V619.9z"/>
	<path class="st1" d="M461.1,686.7c0-40.9,30.2-68,75.7-68c35.5,0,59.6,16.4,66.3,44.9h-17.6c-7.1-19.5-23.9-29.6-49.5-29.6
		c-35.5,0-57.9,20.3-57.9,52.7c0,32.5,22,52.7,57.1,52.7c26.6,0,43.4-9.9,50.1-29.6h17.6c-6.7,28.5-31.3,44.9-67.5,44.9
		C490.4,754.8,461.1,728,461.1,686.7z"/>
	<path class="st1" d="M662,635.1h-53.3v-15.3h123.3v15.3h-53.3v118.5H662V635.1z"/>
	<path class="st1" d="M803.6,619.9h96.9v15.3h-80.3v39.4h48.3c30.8,0,47.2,13.6,47.2,39.6c0,25.2-17.2,39.6-47.2,39.6h-65V619.9z
		 M867.2,738.3c20.6,0,31.5-8.4,31.5-24.3c0-15.7-11.3-24.3-31.7-24.3h-46.8v48.5H867.2z"/>
	<path class="st1" d="M927.6,686.7c0-40.5,30.6-68,75.9-68s75.9,27.5,75.9,68c0,40.5-30.6,68-75.9,68S927.6,727.3,927.6,686.7z
		 M1062.3,686.7c0-31.9-23.3-52.7-58.9-52.7s-58.9,20.8-58.9,52.7c0,31.9,23.3,52.7,58.9,52.7S1062.3,718.7,1062.3,686.7z"/>
	<path class="st1" d="M1079.3,738.3h3.8c18.3,0,26.9-9.2,26.9-52.7v-65.7h108.2v133.8h-16.6V635.1h-75.9v51.8
		c0,51.4-12.8,66.7-40.7,66.7h-5.7V738.3z"/>
	<path class="st1" d="M1243.1,619.9h16.6v50.5h48.9c29.6,0,47.4,15.5,47.4,41.7c0,26-18,41.7-47.4,41.7h-65.5V619.9z M1307.3,738.3
		c20.8,0,31.7-9,31.7-26.4s-11.1-26.4-31.9-26.4h-47.4v52.7H1307.3z"/>
	<path class="st1" d="M1374.2,619.9h16.6v118.5h67.6V619.9h16.6v118.5h67.7V619.9h16.6v133.8h-185.2V619.9z"/>
	<path class="st1" d="M1579,686.7c0-40.5,30.6-68,75.9-68s75.9,27.5,75.9,68c0,40.5-30.6,68-75.9,68S1579,727.3,1579,686.7z
		 M1713.8,686.7c0-31.9-23.3-52.7-58.9-52.7s-58.9,20.8-58.9,52.7c0,31.9,23.3,52.7,58.9,52.7S1713.8,718.7,1713.8,686.7z"/>
	<path class="st1" d="M1750.4,619.9h16.4v108.4l90.4-108.4h15.3v133.8h-16.4V645.3l-90.4,108.4h-15.3V619.9z M1778.7,582.4h13
		c0,9.4,5.7,15.1,19.5,15.1c14,0,19.9-5.7,19.9-15.1h13.2c-0.4,16.2-11.8,26.2-33.3,26.2C1789.8,608.6,1779.1,598.5,1778.7,582.4z"
		/>
</g>
<g>
	<path class="st1" d="M2199.8,619.9h67.8c32.1,0,52,17.2,52,44.5c0,27.3-19.9,44.3-52,44.3h-39.2v44.9h-28.7V619.9z M2266.7,684.8
		c14.7,0,23.9-7.8,23.9-20.4c0-12.8-9-20.6-23.7-20.6h-38.4v41.1H2266.7z"/>
	<path class="st1" d="M2376.2,644.5h-48.5v-24.7h125.9v24.7h-48.7v109.1h-28.7V644.5z"/>
	<path class="st1" d="M2594.6,725H2514v-24.5l75.1-80.6h32.7V702h23.5V725h-23.5v28.7h-27.1V725z M2594.6,702v-55.4L2543,702H2594.6
		z"/>
	<path class="st1" d="M2654.6,689.8v-6.1c0-40.3,24.3-65,64-65s64,24.7,64,65v6.1c0,40.7-23.9,65-64,65
		C2678.5,754.8,2654.6,730.5,2654.6,689.8z M2755.1,688.8v-4.2c0-28.5-12.2-42.6-36.5-42.6c-24.3,0-36.5,14.1-36.5,42.6v4.2
		c0,28.5,12.2,42.6,36.5,42.6C2742.9,731.5,2755.1,717.3,2755.1,688.8z"/>
	<path class="st1" d="M2796.8,689.8v-6.1c0-40.3,24.3-65,64-65s64,24.7,64,65v6.1c0,40.7-23.9,65-64,65
		C2820.7,754.8,2796.8,730.5,2796.8,689.8z M2897.3,688.8v-4.2c0-28.5-12.2-42.6-36.5-42.6c-24.3,0-36.5,14.1-36.5,42.6v4.2
		c0,28.5,12.2,42.6,36.5,42.6C2885.1,731.5,2897.3,717.3,2897.3,688.8z"/>
</g>
<g>
	<path class="st1" d="M123.5,887.1H70.2v-15.3h123.3v15.3h-53.3v118.5h-16.6V887.1z"/>
	<path class="st1" d="M210.6,871.9h100.7v15.3h-84.1V930h70.3v15.3h-70.3v45.1h87.1v15.3H210.6V871.9z"/>
	<path class="st1" d="M332.2,871.9h16.6V930h31.7l52.7-58.1h20.6L395,936.6l62.7,69h-22l-55.2-60.4h-31.7v60.4h-16.6V871.9z"/>
	<path class="st1" d="M457.1,938.7c0-40.9,30.2-68,75.7-68c35.5,0,59.6,16.4,66.3,44.9h-17.6c-7.1-19.5-23.9-29.6-49.5-29.6
		c-35.5,0-57.9,20.3-57.9,52.7c0,32.5,22,52.7,57.1,52.7c26.6,0,43.4-9.9,50.1-29.6h17.6c-6.7,28.5-31.3,44.9-67.5,44.9
		C486.4,1006.8,457.1,980,457.1,938.7z"/>
	<path class="st1" d="M658,887.1h-53.3v-15.3h123.3v15.3h-53.3v118.5H658V887.1z"/>
	<path class="st1" d="M794.4,938.7c0-40.9,30.2-68,75.7-68c35.5,0,59.6,16.4,66.3,44.9h-17.6c-7.1-19.5-23.9-29.6-49.5-29.6
		c-35.5,0-57.9,20.3-57.9,52.7c0,32.5,22,52.7,57.1,52.7c26.6,0,43.4-9.9,50.1-29.6h17.6c-6.7,28.5-31.3,44.9-67.5,44.9
		C823.7,1006.8,794.4,980,794.4,938.7z"/>
	<path class="st1" d="M955.5,871.9h61c29.8,0,46.8,12.8,46.8,35.4c0,14.3-6.7,23.5-21.2,29c18.5,3.6,28.1,14.1,28.1,31.1
		c0,24.8-18.3,38.2-52.9,38.2h-61.7V871.9z M1017.2,930c19.1,0,29.4-7.6,29.4-21.6s-10.1-21.6-29.4-21.6h-45.1V930H1017.2z
		 M1017.2,990.7c24.5,0,35.9-7.5,35.9-22.9c0-15.5-11.7-22.9-35.9-22.9h-45.1v45.9H1017.2z"/>
	<path class="st1" d="M1084.5,938.7c0-40.5,30.6-68,75.9-68s75.9,27.5,75.9,68c0,40.5-30.6,68-75.9,68S1084.5,979.3,1084.5,938.7z
		 M1219.2,938.7c0-31.9-23.3-52.7-58.9-52.7s-58.9,20.8-58.9,52.7c0,31.9,23.3,52.7,58.9,52.7S1219.2,970.7,1219.2,938.7z"/>
	<path class="st1" d="M1255.9,871.9h96.9v15.3h-80.3v39.4h48.3c30.8,0,47.2,13.6,47.2,39.6c0,25.2-17.2,39.6-47.2,39.6h-65V871.9z
		 M1319.5,990.3c20.6,0,31.5-8.4,31.5-24.3c0-15.7-11.3-24.3-31.7-24.3h-46.8v48.5H1319.5z"/>
	<path class="st1" d="M1379.9,938.7c0-40.5,30.6-68,75.9-68s75.9,27.5,75.9,68c0,40.5-30.6,68-75.9,68S1379.9,979.3,1379.9,938.7z
		 M1514.7,938.7c0-31.9-23.3-52.7-58.9-52.7s-58.9,20.8-58.9,52.7c0,31.9,23.3,52.7,58.9,52.7S1514.7,970.7,1514.7,938.7z"/>
	<path class="st1" d="M1533.2,990.3h12.6c9-8,14.1-20.4,14.1-59.6v-58.9h109.5v118.5h14.1v42.6H1667v-27.3h-117.1v27.3h-16.6V990.3z
		 M1652.8,886.2h-77.2v46.6c0,31.1-3.2,46.8-10.5,57.5h87.7V886.2z"/>
	<path class="st1" d="M1700,871.9h16.6V930h87.3v-58.1h16.6v133.8H1804v-60.4h-87.3v60.4H1700V871.9z"/>
	<path class="st1" d="M1845.4,871.9h16.6v50.5h46.8c29.6,0,47.4,15.5,47.4,41.7c0,26-18,41.7-47.4,41.7h-63.4V871.9z M1907.5,990.3
		c20.8,0,31.7-9,31.7-26.4s-11.1-26.4-31.9-26.4h-45.3v52.7H1907.5z M1973.7,871.9h16.6v133.8h-16.6V871.9z"/>
	<path class="st1" d="M2015.1,871.9h16.4v108.4l90.4-108.4h15.3v133.8h-16.4V897.3l-90.4,108.4h-15.3V871.9z M2043.4,834.4h13
		c0,9.4,5.7,15.1,19.5,15.1c14,0,19.9-5.7,19.9-15.1h13.2c-0.4,16.2-11.8,26.2-33.3,26.2C2054.5,860.6,2043.8,850.5,2043.4,834.4z"
		/>
</g>
<g>
	<path class="st1" d="M87.2,1123.9h63.1c27.9,0,45.3,12.8,45.3,33.1c0,18.2-10.3,30.4-28.1,33.3c16.6,4,23.9,12.6,23.9,27.3
		c0,25-22.7,40.1-60,40.1H63.7L87.2,1123.9z M135.4,1235.1c17.8,0,27.3-6.5,27.3-18.3c0-10.3-7.8-15.7-22.7-15.7h-37.6l-5.9,34
		H135.4z M143.4,1178.9c14.9,0,23.9-6.7,23.9-18c0-9.4-7.1-14.5-19.5-14.5h-35.9l-5.7,32.5H143.4z"/>
	<path class="st1" d="M225,1123.9h28.7l-8,44.9H277c31.7,0,50.8,15.9,50.8,41.1c0,28.3-22.2,47.8-55.2,47.8h-71.1L225,1123.9z
		 M272.9,1233.7c16.1,0,26-8.6,26-21.8c0-11.7-8.6-19.1-23.1-19.1h-34.4l-7.3,40.9H272.9z M361.6,1123.9h28.7l-23.5,133.8h-28.7
		L361.6,1123.9z"/>
	<path class="st1" d="M384.7,1233H396c11.3-5.5,16.2-16.6,22.9-55.8l9.4-53.3h116L525,1233h15.3l-9.2,52h-27.5l4.8-27.3H407.8
		l-4.8,27.3h-27.5L384.7,1233z M511.6,1147.7H451l-6.3,35.4c-4.8,26.9-8.6,40.9-15.5,49.9h67.5L511.6,1147.7z"/>
	<path class="st1" d="M573.9,1123.9h104.3l-4.4,24.7h-75.7l-5.2,30h61.7l-4.2,23.5h-61.7l-5.4,31h78.2l-4.2,24.7h-107L573.9,1123.9z
		"/>
	<path class="st1" d="M671,1233h6.3c15.3,0,22.5-11.5,28.5-44.9l11.3-64.2h116.4l-23.7,133.8h-28.7l19.3-109.1H740l-7.8,44
		c-8.2,46.6-23.3,65.2-52.9,65.2h-12.6L671,1233z"/>
	<path class="st1" d="M855.2,1123.9h104.3l-4.4,24.7h-75.7l-5.2,30H936l-4.2,23.5h-61.7l-5.4,31h78.2l-4.2,24.7h-107L855.2,1123.9z"
		/>
	<path class="st1" d="M978.1,1123.9h28.7l-9.6,53.7h70.1l9.6-53.7h28.7l-23.7,133.8h-28.7l9.7-55.2H993l-9.7,55.2h-28.7
		L978.1,1123.9z"/>
	<path class="st1" d="M1127.3,1123.9h28.1l-16.1,90.8l91-90.8h26l-23.7,133.8h-28.1l16.1-90.8l-91,90.8h-26L1127.3,1123.9z"/>
	<path class="st1" d="M1278.1,1123.9h104.3l-4.4,24.7h-75.7l-5.2,30h61.7l-4.2,23.5H1293l-5.4,31h78.2l-4.2,24.7h-107L1278.1,1123.9
		z"/>
	<path class="st1" d="M1490.4,1148.5h-48.5l4.4-24.7H1572l-4.4,24.7H1519l-19.1,109.1h-28.7L1490.4,1148.5z"/>
	<path class="st1" d="M1587.3,1123.9h104.3l-4.4,24.7h-75.7l-5.2,30h61.7l-4.2,23.5h-61.7l-5.4,31h78.2l-4.2,24.7h-107
		L1587.3,1123.9z"/>
	<path class="st1" d="M1710.3,1123.9h28.7l-9.7,53.7h24.1l52.6-53.7h36.7l-65,65.4l44.7,68.4h-32.7l-36.5-55.4H1725l-9.7,55.4h-28.7
		L1710.3,1123.9z"/>
	<path class="st1" d="M1830.1,1196.1c0-41.7,33.4-73.4,79.3-73.4c36.9,0,64.6,19.5,66.9,48.9h-28.5c-3.4-15.9-18.5-24.7-38.8-24.7
		c-29.8,0-50.1,20.3-50.1,48.7c0,24.1,15.5,38.8,41.5,38.8c20.4,0,36.7-8.8,42-24.7h28.5c-6.1,29.6-35.2,48.9-71.5,48.9
		C1857.9,1258.8,1830.1,1233.4,1830.1,1196.1z"/>
	<path class="st1" d="M2030.6,1148.5h-48.5l4.4-24.7h125.7l-4.4,24.7h-48.5l-19.1,109.1h-28.7L2030.6,1148.5z"/>
	<path class="st1" d="M2103.4,1196.1c0-42,35-73.4,81.8-73.4c43.4,0,73.6,25.6,73.6,62.7c0,42-35,73.4-81.6,73.4
		C2133.6,1258.8,2103.4,1233.2,2103.4,1196.1z M2230.1,1185.8c0-23.9-17.6-38.8-45.5-38.8c-30.4,0-52.4,20.4-52.4,48.7
		c0,23.9,17.4,38.8,45.5,38.8C2207.9,1234.5,2230.1,1214.1,2230.1,1185.8z"/>
	<path class="st1" d="M2287.4,1123.9h35l32.1,99.2l66.1-99.2h38.2l-23.7,133.8h-28.3l16.2-90.8l-61.9,90.8h-23.5l-29.8-90.8
		l-16.1,90.8h-28.1L2287.4,1123.9z"/>
</g>
<g>
	<path class="st1" d="M76.7,1506.6v-133.8h25.8v54.7h27.3l46.6-54.7h31.3l-55.6,64.2l59.2,69.6H178l-47.6-56.6h-27.9v56.6H76.7z"/>
	<path class="st1" d="M285.3,1507.8c-22.9,0-41.6-6.3-56-18.9c-14.4-12.6-21.6-29-21.6-49.1c0-20.1,7.2-36.5,21.6-49.1
		c14.4-12.6,33.1-18.9,56-18.9c23.1,0,41.8,6.3,56.2,18.9c14.4,12.6,21.6,29,21.6,49.1c0,20.1-7.2,36.5-21.6,49.1
		C327.1,1501.5,308.4,1507.8,285.3,1507.8z M285.3,1485.6c15.7,0,28.2-4.1,37.5-12.4c9.3-8.3,13.9-19.4,13.9-33.4
		c0-14-4.7-25.2-13.9-33.4c-9.3-8.3-21.8-12.4-37.5-12.4c-15.5,0-28,4.2-37.3,12.5c-9.3,8.3-14,19.5-14,33.3c0,13.9,4.6,25,14,33.3
		C257.4,1481.4,269.8,1485.6,285.3,1485.6z"/>
	<path class="st1" d="M380.5,1506.6v-133.8h32.7l52.2,102.6l51.4-102.6h32.5v133.8h-25.4v-94.4l-48.3,94.4h-21.4l-48.2-94.4v94.4
		H380.5z"/>
	<path class="st1" d="M571.6,1506.6v-133.8h125.7v133.8h-25.8v-111.2h-74.1v111.2H571.6z"/>
	<path class="st1" d="M710,1506.6l60-133.8h30.8l59.8,133.8h-28.5l-13.6-30.8h-67.6l-13.4,30.8H710z M759.8,1454.5h49.7l-25-57.1
		L759.8,1454.5z"/>
	<path class="st1" d="M873.3,1506.6v-133.8h25.8v54.8h75.1v-54.8h25.8v133.8h-25.8v-56.6h-75.1v56.6H873.3z"/>
	<path class="st1" d="M1022.6,1506.6v-133.8h25.2v95.2l79.7-95.2h23.5v133.8h-25.2v-95.2l-79.7,95.2H1022.6z"/>
	<path class="st1" d="M1167.4,1506.6l36.5-50.1c-22.4-5.9-33.6-19.2-33.6-40.1c0-13.4,4.6-24,13.8-31.8s21.6-11.8,37.3-11.8h69.6
		v133.8h-25.8v-46.8h-32.7l-33.6,46.8H1167.4z M1222.1,1438h43v-43.2h-43.2c-7.8,0-13.9,1.9-18.4,5.7c-4.5,3.8-6.8,9-6.8,15.7
		c0,6.8,2.3,12.1,6.9,16C1208.1,1436.1,1214.3,1438,1222.1,1438z"/>
	<path class="st1" d="M1438.2,1507.8c-22.9,0-41.6-6.3-56-18.9c-14.4-12.6-21.6-29-21.6-49.1c0-20.1,7.2-36.5,21.6-49.1
		c14.4-12.6,33.1-18.9,56-18.9c23.1,0,41.8,6.3,56.2,18.9c14.4,12.6,21.6,29,21.6,49.1c0,20.1-7.2,36.5-21.6,49.1
		C1480,1501.5,1461.3,1507.8,1438.2,1507.8z M1438.2,1485.6c15.7,0,28.2-4.1,37.5-12.4c9.3-8.3,13.9-19.4,13.9-33.4
		c0-14-4.7-25.2-13.9-33.4c-9.3-8.3-21.8-12.4-37.5-12.4c-15.5,0-28,4.2-37.3,12.5c-9.3,8.3-14,19.5-14,33.3c0,13.9,4.6,25,14,33.3
		C1410.2,1481.4,1422.7,1485.6,1438.2,1485.6z"/>
	<path class="st1" d="M1607.3,1507.8c-22.9,0-41.6-6.3-56-18.9c-14.4-12.6-21.6-29-21.6-49.1c0-20.1,7.2-36.5,21.6-49.1
		c14.4-12.6,33.1-18.9,56-18.9c23.1,0,41.8,6.3,56.2,18.9c14.4,12.6,21.6,29,21.6,49.1c0,20.1-7.2,36.5-21.6,49.1
		C1649.1,1501.5,1630.4,1507.8,1607.3,1507.8z M1607.3,1485.6c15.7,0,28.2-4.1,37.5-12.4c9.3-8.3,14-19.4,14-33.4
		c0-14-4.7-25.2-14-33.4c-9.3-8.3-21.8-12.4-37.5-12.4c-15.5,0-28,4.2-37.3,12.5c-9.3,8.3-13.9,19.5-13.9,33.3
		c0,13.9,4.6,25,13.9,33.3C1579.4,1481.4,1591.8,1485.6,1607.3,1485.6z"/>
	<path class="st1" d="M1776.4,1507.8c-22.9,0-41.6-6.3-56-18.9c-14.4-12.6-21.6-29-21.6-49.1c0-20.1,7.2-36.5,21.6-49.1
		c14.4-12.6,33.1-18.9,56-18.9c23.1,0,41.8,6.3,56.2,18.9c14.4,12.6,21.6,29,21.6,49.1c0,20.1-7.2,36.5-21.6,49.1
		C1818.2,1501.5,1799.5,1507.8,1776.4,1507.8z M1776.4,1485.6c15.7,0,28.2-4.1,37.5-12.4c9.3-8.3,14-19.4,14-33.4
		c0-14-4.7-25.2-14-33.4c-9.3-8.3-21.8-12.4-37.5-12.4c-15.5,0-28,4.2-37.3,12.5c-9.3,8.3-13.9,19.5-13.9,33.3
		c0,13.9,4.6,25,13.9,33.3C1748.5,1481.4,1760.9,1485.6,1776.4,1485.6z"/>
	<path class="st1" d="M1969.3,1391.8l-29.4,48.9l29.4,48.9h-20.8l-29.6-48.9l29.6-48.9H1969.3z M2012.8,1392l-29.4,48.9l29.4,48.9
		H1992l-29.8-48.9l29.8-48.9H2012.8z"/>
	<path class="st1" d="M2078,1449.9v-21.2h64.2c-2.2-11-7.5-19.6-16.1-25.8c-8.5-6.2-19.4-9.4-32.7-9.4c-11.1,0-20.3,2.2-27.6,6.7
		c-7.3,4.5-12.3,10.6-15,18.5h-26.2c2.4-14.3,9.8-25.7,22.3-34.2c12.4-8.5,27.8-12.8,46.1-12.8c23.1,0,41.6,6.2,55.5,18.7
		c13.9,12.5,20.9,28.9,20.9,49.3c0,20.5-6.9,37-20.8,49.4c-13.9,12.4-32.2,18.6-55,18.6c-18.7,0-34.3-4.2-46.6-12.7
		c-12.4-8.5-19.8-19.9-22.4-34.3h26.2c2.7,8,7.7,14.2,15.1,18.6c7.4,4.4,16.8,6.6,28.1,6.6c13.2,0,24.1-3.2,32.6-9.7
		c8.5-6.4,13.7-15.3,15.8-26.5H2078z"/>
	<path class="st1" d="M2169.5,1506.6v-22.5h4c8.8,0,15.1-3.2,18.8-9.5c3.8-6.3,5.6-18.2,5.6-35.8v-65.9h115v133.8h-25.8v-111.2h-65
		v45.7c0,24-3.6,40.9-10.8,50.7c-7.2,9.9-18.8,14.8-34.9,14.8H2169.5z"/>
	<path class="st1" d="M2378.6,1506.6v-111.2h-49.7v-22.5h125.2v22.5h-49.7v111.2H2378.6z"/>
	<path class="st1" d="M2435.5,1506.6l60-133.8h30.8l59.8,133.8h-28.5l-13.6-30.8h-67.6l-13.4,30.8H2435.5z M2485.4,1454.5h49.7
		l-25-57.1L2485.4,1454.5z"/>
	<path class="st1" d="M2593.9,1392h20.8l29.8,48.9l-29.8,48.9h-20.8l29.4-48.9L2593.9,1392z M2637.5,1391.8h20.8l29.6,48.9
		l-29.6,48.9h-20.8l29.2-48.9L2637.5,1391.8z"/>
</g>
<g>
	<path class="st1" d="M76.6,1621.9h10.3v60.8h35.5l55.8-60.8h13l-59.8,65l63.8,68.8h-13.6l-59.2-63.4H86.9v63.4H76.6V1621.9z"/>
	<path class="st1" d="M212.1,1621.9h62.7c28.1,0,45.9,15.1,45.9,39s-17.8,39-45.9,39h-52.4v55.8h-10.3V1621.9z M274.8,1690.3
		c21.6,0,35.4-11.5,35.4-29.4c0-18.2-13.8-29.4-35.4-29.4h-52.4v58.9H274.8z"/>
	<path class="st1" d="M338.6,1621.9h97.7v9.6h-87.3v51h73.6v9.6h-73.6v54.1h90.6v9.6H338.6V1621.9z"/>
	<path class="st1" d="M511.5,1621.9h12l62.3,133.8h-11.5l-18.9-40.9h-76.2l-18.9,40.9h-11.1L511.5,1621.9z M551.1,1705.2l-33.8-73
		l-33.6,73H551.1z"/>
	<path class="st1" d="M624.4,1631.4h-55.8v-9.6h121.9v9.6h-55.8v124.2h-10.3V1631.4z"/>
	<path class="st1" d="M708.1,1621.9h10.1V1740l97.7-118.1h9.6v133.8h-10.1v-118.1l-97.7,118.1h-9.6V1621.9z"/>
	<path class="st1" d="M851.8,1621.9h57.7c29.4,0,45.9,12.2,45.9,34.4c0,15.9-8.6,25.8-26,30.2c22.4,3.2,33.3,14,33.3,31.9
		c0,24.5-18,37.3-52.7,37.3h-58.1V1621.9z M909.9,1682.6c22.9,0,35.2-9,35.2-25.8c0-16.6-12-25.6-35.2-25.6h-47.8v51.4H909.9z
		 M909.9,1746.3c28.5,0,42.2-9.2,42.2-27.5c0-18-14-26.8-42.2-26.8h-47.8v54.3H909.9z"/>
	<path class="st1" d="M1038.5,1621.9h10.1V1740l97.7-118.1h9.6v133.8h-10.1v-118.1l-97.7,118.1h-9.6V1621.9z"/>
	<path class="st1" d="M1231.5,1688.7c0-40.9,29.4-68,74-68c33.8,0,56.9,15.3,64.4,42.2H1359c-7.6-21.4-26.2-32.7-54.1-32.7
		c-38.2,0-62.9,22.7-62.9,58.5c0,35.7,24.5,58.5,62.5,58.5c28.5,0,46.8-11.1,54.1-32.9h10.9c-7.5,27.3-30.4,42.4-64.8,42.4
		C1260.4,1756.8,1231.5,1730,1231.5,1688.7z"/>
	<path class="st1" d="M1383.3,1688.7c0-40.9,29.6-68,74.5-68s74.5,27.1,74.5,68c0,41.1-29.6,68-74.5,68S1383.3,1729.8,1383.3,1688.7
		z M1521.8,1688.7c0-35.5-25-58.5-64-58.5c-38.8,0-64,22.9-64,58.5c0,35.7,25.2,58.5,64,58.5
		C1496.8,1747.2,1521.8,1724.5,1521.8,1688.7z"/>
	<path class="st1" d="M1546.1,1717h10.5c1.5,19.9,17.8,30.2,47.6,30.2c28.3,0,45.5-10.5,45.5-28.7c0-18-14.3-26.6-44-26.6h-23.3
		v-9.2h22.7c25,0,40.7-9.9,40.7-27.3c0-16.4-14.5-25.2-41.1-25.2c-27.5,0-44.3,9.6-46.4,28.1h-10.5c1.7-23.3,24.1-37.6,57.1-37.6
		c32.3,0,51.4,12.8,51.4,34.4c0,17.2-10.9,28.1-30.6,31.3c22.4,2.5,34.4,13.6,34.4,31.7c0,23.7-22,38.6-56.6,38.6
		C1567.9,1756.8,1547.6,1742.4,1546.1,1717z"/>
	<path class="st1" d="M1682.9,1621.9h10.1V1740l97.7-118.1h9.6v133.8h-10.1v-118.1l-97.7,118.1h-9.6V1621.9z"/>
	<path class="st1" d="M1817.2,1746.1h12.6c9.4-8.8,14.7-22.4,14.7-63.4v-60.8h104.3v124.2h14.5v36.9h-10.3v-27.3h-125.6v27.3h-10.3
		V1746.1z M1938.6,1630.8h-84.3v52.9c0,35.5-4,51.6-12.2,62.3h96.5V1630.8z"/>
	<path class="st1" d="M2035.7,1621.9h12l62.3,133.8h-11.5l-18.9-40.9h-76.3l-18.9,40.9h-11.1L2035.7,1621.9z M2075.2,1705.2
		l-33.8-73l-33.6,73H2075.2z"/>
	<path class="st1" d="M2126,1621.9h10.3v60.8h95.4v-60.8h10.3v133.8h-10.3v-63.4h-95.4v63.4H2126V1621.9z"/>
	<path class="st1" d="M2268.4,1621.9h10.1V1740l97.7-118.1h9.6v133.8h-10.1v-118.1l-97.7,118.1h-9.6V1621.9z"/>
	<path class="st1" d="M2412.1,1621.9h97.7v9.6h-87.3v51h73.6v9.6h-73.6v54.1h90.6v9.6h-100.9V1621.9z"/>
</g>
<g>
	<path class="st1" d="M72.4,1876.6c0-13.3,5.9-21.4,15.6-21.4s15.6,8,15.6,21.4S97.7,1898,88,1898S72.4,1889.9,72.4,1876.6z
		 M98.3,1876.6c0-10.8-3.5-16.6-10.3-16.6s-10.3,5.7-10.3,16.6s3.5,16.6,10.3,16.6S98.3,1887.4,98.3,1876.6z"/>
	<path class="st1" d="M111.9,1897.6v-42h14.2c8.4,0,14,5,14,12.9c0,5.9-3.5,10.4-8.9,11.9l9.4,17.2h-5.9l-8.9-16.1h-8.7v16.1H111.9z
		 M117.1,1876.7h8.6c5.5,0,9.1-3.2,9.1-8.2s-3.5-8.1-9-8.1h-8.6V1876.7z"/>
	<path class="st1" d="M146.8,1876.6c0-13.6,5.5-21.4,15.5-21.4c7.3,0,12.6,4.3,14.2,14H171c-1.1-6.5-4.3-9.2-8.8-9.2
		c-6.8,0-10.1,5.7-10.1,16.6s3.5,16.6,10.3,16.6c5.6,0,9.1-4.6,9.1-12.1v-1.4h-8.4v-4.8h13.5v22.7h-4.5l-0.4-5.5
		c-1.9,3.8-5.1,5.9-9.4,5.9C152.7,1898,146.8,1889.9,146.8,1876.6z"/>
	<path class="st1" d="M182.3,1897.6l14.1-42h6.5l14.1,42h-5.5l-3.8-11.3h-16.3l-3.8,11.3H182.3z M192.9,1881.5h13.3l-6.7-20.2
		L192.9,1881.5z"/>
	<path class="st1" d="M222.9,1897.6v-42h5.1l17.8,32.2v-32.2h5v42h-5.1l-17.8-32.3v32.3H222.9z"/>
	<path class="st1" d="M287.4,1859.9h-10.8v33.4h10.8v4.3h-26.8v-4.3h10.8v-33.4h-10.8v-4.3h26.8V1859.9z"/>
	<path class="st1" d="M296.6,1897.6v-3.8l21.9-33.4h-21.1v-4.8h27.7v3.8l-21.8,33.4h22.6v4.8H296.6z"/>
	<path class="st1" d="M331.1,1897.6l14.1-42h6.5l14.1,42h-5.5l-3.8-11.3h-16.3l-3.8,11.3H331.1z M341.7,1881.5h13.3l-6.7-20.2
		L341.7,1881.5z"/>
	<path class="st1" d="M383,1897.6v-37.2h-13.6v-4.8h32.5v4.8h-13.6v37.2H383z"/>
	<path class="st1" d="M436.2,1859.9h-10.8v33.4h10.8v4.3h-26.8v-4.3h10.8v-33.4h-10.8v-4.3h26.8V1859.9z"/>
	<path class="st1" d="M444.4,1876.6c0-13.3,5.9-21.4,15.6-21.4s15.6,8,15.6,21.4s-5.9,21.4-15.6,21.4S444.4,1889.9,444.4,1876.6z
		 M470.3,1876.6c0-10.8-3.5-16.6-10.3-16.6s-10.3,5.7-10.3,16.6s3.5,16.6,10.3,16.6S470.3,1887.4,470.3,1876.6z"/>
	<path class="st1" d="M483.3,1897.6v-42h5.1l17.8,32.2v-32.2h5v42H506l-17.8-32.3v32.3H483.3z"/>
	<path class="st1" d="M556,1876.6c0-13.3,5.9-21.4,15.6-21.4s15.6,8,15.6,21.4s-5.9,21.4-15.6,21.4S556,1889.9,556,1876.6z
		 M581.9,1876.6c0-10.8-3.5-16.6-10.3-16.6s-10.3,5.7-10.3,16.6s3.5,16.6,10.3,16.6S581.9,1887.4,581.9,1876.6z"/>
	<path class="st1" d="M596.4,1897.6v-42h26.5v4.8h-21.3v14h18.3v4.8h-18.3v18.4H596.4z"/>
	<path class="st1" d="M669,1881.9v-26.3h5.2v26.2c0,7.7,3,11.4,8.9,11.4c6.1,0,9.1-3.6,9.1-11.4v-26.2h5.2v26.3
		c0,10.7-4.9,16.1-14.3,16.1C673.8,1898,669,1892.6,669,1881.9z"/>
	<path class="st1" d="M717.8,1897.6v-37.2h-13.6v-4.8h32.5v4.8H723v37.2H717.8z"/>
	<path class="st1" d="M771,1859.9h-10.8v33.4H771v4.3h-26.8v-4.3H755v-33.4h-10.8v-4.3H771V1859.9z"/>
	<path class="st1" d="M783.3,1897.6v-42h5.2v37.2h20.3v4.8H783.3z"/>
	<path class="st1" d="M845.4,1859.9h-10.8v33.4h10.8v4.3h-26.8v-4.3h10.8v-33.4h-10.8v-4.3h26.8V1859.9z"/>
	<path class="st1" d="M866.6,1897.6v-37.2H853v-4.8h32.5v4.8h-13.6v37.2H866.6z"/>
	<path class="st1" d="M903.8,1897.6v-15.5l-14.9-26.5h6l11.5,20.7l11.6-20.7h5.8l-14.8,26.5v15.5H903.8z"/>
	<path class="st1" d="M966.9,1897.6v-42h5.1l17.8,32.2v-32.2h5v42h-5.1l-17.8-32.3v32.3H966.9z"/>
	<path class="st1" d="M1005,1897.6v-42h26.3v4.8h-21.1v13.4h17.9v4.8h-17.9v14.2h21.9v4.8H1005z"/>
	<path class="st1" d="M1052.6,1897.6v-37.2H1039v-4.8h32.5v4.8h-13.6v37.2H1052.6z"/>
	<path class="st1" d="M1080.7,1897.6l-5.8-42h4.9l4.6,35.3l5.5-20.9h5.3l5.3,20.9l4.5-35.3h4.9l-5.9,42h-6.3l-5.2-20.6l-5.3,20.6
		H1080.7z"/>
	<path class="st1" d="M1114,1876.6c0-13.3,5.9-21.4,15.6-21.4s15.6,8,15.6,21.4s-5.9,21.4-15.6,21.4S1114,1889.9,1114,1876.6z
		 M1139.8,1876.6c0-10.8-3.5-16.6-10.3-16.6s-10.3,5.7-10.3,16.6s3.5,16.6,10.3,16.6S1139.8,1887.4,1139.8,1876.6z"/>
	<path class="st1" d="M1153.5,1897.6v-42h14.2c8.4,0,14,5,14,12.9c0,5.9-3.5,10.4-8.9,11.9l9.4,17.2h-5.9l-8.9-16.1h-8.7v16.1
		H1153.5z M1158.7,1876.7h8.6c5.5,0,9.1-3.2,9.1-8.2s-3.5-8.1-9-8.1h-8.6V1876.7z"/>
	<path class="st1" d="M1190.4,1897.6v-42h5.2v22.7l18.5-22.7h6.2l-14.9,18.3l16.1,23.7h-6.2l-13.3-19.5l-6.4,7.8v11.7H1190.4z"/>
	<path class="st1" d="M1226,1883.9h5.4c0.4,5.7,4.6,9.4,10.6,9.4c5.5,0,9.1-2.8,9.1-7.1c0-4.1-2.6-5.9-10.9-7.4
		c-9.1-1.6-13.1-5.2-13.1-11.5c0-7.1,5.6-11.9,13.7-11.9c8.7,0,14.5,5,15,12.8h-5.4c-0.5-4.9-4.3-8-9.6-8c-5.3,0-8.5,2.6-8.5,6.9
		c0,4,2.5,5.7,10.8,7.1c9.1,1.5,13.3,5.2,13.3,11.6c0,7.3-5.9,12.4-14.3,12.4C1232.5,1898,1226.3,1892.5,1226,1883.9z"/>
	<path class="st1" d="M1329,1859.9h-10.8v33.4h10.8v4.3h-26.8v-4.3h10.8v-33.4h-10.8v-4.3h26.8V1859.9z"/>
	<path class="st1" d="M1337.6,1883.9h5.4c0.4,5.7,4.6,9.4,10.6,9.4c5.5,0,9.1-2.8,9.1-7.1c0-4.1-2.6-5.9-10.9-7.4
		c-9.1-1.6-13.1-5.2-13.1-11.5c0-7.1,5.6-11.9,13.7-11.9c8.7,0,14.5,5,15,12.8h-5.4c-0.5-4.9-4.3-8-9.6-8c-5.3,0-8.5,2.6-8.5,6.9
		c0,4,2.5,5.7,10.8,7.1c9.1,1.5,13.3,5.2,13.3,11.6c0,7.3-5.9,12.4-14.3,12.4C1344.1,1898,1337.9,1892.5,1337.6,1883.9z"/>
	<path class="st1" d="M1424.6,1897.6v-37.2H1411v-4.8h32.5v4.8h-13.6v37.2H1424.6z"/>
	<path class="st1" d="M1450.5,1897.6v-42h5.2v18.2h17.4v-18.2h5.2v42h-5.2v-19h-17.4v19H1450.5z"/>
	<path class="st1" d="M1488.6,1897.6v-42h26.3v4.8h-21.1v13.4h17.9v4.8h-17.9v14.2h21.9v4.8H1488.6z"/>
	<path class="st1" d="M1562.7,1897.6v-42h13.1c8.9,0,13.4,4.3,13.4,11.1c0,4.8-2.6,7.7-6.6,9.1c4.4,0.8,8.3,3.7,8.3,9.8
		c0,7.4-4.8,12-14.8,12H1562.7z M1567.9,1873.9h8.1c5.4,0,8-2.5,8-6.8c0-4.2-2.5-6.7-8-6.7h-8.1V1873.9z M1567.9,1892.9h8.3
		c6.5,0,9.4-2.7,9.4-7c0-4.7-3.2-7.3-9.4-7.3h-8.3V1892.9z"/>
	<path class="st1" d="M1595.8,1897.6l14.1-42h6.5l14.1,42h-5.5l-3.8-11.3H1605l-3.8,11.3H1595.8z M1606.5,1881.5h13.3l-6.7-20.2
		L1606.5,1881.5z"/>
	<path class="st1" d="M1635.2,1883.9h5.4c0.4,5.7,4.6,9.4,10.6,9.4c5.5,0,9.1-2.8,9.1-7.1c0-4.1-2.6-5.9-10.9-7.4
		c-9.1-1.6-13.1-5.2-13.1-11.5c0-7.1,5.6-11.9,13.7-11.9c8.7,0,14.5,5,15,12.8h-5.4c-0.5-4.9-4.3-8-9.6-8c-5.3,0-8.5,2.6-8.5,6.9
		c0,4,2.5,5.7,10.8,7.1c9.1,1.5,13.3,5.2,13.3,11.6c0,7.3-5.9,12.4-14.3,12.4C1641.7,1898,1635.5,1892.5,1635.2,1883.9z"/>
	<path class="st1" d="M1701,1859.9h-10.8v33.4h10.8v4.3h-26.8v-4.3h10.8v-33.4h-10.8v-4.3h26.8V1859.9z"/>
	<path class="st1" d="M1709.6,1883.9h5.4c0.4,5.7,4.6,9.4,10.6,9.4c5.5,0,9.1-2.8,9.1-7.1c0-4.1-2.6-5.9-10.9-7.4
		c-9.1-1.6-13.1-5.2-13.1-11.5c0-7.1,5.6-11.9,13.7-11.9c8.7,0,14.5,5,15,12.8h-5.4c-0.5-4.9-4.3-8-9.6-8c-5.3,0-8.5,2.6-8.5,6.9
		c0,4,2.5,5.7,10.8,7.1c9.1,1.5,13.3,5.2,13.3,11.6c0,7.3-5.9,12.4-14.3,12.4C1716.1,1898,1709.9,1892.5,1709.6,1883.9z"/>
	<path class="st1" d="M1783.6,1876.6c0-13.3,5.9-21.4,15.6-21.4c9.7,0,15.6,8,15.6,21.4s-5.9,21.4-15.6,21.4
		C1789.5,1898,1783.6,1889.9,1783.6,1876.6z M1809.4,1876.6c0-10.8-3.5-16.6-10.3-16.6s-10.3,5.7-10.3,16.6s3.5,16.6,10.3,16.6
		S1809.4,1887.4,1809.4,1876.6z"/>
	<path class="st1" d="M1824,1897.6v-42h26.5v4.8h-21.3v14h18.3v4.8h-18.3v18.4H1824z"/>
	<path class="st1" d="M1893.4,1897.6l14.1-42h6.5l14.1,42h-5.5l-3.8-11.3h-16.3l-3.8,11.3H1893.4z M1904.1,1881.5h13.3l-6.7-20.2
		L1904.1,1881.5z"/>
	<path class="st1" d="M1934.1,1897.6v-42h5.1l17.8,32.2v-32.2h5v42h-5.1l-17.8-32.3v32.3H1934.1z"/>
	<path class="st1" d="M1982.6,1897.6v-15.5l-14.9-26.5h6l11.5,20.7l11.6-20.7h5.8l-14.8,26.5v15.5H1982.6z"/>
	<path class="st1" d="M2047.2,1897.6v-42h26.5v4.8h-21.3v14h18.3v4.8h-18.3v18.4H2047.2z"/>
	<path class="st1" d="M2079.4,1897.6l14.1-42h6.5l14.1,42h-5.5l-3.8-11.3h-16.3l-3.8,11.3H2079.4z M2090.1,1881.5h13.3l-6.7-20.2
		L2090.1,1881.5z"/>
	<path class="st1" d="M2118.4,1876.6c0-13.7,6-21.4,16.8-21.4c7.9,0,13.3,5,14.9,14.1h-5.5c-1.4-6.3-4.4-9.3-9.4-9.3
		c-7.4,0-11.5,5.8-11.5,16.6c0,10.9,3.8,16.6,11.3,16.6c5,0,8-2.9,9.5-9.3h5.5c-1.6,9.1-6.9,14.1-15,14.1
		C2124.4,1898,2118.4,1890.3,2118.4,1876.6z"/>
	<path class="st1" d="M2184.6,1859.9h-10.8v33.4h10.8v4.3h-26.8v-4.3h10.8v-33.4h-10.8v-4.3h26.8V1859.9z"/>
	<path class="st1" d="M2196.9,1897.6v-42h5.2v37.2h20.3v4.8H2196.9z"/>
	<path class="st1" d="M2259,1859.9h-10.8v33.4h10.8v4.3h-26.8v-4.3h10.8v-33.4h-10.8v-4.3h26.8V1859.9z"/>
	<path class="st1" d="M2280.2,1897.6v-37.2h-13.6v-4.8h32.5v4.8h-13.6v37.2H2280.2z"/>
	<path class="st1" d="M2317.4,1897.6v-15.5l-14.9-26.5h6l11.5,20.7l11.6-20.7h5.8l-14.8,26.5v15.5H2317.4z"/>
	<path class="st1" d="M2586.3,1875.7v1.9c0,12.8-5.7,20.4-14.9,20.4s-14.9-7.6-14.9-20.4v-1.9c0-12.8,5.7-20.4,14.9-20.4
		S2586.3,1862.9,2586.3,1875.7z M2561.5,1877.4c0,2.3,0.2,4.4,0.5,6.2l17.1-18.8c-1.7-3.3-4.3-5-7.7-5c-6.2,0-9.9,5.9-9.9,16.1
		V1877.4z M2581.3,1875.8c0-2.3-0.2-4.4-0.5-6.3l-17.1,19c1.7,3.2,4.4,4.9,7.7,4.9c6.2,0,9.9-5.8,9.9-16V1875.8z"/>
	<path class="st1" d="M2612.1,1892.9h10.6v4.7H2596v-4.7h11v-24.8c-0.6,0.4-1.3,0.6-2.2,0.6h-8.7v-4.5h8.2c1.9,0,2.8-1.6,2.8-3.6v-5
		h4.9V1892.9z"/>
	<path class="st1" d="M2631.6,1897.6v-4.3l15.8-14.2c3.8-3.4,6.8-6.7,6.8-11.2c0-5.3-3.5-8.3-8.8-8.3c-5.2,0-8.6,3.6-8.6,9.4v0.8h-5
		v-1.1c0-7.9,5.4-13.6,13.7-13.6c8.8,0,13.9,5,13.9,12.5c0,6.2-3.9,10.3-8.8,14.5l-12.1,10.7h21.2v4.6H2631.6z"/>
	<path class="st1" d="M2697.2,1886c0,7.1-5.5,12-14.3,12c-8.8,0-14.3-5-14.3-13.3h5c0.1,5.5,3.9,8.8,9.6,8.8c5.2,0,8.9-3.1,8.9-7.9
		c0-4.4-2.8-7.1-9.1-7.1h-3.7v-4.5h3.1c5.9,0,8.8-3.1,8.8-7.3c0-4.3-3.6-6.9-8.4-6.9c-4.9,0-8.6,3.2-8.7,8h-5
		c0.1-7.7,5.9-12.5,13.6-12.5c8.4,0,13.6,4.5,13.6,11.2c0,5.2-2.8,8.2-6.5,9.3C2693.5,1876.5,2697.2,1879.6,2697.2,1886z"/>
	<path class="st1" d="M2724.7,1897.6v-10.3h-20.8v-4.5l20.2-27.2h5.6v27.1h6.2v4.6h-6.2v10.3H2724.7z M2709.6,1882.7h15.2v-20.5
		L2709.6,1882.7z"/>
	<path class="st1" d="M2772.1,1883.6c0,9.3-6.7,14.3-14.3,14.3c-9.1,0-14.3-6.1-14.8-13.4h5c0.5,4.9,4,8.9,9.8,8.9
		c4.7,0,9.2-3.3,9.2-9.8c0-5.7-3.5-9.7-9.1-9.7c-2.5,0-7.4,0.7-9.2,5.7l-4.9-0.1l1.4-23.9h24.5v4.6h-19.9l-1,13.3c2.5-3.1,6-4,9.7-4
		C2766.6,1869.5,2772.1,1875.2,2772.1,1883.6z"/>
	<path class="st1" d="M2782.9,1891c-2-3.4-3.2-8.5-3.2-14.2c0-13.2,5.8-21.5,15.5-21.5c7.4,0,12.5,4.6,13.5,11.6h-5
		c-1-4.3-3.8-7.1-8.7-7.1c-7,0-10.6,7.3-10.6,15.5c0,1.3-0.1,1,0,2c0-0.1,0.2-0.7,0.4-1.1c1.6-3.5,5.7-6.3,11-6.3
		c8,0,13.7,5.5,13.7,14c0,8.1-5.8,14.1-14.2,14.1C2789.6,1898,2785.4,1895.3,2782.9,1891z M2804.4,1883.9c0-5.6-3.5-9.6-9-9.6
		c-5.6,0-9.4,4-9.4,9.7c0,5.6,3.7,9.5,9.2,9.5C2800.8,1893.5,2804.4,1889.5,2804.4,1883.9z"/>
	<path class="st1" d="M2820.2,1897.6l19.3-37.4h-22.7v-4.6h28.8v3.5l-19.9,38.5H2820.2z"/>
	<path class="st1" d="M2883.9,1886.3c0,6.8-5.6,11.6-14.9,11.6c-9.2,0-14.9-4.9-14.9-11.6c0-5.5,3.4-9.3,8.2-10.4
		c-3.9-0.9-7-4.5-7-9.5c0-6.6,5.4-11.2,13.7-11.2c8.3,0,13.7,4.6,13.7,11.2c0,4.8-3.1,8.6-7.1,9.5
		C2880.3,1877,2883.9,1880.6,2883.9,1886.3z M2878.7,1886c0-4.4-4-7.6-9.7-7.6s-9.7,3.2-9.7,7.6c0,4.5,4,7.7,9.7,7.7
		C2874.7,1893.7,2878.7,1890.5,2878.7,1886z M2869,1873.3c5.2,0,8.6-2.8,8.6-6.9c0-4.1-3.4-6.8-8.6-6.8c-5.2,0-8.6,2.8-8.6,6.8
		C2860.4,1870.6,2863.8,1873.3,2869,1873.3z"/>
	<path class="st1" d="M2892,1886.4h5c0.9,4.1,3.7,7.1,8.7,7.1c7,0,10.6-7.3,10.6-15.5c0-1.2,0.1-1,0-2c-0.2,0.6-0.2,0.7-0.4,1.1
		c-1.6,3.5-5.6,6.3-11,6.3c-8,0-13.7-5.5-13.7-14c0-8.1,5.8-14.1,14.2-14.1c5.5,0,9.8,2.5,12.4,7c2.1,3.7,3.2,8.8,3.2,14.2
		c0,13.2-5.8,21.5-15.5,21.5C2898.1,1898,2893,1893.4,2892,1886.4z M2914.8,1869.2c0-5.6-3.7-9.5-9.2-9.5s-9.2,4-9.2,9.7
		c0,5.6,3.5,9.6,9,9.6C2910.9,1879,2914.8,1875,2914.8,1869.2z"/>
</g>
<g>
	<path class="st1" d="M2200.6,871.9h67.8c32.1,0,52,17.2,52,44.5c0,27.3-19.9,44.3-52,44.3h-39.2v44.9h-28.7V871.9z M2267.5,936.8
		c14.7,0,23.9-7.8,23.9-20.4c0-12.8-9-20.6-23.7-20.6h-38.4v41.1H2267.5z"/>
	<path class="st1" d="M2377,896.5h-48.5v-24.7h125.9v24.7h-48.7v109.1H2377V896.5z"/>
	<path class="st1" d="M2514,963.6h27.1c0.4,14,12,21.6,33.6,21.6c19.9,0,31.3-7.1,31.3-19.1c0-11.5-9.9-17.2-29.2-17.2h-18v-22.2
		h16.2c17.6,0,27.5-6.3,27.5-17.8c0-10.7-9.7-16.6-28.3-16.6c-18.7,0-29.6,7.3-30.8,20.3h-27.1c0.8-25.6,23.5-41.9,58.3-41.9
		c35.2,0,55.8,13.4,55.8,36.1c0,15.1-8.8,25.4-23.9,29.2c17.6,3.2,27.5,14.3,27.5,31.1c0,24.3-23.1,39.6-60.4,39.6
		C2535.4,1006.8,2514,991.1,2514,963.6z"/>
	<path class="st1" d="M2647.2,965.9h27.3c2.3,11.5,11.5,18.5,31.5,18.5c18.9,0,31.7-8.8,31.7-24.3c0-14.5-10.1-23.9-31.1-23.9
		c-15.5,0-25.2,4.8-30.6,14l-26.8-2.1l4.8-76.2H2756v23.3h-77l-2.1,28.5c7.5-5.9,19.1-9.2,34.4-9.2c34,0,54.5,18.3,54.5,45.5
		c0,30.8-25.6,46.8-59.6,46.8C2667.9,1006.8,2648.8,989.6,2647.2,965.9z"/>
	<path class="st1" d="M2776.8,941.8v-6.1c0-40.3,24.3-65,64-65s64,24.7,64,65v6.1c0,40.7-23.9,65-64,65
		C2800.7,1006.8,2776.8,982.5,2776.8,941.8z M2877.3,940.8v-4.2c0-28.5-12.2-42.6-36.5-42.6c-24.3,0-36.5,14.1-36.5,42.6v4.2
		c0,28.5,12.2,42.6,36.5,42.6C2865.1,983.5,2877.3,969.3,2877.3,940.8z"/>
</g>
<g>
	<g>
		<g>
			<path class="st1" d="M2927,191.7c0,24.9-7.9,49.2-22.1,69c-14.1,20.4-34.5,35.6-58.2,44.1V276c15.8-7.4,29.4-19.8,39-34.5
				c9.6-14.7,14.7-32.2,14.7-49.8s-5.1-35.1-14.7-49.8c-9.6-14.7-23.2-27.1-39-34.5V78.6c23.2,8.5,43.5,23.8,58.2,44.1
				C2919.1,142.5,2927,166.9,2927,191.7z"/>
			<rect x="2713.2" y="178.5" class="st1" width="106.9" height="26.6"/>
			<path class="st1" d="M2873.3,192c0-8.5-1.7-17.5-5.1-25.4c-3.4-7.9-8.5-15.3-14.7-21.5c-6.2-6.2-13.6-11.3-21.5-14.7
				c-7.9-3.4-17-5.1-25.4-5.1h-40.1v26.6h80.3v79.7h-80.3v26.6h40.1c9,0,17.5-1.7,25.4-5.1c7.9-3.4,15.3-8.5,21.5-14.7
				c6.2-6.2,11.3-13.6,14.7-21.5C2871.6,209.6,2873.3,201.1,2873.3,192z"/>
		</g>
	</g>
</g>
<rect x="-647.5" y="501.2" class="st2" width="500" height="249.5"/>
<rect x="-647.5" y="750.8" class="st3" width="500" height="249.5"/>
<rect x="-647.5" y="1001.2" class="st4" width="500" height="249.5"/>
<rect x="-647.5" y="1250.8" class="st5" width="500" height="249.5"/>
<rect x="-647.5" y="1500.3" class="st6" width="500" height="249.5"/>
<rect x="-647.5" y="1748.8" class="st7" width="500" height="249.5"/>
<rect x="-1647.5" y="1.2" class="st8" width="1500" height="500"/>
<rect x="-1647.5" y="502" class="st8" width="500" height="1247.2"/>
<rect x="-1647.5" y="1748.2" class="st9" width="500" height="250"/>
<text transform="matrix(1 0 0 1 -1624.538 1826.0754)" class="st1" style="font-family:'AeonikPro-Regular'; font-size:78.2249px;">Eb_40</text>
<rect x="-1647.5" y="1998.2" class="st10" width="500" height="250"/>
<g>
	
		<text transform="matrix(1 0 0 1 -1624.538 2076.0757)" style="fill:#14161E; font-family:'AeonikPro-Regular'; font-size:78.2249px;">Eb_30</text>
</g>
<rect x="-1647.5" y="2247.2" class="st11" width="500" height="250"/>
<g>
	
		<text transform="matrix(1 0 0 1 -1624.538 2325.0757)" style="fill:#14161E; font-family:'AeonikPro-Regular'; font-size:78.2249px;">Eb_20</text>
</g>
<rect x="-1647.5" y="2497.2" class="st12" width="500" height="250"/>
<g>
	
		<text transform="matrix(1 0 0 1 -1624.538 2575.0757)" style="fill:#14161E; font-family:'AeonikPro-Regular'; font-size:78.2249px;">Eb_10</text>
</g>
<text transform="matrix(1 0 0 1 -1624.538 90.0754)" class="st1" style="font-family:'AeonikPro-Regular'; font-size:78.2249px;">Eb_100</text>
<rect x="-1147.5" y="1499.2" class="st0" width="500" height="1248"/>
<rect x="-1147.5" y="999.2" class="st13" width="500" height="500"/>
<rect x="-1147.5" y="501.2" class="st14" width="500" height="500"/>
<text transform="matrix(1 0 0 1 -1124.538 579.0755)" class="st1" style="font-family:'AeonikPro-Regular'; font-size:78.2249px;">Em_25</text>
<text transform="matrix(1 0 0 1 -1124.538 1078.0754)" class="st1" style="font-family:'AeonikPro-Regular'; font-size:78.2249px;">Em_50</text>
<text transform="matrix(1 0 0 1 -1124.538 1577.0754)" class="st1" style="font-family:'AeonikPro-Regular'; font-size:78.2249px;">Em_100</text>
<path class="st15" d="M2083,716h-98c-37,0-67-30-67-67v0c0-37,30-67,67-67h98c37,0,67,30,67,67v0C2150,686,2120,716,2083,716z"/>
<g>
	<path class="st1" d="M1944.5,635.3h3.4l9.6,22l9.6-22h3.4l-11.1,25.3h-3.7L1944.5,635.3z"/>
	<path class="st1" d="M1978,635.3h3.7l11.7,25.3h-3.5l-3.1-6.8h-14l-3.1,6.8h-3.4L1978,635.3z M1985.5,651l-5.7-12.6l-5.7,12.6
		H1985.5z"/>
	<path class="st1" d="M1996.1,635.3h12.3c5.5,0,9,3,9,7.8c0,3.9-2.4,6.6-6.7,7.4l6.9,10.2h-3.7l-6.6-9.7h-8.1v9.7h-3.1V635.3z
		 M2008.5,648c3.5,0,5.8-1.9,5.8-4.9c0-3-2.2-4.9-5.8-4.9h-9.2v9.8H2008.5z"/>
	<path class="st1" d="M2021.3,635.3h3.1v25.3h-3.1V635.3z"/>
	<path class="st1" d="M2038.9,635.3h3.7l11.7,25.3h-3.5l-3.1-6.8h-14l-3.1,6.8h-3.4L2038.9,635.3z M2046.3,651l-5.7-12.6L2035,651
		H2046.3z"/>
	<path class="st1" d="M2057,635.3h11.5c5.6,0,8.9,2.4,8.9,6.7c0,2.7-1.3,4.5-4,5.5c3.5,0.7,5.3,2.7,5.3,5.9c0,4.7-3.5,7.2-10,7.2
		H2057V635.3z M2068.7,646.3c3.6,0,5.6-1.4,5.6-4.1s-1.9-4.1-5.6-4.1h-8.5v8.2H2068.7z M2068.7,657.8c4.6,0,6.8-1.4,6.8-4.3
		s-2.2-4.3-6.8-4.3h-8.5v8.7H2068.7z"/>
	<path class="st1" d="M2082.6,635.3h3.1v22.4h14.2v2.9h-17.3V635.3z"/>
	<path class="st1" d="M2103.1,635.3h19.1v2.9h-15.9v8.1h13.3v2.9h-13.3v8.5h16.5v2.9h-19.7V635.3z"/>
</g>
<path class="st16" d="M2801.5,1221H2574c-37,0-67-30-67-67v0c0-37,30-67,67-67h227.5c37,0,67,30,67,67v0
	C2868.5,1191,2838.5,1221,2801.5,1221z"/>
<g>
	<path class="st1" d="M2544.1,1158.8c0-3.3,2.2-5.7,6.1-6.4c-3.3-0.5-5.2-2.6-5.2-5.6c0-4.2,3.8-6.7,10-6.7c6.2,0,10,2.6,10,6.7
		c0,2.9-2.1,5.1-5.2,5.6c3.9,0.7,6.1,3.1,6.1,6.4c0,4.3-4.2,7-10.9,7C2548.3,1165.9,2544.1,1163.2,2544.1,1158.8z M2562.8,1158.6
		c0-3-2.8-4.6-7.8-4.6c-5,0-7.8,1.6-7.8,4.6c0,3,2.8,4.6,7.8,4.6C2560,1163.2,2562.8,1161.6,2562.8,1158.6z M2561.9,1146.9
		c0-2.6-2.5-4.1-6.9-4.1c-4.5,0-6.9,1.4-6.9,4.1c0,2.7,2.5,4.2,6.9,4.2C2559.4,1151.1,2561.9,1149.6,2561.9,1146.9z"/>
	<path class="st1" d="M2568.9,1153.6v-1.2c0-7.8,4.1-12.3,11.3-12.3c7.2,0,11.3,4.5,11.3,12.3v1.2c0,8-3.9,12.3-11.3,12.3
		C2572.8,1165.9,2568.9,1161.6,2568.9,1153.6z M2588.4,1153.5v-0.9c0-6.4-2.7-9.6-8.2-9.6c-5.5,0-8.2,3.2-8.2,9.6v0.9
		c0,6.4,2.7,9.6,8.2,9.6C2585.7,1163.1,2588.4,1159.9,2588.4,1153.5z"/>
	<path class="st1" d="M2594.6,1153.6v-1.2c0-7.8,4.1-12.3,11.3-12.3c7.2,0,11.3,4.5,11.3,12.3v1.2c0,8-3.9,12.3-11.3,12.3
		S2594.6,1161.6,2594.6,1153.6z M2614.1,1153.5v-0.9c0-6.4-2.7-9.6-8.2-9.6c-5.5,0-8.2,3.2-8.2,9.6v0.9c0,6.4,2.7,9.6,8.2,9.6
		C2611.4,1163.1,2614.1,1159.9,2614.1,1153.5z"/>
	<path class="st1" d="M2620.8,1154.1h14.3v2.7h-14.3V1154.1z"/>
	<path class="st1" d="M2636.7,1163.1l12.1-8.2c3.4-2.3,5.2-4.7,5.2-7.1c0-3.2-2.4-5-6.8-5c-4.3,0-7.1,2.1-7.1,5.6v0.5h-3v-0.7
		c0-4.9,4.2-8.2,10.2-8.2c6.3,0,10,2.9,10,7.6c0,3.7-1.7,6.1-6.8,9.5l-8.6,5.7h15.7v2.8h-20.6V1163.1z"/>
	<path class="st1" d="M2660,1158.6h3c0.5,2.8,2.7,4.6,7.5,4.6c4.2,0,7.4-2,7.4-5.9c0-3.4-2.4-5.9-7.3-5.9c-3.7,0-6,1.2-7.2,3.5
		l-2.9-0.2l1-14.4h17.7v2.8h-15.1l-0.7,8c1.8-1.7,4.2-2.5,7.4-2.5c6.4,0,10.1,3.5,10.1,8.5c0,5.6-4.6,8.7-10.5,8.7
		C2663.6,1165.9,2660.4,1162.7,2660,1158.6z"/>
	<path class="st1" d="M2683.8,1153.6v-1.2c0-7.8,4.1-12.3,11.3-12.3c7.2,0,11.3,4.5,11.3,12.3v1.2c0,8-3.9,12.3-11.3,12.3
		C2687.7,1165.9,2683.8,1161.6,2683.8,1153.6z M2703.3,1153.5v-0.9c0-6.4-2.7-9.6-8.2-9.6c-5.5,0-8.2,3.2-8.2,9.6v0.9
		c0,6.4,2.7,9.6,8.2,9.6C2700.6,1163.1,2703.3,1159.9,2703.3,1153.5z"/>
	<path class="st1" d="M2720.6,1140.3h3.1v25.3h-3.1V1140.3z"/>
	<path class="st1" d="M2737.1,1143.2H2727v-2.9h23.3v2.9h-10.1v22.4h-3.1V1143.2z"/>
	<path class="st1" d="M2758.6,1140.3h3.7l11.7,25.3h-3.5l-3.1-6.8h-14l-3.1,6.8h-3.4L2758.6,1140.3z M2766.1,1156l-5.7-12.6
		l-5.7,12.6H2766.1z"/>
	<path class="st1" d="M2776.8,1140.3h3.1v22.4h14.2v2.9h-17.3V1140.3z"/>
	<path class="st1" d="M2797.3,1140.3h3.1v25.3h-3.1V1140.3z"/>
	<path class="st1" d="M2804.2,1153c0-7.7,5.7-12.9,14.3-12.9c6.7,0,11.3,3.1,12.6,8.5h-3.3c-1.3-3.7-4.5-5.6-9.4-5.6
		c-6.7,0-11,3.8-11,10s4.2,10,10.8,10c5,0,8.2-1.9,9.5-5.6h3.3c-1.3,5.4-5.9,8.5-12.8,8.5C2809.7,1165.9,2804.2,1160.8,2804.2,1153z
		"/>
</g>
<path class="st16" d="M2859.5,1711H2632c-37,0-67-30-67-67v0c0-37,30-67,67-67h227.5c37,0,67,30,67,67v0
	C2926.5,1681,2896.5,1711,2859.5,1711z"/>
<g>
	<path class="st1" d="M2611.8,1647.9h3c0.1,3.3,2.9,5.2,7.9,5.2c4.8,0,7.5-1.7,7.5-4.7c0-2.9-2.4-4.3-7.1-4.3h-3.2v-2.8h3
		c4,0,6.6-1.6,6.6-4.4c0-2.7-2.4-4.2-6.8-4.2c-4.4,0-6.8,1.6-7.1,4.8h-3c0.2-4.6,4.1-7.5,10.2-7.5c6.2,0,9.9,2.5,9.9,6.7
		c0,3-1.6,5-4.7,5.6c3.4,0.5,5.5,2.7,5.5,5.9c0,4.7-4.1,7.5-10.8,7.5C2615.8,1655.9,2611.9,1652.9,2611.8,1647.9z"/>
	<path class="st1" d="M2636.4,1648.6h3c0.5,2.8,2.7,4.6,7.5,4.6c4.2,0,7.4-2,7.4-5.9c0-3.4-2.4-5.9-7.3-5.9c-3.7,0-6,1.2-7.2,3.5
		l-2.9-0.2l1-14.4h17.7v2.8h-15.1l-0.7,8c1.8-1.7,4.2-2.5,7.4-2.5c6.4,0,10.1,3.5,10.1,8.5c0,5.6-4.6,8.7-10.5,8.7
		C2640,1655.9,2636.7,1652.7,2636.4,1648.6z"/>
	<path class="st1" d="M2660.2,1643.6v-1.2c0-7.8,4.1-12.3,11.3-12.3c7.2,0,11.3,4.5,11.3,12.3v1.2c0,8-3.9,12.3-11.3,12.3
		S2660.2,1651.6,2660.2,1643.6z M2679.7,1643.5v-0.9c0-6.4-2.7-9.6-8.2-9.6c-5.5,0-8.2,3.2-8.2,9.6v0.9c0,6.4,2.7,9.6,8.2,9.6
		C2677,1653.1,2679.7,1649.9,2679.7,1643.5z"/>
	<path class="st1" d="M2697,1630.3h12.3c5.5,0,9,3,9,7.8c0,3.9-2.4,6.6-6.7,7.4l6.9,10.2h-3.7l-6.6-9.7h-8.1v9.7h-3.1V1630.3z
		 M2709.3,1643c3.5,0,5.8-1.9,5.8-4.9c0-3-2.2-4.9-5.8-4.9h-9.2v9.8H2709.3z"/>
	<path class="st1" d="M2722.1,1630.3h19.1v2.9h-15.9v8.1h13.3v2.9h-13.3v8.5h16.5v2.9h-19.7V1630.3z"/>
	<path class="st1" d="M2743.2,1643c0-7.7,5.7-12.9,14.3-12.9c6.8,0,11.5,3.1,12.7,8.5h-3.4c-1.2-3.7-4.4-5.6-9.4-5.6
		c-6.7,0-11,3.9-11,10c0,6.1,4.2,10,10.9,10c6.2,0,10.2-2.9,10.2-7.3v-0.9h-9.5v-2.9h12.6v13.7h-2.7l-0.2-3.7
		c-1.7,2.4-5.8,3.9-10.4,3.9C2748.9,1655.9,2743.2,1650.6,2743.2,1643z"/>
	<path class="st1" d="M2774.8,1644.8v-14.5h3.1v14.7c0,5.3,2.8,8,8.3,8c5.6,0,8.4-2.7,8.4-8v-14.7h3.1v14.5c0,7.2-4,11-11.5,11
		C2778.8,1655.9,2774.8,1652.1,2774.8,1644.8z"/>
	<path class="st1" d="M2802.3,1630.3h3.1v22.4h14.2v2.9h-17.3V1630.3z"/>
	<path class="st1" d="M2833.2,1630.3h3.7l11.7,25.3h-3.5l-3.1-6.8h-14l-3.1,6.8h-3.4L2833.2,1630.3z M2840.7,1646l-5.7-12.6
		l-5.7,12.6H2840.7z"/>
	<path class="st1" d="M2851.3,1630.3h12.3c5.5,0,9,3,9,7.8c0,3.9-2.4,6.6-6.7,7.4l6.9,10.2h-3.7l-6.6-9.7h-8.1v9.7h-3.1V1630.3z
		 M2863.7,1643c3.5,0,5.8-1.9,5.8-4.9c0-3-2.2-4.9-5.8-4.9h-9.2v9.8H2863.7z"/>
</g>
</svg>
