<?xml version="1.0" encoding="utf-8"?>
<!-- Generator: Adobe Illustrator 22.0.0, SVG Export Plug-In . SVG Version: 6.00 Build 0)  -->
<svg version="1.1" id="Layer_1_copy" xmlns="http://www.w3.org/2000/svg" xmlns:xlink="http://www.w3.org/1999/xlink" x="0px"
	 y="0px" viewBox="0 0 3000 2000" style="enable-background:new 0 0 3000 2000;" xml:space="preserve">
<style type="text/css">
	.st0{fill:#FFFFFF;}
	.st1{fill:#606F91;}
	.st2{fill:#B1C5E8;}
	.st3{fill:#0F0E13;}
</style>
<rect class="st0" width="3000" height="2000"/>
<rect class="st1" width="1533" height="2000"/>
<g>
	<g>
		<g>
			<path class="st2" d="M1590.1,252.3v-15.7h11.9v15.7h-1.9v-13.9h-8v13.9H1590.1z"/>
			<path class="st2" d="M1604.6,246.6c0-3.5,2.3-5.8,5.7-5.8s5.7,2.4,5.7,5.8s-2.3,5.8-5.7,5.8S1604.6,250,1604.6,246.6z
				 M1614,246.6c0-2.4-1.5-4.2-3.8-4.2c-2.3,0-3.8,1.8-3.8,4.2c0,2.4,1.5,4.2,3.8,4.2C1612.5,250.8,1614,249,1614,246.6z"/>
			<path class="st2" d="M1628,250.6h1.8v4.7h-1.8v-3h-9.3v3h-1.8v-4.7h1.2c0.8-0.6,1.3-1.4,1.3-5v-4.8h8.7V250.6z M1626.1,250.6
				v-8.1h-5.1v3.3c0,2.6-0.3,3.9-0.8,4.8H1626.1z"/>
			<path class="st2" d="M1631.5,252.3v-11.4h9.9v11.4h-1.8v-9.7h-6.2v9.7H1631.5z"/>
			<path class="st2" d="M1644.1,252.3v-11.4h1.8v8.6l6.8-8.6h1.6v11.4h-1.8v-8.7l-6.8,8.7H1644.1z"/>
			<path class="st2" d="M1656.6,246.6c0-3.5,2.3-5.9,5.6-5.9c2.8,0,4.6,1.6,5,4.1h-1.9c-0.3-1.5-1.5-2.4-3.1-2.4
				c-2.2,0-3.7,1.7-3.7,4.2c0,2.5,1.5,4.2,3.7,4.2c1.6,0,2.8-0.9,3.1-2.4h1.9c-0.4,2.5-2.3,4-5.1,4
				C1658.8,252.4,1656.6,250.2,1656.6,246.6z"/>
			<path class="st2" d="M1669.5,252.3v-11.4h1.8v8.6l6.8-8.6h1.6v11.4h-1.8v-8.7l-6.8,8.7H1669.5z"/>
			<path class="st2" d="M1688.5,252.3v-11.4h1.8v8.6l6.8-8.6h1.6v11.4h-1.8v-8.7l-6.8,8.7H1688.5z"/>
			<path class="st2" d="M1707.5,252.3v-11.4h2.3l4.4,9.2l4.3-9.2h2.2l0,11.4h-1.8v-8.6l-4.1,8.6h-1.5l-4.1-8.6v8.6H1707.5z"/>
			<path class="st2" d="M1723,246.6c0-3.5,2.2-5.8,5.4-5.8c3.2,0,5.3,2,5.4,5.4c0,0.2,0,0.5,0,0.8h-8.9v0.2c0.1,2.2,1.4,3.7,3.6,3.7
				c1.6,0,2.9-0.9,3.2-2.3h1.9c-0.4,2.3-2.3,4-5,4C1725.3,252.4,1723,250.1,1723,246.6z M1731.9,245.4c-0.2-2-1.5-3.1-3.4-3.1
				c-1.7,0-3.2,1.2-3.4,3.1H1731.9z"/>
			<path class="st2" d="M1734.6,252.3v-1.7h0.3c1.3,0,1.8-0.8,1.8-4.2v-5.5h8.6v11.4h-1.8v-9.7h-5v3.9c0,4.5-1.1,5.8-3.3,5.8H1734.6
				z"/>
			<path class="st2" d="M1748.1,252.3v-11.4h1.8v4.8h2.4l3.6-4.8h2.1l-4.2,5.5l4.5,5.9h-2.2l-3.8-5h-2.5v5H1748.1z"/>
			<path class="st2" d="M1760,252.3v-11.4h1.8v8.6l6.8-8.6h1.6v11.4h-1.8v-8.7l-6.8,8.7H1760z"/>
			<path class="st2" d="M1772.9,252.3v-11.4h1.8v8.6l6.8-8.6h1.6v11.4h-1.8v-8.7l-6.8,8.7H1772.9z M1774.7,236.5h1.5
				c0,1.1,0.5,1.8,1.8,1.8s1.8-0.7,1.8-1.8h1.5c0,1.9-1.2,3.1-3.4,3.1C1775.8,239.6,1774.7,238.4,1774.7,236.5z"/>
			<path class="st2" d="M1795,252.3v-9.7h-4.1v-1.7h10.1v1.7h-4.1v9.7H1795z"/>
			<path class="st2" d="M1801.7,246.6c0-3.5,2.2-5.8,5.4-5.8c3.2,0,5.3,2,5.4,5.4c0,0.2,0,0.5,0,0.8h-8.9v0.2
				c0.1,2.2,1.4,3.7,3.6,3.7c1.6,0,2.9-0.9,3.2-2.3h1.9c-0.4,2.3-2.3,4-5,4C1803.9,252.4,1801.7,250.1,1801.7,246.6z M1810.6,245.4
				c-0.2-2-1.5-3.1-3.4-3.1c-1.7,0-3.2,1.2-3.4,3.1H1810.6z"/>
			<path class="st2" d="M1814.8,252.3v-11.4h1.8v4.8h2.4l3.6-4.8h2.1l-4.2,5.5l4.5,5.9h-2.2l-3.8-5h-2.5v5H1814.8z"/>
			<path class="st2" d="M1825.8,246.6c0-3.5,2.3-5.9,5.6-5.9c2.8,0,4.6,1.6,5,4.1h-1.9c-0.3-1.5-1.5-2.4-3.1-2.4
				c-2.2,0-3.7,1.7-3.7,4.2c0,2.5,1.5,4.2,3.7,4.2c1.6,0,2.8-0.9,3.1-2.4h1.9c-0.4,2.5-2.3,4-5.1,4
				C1828,252.4,1825.8,250.2,1825.8,246.6z"/>
			<path class="st2" d="M1841.3,252.3v-9.7h-4.1v-1.7h10.1v1.7h-4.1v9.7H1841.3z"/>
		</g>
	</g>
	<g>
		<g>
			<path class="st3" d="M1950,235.6h11.1v1.3l-7.7,14.3h-2l7.7-13.9h-9V235.6z"/>
			<path class="st3" d="M1959.8,254.2l6.3-19.2h1.8l-6.3,19.2H1959.8z"/>
			<path class="st3" d="M1979.7,247.1c0,2.5-2.2,4.3-5.7,4.3c-3.5,0-5.7-1.8-5.7-4.3c0-2.1,1.4-3.5,3.1-3.9
				c-1.5-0.3-2.7-1.7-2.7-3.5c0-2.5,2.1-4.2,5.3-4.2s5.3,1.7,5.3,4.2c0,1.8-1.2,3.2-2.7,3.5C1978.3,243.6,1979.7,244.9,1979.7,247.1
				z M1977.7,246.9c0-1.7-1.5-2.8-3.8-2.8c-2.2,0-3.8,1.2-3.8,2.8c0,1.7,1.6,2.9,3.8,2.9C1976.2,249.8,1977.7,248.6,1977.7,246.9z
				 M1974,242.2c2,0,3.3-1,3.3-2.6c0-1.5-1.3-2.5-3.3-2.5s-3.3,1-3.3,2.5C1970.6,241.2,1971.9,242.2,1974,242.2z"/>
			<path class="st3" d="M1982.6,248.9c0.7,0,1.3,0.5,1.3,1.3c0,0.8-0.5,1.3-1.3,1.3s-1.3-0.5-1.3-1.3
				C1981.3,249.4,1981.9,248.9,1982.6,248.9z"/>
			<path class="st3" d="M1996.4,246c0,3.5-2.6,5.3-5.5,5.3c-3.5,0-5.5-2.3-5.7-5h1.9c0.2,1.8,1.5,3.3,3.8,3.3c1.8,0,3.6-1.2,3.6-3.6
				c0-2.1-1.4-3.6-3.5-3.6c-1,0-2.9,0.3-3.6,2.1l-1.8,0l0.5-8.9h9.4v1.7h-7.7l-0.4,4.9c1-1.1,2.3-1.5,3.8-1.5
				C1994.2,240.8,1996.4,242.9,1996.4,246z"/>
			<path class="st3" d="M1951.4,272.2v-15.7h1.9v13.9h7.1v1.8H1951.4z"/>
			<path class="st3" d="M1962.2,257.7c0-0.7,0.5-1.2,1.2-1.2s1.2,0.5,1.2,1.2c0,0.7-0.5,1.2-1.2,1.2S1962.2,258.4,1962.2,257.7z
				 M1962.4,260.8h1.8v11.4h-1.8V260.8z"/>
			<path class="st3" d="M1976.2,260.8h1.6v10.8c0,3.3-1.7,5.2-5.7,5.2c-2.9,0-4.9-1.4-5.2-3.9h1.9c0.3,1.4,1.6,2.2,3.5,2.2
				c2.4,0,3.7-1.1,3.7-3.6v-1.3c-0.8,1.3-2,2.1-3.9,2.1c-3.2,0-5.5-2.1-5.5-5.8c0-3.5,2.3-5.8,5.5-5.8c1.9,0,3.2,0.8,3.9,2.1
				L1976.2,260.8z M1976,266.5c0-2.5-1.5-4.3-3.8-4.3c-2.3,0-3.8,1.7-3.8,4.2s1.5,4.2,3.8,4.2C1974.5,270.7,1976,269,1976,266.5z"/>
			<path class="st3" d="M1990.8,265.8v6.4h-1.8v-6.2c0-2.4-1.1-3.6-3.1-3.6c-2.1,0-3.4,1.6-3.4,4.2v5.7h-1.8v-15.7h1.8v6.1
				c0.7-1.1,1.8-2,3.8-2C1988.7,260.6,1990.8,262,1990.8,265.8z"/>
			<path class="st3" d="M1994.2,262.4h-2.1v-1.7h2.1v-3.2h1.8v3.2h3v1.7h-3v6.7c0,1,0.3,1.3,1.3,1.3h1.8v1.7h-2c-2.2,0-3-1-3-3
				V262.4z"/>
			<path class="st3" d="M1999.8,275.1l6.3-19.2h1.8l-6.3,19.2H1999.8z"/>
			<path class="st3" d="M2010.3,256.5h6c3.1,0,5.2,1.9,5.2,4.8c0,2.2-1.3,3.9-3.3,4.5l3.5,6.4h-2.2l-3.3-6h-3.9v6h-1.9V256.5z
				 M2012.3,258.3v6.1h3.9c2.1,0,3.4-1.2,3.4-3s-1.3-3-3.4-3H2012.3z"/>
			<path class="st3" d="M2023,266.5c0-3.5,2.2-5.8,5.4-5.8c3.2,0,5.3,2,5.4,5.4c0,0.2,0,0.5,0,0.8h-8.9v0.2c0.1,2.2,1.4,3.7,3.6,3.7
				c1.6,0,2.9-0.9,3.2-2.3h1.9c-0.4,2.3-2.3,4-5,4C2025.2,272.3,2023,270,2023,266.5z M2031.8,265.3c-0.2-2-1.5-3.1-3.4-3.1
				c-1.7,0-3.2,1.2-3.4,3.1H2031.8z"/>
			<path class="st3" d="M2045.3,260.8h1.6v10.8c0,3.3-1.7,5.2-5.7,5.2c-2.9,0-4.9-1.4-5.2-3.9h1.9c0.3,1.4,1.6,2.2,3.5,2.2
				c2.4,0,3.7-1.1,3.7-3.6v-1.3c-0.8,1.3-2,2.1-3.9,2.1c-3.2,0-5.5-2.1-5.5-5.8c0-3.5,2.3-5.8,5.5-5.8c1.9,0,3.2,0.8,3.9,2.1
				L2045.3,260.8z M2045.1,266.5c0-2.5-1.5-4.3-3.8-4.3c-2.3,0-3.8,1.7-3.8,4.2s1.5,4.2,3.8,4.2
				C2043.6,270.7,2045.1,269,2045.1,266.5z"/>
			<path class="st3" d="M2057.7,260.8h1.8v11.4h-1.6l-0.2-1.5c-0.7,0.9-1.8,1.7-3.6,1.7c-2.5,0-4.5-1.4-4.5-5.2v-6.4h1.8v6.2
				c0,2.4,1.1,3.6,3,3.6c2.1,0,3.3-1.6,3.3-4.2V260.8z"/>
			<path class="st3" d="M2062.2,256.5h1.8v15.7h-1.8V256.5z"/>
			<path class="st3" d="M2077.5,270.5v1.7h-1c-1.5,0-2-0.6-2.1-1.8c-0.7,1-1.9,1.9-3.8,1.9c-2.5,0-4.2-1.3-4.2-3.3
				c0-2.3,1.6-3.6,4.6-3.6h3.4v-0.8c0-1.5-1.1-2.4-2.8-2.4c-1.6,0-2.7,0.8-2.9,1.9h-1.8c0.3-2.2,2.1-3.6,4.8-3.6
				c2.9,0,4.6,1.5,4.6,4.1v5c0,0.6,0.2,0.8,0.7,0.8H2077.5z M2074.3,267h-3.5c-1.6,0-2.5,0.6-2.5,1.9c0,1.1,1,1.9,2.5,1.9
				c2.3,0,3.6-1.3,3.6-3.2V267z"/>
			<path class="st3" d="M2084.9,260.8v1.8h-0.9c-2.4,0-3,2-3,3.8v5.8h-1.8v-11.4h1.6l0.2,1.7c0.5-0.9,1.4-1.7,3.4-1.7H2084.9z"/>
		</g>
	</g>
	<g>
		<g>
			<path class="st2" d="M1597,381.5c-4.4,0-7.5-3.4-7.5-8c0-4.6,3.1-8,7.5-8s7.5,3.4,7.5,8C1604.5,378.1,1601.4,381.5,1597,381.5z
				 M1597,379.7c3.3,0,5.5-2.6,5.5-6.2c0-3.6-2.2-6.2-5.5-6.2c-3.3,0-5.5,2.6-5.5,6.2C1591.5,377.1,1593.7,379.7,1597,379.7z"/>
			<path class="st2" d="M1606.5,375.7c0-3.5,2.3-5.9,5.6-5.9c2.8,0,4.6,1.6,5,4.1h-1.9c-0.3-1.5-1.5-2.4-3.1-2.4
				c-2.2,0-3.7,1.7-3.7,4.2c0,2.5,1.5,4.2,3.7,4.2c1.6,0,2.8-0.9,3.1-2.4h1.9c-0.4,2.5-2.3,4-5.1,4
				C1608.7,381.5,1606.5,379.2,1606.5,375.7z"/>
			<path class="st2" d="M1627.6,369.9h1.8v11.4h-1.8v-5h-6.4v5h-1.8v-11.4h1.8v4.8h6.4V369.9z"/>
			<path class="st2" d="M1631.8,375.6c0-3.5,2.3-5.8,5.7-5.8c3.3,0,5.7,2.4,5.7,5.8s-2.3,5.8-5.7,5.8
				C1634.1,381.5,1631.8,379.1,1631.8,375.6z M1641.2,375.6c0-2.4-1.5-4.2-3.8-4.2c-2.3,0-3.8,1.8-3.8,4.2c0,2.4,1.5,4.2,3.8,4.2
				C1639.7,379.9,1641.2,378.1,1641.2,375.6z"/>
			<path class="st2" d="M1645.4,381.4v-11.4h4.9c2.8,0,4.2,1.1,4.2,3.1c0,1.4-0.9,2.2-1.9,2.4c1.3,0.2,2.3,1,2.3,2.6
				c0,2.2-1.6,3.3-4.5,3.3H1645.4z M1647.2,374.8h3.2c1.5,0,2.2-0.6,2.2-1.7c0-1.1-0.6-1.6-2.2-1.6h-3.2V374.8z M1647.2,379.8h3.4
				c1.6,0,2.4-0.5,2.4-1.7c0-1.1-0.9-1.7-2.4-1.7h-3.4V379.8z"/>
			<path class="st2" d="M1665.4,369.9h1.8v11.4h-1.8v-5h-6.4v5h-1.8v-11.4h1.8v4.8h6.4V369.9z"/>
			<path class="st2" d="M1669.5,375.6c0-3.5,2.3-5.8,5.7-5.8s5.7,2.4,5.7,5.8s-2.3,5.8-5.7,5.8S1669.5,379.1,1669.5,375.6z
				 M1679,375.6c0-2.4-1.5-4.2-3.8-4.2c-2.3,0-3.8,1.8-3.8,4.2c0,2.4,1.5,4.2,3.8,4.2C1677.5,379.9,1679,378.1,1679,375.6z"/>
			<path class="st2" d="M1683.2,381.4v-11.4h1.8v8.6l6.8-8.6h1.6v11.4h-1.8v-8.7l-6.8,8.7H1683.2z M1685,365.6h1.5
				c0,1.1,0.5,1.8,1.8,1.8c1.3,0,1.8-0.7,1.8-1.8h1.5c0,1.9-1.2,3.1-3.4,3.1C1686.1,368.6,1685,367.5,1685,365.6z"/>
			<path class="st2" d="M1705.3,381.4v-9.7h-4.1v-1.7h10.1v1.7h-4.1v9.7H1705.3z"/>
			<path class="st2" d="M1712,375.6c0-3.5,2.2-5.8,5.4-5.8c3.2,0,5.3,2,5.4,5.4c0,0.2,0,0.5,0,0.8h-8.9v0.2c0.1,2.2,1.4,3.7,3.6,3.7
				c1.6,0,2.9-0.9,3.2-2.3h1.9c-0.4,2.3-2.3,4-5,4C1714.2,381.5,1712,379.1,1712,375.6z M1720.8,374.5c-0.2-2-1.5-3.1-3.4-3.1
				c-1.7,0-3.2,1.2-3.4,3.1H1720.8z"/>
			<path class="st2" d="M1725.1,381.4v-11.4h1.8v4.8h2.4l3.6-4.8h2.1l-4.2,5.5l4.5,5.9h-2.2l-3.8-5h-2.5v5H1725.1z"/>
			<path class="st2" d="M1736.1,375.7c0-3.5,2.3-5.9,5.6-5.9c2.8,0,4.6,1.6,5,4.1h-1.9c-0.3-1.5-1.5-2.4-3.1-2.4
				c-2.2,0-3.7,1.7-3.7,4.2c0,2.5,1.5,4.2,3.7,4.2c1.6,0,2.8-0.9,3.1-2.4h1.9c-0.4,2.5-2.3,4-5.1,4
				C1738.3,381.5,1736.1,379.2,1736.1,375.7z"/>
			<path class="st2" d="M1751.6,381.4v-9.7h-4.1v-1.7h10.1v1.7h-4.1v9.7H1751.6z"/>
		</g>
	</g>
	<g>
		<g>
			<path class="st3" d="M1951.3,396.4h2.2c0.4,1.9,1.8,3.2,4,3.2c3.3,0,5-3,5-7.2c0-0.3,0-0.5,0-0.9c0,0.1-0.1,0.3-0.2,0.5
				c-0.8,1.8-2.7,3.1-5.2,3.1c-3.7,0-6.3-2.4-6.3-6.2c0-3.6,2.6-6.3,6.5-6.3c2.6,0,4.5,1.2,5.7,3.1c0.9,1.6,1.5,3.9,1.5,6.3
				c0,5.9-2.6,9.6-7.1,9.6C1954,401.5,1951.7,399.5,1951.3,396.4z M1961.7,388.7c0-2.5-1.7-4.2-4.3-4.2c-2.6,0-4.3,1.8-4.3,4.3
				c0,2.5,1.6,4.3,4.2,4.3C1959.9,393.1,1961.7,391.3,1961.7,388.7z"/>
			<path class="st3" d="M1964.7,404.8l7.5-22.9h2.2l-7.5,22.9H1964.7z"/>
			<path class="st3" d="M1979.7,382.7h2.2v18.7h-2.2V388c-0.3,0.2-0.7,0.3-1.3,0.3h-3v-2h3c0.9,0,1.3-0.7,1.3-1.6V382.7z"/>
			<path class="st3" d="M1988.4,382.7h2.2v18.7h-2.2V388c-0.3,0.2-0.7,0.3-1.3,0.3h-3v-2h3c0.9,0,1.3-0.7,1.3-1.6V382.7z"/>
			<path class="st3" d="M1995.4,398.5c0.9,0,1.5,0.6,1.5,1.5c0,0.9-0.6,1.5-1.5,1.5c-0.9,0-1.5-0.6-1.5-1.5
				C1993.9,399.1,1994.6,398.5,1995.4,398.5z"/>
			<path class="st3" d="M2011.8,395.1c0,4.1-3,6.4-6.5,6.4c-4.2,0-6.6-2.7-6.7-5.9h2.2c0.2,2.2,1.8,3.9,4.5,3.9
				c2.2,0,4.2-1.5,4.2-4.3c0-2.5-1.6-4.3-4.2-4.3c-1.1,0-3.4,0.3-4.2,2.5l-2.2-0.1l0.6-10.6h11.2v2.1h-9.1l-0.4,5.9
				c1.1-1.4,2.7-1.8,4.5-1.8C2009.3,388.8,2011.8,391.4,2011.8,395.1z"/>
			<path class="st3" d="M1951.7,408.5h7.1c3.7,0,6.2,2.2,6.2,5.7c0,2.6-1.6,4.6-4,5.3l4.2,7.6h-2.6l-3.9-7.2h-4.7v7.2h-2.3V408.5z
				 M1954,410.6v7.2h4.6c2.5,0,4-1.4,4-3.6s-1.6-3.6-4-3.6H1954z"/>
			<path class="st3" d="M1966.8,420.4c0-4.1,2.6-7,6.5-7c3.8,0,6.3,2.4,6.5,6.5c0,0.3,0,0.6-0.1,0.9h-10.6v0.2
				c0.1,2.6,1.7,4.4,4.3,4.4c1.9,0,3.4-1,3.9-2.8h2.2c-0.5,2.7-2.8,4.7-5.9,4.7C1969.4,427.3,1966.8,424.5,1966.8,420.4z
				 M1977.3,419c-0.2-2.3-1.8-3.7-4.1-3.7c-2,0-3.8,1.4-4.1,3.7H1977.3z"/>
			<path class="st3" d="M1993.5,413.6h1.9v12.9c0,3.9-2.1,6.2-6.7,6.2c-3.5,0-5.9-1.6-6.2-4.6h2.2c0.4,1.7,1.9,2.7,4.2,2.7
				c2.9,0,4.4-1.3,4.4-4.3v-1.6c-0.9,1.5-2.4,2.5-4.7,2.5c-3.8,0-6.5-2.5-6.5-7c0-4.2,2.8-7,6.5-7c2.3,0,3.8,1,4.7,2.5L1993.5,413.6
				z M1993.2,420.4c0-3-1.8-5.1-4.5-5.1c-2.7,0-4.5,2.1-4.5,5c0,3,1.8,5,4.5,5C1991.4,425.4,1993.2,423.3,1993.2,420.4z"/>
			<path class="st3" d="M2008.1,413.6h2.2v13.6h-1.9l-0.3-1.8c-0.8,1-2.1,2-4.3,2c-3,0-5.4-1.7-5.4-6.2v-7.6h2.2v7.4
				c0,2.8,1.3,4.3,3.5,4.3c2.5,0,4-1.9,4-5V413.6z"/>
			<path class="st3" d="M2013.6,408.5h2.2v18.7h-2.2V408.5z"/>
			<path class="st3" d="M2031.7,425.2v2h-1.2c-1.8,0-2.4-0.8-2.5-2.1c-0.9,1.2-2.2,2.3-4.6,2.3c-3,0-5-1.5-5-4
				c0-2.7,1.9-4.2,5.5-4.2h4v-0.9c0-1.8-1.3-2.8-3.4-2.8c-1.9,0-3.2,0.9-3.5,2.3h-2.2c0.3-2.7,2.5-4.2,5.8-4.2
				c3.5,0,5.5,1.7,5.5,4.9v5.9c0,0.7,0.3,0.9,0.9,0.9H2031.7z M2028,421h-4.2c-1.9,0-3,0.7-3,2.3c0,1.3,1.1,2.2,3,2.2
				c2.7,0,4.3-1.6,4.3-3.8V421z"/>
			<path class="st3" d="M2040.6,413.6v2.1h-1.1c-2.9,0-3.6,2.4-3.6,4.5v6.9h-2.2v-13.6h1.9l0.3,2.1c0.6-1,1.7-2.1,4.1-2.1H2040.6z"
				/>
		</g>
	</g>
	<g>
		<g>
			<path class="st2" d="M1590.1,537.9h5.5c3.3,0,5.2,1.6,5.2,4.1c0,1.8-1,2.9-2.5,3.4c1.7,0.3,3.1,1.4,3.1,3.6c0,2.8-2,4.5-5.7,4.5
				h-5.7V537.9z M1592.1,539.7v5h3.7c2,0,3.2-0.9,3.2-2.5c0-1.6-1.1-2.5-3.2-2.5H1592.1z M1592.1,546.5v5.3h3.8c2.4,0,3.7-1,3.7-2.6
				c0-1.8-1.4-2.7-3.7-2.7H1592.1z"/>
			<path class="st2" d="M1603.5,547.9c0-3.5,2.3-5.9,5.6-5.9c2.8,0,4.6,1.6,5,4.1h-1.9c-0.3-1.5-1.5-2.4-3.1-2.4
				c-2.2,0-3.7,1.7-3.7,4.2c0,2.5,1.5,4.2,3.7,4.2c1.6,0,2.8-0.9,3.1-2.4h1.9c-0.4,2.5-2.3,4-5.1,4
				C1605.7,553.7,1603.5,551.5,1603.5,547.9z"/>
			<path class="st2" d="M1616.3,553.6v-11.4h9.9v11.4h-1.8v-9.7h-6.2v9.7H1616.3z"/>
			<path class="st2" d="M1628.5,547.9c0-3.5,2.3-5.8,5.7-5.8c3.3,0,5.7,2.4,5.7,5.8s-2.3,5.8-5.7,5.8
				C1630.9,553.7,1628.5,551.4,1628.5,547.9z M1638,547.9c0-2.4-1.5-4.2-3.8-4.2c-2.3,0-3.8,1.8-3.8,4.2c0,2.4,1.5,4.2,3.8,4.2
				C1636.4,552.1,1638,550.3,1638,547.9z"/>
			<path class="st2" d="M1642.2,553.6v-11.4h2.3l4.4,9.2l4.3-9.2h2.2l0,11.4h-1.8V545l-4.1,8.6h-1.5l-4.1-8.6v8.6H1642.2z"/>
			<path class="st2" d="M1657.7,547.9c0-3.5,2.3-5.8,5.7-5.8s5.7,2.4,5.7,5.8s-2.3,5.8-5.7,5.8S1657.7,551.4,1657.7,547.9z
				 M1667.1,547.9c0-2.4-1.5-4.2-3.8-4.2s-3.8,1.8-3.8,4.2c0,2.4,1.5,4.2,3.8,4.2S1667.1,550.3,1667.1,547.9z"/>
			<path class="st2" d="M1671.4,553.6v-11.4h7.3v1.7h-5.5v9.7H1671.4z"/>
			<path class="st2" d="M1690.5,551.9v1.7h-1c-1.5,0-2-0.6-2.1-1.8c-0.7,1-1.9,1.9-3.8,1.9c-2.5,0-4.2-1.3-4.2-3.3
				c0-2.3,1.6-3.6,4.6-3.6h3.4v-0.8c0-1.5-1.1-2.4-2.8-2.4c-1.6,0-2.7,0.8-2.9,1.9h-1.8c0.3-2.2,2.1-3.6,4.8-3.6
				c2.9,0,4.6,1.5,4.6,4.1v5c0,0.6,0.2,0.8,0.7,0.8H1690.5z M1687.3,548.4h-3.5c-1.6,0-2.5,0.6-2.5,1.9c0,1.1,1,1.9,2.5,1.9
				c2.3,0,3.6-1.3,3.6-3.2V548.4z"/>
			<path class="st2" d="M1694.6,553.6v-9.7h-4.1v-1.7h10.1v1.7h-4.1v9.7H1694.6z"/>
			<path class="st2" d="M1701.2,547.9c0-3.5,2.2-5.8,5.4-5.8c3.2,0,5.3,2,5.4,5.4c0,0.2,0,0.5,0,0.8h-8.9v0.2
				c0.1,2.2,1.4,3.7,3.6,3.7c1.6,0,2.9-0.9,3.2-2.3h1.9c-0.4,2.3-2.3,4-5,4C1703.5,553.7,1701.2,551.4,1701.2,547.9z M1710.1,546.7
				c-0.2-2-1.5-3.1-3.4-3.1c-1.7,0-3.2,1.2-3.4,3.1H1710.1z"/>
			<path class="st2" d="M1712.8,553.6v-1.7h0.3c1.3,0,1.8-0.8,1.8-4.2v-5.5h8.6v11.4h-1.8v-9.7h-5v3.9c0,4.5-1.1,5.8-3.3,5.8H1712.8
				z"/>
			<path class="st2" d="M1726.3,553.6v-11.4h1.8v3.7h3.1c2.8,0,4.5,1.4,4.5,3.8c0,2.4-1.6,3.8-4.5,3.8H1726.3z M1728.2,552h2.8
				c1.9,0,2.9-0.8,2.9-2.3c0-1.5-1-2.3-2.9-2.3h-2.8V552z"/>
			<path class="st2" d="M1746.2,542.2h1.8v11.4h-1.8v-5h-6.4v5h-1.8v-11.4h1.8v4.8h6.4V542.2z"/>
			<path class="st2" d="M1750.7,553.6v-11.4h1.8v3.7h2.9c2.8,0,4.5,1.4,4.5,3.8c0,2.4-1.6,3.8-4.5,3.8H1750.7z M1752.6,552h2.6
				c1.9,0,2.9-0.8,2.9-2.3c0-1.5-1-2.3-2.9-2.3h-2.6V552z M1761.8,553.6v-11.4h1.8v11.4H1761.8z"/>
			<path class="st2" d="M1766.4,553.6v-11.4h1.8v8.6l6.8-8.6h1.6v11.4h-1.8v-8.7l-6.8,8.7H1766.4z M1768.2,537.8h1.5
				c0,1.1,0.5,1.8,1.8,1.8s1.8-0.7,1.8-1.8h1.5c0,1.9-1.2,3.1-3.4,3.1C1769.3,540.9,1768.2,539.7,1768.2,537.8z"/>
			<path class="st2" d="M1788.5,553.6v-9.7h-4.1v-1.7h10.1v1.7h-4.1v9.7H1788.5z"/>
			<path class="st2" d="M1795.2,547.9c0-3.5,2.2-5.8,5.4-5.8c3.2,0,5.3,2,5.4,5.4c0,0.2,0,0.5,0,0.8h-8.9v0.2
				c0.1,2.2,1.4,3.7,3.6,3.7c1.6,0,2.9-0.9,3.2-2.3h1.9c-0.4,2.3-2.3,4-5,4C1797.4,553.7,1795.2,551.4,1795.2,547.9z M1804,546.7
				c-0.2-2-1.5-3.1-3.4-3.1c-1.7,0-3.2,1.2-3.4,3.1H1804z"/>
			<path class="st2" d="M1808.3,553.6v-11.4h1.8v4.8h2.4l3.6-4.8h2.1l-4.2,5.5l4.5,5.9h-2.2l-3.8-5h-2.5v5H1808.3z"/>
			<path class="st2" d="M1819.3,547.9c0-3.5,2.3-5.9,5.6-5.9c2.8,0,4.6,1.6,5,4.1h-1.9c-0.3-1.5-1.5-2.4-3.1-2.4
				c-2.2,0-3.7,1.7-3.7,4.2c0,2.5,1.5,4.2,3.7,4.2c1.6,0,2.8-0.9,3.1-2.4h1.9c-0.4,2.5-2.3,4-5.1,4
				C1821.5,553.7,1819.3,551.5,1819.3,547.9z"/>
			<path class="st2" d="M1834.8,553.6v-9.7h-4.1v-1.7h10.1v1.7h-4.1v9.7H1834.8z"/>
		</g>
	</g>
	<g>
		<g>
			<path class="st3" d="M1955.6,535.1h2.8v24.2h-2.9v-17.3c-0.3,0.3-0.9,0.4-1.7,0.4h-3.9v-2.6h3.9c1.1,0,1.7-0.9,1.7-2.1V535.1z"/>
			<path class="st3" d="M1979.5,552.6c0,4.1-3.5,6.9-8.7,6.9c-5.2,0-8.6-2.9-8.6-7.7h2.9c0,3.2,2.5,5.1,5.9,5.1
				c3.1,0,5.6-1.8,5.6-4.5c0-2.5-2.1-4.1-5.8-4.1h-2.1v-2.5h1.9c3.6,0,5.4-1.8,5.4-4.2s-2.2-4-5.1-4c-3,0-5.2,1.8-5.3,4.6h-2.9
				c0-4.2,3.3-7.2,8.1-7.2c5,0,8.1,2.6,8.1,6.4c0,3-1.6,4.8-3.9,5.4C1977.2,547.1,1979.5,548.9,1979.5,552.6z"/>
			<path class="st3" d="M1984,555.6c1.1,0,2,0.8,2,1.9c0,1.2-0.8,1.9-2,1.9s-2-0.8-2-1.9C1982,556.4,1982.8,555.6,1984,555.6z"/>
			<path class="st3" d="M2005.2,551.2c0,5.4-3.9,8.2-8.5,8.2c-5.4,0-8.5-3.5-8.7-7.7h2.9c0.3,2.8,2.4,5.1,5.9,5.1
				c2.8,0,5.5-1.9,5.5-5.6c0-3.3-2.1-5.6-5.5-5.6c-1.5,0-4.5,0.4-5.5,3.3l-2.8-0.1l0.8-13.7h14.5v2.7h-11.8l-0.6,7.6
				c1.5-1.8,3.6-2.3,5.8-2.3C2001.9,543.1,2005.2,546.4,2005.2,551.2z"/>
			<path class="st3" d="M2006.1,563.7l9.8-29.7h2.8l-9.8,29.7H2006.1z"/>
			<path class="st3" d="M2025.5,535.1h2.8v24.2h-2.9v-17.3c-0.3,0.3-0.9,0.4-1.7,0.4h-3.9v-2.6h3.9c1.1,0,1.7-0.9,1.7-2.1V535.1z"/>
			<path class="st3" d="M2049.6,551.2c0,5.4-3.9,8.2-8.5,8.2c-5.4,0-8.5-3.5-8.7-7.7h2.9c0.3,2.8,2.4,5.1,5.9,5.1
				c2.8,0,5.5-1.9,5.5-5.6c0-3.3-2.1-5.6-5.5-5.6c-1.5,0-4.5,0.4-5.5,3.3l-2.8-0.1l0.8-13.7h14.5v2.7h-11.8l-0.6,7.6
				c1.5-1.8,3.6-2.3,5.8-2.3C2046.3,543.1,2049.6,546.4,2049.6,551.2z"/>
			<path class="st3" d="M1952.2,568.5h9.3c4.8,0,8,2.9,8,7.4c0,3.4-2,6-5.1,6.9l5.4,9.9h-3.4l-5.1-9.3h-6.1v9.3h-3V568.5z
				 M1955.2,571.3v9.4h6c3.2,0,5.2-1.9,5.2-4.7c0-2.8-2-4.7-5.2-4.7H1955.2z"/>
			<path class="st3" d="M1971.7,583.8c0-5.4,3.4-9,8.4-9c5,0,8.2,3.1,8.4,8.4c0,0.4,0,0.8-0.1,1.2h-13.7v0.2
				c0.1,3.3,2.2,5.7,5.6,5.7c2.5,0,4.4-1.3,5-3.6h2.9c-0.7,3.5-3.6,6.1-7.7,6.1C1975.2,592.9,1971.7,589.2,1971.7,583.8z
				 M1985.4,582.1c-0.3-3-2.3-4.7-5.3-4.7c-2.6,0-5,1.9-5.2,4.7H1985.4z"/>
			<path class="st3" d="M2006.3,575h2.5v16.7c0,5.1-2.7,8-8.7,8c-4.5,0-7.6-2.1-8.1-6h2.9c0.5,2.2,2.5,3.5,5.4,3.5
				c3.7,0,5.7-1.7,5.7-5.6v-2.1c-1.2,2-3.1,3.2-6,3.2c-4.9,0-8.5-3.3-8.5-9c0-5.4,3.6-9,8.5-9c3,0,4.9,1.3,6,3.2L2006.3,575z
				 M2005.9,583.9c0-3.9-2.3-6.6-5.8-6.6c-3.5,0-5.8,2.7-5.8,6.5c0,3.8,2.3,6.5,5.8,6.5C2003.6,590.3,2005.9,587.7,2005.9,583.9z"/>
			<path class="st3" d="M2025.3,575h2.8v17.6h-2.5l-0.4-2.3c-1,1.3-2.7,2.6-5.6,2.6c-3.9,0-6.9-2.2-6.9-8V575h2.8v9.6
				c0,3.7,1.7,5.6,4.6,5.6c3.2,0,5.1-2.5,5.1-6.4V575z"/>
			<path class="st3" d="M2032.3,568.5h2.8v24.2h-2.8V568.5z"/>
			<path class="st3" d="M2055.8,590.1v2.6h-1.6c-2.3,0-3.1-1-3.2-2.7c-1.1,1.6-2.9,2.9-5.9,2.9c-3.9,0-6.5-1.9-6.5-5.1
				c0-3.5,2.5-5.5,7.1-5.5h5.2V581c0-2.3-1.6-3.7-4.4-3.7c-2.5,0-4.1,1.2-4.5,3h-2.8c0.4-3.5,3.2-5.5,7.5-5.5c4.5,0,7.1,2.2,7.1,6.4
				v7.7c0,0.9,0.3,1.2,1.1,1.2H2055.8z M2050.9,584.6h-5.5c-2.5,0-3.9,0.9-3.9,2.9c0,1.7,1.5,2.9,3.8,2.9c3.5,0,5.6-2,5.6-5V584.6z"
				/>
			<path class="st3" d="M2067.3,575v2.8h-1.4c-3.7,0-4.7,3.1-4.7,5.9v9h-2.8V575h2.5l0.4,2.7c0.8-1.3,2.2-2.7,5.3-2.7H2067.3z"/>
		</g>
	</g>
	<g>
		<g>
			<path class="st2" d="M1589.5,724.1c0-4.7,2.9-8,7.5-8c3.5,0,6,2,6.6,5.3h-2.1c-0.6-2.2-2.3-3.5-4.6-3.5c-3.3,0-5.4,2.6-5.4,6.2
				c0,3.6,2,6.2,5.3,6.2c2.4,0,4.1-1.3,4.7-3.5h2.1c-0.6,3.2-3.2,5.3-6.7,5.3C1592.4,732.1,1589.5,728.9,1589.5,724.1z"/>
			<path class="st2" d="M1617.1,726.2c0,3.5-2.3,5.8-5.5,5.8c-1.9,0-3.2-0.8-3.9-1.9v6.2h-1.8v-15.9h1.6l0.2,1.8c0.8-1.1,2-2,3.9-2
				C1614.8,720.4,1617.1,722.5,1617.1,726.2z M1615.2,726.2c0-2.5-1.5-4.2-3.8-4.2c-2.2,0-3.8,1.7-3.8,4.2c0,2.5,1.5,4.3,3.8,4.3
				C1613.7,730.4,1615.2,728.7,1615.2,726.2z"/>
			<path class="st2" d="M1619,726.2c0-3.5,2.2-5.8,5.4-5.8c3.2,0,5.3,2,5.4,5.4c0,0.2,0,0.5,0,0.8h-8.9v0.2c0.1,2.2,1.4,3.7,3.6,3.7
				c1.6,0,2.9-0.9,3.2-2.3h1.9c-0.4,2.3-2.3,4-5,4C1621.3,732.1,1619,729.7,1619,726.2z M1627.9,725.1c-0.2-2-1.5-3.1-3.4-3.1
				c-1.7,0-3.2,1.2-3.4,3.1H1627.9z"/>
			<path class="st2" d="M1641.9,730.2h1.8v4.7h-1.8v-3h-9.3v3h-1.8v-4.7h1.2c0.8-0.6,1.3-1.4,1.3-5v-4.8h8.7V730.2z M1640.1,730.2
				v-8.1h-5.1v3.3c0,2.6-0.3,3.9-0.9,4.8H1640.1z"/>
			<path class="st2" d="M1653.7,720.5h1.8v11.4h-1.8v-5h-6.4v5h-1.8v-11.4h1.8v4.8h6.4V720.5z"/>
			<path class="st2" d="M1658.3,731.9v-11.4h1.8v8.6l6.8-8.6h1.6v11.4h-1.8v-8.7l-6.8,8.7H1658.3z"/>
			<path class="st2" d="M1670.8,726.2c0-3.5,2.2-5.8,5.4-5.8c3.2,0,5.3,2,5.4,5.4c0,0.2,0,0.5,0,0.8h-8.9v0.2
				c0.1,2.2,1.4,3.7,3.6,3.7c1.6,0,2.9-0.9,3.2-2.3h1.9c-0.4,2.3-2.3,4-5,4C1673,732.1,1670.8,729.7,1670.8,726.2z M1679.7,725.1
				c-0.2-2-1.5-3.1-3.4-3.1c-1.7,0-3.2,1.2-3.4,3.1H1679.7z"/>
			<path class="st2" d="M1699.3,728.6c0,2.1-1.9,3.4-5,3.4c-3.2,0-4.6-1.3-4.7-3.6h1.9c0.3,1.4,1,2.1,2.9,2.1s3.1-0.7,3.1-1.9
				c0-1.2-0.9-1.7-2.3-1.7h-1.9v-1.6h1.8c1.3,0,2.1-0.5,2.1-1.7c0-1-1-1.7-2.7-1.7c-1.9,0-2.7,0.8-2.9,2h-1.9
				c0.1-2.1,1.9-3.6,4.9-3.6c2.9,0,4.6,1.3,4.6,3.2c0,1.4-0.8,2.2-2,2.5C1698.4,726.3,1699.3,727.1,1699.3,728.6z"/>
			<path class="st2" d="M1712.2,730.2v1.7h-1c-1.5,0-2-0.6-2.1-1.8c-0.7,1-1.9,1.9-3.8,1.9c-2.5,0-4.2-1.3-4.2-3.3
				c0-2.3,1.6-3.6,4.6-3.6h3.4v-0.8c0-1.5-1.1-2.4-2.8-2.4c-1.6,0-2.7,0.8-2.9,1.9h-1.8c0.3-2.2,2.1-3.6,4.8-3.6
				c2.9,0,4.6,1.5,4.6,4.1v5c0,0.6,0.2,0.8,0.7,0.8H1712.2z M1709,726.7h-3.5c-1.6,0-2.5,0.6-2.5,1.9c0,1.1,1,1.9,2.5,1.9
				c2.3,0,3.6-1.3,3.6-3.2V726.7z"/>
			<path class="st2" d="M1713.8,731.9v-11.4h7.3v1.7h-5.5v9.7H1713.8z"/>
			<path class="st2" d="M1721.8,726.2c0-3.5,2.3-5.8,5.7-5.8s5.7,2.4,5.7,5.8s-2.3,5.8-5.7,5.8S1721.8,729.7,1721.8,726.2z
				 M1731.3,726.2c0-2.4-1.5-4.2-3.8-4.2s-3.8,1.8-3.8,4.2c0,2.4,1.5,4.2,3.8,4.2S1731.3,728.7,1731.3,726.2z"/>
			<path class="st2" d="M1734,731.9v-1.7h0.3c1.3,0,1.8-0.8,1.8-4.2v-5.5h8.6v11.4h-1.8v-9.7h-5v3.9c0,4.5-1.1,5.8-3.3,5.8H1734z"/>
			<path class="st2" d="M1747,726.2c0-3.5,2.3-5.8,5.7-5.8s5.7,2.4,5.7,5.8s-2.3,5.8-5.7,5.8S1747,729.7,1747,726.2z M1756.5,726.2
				c0-2.4-1.5-4.2-3.8-4.2s-3.8,1.8-3.8,4.2c0,2.4,1.5,4.2,3.8,4.2S1756.5,728.7,1756.5,726.2z"/>
			<path class="st2" d="M1760.7,731.9v-11.4h4.9c2.8,0,4.2,1.1,4.2,3.1c0,1.4-0.9,2.2-1.9,2.4c1.3,0.2,2.3,1,2.3,2.6
				c0,2.2-1.6,3.3-4.5,3.3H1760.7z M1762.5,725.4h3.2c1.5,0,2.2-0.6,2.2-1.7c0-1.1-0.6-1.6-2.2-1.6h-3.2V725.4z M1762.5,730.4h3.4
				c1.6,0,2.4-0.5,2.4-1.7c0-1.1-0.8-1.7-2.4-1.7h-3.4V730.4z"/>
			<path class="st2" d="M1772.4,731.9v-11.4h1.8v4.8h2.4l3.6-4.8h2.1l-4.2,5.5l4.5,5.9h-2.2l-3.8-5h-2.5v5H1772.4z"/>
			<path class="st2" d="M1784.2,731.9v-11.4h1.8v8.6l6.8-8.6h1.6v11.4h-1.8v-8.7l-6.8,8.7H1784.2z"/>
			<path class="st2" d="M1589.8,752.8v-11.4h1.8v8.6l6.8-8.6h1.6v11.4h-1.8v-8.7l-6.8,8.7H1589.8z"/>
			<path class="st2" d="M1608.9,752.8v-11.4h4.9c2.8,0,4.2,1.1,4.2,3.1c0,1.4-0.9,2.2-1.9,2.4c1.3,0.2,2.3,1,2.3,2.6
				c0,2.2-1.6,3.3-4.5,3.3H1608.9z M1610.7,746.3h3.2c1.5,0,2.2-0.6,2.2-1.7c0-1.1-0.6-1.6-2.2-1.6h-3.2V746.3z M1610.7,751.3h3.4
				c1.6,0,2.4-0.5,2.4-1.7c0-1.1-0.8-1.7-2.4-1.7h-3.4V751.3z"/>
			<path class="st2" d="M1620.6,752.8v-11.4h1.8v3.7h2.9c2.8,0,4.5,1.4,4.5,3.8c0,2.4-1.6,3.8-4.5,3.8H1620.6z M1622.4,751.3h2.6
				c1.9,0,2.9-0.8,2.9-2.3c0-1.5-1-2.3-2.9-2.3h-2.6V751.3z M1631.7,752.8v-11.4h1.8v11.4H1631.7z"/>
			<path class="st2" d="M1647.5,747.1c0,3.5-2.3,5.8-5.5,5.8c-1.9,0-3.2-0.8-3.9-1.9v6.2h-1.8v-15.9h1.6l0.2,1.8c0.8-1.1,2-2,3.9-2
				C1645.1,741.3,1647.5,743.4,1647.5,747.1z M1645.6,747.1c0-2.5-1.5-4.2-3.8-4.2c-2.2,0-3.8,1.7-3.8,4.2c0,2.5,1.5,4.3,3.8,4.3
				C1644.1,751.3,1645.6,749.6,1645.6,747.1z"/>
			<path class="st2" d="M1660.5,751.1v1.7h-1c-1.5,0-2-0.6-2.1-1.8c-0.7,1-1.9,1.9-3.8,1.9c-2.5,0-4.2-1.3-4.2-3.3
				c0-2.3,1.6-3.6,4.6-3.6h3.4v-0.8c0-1.5-1.1-2.4-2.8-2.4c-1.6,0-2.7,0.8-2.9,1.9h-1.8c0.3-2.2,2.1-3.6,4.8-3.6
				c2.9,0,4.6,1.5,4.6,4.1v5c0,0.6,0.2,0.8,0.7,0.8H1660.5z M1657.3,747.6h-3.5c-1.6,0-2.5,0.6-2.5,1.9c0,1.1,1,1.9,2.5,1.9
				c2.3,0,3.6-1.3,3.6-3.2V747.6z"/>
			<path class="st2" d="M1671.3,749.5c0,2.1-1.9,3.4-5,3.4c-3.2,0-4.6-1.3-4.7-3.6h1.9c0.3,1.4,1,2.1,2.9,2.1s3.1-0.7,3.1-1.9
				c0-1.2-0.9-1.7-2.3-1.7h-1.9v-1.6h1.8c1.3,0,2.1-0.5,2.1-1.7c0-1-1-1.7-2.7-1.7c-1.9,0-2.7,0.8-2.9,2h-1.9
				c0.1-2.1,1.9-3.6,4.9-3.6c2.9,0,4.6,1.3,4.6,3.2c0,1.4-0.8,2.2-2,2.5C1670.4,747.2,1671.3,748,1671.3,749.5z"/>
			<path class="st2" d="M1673.5,752.8v-11.4h1.8v8.6l6.8-8.6h1.6v11.4h-1.8v-8.7l-6.8,8.7H1673.5z"/>
			<path class="st2" d="M1689.6,752.8v-9.7h-4.1v-1.7h10.1v1.7h-4.1v9.7H1689.6z"/>
			<path class="st2" d="M1696.3,747.1c0-3.5,2.2-5.8,5.4-5.8c3.2,0,5.3,2,5.4,5.4c0,0.2,0,0.5,0,0.8h-8.9v0.2
				c0.1,2.2,1.4,3.7,3.6,3.7c1.6,0,2.9-0.9,3.2-2.3h1.9c-0.4,2.3-2.3,4-5,4C1698.5,753,1696.3,750.6,1696.3,747.1z M1705.1,745.9
				c-0.2-2-1.5-3.1-3.4-3.1c-1.7,0-3.2,1.2-3.4,3.1H1705.1z"/>
			<path class="st2" d="M1707.9,752.8v-1.7h0.3c1.3,0,1.8-0.8,1.8-4.2v-5.5h8.6v11.4h-1.8v-9.7h-5v3.9c0,4.5-1.1,5.8-3.3,5.8H1707.9
				z"/>
			<path class="st2" d="M1721.4,752.8v-11.4h1.8v3.7h3.1c2.8,0,4.5,1.4,4.5,3.8c0,2.4-1.6,3.8-4.5,3.8H1721.4z M1723.2,751.3h2.8
				c1.9,0,2.9-0.8,2.9-2.3c0-1.5-1-2.3-2.9-2.3h-2.8V751.3z"/>
			<path class="st2" d="M1741.2,741.4h1.8v11.4h-1.8v-5h-6.4v5h-1.8v-11.4h1.8v4.8h6.4V741.4z"/>
			<path class="st2" d="M1745.8,752.8v-11.4h1.8v3.7h2.9c2.8,0,4.5,1.4,4.5,3.8c0,2.4-1.6,3.8-4.5,3.8H1745.8z M1747.6,751.3h2.6
				c1.9,0,2.9-0.8,2.9-2.3c0-1.5-1-2.3-2.9-2.3h-2.6V751.3z M1756.9,752.8v-11.4h1.8v11.4H1756.9z"/>
			<path class="st2" d="M1761.4,752.8v-11.4h1.8v8.6l6.8-8.6h1.6v11.4h-1.8v-8.7l-6.8,8.7H1761.4z M1763.2,737h1.5
				c0,1.1,0.5,1.8,1.8,1.8s1.8-0.7,1.8-1.8h1.5c0,1.9-1.2,3.1-3.4,3.1C1764.3,740.1,1763.3,738.9,1763.2,737z"/>
			<path class="st2" d="M1783.6,752.8v-9.7h-4.1v-1.7h10.1v1.7h-4.1v9.7H1783.6z"/>
			<path class="st2" d="M1790.2,747.1c0-3.5,2.2-5.8,5.4-5.8c3.2,0,5.3,2,5.4,5.4c0,0.2,0,0.5,0,0.8h-8.9v0.2
				c0.1,2.2,1.4,3.7,3.6,3.7c1.6,0,2.9-0.9,3.2-2.3h1.9c-0.4,2.3-2.3,4-5,4C1792.5,753,1790.2,750.6,1790.2,747.1z M1799.1,745.9
				c-0.2-2-1.5-3.1-3.4-3.1c-1.7,0-3.2,1.2-3.4,3.1H1799.1z"/>
			<path class="st2" d="M1803.4,752.8v-11.4h1.8v4.8h2.4l3.6-4.8h2.1l-4.2,5.5l4.5,5.9h-2.2l-3.8-5h-2.5v5H1803.4z"/>
			<path class="st2" d="M1814.3,747.1c0-3.5,2.3-5.9,5.6-5.9c2.8,0,4.6,1.6,5,4.1h-1.9c-0.3-1.5-1.5-2.4-3.1-2.4
				c-2.2,0-3.7,1.7-3.7,4.2c0,2.5,1.5,4.2,3.7,4.2c1.6,0,2.8-0.9,3.1-2.4h1.9c-0.4,2.5-2.3,4-5.1,4
				C1816.5,753,1814.3,750.7,1814.3,747.1z"/>
			<path class="st2" d="M1829.9,752.8v-9.7h-4.1v-1.7h10.1v1.7h-4.1v9.7H1829.9z"/>
		</g>
	</g>
	<g>
		<g>
			<path class="st3" d="M1958,715.5h4v34h-4.1v-24.4c-0.5,0.4-1.3,0.6-2.3,0.6h-5.5v-3.6h5.5c1.6,0,2.4-1.2,2.4-2.9V715.5z"/>
			<path class="st3" d="M1992.5,740.4c0,5.5-4.7,9.4-12.4,9.4c-7.7,0-12.4-3.9-12.4-9.4c0-4.6,3-7.6,6.8-8.5
				c-3.3-0.7-5.8-3.6-5.8-7.7c0-5.3,4.5-9,11.4-9s11.4,3.7,11.4,9c0,3.9-2.5,6.9-5.8,7.7C1989.5,732.8,1992.5,735.7,1992.5,740.4z
				 M1988.4,740.1c0-3.6-3.4-6.2-8.2-6.2s-8.2,2.6-8.2,6.2c0,3.6,3.4,6.2,8.2,6.2C1985,746.3,1988.4,743.8,1988.4,740.1z
				 M1980.2,729.9c4.4,0,7.2-2.2,7.2-5.6c0-3.3-2.9-5.5-7.2-5.5c-4.4,0-7.2,2.2-7.2,5.5C1972.9,727.6,1975.8,729.9,1980.2,729.9z"/>
			<path class="st3" d="M1993.8,755.9l13.7-41.8h3.9l-13.7,41.8H1993.8z"/>
			<path class="st3" d="M2013,746.1l13.2-11.5c3.2-2.7,5.8-5.3,5.8-9c0-4.3-2.9-6.7-7.4-6.7c-4.4,0-7.3,2.9-7.3,7.6v0.6h-4.1v-0.9
				c0-6.4,4.5-11,11.4-11c7.3,0,11.6,4,11.6,10.2c0,5.1-3.3,8.3-7.3,11.8l-10.2,8.6h17.8v3.7H2013V746.1z"/>
			<path class="st3" d="M2040.5,731.8c0-9.7,5.2-16.5,12.9-16.5c7.6,0,12.9,6.9,12.9,16.5v1.6c0,10.2-5.2,16.5-12.9,16.5
				c-7.7,0-12.9-6.4-12.9-16.5V731.8z M2062.1,731.9c0-8.1-3.5-12.9-8.7-12.9c-5.3,0-8.8,4.9-8.8,12.9v1.3c0,8.1,3.5,12.9,8.8,12.9
				c5.2,0,8.7-4.9,8.7-12.9V731.9z"/>
			<path class="st3" d="M1953.2,762.5h13c6.8,0,11.3,4.1,11.3,10.4c0,4.8-2.9,8.5-7.2,9.7l7.6,13.9h-4.8l-7.2-13.1h-8.6v13.1h-4.2
				V762.5z M1957.4,766.4v13.2h8.5c4.5,0,7.3-2.6,7.3-6.6c0-4-2.9-6.6-7.3-6.6H1957.4z"/>
			<path class="st3" d="M1980.6,784.2c0-7.5,4.8-12.7,11.8-12.7s11.6,4.4,11.8,11.8c0,0.5,0,1.1-0.1,1.7h-19.2v0.3
				c0.1,4.7,3.1,8,7.8,8c3.5,0,6.2-1.8,7-5.1h4c-1,5-5.1,8.6-10.8,8.6C1985.5,796.8,1980.6,791.7,1980.6,784.2z M1999.9,781.6
				c-0.4-4.3-3.3-6.7-7.4-6.7c-3.6,0-7,2.6-7.4,6.7H1999.9z"/>
			<path class="st3" d="M2029.3,771.8h3.5v23.6c0,7.1-3.8,11.2-12.3,11.2c-6.3,0-10.7-3-11.4-8.4h4.1c0.7,3.1,3.4,4.9,7.6,4.9
				c5.2,0,8-2.4,8-7.8v-2.9c-1.7,2.8-4.3,4.6-8.5,4.6c-6.9,0-11.9-4.6-11.9-12.7c0-7.6,5.1-12.7,11.9-12.7c4.2,0,6.9,1.8,8.5,4.6
				L2029.3,771.8z M2028.8,784.3c0-5.4-3.3-9.2-8.2-9.2c-4.9,0-8.2,3.7-8.2,9.1c0,5.4,3.3,9.1,8.2,9.1
				C2025.5,793.3,2028.8,789.6,2028.8,784.3z"/>
			<path class="st3" d="M2056,771.8h4v24.8h-3.5l-0.5-3.3c-1.5,1.8-3.8,3.6-7.9,3.6c-5.4,0-9.8-3.1-9.8-11.3v-13.8h4v13.6
				c0,5.1,2.3,7.9,6.5,7.9c4.5,0,7.2-3.4,7.2-9V771.8z"/>
			<path class="st3" d="M2065.9,762.5h4v34h-4V762.5z"/>
			<path class="st3" d="M2099,792.9v3.6h-2.2c-3.3,0-4.4-1.4-4.5-3.8c-1.6,2.2-4,4.1-8.3,4.1c-5.4,0-9.1-2.7-9.1-7.2
				c0-5,3.4-7.7,10-7.7h7.3v-1.7c0-3.2-2.3-5.1-6.2-5.1c-3.5,0-5.8,1.7-6.3,4.2h-4c0.6-4.9,4.5-7.7,10.5-7.7c6.3,0,10,3.2,10,8.9
				v10.8c0,1.3,0.5,1.7,1.6,1.7H2099z M2092.1,785.2h-7.7c-3.5,0-5.5,1.3-5.5,4.1c0,2.4,2.1,4.1,5.4,4.1c5,0,7.8-2.9,7.8-7V785.2z"
				/>
			<path class="st3" d="M2115.1,771.8v3.9h-2c-5.2,0-6.6,4.3-6.6,8.3v12.6h-4v-24.8h3.4l0.5,3.7c1.2-1.9,3.1-3.7,7.5-3.7H2115.1z"/>
		</g>
	</g>
	<g>
		<g>
			<path class="st2" d="M1589.4,944.3h2c0.1,2.1,1.6,3,3.9,3c2.3,0,3.7-1,3.7-2.8c0-1.8-1.3-2.7-3.7-2.7h-1.6v-1.6h1.5
				c2.3,0,3.4-1,3.4-2.7c0-1.7-1.4-2.5-3.4-2.5c-2.2,0-3.6,1.1-3.7,2.9h-2c0.1-2.8,2.4-4.7,5.7-4.7c3.4,0,5.4,1.7,5.4,4.1
				c0,2.1-1,3.2-2.6,3.6c1.5,0.4,3,1.4,3,3.8c0,2.7-2.3,4.5-5.8,4.5C1591.5,949.1,1589.5,947.4,1589.4,944.3z"/>
			<path class="st2" d="M1614.1,947.3v1.7h-1c-1.5,0-2-0.6-2.1-1.8c-0.7,1-1.9,1.9-3.8,1.9c-2.5,0-4.2-1.3-4.2-3.3
				c0-2.3,1.6-3.6,4.6-3.6h3.4v-0.8c0-1.5-1.1-2.4-2.8-2.4c-1.6,0-2.7,0.8-2.9,1.9h-1.8c0.3-2.2,2.1-3.6,4.8-3.6
				c2.9,0,4.6,1.5,4.6,4.1v5c0,0.6,0.2,0.8,0.7,0.8H1614.1z M1610.9,943.7h-3.5c-1.6,0-2.5,0.6-2.5,1.9c0,1.1,1,1.9,2.5,1.9
				c2.3,0,3.6-1.3,3.6-3.2V943.7z"/>
			<path class="st2" d="M1615.7,949v-11.4h7.3v1.7h-5.5v9.7H1615.7z"/>
			<path class="st2" d="M1623.7,943.2c0-3.5,2.3-5.8,5.7-5.8c3.3,0,5.7,2.4,5.7,5.8c0,3.5-2.3,5.8-5.7,5.8
				C1626.1,949.1,1623.7,946.7,1623.7,943.2z M1633.2,943.2c0-2.4-1.5-4.2-3.8-4.2c-2.3,0-3.8,1.8-3.8,4.2s1.5,4.2,3.8,4.2
				C1631.7,947.5,1633.2,945.7,1633.2,943.2z"/>
			<path class="st2" d="M1635.8,949v-1.7h0.3c1.3,0,1.8-0.8,1.8-4.2v-5.5h8.6V949h-1.8v-9.7h-5v3.9c0,4.5-1.1,5.8-3.3,5.8H1635.8z"
				/>
			<path class="st2" d="M1648.9,943.2c0-3.5,2.3-5.8,5.7-5.8c3.3,0,5.7,2.4,5.7,5.8c0,3.5-2.3,5.8-5.7,5.8
				C1651.3,949.1,1648.9,946.7,1648.9,943.2z M1658.4,943.2c0-2.4-1.5-4.2-3.8-4.2c-2.3,0-3.8,1.8-3.8,4.2s1.5,4.2,3.8,4.2
				C1656.9,947.5,1658.4,945.7,1658.4,943.2z"/>
			<path class="st2" d="M1662.6,949v-11.4h4.9c2.8,0,4.2,1.1,4.2,3.1c0,1.4-0.9,2.2-1.9,2.4c1.3,0.2,2.3,1,2.3,2.6
				c0,2.2-1.6,3.3-4.5,3.3H1662.6z M1664.4,942.4h3.2c1.5,0,2.2-0.6,2.2-1.7c0-1.1-0.6-1.6-2.2-1.6h-3.2V942.4z M1664.4,947.4h3.4
				c1.6,0,2.4-0.5,2.4-1.7c0-1.1-0.9-1.7-2.4-1.7h-3.4V947.4z"/>
			<path class="st2" d="M1674.3,949v-11.4h1.8v4.8h2.4l3.6-4.8h2.1l-4.2,5.5l4.5,5.9h-2.2l-3.8-5h-2.5v5H1674.3z"/>
			<path class="st2" d="M1686.1,949v-11.4h1.8v8.6l6.8-8.6h1.6V949h-1.8v-8.7l-6.8,8.7H1686.1z"/>
			<path class="st2" d="M1707.6,933.3h1.8V949h-1.9v-11.2c-0.2,0.2-0.6,0.3-1.1,0.3h-2.5v-1.7h2.6c0.7,0,1.1-0.6,1.1-1.3V933.3z"/>
		</g>
	</g>
	<g>
		<g>
			<path class="st3" d="M1989.7,972.9c0,8.9-7.5,15-18.9,15s-18.8-6.2-18.8-16.7h6.2c0.1,6.9,5.5,11.1,12.9,11.1
				c6.8,0,12.1-3.8,12.1-9.9c0-5.5-4.5-9-12.7-9h-4.5v-5.5h4.1c7.8,0,11.7-3.9,11.7-9.2s-4.8-8.6-11.1-8.6c-6.6,0-11.4,4-11.5,10
				h-6.2c0.1-9.2,7.3-15.6,17.7-15.6c10.8,0,17.7,5.6,17.7,13.9c0,6.6-3.5,10.5-8.5,11.8C1984.7,961,1989.7,964.8,1989.7,972.9z"/>
			<path class="st3" d="M1996,961.4c0-16.5,7.4-27,20-27c9.5,0,16.1,5.7,17.4,14.5h-6.3c-1.2-5.3-5-8.9-11.4-8.9
				c-9.2,0-14.2,8.3-14.2,20.2c0,0.8,0,1.3,0.1,2.6c0.1-0.3,0.2-0.8,0.5-1.4c2.3-5.2,7.6-8.6,14.7-8.6c10.4,0,17.7,6.8,17.7,17.6
				c0,10.2-7.4,17.7-18.3,17.7c-7.3,0-12.6-3.3-15.9-8.7C1997.5,974.6,1996,968.3,1996,961.4z M2016.2,958.2
				c-7.3,0-12.3,5-12.3,12.2c0,7.1,4.8,12,12,12c7.3,0,12-5,12-12.1C2028,963.3,2023.5,958.2,2016.2,958.2z"/>
			<path class="st3" d="M2034.7,997.3l21.3-64.7h6.1l-21.3,64.7H2034.7z"/>
			<path class="st3" d="M2060.5,969l26.8-34.1h7.1v34h8.5v5.8h-8.5v12.9h-6.3v-12.9h-27.6V969z M2067.6,968.8h20.5v-26.2
				L2067.6,968.8z"/>
			<path class="st3" d="M2106.9,960c0-15,8.1-25.6,20-25.6c11.8,0,19.9,10.6,19.9,25.6v2.4c0,15.7-8.1,25.6-19.9,25.6
				c-11.9,0-20-9.9-20-25.6V960z M2140.4,960.2c0-12.5-5.4-20-13.5-20c-8.2,0-13.6,7.5-13.6,20v2c0,12.5,5.4,20,13.6,20
				c8.1,0,13.5-7.5,13.5-20V960.2z"/>
			<path class="st3" d="M1955,1007.6h20.2c10.5,0,17.5,6.3,17.5,16.2c0,7.4-4.4,13.1-11.2,15l11.8,21.5h-7.4l-11.1-20.2h-13.2v20.2
				h-6.5V1007.6z M1961.5,1013.6v20.4h13.1c6.9,0,11.4-4.1,11.4-10.2s-4.4-10.2-11.3-10.2H1961.5z"/>
			<path class="st3" d="M1996.7,1041.1c0-11.7,7.4-19.6,18.2-19.6s17.9,6.8,18.2,18.2c0,0.8-0.1,1.7-0.2,2.6h-29.8v0.5
				c0.2,7.3,4.8,12.4,12.1,12.4c5.4,0,9.6-2.9,10.9-7.8h6.2c-1.5,7.7-7.8,13.3-16.7,13.3C2004.3,1060.7,1996.7,1052.8,1996.7,1041.1
				z M2026.5,1037.2c-0.6-6.6-5.1-10.3-11.5-10.3c-5.6,0-10.8,4.1-11.4,10.3H2026.5z"/>
			<path class="st3" d="M2071.3,1021.9h5.3v36.5c0,11.1-5.9,17.4-19,17.4c-9.8,0-16.6-4.6-17.6-13h6.3c1.1,4.8,5.3,7.5,11.7,7.5
				c8,0,12.4-3.8,12.4-12.1v-4.5c-2.6,4.4-6.7,7.1-13.2,7.1c-10.6,0-18.4-7.1-18.4-19.6c0-11.7,7.8-19.6,18.4-19.6
				c6.5,0,10.8,2.8,13.2,7.1L2071.3,1021.9z M2070.5,1041.2c0-8.4-5.1-14.3-12.6-14.3c-7.6,0-12.7,5.8-12.7,14.1s5.1,14.1,12.7,14.1
				C2065.4,1055.2,2070.5,1049.4,2070.5,1041.2z"/>
			<path class="st3" d="M2111.9,1021.9h6.2v38.3h-5.3l-0.8-5.1c-2.3,2.9-5.9,5.6-12.3,5.6c-8.4,0-15.1-4.7-15.1-17.4v-21.4h6.2v21
				c0,8,3.6,12.2,10,12.2c7,0,11.2-5.3,11.2-14V1021.9z"/>
			<path class="st3" d="M2126.5,1007.6h6.2v52.6h-6.2V1007.6z"/>
			<path class="st3" d="M2176.9,1054.6v5.6h-3.4c-5.1,0-6.8-2.2-6.9-5.9c-2.4,3.5-6.2,6.4-12.9,6.4c-8.4,0-14.1-4.2-14.1-11.2
				c0-7.7,5.3-12,15.4-12h11.3v-2.6c0-5-3.5-8-9.5-8c-5.4,0-9,2.6-9.8,6.5h-6.2c0.9-7.5,7-12,16.2-12c9.8,0,15.4,4.9,15.4,13.8v16.8
				c0,2,0.8,2.6,2.5,2.6H2176.9z M2166.3,1042.7h-11.9c-5.5,0-8.6,2-8.6,6.4c0,3.8,3.2,6.3,8.3,6.3c7.7,0,12.1-4.4,12.1-10.8V1042.7
				z"/>
			<path class="st3" d="M2201.1,1021.9v6h-3.1c-8,0-10.2,6.7-10.2,12.8v19.6h-6.2v-38.3h5.3l0.8,5.8c1.8-2.9,4.7-5.8,11.6-5.8
				H2201.1z"/>
		</g>
	</g>
	<g>
		<g>
			<path class="st2" d="M1589.4,1229.4h2c0.1,2.1,1.6,3,3.9,3c2.3,0,3.7-1,3.7-2.8c0-1.8-1.3-2.7-3.7-2.7h-1.6v-1.6h1.5
				c2.3,0,3.4-1,3.4-2.7c0-1.7-1.4-2.5-3.4-2.5c-2.2,0-3.6,1.1-3.7,2.9h-2c0.1-2.8,2.4-4.7,5.7-4.7c3.4,0,5.4,1.7,5.4,4.1
				c0,2.1-1,3.2-2.6,3.6c1.5,0.4,3,1.4,3,3.8c0,2.7-2.3,4.5-5.8,4.5C1591.5,1234.2,1589.5,1232.5,1589.4,1229.4z"/>
			<path class="st2" d="M1614.1,1232.4v1.7h-1c-1.5,0-2-0.6-2.1-1.8c-0.7,1-1.9,1.9-3.8,1.9c-2.5,0-4.2-1.3-4.2-3.3
				c0-2.3,1.6-3.6,4.6-3.6h3.4v-0.8c0-1.5-1.1-2.4-2.8-2.4c-1.6,0-2.7,0.8-2.9,1.9h-1.8c0.3-2.2,2.1-3.6,4.8-3.6
				c2.9,0,4.6,1.5,4.6,4.1v5c0,0.6,0.2,0.8,0.7,0.8H1614.1z M1610.9,1228.9h-3.5c-1.6,0-2.5,0.6-2.5,1.9c0,1.1,1,1.9,2.5,1.9
				c2.3,0,3.6-1.3,3.6-3.2V1228.9z"/>
			<path class="st2" d="M1615.7,1234.1v-11.4h7.3v1.7h-5.5v9.7H1615.7z"/>
			<path class="st2" d="M1623.7,1228.4c0-3.5,2.3-5.8,5.7-5.8c3.3,0,5.7,2.4,5.7,5.8c0,3.5-2.3,5.8-5.7,5.8
				C1626.1,1234.2,1623.7,1231.9,1623.7,1228.4z M1633.2,1228.4c0-2.4-1.5-4.2-3.8-4.2c-2.3,0-3.8,1.8-3.8,4.2s1.5,4.2,3.8,4.2
				C1631.7,1232.6,1633.2,1230.8,1633.2,1228.4z"/>
			<path class="st2" d="M1635.8,1234.1v-1.7h0.3c1.3,0,1.8-0.8,1.8-4.2v-5.5h8.6v11.4h-1.8v-9.7h-5v3.9c0,4.5-1.1,5.8-3.3,5.8
				H1635.8z"/>
			<path class="st2" d="M1648.9,1228.4c0-3.5,2.3-5.8,5.7-5.8c3.3,0,5.7,2.4,5.7,5.8c0,3.5-2.3,5.8-5.7,5.8
				C1651.3,1234.2,1648.9,1231.9,1648.9,1228.4z M1658.4,1228.4c0-2.4-1.5-4.2-3.8-4.2c-2.3,0-3.8,1.8-3.8,4.2s1.5,4.2,3.8,4.2
				C1656.9,1232.6,1658.4,1230.8,1658.4,1228.4z"/>
			<path class="st2" d="M1662.6,1234.1v-11.4h4.9c2.8,0,4.2,1.1,4.2,3.1c0,1.4-0.9,2.2-1.9,2.4c1.3,0.2,2.3,1,2.3,2.6
				c0,2.2-1.6,3.3-4.5,3.3H1662.6z M1664.4,1227.5h3.2c1.5,0,2.2-0.6,2.2-1.7c0-1.1-0.6-1.6-2.2-1.6h-3.2V1227.5z M1664.4,1232.5
				h3.4c1.6,0,2.4-0.5,2.4-1.7c0-1.1-0.9-1.7-2.4-1.7h-3.4V1232.5z"/>
			<path class="st2" d="M1674.3,1234.1v-11.4h1.8v4.8h2.4l3.6-4.8h2.1l-4.2,5.5l4.5,5.9h-2.2l-3.8-5h-2.5v5H1674.3z"/>
			<path class="st2" d="M1686.1,1234.1v-11.4h1.8v8.6l6.8-8.6h1.6v11.4h-1.8v-8.7l-6.8,8.7H1686.1z"/>
			<path class="st2" d="M1704.4,1232.5l6.1-5.3c1.5-1.3,2.7-2.5,2.7-4.2c0-2-1.3-3.1-3.4-3.1c-2,0-3.4,1.3-3.4,3.5v0.3h-1.9v-0.4
				c0-3,2.1-5.1,5.2-5.1c3.4,0,5.3,1.9,5.3,4.7c0,2.3-1.5,3.8-3.4,5.4l-4.7,4h8.2v1.7h-10.8V1232.5z"/>
		</g>
	</g>
	<g>
		<g>
			<path class="st3" d="M1950.8,1217h56.4v8.3l-36.9,70.4H1957l36.6-67.8h-42.8V1217z"/>
			<path class="st3" d="M2010.9,1285.6l30.2-25.7c7.1-6,12.4-11.5,12.4-19c0-9-6-13.9-14.9-13.9s-15.1,6.1-15.1,15.8v1.3H2011v-2
				c0-14.9,10.8-25.8,27.5-25.8c17.6,0,27.5,9.7,27.5,24c0,11.7-7.1,19-16.6,27l-20.9,17.4h38.1v10.9h-55.7V1285.6z"/>
			<path class="st3" d="M2070.6,1310.2l31.8-96.6h9.1l-31.8,96.6H2070.6z"/>
			<path class="st3" d="M2114.3,1256.8c0-25.5,11.8-40.6,31-40.6c14.5,0,25.1,8.4,27,22.3h-12.4c-1.7-7.3-7-11.9-15.4-11.9
				c-12.1,0-18.9,10.6-18.9,26.9c0,0.9,0,1.6,0.1,3c0.2-0.5,0.3-1.1,0.8-1.9c3.6-6.9,11-11.3,20.5-11.3c15.6,0,26.5,10.6,26.5,26.5
				c0,15.5-11.5,26.5-28.2,26.5c-10.9,0-19.1-4.7-24.4-12.7C2116.8,1276.7,2114.3,1267.4,2114.3,1256.8z M2145.4,1253.5
				c-9.6,0-16.2,6.6-16.2,16.4c0,9.6,6.4,16.2,16,16.2s15.8-6.7,15.8-16.3S2155.1,1253.5,2145.4,1253.5z"/>
			<path class="st3" d="M2240.4,1274.2c0,13-11,22.1-29.6,22.1s-29.4-9.1-29.4-22.1c0-10.9,7.2-17.4,15.6-19.3
				c-7.2-1.8-13.5-8.1-13.5-17.6c0-12.2,10.6-20.9,27.3-20.9c16.9,0,27.4,8.7,27.4,20.9c0,9.2-6.3,15.8-13.6,17.5
				C2233.1,1256.5,2240.4,1263,2240.4,1274.2z M2227.7,1273.5c0-7.6-6.9-13.1-16.9-13.1c-9.9,0-16.7,5.5-16.7,13.1
				c0,7.6,6.9,13.3,16.7,13.3C2220.8,1286.7,2227.7,1281.1,2227.7,1273.5z M2196.1,1237.5c0,7,5.8,11.7,14.7,11.7
				c9,0,14.8-4.7,14.8-11.7c0-6.9-5.8-11.6-14.8-11.6C2201.9,1225.9,2196.1,1230.7,2196.1,1237.5z"/>
			<path class="st3" d="M1957.1,1325.7h16.7l25.2,61.9l24.7-61.9h16.4v78.7h-12.5v-57.9l-23.6,57.9h-10.9l-23.6-57.9v57.9h-12.5
				V1325.7z"/>
			<path class="st3" d="M2051.1,1375.7c0-17.8,11.3-29.6,28.3-29.6c16.6,0,27.8,10.6,28.1,27.4c0,1.5-0.1,3-0.3,4.6h-43.4v0.8
				c0.3,9.8,6.5,16.2,16.1,16.2c7.4,0,12.8-3.7,14.5-10.1h12.1c-2,11.3-11.7,20-26,20C2062.5,1405,2051.1,1393.4,2051.1,1375.7z
				 M2095,1369.3c-1-8.5-7-13.4-15.4-13.4c-7.8,0-14.4,5.2-15.3,13.4H2095z"/>
			<path class="st3" d="M2161,1325.7h12.1v78.7h-10.6l-1.5-8.7c-3.7,5.1-9.7,9.3-18.8,9.3c-15.6,0-27.2-11-27.2-29.4
				c0-17.8,11.6-29.4,27.2-29.4c8.8,0,14.9,3.6,18.7,8.7V1325.7z M2161.1,1375.8c0-11.5-6.6-19.3-16.7-19.3
				c-10.1,0-16.7,7.9-16.7,19.1c0,11.4,6.6,19.2,16.7,19.2C2154.5,1394.8,2161.1,1386.9,2161.1,1375.8z"/>
			<path class="st3" d="M2183.8,1331.4c0-4.3,3.3-7.3,7.4-7.3s7.4,3,7.4,7.3s-3.3,7.3-7.4,7.3S2183.8,1335.7,2183.8,1331.4z
				 M2185.1,1346.8h12.1v57.5h-12.1V1346.8z"/>
			<path class="st3" d="M2248.6,1346.8h12.1v57.5H2250l-1.3-7.3c-3.6,4.4-8.9,8-17.8,8c-12.2,0-22.7-6.5-22.7-26.2v-32h12.1v30.7
				c0,11.2,4.5,17,13.4,17c9.2,0,14.8-7,14.8-18.9V1346.8z"/>
			<path class="st3" d="M2360.4,1371.2v33.2h-12.1V1372c0-10.1-4.2-15.4-12-15.4c-8.3,0-13.6,6.3-13.6,16.6v31.1h-12.2V1372
				c0-10.1-4.2-15.4-12.1-15.4c-8.3,0-13.5,6.7-13.5,17v30.8h-12.1v-57.5h10.6l1.3,7.5c3.3-4.3,8.2-8.1,16.9-8.2
				c7.5,0,14.3,3,17.8,10.5c3.7-6.3,10.2-10.5,19.7-10.5C2350.7,1346.2,2360.4,1353,2360.4,1371.2z"/>
		</g>
	</g>
	<g>
		<g>
			<path class="st2" d="M1589.4,1583h2c0.1,2.1,1.6,3,3.9,3c2.3,0,3.7-1,3.7-2.8c0-1.8-1.3-2.7-3.7-2.7h-1.6v-1.6h1.5
				c2.3,0,3.4-1,3.4-2.7c0-1.7-1.4-2.5-3.4-2.5c-2.2,0-3.6,1.1-3.7,2.9h-2c0.1-2.8,2.4-4.7,5.7-4.7c3.4,0,5.4,1.7,5.4,4.1
				c0,2.1-1,3.2-2.6,3.6c1.5,0.4,3,1.4,3,3.8c0,2.7-2.3,4.5-5.8,4.5C1591.5,1587.9,1589.5,1586.1,1589.4,1583z"/>
			<path class="st2" d="M1614.1,1586.1v1.7h-1c-1.5,0-2-0.6-2.1-1.8c-0.7,1-1.9,1.9-3.8,1.9c-2.5,0-4.2-1.3-4.2-3.3
				c0-2.3,1.6-3.6,4.6-3.6h3.4v-0.8c0-1.5-1.1-2.4-2.8-2.4c-1.6,0-2.7,0.8-2.9,1.9h-1.8c0.3-2.2,2.1-3.6,4.8-3.6
				c2.9,0,4.6,1.5,4.6,4.1v5c0,0.6,0.2,0.8,0.7,0.8H1614.1z M1610.9,1582.5h-3.5c-1.6,0-2.5,0.6-2.5,1.9c0,1.1,1,1.9,2.5,1.9
				c2.3,0,3.6-1.3,3.6-3.2V1582.5z"/>
			<path class="st2" d="M1615.7,1587.7v-11.4h7.3v1.7h-5.5v9.7H1615.7z"/>
			<path class="st2" d="M1623.7,1582c0-3.5,2.3-5.8,5.7-5.8c3.3,0,5.7,2.4,5.7,5.8c0,3.5-2.3,5.8-5.7,5.8
				C1626.1,1587.9,1623.7,1585.5,1623.7,1582z M1633.2,1582c0-2.4-1.5-4.2-3.8-4.2c-2.3,0-3.8,1.8-3.8,4.2s1.5,4.2,3.8,4.2
				C1631.7,1586.2,1633.2,1584.5,1633.2,1582z"/>
			<path class="st2" d="M1635.8,1587.7v-1.7h0.3c1.3,0,1.8-0.8,1.8-4.2v-5.5h8.6v11.4h-1.8v-9.7h-5v3.9c0,4.5-1.1,5.8-3.3,5.8
				H1635.8z"/>
			<path class="st2" d="M1648.9,1582c0-3.5,2.3-5.8,5.7-5.8c3.3,0,5.7,2.4,5.7,5.8c0,3.5-2.3,5.8-5.7,5.8
				C1651.3,1587.9,1648.9,1585.5,1648.9,1582z M1658.4,1582c0-2.4-1.5-4.2-3.8-4.2c-2.3,0-3.8,1.8-3.8,4.2s1.5,4.2,3.8,4.2
				C1656.9,1586.2,1658.4,1584.5,1658.4,1582z"/>
			<path class="st2" d="M1662.6,1587.7v-11.4h4.9c2.8,0,4.2,1.1,4.2,3.1c0,1.4-0.9,2.2-1.9,2.4c1.3,0.2,2.3,1,2.3,2.6
				c0,2.2-1.6,3.3-4.5,3.3H1662.6z M1664.4,1581.2h3.2c1.5,0,2.2-0.6,2.2-1.7c0-1.1-0.6-1.6-2.2-1.6h-3.2V1581.2z M1664.4,1586.2
				h3.4c1.6,0,2.4-0.5,2.4-1.7c0-1.1-0.9-1.7-2.4-1.7h-3.4V1586.2z"/>
			<path class="st2" d="M1674.3,1587.7v-11.4h1.8v4.8h2.4l3.6-4.8h2.1l-4.2,5.5l4.5,5.9h-2.2l-3.8-5h-2.5v5H1674.3z"/>
			<path class="st2" d="M1686.1,1587.7v-11.4h1.8v8.6l6.8-8.6h1.6v11.4h-1.8v-8.7l-6.8,8.7H1686.1z"/>
			<path class="st2" d="M1715.8,1583.4c0,2.7-2.2,4.5-5.6,4.5c-3.4,0-5.6-1.9-5.6-5h1.9c0,2.1,1.6,3.3,3.8,3.3c2,0,3.6-1.1,3.6-2.9
				c0-1.6-1.3-2.7-3.8-2.7h-1.3v-1.6h1.2c2.3,0,3.5-1.2,3.5-2.8c0-1.6-1.4-2.6-3.3-2.6c-2,0-3.4,1.2-3.4,3h-1.9
				c0-2.8,2.2-4.7,5.3-4.7c3.2,0,5.3,1.7,5.3,4.1c0,2-1,3.1-2.5,3.5C1714.3,1579.9,1715.8,1581,1715.8,1583.4z"/>
		</g>
	</g>
	<g>
		<g>
			<path class="st3" d="M1985.8,1564.4h23.6v151.3h-24V1612c-2.2,1.3-5.4,1.9-9.5,1.9h-24.6v-20.5h23.6c7.8,0,11-5.6,11-13.6V1564.4
				z"/>
			<path class="st3" d="M2029.6,1636.6c0-43.9,24.4-73.5,59.7-73.5s59.7,29.6,59.7,73.5v6.9c0,45.6-24.4,73.5-59.7,73.5
				s-59.7-27.9-59.7-73.5V1636.6z M2124.7,1637.5c0-33.7-14.3-53.4-35.4-53.4c-21.2,0-35.4,19.7-35.4,53.4v5.2
				c0,33.9,14.3,53.4,35.4,53.4c21.2,0,35.4-19.5,35.4-53.4V1637.5z"/>
			<path class="st3" d="M2276.3,1674.4c0,25.1-21.2,42.6-56.8,42.6s-56.6-17.5-56.6-42.6c0-21,13.8-33.5,30-37.2
				c-13.8-3.5-25.9-15.6-25.9-33.9c0-23.6,20.3-40.2,52.5-40.2c32.4,0,52.7,16.6,52.7,40.2c0,17.7-12.1,30.5-26.2,33.7
				C2262.2,1640.5,2276.3,1653,2276.3,1674.4z M2251.8,1673.1c0-14.7-13.2-25.3-32.4-25.3c-19,0-32.2,10.6-32.2,25.3
				c0,14.7,13.2,25.5,32.2,25.5C2238.6,1698.6,2251.8,1687.8,2251.8,1673.1z M2191.1,1604c0,13.4,11.2,22.5,28.3,22.5
				c17.3,0,28.5-9.1,28.5-22.5c0-13.2-11.2-22.3-28.5-22.3C2202.3,1581.7,2191.1,1590.8,2191.1,1604z"/>
			<path class="st3" d="M2282.9,1743.8l61.2-185.9h17.5l-61.2,185.9H2282.9z"/>
			<path class="st3" d="M2392.3,1564.4h23.6v151.3h-24V1612c-2.2,1.3-5.4,1.9-9.5,1.9h-24.6v-20.5h23.6c7.8,0,11-5.6,11-13.6V1564.4
				z"/>
			<path class="st3" d="M2436.2,1636.6c0-43.9,24.4-73.5,59.7-73.5s59.7,29.6,59.7,73.5v6.9c0,45.6-24.4,73.5-59.7,73.5
				s-59.7-27.9-59.7-73.5V1636.6z M2531.3,1637.5c0-33.7-14.3-53.4-35.4-53.4c-21.2,0-35.4,19.7-35.4,53.4v5.2
				c0,33.9,14.3,53.4,35.4,53.4c21.2,0,35.4-19.5,35.4-53.4V1637.5z"/>
			<path class="st3" d="M2566.5,1696.5l58.1-49.5c13.6-11.5,23.8-22,23.8-36.5c0-17.3-11.5-26.8-28.7-26.8c-17.3,0-29,11.7-29,30.5
				v2.6h-24v-3.9c0-28.7,20.8-49.7,53-49.7c33.9,0,53,18.6,53,46.3c0,22.5-13.6,36.5-32,51.9l-40.2,33.5h73.3v21h-107.2V1696.5z"/>
			<path class="st3" d="M1963.7,1749.7h32.2l48.4,119.1l47.6-119.1h31.6V1901h-24v-111.3l-45.4,111.3h-21l-45.4-111.3V1901h-24
				V1749.7z"/>
			<path class="st3" d="M2142.5,1845.9c0-34.2,21.8-56.8,54.5-56.8c32,0,53.4,20.3,54,52.7c0,2.8-0.2,5.8-0.6,8.9h-83.4v1.5
				c0.6,18.8,12.5,31.1,30.9,31.1c14.3,0,24.6-7.1,27.9-19.5h23.3c-3.9,21.8-22.5,38.5-49.9,38.5
				C2164.3,1902.3,2142.5,1879.8,2142.5,1845.9z M2226.8,1833.6c-1.9-16.4-13.4-25.7-29.6-25.7c-14.9,0-27.7,9.9-29.4,25.7H2226.8z"
				/>
			<path class="st3" d="M2351.7,1749.7h23.3V1901h-20.3l-2.8-16.6c-7.1,9.7-18.6,17.9-36.1,17.9c-30,0-52.3-21.2-52.3-56.6
				c0-34.2,22.3-56.6,52.3-56.6c16.9,0,28.7,6.9,35.9,16.6V1749.7z M2351.9,1846.1c0-22-12.8-37.2-32.2-37.2
				c-19.5,0-32.2,15.1-32.2,36.7c0,21.8,12.8,37,32.2,37C2339.1,1882.6,2351.9,1867.5,2351.9,1846.1z"/>
			<path class="st3" d="M2393.4,1760.7c0-8.2,6.3-14,14.3-14s14.3,5.8,14.3,14c0,8.2-6.3,14-14.3,14S2393.4,1768.9,2393.4,1760.7z
				 M2395.8,1790.3h23.3V1901h-23.3V1790.3z"/>
			<path class="st3" d="M2515.7,1790.3h23.3V1901h-20.5l-2.6-14c-6.9,8.4-17.1,15.3-34.2,15.3c-23.6,0-43.7-12.5-43.7-50.4v-61.6
				h23.3v59c0,21.6,8.6,32.6,25.7,32.6c17.7,0,28.5-13.4,28.5-36.3V1790.3z"/>
			<path class="st3" d="M2728.6,1837.2v63.8h-23.3v-62.2c0-19.5-8-29.6-23.1-29.6c-16,0-26.2,12.1-26.2,32v59.9h-23.6v-62.2
				c0-19.5-8-29.6-23.3-29.6c-16,0-25.9,13-25.9,32.6v59.2h-23.3v-110.7h20.3l2.6,14.5c6.3-8.2,15.8-15.6,32.4-15.8
				c14.5,0,27.4,5.8,34.1,20.1c7.1-12.1,19.7-20.1,37.8-20.1C2710,1789,2728.6,1802.2,2728.6,1837.2z"/>
		</g>
	</g>
	<g>
		<g>
			<path class="st2" d="M1952,49.3h12.3V52h-9.2v5.2h7.6v2.7h-7.6v5.5h9.6v2.8H1952V49.3z"/>
			<path class="st2" d="M1967.2,68.1V49.3h3.1v16.1h8.1v2.8H1967.2z"/>
			<path class="st2" d="M1976.8,49.3h14.8V52h-5.8v16.1h-3.1V52h-5.8V49.3z"/>
			<path class="st2" d="M1989.7,68.1l7.1-18.9h3.7l7,18.9h-3.3l-1.8-4.7h-7.7l-1.8,4.7H1989.7z M1995.6,60.8h6l-3-8.2L1995.6,60.8z"
				/>
			<path class="st2" d="M2018.8,62c0.2,2.2,1.9,3.7,4.5,3.7c2.2,0,3.9-1,3.9-2.8c0-2-2-2.4-5-3c-3.1-0.5-6.1-1.5-6.1-5.3
				c0-3.3,2.7-5.5,6.7-5.5c4.3,0,7,2.3,7.2,5.8h-3.1c-0.2-1.9-1.8-3.2-4-3.2c-2.1,0-3.6,0.9-3.6,2.7c0,1.9,1.9,2.3,4.9,2.9
				c3.1,0.6,6.2,1.6,6.2,5.3c0,3.4-2.8,5.7-7,5.7c-4.7,0-7.5-2.6-7.6-6.4L2018.8,62z"/>
			<path class="st2" d="M2030.8,68.1l7.1-18.9h3.7l7,18.9h-3.3l-1.8-4.7h-7.7l-1.8,4.7H2030.8z M2036.7,60.8h6l-3-8.2L2036.7,60.8z"
				/>
			<path class="st2" d="M2050.6,68.1V49.3h2.8l9.2,13.4V49.3h3v18.9h-2.8l-9.2-13.4v13.4H2050.6z"/>
			<path class="st2" d="M2071.5,62c0.2,2.2,1.9,3.7,4.5,3.7c2.2,0,3.9-1,3.9-2.8c0-2-2-2.4-5-3c-3.1-0.5-6.1-1.5-6.1-5.3
				c0-3.3,2.7-5.5,6.7-5.5c4.3,0,7,2.3,7.2,5.8h-3.1c-0.2-1.9-1.8-3.2-4-3.2c-2.1,0-3.6,0.9-3.6,2.7c0,1.9,1.9,2.3,4.9,2.9
				c3.1,0.6,6.2,1.6,6.2,5.3c0,3.4-2.8,5.7-7,5.7c-4.7,0-7.5-2.6-7.6-6.4L2071.5,62z"/>
			<path class="st2" d="M1952,74.3h7.5c3.9,0,6.5,2.3,6.5,6c0,3.6-2.6,6-6.5,6h-4.3v6.9h-3.1V74.3z M1955.1,77v6.6h4.1
				c2.2,0,3.6-1.3,3.6-3.3c0-2.1-1.4-3.3-3.6-3.3H1955.1z"/>
			<path class="st2" d="M1968.4,74.3h7.5c3.9,0,6.6,2.3,6.6,6c0,2.5-1.5,4.6-3.7,5.3l4,7.5h-3.5l-3.6-6.9h-4.2v6.9h-3.1V74.3z
				 M1971.5,77v6.6h4.1c2.2,0,3.6-1.3,3.6-3.3s-1.4-3.3-3.6-3.3H1971.5z"/>
			<path class="st2" d="M1993.5,93.3c-5.4,0-9.2-4.1-9.2-9.6c0-5.5,3.8-9.6,9.2-9.6c5.4,0,9.2,4.1,9.2,9.6
				C2002.7,89.2,1998.9,93.3,1993.5,93.3z M1993.5,90.6c3.6,0,6-2.9,6-6.9c0-4-2.4-6.9-6-6.9c-3.6,0-6,2.9-6,6.9
				C1987.5,87.7,1989.9,90.6,1993.5,90.6z"/>
		</g>
	</g>
</g>
<g>
	<g>
		<g>
			<path class="st2" d="M44.8,548.6h2c0.1,2.1,1.6,3,3.9,3c2.3,0,3.7-1,3.7-2.8c0-1.8-1.3-2.7-3.7-2.7h-1.6v-1.6h1.5
				c2.3,0,3.4-1,3.4-2.7c0-1.7-1.4-2.5-3.4-2.5c-2.2,0-3.6,1.1-3.7,2.9h-2c0.1-2.8,2.4-4.7,5.7-4.7c3.4,0,5.4,1.7,5.4,4.1
				c0,2.1-1,3.2-2.6,3.6c1.5,0.4,3,1.4,3,3.8c0,2.7-2.3,4.5-5.8,4.5C47,553.5,44.9,551.7,44.8,548.6z"/>
			<path class="st2" d="M69.5,551.7v1.7h-1c-1.5,0-2-0.6-2.1-1.8c-0.7,1-1.9,1.9-3.8,1.9c-2.5,0-4.2-1.3-4.2-3.3
				c0-2.3,1.6-3.6,4.6-3.6h3.4v-0.8c0-1.5-1.1-2.4-2.8-2.4c-1.6,0-2.7,0.8-2.9,1.9h-1.8c0.3-2.2,2.1-3.6,4.8-3.6
				c2.9,0,4.6,1.5,4.6,4.1v5c0,0.6,0.2,0.8,0.7,0.8H69.5z M66.4,548.1h-3.5c-1.6,0-2.5,0.6-2.5,1.9c0,1.1,1,1.9,2.5,1.9
				c2.3,0,3.6-1.3,3.6-3.2V548.1z"/>
			<path class="st2" d="M71.2,553.3v-11.4h7.3v1.7H73v9.7H71.2z"/>
			<path class="st2" d="M79.2,547.6c0-3.5,2.3-5.8,5.7-5.8s5.7,2.4,5.7,5.8s-2.3,5.8-5.7,5.8S79.2,551.1,79.2,547.6z M88.6,547.6
				c0-2.4-1.5-4.2-3.8-4.2c-2.3,0-3.8,1.8-3.8,4.2c0,2.4,1.5,4.2,3.8,4.2C87.1,551.8,88.6,550.1,88.6,547.6z"/>
			<path class="st2" d="M91.3,553.3v-1.7h0.3c1.3,0,1.8-0.8,1.8-4.2v-5.5h8.6v11.4h-1.8v-9.7h-5v3.9c0,4.5-1.1,5.8-3.3,5.8H91.3z"/>
			<path class="st2" d="M104.4,547.6c0-3.5,2.3-5.8,5.7-5.8s5.7,2.4,5.7,5.8s-2.3,5.8-5.7,5.8S104.4,551.1,104.4,547.6z
				 M113.8,547.6c0-2.4-1.5-4.2-3.8-4.2c-2.3,0-3.8,1.8-3.8,4.2c0,2.4,1.5,4.2,3.8,4.2C112.3,551.8,113.8,550.1,113.8,547.6z"/>
			<path class="st2" d="M118,553.3v-11.4h4.9c2.8,0,4.2,1.1,4.2,3.1c0,1.4-0.9,2.2-1.9,2.4c1.3,0.2,2.3,1,2.3,2.6
				c0,2.2-1.6,3.3-4.5,3.3H118z M119.8,546.8h3.2c1.5,0,2.2-0.6,2.2-1.7c0-1.1-0.6-1.6-2.2-1.6h-3.2V546.8z M119.8,551.8h3.4
				c1.6,0,2.4-0.5,2.4-1.7c0-1.1-0.9-1.7-2.4-1.7h-3.4V551.8z"/>
			<path class="st2" d="M129.7,553.3v-11.4h1.8v4.8h2.4l3.6-4.8h2.1l-4.2,5.5l4.5,5.9h-2.2l-3.8-5h-2.5v5H129.7z"/>
			<path class="st2" d="M141.6,553.3v-11.4h1.8v8.6l6.8-8.6h1.6v11.4H150v-8.7l-6.8,8.7H141.6z"/>
			<path class="st2" d="M45.3,574.2v-11.4h1.8v8.6l6.8-8.6h1.6v11.4h-1.8v-8.7l-6.8,8.7H45.3z"/>
			<path class="st2" d="M64.3,574.2v-11.4h4.9c2.8,0,4.2,1.1,4.2,3.1c0,1.4-0.9,2.2-1.9,2.4c1.3,0.2,2.3,1,2.3,2.6
				c0,2.2-1.6,3.3-4.5,3.3H64.3z M66.1,567.7h3.2c1.5,0,2.2-0.6,2.2-1.7c0-1.1-0.6-1.6-2.2-1.6h-3.2V567.7z M66.1,572.7h3.4
				c1.6,0,2.4-0.5,2.4-1.7c0-1.1-0.9-1.7-2.4-1.7h-3.4V572.7z"/>
			<path class="st2" d="M76,574.2v-11.4h1.8v3.7h2.9c2.8,0,4.5,1.4,4.5,3.8c0,2.4-1.6,3.8-4.5,3.8H76z M77.8,572.7h2.6
				c1.9,0,2.9-0.8,2.9-2.3c0-1.5-1-2.3-2.9-2.3h-2.6V572.7z M87.1,574.2v-11.4h1.8v11.4H87.1z"/>
			<path class="st2" d="M102.9,568.5c0,3.5-2.3,5.8-5.5,5.8c-1.9,0-3.2-0.8-3.9-1.9v6.2h-1.8v-15.9h1.6l0.2,1.8c0.8-1.1,2-2,3.9-2
				C100.6,562.7,102.9,564.8,102.9,568.5z M101,568.5c0-2.5-1.5-4.2-3.8-4.2c-2.2,0-3.8,1.7-3.8,4.2c0,2.5,1.5,4.3,3.8,4.3
				C99.5,572.7,101,571,101,568.5z"/>
			<path class="st2" d="M115.9,572.6v1.7h-1c-1.5,0-2-0.6-2.1-1.8c-0.7,1-1.9,1.9-3.8,1.9c-2.5,0-4.2-1.3-4.2-3.3
				c0-2.3,1.6-3.6,4.6-3.6h3.4v-0.8c0-1.5-1.1-2.4-2.8-2.4c-1.6,0-2.7,0.8-2.9,1.9h-1.8c0.3-2.2,2.1-3.6,4.8-3.6
				c2.9,0,4.6,1.5,4.6,4.1v5c0,0.6,0.2,0.8,0.7,0.8H115.9z M112.7,569h-3.5c-1.6,0-2.5,0.6-2.5,1.9c0,1.1,1,1.9,2.5,1.9
				c2.3,0,3.6-1.3,3.6-3.2V569z"/>
			<path class="st2" d="M126.7,570.9c0,2.1-1.9,3.4-5,3.4c-3.2,0-4.6-1.3-4.7-3.6h1.9c0.3,1.4,1,2.1,2.9,2.1s3.1-0.7,3.1-1.9
				c0-1.2-0.9-1.7-2.3-1.7h-1.9v-1.6h1.8c1.3,0,2.1-0.5,2.1-1.7c0-1-1-1.7-2.7-1.7c-1.9,0-2.7,0.8-2.9,2H117
				c0.1-2.1,1.9-3.6,4.9-3.6c2.9,0,4.6,1.3,4.6,3.2c0,1.4-0.8,2.2-2,2.5C125.8,568.6,126.7,569.4,126.7,570.9z"/>
			<path class="st2" d="M128.9,574.2v-11.4h1.8v8.6l6.8-8.6h1.6v11.4h-1.8v-8.7l-6.8,8.7H128.9z"/>
			<path class="st2" d="M145.1,574.2v-9.7h-4.1v-1.7H151v1.7h-4.1v9.7H145.1z"/>
			<path class="st2" d="M151.7,568.5c0-3.5,2.2-5.8,5.4-5.8c3.2,0,5.3,2,5.4,5.4c0,0.2,0,0.5,0,0.8h-8.9v0.2
				c0.1,2.2,1.4,3.7,3.6,3.7c1.6,0,2.9-0.9,3.2-2.3h1.9c-0.4,2.3-2.3,4-5,4C153.9,574.4,151.7,572,151.7,568.5z M160.6,567.4
				c-0.2-2-1.5-3.1-3.4-3.1c-1.7,0-3.2,1.2-3.4,3.1H160.6z"/>
			<path class="st2" d="M163.3,574.2v-1.7h0.3c1.3,0,1.8-0.8,1.8-4.2v-5.5h8.6v11.4h-1.8v-9.7h-5v3.9c0,4.5-1.1,5.8-3.3,5.8H163.3z"
				/>
			<path class="st2" d="M176.8,574.2v-11.4h1.8v3.7h3.1c2.8,0,4.5,1.4,4.5,3.8c0,2.4-1.6,3.8-4.5,3.8H176.8z M178.6,572.7h2.8
				c1.9,0,2.9-0.8,2.9-2.3c0-1.5-1-2.3-2.9-2.3h-2.8V572.7z"/>
			<path class="st2" d="M196.6,562.8h1.8v11.4h-1.8v-5h-6.4v5h-1.8v-11.4h1.8v4.8h6.4V562.8z"/>
			<path class="st2" d="M201.2,574.2v-11.4h1.8v3.7h2.9c2.8,0,4.5,1.4,4.5,3.8c0,2.4-1.6,3.8-4.5,3.8H201.2z M203,572.7h2.6
				c1.9,0,2.9-0.8,2.9-2.3c0-1.5-1-2.3-2.9-2.3H203V572.7z M212.3,574.2v-11.4h1.8v11.4H212.3z"/>
			<path class="st2" d="M216.8,574.2v-11.4h1.8v8.6l6.8-8.6h1.6v11.4h-1.8v-8.7l-6.8,8.7H216.8z M218.6,558.5h1.5
				c0,1.1,0.5,1.8,1.8,1.8c1.3,0,1.8-0.7,1.8-1.8h1.5c0,1.9-1.2,3.1-3.4,3.1C219.8,561.5,218.7,560.3,218.6,558.5z"/>
			<path class="st2" d="M239,574.2v-9.7h-4.1v-1.7h10.1v1.7h-4.1v9.7H239z"/>
			<path class="st2" d="M245.6,568.5c0-3.5,2.2-5.8,5.4-5.8c3.2,0,5.3,2,5.4,5.4c0,0.2,0,0.5,0,0.8h-8.9v0.2
				c0.1,2.2,1.4,3.7,3.6,3.7c1.6,0,2.9-0.9,3.2-2.3h1.9c-0.4,2.3-2.3,4-5,4C247.9,574.4,245.6,572,245.6,568.5z M254.5,567.4
				c-0.2-2-1.5-3.1-3.4-3.1c-1.7,0-3.2,1.2-3.4,3.1H254.5z"/>
			<path class="st2" d="M258.8,574.2v-11.4h1.8v4.8h2.4l3.6-4.8h2.1l-4.2,5.5l4.5,5.9h-2.2l-3.8-5h-2.5v5H258.8z"/>
			<path class="st2" d="M269.7,568.5c0-3.5,2.3-5.9,5.6-5.9c2.8,0,4.6,1.6,5,4.1h-1.9c-0.3-1.5-1.5-2.4-3.1-2.4
				c-2.2,0-3.7,1.7-3.7,4.2c0,2.5,1.5,4.2,3.7,4.2c1.6,0,2.8-0.9,3.1-2.4h1.9c-0.4,2.5-2.3,4-5.1,4
				C271.9,574.4,269.7,572.1,269.7,568.5z"/>
			<path class="st2" d="M285.3,574.2v-9.7h-4.1v-1.7h10.1v1.7h-4.1v9.7H285.3z"/>
		</g>
	</g>
	<g>
		<g>
			<path class="st0" d="M369.3,576.8h6.3c0.2,6.9,6.1,10.9,16.4,10.9c9.9,0,15.6-3.5,15.6-9.8c0-6-5-8.9-14.8-8.9h-6.6v-5.8h6.2
				c8.3,0,13.6-3.4,13.6-9.1c0-5.6-5-8.6-14.1-8.6s-14.2,3.4-14.8,10h-6.3c0.4-9.6,8.6-15.6,21.2-15.6c12.9,0,20.5,5.2,20.5,14
				c0,6.2-3.4,10.3-9.8,11.7c7.1,1.1,11.4,5.6,11.4,12.3c0,9.7-8.5,15.6-22.4,15.6C377.6,593.3,369.4,587.2,369.3,576.8z"/>
			<path class="st0" d="M425.7,585.8c-3.7-4.6-5.4-11-5.4-19c0-17.7,8.2-27,23.6-27c11.2,0,18.4,4.9,20.2,13.8h-6.3
				c-1.8-5.6-6.2-8.2-14.1-8.2c-11.4,0-17.3,6.6-17.3,19.6c0,0.7,0,1.2,0.1,1.7c2.5-5.6,9.1-8.9,18.3-8.9c12.9,0,20.7,6.6,20.7,17.6
				s-8.4,17.9-21.8,17.9C435.9,593.3,429.7,590.8,425.7,585.8z M459,575.6c0-7.7-5.6-12.2-15.2-12.2c-9.5,0-15.3,4.6-15.3,12.2
				c0,7.4,5.9,12.2,15.2,12.2C453.3,587.7,459,583.2,459,575.6z"/>
			<path class="st0" d="M468.8,602.6l21.3-64.7h6.1l-21.3,64.7H468.8z"/>
			<path class="st0" d="M530,580h-33.4v-6l32.3-33.8h7.4v34h10.3v5.8h-10.3v12.9H530V580z M530,574.2v-26.9l-25.6,26.9H530z"/>
			<path class="st0" d="M550.6,567.7v-2.4c0-16.2,8.6-25.6,23.5-25.6s23.5,9.3,23.5,25.6v2.4c0,16.6-8.2,25.6-23.5,25.6
				S550.6,584.4,550.6,567.7z M591.2,567.5v-2c0-13.4-5.6-20-17.1-20s-17.1,6.6-17.1,20v2c0,13.4,5.6,20,17.1,20
				S591.2,580.9,591.2,567.5z"/>
			<path class="st0" d="M372.2,606.5h25.6c11.4,0,18.7,6.3,18.7,16.2c0,8.1-5,13.6-14,15.3l14.4,21.1h-7.7l-13.7-20.2h-16.8v20.2
				h-6.5V606.5z M397.8,632.9c7.4,0,12-4,12-10.2c0-6.2-4.7-10.2-12-10.2h-19.1v20.4H397.8z"/>
			<path class="st0" d="M424.5,606.5h39.6v6H431v16.8h27.7v6H431v17.7h34.3v6h-40.8V606.5z"/>
			<path class="st0" d="M468.2,632.8c0-16.1,11.8-26.8,29.7-26.8c14.1,0,23.8,6.5,26.3,17.6h-7c-2.5-7.6-9.2-11.6-19.5-11.6
				c-14,0-22.9,8-22.9,20.8c0,12.6,8.8,20.8,22.6,20.8c12.9,0,21.1-5.9,21.1-15.1v-1.8h-19.7v-6h26.1v28.5h-5.6l-0.5-7.7
				c-3.6,5-12,8.1-21.5,8.1C480,659.6,468.2,648.7,468.2,632.8z"/>
			<path class="st0" d="M534,636.6v-30.2h6.5V637c0,11,5.8,16.5,17.2,16.5c11.6,0,17.4-5.6,17.4-16.5v-30.5h6.5v30.2
				c0,15-8.3,22.9-24,22.9C542.1,659.6,534,651.7,534,636.6z"/>
			<path class="st0" d="M591.1,606.5h6.5v46.6H627v6h-35.9V606.5z"/>
			<path class="st0" d="M655.2,606.5h7.7l24.2,52.6h-7.2l-6.5-14.2h-29l-6.4,14.2h-7L655.2,606.5z M670.7,639l-11.8-26.1L647.1,639
				H670.7z"/>
			<path class="st0" d="M692.9,606.5h25.6c11.4,0,18.7,6.3,18.7,16.2c0,8.1-5,13.6-14,15.3l14.4,21.1H730l-13.7-20.2h-16.8v20.2
				h-6.5V606.5z M718.6,632.9c7.4,0,12-4,12-10.2c0-6.2-4.7-10.2-12-10.2h-19.1v20.4H718.6z"/>
			<path class="st0" d="M369.4,708.1h11.1c0.5,5.5,5.9,8.8,14.5,8.8c8.2,0,12.5-2.4,12.5-6.5c0-4.1-3.3-5.1-13.6-6.3
				c-16.8-2-23-6.2-23-15.7c0-9.8,8.9-16,22.9-16c14.6,0,23.5,6.2,24,16.5h-11.1c-0.7-4.8-5.3-7.6-13-7.6c-7.6,0-11.4,2.3-11.4,6.2
				c0,4.1,3.2,5.2,13.6,6.4c16.5,1.8,22.9,6.1,22.9,15.5c0,10.1-9.3,16.5-23.8,16.5C379.3,725.8,369.7,719.1,369.4,708.1z"/>
			<path class="st0" d="M425.5,672.7H467v9.7h-30.2v11.8h24.8v9.2h-24.8v12.2h31.4v9.7h-42.6V672.7z"/>
			<path class="st0" d="M474.4,672.7h14.4l19.6,39l19.1-39h14.4v52.6h-11.1v-35.7l-18,35.7h-9.2l-18-35.7v35.7h-11.1V672.7z"/>
			<path class="st0" d="M550.4,672.7h11.3v52.6h-11.3V672.7z"/>
			<path class="st0" d="M570.2,672.7h25.4c13,0,20.2,5,20.2,13.9c0,6.2-3.2,10-9.8,11.5c8.1,1.1,12.1,5.3,12.1,12.3
				c0,9.7-7.8,15-22.6,15h-25.3V672.7z M596.4,694.4c5.1,0,8-2.3,8-6.4s-2.9-6.4-8-6.4h-15v12.8H596.4z M597,716.5
				c6.5,0,9.7-2.3,9.7-6.7c0-4.4-3.3-6.7-9.7-6.7h-15.5v13.4H597z"/>
			<path class="st0" d="M622.7,699.1c0-15.7,12.6-26.8,30.8-26.8c18.1,0,30.8,11,30.8,26.8s-12.7,26.8-30.8,26.8
				C635.3,725.8,622.7,714.8,622.7,699.1z M672.8,699.1c0-10.5-7.5-17.2-19.3-17.2c-11.8,0-19.3,6.7-19.3,17.2s7.5,17.2,19.3,17.2
				C665.2,716.3,672.8,709.6,672.8,699.1z"/>
			<path class="st0" d="M690.8,672.7h11.3v42.9h26.5v9.7h-37.7V672.7z"/>
			<path class="st0" d="M734.7,672.7h22.5c19.3,0,31.8,9.8,31.8,26.2c0,16.4-12.5,26.4-31.8,26.4h-22.5V672.7z M757.2,715.7
				c13.1,0,20.2-5.8,20.2-16.7c0-11-7-16.5-20.2-16.5H746v33.2H757.2z"/>
		</g>
	</g>
	<g>
		<g>
			<path class="st2" d="M45,244.5c0-4.7,2.9-8,7.5-8c3.5,0,6,2,6.6,5.3H57c-0.6-2.2-2.3-3.5-4.6-3.5c-3.3,0-5.4,2.6-5.4,6.2
				c0,3.6,2,6.2,5.3,6.2c2.4,0,4.1-1.3,4.7-3.5H59c-0.6,3.2-3.2,5.3-6.7,5.3C47.8,252.4,45,249.2,45,244.5z"/>
			<path class="st2" d="M72.5,246.6c0,3.5-2.3,5.8-5.5,5.8c-1.9,0-3.2-0.8-3.9-1.9v6.2h-1.8v-15.9h1.6l0.2,1.8c0.8-1.1,2-2,3.9-2
				C70.2,240.7,72.5,242.9,72.5,246.6z M70.6,246.6c0-2.5-1.5-4.2-3.8-4.2c-2.2,0-3.8,1.7-3.8,4.2c0,2.5,1.5,4.3,3.8,4.3
				C69.1,250.8,70.6,249.1,70.6,246.6z"/>
			<path class="st2" d="M74.4,246.6c0-3.5,2.2-5.8,5.4-5.8c3.2,0,5.3,2,5.4,5.4c0,0.2,0,0.5,0,0.8h-8.9v0.2c0.1,2.2,1.4,3.7,3.6,3.7
				c1.6,0,2.9-0.9,3.2-2.3h1.9c-0.4,2.3-2.3,4-5,4C76.7,252.4,74.4,250.1,74.4,246.6z M83.3,245.4c-0.2-2-1.5-3.1-3.4-3.1
				c-1.7,0-3.2,1.2-3.4,3.1H83.3z"/>
			<path class="st2" d="M97.3,250.6h1.8v4.7h-1.8v-3H88v3h-1.8v-4.7h1.2c0.8-0.6,1.3-1.4,1.3-5v-4.8h8.7V250.6z M95.5,250.6v-8.1
				h-5.1v3.3c0,2.6-0.3,3.9-0.9,4.8H95.5z"/>
			<path class="st2" d="M109.1,240.9h1.8v11.4h-1.8v-5h-6.4v5h-1.8v-11.4h1.8v4.8h6.4V240.9z"/>
			<path class="st2" d="M113.7,252.3v-11.4h1.8v8.6l6.8-8.6h1.6v11.4h-1.8v-8.7l-6.8,8.7H113.7z"/>
			<path class="st2" d="M126.2,246.6c0-3.5,2.2-5.8,5.4-5.8c3.2,0,5.3,2,5.4,5.4c0,0.2,0,0.5,0,0.8h-8.9v0.2
				c0.1,2.2,1.4,3.7,3.6,3.7c1.6,0,2.9-0.9,3.2-2.3h1.9c-0.4,2.3-2.3,4-5,4C128.5,252.4,126.2,250.1,126.2,246.6z M135.1,245.4
				c-0.2-2-1.5-3.1-3.4-3.1c-1.7,0-3.2,1.2-3.4,3.1H135.1z"/>
			<path class="st2" d="M154.7,249c0,2.1-1.9,3.4-5,3.4c-3.2,0-4.6-1.3-4.7-3.6h1.9c0.3,1.4,1,2.1,2.9,2.1s3.1-0.7,3.1-1.9
				c0-1.2-0.9-1.7-2.3-1.7h-1.9v-1.6h1.8c1.3,0,2.1-0.5,2.1-1.7c0-1-1-1.7-2.7-1.7c-1.9,0-2.7,0.8-2.9,2H145
				c0.1-2.1,1.9-3.6,4.9-3.6c2.9,0,4.6,1.3,4.6,3.2c0,1.4-0.8,2.2-2,2.5C153.8,246.6,154.7,247.5,154.7,249z"/>
			<path class="st2" d="M167.6,250.6v1.7h-1c-1.5,0-2-0.6-2.1-1.8c-0.7,1-1.9,1.9-3.8,1.9c-2.5,0-4.2-1.3-4.2-3.3
				c0-2.3,1.6-3.6,4.6-3.6h3.4v-0.8c0-1.5-1.1-2.4-2.8-2.4c-1.6,0-2.7,0.8-2.9,1.9h-1.8c0.3-2.2,2.1-3.6,4.8-3.6
				c2.9,0,4.6,1.5,4.6,4.1v5c0,0.6,0.2,0.8,0.7,0.8H167.6z M164.5,247.1h-3.5c-1.6,0-2.5,0.6-2.5,1.9c0,1.1,1,1.9,2.5,1.9
				c2.3,0,3.6-1.3,3.6-3.2V247.1z"/>
			<path class="st2" d="M169.3,252.3v-11.4h7.3v1.7h-5.5v9.7H169.3z"/>
			<path class="st2" d="M177.3,246.6c0-3.5,2.3-5.8,5.7-5.8s5.7,2.4,5.7,5.8s-2.3,5.8-5.7,5.8S177.3,250,177.3,246.6z M186.7,246.6
				c0-2.4-1.5-4.2-3.8-4.2c-2.3,0-3.8,1.8-3.8,4.2c0,2.4,1.5,4.2,3.8,4.2C185.2,250.8,186.7,249,186.7,246.6z"/>
			<path class="st2" d="M189.4,252.3v-1.7h0.3c1.3,0,1.8-0.8,1.8-4.2v-5.5h8.6v11.4h-1.8v-9.7h-5v3.9c0,4.5-1.1,5.8-3.3,5.8H189.4z"
				/>
			<path class="st2" d="M202.5,246.6c0-3.5,2.3-5.8,5.7-5.8s5.7,2.4,5.7,5.8s-2.3,5.8-5.7,5.8S202.5,250,202.5,246.6z M211.9,246.6
				c0-2.4-1.5-4.2-3.8-4.2c-2.3,0-3.8,1.8-3.8,4.2c0,2.4,1.5,4.2,3.8,4.2C210.4,250.8,211.9,249,211.9,246.6z"/>
			<path class="st2" d="M216.1,252.3v-11.4h4.9c2.8,0,4.2,1.1,4.2,3.1c0,1.4-0.9,2.2-1.9,2.4c1.3,0.2,2.3,1,2.3,2.6
				c0,2.2-1.6,3.3-4.5,3.3H216.1z M217.9,245.7h3.2c1.5,0,2.2-0.6,2.2-1.7c0-1.1-0.6-1.6-2.2-1.6h-3.2V245.7z M217.9,250.7h3.4
				c1.6,0,2.4-0.5,2.4-1.7c0-1.1-0.9-1.7-2.4-1.7h-3.4V250.7z"/>
			<path class="st2" d="M227.8,252.3v-11.4h1.8v4.8h2.4l3.6-4.8h2.1l-4.2,5.5l4.5,5.9h-2.2l-3.8-5h-2.5v5H227.8z"/>
			<path class="st2" d="M239.7,252.3v-11.4h1.8v8.6l6.8-8.6h1.6v11.4h-1.8v-8.7l-6.8,8.7H239.7z"/>
			<path class="st2" d="M45.3,273.2v-11.4h1.8v8.6l6.8-8.6h1.6v11.4h-1.8v-8.7l-6.8,8.7H45.3z"/>
			<path class="st2" d="M64.3,273.2v-11.4h4.9c2.8,0,4.2,1.1,4.2,3.1c0,1.4-0.9,2.2-1.9,2.4c1.3,0.2,2.3,1,2.3,2.6
				c0,2.2-1.6,3.3-4.5,3.3H64.3z M66.1,266.6h3.2c1.5,0,2.2-0.6,2.2-1.7c0-1.1-0.6-1.6-2.2-1.6h-3.2V266.6z M66.1,271.6h3.4
				c1.6,0,2.4-0.5,2.4-1.7c0-1.1-0.9-1.7-2.4-1.7h-3.4V271.6z"/>
			<path class="st2" d="M76,273.2v-11.4h1.8v3.7h2.9c2.8,0,4.5,1.4,4.5,3.8c0,2.4-1.6,3.8-4.5,3.8H76z M77.8,271.6h2.6
				c1.9,0,2.9-0.8,2.9-2.3c0-1.5-1-2.3-2.9-2.3h-2.6V271.6z M87.1,273.2v-11.4h1.8v11.4H87.1z"/>
			<path class="st2" d="M102.9,267.5c0,3.5-2.3,5.8-5.5,5.8c-1.9,0-3.2-0.8-3.9-1.9v6.2h-1.8v-15.9h1.6l0.2,1.8c0.8-1.1,2-2,3.9-2
				C100.6,261.6,102.9,263.8,102.9,267.5z M101,267.5c0-2.5-1.5-4.2-3.8-4.2c-2.2,0-3.8,1.7-3.8,4.2c0,2.5,1.5,4.3,3.8,4.3
				C99.5,271.7,101,270,101,267.5z"/>
			<path class="st2" d="M115.9,271.5v1.7h-1c-1.5,0-2-0.6-2.1-1.8c-0.7,1-1.9,1.9-3.8,1.9c-2.5,0-4.2-1.3-4.2-3.3
				c0-2.3,1.6-3.6,4.6-3.6h3.4v-0.8c0-1.5-1.1-2.4-2.8-2.4c-1.6,0-2.7,0.8-2.9,1.9h-1.8c0.3-2.2,2.1-3.6,4.8-3.6
				c2.9,0,4.6,1.5,4.6,4.1v5c0,0.6,0.2,0.8,0.7,0.8H115.9z M112.7,268h-3.5c-1.6,0-2.5,0.6-2.5,1.9c0,1.1,1,1.9,2.5,1.9
				c2.3,0,3.6-1.3,3.6-3.2V268z"/>
			<path class="st2" d="M126.7,269.9c0,2.1-1.9,3.4-5,3.4c-3.2,0-4.6-1.3-4.7-3.6h1.9c0.3,1.4,1,2.1,2.9,2.1s3.1-0.7,3.1-1.9
				c0-1.2-0.9-1.7-2.3-1.7h-1.9v-1.6h1.8c1.3,0,2.1-0.5,2.1-1.7c0-1-1-1.7-2.7-1.7c-1.9,0-2.7,0.8-2.9,2H117
				c0.1-2.1,1.9-3.6,4.9-3.6c2.9,0,4.6,1.3,4.6,3.2c0,1.4-0.8,2.2-2,2.5C125.8,267.5,126.7,268.4,126.7,269.9z"/>
			<path class="st2" d="M128.9,273.2v-11.4h1.8v8.6l6.8-8.6h1.6v11.4h-1.8v-8.7l-6.8,8.7H128.9z"/>
			<path class="st2" d="M145.1,273.2v-9.7h-4.1v-1.7H151v1.7h-4.1v9.7H145.1z"/>
			<path class="st2" d="M151.7,267.5c0-3.5,2.2-5.8,5.4-5.8c3.2,0,5.3,2,5.4,5.4c0,0.2,0,0.5,0,0.8h-8.9v0.2
				c0.1,2.2,1.4,3.7,3.6,3.7c1.6,0,2.9-0.9,3.2-2.3h1.9c-0.4,2.3-2.3,4-5,4C153.9,273.3,151.7,271,151.7,267.5z M160.6,266.3
				c-0.2-2-1.5-3.1-3.4-3.1c-1.7,0-3.2,1.2-3.4,3.1H160.6z"/>
			<path class="st2" d="M163.3,273.2v-1.7h0.3c1.3,0,1.8-0.8,1.8-4.2v-5.5h8.6v11.4h-1.8v-9.7h-5v3.9c0,4.5-1.1,5.8-3.3,5.8H163.3z"
				/>
			<path class="st2" d="M176.8,273.2v-11.4h1.8v3.7h3.1c2.8,0,4.5,1.4,4.5,3.8c0,2.4-1.6,3.8-4.5,3.8H176.8z M178.6,271.6h2.8
				c1.9,0,2.9-0.8,2.9-2.3c0-1.5-1-2.3-2.9-2.3h-2.8V271.6z"/>
			<path class="st2" d="M196.6,261.8h1.8v11.4h-1.8v-5h-6.4v5h-1.8v-11.4h1.8v4.8h6.4V261.8z"/>
			<path class="st2" d="M201.2,273.2v-11.4h1.8v3.7h2.9c2.8,0,4.5,1.4,4.5,3.8c0,2.4-1.6,3.8-4.5,3.8H201.2z M203,271.6h2.6
				c1.9,0,2.9-0.8,2.9-2.3c0-1.5-1-2.3-2.9-2.3H203V271.6z M212.3,273.2v-11.4h1.8v11.4H212.3z"/>
			<path class="st2" d="M216.8,273.2v-11.4h1.8v8.6l6.8-8.6h1.6v11.4h-1.8v-8.7l-6.8,8.7H216.8z M218.6,257.4h1.5
				c0,1.1,0.5,1.8,1.8,1.8c1.3,0,1.8-0.7,1.8-1.8h1.5c0,1.9-1.2,3.1-3.4,3.1C219.8,260.5,218.7,259.3,218.6,257.4z"/>
			<path class="st2" d="M239,273.2v-9.7h-4.1v-1.7h10.1v1.7h-4.1v9.7H239z"/>
			<path class="st2" d="M245.6,267.5c0-3.5,2.2-5.8,5.4-5.8c3.2,0,5.3,2,5.4,5.4c0,0.2,0,0.5,0,0.8h-8.9v0.2
				c0.1,2.2,1.4,3.7,3.6,3.7c1.6,0,2.9-0.9,3.2-2.3h1.9c-0.4,2.3-2.3,4-5,4C247.9,273.3,245.6,271,245.6,267.5z M254.5,266.3
				c-0.2-2-1.5-3.1-3.4-3.1c-1.7,0-3.2,1.2-3.4,3.1H254.5z"/>
			<path class="st2" d="M258.8,273.2v-11.4h1.8v4.8h2.4l3.6-4.8h2.1l-4.2,5.5l4.5,5.9h-2.2l-3.8-5h-2.5v5H258.8z"/>
			<path class="st2" d="M269.7,267.5c0-3.5,2.3-5.9,5.6-5.9c2.8,0,4.6,1.6,5,4.1h-1.9c-0.3-1.5-1.5-2.4-3.1-2.4
				c-2.2,0-3.7,1.7-3.7,4.2c0,2.5,1.5,4.2,3.7,4.2c1.6,0,2.8-0.9,3.1-2.4h1.9c-0.4,2.5-2.3,4-5.1,4
				C271.9,273.3,269.7,271,269.7,267.5z"/>
			<path class="st2" d="M285.3,273.2v-9.7h-4.1v-1.7h10.1v1.7h-4.1v9.7H285.3z"/>
		</g>
	</g>
	<g>
		<g>
			<path class="st0" d="M378,246.5c-0.7,0.5-1.8,0.7-3,0.7h-7.4v-4h7.5c2,0,3-1.3,3-3.2v-4.1h4.4v37.4H378V246.5z"/>
			<path class="st0" d="M388.3,263.3c0-4.9,3.3-8.5,9-9.5c-4.8-0.8-7.8-3.9-7.8-8.3c0-6.2,5.7-10,14.8-10c9.1,0,14.8,3.8,14.8,10
				c0,4.3-3,7.5-7.8,8.3c5.7,1,9,4.6,9,9.5c0,6.4-6.2,10.4-16.1,10.4C394.5,273.7,388.3,269.7,388.3,263.3z M415.9,262.9
				c0-4.4-4.1-6.8-11.5-6.8c-7.4,0-11.5,2.4-11.5,6.8c0,4.4,4.1,6.8,11.5,6.8C411.8,269.7,415.9,267.3,415.9,262.9z M414.6,245.7
				c0-3.9-3.6-6.1-10.2-6.1s-10.2,2.1-10.2,6.1c0,4,3.6,6.2,10.2,6.2S414.6,249.6,414.6,245.7z"/>
			<path class="st0" d="M423,280.3l15.1-46h4.3l-15.1,46H423z"/>
			<path class="st0" d="M443,269.6l17.8-12.1c5.1-3.4,7.6-7,7.6-10.5c0-4.7-3.5-7.4-10.1-7.4c-6.4,0-10.5,3.2-10.5,8.3v0.7h-4.5v-1
				c0-7.3,6.2-12.1,15-12.1c9.3,0,14.7,4.2,14.7,11.2c0,5.5-2.6,9-10.1,14l-12.7,8.5h23.2v4.1H443V269.6z"/>
			<path class="st0" d="M477.5,255.5v-1.7c0-11.6,6.1-18.2,16.7-18.2c10.6,0,16.7,6.6,16.7,18.2v1.7c0,11.8-5.8,18.2-16.7,18.2
				C483.3,273.7,477.5,267.3,477.5,255.5z M506.3,255.3v-1.4c0-9.5-4-14.2-12.1-14.2c-8.1,0-12.1,4.7-12.1,14.2v1.4
				c0,9.5,4,14.2,12.1,14.2C502.3,269.6,506.3,264.9,506.3,255.3z"/>
			<path class="st0" d="M370.8,285H389c8.1,0,13.3,4.5,13.3,11.5c0,5.8-3.6,9.7-10,10.9l10.3,15h-5.5l-9.7-14.4h-12v14.4h-4.7V285z
				 M389,303.7c5.2,0,8.6-2.8,8.6-7.3c0-4.4-3.3-7.2-8.6-7.2h-13.6v14.5H389z"/>
			<path class="st0" d="M408,285h28.2v4.3h-23.5v12h19.7v4.3h-19.7v12.6H437v4.3h-29V285z"/>
			<path class="st0" d="M439.1,303.7c0-11.4,8.4-19,21.1-19c10,0,17,4.7,18.7,12.5h-5c-1.8-5.4-6.5-8.2-13.9-8.2
				c-10,0-16.3,5.7-16.3,14.8c0,9,6.3,14.8,16,14.8c9.1,0,15-4.2,15-10.8v-1.3h-14v-4.3h18.6v20.3h-4l-0.3-5.5
				c-2.6,3.5-8.6,5.8-15.3,5.8C447.5,322.7,439.1,315,439.1,303.7z"/>
			<path class="st0" d="M485.9,306.4V285h4.7v21.7c0,7.8,4.1,11.8,12.3,11.8c8.2,0,12.4-4,12.4-11.8V285h4.7v21.5
				c0,10.6-5.9,16.3-17.1,16.3C491.7,322.7,485.9,317.1,485.9,306.4z"/>
			<path class="st0" d="M526.5,285h4.7v33.2h20.9v4.3h-25.6V285z"/>
			<path class="st0" d="M572.2,285h5.5l17.2,37.4h-5.1l-4.6-10.1h-20.7l-4.5,10.1h-5L572.2,285z M583.2,308.1l-8.4-18.6l-8.4,18.6
				H583.2z"/>
			<path class="st0" d="M599,285h18.2c8.1,0,13.3,4.5,13.3,11.5c0,5.8-3.6,9.7-10,10.9l10.3,15h-5.5l-9.7-14.4h-12v14.4H599V285z
				 M617.2,303.7c5.2,0,8.6-2.8,8.6-7.3c0-4.4-3.3-7.2-8.6-7.2h-13.6v14.5H617.2z"/>
			<path class="st0" d="M368.8,359.2h7.9c0.3,3.9,4.2,6.3,10.3,6.3c5.8,0,8.9-1.7,8.9-4.7c0-2.9-2.4-3.6-9.7-4.5
				c-11.9-1.4-16.4-4.4-16.4-11.2c0-7,6.3-11.4,16.3-11.4c10.4,0,16.7,4.4,17.1,11.8h-7.9c-0.5-3.4-3.7-5.4-9.3-5.4
				c-5.4,0-8.1,1.6-8.1,4.4c0,2.9,2.3,3.7,9.7,4.5c11.8,1.3,16.3,4.3,16.3,11c0,7.2-6.6,11.8-17,11.8
				C375.9,371.8,369,367,368.8,359.2z"/>
			<path class="st0" d="M408.7,334h29.5v6.9h-21.5v8.4h17.7v6.6h-17.7v8.7h22.3v6.9h-30.3V334z"/>
			<path class="st0" d="M443.5,334h10.3l13.9,27.8l13.6-27.8h10.2v37.4h-7.9v-25.4l-12.8,25.4h-6.6l-12.8-25.4v25.4h-7.9V334z"/>
			<path class="st0" d="M497.6,334h8v37.4h-8V334z"/>
			<path class="st0" d="M511.7,334h18.1c9.3,0,14.3,3.5,14.3,9.9c0,4.4-2.3,7.1-7,8.2c5.8,0.8,8.6,3.7,8.6,8.7
				c0,6.9-5.6,10.6-16,10.6h-18V334z M530.3,349.4c3.6,0,5.7-1.7,5.7-4.5c0-2.9-2-4.5-5.7-4.5h-10.6v9.1H530.3z M530.7,365.1
				c4.7,0,6.9-1.6,6.9-4.8c0-3.1-2.4-4.8-6.9-4.8h-11v9.5H530.7z"/>
			<path class="st0" d="M549,352.7c0-11.2,9-19,21.9-19c12.9,0,21.9,7.8,21.9,19s-9,19-21.9,19C558,371.8,549,363.9,549,352.7z
				 M584.6,352.7c0-7.5-5.3-12.3-13.7-12.3c-8.4,0-13.7,4.8-13.7,12.3s5.3,12.3,13.7,12.3C579.3,365,584.6,360.2,584.6,352.7z"/>
			<path class="st0" d="M597.5,334h8v30.5h18.8v6.9h-26.9V334z"/>
			<path class="st0" d="M628.7,334h16c13.7,0,22.6,7,22.6,18.7c0,11.7-8.9,18.8-22.6,18.8h-16V334z M644.7,364.6
				c9.3,0,14.4-4.1,14.4-11.9c0-7.8-5-11.8-14.4-11.8h-8v23.6H644.7z"/>
		</g>
	</g>
	<g>
		<g>
			<path class="st2" d="M368.9,68.1V49.2h14.7v3.2h-11.1v4.6h9.2v3.1h-9.2V65H384v3.2H368.9z"/>
			<path class="st2" d="M386.3,68.1V49.2h3.6V65h9.7v3.2H386.3z"/>
			<path class="st2" d="M404.7,68.1V52.4h-7v-3.2h17.7v3.2h-7v15.7H404.7z"/>
			<path class="st2" d="M412.8,68.1l8.5-18.9h4.3l8.5,18.9h-4l-1.9-4.3h-9.6l-1.9,4.3H412.8z M419.8,60.8h7l-3.5-8.1L419.8,60.8z"/>
			<path class="st2" d="M451.5,68.3c-2.8,0-5-0.6-6.6-1.7c-1.6-1.1-2.4-2.7-2.5-4.7h3.6c0.1,1.1,0.6,1.9,1.6,2.5
				c1,0.6,2.3,0.9,3.9,0.9c3.2,0,4.8-0.8,4.8-2.5c0-0.8-0.3-1.3-1-1.6c-0.7-0.3-2-0.6-4.1-0.9c-3-0.4-5.1-1-6.3-1.8
				c-1.2-0.8-1.8-2.1-1.8-3.8c0-1.7,0.7-3.1,2.2-4.1c1.4-1,3.4-1.5,5.9-1.5c2.6,0,4.6,0.5,6.1,1.6s2.3,2.5,2.4,4.3H456
				c-0.1-0.9-0.6-1.7-1.5-2.2c-0.8-0.5-2-0.8-3.5-0.8c-2.9,0-4.4,0.8-4.4,2.4c0,0.8,0.4,1.3,1.1,1.6c0.7,0.3,2.1,0.6,4.1,0.8
				c2.9,0.3,5,0.9,6.3,1.8s1.9,2.1,1.9,3.8c0,1.8-0.8,3.2-2.3,4.3S454.1,68.3,451.5,68.3z"/>
			<path class="st2" d="M460.8,68.1l8.5-18.9h4.3l8.5,18.9h-4l-1.9-4.3h-9.6l-1.9,4.3H460.8z M467.8,60.8h7l-3.5-8.1L467.8,60.8z"/>
			<path class="st2" d="M483.9,68.1V49.2h3.3l11.2,13.1V49.2h3.6v18.9h-3.3l-11.2-13.1v13.1H483.9z"/>
			<path class="st2" d="M513.3,68.3c-2.8,0-5-0.6-6.6-1.7c-1.6-1.1-2.4-2.7-2.5-4.7h3.6c0.1,1.1,0.6,1.9,1.6,2.5
				c1,0.6,2.3,0.9,3.9,0.9c3.2,0,4.8-0.8,4.8-2.5c0-0.8-0.3-1.3-1-1.6c-0.7-0.3-2-0.6-4.1-0.9c-3-0.4-5.1-1-6.3-1.8
				c-1.2-0.8-1.8-2.1-1.8-3.8c0-1.7,0.7-3.1,2.2-4.1c1.4-1,3.4-1.5,5.9-1.5c2.6,0,4.6,0.5,6.1,1.6s2.3,2.5,2.4,4.3h-3.6
				c-0.1-0.9-0.6-1.7-1.5-2.2c-0.8-0.5-2-0.8-3.5-0.8c-2.9,0-4.4,0.8-4.4,2.4c0,0.8,0.4,1.3,1.1,1.6c0.7,0.3,2.1,0.6,4.1,0.8
				c2.9,0.3,5,0.9,6.3,1.8s1.9,2.1,1.9,3.8c0,1.8-0.8,3.2-2.3,4.3S515.9,68.3,513.3,68.3z"/>
			<path class="st2" d="M368.9,93.1V74.2h14.7v3.2h-11.1v4.6h9.2v3.1h-9.2V90H384v3.2H368.9z"/>
			<path class="st2" d="M385,93.1l7.6-9.7l-7.2-9.2h4.5l5,6.5l5-6.5h4.3l-7.2,9.2l7.6,9.7h-4.5l-5.4-7l-5.4,7H385z"/>
			<path class="st2" d="M412.6,93.1V77.4h-7v-3.2h17.7v3.2h-7v15.7H412.6z"/>
			<path class="st2" d="M432.9,93.1V74.2h9.5c2.2,0,4,0.6,5.3,1.7c1.3,1.1,1.9,2.6,1.9,4.5c0,1.9-0.6,3.4-1.9,4.5
				c-1.3,1.1-3,1.7-5.3,1.7h-5.9v6.6H432.9z M436.6,83.5h5.8c1.1,0,2-0.3,2.6-0.8c0.6-0.6,1-1.3,1-2.3c0-0.9-0.3-1.7-1-2.2
				c-0.6-0.5-1.5-0.8-2.6-0.8h-5.8V83.5z"/>
			<path class="st2" d="M451.9,93.1V74.2h9.6c2.2,0,4,0.6,5.3,1.7c1.3,1.1,1.9,2.6,1.9,4.5c0,2.8-1.5,4.7-4.4,5.5l4.8,7.2h-4.3
				l-4.3-6.6h-5v6.6H451.9z M455.5,83.5h5.8c1.1,0,2-0.3,2.6-0.8c0.6-0.6,1-1.3,1-2.3c0-1-0.3-1.7-1-2.2c-0.6-0.5-1.5-0.8-2.6-0.8
				h-5.8V83.5z"/>
			<path class="st2" d="M481.2,93.3c-3.2,0-5.9-0.9-7.9-2.7c-2-1.8-3.1-4.1-3.1-6.9c0-2.8,1-5.2,3.1-6.9c2-1.8,4.7-2.7,7.9-2.7
				c3.3,0,5.9,0.9,7.9,2.7c2,1.8,3.1,4.1,3.1,6.9c0,2.8-1,5.2-3.1,6.9C487.1,92.4,484.5,93.3,481.2,93.3z M481.2,90.2
				c2.2,0,4-0.6,5.3-1.8c1.3-1.2,2-2.7,2-4.7c0-2-0.7-3.6-2-4.7c-1.3-1.2-3.1-1.8-5.3-1.8c-2.2,0-4,0.6-5.3,1.8
				c-1.3,1.2-2,2.8-2,4.7c0,2,0.7,3.5,2,4.7C477.3,89.6,479,90.2,481.2,90.2z"/>
		</g>
	</g>
	<g>
		<g>
			<path class="st2" d="M44.8,895.9h2c0.1,2.1,1.6,3,3.9,3c2.3,0,3.7-1,3.7-2.8c0-1.8-1.3-2.7-3.7-2.7h-1.6v-1.6h1.5
				c2.3,0,3.4-1,3.4-2.7c0-1.7-1.4-2.5-3.4-2.5c-2.2,0-3.6,1.1-3.7,2.9h-2c0.1-2.8,2.4-4.7,5.7-4.7c3.4,0,5.4,1.7,5.4,4.1
				c0,2.1-1,3.2-2.6,3.6c1.5,0.4,3,1.4,3,3.8c0,2.7-2.3,4.5-5.8,4.5C47,900.7,44.9,899,44.8,895.9z"/>
			<path class="st2" d="M69.5,898.9v1.7h-1c-1.5,0-2-0.6-2.1-1.8c-0.7,1-1.9,1.9-3.8,1.9c-2.5,0-4.2-1.3-4.2-3.3
				c0-2.3,1.6-3.6,4.6-3.6h3.4V893c0-1.5-1.1-2.4-2.8-2.4c-1.6,0-2.7,0.8-2.9,1.9h-1.8c0.3-2.2,2.1-3.6,4.8-3.6
				c2.9,0,4.6,1.5,4.6,4.1v5c0,0.6,0.2,0.8,0.7,0.8H69.5z M66.4,895.4h-3.5c-1.6,0-2.5,0.6-2.5,1.9c0,1.1,1,1.9,2.5,1.9
				c2.3,0,3.6-1.3,3.6-3.2V895.4z"/>
			<path class="st2" d="M71.2,900.6v-11.4h7.3v1.7H73v9.7H71.2z"/>
			<path class="st2" d="M79.2,894.9c0-3.5,2.3-5.8,5.7-5.8s5.7,2.4,5.7,5.8c0,3.5-2.3,5.8-5.7,5.8S79.2,898.3,79.2,894.9z
				 M88.6,894.9c0-2.4-1.5-4.2-3.8-4.2c-2.3,0-3.8,1.8-3.8,4.2s1.5,4.2,3.8,4.2C87.1,899.1,88.6,897.3,88.6,894.9z"/>
			<path class="st2" d="M91.3,900.6v-1.7h0.3c1.3,0,1.8-0.8,1.8-4.2v-5.5h8.6v11.4h-1.8v-9.7h-5v3.9c0,4.5-1.1,5.8-3.3,5.8H91.3z"/>
			<path class="st2" d="M104.4,894.9c0-3.5,2.3-5.8,5.7-5.8s5.7,2.4,5.7,5.8c0,3.5-2.3,5.8-5.7,5.8S104.4,898.3,104.4,894.9z
				 M113.8,894.9c0-2.4-1.5-4.2-3.8-4.2c-2.3,0-3.8,1.8-3.8,4.2s1.5,4.2,3.8,4.2C112.3,899.1,113.8,897.3,113.8,894.9z"/>
			<path class="st2" d="M118,900.6v-11.4h4.9c2.8,0,4.2,1.1,4.2,3.1c0,1.4-0.9,2.2-1.9,2.4c1.3,0.2,2.3,1,2.3,2.6
				c0,2.2-1.6,3.3-4.5,3.3H118z M119.8,894h3.2c1.5,0,2.2-0.6,2.2-1.7c0-1.1-0.6-1.6-2.2-1.6h-3.2V894z M119.8,899h3.4
				c1.6,0,2.4-0.5,2.4-1.7c0-1.1-0.9-1.7-2.4-1.7h-3.4V899z"/>
			<path class="st2" d="M129.7,900.6v-11.4h1.8v4.8h2.4l3.6-4.8h2.1l-4.2,5.5l4.5,5.9h-2.2l-3.8-5h-2.5v5H129.7z"/>
			<path class="st2" d="M141.6,900.6v-11.4h1.8v8.6l6.8-8.6h1.6v11.4H150v-8.7l-6.8,8.7H141.6z"/>
			<path class="st2" d="M45.3,921.5v-11.4h1.8v8.6l6.8-8.6h1.6v11.4h-1.8v-8.7l-6.8,8.7H45.3z"/>
			<path class="st2" d="M64.3,921.5v-11.4h4.9c2.8,0,4.2,1.1,4.2,3.1c0,1.4-0.9,2.2-1.9,2.4c1.3,0.2,2.3,1,2.3,2.6
				c0,2.2-1.6,3.3-4.5,3.3H64.3z M66.1,914.9h3.2c1.5,0,2.2-0.6,2.2-1.7c0-1.1-0.6-1.6-2.2-1.6h-3.2V914.9z M66.1,919.9h3.4
				c1.6,0,2.4-0.5,2.4-1.7c0-1.1-0.9-1.7-2.4-1.7h-3.4V919.9z"/>
			<path class="st2" d="M76,921.5v-11.4h1.8v3.7h2.9c2.8,0,4.5,1.4,4.5,3.8c0,2.4-1.6,3.8-4.5,3.8H76z M77.8,919.9h2.6
				c1.9,0,2.9-0.8,2.9-2.3c0-1.5-1-2.3-2.9-2.3h-2.6V919.9z M87.1,921.5v-11.4h1.8v11.4H87.1z"/>
			<path class="st2" d="M102.9,915.8c0,3.5-2.3,5.8-5.5,5.8c-1.9,0-3.2-0.8-3.9-1.9v6.2h-1.8v-15.9h1.6l0.2,1.8c0.8-1.1,2-2,3.9-2
				C100.6,909.9,102.9,912.1,102.9,915.8z M101,915.8c0-2.5-1.5-4.2-3.8-4.2c-2.2,0-3.8,1.7-3.8,4.2c0,2.5,1.5,4.3,3.8,4.3
				C99.5,920,101,918.3,101,915.8z"/>
			<path class="st2" d="M115.9,919.8v1.7h-1c-1.5,0-2-0.6-2.1-1.8c-0.7,1-1.9,1.9-3.8,1.9c-2.5,0-4.2-1.3-4.2-3.3
				c0-2.3,1.6-3.6,4.6-3.6h3.4v-0.8c0-1.5-1.1-2.4-2.8-2.4c-1.6,0-2.7,0.8-2.9,1.9h-1.8c0.3-2.2,2.1-3.6,4.8-3.6
				c2.9,0,4.6,1.5,4.6,4.1v5c0,0.6,0.2,0.8,0.7,0.8H115.9z M112.7,916.3h-3.5c-1.6,0-2.5,0.6-2.5,1.9c0,1.1,1,1.9,2.5,1.9
				c2.3,0,3.6-1.3,3.6-3.2V916.3z"/>
			<path class="st2" d="M126.7,918.2c0,2.1-1.9,3.4-5,3.4c-3.2,0-4.6-1.3-4.7-3.6h1.9c0.3,1.4,1,2.1,2.9,2.1s3.1-0.7,3.1-1.9
				c0-1.2-0.9-1.7-2.3-1.7h-1.9v-1.6h1.8c1.3,0,2.1-0.5,2.1-1.7c0-1-1-1.7-2.7-1.7c-1.9,0-2.7,0.8-2.9,2H117
				c0.1-2.1,1.9-3.6,4.9-3.6c2.9,0,4.6,1.3,4.6,3.2c0,1.4-0.8,2.2-2,2.5C125.8,915.8,126.7,916.7,126.7,918.2z"/>
			<path class="st2" d="M128.9,921.5v-11.4h1.8v8.6l6.8-8.6h1.6v11.4h-1.8v-8.7l-6.8,8.7H128.9z"/>
			<path class="st2" d="M145.1,921.5v-9.7h-4.1v-1.7H151v1.7h-4.1v9.7H145.1z"/>
			<path class="st2" d="M151.7,915.8c0-3.5,2.2-5.8,5.4-5.8c3.2,0,5.3,2,5.4,5.4c0,0.2,0,0.5,0,0.8h-8.9v0.2
				c0.1,2.2,1.4,3.7,3.6,3.7c1.6,0,2.9-0.8,3.2-2.3h1.9c-0.4,2.3-2.3,4-5,4C153.9,921.6,151.7,919.3,151.7,915.8z M160.6,914.6
				c-0.2-2-1.5-3.1-3.4-3.1c-1.7,0-3.2,1.2-3.4,3.1H160.6z"/>
			<path class="st2" d="M163.3,921.5v-1.7h0.3c1.3,0,1.8-0.8,1.8-4.2v-5.5h8.6v11.4h-1.8v-9.7h-5v3.9c0,4.5-1.1,5.8-3.3,5.8H163.3z"
				/>
			<path class="st2" d="M176.8,921.5v-11.4h1.8v3.7h3.1c2.8,0,4.5,1.4,4.5,3.8c0,2.4-1.6,3.8-4.5,3.8H176.8z M178.6,919.9h2.8
				c1.9,0,2.9-0.8,2.9-2.3c0-1.5-1-2.3-2.9-2.3h-2.8V919.9z"/>
			<path class="st2" d="M196.6,910.1h1.8v11.4h-1.8v-5h-6.4v5h-1.8v-11.4h1.8v4.8h6.4V910.1z"/>
			<path class="st2" d="M201.2,921.5v-11.4h1.8v3.7h2.9c2.8,0,4.5,1.4,4.5,3.8c0,2.4-1.6,3.8-4.5,3.8H201.2z M203,919.9h2.6
				c1.9,0,2.9-0.8,2.9-2.3c0-1.5-1-2.3-2.9-2.3H203V919.9z M212.3,921.5v-11.4h1.8v11.4H212.3z"/>
			<path class="st2" d="M216.8,921.5v-11.4h1.8v8.6l6.8-8.6h1.6v11.4h-1.8v-8.7l-6.8,8.7H216.8z M218.6,905.7h1.5
				c0,1.1,0.5,1.8,1.8,1.8c1.3,0,1.8-0.7,1.8-1.8h1.5c0,1.9-1.2,3.1-3.4,3.1C219.8,908.8,218.7,907.6,218.6,905.7z"/>
			<path class="st2" d="M239,921.5v-9.7h-4.1v-1.7h10.1v1.7h-4.1v9.7H239z"/>
			<path class="st2" d="M245.6,915.8c0-3.5,2.2-5.8,5.4-5.8c3.2,0,5.3,2,5.4,5.4c0,0.2,0,0.5,0,0.8h-8.9v0.2
				c0.1,2.2,1.4,3.7,3.6,3.7c1.6,0,2.9-0.8,3.2-2.3h1.9c-0.4,2.3-2.3,4-5,4C247.9,921.6,245.6,919.3,245.6,915.8z M254.5,914.6
				c-0.2-2-1.5-3.1-3.4-3.1c-1.7,0-3.2,1.2-3.4,3.1H254.5z"/>
			<path class="st2" d="M258.8,921.5v-11.4h1.8v4.8h2.4l3.6-4.8h2.1l-4.2,5.5l4.5,5.9h-2.2l-3.8-5h-2.5v5H258.8z"/>
			<path class="st2" d="M269.7,915.8c0-3.5,2.3-5.9,5.6-5.9c2.8,0,4.6,1.6,5,4.1h-1.9c-0.3-1.5-1.5-2.4-3.1-2.4
				c-2.2,0-3.7,1.7-3.7,4.2c0,2.5,1.5,4.2,3.7,4.2c1.6,0,2.8-0.9,3.1-2.4h1.9c-0.4,2.5-2.3,4-5.1,4
				C271.9,921.6,269.7,919.3,269.7,915.8z"/>
			<path class="st2" d="M285.3,921.5v-9.7h-4.1v-1.7h10.1v1.7h-4.1v9.7H285.3z"/>
		</g>
	</g>
	<g>
		<g>
			<path class="st0" d="M421.9,893.1h-53.8v-8.7H434v6.6l-46.6,72h-10.7L421.9,893.1z"/>
			<path class="st0" d="M435.2,955.1l37.4-25.4c10.7-7.2,16.1-14.6,16.1-22c0-9.9-7.4-15.5-21.2-15.5c-13.4,0-22.1,6.6-22.1,17.5
				v1.5h-9.4v-2c0-15.3,12.9-25.4,31.6-25.4c19.6,0,30.9,8.9,30.9,23.5c0,11.5-5.4,18.9-21.2,29.4l-26.6,17.8h48.8v8.7h-64.1V955.1z
				"/>
			<path class="st0" d="M500.6,977.7l31.8-96.6h9.1l-31.8,96.6H500.6z"/>
			<path class="st0" d="M550,952.5c-5.5-6.9-8.1-16.4-8.1-28.4c0-26.4,12.3-40.3,35.3-40.3c16.7,0,27.5,7.3,30.2,20.6H598
				c-2.7-8.4-9.3-12.2-21.1-12.2c-17.1,0-25.8,9.9-25.8,29.3c0,1,0,1.8,0.1,2.6c3.7-8.4,13.6-13.3,27.3-13.3
				c19.2,0,30.9,9.9,30.9,26.3c0,16.4-12.6,26.7-32.6,26.7C565.2,963.8,556,959.9,550,952.5z M599.7,937.2
				c0-11.6-8.3-18.2-22.7-18.2c-14.2,0-22.8,6.9-22.8,18.2c0,11.1,8.9,18.2,22.7,18.2C591.2,955.5,599.7,948.7,599.7,937.2z"/>
			<path class="st0" d="M615.4,942c0-10.2,7-17.8,19-19.9c-10.1-1.7-16.3-8.2-16.3-17.4c0-12.9,11.9-20.9,31.1-20.9
				c19.2,0,31.1,8,31.1,20.9c0,9.1-6.4,15.7-16.3,17.4c12,2.1,19,9.7,19,19.9c0,13.4-13,21.8-33.8,21.8
				C628.5,963.8,615.4,955.3,615.4,942z M673.4,941.1c0-9.2-8.5-14.3-24.2-14.3s-24.2,5.1-24.2,14.3c0,9.3,8.5,14.4,24.2,14.4
				S673.4,950.4,673.4,941.1z M670.7,904.9c0-8.2-7.6-12.8-21.5-12.8c-13.8,0-21.5,4.5-21.5,12.8c0,8.3,7.6,12.9,21.5,12.9
				C663.1,917.8,670.7,913.2,670.7,904.9z"/>
			<path class="st0" d="M374.6,983.4h38.3c17.1,0,28,9.4,28,24.2c0,12.1-7.5,20.3-20.9,22.9l21.6,31.6H430l-20.5-30.2h-25.2v30.2
				h-9.8V983.4z M412.9,1022.8c11,0,18-6,18-15.3c0-9.2-7-15.2-18-15.2h-28.5v30.5H412.9z"/>
			<path class="st0" d="M449.9,983.4h59.2v9h-49.4v25.2H501v9h-41.4v26.5h51.2v9h-61V983.4z"/>
			<path class="st0" d="M512.4,1022.7c0-24,17.6-40,44.4-40c21,0,35.6,9.8,39.3,26.3h-10.5c-3.7-11.4-13.7-17.3-29.1-17.3
				c-20.9,0-34.2,12-34.2,31c0,18.9,13.1,31,33.7,31c19.2,0,31.6-8.9,31.6-22.6v-2.7h-29.4v-9h39v42.6h-8.4l-0.7-11.5
				c-5.4,7.4-18,12.1-32.1,12.1C530.1,1062.7,512.4,1046.4,512.4,1022.7z"/>
			<path class="st0" d="M607.9,1028.4v-45.1h9.8v45.6c0,16.4,8.7,24.7,25.7,24.7c17.3,0,26.1-8.3,26.1-24.7v-45.6h9.8v45.1
				c0,22.4-12.5,34.3-35.8,34.3C620.1,1062.7,607.9,1050.9,607.9,1028.4z"/>
			<path class="st0" d="M690.5,983.4h9.8v69.7h43.9v9h-53.7V983.4z"/>
			<path class="st0" d="M783.5,983.4H795l36.2,78.7h-10.8l-9.7-21.2h-43.4l-9.6,21.2h-10.5L783.5,983.4z M806.7,1031.9l-17.6-39
				l-17.6,39H806.7z"/>
			<path class="st0" d="M837,983.4h38.3c17.1,0,28,9.4,28,24.2c0,12.1-7.5,20.3-20.9,22.9l21.6,31.6h-11.6l-20.5-30.2h-25.2v30.2
				H837V983.4z M875.3,1022.8c11,0,18-6,18-15.3c0-9.2-7-15.2-18-15.2h-28.5v30.5H875.3z"/>
			<path class="st0" d="M408.3,1161.7c-11.5,0-20.6-2.3-27.3-7c-6.7-4.7-10.1-11.1-10.3-19.4h15.1c0.4,4.4,2.6,7.9,6.6,10.3
				c4,2.5,9.4,3.7,16.1,3.7c13.2,0,19.8-3.5,19.8-10.6c0-3.2-1.4-5.5-4.3-6.9c-2.9-1.3-8.5-2.5-16.9-3.6c-12.4-1.5-21.2-4-26.4-7.4
				c-5.1-3.4-7.7-8.7-7.7-15.6c0-7.3,3-13,9-17.2c6-4.2,14.2-6.3,24.6-6.3c10.7,0,19.2,2.2,25.5,6.5c6.3,4.3,9.6,10.3,9.9,18h-15.1
				c-0.6-3.9-2.7-6.9-6.2-9c-3.5-2.1-8.3-3.1-14.4-3.1c-12.1,0-18.2,3.4-18.2,10.1c0,3.2,1.5,5.5,4.4,6.9c2.9,1.3,8.6,2.5,17,3.5
				c12.2,1.3,20.9,3.8,26.2,7.3c5.2,3.5,7.9,8.7,7.9,15.6c0,7.4-3.2,13.3-9.6,17.7C427.6,1159.5,419,1161.7,408.3,1161.7z"/>
			<path class="st0" d="M451,1161v-78.7h61.4v13.3h-46.2v19.3h38.1v12.7h-38.1v20.1h47.9v13.3H451z"/>
			<path class="st0" d="M520.8,1161v-78.7H540l30.7,60.3l30.2-60.3H620v78.7h-14.9v-55.5l-28.4,55.5h-12.6l-28.3-55.5v55.5H520.8z"
				/>
			<path class="st0" d="M630.4,1161v-78.7h15.2v78.7H630.4z"/>
			<path class="st0" d="M655.9,1161v-78.7h37.4c9.5,0,16.8,1.8,21.9,5.4c5.1,3.6,7.6,8.7,7.6,15.4c0,9-4.7,14.7-14.2,17.2
				c11.8,1.8,17.8,7.9,17.8,18.2c0,7.3-2.8,12.9-8.4,16.7c-5.6,3.8-13.8,5.7-24.6,5.7H655.9z M671.1,1115.2h23.4
				c4.3,0,7.5-0.9,9.8-2.7c2.3-1.8,3.4-4.3,3.4-7.6c0-3.3-1.1-5.8-3.4-7.6c-2.3-1.8-5.6-2.7-9.8-2.7h-23.4V1115.2z M671.1,1148.8
				H695c10.7,0,16.1-3.6,16.1-10.8c0-7.2-5.4-10.8-16.1-10.8h-23.9V1148.8z"/>
			<path class="st0" d="M776.6,1161.7c-13.5,0-24.5-3.7-32.9-11.1c-8.5-7.4-12.7-17-12.7-28.9c0-11.8,4.2-21.5,12.7-28.9
				c8.5-7.4,19.4-11.1,32.9-11.1c13.6,0,24.6,3.7,33,11.1c8.5,7.4,12.7,17,12.7,28.9c0,11.8-4.2,21.5-12.7,28.9
				C801.1,1158,790.1,1161.7,776.6,1161.7z M776.6,1148.6c9.2,0,16.6-2.4,22-7.3c5.5-4.9,8.2-11.4,8.2-19.7c0-8.2-2.7-14.8-8.2-19.7
				c-5.5-4.9-12.8-7.3-22-7.3c-9.1,0-16.4,2.5-21.9,7.4c-5.5,4.9-8.2,11.4-8.2,19.6c0,8.2,2.7,14.7,8.2,19.6
				C760.1,1146.2,767.4,1148.6,776.6,1148.6z"/>
			<path class="st0" d="M829.7,1161v-78.7h15.2v65.4h40.6v13.3H829.7z"/>
			<path class="st0" d="M892.1,1161v-78.7h33c14.4,0,25.8,3.5,34.3,10.5c8.5,7,12.7,16.6,12.7,28.8c0,12.2-4.2,21.8-12.7,28.9
				c-8.5,7-19.9,10.6-34.3,10.6H892.1z M907.3,1147.7h17.9c10.1,0,17.9-2.2,23.3-6.7c5.4-4.5,8.1-11,8.1-19.5c0-8.5-2.7-15-8.1-19.4
				c-5.4-4.4-13.2-6.6-23.4-6.6h-17.9V1147.7z"/>
			<path class="st0" d="M373.2,1181.3h39.2c20.5,0,31.5,7.3,31.5,20.8c0,9.9-5.3,15.6-15.7,17.3c12.8,1.5,19,7.6,19,18.2
				c0,14.5-12.2,22.4-35.1,22.4h-38.9V1181.3z M414.1,1212.7c5.7,0,9.1-2.9,9.1-7.9c0-4.9-3.4-7.9-9.1-7.9h-20.2v15.7H414.1z
				 M415.3,1244.2c7.2,0,10.8-2.7,10.8-8.1c0-5.2-3.8-8.1-10.8-8.1h-21.5v16.2H415.3z"/>
			<path class="st0" d="M449.9,1220.6c0-23.4,19.4-40,46.9-40c27.4,0,46.9,16.5,46.9,40c0,23.5-19.4,40-46.9,40
				C469.3,1260.6,449.9,1244,449.9,1220.6z M522.5,1220.6c0-14-9.9-22.9-25.7-22.9s-25.7,8.9-25.7,22.9c0,14,9.9,22.9,25.7,22.9
				S522.5,1234.7,522.5,1220.6z"/>
			<path class="st0" d="M549.5,1181.3h20.7v61.1h37.2v17.5h-57.9V1181.3z"/>
			<path class="st0" d="M613.2,1181.3h35c29.4,0,48.8,14.4,48.8,39.1c0,24.7-19.4,39.6-48.8,39.6h-35V1181.3z M648.1,1242.4
				c18.1,0,27.5-7.2,27.5-22c0-14.8-9.2-21.6-27.5-21.6h-14.3v43.6H648.1z"/>
		</g>
	</g>
	<g>
		<g>
			<path class="st2" d="M44.8,1437.8h2c0.1,2.1,1.6,3,3.9,3c2.3,0,3.7-1,3.7-2.8c0-1.8-1.3-2.7-3.7-2.7h-1.6v-1.6h1.5
				c2.3,0,3.4-1,3.4-2.7c0-1.7-1.4-2.5-3.4-2.5c-2.2,0-3.6,1.1-3.7,2.9h-2c0.1-2.8,2.4-4.7,5.7-4.7c3.4,0,5.4,1.7,5.4,4.1
				c0,2.1-1,3.2-2.6,3.6c1.5,0.4,3,1.4,3,3.8c0,2.7-2.3,4.5-5.8,4.5C47,1442.7,44.9,1440.9,44.8,1437.8z"/>
			<path class="st2" d="M69.5,1440.8v1.7h-1c-1.5,0-2-0.6-2.1-1.8c-0.7,1-1.9,1.9-3.8,1.9c-2.5,0-4.2-1.3-4.2-3.3
				c0-2.3,1.6-3.6,4.6-3.6h3.4v-0.8c0-1.5-1.1-2.4-2.8-2.4c-1.6,0-2.7,0.8-2.9,1.9h-1.8c0.3-2.2,2.1-3.6,4.8-3.6
				c2.9,0,4.6,1.5,4.6,4.1v5c0,0.6,0.2,0.8,0.7,0.8H69.5z M66.4,1437.3h-3.5c-1.6,0-2.5,0.6-2.5,1.9c0,1.1,1,1.9,2.5,1.9
				c2.3,0,3.6-1.3,3.6-3.2V1437.3z"/>
			<path class="st2" d="M71.2,1442.5v-11.4h7.3v1.7H73v9.7H71.2z"/>
			<path class="st2" d="M79.2,1436.8c0-3.5,2.3-5.8,5.7-5.8s5.7,2.4,5.7,5.8c0,3.5-2.3,5.8-5.7,5.8S79.2,1440.3,79.2,1436.8z
				 M88.6,1436.8c0-2.4-1.5-4.2-3.8-4.2c-2.3,0-3.8,1.8-3.8,4.2s1.5,4.2,3.8,4.2C87.1,1441,88.6,1439.3,88.6,1436.8z"/>
			<path class="st2" d="M91.3,1442.5v-1.7h0.3c1.3,0,1.8-0.8,1.8-4.2v-5.5h8.6v11.4h-1.8v-9.7h-5v3.9c0,4.5-1.1,5.8-3.3,5.8H91.3z"
				/>
			<path class="st2" d="M104.4,1436.8c0-3.5,2.3-5.8,5.7-5.8s5.7,2.4,5.7,5.8c0,3.5-2.3,5.8-5.7,5.8S104.4,1440.3,104.4,1436.8z
				 M113.8,1436.8c0-2.4-1.5-4.2-3.8-4.2c-2.3,0-3.8,1.8-3.8,4.2s1.5,4.2,3.8,4.2C112.3,1441,113.8,1439.3,113.8,1436.8z"/>
			<path class="st2" d="M118,1442.5v-11.4h4.9c2.8,0,4.2,1.1,4.2,3.1c0,1.4-0.9,2.2-1.9,2.4c1.3,0.2,2.3,1,2.3,2.6
				c0,2.2-1.6,3.3-4.5,3.3H118z M119.8,1436h3.2c1.5,0,2.2-0.6,2.2-1.7c0-1.1-0.6-1.6-2.2-1.6h-3.2V1436z M119.8,1441h3.4
				c1.6,0,2.4-0.5,2.4-1.7c0-1.1-0.9-1.7-2.4-1.7h-3.4V1441z"/>
			<path class="st2" d="M129.7,1442.5v-11.4h1.8v4.8h2.4l3.6-4.8h2.1l-4.2,5.5l4.5,5.9h-2.2l-3.8-5h-2.5v5H129.7z"/>
			<path class="st2" d="M141.6,1442.5v-11.4h1.8v8.6l6.8-8.6h1.6v11.4H150v-8.7l-6.8,8.7H141.6z"/>
			<path class="st2" d="M45.3,1463.4V1452h1.8v8.6l6.8-8.6h1.6v11.4h-1.8v-8.7l-6.8,8.7H45.3z"/>
			<path class="st2" d="M64.3,1463.4V1452h1.8v4.8h2.4l3.6-4.8h2.1l-4.2,5.5l4.5,5.9h-2.2l-3.8-5h-2.5v5H64.3z"/>
			<path class="st2" d="M87.4,1457.7c0,3.5-2.3,5.8-5.5,5.8c-1.9,0-3.2-0.8-3.9-1.9v6.2h-1.8V1452h1.6l0.2,1.8c0.8-1.1,2-2,3.9-2
				C85,1451.9,87.4,1454,87.4,1457.7z M85.5,1457.7c0-2.5-1.5-4.2-3.8-4.2c-2.2,0-3.8,1.7-3.8,4.2c0,2.5,1.5,4.3,3.8,4.3
				C84,1461.9,85.5,1460.2,85.5,1457.7z"/>
			<path class="st2" d="M88,1452h1.9l3.5,9.1l3.4-9.1h1.9l-5.3,13.3c-0.7,1.8-1.1,2.5-2.8,2.5h-2.2v-1.7h1.6c1.1,0,1.2-0.3,1.7-1.3
				l0.6-1.4L88,1452z"/>
			<path class="st2" d="M100.4,1463.4V1452h9.9v11.4h-1.8v-9.7h-6.2v9.7H100.4z"/>
			<path class="st2" d="M121.2,1452h1.8v11.4h-1.8v-5h-6.4v5H113V1452h1.8v4.8h6.4V1452z"/>
			<path class="st2" d="M125.8,1463.4V1452h1.8v3.7h2.9c2.8,0,4.5,1.4,4.5,3.8c0,2.4-1.6,3.8-4.5,3.8H125.8z M127.6,1461.9h2.6
				c1.9,0,2.9-0.8,2.9-2.3c0-1.5-1-2.3-2.9-2.3h-2.6V1461.9z M136.8,1463.4V1452h1.8v11.4H136.8z"/>
			<path class="st2" d="M141,1457.7c0-3.5,2.2-5.8,5.4-5.8c3.2,0,5.3,2,5.4,5.4c0,0.2,0,0.5,0,0.8h-8.9v0.2c0.1,2.2,1.4,3.7,3.6,3.7
				c1.6,0,2.9-0.8,3.2-2.3h1.9c-0.4,2.3-2.3,4-5,4C143.2,1463.5,141,1461.2,141,1457.7z M149.9,1456.5c-0.2-2-1.5-3.1-3.4-3.1
				c-1.7,0-3.2,1.2-3.4,3.1H149.9z"/>
			<path class="st2" d="M160.2,1463.4V1452h9.9v11.4h-1.8v-9.7h-6.2v9.7H160.2z"/>
			<path class="st2" d="M172.4,1457.7c0-3.5,2.3-5.8,5.7-5.8s5.7,2.4,5.7,5.8c0,3.5-2.3,5.8-5.7,5.8S172.4,1461.2,172.4,1457.7z
				 M181.9,1457.7c0-2.4-1.5-4.2-3.8-4.2c-2.3,0-3.8,1.8-3.8,4.2s1.5,4.2,3.8,4.2C180.4,1461.9,181.9,1460.2,181.9,1457.7z"/>
			<path class="st2" d="M185.7,1457.7c0-3.5,2.3-5.9,5.6-5.9c2.8,0,4.6,1.6,5,4.1h-1.9c-0.3-1.5-1.5-2.4-3.1-2.4
				c-2.2,0-3.7,1.7-3.7,4.2c0,2.5,1.5,4.2,3.7,4.2c1.6,0,2.8-0.9,3.1-2.4h1.9c-0.4,2.5-2.3,4-5.1,4
				C187.9,1463.5,185.7,1461.3,185.7,1457.7z"/>
			<path class="st2" d="M197.2,1463.4v-1.7h0.3c1.3,0,1.8-0.8,1.8-4.2v-5.5h8.6v11.4h-1.8v-9.7h-5v3.9c0,4.5-1.1,5.8-3.3,5.8H197.2z
				"/>
			<path class="st2" d="M221.4,1461.7v1.7h-1c-1.5,0-2-0.6-2.1-1.8c-0.7,1-1.9,1.9-3.8,1.9c-2.5,0-4.2-1.3-4.2-3.3
				c0-2.3,1.6-3.6,4.6-3.6h3.4v-0.8c0-1.5-1.1-2.4-2.8-2.4c-1.6,0-2.7,0.8-2.9,1.9h-1.8c0.3-2.2,2.1-3.6,4.8-3.6
				c2.9,0,4.6,1.5,4.6,4.1v5c0,0.6,0.2,0.8,0.7,0.8H221.4z M218.2,1458.2h-3.5c-1.6,0-2.5,0.6-2.5,1.9c0,1.1,1,1.9,2.5,1.9
				c2.3,0,3.6-1.3,3.6-3.2V1458.2z"/>
			<path class="st2" d="M231.3,1452h1.8v11.4h-1.8v-5h-6.4v5H223V1452h1.8v4.8h6.4V1452z"/>
			<path class="st2" d="M235.8,1463.4V1452h1.8v8.6l6.8-8.6h1.6v11.4h-1.8v-8.7l-6.8,8.7H235.8z"/>
			<path class="st2" d="M257.8,1452v11.4h-1.8v-3.9h-3l-2.8,3.9h-2.1l3.1-4.2c-1.8-0.4-2.8-1.7-2.8-3.5c0-2.3,1.6-3.8,4.5-3.8H257.8
				z M255.9,1457.9v-4.3h-3.1c-1.7,0-2.7,0.7-2.7,2.1c0,1.5,1,2.2,2.7,2.2H255.9z"/>
		</g>
	</g>
	<g>
		<g>
			<path class="st0" d="M407.1,1571.7v-93.4c-2.4,0.9-5.8,1.4-10.2,1.4h-28.1v-21.9h26.5c8.2,0,12.3-4.3,12.3-12.9v-13.9H433v140.6
				H407.1z"/>
			<path class="st0" d="M514,1572.9c-20.9,0-37.1-6-48.7-18c-11.6-12-17.4-28.8-17.4-50.3v-6.4c0-21.4,5.8-38.2,17.5-50.2
				c11.7-12.1,27.9-18.1,48.6-18.1c20.8,0,37,6,48.7,18.1c11.7,12.1,17.6,28.8,17.6,50.2v6.4c0,21.6-5.8,38.3-17.4,50.3
				C551.3,1566.9,535,1572.9,514,1572.9z M514,1550.6c26.8,0,40.2-15.6,40.2-46.8v-4.8c0-31.2-13.4-46.8-40.2-46.8
				c-26.7,0-40,15.6-40,46.8v4.8C474,1535,487.3,1550.6,514,1550.6z"/>
			<path class="st0" d="M698.3,1562.2c-11.2,7.1-26.6,10.6-46.3,10.6c-19.7,0-35.1-3.5-46.3-10.6c-11.2-7.1-16.8-16.9-16.8-29.3
				c0-9.1,2.8-16.7,8.5-22.8c5.7-6.1,13.7-10.1,24-12c-8.8-1.9-15.7-5.5-20.6-10.8c-4.9-5.4-7.3-12.1-7.3-20.1
				c0-11.5,5.3-20.6,15.8-27.3c10.5-6.7,24.7-10,42.7-10c17.9,0,32.2,3.3,42.7,10c10.5,6.7,15.8,15.8,15.8,27.3
				c0,8-2.4,14.7-7.3,20.1c-4.9,5.4-11.8,9-20.6,10.8c10.3,1.9,18.3,5.9,24,12c5.7,6.1,8.5,13.7,8.5,22.8
				C715.1,1545.4,709.5,1555.1,698.3,1562.2z M625.1,1547.9c6.3,3.8,15.3,5.7,26.9,5.7c11.7,0,20.6-1.9,26.9-5.7
				c6.3-3.8,9.4-9.3,9.4-16.4c0-7.2-3.1-12.8-9.4-16.6c-6.3-3.8-15.3-5.7-26.9-5.7c-11.7,0-20.6,1.9-26.9,5.7
				c-6.3,3.8-9.4,9.3-9.4,16.6C615.6,1538.6,618.8,1544.1,625.1,1547.9z M628.2,1482.7c5.6,3.3,13.5,5,23.8,5
				c10.3,0,18.2-1.7,23.8-5c5.6-3.3,8.3-8.2,8.3-14.5c0-6.2-2.8-10.9-8.3-14.2c-5.6-3.3-13.5-4.9-23.8-4.9
				c-10.3,0-18.3,1.6-23.8,4.9c-5.6,3.3-8.3,8-8.3,14.2C619.8,1474.5,622.6,1479.3,628.2,1482.7z"/>
			<path class="st0" d="M717.5,1597.8l56.9-172.8h16.3l-56.9,172.8H717.5z"/>
			<path class="st0" d="M822.6,1571.7v-93.4c-2.4,0.9-5.8,1.4-10.2,1.4h-28.1v-21.9h26.5c8.2,0,12.3-4.3,12.3-12.9v-13.9h25.5v140.6
				H822.6z"/>
			<path class="st0" d="M929.4,1572.9c-20.9,0-37.1-6-48.7-18c-11.6-12-17.4-28.8-17.4-50.3v-6.4c0-21.4,5.8-38.2,17.5-50.2
				c11.7-12.1,27.9-18.1,48.6-18.1c20.8,0,37,6,48.7,18.1c11.7,12.1,17.6,28.8,17.6,50.2v6.4c0,21.6-5.8,38.3-17.4,50.3
				C966.8,1566.9,950.5,1572.9,929.4,1572.9z M929.4,1550.6c26.8,0,40.2-15.6,40.2-46.8v-4.8c0-31.2-13.4-46.8-40.2-46.8
				c-26.7,0-40,15.6-40,46.8v4.8C889.5,1535,902.8,1550.6,929.4,1550.6z"/>
			<path class="st0" d="M1003,1571.7v-20.5l65.5-43.2c9.2-6,15.9-11.7,20-17c4.1-5.3,6.1-10.7,6.1-16.4c0-7.2-2.7-12.8-8.2-16.8
				c-5.5-3.9-13.4-5.9-23.7-5.9c-10,0-18.1,2.3-24.1,7c-6,4.7-9,11-9,19.1v2.2h-26.1v-3.8c0-13.8,5.5-25,16.6-33.7
				c11-8.6,25.3-13,42.9-13c18.2,0,32.5,3.9,42.8,11.7c10.3,7.8,15.5,18.4,15.5,31.9c0,10.6-2.8,19.7-8.5,27.4
				c-5.7,7.7-15.8,16.2-30.4,25.4l-36,23.1h76.1v22.3H1003z"/>
			<path class="st0" d="M440.6,1740.7c-20.6,0-36.9-4.2-48.8-12.6c-11.9-8.4-18.1-19.9-18.5-34.7h26.9c0.7,7.9,4.6,14.1,11.8,18.5
				c7.2,4.4,16.8,6.6,28.8,6.6c23.6,0,35.4-6.3,35.4-18.9c0-5.8-2.6-9.8-7.7-12.3c-5.2-2.4-15.2-4.6-30.2-6.4
				c-22.2-2.7-37.9-7.1-47.1-13.3c-9.2-6.2-13.8-15.5-13.8-27.9c0-13,5.4-23.3,16.2-30.8c10.8-7.6,25.4-11.4,43.9-11.4
				c19.2,0,34.3,3.9,45.5,11.6c11.2,7.7,17.1,18.5,17.8,32.2h-26.9c-1.1-7-4.8-12.3-11-16.1c-6.3-3.7-14.9-5.6-25.7-5.6
				c-21.7,0-32.5,6-32.5,18.1c0,5.8,2.6,9.8,7.8,12.3s15.3,4.5,30.3,6.2c21.8,2.4,37.4,6.8,46.8,13.1c9.4,6.3,14.1,15.6,14.1,27.9
				c0,13.3-5.7,23.8-17.1,31.6C475.1,1736.8,459.8,1740.7,440.6,1740.7z"/>
			<path class="st0" d="M517,1739.5v-140.6h109.7v23.7h-82.6v34.6h68.1v22.7h-68.1v36h85.6v23.7H517z"/>
			<path class="st0" d="M641.8,1739.5v-140.6h34.4l54.8,107.9l54-107.9h34.2v140.6h-26.7v-99.2l-50.8,99.2h-22.5l-50.6-99.2v99.2
				H641.8z"/>
			<path class="st0" d="M837.6,1739.5v-140.6h27.1v140.6H837.6z"/>
			<path class="st0" d="M883.2,1739.5v-140.6h66.9c17,0,30.1,3.2,39.2,9.6c9.1,6.4,13.7,15.6,13.7,27.5c0,16.1-8.4,26.3-25.3,30.7
				c21.2,3.2,31.7,14.1,31.7,32.5c0,13.1-5,23.1-15.1,29.9c-10,6.8-24.7,10.2-44,10.2H883.2z M910.4,1657.5h41.8
				c7.6,0,13.5-1.6,17.6-4.8c4.1-3.2,6.1-7.8,6.1-13.7c0-5.9-2-10.4-6.1-13.7c-4.1-3.2-9.9-4.8-17.6-4.8h-41.8V1657.5z
				 M910.4,1717.6h42.8c19.2,0,28.7-6.4,28.7-19.3s-9.6-19.3-28.7-19.3h-42.8V1717.6z"/>
			<path class="st0" d="M1099,1740.7c-24.1,0-43.7-6.6-58.9-19.9c-15.1-13.3-22.7-30.5-22.7-51.6c0-21.2,7.6-38.4,22.7-51.6
				c15.1-13.3,34.8-19.9,58.9-19.9c24.2,0,43.9,6.6,59.1,19.9c15.1,13.3,22.7,30.5,22.7,51.6c0,21.2-7.6,38.4-22.7,51.6
				C1142.9,1734.1,1123.3,1740.7,1099,1740.7z M1099,1717.4c16.5,0,29.6-4.4,39.4-13.1c9.8-8.7,14.7-20.4,14.7-35.2
				c0-14.7-4.9-26.5-14.7-35.2c-9.8-8.7-22.9-13.1-39.4-13.1c-16.3,0-29.4,4.4-39.2,13.2c-9.8,8.8-14.7,20.5-14.7,35.1
				c0,14.6,4.9,26.3,14.7,35.1C1069.6,1713,1082.7,1717.4,1099,1717.4z"/>
			<path class="st0" d="M1194,1739.5v-140.6h27.1v116.9h72.5v23.7H1194z"/>
			<path class="st0" d="M1305.5,1739.5v-140.6h59.1c25.7,0,46.1,6.2,61.3,18.7c15.1,12.5,22.7,29.6,22.7,51.4
				c0,21.8-7.6,39-22.7,51.6c-15.1,12.6-35.6,18.9-61.3,18.9H1305.5z M1332.7,1715.8h31.9c18.1,0,32-4,41.7-12
				c9.7-8,14.6-19.6,14.6-34.9c0-15.3-4.8-26.8-14.5-34.7c-9.6-7.8-23.6-11.8-41.8-11.8h-31.9V1715.8z"/>
			<path class="st0" d="M377.8,1766.6h70.1c36.6,0,56.3,13.1,56.3,37.2c0,17.7-9.4,27.9-28.1,30.9c22.9,2.6,34,13.7,34,32.5
				c0,25.9-21.9,40-62.7,40h-69.5V1766.6z M450.9,1822.7c10.2,0,16.3-5.2,16.3-14.1c0-8.8-6-14.1-16.3-14.1h-36.2v28.1H450.9z
				 M453.1,1879.2c12.9,0,19.3-4.8,19.3-14.5c0-9.2-6.8-14.5-19.3-14.5h-38.4v28.9H453.1z"/>
			<path class="st0" d="M515,1837c0-41.8,34.8-71.5,83.8-71.5c49,0,83.8,29.5,83.8,71.5c0,42-34.8,71.5-83.8,71.5
				C549.7,1908.5,515,1878.8,515,1837z M644.8,1837c0-25.1-17.7-41-46-41c-28.3,0-46,15.9-46,41s17.7,41,46,41
				C627.1,1877.9,644.8,1862.1,644.8,1837z"/>
			<path class="st0" d="M693,1766.6h37v109.3h66.5v31.3H693V1766.6z"/>
			<path class="st0" d="M806.9,1766.6h62.5c52.6,0,87.2,25.7,87.2,69.9c0,44.2-34.8,70.7-87.2,70.7h-62.5V1766.6z M869.4,1875.9
				c32.3,0,49.2-12.9,49.2-39.4c0-26.5-16.5-38.6-49.2-38.6h-25.5v78H869.4z"/>
		</g>
	</g>
</g>
</svg>
