<?xml version="1.0" encoding="utf-8"?>
<!-- Generator: Adobe Illustrator 22.0.0, SVG Export Plug-In . SVG Version: 6.00 Build 0)  -->
<svg version="1.1" id="Layer_1" xmlns="http://www.w3.org/2000/svg" xmlns:xlink="http://www.w3.org/1999/xlink" x="0px" y="0px"
	 viewBox="0 0 1080 1350" style="enable-background:new 0 0 1080 1350;" xml:space="preserve">
<style type="text/css">
	.st0{fill:#FFFFFF;}
</style>
<rect width="1080" height="1350"/>
<g>
	<path class="st0" d="M658.7,924.5v26.4v26.4v26.4v26.4v26.4c14.6,0,26.4-11.8,26.4-26.4l0,0v-26.4v-26.4v-26.4
		C685,936.3,673.2,924.5,658.7,924.5z"/>
	<polygon class="st0" points="289.5,425.5 315.9,425.5 342.2,425.5 368.6,425.5 368.6,399.1 368.6,372.8 368.6,346.4 368.6,320 
		368.6,293.7 342.2,293.7 315.9,293.7 289.5,293.7 263.1,293.7 236.8,293.7 236.8,320 236.8,346.4 236.8,372.8 236.8,399.1 
		236.8,425.5 263.1,425.5 	"/>
	<rect x="342.3" y="924.5" class="st0" width="26.4" height="26.4"/>
	<rect x="315.9" y="950.9" class="st0" width="26.4" height="26.4"/>
	<rect x="289.6" y="977.2" class="st0" width="26.4" height="26.4"/>
	<rect x="263.2" y="950.9" class="st0" width="26.4" height="26.4"/>
	<polygon class="st0" points="315.9,1030 289.6,1030 263.2,1030 236.8,1030 236.8,1056.3 263.2,1056.3 289.6,1056.3 315.9,1056.3 
		342.3,1056.3 368.7,1056.3 368.7,1030 342.3,1030 	"/>
	<rect x="236.8" y="924.5" class="st0" width="26.4" height="26.4"/>
	<polygon class="st0" points="474.1,978.2 447.8,978.2 421.4,978.2 395,978.2 395,1004.5 421.4,1004.5 447.8,1004.5 474.1,1004.5 
		500.5,1004.5 526.8,1004.5 526.8,978.2 500.5,978.2 	"/>
	<path class="st0" d="M553.2,950.9v26.4v26.4v26.4l0,0c0,14.6,11.8,26.4,26.4,26.4l0,0V1030v-26.4v-26.4v-26.4v-26.4l0,0
		C565,924.5,553.2,936.3,553.2,950.9z"/>
	<polygon class="st0" points="605.9,950.9 605.9,977.2 605.9,1003.6 605.9,1030 605.9,1056.3 632.3,1056.3 632.3,1030 632.3,1003.6 
		632.3,977.2 632.3,950.9 632.3,924.5 605.9,924.5 	"/>
	<polygon class="st0" points="711.4,950.9 711.4,977.2 711.4,1003.6 711.4,1030 711.4,1056.3 737.8,1056.3 737.8,1030 737.8,1003.6 
		737.8,977.2 737.8,950.9 737.8,924.5 711.4,924.5 	"/>
	<rect x="764.1" y="924.5" class="st0" width="26.4" height="26.4"/>
	<rect x="764.1" y="1030" class="st0" width="26.4" height="26.4"/>
	<rect x="790.5" y="950.9" class="st0" width="26.4" height="26.4"/>
	<rect x="790.5" y="1003.6" class="st0" width="26.4" height="26.4"/>
	<rect x="816.9" y="977.2" class="st0" width="26.4" height="26.4"/>
	<polygon class="st0" points="263.2,820 236.8,820 236.8,846.3 236.8,872.7 263.2,872.7 263.2,846.3 	"/>
	<rect x="263.2" y="793.6" class="st0" width="26.4" height="26.4"/>
	<rect x="289.6" y="767.2" class="st0" width="26.4" height="26.4"/>
	<polygon class="st0" points="289.6,872.7 263.2,872.7 263.2,899.1 289.6,899.1 315.9,899.1 342.3,899.1 342.3,872.7 315.9,872.7 	
		"/>
	<rect x="315.9" y="793.6" class="st0" width="26.4" height="26.4"/>
	<polygon class="st0" points="342.3,846.3 342.3,872.7 368.7,872.7 368.7,846.3 368.7,820 342.3,820 	"/>
	<path class="st0" d="M658.7,767.2h-26.4v26.4h-26.4v-26.4h-26.4v26.4h-26.4V820v26.4v0c0,14.6,11.8,26.4,26.4,26.4l0,0h26.4v26.4
		h26.4v-26.4h26.4c14.6,0,26.4-11.8,26.4-26.4v0V820v-26.4h-26.4V767.2z M658.7,846.3h-26.4h-26.4h-26.4V820h26.4h26.4h26.4V846.3z"
		/>
	<polygon class="st0" points="790.5,846.3 790.5,820 816.9,820 816.9,793.6 790.5,793.6 790.5,767.2 764.1,767.2 764.1,793.6 
		737.8,793.6 737.8,820 764.1,820 764.1,846.3 	"/>
	<polygon class="st0" points="790.5,899.1 816.9,899.1 816.9,872.7 790.5,872.7 764.1,872.7 737.8,872.7 737.8,899.1 764.1,899.1 	
		"/>
	<rect x="395" y="293.7" class="st0" width="26.4" height="26.4"/>
	<rect x="395" y="399.1" class="st0" width="26.4" height="26.4"/>
	<rect x="500.4" y="293.7" class="st0" width="26.4" height="26.4"/>
	<rect x="500.4" y="399.1" class="st0" width="26.4" height="26.4"/>
	<polygon class="st0" points="605.9,320 632.2,320 658.6,320 685,320 685,293.7 658.6,293.7 632.2,293.7 605.9,293.7 579.5,293.7 
		553.2,293.7 553.2,320 579.5,320 	"/>
	<polygon class="st0" points="605.9,372.8 632.2,372.8 658.6,372.8 685,372.8 685,346.4 658.6,346.4 632.2,346.4 605.9,346.4 
		579.5,346.4 553.2,346.4 553.2,372.8 579.5,372.8 	"/>
	<polygon class="st0" points="605.9,425.5 632.2,425.5 658.6,425.5 685,425.5 685,399.1 658.6,399.1 632.2,399.1 605.9,399.1 
		579.5,399.1 553.2,399.1 553.2,425.5 579.5,425.5 	"/>
	<rect x="711.3" y="346.4" class="st0" width="26.4" height="26.4"/>
	<polygon class="st0" points="764.1,320 790.4,320 816.8,320 843.2,320 843.2,293.7 816.8,293.7 790.4,293.7 764.1,293.7 
		737.7,293.7 711.3,293.7 711.3,320 737.7,320 	"/>
	<polygon class="st0" points="764.1,425.5 790.4,425.5 816.8,425.5 843.2,425.5 843.2,399.1 816.8,399.1 790.4,399.1 764.1,399.1 
		737.7,399.1 711.3,399.1 711.3,425.5 737.7,425.5 	"/>
	<rect x="764.1" y="346.4" class="st0" width="26.4" height="26.4"/>
	<rect x="816.8" y="346.4" class="st0" width="26.4" height="26.4"/>
	<polygon class="st0" points="263.1,531 263.1,504.6 263.1,478.2 236.8,478.2 236.8,504.6 236.8,531 236.8,557.3 263.1,557.3 	"/>
	<polygon class="st0" points="315.9,478.2 342.2,478.2 342.2,451.9 315.9,451.9 289.5,451.9 263.1,451.9 263.1,478.2 289.5,478.2 	
		"/>
	<polygon class="st0" points="289.5,557.3 263.1,557.3 263.1,583.7 289.5,583.7 315.9,583.7 342.2,583.7 342.2,557.3 315.9,557.3 	
		"/>
	<polygon class="st0" points="342.2,531 342.2,557.3 368.6,557.3 368.6,531 368.6,504.6 368.6,478.2 342.2,478.2 342.2,504.6 	"/>
	<path class="st0" d="M421.3,583.7h26.4v-26.4h-26.4V531v-26.4v-26.4h26.4h26.4h26.4v26.4V531h-26.4h-26.4v26.4h26.4h26.4h26.4V531
		v-26.4v-26.4v-26.4h-26.4h-26.4h-26.4h-26.4H395v26.4v26.4V531v26.4l0,0C395,571.9,406.8,583.7,421.3,583.7z"/>
	<path class="st0" d="M579.5,583.7h26.4h26.4h26.4c14.6,0,26.4-11.8,26.4-26.4l0,0V531v-26.4v-26.4c0-14.6-11.8-26.4-26.4-26.4
		h-26.4h-26.4h-26.4c-14.6,0-26.4,11.8-26.4,26.4v26.4V531v26.4l0,0C553.2,571.9,565,583.7,579.5,583.7z M579.5,531v-26.4v-26.4
		h26.4h26.4h26.4v26.4V531v26.4h-26.4h-26.4h-26.4V531z"/>
	<rect x="605.9" y="504.6" class="st0" width="26.4" height="26.4"/>
	<rect x="711.3" y="451.9" class="st0" width="26.4" height="26.4"/>
	<polygon class="st0" points="737.7,583.7 764.1,583.7 764.1,557.3 790.4,557.3 790.4,531 764.1,531 764.1,504.6 737.7,504.6 
		737.7,531 711.3,531 711.3,557.3 737.7,557.3 	"/>
	<polygon class="st0" points="790.4,531 816.8,531 816.8,504.6 843.2,504.6 843.2,478.2 816.8,478.2 816.8,451.9 790.4,451.9 
		790.4,478.2 764.1,478.2 764.1,504.6 790.4,504.6 	"/>
	<rect x="816.8" y="557.3" class="st0" width="26.4" height="26.4"/>
	<rect x="263.1" y="636.4" class="st0" width="26.4" height="26.4"/>
	<polygon class="st0" points="289.5,741.9 315.9,741.9 342.2,741.9 368.6,741.9 368.6,715.5 342.2,715.5 315.9,715.5 315.9,689.2 
		315.9,662.8 289.5,662.8 289.5,689.2 289.5,715.5 263.1,715.5 236.8,715.5 236.8,741.9 263.1,741.9 	"/>
	<polygon class="st0" points="342.2,636.4 342.2,610.1 315.9,610.1 315.9,636.4 315.9,662.8 342.2,662.8 	"/>
	<polygon class="st0" points="447.7,689.2 447.7,662.8 421.3,662.8 395,662.8 395,689.2 421.3,689.2 	"/>
	<polygon class="st0" points="474.1,636.4 474.1,610.1 447.7,610.1 447.7,636.4 447.7,662.8 474.1,662.8 	"/>
	<polygon class="st0" points="447.7,715.5 447.7,741.9 474.1,741.9 474.1,715.5 474.1,689.2 447.7,689.2 	"/>
	<polygon class="st0" points="500.4,689.2 526.8,689.2 526.8,662.8 500.4,662.8 474.1,662.8 474.1,689.2 	"/>
	<rect x="553.2" y="610.1" class="st0" width="26.4" height="26.4"/>
	<rect x="553.2" y="662.8" class="st0" width="26.4" height="26.4"/>
	<rect x="553.2" y="715.5" class="st0" width="26.4" height="26.4"/>
	<rect x="605.9" y="610.1" class="st0" width="26.4" height="26.4"/>
	<rect x="605.9" y="662.8" class="st0" width="26.4" height="26.4"/>
	<rect x="605.9" y="715.5" class="st0" width="26.4" height="26.4"/>
	<rect x="658.6" y="610.1" class="st0" width="26.4" height="26.4"/>
	<rect x="658.6" y="662.8" class="st0" width="26.4" height="26.4"/>
	<rect x="658.6" y="715.5" class="st0" width="26.4" height="26.4"/>
	<rect x="711.3" y="610.1" class="st0" width="26.4" height="26.4"/>
	<rect x="711.3" y="715.5" class="st0" width="26.4" height="26.4"/>
	<path class="st0" d="M764.1,715.5L764.1,715.5h26.4l0,0c14.6,0,26.4-11.8,26.4-26.4v-26.4c0-14.6-11.8-26.4-26.4-26.4l0,0h-26.4
		l0,0c-14.6,0-26.4,11.8-26.4,26.4v26.4C737.7,703.7,749.5,715.5,764.1,715.5z M764.1,662.8h26.4v26.4h-26.4V662.8z"/>
	<rect x="816.8" y="610.1" class="st0" width="26.4" height="26.4"/>
	<rect x="816.8" y="715.5" class="st0" width="26.4" height="26.4"/>
	<path class="st0" d="M500.5,767.2L500.5,767.2h-26.4h-26.4h-26.4c-14.6,0-26.4,11.8-26.4,26.4v0V820v0c0,14.6,11.8,26.4,26.4,26.4
		h26.4v26.4h-26.4H395v26.4h26.4h26.4h26.4h26.4h26.4v-26.4h-26.4h-26.4v-26.4h26.4l0,0c14.6,0,26.4-11.8,26.4-26.4v0v-26.4v0
		C526.8,779,515,767.2,500.5,767.2z M500.5,820h-26.4h-26.4h-26.4v-26.4h26.4h26.4h26.4V820z"/>
	<path class="st0" d="M500.4,346.4V320h-26.4v-26.4h-26.4V320h-26.4v26.4H395v26.4h26.4v26.4h26.4v26.4h26.4v-26.4h26.4v-26.4h26.4
		v-26.4H500.4z M474.1,372.8h-26.4v-26.4h26.4V372.8z"/>
</g>
</svg>
