<?xml version="1.0" encoding="utf-8"?>
<!-- Generator: Adobe Illustrator 22.0.0, SVG Export Plug-In . SVG Version: 6.00 Build 0)  -->
<svg version="1.1" id="Layer_1_copy" xmlns="http://www.w3.org/2000/svg" xmlns:xlink="http://www.w3.org/1999/xlink" x="0px"
	 y="0px" viewBox="0 0 3000 2000" style="enable-background:new 0 0 3000 2000;" xml:space="preserve">
<style type="text/css">
	.st0{fill:#322D2B;}
	.st1{fill:#FFFFFF;}
	.st2{fill:#B1C5E8;}
</style>
<rect class="st0" width="3000" height="2000"/>
<g>
	<g>
		<path class="st1" d="M1559,315.6c-6.9,0-12.3-1.3-16.1-4c-3.8-2.7-5.7-6.5-5.7-11.3c0-10.7,8.2-16,24.7-16h16.8v-1.8
			c0-6.1-4.6-9.2-13.7-9.2c-7.9,0-12.4,2.2-13.6,6.6h-12.4c0.6-5.1,3.3-9,8-11.8c4.7-2.8,11-4.2,18.8-4.2c16.9,0,25.4,6.5,25.4,19.4
			v17.1c0,2.7,1.4,4,4.1,4h2.3V315h-6.6c-3.2,0-5.8-0.7-7.7-2.1c-1.9-1.4-2.9-3.4-2.9-5.9v-0.2C1576,312.7,1568.9,315.6,1559,315.6z
			 M1561.2,306.3c5.2,0,9.4-1.1,12.6-3.4c3.2-2.2,4.8-5.2,4.8-8.8v-1.4h-17.3c-7.7,0-11.5,2.2-11.5,6.7
			C1549.8,304,1553.6,306.3,1561.2,306.3z"/>
		<path class="st1" d="M1630.8,315.6c-20,0-30-10.1-30-30.2c0-12.8,2.5-22,7.4-27.5c4.9-5.5,13.7-8.9,26.3-10.3l21.9-2.3v11
			l-19.2,1.9c-8.9,0.9-15,2.5-18.4,4.9c-3.4,2.3-5.7,6.6-6.7,12.7c4.5-5,11.8-7.5,22.1-7.5c8.4,0,15.1,2.1,20,6.2
			c4.9,4.1,7.4,9.8,7.4,16.9c0,7.4-2.8,13.2-8.4,17.6C1647.6,313.4,1640.2,315.6,1630.8,315.6z M1631.1,305.8
			c5.4,0,9.7-1.2,12.9-3.7c3.2-2.5,4.8-5.9,4.8-10.2c0-4.1-1.6-7.5-4.8-10c-3.2-2.5-7.4-3.8-12.8-3.8c-5.4,0-9.7,1.2-12.9,3.7
			c-3.2,2.4-4.8,5.7-4.8,9.7c0,4.5,1.6,8,4.7,10.6C1621.4,304.5,1625.7,305.8,1631.1,305.8z"/>
		<path class="st1" d="M1669,315v-50.6h30.4c6.8,0,12,1.1,15.6,3.4c3.6,2.3,5.4,5.6,5.4,9.9c0,2.8-0.8,5.2-2.3,7.2
			c-1.5,1.9-3.7,3.3-6.6,4c3.5,0.5,6.2,1.8,8,3.8c1.9,2,2.8,4.6,2.8,7.8c0,9.7-7.6,14.5-22.8,14.5H1669z M1681.2,285.2h18.2
			c5.5,0,8.3-2,8.3-6c0-3.9-2.7-5.9-8.2-5.9h-18.3V285.2z M1681.2,306.1h19.2c6.1,0,9.2-2.1,9.2-6.2s-3.1-6.2-9.2-6.2h-19.2V306.1z"
			/>
		<path class="st1" d="M1729.7,315v-50.6h41.5v10.8h-29V315H1729.7z"/>
		<path class="st1" d="M1767.1,328.3v-24.1h6.5c1.8-1.4,3.2-3.5,4-6.2c0.9-2.8,1.3-7.3,1.3-13.6v-20h48.3v39.9h7.2v24.1h-12.1V315
			h-43.1v13.3H1767.1z M1814.7,304.2v-29.6h-24.1v11.6c0,8.2-1.1,14.2-3.4,18H1814.7z"/>
		<path class="st1" d="M1867.1,315.6c-9.4,0-16.9-2.4-22.5-7.1c-5.6-4.7-8.4-10.9-8.4-18.7c0-7.8,2.7-14,8.2-18.8
			c5.5-4.8,12.7-7.2,21.6-7.2c8.8,0,15.9,2.3,21.3,6.8c5.4,4.5,8.1,10.4,8.1,17.8c0,2,0,3.4-0.1,4.1h-46v0.6c0,3.9,1.5,7.1,4.5,9.3
			c3,2.3,7.2,3.4,12.6,3.4c8.7,0,14-2.6,15.9-7.7h12.4c-1.1,5.2-4.1,9.4-9.2,12.6C1880.4,314,1874.3,315.6,1867.1,315.6z
			 M1849.5,283.9h33.1c-0.5-3.4-2.1-6-4.9-7.8c-2.8-1.8-6.7-2.7-11.6-2.7c-4.7,0-8.5,0.9-11.4,2.8
			C1851.8,278,1850.1,280.6,1849.5,283.9z"/>
		<path class="st1" d="M1931.4,315.6c-9.4,0-16.9-2.4-22.5-7.1c-5.6-4.7-8.4-10.9-8.4-18.7c0-7.8,2.7-14,8.2-18.8
			c5.5-4.8,12.7-7.2,21.6-7.2c8.8,0,15.9,2.3,21.3,6.8c5.4,4.5,8.1,10.4,8.1,17.8c0,2,0,3.4-0.1,4.1h-46v0.6c0,3.9,1.5,7.1,4.5,9.3
			c3,2.3,7.2,3.4,12.6,3.4c8.7,0,14-2.6,15.9-7.7h12.4c-1.1,5.2-4.1,9.4-9.2,12.6C1944.7,314,1938.6,315.6,1931.4,315.6z
			 M1923.7,256c-1.3,1.3-3,1.9-5,1.9c-2,0-3.7-0.6-5.1-1.9c-1.3-1.3-2-2.9-2-4.8c0-2,0.7-3.6,2-4.9c1.3-1.3,3-1.9,5.1-1.9
			c2,0,3.7,0.6,5,1.9c1.3,1.3,2,2.9,2,4.9C1925.7,253.1,1925,254.7,1923.7,256z M1913.8,283.9h33.1c-0.5-3.4-2.1-6-4.9-7.8
			c-2.8-1.8-6.7-2.7-11.6-2.7c-4.7,0-8.5,0.9-11.4,2.8C1916.1,278,1914.4,280.6,1913.8,283.9z M1946.4,256c-1.3,1.3-3,1.9-5.1,1.9
			c-2,0-3.7-0.6-5.1-1.9c-1.3-1.3-2-2.9-2-4.8c0-2,0.7-3.6,2-4.9c1.3-1.3,3-1.9,5.1-1.9c2,0,3.7,0.6,5.1,1.9c1.3,1.3,2,2.9,2,4.9
			C1948.5,253.1,1947.8,254.7,1946.4,256z"/>
		<path class="st1" d="M1958.5,315l18.7-26.5l-17.2-24.1h13.8l13.8,19.7h9.4v-19.7h12.3v19.7h9.4l13.8-19.7h13.8l-17.2,24.1
			L2048,315h-14.8l-14.2-20.3h-9.6V315h-12.3v-20.3h-9.6l-14.2,20.3H1958.5z"/>
		<path class="st1" d="M2074.2,315.6c-8.9,0-15.4-1.4-19.7-4.3c-4.2-2.9-6.5-7.2-6.9-13h12.4c0.6,2.8,2,4.9,4.1,6.2
			c2.2,1.3,5.5,2,10.1,2c4.9,0,8.6-0.6,11.1-1.7c2.6-1.1,3.8-2.8,3.8-4.9c0-3.9-3.6-5.8-10.8-5.8h-10.8v-9.1h10c7,0,10.6-2,10.6-6.1
			c0-3.9-4.3-5.8-13-5.8c-8.7,0-13.7,2.5-14.8,7.6h-12.4c0.4-5.2,3-9.3,7.9-12.3c4.9-3,11.4-4.5,19.6-4.5c8.2,0,14.4,1.3,18.8,3.7
			c4.4,2.5,6.6,6,6.6,10.5c0,2.8-1,5.2-3,7.1c-2,1.9-4.8,3.1-8.2,3.8c8.2,1.3,12.2,5.1,12.2,11.4c0,4.7-2.5,8.5-7.4,11.2
			C2089.7,314.2,2082.9,315.6,2074.2,315.6z"/>
		<path class="st1" d="M2109.4,315v-50.6h12.1v34.5l33.3-34.5h11V315h-12.1v-34.5l-33.4,34.5H2109.4z"/>
		<path class="st1" d="M2175.5,315v-50.6h12.1v34.5l33.3-34.5h11V315h-12.1v-34.5l-33.4,34.5H2175.5z M2203.4,259.3
			c-11.8,0-17.8-4.7-18-14.2h9.4c0,4.7,2.9,7,8.8,7c5.9,0,8.9-2.3,8.9-7h9.6c-0.1,4.5-1.7,8-4.8,10.5
			C2214.1,258,2209.5,259.3,2203.4,259.3z"/>
		<path class="st1" d="M2241.5,315v-50.6h12.5V284h10.9l17.3-19.6h14.8l-20.9,24.1l22.7,26.5H2283l-17.5-20.2h-11.4V315H2241.5z"/>
		<path class="st1" d="M2299.6,315v-10.8h2.1c3.3,0,5.6-1.1,6.9-3.4c1.3-2.3,2-6.3,2-12.1v-24.4h48V315h-12.5v-39.9h-23.9V289
			c0,9.3-1.5,15.9-4.4,19.9c-2.9,4-7.7,6-14.4,6H2299.6z"/>
		<path class="st1" d="M2368.2,315v-50.6h14.8l21.5,36.8l20.9-36.8h14.5V315h-11.7v-32.8l-19.2,32.8h-9.7l-19.3-32.8V315H2368.2z"/>
		<path class="st1" d="M2492.6,315v-20.2h-30.5V315h-12.5v-50.6h12.5V284h30.5v-19.6h12.5V315H2492.6z"/>
		<path class="st1" d="M2543.4,315.6c-9.2,0-16.7-2.4-22.3-7.2c-5.7-4.8-8.5-11-8.5-18.7c0-7.8,2.8-14,8.5-18.8
			c5.7-4.8,13.1-7.2,22.3-7.2c9.2,0,16.6,2.4,22.3,7.2c5.7,4.8,8.5,11,8.5,18.8c0,7.7-2.8,13.9-8.5,18.7
			C2559.9,313.2,2552.5,315.6,2543.4,315.6z M2543.4,305.2c5.5,0,9.9-1.4,13.1-4.2c3.2-2.8,4.8-6.6,4.8-11.3c0-4.8-1.6-8.6-4.8-11.4
			c-3.2-2.8-7.6-4.2-13.1-4.2c-5.6,0-10,1.4-13.2,4.2c-3.2,2.8-4.8,6.6-4.8,11.4c0,4.7,1.6,8.5,4.8,11.3
			C2533.4,303.8,2537.8,305.2,2543.4,305.2z"/>
		<path class="st1" d="M1539.5,398.4v-50.6h54.4v50.6h-12.5v-39.9H1552v39.9H1539.5z"/>
		<path class="st1" d="M1603.5,418.2v-70.3h11.4l1.1,6.7c4.5-4.9,11.1-7.3,19.8-7.3c8.5,0,15.4,2.4,20.6,7.3
			c5.3,4.8,7.9,11.1,7.9,18.7c0,7.7-2.6,13.9-7.9,18.7c-5.3,4.8-12.1,7.2-20.6,7.2c-8.6,0-15.2-2.5-19.8-7.5v26.6H1603.5z
			 M1633.6,388.7c5.6,0,10-1.4,13.2-4.1c3.2-2.8,4.8-6.5,4.8-11.3c0-4.8-1.6-8.6-4.8-11.4c-3.2-2.8-7.6-4.2-13.2-4.2
			c-5.5,0-9.8,1.4-13,4.2c-3.2,2.8-4.8,6.6-4.8,11.4c0,4.8,1.6,8.6,4.8,11.3C1623.8,387.3,1628.1,388.7,1633.6,388.7z"/>
		<path class="st1" d="M1699.6,399c-9,0-16.3-2.4-21.8-7.1c-5.5-4.7-8.3-11-8.3-18.7c0-7.8,2.8-14.1,8.3-18.8
			c5.6-4.7,12.9-7.1,22-7.1c7.6,0,13.9,1.7,18.7,5c4.9,3.4,7.9,8.1,9,14.1h-13c-0.7-2.8-2.4-5-5-6.5c-2.6-1.5-5.9-2.3-9.9-2.3
			c-5.3,0-9.6,1.4-12.7,4.2c-3.1,2.8-4.7,6.6-4.7,11.4c0,4.8,1.5,8.6,4.6,11.3c3.1,2.8,7.3,4.1,12.7,4.1c8.4,0,13.3-3,14.9-9h13
			c-1.1,6.1-4.1,10.8-9.1,14.2C1713.5,397.3,1707.2,399,1699.6,399z"/>
		<path class="st1" d="M1749.9,398.4v-39.9h-20.7v-10.8h54v10.8h-20.7v39.9H1749.9z"/>
		<path class="st1" d="M1789.4,418.2v-10.8h8.6c2.3,0,4-0.3,5.1-1c1.1-0.7,2.3-2.2,3.5-4.5l1.9-3.6l-23.2-50.5h13.5l16.7,38.1
			l17-38.1h13.4l-26.9,57.7c-2.4,5.1-4.8,8.5-7.2,10.2c-2.3,1.6-5.9,2.5-10.8,2.5H1789.4z"/>
		<path class="st1" d="M1879.6,418.2v-19.7h-1.1c-10.1,0-18.1-2.3-24.1-6.9c-6-4.6-9-10.7-9-18.3c0-7.7,3-13.8,9-18.4
			c6-4.6,14.1-6.9,24.1-6.9h1.1V331h12.3v16.9h1.1c10,0,18,2.3,24,6.9c6,4.6,9,10.8,9,18.4c0,7.6-3,13.7-9,18.3
			c-6,4.6-14,6.9-24,6.9h-1.1v19.7H1879.6z M1878.5,388.3h1.2V358h-1.2c-6.3,0-11.3,1.4-15,4.1c-3.7,2.7-5.5,6.4-5.5,11.1
			c0,4.7,1.8,8.4,5.5,11C1867.2,386.9,1872.2,388.3,1878.5,388.3z M1891.8,388.3h1.2c6.2,0,11.2-1.4,14.9-4.1
			c3.7-2.7,5.5-6.4,5.5-11c0-4.7-1.8-8.4-5.5-11.1c-3.7-2.7-8.6-4.1-14.9-4.1h-1.2V388.3z"/>
		<path class="st1" d="M1925,398.4l22.5-25.9l-21.2-24.7h15.3l14.1,16.6l14.2-16.6h14.5l-21.1,24.5l22.4,26.1h-15.2l-15.5-18.1
			l-15.5,18.1H1925z"/>
		<path class="st1" d="M2012.8,382.9c-8.5,0-14.8-1.6-18.8-4.8c-4-3.2-6-8.3-6-15.1v-15.2h12.5v14.4c0,3.4,1.1,6,3.4,7.6
			c2.2,1.6,5.9,2.5,10.9,2.5c4.5,0,8.9-0.9,13.2-2.7v-21.8h12.5v50.6h-12.5v-18C2023.1,382.1,2018.1,382.9,2012.8,382.9z"/>
		<path class="st1" d="M2050,398.4v-50.6h12.5v39.9h21.6v-39.9h12.5v39.9h21.6v-39.9h12.5v50.6H2050z"/>
		<path class="st1" d="M2140.4,398.4v-50.6h12.5v39.9h21.6v-39.9h12.5v39.9h21.6v-39.9h12.5v39.9h7.7v24.1h-12.1v-13.3H2140.4z"/>
		<path class="st1" d="M2244.1,398.4v-39.9h-17.6v-10.8h30.1V363h17.4c7,0,12.4,1.5,16.2,4.6c3.8,3.1,5.7,7.5,5.7,13.1
			c0,5.7-1.9,10-5.8,13.1c-3.8,3.1-9.2,4.6-16.1,4.6H2244.1z M2256.6,388.9h15.5c7.4,0,11-2.7,11-8.1c0-5.5-3.7-8.2-11-8.2h-15.5
			V388.9z"/>
		<path class="st1" d="M2302.8,398.4v-50.6h12.5V363h16.3c7,0,12.5,1.5,16.3,4.6c3.8,3.1,5.7,7.5,5.7,13.1c0,5.7-1.9,10-5.8,13.1
			c-3.8,3.1-9.3,4.6-16.2,4.6H2302.8z M2315.3,388.9h14.4c7.4,0,11.1-2.7,11.1-8.1c0-5.5-3.7-8.2-11.1-8.2h-14.4V388.9z M2361,398.4
			v-50.6h12.5v50.6H2361z"/>
		<path class="st1" d="M2383.1,398.4v-50.6h12.5V363h17.3c7,0,12.5,1.5,16.3,4.6c3.8,3.1,5.7,7.5,5.7,13.1c0,5.7-1.9,10-5.8,13.1
			c-3.8,3.1-9.3,4.6-16.2,4.6H2383.1z M2395.6,388.9h15.4c7.4,0,11.1-2.7,11.1-8.1c0-5.5-3.7-8.2-11.1-8.2h-15.4V388.9z"/>
		<path class="st1" d="M2467.3,399c-7.8,0-14.1-1.7-19-5c-4.9-3.3-8-8-9.2-14.1h12.8c1.7,5.9,6.8,8.9,15.3,8.9c4.6,0,8.4-1,11.3-2.9
			c3-1.9,4.9-4.7,5.8-8.2h-23.2v-9.1h23.2c-0.9-3.6-2.9-6.3-5.8-8.3s-6.7-3-11.3-3c-8.5,0-13.6,2.9-15.3,8.8h-12.8
			c1.2-6,4.3-10.6,9-14c4.8-3.3,11.1-5,18.9-5c9.3,0,16.8,2.4,22.3,7.1c5.5,4.7,8.3,11,8.3,18.9s-2.7,14.2-8.2,18.8
			C2484,396.7,2476.6,399,2467.3,399z"/>
		<path class="st1" d="M2559.8,399c-8,0-14.6-1.9-20-5.6c-5.4-3.7-8.7-8.7-10-15h-12.2v20H2505v-50.6h12.5v19.8h12.3
			c1.3-6.2,4.7-11.1,10-14.8c5.4-3.7,12-5.6,19.9-5.6c9,0,16.3,2.4,21.9,7.2c5.6,4.8,8.4,11,8.4,18.7s-2.8,13.9-8.4,18.7
			C2576.1,396.6,2568.8,399,2559.8,399z M2559.8,388.7c5.3,0,9.6-1.4,12.8-4.2c3.2-2.8,4.8-6.6,4.8-11.3c0-4.7-1.6-8.5-4.8-11.3
			c-3.2-2.8-7.5-4.2-12.8-4.2c-5.4,0-9.7,1.4-12.9,4.2c-3.2,2.8-4.8,6.6-4.8,11.4c0,4.7,1.6,8.5,4.8,11.3
			C2550.1,387.3,2554.4,388.7,2559.8,388.7z"/>
		<path class="st1" d="M2635.2,398.4v-16.1h-14.8l-11.9,16.1h-15.2l14.2-17.9c-3.9-0.9-6.9-2.7-9.1-5.4c-2.2-2.7-3.3-6-3.3-10
			c0-5.4,2-9.6,6.1-12.7c4-3.1,9.6-4.6,16.5-4.6h30v50.6H2635.2z M2617.9,372.7h17.4v-15.2h-17.4c-3.2,0-5.6,0.7-7.4,2
			c-1.8,1.3-2.7,3.2-2.7,5.5c0,2.4,0.9,4.3,2.6,5.7C2612.2,372,2614.6,372.7,2617.9,372.7z"/>
	</g>
</g>
<g>
	<g>
		<path class="st2" d="M51.3,1096h22.1v3.4H55v9.4h15.5v3.4H55v9.9h19.2v3.4H51.3V1096z"/>
		<path class="st2" d="M78,1096h3.7v26h16.4v3.4H78V1096z"/>
		<path class="st2" d="M106.9,1099.4H95.2v-3.4h27.1v3.4h-11.7v26h-3.7V1099.4z"/>
		<path class="st2" d="M131.9,1096h4.3l13.5,29.4h-4l-3.6-7.9h-16.2l-3.6,7.9h-3.9L131.9,1096z M140.6,1114.1l-6.6-14.6l-6.6,14.6
			H140.6z"/>
		<path class="st2" d="M163.7,1115.8h3.8c0.3,4.2,3.9,6.6,9.8,6.6c5.8,0,8.7-1.8,8.7-5c0-3.2-2.4-4.1-9-5
			c-8.9-1.2-12.5-3.3-12.5-8.2c0-5.2,4.5-8.4,12-8.4c7.6,0,12.3,3.3,12.7,8.9h-3.8c-0.5-3.6-3.7-5.6-8.9-5.6c-5.6,0-8.3,1.6-8.3,4.9
			c0,3.2,2.2,3.9,9.1,4.8c8.7,1.1,12.4,3.4,12.4,8.2c0,5.3-4.8,8.7-12.4,8.7C169,1125.7,164,1122,163.7,1115.8z"/>
		<path class="st2" d="M204.9,1096h4.3l13.5,29.4h-4l-3.6-7.9h-16.2l-3.6,7.9h-3.9L204.9,1096z M213.5,1114.1l-6.6-14.6l-6.6,14.6
			H213.5z"/>
		<path class="st2" d="M225.9,1096h3.4l19.8,23.5V1096h3.6v29.4h-3.4l-19.8-23.5v23.5h-3.6V1096z"/>
		<path class="st2" d="M256.9,1115.8h3.8c0.3,4.2,3.9,6.6,9.8,6.6c5.8,0,8.7-1.8,8.7-5c0-3.2-2.4-4.1-9-5
			c-8.9-1.2-12.5-3.3-12.5-8.2c0-5.2,4.5-8.4,12-8.4c7.6,0,12.3,3.3,12.7,8.9h-3.8c-0.5-3.6-3.7-5.6-8.9-5.6c-5.6,0-8.3,1.6-8.3,4.9
			c0,3.2,2.2,3.9,9.1,4.8c8.7,1.1,12.4,3.4,12.4,8.2c0,5.3-4.8,8.7-12.4,8.7C262.2,1125.7,257.2,1122,256.9,1115.8z"/>
		<path class="st2" d="M299.2,1096h3.7v12.8h19.2V1096h3.7v29.4h-3.7v-13.3h-19.2v13.3h-3.7V1096z"/>
		<path class="st2" d="M331.2,1096h22.1v3.4h-18.5v9.4h15.5v3.4h-15.5v9.9H354v3.4h-22.8V1096z"/>
		<path class="st2" d="M369.5,1096h4.3l13.5,29.4h-4l-3.6-7.9h-16.2l-3.6,7.9H356L369.5,1096z M378.2,1114.1l-6.6-14.6l-6.6,14.6
			H378.2z"/>
		<path class="st2" d="M390.6,1096h11.7c10.5,0,16.9,5.6,16.9,14.7c0,9.1-6.5,14.7-16.9,14.7h-11.7V1096z M402.2,1122
			c8.4,0,13.2-4.2,13.2-11.3c0-7.2-4.8-11.3-13.2-11.3h-8v22.7H402.2z"/>
		<path class="st2" d="M423.5,1096h3.7v26h16.4v3.4h-20.1V1096z"/>
		<path class="st2" d="M447.3,1096h3.7v29.4h-3.7V1096z"/>
		<path class="st2" d="M456.5,1096h3.4l19.8,23.5V1096h3.6v29.4h-3.4l-19.8-23.5v23.5h-3.6V1096z"/>
		<path class="st2" d="M488.7,1096h22.1v3.4h-18.5v9.4h15.5v3.4h-15.5v9.9h19.2v3.4h-22.8V1096z"/>
	</g>
</g>
<g>
	<g>
		<path class="st2" d="M731.7,1235.4h3.5c0.1,3.9,3.4,6.1,9.2,6.1c5.5,0,8.7-2,8.7-5.5c0-3.4-2.8-5-8.3-5h-3.7v-3.2h3.4
			c4.6,0,7.6-1.9,7.6-5.1c0-3.1-2.8-4.8-7.9-4.8s-7.9,1.9-8.3,5.6h-3.5c0.2-5.4,4.8-8.7,11.8-8.7c7.2,0,11.5,2.9,11.5,7.8
			c0,3.5-1.9,5.8-5.5,6.5c3.9,0.6,6.4,3.2,6.4,6.8c0,5.4-4.7,8.7-12.5,8.7C736.4,1244.7,731.8,1241.2,731.7,1235.4z"/>
		<path class="st2" d="M760.2,1230.4v-1.3c0-9.1,4.8-14.3,13.1-14.3s13.1,5.2,13.1,14.3v1.3c0,9.3-4.6,14.3-13.1,14.3
			S760.2,1239.7,760.2,1230.4z M782.8,1230.2v-1.1c0-7.5-3.2-11.2-9.5-11.2s-9.5,3.7-9.5,11.2v1.1c0,7.5,3.2,11.2,9.5,11.2
			S782.8,1237.7,782.8,1230.2z"/>
		<path class="st2" d="M790,1230.4v-1.3c0-9.1,4.8-14.3,13.1-14.3s13.1,5.2,13.1,14.3v1.3c0,9.3-4.6,14.3-13.1,14.3
			S790,1239.7,790,1230.4z M812.7,1230.2v-1.1c0-7.5-3.2-11.2-9.5-11.2s-9.5,3.7-9.5,11.2v1.1c0,7.5,3.2,11.2,9.5,11.2
			S812.7,1237.7,812.7,1230.2z"/>
	</g>
</g>
<g>
	<g>
		<path class="st2" d="M2430.7,1235.4h3.5c0.1,3.9,3.4,6.1,9.2,6.1c5.5,0,8.7-2,8.7-5.5c0-3.4-2.8-5-8.3-5h-3.7v-3.2h3.4
			c4.6,0,7.6-1.9,7.6-5.1c0-3.1-2.8-4.8-7.9-4.8s-7.9,1.9-8.3,5.6h-3.5c0.2-5.4,4.8-8.7,11.8-8.7c7.2,0,11.5,2.9,11.5,7.8
			c0,3.5-1.9,5.8-5.5,6.5c3.9,0.6,6.4,3.2,6.4,6.8c0,5.4-4.7,8.7-12.5,8.7C2435.4,1244.7,2430.8,1241.2,2430.7,1235.4z"/>
		<path class="st2" d="M2459.2,1230.4v-1.3c0-9.1,4.8-14.3,13.1-14.3c8.3,0,13.1,5.2,13.1,14.3v1.3c0,9.3-4.6,14.3-13.1,14.3
			S2459.2,1239.7,2459.2,1230.4z M2481.8,1230.2v-1.1c0-7.5-3.2-11.2-9.5-11.2c-6.4,0-9.5,3.7-9.5,11.2v1.1c0,7.5,3.2,11.2,9.5,11.2
			C2478.7,1241.4,2481.8,1237.7,2481.8,1230.2z"/>
		<path class="st2" d="M2489,1230.4v-1.3c0-9.1,4.8-14.3,13.1-14.3c8.3,0,13.1,5.2,13.1,14.3v1.3c0,9.3-4.6,14.3-13.1,14.3
			S2489,1239.7,2489,1230.4z M2511.7,1230.2v-1.1c0-7.5-3.2-11.2-9.5-11.2c-6.4,0-9.5,3.7-9.5,11.2v1.1c0,7.5,3.2,11.2,9.5,11.2
			C2508.5,1241.4,2511.7,1237.7,2511.7,1230.2z"/>
	</g>
</g>
<g>
	<g>
		<path class="st2" d="M1160.1,1428.2h-18.7v-3.4l18.1-18.9h4.1v19h5.8v3.2h-5.8v7.2h-3.5V1428.2z M1160.1,1425v-15l-14.3,15H1160.1
			z"/>
		<path class="st2" d="M1171.6,1421.4v-1.3c0-9.1,4.8-14.3,13.1-14.3s13.1,5.2,13.1,14.3v1.3c0,9.3-4.6,14.3-13.1,14.3
			S1171.6,1430.7,1171.6,1421.4z M1194.2,1421.2v-1.1c0-7.5-3.2-11.2-9.5-11.2s-9.5,3.7-9.5,11.2v1.1c0,7.5,3.2,11.2,9.5,11.2
			S1194.2,1428.7,1194.2,1421.2z"/>
		<path class="st2" d="M1201.4,1421.4v-1.3c0-9.1,4.8-14.3,13.1-14.3s13.1,5.2,13.1,14.3v1.3c0,9.3-4.6,14.3-13.1,14.3
			S1201.4,1430.7,1201.4,1421.4z M1224.1,1421.2v-1.1c0-7.5-3.2-11.2-9.5-11.2s-9.5,3.7-9.5,11.2v1.1c0,7.5,3.2,11.2,9.5,11.2
			S1224.1,1428.7,1224.1,1421.2z"/>
	</g>
</g>
<g>
	<g>
		<path class="st2" d="M2744.1,1428.2h-18.7v-3.4l18.1-18.9h4.1v19h5.8v3.2h-5.8v7.2h-3.5V1428.2z M2744.1,1425v-15l-14.3,15H2744.1
			z"/>
		<path class="st2" d="M2755.6,1421.4v-1.3c0-9.1,4.8-14.3,13.1-14.3c8.3,0,13.1,5.2,13.1,14.3v1.3c0,9.3-4.6,14.3-13.1,14.3
			S2755.6,1430.7,2755.6,1421.4z M2778.2,1421.2v-1.1c0-7.5-3.2-11.2-9.5-11.2c-6.4,0-9.5,3.7-9.5,11.2v1.1c0,7.5,3.2,11.2,9.5,11.2
			C2775.1,1432.4,2778.2,1428.7,2778.2,1421.2z"/>
		<path class="st2" d="M2785.4,1421.4v-1.3c0-9.1,4.8-14.3,13.1-14.3s13.1,5.2,13.1,14.3v1.3c0,9.3-4.6,14.3-13.1,14.3
			S2785.4,1430.7,2785.4,1421.4z M2808.1,1421.2v-1.1c0-7.5-3.2-11.2-9.5-11.2s-9.5,3.7-9.5,11.2v1.1c0,7.5,3.2,11.2,9.5,11.2
			S2808.1,1428.7,2808.1,1421.2z"/>
	</g>
</g>
<g>
	<g>
		<path class="st2" d="M1274.4,1618.2h3.5c0.5,3.2,3.1,5.3,8.7,5.3c4.9,0,8.6-2.4,8.6-6.9c0-4-2.8-6.8-8.5-6.8
			c-4.2,0-6.9,1.3-8.4,4.1l-3.4-0.3l1.2-16.7h20.6v3.2h-17.5l-0.8,9.3c2.1-2,4.9-2.9,8.6-2.9c7.4,0,11.8,4.1,11.8,9.9
			c0,6.5-5.3,10.1-12.2,10.1C1278.6,1626.7,1274.8,1622.9,1274.4,1618.2z"/>
		<path class="st2" d="M1302,1612.4v-1.3c0-9.1,4.8-14.3,13.1-14.3s13.1,5.2,13.1,14.3v1.3c0,9.3-4.6,14.3-13.1,14.3
			S1302,1621.7,1302,1612.4z M1324.6,1612.2v-1.1c0-7.5-3.2-11.2-9.5-11.2s-9.5,3.7-9.5,11.2v1.1c0,7.5,3.2,11.2,9.5,11.2
			S1324.6,1619.7,1324.6,1612.2z"/>
		<path class="st2" d="M1331.8,1612.4v-1.3c0-9.1,4.8-14.3,13.1-14.3s13.1,5.2,13.1,14.3v1.3c0,9.3-4.6,14.3-13.1,14.3
			S1331.8,1621.7,1331.8,1612.4z M1354.5,1612.2v-1.1c0-7.5-3.2-11.2-9.5-11.2s-9.5,3.7-9.5,11.2v1.1c0,7.5,3.2,11.2,9.5,11.2
			S1354.5,1619.7,1354.5,1612.2z"/>
	</g>
</g>
<g>
	<g>
		<path class="st2" d="M2834.4,1618.2h3.5c0.5,3.2,3.1,5.3,8.7,5.3c4.9,0,8.6-2.4,8.6-6.9c0-4-2.8-6.8-8.5-6.8
			c-4.2,0-6.9,1.3-8.4,4.1l-3.4-0.3l1.2-16.7h20.6v3.2h-17.5l-0.8,9.3c2.1-2,4.9-2.9,8.6-2.9c7.4,0,11.8,4.1,11.8,9.9
			c0,6.5-5.3,10.1-12.2,10.1C2838.6,1626.7,2834.8,1622.9,2834.4,1618.2z"/>
		<path class="st2" d="M2862,1612.4v-1.3c0-9.1,4.8-14.3,13.1-14.3c8.3,0,13.1,5.2,13.1,14.3v1.3c0,9.3-4.6,14.3-13.1,14.3
			S2862,1621.7,2862,1612.4z M2884.6,1612.2v-1.1c0-7.5-3.2-11.2-9.5-11.2c-6.4,0-9.5,3.7-9.5,11.2v1.1c0,7.5,3.2,11.2,9.5,11.2
			C2881.5,1623.4,2884.6,1619.7,2884.6,1612.2z"/>
		<path class="st2" d="M2891.8,1612.4v-1.3c0-9.1,4.8-14.3,13.1-14.3s13.1,5.2,13.1,14.3v1.3c0,9.3-4.6,14.3-13.1,14.3
			S2891.8,1621.7,2891.8,1612.4z M2914.5,1612.2v-1.1c0-7.5-3.2-11.2-9.5-11.2s-9.5,3.7-9.5,11.2v1.1c0,7.5,3.2,11.2,9.5,11.2
			S2914.5,1619.7,2914.5,1612.2z"/>
	</g>
</g>
<g>
	<g>
		<path class="st2" d="M728.3,1810.5c0-3.8,2.6-6.6,7.1-7.4c-3.8-0.6-6.1-3.1-6.1-6.5c0-4.8,4.5-7.8,11.6-7.8c7.2,0,11.6,3,11.6,7.8
			c0,3.4-2.4,5.9-6.1,6.5c4.5,0.8,7.1,3.6,7.1,7.4c0,5-4.9,8.1-12.6,8.1C733.1,1818.7,728.3,1815.5,728.3,1810.5z M750,1810.2
			c0-3.4-3.2-5.3-9-5.3c-5.8,0-9,1.9-9,5.3c0,3.5,3.2,5.4,9,5.4C746.8,1815.5,750,1813.7,750,1810.2z M748.9,1796.6
			c0-3.1-2.9-4.8-8-4.8c-5.2,0-8,1.7-8,4.8s2.9,4.8,8,4.8C746.1,1801.5,748.9,1799.7,748.9,1796.6z"/>
		<path class="st2" d="M757,1804.4v-1.3c0-9.1,4.8-14.3,13.1-14.3s13.1,5.2,13.1,14.3v1.3c0,9.3-4.6,14.3-13.1,14.3
			S757,1813.7,757,1804.4z M779.7,1804.2v-1.1c0-7.5-3.2-11.2-9.5-11.2s-9.5,3.7-9.5,11.2v1.1c0,7.5,3.2,11.2,9.5,11.2
			S779.7,1811.7,779.7,1804.2z"/>
		<path class="st2" d="M786.9,1804.4v-1.3c0-9.1,4.8-14.3,13.1-14.3s13.1,5.2,13.1,14.3v1.3c0,9.3-4.6,14.3-13.1,14.3
			S786.9,1813.7,786.9,1804.4z M809.5,1804.2v-1.1c0-7.5-3.2-11.2-9.5-11.2s-9.5,3.7-9.5,11.2v1.1c0,7.5,3.2,11.2,9.5,11.2
			S809.5,1811.7,809.5,1804.2z"/>
	</g>
</g>
<g>
	<g>
		<path class="st2" d="M2503.3,1810.5c0-3.8,2.6-6.6,7.1-7.4c-3.8-0.6-6.1-3.1-6.1-6.5c0-4.8,4.5-7.8,11.6-7.8s11.6,3,11.6,7.8
			c0,3.4-2.4,5.9-6.1,6.5c4.5,0.8,7.1,3.6,7.1,7.4c0,5-4.9,8.1-12.6,8.1S2503.3,1815.5,2503.3,1810.5z M2525,1810.2
			c0-3.4-3.2-5.3-9-5.3c-5.8,0-9,1.9-9,5.3c0,3.5,3.2,5.4,9,5.4C2521.8,1815.5,2525,1813.7,2525,1810.2z M2523.9,1796.6
			c0-3.1-2.9-4.8-8-4.8c-5.2,0-8,1.7-8,4.8s2.9,4.8,8,4.8C2521.1,1801.5,2523.9,1799.7,2523.9,1796.6z"/>
		<path class="st2" d="M2532,1804.4v-1.3c0-9.1,4.8-14.3,13.1-14.3c8.3,0,13.1,5.2,13.1,14.3v1.3c0,9.3-4.6,14.3-13.1,14.3
			S2532,1813.7,2532,1804.4z M2554.7,1804.2v-1.1c0-7.5-3.2-11.2-9.5-11.2c-6.4,0-9.5,3.7-9.5,11.2v1.1c0,7.5,3.2,11.2,9.5,11.2
			C2551.5,1815.4,2554.7,1811.7,2554.7,1804.2z"/>
		<path class="st2" d="M2561.9,1804.4v-1.3c0-9.1,4.8-14.3,13.1-14.3s13.1,5.2,13.1,14.3v1.3c0,9.3-4.6,14.3-13.1,14.3
			S2561.9,1813.7,2561.9,1804.4z M2584.5,1804.2v-1.1c0-7.5-3.2-11.2-9.5-11.2s-9.5,3.7-9.5,11.2v1.1c0,7.5,3.2,11.2,9.5,11.2
			S2584.5,1811.7,2584.5,1804.2z"/>
	</g>
</g>
<g>
	<g>
		<path class="st2" d="M1537.2,1096h18.7v3.4h-15.1v9.4h12.6v3.4h-12.6v9.9h15.6v3.4h-19.3V1096z"/>
		<path class="st2" d="M1560.1,1096h3.4v29.4h-3.4V1096z"/>
		<path class="st2" d="M1569.9,1107.1h-3.9v-3.2h3.9v-6h3.4v6h5.5v3.2h-5.5v12.6c0,1.8,0.6,2.5,2.5,2.5h3.4v3.2h-3.7
			c-4.1,0-5.6-1.8-5.6-5.6V1107.1z"/>
		<path class="st2" d="M1601.9,1122.2v3.2h-1.9c-2.9,0-3.8-1.2-3.9-3.3c-1.3,1.9-3.5,3.6-7.2,3.6c-4.7,0-7.9-2.4-7.9-6.3
			c0-4.3,3-6.7,8.6-6.7h6.3v-1.5c0-2.8-2-4.5-5.3-4.5c-3,0-5,1.4-5.5,3.6h-3.4c0.5-4.2,3.9-6.7,9.1-6.7c5.5,0,8.6,2.7,8.6,7.7v9.4
			c0,1.1,0.4,1.4,1.4,1.4H1601.9z M1595.9,1115.6h-6.6c-3.1,0-4.8,1.1-4.8,3.6c0,2.1,1.8,3.5,4.7,3.5c4.3,0,6.8-2.5,6.8-6V1115.6z"
			/>
		<path class="st2" d="M1618.6,1115.8c0.3,3.9,3.4,6.6,7.9,6.6c3.9,0,6.8-1.8,6.8-5c0-3.7-3.6-4.4-8.1-5.2c-4.7-0.8-9.6-2.4-9.6-8.1
			c0-5,4.1-8.4,10-8.4c6.6,0,10.6,3.7,10.9,8.9h-3.8c-0.4-3.4-3.2-5.6-7.1-5.6c-3.8,0-6.4,1.7-6.4,4.8c0,3.5,3.6,4.2,8,5
			c4.8,0.8,9.7,2.4,9.7,8.1c0,5.1-4.3,8.7-10.5,8.7c-7.2,0-11.4-4.1-11.6-9.9H1618.6z"/>
		<path class="st2" d="M1661,1122.2v3.2h-1.9c-2.9,0-3.8-1.2-3.9-3.3c-1.3,1.9-3.5,3.6-7.2,3.6c-4.7,0-7.9-2.4-7.9-6.3
			c0-4.3,3-6.7,8.6-6.7h6.3v-1.5c0-2.8-2-4.5-5.3-4.5c-3,0-5,1.4-5.5,3.6h-3.4c0.5-4.2,3.9-6.7,9.1-6.7c5.5,0,8.6,2.7,8.6,7.7v9.4
			c0,1.1,0.4,1.4,1.4,1.4H1661z M1655.1,1115.6h-6.6c-3.1,0-4.8,1.1-4.8,3.6c0,2.1,1.8,3.5,4.7,3.5c4.3,0,6.8-2.5,6.8-6V1115.6z"/>
		<path class="st2" d="M1682.8,1113.5v11.9h-3.4v-11.7c0-4.5-2.1-6.8-5.8-6.8c-4,0-6.5,3-6.5,7.8v10.7h-3.4V1104h3l0.5,2.9
			c1.3-1.6,3.4-3.2,7.1-3.2C1679,1103.7,1682.8,1106.4,1682.8,1113.5z"/>
		<path class="st2" d="M1689.9,1118.3c0.1,2.5,2.4,4.4,5.9,4.4c3,0,5.2-1.3,5.2-3.3c0-2.7-2.4-2.9-5.5-3.3c-4.8-0.6-8.6-1.6-8.6-6
			c0-3.9,3.6-6.5,8.4-6.4c4.9,0,8.4,2.3,8.7,6.8h-3.5c-0.3-2.2-2.3-3.8-5.2-3.8c-3,0-5,1.3-5,3.2c0,2.4,2.3,2.6,5.4,3
			c4.9,0.6,8.8,1.5,8.8,6.3c0,4-3.8,6.5-8.6,6.5c-5.5,0-9.4-2.6-9.5-7.3H1689.9z"/>
		<path class="st2" d="M1717.7,1096h22.7v3.4h-9.5v26h-3.7v-26h-9.5V1096z"/>
		<path class="st2" d="M1739.1,1114.7c0-6.5,4.1-11,10.2-11s10,3.8,10.2,10.2c0,0.5,0,1-0.1,1.5h-16.6v0.3c0.1,4.1,2.7,6.9,6.8,6.9
			c3,0,5.4-1.6,6.1-4.4h3.5c-0.8,4.3-4.4,7.4-9.3,7.4C1743.3,1125.7,1739.1,1121.2,1739.1,1114.7z M1755.7,1112.5
			c-0.3-3.7-2.9-5.8-6.4-5.8c-3.2,0-6,2.3-6.4,5.8H1755.7z"/>
		<path class="st2" d="M1768.3,1114.4l-7.6-10.4h4.1l5.7,7.9l5.8-7.9h3.9l-7.6,10.4l8.2,11h-4.1l-6.3-8.6l-6.3,8.6h-3.9
			L1768.3,1114.4z"/>
		<path class="st2" d="M1785,1107.1h-3.9v-3.2h3.9v-6h3.4v6h5.5v3.2h-5.5v12.6c0,1.8,0.6,2.5,2.5,2.5h3.4v3.2h-3.7
			c-4.1,0-5.6-1.8-5.6-5.6V1107.1z"/>
	</g>
</g>
<g>
	<g>
		<path class="st1" d="M1537.2,127l31-69.1h15.9L1615,127h-14.7l-7-15.9h-34.9l-6.9,15.9H1537.2z M1563,100.1h25.6l-12.9-29.5
			L1563,100.1z"/>
		<path class="st1" d="M1620.6,127V57.9h53v11.2h-39.7v15.9h21.8c8.3,0,14.6,1.8,18.9,5.4c4.3,3.6,6.5,8.8,6.5,15.6
			c0,6.7-2.2,11.9-6.6,15.5c-4.4,3.6-10.6,5.4-18.8,5.4H1620.6z M1633.9,115.8h20.8c8.6,0,12.9-3.3,12.9-9.8c0-3.2-1.1-5.7-3.3-7.3
			c-2.2-1.7-5.4-2.5-9.6-2.5h-20.8V115.8z"/>
		<path class="st1" d="M1688.2,127V57.9h32.8c8.4,0,14.8,1.6,19.2,4.7c4.5,3.2,6.7,7.7,6.7,13.5c0,7.9-4.1,12.9-12.4,15.1
			c10.4,1.6,15.6,6.9,15.6,16c0,6.4-2.5,11.3-7.4,14.7c-4.9,3.4-12.1,5-21.6,5H1688.2z M1701.6,86.7h20.5c3.7,0,6.6-0.8,8.6-2.4
			c2-1.6,3-3.8,3-6.7c0-2.9-1-5.1-3-6.7c-2-1.6-4.9-2.4-8.6-2.4h-20.5V86.7z M1701.6,116.2h21c9.4,0,14.1-3.2,14.1-9.5
			c0-6.3-4.7-9.5-14.1-9.5h-21V116.2z"/>
		<path class="st1" d="M1758.3,127V57.9h52.6v11.6h-39.3V127H1758.3z"/>
		<path class="st1" d="M1806.9,141.1v-25.7h6.4c2.4-1.8,4.1-4.8,5.2-8.9c1.1-4.1,1.7-10.6,1.7-19.5v-29h59.8v57.4h7.9v25.7H1875V127
			h-55.1v14.1H1806.9z M1866.7,115.4V69.1h-33.9v19.5c0,12.8-1.6,21.7-4.9,26.7H1866.7z"/>
		<path class="st1" d="M1894.6,127V57.9h53.9v11.6h-40.5v17h33.4v11.1h-33.4v17.7h42V127H1894.6z"/>
		<path class="st1" d="M1957.3,127V57.9h53.9v11.6h-40.5v17h33.4v11.1h-33.4v17.7h42V127H1957.3z M1978,49.5c-1.3,1.3-3,1.9-5,1.9
			c-2,0-3.7-0.6-5.1-1.9c-1.3-1.3-2-2.9-2-4.8c0-2,0.7-3.6,2-4.9c1.3-1.3,3-1.9,5.1-1.9c2,0,3.7,0.6,5,1.9c1.3,1.3,2,2.9,2,4.9
			C1979.9,46.6,1979.3,48.2,1978,49.5z M2000.7,49.5c-1.3,1.3-3,1.9-5.1,1.9c-2,0-3.7-0.6-5-1.9c-1.3-1.3-2-2.9-2-4.8
			c0-2,0.7-3.6,2-4.9c1.3-1.3,3-1.9,5-1.9c2,0,3.7,0.6,5.1,1.9c1.3,1.3,2,2.9,2,4.9C2002.7,46.6,2002,48.2,2000.7,49.5z"/>
		<path class="st1" d="M2015.1,127l24.3-35.9l-22.6-33.1h15.3l18.7,28.3h13.3V57.9h13.3v28.3h13.3l18.7-28.3h15.2l-22.6,33.1
			l24.4,35.9h-15.8l-19.8-29.2h-13.4V127h-13.3V97.8h-13.5l-19.7,29.2H2015.1z"/>
		<path class="st1" d="M2157.7,127.6c-10.1,0-17.8-1.9-23.2-5.7c-5.4-3.8-8.3-9.4-8.6-16.7h13.2c0.6,7.7,7,11.5,19.1,11.5
			c11.8,0,17.8-3.3,17.8-10c0-6.2-5.4-9.4-16.2-9.4h-11.8V86.6h10.9c4.8,0,8.6-0.8,11.3-2.5s4.1-4.1,4.1-7.3c0-5.8-5.4-8.7-16.3-8.7
			c-11.4,0-17.5,3.6-18.3,10.9h-13.1c0.3-6.6,3.4-11.9,9.2-15.8c5.8-3.9,13.3-5.9,22.5-5.9c9.3,0,16.6,1.6,21.8,4.9
			c5.2,3.3,7.7,7.8,7.7,13.8c0,3.8-1.1,7-3.4,9.7c-2.3,2.6-5.5,4.4-9.6,5.4c4.7,0.8,8.3,2.6,10.9,5.4c2.6,2.8,3.9,6.4,3.9,10.7
			c0,6.3-2.9,11.3-8.6,14.9C2175.3,125.8,2167.5,127.6,2157.7,127.6z"/>
		<path class="st1" d="M2198.1,127V57.9h13v49.1l41.1-49.1h12.1V127h-13V77.9l-41.1,49.1H2198.1z"/>
		<path class="st1" d="M2275.1,127V57.9h13v49.1l41.1-49.1h12.1V127h-13V77.9l-41.1,49.1H2275.1z M2307.9,52.8
			c-11.8,0-17.8-4.7-18-14.2h9.4c0,4.7,2.9,7,8.8,7c5.9,0,8.9-2.3,8.9-7h9.6c-0.1,4.5-1.7,8-4.8,10.5
			C2318.6,51.6,2314,52.8,2307.9,52.8z"/>
		<path class="st1" d="M2352,127V57.9h13.3v28.2h14.1l24.1-28.2h16.2L2391,91.1l30.6,35.9h-17.3l-24.6-29.2h-14.4V127H2352z"/>
		<path class="st1" d="M2423,127v-11.6h2.1c4.5,0,7.8-1.6,9.7-4.9c1.9-3.3,2.9-9.4,2.9-18.5v-34h59.4V127h-13.3V69.6h-33.5v23.6
			c0,12.4-1.9,21.1-5.6,26.2c-3.7,5.1-9.7,7.6-18,7.6H2423z"/>
		<path class="st1" d="M2507.7,127V57.9h16.9l26.9,53l26.5-53h16.8V127h-13.1V78.3l-25,48.7h-11l-24.9-48.7V127H2507.7z"/>
		<path class="st1" d="M2605.3,127V57.9h13.3v28.3h38.8V57.9h13.3V127h-13.3V97.8h-38.8V127H2605.3z"/>
		<path class="st1" d="M2718.8,127.6c-11.8,0-21.5-3.3-28.9-9.8s-11.1-15-11.1-25.4c0-10.4,3.7-18.8,11.1-25.4s17.1-9.8,28.9-9.8
			c11.9,0,21.6,3.3,29,9.8c7.4,6.5,11.1,15,11.1,25.4c0,10.4-3.7,18.8-11.1,25.4C2740.4,124.3,2730.7,127.6,2718.8,127.6z
			 M2718.8,116.1c8.1,0,14.5-2.1,19.3-6.4c4.8-4.3,7.2-10,7.2-17.3c0-7.2-2.4-13-7.2-17.3c-4.8-4.3-11.2-6.4-19.3-6.4
			c-8,0-14.4,2.2-19.2,6.5c-4.8,4.3-7.2,10-7.2,17.2c0,7.2,2.4,12.9,7.2,17.2C2704.3,114,2710.8,116.1,2718.8,116.1z"/>
		<path class="st1" d="M1542.2,215.4v-69.1h64.9v69.1h-13.3V158h-38.3v57.4H1542.2z"/>
		<path class="st1" d="M1617.7,215.4v-69.1h34.7c8.1,0,14.5,2,19.2,6.1c4.7,4,7.1,9.5,7.1,16.4c0,7-2.4,12.5-7.1,16.5
			c-4.7,4-11.1,6.1-19.2,6.1H1631v24H1617.7z M1631,180.2h21c4.1,0,7.3-1,9.6-3.1c2.3-2,3.5-4.8,3.5-8.3c0-3.4-1.2-6.1-3.5-8.1
			c-2.3-2-5.5-3-9.6-3h-21V180.2z"/>
		<path class="st1" d="M1721.8,216c-11.7,0-21.1-3.2-28.1-9.6c-7-6.4-10.5-14.9-10.5-25.5c0-10.5,3.6-19,10.9-25.5
			c7.2-6.4,16.8-9.7,28.6-9.7c9.5,0,17.4,2.2,23.8,6.7c6.4,4.4,10.2,10.5,11.4,18.1h-13.6c-1.3-4.3-3.9-7.6-7.6-9.9
			c-3.8-2.3-8.5-3.5-14.3-3.5c-7.8,0-14,2.1-18.6,6.4c-4.6,4.3-6.9,10-6.9,17.3c0,7.3,2.3,13.1,6.8,17.3c4.5,4.2,10.7,6.4,18.4,6.4
			c5.9,0,10.7-1.2,14.5-3.5c3.8-2.3,6.4-5.6,7.7-9.9h13.5c-1.3,7.6-5.1,13.7-11.6,18.1C1739.6,213.8,1731.5,216,1721.8,216z"/>
		<path class="st1" d="M1785,215.4V158h-25.6v-11.6h64.6V158h-25.6v57.4H1785z"/>
		<path class="st1" d="M1836.5,215.4v-11.6h7c3.7,0,6.5-0.4,8.2-1.1c1.7-0.8,3.2-2.3,4.5-4.5l2.1-3.6l-31.9-48.2h15.4l23.3,36.2
			l19.7-36.2h14.4l-31.1,55.3c-2.9,5.1-6,8.7-9.3,10.7c-3.3,2-7.7,3-13.2,3H1836.5z"/>
		<path class="st1" d="M1939,216.4v-6.1h-1.6c-12.2,0-21.9-2.6-29.1-7.9c-7.1-5.3-10.7-12.4-10.7-21.5c0-9.1,3.6-16.2,10.7-21.5
			c7.1-5.3,16.8-7.9,29.1-7.9h1.6v-6.1h12.8v6.1h1.6c12.2,0,21.9,2.6,29.1,7.9c7.1,5.3,10.7,12.4,10.7,21.5
			c0,9.1-3.6,16.2-10.7,21.5c-7.1,5.3-16.8,7.9-29.1,7.9h-1.6v6.1H1939z M1937.4,199.6h1.6v-37.3h-1.6c-8.3,0-14.8,1.6-19.5,4.9
			c-4.7,3.3-7.1,7.9-7.1,13.7c0,5.9,2.3,10.4,7.1,13.7C1922.6,197.9,1929.1,199.6,1937.4,199.6z M1951.8,199.6h1.6
			c8.3,0,14.8-1.6,19.5-4.9c4.7-3.3,7.1-7.9,7.1-13.7c0-5.9-2.4-10.4-7.1-13.7c-4.7-3.3-11.2-4.9-19.5-4.9h-1.6V199.6z"/>
		<path class="st1" d="M1990.4,215.4L2018,180l-26.1-33.6h16.6l18.2,23.7l18.3-23.7h15.9l-26.1,33.4l27.6,35.6h-16.6l-19.8-25.5
			l-19.7,25.5H1990.4z"/>
		<path class="st1" d="M2093.9,191.6c-9.8,0-17.2-2.1-22.3-6.3c-5.1-4.2-7.6-10.3-7.6-18.4v-20.5h13.3v18.7
			c0,10.1,6.1,15.2,18.3,15.2c5.9,0,11.9-0.9,18.1-2.8v-31.2h13.3v69.1h-13.3v-26.5C2107.4,190.7,2100.8,191.6,2093.9,191.6z"/>
		<path class="st1" d="M2137.7,215.4v-69.1h13.3v57.4h29.4v-57.4h13.3v57.4h29.5v-57.4h13.3v69.1H2137.7z"/>
		<path class="st1" d="M2247.1,215.4v-69.1h13.3v57.4h29.4v-57.4h13.3v57.4h29.5v-57.4h13.3v57.4h7.8v25.7h-12.9v-14.1H2247.1z"/>
		<path class="st1" d="M2374.7,215.4V158h-22.9v-11.6h36.2v24.1h22c8,0,14.4,2,19.1,6c4.7,4,7.1,9.5,7.1,16.5c0,7-2.4,12.5-7.1,16.5
			c-4.7,4-11.1,6-19.1,6H2374.7z M2388,204.1h21.4c4.2,0,7.4-1,9.7-2.9c2.3-1.9,3.4-4.7,3.4-8.3c0-3.6-1.1-6.4-3.4-8.3
			c-2.3-1.9-5.5-2.9-9.8-2.9H2388V204.1z"/>
		<path class="st1" d="M2443.9,215.4v-69.1h13.3v23.9h21c8,0,14.4,2,19.1,6.1c4.7,4,7.1,9.6,7.1,16.5c0,7-2.4,12.5-7.1,16.5
			c-4.7,4-11.1,6.1-19.1,6.1H2443.9z M2457.2,204.1h20.3c4.3,0,7.5-1,9.8-2.9c2.3-1.9,3.4-4.7,3.4-8.4c0-3.6-1.2-6.4-3.5-8.3
			c-2.3-1.9-5.6-2.9-9.9-2.9h-20.2V204.1z M2512.2,215.4v-69.1h13.3v69.1H2512.2z"/>
		<path class="st1" d="M2536.2,215.4v-69.1h13.3v23.9h21.9c8,0,14.4,2,19.1,6.1c4.7,4,7.1,9.6,7.1,16.5c0,7-2.4,12.5-7.1,16.5
			c-4.7,4-11.1,6.1-19.1,6.1H2536.2z M2549.5,204.1h21.2c4.3,0,7.5-1,9.8-2.9c2.3-1.9,3.4-4.7,3.4-8.4c0-3.6-1.2-6.4-3.5-8.3
			c-2.3-1.9-5.6-2.9-9.9-2.9h-21.1V204.1z"/>
		<path class="st1" d="M2629.8,186.1v-10.9h33.1c-1.1-5.7-3.9-10.1-8.3-13.3c-4.4-3.2-10-4.8-16.9-4.8c-5.7,0-10.5,1.2-14.3,3.5
			c-3.8,2.3-6.4,5.5-7.7,9.6h-13.5c1.2-7.4,5.1-13.3,11.5-17.7c6.4-4.4,14.4-6.6,23.8-6.6c11.9,0,21.5,3.2,28.7,9.7
			c7.2,6.4,10.8,14.9,10.8,25.5c0,10.6-3.6,19.1-10.8,25.5c-7.2,6.4-16.6,9.6-28.4,9.6c-9.7,0-17.7-2.2-24.1-6.6
			c-6.4-4.4-10.2-10.3-11.5-17.7h13.5c1.4,4.1,4,7.3,7.8,9.6c3.8,2.3,8.6,3.4,14.5,3.4c6.8,0,12.4-1.7,16.8-5
			c4.4-3.3,7.1-7.9,8.1-13.7H2629.8z"/>
		<path class="st1" d="M2751.2,216c-10.5,0-19.4-2.7-26.5-8.2c-7.1-5.5-11.4-12.7-12.7-21.6h-13.8v29.2h-13.3v-69.1h13.3v28.3h14
			c1.5-8.7,5.8-15.8,12.8-21c7-5.3,15.8-7.9,26.1-7.9c11.6,0,21.2,3.3,28.6,9.8s11.1,15,11.1,25.4c0,10.4-3.7,18.8-11.1,25.4
			S2762.9,216,2751.2,216z M2751.2,204.6c7.9,0,14.2-2.2,18.9-6.5c4.7-4.3,7.1-10,7.1-17.2c0-7.2-2.4-12.9-7.1-17.2
			c-4.7-4.3-11-6.5-18.9-6.5c-7.8,0-14.1,2.2-18.8,6.5c-4.7,4.3-7.1,10-7.1,17.2c0,7.2,2.4,12.9,7.1,17.2
			C2737.1,202.4,2743.4,204.6,2751.2,204.6z"/>
		<path class="st1" d="M2794.6,215.4l18.8-25.8c-11.6-3-17.4-9.9-17.4-20.7c0-6.9,2.4-12.4,7.1-16.4c4.7-4,11.1-6.1,19.2-6.1h35.9
			v69.1H2845v-24.2h-16.9l-17.4,24.2H2794.6z M2822.9,180h22.2v-22.3h-22.3c-4,0-7.2,1-9.5,3c-2.3,2-3.5,4.7-3.5,8.1
			c0,3.5,1.2,6.2,3.6,8.2C2815.7,179,2818.8,180,2822.9,180z"/>
	</g>
</g>
<g>
	<g>
		<path class="st1" d="M259.2,51.3h67.1l211.7,460.1h-63.1l-56.5-124.2H164.5l-55.9,124.2H47.5L259.2,51.3z M394.6,335.3
			L291.4,107.2L188.2,335.3H394.6z"/>
		<path class="st1" d="M544.5,414.8c0-67.7,49.3-101.9,155.1-101.9h130.8v-16.4c0-50-36.8-76.3-107.8-76.3
			c-65.7,0-100.6,17.7-110.4,56.5h-53.9c9.9-69,67.1-104.5,167-104.5c103.2,0,159.1,44.7,159.1,127.5v133.4
			c0,18.4,10.5,28.9,30.2,28.9h17.7v49.3h-30.2c-40.8,0-68.4-19.1-68.4-53.9v-0.7c-28.3,36.2-84.8,58.5-149.2,58.5
			C597.1,515.4,544.5,477.3,544.5,414.8z M830.4,374.7v-16.4H695c-69,0-96,17.1-96,53.9c0,37.5,32.2,57.2,92.7,57.2
			C771.3,469.4,830.4,428.6,830.4,374.7z"/>
	</g>
</g>
<g>
	<g>
		<path class="st1" d="M60.2,1213.7h12.3v147.6h92.4v11.4H60.2V1213.7z"/>
		<path class="st1" d="M180,1213.7h12.3v158.9H180V1213.7z"/>
		<path class="st1" d="M212.3,1293.1c0-48.8,34.5-80.8,87.2-80.8c40.6,0,68.6,18.2,77.2,50.2h-13.2c-8.4-25.4-30.6-38.8-64.2-38.8
			c-45.4,0-74.5,27-74.5,69.5c0,42.2,28.8,69.5,72.9,69.5c42,0,69.9-21.8,69.9-54.7v-6.8h-63.8v-11.3h75.8v82.9h-10.7l-0.7-35.2
			c-9.8,22.5-37,36.5-70.8,36.5C246.8,1373.9,212.3,1341.2,212.3,1293.1z"/>
		<path class="st1" d="M404.1,1213.7h12.3v72.2h113.3v-72.2h12.3v158.9h-12.3v-75.4H416.3v75.4h-12.3V1213.7z"/>
		<path class="st1" d="M623.4,1225h-66.3v-11.3h144.8v11.3h-66.3v147.6h-12.3V1225z"/>
		<path class="st1" d="M59.3,1404.7h77.4c34.5,0,56.5,19.1,56.5,48.8c0,24.5-15.2,41.1-42.2,46.3l43.6,63.8h-23.4l-41.3-61.1H79
			v61.1H59.3V1404.7z M136.7,1484.3c22.2,0,36.3-12,36.3-30.9c0-18.6-14.1-30.6-36.3-30.6H79v61.5H136.7z"/>
		<path class="st1" d="M211.4,1404.7H331v18.2h-99.9v50.8h83.5v18.2h-83.5v53.6h103.5v18.2H211.4V1404.7z"/>
		<path class="st1" d="M337.6,1484.1c0-48.6,35.6-80.8,89.7-80.8c42.5,0,72,19.8,79.5,53.1h-21.1c-7.5-22.9-27.7-35-58.8-35
			c-42.2,0-69,24.3-69,62.7c0,38.1,26.6,62.7,68.1,62.7c38.8,0,63.8-17.9,63.8-45.6v-5.4h-59.5v-18.2H509v86h-17l-1.4-23.2
			c-10.9,15-36.3,24.5-64.9,24.5C373.4,1564.9,337.6,1532,337.6,1484.1z"/>
		<path class="st1" d="M530.5,1495.7v-91h19.7v92.2c0,33.1,17.5,49.9,52,49.9c35,0,52.7-16.8,52.7-49.9v-92.2h19.7v91
			c0,45.2-25.2,69.2-72.4,69.2C555.3,1564.9,530.5,1541.1,530.5,1495.7z"/>
		<path class="st1" d="M697.4,1404.7h19.7v140.7h88.8v18.2H697.4V1404.7z"/>
		<path class="st1" d="M885.3,1404.7h23.2l73.1,158.9h-21.8l-19.5-42.9h-87.6l-19.3,42.9h-21.1L885.3,1404.7z M932.1,1502.7
			l-35.6-78.8l-35.6,78.8H932.1z"/>
		<path class="st1" d="M993.4,1404.7h77.4c34.5,0,56.5,19.1,56.5,48.8c0,24.5-15.2,41.1-42.2,46.3l43.6,63.8h-23.4l-41.3-61.1h-50.8
			v61.1h-19.7V1404.7z M1070.8,1484.3c22.2,0,36.3-12,36.3-30.9c0-18.6-14.1-30.6-36.3-30.6h-57.7v61.5H1070.8z"/>
		<path class="st1" d="M127.4,1755.9c-23.3,0-41.7-4.7-55.2-14.2c-13.5-9.5-20.4-22.5-20.9-39.2h30.4c0.8,8.9,5.2,15.9,13.3,20.9
			c8.1,5,19,7.5,32.6,7.5c26.6,0,40-7.1,40-21.3c0-6.5-2.9-11.1-8.7-13.8c-5.8-2.7-17.2-5.1-34.2-7.3c-25.1-3-42.9-8-53.2-15
			c-10.4-7-15.5-17.5-15.5-31.6c0-14.7,6.1-26.3,18.3-34.8c12.2-8.5,28.7-12.8,49.6-12.8c21.6,0,38.8,4.4,51.4,13.1
			c12.6,8.7,19.3,20.8,20.1,36.4h-30.4c-1.2-7.9-5.4-13.9-12.5-18.2c-7.1-4.2-16.8-6.4-29.1-6.4c-24.5,0-36.8,6.8-36.8,20.4
			c0,6.5,3,11.1,8.9,13.8c5.9,2.7,17.3,5.1,34.3,7c24.7,2.7,42.3,7.6,52.9,14.8c10.6,7.1,15.9,17.6,15.9,31.6
			c0,15-6.4,26.9-19.3,35.8C166.3,1751.5,149,1755.9,127.4,1755.9z"/>
		<path class="st1" d="M213.6,1754.6v-158.9h123.9v26.8h-93.3v39h77v25.7h-77v40.6H341v26.8H213.6z"/>
		<path class="st1" d="M354.6,1754.6v-158.9h38.8l62,121.9l61.1-121.9H555v158.9h-30.2v-112.1l-57.4,112.1H442l-57.2-112.1v112.1
			H354.6z"/>
		<path class="st1" d="M575.9,1754.6v-158.9h30.6v158.9H575.9z"/>
		<path class="st1" d="M627.5,1754.6v-158.9H703c19.2,0,34,3.6,44.3,10.9c10.3,7.3,15.4,17.6,15.4,31.1c0,18.2-9.5,29.7-28.6,34.7
			c23.9,3.6,35.9,15.9,35.9,36.8c0,14.8-5.7,26.1-17,33.8c-11.3,7.7-27.9,11.6-49.7,11.6H627.5z M658.1,1661.9h47.2
			c8.6,0,15.2-1.8,19.9-5.4c4.6-3.6,6.9-8.8,6.9-15.4c0-6.7-2.3-11.8-6.9-15.4c-4.6-3.6-11.2-5.4-19.9-5.4h-47.2V1661.9z
			 M658.1,1729.8h48.4c21.6,0,32.5-7.3,32.5-21.8s-10.8-21.8-32.5-21.8h-48.4V1729.8z"/>
		<path class="st1" d="M871.2,1755.9c-27.2,0-49.4-7.5-66.5-22.5c-17.1-15-25.7-34.4-25.7-58.3c0-23.9,8.5-43.4,25.7-58.3
			c17.1-15,39.3-22.5,66.5-22.5c27.4,0,49.6,7.5,66.7,22.5c17.1,15,25.7,34.4,25.7,58.3c0,23.9-8.6,43.4-25.7,58.3
			C920.9,1748.4,898.6,1755.9,871.2,1755.9z M871.2,1729.6c18.6,0,33.4-4.9,44.5-14.8c11-9.8,16.6-23.1,16.6-39.7
			c0-16.6-5.5-29.9-16.6-39.7c-11-9.8-25.9-14.8-44.5-14.8c-18.5,0-33.2,5-44.3,14.9c-11,9.9-16.6,23.1-16.6,39.6
			c0,16.5,5.5,29.7,16.6,39.6C838,1724.6,852.8,1729.6,871.2,1729.6z"/>
		<path class="st1" d="M978.6,1754.6v-158.9h30.6v132.1h81.9v26.8H978.6z"/>
		<path class="st1" d="M1104.6,1754.6v-158.9h66.7c29.1,0,52.1,7,69.2,21.1c17.1,14.1,25.7,33.4,25.7,58.1
			c0,24.7-8.6,44.1-25.7,58.3c-17.1,14.2-40.2,21.3-69.2,21.3H1104.6z M1135.2,1727.8h36.1c20.4,0,36.1-4.5,47.1-13.5
			c11-9,16.5-22.1,16.5-39.4s-5.4-30.3-16.3-39.2c-10.9-8.9-26.6-13.3-47.2-13.3h-36.1V1727.8z"/>
		<path class="st1" d="M56.3,1786.7h79.2c41.3,0,63.6,14.8,63.6,42c0,20-10.7,31.6-31.8,35c25.9,3,38.4,15.4,38.4,36.8
			c0,29.3-24.7,45.2-70.8,45.2H56.3V1786.7z M139,1850c11.6,0,18.4-5.9,18.4-15.9c0-10-6.8-15.9-18.4-15.9H98.1v31.8H139z
			 M141.4,1913.8c14.5,0,21.8-5.4,21.8-16.3c0-10.4-7.7-16.3-21.8-16.3H98.1v32.7H141.4z"/>
		<path class="st1" d="M211.4,1866.1c0-47.2,39.3-80.8,94.7-80.8c55.4,0,94.7,33.4,94.7,80.8c0,47.4-39.3,80.8-94.7,80.8
			C250.6,1946.9,211.4,1913.3,211.4,1866.1z M358,1866.1c0-28.4-20-46.3-52-46.3c-32,0-52,17.9-52,46.3c0,28.4,20,46.3,52,46.3
			C338,1912.4,358,1894.5,358,1866.1z"/>
		<path class="st1" d="M412.5,1786.7h41.8v123.5h75.1v35.4H412.5V1786.7z"/>
		<path class="st1" d="M541.2,1786.7h70.6c59.5,0,98.5,29.1,98.5,79c0,49.9-39.3,79.9-98.5,79.9h-70.6V1786.7z M611.8,1910.1
			c36.5,0,55.6-14.5,55.6-44.5c0-30-18.6-43.6-55.6-43.6H583v88.1H611.8z"/>
	</g>
</g>
<g>
	<g>
		<path class="st1" d="M1539.9,1372.6v-158.9h12.3v147.6h76v11.4H1539.9z"/>
		<path class="st1" d="M1638.5,1225c0-4.8,3.6-8.2,8.2-8.2c4.5,0,8.2,3.4,8.2,8.2c0,4.8-3.6,8.2-8.2,8.2
			C1642.1,1233.2,1638.5,1229.8,1638.5,1225z M1640.7,1257.5h11.6v115.1h-11.6V1257.5z"/>
		<path class="st1" d="M1769.4,1257.5h10v108.1c0,36.1-17.5,53.8-54.7,53.8c-27.9,0-47.7-13.2-51.3-37.7h12
			c3.6,17.5,18.6,27.2,40.2,27.2c27.7,0,42.2-13.2,42.2-43.8v-20.4c-7.3,17.9-22.5,29.3-44,29.3c-31.6,0-54.3-22.7-54.3-59
			c0-35,22.7-58.8,54.3-58.8c21.3,0,36.8,11.1,43.8,28.1L1769.4,1257.5z M1768.1,1315.1c0-28.8-17.7-48.8-43.4-48.8
			s-43.4,20-43.4,48.6s17.7,48.6,43.4,48.6S1768.1,1343.5,1768.1,1315.1z"/>
		<path class="st1" d="M1899.5,1308.1v64.5h-11.6v-64c0-27.2-13.6-41.8-35.6-41.8c-24.5,0-39.7,19.1-39.7,49v56.8H1801v-158.9h11.6
			v71.1c6.6-16.6,20-28.6,41.5-28.6C1880.2,1256.1,1899.5,1271.8,1899.5,1308.1z"/>
		<path class="st1" d="M1928.3,1268.1h-21.8v-10.7h21.8v-32.2h11.6v32.2h31.1v10.7h-31.1v77.4c0,11.8,4.3,16.3,16.3,16.3h15.9v10.7
			h-16.8c-19.5,0-27-8.4-27-26.8V1268.1z"/>
		<path class="st1" d="M2060.4,1213.7h12.3l-28.1,158.9h-12.3L2060.4,1213.7z"/>
		<path class="st1" d="M2096.1,1268.1h-21.8l1.8-10.7h21.8l5.7-32.2h11.6l-5.7,32.2h30.6l-1.8,10.7h-30.6l-13.8,77.9
			c-0.5,2-0.7,3.9-0.7,5.7c0,7.5,4.1,10.2,13.4,10.2h16.6l-1.8,10.7h-16.6c-16.3,0-23.2-6.1-23.2-18.8c0-2.5,0.5-5.9,1.1-10.2
			L2096.1,1268.1z"/>
		<path class="st1" d="M2237.5,1361.9l-1.8,10.7h-6.6c-11.3,0-16.3-5.2-16.3-13.2c0-1.1,0.2-3,0.5-5.7
			c-9.1,11.4-23.6,20.2-44.7,20.2c-22.5,0-37.7-11.6-37.7-30c0-26.3,21.6-37.2,50.8-37.2h39.3l1.8-9.1c0.2-2.5,0.7-5.7,0.7-8.4
			c0-14.5-11.1-22.9-29.7-22.9c-20.7,0-32.2,9.3-37.7,23.4h-11.8c6.6-21.1,23.6-33.6,50.8-33.6c24.1,0,40.2,11.6,40.2,32.5
			c0,3.4-0.5,7-1.1,10.9l-8.9,48.6c-0.5,3-0.9,4.8-0.9,6.6c0,4.5,2.5,7.3,8.4,7.3H2237.5z M2219.3,1316.7h-39.7
			c-21.6,0-37,7.9-37,26.3c0,12.7,10.7,20.9,27,20.9c27.7,0,44.3-16.8,48.1-38.4L2219.3,1316.7z"/>
		<path class="st1" d="M2273.6,1213.7h11.6l-28.1,158.9h-11.6L2273.6,1213.7z"/>
		<path class="st1" d="M2298.8,1257.5h11.6l-20.4,115.1h-11.6L2298.8,1257.5z M2302,1225.9c0-5.2,4.1-9.1,8.9-9.1
			c4.3,0,7.5,3.2,7.5,7.3c0,5.4-4.1,9.1-8.9,9.1C2305.1,1233.2,2302,1230,2302,1225.9z"/>
		<path class="st1" d="M2416.8,1335.3c-7,25.7-27.9,38.6-52.7,38.6c-28.6,0-47.7-20.7-47.7-48.6c0-39,25.2-69.2,63.1-69.2
			c26.3,0,42.9,15.2,43.6,38.4h-11.3c-1.1-17.7-14.5-28.1-33.1-28.1c-31.1,0-50.4,27.2-50.4,58.3c0,23.2,14.8,38.8,36.8,38.8
			c18.8,0,33.6-10.2,40.2-28.1H2416.8z"/>
		<path class="st1" d="M1539,1404.7h60.8c31.8,0,52.9,19.1,52.9,48.8c0,22.2-13.4,39.5-33.8,45.2l35.6,64.9h-22.2l-33.6-61.1h-40
			v61.1H1539V1404.7z M1558.8,1422.8v61.5h39.5c20.9,0,34.3-12.3,34.3-30.9s-13.4-30.6-34.1-30.6H1558.8z"/>
		<path class="st1" d="M1659.3,1505.7c0-35.2,22.2-59.2,54.9-59.2c32.7,0,54,20.7,54.9,54.9c0,2.5-0.2,5.2-0.5,7.9h-89.9v1.6
			c0.7,22,14.5,37.5,36.5,37.5c16.3,0,29.1-8.6,32.9-23.6h18.8c-4.5,23.2-23.6,40.2-50.4,40.2
			C1682,1564.9,1659.3,1541.1,1659.3,1505.7z M1749.2,1493.9c-1.8-20-15.4-31.1-34.7-31.1c-17,0-32.7,12.3-34.5,31.1H1749.2z"/>
		<path class="st1" d="M1878.6,1447.8h16.1v110.1c0,33.4-17.7,52.4-57.4,52.4c-29.5,0-50.2-13.8-53.1-39.3h19.1
			c3.2,14.5,16.1,22.7,35.4,22.7c24.3,0,37.5-11.3,37.5-36.5v-13.6c-7.7,13.2-20.2,21.3-39.7,21.3c-32,0-55.6-21.6-55.6-59.2
			c0-35.4,23.6-59.2,55.6-59.2c19.5,0,32.5,8.4,39.7,21.3L1878.6,1447.8z M1876.4,1506.1c0-25.4-15.4-43.1-38.1-43.1
			c-22.9,0-38.4,17.5-38.4,42.7c0,25.2,15.4,42.7,38.4,42.7C1860.9,1548.3,1876.4,1530.9,1876.4,1506.1z"/>
		<path class="st1" d="M1995.5,1447.8h18.6v115.8H1998l-2.5-15.4c-6.8,8.6-17.9,16.8-37,16.8c-25.4,0-45.6-14.3-45.6-52.7v-64.5
			h18.6v63.3c0,24.1,10.9,36.8,30.2,36.8c21.1,0,33.8-16.1,33.8-42.2V1447.8z"/>
		<path class="st1" d="M2033.9,1404.7h18.6v158.9h-18.6V1404.7z"/>
		<path class="st1" d="M2180.5,1546.5v17h-10.2c-15.4,0-20.7-6.6-20.9-17.9c-7.3,10.4-18.8,19.3-38.8,19.3
			c-25.4,0-42.7-12.7-42.7-33.8c0-23.2,16.1-36.1,46.5-36.1h34.1v-7.9c0-15-10.7-24.1-28.8-24.1c-16.3,0-27.2,7.7-29.5,19.5h-18.6
			c2.7-22.7,21.1-36.1,49-36.1c29.5,0,46.5,14.8,46.5,41.8v50.6c0,6.1,2.3,7.7,7.5,7.7H2180.5z M2148.5,1510.7h-35.9
			c-16.6,0-25.9,6.1-25.9,19.3c0,11.4,9.8,19.1,25.2,19.1c23.2,0,36.5-13.4,36.5-32.7V1510.7z"/>
		<path class="st1" d="M2247.9,1447.8v18.2h-9.3c-24.3,0-30.9,20.2-30.9,38.6v59h-18.6v-115.8h16.1l2.5,17.5
			c5.4-8.9,14.3-17.5,35-17.5H2247.9z"/>
		<path class="st1" d="M2332.6,1404.7h19.8l-28.1,158.9h-19.8L2332.6,1404.7z"/>
		<path class="st1" d="M2373,1464.8h-20.9l3-17h20.9l5.7-32.5h18.6l-5.7,32.5h29.3l-3,17h-29.3l-12.3,69c-0.2,1.8-0.5,3.4-0.5,4.8
			c0,5.9,3,7.9,10.4,7.9h19.5l-3,17h-19.5c-18.6,0-26.3-7.3-26.3-21.6c0-2.7,0.7-6.8,1.6-12.5L2373,1464.8z"/>
		<path class="st1" d="M2524.9,1546.5l-3,17h-9.5c-12,0-18.2-5.4-18.8-12.5c-8.9,7.3-20.9,13.8-38.6,13.8
			c-23.4,0-39.7-11.1-39.7-31.3c0-27.2,21.8-38.6,52.2-38.6h34.5l1.1-6.1c0.2-1.8,0.7-5.2,0.7-7.5c0-11.6-9.8-18.4-25.2-18.4
			c-18.8,0-27.7,7.7-32,19.5h-19.1c6.8-23.4,23.6-36.1,53.1-36.1c24.1,0,42,11.6,42,33.8c0,3.6-0.5,7.5-1.1,11.6l-8.4,44.9
			c-0.5,2.3-0.7,3.4-0.7,4.8c0,3,1.6,5,6.4,5H2524.9z M2498.3,1515.7l0.9-5H2464c-17.7,0-29.7,6.6-29.7,21.3c0,11.4,9.1,17,22.5,17
			C2480.6,1549,2494.9,1535,2498.3,1515.7z"/>
		<path class="st1" d="M2558.7,1404.7h18.6l-28.1,158.9h-18.6L2558.7,1404.7z"/>
		<path class="st1" d="M2589.1,1447.8h18.6l-20.4,115.8h-18.6L2589.1,1447.8z M2591.8,1417.4c0-7.7,6.1-13.2,12.9-13.2
			c6.6,0,11.1,4.5,11.1,10.9c0,7.7-5.9,13.2-12.7,13.2C2596.6,1428.3,2591.8,1423.7,2591.8,1417.4z"/>
		<path class="st1" d="M2717.1,1523.6c-6.4,28.1-28.4,41.3-54.3,41.3c-30,0-50.2-21.8-50.2-50.4c0-39.5,24.3-68.1,63.3-68.1
			c28.4,0,45.2,16.6,45.9,40.9h-18.2c-1.6-15.4-13.4-24.3-29.3-24.3c-27.9,0-42.9,23.4-42.9,50.4c0,21.1,13.4,35,33.1,35
			c15.7,0,28.4-8.4,33.6-24.7H2717.1z"/>
		<path class="st1" d="M1538.1,1595.7h33.8l50.8,125.1l49.9-125.1h33.1v158.9h-25.2v-116.9l-47.7,116.9h-22l-47.7-116.9v116.9h-25.2
			V1595.7z"/>
		<path class="st1" d="M1722.4,1696.7c0-35.9,22.9-59.7,57.2-59.7c33.6,0,56.1,21.3,56.8,55.4c0,3-0.2,6.1-0.7,9.3h-87.6v1.6
			c0.7,19.7,13.2,32.7,32.5,32.7c15,0,25.9-7.5,29.3-20.4h24.5c-4.1,22.9-23.6,40.4-52.4,40.4
			C1745.4,1755.9,1722.4,1732.3,1722.4,1696.7z M1811,1683.7c-2-17.3-14.1-27-31.1-27c-15.7,0-29.1,10.4-30.9,27H1811z"/>
		<path class="st1" d="M1938.8,1595.7h24.5v158.9H1942l-3-17.5c-7.5,10.2-19.5,18.8-37.9,18.8c-31.6,0-54.9-22.2-54.9-59.5
			c0-35.9,23.4-59.5,54.9-59.5c17.7,0,30.2,7.3,37.7,17.5V1595.7z M1939,1696.9c0-23.2-13.4-39-33.8-39c-20.4,0-33.8,15.9-33.8,38.6
			c0,22.9,13.4,38.8,33.8,38.8C1925.6,1735.3,1939,1719.4,1939,1696.9z"/>
		<path class="st1" d="M1979.2,1607.2c0-8.6,6.6-14.8,15-14.8c8.4,0,15,6.1,15,14.8s-6.6,14.8-15,14.8
			C1985.8,1622,1979.2,1615.9,1979.2,1607.2z M1981.7,1638.3h24.5v116.2h-24.5V1638.3z"/>
		<path class="st1" d="M2104.3,1638.3h24.5v116.2h-21.6l-2.7-14.8c-7.3,8.9-17.9,16.1-35.9,16.1c-24.7,0-45.9-13.2-45.9-52.9v-64.7
			h24.5v62c0,22.7,9.1,34.3,27,34.3c18.6,0,30-14.1,30-38.1V1638.3z"/>
		<path class="st1" d="M2324.4,1687.6v67h-24.5v-65.4c0-20.4-8.4-31.1-24.3-31.1c-16.8,0-27.5,12.7-27.5,33.6v62.9h-24.7v-65.4
			c0-20.4-8.4-31.1-24.5-31.1c-16.8,0-27.2,13.6-27.2,34.3v62.2h-24.5v-116.2h21.3l2.7,15.2c6.6-8.6,16.6-16.3,34.1-16.6
			c15.2,0,28.8,6.1,35.9,21.1c7.5-12.7,20.7-21.1,39.7-21.1C2304.9,1637,2324.4,1650.8,2324.4,1687.6z"/>
		<path class="st1" d="M2413.7,1595.7h26.1l-27.9,158.9h-26.1L2413.7,1595.7z"/>
		<path class="st1" d="M2457.9,1659.9h-20.2l3.6-21.6h20.2l5.9-32.5h24.5l-5.7,32.5h27.9l-3.6,21.6h-28.1l-10.9,61.1
			c-0.2,1.6-0.5,3.4-0.5,4.8c0,5.2,2.7,7.3,9.8,7.3h18.4l-3.6,21.6h-21.3c-19.3,0-28.4-7.9-28.4-23.4c0-2.7,0.7-6.4,1.4-11.3
			L2457.9,1659.9z"/>
		<path class="st1" d="M2618.2,1733.2l-3.6,21.3h-12.3c-12.9,0-19.1-5.9-19.3-13.8c-9.1,9.1-20.7,15.2-37.9,15.2
			c-22.9,0-40.2-10.9-40.2-31.8c0-27.5,21.6-39.5,53.3-39.5h31.8l0.9-5.4c0.2-1.8,0.7-4.5,0.7-6.6c0-10.2-8.9-15.9-22.2-15.9
			c-17.5,0-24.5,7-28.4,17h-24.7c6.8-24.3,24.5-36.8,55.2-36.8c25.4,0,44.5,11.4,44.5,35c0,3.6-0.5,7.5-1.1,11.6l-7.3,39.7
			c-0.5,2.3-0.7,3.6-0.7,4.8c0,3.2,1.6,5.2,5.9,5.2H2618.2z M2586.2,1706.4l0.7-3.6h-30.2c-16.6,0-26.8,5.9-26.8,19.1
			c0,9.8,7.9,15,19.3,15C2570.5,1736.9,2583,1723.7,2586.2,1706.4z"/>
		<path class="st1" d="M2650.4,1595.7h24.5l-28.1,158.9h-24.5L2650.4,1595.7z"/>
		<path class="st1" d="M2685.4,1638.3h24.7l-20.4,116.2h-24.7L2685.4,1638.3z M2688.3,1608.6c0-9.3,7.3-16.1,15.9-16.1
			c8.2,0,13.8,5.7,13.8,13.4c0,9.3-7.3,16.1-15.9,16.1C2694,1622,2688.3,1616.3,2688.3,1608.6z"/>
		<path class="st1" d="M2822.5,1712.8c-7,28.8-28.4,43.1-57,43.1c-31.3,0-52-22-52-51.1c0-40.2,24.7-67.9,64.5-67.9
			c29.7,0,48.4,17.7,48.6,42.7h-24.3c-1.4-13.6-11.6-21.8-25.9-21.8c-24.5,0-38.1,21.8-38.1,45.9c0,18.8,11.6,31.3,29.1,31.3
			c14.3,0,25.2-7.9,30-22.2H2822.5z"/>
		<path class="st1" d="M1537.2,1786.7h60.4c36.8,0,58.1,15.4,58.1,42c0,20-11.8,31.3-30,35.2c21.1,2.7,35.6,13.8,35.6,36.5
			c0,27.7-21.8,45.2-60.8,45.2h-63.3V1786.7z M1571.3,1813.4v38.6h27.2c14.5,0,23.2-7.5,23.2-19.3c0-11.8-8.4-19.3-23.2-19.3H1571.3
			z M1571.3,1878.4v40.2h29.5c16.3,0,25.7-7.5,25.7-19.7c0-12.9-9.5-20.4-25.7-20.4H1571.3z"/>
		<path class="st1" d="M1669.1,1887.2c0-35.9,24.3-59.7,61.5-59.7c37.2,0,61.5,23.8,61.5,59.7c0,36.1-24.3,59.7-61.5,59.7
			C1693.4,1946.9,1669.1,1923.1,1669.1,1887.2z M1759.7,1887.2c0-19.8-11.1-33.6-29.1-33.6s-28.8,13.8-28.8,33.6
			c0,19.7,10.9,33.6,28.8,33.6S1759.7,1907,1759.7,1887.2z"/>
		<path class="st1" d="M1804.2,1786.7h32v158.9h-32V1786.7z"/>
		<path class="st1" d="M1937.4,1786.7h32v158.9h-27.9l-3.2-16.1c-7.7,10-19.1,17.5-35.9,17.5c-31.3,0-54.3-22.9-54.3-59.9
			c0-36.1,22.9-59.5,54-59.5c16.1,0,27.7,6.4,35.2,15.9V1786.7z M1937.9,1887.4c0-20-10.9-33.8-28.4-33.8s-28.6,13.6-28.6,33.6
			c0,20,11.1,33.6,28.6,33.6S1937.9,1907.2,1937.9,1887.4z"/>
		<path class="st1" d="M2056.8,1786.7h34.1l-28.1,158.9h-34.1L2056.8,1786.7z"/>
		<path class="st1" d="M2105.8,1855.9h-19.3l4.8-27h19.3l5.7-32.7h32l-5.7,32.7h26.6l-4.8,27h-26.6l-9.1,51.3
			c-0.2,1.4-0.5,3.4-0.5,4.5c0,4.5,2.3,6.8,8.9,6.8h17l-4.8,27h-23.6c-20,0-30.6-8.6-30.6-25.7c0-2.7,0.5-5.9,1.1-10L2105.8,1855.9z
			"/>
		<path class="st1" d="M2276.6,1918.5l-4.8,27h-15.4c-13.6,0-19.5-6.6-19.5-15v-0.2c-9.3,10.9-20.2,16.6-37.5,16.6
			c-22,0-40.4-10.7-40.4-32.5c0-27.9,20.9-40.6,54.7-40.6h28.1l0.7-4.3c0.5-1.8,0.7-4.1,0.7-5.7c0-8.4-7.7-12.9-18.6-12.9
			c-15.7,0-20.7,6.1-23.4,14.3h-32c6.6-25.4,25.7-37.7,57.7-37.7c27.2,0,47.4,11.1,47.4,36.3c0,3.6-0.5,7.5-1.1,11.6l-5.9,33.4
			c-0.5,2-0.7,3.9-0.7,4.8c0,3.2,1.6,5,5.4,5H2276.6z M2237.7,1897l0.2-1.8h-23.6c-15.2,0-22.9,5-22.9,16.1
			c0,7.9,6.6,12.5,15.2,12.5C2224.6,1923.8,2235,1911.7,2237.7,1897z"/>
		<path class="st1" d="M2306.5,1786.7h32l-28.4,158.9h-31.6L2306.5,1786.7z"/>
		<path class="st1" d="M2347.4,1828.9h32.2l-20.7,116.7h-32L2347.4,1828.9z M2350.3,1799.8c0-11.1,8.9-19.5,19.7-19.5
			c10.2,0,17.3,6.8,17.3,16.6c0,11.1-8.9,19.5-19.8,19.5C2357.4,1816.4,2350.3,1809.6,2350.3,1799.8z"/>
		<path class="st1" d="M2495.6,1901.3c-7.9,30.2-28.4,45.6-60.4,45.6c-32.9,0-54.3-22.2-54.3-51.8c0-41.1,25.4-67.6,65.8-67.6
			c31.6,0,52.4,18.8,52.2,44.9h-32.2c-1.1-11.4-9.3-18.8-21.3-18.8c-20.4,0-32.2,20-32.2,40c0,16.3,9.3,27.2,24.1,27.2
			c12.3,0,20.9-7.5,25.2-19.5H2495.6z"/>
	</g>
</g>
<g>
	<path class="st1" d="M1569.7,515.4c-10.3,0-18.2-2.9-23.9-8.8c-5.7-5.9-8.5-14.1-8.5-24.7v-3.2c0-10.5,2.9-18.7,8.6-24.7
		c5.7-5.9,13.7-8.9,23.9-8.9c10.2,0,18.2,3,23.9,8.9c5.8,5.9,8.6,14.1,8.6,24.7v3.2c0,10.6-2.8,18.8-8.5,24.7
		C1588,512.4,1580,515.4,1569.7,515.4z M1569.7,504.4c13.2,0,19.7-7.7,19.7-23v-2.4c0-15.3-6.6-23-19.7-23c-13.1,0-19.6,7.7-19.6,23
		v2.4C1550,496.8,1556.6,504.4,1569.7,504.4z"/>
	<path class="st1" d="M1624.4,514.8v-45.9c-1.2,0.5-2.9,0.7-5,0.7h-13.8v-10.8h13c4,0,6-2.1,6-6.3v-6.8h12.5v69.1H1624.4z"/>
	<path class="st1" d="M1644.6,514.8v-10.1l32.2-21.2c4.5-3,7.8-5.7,9.8-8.3c2-2.6,3-5.3,3-8c0-3.6-1.3-6.3-4-8.2
		c-2.7-1.9-6.6-2.9-11.6-2.9c-4.9,0-8.9,1.2-11.8,3.5c-3,2.3-4.4,5.4-4.4,9.4v1.1h-12.8V468c0-6.8,2.7-12.3,8.1-16.5
		c5.4-4.2,12.4-6.4,21.1-6.4c8.9,0,15.9,1.9,21,5.7c5.1,3.8,7.6,9,7.6,15.7c0,5.2-1.4,9.7-4.2,13.5c-2.8,3.8-7.8,7.9-14.9,12.5
		l-17.7,11.3h37.4v10.9H1644.6z"/>
	<path class="st1" d="M1737.4,515.4c-9.7,0-17.2-1.9-22.5-5.8c-5.3-3.8-7.9-9.3-7.9-16.4h12.6c0.1,3.9,1.8,6.8,4.9,8.9
		c3.1,2,7.6,3.1,13.5,3.1c5.5,0,9.7-0.9,12.7-2.8c3-1.8,4.5-4.4,4.5-7.8c0-6.4-5.4-9.6-16.2-9.6h-9.1v-10.6h8.3
		c4.8,0,8.5-0.9,11.1-2.6c2.6-1.7,3.9-4.1,3.9-7.3c0-6.1-5.2-9.2-15.6-9.2c-10.4,0-15.9,3.7-16.7,11h-12.6c0.2-6.5,3-11.7,8.3-15.5
		c5.3-3.8,12.4-5.8,21.2-5.8c9,0,16,1.6,21,4.9c5,3.3,7.4,7.8,7.4,13.7c0,3.9-1.1,7.2-3.3,9.9c-2.2,2.6-5.3,4.4-9.3,5.3
		c4.6,0.8,8.2,2.6,10.7,5.4c2.5,2.8,3.8,6.4,3.8,10.7c0,6.3-2.8,11.3-8.3,14.9C1754.3,513.6,1746.8,515.4,1737.4,515.4z"/>
	<path class="st1" d="M1814.6,514.8v-15.3h-42.1v-11.4l39.7-42.3h15.1v42.9h12.5v10.9h-12.5v15.3H1814.6z M1786.4,488.7h28.2v-30.2
		L1786.4,488.7z"/>
	<path class="st1" d="M1873.7,515.4c-9.4,0-16.7-1.9-21.8-5.7c-5.1-3.8-7.8-8.8-8.2-15.1h12.7c1.3,6.8,7.1,10.3,17.3,10.3
		c5.2,0,9.4-1.2,12.5-3.5c3.2-2.3,4.7-5.6,4.7-9.8c0-4.1-1.4-7.4-4.3-9.8c-2.9-2.4-7.1-3.6-12.7-3.6c-8.2,0-13.7,2.6-16.8,7.8
		l-12.4-1l2.7-39.3h51.5v10.9h-40.1l-1.3,16.5c4.1-3.5,10.2-5.2,18.3-5.2c8.7,0,15.5,2.1,20.5,6.4c5,4.3,7.5,10,7.5,17.1
		c0,7.6-2.8,13.5-8.4,17.7C1889.9,513.3,1882.6,515.4,1873.7,515.4z"/>
	<path class="st1" d="M1941.2,515.4c-11,0-19.2-3.4-24.8-10.1c-4.9-5.9-7.3-14-7.3-24.4c0-11.7,2.8-20.6,8.3-26.7
		c5.6-6.1,13.7-9.1,24.3-9.1c7.8,0,14.2,1.7,19.1,5c4.9,3.3,7.9,8,8.9,14.1h-12.6c-1-3-2.8-5.2-5.3-6.6c-2.6-1.3-6.1-2-10.7-2
		c-13,0-19.5,7.1-19.5,21.2c0,0.7,0,1.2,0.1,1.5c3.7-6.3,11-9.5,22-9.5c8.5,0,15.3,2,20.1,6.1s7.3,9.7,7.3,16.8
		c0,7.2-2.7,13-8.1,17.3C1957.7,513.3,1950.4,515.4,1941.2,515.4z M1941.3,505.2c5.4,0,9.6-1.1,12.5-3.5c3-2.3,4.4-5.5,4.4-9.7
		c0-4.2-1.5-7.4-4.4-9.7c-2.9-2.3-7.1-3.4-12.4-3.4c-5.3,0-9.5,1.2-12.5,3.5c-3,2.3-4.5,5.5-4.5,9.7c0,4.1,1.5,7.3,4.5,9.6
		C1932,504.1,1936.1,505.2,1941.3,505.2z"/>
	<path class="st1" d="M1980.5,514.8l37.1-58.1h-43.7v-10.9h59.3v8.4l-38.2,60.7H1980.5z"/>
	<path class="st1" d="M2088.5,510.2c-5.5,3.5-13.1,5.2-22.7,5.2s-17.2-1.7-22.7-5.2c-5.5-3.5-8.2-8.3-8.2-14.4
		c0-4.5,1.4-8.2,4.2-11.2c2.8-3,6.7-4.9,11.8-5.9c-4.3-0.9-7.7-2.7-10.1-5.3c-2.4-2.6-3.6-5.9-3.6-9.9c0-5.7,2.6-10.1,7.7-13.4
		c5.2-3.3,12.1-4.9,21-4.9c8.8,0,15.8,1.6,21,4.9c5.2,3.3,7.7,7.8,7.7,13.4c0,3.9-1.2,7.2-3.6,9.9c-2.4,2.6-5.8,4.4-10.1,5.3
		c5.1,0.9,9,2.9,11.8,5.9c2.8,3,4.2,6.7,4.2,11.2C2096.7,501.9,2094,506.7,2088.5,510.2z M2052.5,503.1c3.1,1.9,7.5,2.8,13.2,2.8
		s10.1-0.9,13.2-2.8c3.1-1.9,4.6-4.6,4.6-8c0-3.6-1.5-6.3-4.6-8.1c-3.1-1.9-7.5-2.8-13.2-2.8s-10.1,0.9-13.2,2.8
		c-3.1,1.9-4.6,4.6-4.6,8.1C2047.9,498.6,2049.4,501.2,2052.5,503.1z M2054.1,471.1c2.7,1.6,6.6,2.5,11.7,2.5c5.1,0,9-0.8,11.7-2.5
		c2.7-1.6,4.1-4,4.1-7.1c0-3-1.4-5.3-4.1-7c-2.7-1.6-6.6-2.4-11.7-2.4c-5.1,0-9,0.8-11.7,2.4c-2.7,1.6-4.1,3.9-4.1,7
		C2050,467.1,2051.3,469.5,2054.1,471.1z"/>
	<path class="st1" d="M2131.9,445.2c11,0,19.3,3.4,24.9,10.1c4.9,5.9,7.3,14,7.3,24.4c0,11.7-2.8,20.6-8.4,26.7
		c-5.6,6.1-13.7,9.1-24.4,9.1c-7.8,0-14.2-1.7-19.1-5c-4.9-3.3-7.9-8-8.9-14.1h12.6c1.1,3,2.8,5.2,5.4,6.6c2.5,1.3,6.1,2,10.6,2
		c13,0,19.5-7.1,19.5-21.2v-1.5c-3.7,6.3-11.1,9.5-22,9.5c-8.6,0-15.4-2-20.2-6.1c-4.9-4-7.3-9.6-7.3-16.8c0-7.2,2.7-13,8.1-17.3
		C2115.5,447.3,2122.8,445.2,2131.9,445.2z M2131.8,455.3c-5.3,0-9.5,1.2-12.5,3.5c-3,2.3-4.5,5.5-4.5,9.7c0,4.2,1.5,7.4,4.4,9.7
		c2.9,2.3,7.1,3.4,12.4,3.4c5.4,0,9.6-1.1,12.6-3.5c3-2.3,4.5-5.5,4.5-9.7c0-4.1-1.5-7.3-4.5-9.6
		C2141.2,456.5,2137,455.3,2131.8,455.3z"/>
</g>
</svg>
