<?xml version="1.0" encoding="utf-8"?>
<!-- Generator: Adobe Illustrator 22.0.0, SVG Export Plug-In . SVG Version: 6.00 Build 0)  -->
<svg version="1.1" id="Layer_1_copy" xmlns="http://www.w3.org/2000/svg" xmlns:xlink="http://www.w3.org/1999/xlink" x="0px"
	 y="0px" viewBox="0 0 3000 2000" style="enable-background:new 0 0 3000 2000;" xml:space="preserve">
<style type="text/css">
	.st0{fill:#606F91;stroke:#B1C5E8;stroke-width:3;stroke-miterlimit:10;}
	.st1{fill:#B1C5E8;}
	.st2{fill:none;stroke:#B1C5E8;stroke-width:3;stroke-miterlimit:10;}
	.st3{fill:#FFFFFF;}
	.st4{opacity:0.5;fill:#FFFFFF;}
</style>
<rect width="3000" height="2000"/>
<g>
	<path class="st0" d="M802,563.1V273h878.2c-29.7-149.8-102.8-267.4-219.5-352.8c-116.8-85.3-265.7-128.1-446.9-128.1
		c-151.6,0-277.5,30.5-377.7,91.5c-100.2,61-168.6,145.5-205.2,253.5H72.8C105.9-58,207.4-214,377.3-330.7
		c169.9-116.7,380.3-175.1,631.2-175.1c315.3,0,568.5,85.4,759.2,256.1c190.8,170.8,286.2,395.5,286.2,674.3
		c0,280.5-95,505.7-284.9,675.6c-189.9,169.9-440.8,254.8-752.7,254.8c-256.1,0-468.7-57.9-637.7-173.8
		c-169-115.9-271-272.2-305.8-469.1h358.1c36.6,109.8,105.4,194.7,206.5,254.8c101,60.1,229.1,90.2,384.2,90.2
		c181.2,0,329.7-44,445.6-132c115.9-88,187.7-208.6,215.6-362H802z"/>
	<g>
		<circle class="st1" cx="752.6" cy="-505.8" r="15.1"/>
		<circle class="st1" cx="1349.4" cy="-505.8" r="15.1"/>
		<circle class="st1" cx="1572.9" cy="-423.2" r="15.1"/>
		<circle class="st1" cx="1974" cy="-68" r="15.1"/>
		<circle class="st1" cx="2053.8" cy="133.8" r="15.1"/>
		<circle class="st1" cx="1646.6" cy="107.2" r="15.1"/>
		<circle class="st1" cx="1603.1" cy="23.8" r="15.1"/>
		<circle class="st1" cx="1333.7" cy="-171.9" r="15.1"/>
		<circle class="st1" cx="1210.5" cy="-208.1" r="15.1"/>
		<circle class="st1" cx="846.9" cy="-208.1" r="15.1"/>
		<circle class="st1" cx="756.3" cy="-190" r="15.1"/>
		<circle class="st1" cx="524.3" cy="-48.7" r="15.1"/>
		<circle class="st1" cx="471.2" cy="16.6" r="15.1"/>
		<circle class="st1" cx="108.7" cy="-70.4" r="15.1"/>
		<circle class="st1" cx="199.3" cy="-208.1" r="15.1"/>
		<circle class="st1" cx="578.7" cy="-470.3" r="15.1"/>
		<circle class="st1" cx="2053.8" cy="734.2" r="15.1"/>
		<circle class="st1" cx="1978.9" cy="908.1" r="15.1"/>
		<circle class="st1" cx="1569.3" cy="1279" r="15.1"/>
		<circle class="st1" cx="566.6" cy="1312.9" r="15.1"/>
		<circle class="st1" cx="200.6" cy="1059.2" r="15.1"/>
		<circle class="st1" cx="109.9" cy="922.6" r="15.1"/>
		<circle class="st1" cx="471.2" cy="834.5" r="15.1"/>
		<circle class="st1" cx="523.1" cy="899.7" r="15.1"/>
		<circle class="st1" cx="750.2" cy="1036.2" r="15.1"/>
		<circle class="st1" cx="854.1" cy="1056.7" r="15.1"/>
		<circle class="st1" cx="1231.1" cy="1056.7" r="15.1"/>
		<circle class="st1" cx="1339.8" cy="1020.5" r="15.1"/>
		<circle class="st1" cx="1594.7" cy="826" r="15.1"/>
		<circle class="st1" cx="1652.7" cy="730.6" r="15.1"/>
		<circle class="st1" cx="764.7" cy="1354.6" r="15.1"/>
		<circle class="st1" cx="1361.5" cy="1354.6" r="15.1"/>
	</g>
	<g>
		<line class="st2" x1="752" y1="-505.8" x2="1334.3" y2="-505.8"/>
		<line class="st2" x1="1576.6" y1="-420.8" x2="1965.6" y2="-75.2"/>
		<line class="st2" x1="2053.9" y1="145.8" x2="2053.9" y2="722.1"/>
		<line class="st2" x1="1579" y1="1270.6" x2="1970.4" y2="915.4"/>
		<line class="st2" x1="209" y1="1065.2" x2="556.9" y2="1306.8"/>
		<line class="st2" x1="107.5" y1="909.4" x2="72.5" y2="712.4"/>
		<line class="st2" x1="467.5" y1="822.4" x2="431.3" y2="712.4"/>
		<line class="st2" x1="536.4" y1="906.9" x2="738.2" y2="1029"/>
		<line class="st2" x1="866.2" y1="1056.7" x2="1217.8" y2="1056.7"/>
		<line class="st2" x1="1351.9" y1="1013.2" x2="1583.8" y2="834.5"/>
		<line class="st2" x1="1655.1" y1="716.1" x2="1682.9" y2="562.6"/>
		<line class="st2" x1="1650.3" y1="122.9" x2="1680.5" y2="272.7"/>
		<line class="st2" x1="1343.4" y1="-164.6" x2="1592.3" y2="16.6"/>
		<line class="st2" x1="862.6" y1="-208.1" x2="1198.4" y2="-208.1"/>
		<line class="st2" x1="536.4" y1="-55.9" x2="747.8" y2="-185.2"/>
		<line class="st2" x1="467.5" y1="28.7" x2="431.3" y2="137.4"/>
		<line class="st2" x1="106.3" y1="-58.3" x2="72.5" y2="137.4"/>
		<line class="st2" x1="207.8" y1="-214.2" x2="569" y2="-464.2"/>
		<path class="st2" d="M1010-481.7L1010-481.7c-13.3,0-24.2-10.8-24.2-24.2v0c0-13.3,10.8-24.2,24.2-24.2h0
			c13.3,0,24.2,10.8,24.2,24.2v0C1034.1-492.5,1023.3-481.7,1010-481.7z"/>
		<line class="st2" x1="764.1" y1="1354.6" x2="1346.4" y2="1354.6"/>
		<path class="st2" d="M1022.1,1378.8L1022.1,1378.8c-13.3,0-24.2-10.8-24.2-24.2v0c0-13.3,10.8-24.2,24.2-24.2h0
			c13.3,0,24.2,10.8,24.2,24.2v0C1046.2,1368,1035.4,1378.8,1022.1,1378.8z"/>
		<path class="st2" d="M381.2-310.2L381.2-310.2c-13.3,0-24.2-10.8-24.2-24.2v0c0-13.3,10.8-24.2,24.2-24.2h0
			c13.3,0,24.2,10.8,24.2,24.2v0C405.3-321,394.5-310.2,381.2-310.2z"/>
		<path class="st2" d="M642.1-96.4L642.1-96.4c-13.3,0-24.2-10.8-24.2-24.2v0c0-13.3,10.8-24.2,24.2-24.2h0
			c13.3,0,24.2,10.8,24.2,24.2v0C666.3-107.2,655.5-96.4,642.1-96.4z"/>
		<path class="st2" d="M1017.8-184.6L1017.8-184.6c-13.3,0-24.2-10.8-24.2-24.2v0c0-13.3,10.8-24.2,24.2-24.2h0
			c13.3,0,24.2,10.8,24.2,24.2v0C1042-195.4,1031.2-184.6,1017.8-184.6z"/>
		<path class="st2" d="M1452.7-61.3L1452.7-61.3c-13.3,0-24.2-10.8-24.2-24.2v0c0-13.3,10.8-24.2,24.2-24.2h0
			c13.3,0,24.2,10.8,24.2,24.2v0C1476.9-72.2,1466.1-61.3,1452.7-61.3z"/>
		<rect x="1652.7" y="244.9" class="st2" width="56.8" height="56.8"/>
		<rect x="774.4" y="244.9" class="st2" width="56.8" height="56.8"/>
		<rect x="774.4" y="534.8" class="st2" width="56.8" height="56.8"/>
		<rect x="403.5" y="684.6" class="st2" width="56.8" height="56.8"/>
		<rect x="44.7" y="684.6" class="st2" width="56.8" height="56.8"/>
		<rect x="1653.9" y="534.8" class="st2" width="56.8" height="56.8"/>
		<path class="st2" d="M1467.2,948.6L1467.2,948.6c-13.3,0-24.2-10.8-24.2-24.2v0c0-13.3,10.8-24.2,24.2-24.2l0,0
			c13.3,0,24.2,10.8,24.2,24.2v0C1491.4,937.8,1480.6,948.6,1467.2,948.6z"/>
		<path class="st2" d="M2054.4,448.5L2054.4,448.5c-13.3,0-24.2-10.8-24.2-24.2v0c0-13.3,10.8-24.2,24.2-24.2l0,0
			c13.3,0,24.2,10.8,24.2,24.2v0C2078.5,437.6,2067.7,448.5,2054.4,448.5z"/>
		<path class="st2" d="M1774.1,1117.7L1774.1,1117.7c-13.3,0-24.2-10.8-24.2-24.2l0,0c0-13.3,10.8-24.2,24.2-24.2l0,0
			c13.3,0,24.2,10.8,24.2,24.2l0,0C1798.3,1106.9,1787.4,1117.7,1774.1,1117.7z"/>
		<path class="st2" d="M1017.8,1081.5L1017.8,1081.5c-13.3,0-24.2-10.8-24.2-24.2l0,0c0-13.3,10.8-24.2,24.2-24.2h0
			c13.3,0,24.2,10.8,24.2,24.2l0,0C1042,1070.7,1031.2,1081.5,1017.8,1081.5z"/>
		<path class="st2" d="M626.4,986.1L626.4,986.1c-13.3,0-24.2-10.8-24.2-24.2v0c0-13.3,10.8-24.2,24.2-24.2h0
			c13.3,0,24.2,10.8,24.2,24.2v0C650.6,975.2,639.7,986.1,626.4,986.1z"/>
		<path class="st2" d="M383.6,1210.8L383.6,1210.8c-13.3,0-24.2-10.8-24.2-24.2v0c0-13.3,10.8-24.2,24.2-24.2h0
			c13.3,0,24.2,10.8,24.2,24.2v0C407.7,1200,396.9,1210.8,383.6,1210.8z"/>
		<rect x="43.5" y="109.6" class="st2" width="56.8" height="56.8"/>
		<rect x="402.3" y="109.6" class="st2" width="56.8" height="56.8"/>
		<path class="st2" d="M1771.7-224.4L1771.7-224.4c-13.3,0-24.2-10.8-24.2-24.2v0c0-13.3,10.8-24.2,24.2-24.2l0,0
			c13.3,0,24.2,10.8,24.2,24.2v0C1795.8-235.3,1785-224.4,1771.7-224.4z"/>
	</g>
</g>
<g>
	<path class="st0" d="M2285,2076.1V1786h878.2c-29.7-149.8-102.8-267.4-219.5-352.8c-116.8-85.3-265.7-128.1-446.9-128.1
		c-151.6,0-277.5,30.5-377.7,91.5c-100.2,61-168.6,145.5-205.2,253.5h-358.1c33.1-195.1,134.6-351.1,304.5-467.8
		c169.9-116.7,380.3-175.1,631.2-175.1c315.3,0,568.5,85.4,759.2,256.1c190.8,170.8,286.2,395.5,286.2,674.3
		c0,280.5-95,505.7-284.9,675.6c-189.9,169.9-440.8,254.8-752.7,254.8c-256.1,0-468.7-57.9-637.7-173.8
		c-169-115.9-271-272.2-305.8-469.1h358.1c36.6,109.8,105.4,194.7,206.5,254.8c101,60.1,229.1,90.2,384.2,90.2
		c181.2,0,329.7-44,445.6-132c115.9-88,187.7-208.6,215.6-362H2285z"/>
	<g>
		<circle class="st1" cx="2235.6" cy="1007.2" r="15.1"/>
		<circle class="st1" cx="2832.4" cy="1007.2" r="15.1"/>
		<circle class="st1" cx="3055.9" cy="1089.8" r="15.1"/>
		<circle class="st1" cx="3457" cy="1445" r="15.1"/>
		<circle class="st1" cx="3536.8" cy="1646.8" r="15.1"/>
		<circle class="st1" cx="3129.6" cy="1620.2" r="15.1"/>
		<circle class="st1" cx="3086.1" cy="1536.8" r="15.1"/>
		<circle class="st1" cx="2816.7" cy="1341.1" r="15.1"/>
		<circle class="st1" cx="2693.5" cy="1304.9" r="15.1"/>
		<circle class="st1" cx="2329.9" cy="1304.9" r="15.1"/>
		<circle class="st1" cx="2239.3" cy="1323" r="15.1"/>
		<circle class="st1" cx="2007.3" cy="1464.3" r="15.1"/>
		<circle class="st1" cx="1954.2" cy="1529.6" r="15.1"/>
		<circle class="st1" cx="1591.7" cy="1442.6" r="15.1"/>
		<circle class="st1" cx="1682.3" cy="1304.9" r="15.1"/>
		<circle class="st1" cx="2061.7" cy="1042.7" r="15.1"/>
		<circle class="st1" cx="3536.8" cy="2247.2" r="15.1"/>
		<circle class="st1" cx="3461.9" cy="2421.1" r="15.1"/>
		<circle class="st1" cx="3052.3" cy="2792" r="15.1"/>
		<circle class="st1" cx="2049.6" cy="2825.9" r="15.1"/>
		<circle class="st1" cx="1683.6" cy="2572.2" r="15.1"/>
		<circle class="st1" cx="1592.9" cy="2435.6" r="15.1"/>
		<circle class="st1" cx="1954.2" cy="2347.5" r="15.1"/>
		<circle class="st1" cx="2006.1" cy="2412.7" r="15.1"/>
		<circle class="st1" cx="2233.2" cy="2549.2" r="15.1"/>
		<circle class="st1" cx="2337.1" cy="2569.7" r="15.1"/>
		<circle class="st1" cx="2714.1" cy="2569.7" r="15.1"/>
		<circle class="st1" cx="2822.8" cy="2533.5" r="15.1"/>
		<circle class="st1" cx="3077.7" cy="2339" r="15.1"/>
		<circle class="st1" cx="3135.7" cy="2243.6" r="15.1"/>
		<circle class="st1" cx="2247.7" cy="2867.6" r="15.1"/>
		<circle class="st1" cx="2844.5" cy="2867.6" r="15.1"/>
	</g>
	<g>
		<line class="st2" x1="2235" y1="1007.2" x2="2817.3" y2="1007.2"/>
		<line class="st2" x1="3059.6" y1="1092.2" x2="3448.6" y2="1437.8"/>
		<line class="st2" x1="3536.9" y1="1658.8" x2="3536.9" y2="2235.1"/>
		<line class="st2" x1="3062" y1="2783.6" x2="3453.4" y2="2428.4"/>
		<line class="st2" x1="1692" y1="2578.2" x2="2039.9" y2="2819.8"/>
		<line class="st2" x1="1590.5" y1="2422.4" x2="1555.5" y2="2225.4"/>
		<line class="st2" x1="1950.5" y1="2335.4" x2="1914.3" y2="2225.4"/>
		<line class="st2" x1="2019.4" y1="2419.9" x2="2221.2" y2="2542"/>
		<line class="st2" x1="2349.2" y1="2569.7" x2="2700.8" y2="2569.7"/>
		<line class="st2" x1="2834.9" y1="2526.2" x2="3066.8" y2="2347.5"/>
		<line class="st2" x1="3138.1" y1="2229.1" x2="3165.9" y2="2075.6"/>
		<line class="st2" x1="3133.3" y1="1635.9" x2="3163.5" y2="1785.7"/>
		<line class="st2" x1="2826.4" y1="1348.4" x2="3075.3" y2="1529.6"/>
		<line class="st2" x1="2345.6" y1="1304.9" x2="2681.4" y2="1304.9"/>
		<line class="st2" x1="2019.4" y1="1457.1" x2="2230.8" y2="1327.8"/>
		<line class="st2" x1="1950.5" y1="1541.7" x2="1914.3" y2="1650.4"/>
		<line class="st2" x1="1589.3" y1="1454.7" x2="1555.5" y2="1650.4"/>
		<line class="st2" x1="1690.8" y1="1298.8" x2="2052" y2="1048.8"/>
		<path class="st2" d="M2493,1031.3L2493,1031.3c-13.3,0-24.2-10.8-24.2-24.2v0c0-13.3,10.8-24.2,24.2-24.2h0
			c13.3,0,24.2,10.8,24.2,24.2v0C2517.1,1020.5,2506.3,1031.3,2493,1031.3z"/>
		<line class="st2" x1="2247.1" y1="2867.6" x2="2829.4" y2="2867.6"/>
		<path class="st2" d="M2505.1,2891.8L2505.1,2891.8c-13.3,0-24.2-10.8-24.2-24.2l0,0c0-13.3,10.8-24.2,24.2-24.2l0,0
			c13.3,0,24.2,10.8,24.2,24.2l0,0C2529.2,2881,2518.4,2891.8,2505.1,2891.8z"/>
		<path class="st2" d="M1864.2,1202.8L1864.2,1202.8c-13.3,0-24.2-10.8-24.2-24.2l0,0c0-13.3,10.8-24.2,24.2-24.2h0
			c13.3,0,24.2,10.8,24.2,24.2l0,0C1888.3,1192,1877.5,1202.8,1864.2,1202.8z"/>
		<path class="st2" d="M2125.1,1416.6L2125.1,1416.6c-13.3,0-24.2-10.8-24.2-24.2l0,0c0-13.3,10.8-24.2,24.2-24.2l0,0
			c13.3,0,24.2,10.8,24.2,24.2l0,0C2149.3,1405.8,2138.5,1416.6,2125.1,1416.6z"/>
		<path class="st2" d="M2500.8,1328.4L2500.8,1328.4c-13.3,0-24.2-10.8-24.2-24.2v0c0-13.3,10.8-24.2,24.2-24.2l0,0
			c13.3,0,24.2,10.8,24.2,24.2v0C2525,1317.6,2514.2,1328.4,2500.8,1328.4z"/>
		<path class="st2" d="M2935.7,1451.7L2935.7,1451.7c-13.3,0-24.2-10.8-24.2-24.2l0,0c0-13.3,10.8-24.2,24.2-24.2l0,0
			c13.3,0,24.2,10.8,24.2,24.2l0,0C2959.9,1440.8,2949.1,1451.7,2935.7,1451.7z"/>
		<rect x="3135.7" y="1757.9" class="st2" width="56.8" height="56.8"/>
		<rect x="2257.4" y="1757.9" class="st2" width="56.8" height="56.8"/>
		<rect x="2257.4" y="2047.8" class="st2" width="56.8" height="56.8"/>
		<rect x="1886.5" y="2197.6" class="st2" width="56.8" height="56.8"/>
		<rect x="1527.7" y="2197.6" class="st2" width="56.8" height="56.8"/>
		<rect x="3136.9" y="2047.8" class="st2" width="56.8" height="56.8"/>
		<path class="st2" d="M2950.2,2461.6L2950.2,2461.6c-13.3,0-24.2-10.8-24.2-24.2v0c0-13.3,10.8-24.2,24.2-24.2l0,0
			c13.3,0,24.2,10.8,24.2,24.2v0C2974.4,2450.8,2963.6,2461.6,2950.2,2461.6z"/>
		<path class="st2" d="M3537.4,1961.5L3537.4,1961.5c-13.3,0-24.2-10.8-24.2-24.2l0,0c0-13.3,10.8-24.2,24.2-24.2l0,0
			c13.3,0,24.2,10.8,24.2,24.2l0,0C3561.5,1950.6,3550.7,1961.5,3537.4,1961.5z"/>
		<path class="st2" d="M3257.1,2630.7L3257.1,2630.7c-13.3,0-24.2-10.8-24.2-24.2l0,0c0-13.3,10.8-24.2,24.2-24.2l0,0
			c13.3,0,24.2,10.8,24.2,24.2l0,0C3281.3,2619.9,3270.4,2630.7,3257.1,2630.7z"/>
		<path class="st2" d="M2500.8,2594.5L2500.8,2594.5c-13.3,0-24.2-10.8-24.2-24.2l0,0c0-13.3,10.8-24.2,24.2-24.2l0,0
			c13.3,0,24.2,10.8,24.2,24.2l0,0C2525,2583.7,2514.2,2594.5,2500.8,2594.5z"/>
		<path class="st2" d="M2109.4,2499.1L2109.4,2499.1c-13.3,0-24.2-10.8-24.2-24.2l0,0c0-13.3,10.8-24.2,24.2-24.2l0,0
			c13.3,0,24.2,10.8,24.2,24.2l0,0C2133.6,2488.2,2122.7,2499.1,2109.4,2499.1z"/>
		<path class="st2" d="M1866.6,2723.8L1866.6,2723.8c-13.3,0-24.2-10.8-24.2-24.2l0,0c0-13.3,10.8-24.2,24.2-24.2l0,0
			c13.3,0,24.2,10.8,24.2,24.2l0,0C1890.7,2713,1879.9,2723.8,1866.6,2723.8z"/>
		<rect x="1526.5" y="1622.6" class="st2" width="56.8" height="56.8"/>
		<rect x="1885.3" y="1622.6" class="st2" width="56.8" height="56.8"/>
		<path class="st2" d="M3254.7,1288.6L3254.7,1288.6c-13.3,0-24.2-10.8-24.2-24.2l0,0c0-13.3,10.8-24.2,24.2-24.2l0,0
			c13.3,0,24.2,10.8,24.2,24.2l0,0C3278.8,1277.7,3268,1288.6,3254.7,1288.6z"/>
	</g>
</g>
<g>
	<g>
		<path class="st3" d="M1803,179.7V29.4h117.3v25.3H1832v36.9h72.8v24.3H1832v38.4h91.5v25.3H1803z"/>
		<path class="st3" d="M1936.4,179.7V29.4h29v125h77.5v25.3H1936.4z"/>
		<path class="st3" d="M2077.3,179.7v-125h-55.8V29.4h140.7v25.3h-55.8v125H2077.3z"/>
		<path class="st3" d="M2135.9,179.7l67.4-150.4h34.6l67.2,150.4h-32l-15.3-34.6h-76l-15,34.6H2135.9z M2192,121.1h55.8l-28.1-64.2
			L2192,121.1z"/>
		<path class="st3" d="M2433.6,181c-22.1,0-39.5-4.5-52.2-13.4c-12.7-8.9-19.3-21.3-19.8-37.1h28.8c0.7,8.4,4.9,15,12.6,19.8
			c7.7,4.7,17.9,7.1,30.8,7.1c25.2,0,37.8-6.7,37.8-20.2c0-6.2-2.8-10.5-8.3-13.1c-5.5-2.6-16.3-4.9-32.3-6.9
			c-23.8-2.9-40.6-7.6-50.4-14.2c-9.8-6.6-14.7-16.5-14.7-29.9c0-13.9,5.8-24.9,17.3-33c11.5-8.1,27.2-12.1,46.9-12.1
			c20.5,0,36.7,4.1,48.7,12.3c12,8.2,18.3,19.7,19,34.5h-28.8c-1.1-7.4-5.1-13.2-11.8-17.2c-6.7-4-15.9-6-27.5-6
			c-23.2,0-34.8,6.4-34.8,19.3c0,6.2,2.8,10.5,8.4,13.1c5.6,2.6,16.4,4.8,32.4,6.7c23.3,2.6,40,7.2,50,14c10,6.7,15,16.7,15,29.9
			c0,14.2-6.1,25.5-18.3,33.8C2470.4,176.8,2454.1,181,2433.6,181z"/>
		<path class="st3" d="M2501.7,179.7l67.4-150.4h34.6l67.2,150.4h-32l-15.3-34.6h-76l-15,34.6H2501.7z M2557.8,121.1h55.8
			l-28.1-64.2L2557.8,121.1z"/>
		<path class="st3" d="M2680,179.7V29.4h26.4l88.7,104.2V29.4h28.4v150.4H2797l-88.7-104.2v104.2H2680z"/>
		<path class="st3" d="M2908.9,181c-22.1,0-39.5-4.5-52.2-13.4c-12.7-8.9-19.3-21.3-19.8-37.1h28.8c0.7,8.4,4.9,15,12.6,19.8
			c7.7,4.7,17.9,7.1,30.8,7.1c25.2,0,37.8-6.7,37.8-20.2c0-6.2-2.8-10.5-8.3-13.1c-5.5-2.6-16.3-4.9-32.3-6.9
			c-23.8-2.9-40.6-7.6-50.4-14.2c-9.8-6.6-14.7-16.5-14.7-29.9c0-13.9,5.8-24.9,17.3-33c11.5-8.1,27.2-12.1,46.9-12.1
			c20.5,0,36.7,4.1,48.7,12.3c12,8.2,18.3,19.7,19,34.5h-28.8c-1.1-7.4-5.1-13.2-11.8-17.2c-6.7-4-15.9-6-27.5-6
			c-23.2,0-34.8,6.4-34.8,19.3c0,6.2,2.8,10.5,8.4,13.1c5.6,2.6,16.4,4.8,32.4,6.7c23.3,2.6,40,7.2,50,14c10,6.7,15,16.7,15,29.9
			c0,14.2-6.1,25.5-18.3,33.8C2945.7,176.8,2929.4,181,2908.9,181z"/>
		<path class="st3" d="M1803,361.4V211.1h117.3v25.3H1832v36.9h72.8v24.3H1832v38.4h91.5v25.3H1803z"/>
		<path class="st3" d="M1925.4,361.4l60.1-77.1l-56.9-73.2h36.1l39.7,51.5l40-51.5h34.6l-56.9,72.8l60.1,77.5h-36.1l-43.2-55.6
			l-43,55.6H1925.4z"/>
		<path class="st3" d="M2139.8,361.4v-125h-55.8v-25.3h140.7v25.3h-55.8v125H2139.8z"/>
		<path class="st3" d="M2291,361.4V211.1h75.6c17.6,0,31.5,4.4,41.8,13.2c10.2,8.8,15.4,20.7,15.4,35.8c0,15.2-5.1,27.2-15.4,36
			c-10.2,8.8-24.2,13.2-41.8,13.2H2320v52.2H2291z M2320,284.7h45.8c8.9,0,15.9-2.2,20.9-6.7c5.1-4.4,7.6-10.5,7.6-18
			c0-7.4-2.5-13.4-7.6-17.7c-5.1-4.4-12.1-6.6-20.9-6.6H2320V284.7z"/>
		<path class="st3" d="M2436.2,361.4V211.1h76c17.6,0,31.6,4.4,41.9,13.2c10.3,8.8,15.5,20.7,15.5,35.8c0,22.5-11.6,37.1-34.8,43.8
			l37.8,57.6h-33.9l-33.9-52.2h-39.5v52.2H2436.2z M2465.2,284.7h46.2c8.9,0,15.9-2.2,20.9-6.7c5.1-4.4,7.6-10.5,7.6-18
			c0-7.6-2.5-13.5-7.6-17.8c-5.1-4.3-12.1-6.4-20.9-6.4h-46.2V284.7z"/>
		<path class="st3" d="M2664.3,362.7c-25.8,0-46.8-7.1-62.9-21.3c-16.2-14.2-24.3-32.6-24.3-55.2c0-22.6,8.1-41,24.3-55.2
			c16.2-14.2,37.2-21.3,62.9-21.3c25.9,0,47,7.1,63.1,21.3c16.2,14.2,24.3,32.6,24.3,55.2c0,22.6-8.1,41-24.3,55.2
			C2711.3,355.6,2690.2,362.7,2664.3,362.7z M2664.3,337.8c17.6,0,31.6-4.7,42.1-14c10.5-9.3,15.7-21.8,15.7-37.6
			c0-15.8-5.2-28.3-15.7-37.6c-10.5-9.3-24.5-14-42.1-14c-17.5,0-31.4,4.7-41.9,14.1c-10.5,9.4-15.7,21.9-15.7,37.5
			c0,15.6,5.2,28.1,15.7,37.5C2632.9,333.1,2646.8,337.8,2664.3,337.8z"/>
	</g>
</g>
<g>
	<g>
		<path class="st3" d="M55.5,1769.6c-6.9,0-12.3-1.3-16.1-4c-3.8-2.7-5.7-6.5-5.7-11.3c0-10.7,8.2-16,24.7-16h16.8v-1.8
			c0-6.1-4.6-9.2-13.7-9.2c-7.9,0-12.4,2.2-13.6,6.6H35.3c0.6-5.1,3.3-9,8-11.8c4.7-2.8,11-4.2,18.8-4.2c16.9,0,25.4,6.5,25.4,19.4
			v17.1c0,2.7,1.4,4,4.1,4h2.3v10.7h-6.6c-3.2,0-5.8-0.7-7.7-2.1c-1.9-1.4-2.9-3.4-2.9-5.9v-0.2
			C72.4,1766.7,65.3,1769.6,55.5,1769.6z M57.6,1760.3c5.2,0,9.4-1.1,12.6-3.4c3.2-2.2,4.8-5.2,4.8-8.8v-1.4H57.8
			c-7.7,0-11.5,2.2-11.5,6.7C46.3,1758,50.1,1760.3,57.6,1760.3z"/>
		<path class="st3" d="M127.3,1769.6c-20,0-30-10.1-30-30.2c0-12.8,2.5-22,7.4-27.5c4.9-5.5,13.7-8.9,26.3-10.3l21.9-2.3v11
			l-19.2,1.9c-8.9,0.9-15,2.5-18.4,4.9c-3.4,2.3-5.7,6.6-6.7,12.7c4.5-5,11.8-7.5,22.1-7.5c8.4,0,15.1,2.1,20,6.2
			c4.9,4.1,7.4,9.8,7.4,16.9c0,7.4-2.8,13.2-8.4,17.6C144.1,1767.4,136.6,1769.6,127.3,1769.6z M127.6,1759.8
			c5.4,0,9.7-1.2,12.9-3.7c3.2-2.5,4.8-5.9,4.8-10.2c0-4.1-1.6-7.5-4.8-10c-3.2-2.5-7.4-3.8-12.8-3.8c-5.4,0-9.7,1.2-12.9,3.7
			c-3.2,2.4-4.8,5.7-4.8,9.7c0,4.5,1.6,8,4.7,10.6C117.8,1758.5,122.1,1759.8,127.6,1759.8z"/>
		<path class="st3" d="M165.4,1769v-50.6h30.4c6.8,0,12.1,1.1,15.6,3.4c3.6,2.3,5.4,5.6,5.4,9.9c0,2.8-0.8,5.2-2.3,7.2
			c-1.5,1.9-3.7,3.3-6.6,4c3.5,0.5,6.2,1.8,8,3.8c1.9,2,2.8,4.6,2.8,7.8c0,9.7-7.6,14.5-22.8,14.5H165.4z M177.7,1739.2h18.2
			c5.5,0,8.3-2,8.3-6c0-3.9-2.7-5.9-8.2-5.9h-18.3V1739.2z M177.7,1760.1h19.2c6.1,0,9.2-2.1,9.2-6.2s-3.1-6.2-9.2-6.2h-19.2V1760.1
			z"/>
		<path class="st3" d="M226.1,1769v-50.6h41.5v10.8h-29v39.9H226.1z"/>
		<path class="st3" d="M263.5,1782.3v-24.1h6.5c1.8-1.4,3.2-3.5,4-6.2c0.9-2.8,1.3-7.3,1.3-13.6v-20h48.3v39.9h7.2v24.1h-12.1V1769
			h-43.1v13.3H263.5z M311.1,1758.2v-29.6h-24.1v11.6c0,8.2-1.1,14.2-3.4,18H311.1z"/>
		<path class="st3" d="M363.5,1769.6c-9.4,0-16.9-2.4-22.5-7.1c-5.6-4.7-8.4-10.9-8.4-18.7c0-7.8,2.7-14,8.2-18.8
			c5.5-4.8,12.7-7.2,21.6-7.2c8.8,0,15.9,2.3,21.3,6.8c5.4,4.5,8.1,10.4,8.1,17.8c0,2,0,3.4-0.1,4.1h-46v0.6c0,3.9,1.5,7.1,4.5,9.3
			c3,2.3,7.2,3.4,12.6,3.4c8.7,0,14-2.6,15.9-7.7h12.4c-1.1,5.2-4.1,9.4-9.2,12.6C376.8,1768,370.7,1769.6,363.5,1769.6z
			 M346,1737.9h33.1c-0.5-3.4-2.1-6-4.9-7.8c-2.8-1.8-6.7-2.7-11.6-2.7c-4.7,0-8.5,0.9-11.4,2.8C348.2,1732,346.5,1734.6,346,1737.9
			z"/>
		<path class="st3" d="M427.8,1769.6c-9.4,0-16.9-2.4-22.5-7.1c-5.6-4.7-8.4-10.9-8.4-18.7c0-7.8,2.7-14,8.2-18.8
			c5.5-4.8,12.7-7.2,21.6-7.2c8.8,0,15.9,2.3,21.3,6.8c5.4,4.5,8.1,10.4,8.1,17.8c0,2,0,3.4-0.1,4.1h-46v0.6c0,3.9,1.5,7.1,4.5,9.3
			c3,2.3,7.2,3.4,12.6,3.4c8.7,0,14-2.6,15.9-7.7h12.4c-1.1,5.2-4.1,9.4-9.2,12.6C441.1,1768,435,1769.6,427.8,1769.6z M420.1,1710
			c-1.3,1.3-3,1.9-5,1.9c-2,0-3.7-0.6-5.1-1.9c-1.3-1.3-2-2.9-2-4.8c0-2,0.7-3.6,2-4.9c1.3-1.3,3-1.9,5.1-1.9c2,0,3.7,0.6,5,1.9
			c1.3,1.3,2,2.9,2,4.9C422.1,1707.1,421.5,1708.7,420.1,1710z M410.3,1737.9h33.1c-0.5-3.4-2.1-6-4.9-7.8
			c-2.8-1.8-6.7-2.7-11.6-2.7c-4.7,0-8.5,0.9-11.4,2.8C412.5,1732,410.8,1734.6,410.3,1737.9z M442.9,1710c-1.3,1.3-3,1.9-5.1,1.9
			c-2,0-3.7-0.6-5.1-1.9c-1.3-1.3-2-2.9-2-4.8c0-2,0.7-3.6,2-4.9c1.3-1.3,3-1.9,5.1-1.9c2,0,3.7,0.6,5.1,1.9c1.3,1.3,2,2.9,2,4.9
			C444.9,1707.1,444.2,1708.7,442.9,1710z"/>
		<path class="st3" d="M455,1769l18.7-26.5l-17.2-24.1h13.8l13.8,19.7h9.4v-19.7h12.3v19.7h9.4l13.8-19.7h13.8l-17.2,24.1l18.7,26.5
			h-14.8l-14.2-20.3h-9.6v20.3h-12.3v-20.3H484l-14.2,20.3H455z"/>
		<path class="st3" d="M570.7,1769.6c-8.9,0-15.4-1.4-19.7-4.3c-4.2-2.9-6.5-7.2-6.9-13h12.4c0.6,2.8,2,4.9,4.1,6.2
			c2.2,1.3,5.5,2,10.1,2c4.9,0,8.6-0.6,11.1-1.7c2.6-1.1,3.8-2.8,3.8-4.9c0-3.9-3.6-5.8-10.8-5.8h-10.8v-9.1h10c7,0,10.6-2,10.6-6.1
			c0-3.9-4.3-5.8-13-5.8c-8.7,0-13.7,2.5-14.8,7.6h-12.4c0.4-5.2,3-9.3,7.9-12.3c4.9-3,11.4-4.5,19.6-4.5c8.2,0,14.4,1.3,18.8,3.7
			c4.4,2.5,6.6,6,6.6,10.5c0,2.8-1,5.2-3,7.1c-2,1.9-4.8,3.1-8.2,3.8c8.2,1.3,12.2,5.1,12.2,11.4c0,4.7-2.5,8.5-7.4,11.2
			C586.2,1768.2,579.4,1769.6,570.7,1769.6z"/>
		<path class="st3" d="M605.8,1769v-50.6h12.1v34.5l33.3-34.5h10.9v50.6h-12.1v-34.5l-33.4,34.5H605.8z"/>
		<path class="st3" d="M671.9,1769v-50.6H684v34.5l33.3-34.5h10.9v50.6h-12.1v-34.5l-33.4,34.5H671.9z M699.8,1713.3
			c-11.8,0-17.8-4.7-18-14.2h9.4c0,4.7,2.9,7,8.8,7c5.9,0,8.9-2.3,8.9-7h9.6c-0.1,4.5-1.7,8-4.8,10.5
			C710.5,1712,705.9,1713.3,699.8,1713.3z"/>
		<path class="st3" d="M738,1769v-50.6h12.5v19.6h11l17.3-19.6h14.8l-20.9,24.1l22.7,26.5h-15.9l-17.5-20.2h-11.4v20.2H738z"/>
		<path class="st3" d="M796.1,1769v-10.8h2.1c3.3,0,5.6-1.1,6.9-3.4c1.3-2.3,2-6.3,2-12.1v-24.4h48v50.6h-12.5v-39.9h-23.9v13.9
			c0,9.3-1.5,15.9-4.4,19.9c-2.9,4-7.7,6-14.4,6H796.1z"/>
		<path class="st3" d="M864.6,1769v-50.6h14.8l21.5,36.8l20.9-36.8h14.5v50.6h-11.7v-32.8l-19.2,32.8h-9.7l-19.3-32.8v32.8H864.6z"
			/>
		<path class="st3" d="M989,1769v-20.2h-30.5v20.2H946v-50.6h12.5v19.6H989v-19.6h12.5v50.6H989z"/>
		<path class="st3" d="M1039.8,1769.6c-9.2,0-16.7-2.4-22.3-7.2c-5.7-4.8-8.5-11-8.5-18.7c0-7.8,2.8-14,8.5-18.8
			c5.7-4.8,13.1-7.2,22.3-7.2c9.2,0,16.6,2.4,22.3,7.2c5.7,4.8,8.5,11,8.5,18.8c0,7.7-2.8,13.9-8.5,18.7
			C1056.4,1767.2,1049,1769.6,1039.8,1769.6z M1039.8,1759.2c5.5,0,9.9-1.4,13.1-4.2c3.2-2.8,4.8-6.6,4.8-11.3
			c0-4.8-1.6-8.6-4.8-11.4c-3.2-2.8-7.6-4.2-13.1-4.2c-5.6,0-10,1.4-13.2,4.2c-3.2,2.8-4.8,6.6-4.8,11.4c0,4.7,1.6,8.5,4.8,11.3
			C1029.8,1757.8,1034.2,1759.2,1039.8,1759.2z"/>
		<path class="st3" d="M35.9,1852.4v-50.6h54.4v50.6H77.7v-39.9H48.5v39.9H35.9z"/>
		<path class="st3" d="M99.9,1872.2v-70.3h11.4l1.1,6.7c4.5-4.9,11.1-7.3,19.8-7.3c8.5,0,15.4,2.4,20.6,7.3
			c5.3,4.8,7.9,11.1,7.9,18.7c0,7.7-2.6,13.9-7.9,18.7c-5.3,4.8-12.1,7.2-20.6,7.2c-8.6,0-15.2-2.5-19.8-7.5v26.6H99.9z M130,1842.7
			c5.6,0,10-1.4,13.2-4.1c3.2-2.8,4.8-6.5,4.8-11.3c0-4.8-1.6-8.6-4.8-11.4c-3.2-2.8-7.6-4.2-13.2-4.2c-5.5,0-9.8,1.4-13,4.2
			c-3.2,2.8-4.8,6.6-4.8,11.4c0,4.8,1.6,8.6,4.8,11.3C120.2,1841.3,124.6,1842.7,130,1842.7z"/>
		<path class="st3" d="M196,1853c-9,0-16.3-2.4-21.8-7.1c-5.5-4.7-8.3-11-8.3-18.7c0-7.8,2.8-14.1,8.3-18.8c5.6-4.7,12.9-7.1,22-7.1
			c7.6,0,13.9,1.7,18.7,5c4.9,3.4,7.9,8.1,9,14.1h-13c-0.7-2.8-2.4-5-5-6.5c-2.6-1.5-5.9-2.3-9.9-2.3c-5.3,0-9.6,1.4-12.7,4.2
			c-3.1,2.8-4.7,6.6-4.7,11.4c0,4.8,1.5,8.6,4.6,11.3c3.1,2.8,7.3,4.1,12.7,4.1c8.4,0,13.3-3,14.9-9h13c-1.1,6.1-4.1,10.8-9.1,14.2
			C210,1851.3,203.7,1853,196,1853z"/>
		<path class="st3" d="M246.3,1852.4v-39.9h-20.7v-10.8h54v10.8h-20.7v39.9H246.3z"/>
		<path class="st3" d="M285.8,1872.2v-10.8h8.6c2.3,0,4-0.3,5.1-1c1.1-0.7,2.3-2.2,3.5-4.5l1.9-3.6l-23.2-50.5h13.5l16.7,38.1
			l17-38.1h13.4l-26.9,57.7c-2.4,5.1-4.8,8.5-7.2,10.2c-2.3,1.6-5.9,2.5-10.8,2.5H285.8z"/>
		<path class="st3" d="M376,1872.2v-19.7H375c-10.1,0-18.1-2.3-24.1-6.9c-6-4.6-9-10.7-9-18.3c0-7.7,3-13.8,9-18.4
			c6-4.6,14.1-6.9,24.1-6.9h1.1V1785h12.3v16.9h1.1c10,0,18,2.3,24,6.9c6,4.6,9,10.8,9,18.4c0,7.6-3,13.7-9,18.3
			c-6,4.6-14,6.9-24,6.9h-1.1v19.7H376z M375,1842.3h1.2V1812H375c-6.3,0-11.3,1.4-15,4.1c-3.7,2.7-5.5,6.4-5.5,11.1
			c0,4.7,1.8,8.4,5.5,11C363.7,1840.9,368.7,1842.3,375,1842.3z M388.3,1842.3h1.2c6.2,0,11.2-1.4,14.9-4.1c3.7-2.7,5.5-6.4,5.5-11
			c0-4.7-1.8-8.4-5.5-11.1c-3.7-2.7-8.6-4.1-14.9-4.1h-1.2V1842.3z"/>
		<path class="st3" d="M421.4,1852.4l22.5-25.9l-21.2-24.7H438l14.1,16.6l14.2-16.6h14.5l-21.1,24.5l22.4,26.1h-15.2l-15.5-18.1
			l-15.5,18.1H421.4z"/>
		<path class="st3" d="M509.2,1836.9c-8.5,0-14.8-1.6-18.8-4.8c-4-3.2-6-8.3-6-15.1v-15.2h12.5v14.4c0,3.4,1.1,6,3.4,7.6
			c2.2,1.6,5.9,2.5,10.9,2.5c4.5,0,8.9-0.9,13.2-2.7v-21.8h12.5v50.6h-12.5v-18C519.6,1836.1,514.5,1836.9,509.2,1836.9z"/>
		<path class="st3" d="M546.4,1852.4v-50.6h12.5v39.9h21.6v-39.9h12.5v39.9h21.6v-39.9h12.5v50.6H546.4z"/>
		<path class="st3" d="M636.9,1852.4v-50.6h12.5v39.9H671v-39.9h12.5v39.9h21.6v-39.9h12.5v39.9h7.7v24.1h-12.1v-13.3H636.9z"/>
		<path class="st3" d="M740.5,1852.4v-39.9H723v-10.8h30.1v15.2h17.4c7,0,12.4,1.5,16.2,4.6c3.8,3.1,5.7,7.5,5.7,13.1
			c0,5.7-1.9,10-5.8,13.1c-3.8,3.1-9.2,4.6-16.1,4.6H740.5z M753.1,1842.9h15.5c7.4,0,11-2.7,11-8.1c0-5.5-3.7-8.2-11-8.2h-15.5
			V1842.9z"/>
		<path class="st3" d="M799.2,1852.4v-50.6h12.5v15.2H828c7,0,12.5,1.5,16.3,4.6c3.8,3.1,5.7,7.5,5.7,13.1c0,5.7-1.9,10-5.8,13.1
			c-3.8,3.1-9.3,4.6-16.2,4.6H799.2z M811.8,1842.9h14.4c7.4,0,11.1-2.7,11.1-8.1c0-5.5-3.7-8.2-11.1-8.2h-14.4V1842.9z
			 M857.4,1852.4v-50.6H870v50.6H857.4z"/>
		<path class="st3" d="M879.5,1852.4v-50.6h12.5v15.2h17.3c7,0,12.5,1.5,16.3,4.6c3.8,3.1,5.7,7.5,5.7,13.1c0,5.7-1.9,10-5.8,13.1
			c-3.8,3.1-9.3,4.6-16.2,4.6H879.5z M892.1,1842.9h15.4c7.4,0,11.1-2.7,11.1-8.1c0-5.5-3.7-8.2-11.1-8.2h-15.4V1842.9z"/>
		<path class="st3" d="M963.8,1853c-7.8,0-14.1-1.7-19-5c-4.9-3.3-8-8-9.2-14.1h12.8c1.7,5.9,6.8,8.9,15.3,8.9c4.6,0,8.4-1,11.3-2.9
			c3-1.9,4.9-4.7,5.8-8.2h-23.2v-9.1h23.2c-0.9-3.6-2.9-6.3-5.8-8.3s-6.7-3-11.3-3c-8.5,0-13.6,2.9-15.3,8.8h-12.8
			c1.2-6,4.3-10.6,9-14c4.8-3.3,11.1-5,18.9-5c9.3,0,16.8,2.4,22.3,7.1c5.5,4.7,8.3,11,8.3,18.9s-2.7,14.2-8.2,18.8
			C980.4,1850.7,973,1853,963.8,1853z"/>
		<path class="st3" d="M1056.2,1853c-8,0-14.6-1.9-20-5.6c-5.4-3.7-8.7-8.7-10-15H1014v20h-12.5v-50.6h12.5v19.8h12.3
			c1.3-6.2,4.7-11.1,10-14.8c5.4-3.7,12-5.6,19.9-5.6c9,0,16.3,2.4,21.9,7.2c5.6,4.8,8.4,11,8.4,18.7s-2.8,13.9-8.4,18.7
			C1072.5,1850.6,1065.2,1853,1056.2,1853z M1056.2,1842.7c5.3,0,9.6-1.4,12.8-4.2c3.2-2.8,4.8-6.6,4.8-11.3c0-4.7-1.6-8.5-4.8-11.3
			c-3.2-2.8-7.5-4.2-12.8-4.2c-5.4,0-9.7,1.4-12.9,4.2c-3.2,2.8-4.8,6.6-4.8,11.4c0,4.7,1.6,8.5,4.8,11.3
			C1046.5,1841.3,1050.8,1842.7,1056.2,1842.7z"/>
		<path class="st3" d="M1131.7,1852.4v-16.1h-14.8l-11.9,16.1h-15.2l14.2-17.9c-3.9-0.9-6.9-2.7-9.1-5.4c-2.2-2.7-3.3-6-3.3-10
			c0-5.4,2-9.6,6.1-12.7c4-3.1,9.6-4.6,16.5-4.6h30v50.6H1131.7z M1114.3,1826.7h17.4v-15.2h-17.4c-3.2,0-5.6,0.7-7.4,2
			c-1.8,1.3-2.7,3.2-2.7,5.5c0,2.4,0.9,4.3,2.6,5.7C1108.6,1826,1111.1,1826.7,1114.3,1826.7z"/>
	</g>
</g>
<g>
	<g>
		<path class="st3" d="M41.1,1451.6c-2.9,0-5.3-0.6-7-1.8c-1.7-1.2-2.6-2.8-2.6-5h3.8c0.1,1.1,0.7,2,1.7,2.6c1,0.6,2.4,0.9,4.1,0.9
			c3.4,0,5.1-0.9,5.1-2.7c0-0.8-0.4-1.4-1.1-1.8c-0.7-0.3-2.2-0.7-4.3-0.9c-3.2-0.4-5.4-1-6.7-1.9c-1.3-0.9-2-2.2-2-4
			c0-1.9,0.8-3.3,2.3-4.4c1.5-1.1,3.6-1.6,6.3-1.6c2.7,0,4.9,0.5,6.5,1.7c1.6,1.1,2.4,2.6,2.5,4.6h-3.8c-0.2-1-0.7-1.8-1.6-2.3
			c-0.9-0.5-2.1-0.8-3.7-0.8c-3.1,0-4.7,0.9-4.7,2.6c0,0.8,0.4,1.4,1.1,1.8c0.7,0.3,2.2,0.6,4.3,0.9c3.1,0.3,5.3,1,6.7,1.9
			c1.3,0.9,2,2.2,2,4c0,1.9-0.8,3.4-2.4,4.5C46,1451,43.8,1451.6,41.1,1451.6z"/>
		<path class="st3" d="M60.6,1451.6c-2.7,0-4.9-0.7-6.6-2.1s-2.5-3.2-2.5-5.4c0-2.3,0.8-4.1,2.4-5.5c1.6-1.4,3.7-2.1,6.3-2.1
			c2.6,0,4.6,0.7,6.2,2c1.6,1.3,2.4,3,2.4,5.2c0,0.6,0,1,0,1.2H55.4v0.2c0,1.1,0.4,2.1,1.3,2.7c0.9,0.7,2.1,1,3.7,1
			c2.5,0,4.1-0.7,4.6-2.2h3.6c-0.3,1.5-1.2,2.7-2.7,3.7S62.7,1451.6,60.6,1451.6z M55.5,1442.4h9.6c-0.1-1-0.6-1.8-1.4-2.3
			s-2-0.8-3.4-0.8c-1.4,0-2.5,0.3-3.3,0.8C56.2,1440.6,55.7,1441.4,55.5,1442.4z"/>
		<path class="st3" d="M71,1451.4v-14.7h3.3l0.3,2c1.2-1.4,2.9-2.2,5.1-2.2c2.6,0,4.4,1,5.4,3c1.3-2,3.3-3,6.2-3
			c2.1,0,3.7,0.6,4.8,1.9c1.1,1.3,1.7,3.1,1.7,5.4v7.5h-3.6v-7.3c0-1.5-0.3-2.6-1-3.4s-1.6-1.2-2.8-1.2c-1.3,0-2.4,0.4-3.1,1.2
			c-0.8,0.8-1.1,1.9-1.1,3.3v7.4h-3.6v-7.3c0-1.5-0.3-2.6-1-3.4c-0.6-0.8-1.6-1.2-2.8-1.2c-1.3,0-2.4,0.4-3.1,1.2
			c-0.8,0.8-1.1,1.9-1.1,3.3v7.4H71z"/>
		<path class="st3" d="M103.9,1434.2c-0.4,0.4-0.9,0.6-1.5,0.6s-1.1-0.2-1.5-0.6c-0.4-0.4-0.6-0.9-0.6-1.4s0.2-1.1,0.6-1.4
			c0.4-0.4,0.9-0.6,1.5-0.6s1.1,0.2,1.5,0.6s0.6,0.9,0.6,1.4S104.3,1433.8,103.9,1434.2z M100.6,1451.4v-14.7h3.6v14.7H100.6z"/>
		<path class="st3" d="M107.1,1451.4v-20.1h9.6c2.4,0,4.3,0.5,5.6,1.4c1.3,0.9,2,2.2,2,3.9c0,2.3-1.2,3.8-3.6,4.4
			c3,0.5,4.5,2,4.5,4.7c0,1.9-0.7,3.3-2.2,4.3c-1.4,1-3.5,1.5-6.3,1.5H107.1z M111,1439.7h6c1.1,0,1.9-0.2,2.5-0.7
			c0.6-0.5,0.9-1.1,0.9-2s-0.3-1.5-0.9-2c-0.6-0.5-1.4-0.7-2.5-0.7h-6V1439.7z M111,1448.3h6.1c2.7,0,4.1-0.9,4.1-2.8
			s-1.4-2.8-4.1-2.8H111V1448.3z"/>
		<path class="st3" d="M135.7,1451.6c-2.7,0-4.8-0.7-6.5-2.1c-1.7-1.4-2.5-3.2-2.5-5.4c0-2.3,0.8-4.1,2.5-5.5
			c1.7-1.4,3.8-2.1,6.5-2.1s4.8,0.7,6.5,2.1c1.6,1.4,2.5,3.2,2.5,5.5c0,2.2-0.8,4.1-2.5,5.4C140.5,1450.9,138.3,1451.6,135.7,1451.6
			z M135.7,1448.6c1.6,0,2.9-0.4,3.8-1.2s1.4-1.9,1.4-3.3c0-1.4-0.5-2.5-1.4-3.3s-2.2-1.2-3.8-1.2c-1.6,0-2.9,0.4-3.8,1.2
			c-0.9,0.8-1.4,1.9-1.4,3.3c0,1.4,0.5,2.5,1.4,3.3C132.8,1448.2,134.1,1448.6,135.7,1448.6z"/>
		<path class="st3" d="M146.8,1451.4v-20.1h3.6v20.1H146.8z"/>
		<path class="st3" d="M160.9,1451.6c-2.4,0-4.4-0.7-6-2.1c-1.5-1.4-2.3-3.2-2.3-5.4c0-2.2,0.8-4,2.3-5.4c1.5-1.4,3.5-2.1,6-2.1
			c2.5,0,4.4,0.7,5.8,2.2v-7.4h3.6v20.1h-3.4l-0.3-2C165.3,1450.9,163.4,1451.6,160.9,1451.6z M161.5,1448.6c1.6,0,2.9-0.4,3.8-1.2
			s1.4-1.9,1.4-3.3c0-1.4-0.5-2.5-1.4-3.3s-2.2-1.2-3.8-1.2c-1.6,0-2.9,0.4-3.8,1.2s-1.4,1.9-1.4,3.3c0,1.4,0.5,2.5,1.4,3.3
			S159.9,1448.6,161.5,1448.6z"/>
		<path class="st3" d="M188.9,1451.6c-2.7,0-4.8-0.6-6.3-1.7c-1.5-1.1-2.3-2.6-2.4-4.4h3.7c0.4,2,2.1,3,5,3c1.5,0,2.7-0.3,3.6-1
			c0.9-0.7,1.4-1.6,1.4-2.9c0-1.2-0.4-2.2-1.2-2.8c-0.8-0.7-2.1-1-3.7-1c-2.4,0-4,0.8-4.9,2.3l-3.6-0.3l0.8-11.4h15v3.2h-11.7
			l-0.4,4.8c1.2-1,3-1.5,5.3-1.5c2.5,0,4.5,0.6,6,1.9c1.5,1.2,2.2,2.9,2.2,5c0,2.2-0.8,3.9-2.5,5.2S191.5,1451.6,188.9,1451.6z"/>
		<path class="st3" d="M208.7,1451.6c-3,0-5.3-0.9-7-2.6s-2.5-4.1-2.5-7.2v-0.9c0-3.1,0.8-5.5,2.5-7.2s4-2.6,6.9-2.6
			c3,0,5.3,0.9,7,2.6c1.7,1.7,2.5,4.1,2.5,7.2v0.9c0,3.1-0.8,5.5-2.5,7.2C214,1450.7,211.7,1451.6,208.7,1451.6z M208.7,1448.4
			c3.8,0,5.7-2.2,5.7-6.7v-0.7c0-4.5-1.9-6.7-5.7-6.7c-3.8,0-5.7,2.2-5.7,6.7v0.7C203,1446.2,204.9,1448.4,208.7,1448.4z"/>
		<path class="st3" d="M229.5,1451.6c-3,0-5.3-0.9-7-2.6s-2.5-4.1-2.5-7.2v-0.9c0-3.1,0.8-5.5,2.5-7.2s4-2.6,6.9-2.6
			c3,0,5.3,0.9,7,2.6c1.7,1.7,2.5,4.1,2.5,7.2v0.9c0,3.1-0.8,5.5-2.5,7.2C234.8,1450.7,232.5,1451.6,229.5,1451.6z M229.5,1448.4
			c3.8,0,5.7-2.2,5.7-6.7v-0.7c0-4.5-1.9-6.7-5.7-6.7c-3.8,0-5.7,2.2-5.7,6.7v0.7C223.8,1446.2,225.7,1448.4,229.5,1448.4z"/>
	</g>
</g>
<g>
	<g>
		<path class="st3" d="M31.4,1581l31-69.1h15.9l30.9,69.1H94.4l-7-15.9H52.5l-6.9,15.9H31.4z M57.1,1554.1h25.6l-12.9-29.5
			L57.1,1554.1z"/>
		<path class="st3" d="M114.7,1581v-69.1h53v11.2h-39.7v15.9h21.8c8.3,0,14.6,1.8,18.9,5.4c4.3,3.6,6.5,8.8,6.5,15.6
			c0,6.7-2.2,11.9-6.6,15.5c-4.4,3.6-10.6,5.4-18.8,5.4H114.7z M128.1,1569.8h20.8c8.6,0,12.9-3.3,12.9-9.8c0-3.2-1.1-5.7-3.3-7.3
			c-2.2-1.7-5.4-2.5-9.6-2.5h-20.8V1569.8z"/>
		<path class="st3" d="M182.4,1581v-69.1h32.8c8.4,0,14.8,1.6,19.2,4.7c4.5,3.2,6.7,7.7,6.7,13.5c0,7.9-4.1,12.9-12.4,15.1
			c10.4,1.6,15.6,6.9,15.6,16c0,6.4-2.5,11.3-7.4,14.7c-4.9,3.4-12.1,5-21.6,5H182.4z M195.7,1540.7h20.5c3.7,0,6.6-0.8,8.6-2.4
			c2-1.6,3-3.8,3-6.7c0-2.9-1-5.1-3-6.7c-2-1.6-4.9-2.4-8.6-2.4h-20.5V1540.7z M195.7,1570.2h21c9.4,0,14.1-3.2,14.1-9.5
			c0-6.3-4.7-9.5-14.1-9.5h-21V1570.2z"/>
		<path class="st3" d="M252.4,1581v-69.1H305v11.6h-39.3v57.4H252.4z"/>
		<path class="st3" d="M301.1,1595.1v-25.7h6.4c2.4-1.8,4.1-4.8,5.2-8.9c1.1-4.1,1.7-10.6,1.7-19.5v-29h59.8v57.4h7.9v25.7h-12.9
			V1581H314v14.1H301.1z M360.9,1569.4v-46.3h-33.9v19.5c0,12.8-1.6,21.7-4.9,26.7H360.9z"/>
		<path class="st3" d="M388.8,1581v-69.1h53.9v11.6h-40.5v17h33.4v11.1h-33.4v17.7h42v11.6H388.8z"/>
		<path class="st3" d="M451.5,1581v-69.1h53.9v11.6h-40.5v17h33.4v11.1h-33.4v17.7h42v11.6H451.5z M472.1,1503.5
			c-1.3,1.3-3,1.9-5,1.9c-2,0-3.7-0.6-5.1-1.9c-1.3-1.3-2-2.9-2-4.8c0-2,0.7-3.6,2-4.9c1.3-1.3,3-1.9,5.1-1.9c2,0,3.7,0.6,5,1.9
			c1.3,1.3,2,2.9,2,4.9C474.1,1500.6,473.4,1502.2,472.1,1503.5z M494.9,1503.5c-1.3,1.3-3,1.9-5.1,1.9c-2,0-3.7-0.6-5-1.9
			c-1.3-1.3-2-2.9-2-4.8c0-2,0.7-3.6,2-4.9c1.3-1.3,3-1.9,5-1.9c2,0,3.7,0.6,5.1,1.9c1.3,1.3,2,2.9,2,4.9
			C496.9,1500.6,496.2,1502.2,494.9,1503.5z"/>
		<path class="st3" d="M509.2,1581l24.3-35.9l-22.6-33.1h15.3l18.7,28.3h13.3v-28.3h13.3v28.3h13.3l18.7-28.3h15.2l-22.6,33.1
			l24.4,35.9h-15.8l-19.8-29.2h-13.4v29.2h-13.3v-29.2h-13.5L525,1581H509.2z"/>
		<path class="st3" d="M651.9,1581.6c-10.1,0-17.8-1.9-23.2-5.7c-5.4-3.8-8.3-9.4-8.6-16.7h13.2c0.6,7.7,7,11.5,19.1,11.5
			c11.8,0,17.8-3.3,17.8-10c0-6.2-5.4-9.4-16.2-9.4h-11.8v-10.8H653c4.8,0,8.6-0.8,11.3-2.5c2.7-1.7,4.1-4.1,4.1-7.3
			c0-5.8-5.4-8.7-16.3-8.7c-11.4,0-17.5,3.6-18.3,10.9h-13.1c0.3-6.6,3.4-11.9,9.2-15.8c5.8-3.9,13.3-5.9,22.5-5.9
			c9.3,0,16.6,1.6,21.8,4.9c5.2,3.3,7.7,7.8,7.7,13.8c0,3.8-1.1,7-3.4,9.7c-2.3,2.6-5.5,4.4-9.6,5.4c4.7,0.8,8.3,2.6,10.9,5.4
			c2.6,2.8,3.9,6.4,3.9,10.7c0,6.3-2.9,11.3-8.6,14.9C669.4,1579.8,661.7,1581.6,651.9,1581.6z"/>
		<path class="st3" d="M692.3,1581v-69.1h13v49.1l41.1-49.1h12.1v69.1h-13v-49.1l-41.1,49.1H692.3z"/>
		<path class="st3" d="M769.2,1581v-69.1h13v49.1l41.1-49.1h12.1v69.1h-13v-49.1l-41.1,49.1H769.2z M802.1,1506.8
			c-11.8,0-17.8-4.7-18-14.2h9.4c0,4.7,2.9,7,8.8,7c5.9,0,8.9-2.3,8.9-7h9.6c-0.1,4.5-1.7,8-4.8,10.5
			C812.8,1505.6,808.2,1506.8,802.1,1506.8z"/>
		<path class="st3" d="M846.2,1581v-69.1h13.3v28.2h14.1l24.1-28.2h16.2l-28.7,33.1l30.6,35.9h-17.3l-24.6-29.2h-14.4v29.2H846.2z"
			/>
		<path class="st3" d="M917.2,1581v-11.6h2.1c4.5,0,7.8-1.6,9.7-4.9c1.9-3.3,2.9-9.4,2.9-18.5v-34h59.4v69.1H978v-57.4h-33.5v23.6
			c0,12.4-1.9,21.1-5.6,26.2c-3.7,5.1-9.7,7.6-18,7.6H917.2z"/>
		<path class="st3" d="M1001.9,1581v-69.1h16.9l26.9,53l26.5-53h16.8v69.1h-13.1v-48.7l-25,48.7h-11l-24.9-48.7v48.7H1001.9z"/>
		<path class="st3" d="M1099.5,1581v-69.1h13.3v28.3h38.8v-28.3h13.3v69.1h-13.3v-29.2h-38.8v29.2H1099.5z"/>
		<path class="st3" d="M1213,1581.6c-11.8,0-21.5-3.3-28.9-9.8s-11.1-15-11.1-25.4c0-10.4,3.7-18.8,11.1-25.4s17.1-9.8,28.9-9.8
			c11.9,0,21.6,3.3,29,9.8c7.4,6.5,11.1,15,11.1,25.4c0,10.4-3.7,18.8-11.1,25.4C1234.5,1578.3,1224.9,1581.6,1213,1581.6z
			 M1213,1570.1c8.1,0,14.5-2.1,19.3-6.4c4.8-4.3,7.2-10,7.2-17.3c0-7.2-2.4-13-7.2-17.3c-4.8-4.3-11.2-6.4-19.3-6.4
			c-8,0-14.4,2.2-19.2,6.5c-4.8,4.3-7.2,10-7.2,17.2c0,7.2,2.4,12.9,7.2,17.2C1198.5,1568,1204.9,1570.1,1213,1570.1z"/>
		<path class="st3" d="M36.4,1666.4v-69.1h64.9v69.1H88V1609H49.7v57.4H36.4z"/>
		<path class="st3" d="M111.9,1666.4v-69.1h34.7c8.1,0,14.5,2,19.2,6.1c4.7,4,7.1,9.5,7.1,16.4c0,7-2.4,12.5-7.1,16.5
			c-4.7,4-11.1,6.1-19.2,6.1h-21.4v24H111.9z M125.2,1631.2h21c4.1,0,7.3-1,9.6-3.1c2.3-2,3.5-4.8,3.5-8.3c0-3.4-1.2-6.1-3.5-8.1
			c-2.3-2-5.5-3-9.6-3h-21V1631.2z"/>
		<path class="st3" d="M215.9,1667c-11.7,0-21.1-3.2-28.1-9.6c-7-6.4-10.5-14.9-10.5-25.5c0-10.5,3.6-19,10.9-25.5
			c7.2-6.4,16.8-9.7,28.6-9.7c9.5,0,17.4,2.2,23.8,6.7c6.4,4.4,10.2,10.5,11.4,18.1h-13.6c-1.3-4.3-3.9-7.6-7.6-9.9
			c-3.8-2.3-8.5-3.5-14.3-3.5c-7.8,0-14,2.1-18.6,6.4c-4.6,4.3-6.9,10-6.9,17.3c0,7.3,2.3,13.1,6.8,17.3c4.5,4.2,10.7,6.4,18.4,6.4
			c5.9,0,10.7-1.2,14.5-3.5c3.8-2.3,6.4-5.6,7.7-9.9H252c-1.3,7.6-5.1,13.7-11.6,18.1C233.8,1664.8,225.7,1667,215.9,1667z"/>
		<path class="st3" d="M279.2,1666.4V1609h-25.6v-11.6h64.6v11.6h-25.6v57.4H279.2z"/>
		<path class="st3" d="M330.7,1666.4v-11.6h7c3.7,0,6.5-0.4,8.2-1.1c1.7-0.8,3.2-2.3,4.5-4.5l2.1-3.6l-31.9-48.2H336l23.3,36.2
			l19.7-36.2h14.4l-31.1,55.3c-2.9,5.1-6,8.7-9.3,10.7c-3.3,2-7.7,3-13.2,3H330.7z"/>
		<path class="st3" d="M433.2,1667.4v-6.1h-1.6c-12.2,0-21.9-2.6-29.1-7.9c-7.1-5.3-10.7-12.4-10.7-21.5c0-9.1,3.6-16.2,10.7-21.5
			c7.1-5.3,16.8-7.9,29.1-7.9h1.6v-6.1H446v6.1h1.6c12.2,0,21.9,2.6,29.1,7.9c7.1,5.3,10.7,12.4,10.7,21.5c0,9.1-3.6,16.2-10.7,21.5
			c-7.1,5.3-16.8,7.9-29.1,7.9H446v6.1H433.2z M431.6,1650.6h1.6v-37.3h-1.6c-8.3,0-14.8,1.6-19.5,4.9c-4.7,3.3-7.1,7.9-7.1,13.7
			c0,5.9,2.4,10.4,7.1,13.7C416.8,1648.9,423.3,1650.6,431.6,1650.6z M446,1650.6h1.6c8.3,0,14.8-1.6,19.5-4.9
			c4.7-3.3,7.1-7.9,7.1-13.7c0-5.9-2.4-10.4-7.1-13.7c-4.7-3.3-11.2-4.9-19.5-4.9H446V1650.6z"/>
		<path class="st3" d="M484.6,1666.4l27.6-35.4l-26.1-33.6h16.6l18.2,23.7l18.3-23.7h15.9l-26.1,33.4l27.6,35.6H540l-19.8-25.5
			l-19.7,25.5H484.6z"/>
		<path class="st3" d="M588,1642.6c-9.8,0-17.2-2.1-22.3-6.3c-5.1-4.2-7.6-10.3-7.6-18.4v-20.5h13.3v18.7c0,10.1,6.1,15.2,18.3,15.2
			c5.9,0,11.9-0.9,18.1-2.8v-31.2h13.3v69.1h-13.3v-26.5C601.6,1641.7,595,1642.6,588,1642.6z"/>
		<path class="st3" d="M631.8,1666.4v-69.1h13.3v57.4h29.4v-57.4h13.3v57.4h29.5v-57.4h13.3v69.1H631.8z"/>
		<path class="st3" d="M741.2,1666.4v-69.1h13.3v57.4h29.4v-57.4h13.3v57.4h29.5v-57.4h13.3v57.4h7.8v25.7h-12.9v-14.1H741.2z"/>
		<path class="st3" d="M868.9,1666.4V1609H846v-11.6h36.2v24.1h22c8,0,14.4,2,19.1,6c4.7,4,7.1,9.5,7.1,16.5c0,7-2.4,12.5-7.1,16.5
			c-4.7,4-11.1,6-19.1,6H868.9z M882.2,1655.1h21.4c4.2,0,7.4-1,9.7-2.9c2.3-1.9,3.4-4.7,3.4-8.3c0-3.6-1.1-6.4-3.4-8.3
			c-2.3-1.9-5.5-2.9-9.8-2.9h-21.3V1655.1z"/>
		<path class="st3" d="M938,1666.4v-69.1h13.3v23.9h21c8,0,14.4,2,19.1,6.1c4.7,4,7.1,9.6,7.1,16.5c0,7-2.4,12.5-7.1,16.5
			c-4.7,4-11.1,6.1-19.1,6.1H938z M951.3,1655.1h20.3c4.3,0,7.5-1,9.8-2.9c2.3-1.9,3.4-4.7,3.4-8.4c0-3.6-1.2-6.4-3.5-8.3
			c-2.3-1.9-5.6-2.9-9.9-2.9h-20.2V1655.1z M1006.4,1666.4v-69.1h13.3v69.1H1006.4z"/>
		<path class="st3" d="M1030.4,1666.4v-69.1h13.3v23.9h21.9c8,0,14.4,2,19.1,6.1c4.7,4,7.1,9.6,7.1,16.5c0,7-2.4,12.5-7.1,16.5
			c-4.7,4-11.1,6.1-19.1,6.1H1030.4z M1043.7,1655.1h21.2c4.3,0,7.5-1,9.8-2.9c2.3-1.9,3.4-4.7,3.4-8.4c0-3.6-1.2-6.4-3.5-8.3
			c-2.3-1.9-5.6-2.9-9.9-2.9h-21.1V1655.1z"/>
		<path class="st3" d="M1124,1637.1v-10.9h33.1c-1.1-5.7-3.9-10.1-8.3-13.3c-4.4-3.2-10-4.8-16.9-4.8c-5.7,0-10.5,1.2-14.3,3.5
			c-3.8,2.3-6.4,5.5-7.7,9.6h-13.5c1.2-7.4,5.1-13.3,11.5-17.7c6.4-4.4,14.4-6.6,23.8-6.6c11.9,0,21.5,3.2,28.7,9.7
			c7.2,6.4,10.8,14.9,10.8,25.5c0,10.6-3.6,19.1-10.8,25.5c-7.2,6.4-16.6,9.6-28.4,9.6c-9.7,0-17.7-2.2-24.1-6.6
			c-6.4-4.4-10.2-10.3-11.5-17.7h13.5c1.4,4.1,4,7.3,7.8,9.6c3.8,2.3,8.6,3.4,14.5,3.4c6.8,0,12.4-1.7,16.8-5
			c4.4-3.3,7.1-7.9,8.1-13.7H1124z"/>
		<path class="st3" d="M1245.4,1667c-10.5,0-19.4-2.7-26.5-8.2c-7.1-5.5-11.4-12.7-12.7-21.6h-13.8v29.2h-13.3v-69.1h13.3v28.3h14
			c1.5-8.7,5.8-15.8,12.8-21c7-5.3,15.8-7.9,26.1-7.9c11.6,0,21.2,3.3,28.6,9.8s11.1,15,11.1,25.4c0,10.4-3.7,18.8-11.1,25.4
			S1257,1667,1245.4,1667z M1245.4,1655.6c7.9,0,14.2-2.2,18.9-6.5c4.7-4.3,7.1-10,7.1-17.2c0-7.2-2.4-12.9-7.1-17.2
			c-4.7-4.3-11-6.5-18.9-6.5c-7.8,0-14.1,2.2-18.8,6.5c-4.7,4.3-7.1,10-7.1,17.2c0,7.2,2.4,12.9,7.1,17.2
			C1231.3,1653.4,1237.6,1655.6,1245.4,1655.6z"/>
		<path class="st3" d="M1288.8,1666.4l18.8-25.8c-11.6-3-17.4-9.9-17.4-20.7c0-6.9,2.4-12.4,7.1-16.4c4.7-4,11.1-6.1,19.2-6.1h35.9
			v69.1h-13.3v-24.2h-16.9l-17.4,24.2H1288.8z M1317,1631h22.2v-22.3h-22.3c-4,0-7.2,1-9.5,3c-2.3,2-3.5,4.7-3.5,8.1
			c0,3.5,1.2,6.2,3.6,8.2C1309.8,1630,1313,1631,1317,1631z"/>
	</g>
</g>
<g>
	<path class="st3" d="M66.9,1969.4c-10.3,0-18.2-2.9-23.9-8.8c-5.7-5.9-8.5-14.1-8.5-24.7v-3.2c0-10.5,2.9-18.7,8.6-24.7
		c5.7-5.9,13.7-8.9,23.9-8.9c10.2,0,18.2,3,23.9,8.9c5.8,5.9,8.6,14.1,8.6,24.7v3.2c0,10.6-2.8,18.8-8.5,24.7
		C85.2,1966.4,77.2,1969.4,66.9,1969.4z M66.9,1958.4c13.2,0,19.7-7.7,19.7-23v-2.4c0-15.3-6.6-23-19.7-23c-13.1,0-19.6,7.7-19.6,23
		v2.4C47.2,1950.8,53.8,1958.4,66.9,1958.4z"/>
	<path class="st3" d="M121.6,1968.8v-45.9c-1.2,0.5-2.9,0.7-5,0.7h-13.8v-10.8h13c4,0,6-2.1,6-6.3v-6.8h12.5v69.1H121.6z"/>
	<path class="st3" d="M141.8,1968.8v-10.1l32.2-21.2c4.5-3,7.8-5.7,9.8-8.3c2-2.6,3-5.3,3-8c0-3.6-1.3-6.3-4-8.2
		c-2.7-1.9-6.6-2.9-11.6-2.9c-4.9,0-8.9,1.2-11.8,3.5c-3,2.3-4.4,5.4-4.4,9.4v1.1H142v-1.9c0-6.8,2.7-12.3,8.1-16.5
		c5.4-4.2,12.4-6.4,21.1-6.4c8.9,0,15.9,1.9,21,5.7c5.1,3.8,7.6,9,7.6,15.7c0,5.2-1.4,9.7-4.2,13.5c-2.8,3.8-7.8,7.9-14.9,12.5
		l-17.7,11.3h37.4v10.9H141.8z"/>
	<path class="st3" d="M234.6,1969.4c-9.7,0-17.2-1.9-22.5-5.8c-5.3-3.8-7.9-9.3-7.9-16.4h12.6c0.1,3.9,1.8,6.8,4.9,8.9
		c3.1,2,7.6,3.1,13.5,3.1c5.5,0,9.7-0.9,12.7-2.8c3-1.8,4.5-4.4,4.5-7.8c0-6.4-5.4-9.6-16.2-9.6H227v-10.6h8.3
		c4.8,0,8.5-0.9,11.1-2.6c2.6-1.7,3.9-4.1,3.9-7.3c0-6.1-5.2-9.2-15.6-9.2c-10.4,0-15.9,3.7-16.7,11h-12.6c0.2-6.5,3-11.7,8.3-15.5
		c5.3-3.8,12.4-5.8,21.2-5.8c9,0,16,1.6,21,4.9c5,3.3,7.4,7.8,7.4,13.7c0,3.9-1.1,7.2-3.3,9.9c-2.2,2.6-5.3,4.4-9.3,5.3
		c4.6,0.8,8.2,2.6,10.7,5.4c2.5,2.8,3.8,6.4,3.8,10.7c0,6.3-2.8,11.3-8.3,14.9C251.5,1967.6,244,1969.4,234.6,1969.4z"/>
	<path class="st3" d="M311.8,1968.8v-15.3h-42.1v-11.4l39.7-42.3h15.1v42.9h12.5v10.9h-12.5v15.3H311.8z M283.6,1942.7h28.2v-30.2
		L283.6,1942.7z"/>
	<path class="st3" d="M370.9,1969.4c-9.4,0-16.7-1.9-21.8-5.7c-5.1-3.8-7.8-8.8-8.2-15.1h12.7c1.3,6.8,7.1,10.3,17.3,10.3
		c5.2,0,9.4-1.2,12.5-3.5c3.2-2.3,4.7-5.6,4.7-9.8c0-4.1-1.4-7.4-4.3-9.8c-2.9-2.4-7.1-3.6-12.7-3.6c-8.2,0-13.7,2.6-16.8,7.8
		l-12.4-1l2.7-39.3h51.5v10.9h-40l-1.3,16.5c4.1-3.5,10.2-5.2,18.3-5.2c8.7,0,15.5,2.1,20.5,6.4c5,4.3,7.5,10,7.5,17.1
		c0,7.6-2.8,13.5-8.4,17.7C387.1,1967.3,379.8,1969.4,370.9,1969.4z"/>
	<path class="st3" d="M438.4,1969.4c-11,0-19.2-3.4-24.8-10.1c-4.9-5.9-7.3-14-7.3-24.4c0-11.7,2.8-20.6,8.3-26.7
		c5.6-6.1,13.7-9.1,24.3-9.1c7.8,0,14.2,1.7,19.1,5c4.9,3.3,7.9,8,8.9,14.1h-12.6c-1-3-2.8-5.2-5.3-6.6s-6.1-2-10.7-2
		c-13,0-19.5,7.1-19.5,21.2c0,0.7,0,1.2,0.1,1.5c3.7-6.3,11-9.5,22-9.5c8.5,0,15.3,2,20.1,6.1c4.9,4,7.3,9.7,7.3,16.8
		c0,7.2-2.7,13-8.1,17.3C454.9,1967.3,447.6,1969.4,438.4,1969.4z M438.4,1959.2c5.4,0,9.6-1.1,12.5-3.5c3-2.3,4.4-5.5,4.4-9.7
		c0-4.2-1.5-7.4-4.4-9.7c-2.9-2.3-7.1-3.4-12.4-3.4c-5.3,0-9.5,1.2-12.5,3.5c-3,2.3-4.5,5.5-4.5,9.7c0,4.1,1.5,7.3,4.5,9.6
		C429.2,1958.1,433.3,1959.2,438.4,1959.2z"/>
	<path class="st3" d="M477.7,1968.8l37.1-58.1h-43.7v-10.9h59.3v8.4l-38.2,60.7H477.7z"/>
	<path class="st3" d="M585.7,1964.2c-5.5,3.5-13.1,5.2-22.7,5.2c-9.7,0-17.2-1.7-22.7-5.2c-5.5-3.5-8.2-8.3-8.2-14.4
		c0-4.5,1.4-8.2,4.2-11.2c2.8-3,6.7-4.9,11.8-5.9c-4.3-0.9-7.7-2.7-10.1-5.3c-2.4-2.6-3.6-5.9-3.6-9.9c0-5.7,2.6-10.1,7.7-13.4
		c5.2-3.3,12.1-4.9,21-4.9c8.8,0,15.8,1.6,21,4.9c5.2,3.3,7.7,7.8,7.7,13.4c0,3.9-1.2,7.2-3.6,9.9c-2.4,2.6-5.8,4.4-10.1,5.3
		c5.1,0.9,9,2.9,11.8,5.9c2.8,3,4.2,6.7,4.2,11.2C593.9,1955.9,591.2,1960.7,585.7,1964.2z M549.7,1957.1c3.1,1.9,7.5,2.8,13.2,2.8
		c5.7,0,10.1-0.9,13.2-2.8c3.1-1.9,4.6-4.6,4.6-8c0-3.6-1.5-6.3-4.6-8.1c-3.1-1.9-7.5-2.8-13.2-2.8c-5.7,0-10.1,0.9-13.2,2.8
		c-3.1,1.9-4.6,4.6-4.6,8.1C545.1,1952.6,546.6,1955.2,549.7,1957.1z M551.3,1925.1c2.7,1.6,6.6,2.5,11.7,2.5c5.1,0,9-0.8,11.7-2.5
		c2.7-1.6,4.1-4,4.1-7.1c0-3-1.4-5.3-4.1-7c-2.7-1.6-6.6-2.4-11.7-2.4c-5.1,0-9,0.8-11.7,2.4c-2.7,1.6-4.1,3.9-4.1,7
		C547.2,1921.1,548.5,1923.5,551.3,1925.1z"/>
	<path class="st3" d="M629.1,1899.2c11,0,19.3,3.4,24.9,10.1c4.9,5.9,7.3,14,7.3,24.4c0,11.7-2.8,20.6-8.4,26.7
		c-5.6,6.1-13.7,9.1-24.4,9.1c-7.8,0-14.2-1.7-19.1-5c-4.9-3.3-7.9-8-8.9-14.1h12.6c1.1,3,2.8,5.2,5.4,6.6c2.5,1.3,6.1,2,10.6,2
		c13,0,19.5-7.1,19.5-21.2v-1.5c-3.7,6.3-11.1,9.5-22,9.5c-8.6,0-15.4-2-20.2-6.1c-4.9-4-7.3-9.6-7.3-16.8c0-7.2,2.7-13,8.1-17.3
		C612.7,1901.3,620,1899.2,629.1,1899.2z M629,1909.3c-5.3,0-9.5,1.2-12.5,3.5c-3,2.3-4.5,5.5-4.5,9.7c0,4.2,1.5,7.4,4.4,9.7
		c2.9,2.3,7.1,3.4,12.4,3.4c5.4,0,9.6-1.1,12.6-3.5c3-2.3,4.5-5.5,4.5-9.7c0-4.1-1.5-7.3-4.5-9.6
		C638.3,1910.5,634.2,1909.3,629,1909.3z"/>
</g>
<g>
	<g>
		<path class="st3" d="M2802.6,489.3h9.8c4.4,0,7.1,2.4,7.1,6.2c0,3.1-1.9,5.2-5.3,5.9l5.5,8.1h-3l-5.2-7.7h-6.4v7.7h-2.5V489.3z
			 M2812.4,499.4c2.8,0,4.6-1.5,4.6-3.9c0-2.4-1.8-3.9-4.6-3.9h-7.3v7.8H2812.4z"/>
		<path class="st3" d="M2820.6,502.1c0-4.4,3.4-7.5,8.2-7.5c5,0,8.2,2.8,8.2,7.1v0.8h-13.9v0.2c0,2.9,2.2,4.7,5.9,4.7
			c2.9,0,4.8-1,5.4-3h2.4c-0.8,3.2-3.7,5.1-7.6,5.1C2824,509.6,2820.6,506.6,2820.6,502.1z M2834.5,500.6c-0.3-2.5-2.3-3.9-5.7-3.9
			c-3.2,0-5.4,1.5-5.7,3.9H2834.5z"/>
		<path class="st3" d="M2839.4,510.3h2.4c0.5,1.9,2.5,2.9,5.7,2.9c4.1,0,6-1.6,6-5.2v-1c-1.3,1.6-3.7,2.6-6.3,2.6
			c-5.2,0-8.4-2.8-8.4-7.5c0-4.5,3.3-7.5,8.4-7.5c2.7,0,4.9,0.9,6.2,2.4l0.3-2.2h2.2v13.3c0,4.9-2.8,7.2-8.5,7.2
			C2842.7,515.3,2839.9,513.6,2839.4,510.3z M2853.6,502.1c0-3.3-2.4-5.4-6.1-5.4c-3.8,0-6.2,2.1-6.2,5.4s2.4,5.4,6.2,5.4
			C2851.2,507.5,2853.6,505.4,2853.6,502.1z"/>
		<path class="st3" d="M2858.9,502.3v-7.6h2.4v7.4c0,3.4,1.7,5.2,4.9,5.2c3.6,0,5.5-1.9,5.5-5.2v-7.4h2.4v14.6h-2.2l-0.3-2.1
			c-1.2,1.4-3.2,2.2-5.7,2.2C2861.2,509.6,2858.9,507.1,2858.9,502.3z"/>
		<path class="st3" d="M2877.2,489.3h2.4v20.1h-2.4V489.3z"/>
		<path class="st3" d="M2882,505.2c0-3,2.2-4.4,6.8-4.4h5.7V500c0-2.2-1.6-3.3-4.7-3.3c-2.9,0-4.4,0.8-4.8,2.5h-2.4
			c0.4-3,2.9-4.6,7.3-4.6c4.5,0,6.9,2,6.9,5.6v5.8c0,0.8,0.5,1.3,1.3,1.3h0.8v2.2h-1.3c-1.8,0-3-0.8-3-2.4v0
			c-1.2,1.6-3.7,2.6-6.5,2.6C2884.3,509.6,2882,507.9,2882,505.2z M2894.5,503.4v-0.7h-5.9c-3,0-4.2,0.7-4.2,2.4
			c0,1.6,1.4,2.5,4,2.5C2891.9,507.6,2894.5,505.8,2894.5,503.4z"/>
		<path class="st3" d="M2900.7,494.8h2.2l0.3,2.2c1-1.5,2.7-2.2,5.2-2.2h0.9v2.3h-1.3c-3.2,0-4.9,1.8-4.9,5.5v6.9h-2.4V494.8z"/>
		<path class="st3" d="M2930.6,504.5h-12.7v-2.3l12.3-12.9h2.8v13h3.9v2.2h-3.9v4.9h-2.4V504.5z M2930.6,502.3V492l-9.8,10.3H2930.6
			z"/>
		<path class="st3" d="M2938.2,499.8v-0.9c0-6.2,3.3-9.8,9-9.8c5.7,0,9,3.6,9,9.8v0.9c0,6.3-3.1,9.8-9,9.8
			S2938.2,506.2,2938.2,499.8z M2953.6,499.7V499c0-5.1-2.2-7.6-6.5-7.6c-4.4,0-6.5,2.5-6.5,7.6v0.7c0,5.1,2.2,7.6,6.5,7.6
			C2951.5,507.4,2953.6,504.8,2953.6,499.7z"/>
		<path class="st3" d="M2958.3,499.8v-0.9c0-6.2,3.3-9.8,9-9.8c5.7,0,9,3.6,9,9.8v0.9c0,6.3-3.1,9.8-9,9.8
			S2958.3,506.2,2958.3,499.8z M2973.7,499.7V499c0-5.1-2.2-7.6-6.5-7.6c-4.4,0-6.5,2.5-6.5,7.6v0.7c0,5.1,2.2,7.6,6.5,7.6
			C2971.6,507.4,2973.7,504.8,2973.7,499.7z"/>
	</g>
</g>
<g>
	<g>
		<path class="st3" d="M2219.4,569.9h10.1l31.8,69.1h-9.5l-8.5-18.6h-38.1l-8.4,18.6h-9.2L2219.4,569.9z M2239.7,612.6l-15.5-34.2
			l-15.5,34.2H2239.7z"/>
		<path class="st3" d="M2267.8,569.9h50v7.9h-41.4v20.3h25c15.9,0,24.4,7,24.4,20.4c0,13-8.9,20.4-24.4,20.4h-33.5V569.9z
			 M2300.7,631.1c10.7,0,16.3-4.3,16.3-12.5c0-8.1-5.8-12.5-16.4-12.5h-24.2v25.1H2300.7z"/>
		<path class="st3" d="M2334.2,569.9h31.5c15.4,0,24.2,6.6,24.2,18.3c0,7.4-3.5,12.1-11,15c9.6,1.9,14.5,7.3,14.5,16.1
			c0,12.8-9.5,19.7-27.3,19.7h-31.9V569.9z M2366.1,599.9c9.9,0,15.2-3.9,15.2-11.1s-5.2-11.1-15.2-11.1h-23.3v22.3H2366.1z
			 M2366.1,631.3c12.6,0,18.5-3.8,18.5-11.8s-6-11.8-18.5-11.8h-23.3v23.7H2366.1z"/>
		<path class="st3" d="M2402.9,569.9h50.5v7.9h-41.9V639h-8.6V569.9z"/>
		<path class="st3" d="M2449.6,631.1h6.5c4.6-4.1,7.3-10.6,7.3-30.8v-30.4h56.5v61.2h7.3v22h-8.6V639h-60.5v14.1h-8.6V631.1z
			 M2511.4,577.3h-39.9v24.1c0,16.1-1.7,24.2-5.4,29.7h45.3V577.3z"/>
		<path class="st3" d="M2534.7,569.9h52v7.9h-43.4v22.1h36.3v7.9h-36.3v23.3h45v7.9h-53.6V569.9z"/>
		<path class="st3" d="M2596.5,569.9h52v7.9h-43.4v22.1h36.3v7.9h-36.3v23.3h45v7.9h-53.6V569.9z M2606.8,556.9c0-3,2.2-5.1,5.3-5.1
			s5.3,2.2,5.3,5.1s-2.2,5.1-5.3,5.1S2606.8,559.9,2606.8,556.9z M2627.6,556.9c0-3,2.2-5.1,5.3-5.1c3.2,0,5.3,2.2,5.3,5.1
			s-2.2,5.1-5.3,5.1C2629.7,562,2627.6,559.9,2627.6,556.9z"/>
		<path class="st3" d="M2679.8,603.5l-24.7-33.5h10.2l21.9,30.1h15.5v-30.1h8.6V600h15.5l21.9-30.1h10.2l-24.7,33.5l26.5,35.5H2750
			l-23-31.1h-15.7V639h-8.6v-31.1H2687l-23,31.1h-10.8L2679.8,603.5z"/>
		<path class="st3" d="M2761.9,618.3h8.8c0.4,8.7,8.2,13.4,22.7,13.4c13,0,20.4-4.1,20.4-12.3c0-7.9-6.6-11.7-19.4-11.7H2782V600
			h11.7c10.9,0,18.3-4.4,18.3-11.9c0-7.3-6.5-10.9-18.9-10.9c-13,0-20.6,3.9-21.4,12.6h-8.8c0.5-12.6,12.7-20.5,30.3-20.5
			c17.4,0,27.6,6.8,27.6,18.3c0,8.2-4.8,13.5-13.2,15.3c9.3,1.4,15,7.4,15,16.1c0,12.7-11.4,20.5-29.7,20.5
			C2773.5,639.6,2762.2,631.6,2761.9,618.3z"/>
		<path class="st3" d="M2832.5,569.9h8.5v55.9l46.7-55.9h7.9V639h-8.5v-55.9l-46.7,55.9h-7.9V569.9z"/>
		<path class="st3" d="M2907.4,569.9h8.5v55.9l46.7-55.9h7.9V639h-8.5v-55.9l-46.7,55.9h-7.9V569.9z M2922,550.6h6.7
			c0,4.8,3,7.8,10.1,7.8c7.2,0,10.3-3,10.3-7.8h6.8c-0.2,8.4-6.1,13.5-17.2,13.5C2927.7,564.1,2922.2,558.9,2922,550.6z"/>
		<path class="st3" d="M2224.5,654.9h8.6v30h16.4l27.2-30h10.7l-30.4,33.4l32.4,35.6H2278l-28.5-31.2h-16.4V724h-8.6V654.9z"/>
		<path class="st3" d="M2291.7,716.1h2c9.5,0,13.9-4.7,13.9-27.2v-33.9h55.8V724h-8.6v-61.2h-39.2v26.7c0,26.5-6.6,34.4-21,34.4h-3
			V716.1z"/>
		<path class="st3" d="M2375.2,654.9h10.3l31.1,58.7l31.1-58.7h10.1V724h-8.6v-54.5l-28.9,54.5h-7.5l-28.9-54.5V724h-8.6V654.9z"/>
		<path class="st3" d="M2469.5,654.9h8.6v30h45.1v-30h8.6V724h-8.6v-31.2h-45.1V724h-8.6V654.9z"/>
		<path class="st3" d="M2541,689.5c0-20.9,15.8-35.1,39.2-35.1c23.4,0,39.2,14.2,39.2,35.1c0,20.9-15.8,35.1-39.2,35.1
			C2556.7,724.6,2541,710.4,2541,689.5z M2610.5,689.5c0-16.5-12-27.2-30.4-27.2c-18.3,0-30.4,10.8-30.4,27.2
			c0,16.5,12,27.2,30.4,27.2C2598.5,716.7,2610.5,705.9,2610.5,689.5z"/>
		<path class="st3" d="M2628.5,654.9h61.7V724h-8.6v-61.2H2637V724h-8.6V654.9z"/>
		<path class="st3" d="M2701.9,654.9h33.7c15,0,24.5,8.3,24.5,21.2c0,13-9.5,21.3-24.5,21.3h-25.2V724h-8.6V654.9z M2735.7,689.6
			c9.6,0,15.7-5.2,15.7-13.4c0-8.2-6.1-13.3-15.7-13.3h-25.2v26.7H2735.7z"/>
		<path class="st3" d="M2765.4,689.5c0-21.1,15.6-35.1,39.1-35.1c18.3,0,30.8,8.5,34.2,23.2h-9.1c-3.7-10.1-12.3-15.3-25.6-15.3
			c-18.3,0-29.9,10.5-29.9,27.2c0,16.8,11.3,27.2,29.5,27.2c13.7,0,22.4-5.1,25.8-15.3h9.1c-3.5,14.7-16.2,23.2-34.8,23.2
			C2780.5,724.6,2765.4,710.8,2765.4,689.5z"/>
		<path class="st3" d="M2868.1,662.8h-27.5v-7.9h63.6v7.9h-27.5V724h-8.6V662.8z"/>
		<path class="st3" d="M2916.4,716.1h6.4c8,0,10.5-1.3,13.5-6.7l2.9-5.1l-32.1-49.3h10.4l26.4,41.5l22.6-41.5h9.7l-32,56.9
			c-5.2,9.3-10,12.1-20.1,12.1h-7.7V716.1z"/>
		<path class="st3" d="M2338.4,803.6h-1.9c-25.1,0-40.1-11-40.1-29.1c0-18.2,15.1-29.1,40.1-29.1h1.9v-5.4h8.3v5.4h1.9
			c25.1,0,40.1,11,40.1,29.1c0,18.2-15.1,29.1-40.1,29.1h-1.9v5.4h-8.3V803.6z M2338.4,796v-43h-1.9c-19.9,0-31.6,7.9-31.6,21.5
			c0,13.6,11.6,21.5,31.6,21.5H2338.4z M2348.6,796c19.9,0,31.6-7.9,31.6-21.5c0-13.6-11.6-21.5-31.6-21.5h-1.9v43H2348.6z"/>
		<path class="st3" d="M2415.9,773.6l-26.6-33.6h10.9l21.3,26.9l21.3-26.9h10.6l-26.6,33.1L2455,809h-10.9l-23.1-29.2L2398,809
			h-10.6L2415.9,773.6z"/>
		<path class="st3" d="M2457.9,760.5v-20.5h8.6v18.8c0,11.8,7,17.3,21,17.3c6.7,0,14.6-1.5,21.6-3.9v-32.2h8.6V809h-8.6v-28.6
			c-6.9,2.3-14.8,3.6-21.8,3.6C2468.2,783.9,2457.9,776,2457.9,760.5z"/>
		<path class="st3" d="M2529.5,739.9h8.6v61.2h34.9v-61.2h8.6v61.2h34.9v-61.2h8.6V809h-95.6V739.9z"/>
		<path class="st3" d="M2636.9,739.9h8.6v61.2h34.9v-61.2h8.6v61.2h34.9v-61.2h8.6v61.2h7.3v22h-8.6V809h-94.3V739.9z"/>
		<path class="st3" d="M2762.2,747.8h-24.6v-7.9h33.1v26.4h25.4c15.3,0,24.5,8,24.5,21.3c0,13.2-9.3,21.3-24.5,21.3h-33.9V747.8z
			 M2795.5,801.1c10.8,0,16.4-4.6,16.4-13.4c0-8.8-5.7-13.4-16.5-13.4h-24.6v26.8H2795.5z"/>
		<path class="st3" d="M2829,739.9h8.6v26h24.2c15.3,0,24.5,8,24.5,21.5c0,13.4-9.3,21.5-24.5,21.5H2829V739.9z M2861.1,801.1
			c10.8,0,16.4-4.6,16.4-13.6c0-9-5.7-13.6-16.5-13.6h-23.4v27.2H2861.1z M2895.2,739.9h8.6V809h-8.6V739.9z"/>
		<path class="st3" d="M2915.6,739.9h8.6v26h25.3c15.3,0,24.5,8,24.5,21.5c0,13.4-9.3,21.5-24.5,21.5h-33.8V739.9z M2948.8,801.1
			c10.8,0,16.4-4.6,16.4-13.6c0-9-5.7-13.6-16.5-13.6h-24.5v27.2H2948.8z"/>
		<path class="st3" d="M2080.6,861v-3.2c0-21.3,11.2-33.5,30.8-33.5s30.8,12.2,30.8,33.5v3.2c0,21.8-10.8,33.5-30.8,33.5
			S2080.6,882.8,2080.6,861z M2133.8,860.7v-2.6c0-17.6-7.4-26.2-22.4-26.2s-22.4,8.7-22.4,26.2v2.6c0,17.6,7.4,26.2,22.4,26.2
			S2133.8,878.3,2133.8,860.7z"/>
		<path class="st3" d="M2165,844.5c-1.3,1-3.3,1.3-5.5,1.3h-13.7v-7.4h13.8c3.7,0,5.6-2.5,5.6-5.9v-7.5h8.1V894h-8.3V844.5z"/>
		<path class="st3" d="M2181.6,887l32.8-22.3c9.4-6.3,14.1-12.8,14.1-19.3c0-8.7-6.5-13.6-18.6-13.6c-11.7,0-19.4,5.8-19.4,15.4v1.3
			h-8.3v-1.8c0-13.4,11.3-22.3,27.7-22.3c17.2,0,27.1,7.8,27.1,20.6c0,10.1-4.7,16.6-18.6,25.8l-23.4,15.6h42.8v7.6h-56.2V887z"/>
		<path class="st3" d="M2242.6,872.9h8.3c0.2,9.1,8,14.3,21.5,14.3c13,0,20.4-4.6,20.4-12.8c0-7.9-6.6-11.7-19.4-11.7h-8.7V855h8.1
			c10.9,0,17.9-4.4,17.9-11.9c0-7.3-6.5-11.3-18.5-11.3s-18.6,4.4-19.4,13.1h-8.3c0.5-12.6,11.2-20.5,27.8-20.5
			c17,0,26.9,6.8,26.9,18.3c0,8.2-4.4,13.5-12.8,15.3c9.3,1.4,15,7.4,15,16.1c0,12.7-11.1,20.5-29.4,20.5
			C2253.4,894.6,2242.7,886.6,2242.6,872.9z"/>
		<path class="st3" d="M2350,877.1h-43.8v-7.9l42.4-44.3h9.7v44.6h13.5v7.6h-13.5V894h-8.3V877.1z M2350,869.5v-35.3l-33.6,35.3
			H2350z"/>
		<path class="st3" d="M2376.1,874.8h8.3c1.3,7.5,7.3,12.4,20.4,12.4c11.4,0,20.2-5.5,20.2-16.2c0-9.4-6.6-16-20-16
			c-10,0-16.3,3.2-19.7,9.7l-8-0.6l2.9-39.2h48.3v7.6h-41l-1.8,21.8c4.8-4.7,11.5-6.7,20.2-6.7c17.5,0,27.6,9.6,27.6,23.3
			c0,15.3-12.4,23.7-28.7,23.7C2385.9,894.6,2377,885.8,2376.1,874.8z"/>
		<path class="st3" d="M2446.9,884.7c-4.8-6-7.1-14.4-7.1-25c0-23.2,10.8-35.4,31-35.4c14.7,0,24.2,6.4,26.5,18.1h-8.3
			c-2.4-7.4-8.2-10.8-18.5-10.8c-15,0-22.7,8.7-22.7,25.7c0,0.9,0,1.6,0.1,2.3c3.3-7.4,11.9-11.6,24-11.6c16.9,0,27.1,8.7,27.1,23.1
			c0,14.4-11,23.5-28.6,23.5C2460.3,894.6,2452.2,891.2,2446.9,884.7z M2490.5,871.3c0-10.2-7.3-16-19.9-16c-12.4,0-20,6-20,16
			c0,9.8,7.8,16,19.9,16C2483,887.3,2490.5,881.4,2490.5,871.3z"/>
		<path class="st3" d="M2548.8,832.5h-47.3v-7.6h57.8v5.8l-40.9,63.2h-9.4L2548.8,832.5z"/>
		<path class="st3" d="M2561.7,875.4c0-9,6.1-15.6,16.7-17.5c-8.9-1.5-14.3-7.2-14.3-15.3c0-11.3,10.5-18.3,27.3-18.3
			s27.3,7,27.3,18.3c0,8-5.6,13.8-14.3,15.3c10.6,1.9,16.7,8.5,16.7,17.5c0,11.7-11.4,19.1-29.7,19.1S2561.7,887.2,2561.7,875.4z
			 M2612.6,874.7c0-8.1-7.5-12.5-21.2-12.5c-13.7,0-21.2,4.4-21.2,12.5c0,8.2,7.5,12.6,21.2,12.6
			C2605.1,887.3,2612.6,882.8,2612.6,874.7z M2610.2,842.9c0-7.2-6.7-11.2-18.8-11.2s-18.8,3.9-18.8,11.2s6.7,11.3,18.8,11.3
			S2610.2,850.2,2610.2,842.9z"/>
		<path class="st3" d="M2679.9,834.2c4.8,6,7.1,14.4,7.1,25c0,23.2-10.8,35.4-31,35.4c-14.7,0-24.2-6.4-26.5-18.1h8.3
			c2.4,7.4,8.2,10.8,18.5,10.8c15,0,22.7-8.7,22.7-25.7c0-0.9,0-1.6-0.1-2.3c-3.3,7.4-11.9,11.6-24,11.6c-16.9,0-27.1-8.7-27.1-23.1
			c0-14.4,11-23.5,28.6-23.5C2666.6,824.3,2674.7,827.7,2679.9,834.2z M2636.3,847.6c0,10.2,7.3,16,19.9,16c12.4,0,20-6,20-16
			c0-9.8-7.8-16-19.9-16C2643.8,831.6,2636.3,837.6,2636.3,847.6z"/>
		<path class="st3" d="M2746.9,855.2h38.2c-1.8-14.3-12.8-23-29.6-23c-13.2,0-21.9,5.2-25.5,15.3h-9.1c3.5-14.7,16.1-23.2,34.4-23.2
			c23.5,0,38.9,14,38.9,35.1c0,21.3-15.2,35.1-38.5,35.1c-18.6,0-31.3-8.5-34.7-23.2h9.1c3.5,10.2,12.1,15.3,25.8,15.3
			c16.8,0,27.7-9,29.3-23.6h-38.3V855.2z"/>
		<path class="st3" d="M2827.5,862.8h-15.6V894h-8.6v-69.1h8.6v30h15.8c2.1-18.4,17.1-30.6,38.5-30.6c23.1,0,38.8,14.2,38.8,35.1
			c0,20.9-15.7,35.1-38.8,35.1C2844.4,894.6,2829.2,881.9,2827.5,862.8z M2896.2,859.5c0-16.4-11.9-27.2-30-27.2s-30,10.9-30,27.2
			c0,16.4,11.9,27.2,30,27.2S2896.2,875.8,2896.2,859.5z"/>
		<path class="st3" d="M2931.1,866.6c-12.7-1.9-19.9-9.3-19.9-20.4c0-12.9,9.6-21.2,24.6-21.2h34.7V894h-8.6v-26.5h-21.1l-19.9,26.5
			h-10.6L2931.1,866.6z M2961.9,859.6v-26.7h-26.1c-9.7,0-15.8,5.2-15.8,13.3c0,8.2,6.1,13.4,15.8,13.4H2961.9z"/>
	</g>
</g>
<g>
	<g>
		<path class="st3" d="M31.4,315.9c0-9.6,7.4-14.5,22.5-14.5H76v-3.3c0-9.4-6.3-14.3-18.3-14.3c-11,0-17.1,3.4-18.8,10.2h-5
			c1.7-9.7,10-14.6,24.1-14.6c15.1,0,23.2,6.6,23.2,19v21.1c0,4,1.6,5.8,5.4,5.8h2.3v4.6h-3.4c-5.9,0-9.2-2.6-9.2-8.4v-2.7
			c-3.3,7-12.5,11.6-23.9,11.6C39.2,330.6,31.4,325.2,31.4,315.9z M76,309.8v-4H53.5c-11.7,0-17,3.4-17,10c0,6.8,5.8,10.6,16.4,10.6
			C66.3,326.2,76,319.3,76,309.8z"/>
		<path class="st3" d="M93,302.9c0-28.2,7.4-37.6,31.6-40.2l20.5-2.3v4.7l-19.5,2.2c-19.7,2.2-25.8,8-27.4,26.7
			c3.8-7,12.5-11.1,24.2-11.1c16.3,0,26.9,9.4,26.9,23.7c0,14.5-11.2,24.1-28.1,24.1C102.8,330.6,93,321,93,302.9z M144.1,306.7
			c0-11.6-9.1-19.3-22.8-19.3c-13.7,0-23.2,7.3-23.2,18.1c0,13,8.6,20.7,23,20.7C135,326.1,144.1,318.5,144.1,306.7z"/>
		<path class="st3" d="M158.4,280h27.6c11.6,0,17.7,4.3,17.7,12.9c0,5.9-3.6,10-9.7,11.2c7.5,1.1,11.8,5.2,11.8,11.9
			c0,9-7.1,13.9-20,13.9h-27.4V280z M186.3,302.3c8.1,0,12.3-3,12.3-9c0-6.2-3.8-9-12.1-9h-23v18H186.3z M186.5,325.7
			c9.4,0,14.3-3.3,14.3-9.6c0-6.2-5-9.6-14.3-9.6h-23v19.1H186.5z"/>
		<path class="st3" d="M214.9,280H252v4.6h-32.1V330h-5V280z"/>
		<path class="st3" d="M247.6,325.4h6c3.8-3.3,5.9-7.3,5.9-24.2V280h41.3v45.4h6.5v18h-5V330h-49.7v13.3h-5V325.4z M295.9,284.4
			h-31.4v17.3c0,14-1.6,19.8-4.6,23.7h36V284.4z"/>
		<path class="st3" d="M310.1,304.6c0-15,11.1-25.3,27.4-25.3c16.6,0,26.9,9,27.3,23.8v1.9h-49.5v0.9c0,12.3,8.8,20.1,22.8,20.1
			c11,0,18.4-4.5,21-12.6h5.1c-2.9,10.7-12.5,17.2-25.7,17.2C321.3,330.6,310.1,320.3,310.1,304.6z M359.5,300.8
			c-1-10.9-8.8-17-21.9-17c-12.5,0-21,6.5-22,17H359.5z"/>
		<path class="st3" d="M371.9,304.6c0-15,11.1-25.3,27.4-25.3c16.6,0,26.9,9,27.3,23.8v1.9h-49.5v0.9c0,12.3,8.8,20.1,22.8,20.1
			c11,0,18.4-4.5,21-12.6h5.1c-2.9,10.7-12.5,17.2-25.7,17.2C383.2,330.6,371.9,320.3,371.9,304.6z M421.3,300.8
			c-1-10.9-8.8-17-21.9-17c-12.5,0-21,6.5-22,17H421.3z M386,266.3c0-2.1,1.5-3.5,3.6-3.5c2.1,0,3.6,1.4,3.6,3.5
			c0,2-1.5,3.5-3.6,3.5C387.5,269.7,386,268.2,386,266.3z M405.2,266.3c0-2.1,1.5-3.5,3.6-3.5s3.6,1.4,3.6,3.5c0,2-1.5,3.5-3.6,3.5
			S405.2,268.2,405.2,266.3z"/>
		<path class="st3" d="M448.4,304.1L430.2,280h5.7l16.6,22.1h12.6V280h5v22.1h12.7l16.5-22.1h5.7L487,304.1l20.1,25.8H501
			l-18.2-23.3h-12.7V330h-5v-23.3h-12.6L434.3,330h-6.1L448.4,304.1z"/>
		<path class="st3" d="M508.9,315.4h5.2c1.3,7.7,6.8,10.9,18.6,10.9c12.2,0,19.3-3.8,19.3-10.4c0-5.9-5.4-9.1-15.7-9.1h-10.6v-4.4
			h10.3c9.4,0,15-3.3,15-9.1c0-6-6.3-9.6-17.4-9.6s-18.1,3.6-19.4,10.7h-5.1c0.9-9.4,10.7-15,24.7-15c14.2,0,22.4,5.1,22.4,13.8
			c0,5.9-4.8,10.1-12.2,11.1c8.6,1,13.3,5,13.3,11.5c0,9.2-9.3,14.7-24.7,14.7C517.4,330.6,509.8,325.8,508.9,315.4z"/>
		<path class="st3" d="M566.3,280h4.9v43.1l41.1-43.1h4.4v50h-4.9v-43.2L570.8,330h-4.4V280z"/>
		<path class="st3" d="M628.3,280h4.9v43.1l41.1-43.1h4.4v50h-4.9v-43.2L632.7,330h-4.4V280z M638,260.6h4.2c0,5.5,3.5,8.8,11.3,8.8
			c8.1,0,11.5-3.3,11.5-8.8h4.3c-0.1,7.9-5.5,12.5-15.9,12.5C643.3,273.2,638,268.4,638,260.6z"/>
		<path class="st3" d="M33.9,365h5v22.1h14.7L75.2,365h6.5L58,389L83.8,415h-6.7l-23.3-23.3H38.9V415h-5V365z"/>
		<path class="st3" d="M85.9,410.4h1.3c8.2,0,10.9-5.1,10.9-21V365h41.8v50h-5v-45.4H103v19.9c0,18.5-4,25.5-15.1,25.5h-2V410.4z"/>
		<path class="st3" d="M151.3,365h6.2l26.4,44.1l26.2-44.1h6.1v50h-5v-42.4L186,415h-4l-25.5-42.4V415h-5V365z"/>
		<path class="st3" d="M272.6,391.7h-39.8V415h-5v-50h5v22.1h39.8V365h5v50h-5V391.7z"/>
		<path class="st3" d="M286.9,389.9c0-15.3,11.4-25.5,28.5-25.5c17.1,0,28.5,10.3,28.5,25.5c0,15.4-11.4,25.6-28.5,25.6
			C298.3,415.6,286.9,405.3,286.9,389.9z M338.8,389.9c0-12.8-9.1-21.1-23.4-21.1c-14.2,0-23.4,8.3-23.4,21.1
			c0,12.9,9.2,21.1,23.4,21.1C329.7,411,338.8,402.9,338.8,389.9z"/>
		<path class="st3" d="M353.2,365h48.6v50h-5v-45.4h-38.6V415h-5V365z"/>
		<path class="st3" d="M413.2,365h4.7l0.5,11.9c3.7-7.8,12.1-12.5,23.5-12.5c17.2,0,28.1,10.5,28.1,25.5c0,15.4-11,25.6-28.1,25.6
			c-11.2,0-19.8-4.9-23.7-13v32.2h-5V365z M464.9,389.9c0-12.8-9.2-21.1-23.5-21.1c-14.2,0-23.3,8.3-23.3,21.1
			c0,12.9,9.1,21.1,23.3,21.1C455.8,411,464.9,402.9,464.9,389.9z"/>
		<path class="st3" d="M477.2,390c0-15.5,11.3-25.6,28.3-25.6c13.1,0,22.6,6.2,25.1,16.7h-5.2c-2.2-7.7-9.7-12.2-19.9-12.2
			c-14.1,0-23.1,8.2-23.1,21.2c0,12.8,9,21,23.1,21c10.4,0,17.8-4.5,19.9-12.2h5.2c-2.5,10.5-11.9,16.8-25.1,16.8
			C488.5,415.6,477.2,405.4,477.2,390z"/>
		<path class="st3" d="M555.3,369.6h-23.9V365h52.7v4.6h-23.8V415h-5V369.6z"/>
		<path class="st3" d="M589.3,430.1h6.7c6.4,0,8.4-1.4,11.8-8.3l3.3-6.6L586.8,365h5.5l21.5,44.3l20.9-44.3h5.5l-27.8,58.2
			c-4.4,9.5-7.4,11.5-16.2,11.5h-7V430.1z"/>
		<path class="st3" d="M66.1,500h-2c-19.8,0-32.5-9.9-32.5-25.1c0-15.1,12.6-25,32.5-25h2v-17.5H71V450h2c19.8,0,32.5,9.9,32.5,25
			c0,15.2-12.6,25.1-32.5,25.1h-2v19.7h-4.9V500z M66.1,495.6v-41.1h-2c-16.9,0-27.3,8-27.3,20.5s10.5,20.6,27.3,20.6H66.1z
			 M73,495.6c16.8,0,27.2-8.1,27.2-20.6S89.8,454.4,73,454.4h-2v41.1H73z"/>
		<path class="st3" d="M130,474.4L107.9,450h6.4l19,20.9l19-20.9h6.4l-22.1,24.3l23.2,25.7h-6.4l-20.1-22.3L113.3,500h-6.4
			L130,474.4z"/>
		<path class="st3" d="M163.4,465.2V450h5v15c0,9.3,6,13.4,18.4,13.4c6.6,0,12.8-1.7,17.8-3.8V450h5v50h-5v-20.5
			c-5.2,2.1-11.5,3.6-18.3,3.6C170.9,483,163.4,477.1,163.4,465.2z"/>
		<path class="st3" d="M221.1,450h5v45.4h28.2V450h5v45.4h28.3V450h5v50h-71.6V450z"/>
		<path class="st3" d="M304.1,450h5v45.4h28.2V450h5v45.4h28.3V450h5v45.4h6.8v18h-5V500h-73.4V450z"/>
		<path class="st3" d="M400.7,454.6H381V450h24.8v17.9h20.5c13.4,0,20.4,5.3,20.4,16.1c0,10.7-7.1,16.1-20.4,16.1h-25.5V454.6z
			 M425.7,495.7c10.8,0,15.9-3.8,15.9-11.7c0-8.1-4.9-11.7-15.9-11.7h-19.9v23.5H425.7z"/>
		<path class="st3" d="M455.5,450h5v17.9H480c13.4,0,20.4,5.3,20.4,16.1c0,10.7-7.1,16.1-20.4,16.1h-24.6V450z M479.4,495.7
			c10.8,0,15.9-3.8,15.9-11.7c0-8.1-4.9-11.7-15.9-11.7h-18.9v23.5H479.4z M509.3,450h5v50h-5V450z"/>
		<path class="st3" d="M525.8,450h5v17.9h20.5c13.4,0,20.4,5.3,20.4,16.1c0,10.7-7.1,16.1-20.4,16.1h-25.5V450z M550.8,495.7
			c10.8,0,15.9-3.8,15.9-11.7c0-8.1-4.9-11.7-15.9-11.7h-19.9v23.5H550.8z"/>
		<path class="st3" d="M31.5,568.8h5.2c2.1,7.7,9.5,12.2,19.8,12.2c13.3,0,22.1-7.3,23-18.9H49.3v-4.4h30.2
			c-1-11.6-9.8-18.8-23-18.8c-10.3,0-17.7,4.5-19.8,12.2h-5.2c2.4-10.5,11.8-16.7,25.1-16.7c17,0,28.3,10.2,28.3,25.6
			c0,15.4-11.3,25.5-28.3,25.5C43.3,585.6,33.9,579.3,31.5,568.8z"/>
		<path class="st3" d="M115,562.1H99.2V585h-5v-50h5v22.5H115c1.3-13.9,12.3-23.1,28.3-23.1c17,0,28.4,10.3,28.4,25.5
			c0,15.4-11.4,25.6-28.4,25.6C127.2,585.6,116,576.3,115,562.1z M166.5,559.9c0-12.8-9.1-21.1-23.2-21.1
			c-14.1,0-23.3,8.3-23.3,21.1c0,12.9,9.2,21.1,23.3,21.1C157.5,581,166.5,572.9,166.5,559.9z"/>
		<path class="st3" d="M219.7,566.3h-20.6L183.3,585H177l16.5-19.1c-9.8-1.2-15.4-6.6-15.4-15.2c0-10,7.5-15.7,20.4-15.7h26.2v50h-5
			V566.3z M219.7,562v-22.7h-21.2c-9.8,0-15.3,4-15.3,11.2c0,7.3,5.4,11.4,15.3,11.4H219.7z"/>
	</g>
</g>
<g>
	<g>
		<path class="st3" d="M31.6,208.3h1.5V227h11.7v1.4H31.6V208.3z"/>
		<path class="st3" d="M47,209.7c0-0.6,0.4-1,1-1s1.1,0.4,1.1,1c0,0.6-0.4,1-1.1,1S47,210.3,47,209.7z M47.3,213.8h1.5v14.6h-1.5
			V213.8z"/>
		<path class="st3" d="M52.3,229.5h1.5c0.6,2.3,2.8,3.4,6.3,3.4c4.5,0,6.6-1.9,6.6-6v-2.2c-1.1,2.4-3.6,3.8-6.9,3.8
			c-5.1,0-8.2-2.9-8.2-7.5c0-4.4,3.2-7.4,8.2-7.4c3.3,0,5.7,1.4,6.8,3.6l0.2-3.5h1.4v13.2c0,4.9-2.7,7.3-8.2,7.3
			C55.6,234.3,52.9,232.7,52.3,229.5z M66.8,221.1c0-3.7-2.6-6.1-6.8-6.1c-4.1,0-6.8,2.4-6.8,6.1c0,3.8,2.7,6.1,6.8,6.1
			C64.2,227.3,66.8,224.9,66.8,221.1z"/>
		<path class="st3" d="M71.9,208.3h1.5v9.1c1-2.3,3.3-3.7,6.5-3.7c4.4,0,6.7,2.5,6.7,7.1v7.7h-1.5v-7.6c0-3.8-1.9-5.8-5.5-5.8
			c-4,0-6.3,2.4-6.3,6.1v7.3h-1.5V208.3z"/>
		<path class="st3" d="M91.7,224.5v-9.3h-3.3v-1.3h3.3v-4.1h1.5v4.1h4.9v1.3h-4.9v9.2c0,1.9,0.7,2.6,2.6,2.6h2.3v1.3h-2.4
			C92.9,228.4,91.7,227.3,91.7,224.5z"/>
		<path class="st3" d="M107.8,222.5h1.5c0.1,3,2.6,4.7,6.9,4.7c4.2,0,6.7-1.7,6.7-4.4c0-2.7-2.1-4-6.5-4h-2.3v-1.4h2.2
			c3.6,0,5.9-1.5,5.9-4.1c0-2.5-2.2-3.9-6-3.9c-3.9,0-6.2,1.5-6.4,4.3h-1.5c0.1-3.5,3.2-5.7,7.9-5.7c4.7,0,7.5,1.9,7.5,5.2
			c0,2.6-1.6,4.2-4.4,4.7c3.2,0.4,5.1,2,5.1,4.8c0,3.6-3.2,5.8-8.3,5.8C110.9,228.6,107.9,226.4,107.8,222.5z"/>
		<path class="st3" d="M127,218.8v-0.9c0-6.2,3.1-9.8,8.6-9.8c5.4,0,8.6,3.6,8.6,9.8v0.9c0,6.3-3,9.8-8.6,9.8
			C130.1,228.6,127,225.1,127,218.8z M142.7,218.8V218c0-5.5-2.4-8.4-7-8.4c-4.6,0-7.1,2.9-7.1,8.4v0.8c0,5.5,2.4,8.4,7.1,8.4
			C140.2,227.2,142.7,224.3,142.7,218.8z"/>
		<path class="st3" d="M146.9,218.8v-0.9c0-6.2,3.1-9.8,8.6-9.8c5.4,0,8.6,3.6,8.6,9.8v0.9c0,6.3-3,9.8-8.6,9.8
			C150,228.6,146.9,225.1,146.9,218.8z M162.6,218.8V218c0-5.5-2.4-8.4-7-8.4c-4.6,0-7.1,2.9-7.1,8.4v0.8c0,5.5,2.4,8.4,7.1,8.4
			C160.1,227.2,162.6,224.3,162.6,218.8z"/>
	</g>
</g>
<g>
	<g>
		<g>
			<path class="st4" d="M705.2,40.4h2.1c0,2.3,2,3.6,5.4,3.6c3.3,0,5.2-1.2,5.2-3.2c0-2-1.7-3-4.9-3h-2.2v-1.9h2
				c2.7,0,4.5-1.1,4.5-3c0-1.8-1.6-2.9-4.7-2.9s-4.7,1.1-4.9,3.3h-2.1c0.1-3.2,2.8-5.2,7-5.2c4.3,0,6.8,1.7,6.8,4.6
				c0,2.1-1.1,3.4-3.2,3.9c2.3,0.4,3.8,1.9,3.8,4.1c0,3.2-2.8,5.2-7.4,5.2C707.9,45.9,705.2,43.9,705.2,40.4z"/>
			<path class="st4" d="M721.5,44.5c0-0.8,0.6-1.4,1.4-1.4c0.8,0,1.4,0.6,1.4,1.4c0,0.8-0.6,1.4-1.4,1.4
				C722.1,45.9,721.5,45.3,721.5,44.5z"/>
			<path class="st4" d="M725.1,37.4v-0.8c0-5.4,2.8-8.5,7.8-8.5c4.9,0,7.8,3.1,7.8,8.5v0.8c0,5.5-2.7,8.5-7.8,8.5
				C727.8,45.9,725.1,42.9,725.1,37.4z M738.6,37.3v-0.7c0-4.4-1.9-6.6-5.7-6.6c-3.8,0-5.7,2.2-5.7,6.6v0.7c0,4.4,1.9,6.6,5.7,6.6
				C736.7,44,738.6,41.8,738.6,37.3z"/>
			<path class="st4" d="M746.8,33.2c-0.3,0.3-0.8,0.3-1.4,0.3h-3.5v-1.9h3.5c0.9,0,1.4-0.6,1.4-1.5v-1.9h2v17.5h-2.1V33.2z"/>
			<path class="st3" d="M772.4,30.2h-7v-2h16.1v2h-7v15.5h-2.2V30.2z"/>
			<path class="st3" d="M783.8,28.2h2.1v14.2l11.8-14.2h2v17.5h-2.1V31.6l-11.8,14.2h-2V28.2z"/>
			<path class="st3" d="M803.1,28.2h15.6v17.5h-2.2V30.2h-11.3v15.5h-2.2V28.2z"/>
			<path class="st3" d="M821.3,37c0-5.3,4-8.9,9.9-8.9s9.9,3.6,9.9,8.9s-4,8.9-9.9,8.9S821.3,42.3,821.3,37z M838.9,37
				c0-4.2-3-6.9-7.7-6.9s-7.7,2.7-7.7,6.9s3,6.9,7.7,6.9S838.9,41.2,838.9,37z"/>
			<path class="st3" d="M843.7,28.2h12.8v2h-10.6v15.5h-2.2V28.2z"/>
			<path class="st3" d="M858.7,28.2h8.5c3.8,0,6.2,2.1,6.2,5.4c0,3.3-2.4,5.4-6.2,5.4h-6.4v6.7h-2.2V28.2z M867.3,37
				c2.4,0,4-1.3,4-3.4s-1.5-3.4-4-3.4h-6.4V37H867.3z"/>
			<path class="st3" d="M880.2,28.2h2.5l8,17.5h-2.4l-2.2-4.7h-9.6l-2.1,4.7h-2.3L880.2,28.2z M885.3,39l-3.9-8.7l-3.9,8.7H885.3z"
				/>
			<path class="st3" d="M901.5,44.4H901c-6.3,0-10.2-2.8-10.2-7.4s3.8-7.4,10.2-7.4h0.5v-1.4h2.1v1.4h0.5c6.3,0,10.2,2.8,10.2,7.4
				s-3.8,7.4-10.2,7.4h-0.5v1.4h-2.1V44.4z M901.5,42.4V31.5H901c-5,0-8,2-8,5.4s3,5.4,8,5.4H901.5z M904,42.4c5,0,8-2,8-5.4
				s-2.9-5.4-8-5.4h-0.5v10.9H904z"/>
			<path class="st3" d="M916.8,28.2h2.1v14.2l11.8-14.2h2v17.5h-2.1V31.6l-11.8,14.2h-2V28.2z"/>
			<path class="st3" d="M936,28.2h2.2v7.6h4.1l6.9-7.6h2.7l-7.7,8.5l8.2,9h-2.9l-7.2-7.9h-4.1v7.9H936V28.2z"/>
			<path class="st3" d="M961.5,28.2h2.5l8,17.5h-2.4l-2.1-4.7h-9.6l-2.1,4.7h-2.3L961.5,28.2z M966.6,39l-3.9-8.7l-3.9,8.7H966.6z"
				/>
		</g>
	</g>
	<g>
		<g>
			<path class="st3" d="M1111.1,28.2h2.2v15.5h8.8V28.2h2.2v15.5h8.8V28.2h2.2v17.5h-24.2V28.2z"/>
			<path class="st3" d="M1138.6,28.2h8.5c3.8,0,6.2,2.1,6.2,5.4c0,3.3-2.4,5.4-6.2,5.4h-6.4v6.7h-2.2V28.2z M1147.1,37
				c2.4,0,4-1.3,4-3.4s-1.5-3.4-4-3.4h-6.4V37H1147.1z"/>
			<path class="st3" d="M1155.6,28.2h2.1v14.2l11.8-14.2h2v17.5h-2.1V31.6l-11.8,14.2h-2V28.2z"/>
			<path class="st3" d="M1184.8,44.4h-0.5c-6.3,0-10.2-2.8-10.2-7.4s3.8-7.4,10.2-7.4h0.5v-1.4h2.1v1.4h0.5c6.3,0,10.2,2.8,10.2,7.4
				s-3.8,7.4-10.2,7.4h-0.5v1.4h-2.1V44.4z M1184.8,42.4V31.5h-0.5c-5,0-8,2-8,5.4s2.9,5.4,8,5.4H1184.8z M1187.4,42.4
				c5,0,8-2,8-5.4s-2.9-5.4-8-5.4h-0.5v10.9H1187.4z"/>
			<path class="st3" d="M1204.8,30.2h-7v-2h16.1v2h-7v15.5h-2.2V30.2z"/>
			<path class="st3" d="M1222.1,43.7h1.6c1.2-1,1.8-2.7,1.8-7.8v-7.7h14.3v15.5h1.8v5.6h-2.2v-3.6h-15.3v3.6h-2.2V43.7z
				 M1237.8,30.1h-10.1v6.1c0,4.1-0.4,6.1-1.4,7.5h11.5V30.1z"/>
			<path class="st3" d="M1243.1,43.7h0.5c2.4,0,3.5-1.2,3.5-6.9v-8.6h14.1v17.5h-2.2V30.2h-9.9V37c0,6.7-1.7,8.7-5.3,8.7h-0.7V43.7z
				"/>
			<path class="st3" d="M1269.2,38.8c-3.2-0.5-5-2.3-5-5.2c0-3.3,2.4-5.4,6.2-5.4h8.8v17.5h-2.2V39h-5.3l-5,6.7h-2.7L1269.2,38.8z
				 M1277,37v-6.8h-6.6c-2.5,0-4,1.3-4,3.4c0,2.1,1.5,3.4,4,3.4H1277z"/>
			<path class="st3" d="M1288.8,40.5h2.2c0.1,2.2,2.1,3.4,5.7,3.4c3.3,0,5.2-1,5.2-3.1c0-2-1.7-3-4.9-3h-3.1v-1.9h3
				c2.8,0,4.6-1.1,4.6-3c0-1.8-1.6-2.8-4.8-2.8c-3.3,0-5.2,1-5.4,3.2h-2.2c0.1-3.2,3.2-5.2,7.7-5.2c4.4,0,7,1.7,7,4.6
				c0,2.1-1.2,3.4-3.3,3.9c2.3,0.4,3.8,1.9,3.8,4.1c0,3.2-2.9,5.2-7.5,5.2C1291.7,45.9,1288.9,43.9,1288.8,40.5z"/>
			<path class="st3" d="M1313.1,28.2h2.5l8,17.5h-2.4l-2.1-4.7h-9.6l-2.1,4.7h-2.3L1313.1,28.2z M1318.3,39l-3.9-8.7l-3.9,8.7
				H1318.3z"/>
			<path class="st3" d="M1325.7,28.2h12.8v2h-10.6v15.5h-2.2V28.2z"/>
			<path class="st3" d="M1338.7,37c0-5.3,4-8.9,9.9-8.9c5.9,0,9.9,3.6,9.9,8.9s-4,8.9-9.9,8.9C1342.7,45.9,1338.7,42.3,1338.7,37z
				 M1356.4,37c0-4.2-3-6.9-7.7-6.9c-4.6,0-7.7,2.7-7.7,6.9s3,6.9,7.7,6.9C1353.3,43.9,1356.4,41.2,1356.4,37z"/>
			<path class="st3" d="M1358.6,43.7h0.5c2.4,0,3.5-1.2,3.5-6.9v-8.6h14.1v17.5h-2.2V30.2h-9.9V37c0,6.7-1.7,8.7-5.3,8.7h-0.8V43.7z
				"/>
			<path class="st3" d="M1379.3,37c0-5.3,4-8.9,9.9-8.9c5.9,0,9.9,3.6,9.9,8.9s-4,8.9-9.9,8.9C1383.3,45.9,1379.3,42.3,1379.3,37z
				 M1397,37c0-4.2-3-6.9-7.7-6.9c-4.6,0-7.7,2.7-7.7,6.9s3,6.9,7.7,6.9C1393.9,43.9,1397,41.2,1397,37z"/>
			<path class="st3" d="M1401.8,28.2h8c3.9,0,6.1,1.7,6.1,4.6c0,1.9-0.9,3.1-2.8,3.8c2.4,0.5,3.7,1.8,3.7,4.1c0,3.2-2.4,5-6.9,5
				h-8.1V28.2z M1409.8,35.8c2.5,0,3.8-1,3.8-2.8c0-1.8-1.3-2.8-3.8-2.8h-5.9v5.6H1409.8z M1409.8,43.8c3.2,0,4.7-1,4.7-3
				c0-2-1.5-3-4.7-3h-5.9v6H1409.8z"/>
			<path class="st3" d="M1419.4,28.2h2.2v7.6h4.1l6.9-7.6h2.7l-7.7,8.5l8.2,9h-2.9l-7.2-7.9h-4.1v7.9h-2.2V28.2z"/>
			<path class="st3" d="M1435.8,37c0-5.3,4-8.9,9.9-8.9s9.9,3.6,9.9,8.9s-4,8.9-9.9,8.9S1435.8,42.3,1435.8,37z M1453.4,37
				c0-4.2-3-6.9-7.7-6.9s-7.7,2.7-7.7,6.9s3,6.9,7.7,6.9S1453.4,41.2,1453.4,37z"/>
			<path class="st3" d="M1458.2,28.2h8c3.9,0,6.1,1.7,6.1,4.6c0,1.9-0.9,3.1-2.8,3.8c2.4,0.5,3.7,1.8,3.7,4.1c0,3.2-2.4,5-6.9,5
				h-8.1V28.2z M1466.3,35.8c2.5,0,3.8-1,3.8-2.8c0-1.8-1.3-2.8-3.8-2.8h-5.9v5.6H1466.3z M1466.3,43.8c3.2,0,4.7-1,4.7-3
				c0-2-1.5-3-4.7-3h-5.9v6H1466.3z"/>
			<path class="st3" d="M1111.1,54.2h2.1v14.2l11.8-14.2h2v17.5h-2.1V57.6l-11.8,14.2h-2V54.2z"/>
			<path class="st3" d="M1137.5,54.2h8c3.9,0,6.1,1.7,6.1,4.6c0,1.9-0.9,3.1-2.8,3.8c2.4,0.5,3.7,1.8,3.7,4.1c0,3.2-2.4,5-6.9,5
				h-8.1V54.2z M1145.5,61.8c2.5,0,3.8-1,3.8-2.8c0-1.8-1.3-2.8-3.8-2.8h-5.9v5.6H1145.5z M1145.5,69.8c3.2,0,4.7-1,4.7-3
				c0-2-1.5-3-4.7-3h-5.9v6H1145.5z"/>
			<path class="st3" d="M1155.1,54.2h2.2v6.6h6.1c3.9,0,6.2,2,6.2,5.4c0,3.4-2.3,5.4-6.2,5.4h-8.3V54.2z M1163.2,69.7
				c2.7,0,4.1-1.2,4.1-3.4s-1.5-3.4-4.2-3.4h-5.9v6.9H1163.2z M1171.9,54.2h2.2v17.5h-2.2V54.2z"/>
			<path class="st3" d="M1177.3,54.2h8.5c3.8,0,6.2,2.1,6.2,5.4c0,3.3-2.4,5.4-6.2,5.4h-6.4v6.7h-2.2V54.2z M1185.9,63
				c2.4,0,4-1.3,4-3.4s-1.5-3.4-4-3.4h-6.4V63H1185.9z"/>
			<path class="st3" d="M1198.7,54.2h2.5l8,17.5h-2.4l-2.2-4.7h-9.6l-2.1,4.7h-2.3L1198.7,54.2z M1203.9,65l-3.9-8.7L1196,65H1203.9
				z"/>
			<path class="st3" d="M1210,66.5h2.2c0.1,2.2,2.1,3.4,5.7,3.4c3.3,0,5.2-1,5.2-3.1c0-2-1.7-3-4.9-3h-3.1v-1.9h3
				c2.8,0,4.6-1.1,4.6-3c0-1.8-1.7-2.8-4.8-2.8c-3.3,0-5.2,1-5.4,3.2h-2.2c0.1-3.2,3.2-5.2,7.7-5.2c4.4,0,7,1.7,7,4.6
				c0,2.1-1.2,3.4-3.3,3.9c2.3,0.4,3.8,1.9,3.8,4.1c0,3.2-2.9,5.2-7.5,5.2C1213,71.9,1210.1,69.9,1210,66.5z"/>
			<path class="st3" d="M1228.2,54.2h2.1v14.2l11.8-14.2h2v17.5h-2.2V57.6l-11.8,14.2h-2V54.2z"/>
			<path class="st3" d="M1253.4,56.2h-7v-2h16.1v2h-7v15.5h-2.2V56.2z"/>
			<path class="st3" d="M1264.8,54.2h13.2v2h-11v5.6h9.2v2h-9.2v5.9h11.4v2h-13.6V54.2z"/>
			<path class="st3" d="M1279.7,69.7h0.5c2.4,0,3.5-1.2,3.5-6.9v-8.6h14.1v17.5h-2.2V56.2h-9.9V63c0,6.7-1.7,8.7-5.3,8.7h-0.8V69.7z
				"/>
			<path class="st3" d="M1301.1,54.2h2.2v6.6h6.4c3.9,0,6.2,2,6.2,5.4c0,3.4-2.3,5.4-6.2,5.4h-8.6V54.2z M1309.5,69.7
				c2.7,0,4.1-1.2,4.1-3.4s-1.5-3.4-4.2-3.4h-6.2v6.9H1309.5z"/>
			<path class="st3" d="M1318.3,54.2h2.2v7.6h11.4v-7.6h2.2v17.5h-2.2v-7.9h-11.4v7.9h-2.2V54.2z"/>
			<path class="st3" d="M1336.6,63c0-5.3,4-8.9,9.9-8.9c5.9,0,9.9,3.6,9.9,8.9s-4,8.9-9.9,8.9C1340.6,71.9,1336.6,68.3,1336.6,63z
				 M1354.3,63c0-4.2-3-6.9-7.7-6.9c-4.6,0-7.7,2.7-7.7,6.9s3,6.9,7.7,6.9C1351.2,69.9,1354.3,67.2,1354.3,63z"/>
			<path class="st3" d="M1359.1,54.2h12.8v2h-10.6v15.5h-2.2V54.2z"/>
			<path class="st3" d="M1372.1,63c0-5.3,4-8.9,9.9-8.9c5.9,0,9.9,3.6,9.9,8.9s-4,8.9-9.9,8.9C1376.1,71.9,1372.1,68.3,1372.1,63z
				 M1389.8,63c0-4.2-3-6.9-7.7-6.9c-4.6,0-7.7,2.7-7.7,6.9s3,6.9,7.7,6.9C1386.7,69.9,1389.8,67.2,1389.8,63z"/>
			<path class="st3" d="M1407.7,56.2h-7v-2h16.1v2h-7v15.5h-2.2V56.2z"/>
			<path class="st3" d="M1419.1,54.2h13.2v2h-11v5.6h9.2v2h-9.2v5.9h11.4v2h-13.6V54.2z"/>
			<path class="st3" d="M1435,54.2h2.2v7.6h4.1l6.9-7.6h2.7l-7.7,8.5l8.2,9h-2.9l-7.2-7.9h-4.1v7.9h-2.2V54.2z"/>
			<path class="st3" d="M1451.3,63c0-5.3,3.9-8.9,9.9-8.9c4.6,0,7.8,2.1,8.7,5.9h-2.3c-0.9-2.5-3.1-3.9-6.5-3.9
				c-4.6,0-7.6,2.6-7.6,6.9s2.9,6.9,7.5,6.9c3.5,0,5.7-1.3,6.5-3.9h2.3c-0.9,3.7-4.1,5.9-8.8,5.9C1455.1,71.9,1451.3,68.4,1451.3,63
				z"/>
			<path class="st3" d="M1477.6,56.2h-7v-2h16.1v2h-7v15.5h-2.2V56.2z"/>
			<path class="st3" d="M1492.5,54.2h2.5l8,17.5h-2.4l-2.2-4.7h-9.6l-2.1,4.7h-2.3L1492.5,54.2z M1497.6,65l-3.9-8.7l-3.9,8.7
				H1497.6z"/>
		</g>
	</g>
</g>
</svg>
