<?xml version="1.0" encoding="utf-8"?>
<!-- Generator: Adobe Illustrator 22.0.0, SVG Export Plug-In . SVG Version: 6.00 Build 0)  -->
<svg version="1.1" id="Layer_1" xmlns="http://www.w3.org/2000/svg" xmlns:xlink="http://www.w3.org/1999/xlink" x="0px" y="0px"
	 viewBox="0 0 3000 2000" style="enable-background:new 0 0 3000 2000;" xml:space="preserve">
<style type="text/css">
	.st0{fill:#FFFFFF;}
</style>
<rect width="3000" height="2000"/>
<g>
	<polygon class="st0" points="838,548.4 907.7,548.4 977.4,548.4 1047.1,548.4 1047.1,478.7 1047.1,409 1047.1,339.4 1047.1,269.7 
		1047.1,200 977.4,200 907.7,200 838,200 768.3,200 698.7,200 698.7,269.7 698.7,339.4 698.7,409 698.7,478.7 698.7,548.4 
		768.3,548.4 	"/>
	<polygon class="st0" points="768.5,1591 698.8,1591 698.8,1660.6 698.8,1730.3 768.5,1730.3 768.5,1660.6 	"/>
	<rect x="768.5" y="1521.3" class="st0" width="69.7" height="69.7"/>
	<rect x="838.2" y="1451.6" class="st0" width="69.7" height="69.7"/>
	<polygon class="st0" points="838.2,1730.3 768.5,1730.3 768.5,1800 838.2,1800 907.9,1800 977.5,1800 977.5,1730.3 907.9,1730.3 	
		"/>
	<rect x="907.9" y="1521.3" class="st0" width="69.7" height="69.7"/>
	<polygon class="st0" points="977.5,1660.6 977.5,1730.3 1047.2,1730.3 1047.2,1660.6 1047.2,1591 977.5,1591 	"/>
	<path class="st0" d="M1813.7,1451.6h-69.7v69.7h-69.7v-69.7h-69.7v69.7H1535v69.7v69.7v0c0,38.5,31.2,69.7,69.7,69.7h0h69.7v69.7
		h69.7v-69.7h69.7h0c38.5,0,69.7-31.2,69.7-69.7v0V1591v-69.7h-69.7V1451.6z M1813.7,1660.6h-69.7h-69.7h-69.7V1591h69.7h69.7h69.7
		V1660.6z"/>
	<polygon class="st0" points="2162.1,1451.6 2092.5,1451.6 2092.5,1521.3 2022.8,1521.3 2022.8,1591 2092.5,1591 2092.5,1660.6 
		2162.1,1660.6 2162.1,1591 2231.8,1591 2231.8,1521.3 2162.1,1521.3 	"/>
	<polygon class="st0" points="2092.5,1730.3 2022.8,1730.3 2022.8,1800 2092.5,1800 2162.1,1800 2231.8,1800 2231.8,1730.3 
		2162.1,1730.3 	"/>
	<rect x="1116.7" y="200" class="st0" width="69.7" height="69.7"/>
	<rect x="1116.7" y="478.7" class="st0" width="69.7" height="69.7"/>
	<polygon class="st0" points="1256.1,548.4 1325.8,548.4 1325.8,478.7 1395.5,478.7 1395.5,409 1465.2,409 1465.2,339.4 
		1395.5,339.4 1395.5,269.7 1325.8,269.7 1325.8,200 1256.1,200 1256.1,269.7 1186.4,269.7 1186.4,339.4 1116.7,339.4 1116.7,409 
		1186.4,409 1186.4,478.7 1256.1,478.7 	"/>
	<rect x="1395.5" y="200" class="st0" width="69.7" height="69.7"/>
	<rect x="1395.5" y="478.7" class="st0" width="69.7" height="69.7"/>
	<polygon class="st0" points="1674.2,269.7 1743.9,269.7 1813.6,269.7 1883.3,269.7 1883.3,200 1813.6,200 1743.9,200 1674.2,200 
		1604.5,200 1534.8,200 1534.8,269.7 1604.5,269.7 	"/>
	<polygon class="st0" points="1674.2,409 1743.9,409 1813.6,409 1883.3,409 1883.3,339.4 1813.6,339.4 1743.9,339.4 1674.2,339.4 
		1604.5,339.4 1534.8,339.4 1534.8,409 1604.5,409 	"/>
	<polygon class="st0" points="1674.2,548.4 1743.9,548.4 1813.6,548.4 1883.3,548.4 1883.3,478.7 1813.6,478.7 1743.9,478.7 
		1674.2,478.7 1604.5,478.7 1534.8,478.7 1534.8,548.4 1604.5,548.4 	"/>
	<rect x="1952.9" y="339.4" class="st0" width="69.7" height="69.7"/>
	<rect x="2092.3" y="339.4" class="st0" width="69.7" height="69.7"/>
	<polygon class="st0" points="2162,478.7 2092.3,478.7 2022.6,478.7 1952.9,478.7 1952.9,548.4 2022.6,548.4 2092.3,548.4 
		2162,548.4 2231.7,548.4 2301.3,548.4 2301.3,478.7 2231.7,478.7 	"/>
	<polygon class="st0" points="2231.7,200 2162,200 2092.3,200 2022.6,200 1952.9,200 1952.9,269.7 2022.6,269.7 2092.3,269.7 
		2162,269.7 2231.7,269.7 2301.3,269.7 2301.3,200 	"/>
	<rect x="2231.7" y="339.4" class="st0" width="69.7" height="69.7"/>
	<polygon class="st0" points="768.3,827.1 768.3,757.5 768.3,687.8 698.7,687.8 698.7,757.5 698.7,827.1 698.7,896.8 768.3,896.8 	
		"/>
	<polygon class="st0" points="907.7,687.8 977.4,687.8 977.4,618.1 907.7,618.1 838,618.1 768.3,618.1 768.3,687.8 838,687.8 	"/>
	<polygon class="st0" points="838,896.8 768.3,896.8 768.3,966.5 838,966.5 907.7,966.5 977.4,966.5 977.4,896.8 907.7,896.8 	"/>
	<polygon class="st0" points="977.4,827.1 977.4,896.8 1047.1,896.8 1047.1,827.1 1047.1,757.5 1047.1,687.8 977.4,687.8 
		977.4,757.5 	"/>
	<path class="st0" d="M1186.4,966.5L1186.4,966.5h69.7v-69.7h-69.7v-69.7v-69.7v-69.7h69.7h69.7h69.7v69.7v69.7h-69.7h-69.7v69.7
		h69.7h69.7h69.7v-69.7v-69.7v-69.7v-69.7h-69.7h-69.7h-69.7h-69.7h-69.7v69.7v69.7v69.7v69.7v0
		C1116.7,935.3,1147.9,966.5,1186.4,966.5z"/>
	<path class="st0" d="M1604.5,966.5L1604.5,966.5h69.7h69.7h69.7h0c38.5,0,69.7-31.2,69.7-69.7v0v-69.7v-69.7v-69.7v0
		c0-38.5-31.2-69.7-69.7-69.7h0h-69.7h-69.7h-69.7l0,0c-38.5,0-69.7,31.2-69.7,69.7v0v69.7v69.7v69.7v0
		C1534.8,935.3,1566,966.5,1604.5,966.5z M1604.5,827.1v-69.7v-69.7h69.7h69.7h69.7v69.7v69.7v69.7h-69.7h-69.7h-69.7V827.1z"/>
	<rect x="1674.2" y="757.5" class="st0" width="69.7" height="69.7"/>
	<rect x="1952.9" y="618.1" class="st0" width="69.7" height="69.7"/>
	<polygon class="st0" points="2092.3,757.5 2022.6,757.5 2022.6,827.1 1952.9,827.1 1952.9,896.8 2022.6,896.8 2022.6,966.5 
		2092.3,966.5 2092.3,896.8 2162,896.8 2162,827.1 2092.3,827.1 	"/>
	<polygon class="st0" points="2231.7,618.1 2162,618.1 2162,687.8 2092.3,687.8 2092.3,757.5 2162,757.5 2162,827.1 2231.7,827.1 
		2231.7,757.5 2301.3,757.5 2301.3,687.8 2231.7,687.8 	"/>
	<rect x="2231.7" y="896.8" class="st0" width="69.7" height="69.7"/>
	<rect x="768.3" y="1105.9" class="st0" width="69.7" height="69.7"/>
	<polygon class="st0" points="838,1384.6 907.7,1384.6 977.4,1384.6 1047.1,1384.6 1047.1,1314.9 977.4,1314.9 907.7,1314.9 
		907.7,1245.2 907.7,1175.6 838,1175.6 838,1245.2 838,1314.9 768.3,1314.9 698.7,1314.9 698.7,1384.6 768.3,1384.6 	"/>
	<polygon class="st0" points="977.4,1105.9 977.4,1036.2 907.7,1036.2 907.7,1105.9 907.7,1175.6 977.4,1175.6 	"/>
	<polygon class="st0" points="1256.1,1245.2 1256.1,1175.6 1186.4,1175.6 1116.7,1175.6 1116.7,1245.2 1186.4,1245.2 	"/>
	<polygon class="st0" points="1325.8,1105.9 1325.8,1036.2 1256.1,1036.2 1256.1,1105.9 1256.1,1175.6 1325.8,1175.6 	"/>
	<polygon class="st0" points="1256.1,1314.9 1256.1,1384.6 1325.8,1384.6 1325.8,1314.9 1325.8,1245.2 1256.1,1245.2 	"/>
	<polygon class="st0" points="1395.5,1245.2 1465.2,1245.2 1465.2,1175.6 1395.5,1175.6 1325.8,1175.6 1325.8,1245.2 	"/>
	<rect x="1534.8" y="1036.2" class="st0" width="69.7" height="69.7"/>
	<rect x="1534.8" y="1175.6" class="st0" width="69.7" height="69.7"/>
	<rect x="1534.8" y="1314.9" class="st0" width="69.7" height="69.7"/>
	<rect x="1674.2" y="1036.2" class="st0" width="69.7" height="69.7"/>
	<rect x="1674.2" y="1175.6" class="st0" width="69.7" height="69.7"/>
	<rect x="1674.2" y="1314.9" class="st0" width="69.7" height="69.7"/>
	<rect x="1813.6" y="1036.2" class="st0" width="69.7" height="69.7"/>
	<rect x="1813.6" y="1175.6" class="st0" width="69.7" height="69.7"/>
	<rect x="1813.6" y="1314.9" class="st0" width="69.7" height="69.7"/>
	<rect x="1952.9" y="1036.2" class="st0" width="69.7" height="69.7"/>
	<rect x="1952.9" y="1314.9" class="st0" width="69.7" height="69.7"/>
	<path class="st0" d="M2092.3,1314.9L2092.3,1314.9h69.7l0,0c38.5,0,69.7-31.2,69.7-69.7v0v-69.7v0c0-38.5-31.2-69.7-69.7-69.7l0,0
		h-69.7l0,0c-38.5,0-69.7,31.2-69.7,69.7v0v69.7v0C2022.6,1283.7,2053.8,1314.9,2092.3,1314.9z M2092.3,1175.6h69.7v69.7h-69.7
		V1175.6z"/>
	<rect x="2231.7" y="1036.2" class="st0" width="69.7" height="69.7"/>
	<rect x="2231.7" y="1314.9" class="st0" width="69.7" height="69.7"/>
	<path class="st0" d="M1395.6,1451.6L1395.6,1451.6H1326h-69.7h-69.7l0,0c-38.5,0-69.7,31.2-69.7,69.7l0,0v69.7v0
		c0,38.5,31.2,69.7,69.7,69.7l0,0h69.7v69.7h-69.7h-69.7v69.7h69.7h69.7h69.7h69.7h69.7v-69.7h-69.7H1326v-69.7h69.7l0,0
		c38.5,0,69.7-31.2,69.7-69.7v0v-69.7l0,0C1465.3,1482.8,1434.1,1451.6,1395.6,1451.6z M1395.6,1591H1326h-69.7h-69.7v-69.7h69.7
		h69.7h69.7V1591z"/>
</g>
</svg>
