<?xml version="1.0" encoding="utf-8"?>
<!-- Generator: Adobe Illustrator 22.0.0, SVG Export Plug-In . SVG Version: 6.00 Build 0)  -->
<svg version="1.1" id="Layer_1" xmlns="http://www.w3.org/2000/svg" xmlns:xlink="http://www.w3.org/1999/xlink" x="0px" y="0px"
	 viewBox="0 0 48 48" style="enable-background:new 0 0 48 48;" xml:space="preserve">
<style type="text/css">
	.st0{fill:#F3F3F3;}
	.st1{fill:#A292FF;}
	.st2{fill:none;stroke:#A292FF;stroke-width:2;stroke-linecap:round;stroke-miterlimit:10;}
</style>
<circle class="st0" cx="24" cy="24" r="23.5"/>
<path class="st1" d="M23.1,36.8c0.6,0.2,1.2,0.2,1.7,0c4-1.7,10.4-7.5,10.4-17.8c0-0.9-0.5-1.7-1.4-2.1l-9-3.8
	C24.6,13.1,24.3,13,24,13s-0.6,0.1-0.9,0.2l-9,3.8c-0.8,0.3-1.4,1.2-1.4,2.1C12.8,28.3,18.1,34.7,23.1,36.8z M24,15.3l9,3.7
	c0,8.1-4.6,13.9-9,15.8c-4.6-1.9-9-7.8-9-15.8L24,15.3z"/>
<polyline class="st2" points="20.6,24.8 23.1,27.2 27.5,22.8 "/>
</svg>
