<?xml version="1.0" encoding="utf-8"?>
<!-- Generator: Adobe Illustrator 22.0.0, SVG Export Plug-In . SVG Version: 6.00 Build 0)  -->
<svg version="1.1" id="Layer_1" xmlns="http://www.w3.org/2000/svg" xmlns:xlink="http://www.w3.org/1999/xlink" x="0px" y="0px"
	 viewBox="0 0 90 90" style="enable-background:new 0 0 90 90;" xml:space="preserve">
<style type="text/css">
	.st0{fill:#2F2F31;}
	.st1{fill:#F3F3F3;}
	.st2{fill:#ACACAD;}
</style>
<path class="st0" d="M81.9,90H8.1C3.6,90,0,86.4,0,81.9V8.1C0,3.6,3.6,0,8.1,0h73.8C86.4,0,90,3.6,90,8.1v73.8
	C90,86.4,86.4,90,81.9,90z"/>
<g>
	<g>
		<circle class="st1" cx="45" cy="44.6" r="2.5"/>
	</g>
	<g>
		<path class="st1" d="M45,57c-6.6,0-12-5.4-12-12s5.4-12,12-12s12,5.4,12,12S51.6,57,45,57z M45,37c-4.4,0-8,3.6-8,8s3.6,8,8,8
			s8-3.6,8-8S49.4,37,45,37z"/>
	</g>
	<g>
		<path class="st2" d="M45,66.5c-11.9,0-21.5-9.6-21.5-21.5S33.1,23.5,45,23.5S66.5,33.1,66.5,45S56.9,66.5,45,66.5z M45,27.5
			c-9.6,0-17.5,7.9-17.5,17.5S35.4,62.5,45,62.5S62.5,54.6,62.5,45S54.6,27.5,45,27.5z"/>
	</g>
</g>
</svg>
