<?xml version="1.0" encoding="utf-8"?>
<!-- Generator: Adobe Illustrator 22.0.0, SVG Export Plug-In . SVG Version: 6.00 Build 0)  -->
<svg version="1.1" id="Layer_1" xmlns="http://www.w3.org/2000/svg" xmlns:xlink="http://www.w3.org/1999/xlink" x="0px" y="0px"
	 viewBox="0 0 478.7 235" style="enable-background:new 0 0 478.7 235;" xml:space="preserve">
<style type="text/css">
	.st0{fill:#2F2F31;}
	.st1{fill:#FFFFFF;}
	.st2{fill:none;stroke:#FFFFFF;stroke-width:6;stroke-miterlimit:10;}
</style>
<g>
	<g>
		<polygon class="st0" points="188.9,65.8 168.8,94.4 188.7,100.3 198.5,68.7 		"/>
	</g>
	<g>
		<g>
			<path class="st0" d="M148.6,107.7c-1.4,0-2.7-0.2-4.1-0.6l-110-32.5c-6.2-1.8-9.7-8.2-7.8-14.3L43,8.1c0.9-2.9,2.9-5.3,5.7-6.8
				s5.9-1.7,8.9-0.9l129.9,38.4c3.1,0.9,5.5,3.2,6.6,6.2c1.1,3,0.7,6.2-1.1,8.8l-32.9,47.7C157.5,105.5,153.1,107.7,148.6,107.7z
				 M146.2,101.8c3.5,1,7.3-0.3,9.3-3.2l32.9-47.7c0.8-1.2,1-2.6,0.5-4c-0.5-1.3-1.6-2.3-3-2.8L56,5.7c-1.6-0.5-3.2-0.3-4.7,0.4
				c-1.4,0.8-2.5,2-3,3.5L32.1,61.9c-0.5,1.5-0.3,3.1,0.5,4.5s2.1,2.4,3.6,2.9L146.2,101.8z"/>
		</g>
		<g>
			<path class="st0" d="M106.8,36.4c-0.3,0-0.5,0-0.8-0.1l-50.7-15c-1.5-0.4-2.3-2-1.9-3.4c0.4-1.4,2-2.3,3.5-1.8l50.7,15
				c1.5,0.4,2.3,2,1.9,3.4C109.1,35.6,108,36.4,106.8,36.4z"/>
		</g>
		<g>
			<path class="st0" d="M84.3,122.8H5.6c-1.5,0-2.8-1.2-2.8-2.7c0-1.5,1.3-2.7,2.8-2.7h73.1V85.6c0-1.5,1.3-2.7,2.8-2.7
				c1.5,0,2.8,1.2,2.8,2.7V122.8z"/>
		</g>
		<g>
			<path class="st0" d="M2.8,152.9c-1.5,0-2.8-1.2-2.8-2.7V53.8c0-1.5,1.3-2.7,2.8-2.7s2.8,1.2,2.8,2.7v96.3
				C5.6,151.6,4.3,152.9,2.8,152.9z"/>
		</g>
	</g>
	<g>
		<rect x="2.8" y="104.9" class="st0" width="78.7" height="15.2"/>
	</g>
</g>
<path class="st0" d="M467.3,233H255.1c-5.2,0-9.4-4.2-9.4-9.4V11.4c0-5.2,4.2-9.4,9.4-9.4h212.2c5.2,0,9.4,4.2,9.4,9.4v212.2
	C476.7,228.8,472.5,233,467.3,233z"/>
<g>
	<g>
		<path class="st1" d="M274.9,35.2h8.8v71.2h-8.8V35.2z"/>
		<path class="st1" d="M297.5,35.2h27.4c14.2,0,23.6,8.5,23.6,21.9s-9.4,22-23.6,22h-18.5v27.4h-8.8V35.2H297.5z M306.4,43.4V71
			h17.7c9.4,0,15.4-5.4,15.4-13.8s-5.9-13.7-15.3-13.7L306.4,43.4L306.4,43.4z"/>
	</g>
	<g>
		<line class="st2" x1="274.9" y1="140.9" x2="447.4" y2="140.9"/>
		<line class="st2" x1="274.9" y1="199.8" x2="447.4" y2="199.8"/>
		<line class="st2" x1="274.9" y1="170.4" x2="447.4" y2="170.4"/>
	</g>
</g>
</svg>
