<?xml version="1.0" encoding="utf-8"?>
<!-- Generator: Adobe Illustrator 22.0.0, SVG Export Plug-In . SVG Version: 6.00 Build 0)  -->
<svg version="1.1" id="Layer_1" xmlns="http://www.w3.org/2000/svg" xmlns:xlink="http://www.w3.org/1999/xlink" x="0px" y="0px"
	 viewBox="0 0 90 90" style="enable-background:new 0 0 90 90;" xml:space="preserve">
<style type="text/css">
	.st0{fill:#2F2F31;}
	.st1{fill:#F3F3F3;}
	.st2{fill:#ACACAD;}
</style>
<path class="st0" d="M81.9,90H8.1C3.6,90,0,86.4,0,81.9V8.1C0,3.6,3.6,0,8.1,0h73.8C86.4,0,90,3.6,90,8.1v73.8
	C90,86.4,86.4,90,81.9,90z"/>
<g>
	<g>
		<g>
			<path class="st1" d="M27.1,58.3c-0.6,0-1.3-0.2-1.8-0.7c-1-1-1-2.6,0-3.5l28-28c1-1,2.6-1,3.5,0c1,1,1,2.6,0,3.5l-28,28
				C28.3,58.1,27.7,58.3,27.1,58.3z"/>
		</g>
		<g>
			<path class="st1" d="M34.8,65c-0.6,0-1.3-0.2-1.8-0.7c-1-1-1-2.6,0-3.5l28-28c1-1,2.6-1,3.5,0c1,1,1,2.6,0,3.5l-28,28
				C36,64.8,35.4,65,34.8,65z"/>
		</g>
	</g>
	<g>
		<g>
			<path class="st2" d="M48.4,65.7c-0.6,0-1.3-0.2-1.8-0.7c-1-1-1-2.6,0-3.5l14.5-14.5c1-1,2.6-1,3.5,0c1,1,1,2.6,0,3.5L50.2,65
				C49.7,65.5,49.1,65.7,48.4,65.7z"/>
		</g>
		<g>
			<path class="st2" d="M27.4,43.6c-0.6,0-1.3-0.2-1.8-0.7c-1-1-1-2.6,0-3.5l14.5-14.5c1-1,2.6-1,3.5,0c1,1,1,2.6,0,3.5L29.1,42.9
				C28.6,43.4,28,43.6,27.4,43.6z"/>
		</g>
	</g>
	<g>
		<g>
			<g>
				<g>
					<circle class="st2" cx="27.7" cy="26.6" r="2.5"/>
				</g>
			</g>
			<g>
				<g>
					<circle class="st2" cx="62.7" cy="63.4" r="2.5"/>
				</g>
			</g>
		</g>
	</g>
</g>
</svg>
