<?xml version="1.0" encoding="utf-8"?>
<!-- Generator: Adobe Illustrator 22.0.0, SVG Export Plug-In . SVG Version: 6.00 Build 0)  -->
<svg version="1.1" id="Layer_1" xmlns="http://www.w3.org/2000/svg" xmlns:xlink="http://www.w3.org/1999/xlink" x="0px" y="0px"
	 viewBox="0 0 48 48" style="enable-background:new 0 0 48 48;" xml:space="preserve">
<style type="text/css">
	.st0{fill:#F3F3F3;}
	.st1{fill:#AE97FD;}
</style>
<circle class="st0" cx="24" cy="24" r="23.5"/>
<g>
	<path class="st1" d="M35.9,23.1h-3c-0.2,0-0.5,0.1-0.6,0.3C32.1,23.5,32,23.8,32,24c0,0.2,0.1,0.5,0.3,0.6s0.4,0.3,0.6,0.3h3
		c0.2,0,0.5-0.1,0.6-0.3s0.3-0.4,0.3-0.6c0-0.2-0.1-0.5-0.3-0.6C36.4,23.2,36.1,23.1,35.9,23.1z M32.9,19.8c0.2,0,0.4-0.1,0.5-0.2
		l1.8-1.2c0.1-0.1,0.2-0.1,0.3-0.2s0.1-0.2,0.1-0.3s0-0.2,0-0.4c0-0.1-0.1-0.2-0.1-0.3c-0.1-0.1-0.2-0.2-0.3-0.3
		c-0.1-0.1-0.2-0.1-0.3-0.1c-0.1,0-0.2,0-0.4,0c-0.1,0-0.2,0.1-0.3,0.1l-1.8,1.2c-0.2,0.1-0.3,0.3-0.3,0.4C32,18.8,32,19,32,19.2
		c0.1,0.2,0.2,0.3,0.3,0.5C32.5,19.7,32.7,19.8,32.9,19.8z M33.4,28.4c-0.1-0.1-0.2-0.1-0.3-0.1s-0.2,0-0.4,0
		c-0.1,0-0.2,0.1-0.3,0.1c-0.1,0.1-0.2,0.2-0.2,0.2c-0.1,0.1-0.1,0.2-0.1,0.3c0,0.1,0,0.2,0,0.4c0,0.1,0.1,0.2,0.1,0.3
		c0.1,0.1,0.2,0.2,0.2,0.2l1.8,1.2c0.1,0.1,0.2,0.1,0.3,0.1s0.2,0,0.4,0s0.2-0.1,0.3-0.1c0.1-0.1,0.2-0.2,0.2-0.2
		c0.1-0.1,0.1-0.2,0.1-0.3c0-0.1,0-0.2,0-0.4s-0.1-0.2-0.1-0.3c-0.1-0.1-0.2-0.2-0.2-0.2L33.4,28.4z M17.3,19.2
		c-0.2,0-0.5,0.1-0.6,0.3s-0.3,0.4-0.3,0.6v4.2c0,0.2,0.1,0.5,0.3,0.6c0.2,0.2,0.4,0.3,0.6,0.3s0.5-0.1,0.6-0.3
		c0.2-0.2,0.3-0.4,0.3-0.6v-4.2c0-0.2-0.1-0.5-0.3-0.6S17.5,19.2,17.3,19.2L17.3,19.2z M20.3,19.2c-0.2,0-0.5,0.1-0.6,0.3
		s-0.3,0.4-0.3,0.6v4.2c0,0.2,0.1,0.5,0.3,0.6c0.2,0.2,0.4,0.3,0.6,0.3s0.5-0.1,0.6-0.3c0.2-0.2,0.3-0.4,0.3-0.6v-4.2
		c0-0.2-0.1-0.5-0.3-0.6S20.5,19.2,20.3,19.2L20.3,19.2z M27.2,15.6h-12c-0.6,0-1.2,0.3-1.7,0.7c-0.4,0.5-0.7,1.1-0.7,1.7v12
		c0,0.6,0.3,1.2,0.7,1.7c0.5,0.5,1.1,0.7,1.7,0.7h12c0.6,0,1.2-0.3,1.7-0.7c0.5-0.5,0.7-1.1,0.7-1.7V18c0-0.6-0.3-1.2-0.7-1.7
		C28.4,15.9,27.8,15.6,27.2,15.6z M27.8,30c0,0.2-0.1,0.3-0.2,0.4c-0.1,0.1-0.3,0.2-0.4,0.2h-12c-0.2,0-0.3-0.1-0.4-0.2
		c-0.1-0.1-0.2-0.3-0.2-0.4V18c0-0.2,0.1-0.3,0.2-0.4c0.1-0.1,0.3-0.2,0.4-0.2h12c0.2,0,0.3,0.1,0.4,0.2c0.1,0.1,0.2,0.3,0.2,0.4V30
		z"/>
</g>
</svg>
