<?xml version="1.0" encoding="utf-8"?>
<!-- Generator: Adobe Illustrator 22.0.0, SVG Export Plug-In . SVG Version: 6.00 Build 0)  -->
<svg version="1.1" id="Layer_1" xmlns="http://www.w3.org/2000/svg" xmlns:xlink="http://www.w3.org/1999/xlink" x="0px" y="0px"
	 viewBox="0 0 48 48" style="enable-background:new 0 0 48 48;" xml:space="preserve">
<style type="text/css">
	.st0{fill:#F3F3F3;}
	.st1{fill:#AE97FD;}
</style>
<circle class="st0" cx="24" cy="24" r="23.5"/>
<path class="st1" d="M31.5,21.3h-1.4v-2c0-3.4-2.7-6.2-6.1-6.2s-6.1,2.8-6.1,6.2v2.1h-1.4c-1.1,0-2,0.9-2,2.1v9.6
	c0,1.1,0.9,2.1,2,2.1h14.9c1.1,0,2-0.9,2-2.1v-9.6C33.5,22.2,32.6,21.3,31.5,21.3z M19.9,19.2c0-2.3,1.8-4.1,4.1-4.1
	s4.1,1.9,4.1,4.1v2.1h-8.1V19.2z M31.5,32.9H16.5v-9.6h14.9V32.9z"/>
</svg>
