<?xml version="1.0" encoding="utf-8"?>
<!-- Generator: Adobe Illustrator 22.0.0, SVG Export Plug-In . SVG Version: 6.00 Build 0)  -->
<svg version="1.1" id="Layer_1" xmlns="http://www.w3.org/2000/svg" xmlns:xlink="http://www.w3.org/1999/xlink" x="0px" y="0px"
	 viewBox="0 0 48 48" style="enable-background:new 0 0 48 48;" xml:space="preserve">
<style type="text/css">
	.st0{fill:#F3F3F3;}
	.st1{fill:#AE97FD;}
</style>
<circle class="st0" cx="24" cy="24" r="23.5"/>
<path class="st1" d="M22.5,27.8V21c0-0.8-0.7-1.5-1.5-1.5h-2.3c-1.7,0-3,1.3-3,3v3.7c0,1.7,1.3,3,3,3H21
	C21.8,29.3,22.5,28.6,22.5,27.8z M20.3,27h-1.5c-0.4,0-0.8-0.3-0.8-0.8v-3.7c0-0.4,0.3-0.8,0.8-0.8h1.5V27z M24,12
	c-6.7,0-11.8,5.6-12,12v0.8c0,0.4,0.3,0.8,0.8,0.8h0.8c0.4,0,0.8-0.3,0.8-0.8V24c0-5.4,4.4-9.8,9.8-9.8s9.8,4.4,9.8,9.8h0
	c0,0.1,0,7.8,0,7.8c0,1.1-0.9,2-2,2H27c0-1.2-1-2.3-2.3-2.3h-1.5c-1.2,0-2.3,1-2.3,2.3s1,2.3,2.3,2.3h8.5c2.3,0,4.2-1.9,4.2-4.2V24
	C35.8,17.6,30.7,12,24,12z M29.3,29.3c1.7,0,3-1.3,3-3v-3.7c0-1.7-1.3-3-3-3H27c-0.8,0-1.5,0.7-1.5,1.5v6.7c0,0.8,0.7,1.5,1.5,1.5
	H29.3z M27.8,21.8h1.5c0.4,0,0.8,0.3,0.8,0.8v3.7c0,0.4-0.3,0.8-0.8,0.8h-1.5V21.8z"/>
</svg>
