<?xml version="1.0" encoding="utf-8"?>
<!-- Generator: Adobe Illustrator 22.0.0, SVG Export Plug-In . SVG Version: 6.00 Build 0)  -->
<svg version="1.1" id="Layer_1" xmlns="http://www.w3.org/2000/svg" xmlns:xlink="http://www.w3.org/1999/xlink" x="0px" y="0px"
	 viewBox="0 0 48 48" style="enable-background:new 0 0 48 48;" xml:space="preserve">
<style type="text/css">
	.st0{fill:#F3F3F3;}
	.st1{fill:#A292FF;}
</style>
<circle class="st0" cx="24" cy="24" r="23.5"/>
<path class="st1" d="M28.4,26.6h-2.5c-0.7,0-1.3,0.6-1.3,1.3v5.1c0,0.7,0.6,1.3,1.3,1.3h2.5c0.7,0,1.3-0.6,1.3-1.3v-5.1
	C29.7,27.2,29.1,26.6,28.4,26.6z M27.8,32.3h-1.3v-3.8h1.3V32.3z M34.7,21.6h-2.5c-0.7,0-1.3,0.6-1.3,1.3v10.1
	c0,0.7,0.6,1.3,1.3,1.3h2.5c0.7,0,1.3-0.6,1.3-1.3V22.8C36,22.1,35.4,21.6,34.7,21.6z M34.1,32.3h-1.3v-8.8h1.3V32.3z M22.1,21.6
	h-2.5c-0.7,0-1.3,0.6-1.3,1.3v10.1c0,0.7,0.6,1.3,1.3,1.3h2.5c0.7,0,1.3-0.6,1.3-1.3V22.8C23.4,22.1,22.8,21.6,22.1,21.6z
	 M21.5,32.3h-1.3v-8.8h1.3V32.3z M15.8,27.9h-2.5c-0.7,0-1.3,0.6-1.3,1.3v3.8c0,0.7,0.6,1.3,1.3,1.3h2.5c0.7,0,1.3-0.6,1.3-1.3v-3.8
	C17.1,28.5,16.5,27.9,15.8,27.9z M15.2,32.3h-1.3v-2.5h1.3V32.3z M14.5,24.1c1,0,1.9-0.8,1.9-1.9c0-0.2,0-0.3-0.1-0.5l4-4
	c0.2,0,0.3,0.1,0.5,0.1c0.2,0,0.5,0,0.7-0.1l3.8,3c0,0.1,0,0.2,0,0.3c0,1,0.8,1.9,1.9,1.9c1,0,1.9-0.8,1.9-1.9c0-0.1,0-0.2,0-0.3
	l3.8-3c0.2,0.1,0.4,0.1,0.7,0.1c1,0,1.9-0.8,1.9-1.9c0-1-0.8-1.9-1.9-1.9c-1,0-1.9,0.8-1.9,1.9c0,0.1,0,0.2,0,0.3l-3.8,3
	c-0.2-0.1-0.4-0.1-0.7-0.1s-0.5,0-0.7,0.1l-3.8-3c0-0.1,0-0.2,0-0.3c0-1-0.8-1.9-1.9-1.9c-1,0-1.9,0.8-1.9,1.9c0,0.2,0,0.3,0.1,0.5
	l-4,4c-0.2,0-0.3-0.1-0.5-0.1c-1,0-1.9,0.8-1.9,1.9C12.6,23.3,13.5,24.1,14.5,24.1z"/>
</svg>
