<?xml version="1.0" encoding="utf-8"?>
<!-- Generator: Adobe Illustrator 22.0.0, SVG Export Plug-In . SVG Version: 6.00 Build 0)  -->
<svg version="1.1" id="Layer_1" xmlns="http://www.w3.org/2000/svg" xmlns:xlink="http://www.w3.org/1999/xlink" x="0px" y="0px"
	 viewBox="0 0 48 48" style="enable-background:new 0 0 48 48;" xml:space="preserve">
<style type="text/css">
	.st0{fill:#F3F3F3;}
	.st1{fill:#AE97FD;}
</style>
<circle class="st0" cx="24" cy="24" r="23.5"/>
<g>
	<path class="st1" d="M15.4,17.9c0.1,0.1,0.2,0.1,0.3,0.1c0.1,0,0.2,0,0.4,0c0.1,0,0.2-0.1,0.3-0.1c0.1-0.1,0.2-0.2,0.3-0.3
		c0.1-0.1,0.1-0.2,0.1-0.3c0-0.1,0-0.2,0-0.4c0-0.1-0.1-0.2-0.1-0.3c-0.1-0.1-0.2-0.2-0.3-0.2l-1.8-1.2c-0.1-0.1-0.2-0.1-0.3-0.1
		c-0.1,0-0.2,0-0.4,0c-0.1,0-0.2,0.1-0.3,0.1c-0.1,0.1-0.2,0.2-0.3,0.3c-0.1,0.1-0.1,0.2-0.1,0.3c0,0.1,0,0.2,0,0.4
		c0,0.1,0.1,0.2,0.1,0.3c0.1,0.1,0.2,0.2,0.3,0.2L15.4,17.9z M32.1,18c0.2,0,0.4-0.1,0.5-0.1l1.8-1.2c0.1-0.1,0.2-0.1,0.3-0.2
		c0.1-0.1,0.1-0.2,0.1-0.3c0-0.1,0-0.2,0-0.4c0-0.1-0.1-0.2-0.1-0.3c-0.1-0.1-0.2-0.2-0.3-0.3c-0.1-0.1-0.2-0.1-0.3-0.1
		c-0.1,0-0.2,0-0.4,0c-0.1,0-0.2,0.1-0.3,0.1l-1.8,1.2c-0.2,0.1-0.3,0.3-0.3,0.4c-0.1,0.2-0.1,0.4,0,0.6c0.1,0.2,0.2,0.3,0.3,0.5
		C31.7,17.9,31.9,18,32.1,18L32.1,18z M16.2,22.2c0-0.2-0.1-0.5-0.3-0.6c-0.2-0.2-0.4-0.3-0.6-0.3h-2.4c-0.2,0-0.5,0.1-0.6,0.3
		C12.1,21.7,12,22,12,22.2c0,0.2,0.1,0.5,0.3,0.6c0.2,0.2,0.4,0.3,0.6,0.3h2.4c0.2,0,0.5-0.1,0.6-0.3C16.1,22.7,16.2,22.4,16.2,22.2
		L16.2,22.2z M35.1,21.3h-2.4c-0.2,0-0.5,0.1-0.6,0.3c-0.2,0.2-0.3,0.4-0.3,0.6c0,0.2,0.1,0.5,0.3,0.6c0.2,0.2,0.4,0.3,0.6,0.3h2.4
		c0.2,0,0.5-0.1,0.6-0.3s0.3-0.4,0.3-0.6c0-0.2-0.1-0.5-0.3-0.6C35.6,21.4,35.3,21.3,35.1,21.3z M31.2,27.6l-0.8-7.8
		c-0.1-0.7-0.4-1.3-0.9-1.7c-0.5-0.4-1.1-0.7-1.8-0.7h-7.4c-0.7,0-1.3,0.2-1.8,0.7c-0.5,0.4-0.8,1-0.9,1.7l-0.8,7.8
		c-0.3,0-0.6,0.1-0.8,0.4c-0.2,0.2-0.4,0.5-0.4,0.8v3c0,0.3,0.1,0.6,0.4,0.8c0.2,0.2,0.5,0.4,0.8,0.4h14.4c0.3,0,0.6-0.1,0.8-0.4
		c0.2-0.2,0.4-0.5,0.4-0.8v-3c0-0.3-0.1-0.6-0.4-0.8C31.8,27.7,31.5,27.6,31.2,27.6z M19.4,20c0-0.2,0.1-0.4,0.3-0.6
		c0.2-0.1,0.4-0.2,0.6-0.2h7.4c0.2,0,0.4,0.1,0.6,0.2c0.2,0.1,0.3,0.3,0.3,0.6l0.8,7.6h-7.9l0.7-6.8c0,0,0-0.1,0-0.1
		c0,0,0-0.1-0.1-0.1c0,0-0.1-0.1-0.1-0.1s-0.1,0-0.1,0l-0.6-0.1c0,0,0,0,0,0c-0.1,0-0.1,0-0.2,0.1c-0.1,0-0.1,0.1-0.1,0.2l-0.8,6.9
		h-1.6L19.4,20z M30.6,31.2H17.4v-1.8h13.2V31.2z"/>
</g>
</svg>
