<?xml version="1.0" encoding="utf-8"?>
<!-- Generator: Adobe Illustrator 22.0.0, SVG Export Plug-In . SVG Version: 6.00 Build 0)  -->
<svg version="1.1" id="Layer_1" xmlns="http://www.w3.org/2000/svg" xmlns:xlink="http://www.w3.org/1999/xlink" x="0px" y="0px"
	 viewBox="0 0 48 48" style="enable-background:new 0 0 48 48;" xml:space="preserve">
<style type="text/css">
	.st0{fill:#F3F3F3;}
	.st1{fill:#AE97FD;}
</style>
<circle class="st0" cx="24" cy="24" r="23.5"/>
<g>
	<path class="st1" d="M8.5,11.1c-0.6,0-1,0.5-1,1.1v10.7c0,0.6,0.5,1.1,1,1.1H23c0.6,0,1-0.5,1-1.1V12.2c0-0.6-0.5-1.1-1-1.1H8.5z
		 M9.6,21.9v-8.6H22v8.6H9.6z"/>
	<path class="st1" d="M31.3,17.6c-2.9,0-5.2,2.4-5.2,5.4c0,3,2.3,5.4,5.2,5.4s5.2-2.4,5.2-5.4C36.4,20,34.1,17.6,31.3,17.6z
		 M28.2,22.9c0-1.8,1.4-3.2,3.1-3.2c1.7,0,3.1,1.4,3.1,3.2c0,1.8-1.4,3.2-3.1,3.2C29.6,26.1,28.2,24.7,28.2,22.9z"/>
	<path class="st1" d="M23.9,36.4c1.5-2.3,4.2-3.8,7.4-3.8s5.9,1.6,7.4,3.8c0.3,0.5,1,0.6,1.4,0.3c0.5-0.3,0.6-1,0.3-1.5
		c-1.9-2.9-5.3-4.8-9.1-4.8s-7.2,1.9-9.1,4.8c-0.3,0.5-0.2,1.2,0.3,1.5C22.9,37,23.5,36.9,23.9,36.4z"/>
	<path class="st1" d="M11.6,27.2c0-0.6,0.5-1.1,1-1.1h6.2c0.6,0,1,0.5,1,1.1s-0.5,1.1-1,1.1h-6.2C12.1,28.3,11.6,27.8,11.6,27.2z"/>
</g>
</svg>
