<?xml version="1.0" encoding="utf-8"?>
<!-- Generator: Adobe Illustrator 22.0.0, SVG Export Plug-In . SVG Version: 6.00 Build 0)  -->
<svg version="1.1" id="Layer_1" xmlns="http://www.w3.org/2000/svg" xmlns:xlink="http://www.w3.org/1999/xlink" x="0px" y="0px"
	 viewBox="0 0 31.6 31.6" style="enable-background:new 0 0 31.6 31.6;" xml:space="preserve">
<style type="text/css">
	.st0{fill:none;stroke:#2F2F31;stroke-width:2;stroke-miterlimit:10;}
	.st1{fill:#2F2F31;}
</style>
<circle class="st0" cx="15.8" cy="15.8" r="14.8"/>
<g>
	<path class="st1" d="M15.8,11.4c-0.4,0-0.8,0.1-1.2,0.2c0.2,0.3,0.3,0.7,0.3,1.1c0,0.3-0.1,0.6-0.2,0.8c-0.1,0.3-0.3,0.5-0.5,0.7
		c-0.2,0.2-0.4,0.4-0.7,0.5c-0.3,0.1-0.5,0.2-0.8,0.2c-0.4,0-0.7-0.1-1.1-0.3c-0.3,0.9-0.2,1.8,0.1,2.7c0.3,0.9,0.9,1.6,1.6,2.1
		c0.8,0.5,1.7,0.8,2.6,0.8c0.9,0,1.8-0.3,2.5-0.9c0.7-0.6,1.3-1.3,1.5-2.2c0.3-0.9,0.3-1.8,0-2.7c-0.3-0.9-0.9-1.6-1.6-2.2
		C17.6,11.7,16.7,11.4,15.8,11.4L15.8,11.4z M26.9,15.2c-2.1-4.1-6.3-6.9-11.1-6.9s-9,2.8-11.1,6.9c-0.1,0.2-0.1,0.4-0.1,0.6
		s0,0.4,0.1,0.6c2.1,4.1,6.3,6.9,11.1,6.9s9-2.8,11.1-6.9C27,16.2,27,16,27,15.8S27,15.4,26.9,15.2L26.9,15.2z M15.8,21.4
		c-3.9,0-7.4-2.1-9.3-5.6c1.9-3.5,5.4-5.6,9.3-5.6c3.9,0,7.4,2.1,9.3,5.6C23.2,19.3,19.7,21.4,15.8,21.4z"/>
</g>
</svg>
