<?xml version="1.0" encoding="utf-8"?>
<!-- Generator: Adobe Illustrator 22.0.0, SVG Export Plug-In . SVG Version: 6.00 Build 0)  -->
<svg version="1.1" id="Layer_1" xmlns="http://www.w3.org/2000/svg" xmlns:xlink="http://www.w3.org/1999/xlink" x="0px" y="0px"
	 viewBox="0 0 50 37" style="enable-background:new 0 0 50 37;" xml:space="preserve">
<style type="text/css">
	.st0{fill:none;stroke:#000000;stroke-width:1.25;stroke-linejoin:round;}
</style>
<path class="st0" d="M32.2,20.1l-13.6-7.7l-5,2.8l5.4,3l-8.8,5l-5.4-3.1l-3.5,2L25,35.6l23.6-13.5l-10.1-5.7L32.2,20.1z"/>
<path class="st0" d="M38.6,16.4l10.1-5.7L32.2,1.4l-16.4,9.3l2.9,1.6"/>
<path class="st0" d="M18.6,12.3l13.6,7.7l6.3-3.6"/>
<path class="st0" d="M13.7,15.2l-3.5-2l-8.8,5l3.5,2"/>
<path class="st0" d="M4.8,20.2l5.4,3.1l8.8-5l-5.4-3"/>
<path class="st0" d="M10.2,7.3L5.8,4.8L1.4,7.3l4.4,2.5L10.2,7.3z"/>
</svg>
