<?xml version="1.0" encoding="utf-8"?>
<!-- Generator: Adobe Illustrator 22.0.0, SVG Export Plug-In . SVG Version: 6.00 Build 0)  -->
<svg version="1.1" id="Layer_1" xmlns="http://www.w3.org/2000/svg" xmlns:xlink="http://www.w3.org/1999/xlink" x="0px" y="0px"
	 viewBox="0 0 72 44" style="enable-background:new 0 0 72 44;" xml:space="preserve">
<style type="text/css">
	.st0{opacity:0.15;fill:#0EBBFF;enable-background:new    ;}
	.st1{opacity:0.2;fill:#0EBBFF;enable-background:new    ;}
	.st2{opacity:0.4;fill:#0EBBFF;enable-background:new    ;}
	.st3{fill:#0EBBFF;}
	.st4{fill:none;stroke:#1A1B18;stroke-miterlimit:10;}
</style>
<path class="st0" d="M69.9,32.5L54,44L38.1,32.5C36.8,31.6,36,30,36,28.4V7.3c0-1.3,0.9-2.5,2.2-2.9L54,0l15.8,4.4
	C71.1,4.8,72,5.9,72,7.3v21.2C72,30,71.2,31.6,69.9,32.5z"/>
<path class="st1" d="M57.9,32.5L42,44L26.1,32.5C24.8,31.6,24,30,24,28.4V7.3c0-1.3,0.9-2.5,2.2-2.9L42,0l15.8,4.4
	C59.1,4.8,60,5.9,60,7.3v21.2C60,30,59.2,31.6,57.9,32.5z"/>
<path class="st2" d="M45.9,32.5L30,44L14.1,32.5C12.8,31.6,12,30,12,28.4V7.3c0-1.3,0.9-2.5,2.2-2.9L30,0l15.8,4.4
	C47.1,4.8,48,5.9,48,7.3v21.2C48,30,47.2,31.6,45.9,32.5z"/>
<path class="st3" d="M33.9,32.5L18,44L2.1,32.5C0.8,31.6,0,30,0,28.4V7.3C0,6,0.9,4.8,2.2,4.4L18,0l15.8,4.4C35.1,4.8,36,5.9,36,7.3
	v21.2C36,30,35.2,31.6,33.9,32.5z"/>
<polyline class="st4" points="11,21.1 15.9,26 26.9,15 "/>
</svg>
