<?xml version="1.0" encoding="utf-8"?>
<!-- Generator: Adobe Illustrator 22.0.0, SVG Export Plug-In . SVG Version: 6.00 Build 0)  -->
<svg version="1.1" id="Layer_1" xmlns="http://www.w3.org/2000/svg" xmlns:xlink="http://www.w3.org/1999/xlink" x="0px" y="0px"
	 viewBox="0 0 93 83.3" style="enable-background:new 0 0 93 83.3;" xml:space="preserve">
<style type="text/css">
	.st0{fill:none;stroke:#000000;stroke-width:3;stroke-linecap:round;stroke-linejoin:round;}
</style>
<g>
	<path class="st0" d="M47,11.6l7-7c4.1-4.1,10.7-4.1,14.8,0l19.6,19.6c4.1,4.1,4.1,10.7,0,14.8L66,61.4L47.4,80
		c-2.5,2.5-6.2,2.5-8.6,0l0,0c-2.5-2.5-2.5-6.2,0-8.6l17.7-17.7"/>
	<path class="st0" d="M39.4,36.5L21.7,54.2c-2.5,2.5-6.2,2.5-8.6,0l0,0c-2.5-2.5-2.5-6.2,0-8.6L31.6,27l6.6-6.6"/>
	<path class="st0" d="M47.8,45.2L30.1,62.9c-2.5,2.5-6.2,2.5-8.6,0l0,0c-2.5-2.5-2.5-6.2,0-8.6l17.7-17.7"/>
	<path class="st0" d="M56.5,53.6L38.8,71.3c-2.5,2.5-6.2,2.5-8.6,0l0,0c-2.5-2.5-2.5-6.2,0-8.6L47.8,45"/>
	<path class="st0" d="M38.6,20.2L51.3,33c2.5,2.5,6.2,2.5,8.6,0l0,0c2.5-2.5,2.5-6.2,0-8.6L40,4.6c-4.1-4.1-10.7-4.1-14.8,0
		L4.6,25.4c-4.1,4.1-4.1,10.7,0,14.8l4.1,4.1"/>
</g>
</svg>
