<?xml version="1.0" encoding="utf-8"?>
<!-- Generator: Adobe Illustrator 22.0.0, SVG Export Plug-In . SVG Version: 6.00 Build 0)  -->
<svg version="1.1" id="Layer_1" xmlns="http://www.w3.org/2000/svg" xmlns:xlink="http://www.w3.org/1999/xlink" x="0px" y="0px"
	 viewBox="0 0 72 44" style="enable-background:new 0 0 72 44;" xml:space="preserve">
<style type="text/css">
	.st0{opacity:0.15;fill:#0EBBFF;enable-background:new    ;}
	.st1{opacity:0.2;fill:#0EBBFF;enable-background:new    ;}
	.st2{opacity:0.4;fill:#0EBBFF;enable-background:new    ;}
	.st3{fill:#0EBBFF;}
	.st4{fill:none;stroke:#1A1B18;stroke-miterlimit:10;}
</style>
<path class="st0" d="M69.1,44h-38c-1.7,0-3-1.3-3-3V3c0-1.7,1.3-3,3-3h38c1.7,0,3,1.3,3,3v38C72.1,42.7,70.7,44,69.1,44z"/>
<path class="st1" d="M59.7,44h-38c-1.7,0-3-1.3-3-3V3c0-1.7,1.3-3,3-3h38c1.7,0,3,1.3,3,3v38C62.7,42.7,61.3,44,59.7,44z"/>
<path class="st2" d="M50.3,44h-38c-1.7,0-3-1.3-3-3V3c0-1.7,1.3-3,3-3h38c1.7,0,3,1.3,3,3v38C53.3,42.7,52,44,50.3,44z"/>
<path class="st3" d="M40.9,44h-38c-1.7,0-3-1.3-3-3V3c0-1.7,1.3-3,3-3h38c1.7,0,3,1.3,3,3v38C43.9,42.7,42.6,44,40.9,44z"/>
<g>
	<line class="st4" x1="22" y1="12" x2="22" y2="32"/>
	<line class="st4" x1="32" y1="22" x2="12" y2="22"/>
</g>
</svg>
