<?xml version="1.0" encoding="utf-8"?>
<!-- Generator: Adobe Illustrator 22.0.0, SVG Export Plug-In . SVG Version: 6.00 Build 0)  -->
<svg version="1.1" id="Layer_1" xmlns="http://www.w3.org/2000/svg" xmlns:xlink="http://www.w3.org/1999/xlink" x="0px" y="0px"
	 viewBox="0 0 31.6 31.6" style="enable-background:new 0 0 31.6 31.6;" xml:space="preserve">
<style type="text/css">
	.st0{fill:none;stroke:#2F2F31;stroke-width:2;stroke-miterlimit:10;}
	.st1{fill:#2F2F31;}
</style>
<circle class="st0" cx="15.8" cy="15.8" r="14.8"/>
<g>
	<path class="st1" d="M15.8,21.6V9.9l-5.4,2.2C10.7,16.5,12.9,19.8,15.8,21.6z M23.7,9.3l-7.2-3c-0.2-0.1-0.5-0.1-0.7-0.1
		c-0.2,0-0.5,0-0.7,0.1l-7.3,3C7.2,9.6,6.7,10.2,6.7,11c0,7.5,4.3,12.7,8.4,14.4c0.4,0.2,0.9,0.2,1.4,0c3.2-1.3,8.4-6,8.4-14.4
		C24.9,10.2,24.4,9.6,23.7,9.3z M15.8,23.7c-3.7-1.5-7.3-6.3-7.3-12.7l7.3-3l7.2,3C23,17.5,19.3,22.2,15.8,23.7z"/>
</g>
</svg>
