<?xml version="1.0" encoding="utf-8"?>
<!-- Generator: Adobe Illustrator 22.0.0, SVG Export Plug-In . SVG Version: 6.00 Build 0)  -->
<svg version="1.1" id="Layer_1" xmlns="http://www.w3.org/2000/svg" xmlns:xlink="http://www.w3.org/1999/xlink" x="0px" y="0px"
	 viewBox="0 0 200 200" style="enable-background:new 0 0 200 200;" xml:space="preserve">
<style type="text/css">
	.st0{fill:#F3F3F3;}
</style>
<path class="st0" d="M100,0C44.9,0,0,44.9,0,100c0,17.2,4.4,34.1,12.9,49.1L0.2,194.5c-0.4,1.5,0,3.1,1.1,4.2c0.8,0.9,2,1.3,3.1,1.3
	c0.3,0,0.7,0,1-0.1l47.4-11.7C67.2,195.9,83.5,200,100,200c55.1,0,100-44.9,100-100S155.1,0,100,0z M150.3,135.3
	c-2.1,5.9-12.4,11.3-17.3,12.1c-4.4,0.6-10,0.9-16.2-1c-3.7-1.2-8.5-2.7-14.6-5.3c-25.8-11-42.6-36.6-43.9-38.3
	C57,101,47.8,89,47.8,76.5s6.6-18.6,9-21.1s5.1-3.2,6.8-3.2c1.7,0,3.4,0,4.9,0.1c1.6,0.1,3.7-0.6,5.8,4.4c2.1,5.1,7.3,17.6,7.9,18.8
	c0.6,1.3,1.1,2.8,0.2,4.4c-0.9,1.7-1.3,2.7-2.6,4.2c-1.3,1.5-2.7,3.3-3.9,4.4c-1.3,1.3-2.6,2.6-1.1,5.2c1.5,2.5,6.6,10.8,14.3,17.6
	c9.8,8.6,18.1,11.3,20.6,12.6c2.6,1.3,4.1,1.1,5.6-0.6s6.4-7.4,8.1-9.9s3.4-2.1,5.8-1.3c2.4,0.8,15,7,17.5,8.2
	c2.6,1.3,4.3,1.9,4.9,3C152.4,124.3,152.4,129.4,150.3,135.3z"/>
</svg>
