<?xml version="1.0" encoding="utf-8"?>
<!-- Generator: Adobe Illustrator 22.0.0, SVG Export Plug-In . SVG Version: 6.00 Build 0)  -->
<svg version="1.1" id="Layer_1" xmlns="http://www.w3.org/2000/svg" xmlns:xlink="http://www.w3.org/1999/xlink" x="0px" y="0px"
	 viewBox="0 0 3000 2000" style="enable-background:new 0 0 3000 2000;" xml:space="preserve">
<style type="text/css">
	.st0{opacity:0;fill:#FFFFFF;}
	.st1{fill:#F3F4F4;}
	.st2{fill:#E7E9EA;}
	.st3{fill:#D2D5D6;}
	.st4{fill:#2BC8B9;}
	.st5{fill:#B8BDC0;}
	.st6{fill:#899196;}
	.st7{fill:#5A656C;}
	.st8{fill:#13232D;}
	.st9{fill:#061116;}
	.st10{fill:#36FDEA;}
	.st11{fill:#34F2E0;}
	.st12{fill:#32E8D6;}
	.st13{fill:#30DDCD;}
	.st14{fill:#2DD3C3;}
	.st15{fill:#26B3A5;}
	.st16{fill:#229D92;}
	.st17{fill:#1D887E;}
	.st18{fill:#166861;}
</style>
<rect class="st0" width="3000" height="2000"/>
<g>
	<circle class="st1" cx="2514.5" cy="1522" r="987.5"/>
	<circle class="st2" cx="2514.5" cy="1522" r="877.8"/>
	<circle class="st3" cx="2514.5" cy="1522" r="768.1"/>
	<circle class="st4" cx="2514.5" cy="1522" r="658.3"/>
	<circle class="st5" cx="2514.5" cy="1522" r="658.3"/>
	<circle class="st6" cx="2514.5" cy="1522" r="548.6"/>
	<circle class="st7" cx="2514.5" cy="1522" r="438.9"/>
	<circle class="st8" cx="2514.5" cy="1522" r="329.2"/>
	<circle class="st9" cx="2514.5" cy="1522" r="219.4"/>
</g>
<g>
	<circle class="st10" cx="386" cy="639" r="1271"/>
	<circle class="st11" cx="386" cy="639" r="1155.5"/>
	<circle class="st12" cx="386" cy="639" r="1039.9"/>
	<circle class="st13" cx="386" cy="639" r="924.4"/>
	<circle class="st14" cx="386" cy="639" r="808.8"/>
	<circle class="st4" cx="386" cy="639" r="693.3"/>
	<circle class="st4" cx="386" cy="639" r="693.3"/>
	<circle class="st15" cx="386" cy="639" r="577.7"/>
	<circle class="st16" cx="386" cy="639" r="462.2"/>
	<circle class="st17" cx="386" cy="639" r="346.6"/>
	<circle class="st18" cx="386" cy="639" r="231.1"/>
</g>
</svg>
