<?xml version="1.0" encoding="utf-8"?>
<!-- Generator: Adobe Illustrator 22.0.0, SVG Export Plug-In . SVG Version: 6.00 Build 0)  -->
<svg version="1.1" id="Layer_1" xmlns="http://www.w3.org/2000/svg" xmlns:xlink="http://www.w3.org/1999/xlink" x="0px" y="0px"
	 viewBox="0 0 3000 2000" style="enable-background:new 0 0 3000 2000;" xml:space="preserve">
<style type="text/css">
	.st0{fill:#36FDEA;}
	.st1{fill:#34F2E0;}
	.st2{fill:#32E8D6;}
	.st3{fill:#30DDCD;}
	.st4{fill:#2DD3C3;}
	.st5{fill:#2BC8B9;}
	.st6{fill:#26B3A5;}
	.st7{fill:#229D92;}
	.st8{fill:#1D887E;}
	.st9{fill:#166861;}
	.st10{opacity:0;fill:#FFFFFF;}
	.st11{fill:#F3F4F4;}
	.st12{fill:#E7E9EA;}
	.st13{fill:#D2D5D6;}
	.st14{fill:#B8BDC0;}
	.st15{fill:#899196;}
	.st16{fill:#5A656C;}
	.st17{fill:#13232D;}
	.st18{fill:#061116;}
</style>
<g>
	<circle class="st0" cx="612.5" cy="896.5" r="1521.5"/>
	<circle class="st1" cx="612.5" cy="896.5" r="1383.2"/>
	<circle class="st2" cx="612.5" cy="896.5" r="1244.9"/>
	<circle class="st3" cx="612.5" cy="896.5" r="1106.5"/>
	<circle class="st4" cx="612.5" cy="896.5" r="968.2"/>
	<circle class="st5" cx="612.5" cy="896.5" r="829.9"/>
	<circle class="st5" cx="612.5" cy="896.5" r="829.9"/>
	<circle class="st6" cx="612.5" cy="896.5" r="691.6"/>
	<circle class="st7" cx="612.5" cy="896.5" r="553.3"/>
	<circle class="st8" cx="612.5" cy="896.5" r="415"/>
	<circle class="st9" cx="612.5" cy="896.5" r="276.6"/>
</g>
<rect class="st10" width="3000" height="2000"/>
<g>
	<circle class="st11" cx="2481" cy="1515.5" r="1001"/>
	<circle class="st12" cx="2481" cy="1515.5" r="889.8"/>
	<circle class="st13" cx="2481" cy="1515.5" r="778.6"/>
	<circle class="st5" cx="2481" cy="1515.5" r="667.3"/>
	<circle class="st14" cx="2481" cy="1515.5" r="667.3"/>
	<circle class="st15" cx="2481" cy="1515.5" r="556.1"/>
	<circle class="st16" cx="2481" cy="1515.5" r="444.9"/>
	<circle class="st17" cx="2481" cy="1515.5" r="333.7"/>
	<circle class="st18" cx="2481" cy="1515.5" r="222.4"/>
</g>
</svg>
