<?xml version="1.0" encoding="utf-8"?>
<!-- Generator: Adobe Illustrator 22.0.0, SVG Export Plug-In . SVG Version: 6.00 Build 0)  -->
<svg version="1.1" id="Layer_1" xmlns="http://www.w3.org/2000/svg" xmlns:xlink="http://www.w3.org/1999/xlink" x="0px" y="0px"
	 viewBox="0 0 3000 3000" style="enable-background:new 0 0 3000 3000;" xml:space="preserve">
<style type="text/css">
	.st0{fill:#E1E1FF;}
	.st1{fill:#E082F4;}
	.st2{fill:#49EA96;}
	.st3{fill:none;stroke:#00726A;stroke-width:14;stroke-miterlimit:10;}
	.st4{fill:#006837;}
	.st5{fill:#FFBE83;stroke:#A04F12;stroke-width:14;stroke-linecap:round;stroke-linejoin:round;stroke-miterlimit:10;}
	.st6{fill:#6757B5;}
	.st7{opacity:0;fill:#FFE5D4;}
	.st8{fill:none;stroke:#A04F12;stroke-width:14;stroke-linecap:round;stroke-linejoin:round;stroke-miterlimit:10;}
	.st9{fill:#E56E03;}
	.st10{fill:#FFF4E9;}
	.st11{fill:#FFFFFF;stroke:#A04F12;stroke-width:14;stroke-linecap:round;stroke-linejoin:round;stroke-miterlimit:10;}
	.st12{fill:#A04F12;stroke:#A04F12;stroke-width:14;stroke-linecap:round;stroke-linejoin:round;stroke-miterlimit:10;}
	.st13{fill:#FFCECA;stroke:#A04F12;stroke-width:14;stroke-linecap:round;stroke-linejoin:round;stroke-miterlimit:10;}
	.st14{fill:#FF9085;stroke:#A04F12;stroke-width:14;stroke-linecap:round;stroke-linejoin:round;stroke-miterlimit:10;}
	.st15{fill:#A04F12;}
	.st16{fill:#BFBBF2;stroke:#483D7F;stroke-width:14;stroke-miterlimit:10;}
	.st17{fill:#FF9085;stroke:#D32D24;stroke-width:14;stroke-linecap:round;stroke-linejoin:round;stroke-miterlimit:10;}
	.st18{fill:#D32D24;}
</style>
<path class="st0" d="M3000,0H0v1567.8c939.6,252.8,2554.2,429.8,3000,475.5V0z"/>
<path class="st1" d="M0,3000h3000v-362.4C1414.9,2580.4,281.4,2087.8,0,1953.6V3000z"/>
<path class="st2" d="M0,1567.8v385.9c281.4,134.2,1414.9,626.7,3000,683.9v-594.3C2554.2,1997.6,939.6,1820.6,0,1567.8z"/>
<g>
	<path class="st3" d="M0,1953.6c281.4,134.2,1414.9,626.7,3000,683.9"/>
	<path class="st3" d="M3000,2043.3c-445.8-45.8-2060.4-222.7-3000-475.5"/>
</g>
<ellipse class="st4" cx="1465.5" cy="2055" rx="362.5" ry="40"/>
<g>
	<path class="st5" d="M1558.8,1546c0,0,18.1,215.5-189.3,195.3s-273.8-68.5-273.8-68.5s28.2,138.9-102.7,136.9
		c-105.9-1.6-118.2-61.2-119-83.9c-0.2-5.2,1.4-10.3,4.5-14.5c19.6-26.4,102.5-136,164-188.7c6.4-5.5,15.3-7.1,23.2-4.1
		c36.5,13.9,159.6,76.4,230.9,73.1c86.6-4,125.3-122.1,125.3-122.1L1558.8,1546z"/>
	<path class="st5" d="M1496.4,1940.7c40.3-229.5,156.6-213.2,215-158.8c58.4,54.4-31.7,168.9-120.3,247.4
		c-88.6,78.5-155,10.1-155,10.1c-157.1-163.1-277.9-646.4-277.9-646.4s200.7,5,177.4,44.3c-57.2,96.1,82.4,342.3,183.1,416.8"/>
	<path class="st5" d="M1054.7,1639.3c0,0,15.1,19.4,41,33.5"/>
</g>
<path class="st6" d="M2702,2916H298c-119.5,0-216.5-96.9-216.5-216.5v-292.1c0-119.5,96.9-216.5,216.5-216.5H2702
	c119.5,0,216.5,96.9,216.5,216.5v292.1C2918.5,2819.1,2821.6,2916,2702,2916z"/>
<path class="st5" d="M1460.4,1048l221-28c-120.4-134.9-10.8-204.7-10.8-204.7l-140.4-36.4l-0.8-0.2L1389,742.2
	c0,0,61.8,114.3-109,173.7l179.6,131.9l-0.1,0.3l0.5-0.1l0.4,0.3L1460.4,1048z"/>
<path class="st7" d="M1247.6,1320.9c-20.1,14.4-40.2,51.7-3.9,116.2c36.3,64.4,124.5,153.6,162.1,120
	C1458.8,1509.8,1316.3,1271.6,1247.6,1320.9z"/>
<g>
	<g>
		<g>
			<path class="st8" d="M1882.6,756.2c0,0,199.7-1.8,317-65.7"/>
			<line class="st8" x1="2147.5" y1="784.7" x2="1875.7" y2="791.5"/>
			<path class="st8" d="M1864.7,821.9c0,0,164.3,6.7,196,75.2"/>
		</g>
		<path class="st5" d="M1649.6,276.8c0,0,218.9-52.6,265.6-11.6c46.6,41-39,140.4-71.4,165.4c-35.1,27-78.1,37-100.5,5.6"/>
		<path class="st9" d="M1773.5,414.2c0,0-5.7-21.6-47.2-73.1c-41.6-51.5,169.2-73,168.4-34.3
			C1893.7,344.6,1797.8,457.8,1773.5,414.2z"/>
		<g>
			<g>
				<path class="st5" d="M2013.7,685.2c-37.1,68.7-109.7,126.9-190,168.4c-80.9,40.7-172.6,63.8-260,45.9
					c-87.7-17-158.5-73.8-209.6-148c-50.2-74.2-83.7-166.7-80.6-254.8c2.6-88.2,45.2-158.7,123.3-196.2
					c77-37.7,195.4-40.4,320.4-0.9c125.2,38.6,226,107.2,276.4,175.6C2045,544.5,2051.4,616.5,2013.7,685.2z"/>
				<path class="st5" d="M2013.7,685.2c-37.1,68.7-109.7,126.9-190,168.4c-80.9,40.7-172.6,63.8-260,45.9
					c-87.7-17-158.5-73.8-209.6-148c-50.2-74.2-83.7-166.7-80.6-254.8c2.6-88.2,45.2-158.7,123.3-196.2
					c77-37.7,195.4-40.4,320.4-0.9c125.2,38.6,226,107.2,276.4,175.6C2045,544.5,2051.4,616.5,2013.7,685.2z"/>
			</g>
		</g>
		<g>
			<path class="st10" d="M1856.7,425.7c-8.1,8.3-24.9,12.9-43.8,14.4c-19.1,1.4-41-0.6-62.8-8c-21.8-7.3-40.5-18.9-54.9-31.6
				c-14.1-12.6-24.8-26.5-26.2-38c-1.5-11.5,7.4-18.9,26.1-20.6c18.5-1.7,48.3,2.8,80.6,13.7c32.3,10.8,58.8,25.3,72.5,37.8
				C1862.3,406.2,1864.9,417.4,1856.7,425.7z"/>
		</g>
		<g>
			<g>
				<g>
					<path class="st11" d="M1508.5,429.6c-5.2,6.5-9.3,14.1-12.5,22.7c-6.9,20.4-6.3,40.2,4.2,56.7c9.4,15.2,27,27.5,49.6,36.5
						l42.7-67.9L1508.5,429.6z"/>
					<path class="st12" d="M1624.2,553c16.8-5.6,29-18.6,36.7-36.1l-68.3-39.1l-42.7,67.9c2.1,0.8,4.2,1.7,6.4,2.4
						C1581.9,557,1605.9,559.4,1624.2,553z"/>
				</g>
			</g>
		</g>
		<g>
			<g>
				<g>
					<path class="st11" d="M1962.7,545.4c0.7,8.2-0.1,16.9-2.3,25.8c-5.6,20.8-17.2,36.9-35.1,44.7c-16.2,7.3-37.8,7.7-61.5,2.7
						l2.4-80.2L1962.7,545.4z"/>
					<path class="st12" d="M1797.9,583.2c-10.8-14.1-13.7-31.6-10.3-50.4l78.4,5.6l-2.4,80.2c-2.2-0.5-4.4-1-6.6-1.5
						C1830.8,610.1,1809.6,598.8,1797.9,583.2z"/>
				</g>
			</g>
		</g>
		<path class="st5" d="M1514.7,280.6c0,0-186.2-126.6-244.3-104.7s-13.2,145.1,8.3,180c23.2,37.7,59.9,62.2,92.1,40.8"/>
		<path class="st9" d="M1346.8,365.3c0,0,13-18.2,70-51.7c57.1-33.5-132.5-128.1-145.4-91.6C1259,257.6,1308.6,397.4,1346.8,365.3z"
			/>
		<g>
			<path class="st8" d="M1439.7,588.7c0,0-211.4-79.6-311.1-193.1"/>
			<line class="st8" x1="1147.2" y1="515.9" x2="1433.3" y2="628.9"/>
			<path class="st8" d="M1433.2,665.5c0,0-177.2-56.8-237.5,3.6"/>
		</g>
		<g>
			<path class="st13" d="M1690.7,667.6c-42.4-6.5-82,5.5-104.8,28.6c17.3,11.4,34.5,24.7,51.2,39.8c33.6,30.5,60.2,64,78.3,96.6
				c39.1-7.8,69-32.2,74-65C1796.4,721.8,1752.2,677,1690.7,667.6z"/>
			<path class="st14" d="M1637.1,735.9c-16.6-15.1-33.9-28.4-51.2-39.8c-10.3,10.4-17.1,23-19.3,37.3c-7,45.8,37.2,90.6,98.7,100
				c17.5,2.7,34.5,2.2,50-0.9C1697.3,800,1670.7,766.4,1637.1,735.9z"/>
		</g>
		<path class="st5" d="M1537.2,364.2c0,0,110.1,71.6,146.5,135.2"/>
		<path class="st5" d="M1766.5,505.7c0,0,87.2-26.4,179.3-27.6"/>
		<g>
			<path class="st5" d="M1707.3,657.5c-10.8,42.2-60,66.1-109.8,53.3c-33.4-8.5-58.6-31.4-68.4-58.2"/>
			<path class="st5" d="M1707.3,657.5c-10.8,42.2,20.8,86.8,70.7,99.5c33.4,8.5,66.5,0.6,87.9-18.2"/>
		</g>
		<path class="st15" d="M1643.3,611.7c3.7,16.7,12.2,32.6,22.1,44.5c10.1,12,21.9,20.2,36.2,24c14.3,3.6,28.6,2,43.2-3.6
			c14.4-5.7,29.4-15.5,40.7-28.4c11.1-12.9,14.5-26,4.3-37.6c-9.6-11.6-33.5-22-62.9-29.5c-29.4-7.5-55.3-9.8-69.4-4.3
			C1643,581.9,1639.8,595.1,1643.3,611.7z"/>
	</g>
</g>
<g>
	<path class="st0" d="M957.5,2680.4h-77.8v-187.9h-98.3v-64.1h274.3v64.1h-98.3V2680.4z"/>
	<path class="st0" d="M1089.8,2672.5c-19.6-8.6-34.3-20.2-44.1-34.7c-9.8-14.5-14.8-30.8-14.8-48.8s4.9-34.3,14.8-49
		c9.8-14.6,24.5-26.2,44.1-34.7c19.6-8.5,43.3-12.8,71.1-12.8c27.8,0,51.5,4.3,70.9,12.8c19.4,8.5,34.1,20.1,44.1,34.7
		c10,14.6,14.9,31,14.9,49s-5,34.3-14.9,48.8c-10,14.5-24.7,26.1-44.3,34.7c-19.6,8.6-43.1,13-70.7,13
		C1133,2685.4,1109.3,2681.1,1089.8,2672.5z M1206.6,2619.7c10.6-8,15.8-18.3,15.8-30.8c0-12.2-5.3-22.5-16-30.8
		c-10.7-8.3-25.9-12.4-45.5-12.4c-19.7,0-34.9,4.1-45.5,12.4c-10.7,8.3-16,18.5-16,30.8c0,12.5,5.3,22.7,15.8,30.8
		c10.6,8,25.8,12.1,45.7,12.1C1180.8,2631.8,1196,2627.8,1206.6,2619.7z"/>
	<path class="st0" d="M1413.6,2680.4v-183.2h68.4l-9,49.3h6.8c5.3-17.8,14.3-31.2,27-40.3c12.7-9.1,28.7-13.7,47.9-13.7
		c27.6,0,48.8,8.2,63.7,24.5c14.9,16.3,22.3,40.8,22.3,73.4v7.6h-69.8v-1.8c0-14.2-3.9-25.1-11.7-32.9c-7.8-7.8-18.8-11.7-32.9-11.7
		c-14.2,0-25.1,4.1-32.8,12.2c-7.7,8.2-11.5,20.2-11.5,36v80.6H1413.6z"/>
	<path class="st0" d="M1694.2,2659.5c-16.9-17.3-25.4-41-25.4-71.3v-91.1h68.4v75.2c0,17.5,4.6,31.1,13.9,40.9
		c9.2,9.7,22,14.6,38.3,14.6c16.3,0,29.1-4.9,38.3-14.6c9.2-9.7,13.9-23.3,13.9-40.9v-75.2h68.4v183.2h-68.4l9.4-53.3h-6.5
		c-5.3,19.2-14.9,33.7-28.8,43.6c-13.9,9.8-31.4,14.8-52.6,14.8C1734.1,2685.4,1711.1,2676.8,1694.2,2659.5z"/>
	<path class="st0" d="M1950.4,2680.4v-183.2h68.4l-9.7,53.6h6.8c10.8-38.9,38.8-58.3,83.9-58.3c30.2,0,54,8.7,71.3,26.1
		c17.3,17.4,25.9,41.6,25.9,72.5v89.3h-68.4v-73.1c0-18.2-4.9-32.3-14.6-42.3c-9.7-10-23.2-14.9-40.5-14.9s-30.7,5-40.3,14.9
		c-9.6,10-14.4,24.1-14.4,42.3v73.1H1950.4z"/>
</g>
<g>
	<path class="st5" d="M1651.7,1096.4c0,0,164.5,95.6,285.2,66.2c120.8-29.3,226.4-193.7,226.4-193.7s55.4-0.5,86.6-35.3
		c31.2-34.8,50-123.8-22.8-168.2s-181.5-65-192.1,25.3c0,0-31.4,2.1-35.4,34.9s12.9,60.9,12.9,60.9s1.9,211.5-316.5,153
		L1651.7,1096.4z"/>
	<path class="st5" d="M2042.3,859.9c0,0,51.4,32.4,79.2,17.1c27.8-15.3,21.1-63.4-84.2-85"/>
	<path class="st5" d="M2249.5,868.2c0,0-17.6,33.8-110.2-2.4"/>
</g>
<path class="st5" d="M1608.3,937.5c107.7,80.5,160.6,229.7,122,378.7c-49.7,191.6-232.1,310.1-407.3,264.7
	c-175.3-45.5-277-237.6-227.3-429.3c33.5-129,127.1-224.9,238.2-259.9c14.9-4.7,30-8.3,45.4-10.7"/>
<g>
	<path class="st10" d="M1608.4,1032.7c-5.6,21.9-18.1,41.8-32.4,56.5c-14.4,14.6-31.2,24.1-48.2,22.5c-17.1-1.3-32-13.5-43.8-30.3
		c-11.6-16.9-20.6-38.6-22.4-61.2c-1.9-22.6,4.4-43.1,18.5-58.1c13.9-14.9,36.6-19.9,61.8-17.6c25.3,2,46.7,10.7,57.9,27.8
		C1611.4,989.5,1614.1,1010.8,1608.4,1032.7z"/>
</g>
<g>
	<path class="st5" d="M1404.6,874.4c0,0-198.7-186.2-417.2-112.8s-282.9,274-282.9,274s-55.6,50-55.5,103.9
		c0.1,54.2,11.6,86.8,92.2,122.7s141.5-7.2,148.6-32.2c7.2-25.1,9-57.3-26.9-80.6c0,0,29,22.9,38,23.7c26.5,2.2,39-38,5-84.6
		c-34-46.6,7.2-109.2,19.7-128.9c12.5-19.7,75.2-111,211.3-100.3s222,78.8,225.6,82.4"/>
	<path class="st5" d="M863,1124.1c0,0-19.7,41.2-14.3,69.8"/>
</g>
<path class="st16" d="M1144,1043.9c55,48.3,268.4,216.8,588,231.3c12.9,0.6,22.3,12.4,19.8,25.1c-7.7,39.3-26.9,116.5-63.4,155.7
	c-8.5,9.1-21.8,12.2-33.5,7.9c-88.9-32.2-496.7-186.9-562.3-335c-2.6-5.8-3.4-12.2-2.5-18.4c2.1-13.5,8.3-39.4,26.1-63.6
	C1122.8,1037.9,1135.7,1036.5,1144,1043.9z"/>
<path class="st17" d="M1521.4,1149.3l12.5,60.7c6.3,30.6,27.3,56.2,56.2,68.4l57.1,24.1l-53.9,30.7c-27.2,15.5-45,43.4-47.7,74.6
	l-5.2,61.8l-45.8-41.7c-23.1-21.1-55.2-29.4-85.6-22.3l-60.4,14.1l25.5-56.5c12.9-28.5,10.9-61.5-5.3-88.3l-32.1-53.1l61.6,6.8
	c31.1,3.4,61.9-8.6,82.4-32.3L1521.4,1149.3z"/>
<g>
	<path class="st18" d="M1495.4,1344.8l39.8,11.1l-8.9,32.1L1401,1353l8.9-32.1l46.2,12.9l5.6-20.1c2.2-7.7,5.1-14.5,8.8-20.2
		c3.7-5.7,9.3-13.2,16.8-22.5l-3.3-0.9c-6.3,7.5-12.2,13.2-17.5,17c-5.4,3.8-11.1,6-17.2,6.7c-6.1,0.7-13.2-0.1-21.5-2.4l-2.4-0.7
		l9.1-32.8l8.7,2.4c23.2,6.5,37.7-0.6,43.4-21.3l0.3-1.1l35.4,9.9L1495.4,1344.8z"/>
</g>
</svg>
