<?xml version="1.0" encoding="utf-8"?>
<!-- Generator: Adobe Illustrator 22.0.0, SVG Export Plug-In . SVG Version: 6.00 Build 0)  -->
<svg version="1.1" id="Layer_1" xmlns="http://www.w3.org/2000/svg" xmlns:xlink="http://www.w3.org/1999/xlink" x="0px" y="0px"
	 viewBox="0 0 3000 3000" style="enable-background:new 0 0 3000 3000;" xml:space="preserve">
<style type="text/css">
	.st0{fill:#FFFBCC;}
	.st1{fill:#FFBE83;stroke:#A04F12;stroke-width:14;stroke-linecap:round;stroke-linejoin:round;stroke-miterlimit:10;}
	.st2{opacity:0;fill:#FFE5D4;}
	.st3{fill:#FFF4E9;}
	.st4{fill:#E1E1FF;stroke:#483D7F;stroke-width:14;stroke-linejoin:round;stroke-miterlimit:10;}
	.st5{fill:none;stroke:#FFBE83;stroke-miterlimit:10;}
	.st6{fill:#D65DE9;}
	.st7{fill:#831F9B;}
	.st8{fill:none;stroke:#A04F12;stroke-width:14;stroke-linecap:round;stroke-linejoin:round;stroke-miterlimit:10;}
	.st9{fill:#E0C212;stroke:#896F00;stroke-width:14;stroke-linecap:round;stroke-linejoin:round;stroke-miterlimit:10;}
	.st10{fill:#49EA96;stroke:#00726A;stroke-width:14;stroke-linecap:round;stroke-linejoin:round;stroke-miterlimit:10;}
	.st11{fill:#E1E1FF;stroke:#483D7F;stroke-width:14;stroke-linecap:round;stroke-linejoin:round;stroke-miterlimit:10;}
	.st12{fill:#483D7F;stroke:#483D7F;stroke-width:14;stroke-linecap:round;stroke-linejoin:round;stroke-miterlimit:10;}
	.st13{fill:#F9F273;stroke:#896F00;stroke-width:14;stroke-linecap:round;stroke-linejoin:round;stroke-miterlimit:10;}
	.st14{fill:none;stroke:#896F00;stroke-width:14;stroke-linecap:round;stroke-linejoin:round;stroke-miterlimit:10;}
	.st15{fill:#FF4633;stroke:#D32D24;stroke-width:14;stroke-linecap:round;stroke-linejoin:round;stroke-miterlimit:10;}
	.st16{fill:#49EA96;}
	.st17{fill:#F5F5FF;stroke:#A04F12;stroke-width:14;stroke-linecap:round;stroke-linejoin:round;stroke-miterlimit:10;}
	.st18{fill:#FFFFFF;stroke:#A04F12;stroke-miterlimit:10;}
	.st19{fill:#A04F12;stroke:#A04F12;stroke-miterlimit:10;}
	.st20{fill:#E56E03;}
	.st21{fill:#FF9085;stroke:#A04F12;stroke-width:14;stroke-linecap:round;stroke-linejoin:round;stroke-miterlimit:10;}
	.st22{fill:#A04F12;}
</style>
<rect class="st0" width="3000" height="3000"/>
<path class="st1" d="M1670.6,1203.8c-3.6-2-7.2-3.9-10.9-5.8c0,0-69.9-379.9-166.4-358.6c-0.5,0.1-1,0.2-1.5,0.3
	c-0.5-0.1-1-0.2-1.5-0.3c-96.5-21.3-166.4,358.6-166.4,358.6c-3.7,1.9-7.3,3.8-10.9,5.8c-107.7,59.7-180.3,172-180.3,300.7
	c0,191.2,160.1,346.2,357.6,346.2c0,0,0.5-2,1.5-5.7c0.9,3.8,1.5,5.7,1.5,5.7c197.5,0,357.6-155,357.6-346.2
	C1850.9,1375.8,1778.3,1263.4,1670.6,1203.8z"/>
<path class="st2" d="M1264.4,1479c-18.8,13.5-37.5,48.3-3.6,108.4c33.9,60.1,116.2,143.4,151.3,112
	C1461.5,1655.3,1328.5,1433,1264.4,1479z"/>
<g>
	<path class="st1" d="M1464.2,1743c-36.8,20.8-55.2,57.6-46.8,104.3c9,50.2,41.2,157.5,18.3,244.5c-4,15.1-17.6,25.7-33.3,25.7
		h-271.3c0,0-4.8-214.2,183.9-103.9c0,0-3.2-213.4,102.3-299.8"/>
	<path class="st1" d="M1532.5,1743c36.8,20.8,55.2,57.6,46.8,104.3c-9,50.2-41.2,157.5-18.3,244.5c4,15.1,17.6,25.7,33.3,25.7h271.3
		c0,0,4.8-214.2-183.9-103.9c0,0,3.2-213.4-102.3-299.8"/>
</g>
<g>
	<path class="st3" d="M1170.4,2054.6c-0.1-14.9,13.7-39.8,45.5-40.6c25.9-0.7,46.7,7.6,72.7,28.1
		C1306.7,2056.5,1170.5,2082.5,1170.4,2054.6z"/>
	<path class="st3" d="M1824.2,2054.6c0.1-14.9-13.7-39.8-45.5-40.6c-25.9-0.7-46.7,7.6-72.7,28.1
		C1687.9,2056.5,1824.1,2082.5,1824.2,2054.6z"/>
</g>
<g>
	<path class="st3" d="M1605.3,1330.4c-5.6,33.8-22,65.4-41.6,89.4c-19.9,23.9-44,40.3-69.9,40.1c-25.9,0.2-50-16.2-69.9-40.1
		c-19.6-24.1-36-55.6-41.6-89.4c-5.8-33.8,1-65.6,20.5-90.1c19.1-24.3,52.6-34.7,91-34.5c38.4-0.2,71.9,10.2,91,34.5
		C1604.2,1264.8,1611,1296.6,1605.3,1330.4z"/>
</g>
<line class="st4" x1="0" y1="1461" x2="3000" y2="1461"/>
<path class="st5" d="M2286,1508"/>
<rect y="1467" class="st6" width="3000" height="1533"/>
<path class="st0" d="M2702,2916H298c-119.5,0-216.5-96.9-216.5-216.5v-292.1c0-119.5,96.9-216.5,216.5-216.5H2702
	c119.5,0,216.5,96.9,216.5,216.5v292.1C2918.5,2819.1,2821.6,2916,2702,2916z"/>
<g>
	<g>
		<path class="st7" d="M828.4,2680.4h-77.8v-187.9h-98.3v-64.1h274.3v64.1h-98.3V2680.4z"/>
		<path class="st7" d="M960.7,2672.5c-19.6-8.6-34.3-20.2-44.1-34.7c-9.8-14.5-14.8-30.8-14.8-48.8s4.9-34.3,14.8-49
			c9.8-14.6,24.5-26.2,44.1-34.7c19.6-8.5,43.3-12.8,71.1-12.8c27.8,0,51.5,4.3,70.9,12.8c19.4,8.5,34.1,20.1,44.1,34.7
			c10,14.6,14.9,31,14.9,49s-5,34.3-14.9,48.8c-10,14.5-24.7,26.1-44.3,34.7c-19.6,8.6-43.1,13-70.7,13
			C1004,2685.4,980.3,2681.1,960.7,2672.5z M1077.5,2619.7c10.6-8,15.8-18.3,15.8-30.8c0-12.2-5.3-22.5-16-30.8
			c-10.7-8.3-25.9-12.4-45.5-12.4c-19.7,0-34.9,4.1-45.5,12.4c-10.7,8.3-16,18.5-16,30.8c0,12.5,5.3,22.7,15.8,30.8
			c10.6,8,25.8,12.1,45.7,12.1C1051.7,2631.8,1067,2627.8,1077.5,2619.7z"/>
		<path class="st7" d="M1332.8,2672.5c-19-8.6-33.3-20.3-43-34.9c-9.7-14.6-14.6-30.8-14.6-48.6c0-18,4.9-34.3,14.6-49
			c9.7-14.6,24.1-26.2,43-34.7c19-8.5,41.8-12.8,68.4-12.8c24,0,45.2,3.5,63.5,10.6c18.4,7.1,32.9,16.9,43.7,29.3
			c10.8,12.5,17.2,26.9,19.1,43.2h-68.8c-2.2-8.4-8.1-15.5-17.8-21.2c-9.7-5.8-23-8.6-39.8-8.6c-18,0-32.1,4.1-42.3,12.4
			c-10.2,8.3-15.3,18.5-15.3,30.8c0,12,5.1,22.1,15.3,30.4c10.2,8.3,24.3,12.4,42.3,12.4c16.8,0,30.1-2.9,39.8-8.6
			c9.7-5.8,15.7-12.8,17.8-21.2h68.8c-1.9,16.3-8.3,30.8-19.1,43.4c-10.8,12.6-25.4,22.4-43.7,29.5c-18.4,7.1-39.5,10.6-63.5,10.6
			C1374.5,2685.4,1351.7,2681.1,1332.8,2672.5z"/>
		<path class="st7" d="M1604,2672.5c-19.6-8.6-34.3-20.2-44.1-34.7c-9.8-14.5-14.8-30.8-14.8-48.8s4.9-34.3,14.8-49
			c9.8-14.6,24.5-26.2,44.1-34.7c19.6-8.5,43.3-12.8,71.1-12.8c27.8,0,51.5,4.3,70.9,12.8c19.4,8.5,34.1,20.1,44.1,34.7
			c10,14.6,14.9,31,14.9,49s-5,34.3-14.9,48.8c-10,14.5-24.7,26.1-44.3,34.7c-19.6,8.6-43.1,13-70.7,13
			C1647.3,2685.4,1623.6,2681.1,1604,2672.5z M1720.9,2619.7c10.6-8,15.8-18.3,15.8-30.8c0-12.2-5.3-22.5-16-30.8
			c-10.7-8.3-25.9-12.4-45.5-12.4c-19.7,0-34.9,4.1-45.5,12.4c-10.7,8.3-16,18.5-16,30.8c0,12.5,5.3,22.7,15.8,30.8
			c10.6,8,25.8,12.1,45.7,12.1C1695.1,2631.8,1710.3,2627.8,1720.9,2619.7z"/>
		<path class="st7" d="M1885.6,2672.5c-19.6-8.6-34.3-20.2-44.1-34.7c-9.8-14.5-14.8-30.8-14.8-48.8s4.9-34.3,14.8-49
			c9.8-14.6,24.5-26.2,44.1-34.7c19.6-8.5,43.3-12.8,71.1-12.8c27.8,0,51.5,4.3,70.9,12.8c19.4,8.5,34.1,20.1,44.1,34.7
			c10,14.6,14.9,31,14.9,49s-5,34.3-14.9,48.8c-10,14.5-24.7,26.1-44.3,34.7c-19.6,8.6-43.1,13-70.7,13
			C1928.8,2685.4,1905.1,2681.1,1885.6,2672.5z M2002.4,2619.7c10.6-8,15.8-18.3,15.8-30.8c0-12.2-5.3-22.5-16-30.8
			c-10.7-8.3-25.9-12.4-45.5-12.4c-19.7,0-34.9,4.1-45.5,12.4c-10.7,8.3-16,18.5-16,30.8c0,12.5,5.3,22.7,15.8,30.8
			c10.6,8,25.8,12.1,45.7,12.1C1976.6,2631.8,1991.8,2627.8,2002.4,2619.7z"/>
		<path class="st7" d="M2261.9,2585l87.8,95.4h-86.4l-75.6-89.6v89.6h-68.4v-252h68.4V2580l73.4-82.8h85L2261.9,2585z"/>
	</g>
</g>
<path class="st8" d="M1934.3,1598.1"/>
<path class="st9" d="M2362,2067c-588,0-1176,0-1764,0c98-166.1,196-332.2,294-498.4c392,0,784,0,1176,0
	C2165.9,1734.8,2264,1900.9,2362,2067z"/>
<rect x="1013.9" y="1744.2" class="st10" width="905.4" height="106.6"/>
<path class="st1" d="M1362.4,1102.3c-96.1-11.6-260.5-22-371.7,75.3c-104.6,91.6-134.1,252-127.4,309.9l48.5,151.8
	c0,0,97.9,54.1,130.2,19c28.8-31.3,16.7-48.9-14.2-107.2s-59.8-358.7,174.8-361.8c63.1-0.8,107.1,13.2,137.9,34.1"/>
<g>
	<path class="st11" d="M1015.1,1688.4c-23.9,2.1-43.7,22.6-57.8,41.5c-5.7,7.8-13.3,12.1-20.9,14.4c22.6,82.6,70.5,162.1,97.6,190.5
		c33,34.5,69.8,28.4,69.8,28.4C1097.6,1879.8,1050.9,1765.4,1015.1,1688.4z"/>
	<path class="st12" d="M957.3,1729.9c14-19,33.9-39.4,57.8-41.5c-23.2-50-41.9-84.4-41.9-84.4l-47.5,86.6c2,17.7,5.7,35.8,10.6,53.7
		C944,1742,951.5,1737.7,957.3,1729.9z"/>
</g>
<path class="st1" d="M1008.1,1609.5c-51.9,32.9-60.4,74.8-67.1,102.4c-6.7,27.6-57.3,27.8-94.5-4.6s8.3-72.5,8.3-72.5
	s-33.8,19.3-56.3-18.1c-30.5-50.6,74.1-139.5,74.1-139.5"/>
<g>
	<path class="st10" d="M2346.6,1718.7c0,0,55.4-15.6,90.8-8c35.5,7.6,57.2,47.4,35.5,82.5c-16.7,27.1-64.7,0.6-77.3-14.6
		c-12.7-15.2-56.7-9.3-56.7-9.3L2346.6,1718.7z"/>
	<path class="st10" d="M2255.5,1716.2c0,0,26.6-64.8,73.4-58.2c49,6.8,43,50.6,32.9,96.2l-103.8,25.3L2255.5,1716.2z"/>
	<path class="st10" d="M1945.3,1849.1c0,0,17.7,55.7,91.2,25.3c0,0,12.7,96.2,88.6,12.7c0,0,27.9,55.7,63.3,65.8
		c35.5,10.1,83.6-17.7,88.6-53.2c0,0,22.8,40.5,101.3,35.5c78.5-5.1,91.2-106.4,38-167.1c-53.2-60.8-144.3-27.9-144.3-27.9
		s11.4-59.5-49.4-72.2c-60.8-12.7-111.4,10.1-106.4,68.4c0,0,1.3-69.6-84.8-49.4C2031.4,1687,1892.1,1725,1945.3,1849.1z"/>
	<path class="st10" d="M2208.7,1779.7c0,0,21.1-30.8,75.9-43.1"/>
	<path class="st10" d="M2097.9,1790.1c0,0,21.7-23.7,18.1-56.8"/>
	<path class="st10" d="M2255.7,1817.3c0,0,35.5,28.2,20.9,82.5"/>
</g>
<g>
	<path class="st1" d="M1653.5,1226.8c32.7-18.6,74.8-35,137.9-34.1c234.6,3.1,203.4,314.9,175.9,374.9
		c-7.9,17.3-27.3,37.4-87.8,30.3c-45.4-5.3-70-8.4-106.6,1c-44.8,11.5-32.4,71,11.5,72.1l33.4,111.8c-38.7,10.4-49.2,51.8-24,79.4
		c21.9,24,87.8,6.3,87.8,6.3c166.1-46,166.1-145.6,201.6-211c39.7-73.1,45.2-124.6,47.4-166.5c3.1-58.2-22.8-218.3-127.4-309.9
		c-111.2-97.3-275.6-86.8-371.7-75.3"/>
	<path class="st1" d="M1792.9,1670"/>
	<path class="st1" d="M1881.7,1634.5c0,0-19.9,31.3-88.8,35.5s-82.5,50.2-59.6,90.9c23,40.7,84.6,21.9,84.6,21.9
		c-38.7,10.4-49.2,51.8-24,79.4c21.9,24,87.8,6.3,87.8,6.3c166.1-46,166-145.7,201.6-211"/>
</g>
<g>
	<path class="st13" d="M270.4,1868.7c94.1,4.6,186.5,5.1,280,0.6c68.4-3.3,125.8-52.7,139.1-119.9c13.1-66,26.2-127.9,39.2-192.4
		c4.8-23.5-11.6-46.1-35.4-48.7c-189.5-21.3-364.8-21.2-565.1,0.2c-24,2.6-40.6,25.1-35.8,48.8c13,64.2,26,125.8,39,191.5
		C144.7,1816,202,1865.4,270.4,1868.7z"/>
	<path class="st14" d="M130.7,1550c0,0,270.7,52.5,535.3,0"/>
	<g>
		<path class="st15" d="M598.7,1755.7c0,0,41.4,21.8,50.3,60c8.8,38.2-11.5,92.1-57.5,108.8s-68.3-21.3-68.3-21.3s-41.3,7.3-61.3-46
			s16.5-103.7,45.1-122.9C535.5,1715.1,583.9,1727.8,598.7,1755.7z"/>
		<path class="st16" d="M659.6,1767c0,0-39.6,41-78.3,23c-38.7-18-17-88.6-17-88.6s16.5,9.2,23.6,29.2c0,0,18.5-11.8,41.7-17.3
			c0,0,7.7,15.7-4,41.9C625.6,1755.3,652.5,1754.8,659.6,1767z"/>
	</g>
	<g>
		<path class="st15" d="M359,1741.9c0,0,54.5-26.3,101-6.1c46.5,20.2,86.9,82.8,68.7,143.4c-18.2,60.6-74.7,54.5-74.7,54.5
			s-24.2,48.5-94.9,28.3c-70.7-20.2-94.9-97-92.9-141.4S318.6,1735.8,359,1741.9z"/>
		<path class="st16" d="M417.5,1687.4c0,0,12.1,72.7-36.4,99s-105-50.5-105-50.5s22.2-10.1,48.5-2c0,0,2-28.3,14.1-56.6
			c0,0,22.2,4,40.4,36.4C379.2,1713.6,399.4,1685.3,417.5,1687.4z"/>
	</g>
</g>
<g>
	<path class="st13" d="M2868.7,1718.8c-32,8.2-69.1-17.6-107.9-84.5c-38.8-65.8-79.2-172.7-116.9-300.1
		c-37.1-127.5-60.8-239.4-63.7-315.7c-3.5-77.3,17-108.2,48.4-118.6c32-8.2,66,6.7,104.8,73.7c38.8,65.8,79.2,172.7,116.9,300.1
		c37.1,127.5,60.8,239.4,63.7,315.7C2917.4,1666.7,2900.1,1708.4,2868.7,1718.8z"/>
	<g>
		<path class="st13" d="M2616.6,1046.4c0,0,60.8,18.3,105.6-32.3"/>
		<path class="st13" d="M2634.4,1153.3c0,0,83.6,25.2,145.1-44.4"/>
	</g>
	<path class="st13" d="M2935.1,1629.5c-32.7,4.9-66.9-24.6-98.6-95.2c-31.7-69.5-60.9-180-85.1-310.6
		c-23.7-130.7-35.6-244.4-30.6-320.6c4.6-77.3,28.1-105.9,60.4-112.9c32.7-4.9,64.9,13.5,96.6,84.1c31.7,69.5,60.9,180,85.1,310.6
		c23.7,130.7,35.6,244.4,30.6,320.6C2988.9,1582.7,2967.4,1622.4,2935.1,1629.5z"/>
	<g>
		<path class="st13" d="M2758.7,975c0,0,58.3,25.1,108.6-20.1"/>
		<path class="st13" d="M2761.5,1107.2c0,0,80.2,34.5,149.3-27.6"/>
	</g>
</g>
<g>
	<path class="st4" d="M3000,1189.5c-123.4,0.8-260.5,3.9-349.3,12.9l-47.5,35.6l-52.5,3c0,0,9.9,312.9-29.7,566.4l94.1,111.9H3000"
		/>
	<path class="st11" d="M2657.2,1233.4c0,0,20.1,466.4-20.1,648.4"/>
	<path class="st11" d="M2600.9,1354c0,0,14.1,223.2-14.1,388"/>
</g>
<g>
	<path class="st1" d="M1499.6,428.1"/>
	<path class="st17" d="M1721.7,333.1c0-51.1-44.5-92.6-99.5-92.6c-3.4,0-6.8,0.2-10.2,0.5c-22.3-37.6-64.3-63-112.5-63
		c-45.2,0-85.1,22.4-108.2,56.3c-7.6-1.7-15.5-2.7-23.6-2.7c-54.9,0-99.5,41.4-99.5,92.6c0,33.8,19.5,63.3,48.6,79.4l33.6,183.5
		c5.1,27.9,28.1,49.4,57.1,53.6c41.4,6,104.8,10.7,174.1-0.2c27.1-4.3,48.9-24,55.2-49.8l44.7-183.4
		C1705.8,390.5,1721.7,363.6,1721.7,333.1z"/>
	<line class="st1" x1="1499.6" y1="378.9" x2="1499.6" y2="530.8"/>
	<line class="st1" x1="1384" y1="405.7" x2="1407.1" y2="535.2"/>
	<line class="st1" x1="1606" y1="410.2" x2="1582.9" y2="544.2"/>
	<path class="st8" d="M1346.9,378.9c0,0,152.7-75.9,300.8,0"/>
	<line class="st1" x1="1383.6" y1="577.1" x2="1605.5" y2="577.1"/>
	<path class="st8" d="M1375.4,338.7c-3.5-11.3-5.4-23.3-5.4-35.7c0-69.1,58-125,129.6-125c71.6,0,129.6,56,129.6,125
		c0,11.4-1.6,22.4-4.5,32.8"/>
</g>
<g>
	<g>
		<g>
			<path class="st1" d="M1862.4,864.2c-18.5,78.1-72.9,151.3-138.2,207.1c-66.2,55.4-146.6,93.5-233.2,93.4
				c-86.6,0.7-167.2-36.9-233.8-91.9c-65.7-55.3-120.5-128.1-139.6-206.2c-19.6-78,3-151.5,67.8-208.3
				c63.6-56.3,175.4-96,303.6-95.9c128.2-0.9,240.2,38.1,304.3,93.9C1858.4,712.7,1881.5,786.1,1862.4,864.2z"/>
			<path class="st1" d="M1862.4,864.2c-18.5,78.1-72.9,151.3-138.2,207.1c-66.2,55.4-146.6,93.5-233.2,93.4
				c-86.6,0.7-167.2-36.9-233.8-91.9c-65.7-55.3-120.5-128.1-139.6-206.2c-19.6-78,3-151.5,67.8-208.3
				c63.6-56.3,175.4-96,303.6-95.9c128.2-0.9,240.2,38.1,304.3,93.9C1858.4,712.7,1881.5,786.1,1862.4,864.2z"/>
		</g>
		<g>
			<g>
				<path class="st18" d="M1330,929.4c-25.7-0.1-47.9-6.9-62.2-21.4c-14.6-14.3-21.5-36.4-21.8-62.1c0.1-25.7,6.9-47.9,21.4-62.2
					c14.3-14.6,36.4-21.5,62.1-21.8c25.7,0.1,47.9,6.9,62.2,21.4c14.6,14.3,21.5,36.4,21.8,62.1c-0.1,25.7-6.9,47.9-21.4,62.2
					C1377.8,922.2,1355.7,929.1,1330,929.4z"/>
				<path class="st19" d="M1267.7,908c14.4,14.5,36.5,21.3,62.2,21.4c25.7-0.3,47.8-7.2,62.1-21.8c14.5-14.4,21.3-36.5,21.4-62.2
					l-167.6,0.5C1246.2,871.7,1253.1,893.7,1267.7,908z"/>
				<path class="st8" d="M1330,929.4c-25.7-0.1-47.9-6.9-62.2-21.4c-14.6-14.3-21.5-36.4-21.8-62.1c0.1-25.7,6.9-47.9,21.4-62.2
					c14.3-14.6,36.4-21.5,62.1-21.8c25.7,0.1,47.9,6.9,62.2,21.4c14.6,14.3,21.5,36.4,21.8,62.1c-0.1,25.7-6.9,47.9-21.4,62.2
					C1377.8,922.2,1355.7,929.1,1330,929.4z"/>
			</g>
			<g>
				<path class="st18" d="M1650.3,929.4c-25.7-0.1-47.9-6.9-62.2-21.4c-14.6-14.3-21.5-36.4-21.8-62.1c0.1-25.7,6.9-47.9,21.4-62.2
					c14.3-14.6,36.4-21.5,62.1-21.8c25.7,0.1,47.9,6.9,62.2,21.4c14.6,14.3,21.5,36.4,21.8,62.1c-0.1,25.7-6.9,47.9-21.4,62.2
					C1698.1,922.2,1676,929.1,1650.3,929.4z"/>
				<path class="st19" d="M1588,908c14.4,14.5,36.5,21.3,62.2,21.4c25.7-0.3,47.8-7.2,62.1-21.8c14.5-14.4,21.3-36.5,21.4-62.2
					l-167.6,0.5C1566.5,871.7,1573.4,893.7,1588,908z"/>
				<path class="st8" d="M1650.3,929.4c-25.7-0.1-47.9-6.9-62.2-21.4c-14.6-14.3-21.5-36.4-21.8-62.1c0.1-25.7,6.9-47.9,21.4-62.2
					c14.3-14.6,36.4-21.5,62.1-21.8c25.7,0.1,47.9,6.9,62.2,21.4c14.6,14.3,21.5,36.4,21.8,62.1c-0.1,25.7-6.9,47.9-21.4,62.2
					C1698.1,922.2,1676,929.1,1650.3,929.4z"/>
			</g>
		</g>
		<path class="st1" d="M1299.2,624.7c0,0-187.2-114.7-242.8-90.7c-55.6,24-6.1,141.9,16.5,174.9c24.4,35.6,61.3,57.8,91.6,35.5"/>
		<path class="st1" d="M1679.2,623.5c0,0,186.5-115.9,242.2-92.2c55.7,23.7,7,141.9-15.3,175c-24.2,35.8-60.9,58.2-91.3,36.1"/>
		<g>
			<path class="st1" d="M1244,739.4c0,0,21.7-49.6,101.9-61.9"/>
			<path class="st1" d="M1709.3,728.8c0,0-47-26.8-118.7,11.2"/>
		</g>
		<g>
			<path class="st20" d="M1139.7,714.9c0,0,11.8-18.3,65.8-53.6c54-35.2-135-118.7-145.8-82.4C1049.1,614.1,1104,748,1139.7,714.9z"
				/>
			<path class="st20" d="M1836.1,712.7c0,0-11.9-18.2-66.2-53.1c-54.3-34.9,134.2-119.5,145.3-83.4
				C1926,611.3,1872,745.5,1836.1,712.7z"/>
		</g>
		<g>
			<g>
				<path class="st8" d="M1257.2,965.2c0,0-190.6-40-290.5-123.5"/>
				<line class="st8" x1="998.4" y1="941.7" x2="1257" y2="1000.3"/>
				<path class="st8" d="M1261.7,1031.5c0,0-158.4-25.1-201.8,34.3"/>
			</g>
			<g>
				<path class="st8" d="M1723.9,954.1c0,0,191.4-35.7,293.2-116.9"/>
				<line class="st8" x1="1983.1" y1="936.5" x2="1723.3" y2="989.2"/>
				<path class="st8" d="M1717.8,1020.3c0,0,158.9-21.5,201,38.9"/>
			</g>
		</g>
		<g>
			<path class="st21" d="M1443,1041c7.8-43.3,30.3-80.4,50.3-80.4c20-0.2,42.8,36.8,50.9,80c8.1,43.3-14.4,74.7-50.4,74.8
				C1457.8,1115.6,1435.2,1084.3,1443,1041z"/>
			<path class="st21" d="M1443,1041c7.8-43.3,30.3-80.4,50.3-80.4c20-0.2,42.8,36.8,50.9,80c8.1,43.3-14.4,74.7-50.4,74.8
				C1457.8,1115.6,1435.2,1084.3,1443,1041z"/>
		</g>
		<g>
			<path class="st1" d="M1490.9,969.6c0.1,32.4-30.8,58.8-69.1,58.9c-25.7,0.1-48.1-11.6-60.1-29.2"/>
			<path class="st1" d="M1490.9,969.6c0.1,32.4,31.2,58.6,69.5,58.5c25.7-0.1,48-12,59.9-29.6"/>
		</g>
		<path class="st22" d="M1419.2,942c7.6,14.9,19.4,27.8,31.7,36.6c12.5,8.9,25.6,13.8,40,13.8c14.4-0.1,27.5-5.1,39.9-14
			c12.2-8.9,24-21.9,31.5-36.8c7.3-14.9,7.4-28.1-5.1-36.5c-11.9-8.6-37-12.5-66.6-12.5c-29.6,0.2-54.6,4.3-66.5,12.9
			C1411.7,914,1411.9,927.2,1419.2,942z"/>
	</g>
</g>
<g>
	<path class="st3" d="M1599.2,635c-5.3,10.2-20.7,19.8-39.2,27.1c-18.8,7.3-41.5,12.3-66,12.3c-24.5,0.1-47.3-4.7-66.1-11.9
		c-18.6-7.2-34-16.7-39.4-26.8c-5.5-10.2,0.9-19.8,19.3-27.2c18-7.4,49.7-12.6,86-12.7c36.3-0.2,68,4.8,86,12.1
		C1598.1,615.3,1604.6,624.8,1599.2,635z"/>
</g>
</svg>
