<?xml version="1.0" encoding="utf-8"?>
<!-- Generator: Adobe Illustrator 22.0.0, SVG Export Plug-In . SVG Version: 6.00 Build 0)  -->
<svg version="1.1" id="Layer_1" xmlns="http://www.w3.org/2000/svg" xmlns:xlink="http://www.w3.org/1999/xlink" x="0px" y="0px"
	 viewBox="0 0 3000 3000" style="enable-background:new 0 0 3000 3000;" xml:space="preserve">
<style type="text/css">
	.st0{fill:#EEEEFF;}
	.st1{fill:#00726A;}
	.st2{fill:#E082F4;}
	.st3{fill:#49EA96;}
	.st4{fill:none;stroke:#00726A;stroke-width:11.2941;stroke-miterlimit:10;}
	.st5{fill:#006837;}
	.st6{fill:#FFBE83;stroke:#A04F12;stroke-width:11.2941;stroke-linecap:round;stroke-linejoin:round;stroke-miterlimit:10;}
	.st7{fill:#6757B5;}
	.st8{opacity:0;fill:#FFE5D4;}
	.st9{fill:none;stroke:#A04F12;stroke-width:11.2941;stroke-linecap:round;stroke-linejoin:round;stroke-miterlimit:10;}
	.st10{fill:#E56E03;}
	.st11{opacity:0.65;}
	.st12{fill:#FFF4E9;}
	.st13{fill:#FFFFFF;stroke:#A04F12;stroke-width:11.2941;stroke-linecap:round;stroke-linejoin:round;stroke-miterlimit:10;}
	.st14{fill:#A04F12;stroke:#A04F12;stroke-width:11.2941;stroke-linecap:round;stroke-linejoin:round;stroke-miterlimit:10;}
	.st15{fill:#FFCECA;stroke:#A04F12;stroke-width:11.2941;stroke-linecap:round;stroke-linejoin:round;stroke-miterlimit:10;}
	.st16{fill:#FF9085;stroke:#A04F12;stroke-width:11.2941;stroke-linecap:round;stroke-linejoin:round;stroke-miterlimit:10;}
	.st17{fill:#A04F12;}
	.st18{fill:#BFBBF2;stroke:#483D7F;stroke-width:11.2941;stroke-miterlimit:10;}
	.st19{fill:#FF9085;stroke:#D32D24;stroke-width:11.2941;stroke-linecap:round;stroke-linejoin:round;stroke-miterlimit:10;}
	.st20{fill:#D32D24;}
	.st21{fill:none;stroke:#00C85A;stroke-width:14;stroke-linecap:round;stroke-miterlimit:10;}
	.st22{fill:none;stroke:#AEFFCF;stroke-width:12;stroke-linecap:round;stroke-linejoin:round;stroke-miterlimit:10;}
	.st23{fill:#00C85A;}
	.st24{fill:none;stroke:#00726A;stroke-width:10;stroke-miterlimit:10;}
	.st25{fill:none;stroke:#831F9B;stroke-width:12;stroke-miterlimit:10;}
	.st26{fill:none;stroke:#AEFFCF;stroke-width:12;stroke-miterlimit:10;}
</style>
<path class="st0" d="M3000,0H0v1567.8c939.6,252.8,2554.2,429.8,3000,475.5V0z"/>
<path class="st1" d="M0,2330v-879.8c0,0-7.4-62.6,379.1-33.1c0,0,73.6-254,530.1-47.9c0,0,67.1-257.5,231.9-279.8
	c136.2-18.4,187.7,88.3,187.7,88.3s397.5-154.6,750.9,254c0,0,220.9-239.3,379.1-33.1c0,0,327.6-191.4,541.1-154.6V2330H0z"/>
<path class="st2" d="M0,3000h3000v-362.4C1414.9,2580.4,281.4,2087.8,0,1953.6V3000z"/>
<path class="st3" d="M0,1567.8v385.9c281.4,134.2,1414.9,626.7,3000,683.9v-594.3C2554.2,1997.6,939.6,1820.6,0,1567.8z"/>
<g>
	<path class="st4" d="M0,1953.6c281.4,134.2,1414.9,626.7,3000,683.9"/>
	<path class="st4" d="M3000,2043.3c-445.8-45.8-2060.4-222.7-3000-475.5"/>
</g>
<ellipse class="st5" cx="1465.5" cy="2055" rx="362.5" ry="40"/>
<g>
	<path class="st6" d="M1558.8,1546c0,0,18.1,215.5-189.3,195.3s-273.8-68.5-273.8-68.5s28.2,138.9-102.7,136.9
		c-105.9-1.6-118.2-61.2-119-83.9c-0.2-5.2,1.4-10.3,4.5-14.5c19.6-26.4,102.5-136,164-188.7c6.4-5.5,15.3-7.1,23.2-4.1
		c36.5,13.9,159.6,76.4,230.9,73.1c86.6-4,125.3-122.1,125.3-122.1L1558.8,1546z"/>
	<path class="st6" d="M1496.4,1940.7c40.3-229.5,156.6-213.2,215-158.8c58.4,54.4-31.7,168.9-120.3,247.4
		c-88.6,78.5-155,10.1-155,10.1c-157.1-163.1-277.9-646.4-277.9-646.4s200.7,5,177.4,44.3c-57.2,96.1,82.4,342.3,183.1,416.8"/>
	<path class="st6" d="M1054.7,1639.3c0,0,15.1,19.4,41,33.5"/>
</g>
<path class="st7" d="M2702,2916H298c-119.5,0-216.5-96.9-216.5-216.5v-292.1c0-119.5,96.9-216.5,216.5-216.5H2702
	c119.5,0,216.5,96.9,216.5,216.5v292.1C2918.5,2819.1,2821.6,2916,2702,2916z"/>
<path class="st6" d="M1460.4,1048l221-28c-120.4-134.9-10.8-204.7-10.8-204.7l-140.4-36.4l-0.8-0.2L1389,742.2
	c0,0,61.8,114.3-109,173.7l179.6,131.9l-0.1,0.3l0.5-0.1l0.4,0.3L1460.4,1048z"/>
<path class="st8" d="M1247.6,1320.9c-20.1,14.4-40.2,51.7-3.9,116.2c36.3,64.4,124.5,153.6,162.1,120
	C1458.8,1509.8,1316.4,1271.6,1247.6,1320.9z"/>
<g>
	<g>
		<g>
			<path class="st9" d="M1882.6,756.2c0,0,199.7-1.8,317-65.7"/>
			<line class="st9" x1="2147.5" y1="784.7" x2="1875.7" y2="791.5"/>
			<path class="st9" d="M1864.7,821.9c0,0,164.3,6.7,196,75.2"/>
		</g>
		<path class="st6" d="M1642.5,295.2c0,0,209.2-83.3,261.2-49.3s-18.6,144.5-47.1,173.9c-30.9,31.7-72,47.8-98.7,19.9"/>
		<path class="st10" d="M1773.5,414.2c0,0-5.7-21.6-47.2-73.1c-41.6-51.5,169.2-73,168.4-34.3
			C1893.7,344.6,1797.8,457.8,1773.5,414.2z"/>
		<g>
			<g>
				<path class="st6" d="M2013.7,685.2c-37.1,68.7-109.7,126.9-190,168.4c-80.9,40.7-172.6,63.9-260.1,45.9
					c-87.7-17-158.5-73.8-209.6-148c-50.2-74.2-83.7-166.8-80.5-254.8c2.7-88.2,45.2-158.7,123.3-196.2
					c77-37.7,195.4-40.3,320.4-0.9c125.2,38.7,226,107.3,276.4,175.6C2045,544.5,2051.4,616.5,2013.7,685.2z"/>
				<path class="st6" d="M2013.7,685.2c-37.1,68.7-109.7,126.9-190,168.4c-80.9,40.7-172.6,63.9-260.1,45.9
					c-87.7-17-158.5-73.8-209.6-148c-50.2-74.2-83.7-166.8-80.5-254.8c2.7-88.2,45.2-158.7,123.3-196.2
					c77-37.7,195.4-40.3,320.4-0.9c125.2,38.7,226,107.3,276.4,175.6C2045,544.5,2051.4,616.5,2013.7,685.2z"/>
			</g>
		</g>
		<g class="st11">
			<path class="st12" d="M1856.7,425.7c-8.1,8.3-24.9,12.9-43.8,14.4c-19.1,1.4-41-0.6-62.8-8c-21.8-7.3-40.5-18.9-54.9-31.6
				c-14.1-12.6-24.8-26.5-26.2-38c-1.5-11.5,7.4-18.9,26.1-20.6c18.5-1.7,48.3,2.8,80.6,13.7c32.3,10.8,58.8,25.3,72.5,37.8
				C1862.3,406.2,1864.9,417.4,1856.7,425.7z"/>
		</g>
		<g>
			<g>
				<g>
					<path class="st13" d="M1508.5,429.6c-5.2,6.5-9.3,14.1-12.5,22.7c-6.9,20.4-6.3,40.2,4.2,56.7c9.4,15.2,27,27.5,49.6,36.5
						l42.7-67.9L1508.5,429.6z"/>
					<path class="st14" d="M1624.2,553c16.8-5.6,29-18.6,36.7-36.1l-68.3-39.1l-42.7,67.9c2.1,0.8,4.2,1.7,6.4,2.4
						C1581.9,557,1605.9,559.4,1624.2,553z"/>
				</g>
			</g>
		</g>
		<g>
			<g>
				<g>
					<path class="st13" d="M1962.7,545.4c0.7,8.2-0.1,16.9-2.3,25.8c-5.6,20.8-17.2,36.9-35.1,44.7c-16.2,7.3-37.8,7.7-61.5,2.7
						l2.4-80.2L1962.7,545.4z"/>
					<path class="st14" d="M1797.9,583.2c-10.8-14.1-13.7-31.6-10.3-50.4l78.4,5.6l-2.4,80.2c-2.2-0.5-4.4-1-6.6-1.5
						C1830.8,610.1,1809.6,598.8,1797.9,583.2z"/>
				</g>
			</g>
		</g>
		<path class="st6" d="M1514.7,280.6c0,0-186.2-126.6-244.3-104.7c-58.1,21.9-13.2,145.1,8.3,180c23.2,37.7,59.9,62.2,92.1,40.8"/>
		<path class="st10" d="M1346.8,365.3c0,0,13-18.2,70-51.7s-132.5-128.1-145.4-91.6C1259,257.6,1308.7,397.4,1346.8,365.3z"/>
		<g>
			<path class="st9" d="M1439.7,588.7c0,0-211.4-79.6-311.1-193.1"/>
			<line class="st9" x1="1147.2" y1="515.9" x2="1433.3" y2="628.9"/>
			<path class="st9" d="M1433.2,665.5c0,0-177.2-56.8-237.5,3.6"/>
		</g>
		<g>
			<path class="st15" d="M1690.7,667.6c-42.4-6.5-82,5.5-104.8,28.6c17.3,11.4,34.5,24.7,51.2,39.8c33.6,30.5,60.2,64,78.3,96.6
				c39.1-7.8,69-32.2,74-65C1796.4,721.8,1752.2,677,1690.7,667.6z"/>
			<path class="st16" d="M1637.1,735.9c-16.6-15.1-33.9-28.4-51.2-39.8c-10.3,10.4-17.1,23-19.3,37.3c-7,45.8,37.2,90.6,98.7,100
				c17.5,2.7,34.5,2.2,50-0.9C1697.3,800,1670.7,766.4,1637.1,735.9z"/>
		</g>
		<path class="st6" d="M1537.2,364.2c0,0,110.1,71.6,146.5,135.2"/>
		<path class="st6" d="M1766.5,505.7c0,0,87.2-26.4,179.3-27.6"/>
		<g>
			<path class="st6" d="M1707.3,657.5c-10.8,42.2-60,66.1-109.8,53.3c-33.4-8.5-58.6-31.4-68.4-58.2"/>
			<path class="st6" d="M1707.3,657.5c-10.8,42.2,20.8,86.8,70.7,99.5c33.4,8.5,66.5,0.6,87.9-18.2"/>
		</g>
		<path class="st17" d="M1643.3,611.7c3.7,16.7,12.2,32.6,22.1,44.5c10.1,12,21.9,20.2,36.2,24c14.3,3.6,28.6,2,43.2-3.6
			c14.4-5.7,29.4-15.5,40.7-28.4c11.1-12.9,14.5-26,4.3-37.6c-9.6-11.6-33.5-22-62.9-29.5c-29.4-7.5-55.3-9.8-69.4-4.3
			C1643,581.9,1639.8,595.1,1643.3,611.7z"/>
	</g>
</g>
<g>
	<path class="st0" d="M987.6,2678.4h-73.4v-177.5h-92.8v-60.5h259.1v60.5h-92.8V2678.4z"/>
	<path class="st0" d="M1112.6,2670.9c-18.5-8.2-32.4-19.1-41.7-32.8c-9.3-13.7-13.9-29.1-13.9-46.1s4.6-32.4,13.9-46.2
		c9.3-13.8,23.2-24.8,41.7-32.8c18.5-8,40.9-12.1,67.1-12.1c26.3,0,48.6,4,67,12.1c18.4,8,32.2,19,41.6,32.8
		c9.4,13.8,14.1,29.2,14.1,46.2s-4.7,32.4-14.1,46.1c-9.4,13.7-23.3,24.7-41.8,32.8c-18.5,8.2-40.7,12.2-66.8,12.2
		C1153.4,2683.2,1131,2679.1,1112.6,2670.9z M1222.9,2621.1c10-7.6,15-17.3,15-29.1c0-11.6-5-21.3-15.1-29.1
		c-10.1-7.8-24.4-11.7-43-11.7c-18.6,0-32.9,3.9-43,11.7c-10.1,7.8-15.1,17.5-15.1,29.1c0,11.8,5,21.5,15,29.1
		c10,7.6,24.4,11.4,43.2,11.4C1198.5,2632.5,1212.9,2628.7,1222.9,2621.1z"/>
	<path class="st0" d="M1418.4,2678.4v-173.1h64.6l-8.5,46.6h6.5c5-16.8,13.5-29.5,25.5-38.1c12-8.6,27.1-12.9,45.2-12.9
		c26.1,0,46.1,7.7,60.2,23.1c14.1,15.4,21.1,38.5,21.1,69.4v7.1h-66v-1.7c0-13.4-3.7-23.7-11.1-31.1c-7.4-7.4-17.7-11-31.1-11
		c-13.4,0-23.7,3.9-30.9,11.6c-7.3,7.7-10.9,19-10.9,34v76.2H1418.4z"/>
	<path class="st0" d="M1683.4,2658.7c-16-16.3-24-38.8-24-67.3v-86h64.6v71.1c0,16.5,4.4,29.4,13.1,38.6
		c8.7,9.2,20.8,13.8,36.2,13.8c15.4,0,27.5-4.6,36.2-13.8c8.7-9.2,13.1-22,13.1-38.6v-71.1h64.6v173.1h-64.6l8.8-50.3h-6.1
		c-5,18.1-14.1,31.8-27.2,41.1c-13.1,9.3-29.7,13.9-49.6,13.9C1721.1,2683.2,1699.4,2675,1683.4,2658.7z"/>
	<path class="st0" d="M1925.3,2678.4v-173.1h64.6l-9.2,50.7h6.5c10.2-36.7,36.6-55.1,79.2-55.1c28.6,0,51,8.2,67.3,24.7
		c16.3,16.4,24.5,39.3,24.5,68.5v84.3h-64.6v-69c0-17.2-4.6-30.5-13.8-40c-9.2-9.4-21.9-14.1-38.3-14.1c-16.3,0-29,4.7-38.1,14.1
		c-9.1,9.4-13.6,22.7-13.6,40v69H1925.3z"/>
</g>
<g>
	<path class="st6" d="M1651.7,1096.4c0,0,164.5,95.6,285.2,66.2c120.8-29.3,226.4-193.7,226.4-193.7s55.4-0.5,86.6-35.3
		c31.2-34.8,50-123.8-22.8-168.2s-181.5-65-192.1,25.3c0,0-31.4,2.1-35.4,34.9s12.9,60.9,12.9,60.9s1.9,211.5-316.5,153
		L1651.7,1096.4z"/>
	<path class="st6" d="M2042.3,859.9c0,0,51.4,32.4,79.2,17.1c27.8-15.3,21.1-63.4-84.2-85"/>
	<path class="st6" d="M2144,809c0,0-29.9,22.4,5,63c49,57,100.5-3.8,100.5-3.8"/>
</g>
<path class="st6" d="M1608.3,937.5c107.7,80.5,160.6,229.7,122,378.7c-49.7,191.6-232.1,310.1-407.3,264.7
	c-175.3-45.5-277-237.6-227.3-429.3c33.5-129,127.1-224.9,238.2-259.9c14.9-4.7,30-8.3,45.4-10.7"/>
<g class="st11">
	<path class="st12" d="M1608.5,1032.7c-5.6,21.9-18.1,41.8-32.4,56.5c-14.4,14.6-31.2,24.1-48.2,22.5c-17.1-1.3-32-13.5-43.8-30.3
		c-11.6-16.9-20.6-38.6-22.4-61.2c-1.9-22.6,4.4-43.1,18.5-58.1c13.9-14.9,36.6-19.9,61.8-17.6c25.3,2,46.7,10.7,57.9,27.8
		C1611.4,989.5,1614.1,1010.8,1608.5,1032.7z"/>
</g>
<g>
	<path class="st6" d="M1404.6,874.4c0,0-198.7-186.2-417.2-112.8s-282.9,274-282.9,274s-55.6,50-55.5,103.9
		c0.1,54.2,11.6,86.8,92.2,122.7s141.5-7.2,148.6-32.2c7.2-25.1,9-57.3-26.9-80.6c0,0,29,22.9,38,23.7c26.5,2.2,39-38,5-84.6
		c-34-46.6,7.2-109.2,19.7-128.9c12.5-19.7,75.2-111,211.3-100.3s222,78.8,225.6,82.4"/>
	<path class="st6" d="M863,1124.1c0,0-19.7,41.2-14.3,69.8"/>
</g>
<path class="st18" d="M1144,1043.9c55,48.3,268.4,216.8,588,231.3c12.9,0.6,22.3,12.4,19.8,25.1c-7.7,39.3-26.9,116.5-63.4,155.7
	c-8.5,9.1-21.8,12.2-33.5,7.9c-88.9-32.2-496.7-186.9-562.3-335c-2.6-5.8-3.4-12.2-2.5-18.4c2.1-13.5,8.3-39.4,26.1-63.6
	C1122.8,1037.9,1135.7,1036.5,1144,1043.9z"/>
<path class="st19" d="M1521.4,1149.3l12.5,60.7c6.3,30.6,27.3,56.2,56.2,68.4l57.1,24.1l-53.9,30.7c-27.2,15.5-45,43.4-47.7,74.6
	l-5.2,61.8l-45.8-41.7c-23.1-21.1-55.2-29.4-85.6-22.3l-60.4,14.1l25.5-56.5c12.9-28.5,10.9-61.5-5.3-88.3l-32.1-53.1l61.6,6.8
	c31.1,3.4,61.9-8.6,82.4-32.3L1521.4,1149.3z"/>
<g>
	<path class="st20" d="M1495.4,1344.8l39.8,11.1l-8.9,32.1L1401,1353l8.9-32.1l46.2,12.9l5.6-20.1c2.2-7.7,5.1-14.5,8.8-20.2
		c3.7-5.7,9.3-13.2,16.8-22.5l-3.3-0.9c-6.3,7.5-12.2,13.2-17.5,17c-5.4,3.8-11.1,6-17.2,6.7c-6.1,0.7-13.2-0.1-21.5-2.4l-2.4-0.7
		l9.1-32.8l8.7,2.4c23.2,6.5,37.7-0.6,43.4-21.3l0.3-1.1l35.4,9.9L1495.4,1344.8z"/>
</g>
<path class="st21" d="M359,1388c0,0-71,117-2,202"/>
<path class="st22" d="M2643,1774c0,0,60-189-72-360"/>
<g>
	<g>
		<g>
			<polygon class="st23" points="201.5,1168.7 287.6,1120.6 254.9,1027.6 349.9,1001.8 328,921.7 406.3,945 439.9,871.3 
				452.4,951.3 534,949.9 491.4,1021.3 575.9,1071.6 519.4,1152.4 589.4,1221.9 514.9,1284.9 561.9,1370.7 469.9,1401.9 
				479.5,1487.8 403.9,1447.2 351.6,1515 319.5,1435.6 235.8,1454.4 268.1,1374.2 188,1319.4 256.3,1249.4 			"/>
			<polygon class="st24" points="201.5,1168.7 287.6,1120.6 254.9,1027.6 349.9,1001.8 328,921.7 406.3,945 439.9,871.3 
				452.4,951.3 534,949.9 491.4,1021.3 575.9,1071.6 519.4,1152.4 589.4,1221.9 514.9,1284.9 561.9,1370.7 469.9,1401.9 
				479.5,1487.8 403.9,1447.2 351.6,1515 319.5,1435.6 235.8,1454.4 268.1,1374.2 188,1319.4 256.3,1249.4 			"/>
		</g>
	</g>
</g>
<path class="st22" d="M2522,1817c0,0,142-97,216,0"/>
<path class="st21" d="M315,1609c0,0,106-54,160,0"/>
<g>
	<g>
		<g>
			<path class="st2" d="M1804.6,1443.3c7.2-20.8,61.9-18,75.7-37c13-17.9-8.7-67.9,8.5-83.6c16.6-15.1,65.2,10.4,84.3-2.1
				c20.4-13.1,18.9-68.6,41.6-77.9c22.5-9.2,59.6,31.6,83.7,27.4c23.7-4.2,45.4-55.2,70.1-53.4c24.7,1.6,39.3,55.1,62.2,62.4
				c23.3,7.4,65.7-27.9,86.7-15.8c21.2,12.2,12.2,67.1,30.6,82.8c17.2,15,68.8-3.8,83.2,13.5c14.9,17.8-13.3,64.5-2.9,83.9
				c11.1,20.7,65.7,25.3,70,46.9c4.3,21.1-44.5,41.1-48.7,60.4c-4.2,19.6,31.5,58.5,18.6,75.4c-11.5,15.1-60.3-6.9-78.7,5.4
				c-22.7,15.5-32,71.8-65.2,79.3c-27.6,6.2-64.8-39.5-97.6-38.1c-29.1,1.2-60.6,50.5-92.5,48.2c-31.9-2.1-56.4-55.2-85.2-60.3
				c-32.3-5.8-75.4,34.5-101.9,24.6c-31.9-11.9-33.5-69-53.9-87.4c-16.5-14.7-67.9,0.5-77.2-16c-10.5-18.5,30.1-52.2,28.6-72.2
				C1843.2,1490.1,1797.4,1463.6,1804.6,1443.3z"/>
			<path class="st25" d="M1804.6,1443.3c7.2-20.8,61.9-18,75.7-37c13-17.9-8.7-67.9,8.5-83.6c16.6-15.1,65.2,10.4,84.3-2.1
				c20.4-13.1,18.9-68.6,41.6-77.9c22.5-9.2,59.6,31.6,83.7,27.4c23.7-4.2,45.4-55.2,70.1-53.4c24.7,1.6,39.3,55.1,62.2,62.4
				c23.3,7.4,65.7-27.9,86.7-15.8c21.2,12.2,12.2,67.1,30.6,82.8c17.2,15,68.8-3.8,83.2,13.5c14.9,17.8-13.3,64.5-2.9,83.9
				c11.1,20.7,65.7,25.3,70,46.9c4.3,21.1-44.5,41.1-48.7,60.4c-4.2,19.6,31.5,58.5,18.6,75.4c-11.5,15.1-60.3-6.9-78.7,5.4
				c-22.7,15.5-32,71.8-65.2,79.3c-27.6,6.2-64.8-39.5-97.6-38.1c-29.1,1.2-60.6,50.5-92.5,48.2c-31.9-2.1-56.4-55.2-85.2-60.3
				c-32.3-5.8-75.4,34.5-101.9,24.6c-31.9-11.9-33.5-69-53.9-87.4c-16.5-14.7-67.9,0.5-77.2-16c-10.5-18.5,30.1-52.2,28.6-72.2
				C1843.2,1490.1,1797.4,1463.6,1804.6,1443.3z"/>
		</g>
	</g>
</g>
<g>
	<path class="st1" d="M2444,1679.3c-53,32.6-117.4,3.4-173.3-44.1c-42.1-35.7-91.2-27.1-114.9-14.6c-23.7,12.5-52.6,23.1-147.5-28
		s-199.1,49.4-199.1,49.4l2.8,121l649,118L2444,1679.3z"/>
	<path class="st22" d="M1809.2,1642c0,0,104.1-100.4,199.1-49.4s123.8,40.5,147.5,28c23.7-12.5,72.8-21.1,114.9,14.6
		c55.9,47.5,120.4,76.7,173.3,44.1"/>
</g>
<g>
	<path class="st23" d="M2815.2,1188.1c-6-31-26.7-55.2-57.4-65.1c-13.6-4.6-29.2-6.3-46.3-5.4c19.2-32,29.1-63,27.5-89.9
		c-1.5-32.1-19.4-58.5-47.7-72.5c-28.4-13.7-60.3-11.6-86.5,7.1c-5.4,3.7-10.5,8.1-15.4,13.1c-5.4-16.9-12.9-31.4-22.5-42.8
		c-20.4-24.9-50.5-35.3-81.6-29.6c-31,6-55.2,26.7-65.1,57.4c-4.8,14.1-6.4,30.3-5.3,48.1c-6.4-2.9-12.8-5.1-19.2-6.6
		c-31.2-7.7-61.6,1.9-83.1,25c-21.2,23.3-28.3,54.4-17.9,84.9c8.4,25.6,28.9,50.8,58.5,73.6c-16.2,5.4-30.1,12.7-41.1,22
		c-24.9,20.4-35.3,50.5-29.6,81.6c6,31,26.7,55.2,57.4,65.1c13.6,4.6,29.2,6.3,46.3,5.4c-19.2,32-29.1,63-27.5,89.9
		c1.5,32.1,19.4,58.5,47.7,72.5c28.4,13.7,60.3,11.6,86.5-7.1c5.4-3.7,10.5-8.1,15.4-13.1c5.4,16.9,12.9,31.4,22.5,42.8
		c20.4,24.9,50.5,35.3,81.6,29.6c31-6,55.2-26.7,65.1-57.4c4.8-14.1,6.4-30.3,5.3-48.1c6.4,2.9,12.8,5.1,19.2,6.6
		c31.2,7.7,61.6-1.9,83.1-25c21.2-23.3,28.3-54.4,17.9-84.9c-8.4-25.6-28.9-50.8-58.5-73.6c16.2-5.4,30.1-12.7,41.1-22
		C2810.5,1249.3,2820.9,1219.2,2815.2,1188.1z"/>
	<path class="st26" d="M2815.2,1188.1c-6-31-26.7-55.2-57.4-65.1c-13.6-4.6-29.2-6.3-46.3-5.4c19.2-32,29.1-63,27.5-89.9
		c-1.5-32.1-19.4-58.5-47.7-72.5c-28.4-13.7-60.3-11.6-86.5,7.1c-5.4,3.7-10.5,8.1-15.4,13.1c-5.4-16.9-12.9-31.4-22.5-42.8
		c-20.4-24.9-50.5-35.3-81.6-29.6c-31,6-55.2,26.7-65.1,57.4c-4.8,14.1-6.4,30.3-5.3,48.1c-6.4-2.9-12.8-5.1-19.2-6.6
		c-31.2-7.7-61.6,1.9-83.1,25c-21.2,23.3-28.3,54.4-17.9,84.9c8.4,25.6,28.9,50.8,58.5,73.6c-16.2,5.4-30.1,12.7-41.1,22
		c-24.9,20.4-35.3,50.5-29.6,81.6c6,31,26.7,55.2,57.4,65.1c13.6,4.6,29.2,6.3,46.3,5.4c-19.2,32-29.1,63-27.5,89.9
		c1.5,32.1,19.4,58.5,47.7,72.5c28.4,13.7,60.3,11.6,86.5-7.1c5.4-3.7,10.5-8.1,15.4-13.1c5.4,16.9,12.9,31.4,22.5,42.8
		c20.4,24.9,50.5,35.3,81.6,29.6c31-6,55.2-26.7,65.1-57.4c4.8-14.1,6.4-30.3,5.3-48.1c6.4,2.9,12.8,5.1,19.2,6.6
		c31.2,7.7,61.6-1.9,83.1-25c21.2-23.3,28.3-54.4,17.9-84.9c-8.4-25.6-28.9-50.8-58.5-73.6c16.2-5.4,30.1-12.7,41.1-22
		C2810.5,1249.3,2820.9,1219.2,2815.2,1188.1z"/>
</g>
</svg>
