<?xml version="1.0" encoding="utf-8"?>
<!-- Generator: Adobe Illustrator 22.0.0, SVG Export Plug-In . SVG Version: 6.00 Build 0)  -->
<svg version="1.1" id="Layer_1" xmlns="http://www.w3.org/2000/svg" xmlns:xlink="http://www.w3.org/1999/xlink" x="0px" y="0px"
	 viewBox="0 0 3000 3000" style="enable-background:new 0 0 3000 3000;" xml:space="preserve">
<style type="text/css">
	.st0{fill:#EEEEFF;}
	.st1{fill:#00726A;}
	.st2{fill:#E082F4;}
	.st3{fill:#49EA96;}
	.st4{fill:none;stroke:#00726A;stroke-width:11.2941;stroke-miterlimit:10;}
	.st5{fill:#006837;}
	.st6{fill:#FFBE83;stroke:#A04F12;stroke-width:11.2941;stroke-linecap:round;stroke-linejoin:round;stroke-miterlimit:10;}
	.st7{fill:#5C4FB7;}
	.st8{opacity:0;fill:#FFE5D4;}
	.st9{fill:none;stroke:#A04F12;stroke-width:11.2941;stroke-linecap:round;stroke-linejoin:round;stroke-miterlimit:10;}
	.st10{fill:#E56E03;}
	.st11{opacity:0.65;}
	.st12{fill:#FFF4E9;}
	.st13{fill:#FFCECA;stroke:#A04F12;stroke-width:11.2941;stroke-linecap:round;stroke-linejoin:round;stroke-miterlimit:10;}
	.st14{fill:#FF9085;stroke:#A04F12;stroke-width:11.2941;stroke-linecap:round;stroke-linejoin:round;stroke-miterlimit:10;}
	.st15{fill:#A04F12;}
	.st16{fill:#FFFFFF;stroke:#A04F12;stroke-width:0.8067;stroke-miterlimit:10;}
	.st17{fill:#A04F12;stroke:#A04F12;stroke-width:0.8067;stroke-miterlimit:10;}
	.st18{font-family:'TTTravelsNextTrl-XBd';}
	.st19{font-size:320px;}
	.st20{fill:#BFBBF2;stroke:#483D7F;stroke-width:11.2941;stroke-miterlimit:10;}
	.st21{fill:#FF9085;stroke:#D32D24;stroke-width:11.2941;stroke-linecap:round;stroke-linejoin:round;stroke-miterlimit:10;}
	.st22{fill:#D32D24;}
	.st23{fill:none;stroke:#00C85A;stroke-width:14;stroke-linecap:round;stroke-miterlimit:10;}
	.st24{fill:none;stroke:#AEFFCF;stroke-width:12;stroke-linecap:round;stroke-linejoin:round;stroke-miterlimit:10;}
	.st25{fill:#00C85A;}
	.st26{fill:none;stroke:#00726A;stroke-width:10;stroke-linecap:round;stroke-linejoin:round;stroke-miterlimit:10;}
	.st27{fill:none;stroke:#831F9B;stroke-width:12;stroke-miterlimit:10;}
	.st28{fill:none;stroke:#AEFFCF;stroke-width:12;stroke-miterlimit:10;}
	.st29{fill:#00C85A;stroke:#00726A;stroke-width:10;stroke-linecap:round;stroke-linejoin:round;stroke-miterlimit:10;}
	.st30{fill:#831F9B;}
	.st31{fill:#E082F4;stroke:#831F9B;stroke-width:12;stroke-linecap:round;stroke-linejoin:round;stroke-miterlimit:10;}
	.st32{fill:#AEFFCF;}
</style>
<path class="st0" d="M3000,0H0v1567.8c939.6,252.8,2554.2,429.8,3000,475.5V0z"/>
<path class="st1" d="M0,2330v-879.8c0,0,40.8-221.4,390-57.3c0,0,62.8-229.8,519.2-23.7c0,0,67.1-257.5,231.9-279.8
	c136.2-18.4,187.7,88.3,187.7,88.3s397.5-154.6,750.9,254c0,0,220.9-239.3,379.1-33.1c0,0,327.6-191.4,541.1-154.6V2330H0z"/>
<path class="st2" d="M0,3000h3000v-362.4C1414.9,2580.4,281.4,2087.8,0,1953.6V3000z"/>
<path class="st3" d="M0,1567.8v385.9c281.4,134.2,1414.9,626.7,3000,683.9v-594.3C2554.2,1997.6,939.6,1820.6,0,1567.8z"/>
<g>
	<path class="st4" d="M0,1953.6c281.4,134.2,1414.9,626.7,3000,683.9"/>
	<path class="st4" d="M3000,2043.3c-445.8-45.8-2060.4-222.7-3000-475.5"/>
</g>
<ellipse class="st5" cx="1465.5" cy="2055" rx="362.5" ry="40"/>
<g>
	<path class="st6" d="M1558.8,1546c0,0,18.1,215.5-189.3,195.3s-273.8-68.5-273.8-68.5s28.2,138.9-102.7,136.9
		c-105.9-1.6-118.2-61.2-119-83.9c-0.2-5.2,1.4-10.3,4.5-14.5c19.6-26.4,102.5-136,164-188.7c6.4-5.5,15.3-7.1,23.2-4.1
		c36.5,13.9,159.6,76.4,230.9,73.1c86.6-4,125.3-122.1,125.3-122.1L1558.8,1546z"/>
	<path class="st6" d="M1496.4,1940.7c40.3-229.5,156.6-213.2,215-158.8c58.4,54.4-31.7,168.9-120.3,247.4
		c-88.6,78.5-155,10.1-155,10.1c-157.1-163.1-277.9-646.4-277.9-646.4s200.7,5,177.4,44.3c-57.2,96.1,82.4,342.3,183.1,416.8"/>
	<path class="st6" d="M1054.7,1639.3c0,0,15.1,19.4,41,33.5"/>
</g>
<path class="st7" d="M2214.5,2916h-1429c-118.7,0-215-96.3-215-215v-295c0-118.7,96.3-215,215-215h1429c118.7,0,215,96.3,215,215
	v295C2429.5,2819.7,2333.2,2916,2214.5,2916z"/>
<path class="st6" d="M1460.4,1048l221-28c-120.4-134.9-10.8-204.7-10.8-204.7l-140.4-36.4l-0.8-0.2L1389,742.2
	c0,0,61.8,114.3-109,173.7l179.6,131.9l-0.1,0.3l0.5-0.1l0.4,0.3L1460.4,1048z"/>
<path class="st8" d="M1247.6,1320.9c-20.1,14.4-40.2,51.7-3.9,116.2c36.3,64.4,124.5,153.6,162.1,120
	C1458.8,1509.8,1316.3,1271.6,1247.6,1320.9z"/>
<g>
	<g>
		<g>
			<path class="st9" d="M1882.6,756.2c0,0,199.7-1.8,317-65.7"/>
			<line class="st9" x1="2147.5" y1="784.7" x2="1875.7" y2="791.5"/>
			<path class="st9" d="M1864.7,821.9c0,0,164.3,6.7,196,75.2"/>
		</g>
		<path class="st6" d="M1822.6,340.7c0,0,216.9-60.6,265-21.3c48.1,39.3-33.8,141.7-65.3,167.9c-34,28.3-76.6,39.9-100.3,9.3"/>
		<path class="st10" d="M1945.5,475.3c0,0-5.1-21.7-45.3-74.3c-40.2-52.6,171.1-68.6,169.2-29.8
			C2067.5,408.8,1968.7,519.4,1945.5,475.3z"/>
		<g>
			<g>
				<path class="st6" d="M2022.8,620.7c-25.2,72.7-87.3,139.2-160.2,190.7c-73.7,50.8-161.4,86.4-251.5,82.3
					c-90.2-3.2-169.7-46.8-231.6-110.8c-61.1-64-107.8-148.8-117.1-236.1c-9.9-87.3,22.5-164.9,94.3-215.6
					c70.7-50.7,186.6-73.2,314.7-52.8c128.3,19.6,237.2,74.5,297.5,136.1C2030.3,477,2048.5,548,2022.8,620.7z"/>
				<path class="st6" d="M2022.8,620.7c-25.2,72.7-87.3,139.2-160.2,190.7c-73.7,50.8-161.4,86.4-251.5,82.3
					c-90.2-3.2-169.7-46.8-231.6-110.8c-61.1-64-107.8-148.8-117.1-236.1c-9.9-87.3,22.5-164.9,94.3-215.6
					c70.7-50.7,186.6-73.2,314.7-52.8c128.3,19.6,237.2,74.5,297.5,136.1C2030.3,477,2048.5,548,2022.8,620.7z"/>
			</g>
		</g>
		<g class="st11">
			<path class="st12" d="M1888.7,409.7c-8.1,8.3-24.9,12.9-43.8,14.4c-19.1,1.4-41-0.6-62.8-8c-21.8-7.3-40.5-18.9-54.9-31.6
				c-14.1-12.6-24.8-26.5-26.2-38c-1.5-11.5,7.4-18.9,26.1-20.6c18.5-1.7,48.3,2.8,80.6,13.7c32.3,10.8,58.8,25.3,72.5,37.8
				C1894.3,390.2,1896.9,401.4,1888.7,409.7z"/>
		</g>
		<path class="st6" d="M1514.7,280.6c0,0-186.2-126.6-244.3-104.7s-13.2,145.1,8.3,180c23.2,37.7,59.9,62.2,92.1,40.8"/>
		<path class="st10" d="M1346.8,365.3c0,0,13-18.2,70-51.7c57.1-33.5-132.5-128.1-145.4-91.6C1259,257.6,1308.6,397.4,1346.8,365.3z
			"/>
		<g>
			<path class="st9" d="M1439.7,588.7c0,0-211.4-79.6-311.1-193.1"/>
			<line class="st9" x1="1147.2" y1="515.9" x2="1433.3" y2="628.9"/>
			<path class="st9" d="M1433.2,665.5c0,0-177.2-56.8-237.5,3.6"/>
		</g>
		<g>
			<path class="st13" d="M1681.4,665.3c-42.1-8.4-82.2,1.8-106,23.9c16.8,12.1,33.4,26.2,49.3,42c32.2,32,57.3,66.7,73.8,100
				c39.4-6,70.4-29.1,76.9-61.6C1784.5,724.2,1742.4,677.5,1681.4,665.3z"/>
			<path class="st14" d="M1624.7,731.2c-15.9-15.8-32.6-29.9-49.3-42c-10.7,9.9-18.1,22.2-20.9,36.4c-9.1,45.4,33,92.2,94.1,104.3
				c17.4,3.5,34.4,3.8,50,1.4C1682,797.9,1656.9,763.2,1624.7,731.2z"/>
		</g>
		<path class="st6" d="M1550.2,351.2c0,0,110.1,71.6,146.5,135.2"/>
		<path class="st6" d="M1786.5,528.7c0,0,87.2-26.4,179.3-27.6"/>
		<g>
			<path class="st6" d="M1698.4,656c-12.7,41.7-62.9,63.3-112.1,48.4c-33-10-57.2-34-65.7-61.2"/>
			<path class="st6" d="M1698.4,656c-12.7,41.7,16.9,87.6,66.1,102.6c33,10,66.4,3.6,88.7-14.2"/>
		</g>
		<path class="st15" d="M1636.5,607.4c2.9,16.8,10.7,33.1,20,45.4c9.5,12.4,20.9,21.2,35.1,25.6c14.1,4.3,28.5,3.3,43.4-1.7
			c14.6-5,30.1-14.2,41.9-26.5c11.6-12.4,15.7-25.3,6-37.4c-9.1-12-32.5-23.4-61.5-32.3c-29-8.8-54.8-12.3-69.1-7.4
			C1637.6,577.6,1633.8,590.6,1636.5,607.4z"/>
		<g>
			<g>
				<path class="st16" d="M1561,545.3c-23.2-9.2-41-22.6-49.3-39.5c-8.6-16.8-7.7-37.3,0.2-58.4c8.4-20.9,21.6-36.6,39.3-43.2
					c17.6-6.9,39.7-4.7,63.1,4.2c23.2,9.2,41,22.6,49.3,39.5c8.6,16.8,7.7,37.3-0.2,58.4c-8.4,20.9-21.6,36.6-39.3,43.2
					C1606.4,556.4,1584.3,554.2,1561,545.3z"/>
				<path class="st17" d="M1511.6,505.8c8.3,16.9,26.1,30.3,49.3,39.5c23.3,8.9,45.5,11.1,63.1,4.2c17.7-6.6,30.9-22.2,39.3-43.2
					l-151.4-58.9C1503.9,468.6,1503,489,1511.6,505.8z"/>
				<path class="st9" d="M1561,545.3c-23.2-9.2-41-22.6-49.3-39.5c-8.6-16.8-7.7-37.3,0.2-58.4c8.4-20.9,21.6-36.6,39.3-43.2
					c17.6-6.9,39.7-4.7,63.1,4.2c23.2,9.2,41,22.6,49.3,39.5c8.6,16.8,7.7,37.3-0.2,58.4c-8.4,20.9-21.6,36.6-39.3,43.2
					C1606.4,556.4,1584.3,554.2,1561,545.3z"/>
			</g>
			<g>
				<path class="st16" d="M1865.1,659.4c-23.2-9.2-41-22.6-49.3-39.5c-8.6-16.8-7.7-37.3,0.2-58.4c8.4-20.9,21.6-36.6,39.3-43.2
					c17.6-6.9,39.7-4.7,63.1,4.2c23.2,9.2,41,22.6,49.3,39.5c8.6,16.8,7.7,37.3-0.2,58.4c-8.4,20.9-21.6,36.6-39.3,43.2
					C1910.5,670.4,1888.4,668.2,1865.1,659.4z"/>
				<path class="st17" d="M1815.7,619.9c8.3,16.9,26.1,30.3,49.3,39.5c23.3,8.9,45.5,11.1,63.1,4.2c17.7-6.6,30.9-22.2,39.3-43.2
					L1816,561.5C1808,582.6,1807.1,603,1815.7,619.9z"/>
				<path class="st9" d="M1865.1,659.4c-23.2-9.2-41-22.6-49.3-39.5c-8.6-16.8-7.7-37.3,0.2-58.4c8.4-20.9,21.6-36.6,39.3-43.2
					c17.6-6.9,39.7-4.7,63.1,4.2c23.2,9.2,41,22.6,49.3,39.5c8.6,16.8,7.7,37.3-0.2,58.4c-8.4,20.9-21.6,36.6-39.3,43.2
					C1910.5,670.4,1888.4,668.2,1865.1,659.4z"/>
			</g>
		</g>
	</g>
</g>
<text transform="matrix(1 0 0 1 846.5679 2658.8779)" class="st0 st18 st19">To run</text>
<g>
	<path class="st6" d="M1651.7,1096.4c0,0,164.5,95.6,285.2,66.2c120.8-29.3,226.4-193.7,226.4-193.7s55.4-0.5,86.6-35.3
		c31.2-34.8,50-123.8-22.8-168.2s-181.5-65-192.1,25.3c0,0-31.4,2.1-35.4,34.9s12.9,60.9,12.9,60.9s1.9,211.5-316.5,153
		L1651.7,1096.4z"/>
	<path class="st6" d="M2042.3,859.9c0,0,51.4,32.4,79.2,17.1c27.8-15.3,21.1-63.4-84.2-85"/>
	<path class="st6" d="M2144,809c0,0-29.9,22.4,5,63c49,57,100.5-3.8,100.5-3.8"/>
</g>
<path class="st6" d="M1608.3,937.5c107.7,80.5,160.6,229.7,122,378.7c-49.7,191.6-232.1,310.1-407.3,264.7
	c-175.3-45.5-277-237.6-227.3-429.3c33.5-129,127.1-224.9,238.2-259.9c14.9-4.7,30-8.3,45.4-10.7"/>
<g class="st11">
	<path class="st12" d="M1608.4,1032.7c-5.6,21.9-18.1,41.8-32.4,56.5c-14.4,14.6-31.2,24.1-48.2,22.5c-17.1-1.3-32-13.5-43.8-30.3
		c-11.6-16.9-20.6-38.6-22.4-61.2c-1.9-22.6,4.4-43.1,18.5-58.1c13.9-14.9,36.6-19.9,61.8-17.6c25.3,2,46.7,10.7,57.9,27.8
		C1611.4,989.5,1614.1,1010.8,1608.4,1032.7z"/>
</g>
<g>
	<path class="st6" d="M1404.6,874.4c0,0-198.7-186.2-417.2-112.8s-282.9,274-282.9,274s-55.6,50-55.5,103.9
		c0.1,54.2,11.6,86.8,92.2,122.7s141.5-7.2,148.6-32.2c7.2-25.1,9-57.3-26.9-80.6c0,0,29,22.9,38,23.7c26.5,2.2,39-38,5-84.6
		c-34-46.6,7.2-109.2,19.7-128.9c12.5-19.7,75.2-111,211.3-100.3s222,78.8,225.6,82.4"/>
	<path class="st6" d="M863,1124.1c0,0-19.7,41.2-14.3,69.8"/>
</g>
<path class="st20" d="M1144,1043.9c54.7,48.1,266.3,215.2,583.3,231.1c15.5,0.8,26.6,15.2,23.4,30.3c-8.5,40-28,110.9-65.1,145.6
	c-6.6,6.2-16.1,8.4-24.8,5.6c-77.5-24.5-486.9-160.7-568.3-327.6c-2.8-5.7-3.4-12.2-2.5-18.4c2.1-13.5,8.3-39.3,26.1-63.6
	C1122.8,1037.9,1135.6,1036.5,1144,1043.9z"/>
<path class="st21" d="M1521.4,1149.3l12.5,60.7c6.3,30.6,27.3,56.2,56.2,68.4l57.1,24.1l-53.9,30.7c-27.2,15.5-45,43.4-47.7,74.6
	l-5.2,61.8l-45.8-41.7c-23.1-21.1-55.2-29.4-85.6-22.3l-60.4,14.1l25.5-56.5c12.9-28.5,10.9-61.5-5.3-88.3l-32.1-53.1l61.6,6.8
	c31.1,3.4,61.9-8.6,82.4-32.3L1521.4,1149.3z"/>
<g>
	<path class="st22" d="M1495.4,1344.8l39.8,11.1l-8.9,32.1L1401,1353l8.9-32.1l46.2,12.9l5.6-20.1c2.2-7.7,5.1-14.5,8.8-20.2
		c3.7-5.7,9.3-13.2,16.8-22.5l-3.3-0.9c-6.3,7.5-12.2,13.2-17.5,17c-5.4,3.8-11.1,6-17.2,6.7c-6.1,0.7-13.2-0.1-21.5-2.4l-2.4-0.7
		l9.1-32.8l8.7,2.4c23.2,6.5,37.7-0.6,43.4-21.3l0.3-1.1l35.4,9.9L1495.4,1344.8z"/>
</g>
<path class="st23" d="M363,1322c0,0-71,117-2,202"/>
<path class="st24" d="M2687,1774c0,0,60-189-72-360"/>
<g>
	<g>
		<g>
			<polygon class="st25" points="205.5,1102.7 291.6,1054.6 258.9,961.6 353.9,935.8 332,855.7 410.3,879 443.9,805.3 456.4,885.3 
				538,883.9 495.4,955.3 579.9,1005.6 523.4,1086.4 593.4,1155.9 518.9,1218.9 565.9,1304.7 473.9,1335.9 483.5,1421.8 
				407.9,1381.2 355.6,1449 323.5,1369.6 239.8,1388.4 272.1,1308.2 192,1253.4 260.3,1183.4 			"/>
			<polygon class="st26" points="205.5,1102.7 291.6,1054.6 258.9,961.6 353.9,935.8 332,855.7 410.3,879 443.9,805.3 456.4,885.3 
				538,883.9 495.4,955.3 579.9,1005.6 523.4,1086.4 593.4,1155.9 518.9,1218.9 565.9,1304.7 473.9,1335.9 483.5,1421.8 
				407.9,1381.2 355.6,1449 323.5,1369.6 239.8,1388.4 272.1,1308.2 192,1253.4 260.3,1183.4 			"/>
		</g>
	</g>
</g>
<path class="st24" d="M2566,1817c0,0,142-97,216,0"/>
<path class="st23" d="M319,1543c0,0,106-54,160,0"/>
<g>
	<g>
		<g>
			<path class="st2" d="M1743.9,1488.7c8.9-20.2,63.2-12.8,78.5-30.6c14.4-16.7-3-68.4,15.4-82.6c17.8-13.7,64.1,15.8,84.2,4.9
				c21.4-11.3,24.6-66.8,47.9-74.2c23.1-7.3,56.8,36.4,81.2,34.2c24-2.2,49.8-51.2,74.3-47.4c24.5,3.6,34.6,58.1,56.9,67.3
				c22.6,9.3,67.7-22.4,87.7-8.6c20.1,13.9,6.6,67.9,23.7,85c15.9,16.3,68.9,2,81.8,20.3c13.4,19-18.6,63.2-9.8,83.4
				c9.3,21.5,63.4,30.6,65.9,52.5c2.6,21.4-47.8,37.3-53.5,56.2c-5.8,19.2,26.5,60.9,12.3,76.7c-12.7,14.1-59.6-11.9-78.9-1.1
				c-23.9,13.5-37.8,68.9-71.5,73.6c-28,3.9-61.3-44.7-94.1-46.1c-29.1-1.2-64.6,45.3-96.2,40.4c-31.6-4.7-51.7-59.6-79.9-67.1
				c-31.8-8.4-78,28.1-103.6,16.1c-30.8-14.5-27.6-71.5-46.5-91.5c-15.2-16.1-67.7-5.2-75.6-22.4c-8.9-19.3,34.4-49.6,34.5-69.6
				C1778.5,1538.5,1735.1,1508.4,1743.9,1488.7z"/>
			<path class="st27" d="M1743.9,1488.7c8.9-20.2,63.2-12.8,78.5-30.6c14.4-16.7-3-68.4,15.4-82.6c17.8-13.7,64.1,15.8,84.2,4.9
				c21.4-11.3,24.6-66.8,47.9-74.2c23.1-7.3,56.8,36.4,81.2,34.2c24-2.2,49.8-51.2,74.3-47.4c24.5,3.6,34.6,58.1,56.9,67.3
				c22.6,9.3,67.7-22.4,87.7-8.6c20.1,13.9,6.6,67.9,23.7,85c15.9,16.3,68.9,2,81.8,20.3c13.4,19-18.6,63.2-9.8,83.4
				c9.3,21.5,63.4,30.6,65.9,52.5c2.6,21.4-47.8,37.3-53.5,56.2c-5.8,19.2,26.5,60.9,12.3,76.7c-12.7,14.1-59.6-11.9-78.9-1.1
				c-23.9,13.5-37.8,68.9-71.5,73.6c-28,3.9-61.3-44.7-94.1-46.1c-29.1-1.2-64.6,45.3-96.2,40.4c-31.6-4.7-51.7-59.6-79.9-67.1
				c-31.8-8.4-78,28.1-103.6,16.1c-30.8-14.5-27.6-71.5-46.5-91.5c-15.2-16.1-67.7-5.2-75.6-22.4c-8.9-19.3,34.4-49.6,34.5-69.6
				C1778.5,1538.5,1735.1,1508.4,1743.9,1488.7z"/>
		</g>
	</g>
</g>
<g>
	<path class="st1" d="M2445.2,1677.3c-61.5,32.6-136.4,3.4-201.3-44.1c-48.8-35.7-105.9-27.1-133.4-14.6
		c-27.6,12.5-61,23.1-171.3-28S1708,1640,1708,1640l3.3,121l753.7,118L2445.2,1677.3z"/>
	<path class="st24" d="M1708,1640c0,0,120.9-100.4,231.2-49.4s143.7,40.5,171.3,28c27.6-12.5,84.6-21.1,133.4,14.6
		c64.9,47.5,139.8,76.7,201.3,44.1"/>
</g>
<g>
	<path class="st25" d="M2859.2,1188.1c-6-31-26.7-55.2-57.4-65.1c-13.6-4.6-29.2-6.3-46.3-5.4c19.2-32,29.1-63,27.5-89.9
		c-1.5-32.1-19.4-58.5-47.7-72.5c-28.4-13.7-60.3-11.6-86.5,7.1c-5.4,3.7-10.5,8.1-15.4,13.1c-5.4-16.9-12.9-31.4-22.5-42.8
		c-20.4-24.9-50.5-35.3-81.6-29.6c-31,6-55.2,26.7-65.1,57.4c-4.8,14.1-6.4,30.3-5.3,48.1c-6.4-2.9-12.8-5.1-19.2-6.6
		c-31.2-7.7-61.6,1.9-83.1,25c-21.2,23.3-28.3,54.4-17.9,84.9c8.4,25.6,28.9,50.8,58.5,73.6c-16.2,5.4-30.1,12.7-41.1,22
		c-24.9,20.4-35.3,50.5-29.6,81.6c6,31,26.7,55.2,57.4,65.1c13.6,4.6,29.2,6.3,46.3,5.4c-19.2,32-29.1,63-27.5,89.9
		c1.5,32.1,19.4,58.5,47.7,72.5c28.4,13.7,60.3,11.6,86.5-7.1c5.4-3.7,10.5-8.1,15.4-13.1c5.4,16.9,12.9,31.4,22.5,42.8
		c20.4,24.9,50.5,35.3,81.6,29.6c31-6,55.2-26.7,65.1-57.4c4.8-14.1,6.4-30.3,5.3-48.1c6.4,2.9,12.8,5.1,19.2,6.6
		c31.2,7.7,61.6-1.9,83.1-25c21.2-23.3,28.3-54.4,17.9-84.9c-8.4-25.6-28.9-50.8-58.5-73.6c16.2-5.4,30.1-12.7,41.1-22
		C2854.5,1249.3,2864.9,1219.2,2859.2,1188.1z"/>
	<path class="st28" d="M2859.2,1188.1c-6-31-26.7-55.2-57.4-65.1c-13.6-4.6-29.2-6.3-46.3-5.4c19.2-32,29.1-63,27.5-89.9
		c-1.5-32.1-19.4-58.5-47.7-72.5c-28.4-13.7-60.3-11.6-86.5,7.1c-5.4,3.7-10.5,8.1-15.4,13.1c-5.4-16.9-12.9-31.4-22.5-42.8
		c-20.4-24.9-50.5-35.3-81.6-29.6c-31,6-55.2,26.7-65.1,57.4c-4.8,14.1-6.4,30.3-5.3,48.1c-6.4-2.9-12.8-5.1-19.2-6.6
		c-31.2-7.7-61.6,1.9-83.1,25c-21.2,23.3-28.3,54.4-17.9,84.9c8.4,25.6,28.9,50.8,58.5,73.6c-16.2,5.4-30.1,12.7-41.1,22
		c-24.9,20.4-35.3,50.5-29.6,81.6c6,31,26.7,55.2,57.4,65.1c13.6,4.6,29.2,6.3,46.3,5.4c-19.2,32-29.1,63-27.5,89.9
		c1.5,32.1,19.4,58.5,47.7,72.5c28.4,13.7,60.3,11.6,86.5-7.1c5.4-3.7,10.5-8.1,15.4-13.1c5.4,16.9,12.9,31.4,22.5,42.8
		c20.4,24.9,50.5,35.3,81.6,29.6c31-6,55.2-26.7,65.1-57.4c4.8-14.1,6.4-30.3,5.3-48.1c6.4,2.9,12.8,5.1,19.2,6.6
		c31.2,7.7,61.6-1.9,83.1-25c21.2-23.3,28.3-54.4,17.9-84.9c-8.4-25.6-28.9-50.8-58.5-73.6c16.2-5.4,30.1-12.7,41.1-22
		C2854.5,1249.3,2864.9,1219.2,2859.2,1188.1z"/>
</g>
<circle class="st1" cx="404.5" cy="1044.5" r="12.5"/>
<circle class="st1" cx="449.5" cy="1047.5" r="12.5"/>
<line class="st29" x1="399" y1="1080" x2="454" y2="1071"/>
<circle class="st30" cx="2001" cy="1521" r="15"/>
<circle class="st30" cx="2056" cy="1530" r="15"/>
<path class="st31" d="M1994.7,1552.3c0,0,18.8,26.8,51.8,6.5"/>
<polyline class="st29" points="409,1010 427,1028 449,1010 "/>
<circle class="st32" cx="2514" cy="1215" r="17"/>
<circle class="st32" cx="2576" cy="1208" r="17"/>
<path class="st32" d="M2520,1247l60-8C2580,1239,2565,1331,2520,1247z"/>
</svg>
