<?xml version="1.0" encoding="utf-8"?>
<!-- Generator: Adobe Illustrator 22.0.0, SVG Export Plug-In . SVG Version: 6.00 Build 0)  -->
<svg version="1.1" id="Layer_1" xmlns="http://www.w3.org/2000/svg" xmlns:xlink="http://www.w3.org/1999/xlink" x="0px" y="0px"
	 viewBox="0 0 3000 3000" style="enable-background:new 0 0 3000 3000;" xml:space="preserve">
<style type="text/css">
	.st0{fill:#831F9B;stroke:#FEEBFF;stroke-width:28;stroke-linecap:round;stroke-linejoin:round;stroke-miterlimit:10;}
	.st1{fill:#E1E1FF;}
	.st2{fill:#831F9B;}
	.st3{fill:#FFBE83;stroke:#A04F12;stroke-width:14;stroke-linecap:round;stroke-linejoin:round;stroke-miterlimit:10;}
	.st4{opacity:0;fill:#FFE5D4;}
	.st5{fill:#FFF4E9;}
	.st6{fill:#F3E9C3;}
	.st7{fill:#FFFFFF;stroke:#A04F12;stroke-miterlimit:10;}
	.st8{fill:#A04F12;stroke:#A04F12;stroke-miterlimit:10;}
	.st9{fill:none;stroke:#A04F12;stroke-width:14;stroke-linecap:round;stroke-linejoin:round;stroke-miterlimit:10;}
	.st10{fill:#E56E03;}
	.st11{fill:#FF9085;stroke:#A04F12;stroke-width:14;stroke-linecap:round;stroke-linejoin:round;stroke-miterlimit:10;}
	.st12{fill:#A04F12;}
	.st13{fill:#FFFC92;}
	.st14{fill:#E8D83D;}
	.st15{fill:none;stroke:#896F00;stroke-width:14;stroke-miterlimit:10;}
	.st16{fill:#FCC7FF;stroke:#831F9B;stroke-width:14;stroke-linecap:round;stroke-linejoin:round;stroke-miterlimit:10;}
	.st17{fill:#E082F4;}
	.st18{fill:#FEEBFF;}
	.st19{fill:#FDC5FD;}
	.st20{fill:none;stroke:#831F9B;stroke-width:14;stroke-linecap:round;stroke-linejoin:round;stroke-miterlimit:10;}
	.st21{fill:#BFBBF2;}
	.st22{fill:none;stroke:#6757B5;stroke-width:14;stroke-miterlimit:10;}
	.st23{fill:#FF9085;}
	.st24{fill:#FF4633;}
	.st25{fill:none;stroke:#721811;stroke-width:14;stroke-miterlimit:10;}
	.st26{fill:#FFFBCC;}
	.st27{fill:#AEFFCF;}
	.st28{fill:#49EA96;}
	.st29{fill:none;stroke:#00726A;stroke-width:14;stroke-miterlimit:10;}
	.st30{fill:#FFCECA;stroke:#D32D24;stroke-width:12;stroke-linecap:round;stroke-linejoin:round;stroke-miterlimit:10;}
	.st31{fill:#FF4633;stroke:#D32D24;stroke-width:12;stroke-linecap:round;stroke-linejoin:round;stroke-miterlimit:10;}
	.st32{opacity:0;}
	.st33{fill:none;stroke:#D32D24;stroke-width:12;stroke-linecap:round;stroke-linejoin:round;stroke-miterlimit:10;}
	.st34{fill:#F9F273;stroke:#896F00;stroke-width:12;stroke-linecap:round;stroke-linejoin:round;stroke-miterlimit:10;}
	.st35{fill:#E8D83D;stroke:#896F00;stroke-width:12;stroke-linecap:round;stroke-linejoin:round;stroke-miterlimit:10;}
</style>
<path class="st0" d="M6230,3908H3826c-119.5,0-216.5-96.9-216.5-216.5v-292.1c0-119.5,96.9-216.5,216.5-216.5h2404
	c119.5,0,216.5,96.9,216.5,216.5v292.1C6446.5,3811.1,6349.6,3908,6230,3908z"/>
<rect class="st1" width="3000" height="3000"/>
<path class="st2" d="M2702,2916H298c-119.5,0-216.5-96.9-216.5-216.5v-292.1c0-119.5,96.9-216.5,216.5-216.5H2702
	c119.5,0,216.5,96.9,216.5,216.5v292.1C2918.5,2819.1,2821.6,2916,2702,2916z"/>
<g>
	<path class="st3" d="M1497.6,1181.8l206.9-82.6c-150.4-100.3-61.9-195.5-61.9-195.5h-145.1h-0.9h-145.1c0,0,88.5,95.1-61.9,195.5
		l206.9,82.6v0.3l0.4-0.2l0.4,0.2V1181.8z"/>
	<path class="st3" d="M1613,1037.7c124.5,50.8,213.1,182.1,213.1,335.9c0,198-146.8,358.5-327.8,358.5s-327.8-160.5-327.8-358.5
		c0-133.3,66.5-249.6,165.3-311.4c13.2-8.3,27-15.5,41.3-21.8"/>
	<path class="st4" d="M1247.6,1419.9c-20.1,14.4-40.2,51.7-3.9,116.2c36.3,64.4,124.5,153.6,162.1,120
		C1458.8,1608.8,1316.3,1370.6,1247.6,1419.9z"/>
	<g>
		<path class="st3" d="M1461.7,1702.7c-39.4,22.3-59.1,61.7-50.1,111.8c9.6,53.8,44.2,168.8,19.6,262c-4.3,16.2-18.9,27.5-35.6,27.5
			H1105c0,0-5.1-229.6,197-111.4c0,0-3.4-228.7,109.6-321.2"/>
		<path class="st3" d="M1534.9,1702.7c39.4,22.3,59.1,61.7,50.1,111.8c-9.6,53.8-44.2,168.8-19.6,262c4.3,16.2,18.9,27.5,35.6,27.5
			h290.6c0,0,5.1-229.6-197-111.4c0,0,3.4-228.7-109.6-321.2"/>
	</g>
	<g>
		<path class="st5" d="M1146.9,2036.7c-0.1-15.9,14.7-42.6,48.8-43.5c27.8-0.7,50,8.1,77.8,30.1
			C1293,2038.7,1147.1,2066.5,1146.9,2036.7z"/>
		<path class="st5" d="M1847.5,2036.7c0.1-15.9-14.7-42.6-48.8-43.5c-27.8-0.7-50,8.1-77.8,30.1
			C1701.4,2038.7,1847.4,2066.5,1847.5,2036.7z"/>
	</g>
	<g>
		<path class="st6" d="M1582,1130.5c-4.4,26.2-17,50.7-32.2,69.4c-15.4,18.5-34.1,31.2-54.2,31.1c-20.1,0.1-38.8-12.6-54.2-31.1
			c-15.2-18.6-27.9-43.1-32.2-69.4c-4.5-26.2,0.8-50.8,15.9-69.8c14.8-18.8,40.8-26.9,70.5-26.7c29.8-0.2,55.7,7.9,70.5,26.7
			C1581.2,1079.7,1586.5,1104.3,1582,1130.5z"/>
	</g>
	<g>
		<g>
			<g>
				<path class="st3" d="M1858.8,501.5c8.1,82-20.1,171-64.9,246.9c-45.7,75.8-110.9,139.7-194.9,168.4
					c-83.7,29.6-174.5,20-257.4-11c-82.2-31.7-159.6-84-204.2-153.3c-45-69.1-47.7-147.9-3.8-224.6
					c42.9-75.8,138.1-151.6,262.4-194.4c124-43.7,245.7-43.3,326.4-10.5C1804.3,355.9,1851.2,419.3,1858.8,501.5z"/>
				<path class="st3" d="M1858.8,501.5c8.1,82-20.1,171-64.9,246.9c-45.7,75.8-110.9,139.7-194.9,168.4
					c-83.7,29.6-174.5,20-257.4-11c-82.2-31.7-159.6-84-204.2-153.3c-45-69.1-47.7-147.9-3.8-224.6
					c42.9-75.8,138.1-151.6,262.4-194.4c124-43.7,245.7-43.3,326.4-10.5C1804.3,355.9,1851.2,419.3,1858.8,501.5z"/>
			</g>
			<g>
				<path class="st5" d="M1521.4,361.1c-1.7,11.7-13.5,26.1-29,39.4c-15.8,13.3-36.2,25.8-59.9,34c-23.7,8.3-47.4,11.2-68.1,10.6
					c-20.4-0.8-38.6-4.8-47.2-12.9c-8.7-8-5.7-19.5,9.6-32.8c15-13.2,44-28.8,79.1-41c35.1-12.3,67.5-18,87.5-17
					C1513.8,342.3,1523.3,349.4,1521.4,361.1z"/>
			</g>
			<g>
				<g>
					<path class="st7" d="M1409.1,609.8c8.5,25,9.3,48.7,0,67.5c-9,18.9-28.1,33-52.9,41.9c-25,8.5-48.7,9.3-67.5,0
						c-18.9-9-33-28.1-41.9-52.9c-8.5-25-9.3-48.7,0-67.5c9-18.9,28.1-33,52.9-41.9c25-8.5,48.7-9.3,67.5,0
						C1386.2,565.9,1400.2,585,1409.1,609.8z"/>
					<path class="st8" d="M1409.2,677.3c9.3-18.8,8.4-42.5,0-67.5c-8.9-24.9-22.9-44-41.9-52.9c-18.8-9.3-42.5-8.4-67.5,0
						l56.5,162.3C1381.1,710.3,1400.2,696.3,1409.2,677.3z"/>
					<path class="st9" d="M1409.1,609.8c8.5,25,9.3,48.7,0,67.5c-9,18.9-28.1,33-52.9,41.9c-25,8.5-48.7,9.3-67.5,0
						c-18.9-9-33-28.1-41.9-52.9c-8.5-25-9.3-48.7,0-67.5c9-18.9,28.1-33,52.9-41.9c25-8.5,48.7-9.3,67.5,0
						C1386.2,565.9,1400.2,585,1409.1,609.8z"/>
				</g>
				<g>
					<path class="st7" d="M1557.4,559.3c-8.5-25-9.3-48.7,0-67.5c9-18.9,28.1-33,52.9-41.9c25-8.5,48.7-9.3,67.5,0
						c18.9,9,33,28.1,41.9,52.9c8.5,25,9.3,48.7,0,67.5c-9,18.9-28.1,33-52.9,41.9c-25,8.5-48.7,9.3-67.5,0
						C1580.4,603.3,1566.3,584.2,1557.4,559.3z"/>
					<path class="st8" d="M1557.4,491.8c-9.3,18.8-8.4,42.5,0,67.5c8.9,24.9,22.9,44,41.9,52.9c18.8,9.3,42.5,8.4,67.5,0L1610.3,450
						C1585.5,458.8,1566.4,472.9,1557.4,491.8z"/>
					<path class="st9" d="M1557.4,559.3c-8.5-25-9.3-48.7,0-67.5c9-18.9,28.1-33,52.9-41.9c25-8.5,48.7-9.3,67.5,0
						c18.9,9,33,28.1,41.9,52.9c8.5,25,9.3,48.7,0,67.5c-9,18.9-28.1,33-52.9,41.9c-25,8.5-48.7,9.3-67.5,0
						C1580.4,603.3,1566.3,584.2,1557.4,559.3z"/>
				</g>
			</g>
			<path class="st3" d="M1232.7,457.3c0,0-219.9-48.7-265.7-6.8c-45.9,41.9,41.5,139.7,74.4,164.1c35.5,26.4,78.7,35.6,100.6,3.8"/>
			<path class="st3" d="M1600.7,329.2c0,0,142.1-174.7,204.1-170.3c62,4.3,54.2,135.3,43.6,174.8c-11.5,42.7-39.6,76.8-76.5,65.5"/>
			<g>
				<path class="st3" d="M1207.6,571.5c0,0,12.7-54,91.3-81.3"/>
				<path class="st3" d="M1691.3,403.2c0,0-43.5-34.5-122.1-7"/>
			</g>
			<g>
				<path class="st10" d="M1108.1,598c0,0,5.3-21.7,45.9-73.9c40.6-52.2-170.5-70-168.9-31.2C986.6,530.5,1084.6,642,1108.1,598z"/>
				<path class="st10" d="M1782.6,363.3c0,0-17.6-13.7-81.9-29.4c-64.3-15.7,90.2-160.7,113-129.4
					C1835.9,235,1828.4,383.2,1782.6,363.3z"/>
			</g>
			<g>
				<g>
					<path class="st9" d="M1302.2,801.7c0,0-190.7,59.1-321.9,34"/>
					<line class="st9" x1="1058.6" y1="909.6" x2="1319.5" y2="833.3"/>
					<path class="st9" d="M1339.3,858.8c0,0-154.5,56.5-163.8,131.4"/>
				</g>
				<g>
					<path class="st9" d="M1760.1,642.3c0,0,186.2-72.1,273.5-173.2"/>
					<line class="st9" x1="2018" y1="575.7" x2="1766.1" y2="677.9"/>
					<path class="st9" d="M1766.4,710.2c0,0,156.2-51.6,210,1.3"/>
				</g>
			</g>
			<g>
				<path class="st11" d="M1511.1,812.9c-6.9-44.6,2.5-88.1,22-94.7c19.4-6.9,53.8,21.4,76,60.6c22.3,39.3,11,77.2-23.9,89.3
					C1550.4,880.3,1517.9,857.6,1511.1,812.9z"/>
				<path class="st11" d="M1511.1,812.9c-6.9-44.6,2.5-88.1,22-94.7c19.4-6.9,53.8,21.4,76,60.6c22.3,39.3,11,77.2-23.9,89.3
					C1550.4,880.3,1517.9,857.6,1511.1,812.9z"/>
			</g>
			<g>
				<path class="st3" d="M1533.7,727.7c10.9,31.4-10.3,67.3-47.3,80.2c-24.8,8.6-50.5,4.8-68-8.2"/>
				<path class="st3" d="M1533.7,727.7c10.9,31.4,49.8,46.4,86.9,33.5c24.8-8.6,42.6-27.6,48.3-48.7"/>
			</g>
			<path class="st12" d="M1455,724.9c12.3,11.9,28.1,20.4,43,24.9c15,4.4,29.4,4.8,43.4,0c13.9-4.9,25-14.1,34-26.9
				c8.9-12.7,16-29.2,18.2-46.2c2.1-16.9-2.2-29.7-17.2-33.7c-14.4-4.3-40.1,0.2-68.8,10.1c-28.6,10-51.6,22.4-60.2,34.7
				C1438.3,700.2,1442.9,712.9,1455,724.9z"/>
		</g>
	</g>
	<g>
		<path class="st13" d="M1271.6,1361.7c-0.7-80.3-2-147.2,34-179.9c34.6-34,106.6-33.8,192.7-34.7c86.2,0.9,158.1,0.7,192.7,34.7
			c36,32.7,34.7,99.7,34,179.9c-2.6,80.3-4.2,147.3-40.1,180.5c-34.7,34.4-103.8,34.8-186.6,35.7c-82.8-0.9-151.9-1.3-186.6-35.7
			C1275.8,1509,1274.3,1441.9,1271.6,1361.7z"/>
		<path class="st14" d="M1696.9,1447c-37.3,37-111.6,37.4-200.6,38.4c-89-1-163.3-1.4-200.6-38.4c-7.6-7-13.7-15.4-18.7-25
			c3.1,54.5,10.2,98.7,37.1,123.4c33.9,33.6,101.4,34,182.3,34.9c80.9-0.9,148.4-1.3,182.3-34.9c26.9-24.8,34-68.9,37.1-123.4
			C1710.6,1431.6,1704.4,1440,1696.9,1447z"/>
		<path class="st15" d="M1271.6,1361.7c-0.7-80.3-2-147.2,34-179.9c34.6-34,106.6-33.8,192.7-34.7c86.2,0.9,158.1,0.7,192.7,34.7
			c36,32.7,34.7,99.7,34,179.9c-2.6,80.3-4.2,147.3-40.1,180.5c-34.7,34.4-103.8,34.8-186.6,35.7c-82.8-0.9-151.9-1.3-186.6-35.7
			C1275.8,1509,1274.3,1441.9,1271.6,1361.7z"/>
	</g>
	<path class="st3" d="M1227,1221.1c0,0-174.3-1.9-176.4,45.6c-2.1,47.5,198.4,57,198.4,57l-7.4,88.6c0,0-347.2-38-356.7-160.4
		s318-163.9,433.7-187.8c24.1-5,76.2-20.3,87.4-45.2"/>
	<path class="st3" d="M1222.8,1406.1c-4.5,12.3-5.1,33.1,0.4,50.8c5.7,17.7,14,31,24.7,38.5c10.6,7.7,24.5,10.5,38,6.5
		c13.4-4.4,22.6-13.6,26.9-26c4.5-12.3,3.3-28.7-2.2-46.4c-2.2-6.8-4.7-13.1-7.7-18.6c7.1,2.1,15.1,3.4,23.7,3.9
		c18.6,0.9,34.8-1.9,45.6-9.3c11-7.3,17.4-19.1,18.4-33.1c0.6-14.1-4.5-26.4-14.6-34.9c-9.9-8.5-25.7-13.2-44.2-14.3
		c-8.6-0.4-16.7,0-24,1.2c3.5-5.2,6.8-11.1,9.7-17.6c7.4-17.1,10.5-33.2,7.3-45.9c-2.9-12.8-10.3-23.1-23.1-28.9
		c-13-5.6-27.8-4.2-39.2,2.3c-11.5,6.3-21.4,18.5-29,35.5c-7.4,17.1-10,44.9-4.7,59"/>
	<path class="st3" d="M1770.4,1221.1c0,0,174.3-1.9,176.4,45.6c2.1,47.5-198.4,57-198.4,57l7.4,88.6c0,0,347.2-38,356.7-160.4
		s-318-163.9-433.7-187.8c-24.1-5-76.2-20.3-87.4-45.2"/>
	<path class="st3" d="M1775,1406.1c4.5,12.3,5.1,33.1-0.4,50.8c-5.7,17.7-14,31-24.7,38.5c-10.6,7.7-24.5,10.5-38,6.5
		c-13.4-4.4-22.6-13.6-26.9-26c-4.5-12.3-3.3-28.7,2.2-46.4c2.2-6.8,4.7-13.1,7.7-18.6c-7.1,2.1-15.1,3.4-23.7,3.9
		c-18.6,0.9-34.8-1.9-45.6-9.3c-11-7.3-17.4-19.1-18.4-33.1c-0.6-14.1,4.5-26.4,14.6-34.9c9.9-8.5,25.7-13.2,44.2-14.3
		c8.6-0.4,16.7,0,24,1.2c-3.5-5.2-6.8-11.1-9.7-17.6c-7.4-17.1-10.5-33.2-7.3-45.9c2.9-12.8,10.3-23.1,23.1-28.9
		c13-5.6,27.8-4.2,39.2,2.3c11.5,6.3,21.4,18.5,29,35.5c7.4,17.1,10,44.9,4.7,59"/>
	<g>
		<g>
			<path class="st10" d="M1245.1,1419.4c-3.4,15-4.1,41.1,17,59.1s11.4-31.6,4.5-47.1C1261.3,1419.4,1249.8,1398.8,1245.1,1419.4z"
				/>
			<path class="st10" d="M1252,1316c-3.4-15-4.1-41.1,17-59.1c21.1-18,11.4,31.6,4.5,47.1C1268.2,1316,1256.7,1336.6,1252,1316z"/>
		</g>
		<g>
			<path class="st10" d="M1752.2,1419.4c3.4,15,4.1,41.1-17,59.1c-21.1,18-11.4-31.6-4.5-47.1
				C1736,1419.4,1747.5,1398.8,1752.2,1419.4z"/>
			<path class="st10" d="M1745.4,1316c3.4-15,4.1-41.1-17-59.1c-21.1-18-11.4,31.6-4.5,47.1C1729.2,1316,1740.7,1336.6,1745.4,1316z
				"/>
		</g>
	</g>
	<g>
		<path class="st16" d="M1533.6,1594.1h-70.5c-11.3,0-19.9-10-18.2-21.2c21.9-143.7,20.8-289.7-3.4-433.2h113.8
			c-24.2,143.5-25.3,289.5-3.4,433.2C1553.5,1584.1,1544.9,1594.1,1533.6,1594.1z"/>
	</g>
	<g>
		<path class="st16" d="M1480.4,1055.1c0,0-54.6-12.1-131-93.4c-76.4-81.2-163.7,67.9-160.1,122.5c3.6,54.6,149.1,61.8,254.6,58.2"
			/>
		<path class="st16" d="M1516.2,1055.1c0,0,54.6-12.1,131-93.4c76.4-81.2,163.7,67.9,160.1,122.5c-3.6,54.6-149.1,61.8-254.6,58.2"
			/>
	</g>
	<path class="st16" d="M1498.3,1197.2c-26.4-0.2-49.1-7.2-63.8-22.1c-14.9-14.7-21.9-37.4-22.2-63.8c0.2-26.4,7.2-49.1,22.2-63.8
		c14.7-14.9,37.4-21.9,63.8-22.2c26.4,0.2,49.1,7.2,63.8,22.1c14.9,14.7,21.9,37.4,22.2,63.8c-0.2,26.4-7.2,49.1-22.1,63.8
		C1547.4,1190,1524.7,1197,1498.3,1197.2z"/>
	<g>
		<path class="st17" d="M1498.3,1175.8c-16-0.1-29.7-2.7-38.6-8.3c-9-5.5-13.3-14.1-13.4-24c0.1-9.9,4.4-18.5,13.4-24
			c8.9-5.6,22.6-8.3,38.6-8.3c16,0.1,29.7,2.7,38.6,8.3c9,5.5,13.3,14.1,13.4,24c-0.1,9.9-4.4,18.5-13.4,24
			C1528,1173.1,1514.3,1175.7,1498.3,1175.8z"/>
		<g>
			<path class="st17" d="M1259.5,1031.9c-8.5-11.9-26.5-10.8-33.4,2.1c-13.1,24.6-20.5,52.6,10.5,63.8
				c41.4,15,101.2,19.8,134.4,21.3c5.2,0.2,6.9-6.9,2.2-9C1341.1,1095.2,1283,1065.2,1259.5,1031.9z"/>
			<path class="st17" d="M1737.2,1031.9c8.5-11.9,26.5-10.8,33.4,2.1c13.1,24.6,20.5,52.6-10.5,63.8c-41.4,15-101.2,19.8-134.4,21.3
				c-5.2,0.2-6.9-6.9-2.2-9C1655.6,1095.2,1713.6,1065.2,1737.2,1031.9z"/>
		</g>
	</g>
</g>
<g>
	<path class="st13" d="M586.2,751.5c-21-45.9-39-84-26.7-112C570.6,611,612,592.7,661.2,570c49.7-21.6,90.9-40.2,119.5-29.6
		c29.1,9.5,45.5,48.3,65.7,94.6c19.1,46.8,35.5,85.7,23.4,113.9c-11.1,28.7-50.6,46.7-97.9,68.5c-47.8,20.8-87.5,38.3-116.3,27.4
		C626.5,835,608.4,796.9,586.2,751.5z"/>
	<path class="st14" d="M852.3,691.2c-11.9,30.8-54.4,50.2-105.3,73.6c-51.4,22.3-94.1,41.2-125,29.5c-6.1-2.1-11.8-5.3-17.2-9.6
		c15.8,30.5,31.2,54,53,61.3c28.1,10.6,66.9-6.5,113.6-26.8c46.2-21.3,84.8-38.9,95.7-66.9c9.1-21.1,1.8-48.3-10.4-80.4
		C856.2,678.8,854.8,685.2,852.3,691.2z"/>
	<path class="st15" d="M586.2,751.5c-21-45.9-39-84-26.7-112C570.6,611,612,592.7,661.2,570c49.7-21.6,90.9-40.2,119.5-29.6
		c29.1,9.5,45.5,48.3,65.7,94.6c19.1,46.8,35.5,85.7,23.4,113.9c-11.1,28.7-50.6,46.7-97.9,68.5c-47.8,20.8-87.5,38.3-116.3,27.4
		C626.5,835,608.4,796.9,586.2,751.5z"/>
	<g>
		<path class="st16" d="M796.4,817.6l-40.5,18.1c-6.5,2.9-14-0.6-15.9-7.5c-24.4-88.1-62.5-171.7-113.3-247.8l65.3-29.3
			c23,88.6,59.9,172.7,109.4,249.6C805.2,806.7,802.8,814.7,796.4,817.6z"/>
	</g>
	<g>
		<path class="st16" d="M627.3,521.8c0,0-34.4,7.1-99.2-19.9s-76.5,81.1-60.4,111.4c16.1,30.4,101.5-2.8,161.1-32"/>
		<path class="st16" d="M647.9,512.6c0,0,28.2-21,51.2-87.3c23-66.3,111.4-3.1,123.4,29.2c11.9,32.3-69.7,73.8-131.2,98.9"/>
	</g>
	<path class="st16" d="M674.1,598.8c-15.2,6.7-30,8.5-42.3,3.7c-12.4-4.6-22.2-15.8-29.1-30.9c-6.7-15.2-8.5-30-3.7-42.3
		c4.6-12.4,15.8-22.2,30.9-29.1c15.2-6.7,30-8.5,42.3-3.7c12.4,4.6,22.2,15.8,29.1,30.9c6.7,15.2,8.5,30,3.7,42.3
		C700.4,582.1,689.2,591.9,674.1,598.8z"/>
	<g>
		<path class="st17" d="M668.6,586.5c-9.2,4.1-17.8,6.1-24.3,5.1c-6.6-0.9-11.2-4.7-13.9-10.3c-2.5-5.7-2.2-11.7,1.5-17.2
			c3.7-5.5,10.9-10.6,20-14.7c9.2-4.1,17.8-6.1,24.3-5.1c6.6,0.9,11.2,4.7,13.9,10.3c2.5,5.7,2.2,11.7-1.5,17.2
			C685,577.3,677.8,582.4,668.6,586.5z"/>
		<g>
			<path class="st17" d="M494.5,565.3c-7.9-4.7-18,0.6-18.6,9.8c-1.2,17.5,1.8,35.5,22.4,33.9c27.7-2,63.2-14.7,82.6-22.3
				c3-1.2,2.2-5.7-1.1-5.8C557.6,580.7,516.5,578.3,494.5,565.3z"/>
			<path class="st17" d="M768.7,442.5c1.8-9,12.4-13,19.7-7.4c13.9,10.8,25.3,24.9,10.4,39.3c-19.9,19.3-53,37.4-71.7,46.8
				c-2.9,1.5-5.7-2.2-3.6-4.6C738.2,499.8,763.8,467.6,768.7,442.5z"/>
		</g>
	</g>
</g>
<g>
	<path class="st18" d="M2507.7,1020.6c18.7-46.2,34-84.9,62.5-95.1c28-11.2,69.2,6.1,118.8,26.1c49.2,21.1,90.5,38.2,102.3,65.9
		c12.8,27.4-3.9,65.5-23.5,111.3c-20.7,45.4-37.6,83.5-66.1,94c-28.1,11.5-67.9-4.8-115.6-24.1c-47.3-20.3-86.8-37-98.5-65
		C2474.9,1106.1,2490,1067.3,2507.7,1020.6z"/>
	<path class="st19" d="M2731.2,1171.1c-30.2,12.3-73-5.2-124.3-25.9c-50.8-21.8-93.3-39.8-105.9-69.9c-2.7-5.8-4.2-12.1-4.8-18.8
		c-11.3,32-17.7,59-8.2,79.7c11.4,27.4,50,43.7,96.2,63.5c46.6,18.8,85.4,34.7,112.9,23.5c21.3-7.8,36-31.4,50.8-62
		C2742.8,1165.6,2737.2,1168.9,2731.2,1171.1z"/>
	<path class="st20" d="M2507.7,1020.6c18.7-46.2,34-84.9,62.5-95.1c28-11.2,69.2,6.1,118.8,26.1c49.2,21.1,90.5,38.2,102.3,65.9
		c12.8,27.4-3.9,65.5-23.5,111.3c-20.7,45.4-37.6,83.5-66.1,94c-28.1,11.5-67.9-4.8-115.6-24.1c-47.3-20.3-86.8-37-98.5-65
		C2474.9,1106.1,2490,1067.3,2507.7,1020.6z"/>
	<g>
		<path class="st16" d="M2602.4,1216.5l-40.5-16.8c-6.5-2.7-9-10.5-5.4-16.5c46.9-77.2,81.1-161.2,101.5-249.3l65.3,27.2
			c-48.1,76.5-83.6,160-105.4,247.7C2616.2,1215.5,2608.9,1219.2,2602.4,1216.5z"/>
	</g>
	<g>
		<path class="st16" d="M2700.6,894.6c0,0-28.4-20-52.8-84.8c-24.4-64.8-110.1-0.1-121.1,32c-10.9,32.2,70.8,71.1,132.2,94.2"/>
		<path class="st16" d="M2721.2,903.2c0,0,34.2,6.1,97.4-22.3c63.2-28.4,77.7,78,62.6,108.5c-15.1,30.4-100.3-0.1-160-27.4"/>
	</g>
	<path class="st16" d="M2677,980.4c-15.1-6.4-26.4-15.9-31.3-27.9c-5.1-12-3.7-26.7,2.5-41.9c6.4-15.1,15.9-26.4,27.9-31.3
		c12-5.1,26.7-3.7,41.9,2.5c15.1,6.4,26.4,15.9,31.3,27.9c5.1,12,3.7,26.7-2.5,41.9c-6.4,15.1-15.9,26.4-27.9,31.3
		C2706.8,988,2692.1,986.6,2677,980.4z"/>
	<g>
		<path class="st17" d="M2682.1,968.1c-9.2-3.9-16.4-8.7-20.2-14c-3.9-5.3-4.3-11.3-2-17c2.5-5.7,6.9-9.6,13.4-10.6
			c6.5-1.1,15,0.7,24.1,4.4c9.2,3.9,16.4,8.7,20.2,14c3.9,5.3,4.3,11.3,2,17c-2.5,5.7-6.9,9.6-13.4,10.6
			C2699.8,973.7,2691.3,971.9,2682.1,968.1z"/>
		<g>
			<path class="st17" d="M2579.4,828.5c-2-8.9-12.6-12.5-19.7-6.8c-13.4,11-24.3,25.3-9.2,39.1c20.2,18.5,53.4,35.5,72,44.3
				c2.9,1.4,5.6-2.3,3.4-4.7C2611.1,884.4,2585,853.2,2579.4,828.5z"/>
			<path class="st17" d="M2853.4,942.6c7.7-4.8,17.8,0.1,18.7,9.2c1.6,17.3-0.8,35.1-21.3,34.1c-27.4-1.3-62.8-12.8-82.2-19.9
				c-3-1.1-2.3-5.6,0.9-5.7C2791.5,959.5,2832,956.1,2853.4,942.6z"/>
		</g>
	</g>
</g>
<g>
	<path class="st1" d="M182.3,1102.4c36.2-61.4,65.9-112.9,108.3-121.2c41.9-10,96.5,23.2,162.4,61.9c65.1,40.2,119.9,73,130.6,114.7
		c12.4,41.4-19.3,91.7-56.6,152.4c-38.8,59.8-70.7,110.1-113.2,118.8c-42.1,10.3-94.9-21.1-158.2-58.3
		c-62.5-38.6-114.9-70.6-125.5-112.7C117.9,1216.4,147.5,1164.7,182.3,1102.4z"/>
	<path class="st21" d="M466.5,1362.2c-45.3,11-102-22.7-170.1-62.7c-67.2-41.5-123.5-75.9-134.9-121.2c-2.6-8.8-3.4-18-2.8-27.6
		c-22.7,42.8-37.4,79.7-28.4,110.9c10.4,41.1,61.5,72.3,122.6,110.1c61.9,36.4,113.4,67,154.6,57c31.8-6.5,57.5-36.8,84.8-76.9
		C484,1356.8,475.4,1360.4,466.5,1362.2z"/>
	<path class="st22" d="M182.3,1102.4c36.2-61.4,65.9-112.9,108.3-121.2c41.9-10,96.5,23.2,162.4,61.9
		c65.1,40.2,119.9,73,130.6,114.7c12.4,41.4-19.3,91.7-56.6,152.4c-38.8,59.8-70.7,110.1-113.2,118.8
		c-42.1,10.3-94.9-21.1-158.2-58.3c-62.5-38.6-114.9-70.6-125.5-112.7C117.9,1216.4,147.5,1164.7,182.3,1102.4z"/>
	<g>
		<path class="st16" d="M274.9,1399.2l-53.6-32.3c-8.6-5.2-10.6-16.8-4.2-24.5c82.5-99.2,148.6-210.8,195.9-330.9l86.5,52.2
			c-84.1,98-151.9,208.5-201.1,327.8C294.7,1400.7,283.5,1404.4,274.9,1399.2z"/>
	</g>
	<g>
		<path class="st16" d="M481.5,965c0,0-35.9-34.2-56.8-131c-20.8-96.8-155.6-23.4-177.8,19.8c-22.2,43.2,85.1,115.4,166.9,161"/>
		<path class="st16" d="M508.7,981.5c0,0,47,15.8,142.4-11s93.3,126.6,65.6,166.5c-27.8,39.8-141.7-21.3-220.3-72.4"/>
	</g>
	<path class="st16" d="M430,1081.3c-20-12.3-34-28-38.3-46.1c-4.6-18,0.5-38.5,12.4-58.6c12.3-20,28-34,46.1-38.3
		c18-4.6,38.5,0.5,58.6,12.4c20,12.3,34,28,38.3,46.1c4.6,18-0.5,38.5-12.4,58.6c-12.3,20-28,34-46.1,38.3
		C470.6,1098.3,450.2,1093.2,430,1081.3z"/>
	<g>
		<path class="st17" d="M439.8,1065c-12.1-7.4-21.3-15.7-25.5-24c-4.3-8.4-3.6-16.8,0.8-24.4c4.7-7.5,11.8-12.1,21.2-12.1
			c9.4-0.2,21,4.1,33.2,11.4c12.1,7.4,21.3,15.7,25.5,24c4.3,8.4,3.6,16.8-0.8,24.4c-4.7,7.5-11.8,12.1-21.2,12.1
			C463.6,1076.6,452,1072.3,439.8,1065z"/>
		<g>
			<path class="st17" d="M324.2,846.1c-1-13-15.2-20.4-26.3-13.7c-21.3,12.7-39.7,30.6-21.3,53.4c24.6,30.4,67.9,61.4,92.4,77.8
				c3.8,2.6,8.4-2,5.8-5.9C357.2,931.7,326.8,882.2,324.2,846.1z"/>
			<path class="st17" d="M687.4,1065.1c11.9-5.2,25.1,3.9,24.4,16.9c-1.3,24.7-8.6,49.4-37.3,43.7c-38.4-7.6-86-31.4-111.9-45.4
				c-4.1-2.2-2.1-8.4,2.5-7.9C596.3,1075.8,654.2,1079.6,687.4,1065.1z"/>
		</g>
	</g>
</g>
<g>
	<path class="st23" d="M2169.2,644.4c14-58.4,25.2-107.2,57.2-124.4c31.3-18.4,83.4-5.2,146.1,9.7c62.3,16.2,114.5,29.1,133.5,60
		c20.2,30.2,7.1,78.6-7.9,136.7c-16.4,57.7-29.7,106.1-61.7,123.7c-31.4,18.7-81.6,6.5-141.8-7.8c-59.9-15.6-109.9-28.4-128.9-59.7
		C2145.6,752.1,2156.6,703.1,2169.2,644.4z"/>
	<path class="st24" d="M2462.3,783.3c-33.7,20.1-87.7,7-152.5-8.4c-64.4-16.8-118.2-30.6-138.6-64.2c-4.2-6.4-7.2-13.7-9.1-21.5
		c-7.6,40.1-10.4,73.4,4.6,96.3c18.5,30.5,67.4,43,125.9,58.3c58.8,14,107.9,25.9,138.5,7.6c24-13.1,37.2-43.9,49.2-82.8
		C2475,774.6,2469,779.6,2462.3,783.3z"/>
	<path class="st25" d="M2169.2,644.4c14-58.4,25.2-107.2,57.2-124.4c31.3-18.4,83.4-5.2,146.1,9.7c62.3,16.2,114.5,29.1,133.5,60
		c20.2,30.2,7.1,78.6-7.9,136.7c-16.4,57.7-29.7,106.1-61.7,123.7c-31.4,18.7-81.6,6.5-141.8-7.8c-59.9-15.6-109.9-28.4-128.9-59.7
		C2145.6,752.1,2156.6,703.1,2169.2,644.4z"/>
	<g>
		<path class="st16" d="M2317.2,860.5l-51.2-12.8c-8.2-2-12.6-10.9-9.4-18.7c41.9-100.3,67.5-206.4,75.9-314.9l82.6,20.6
			c-43.5,99.7-70.7,205.4-80.8,313.6C2333.5,856.8,2325.4,862.5,2317.2,860.5z"/>
	</g>
	<g>
		<path class="st16" d="M2376.1,459.8c0,0-37.4-18.7-78.1-91.4c-40.7-72.7-131,19.6-138.3,59.9c-7.2,40.2,97,71.8,174.2,88.3"/>
		<path class="st16" d="M2402.1,466.3c0,0,41.8,1.1,111.9-44c70.1-45.1,106.5,78.9,94,117.8s-119.4,17.9-195.2-3.8"/>
	</g>
	<path class="st16" d="M2363.4,566.2c-19.1-4.9-34.3-14.1-42.2-27.6c-8.2-13.4-9.1-31.1-4.5-50.3c4.9-19.1,14.1-34.3,27.6-42.2
		c13.4-8.2,31.1-9.1,50.3-4.5c19.1,4.9,34.3,14.1,42.2,27.6c8.2,13.4,9.1,31.1,4.5,50.3c-4.9,19.1-14.1,34.3-27.6,42.2
		C2400.3,569.8,2382.6,570.8,2363.4,566.2z"/>
	<g>
		<path class="st17" d="M2367.3,550.6c-11.6-3-21.1-7.3-26.5-13c-5.6-5.7-7.1-12.6-5.4-19.9c1.9-7.2,6.5-12.6,14.1-15
			c7.5-2.5,17.9-1.9,29.5,0.9c11.6,3,21.1,7.3,26.5,13c5.6,5.7,7.1,12.6,5.4,19.9c-1.9,7.2-6.5,12.6-14.1,15
			C2389.3,554,2378.9,553.5,2367.3,550.6z"/>
		<g>
			<path class="st17" d="M2220.1,403c-4-10.2-17.3-12.6-24.6-4.5c-14,15.5-24.4,34.5-3.9,48.2c27.4,18.4,69.9,32.6,93.7,39.7
				c3.7,1.1,6.3-3.7,3.2-6.2C2267.8,463.7,2231.1,431.4,2220.1,403z"/>
			<path class="st17" d="M2566.6,489.4c8.3-7.1,21.2-3.1,23.8,7.6c5.1,20.2,5.3,41.9-19.2,44.4c-32.8,3.4-77-4-101.3-8.9
				c-3.8-0.8-3.8-6.2,0-7C2495.9,520.6,2543.5,509.3,2566.6,489.4z"/>
		</g>
	</g>
</g>
<g>
	<path class="st23" d="M554.5,1851c-25.6-48.6-47.4-89-35.8-120.2c10.4-31.5,54.3-54,106.4-81.6c52.7-26.5,96.4-49.2,128.2-39.4
		c32.2,8.6,52.4,49.8,77.1,98.9c23.6,49.7,43.7,91,32.2,122.4c-10.3,31.8-52.2,53.8-102.3,80.3c-50.7,25.4-92.9,46.8-124.8,36.8
		C603.3,1939.4,581.3,1899,554.5,1851z"/>
	<path class="st24" d="M840.1,1769.5c-11.1,34.2-56.2,57.8-110,86.3c-54.5,27.3-99.9,50.4-134.2,39.6c-6.8-1.9-13.2-5.1-19.3-9.4
		c19,32.2,37.2,56.8,61.3,63.5c31.2,9.8,72.4-11.1,121.9-35.9c48.9-25.9,89.9-47.4,100-78.4c8.6-23.5-0.9-52.6-16.2-86.8
		C843.6,1755.9,842.5,1762.9,840.1,1769.5z"/>
	<path class="st25" d="M554.5,1851c-25.6-48.6-47.4-89-35.8-120.2c10.4-31.5,54.3-54,106.4-81.6c52.7-26.5,96.4-49.2,128.2-39.4
		c32.2,8.6,52.4,49.8,77.1,98.9c23.6,49.7,43.7,91,32.2,122.4c-10.3,31.8-52.2,53.8-102.3,80.3c-50.7,25.4-92.9,46.8-124.8,36.8
		C603.3,1939.4,581.3,1899,554.5,1851z"/>
	<g>
		<path class="st16" d="M786.9,1910.3l-42.9,22.1c-6.9,3.5-15.3,0.1-17.8-7.2c-31.8-94.3-78.3-182.8-138-262.6l69.3-35.7
			c30.3,94.9,75.4,184.1,133.9,264.7C795.9,1897.9,793.8,1906.8,786.9,1910.3z"/>
	</g>
	<g>
		<path class="st16" d="M585.4,1598.9c0,0-37,9.7-109-15.7s-78.3,92.7-59,124.8c19.3,32.1,110.2-9.2,173.2-44.5"/>
		<path class="st16" d="M607.2,1587.7c0,0,29.4-24.5,50.4-97.9c21-73.4,120.9-10,135.8,24.3c14.9,34.4-71.4,84.4-136.7,115.3"/>
	</g>
	<path class="st16" d="M640.9,1679.8c-16.1,8.1-32.1,11-45.8,6.5c-13.7-4.3-25.1-15.9-33.5-31.9c-8.1-16.1-11-32.1-6.5-45.8
		c4.3-13.7,15.9-25.1,31.9-33.5c16.1-8.1,32.1-11,45.8-6.5c13.7,4.3,25.1,15.9,33.5,31.9c8.1,16.1,11,32.1,6.5,45.8
		C668.5,1660,656.9,1671.4,640.9,1679.8z"/>
	<g>
		<path class="st17" d="M634.2,1666.8c-9.8,5-18.9,7.7-26.1,7c-7.2-0.5-12.5-4.4-15.7-10.4c-3-6.1-3.1-12.6,0.6-18.8
			c3.7-6.2,11.2-12.1,20.9-17.2c9.8-5,18.9-7.7,26.1-7c7.2,0.5,12.5,4.4,15.7,10.4c3,6.1,3.1,12.6-0.6,18.8
			C651.4,1655.8,643.9,1661.7,634.2,1666.8z"/>
		<g>
			<path class="st17" d="M443.7,1654.1c-8.9-4.6-19.5,1.7-19.7,11.8c-0.3,19.1,4.1,38.4,26.4,35.5c29.9-3.9,67.8-19.7,88.5-29.2
				c3.2-1.5,2.1-6.3-1.5-6.2C513.2,1667.1,468.4,1667,443.7,1654.1z"/>
			<path class="st17" d="M734.4,1504.2c1.4-9.9,12.7-14.9,21-9.2c15.7,10.9,29,25.6,13.6,42.2c-20.5,22.1-55.4,43.8-75.1,55.1
				c-3.1,1.8-6.4-2-4.2-4.8C704.6,1568.4,730.5,1531.9,734.4,1504.2z"/>
		</g>
	</g>
</g>
<g>
	<path class="st26" d="M883.7,2680.4h-77.8v-187.9h-98.3v-64.1H982v64.1h-98.3V2680.4z"/>
	<path class="st26" d="M1016,2672.5c-19.6-8.6-34.3-20.2-44.1-34.7c-9.8-14.5-14.8-30.8-14.8-48.8s4.9-34.3,14.8-49
		c9.8-14.6,24.5-26.2,44.1-34.7c19.6-8.5,43.3-12.8,71.1-12.8c27.8,0,51.5,4.3,70.9,12.8c19.4,8.5,34.1,20.1,44.1,34.7
		c10,14.6,14.9,31,14.9,49s-5,34.3-14.9,48.8c-10,14.5-24.7,26.1-44.3,34.7c-19.6,8.6-43.1,13-70.7,13
		C1059.2,2685.4,1035.5,2681.1,1016,2672.5z M1132.8,2619.7c10.6-8,15.8-18.3,15.8-30.8c0-12.2-5.3-22.5-16-30.8
		c-10.7-8.3-25.9-12.4-45.5-12.4c-19.7,0-34.9,4.1-45.5,12.4c-10.7,8.3-16,18.5-16,30.8c0,12.5,5.3,22.7,15.8,30.8
		c10.6,8,25.8,12.1,45.7,12.1C1107,2631.8,1122.2,2627.8,1132.8,2619.7z"/>
	<path class="st26" d="M1341.6,2680.4v-252h68.4v56.2c0,20.2-3.2,42.2-9.7,66.2h6.8c10.8-38.9,38.8-58.3,83.9-58.3
		c30.2,0,54,8.7,71.3,26.1c17.3,17.4,25.9,41.6,25.9,72.5v89.3h-68.4v-73.1c0-18.2-4.9-32.3-14.6-42.3c-9.7-10-23.2-14.9-40.5-14.9
		c-17.3,0-30.7,5-40.3,14.9c-9.6,10-14.4,24.1-14.4,42.3v73.1H1341.6z"/>
	<path class="st26" d="M1676.2,2672.5c-19.6-8.6-34.3-20.2-44.1-34.7c-9.8-14.5-14.8-30.8-14.8-48.8s4.9-34.3,14.8-49
		c9.8-14.6,24.5-26.2,44.1-34.7c19.6-8.5,43.3-12.8,71.1-12.8c27.8,0,51.5,4.3,70.9,12.8c19.4,8.5,34.1,20.1,44.1,34.7
		c10,14.6,14.9,31,14.9,49s-5,34.3-14.9,48.8c-10,14.5-24.7,26.1-44.3,34.7c-19.6,8.6-43.1,13-70.7,13
		C1719.5,2685.4,1695.8,2681.1,1676.2,2672.5z M1793,2619.7c10.6-8,15.8-18.3,15.8-30.8c0-12.2-5.3-22.5-16-30.8
		c-10.7-8.3-25.9-12.4-45.5-12.4c-19.7,0-34.9,4.1-45.5,12.4c-10.7,8.3-16,18.5-16,30.8c0,12.5,5.3,22.7,15.8,30.8
		c10.6,8,25.8,12.1,45.7,12.1C1767.2,2631.8,1782.5,2627.8,1793,2619.7z"/>
	<path class="st26" d="M1978.4,2680.4H1910v-252h68.4V2680.4z"/>
	<path class="st26" d="M2060.2,2673.4c-15.1-8-26.8-19.4-34.9-34c-8.2-14.6-12.2-31.4-12.2-50.4c0-19,4.1-35.8,12.2-50.4
		c8.2-14.6,19.8-26,34.9-34c15.1-8,32.6-12.1,52.6-12.1c47.3,0,76.9,17.6,88.9,52.9h6.5c-6.5-24-9.7-46.1-9.7-66.2v-50.8h68.8v252
		h-68.8l9.7-47.9h-6.5c-12,35.3-41.6,52.9-88.9,52.9C2092.8,2685.4,2075.3,2681.4,2060.2,2673.4z M2182.2,2619.6
		c10.1-8.2,15.1-18.4,15.1-30.6c0-12.5-5-22.8-15.1-31c-10.1-8.2-24.4-12.2-42.8-12.2c-18.5,0-32.8,4.1-42.8,12.2
		c-10.1,8.2-15.1,18.5-15.1,31c0,12.2,5,22.4,15.1,30.6c10.1,8.2,24.4,12.2,42.8,12.2C2157.8,2631.8,2172.1,2627.7,2182.2,2619.6z"
		/>
</g>
<g>
	<path class="st27" d="M2175.3,1827.9c-22.9-62.8-42.5-115-23.4-150.7c17.7-36.3,74.2-56.1,141.6-80.8
		c67.9-23.2,124.3-43.4,160.9-26.3c37.3,15.7,54.9,68.6,76.7,131.8c20.2,63.7,37.7,116.8,18.7,152.8
		c-17.7,36.6-71.8,56.2-136.5,79.9c-65.2,22.3-119.6,41.2-156.3,23.8C2219.5,1942.4,2199.7,1890.2,2175.3,1827.9z"/>
	<path class="st28" d="M2532.8,1776.7c-19,39.4-77.2,60.4-146.8,85.9c-70.1,24-128.6,44.3-168.1,25.6c-7.9-3.4-15-8.3-21.7-14.4
		c17.5,41.9,35.5,74.6,63.4,86.6c35.9,17,89-1.5,152.7-23.3c63.2-23.2,116.1-42.3,133.3-78c14.2-26.9,7.6-63.6-5.2-107.2
		C2539.3,1760.8,2536.8,1769.1,2532.8,1776.7z"/>
	<path class="st29" d="M2175.3,1827.9c-22.9-62.8-42.5-115-23.4-150.7c17.7-36.3,74.2-56.1,141.6-80.8
		c67.9-23.2,124.3-43.4,160.9-26.3c37.3,15.7,54.9,68.6,76.7,131.8c20.2,63.7,37.7,116.8,18.7,152.8
		c-17.7,36.6-71.8,56.2-136.5,79.9c-65.2,22.3-119.6,41.2-156.3,23.8C2219.5,1942.4,2199.7,1890.2,2175.3,1827.9z"/>
	<g>
		<path class="st16" d="M2445.5,1937.6l-55.4,19.6c-8.9,3.1-18.4-2.3-20.2-11.6c-22.8-118.9-64.2-233.2-123.1-339l89.3-31.6
			c20.9,119.3,60.6,234.2,117.7,340.9C2458.4,1924.1,2454.4,1934.4,2445.5,1937.6z"/>
	</g>
	<g>
		<path class="st16" d="M2254,1529.3c0,0-46.2,5.6-128.7-36.9c-82.5-42.5-109.6,98.8-91.6,140.6s134.2,7.1,216-25.1"/>
		<path class="st16" d="M2282.1,1519.4c0,0,39.5-24.7,76.8-109.7s147.3,7.8,159.7,51.6c12.3,43.8-99.9,90-183.7,116.4"/>
	</g>
	<path class="st16" d="M2307.5,1635.9c-20.8,7.2-40.5,8-56.2,0.3c-15.8-7.4-27.6-23.2-35.1-43.9c-7.2-20.8-8-40.5-0.3-56.2
		c7.4-15.8,23.2-27.6,43.9-35.1c20.8-7.2,40.5-8,56.2-0.3c15.8,7.4,27.6,23.2,35.1,43.9c7.2,20.8,8,40.5,0.3,56.2
		C2344,1616.6,2328.2,1628.4,2307.5,1635.9z"/>
	<g>
		<path class="st17" d="M2301.6,1619.1c-12.6,4.4-24.1,6.1-32.6,4.2c-8.6-1.8-14.3-7.4-17.2-15.1c-2.7-7.8-1.7-15.7,3.8-22.6
			c5.4-6.9,15.5-12.8,28-17.3c12.6-4.4,24.1-6.1,32.6-4.2c8.6,1.8,14.3,7.4,17.2,15.1c2.7,7.8,1.7,15.7-3.8,22.6
			C2324.1,1608.7,2314.1,1614.6,2301.6,1619.1z"/>
		<g>
			<path class="st17" d="M2074.1,1572.5c-10-7-23.8-1.1-25.6,10.9c-3.4,23-1.4,47,26,47.2c36.7,0.3,84.9-12.6,111.4-20.7
				c4.1-1.3,3.5-7.3-0.8-7.7C2155.8,1599.5,2101.8,1592.1,2074.1,1572.5z"/>
			<path class="st17" d="M2449,1439.7c3.3-11.7,17.8-15.9,26.8-7.6c17.1,15.7,30.7,35.6,9.5,53c-28.4,23.3-74,43.6-99.6,54.1
				c-4,1.6-7.3-3.5-4.2-6.5C2402.6,1512.1,2439.8,1472.4,2449,1439.7z"/>
		</g>
	</g>
</g>
<g>
	<g>
		<path class="st30" d="M397.5,381.2c0.8,0.2,1.7,0.4,2.5,0.6C399.2,381.6,398.4,381.4,397.5,381.2z"/>
		<path class="st30" d="M394.1,380.2c0.7,0.2,1.5,0.4,2.2,0.6C395.6,380.6,394.8,380.4,394.1,380.2z"/>
		<path class="st30" d="M390.5,379.2c0.8,0.2,1.6,0.5,2.4,0.7C392.1,379.7,391.3,379.4,390.5,379.2z"/>
		<path class="st30" d="M401.3,382.1c0.8,0.2,1.6,0.4,2.4,0.5C402.9,382.5,402.1,382.3,401.3,382.1z"/>
		<path class="st30" d="M425.7,386.5c1,0.1,2.1,0.3,3.2,0.4C427.8,386.8,426.8,386.7,425.7,386.5z"/>
		<path class="st30" d="M405,382.9c0.9,0.2,1.8,0.4,2.7,0.6C406.8,383.3,405.9,383.1,405,382.9z"/>
		<path class="st30" d="M421.2,385.9c1.1,0.2,2.1,0.3,3.2,0.5C423.3,386.2,422.2,386,421.2,385.9z"/>
		<path class="st30" d="M417.2,385.2c1,0.2,1.9,0.3,2.9,0.5C419.1,385.5,418.1,385.4,417.2,385.2z"/>
		<path class="st30" d="M409,383.7c0.9,0.2,1.7,0.3,2.6,0.5C410.8,384.1,409.9,383.9,409,383.7z"/>
		<path class="st30" d="M387.2,378.2c0.7,0.2,1.4,0.4,2.1,0.7C388.6,378.6,387.9,378.4,387.2,378.2z"/>
		<path class="st30" d="M412.9,384.5c1,0.2,2,0.3,2.9,0.5C414.8,384.8,413.8,384.6,412.9,384.5z"/>
		<path class="st30" d="M326.2,547.4c-0.2-0.6-0.5-1.3-0.7-1.9C325.8,546.1,326,546.8,326.2,547.4z"/>
		<path class="st30" d="M337.5,579.6c-0.6-1.8-1.2-3.6-1.8-5.3C336.3,576.1,336.9,577.8,337.5,579.6z"/>
		<path class="st30" d="M380.1,439.4c-1.6,1.4-3.2,2.9-4.6,4.4C376.9,442.3,378.5,440.9,380.1,439.4z"/>
		<path class="st30" d="M424.3,412.9c-2.6,1.2-5.2,2.3-7.7,3.5C419.1,415.2,421.6,414,424.3,412.9z"/>
		<path class="st30" d="M432.5,409.4c-2.8,1.2-5.5,2.3-8.2,3.5C426.9,411.7,429.6,410.5,432.5,409.4z"/>
		<path class="st30" d="M402.7,423.6c-2.2,1.2-4.3,2.5-6.3,3.7C398.4,426.1,400.5,424.9,402.7,423.6z"/>
		<path class="st30" d="M335.1,572.5c-0.4-1.1-0.8-2.2-1.1-3.3C334.4,570.2,334.7,571.4,335.1,572.5z"/>
		<path class="st30" d="M327.9,552c-0.2-0.7-0.5-1.4-0.7-2C327.4,550.7,327.7,551.3,327.9,552z"/>
		<path class="st30" d="M329.7,556.8c-0.3-0.7-0.5-1.5-0.8-2.2C329.1,555.3,329.4,556,329.7,556.8z"/>
		<path class="st30" d="M333.2,566.9c-0.3-0.9-0.6-1.8-0.9-2.7C332.6,565.1,332.9,566,333.2,566.9z"/>
		<path class="st30" d="M331.4,561.7c-0.3-0.8-0.6-1.6-0.9-2.4C330.8,560.1,331.1,560.9,331.4,561.7z"/>
		<path class="st30" d="M444.4,388.7c1.3,0.1,2.6,0.3,3.9,0.4C447,389,445.7,388.8,444.4,388.7z"/>
		<path class="st30" d="M434.8,387.7c1.2,0.1,2.3,0.3,3.5,0.4C437.1,387.9,436,387.8,434.8,387.7z"/>
		<path class="st30" d="M470,390.8c1.7,0.1,3.4,0.2,5.1,0.3C473.4,391,471.7,390.9,470,390.8z"/>
		<path class="st30" d="M465.1,390.4c1.6,0.1,3.2,0.2,4.8,0.3C468.3,390.7,466.7,390.6,465.1,390.4z"/>
		<path class="st30" d="M459.2,390c1.5,0.1,3.1,0.2,4.6,0.3C462.2,390.2,460.7,390.1,459.2,390z"/>
		<path class="st30" d="M439.2,388.2c1.3,0.1,2.6,0.3,3.9,0.4C441.7,388.4,440.4,388.3,439.2,388.2z"/>
		<path class="st30" d="M448.9,389.1c1.4,0.1,2.8,0.3,4.3,0.4C451.7,389.4,450.3,389.3,448.9,389.1z"/>
		<path class="st30" d="M385.6,377.6c0.2,0.1,0.3,0.1,0.5,0.2c-47.3-15.9-65.9-49.9-92.6-130.3c-7.3,126.4-23.9,148.1-144,188.1
			c112.2,6.5,141.9,20.3,175.2,107.4c-0.1-0.2-0.1-0.3-0.2-0.5C309.1,388.1,336.7,388.8,385.6,377.6z"/>
		<path class="st30" d="M476.4,391.2c1.7,0.1,3.4,0.2,5.2,0.3c-18.8,6.3-35,12.1-49.1,17.9c14.1-5.8,30.3-11.6,49.1-17.9
			C479.8,391.4,478.1,391.3,476.4,391.2z"/>
		<path class="st30" d="M429.9,387.1c1.2,0.1,2.3,0.3,3.5,0.4C432.3,387.4,431.1,387.2,429.9,387.1z"/>
		<path class="st30" d="M454.5,389.6c1.4,0.1,2.9,0.2,4.4,0.4C457.4,389.9,455.9,389.7,454.5,389.6z"/>
		<path class="st31" d="M325.5,545.5c-0.3-0.9-0.6-1.7-1-2.5C324.9,543.8,325.2,544.7,325.5,545.5z"/>
		<path class="st31" d="M327.2,550c-0.3-0.9-0.6-1.7-1-2.6C326.6,548.3,326.9,549.1,327.2,550z"/>
		<path class="st31" d="M330.6,559.3c-0.3-0.8-0.6-1.7-0.9-2.5C330,557.6,330.3,558.5,330.6,559.3z"/>
		<path class="st31" d="M458.8,390c0.1,0,0.2,0,0.3,0C459,390,458.9,390,458.8,390z"/>
		<path class="st31" d="M328.9,554.6c-0.3-0.9-0.6-1.7-0.9-2.5C328.2,552.9,328.6,553.7,328.9,554.6z"/>
		<path class="st31" d="M335.7,574.3c-0.2-0.6-0.4-1.2-0.6-1.8C335.3,573.1,335.5,573.7,335.7,574.3z"/>
		<path class="st31" d="M463.8,390.3c0.4,0,0.9,0.1,1.3,0.1C464.7,390.4,464.2,390.4,463.8,390.3z"/>
		<path class="st31" d="M469.9,390.8c0,0,0.1,0,0.1,0C470,390.8,469.9,390.8,469.9,390.8z"/>
		<path class="st31" d="M475.1,391.1c0.4,0,0.8,0.1,1.3,0.1C475.9,391.2,475.5,391.1,475.1,391.1z"/>
		<path class="st31" d="M332.3,564.2c-0.3-0.8-0.6-1.6-0.9-2.4C331.7,562.5,332,563.3,332.3,564.2z"/>
		<path class="st31" d="M334,569.2c-0.3-0.8-0.5-1.5-0.8-2.3C333.5,567.6,333.7,568.4,334,569.2z"/>
		<path class="st31" d="M400.1,381.8c0.4,0.1,0.8,0.2,1.3,0.3C400.9,382,400.5,381.9,400.1,381.8z"/>
		<path class="st31" d="M407.7,383.5c0.4,0.1,0.9,0.2,1.3,0.3C408.6,383.7,408.2,383.6,407.7,383.5z"/>
		<path class="st31" d="M386.1,377.8c0.4,0.1,0.8,0.3,1.1,0.4C386.8,378,386.4,377.9,386.1,377.8z"/>
		<path class="st31" d="M403.7,382.6c0.4,0.1,0.8,0.2,1.3,0.3C404.6,382.8,404.2,382.7,403.7,382.6z"/>
		<path class="st31" d="M438.3,388.1c0.3,0,0.6,0.1,0.8,0.1C438.9,388.1,438.6,388.1,438.3,388.1z"/>
		<path class="st31" d="M433.5,387.5c0.4,0.1,0.9,0.1,1.3,0.2C434.3,387.6,433.9,387.6,433.5,387.5z"/>
		<path class="st31" d="M415.8,385c0.4,0.1,0.9,0.1,1.3,0.2C416.7,385.1,416.3,385.1,415.8,385z"/>
		<path class="st31" d="M428.9,386.9c0.3,0,0.7,0.1,1,0.1C429.6,387,429.2,387,428.9,386.9z"/>
		<path class="st31" d="M420,385.7c0.4,0.1,0.7,0.1,1.1,0.2C420.8,385.8,420.4,385.7,420,385.7z"/>
		<path class="st31" d="M411.6,384.2c0.4,0.1,0.8,0.2,1.2,0.2C412.5,384.4,412.1,384.3,411.6,384.2z"/>
		<path class="st31" d="M392.9,379.9c0.4,0.1,0.8,0.2,1.2,0.3C393.7,380.1,393.3,380,392.9,379.9z"/>
		<path class="st31" d="M389.3,378.8c0.4,0.1,0.8,0.2,1.2,0.4C390.1,379.1,389.7,379,389.3,378.8z"/>
		<path class="st31" d="M453.1,389.5c0.4,0,0.9,0.1,1.3,0.1C454,389.6,453.6,389.5,453.1,389.5z"/>
		<path class="st31" d="M424.4,386.3c0.4,0.1,0.9,0.1,1.3,0.2C425.3,386.5,424.8,386.4,424.4,386.3z"/>
		<path class="st31" d="M443,388.6c0.4,0,0.9,0.1,1.3,0.1C443.9,388.7,443.5,388.6,443,388.6z"/>
		<path class="st31" d="M448.3,389.1c0.2,0,0.4,0,0.6,0.1C448.7,389.1,448.5,389.1,448.3,389.1z"/>
		<path class="st31" d="M396.3,380.8c0.4,0.1,0.8,0.2,1.3,0.3C397.1,381.1,396.7,380.9,396.3,380.8z"/>
		<path class="st31" d="M476.4,391.2c-0.4,0-0.8-0.1-1.3-0.1c-1.7-0.1-3.4-0.2-5.1-0.3c0,0-0.1,0-0.1,0c-1.6-0.1-3.2-0.2-4.8-0.3
			c-0.4,0-0.9-0.1-1.3-0.1c-1.6-0.1-3.1-0.2-4.6-0.3c-0.1,0-0.2,0-0.3,0c-1.5-0.1-2.9-0.2-4.4-0.4c-0.4,0-0.9-0.1-1.3-0.1
			c-1.4-0.1-2.9-0.2-4.3-0.4c-0.2,0-0.4,0-0.6-0.1c-1.3-0.1-2.6-0.2-3.9-0.4c-0.4,0-0.9-0.1-1.3-0.1c-1.3-0.1-2.6-0.3-3.9-0.4
			c-0.3,0-0.6-0.1-0.8-0.1c-1.2-0.1-2.4-0.3-3.5-0.4c-0.4-0.1-0.9-0.1-1.3-0.2c-1.2-0.1-2.4-0.3-3.5-0.4c-0.3,0-0.7-0.1-1-0.1
			c-1.1-0.1-2.1-0.3-3.2-0.4c-0.5-0.1-0.9-0.1-1.3-0.2c-1.1-0.2-2.2-0.3-3.2-0.5c-0.4-0.1-0.7-0.1-1.1-0.2c-1-0.2-1.9-0.3-2.9-0.5
			c-0.4-0.1-0.9-0.1-1.3-0.2c-1-0.2-2-0.3-2.9-0.5c-0.4-0.1-0.8-0.2-1.2-0.2c-0.9-0.2-1.8-0.3-2.6-0.5c-0.4-0.1-0.9-0.2-1.3-0.3
			c-0.9-0.2-1.8-0.4-2.7-0.6c-0.4-0.1-0.8-0.2-1.3-0.3c-0.8-0.2-1.6-0.4-2.4-0.5c-0.4-0.1-0.8-0.2-1.3-0.3c-0.9-0.2-1.7-0.4-2.5-0.6
			c-0.4-0.1-0.8-0.2-1.3-0.3c-0.7-0.2-1.5-0.4-2.2-0.6c-0.4-0.1-0.8-0.2-1.2-0.3c-0.8-0.2-1.6-0.5-2.4-0.7c-0.4-0.1-0.8-0.2-1.2-0.4
			c-0.7-0.2-1.4-0.4-2.1-0.7c-0.4-0.1-0.8-0.3-1.1-0.4c-0.2-0.1-0.3-0.1-0.5-0.2c-48.9,11.1-76.5,10.5-61.2,164.8
			c0.1,0.2,0.1,0.3,0.2,0.5c0.3,0.8,0.6,1.7,1,2.5c0.2,0.6,0.5,1.3,0.7,1.9c0.3,0.8,0.6,1.7,1,2.6c0.2,0.7,0.5,1.4,0.7,2
			c0.3,0.8,0.6,1.7,0.9,2.5c0.3,0.7,0.5,1.5,0.8,2.2c0.3,0.8,0.6,1.7,0.9,2.5c0.3,0.8,0.6,1.6,0.9,2.4c0.3,0.8,0.6,1.6,0.9,2.4
			c0.3,0.9,0.6,1.8,0.9,2.7c0.3,0.8,0.5,1.5,0.8,2.3c0.4,1.1,0.7,2.2,1.1,3.3c0.2,0.6,0.4,1.2,0.6,1.8c0.6,1.7,1.2,3.5,1.8,5.3
			c4.1-71.1,11.2-109.1,37.9-135.8c1.5-1.5,3-2.9,4.6-4.4c4.8-4.3,10.2-8.2,16.3-12c2-1.3,4.1-2.5,6.3-3.7c4.3-2.5,9-4.9,13.9-7.2
			c2.5-1.2,5-2.4,7.7-3.5s5.4-2.3,8.2-3.5c14.1-5.8,30.3-11.6,49.1-17.9C479.8,391.4,478.1,391.3,476.4,391.2z"/>
	</g>
	<g class="st32">
		<circle class="st33" cx="315.5" cy="413.5" r="167.5"/>
		<circle class="st33" cx="315.5" cy="413.5" r="167.5"/>
	</g>
</g>
<g>
	<path class="st34" d="M2768.9,1632.1c-0.5-1-1-2.1-1.6-3.1C2767.8,1630.1,2768.3,1631.1,2768.9,1632.1z"/>
	<path class="st34" d="M2825.7,1430c1,0,2,0,3,0.1C2827.7,1430,2826.7,1430,2825.7,1430z"/>
	<path class="st34" d="M2829.8,1430c1.1,0,2.2,0,3.3,0C2832.1,1430.1,2831,1430.1,2829.8,1430z"/>
	<path class="st34" d="M2821.2,1429.8c1,0,2,0.1,3.1,0.1C2823.3,1429.9,2822.2,1429.9,2821.2,1429.8z"/>
	<path class="st34" d="M2838.9,1430c1.2,0,2.4,0,3.6-0.1C2841.4,1430,2840.1,1430,2838.9,1430z"/>
	<path class="st34" d="M2848.5,1429.8c1.3,0,2.7-0.1,4-0.1C2851.1,1429.7,2849.8,1429.8,2848.5,1429.8z"/>
	<path class="st34" d="M2794.2,1427.1c0.7,0.1,1.5,0.3,2.2,0.4C2795.7,1427.3,2794.9,1427.2,2794.2,1427.1z"/>
	<path class="st34" d="M2766.2,1626.8c-0.4-0.9-0.9-1.8-1.3-2.6C2765.3,1625.1,2765.7,1625.9,2766.2,1626.8z"/>
	<path class="st34" d="M2763.6,1621.8c-0.4-0.8-0.8-1.6-1.2-2.4C2762.8,1620.3,2763.2,1621,2763.6,1621.8z"/>
	<path class="st34" d="M2756.3,1608c-0.3-0.6-0.7-1.2-1-1.9C2755.6,1606.8,2756,1607.4,2756.3,1608z"/>
	<path class="st34" d="M2761.1,1617.1c-0.4-0.7-0.8-1.4-1.1-2.2C2760.4,1615.6,2760.7,1616.3,2761.1,1617.1z"/>
	<path class="st34" d="M2797.7,1427.7c0.8,0.1,1.7,0.3,2.5,0.4C2799.4,1427.9,2798.5,1427.8,2797.7,1427.7z"/>
	<path class="st34" d="M2805.1,1428.6c0.9,0.1,1.8,0.2,2.7,0.3C2806.9,1428.8,2806,1428.7,2805.1,1428.6z"/>
	<path class="st34" d="M2801.5,1428.2c0.8,0.1,1.6,0.2,2.3,0.3C2803,1428.4,2802.3,1428.3,2801.5,1428.2z"/>
	<path class="st34" d="M2813,1429.4c0.9,0.1,1.9,0.1,2.9,0.2C2814.9,1429.5,2813.9,1429.4,2813,1429.4z"/>
	<path class="st34" d="M2809.1,1429c0.8,0.1,1.7,0.1,2.5,0.2C2810.8,1429.2,2810,1429.1,2809.1,1429z"/>
	<path class="st34" d="M2817.2,1429.6c0.9,0.1,1.8,0.1,2.7,0.1C2819,1429.7,2818.1,1429.7,2817.2,1429.6z"/>
	<path class="st34" d="M2758.7,1612.5c-0.4-0.7-0.7-1.3-1.1-2C2758,1611.1,2758.3,1611.8,2758.7,1612.5z"/>
	<path class="st34" d="M2844,1430c1.2,0,2.4-0.1,3.6-0.1C2846.4,1429.9,2845.2,1429.9,2844,1430z"/>
	<path class="st34" d="M2853.9,1429.6c1.3-0.1,2.7-0.1,4-0.2C2856.5,1429.5,2855.2,1429.6,2853.9,1429.6z"/>
	<path class="st34" d="M2853.1,1447.6c-4.3,2.4-8.4,4.8-12.3,7.2C2844.6,1452.4,2848.7,1450,2853.1,1447.6z"/>
	<path class="st34" d="M2869.1,1428.8c1.6-0.1,3.2-0.2,4.8-0.3C2872.3,1428.6,2870.7,1428.7,2869.1,1428.8z"/>
	<path class="st34" d="M2792.5,1426.8c0.2,0,0.3,0.1,0.5,0.1c-50.4-9.4-74.2-41.4-112.9-119.4c10.6,129.7-3.2,154.1-119.7,212
		c115.1-9.4,147.3,0.4,193.6,84.3c-0.1-0.2-0.2-0.3-0.3-0.5C2716.1,1448.3,2744.3,1445.1,2792.5,1426.8z"/>
	<path class="st34" d="M2886.8,1427.6c1.7-0.1,3.5-0.3,5.3-0.4C2890.3,1427.3,2888.5,1427.5,2886.8,1427.6z"/>
	<path class="st34" d="M2837.9,1430.1c-1.1,0-2.2,0-3.3,0C2835.7,1430.1,2836.8,1430.1,2837.9,1430.1z"/>
	<path class="st34" d="M2875.2,1428.4c1.6-0.1,3.3-0.2,4.9-0.3C2878.5,1428.2,2876.9,1428.3,2875.2,1428.4z"/>
	<path class="st34" d="M2880.3,1428.1c1.7-0.1,3.4-0.3,5.2-0.4C2883.7,1427.8,2882,1428,2880.3,1428.1z"/>
	<path class="st34" d="M2772.4,1639.2c-0.9-1.7-1.7-3.4-2.6-5.1C2770.6,1635.7,2771.5,1637.4,2772.4,1639.2z"/>
	<path class="st34" d="M2892.1,1427.2c-10.9,5.4-20.9,10.6-30.1,15.5C2871.2,1437.7,2881.2,1432.6,2892.1,1427.2L2892.1,1427.2z"/>
	<path class="st34" d="M2858.5,1429.4c1.4-0.1,2.9-0.1,4.4-0.2C2861.4,1429.3,2860,1429.4,2858.5,1429.4z"/>
	<path class="st34" d="M2864.3,1429.1c1.5-0.1,3-0.2,4.5-0.3C2867.2,1429,2865.8,1429,2864.3,1429.1z"/>
	<path class="st35" d="M2757.6,1610.5c-0.4-0.8-0.9-1.6-1.3-2.5C2756.7,1608.8,2757.2,1609.6,2757.6,1610.5z"/>
	<path class="st35" d="M2793,1426.8c0.4,0.1,0.8,0.1,1.2,0.2C2793.8,1427,2793.4,1426.9,2793,1426.8z"/>
	<path class="st35" d="M2755.3,1606.1c-0.4-0.8-0.9-1.6-1.3-2.4C2754.4,1604.5,2754.8,1605.3,2755.3,1606.1z"/>
	<path class="st35" d="M2810.6,1475.9c-2.8,2.4-5.5,4.8-7.9,7.2C2805.1,1480.6,2807.7,1478.2,2810.6,1475.9z"/>
	<path class="st35" d="M2762.4,1619.5c-0.4-0.8-0.8-1.6-1.3-2.4C2761.5,1617.9,2762,1618.7,2762.4,1619.5z"/>
	<path class="st35" d="M2793.6,1493c-1.4,1.7-2.7,3.4-3.9,5.2C2790.9,1496.4,2792.2,1494.7,2793.6,1493z"/>
	<path class="st35" d="M2764.8,1624.2c-0.4-0.8-0.8-1.6-1.2-2.4C2764,1622.6,2764.4,1623.4,2764.8,1624.2z"/>
	<path class="st35" d="M2769.8,1634c-0.3-0.6-0.6-1.3-0.9-1.9C2769.2,1632.8,2769.5,1633.4,2769.8,1634z"/>
	<path class="st35" d="M2769.6,1590.3c0.1,3.2,0.2,6.5,0.3,9.9C2769.7,1596.8,2769.6,1593.5,2769.6,1590.3z"/>
	<path class="st35" d="M2767.3,1629c-0.4-0.8-0.8-1.5-1.1-2.2C2766.5,1627.6,2766.9,1628.3,2767.3,1629z"/>
	<path class="st35" d="M2772.6,1540.6c-0.4,2.4-0.8,4.8-1.2,7.3C2771.8,1545.4,2772.1,1543,2772.6,1540.6z"/>
	<path class="st35" d="M2760,1614.9c-0.4-0.8-0.9-1.6-1.3-2.4C2759.1,1613.3,2759.6,1614.1,2760,1614.9z"/>
	<path class="st35" d="M2786.2,1503.5c-1.1,1.8-2.1,3.7-3.1,5.5C2784,1507.2,2785.1,1505.3,2786.2,1503.5z"/>
	<path class="st35" d="M2781.6,1511.9c-0.9,1.9-1.8,3.9-2.6,5.9C2779.8,1515.8,2780.7,1513.8,2781.6,1511.9z"/>
	<path class="st35" d="M2868.7,1428.9c0.1,0,0.2,0,0.4,0C2869,1428.9,2868.9,1428.9,2868.7,1428.9z"/>
	<path class="st35" d="M2862.9,1429.2c0.5,0,0.9,0,1.4-0.1C2863.8,1429.2,2863.4,1429.2,2862.9,1429.2z"/>
	<path class="st35" d="M2857.9,1429.5c0.2,0,0.4,0,0.6,0C2858.3,1429.4,2858.1,1429.4,2857.9,1429.5z"/>
	<path class="st35" d="M2796.4,1427.4c0.4,0.1,0.8,0.1,1.3,0.2C2797.2,1427.6,2796.8,1427.5,2796.4,1427.4z"/>
	<path class="st35" d="M2852.5,1429.7c0.5,0,0.9,0,1.4-0.1C2853.4,1429.7,2852.9,1429.7,2852.5,1429.7z"/>
	<path class="st35" d="M2880.2,1428.1c0,0,0.1,0,0.1,0C2880.2,1428.1,2880.2,1428.1,2880.2,1428.1z"/>
	<path class="st35" d="M2847.6,1429.9c0.3,0,0.6,0,0.9,0C2848.2,1429.8,2847.9,1429.9,2847.6,1429.9z"/>
	<polygon class="st35" points="2892.1,1427.2 2892.1,1427.2 2892.1,1427.2 	"/>
	<path class="st35" d="M2834.6,1430.1c-0.5,0-0.9,0-1.4,0C2833.7,1430.1,2834.1,1430.1,2834.6,1430.1z"/>
	<path class="st35" d="M2885.5,1427.7c0.4,0,0.9-0.1,1.3-0.1C2886.3,1427.6,2885.9,1427.7,2885.5,1427.7z"/>
	<path class="st35" d="M2873.9,1428.5c0.4,0,0.9-0.1,1.3-0.1C2874.8,1428.5,2874.3,1428.5,2873.9,1428.5z"/>
	<path class="st35" d="M2815.8,1429.6c0.5,0,0.9,0.1,1.4,0.1C2816.7,1429.6,2816.3,1429.6,2815.8,1429.6z"/>
	<path class="st35" d="M2811.7,1429.3c0.4,0,0.9,0.1,1.3,0.1C2812.5,1429.3,2812.1,1429.3,2811.7,1429.3z"/>
	<path class="st35" d="M2807.8,1428.9c0.4,0,0.9,0.1,1.3,0.1C2808.7,1429,2808.3,1429,2807.8,1428.9z"/>
	<path class="st35" d="M2803.8,1428.5c0.4,0.1,0.9,0.1,1.3,0.2C2804.7,1428.6,2804.3,1428.5,2803.8,1428.5z"/>
	<path class="st35" d="M2800.2,1428c0.4,0.1,0.8,0.1,1.3,0.2C2801.1,1428.1,2800.6,1428.1,2800.2,1428z"/>
	<path class="st35" d="M2842.6,1430c0.5,0,0.9,0,1.4,0C2843.5,1430,2843,1430,2842.6,1430z"/>
	<path class="st35" d="M2828.7,1430c0.4,0,0.8,0,1.2,0C2829.5,1430,2829.1,1430,2828.7,1430z"/>
	<path class="st35" d="M2819.9,1429.8c0.4,0,0.9,0,1.3,0.1C2820.8,1429.8,2820.4,1429.8,2819.9,1429.8z"/>
	<path class="st35" d="M2837.9,1430.1c0.4,0,0.7,0,1.1,0C2838.6,1430.1,2838.2,1430.1,2837.9,1430.1z"/>
	<path class="st35" d="M2824.3,1429.9c0.5,0,0.9,0,1.4,0C2825.2,1430,2824.7,1429.9,2824.3,1429.9z"/>
	<path class="st35" d="M2892.1,1427.2c-1.8,0.1-3.6,0.3-5.3,0.4c-0.4,0-0.9,0.1-1.3,0.1c-1.7,0.1-3.5,0.3-5.2,0.4c0,0-0.1,0-0.1,0
		c-1.7,0.1-3.3,0.2-4.9,0.3c-0.4,0-0.9,0.1-1.3,0.1c-1.6,0.1-3.2,0.2-4.8,0.3c-0.1,0-0.2,0-0.4,0c-1.5,0.1-3,0.2-4.5,0.3
		c-0.5,0-0.9,0.1-1.4,0.1c-1.5,0.1-2.9,0.2-4.4,0.2c-0.2,0-0.4,0-0.6,0c-1.4,0.1-2.7,0.1-4,0.2c-0.5,0-0.9,0-1.4,0.1
		c-1.3,0.1-2.7,0.1-4,0.1c-0.3,0-0.6,0-0.9,0c-1.2,0-2.4,0.1-3.6,0.1c-0.5,0-0.9,0-1.4,0c-1.2,0-2.4,0-3.6,0.1c-0.4,0-0.7,0-1.1,0
		c-1.1,0-2.2,0-3.3,0c-0.5,0-0.9,0-1.4,0c-1.1,0-2.2,0-3.3,0c-0.4,0-0.8,0-1.2,0c-1,0-2,0-3-0.1c-0.5,0-0.9,0-1.4,0
		c-1,0-2.1-0.1-3.1-0.1c-0.4,0-0.9,0-1.3-0.1c-0.9,0-1.8-0.1-2.7-0.1c-0.5,0-0.9-0.1-1.4-0.1c-1-0.1-1.9-0.1-2.9-0.2
		c-0.4,0-0.9-0.1-1.3-0.1c-0.8-0.1-1.7-0.1-2.5-0.2c-0.4,0-0.9-0.1-1.3-0.1c-0.9-0.1-1.8-0.2-2.7-0.3c-0.4,0-0.9-0.1-1.3-0.2
		c-0.8-0.1-1.6-0.2-2.3-0.3c-0.4-0.1-0.9-0.1-1.3-0.2c-0.9-0.1-1.7-0.2-2.5-0.4c-0.4-0.1-0.9-0.1-1.3-0.2c-0.7-0.1-1.5-0.2-2.2-0.4
		c-0.4-0.1-0.8-0.1-1.2-0.2c-0.2,0-0.3-0.1-0.5-0.1c-48.2,18.3-76.3,21.6-38.8,176.5c0.1,0.2,0.2,0.3,0.3,0.5
		c0.4,0.8,0.9,1.6,1.3,2.4c0.3,0.6,0.7,1.2,1,1.9c0.4,0.8,0.9,1.6,1.3,2.5c0.4,0.7,0.7,1.3,1.1,2c0.4,0.8,0.9,1.6,1.3,2.4
		c0.4,0.7,0.8,1.4,1.1,2.2c0.4,0.8,0.8,1.6,1.3,2.4c0.4,0.8,0.8,1.6,1.2,2.4c0.4,0.8,0.8,1.6,1.2,2.4c0.4,0.9,0.9,1.7,1.3,2.6
		c0.4,0.7,0.8,1.5,1.1,2.2c0.5,1,1,2.1,1.6,3.1c0.3,0.6,0.6,1.2,0.9,1.9c0.8,1.7,1.7,3.4,2.6,5.1c-1.2-14.2-2-27.1-2.5-39
		c-0.1-3.4-0.2-6.7-0.3-9.9c-0.3-16.1,0.2-30,1.9-42.4c0.3-2.5,0.7-4.9,1.2-7.3c1.5-8.3,3.6-15.8,6.4-22.8c0.8-2,1.7-4,2.6-5.9
		c0.5-1,0.9-1.9,1.4-2.9c1-1.9,2-3.7,3.1-5.5c1.1-1.8,2.3-3.6,3.5-5.3c1.2-1.8,2.5-3.5,3.9-5.2c2.7-3.4,5.7-6.7,9-9.9
		c2.5-2.4,5.1-4.8,7.9-7.2c8.4-7.1,18.4-14,30.2-21.1c3.9-2.4,8-4.8,12.3-7.2c2.9-1.6,5.8-3.2,8.9-4.9
		C2871.2,1437.7,2881.2,1432.6,2892.1,1427.2C2892.1,1427.2,2892.1,1427.2,2892.1,1427.2z"/>
</g>
</svg>
