<?xml version="1.0" encoding="utf-8"?>
<!-- Generator: Adobe Illustrator 22.0.0, SVG Export Plug-In . SVG Version: 6.00 Build 0)  -->
<svg version="1.1" id="Layer_1" xmlns="http://www.w3.org/2000/svg" xmlns:xlink="http://www.w3.org/1999/xlink" x="0px" y="0px"
	 viewBox="0 0 3000 3000" style="enable-background:new 0 0 3000 3000;" xml:space="preserve">
<style type="text/css">
	.st0{fill:#FFFBCC;}
	.st1{fill:#FFBE83;stroke:#A04F12;stroke-width:11.2941;stroke-linecap:round;stroke-linejoin:round;stroke-miterlimit:10;}
	.st2{opacity:0;fill:#FFE5D4;}
	.st3{fill:#FFF4E9;}
	.st4{opacity:0.65;}
	.st5{fill:#E1E1FF;stroke:#483D7F;stroke-width:11.2941;stroke-linejoin:round;stroke-miterlimit:10;}
	.st6{fill:none;stroke:#FFBE83;stroke-width:0.8067;stroke-miterlimit:10;}
	.st7{fill:#D65DE9;}
	.st8{fill:#C13CDD;}
	.st9{fill:none;stroke:#A04F12;stroke-width:11.2941;stroke-linecap:round;stroke-linejoin:round;stroke-miterlimit:10;}
	.st10{fill:#E0C212;stroke:#896F00;stroke-width:11.2941;stroke-linecap:round;stroke-linejoin:round;stroke-miterlimit:10;}
	.st11{fill:#49EA96;stroke:#00726A;stroke-width:11.2941;stroke-linecap:round;stroke-linejoin:round;stroke-miterlimit:10;}
	.st12{fill:#E1E1FF;stroke:#483D7F;stroke-width:11.2941;stroke-linecap:round;stroke-linejoin:round;stroke-miterlimit:10;}
	.st13{fill:#483D7F;stroke:#483D7F;stroke-width:11.2941;stroke-linecap:round;stroke-linejoin:round;stroke-miterlimit:10;}
	.st14{fill:#F9F273;stroke:#896F00;stroke-width:11.2941;stroke-linecap:round;stroke-linejoin:round;stroke-miterlimit:10;}
	.st15{fill:none;stroke:#896F00;stroke-width:11.2941;stroke-linecap:round;stroke-linejoin:round;stroke-miterlimit:10;}
	.st16{fill:#FF4633;stroke:#D32D24;stroke-width:11.2941;stroke-linecap:round;stroke-linejoin:round;stroke-miterlimit:10;}
	.st17{fill:#49EA96;}
	.st18{fill:#F5F5FF;stroke:#A04F12;stroke-width:11.2941;stroke-linecap:round;stroke-linejoin:round;stroke-miterlimit:10;}
	.st19{fill:#FFFFFF;stroke:#A04F12;stroke-width:0.8067;stroke-miterlimit:10;}
	.st20{fill:#A04F12;stroke:#A04F12;stroke-width:0.8067;stroke-miterlimit:10;}
	.st21{fill:#E56E03;}
	.st22{fill:#FF9085;stroke:#A04F12;stroke-width:11.2941;stroke-linecap:round;stroke-linejoin:round;stroke-miterlimit:10;}
	.st23{fill:#A04F12;}
	.st24{fill:#00C85A;stroke:#00726A;stroke-width:11.2941;stroke-linecap:round;stroke-linejoin:round;stroke-miterlimit:10;}
	.st25{fill:#F9F273;}
	.st26{fill:#FFFFFF;stroke:#896F00;stroke-width:11.2941;stroke-linecap:round;stroke-linejoin:round;stroke-miterlimit:10;}
	.st27{fill:#E1E1FF;stroke:#6757B5;stroke-width:11.2941;stroke-linecap:round;stroke-linejoin:round;stroke-miterlimit:10;}
	.st28{fill:#FFBE83;stroke:#A04F12;stroke-width:11.2941;stroke-linejoin:round;stroke-miterlimit:10;}
	.st29{fill:#E1E1FF;stroke:#6757B5;stroke-width:11.2941;stroke-linejoin:round;stroke-miterlimit:10;}
	.st30{fill:#BFBBF2;stroke:#6757B5;stroke-width:11.2941;stroke-linejoin:round;stroke-miterlimit:10;}
	.st31{fill:#FFFFFF;stroke:#6757B5;stroke-width:11.2941;stroke-linejoin:round;stroke-miterlimit:10;}
	.st32{fill:#6757B5;}
</style>
<rect x="0.5" class="st0" width="3000" height="3000"/>
<path class="st1" d="M1674.4,1177.3c-3.7-2-7.4-4-11.2-6c0,0-71.6-389.4-170.5-367.5c-0.5,0.1-1,0.2-1.5,0.4c-0.5-0.1-1-0.2-1.5-0.4
	c-98.9-21.8-170.5,367.5-170.5,367.5c-3.8,1.9-7.5,3.9-11.2,6c-110.4,61.1-184.8,176.3-184.8,308.2c0,196,164.1,354.8,366.5,354.8
	c0,0,0.5-2,1.5-5.9c1,3.9,1.5,5.9,1.5,5.9c202.4,0,366.5-158.9,366.5-354.8C1859.2,1353.6,1784.8,1238.4,1674.4,1177.3z"/>
<path class="st2" d="M1264.9,1479c-18.8,13.5-37.5,48.3-3.6,108.4c33.9,60.1,116.2,143.4,151.3,112
	C1462,1655.3,1329,1433,1264.9,1479z"/>
<g>
	<path class="st1" d="M1464.7,1743c-36.8,20.8-55.2,57.6-46.8,104.3c9,50.2,41.2,157.5,18.3,244.5c-4,15.1-17.6,25.7-33.3,25.7
		h-271.3c0,0-4.8-214.2,183.9-103.9c0,0-3.2-213.4,102.3-299.8"/>
	<path class="st1" d="M1533,1743c36.8,20.8,55.2,57.6,46.8,104.3c-9,50.2-41.2,157.5-18.3,244.5c4,15.1,17.6,25.7,33.3,25.7H1866
		c0,0,4.8-214.2-183.9-103.9c0,0,3.2-213.4-102.3-299.8"/>
</g>
<g>
	<path class="st3" d="M1170.9,2054.6c-0.1-14.9,13.7-39.8,45.5-40.6c25.9-0.7,46.7,7.6,72.7,28.1
		C1307.2,2056.5,1171,2082.5,1170.9,2054.6z"/>
	<path class="st3" d="M1824.7,2054.6c0.1-14.9-13.7-39.8-45.5-40.6c-25.9-0.7-46.7,7.6-72.7,28.1
		C1688.4,2056.5,1824.6,2082.5,1824.7,2054.6z"/>
</g>
<g class="st4">
	<path class="st3" d="M1607.4,1307.1c-5.8,34.6-22.5,67-42.6,91.7c-20.4,24.5-45.1,41.3-71.6,41.1c-26.6,0.2-51.3-16.6-71.6-41.1
		c-20.1-24.6-36.8-57-42.6-91.7c-5.9-34.6,1.1-67.2,21-92.3c19.6-24.9,53.9-35.5,93.2-35.3c39.3-0.2,73.7,10.4,93.2,35.3
		C1606.3,1239.9,1613.3,1272.5,1607.4,1307.1z"/>
</g>
<line class="st5" x1="0.5" y1="1461" x2="3000.5" y2="1461"/>
<path class="st6" d="M2286.5,1508"/>
<rect x="0.5" y="1467" class="st7" width="3000" height="1533"/>
<path class="st0" d="M2702.5,2916H298.5C178.9,2916,82,2819.1,82,2699.5v-292.1c0-119.5,96.9-216.5,216.5-216.5h2404.1
	c119.5,0,216.5,96.9,216.5,216.5v292.1C2919,2819.1,2822.1,2916,2702.5,2916z"/>
<g>
	<path class="st8" d="M879,2678.4h-73.4v-177.5h-92.8v-60.5h259.1v60.5H879V2678.4z"/>
	<path class="st8" d="M998.8,2670.9c-18.5-8.2-32.4-19.1-41.7-32.8c-9.3-13.7-13.9-29.1-13.9-46.1s4.6-32.4,13.9-46.2
		c9.3-13.8,23.2-24.8,41.7-32.8c18.5-8,40.9-12.1,67.1-12.1c26.3,0,48.6,4,67,12.1c18.4,8,32.2,19,41.6,32.8
		c9.4,13.8,14.1,29.2,14.1,46.2s-4.7,32.4-14.1,46.1c-9.4,13.7-23.3,24.7-41.8,32.8c-18.5,8.2-40.7,12.2-66.8,12.2
		C1039.7,2683.2,1017.3,2679.1,998.8,2670.9z M1109.2,2621.1c10-7.6,15-17.3,15-29.1c0-11.6-5-21.3-15.1-29.1
		c-10.1-7.8-24.4-11.7-43-11.7c-18.6,0-32.9,3.9-43,11.7c-10.1,7.8-15.1,17.5-15.1,29.1c0,11.8,5,21.5,15,29.1
		c10,7.6,24.4,11.4,43.2,11.4C1084.8,2632.5,1099.2,2628.7,1109.2,2621.1z"/>
	<path class="st8" d="M1340,2670.9c-17.9-8.2-31.4-19.2-40.6-33c-9.2-13.8-13.8-29.1-13.8-45.9c0-17,4.6-32.4,13.8-46.2
		c9.2-13.8,22.7-24.8,40.6-32.8c17.9-8,39.4-12.1,64.6-12.1c22.7,0,42.7,3.3,60,10c17.3,6.7,31.1,15.9,41.3,27.7
		c10.2,11.8,16.2,25.4,18,40.8H1459c-2-7.9-7.6-14.6-16.8-20.1c-9.2-5.4-21.7-8.2-37.6-8.2c-17,0-30.3,3.9-39.9,11.7
		c-9.6,7.8-14.5,17.5-14.5,29.1c0,11.3,4.8,20.9,14.5,28.7c9.6,7.8,22.9,11.7,39.9,11.7c15.9,0,28.4-2.7,37.6-8.2
		c9.2-5.4,14.8-12.1,16.8-20.1h64.9c-1.8,15.4-7.8,29.1-18,41c-10.2,11.9-24,21.2-41.3,27.9c-17.3,6.7-37.3,10-60,10
		C1379.5,2683.2,1357.9,2679.1,1340,2670.9z"/>
	<path class="st8" d="M1591.1,2670.9c-18.5-8.2-32.4-19.1-41.7-32.8c-9.3-13.7-13.9-29.1-13.9-46.1s4.6-32.4,13.9-46.2
		c9.3-13.8,23.2-24.8,41.7-32.8c18.5-8,40.9-12.1,67.1-12.1c26.3,0,48.6,4,67,12.1c18.4,8,32.2,19,41.6,32.8
		c9.4,13.8,14.1,29.2,14.1,46.2s-4.7,32.4-14.1,46.1c-9.4,13.7-23.3,24.7-41.8,32.8c-18.5,8.2-40.7,12.2-66.8,12.2
		C1632,2683.2,1609.6,2679.1,1591.1,2670.9z M1701.4,2621.1c10-7.6,15-17.3,15-29.1c0-11.6-5-21.3-15.1-29.1
		c-10.1-7.8-24.4-11.7-43-11.7c-18.6,0-32.9,3.9-43,11.7c-10.1,7.8-15.1,17.5-15.1,29.1c0,11.8,5,21.5,15,29.1
		c10,7.6,24.4,11.4,43.2,11.4C1677.1,2632.5,1691.5,2628.7,1701.4,2621.1z"/>
	<path class="st8" d="M1851.9,2670.9c-18.5-8.2-32.4-19.1-41.7-32.8c-9.3-13.7-13.9-29.1-13.9-46.1s4.6-32.4,13.9-46.2
		c9.3-13.8,23.2-24.8,41.7-32.8c18.5-8,40.9-12.1,67.1-12.1c26.3,0,48.6,4,67,12.1c18.4,8,32.2,19,41.6,32.8
		c9.4,13.8,14.1,29.2,14.1,46.2s-4.7,32.4-14.1,46.1c-9.4,13.7-23.3,24.7-41.8,32.8c-18.5,8.2-40.7,12.2-66.8,12.2
		C1892.7,2683.2,1870.4,2679.1,1851.9,2670.9z M1962.2,2621.1c10-7.6,15-17.3,15-29.1c0-11.6-5-21.3-15.1-29.1
		c-10.1-7.8-24.4-11.7-43-11.7c-18.6,0-32.9,3.9-43,11.7c-10.1,7.8-15.1,17.5-15.1,29.1c0,11.8,5,21.5,15,29.1
		c10,7.6,24.4,11.4,43.2,11.4C1937.8,2632.5,1952.2,2628.7,1962.2,2621.1z"/>
	<path class="st8" d="M2202.3,2588.3l83,90.1h-81.6l-71.4-84.7v84.7h-64.6v-238h64.6v143.1l69.4-78.2h80.2L2202.3,2588.3z"/>
</g>
<path class="st9" d="M1934.8,1598.1"/>
<path class="st10" d="M2332.9,2062h-1708c-22.1,0-35.8-24-24.6-43c92-155.9,184-311.8,275.9-467.7h1205.3
	c92,155.9,184,311.8,275.9,467.7C2368.7,2038,2355,2062,2332.9,2062z"/>
<rect x="1001.3" y="1731.1" class="st11" width="927.9" height="109.2"/>
<path class="st1" d="M1358.5,1073.3c-98.5-11.9-267-22.5-381,77.1C870.3,1244.3,840.1,1408.8,847,1468l49.7,155.5
	c0,0,100.3,55.5,133.4,19.5c29.5-32.1,17.2-50.1-14.6-109.9c-31.7-59.8-61.3-367.7,179.2-370.8c64.7-0.8,109.8,13.5,141.3,35"/>
<g>
	<path class="st12" d="M1002.5,1673.9c-24.5,2.2-44.8,23.1-59.2,42.6c-5.9,7.9-13.6,12.4-21.4,14.7
		c23.1,84.7,72.2,166.2,100.1,195.3c33.8,35.4,71.5,29.1,71.5,29.1C1087.1,1870.1,1039.2,1752.9,1002.5,1673.9z"/>
	<path class="st13" d="M943.3,1716.5c14.4-19.5,34.8-40.4,59.2-42.6c-23.8-51.3-42.9-86.5-42.9-86.5l-48.6,88.7
		c2.1,18.2,5.9,36.7,10.9,55C929.7,1728.9,937.4,1724.5,943.3,1716.5z"/>
</g>
<path class="st1" d="M995.4,1593.1c-53.2,33.7-61.9,76.6-68.8,104.9c-6.9,28.3-58.8,28.5-96.9-4.7s8.5-74.3,8.5-74.3
	s-34.7,19.8-57.7-18.6c-31.2-51.9,76-142.9,76-142.9"/>
<g>
	<path class="st11" d="M2367.2,1705c0,0,56.8-15.9,93.1-8.2c36.3,7.8,58.6,48.6,36.4,84.6c-17.1,27.7-66.3,0.6-79.2-15
		c-13-15.6-58.1-9.5-58.1-9.5L2367.2,1705z"/>
	<path class="st11" d="M2273.8,1702.4c0,0,27.2-66.4,75.3-59.7c50.2,7,44.1,51.9,33.7,98.6l-106.4,26L2273.8,1702.4z"/>
	<path class="st11" d="M1955.9,1838.7c0,0,18.2,57.1,93.4,26c0,0,13,98.6,90.8,13c0,0,28.5,57.1,64.9,67.5
		c36.3,10.4,85.6-18.2,90.8-54.5c0,0,23.4,41.5,103.8,36.3c80.5-5.2,93.4-109,38.9-171.3c-54.5-62.3-147.9-28.5-147.9-28.5
		s11.7-61-50.6-74c-62.3-13-114.2,10.4-109,70.1c0,0,1.3-71.4-86.9-50.6C2044.1,1672.6,1901.4,1711.5,1955.9,1838.7z"/>
	<path class="st11" d="M2225.8,1767.5c0,0,21.7-31.6,77.8-44.2"/>
	<path class="st11" d="M2112.3,1778.2c0,0,22.2-24.3,18.6-58.2"/>
	<path class="st11" d="M2274,1806.1c0,0,36.4,28.9,21.4,84.6"/>
</g>
<g>
	<path class="st1" d="M1656.9,1200.9c33.6-19.1,76.6-35.8,141.3-35c240.5,3.1,208.5,322.7,180.3,384.3
		c-8.1,17.8-27.9,38.3-89.9,31.1c-46.5-5.5-71.7-8.6-109.2,1.1c-45.9,11.8-33.2,72.8,11.8,73.9l34.3,114.6
		c-39.6,10.7-50.5,53.1-24.6,81.4c22.5,24.6,89.9,6.4,89.9,6.4c170.3-47.1,170.3-149.2,206.7-216.3c40.7-75,46.3-127.7,48.6-170.6
		c3.2-59.6-23.4-223.8-130.6-317.6c-113.9-99.7-282.5-89-381-77.1"/>
	<path class="st1" d="M1799.6,1655.1"/>
	<path class="st1" d="M1890.7,1618.7c0,0-20.3,32.1-91,36.4c-70.7,4.3-84.6,51.4-61,93.2c23.6,41.8,86.7,22.5,86.7,22.5
		c-39.6,10.7-50.5,53.1-24.6,81.4c22.5,24.6,89.9,6.4,89.9,6.4c170.3-47.1,170.1-149.3,206.7-216.3"/>
</g>
<g>
	<path class="st14" d="M270.9,1868.7c94.1,4.6,186.5,5.1,280,0.6c68.4-3.3,125.8-52.7,139.1-119.9c13.1-66,26.2-127.9,39.2-192.4
		c4.8-23.5-11.6-46.1-35.4-48.7c-189.5-21.3-364.8-21.2-565.1,0.2c-24,2.6-40.6,25.1-35.8,48.8c13,64.2,26,125.8,39,191.5
		C145.2,1816,202.5,1865.4,270.9,1868.7z"/>
	<path class="st15" d="M131.2,1550c0,0,270.7,52.5,535.3,0"/>
	<g>
		<path class="st16" d="M599.2,1755.7c0,0,41.4,21.8,50.3,60c8.8,38.2-11.5,92.1-57.5,108.8s-68.3-21.3-68.3-21.3s-41.3,7.3-61.3-46
			s16.5-103.7,45.1-122.9C536,1715.1,584.4,1727.8,599.2,1755.7z"/>
		<path class="st17" d="M660.1,1767c0,0-39.6,41-78.3,23c-38.7-18-17-88.6-17-88.6s16.5,9.2,23.6,29.2c0,0,18.5-11.8,41.7-17.3
			c0,0,7.7,15.7-4,41.9C626.1,1755.3,653,1754.8,660.1,1767z"/>
	</g>
	<g>
		<path class="st16" d="M359.5,1741.9c0,0,54.5-26.3,101-6.1c46.5,20.2,86.9,82.8,68.7,143.4c-18.2,60.6-74.7,54.5-74.7,54.5
			s-24.2,48.5-94.9,28.3c-70.7-20.2-94.9-97-92.9-141.4S319.1,1735.8,359.5,1741.9z"/>
		<path class="st17" d="M418,1687.4c0,0,12.1,72.7-36.4,99s-105-50.5-105-50.5s22.2-10.1,48.5-2c0,0,2-28.3,14.1-56.6
			c0,0,22.2,4,40.4,36.4C379.7,1713.6,399.9,1685.3,418,1687.4z"/>
	</g>
</g>
<g>
	<path class="st14" d="M2869.2,1718.8c-32,8.2-69.1-17.6-107.9-84.5c-38.8-65.8-79.2-172.7-116.9-300.1
		c-37.1-127.5-60.8-239.4-63.7-315.7c-3.5-77.3,17-108.2,48.4-118.6c32-8.2,66,6.7,104.8,73.7c38.8,65.8,79.2,172.7,116.9,300.1
		c37.1,127.5,60.8,239.4,63.7,315.7C2917.9,1666.7,2900.6,1708.4,2869.2,1718.8z"/>
	<g>
		<path class="st14" d="M2617.1,1046.4c0,0,60.8,18.3,105.6-32.3"/>
		<path class="st14" d="M2634.9,1153.3c0,0,83.6,25.2,145.1-44.4"/>
	</g>
	<path class="st14" d="M2935.6,1629.5c-32.7,4.9-66.9-24.6-98.6-95.2c-31.7-69.5-60.9-180-85.1-310.6
		c-23.7-130.7-35.6-244.4-30.6-320.6c4.6-77.3,28.1-105.9,60.4-112.9c32.7-4.9,64.9,13.5,96.6,84.1c31.7,69.5,60.9,180,85.1,310.6
		c23.7,130.7,35.6,244.4,30.6,320.6C2989.4,1582.7,2967.9,1622.4,2935.6,1629.5z"/>
	<g>
		<path class="st14" d="M2759.2,975c0,0,58.3,25.1,108.6-20.1"/>
		<path class="st14" d="M2762,1107.2c0,0,80.2,34.5,149.3-27.6"/>
	</g>
</g>
<g>
	<path class="st5" d="M3000.5,1189.5c-123.4,0.8-260.5,3.9-349.3,12.9l-47.5,35.6l-52.5,3c0,0,9.9,312.9-29.7,566.4l94.1,111.9
		h384.9"/>
	<path class="st12" d="M2657.7,1233.4c0,0,20.1,466.4-20.1,648.4"/>
	<path class="st12" d="M2601.4,1354c0,0,14.1,223.2-14.1,388"/>
</g>
<g>
	<path class="st1" d="M1499.1,382.3"/>
	<path class="st18" d="M1726.8,285c0-52.4-45.6-94.9-102-94.9c-3.5,0-7,0.2-10.4,0.5c-22.9-38.6-65.9-64.6-115.3-64.6
		c-46.4,0-87.2,23-110.9,57.7c-7.8-1.8-15.9-2.8-24.2-2.8c-56.3,0-102,42.5-102,94.9c0,34.6,20,64.9,49.8,81.4l34.4,188.1
		c5.2,28.6,28.8,50.7,58.5,55c42.4,6.1,107.4,11,178.4-0.2c27.8-4.4,50.1-24.6,56.5-51.1l45.8-188
		C1710.5,343.8,1726.8,316.2,1726.8,285z"/>
	<line class="st1" x1="1499.1" y1="331.9" x2="1499.1" y2="487.5"/>
	<line class="st1" x1="1380.6" y1="359.4" x2="1404.3" y2="492.1"/>
	<line class="st1" x1="1608.2" y1="364" x2="1584.5" y2="501.3"/>
	<path class="st9" d="M1342.6,331.9c0,0,156.5-77.8,308.2,0"/>
	<line class="st1" x1="1380.2" y1="535" x2="1607.6" y2="535"/>
	<path class="st9" d="M1371.8,290.7c-3.6-11.6-5.5-23.9-5.5-36.6c0-70.8,59.4-128.1,132.8-128.1s132.8,57.4,132.8,128.1
		c0,11.6-1.6,22.9-4.6,33.6"/>
</g>
<g>
	<g>
		<g>
			<path class="st1" d="M1870.9,829.3c-19,80.1-74.7,155.1-141.7,212.2c-67.9,56.8-150.2,95.9-239,95.7
				c-88.7,0.7-171.4-37.8-239.6-94.2c-67.4-56.7-123.5-131.3-143-211.3c-20.1-79.9,3.1-155.3,69.5-213.4
				c65.2-57.7,179.8-98.4,311.2-98.3c131.4-0.9,246.2,39,311.8,96.3C1866.8,674,1890.5,749.2,1870.9,829.3z"/>
			<path class="st1" d="M1870.9,829.3c-19,80.1-74.7,155.1-141.7,212.2c-67.9,56.8-150.2,95.9-239,95.7
				c-88.7,0.7-171.4-37.8-239.6-94.2c-67.4-56.7-123.5-131.3-143-211.3c-20.1-79.9,3.1-155.3,69.5-213.4
				c65.2-57.7,179.8-98.4,311.2-98.3c131.4-0.9,246.2,39,311.8,96.3C1866.8,674,1890.5,749.2,1870.9,829.3z"/>
		</g>
		<g>
			<g>
				<path class="st19" d="M1325.2,896.1c-26.4-0.1-49-7-63.8-21.9c-15-14.7-22-37.3-22.3-63.7c0.1-26.4,7-49,21.9-63.8
					c14.7-15,37.3-22,63.7-22.3c26.4,0.1,49,7,63.8,21.9c15,14.7,22,37.3,22.3,63.7c-0.1,26.4-7,49-21.9,63.8
					C1374.2,888.8,1351.6,895.8,1325.2,896.1z"/>
				<path class="st20" d="M1261.4,874.2c14.8,14.9,37.4,21.8,63.8,21.9c26.4-0.3,49-7.4,63.7-22.3c14.9-14.8,21.8-37.4,21.9-63.8
					l-171.7,0.6C1239.4,836.9,1246.5,859.6,1261.4,874.2z"/>
				<path class="st9" d="M1325.2,896.1c-26.4-0.1-49-7-63.8-21.9c-15-14.7-22-37.3-22.3-63.7c0.1-26.4,7-49,21.9-63.8
					c14.7-15,37.3-22,63.7-22.3c26.4,0.1,49,7,63.8,21.9c15,14.7,22,37.3,22.3,63.7c-0.1,26.4-7,49-21.9,63.8
					C1374.2,888.8,1351.6,895.8,1325.2,896.1z"/>
			</g>
			<g>
				<path class="st19" d="M1653.5,896.1c-26.4-0.1-49-7-63.8-21.9c-15-14.7-22-37.3-22.3-63.7c0.1-26.4,7-49,21.9-63.8
					c14.7-15,37.3-22,63.7-22.3c26.4,0.1,49,7,63.8,21.9c15,14.7,22,37.3,22.3,63.7c-0.1,26.4-7,49-21.9,63.8
					C1702.5,888.8,1679.9,895.8,1653.5,896.1z"/>
				<path class="st20" d="M1589.7,874.2c14.8,14.9,37.4,21.8,63.8,21.9c26.4-0.3,49-7.4,63.7-22.3c14.9-14.8,21.8-37.4,21.9-63.8
					l-171.7,0.6C1567.7,836.9,1574.8,859.6,1589.7,874.2z"/>
				<path class="st9" d="M1653.5,896.1c-26.4-0.1-49-7-63.8-21.9c-15-14.7-22-37.3-22.3-63.7c0.1-26.4,7-49,21.9-63.8
					c14.7-15,37.3-22,63.7-22.3c26.4,0.1,49,7,63.8,21.9c15,14.7,22,37.3,22.3,63.7c-0.1,26.4-7,49-21.9,63.8
					C1702.5,888.8,1679.9,895.8,1653.5,896.1z"/>
			</g>
		</g>
		<path class="st1" d="M1293.7,583.8c0,0-191.9-117.5-248.9-92.9c-57,24.6-6.2,145.5,16.9,179.2c25,36.5,62.8,59.3,93.8,36.4"/>
		<path class="st1" d="M1683.2,582.5c0,0,191.1-118.8,248.3-94.5c57.1,24.3,7.2,145.4-15.7,179.3c-24.8,36.6-62.4,59.7-93.6,37"/>
		<g>
			<path class="st1" d="M1237.1,701.4c0,0,22.2-50.8,104.5-63.5"/>
			<path class="st1" d="M1714,690.5c0,0-48.2-27.5-121.7,11.5"/>
		</g>
		<g>
			<path class="st21" d="M1130.2,676.3c0,0,12.1-18.8,67.4-54.9c55.4-36.1-138.3-121.6-149.5-84.5
				C1037.4,573,1093.7,710.2,1130.2,676.3z"/>
			<path class="st21" d="M1843.9,674c0,0-12.2-18.7-67.8-54.5C1720.5,583.7,1913.7,497,1925,534
				C1936.1,570.1,1880.7,707.6,1843.9,674z"/>
		</g>
		<g>
			<g>
				<path class="st9" d="M1250.6,932.8c0,0-195.3-41-297.7-126.6"/>
				<line class="st9" x1="985.5" y1="908.7" x2="1250.4" y2="968.8"/>
				<path class="st9" d="M1255.3,1000.7c0,0-162.4-25.7-206.9,35.2"/>
			</g>
			<g>
				<path class="st9" d="M1729,921.4c0,0,196.2-36.5,300.5-119.8"/>
				<line class="st9" x1="1994.6" y1="903.4" x2="1728.3" y2="957.4"/>
				<path class="st9" d="M1722.7,989.2c0,0,162.9-22,206,39.9"/>
			</g>
		</g>
		<g>
			<path class="st22" d="M1438.2,1015c8.4-46.8,32.8-87,54.4-86.9c21.7-0.2,46.3,39.8,55,86.6c8.8,46.8-15.5,80.8-54.5,80.9
				C1454.3,1095.7,1429.7,1061.9,1438.2,1015z"/>
			<path class="st22" d="M1438.2,1015c8.4-46.8,32.8-87,54.4-86.9c21.7-0.2,46.3,39.8,55,86.6c8.8,46.8-15.5,80.8-54.5,80.9
				C1454.3,1095.7,1429.7,1061.9,1438.2,1015z"/>
		</g>
		<g>
			<path class="st1" d="M1490.2,937.2c0.1,33.2-31.6,60.3-70.8,60.4c-26.3,0.1-49.3-11.9-61.6-29.9"/>
			<path class="st1" d="M1490.2,937.2c0.1,33.2,32,60.1,71.2,59.9c26.3-0.1,49.2-12.3,61.4-30.3"/>
		</g>
		<path class="st23" d="M1416.7,909c7.8,15.2,19.9,28.4,32.5,37.5c12.8,9.1,26.2,14.1,41,14.1c14.8-0.1,28.2-5.2,40.9-14.4
			c12.5-9.1,24.6-22.4,32.3-37.7c7.5-15.3,7.5-28.8-5.2-37.5c-12.2-8.8-37.9-12.8-68.3-12.8c-30.3,0.2-56,4.4-68.2,13.2
			C1409,880.3,1409.2,893.8,1416.7,909z"/>
	</g>
</g>
<g class="st4">
	<path class="st3" d="M1599.7,635c-5.3,10.2-20.7,19.8-39.2,27.1c-18.8,7.3-41.5,12.3-66,12.3c-24.5,0.1-47.3-4.7-66.1-11.9
		c-18.6-7.2-34-16.7-39.4-26.8c-5.5-10.2,0.9-19.8,19.3-27.2c18-7.4,49.7-12.6,86-12.7c36.3-0.2,68,4.8,86,12.1
		C1598.6,615.3,1605.1,624.8,1599.7,635z"/>
</g>
<g>
	<path class="st24" d="M938.9,1920.1c0,33.7-42.4,61-94.8,61s-94.8-27.3-94.8-61v-34.3h189.6V1920.1z"/>
	<ellipse class="st11" cx="844.1" cy="1886.2" rx="94.8" ry="61"/>
	<path class="st24" d="M835.4,1882.6c0,0-11.3-20.5-40-23.6"/>
	<path class="st11" d="M884.6,1862.1c0,0-19.5,7.2-28.7,20.5"/>
	<path class="st11" d="M845.6,1897c0,0-3.1,12.3,10.2,26.6"/>
</g>
<g>
	<g>
		<g>
			<path class="st25" d="M2743,507c0,27.5-37.5,48.6-45.6,73.4c-8.3,25.7,9.3,64.8-6.3,86.2c-15.7,21.6-58.5,16.9-80.1,32.6
				c-21.4,15.6-30,57.8-55.7,66.1c-24.8,8-56.5-20.8-83.9-20.8s-59.1,28.8-83.9,20.8c-25.7-8.3-34.3-50.6-55.7-66.1
				c-21.6-15.7-64.4-11-80.1-32.6c-15.6-21.4,2.1-60.5-6.3-86.2c-8-24.8-45.6-46-45.6-73.4c0-27.5,37.5-48.6,45.6-73.4
				c8.3-25.7-9.3-64.8,6.3-86.2c15.7-21.6,58.5-16.9,80.1-32.6c21.4-15.6,30-57.8,55.7-66.1c24.8-8,56.5,20.8,83.9,20.8
				s59.1-28.8,83.9-20.8c25.7,8.3,34.3,50.6,55.7,66.1c21.6,15.7,64.4,11,80.1,32.6c15.6,21.4-2.1,60.5,6.3,86.2
				C2705.5,458.4,2743,479.5,2743,507z"/>
			<path class="st15" d="M2743,507c0,27.5-37.5,48.6-45.6,73.4c-8.3,25.7,9.3,64.8-6.3,86.2c-15.7,21.6-58.5,16.9-80.1,32.6
				c-21.4,15.6-30,57.8-55.7,66.1c-24.8,8-56.5-20.8-83.9-20.8s-59.1,28.8-83.9,20.8c-25.7-8.3-34.3-50.6-55.7-66.1
				c-21.6-15.7-64.4-11-80.1-32.6c-15.6-21.4,2.1-60.5-6.3-86.2c-8-24.8-45.6-46-45.6-73.4c0-27.5,37.5-48.6,45.6-73.4
				c8.3-25.7-9.3-64.8,6.3-86.2c15.7-21.6,58.5-16.9,80.1-32.6c21.4-15.6,30-57.8,55.7-66.1c24.8-8,56.5,20.8,83.9,20.8
				s59.1-28.8,83.9-20.8c25.7,8.3,34.3,50.6,55.7,66.1c21.6,15.7,64.4,11,80.1,32.6c15.6,21.4-2.1,60.5,6.3,86.2
				C2705.5,458.4,2743,479.5,2743,507z"/>
		</g>
		<circle class="st26" cx="2471.5" cy="507" r="191"/>
		<g>
			<line class="st15" x1="2471.5" y1="339" x2="2471.5" y2="390"/>
			<line class="st15" x1="2471.5" y1="624" x2="2471.5" y2="675"/>
		</g>
		<g>
			<line class="st15" x1="2387.5" y1="361.5" x2="2395.5" y2="375.4"/>
			<line class="st15" x1="2547.5" y1="638.6" x2="2555.5" y2="652.5"/>
		</g>
		<g>
			<line class="st15" x1="2326" y1="423" x2="2339.9" y2="431"/>
			<line class="st15" x1="2603.1" y1="583" x2="2617" y2="591"/>
		</g>
		<g>
			<line class="st15" x1="2326" y1="591" x2="2339.9" y2="583"/>
			<line class="st15" x1="2603.1" y1="431" x2="2617" y2="423"/>
		</g>
		<g>
			<line class="st15" x1="2387.5" y1="652.5" x2="2395.5" y2="638.6"/>
			<line class="st15" x1="2547.5" y1="375.4" x2="2555.5" y2="361.5"/>
		</g>
		<g>
			<line class="st15" x1="2639.5" y1="507" x2="2588.5" y2="507"/>
			<line class="st15" x1="2354.5" y1="507" x2="2303.5" y2="507"/>
		</g>
	</g>
	<path class="st14" d="M2471.5,358c0,0-36,106.7,0,131.5C2507.5,464.7,2471.5,358,2471.5,358z"/>
	<path class="st14" d="M2543.9,586.9c0,0-22.8-76.5-59.7-65.3C2469.7,557.4,2543.9,586.9,2543.9,586.9z"/>
	<circle class="st14" cx="2471.5" cy="507" r="19.5"/>
</g>
<g>
	<path class="st27" d="M328,444.5c0,0,75-82,15-136s-202-11-249,16s150,93,150,93L328,444.5z"/>
	<path class="st27" d="M158,344.5c0,0,116-58,176,0"/>
	<path class="st27" d="M227,371.5c0,0,43-17,99,0"/>
	<path class="st21" d="M540,861.5H0v-99h556v83C556,854.3,548.8,861.5,540,861.5z"/>
	<path class="st28" d="M0.5,814.5h587.8c7.6,0,13.8-6.2,13.8-13.8v-68.3c0-7.7-6.3-14-14-14H0.5"/>
	<path class="st29" d="M1,734.8c19,0.5,38.4,0.7,58,0.7c279.5,0,455.6,13.5,500-102c30-78-220.5-255-500-255c-19.6,0-39,0.4-58,1.3"
		/>
	<path class="st30" d="M602.5,620.2H490C490,620.2,583.9,531.9,602.5,620.2z"/>
	<path class="st30" d="M580.9,620.3H490C490,620.3,566,691.6,580.9,620.3z"/>
	<path class="st31" d="M398.2,594.2c-14.5-0.1-26.9-3.9-35-12c-8.2-8-12.1-20.4-12.2-34.9c0.1-14.5,3.9-26.9,12-35
		c8-8.2,20.4-12.1,34.9-12.2c14.5,0.1,26.9,3.9,35,12c8.2,8,12.1,20.4,12.2,34.9c-0.1,14.5-3.9,26.9-12,35
		C425,590.1,412.6,594,398.2,594.2z"/>
	<path class="st32" d="M418.7,588.2c-6.3,0-11.7-1.7-15.2-5.2c-3.6-3.5-5.2-8.9-5.3-15.2c0-6.3,1.7-11.7,5.2-15.2
		c3.5-3.6,8.9-5.2,15.2-5.3c6.3,0,11.7,1.7,15.2,5.2c3.6,3.5,5.2,8.9,5.3,15.2c0,6.3-1.7,11.7-5.2,15.2
		C430.4,586.5,425,588.1,418.7,588.2z"/>
	<path class="st27" d="M418.5,691c0,0,26,86-223,105c0,0,49-151,186-128"/>
	<path class="st27" d="M361,692.5c0,0-76,23-104,58"/>
	<path class="st27" d="M334,738.5c0,0,23-8,42-25"/>
	<path class="st27" d="M298,476.5c0,0-105,108.5-21.5,211.7"/>
	<path class="st27" d="M227,509.5c0,0-94,85-7,171"/>
	<path class="st1" d="M389,913.5v-96.9c0-1.2,0.9-2.1,2.1-2.1h56.8c1.2,0,2.1,0.9,2.1,2.1v96.9c0,7.7-6.3,14-14,14h-33
		C395.3,927.5,389,921.2,389,913.5z"/>
</g>
</svg>
