<?xml version="1.0" encoding="utf-8"?>
<!-- Generator: Adobe Illustrator 22.0.0, SVG Export Plug-In . SVG Version: 6.00 Build 0)  -->
<svg version="1.1" id="Layer_1" xmlns="http://www.w3.org/2000/svg" xmlns:xlink="http://www.w3.org/1999/xlink" x="0px" y="0px"
	 viewBox="0 0 3000 3000" style="enable-background:new 0 0 3000 3000;" xml:space="preserve">
<style type="text/css">
	.st0{fill:url(#SVGID_1_);}
	.st1{fill:#FEEBFF;stroke:#831F9B;stroke-width:28;stroke-linecap:round;stroke-linejoin:round;stroke-miterlimit:10;}
	.st2{fill:#FFBE83;stroke:#A04F12;stroke-width:14;stroke-linecap:round;stroke-linejoin:round;stroke-miterlimit:10;}
	.st3{opacity:0;fill:#FFE5D4;}
	.st4{fill:#FFF4E9;}
	.st5{fill:#F3E9C3;}
	.st6{fill:#FFFFFF;stroke:#A04F12;stroke-miterlimit:10;}
	.st7{fill:#A04F12;stroke:#A04F12;stroke-miterlimit:10;}
	.st8{fill:none;stroke:#A04F12;stroke-width:14;stroke-linecap:round;stroke-linejoin:round;stroke-miterlimit:10;}
	.st9{fill:#E56E03;}
	.st10{fill:#FF9085;stroke:#A04F12;stroke-width:14;stroke-linecap:round;stroke-linejoin:round;stroke-miterlimit:10;}
	.st11{fill:#A04F12;}
	.st12{fill:#FFFC92;}
	.st13{fill:#E8D83D;}
	.st14{fill:none;stroke:#896F00;stroke-width:14;stroke-miterlimit:10;}
	.st15{fill:#FCC7FF;stroke:#831F9B;stroke-width:14;stroke-linecap:round;stroke-linejoin:round;stroke-miterlimit:10;}
	.st16{fill:#E082F4;}
	.st17{fill:#FEEBFF;}
	.st18{fill:#FDC5FD;}
	.st19{fill:none;stroke:#831F9B;stroke-width:14;stroke-linecap:round;stroke-linejoin:round;stroke-miterlimit:10;}
	.st20{fill:#E1E1FF;}
	.st21{fill:#BFBBF2;}
	.st22{fill:none;stroke:#6757B5;stroke-width:14;stroke-miterlimit:10;}
	.st23{fill:#FF9085;}
	.st24{fill:#FF4633;}
	.st25{fill:none;stroke:#721811;stroke-width:14;stroke-miterlimit:10;}
	.st26{fill:#831F9B;}
	.st27{fill:#AEFFCF;}
	.st28{fill:#49EA96;}
	.st29{fill:none;stroke:#00726A;stroke-width:14;stroke-miterlimit:10;}
</style>
<radialGradient id="SVGID_1_" cx="1500" cy="774.1451" r="2060.3516" gradientTransform="matrix(1 0 0 1.3363 0 -260.3665)" gradientUnits="userSpaceOnUse">
	<stop  offset="0" style="stop-color:#F5F5FF"/>
	<stop  offset="1" style="stop-color:#BFBBF2"/>
</radialGradient>
<rect class="st0" width="3000" height="3000"/>
<path class="st1" d="M2702,2916H298c-119.5,0-216.5-96.9-216.5-216.5v-292.1c0-119.5,96.9-216.5,216.5-216.5H2702
	c119.5,0,216.5,96.9,216.5,216.5v292.1C2918.5,2819.1,2821.6,2916,2702,2916z"/>
<path class="st2" d="M1497.7,1157.8l193.1-77.1c-140.4-93.6-57.7-182.4-57.7-182.4h-135.4h-0.8h-135.4c0,0,82.6,88.8-57.7,182.4
	l193.1,77.1v0.3l0.4-0.2l0.4,0.2V1157.8z"/>
<path class="st2" d="M1605.4,1023.3c116.2,47.4,198.9,169.9,198.9,313.5c0,184.8-137,334.5-306,334.5s-306-149.8-306-334.5
	c0-124.4,62.1-232.9,154.3-290.6c12.3-7.7,25.2-14.5,38.5-20.3"/>
<path class="st3" d="M1264.4,1380c-18.8,13.5-37.5,48.3-3.6,108.4c33.9,60.1,116.2,143.4,151.3,112
	C1461.5,1556.3,1328.5,1334,1264.4,1380z"/>
<g>
	<path class="st2" d="M1464.2,1644c-36.8,20.8-55.2,57.6-46.8,104.3c9,50.2,41.2,157.5,18.3,244.5c-4,15.1-17.6,25.7-33.3,25.7
		h-271.3c0,0-4.8-214.2,183.9-103.9c0,0-3.2-213.4,102.3-299.8"/>
	<path class="st2" d="M1532.5,1644c36.8,20.8,55.2,57.6,46.8,104.3c-9,50.2-41.2,157.5-18.3,244.5c4,15.1,17.6,25.7,33.3,25.7h271.3
		c0,0,4.8-214.2-183.9-103.9c0,0,3.2-213.4-102.3-299.8"/>
</g>
<g>
	<path class="st4" d="M1170.4,1986.1c-0.1-14.9,13.7-39.8,45.5-40.6c25.9-0.7,46.7,7.6,72.7,28.1
		C1306.7,1988,1170.5,2013.9,1170.4,1986.1z"/>
	<path class="st4" d="M1824.2,1986.1c0.1-14.9-13.7-39.8-45.5-40.6c-25.9-0.7-46.7,7.6-72.7,28.1
		C1687.9,1988,1824.1,2013.9,1824.2,1986.1z"/>
</g>
<g>
	<path class="st5" d="M1576.4,1109.9c-4.1,24.5-15.9,47.3-30.1,64.7c-14.4,17.3-31.8,29.2-50.6,29c-18.8,0.1-36.2-11.7-50.6-29
		c-14.2-17.4-26-40.3-30.1-64.7c-4.2-24.5,0.8-47.5,14.8-65.2c13.8-17.6,38.1-25.1,65.8-24.9c27.8-0.1,52,7.4,65.8,24.9
		C1575.7,1062.5,1580.6,1085.5,1576.4,1109.9z"/>
</g>
<g>
	<g>
		<g>
			<path class="st2" d="M1834.7,522.8c7.6,76.5-18.8,159.6-60.6,230.5c-42.7,70.8-103.5,130.3-181.9,157.2
				c-78.1,27.6-162.8,18.7-240.2-10.3c-76.7-29.6-149-78.4-190.6-143.1c-42-64.5-44.5-138-3.6-209.6
				c40.1-70.8,128.9-141.5,244.9-181.4c115.7-40.7,229.3-40.4,304.6-9.8C1783.9,387,1827.6,446.2,1834.7,522.8z"/>
			<path class="st2" d="M1834.7,522.8c7.6,76.5-18.8,159.6-60.6,230.5c-42.7,70.8-103.5,130.3-181.9,157.2
				c-78.1,27.6-162.8,18.7-240.2-10.3c-76.7-29.6-149-78.4-190.6-143.1c-42-64.5-44.5-138-3.6-209.6
				c40.1-70.8,128.9-141.5,244.9-181.4c115.7-40.7,229.3-40.4,304.6-9.8C1783.9,387,1827.6,446.2,1834.7,522.8z"/>
		</g>
		<g>
			<path class="st4" d="M1519.9,391.9c-1.6,10.9-12.6,24.4-27,36.7c-14.7,12.4-33.8,24.1-55.9,31.7c-22.1,7.8-44.3,10.5-63.5,9.9
				c-19-0.7-36-4.5-44-12c-8.2-7.5-5.3-18.2,9-30.6c14-12.3,41-26.9,73.8-38.3c32.8-11.5,63-16.8,81.6-15.9
				C1512.8,374.3,1521.6,380.9,1519.9,391.9z"/>
		</g>
		<g>
			<g>
				<path class="st6" d="M1415.1,624c7.9,23.3,8.7,45.4,0,63c-8.4,17.7-26.2,30.8-49.4,39.1c-23.3,7.9-45.4,8.7-63,0
					c-17.7-8.4-30.8-26.2-39.1-49.4c-7.9-23.3-8.7-45.4,0-63c8.4-17.7,26.2-30.8,49.4-39.1c23.3-7.9,45.4-8.7,63,0
					C1393.7,582.9,1406.8,600.8,1415.1,624z"/>
				<path class="st7" d="M1415.1,687c8.7-17.6,7.9-39.7,0-63c-8.3-23.2-21.4-41-39.1-49.4c-17.6-8.7-39.7-7.9-63,0l52.7,151.5
					C1388.9,717.8,1406.7,704.6,1415.1,687z"/>
				<path class="st8" d="M1415.1,624c7.9,23.3,8.7,45.4,0,63c-8.4,17.7-26.2,30.8-49.4,39.1c-23.3,7.9-45.4,8.7-63,0
					c-17.7-8.4-30.8-26.2-39.1-49.4c-7.9-23.3-8.7-45.4,0-63c8.4-17.7,26.2-30.8,49.4-39.1c23.3-7.9,45.4-8.7,63,0
					C1393.7,582.9,1406.8,600.8,1415.1,624z"/>
			</g>
			<g>
				<path class="st6" d="M1553.5,576.9c-7.9-23.3-8.7-45.4,0-63c8.4-17.7,26.2-30.8,49.4-39.1c23.3-7.9,45.4-8.7,63,0
					c17.7,8.4,30.8,26.2,39.1,49.4c7.9,23.3,8.7,45.4,0,63c-8.4,17.7-26.2,30.8-49.4,39.1c-23.3,7.9-45.4,8.7-63,0
					C1574.9,617.9,1561.8,600,1553.5,576.9z"/>
				<path class="st7" d="M1553.5,513.9c-8.7,17.6-7.9,39.7,0,63c8.3,23.2,21.4,41,39.1,49.4c17.6,8.7,39.7,7.9,63,0l-52.7-151.5
					C1579.7,483.1,1561.9,496.2,1553.5,513.9z"/>
				<path class="st8" d="M1553.5,576.9c-7.9-23.3-8.7-45.4,0-63c8.4-17.7,26.2-30.8,49.4-39.1c23.3-7.9,45.4-8.7,63,0
					c17.7,8.4,30.8,26.2,39.1,49.4c7.9,23.3,8.7,45.4,0,63c-8.4,17.7-26.2,30.8-49.4,39.1c-23.3,7.9-45.4,8.7-63,0
					C1574.9,617.9,1561.8,600,1553.5,576.9z"/>
			</g>
		</g>
		<path class="st2" d="M1250.4,481.6c0,0-205.2-45.4-248-6.4c-42.8,39.1,38.7,130.4,69.4,153.1c33.2,24.6,73.5,33.2,93.9,3.6"/>
		<path class="st2" d="M1593.9,362c0,0,132.6-163,190.5-159s50.6,126.2,40.7,163.1c-10.7,39.9-36.9,71.7-71.4,61.1"/>
		<g>
			<path class="st2" d="M1227,588.2c0,0,11.9-50.4,85.2-75.9"/>
			<path class="st2" d="M1678.5,431.1c0,0-40.6-32.2-113.9-6.6"/>
		</g>
		<g>
			<path class="st9" d="M1134.2,613c0,0,4.9-20.3,42.9-69c37.9-48.7-159.1-65.3-157.7-29.2C1020.8,550,1112.2,654,1134.2,613z"/>
			<path class="st9" d="M1763.7,393.9c0,0-16.5-12.8-76.4-27.5c-60-14.7,84.2-150,105.5-120.7
				C1813.4,274.1,1806.4,412.4,1763.7,393.9z"/>
		</g>
		<g>
			<g>
				<path class="st8" d="M1315.3,803c0,0-178,55.2-300.4,31.8"/>
				<line class="st8" x1="1087.9" y1="903.7" x2="1331.5" y2="832.5"/>
				<path class="st8" d="M1349.9,856.4c0,0-144.2,52.7-152.9,122.6"/>
			</g>
			<g>
				<path class="st8" d="M1742.6,654.3c0,0,173.8-67.3,255.2-161.6"/>
				<line class="st8" x1="1983.4" y1="592.1" x2="1748.2" y2="687.5"/>
				<path class="st8" d="M1748.6,717.6c0,0,145.7-48.2,195.9,1.2"/>
			</g>
		</g>
		<g>
			<path class="st10" d="M1510.2,813.5c-6.4-41.6,2.4-82.2,20.5-88.4c18.1-6.4,50.2,20,71,56.6c20.8,36.7,10.3,72.1-22.3,83.4
				C1546.9,876.4,1516.7,855.2,1510.2,813.5z"/>
			<path class="st10" d="M1510.2,813.5c-6.4-41.6,2.4-82.2,20.5-88.4c18.1-6.4,50.2,20,71,56.6c20.8,36.7,10.3,72.1-22.3,83.4
				C1546.9,876.4,1516.7,855.2,1510.2,813.5z"/>
		</g>
		<g>
			<path class="st2" d="M1531.3,733.9c10.2,29.3-9.6,62.8-44.2,74.9c-23.2,8.1-47.2,4.4-63.5-7.6"/>
			<path class="st2" d="M1531.3,733.9c10.2,29.3,46.5,43.3,81.1,31.3c23.2-8.1,39.7-25.8,45-45.4"/>
		</g>
		<path class="st11" d="M1457.9,731.4c11.5,11.1,26.2,19.1,40.1,23.2c14,4.1,27.5,4.5,40.5,0c13-4.6,23.3-13.2,31.8-25.1
			c8.3-11.8,14.9-27.3,17-43.1c1.9-15.8-2.1-27.7-16-31.5c-13.5-4-37.4,0.2-64.2,9.5c-26.7,9.4-48.1,20.9-56.2,32.4
			C1442.3,708.3,1446.6,720.2,1457.9,731.4z"/>
	</g>
</g>
<g>
	<path class="st12" d="M1286.8,1325.7c-0.7-74.9-1.9-137.4,31.7-167.9c32.3-31.7,99.4-31.5,179.9-32.4
		c80.4,0.9,147.5,0.7,179.9,32.4c33.6,30.5,32.4,93,31.7,167.9c-2.5,74.9-3.9,137.5-37.4,168.4c-32.4,32.1-96.9,32.5-174.1,33.3
		c-77.3-0.8-141.7-1.2-174.1-33.3C1290.7,1463.2,1289.3,1400.6,1286.8,1325.7z"/>
	<path class="st13" d="M1683.6,1405.3c-34.8,34.5-104.2,34.9-187.2,35.9c-83.1-0.9-152.4-1.3-187.2-35.9
		c-7.1-6.5-12.8-14.4-17.5-23.4c2.8,50.9,9.6,92.1,34.6,115.2c31.6,31.4,94.6,31.8,170.1,32.6c75.5-0.8,138.5-1.2,170.1-32.6
		c25.1-23.1,31.8-64.3,34.6-115.2C1696.4,1391,1690.7,1398.8,1683.6,1405.3z"/>
	<path class="st14" d="M1286.8,1325.7c-0.7-74.9-1.9-137.4,31.7-167.9c32.3-31.7,99.4-31.5,179.9-32.4
		c80.4,0.9,147.5,0.7,179.9,32.4c33.6,30.5,32.4,93,31.7,167.9c-2.5,74.9-3.9,137.5-37.4,168.4c-32.4,32.1-96.9,32.5-174.1,33.3
		c-77.3-0.8-141.7-1.2-174.1-33.3C1290.7,1463.2,1289.3,1400.6,1286.8,1325.7z"/>
</g>
<path class="st2" d="M1245.1,1194.5c0,0-162.6-1.7-164.6,42.6s185.1,53.2,185.1,53.2l-6.9,82.7c0,0-324-35.5-332.9-149.7
	c-8.9-114.2,296.8-153,404.8-175.3c22.5-4.6,71.1-19,81.5-42.2"/>
<path class="st2" d="M1241.2,1367.1c-4.2,11.5-4.8,30.8,0.3,47.5c5.3,16.5,13.1,28.9,23.1,35.9c9.9,7.2,22.9,9.8,35.5,6
	c12.5-4.1,21.1-12.7,25.1-24.2c4.2-11.5,3.1-26.7-2-43.3c-2-6.3-4.4-12.2-7.2-17.4c6.6,1.9,14.1,3.1,22.1,3.6
	c17.4,0.9,32.4-1.8,42.5-8.7c10.2-6.8,16.3-17.8,17.2-30.9c0.6-13.1-4.2-24.7-13.6-32.5c-9.3-8-23.9-12.3-41.3-13.4
	c-8-0.4-15.6,0-22.4,1.1c3.3-4.9,6.4-10.4,9.1-16.5c6.9-15.9,9.8-31,6.9-42.9c-2.7-12-9.6-21.5-21.5-27c-12.1-5.2-25.9-3.9-36.6,2.1
	c-10.7,5.9-19.9,17.3-27,33.1c-6.9,15.9-9.3,41.9-4.4,55"/>
<path class="st2" d="M1752.3,1194.5c0,0,162.6-1.7,164.6,42.6s-185.1,53.2-185.1,53.2l6.9,82.7c0,0,324-35.5,332.9-149.7
	c8.9-114.2-296.8-153-404.8-175.3c-22.5-4.6-71.1-19-81.5-42.2"/>
<path class="st2" d="M1756.5,1367.1c4.2,11.5,4.8,30.8-0.3,47.5c-5.3,16.5-13.1,28.9-23.1,35.9c-9.9,7.2-22.9,9.8-35.5,6
	c-12.5-4.1-21.1-12.7-25.1-24.2c-4.2-11.5-3.1-26.7,2-43.3c2-6.3,4.4-12.2,7.2-17.4c-6.6,1.9-14.1,3.1-22.1,3.6
	c-17.4,0.9-32.4-1.8-42.5-8.7c-10.2-6.8-16.3-17.8-17.2-30.9c-0.6-13.1,4.2-24.7,13.6-32.5c9.3-8,23.9-12.3,41.3-13.4
	c8-0.4,15.6,0,22.4,1.1c-3.3-4.9-6.4-10.4-9.1-16.5c-6.9-15.9-9.8-31-6.9-42.9c2.7-12,9.6-21.5,21.5-27c12.1-5.2,25.9-3.9,36.6,2.1
	c10.7,5.9,19.9,17.3,27,33.1c6.9,15.9,9.3,41.9,4.4,55"/>
<g>
	<g>
		<path class="st9" d="M1262,1379.6c-3.2,14-3.9,38.4,15.8,55.2c19.7,16.8,10.6-29.5,4.2-44
			C1277.2,1379.6,1266.4,1360.3,1262,1379.6z"/>
		<path class="st9" d="M1268.4,1283c-3.2-14-3.9-38.4,15.8-55.2c19.7-16.8,10.6,29.5,4.2,44C1283.6,1283,1272.8,1302.3,1268.4,1283z
			"/>
	</g>
	<g>
		<path class="st9" d="M1735.3,1379.6c3.2,14,3.9,38.4-15.8,55.2c-19.7,16.8-10.6-29.5-4.2-44
			C1720.2,1379.6,1730.9,1360.3,1735.3,1379.6z"/>
		<path class="st9" d="M1728.9,1283c3.2-14,3.9-38.4-15.8-55.2c-19.7-16.8-10.6,29.5-4.2,44C1713.8,1283,1724.5,1302.3,1728.9,1283z
			"/>
	</g>
</g>
<g>
	<path class="st15" d="M1531.3,1542.6h-65.8c-10.5,0-18.6-9.4-17-19.8c20.4-134.1,19.4-270.4-3.2-404.3h106.2
		c-22.5,133.9-23.6,270.2-3.2,404.3C1549.9,1533.3,1541.8,1542.6,1531.3,1542.6z"/>
</g>
<g>
	<path class="st15" d="M1481.6,1039.6c0,0-50.9-11.3-122.2-87.1c-71.3-75.8-152.8,63.4-149.4,114.3c3.4,50.9,139.2,57.7,237.7,54.3"
		/>
	<path class="st15" d="M1515.1,1039.6c0,0,50.9-11.3,122.2-87.1c71.3-75.8,152.8,63.4,149.4,114.3c-3.4,50.9-139.2,57.7-237.7,54.3"
		/>
</g>
<path class="st15" d="M1498.3,1172.2c-24.6-0.2-45.8-6.7-59.5-20.7c-13.9-13.7-20.5-34.9-20.7-59.5c0.2-24.6,6.7-45.8,20.7-59.5
	c13.7-13.9,34.9-20.5,59.5-20.7c24.6,0.2,45.8,6.7,59.5,20.7c13.9,13.7,20.5,34.9,20.7,59.5c-0.2,24.6-6.7,45.8-20.7,59.5
	C1544.1,1165.5,1523,1172,1498.3,1172.2z"/>
<g>
	<path class="st16" d="M1498.3,1152.2c-14.9-0.1-27.7-2.5-36-7.8c-8.4-5.2-12.4-13.1-12.5-22.4c0.1-9.3,4.1-17.3,12.5-22.4
		c8.3-5.3,21.1-7.7,36-7.8c14.9,0.1,27.7,2.5,36,7.8c8.4,5.2,12.4,13.1,12.5,22.4c-0.1,9.3-4.1,17.3-12.5,22.4
		C1526.1,1149.7,1513.3,1152.1,1498.3,1152.2z"/>
	<g>
		<path class="st16" d="M1275.4,1017.9c-7.9-11.2-24.7-10.1-31.2,2c-12.2,23-19.1,49.1,9.8,59.6c38.7,14,94.5,18.4,125.4,19.9
			c4.8,0.2,6.5-6.4,2.1-8.4C1351.6,1077,1297.4,1048.9,1275.4,1017.9z"/>
		<path class="st16" d="M1721.3,1017.9c7.9-11.2,24.7-10.1,31.2,2c12.2,23,19.1,49.1-9.8,59.6c-38.7,14-94.5,18.4-125.4,19.9
			c-4.8,0.2-6.5-6.4-2.1-8.4C1645.1,1077,1699.3,1048.9,1721.3,1017.9z"/>
	</g>
</g>
<g>
	<path class="st12" d="M544.2,662.5c-21-45.9-39-84-26.7-112C528.6,522,570,503.7,619.2,481c49.7-21.6,90.9-40.2,119.5-29.6
		c29.1,9.5,45.5,48.3,65.7,94.6c19.1,46.8,35.5,85.7,23.4,113.9c-11.1,28.7-50.6,46.7-97.9,68.5c-47.8,20.8-87.5,38.3-116.3,27.4
		C584.5,746,566.4,707.9,544.2,662.5z"/>
	<path class="st13" d="M810.3,602.2c-11.9,30.8-54.4,50.2-105.3,73.6c-51.4,22.3-94.1,41.2-125,29.5c-6.1-2.1-11.8-5.3-17.2-9.6
		c15.8,30.5,31.2,54,53,61.3c28.1,10.6,66.9-6.5,113.6-26.8c46.2-21.3,84.8-38.9,95.7-66.9c9.1-21.1,1.8-48.3-10.4-80.4
		C814.2,589.8,812.8,596.2,810.3,602.2z"/>
	<path class="st14" d="M544.2,662.5c-21-45.9-39-84-26.7-112C528.6,522,570,503.7,619.2,481c49.7-21.6,90.9-40.2,119.5-29.6
		c29.1,9.5,45.5,48.3,65.7,94.6c19.1,46.8,35.5,85.7,23.4,113.9c-11.1,28.7-50.6,46.7-97.9,68.5c-47.8,20.8-87.5,38.3-116.3,27.4
		C584.5,746,566.4,707.9,544.2,662.5z"/>
	<g>
		<path class="st15" d="M754.4,728.6l-40.5,18.1c-6.5,2.9-14-0.6-15.9-7.5c-24.4-88.1-62.5-171.7-113.3-247.8l65.3-29.3
			c23,88.6,59.9,172.7,109.4,249.6C763.2,717.7,760.8,725.7,754.4,728.6z"/>
	</g>
	<g>
		<path class="st15" d="M585.3,432.8c0,0-34.4,7.1-99.2-19.9s-76.5,81.1-60.4,111.4c16.1,30.4,101.5-2.8,161.1-32"/>
		<path class="st15" d="M605.9,423.6c0,0,28.2-21,51.2-87.3c23-66.3,111.4-3.1,123.4,29.2c11.9,32.3-69.7,73.8-131.2,98.9"/>
	</g>
	<path class="st15" d="M632.1,509.8c-15.2,6.7-30,8.5-42.3,3.7c-12.4-4.6-22.2-15.8-29.1-30.9c-6.7-15.2-8.5-30-3.7-42.3
		c4.6-12.4,15.8-22.2,30.9-29.1c15.2-6.7,30-8.5,42.3-3.7c12.4,4.6,22.2,15.8,29.1,30.9c6.7,15.2,8.5,30,3.7,42.3
		C658.4,493.1,647.2,502.9,632.1,509.8z"/>
	<g>
		<path class="st16" d="M626.6,497.5c-9.2,4.1-17.8,6.1-24.3,5.1c-6.6-0.9-11.2-4.7-13.9-10.3c-2.5-5.7-2.2-11.7,1.5-17.2
			c3.7-5.5,10.9-10.6,20-14.7c9.2-4.1,17.8-6.1,24.3-5.1c6.6,0.9,11.2,4.7,13.9,10.3c2.5,5.7,2.2,11.7-1.5,17.2
			C643,488.3,635.8,493.4,626.6,497.5z"/>
		<g>
			<path class="st16" d="M452.5,476.3c-7.9-4.7-18,0.6-18.6,9.8c-1.2,17.5,1.8,35.5,22.4,33.9c27.7-2,63.2-14.7,82.6-22.3
				c3-1.2,2.2-5.7-1.1-5.8C515.6,491.7,474.5,489.3,452.5,476.3z"/>
			<path class="st16" d="M726.7,353.5c1.8-9,12.4-13,19.7-7.4c13.9,10.8,25.3,24.9,10.4,39.3c-19.9,19.3-53,37.4-71.7,46.8
				c-2.9,1.5-5.7-2.2-3.6-4.6C696.2,410.8,721.8,378.6,726.7,353.5z"/>
		</g>
	</g>
</g>
<g>
	<path class="st17" d="M2502.7,1031.6c18.7-46.2,34-84.9,62.5-95.1c28-11.2,69.2,6.1,118.8,26.1c49.2,21.1,90.5,38.2,102.3,65.9
		c12.8,27.4-3.9,65.5-23.5,111.3c-20.7,45.4-37.6,83.5-66.1,94c-28.1,11.5-67.9-4.8-115.6-24.1c-47.3-20.3-86.8-37-98.5-65
		C2469.9,1117.1,2485,1078.3,2502.7,1031.6z"/>
	<path class="st18" d="M2726.2,1182.1c-30.2,12.3-73-5.2-124.3-25.9c-50.8-21.8-93.3-39.8-105.9-69.9c-2.7-5.8-4.2-12.1-4.8-18.8
		c-11.3,32-17.7,59-8.2,79.7c11.4,27.4,50,43.7,96.2,63.5c46.6,18.8,85.4,34.7,112.9,23.5c21.3-7.8,36-31.4,50.8-62
		C2737.8,1176.6,2732.2,1179.9,2726.2,1182.1z"/>
	<path class="st19" d="M2502.7,1031.6c18.7-46.2,34-84.9,62.5-95.1c28-11.2,69.2,6.1,118.8,26.1c49.2,21.1,90.5,38.2,102.3,65.9
		c12.8,27.4-3.9,65.5-23.5,111.3c-20.7,45.4-37.6,83.5-66.1,94c-28.1,11.5-67.9-4.8-115.6-24.1c-47.3-20.3-86.8-37-98.5-65
		C2469.9,1117.1,2485,1078.3,2502.7,1031.6z"/>
	<g>
		<path class="st15" d="M2597.4,1227.5l-40.5-16.8c-6.5-2.7-9-10.5-5.4-16.5c46.9-77.2,81.1-161.2,101.5-249.3l65.3,27.2
			c-48.1,76.5-83.6,160-105.4,247.7C2611.2,1226.5,2603.9,1230.2,2597.4,1227.5z"/>
	</g>
	<g>
		<path class="st15" d="M2695.6,905.6c0,0-28.4-20-52.8-84.8c-24.4-64.8-110.1-0.1-121.1,32c-10.9,32.2,70.8,71.1,132.2,94.2"/>
		<path class="st15" d="M2716.2,914.2c0,0,34.2,6.1,97.4-22.3c63.2-28.4,77.7,78,62.6,108.5c-15.1,30.4-100.3-0.1-160-27.4"/>
	</g>
	<path class="st15" d="M2672,991.4c-15.1-6.4-26.4-15.9-31.3-27.9c-5.1-12-3.7-26.7,2.5-41.9c6.4-15.1,15.9-26.4,27.9-31.3
		c12-5.1,26.7-3.7,41.9,2.5c15.1,6.4,26.4,15.9,31.3,27.9c5.1,12,3.7,26.7-2.5,41.9c-6.4,15.1-15.9,26.4-27.9,31.3
		C2701.8,999,2687.1,997.6,2672,991.4z"/>
	<g>
		<path class="st16" d="M2677.1,979.1c-9.2-3.9-16.4-8.7-20.2-14c-3.9-5.3-4.3-11.3-2-17c2.5-5.7,6.9-9.6,13.4-10.6
			c6.5-1.1,15,0.7,24.1,4.4c9.2,3.9,16.4,8.7,20.2,14c3.9,5.3,4.3,11.3,2,17c-2.5,5.7-6.9,9.6-13.4,10.6
			C2694.8,984.7,2686.3,982.9,2677.1,979.1z"/>
		<g>
			<path class="st16" d="M2574.4,839.5c-2-8.9-12.6-12.5-19.7-6.8c-13.4,11-24.3,25.3-9.2,39.1c20.2,18.5,53.4,35.5,72,44.3
				c2.9,1.4,5.6-2.3,3.4-4.7C2606.1,895.4,2580,864.2,2574.4,839.5z"/>
			<path class="st16" d="M2848.4,953.6c7.7-4.8,17.8,0.1,18.7,9.2c1.6,17.3-0.8,35.1-21.3,34.1c-27.4-1.3-62.8-12.8-82.2-19.9
				c-3-1.1-2.3-5.6,0.9-5.7C2786.5,970.5,2827,967.1,2848.4,953.6z"/>
		</g>
	</g>
</g>
<g>
	<path class="st20" d="M206.3,1102.4c36.2-61.4,65.9-112.9,108.3-121.2c41.9-10,96.5,23.2,162.4,61.9
		c65.1,40.2,119.9,73,130.6,114.7c12.4,41.4-19.3,91.7-56.6,152.4c-38.8,59.8-70.7,110.1-113.2,118.8
		c-42.1,10.3-94.9-21.1-158.2-58.3c-62.5-38.6-114.9-70.6-125.5-112.7C141.9,1216.4,171.5,1164.7,206.3,1102.4z"/>
	<path class="st21" d="M490.5,1362.2c-45.3,11-102-22.7-170.1-62.7c-67.2-41.5-123.5-75.9-134.9-121.2c-2.6-8.8-3.4-18-2.8-27.6
		c-22.7,42.8-37.4,79.7-28.4,110.9c10.4,41.1,61.5,72.3,122.6,110.1c61.9,36.4,113.4,67,154.6,57c31.8-6.5,57.5-36.8,84.8-76.9
		C508,1356.8,499.4,1360.4,490.5,1362.2z"/>
	<path class="st22" d="M206.3,1102.4c36.2-61.4,65.9-112.9,108.3-121.2c41.9-10,96.5,23.2,162.4,61.9
		c65.1,40.2,119.9,73,130.6,114.7c12.4,41.4-19.3,91.7-56.6,152.4c-38.8,59.8-70.7,110.1-113.2,118.8
		c-42.1,10.3-94.9-21.1-158.2-58.3c-62.5-38.6-114.9-70.6-125.5-112.7C141.9,1216.4,171.5,1164.7,206.3,1102.4z"/>
	<g>
		<path class="st15" d="M298.9,1399.2l-53.6-32.3c-8.6-5.2-10.6-16.8-4.2-24.5c82.5-99.2,148.6-210.8,195.9-330.9l86.5,52.2
			c-84.1,98-151.9,208.5-201.1,327.8C318.7,1400.7,307.5,1404.4,298.9,1399.2z"/>
	</g>
	<g>
		<path class="st15" d="M505.5,965c0,0-35.9-34.2-56.8-131c-20.8-96.8-155.6-23.4-177.8,19.8c-22.2,43.2,85.1,115.4,166.9,161"/>
		<path class="st15" d="M532.7,981.5c0,0,47,15.8,142.4-11s93.3,126.6,65.6,166.5c-27.8,39.8-141.7-21.3-220.3-72.4"/>
	</g>
	<path class="st15" d="M454,1081.3c-20-12.3-34-28-38.3-46.1c-4.6-18,0.5-38.5,12.4-58.6c12.3-20,28-34,46.1-38.3
		c18-4.6,38.5,0.5,58.6,12.4c20,12.3,34,28,38.3,46.1c4.6,18-0.5,38.5-12.4,58.6c-12.3,20-28,34-46.1,38.3
		C494.6,1098.3,474.2,1093.2,454,1081.3z"/>
	<g>
		<path class="st16" d="M463.8,1065c-12.1-7.4-21.3-15.7-25.5-24c-4.3-8.4-3.6-16.8,0.8-24.4c4.7-7.5,11.8-12.1,21.2-12.1
			c9.4-0.2,21,4.1,33.2,11.4c12.1,7.4,21.3,15.7,25.5,24c4.3,8.4,3.6,16.8-0.8,24.4c-4.7,7.5-11.8,12.1-21.2,12.1
			C487.6,1076.6,476,1072.3,463.8,1065z"/>
		<g>
			<path class="st16" d="M348.2,846.1c-1-13-15.2-20.4-26.3-13.7c-21.3,12.7-39.7,30.6-21.3,53.4c24.6,30.4,67.9,61.4,92.4,77.8
				c3.8,2.6,8.4-2,5.8-5.9C381.2,931.7,350.8,882.2,348.2,846.1z"/>
			<path class="st16" d="M711.4,1065.1c11.9-5.2,25.1,3.9,24.4,16.9c-1.3,24.7-8.6,49.4-37.3,43.7c-38.4-7.6-86-31.4-111.9-45.4
				c-4.1-2.2-2.1-8.4,2.5-7.9C620.3,1075.8,678.2,1079.6,711.4,1065.1z"/>
		</g>
	</g>
</g>
<g>
	<path class="st23" d="M2147,611.1c23-55.4,41.6-101.9,76-113.9c33.8-13.3,83.2,7.9,142.7,32.5c59,25.8,108.6,46.7,122.5,80.2
		c15.2,33-5.3,78.7-29.2,133.8c-25.3,54.5-45.9,100.2-80.4,112.5c-33.9,13.5-81.6-6.4-138.8-29.9c-56.7-24.8-104.1-45.3-117.9-79.1
		C2106.9,713.7,2125.4,667.1,2147,611.1z"/>
	<path class="st24" d="M2414.7,794.1c-36.5,14.6-87.7-6.8-149.3-32.2c-61-26.7-112-48.7-126.8-85.1c-3.2-7-4.9-14.6-5.6-22.7
		c-13.8,38.4-21.8,70.9-10.5,95.8c13.5,33,59.8,53,115.2,77.3c55.9,23,102.5,42.5,135.6,29.2c25.7-9.2,43.6-37.5,61.6-74.1
		C2428.6,787.5,2422,791.5,2414.7,794.1z"/>
	<path class="st25" d="M2147,611.1c23-55.4,41.6-101.9,76-113.9c33.8-13.3,83.2,7.9,142.7,32.5c59,25.8,108.6,46.7,122.5,80.2
		c15.2,33-5.3,78.7-29.2,133.8c-25.3,54.5-45.9,100.2-80.4,112.5c-33.9,13.5-81.6-6.4-138.8-29.9c-56.7-24.8-104.1-45.3-117.9-79.1
		C2106.9,713.7,2125.4,667.1,2147,611.1z"/>
	<g>
		<path class="st15" d="M2259.4,847.6l-48.5-20.6c-7.8-3.3-10.8-12.7-6.4-19.9c57.1-92.5,99-193.3,124.3-299.1l78.3,33.3
			c-58.6,91.7-102,191.8-128.9,297.1C2276,846.5,2267.1,850.9,2259.4,847.6z"/>
	</g>
	<g>
		<path class="st15" d="M2380.3,461.1c0,0-34-24.3-62.8-102.5s-132.5-1.1-145.9,37.5s84.6,86.1,158.2,114.5"/>
		<path class="st15" d="M2404.9,471.6c0,0,41.1,7.6,117.4-26s92.8,94.6,74.3,131.1s-120.7-1-192.2-34.4"/>
	</g>
	<path class="st15" d="M2351.1,564.2c-18.1-7.9-31.6-19.3-37.4-33.9c-6-14.5-4.2-32.1,3.4-50.4c7.9-18.1,19.3-31.6,33.9-37.4
		c14.5-6,32.1-4.2,50.4,3.4c18.1,7.9,31.6,19.3,37.4,33.9c6,14.5,4.2,32.1-3.4,50.4c-7.9,18.1-19.3,31.6-33.9,37.4
		C2386.9,573.5,2369.3,571.7,2351.1,564.2z"/>
	<g>
		<path class="st16" d="M2357.3,549.4c-11-4.7-19.6-10.6-24.1-17c-4.6-6.5-5-13.6-2.2-20.5c3-6.8,8.4-11.4,16.3-12.6
			c7.8-1.3,18,0.9,29,5.5c11,4.7,19.6,10.6,24.1,17c4.6,6.5,5,13.6,2.2,20.5c-3,6.8-8.4,11.4-16.3,12.6
			C2378.6,556.2,2368.4,554,2357.3,549.4z"/>
		<g>
			<path class="st16" d="M2235,380.6c-2.3-10.7-15.1-15.2-23.6-8.3c-16.2,13.1-29.5,30.2-11.4,47c24.1,22.4,63.9,43.2,86.3,53.9
				c3.5,1.7,6.8-2.7,4.2-5.6C2272.7,448,2241.5,410.4,2235,380.6z"/>
			<path class="st16" d="M2563.8,520.2c9.3-5.8,21.4,0.3,22.4,11.2c1.8,20.8-1.3,42.2-25.9,40.8c-32.9-1.8-75.4-16-98.7-24.6
				c-3.6-1.4-2.8-6.7,1.1-6.9C2489.1,539.9,2537.9,536.2,2563.8,520.2z"/>
		</g>
	</g>
</g>
<g>
	<path class="st23" d="M581.5,1851c-25.6-48.6-47.4-89-35.8-120.2c10.4-31.5,54.3-54,106.4-81.6c52.7-26.5,96.4-49.2,128.2-39.4
		c32.2,8.6,52.4,49.8,77.1,98.9c23.6,49.7,43.7,91,32.2,122.4c-10.3,31.8-52.2,53.8-102.3,80.3c-50.7,25.4-92.9,46.8-124.8,36.8
		C630.3,1939.4,608.3,1899,581.5,1851z"/>
	<path class="st24" d="M867.1,1769.5c-11.1,34.2-56.2,57.8-110,86.3c-54.5,27.3-99.9,50.4-134.2,39.6c-6.8-1.9-13.2-5.1-19.3-9.4
		c19,32.2,37.2,56.8,61.3,63.5c31.2,9.8,72.4-11.1,121.9-35.9c48.9-25.9,89.9-47.4,100-78.4c8.6-23.5-0.9-52.6-16.2-86.8
		C870.6,1755.9,869.5,1762.9,867.1,1769.5z"/>
	<path class="st25" d="M581.5,1851c-25.6-48.6-47.4-89-35.8-120.2c10.4-31.5,54.3-54,106.4-81.6c52.7-26.5,96.4-49.2,128.2-39.4
		c32.2,8.6,52.4,49.8,77.1,98.9c23.6,49.7,43.7,91,32.2,122.4c-10.3,31.8-52.2,53.8-102.3,80.3c-50.7,25.4-92.9,46.8-124.8,36.8
		C630.3,1939.4,608.3,1899,581.5,1851z"/>
	<g>
		<path class="st15" d="M813.9,1910.3l-42.9,22.1c-6.9,3.5-15.3,0.1-17.8-7.2c-31.8-94.3-78.3-182.8-138-262.6l69.3-35.7
			c30.3,94.9,75.4,184.1,133.9,264.7C822.9,1897.9,820.8,1906.8,813.9,1910.3z"/>
	</g>
	<g>
		<path class="st15" d="M612.4,1598.9c0,0-37,9.7-109-15.7s-78.3,92.7-59,124.8c19.3,32.1,110.2-9.2,173.2-44.5"/>
		<path class="st15" d="M634.2,1587.7c0,0,29.4-24.5,50.4-97.9c21-73.4,120.9-10,135.8,24.3c14.9,34.4-71.4,84.4-136.7,115.3"/>
	</g>
	<path class="st15" d="M667.9,1679.8c-16.1,8.1-32.1,11-45.8,6.5c-13.7-4.3-25.1-15.9-33.5-31.9c-8.1-16.1-11-32.1-6.5-45.8
		c4.3-13.7,15.9-25.1,31.9-33.5c16.1-8.1,32.1-11,45.8-6.5c13.7,4.3,25.1,15.9,33.5,31.9c8.1,16.1,11,32.1,6.5,45.8
		C695.5,1660,683.9,1671.4,667.9,1679.8z"/>
	<g>
		<path class="st16" d="M661.2,1666.8c-9.8,5-18.9,7.7-26.1,7c-7.2-0.5-12.5-4.4-15.7-10.4c-3-6.1-3.1-12.6,0.6-18.8
			c3.7-6.2,11.2-12.1,20.9-17.2c9.8-5,18.9-7.7,26.1-7c7.2,0.5,12.5,4.4,15.7,10.4c3,6.1,3.1,12.6-0.6,18.8
			C678.4,1655.8,670.9,1661.7,661.2,1666.8z"/>
		<g>
			<path class="st16" d="M470.7,1654.1c-8.9-4.6-19.5,1.7-19.7,11.8c-0.3,19.1,4.1,38.4,26.4,35.5c29.9-3.9,67.8-19.7,88.5-29.2
				c3.2-1.5,2.1-6.3-1.5-6.2C540.2,1667.1,495.4,1667,470.7,1654.1z"/>
			<path class="st16" d="M761.4,1504.2c1.4-9.9,12.7-14.9,21-9.2c15.7,10.9,29,25.6,13.6,42.2c-20.5,22.1-55.4,43.8-75.1,55.1
				c-3.1,1.8-6.4-2-4.2-4.8C731.6,1568.4,757.5,1531.9,761.4,1504.2z"/>
		</g>
	</g>
</g>
<g>
	<path class="st26" d="M1226.9,2518v-89.6h77.8v252h-77.8v-98.3h-138.6v98.3h-77.8v-252h77.8v89.6H1226.9z"/>
	<path class="st26" d="M1398.5,2672.5c-19.6-8.6-34.3-20.2-44.1-34.7c-9.8-14.5-14.8-30.8-14.8-48.8s4.9-34.3,14.8-49
		c9.8-14.6,24.5-26.2,44.1-34.7c19.6-8.5,43.3-12.8,71.1-12.8c27.8,0,51.5,4.3,70.9,12.8c19.4,8.5,34.1,20.1,44.1,34.7
		c10,14.6,14.9,31,14.9,49s-5,34.3-14.9,48.8c-10,14.5-24.7,26.1-44.3,34.7c-19.6,8.6-43.1,13-70.7,13
		C1441.7,2685.4,1418,2681.1,1398.5,2672.5z M1515.3,2619.7c10.6-8,15.8-18.3,15.8-30.8c0-12.2-5.3-22.5-16-30.8
		c-10.7-8.3-25.9-12.4-45.5-12.4c-19.7,0-34.9,4.1-45.5,12.4c-10.7,8.3-16,18.5-16,30.8c0,12.5,5.3,22.7,15.8,30.8
		c10.6,8,25.8,12.1,45.7,12.1C1489.5,2631.8,1504.7,2627.8,1515.3,2619.7z"/>
	<path class="st26" d="M1700.7,2680.4h-68.4v-252h68.4V2680.4z"/>
	<path class="st26" d="M1782.4,2673.4c-15.1-8-26.8-19.4-34.9-34c-8.2-14.6-12.2-31.4-12.2-50.4c0-19,4.1-35.8,12.2-50.4
		c8.2-14.6,19.8-26,34.9-34c15.1-8,32.6-12.1,52.6-12.1c47.3,0,76.9,17.6,88.9,52.9h6.5c-6.5-24-9.7-46.1-9.7-66.2v-50.8h68.8v252
		h-68.8l9.7-47.9h-6.5c-12,35.3-41.6,52.9-88.9,52.9C1815.1,2685.4,1797.5,2681.4,1782.4,2673.4z M1904.5,2619.6
		c10.1-8.2,15.1-18.4,15.1-30.6c0-12.5-5-22.8-15.1-31c-10.1-8.2-24.4-12.2-42.8-12.2c-18.5,0-32.8,4.1-42.8,12.2
		c-10.1,8.2-15.1,18.5-15.1,31c0,12.2,5,22.4,15.1,30.6c10.1,8.2,24.4,12.2,42.8,12.2C1880.1,2631.8,1894.4,2627.7,1904.5,2619.6z"
		/>
</g>
<g>
	<path class="st27" d="M2187.3,1733.9c-22.9-62.8-42.5-115-23.4-150.7c17.7-36.3,74.2-56.1,141.6-80.8
		c67.9-23.2,124.3-43.4,160.9-26.3c37.3,15.7,54.9,68.6,76.7,131.8c20.2,63.7,37.7,116.8,18.7,152.8
		c-17.7,36.6-71.8,56.2-136.5,79.9c-65.2,22.3-119.6,41.2-156.3,23.8C2231.5,1848.4,2211.7,1796.2,2187.3,1733.9z"/>
	<path class="st28" d="M2544.8,1682.7c-19,39.4-77.2,60.4-146.8,85.9c-70.1,24-128.6,44.3-168.1,25.6c-7.9-3.4-15-8.3-21.7-14.4
		c17.5,41.9,35.5,74.6,63.4,86.6c35.9,17,89-1.5,152.7-23.3c63.2-23.2,116.1-42.3,133.3-78c14.2-26.9,7.6-63.6-5.2-107.2
		C2551.3,1666.8,2548.8,1675.1,2544.8,1682.7z"/>
	<path class="st29" d="M2187.3,1733.9c-22.9-62.8-42.5-115-23.4-150.7c17.7-36.3,74.2-56.1,141.6-80.8
		c67.9-23.2,124.3-43.4,160.9-26.3c37.3,15.7,54.9,68.6,76.7,131.8c20.2,63.7,37.7,116.8,18.7,152.8
		c-17.7,36.6-71.8,56.2-136.5,79.9c-65.2,22.3-119.6,41.2-156.3,23.8C2231.5,1848.4,2211.7,1796.2,2187.3,1733.9z"/>
	<g>
		<path class="st15" d="M2457.5,1843.6l-55.4,19.6c-8.9,3.1-18.4-2.3-20.2-11.6c-22.8-118.9-64.2-233.2-123.1-339l89.3-31.6
			c20.9,119.3,60.6,234.2,117.7,340.9C2470.4,1830.1,2466.4,1840.4,2457.5,1843.6z"/>
	</g>
	<g>
		<path class="st15" d="M2266,1435.3c0,0-46.2,5.6-128.7-36.9c-82.5-42.5-109.6,98.8-91.6,140.6s134.2,7.1,216-25.1"/>
		<path class="st15" d="M2294.1,1425.4c0,0,39.5-24.7,76.8-109.7s147.3,7.8,159.7,51.6c12.3,43.8-99.9,90-183.7,116.4"/>
	</g>
	<path class="st15" d="M2319.5,1541.9c-20.8,7.2-40.5,8-56.2,0.3c-15.8-7.4-27.6-23.2-35.1-43.9c-7.2-20.8-8-40.5-0.3-56.2
		c7.4-15.8,23.2-27.6,43.9-35.1c20.8-7.2,40.5-8,56.2-0.3c15.8,7.4,27.6,23.2,35.1,43.9c7.2,20.8,8,40.5,0.3,56.2
		C2356,1522.6,2340.2,1534.4,2319.5,1541.9z"/>
	<g>
		<path class="st16" d="M2313.6,1525.1c-12.6,4.4-24.1,6.1-32.6,4.2c-8.6-1.8-14.3-7.4-17.2-15.1c-2.7-7.8-1.7-15.7,3.8-22.6
			c5.4-6.9,15.5-12.8,28-17.3c12.6-4.4,24.1-6.1,32.6-4.2c8.6,1.8,14.3,7.4,17.2,15.1c2.7,7.8,1.7,15.7-3.8,22.6
			C2336.1,1514.7,2326.1,1520.6,2313.6,1525.1z"/>
		<g>
			<path class="st16" d="M2086.1,1478.5c-10-7-23.8-1.1-25.6,10.9c-3.4,23-1.4,47,26,47.2c36.7,0.3,84.9-12.6,111.4-20.7
				c4.1-1.3,3.5-7.3-0.8-7.7C2167.8,1505.5,2113.8,1498.1,2086.1,1478.5z"/>
			<path class="st16" d="M2461,1345.7c3.3-11.7,17.8-15.9,26.8-7.6c17.1,15.7,30.7,35.6,9.5,53c-28.4,23.3-74,43.6-99.6,54.1
				c-4,1.6-7.3-3.5-4.2-6.5C2414.6,1418.1,2451.8,1378.4,2461,1345.7z"/>
		</g>
	</g>
</g>
</svg>
