<?xml version="1.0" encoding="utf-8"?>
<!-- Generator: Adobe Illustrator 19.0.0, SVG Export Plug-In . SVG Version: 6.00 Build 0)  -->
<svg version="1.1" id="Y_x5F_logotype_x5F_h" xmlns="http://www.w3.org/2000/svg" xmlns:xlink="http://www.w3.org/1999/xlink"
	 x="0px" y="0px" viewBox="0 0 1200 240" style="enable-background:new 0 0 1200 240;" xml:space="preserve">
<style type="text/css">
	.st0{fill:#9829E0;}
</style>
<g id="logo">
	<g id="XMLID_43_">
		<path id="XMLID_73_" class="st0" d="M407.8,86.1v150.6h-32.3v-51.6h-26.3l-30.8,51.6H283l34.6-56.4c-8.9-4-15.9-10-21.1-17.9
			c-5.2-7.9-7.7-16.9-7.7-26.9c0-9.3,2.2-17.8,6.7-25.3c4.4-7.5,10.7-13.4,18.6-17.8c8-4.3,17-6.5,27-6.5H407.8z M375.5,156.1v-40.9
			h-33.4c-6.2,0-11.2,1.9-15.2,5.8c-3.9,3.9-5.9,8.8-5.9,14.6c0,5.9,2,10.8,5.9,14.6c3.9,3.9,9,5.8,15.2,5.8H375.5z"/>
		<path id="XMLID_71_" class="st0" d="M524.8,86.1H559l-51.2,114.5c-5.6,12.3-12.6,21.8-20.9,28.3c-8.3,6.5-18.3,9.8-29.9,9.8
			c-3.7,0-7.1-0.3-10.1-1c-3-0.6-5.4-1.3-7.1-2V207c4.7,1.3,9,1.9,12.7,1.9c6.5,0,11.7-1.5,15.6-4.4c3.9-2.9,7.2-6.9,9.8-11.9
			l0.4-0.6L420.7,86.1H457l37.7,72.5h0.6L524.8,86.1z"/>
		<path id="XMLID_69_" class="st0" d="M576.8,232.4c-10.4-5-18.3-10.8-23.6-17.2l19.6-20.7c4.2,4.3,9.4,8,15.6,11.1
			c6.2,3.1,13.4,4.6,21.4,4.6c8.7,0,15.5-1.8,20.3-5.5c4.8-3.7,7.2-8.1,7.2-13.2c0-5-2.4-9.4-7.1-13.1c-4.7-3.7-11.2-5.6-19.4-5.6
			h-19.4v-28h17.9c7.5,0,13.2-1.5,17.1-4.6c3.9-3.1,5.9-7,5.9-11.7c0-4.6-2-8.4-6-11.5c-4-3.1-9.8-4.6-17.4-4.6
			c-6.2,0-11.9,1.3-17.3,3.9c-5.4,2.6-10.1,5.7-14.3,9.5l-19.4-20.7c6-6,13.7-11.2,22.9-15.6c9.3-4.4,19.5-6.6,30.7-6.6
			c11.5,0,21.3,1.9,29.6,5.6c8.2,3.7,14.5,8.8,18.8,15.1c4.3,6.3,6.5,13.2,6.5,20.7c0,8-2.5,15-7.5,20.9c-5,5.9-10.9,9.9-17.6,12
			c8.2,2.4,15.2,7,21.1,13.6c5.9,6.6,8.8,14.4,8.8,23.5c0,8.2-2.4,15.8-7.1,22.8c-4.7,7-11.6,12.6-20.7,16.8s-19.7,6.2-31.8,6.2
			C598.8,240,587.2,237.5,576.8,232.4z"/>
		<path id="XMLID_51_" class="st0" d="M722.8,236.7h-32.3V86.1h32.3v59.2h64.5V86.1h32.3v150.6h-32.3v-61.3h-64.5V236.7z"/>
		<path id="XMLID_48_" class="st0" d="M864.1,236.7h-33.8l58.5-150.6h35.9l58.3,150.6h-34.2l-12.7-34h-59.6L864.1,236.7z M906.1,119
			l-20,56.4h40.7l-20-56.4H906.1z"/>
		<path id="XMLID_44_" class="st0" d="M1087.1,231.1c-10.8-5.9-19.7-13.8-26.5-23.7c-6.8-9.9-11.2-20.8-13-32.7h-21.5v62h-32.3V86.1
			h32.3v59.6h21.5c1.9-11.2,6.2-21.6,13.1-31.2c6.9-9.6,15.7-17.3,26.5-23c10.8-5.7,22.7-8.6,35.7-8.6c14.2,0,27.2,3.4,38.9,10.3
			c11.8,6.9,21,16.3,27.9,28.3c6.8,12,10.2,25.3,10.2,39.9s-3.4,27.9-10.2,39.9c-6.8,12-16.1,21.4-27.9,28.3
			c-11.8,6.9-24.7,10.3-38.9,10.3C1109.9,240,1098,237,1087.1,231.1z M1145.3,203.9c6.9-4.2,12.3-10.1,16.4-17.5c4-7.5,6-15.8,6-25
			c0-9.3-2-17.7-6-25.2c-4-7.5-9.5-13.3-16.4-17.5c-6.9-4.2-14.3-6.3-22.4-6.3c-8,0-15.5,2.1-22.3,6.3c-6.8,4.2-12.2,10.1-16.2,17.5
			c-4,7.5-6,15.9-6,25.2c0,9.2,2,17.5,6,25c4,7.5,9.4,13.3,16.2,17.5c6.8,4.2,14.2,6.3,22.3,6.3
			C1131,210.3,1138.5,208.2,1145.3,203.9z"/>
	</g>
	<path id="XMLID_36_" class="st0" d="M140.9,0H78.4C35.1,0,0,35.1,0,78.4v23.2C0,144.9,35.1,180,78.4,180h31.9l-61.8,56.8h48.1
		l80.2-75.3L99.6,86.2H51.5l58.8,56h-69c-2,0-3.5-1.6-3.5-3.5V41.3c0-2,1.6-3.5,3.5-3.5H178c2,0,3.5,1.6,3.5,3.5v195.5h37.7V78.4
		C219.3,35.1,184.2,0,140.9,0z"/>
</g>
</svg>
