<?xml version="1.0" encoding="utf-8"?>
<!-- Generator: Adobe Illustrator 19.0.0, SVG Export Plug-In . SVG Version: 6.00 Build 0)  -->
<svg version="1.1" id="Y_x5F_logotype_x5F_h" xmlns="http://www.w3.org/2000/svg" xmlns:xlink="http://www.w3.org/1999/xlink"
	 x="0px" y="0px" viewBox="0 0 1200 511.6" style="enable-background:new 0 0 1200 511.6;" xml:space="preserve">
<style type="text/css">
	.st0{fill:#9829E0;}
	.st1{fill:#FFFFFF;}
</style>
<rect id="bg" class="st0" width="1200" height="511.6"/>
<g id="logo">
	<g id="XMLID_43_">
		<path id="XMLID_73_" class="st1" d="M462.2,231.5v108H439v-37h-18.8l-22.1,37h-25.5l24.8-40.4c-6.4-2.9-11.4-7.1-15.1-12.8
			c-3.7-5.7-5.6-12.1-5.6-19.3c0-6.7,1.6-12.7,4.8-18.1c3.2-5.4,7.6-9.6,13.3-12.7c5.7-3.1,12.2-4.6,19.4-4.6H462.2z M439,281.7
			v-29.3h-23.9c-4.4,0-8,1.4-10.9,4.2c-2.8,2.8-4.2,6.3-4.2,10.5c0,4.2,1.4,7.7,4.2,10.5c2.8,2.8,6.5,4.2,10.9,4.2H439z"/>
		<path id="XMLID_71_" class="st1" d="M546.1,231.5h24.5l-36.7,82.1c-4,8.8-9,15.6-15,20.3c-6,4.7-13.1,7-21.4,7
			c-2.7,0-5.1-0.2-7.3-0.7c-2.2-0.5-3.9-0.9-5.1-1.5v-20.5c3.4,0.9,6.4,1.4,9.1,1.4c4.6,0,8.4-1.1,11.2-3.2c2.8-2.1,5.2-5,7-8.6
			l0.3-0.5l-41.3-75.9h26.1l27,52h0.5L546.1,231.5z"/>
		<path id="XMLID_69_" class="st1" d="M583.3,336.4c-7.5-3.6-13.1-7.7-16.9-12.3l14-14.8c3,3.1,6.7,5.7,11.2,7.9
			c4.5,2.2,9.6,3.3,15.4,3.3c6.3,0,11.1-1.3,14.6-3.9c3.4-2.6,5.2-5.8,5.2-9.5c0-3.6-1.7-6.7-5.1-9.4c-3.4-2.7-8-4-13.9-4h-13.9
			v-20.1h12.8c5.3,0,9.4-1.1,12.3-3.3c2.8-2.2,4.2-5,4.2-8.4c0-3.3-1.4-6-4.3-8.3c-2.9-2.2-7-3.3-12.5-3.3c-4.4,0-8.6,0.9-12.4,2.8
			c-3.9,1.9-7.3,4.1-10.3,6.8l-13.9-14.8c4.3-4.3,9.8-8,16.4-11.2c6.6-3.1,14-4.7,22-4.7c8.2,0,15.3,1.3,21.2,4
			c5.9,2.7,10.4,6.3,13.5,10.8c3.1,4.5,4.6,9.5,4.6,14.8c0,5.8-1.8,10.7-5.4,15c-3.6,4.2-7.8,7.1-12.7,8.6c5.9,1.8,10.9,5,15.1,9.7
			c4.2,4.7,6.3,10.3,6.3,16.8c0,5.9-1.7,11.3-5.1,16.4c-3.4,5-8.3,9.1-14.8,12c-6.5,3-14.1,4.5-22.8,4.5
			C599.1,341.8,590.8,340,583.3,336.4z"/>
		<path id="XMLID_51_" class="st1" d="M688,339.5h-23.1v-108H688v42.4h46.3v-42.4h23.1v108h-23.1v-44H688V339.5z"/>
		<path id="XMLID_48_" class="st1" d="M789.4,339.5h-24.2l42-108h25.8l41.8,108h-24.5l-9.1-24.4h-42.7L789.4,339.5z M819.5,255.1
			l-14.3,40.4h29.2l-14.3-40.4H819.5z"/>
		<path id="XMLID_44_" class="st1" d="M949.3,335.5c-7.8-4.2-14.1-9.9-19-17c-4.9-7.1-8-14.9-9.3-23.5h-15.4v44.4h-23.1v-108h23.1
			v42.7H921c1.3-8,4.5-15.5,9.4-22.4c4.9-6.9,11.3-12.4,19-16.5c7.7-4.1,16.3-6.2,25.6-6.2c10.2,0,19.5,2.5,27.9,7.4
			c8.4,4.9,15.1,11.7,20,20.3c4.9,8.6,7.3,18.1,7.3,28.6c0,10.5-2.4,20-7.3,28.6c-4.9,8.6-11.5,15.4-20,20.3
			c-8.4,4.9-17.7,7.4-27.9,7.4C965.6,341.8,957.1,339.7,949.3,335.5z M991.1,316c4.9-3,8.8-7.2,11.7-12.6c2.9-5.3,4.3-11.3,4.3-17.9
			c0-6.7-1.4-12.7-4.3-18.1c-2.9-5.3-6.8-9.5-11.7-12.6c-4.9-3-10.3-4.6-16-4.6c-5.8,0-11.1,1.5-16,4.6c-4.9,3-8.8,7.2-11.6,12.6
			c-2.9,5.3-4.3,11.4-4.3,18.1c0,6.6,1.4,12.6,4.3,17.9c2.9,5.3,6.8,9.5,11.6,12.6c4.9,3,10.2,4.6,16,4.6
			C980.8,320.5,986.1,319,991.1,316z"/>
	</g>
	<path id="XMLID_36_" class="st1" d="M270.8,169.8H226c-31,0-56.2,25.2-56.2,56.2v16.6c0,31,25.2,56.2,56.2,56.2h22.9l-44.3,40.7
		h34.5l57.5-54l-55.4-54h-34.5l42.2,40.2h-49.5c-1.4,0-2.5-1.1-2.5-2.5v-69.9c0-1.4,1.1-2.5,2.5-2.5h98.1c1.4,0,2.5,1.1,2.5,2.5
		v140.2h27V226C327,194.9,301.8,169.8,270.8,169.8z"/>
</g>
</svg>
