<?xml version="1.0" encoding="utf-8"?>
<!-- Generator: Adobe Illustrator 19.0.0, SVG Export Plug-In . SVG Version: 6.00 Build 0)  -->
<svg version="1.1" id="Y_x5F_logotype_x5F_v" xmlns="http://www.w3.org/2000/svg" xmlns:xlink="http://www.w3.org/1999/xlink"
	 x="0px" y="0px" viewBox="0 0 1200 1200" style="enable-background:new 0 0 1200 1200;" xml:space="preserve">
<style type="text/css">
	.st0{opacity:0;fill:#FFFFFF;}
	.st1{fill:#9829E0;}
</style>
<rect id="bg" x="0" y="0" class="st0" width="1200" height="1200"/>
<g id="logo">
	<g id="XMLID_149_">
		<path id="XMLID_166_" class="st1" d="M670.7,267.9H529.3c-98,0-177.4,79.4-177.4,177.4v52.5c0,98,79.4,177.4,177.4,177.4h72.3
			l-140,128.5h109l181.5-170.3L577.3,463.1h-109l133.1,126.8H445.2c-4.4,0-8-3.6-8-8V361.3c0-4.4,3.6-8,8-8h309.5c4.4,0,8,3.6,8,8
			v442.5h85.4V445.4C848.1,347.4,768.7,267.9,670.7,267.9z"/>
		<g id="XMLID_150_">
			<path id="XMLID_163_" class="st1" d="M415.3,846.9v83.4h-17.9v-28.6h-14.5l-17,28.6h-19.7l19.2-31.2c-4.9-2.2-8.8-5.5-11.7-9.9
				c-2.9-4.4-4.3-9.3-4.3-14.9c0-5.2,1.2-9.8,3.7-14c2.5-4.2,5.9-7.4,10.3-9.8c4.4-2.4,9.4-3.6,14.9-3.6H415.3z M397.4,885.6V863
				h-18.5c-3.4,0-6.2,1.1-8.4,3.2c-2.2,2.1-3.3,4.8-3.3,8.1c0,3.3,1.1,6,3.3,8.1c2.2,2.1,5,3.2,8.4,3.2H397.4z"/>
			<path id="XMLID_161_" class="st1" d="M480.1,846.9H499l-28.3,63.4c-3.1,6.8-6.9,12-11.6,15.7c-4.6,3.6-10.1,5.4-16.6,5.4
				c-2.1,0-3.9-0.2-5.6-0.5c-1.7-0.4-3-0.7-3.9-1.1v-15.8c2.6,0.7,5,1.1,7,1.1c3.6,0,6.5-0.8,8.6-2.4c2.2-1.6,4-3.8,5.4-6.6l0.2-0.4
				l-31.9-58.6h20.1l20.8,40.1h0.4L480.1,846.9z"/>
			<path id="XMLID_159_" class="st1" d="M508.8,927.9c-5.8-2.8-10.1-6-13-9.5l10.8-11.4c2.3,2.4,5.2,4.4,8.6,6.1
				c3.5,1.7,7.4,2.6,11.9,2.6c4.8,0,8.6-1,11.3-3c2.7-2,4-4.5,4-7.3c0-2.8-1.3-5.2-3.9-7.3c-2.6-2.1-6.2-3.1-10.7-3.1H517v-15.5h9.9
				c4.1,0,7.3-0.9,9.5-2.6c2.2-1.7,3.3-3.9,3.3-6.5c0-2.5-1.1-4.7-3.3-6.4c-2.2-1.7-5.4-2.6-9.6-2.6c-3.4,0-6.6,0.7-9.6,2.1
				c-3,1.4-5.6,3.2-7.9,5.2l-10.7-11.4c3.3-3.3,7.6-6.2,12.7-8.6c5.1-2.4,10.8-3.6,17-3.6c6.4,0,11.8,1,16.4,3.1
				c4.6,2.1,8,4.8,10.4,8.3c2.4,3.5,3.6,7.3,3.6,11.4c0,4.4-1.4,8.3-4.2,11.6c-2.8,3.3-6,5.5-9.8,6.7c4.5,1.4,8.4,3.9,11.7,7.5
				c3.3,3.7,4.9,8,4.9,13c0,4.5-1.3,8.7-3.9,12.6c-2.6,3.9-6.4,7-11.4,9.3c-5,2.3-10.9,3.5-17.6,3.5
				C521,932.1,514.6,930.7,508.8,927.9z"/>
			<path id="XMLID_157_" class="st1" d="M589.6,930.3h-17.9v-83.4h17.9v32.8h35.7v-32.8h17.9v83.4h-17.9v-33.9h-35.7V930.3z"/>
			<path id="XMLID_154_" class="st1" d="M667.9,930.3h-18.7l32.4-83.4h19.9l32.3,83.4h-18.9l-7-18.8h-33L667.9,930.3z M691.1,865.1
				L680,896.3h22.5l-11.1-31.2H691.1z"/>
			<path id="XMLID_151_" class="st1" d="M791.3,927.2c-6-3.3-10.9-7.6-14.7-13.1c-3.8-5.5-6.2-11.5-7.2-18.1h-11.9v34.3h-17.9v-83.4
				h17.9v33h11.9c1-6.2,3.5-11.9,7.3-17.3c3.8-5.3,8.7-9.6,14.7-12.7c6-3.2,12.5-4.8,19.8-4.8c7.9,0,15,1.9,21.6,5.7
				c6.5,3.8,11.7,9,15.4,15.7c3.8,6.6,5.7,14,5.7,22.1s-1.9,15.5-5.7,22.1c-3.8,6.6-8.9,11.9-15.4,15.7c-6.5,3.8-13.7,5.7-21.6,5.7
				C804,932.1,797.3,930.4,791.3,927.2z M823.6,912.1c3.8-2.3,6.8-5.6,9.1-9.7c2.2-4.1,3.3-8.7,3.3-13.8c0-5.2-1.1-9.8-3.3-13.9
				c-2.2-4.1-5.2-7.4-9.1-9.7c-3.8-2.3-7.9-3.5-12.4-3.5c-4.4,0-8.6,1.2-12.3,3.5c-3.8,2.3-6.8,5.6-9,9.7c-2.2,4.1-3.3,8.8-3.3,13.9
				c0,5.1,1.1,9.7,3.3,13.8c2.2,4.1,5.2,7.4,9,9.7c3.8,2.3,7.9,3.5,12.3,3.5C815.6,915.6,819.8,914.5,823.6,912.1z"/>
		</g>
	</g>
</g>
</svg>
