<?xml version="1.0" encoding="utf-8"?>
<!-- Generator: Adobe Illustrator 19.0.0, SVG Export Plug-In . SVG Version: 6.00 Build 0)  -->
<svg version="1.1" id="Y_x5F_symbol" xmlns="http://www.w3.org/2000/svg" xmlns:xlink="http://www.w3.org/1999/xlink" x="0px"
	 y="0px" viewBox="0 0 1200 1200" style="enable-background:new 0 0 1200 1200;" xml:space="preserve">
<style type="text/css">
	.st0{opacity:0;fill:#FFFFFF;}
	.st1{fill:#9829E0;}
</style>
<rect id="bg" x="0" y="0" class="st0" width="1200" height="1200"/>
<path id="symbol" class="st1" d="M699.7,222.1H500.3C362,222.1,250,334.1,250,472.4v74c0,138.2,112,250.3,250.3,250.3h102
	L404.8,977.9h153.7l256-240.3L568,497.4H414.3L602,676.2H381.7c-6.2,0-11.3-5.1-11.3-11.3V353.8c0-6.2,5.1-11.3,11.3-11.3h436.6
	c6.2,0,11.3,5.1,11.3,11.3v624.1H950V472.4C950,334.1,838,222.1,699.7,222.1z"/>
</svg>
