<?xml version="1.0" encoding="utf-8"?>
<!-- Generator: Adobe Illustrator 22.0.0, SVG Export Plug-In . SVG Version: 6.00 Build 0)  -->
<svg version="1.1" id="logotype" xmlns="http://www.w3.org/2000/svg" xmlns:xlink="http://www.w3.org/1999/xlink" x="0px" y="0px"
	 viewBox="0 0 400 400" style="enable-background:new 0 0 400 400;" xml:space="preserve">
<style type="text/css">
	.st0{fill:#FAF2C4;}
	.st1{fill:#D69600;}
</style>
<rect class="st0" width="400" height="400"/>
<g>
	<g>
		<g>
			<path class="st1" d="M162.5,229.5v-6.9h3.8c3.2,0,4.4-0.6,5.4-2.9l0.6-1.5l-14.5-26.3h8.8l9.6,18l8-18h8.3l-13.8,30
				c-2.7,5.9-5.9,7.8-10.3,7.8h-5.9C162.5,229.7,162.5,229.5,162.5,229.5z"/>
		</g>
		<g>
			<path class="st1" d="M192,217.4h7.9c0.4,4.1,3,6,7.5,6c4,0,6.6-1.8,6.6-5.1c0-3.2-2.2-4.7-6.7-4.7H203v-6.3h3.9
				c4.4,0,6.4-1.8,6.4-4.8s-2.4-4.6-6.2-4.6c-4.2,0-6.6,2.2-7.1,5.7h-7.8c0.5-7.1,6-12.1,15-12.1c8.8,0,14.2,3.8,14.2,10.3
				c0,4.6-2.7,7.2-6.4,8.2c3.8,1,7.2,3.6,7.2,8.7c0,6.9-5.9,11-15,11C197.6,229.8,192.4,225.6,192,217.4z"/>
		</g>
		<g>
			<polygon class="st1" points="226.3,191.8 234.4,191.8 234.4,206.9 249.4,206.9 249.4,191.8 257.5,191.8 257.5,229.5 249.4,229.5 
				249.4,213.9 234.4,213.9 234.4,229.5 226.3,229.5 			"/>
		</g>
		<g>
			<path class="st1" d="M259.9,229.5l13.8-37.7h9.7l13.7,37.7h-8.7l-2.9-8.2h-14.3l-2.9,8.2H259.9z M273.3,214.7h10l-5-14.3
				L273.3,214.7z"/>
		</g>
		<g>
			<path class="st1" d="M350,210.6c0,11-7.4,19.2-18.4,19.2c-9.9,0-16.8-6.6-18.2-15.9h-5.7v15.6h-8.1v-37.7h8.1V207h5.8
				c1.5-9.1,8.3-15.6,18.1-15.6C342.6,191.5,350,199.7,350,210.6z M341.7,210.6c0-7.1-3.9-12.3-10.1-12.3s-10.1,5.2-10.1,12.3
				c0,7.1,3.9,12.3,10.1,12.3C337.8,223,341.7,217.7,341.7,210.6z"/>
		</g>
		<g>
			<g>
				<path class="st1" d="M139,191.8c-8.3,0-13.9,5-13.9,12.4c0,5.3,2.7,9.4,7.3,11.2c0,0,2.5,1.2,6.6,1.2h8.4v12.8h8.1v-37.6H139z
					 M139.5,209.9c-3.8,0-6.2-2.2-6.2-5.7s2.4-5.7,6.2-5.7h7.9v11.4C147.4,209.9,139.5,209.9,139.5,209.9z"/>
			</g>
			<g>
				<polygon class="st1" points="146.3,210.6 137.6,210.6 123.9,229.5 133.4,229.5 				"/>
			</g>
		</g>
	</g>
	<g id="_x3C_Groupsymbol_x3E__3_">
		<g>
			<g>
				<path class="st1" d="M87.4,170.2H69.3c-10.7,0-19.3,8.6-19.3,19.3v6.5c0,10.6,8.6,19.3,19.3,19.3h18.4v-9.1H63
					c-2,0-3.7-1.7-3.7-3.7v-19.3c0-2,1.7-3.7,3.7-3.7h30.8c2,0,3.7,1.7,3.7,3.7v46.3h9.2v-40C106.7,178.8,98.1,170.2,87.4,170.2z"/>
			</g>
		</g>
		<g>
			<polygon class="st1" points="75.8,191.8 64.3,191.8 83.9,210.7 64.4,229.5 76,229.5 94.8,210.7 			"/>
		</g>
	</g>
</g>
</svg>
