<?xml version="1.0" encoding="utf-8"?>
<!-- Generator: Adobe Illustrator 22.0.0, SVG Export Plug-In . SVG Version: 6.00 Build 0)  -->
<svg version="1.1" id="symbol" xmlns="http://www.w3.org/2000/svg" xmlns:xlink="http://www.w3.org/1999/xlink" x="0px" y="0px"
	 viewBox="0 0 300 313.8" style="enable-background:new 0 0 300 313.8;" xml:space="preserve">
<style type="text/css">
	.st0{fill:#FFFFFF;}
</style>
<g id="_x3C_Groupsymbol_x3E__3_">
	<g>
		<g>
			<path class="st0" d="M197.9,0h-95.8C45.5,0,0,45.5,0,102.1v34.4c0,56.1,45.5,102.1,102.1,102.1h97.4v-48.1H68.8
				c-10.6,0-19.6-9-19.6-19.6V68.8c0-10.6,9-19.6,19.6-19.6h163c10.6,0,19.6,9,19.6,19.6v245H300V102.1C300,45.5,254.5,0,197.9,0z"
				/>
		</g>
	</g>
	<g>
		<polygon class="st0" points="136.5,114.3 75.7,114.3 179.4,214.3 76.2,313.8 137.6,313.8 237,214.3 		"/>
	</g>
</g>
</svg>
