<?xml version="1.0" encoding="utf-8"?>
<!-- Generator: Adobe Illustrator 22.0.0, SVG Export Plug-In . SVG Version: 6.00 Build 0)  -->
<svg version="1.1" id="logotype" xmlns="http://www.w3.org/2000/svg" xmlns:xlink="http://www.w3.org/1999/xlink" x="0px" y="0px"
	 viewBox="0 0 418.6 178.2" style="enable-background:new 0 0 418.6 178.2;" xml:space="preserve">
<style type="text/css">
	.st0{opacity:0;fill:#FFFFFF;}
	.st1{fill:#B70B39;}
</style>
<rect class="st0" width="418.6" height="178.2"/>
<g>
	<g>
		<g>
			<path class="st1" d="M171.8,118.6v-6.9h3.8c3.2,0,4.4-0.6,5.4-2.9l0.6-1.5L167.1,81h8.8l9.6,18l8-18h8.3L188,111
				c-2.7,5.9-5.9,7.8-10.3,7.8h-5.9V118.6z"/>
		</g>
		<g>
			<path class="st1" d="M201.3,106.5h7.9c0.4,4.1,3,6,7.5,6c4,0,6.6-1.8,6.6-5.1c0-3.2-2.2-4.7-6.7-4.7h-4.3v-6.3h3.9
				c4.4,0,6.4-1.8,6.4-4.8s-2.4-4.6-6.2-4.6c-4.2,0-6.6,2.2-7.1,5.7h-7.8c0.5-7.1,6-12.1,15-12.1c8.8,0,14.2,3.8,14.2,10.3
				c0,4.6-2.7,7.2-6.4,8.2c3.8,1,7.2,3.6,7.2,8.7c0,6.9-5.9,11-15,11C206.9,118.9,201.7,114.7,201.3,106.5z"/>
		</g>
		<g>
			<polygon class="st1" points="235.6,80.9 243.7,80.9 243.7,96 258.7,96 258.7,80.9 266.8,80.9 266.8,118.6 258.7,118.6 258.7,103 
				243.7,103 243.7,118.6 235.6,118.6 			"/>
		</g>
		<g>
			<path class="st1" d="M269.2,118.6L283,80.9h9.7l13.7,37.7h-8.7l-2.9-8.2h-14.3l-2.9,8.2C277.6,118.6,269.2,118.6,269.2,118.6z
				 M282.6,103.8h10l-5-14.3L282.6,103.8z"/>
		</g>
		<g>
			<path class="st1" d="M359.3,99.7c0,11-7.4,19.2-18.4,19.2c-9.9,0-16.8-6.6-18.2-15.9H317v15.6h-8.1V80.9h8.1v15.2h5.8
				c1.5-9.1,8.3-15.6,18.1-15.6C351.9,80.6,359.3,88.8,359.3,99.7z M351,99.7c0-7.1-3.9-12.3-10.1-12.3s-10.1,5.2-10.1,12.3
				s3.9,12.3,10.1,12.3C347.1,112.1,351,106.8,351,99.7z"/>
		</g>
		<g>
			<g>
				<path class="st1" d="M148.3,80.9c-8.3,0-13.9,5-13.9,12.4c0,5.3,2.7,9.4,7.3,11.2c0,0,2.5,1.2,6.6,1.2h8.4v12.8h8.1V80.9H148.3
					L148.3,80.9z M148.8,99c-3.8,0-6.2-2.2-6.2-5.7s2.4-5.7,6.2-5.7h7.9V99H148.8z"/>
			</g>
			<g>
				<polygon class="st1" points="155.6,99.7 146.9,99.7 133.2,118.6 142.7,118.6 				"/>
			</g>
		</g>
	</g>
	<g id="_x3C_Groupsymbol_x3E__3_">
		<g>
			<g>
				<path class="st1" d="M96.7,59.3H78.6c-10.7,0-19.3,8.6-19.3,19.3v6.5c0,10.6,8.6,19.3,19.3,19.3H97v-9.1H72.3
					c-2,0-3.7-1.7-3.7-3.7V72.3c0-2,1.7-3.7,3.7-3.7h30.8c2,0,3.7,1.7,3.7,3.7v46.3h9.2v-40C116,67.9,107.4,59.3,96.7,59.3z"/>
			</g>
		</g>
		<g>
			<polygon class="st1" points="85.1,80.9 73.6,80.9 93.2,99.8 73.7,118.6 85.3,118.6 104.1,99.8 			"/>
		</g>
	</g>
</g>
</svg>
