<?xml version="1.0" encoding="utf-8"?>
<!-- Generator: Adobe Illustrator 22.0.0, SVG Export Plug-In . SVG Version: 6.00 Build 0)  -->
<svg version="1.1" id="logotype" xmlns="http://www.w3.org/2000/svg" xmlns:xlink="http://www.w3.org/1999/xlink" x="0px" y="0px"
	 viewBox="0 0 400 400" style="enable-background:new 0 0 400 400;" xml:space="preserve">
<style type="text/css">
	.st0{fill:#B5E3FF;}
	.st1{fill:#003894;}
</style>
<rect class="st0" width="400" height="400"/>
<g>
	<g id="_x3C_Groupsymbol_x3E__7_">
		<g>
			<path class="st1" d="M223.3,123.8h-46.6c-27.4,0-49.5,22.2-49.5,49.5v16.8c0,27.4,22.2,49.5,49.5,49.5h47.4v-23.5h-63.6
				c-5.3,0-9.5-4.3-9.5-9.5v-49.6c0-5.3,4.3-9.5,9.5-9.5h79.1c5.3,0,9.5,4.3,9.5,9.5v119.1h23.8V173.3
				C272.9,146,250.7,123.8,223.3,123.8z"/>
		</g>
		<polygon class="st1" points="193.5,179.2 163.8,179.2 214.3,227.9 164.2,276.2 193.9,276.2 242.2,227.9 		"/>
	</g>
</g>
</svg>
