<?xml version="1.0" encoding="utf-8"?>
<!-- Generator: Adobe Illustrator 22.0.0, SVG Export Plug-In . SVG Version: 6.00 Build 0)  -->
<svg version="1.1" id="logotype" xmlns="http://www.w3.org/2000/svg" xmlns:xlink="http://www.w3.org/1999/xlink" x="0px" y="0px"
	 viewBox="0 0 300 300" style="enable-background:new 0 0 300 300;" xml:space="preserve">
<style type="text/css">
	.st0{fill:#FFFFFF;}
	.st1{fill:#003894;}
</style>
<rect class="st0" width="300" height="300"/>
<g>
	<g id="_x3C_Groupsymbol_x3E__7_">
		<g>
			<path class="st1" d="M173.3,73.8h-46.6c-27.4,0-49.5,22.2-49.5,49.5v16.8c0,27.4,22.2,49.5,49.5,49.5h47.4v-23.5h-63.6
				c-5.3,0-9.5-4.3-9.5-9.5v-49.6c0-5.3,4.3-9.5,9.5-9.5h79.1c5.3,0,9.5,4.3,9.5,9.5v119.1h23.8V123.3
				C222.9,96,200.7,73.8,173.3,73.8z"/>
		</g>
		<polygon class="st1" points="143.5,129.2 113.8,129.2 164.3,177.9 114.2,226.2 143.9,226.2 192.2,177.9 		"/>
	</g>
</g>
</svg>
