<?xml version="1.0" encoding="utf-8"?>
<!-- Generator: Adobe Illustrator 22.0.0, SVG Export Plug-In . SVG Version: 6.00 Build 0)  -->
<svg version="1.1" id="logotype" xmlns="http://www.w3.org/2000/svg" xmlns:xlink="http://www.w3.org/1999/xlink" x="0px" y="0px"
	 viewBox="0 0 150 188.5" style="enable-background:new 0 0 150 188.5;" xml:space="preserve">
<style type="text/css">
	.st0{fill:#4A9912;}
</style>
<g>
	<g>
		<path class="st0" d="M25.6,188.2v-4.6h2.6c2.1,0,2.9-0.4,3.6-1.9l0.4-1l-9.6-17.5h5.9l6.4,11.9l5.3-11.9h5.5l-9.2,19.9
			c-1.8,3.9-3.9,5.1-6.8,5.1H25.6z"/>
		<path class="st0" d="M45.2,180.2h5.3c0.3,2.8,2,4,5,4c2.6,0,4.4-1.2,4.4-3.4c0-2.1-1.4-3.1-4.4-3.1h-2.9v-4.2H55
			c2.9,0,4.3-1.2,4.3-3.2c0-2-1.6-3.1-4.1-3.1c-2.8,0-4.4,1.4-4.7,3.8h-5.1c0.3-4.7,4-8,10-8c5.9,0,9.4,2.5,9.4,6.9
			c0,3.1-1.8,4.8-4.3,5.5c2.5,0.6,4.8,2.4,4.8,5.8c0,4.6-3.9,7.3-10,7.3C48.9,188.5,45.4,185.7,45.2,180.2z"/>
		<path class="st0" d="M67.9,163.2h5.4v10h9.9v-10h5.4v25h-5.4v-10.3h-9.9v10.3h-5.4V163.2z"/>
		<path class="st0" d="M90.2,188.2l9.2-25h6.4l9.1,25h-5.8l-1.9-5.5h-9.5l-1.9,5.5H90.2z M99.1,178.5h6.6l-3.3-9.5L99.1,178.5z"/>
		<path class="st0" d="M150,175.7c0,7.3-4.9,12.7-12.2,12.7c-6.5,0-11.2-4.4-12-10.5h-3.8v10.3h-5.4v-25h5.4v10.1h3.8
			c1-6,5.5-10.3,12-10.3C145.1,163,150,168.4,150,175.7z M144.5,175.7c0-4.7-2.6-8.2-6.7-8.2c-4.1,0-6.7,3.5-6.7,8.2
			c0,4.7,2.6,8.2,6.7,8.2C141.9,183.9,144.5,180.5,144.5,175.7z"/>
		<g>
			<path class="st0" d="M10,163.2c-5.5,0-9.2,3.3-9.2,8.3c0,3.5,1.8,6.2,4.9,7.5c0,0,1.7,0.8,4.3,0.8l5.6,0v8.5h5.4v-25H10z
				 M10.3,175.3c-2.5,0-4.1-1.5-4.1-3.8c0-2.3,1.6-3.8,4.1-3.8h5.2v7.6H10.3z"/>
			<polygon class="st0" points="14.8,175.7 9.1,175.7 0,188.2 6.3,188.2 			"/>
		</g>
	</g>
	<g id="_x3C_Groupsymbol_x3E__7_">
		<g>
			<path class="st0" d="M98.3,0H51.7C24.3,0,2.1,22.2,2.1,49.5v16.8c0,27.4,22.2,49.5,49.5,49.5h47.4V92.4H35.4
				c-5.3,0-9.5-4.3-9.5-9.5V33.3c0-5.3,4.3-9.5,9.5-9.5h79.1c5.3,0,9.5,4.3,9.5,9.5v119.1h23.8V49.5C147.9,22.2,125.7,0,98.3,0z"/>
		</g>
		<polygon class="st0" points="68.5,55.5 38.8,55.5 89.3,104.2 39.2,152.4 68.9,152.4 117.2,104.2 		"/>
	</g>
</g>
</svg>
