<?xml version="1.0" encoding="utf-8"?>
<!-- Generator: Adobe Illustrator 22.0.0, SVG Export Plug-In . SVG Version: 6.00 Build 0)  -->
<svg version="1.1" id="logotype" xmlns="http://www.w3.org/2000/svg" xmlns:xlink="http://www.w3.org/1999/xlink" x="0px" y="0px"
	 viewBox="0 0 400 400" style="enable-background:new 0 0 400 400;" xml:space="preserve">
<style type="text/css">
	.st0{fill:#CFFCC7;}
	.st1{fill:#4A9912;}
</style>
<rect class="st0" width="400" height="400"/>
<g>
	<g>
		<path class="st1" d="M150.6,294v-4.6h2.6c2.1,0,2.9-0.4,3.6-1.9l0.4-1l-9.6-17.5h5.9l6.4,11.9l5.3-11.9h5.5l-9.2,19.9
			c-1.8,3.9-3.9,5.1-6.8,5.1H150.6z"/>
		<path class="st1" d="M170.2,286h5.3c0.3,2.8,2,4,5,4c2.6,0,4.4-1.2,4.4-3.4c0-2.1-1.4-3.1-4.4-3.1h-2.9v-4.2h2.6
			c2.9,0,4.3-1.2,4.3-3.2c0-2-1.6-3.1-4.1-3.1c-2.8,0-4.4,1.4-4.7,3.8h-5.1c0.3-4.7,4-8,10-8c5.9,0,9.4,2.5,9.4,6.9
			c0,3.1-1.8,4.8-4.3,5.5c2.5,0.6,4.8,2.4,4.8,5.8c0,4.6-3.9,7.3-10,7.3C173.9,294.2,170.4,291.4,170.2,286z"/>
		<path class="st1" d="M192.9,269h5.4v10h9.9v-10h5.4v25h-5.4v-10.3h-9.9V294h-5.4V269z"/>
		<path class="st1" d="M215.2,294l9.2-25h6.4l9.1,25h-5.8l-1.9-5.5h-9.5l-1.9,5.5H215.2z M224.1,284.2h6.6l-3.3-9.5L224.1,284.2z"/>
		<path class="st1" d="M275,281.5c0,7.3-4.9,12.7-12.2,12.7c-6.5,0-11.2-4.4-12-10.5h-3.8V294h-5.4v-25h5.4v10.1h3.8
			c1-6,5.5-10.3,12-10.3C270.1,268.8,275,274.2,275,281.5z M269.5,281.5c0-4.7-2.6-8.2-6.7-8.2c-4.1,0-6.7,3.5-6.7,8.2
			c0,4.7,2.6,8.2,6.7,8.2C266.9,289.7,269.5,286.2,269.5,281.5z"/>
		<g>
			<path class="st1" d="M135,269c-5.5,0-9.2,3.3-9.2,8.3c0,3.5,1.8,6.2,4.9,7.5c0,0,1.7,0.8,4.3,0.8l5.6,0v8.5h5.4v-25H135z
				 M135.3,281c-2.5,0-4.1-1.5-4.1-3.8c0-2.3,1.6-3.8,4.1-3.8h5.2v7.6H135.3z"/>
			<polygon class="st1" points="139.8,281.5 134.1,281.5 125,294 131.3,294 			"/>
		</g>
	</g>
	<g id="_x3C_Groupsymbol_x3E__7_">
		<g>
			<path class="st1" d="M223.3,105.8h-46.6c-27.4,0-49.5,22.2-49.5,49.5v16.8c0,27.4,22.2,49.5,49.5,49.5h47.4v-23.5h-63.6
				c-5.3,0-9.5-4.3-9.5-9.5v-49.6c0-5.3,4.3-9.5,9.5-9.5h79.1c5.3,0,9.5,4.3,9.5,9.5v119.1h23.8V155.3
				C272.9,128,250.7,105.8,223.3,105.8z"/>
		</g>
		<polygon class="st1" points="193.5,161.2 163.8,161.2 214.3,209.9 164.2,258.2 193.9,258.2 242.2,209.9 		"/>
	</g>
</g>
</svg>
