<?xml version="1.0" encoding="utf-8"?>
<!-- Generator: Adobe Illustrator 22.0.0, SVG Export Plug-In . SVG Version: 6.00 Build 0)  -->
<svg version="1.1" id="logotype" xmlns="http://www.w3.org/2000/svg" xmlns:xlink="http://www.w3.org/1999/xlink" x="0px" y="0px"
	 viewBox="0 0 145.7 152.4" style="enable-background:new 0 0 145.7 152.4;" xml:space="preserve">
<style type="text/css">
	.st0{fill:#4A9912;}
</style>
<g>
	<g id="_x3C_Groupsymbol_x3E__7_">
		<g>
			<path class="st0" d="M96.2,0H49.5C22.2,0,0,22.2,0,49.5v16.8c0,27.4,22.2,49.5,49.5,49.5h47.4V92.4H33.3c-5.3,0-9.5-4.3-9.5-9.5
				V33.3c0-5.3,4.3-9.5,9.5-9.5h79.1c5.3,0,9.5,4.3,9.5,9.5v119.1h23.8V49.5C145.7,22.2,123.5,0,96.2,0z"/>
		</g>
		<polygon class="st0" points="66.4,55.5 36.7,55.5 87.2,104.2 37.1,152.4 66.8,152.4 115.1,104.2 		"/>
	</g>
</g>
</svg>
