<?xml version="1.0" encoding="utf-8"?>
<!-- Generator: Adobe Illustrator 22.0.0, SVG Export Plug-In . SVG Version: 6.00 Build 0)  -->
<svg version="1.1" id="logotype" xmlns="http://www.w3.org/2000/svg" xmlns:xlink="http://www.w3.org/1999/xlink" x="0px" y="0px"
	 viewBox="0 0 300 59.6" style="enable-background:new 0 0 300 59.6;" xml:space="preserve">
<style type="text/css">
	.st0{fill:#005463;}
</style>
<g>
	<g>
		<g>
			<path class="st0" d="M112.5,59.3v-6.9h3.8c3.2,0,4.4-0.6,5.4-2.9l0.6-1.5l-14.5-26.3h8.8l9.6,18l8-18h8.3l-13.8,30
				c-2.7,5.9-5.9,7.8-10.3,7.8h-5.9C112.5,59.5,112.5,59.3,112.5,59.3z"/>
		</g>
		<g>
			<path class="st0" d="M142,47.2h7.9c0.4,4.1,3,6,7.5,6c4,0,6.6-1.8,6.6-5.1c0-3.2-2.2-4.7-6.7-4.7H153v-6.3h3.9
				c4.4,0,6.4-1.8,6.4-4.8s-2.4-4.6-6.2-4.6c-4.2,0-6.6,2.2-7.1,5.7h-7.8c0.5-7.1,6-12.1,15-12.1c8.8,0,14.2,3.8,14.2,10.3
				c0,4.6-2.7,7.2-6.4,8.2c3.8,1,7.2,3.6,7.2,8.7c0,6.9-5.9,11-15,11C147.6,59.6,142.4,55.4,142,47.2z"/>
		</g>
		<g>
			<polygon class="st0" points="176.3,21.6 184.4,21.6 184.4,36.7 199.4,36.7 199.4,21.6 207.5,21.6 207.5,59.3 199.4,59.3 
				199.4,43.7 184.4,43.7 184.4,59.3 176.3,59.3 			"/>
		</g>
		<g>
			<path class="st0" d="M209.9,59.3l13.8-37.7h9.7l13.7,37.7h-8.7l-2.9-8.2h-14.3l-2.9,8.2H209.9z M223.3,44.5h10l-5-14.3
				L223.3,44.5z"/>
		</g>
		<g>
			<path class="st0" d="M300,40.4c0,11-7.4,19.2-18.4,19.2c-9.9,0-16.8-6.6-18.2-15.9h-5.7v15.6h-8.1V21.6h8.1v15.2h5.8
				c1.5-9.1,8.3-15.6,18.1-15.6C292.6,21.3,300,29.5,300,40.4z M291.7,40.4c0-7.1-3.9-12.3-10.1-12.3s-10.1,5.2-10.1,12.3
				s3.9,12.3,10.1,12.3C287.8,52.8,291.7,47.5,291.7,40.4z"/>
		</g>
		<g>
			<g>
				<path class="st0" d="M89,21.6c-8.3,0-13.9,5-13.9,12.4c0,5.3,2.7,9.4,7.3,11.2c0,0,2.5,1.2,6.6,1.2h8.4v12.8h8.1V21.6H89
					L89,21.6z M89.5,39.7c-3.8,0-6.2-2.2-6.2-5.7s2.4-5.7,6.2-5.7h7.9v11.4C97.4,39.7,89.5,39.7,89.5,39.7z"/>
			</g>
			<g>
				<polygon class="st0" points="96.3,40.4 87.6,40.4 73.9,59.3 83.4,59.3 				"/>
			</g>
		</g>
	</g>
	<g id="_x3C_Groupsymbol_x3E__3_">
		<g>
			<g>
				<path class="st0" d="M37.4,0H19.3C8.6,0,0,8.6,0,19.3v6.5c0,10.6,8.6,19.3,19.3,19.3h18.4V36H13c-2,0-3.7-1.7-3.7-3.7V13
					c0-2,1.7-3.7,3.7-3.7h30.8c2,0,3.7,1.7,3.7,3.7v46.3h9.2v-40C56.7,8.6,48.1,0,37.4,0z"/>
			</g>
		</g>
		<g>
			<polygon class="st0" points="25.8,21.6 14.3,21.6 33.9,40.5 14.4,59.3 26,59.3 44.8,40.5 			"/>
		</g>
	</g>
</g>
</svg>
