<?xml version="1.0" encoding="utf-8"?>
<!-- Generator: Adobe Illustrator 22.0.0, SVG Export Plug-In . SVG Version: 6.00 Build 0)  -->
<svg version="1.1" id="Layer_1" xmlns="http://www.w3.org/2000/svg" xmlns:xlink="http://www.w3.org/1999/xlink" x="0px" y="0px"
	 viewBox="0 0 2414.5 2832.5" style="enable-background:new 0 0 2414.5 2832.5;" xml:space="preserve">
<style type="text/css">
	.st0{fill:#E9F3FF;}
	.st1{fill:#F4B991;}
	.st2{fill:#A3BDE5;}
	.st3{fill:#5979B2;}
	.st4{fill:none;stroke:#363636;stroke-width:23.9445;stroke-linecap:round;stroke-linejoin:round;stroke-miterlimit:10;}
	.st5{fill:#363636;}
	.st6{fill:none;stroke:#363636;stroke-width:24.4627;stroke-linecap:round;stroke-miterlimit:10;}
	.st7{fill:#72D3A3;stroke:#363636;stroke-width:24.4627;stroke-linecap:round;stroke-miterlimit:10;}
	.st8{fill:none;stroke:#363636;stroke-width:23.4904;stroke-linecap:round;stroke-miterlimit:10;}
	.st9{fill:#FFFFFF;}
	.st10{fill:#A3BDE5;stroke:#363636;stroke-width:22.3718;stroke-linecap:round;stroke-miterlimit:10;}
	.st11{clip-path:url(#SVGID_2_);fill:#363636;}
	.st12{clip-path:url(#SVGID_4_);fill:#363636;}
	.st13{fill:#A3BDE5;stroke:#363636;stroke-width:23.4904;stroke-linecap:round;stroke-miterlimit:10;}
	.st14{fill:#E05765;}
	.st15{fill:#445578;}
</style>
<g>
	<g>
		<path class="st0" d="M0,65v2112.2c0,35.9,29.1,65,65,65h1670.6c35.9,0,65-29.1,65-65V65c0-35.9-29.1-65-65-65H65
			C29.1,0,0,29.1,0,65z"/>
	</g>
</g>
<g>
	<g>
		<g>
			<path class="st1" d="M1311.8,2100.4c-9.8,6-99.6,58.8-228.7,65.6c-121.2,6.4-299.7-27.6-462.3-226
				c-81.8-99.9-161.5-159.1-237-176.1c-65-14.6-131.1-0.2-208.1,45.5c-41.9,24.8-96,11-120.8-30.9s-11-96,30.9-120.8
				c55.4-32.8,108.3-54.4,161.8-66c58.9-12.8,117.8-12.7,175,0.2c58.3,13.1,116.2,40,172.1,79.7c54.5,38.8,109.2,91.5,162.6,156.7
				c91.1,111.2,195.3,165.7,309.7,162c88.5-2.9,152.7-40.3,153.4-40.6l-0.6,0.3L1311.8,2100.4z"/>
		</g>
	</g>
	<g>
		<g>
			<path class="st2" d="M765.8,2075c55.5,37.8,110.3,61.2,161.8,74.9c21.1-18.4,49.3-63.3,45.5-170.3c-24.8-6.6-49-16.2-72.7-28.9
				C901.6,1970.2,899.6,2061.3,765.8,2075z"/>
			<path class="st2" d="M600.6,1916c6.7,7.7,13.5,15.7,20.3,23.9c18.4,22.5,37.1,42.9,55.8,61.4c24.5,2.2,78.2-7.2,148.5-102.8
				c-23.4-20.2-46-43.6-67.9-70.3c-6.4-7.8-12.8-15.4-19.2-22.9C732.6,1843.3,704.8,1894.9,600.6,1916z"/>
			<path class="st2" d="M1027.9,2165.9c19.4,1.1,37.9,1,55.2,0.1c129.1-6.8,218.9-59.7,228.7-65.6l-92-150.5l0.6-0.3
				c-0.6,0.4-61.9,36-147.2,40.4C1091.5,2017.8,1117.9,2084.7,1027.9,2165.9z"/>
			<path class="st2" d="M151.2,1623.6c-21.5,9.6-43.2,20.9-65.4,34c-41.9,24.8-55.7,78.9-30.9,120.8s78.9,55.7,120.8,30.9
				c10.4-6.2,20.6-11.7,30.6-16.8C218.6,1752.5,224.5,1682.9,151.2,1623.6z"/>
			<path class="st2" d="M455.8,1792.1c26.6,14.8,53.6,34.4,80.9,58.8c27.6-7.1,73-34.4,119.2-130.1c-20.4-18.3-40.8-34.8-61.2-49.3
				c-17-12.1-34.1-23-51.4-32.6C552.3,1676,546.3,1734.9,455.8,1792.1z"/>
			<path class="st2" d="M423.5,1591.9c-0.2-0.1-0.5-0.1-0.7-0.2c-56.2-12.7-114.1-12.9-172-0.8c30.8,13.5,73.5,53.5,45.2,170.8
				c20.8-3.6,41.1-4.3,61.2-2.3C379.3,1745.4,429.2,1701.3,423.5,1591.9z"/>
		</g>
		<g>
			<path class="st3" d="M423.5,1591.9c5.7,109.4-44.1,153.4-66.4,167.5c9,0.9,18,2.3,26.9,4.4c23.6,5.3,47.5,14.7,71.9,28.2
				c90.5-57.2,96.5-116.1,87.5-153.2C503.9,1616.8,463.8,1601.1,423.5,1591.9z"/>
			<path class="st3" d="M536.8,1850.9c21.1,18.9,42.4,40.6,63.9,65.1c104.1-21.1,131.9-72.7,137.5-110.7
				c-27.2-31.5-54.6-59.7-82.2-84.5C609.7,1816.4,564.3,1843.8,536.8,1850.9z"/>
			<path class="st3" d="M676.7,2001.3c29.6,29.1,59.4,53.5,89.1,73.7c133.8-13.7,135.8-104.8,134.6-124.3
				c-25.8-13.8-50.9-31.2-75.2-52.2C754.9,1994.1,701.2,2003.5,676.7,2001.3z"/>
			<path class="st3" d="M927.6,2149.9c35.3,9.4,69.1,14.2,100.3,16c90-81.2,63.6-148.1,45.2-176c-2,0.1-4.1,0.2-6.1,0.3
				c-32.1,1.1-63.5-2.5-93.9-10.6C976.9,2086.7,948.6,2131.5,927.6,2149.9z"/>
			<path class="st3" d="M250.7,1590.9c-1,0.2-2,0.4-3,0.6c-32.1,7-64.1,17.5-96.4,32c73.2,59.3,67.3,129,55.2,169
				c31.3-15.7,60.8-25.9,89.4-30.8C324.3,1644.4,281.6,1604.5,250.7,1590.9z"/>
		</g>
	</g>
	<g>
		<path class="st4" d="M1311.8,2100.4c-9.8,6-99.6,58.8-228.7,65.6c-121.2,6.4-299.7-27.6-462.3-226
			c-81.8-99.9-161.5-159.1-237-176.1c-65-14.6-131.1-0.2-208.1,45.5c-41.9,24.8-96,11-120.8-30.9s-11-96,30.9-120.8
			c55.4-32.8,108.3-54.4,161.8-66c58.9-12.8,117.8-12.7,175,0.2c58.3,13.1,116.2,40,172.1,79.7c54.5,38.8,109.2,91.5,162.6,156.7
			c91.1,111.2,195.3,165.7,309.7,162c88.5-2.9,152.7-40.3,153.4-40.6l-0.6,0.3L1311.8,2100.4z"/>
	</g>
</g>
<path class="st5" d="M676.4,2701.5c0.7,33.3,278.6,54.7,698.2,46.1s661.9-40.5,661.3-73.8s-244.1-55.4-663.7-46.9
	C952.6,2635.5,675.7,2668.2,676.4,2701.5z"/>
<g>
	<g>
		<g>
			<path class="st2" d="M1092.2,2454.7c0,0-101,3.1-130.2,85.2c-27.1,76.3,20.7,144.1,84.3,142.8s175.4-3.6,175.4-3.6
				s122.2,5.5,89.3-119.9c-15.7-59.9-27.8-142.4-34.4-226.7c-85.4-10.9-146.2-31.9-188-52.7L1092.2,2454.7z"/>
			<path class="st3" d="M1274.2,2098.9l-188.3,45.1l2.8,135.7c41.8,20.8,102.6,41.9,188,52.7
				C1270.1,2249.8,1268.7,2165.4,1274.2,2098.9z"/>
		</g>
		<path class="st6" d="M1311.1,2559.2c-15.7-59.9-27.8-142.4-34.4-226.7c-6.5-82.6-7.9-167-2.5-233.6l-188.3,45.1l2.8,135.7l3.6,175
			c0,0-101,3.1-130.2,85.2c-27.1,76.3,20.7,144.1,84.3,142.8s175.4-3.6,175.4-3.6S1344,2684.7,1311.1,2559.2z"/>
		<path class="st7" d="M1151.5,2460.9c0,0-18.8-9.5-59.3-6.2"/>
	</g>
	<g>
		<g>
			<path class="st2" d="M1584.1,2444.7c0,0,101-1.1,133.5,79.9c30.2,75.1-14.8,144.8-78.5,146.1c-63.6,1.3-175.4,3.6-175.4,3.6
				s-121.9,10.5-94.1-116.2c13.2-60.5,21.9-143.4,25.2-227.9c84.9-14.3,144.8-37.9,185.7-60.4L1584.1,2444.7z"/>
			<path class="st3" d="M1387.8,2096.6l190,37.4l2.8,135.7c-40.9,22.5-100.8,46-185.7,60.4C1398,2247.2,1396,2162.9,1387.8,2096.6z"
				/>
		</g>
		<path class="st6" d="M1369.7,2558c13.2-60.5,21.9-143.4,25.2-227.9c3.2-82.8,1.1-167.2-7.1-233.5l190,37.4l2.8,135.7l3.6,175
			c0,0,101-1.1,133.5,79.9c30.2,75.1-14.8,144.8-78.5,146.1c-63.6,1.3-175.4,3.6-175.4,3.6S1341.9,2684.7,1369.7,2558z"/>
		<path class="st7" d="M1525.1,2453.3c0,0,18.4-10.2,59-8.6"/>
	</g>
</g>
<path class="st2" d="M776,1715.8c-23.4,172.9,12.2,314,110.8,401.5c96.5,88.4,256,123.2,431.2,101.8
	c175.1-22.8,322.6-96.3,397.3-206.3c76.9-109.7,80.9-255.8,20.6-418.1c-60.3-161.9-164.3-304.7-262.1-402.6
	c-100-98.2-193.8-151.6-284.3-140.5c-90.5,11.8-170.1,87-246,207.4C869.6,1378.6,799.5,1543.3,776,1715.8z"/>
<g>
	<g>
		<path class="st3" d="M1676,1960.2c-81.1,73-213.4,119.1-371.1,139.9c-157.9,19-296.5,7.1-391.3-43.7
			c-66-34.2-111.3-86.8-137.5-151.9c-9.3-56.6-9.4-119.4-0.3-187.1c19.5,83.9,66.7,151.7,144.7,192.1c89.1,47.8,219.5,59,367.9,41.1
			c148.3-19.6,272.6-62.9,348.9-131.6c67.1-58.7,98.3-136.3,99-222.8c23.5,63.6,37.1,124.7,40.3,182.1
			C1765.4,1848,1732.8,1910.5,1676,1960.2z"/>
		<path class="st3" d="M809.4,1561c8.9-30.3,18.8-60,29.7-88.8c6,17.8,13.4,34.6,22.4,50.2c21.2,37.3,50.9,68,89.5,90.2
			c74.2,44.1,182.1,55.5,304.9,40.8c122.5-16.2,225.1-54.2,287.7-115.5c32.7-31.1,54.8-68.4,67.4-110c5.3-17.4,8.9-35.6,10.8-54.4
			c16.8,25.3,33,51.6,48.2,78.9c0.3,2,0.6,4,0.8,6c0.3,2.8,0.5,5.6,0.7,8.4c6.3,86-20.8,163.9-87.9,221.2
			c-68.1,59.8-179,97.8-311.2,115.2c-132.3,15.9-248.4,6.6-327.7-34.6c-77.8-39-121-108-133.6-193.2c-0.4-2.8-0.8-5.6-1.1-8.4
			C809.7,1565.1,809.6,1563,809.4,1561z"/>
	</g>
</g>
<path class="st8" d="M776,1715.8c-23.4,172.9,12.2,314,110.8,401.5c96.5,88.4,256,123.2,431.2,101.8
	c175.1-22.8,322.6-96.3,397.3-206.3c76.9-109.7,80.9-255.8,20.6-418.1c-60.3-161.9-164.3-304.7-262.1-402.6
	c-100-98.2-193.8-151.6-284.3-140.5c-90.5,11.8-170.1,87-246,207.4C869.6,1378.6,799.5,1543.3,776,1715.8z"/>
<path class="st2" d="M908.5,649c0,0,277.1-27.7,311,308.7l-277.1,27.7L908.5,649z"/>
<path class="st2" d="M1364.8,603.5c0,0-277.1,27.7-243.3,364l277.1-27.7L1364.8,603.5z"/>
<path class="st3" d="M1454.5,744.5c-10.7-40.4-28-76.8-44.1-102.2c-16.4-25.5-31.5-40.1-45.7-38.8c-14.1,1.5-26,18.8-37,47
	c-10.7,28.1-20.5,67.1-22.9,108.9c-2.4,41.8,4.3,77.2,20.5,100.6c15.8,23.5,41.2,35.1,68.5,32.5c27.3-2.9,49.8-19.2,60.7-45.4
	C1465.7,820.9,1465.2,785,1454.5,744.5z"/>
<path class="st3" d="M848.6,804.9c2.4-41.7,12.2-80.8,22.9-108.9c11-28.2,22.9-45.6,37-47c14.1-1.3,29.2,13.3,45.7,38.8
	c16.1,25.4,33.4,61.7,44.1,102.2c10.7,40.5,11.2,76.5,0,102.6c-10.8,26.2-33.4,42.6-60.7,45.4c-27.3,2.6-52.7-9-68.5-32.5
	C852.9,882.1,846.3,846.7,848.6,804.9z"/>
<path class="st2" d="M832.5,1060.8c-0.1-0.5-0.1-1.1-0.1-1.6c-3.4-31.2-2.8-57.5-0.2-74.9c4.9-51.1,20.4-96.7,46.5-132.4
	c38-53.3,98.5-90.5,171.2-98.2c33-3.1,71.8,5.9,101,13.5c13.1-19.5,41.7-31.7,96.3-33.2c73-2,138.9,12.6,186.8,57.2
	c40.3,36.9,67.9,91.6,80.9,156.4c2.4,11.6,4.5,24.8,6,39.3c0,0,0,0,0,0.1v0.1c9.4,95-9.2,244.3-140.8,346.8
	c-71.6,55.8-120.3,64.7-165.2,69.2c-45,4.5-94.4,5.4-175.7-35.1c-98.5-49.1-153-127.9-181.4-203.1
	C845,1133.6,836.5,1098.5,832.5,1060.8z"/>
<g>
	<path class="st5" d="M1177.8,1284.4c19.8-14.4,52-23.3,90.2-27.6c22-2.3,42.3-2.6,59.8-0.5c0.5-4.3,0.6-8.7,0.3-13.2
		c-2.3-21.7-13.5-39.3-35.9-48.9c-22-9.9-55.1-11.8-93.3-7.9c-38.2,4.3-70.3,13.3-90.2,27.6c-20.2,14.2-28.1,33.8-26.5,55.6
		c2.3,21.7,13.5,39.3,35.9,48.9c9.3,4.2,20.6,6.9,33.5,8.4C1153.5,1310.3,1161.8,1295.6,1177.8,1284.4z"/>
	<path class="st9" d="M1211.4,1326.2c38.2-4.3,70.3-13.3,90.2-27.6c10-7,17-15.4,21.3-24.7c2.6-5.6,4.2-11.5,5-17.7
		c-17.5-2-37.8-1.7-59.8,0.5c-38.2,4.3-70.3,13.3-90.2,27.6c-16,11.3-24.3,25.9-26.3,42.4c10,1.2,20.9,1.6,32.5,1.3
		C1192.8,1327.8,1201.9,1327.2,1211.4,1326.2z"/>
</g>
<g>
	<g>
		<path class="st10" d="M1193.2,1135.2c2.9,26,11,47.3,26.7,59.6c15.4,12.6,38.5,16.1,65.2,13.7c26.6-2.9,48.6-10.9,61.2-26.3
			c13-15.1,16.6-37.6,14.3-63.7"/>
		<path class="st10" d="M1024.9,1152c2.9,26,11,47.3,26.7,59.6c15.4,12.6,38.5,16.1,65.2,13.7c26.6-2.9,48.6-10.9,61.2-26.3
			c13-15.1,16.6-37.6,14.3-63.7"/>
	</g>
</g>
<path class="st5" d="M848.4,686.9L848.4,686.9l0.1-0.2c6.6-17,13.4-30,20.8-39.7c10.6-13.9,22.9-21.6,36.7-23.1h0.1h0.1
	c1-0.1,24.5-2.4,58.4,2.1c35.4,4.6,68.9,14.5,99.6,29.5s58,34.8,81.5,59.2c13.8-21.7,30.3-41.2,49.3-58.5
	c22.4-20.3,48.2-37.4,76.8-50.7c48.6-22.7,88.9-27,90.6-27.2h0.1h0.1c3.2-0.3,6.5-0.2,9.8,0.2l0,0c11.7,1.5,22.8,7.4,33.9,18.1
	c8.1,7.8,16.3,18.2,25.1,31.9l0.1,0.1l0.1,0.1c11.8,18.6,33.6,57.6,47.2,109.3c7.4,28,10.3,53.8,8.6,76.7
	c11.4,16.4,21.4,34.7,29.7,54.5c9.6,22.6,17.1,47.3,22.3,73.3c2.8,13.2,4.9,27.2,6.4,41.7c0,0.1,0,0.1,0,0.2l0,0l0,0
	c0,0.1,0,0.2,0,0.3c4.2,42.9,4.4,109-18.6,180.8c-8.9,27.8-20.7,54.3-35.2,78.9c-3.7,6.3-12,8-17.9,3.6l0,0
	c-5.2-3.9-6.6-11.1-3.4-16.7c49.9-85,57-178,50.4-244.4v-0.1c0,0,0,0,0-0.1c-1.4-14.5-3.5-27.7-6-39.3
	c-9.8-48.8-27.9-91.9-53.4-125.9c3.2-22.2,0.7-48.6-6.8-77.2c-10.7-40.4-28-76.8-44.1-102.2c-14.7-22.9-28.4-37-41.3-38.7
	c-1.5-0.2-2.9-0.2-4.4-0.1l0,0c-0.1,0-148.6,14.9-214.8,154.8c-57.7-77.1-136.9-100.6-188.6-107.3c-31.5-4.1-52.8-2-52.8-2
	c-14.1,1.5-26,18.8-37,47c-10.7,28.1-20.5,67.1-22.9,108.9c-1.8,31.2,1.5,58.8,10,80.5c-14.1,29.1-22.9,62.5-26.4,98.8
	c-2.6,17.4-3.3,43.7,0.2,74.9c0,0.5,0.1,1.1,0.1,1.6c4,37.7,12.5,72.8,25.2,103.9c17.7,47,45.7,95.4,88.1,137.1
	c4.7,4.7,5.1,12.2,0.8,17.3l0,0c-4.6,5.5-12.8,5.9-18,0.8c-8.9-8.7-17.4-17.9-25.5-27.5c-28.8-34.4-51.8-74.2-68.5-118.4
	c-13.6-33.4-22.6-70.6-26.8-110.6v-0.1v-0.1c0-0.4-0.1-0.8-0.1-1.2c0-0.1,0-0.2,0-0.3c-3.3-30-3.3-58.5-0.1-80.6
	c3.4-35.4,11.6-68,24.3-97c-7.1-22.9-9.7-50-8-80.7C827,750,840.6,707.4,848.4,686.9z"/>
<path class="st5" d="M1187.5,1080.1c-28,2.2-43,16.6-40.4,38.7c1.6,22.2,19.1,33.6,47,30.5c28-2.2,43-16.6,40.4-38.7
	C1232.9,1088.4,1215.4,1077,1187.5,1080.1z"/>
<path class="st8" d="M1183,747.2c0,0-31-5.9-66.7,6.2"/>
<path class="st8" d="M1183.5,1433.8c0,0,46.4,9.2,100.5-12.6"/>
<g>
	<g>
		<path class="st9" d="M968.3,1154.6c4.1-7.1,8.9-13.7,14.5-19.8c26-29.2,68.9-45.9,120.2-51.4c15.5-1.4,30.4-1.7,44.5-0.8
			c5.4-22.4,6.5-48.5,3.9-76.6c-5-46.5-19-85.5-42.8-109.3c-23.6-24.2-57.1-33.4-94.7-30c-37.5,4.1-68.5,19.7-86.8,48.1
			c-18.7,28.1-24.6,69-20.2,115.6c5,46.5,19,85.5,42.8,109.3C955.3,1145.5,961.5,1150.5,968.3,1154.6z"/>
		<g>
			<g>
				<g>
					<g>
						<g>
							<defs>
								<path id="SVGID_1_" d="M968.3,1154.6c4.1-7.1,8.9-13.7,14.5-19.8c26-29.2,68.9-45.9,120.2-51.4c15.5-1.4,30.4-1.7,44.5-0.8
									c5.4-22.4,6.5-48.5,3.9-76.6c-5-46.5-19-85.5-42.8-109.3c-23.6-24.2-57.1-33.4-94.7-30c-37.5,4.1-68.5,19.7-86.8,48.1
									c-18.7,28.1-24.6,69-20.2,115.6c5,46.5,19,85.5,42.8,109.3C955.3,1145.5,961.5,1150.5,968.3,1154.6z"/>
							</defs>
							<clipPath id="SVGID_2_">
								<use xlink:href="#SVGID_1_"  style="overflow:visible;"/>
							</clipPath>
							<path class="st11" d="M1117.4,1067.4c-6.7-57.7-36.8-87.8-80.6-80.8c-44.1,4.7-65.3,41.6-56.9,99.1
								c6.7,57.7,36.8,87.8,80.6,80.8C1104.7,1161.8,1125.9,1124.8,1117.4,1067.4z"/>
						</g>
					</g>
				</g>
			</g>
		</g>
	</g>
	<g>
		<path class="st9" d="M1410.5,1100.4c-5.7-5.9-12-11.2-18.8-15.7c-32.3-22.1-77.9-28-129.1-20.9c-15.3,2.3-29.9,5.7-43.4,10
			c-10.7-20.4-18-45.5-22.3-73.4c-6.4-46.3-2.2-87.5,15.2-116.4c17-29.2,47.3-46.1,84.7-52c37.4-5,71.3,2.6,95.9,25.7
			c24.9,22.7,40.5,61,47.5,107.3c6.4,46.3,2.2,87.5-15.2,116.4C1420.9,1088.5,1416,1094.8,1410.5,1100.4z"/>
		<g>
			<g>
				<g>
					<g>
						<g>
							<defs>
								<path id="SVGID_3_" d="M1410.5,1100.4c-5.7-5.9-12-11.2-18.8-15.7c-32.3-22.1-77.9-28-129.1-20.9
									c-15.3,2.3-29.9,5.7-43.4,10c-10.7-20.4-18-45.5-22.3-73.4c-6.4-46.3-2.2-87.5,15.2-116.4c17-29.2,47.3-46.1,84.7-52
									c37.4-5,71.3,2.6,95.9,25.7c24.9,22.7,40.5,61,47.5,107.3c6.4,46.3,2.2,87.5-15.2,116.4
									C1420.9,1088.5,1416,1094.8,1410.5,1100.4z"/>
							</defs>
							<clipPath id="SVGID_4_">
								<use xlink:href="#SVGID_3_"  style="overflow:visible;"/>
							</clipPath>
							<path class="st12" d="M1244.7,1051.8c-7.4-57.6,14.5-94.1,58.8-97.9c44-6.1,73.5,24.6,79.1,82.4
								c7.4,57.6-14.5,94.1-58.8,97.9C1279.8,1140.3,1250.3,1109.6,1244.7,1051.8z"/>
						</g>
					</g>
				</g>
			</g>
		</g>
	</g>
</g>
<g>
	<path class="st13" d="M906.4,1383.1c0,0-238.1,118.7-295.5,3.1c0,0,51.7-73.1,38.2-159.3c-13.4-86.2-53.7-108.7-83.5-128.1
		c0,0-12.1-75,19.9-132.3s4.9-101.6-36-105.3s-128.8,44.6-85.9,229.9c0,0-87.7-32.6-138.6,58.8s8.2,279,99.9,285.1
		c0,0,41.4,137.8,153.5,168.8c126.2,34.9,244.6-41.8,339-131.3"/>
	<path class="st13" d="M408.2,1168.5c0,0,88.6-31.1,147,45.5c58.5,76.6,28.5,244.8-130.3,220.9"/>
	<path class="st13" d="M496.1,1114.5c0,0-10.6-15.7-32.5-23.4"/>
</g>
<path class="st13" d="M1531.8,1284.7c0,0,117.4-63.5,300.8,3.6s254.9,246.9,254.9,246.9s91.9,42.3,165.1,41.6
	c78.8-0.7,90.5,75.4,71.4,112.2c-19,36.8-75.6,79.2-122,86.2c-46.5,6.9-124.4-22.1-142.6-36.4c0,0-16,51.8-36.5,81.6
	c-20.5,29.8-58.6,34.3-71.9,28.6c-19.2-8.3-37.1-45.5-10.8-78.1c27.4-33.9,41.9-75.2,24.1-114c-17.8-38.9-162.5-346.3-441.5-279.2"
	/>
<g>
	<g>
		<path class="st14" d="M0,65v2112.3c0,35.9,29.1,65,65,65h1670.7c35.9,0,65-29.1,65-65V65c0-35.9-29.1-65-65-65H65
			C29.1,0,0,29.1,0,65z M1692.9,1635.4c-17.1,144.8-48.7,252.6-108.6,325.6c-59.5,73.6-147.3,112.4-265.3,133.3
			c-117,20.9-264.1,24-418.6,25.4c-154.4-1.4-301.6-4.5-418.6-25.4c-118-20.9-205.8-59.7-265.3-133.3c-60-73-91.6-180.8-108.6-325.6
			c-17-143.6-19.6-324.1-20.7-513.7c1.2-189.5,3.7-370.1,20.7-513.7c17.1-144.8,48.7-252.6,108.6-325.6
			C276,208.8,363.8,170,481.8,149.1c117-20.9,264.1-24,418.6-25.4c154.4,1.4,301.6,4.5,418.6,25.4c118,20.9,205.8,59.7,265.3,133.3
			c60,73,91.6,180.8,108.6,325.6c17,143.6,19.6,324.1,20.7,513.7C1712.4,1311.2,1709.9,1491.8,1692.9,1635.4z"/>
	</g>
</g>
<g>
	<g>
		<g>
			<path class="st2" d="M151.2,1623.6c-21.5,9.6-43.2,20.9-65.4,34c-41.9,24.8-55.7,78.9-30.9,120.8s78.9,55.7,120.8,30.9
				c10.4-6.2,20.6-11.7,30.6-16.8C218.6,1752.5,224.5,1682.9,151.2,1623.6z"/>
			<path class="st2" d="M423.5,1591.9c-0.2-0.1-0.5-0.1-0.7-0.2c-56.2-12.7-114.1-12.9-172-0.8c30.8,13.5,73.5,53.5,45.2,170.8
				c20.8-3.6,41.1-4.3,61.2-2.3C379.3,1745.4,429.2,1701.3,423.5,1591.9z"/>
		</g>
		<g>
			<path class="st3" d="M423.5,1591.9c5.7,109.4-44.1,153.4-66.4,167.5c9,0.9,18,2.3,26.9,4.4c23.6,5.3,47.5,14.7,71.9,28.2
				c90.5-57.2,96.5-116.1,87.5-153.2C503.9,1616.8,463.8,1601.1,423.5,1591.9z"/>
			<path class="st3" d="M250.7,1590.9c-1,0.2-2,0.4-3,0.6c-32.1,7-64.1,17.5-96.4,32c73.2,59.3,67.3,129,55.2,169
				c31.3-15.7,60.8-25.9,89.4-30.8C324.3,1644.4,281.6,1604.5,250.7,1590.9z"/>
		</g>
	</g>
	<path class="st5" d="M546.4,1843.4c-54.5-49-108-79.6-159.8-91.3c-17.1-3.9-34.3-5.8-51.7-5.8c-51.8,0-105.4,17.2-165.1,52.7
		c-36.1,21.4-83,9.5-104.4-26.7c-21.4-36.1-9.5-83,26.7-104.4c54.2-32.2,106-53.3,158.2-64.6c57.2-12.4,114.3-12.3,169.8,0.2
		c42.5,9.6,84.8,26.7,126.3,50.9v-27.5c-39.7-21.9-80.3-37.6-121-46.8c-58.9-13.3-119.6-13.4-180.2-0.2
		c-54.8,11.9-108.9,33.9-165.4,67.4c-47.5,28.2-63.2,89.7-35.1,137.2c18.7,31.5,52.1,49,86.3,49c17.4,0,34.9-4.5,50.9-14
		c74.2-44,137.5-58,199.3-44.1c52.8,11.9,108.1,45.6,165,100.6v-32.6L546.4,1843.4L546.4,1843.4z"/>
</g>
<g>
	<g>
		<g>
			<path class="st15" d="M425.9,594.2v7.8h-37.7v12.5h32.8v7.1h-32.8V635h37.7v7.8h-47.3v-48.6H425.9z"/>
			<path class="st15" d="M434.3,642.8v-35.1h8.5l-1.3,10.8h1c0.9-3.6,2.9-6.5,5.9-8.6c3-2.1,6.9-3.2,11.7-3.2c6.2,0,11,1.8,14.5,5.3
				c3.5,3.5,5.2,8.4,5.2,14.7v16h-8.5v-14.2c0-4.7-1.2-8.3-3.7-10.9c-2.5-2.5-6-3.8-10.5-3.8c-4.5,0-8,1.3-10.5,3.8
				c-2.5,2.5-3.7,6.2-3.7,10.8v14.2H434.3z"/>
			<path class="st15" d="M497.3,657c-2.5-0.5-5.1-1.2-7.6-2.2v-7.1c3,1,5.6,1.7,8,2.1c2.4,0.4,5,0.6,8.1,0.6c6.9,0,12-1.4,15.2-4.2
				c3.3-2.8,4.9-7,4.9-12.4v-2h-1c-2.5,6.4-8.5,9.6-18,9.6c-4.2,0-7.9-0.7-10.9-2.2c-3.1-1.5-5.4-3.5-7-6.1
				c-1.6-2.6-2.4-5.6-2.4-8.9c0-3.3,0.8-6.3,2.4-8.9c1.6-2.6,3.9-4.7,7-6.1c3.1-1.5,6.7-2.2,10.8-2.2c5,0,9.1,0.9,12.1,2.8
				c3,1.9,5.1,4.4,6.2,7.7h1l-1.2-9.5h8.6v23.6c0,8.9-2.2,15.5-6.6,19.9c-4.4,4.3-11.2,6.5-20.5,6.5
				C502.8,657.7,499.8,657.4,497.3,657z M520.9,632c2.5-2,3.8-4.5,3.8-7.6c0-3.1-1.3-5.7-3.8-7.7c-2.5-2-6.2-3-11-3
				c-4.8,0-8.5,1-11,3c-2.5,2-3.8,4.6-3.8,7.7c0,3.1,1.3,5.6,3.8,7.6c2.5,2,6.2,3,11,3C514.7,635,518.4,634,520.9,632z"/>
			<path class="st15" d="M552,642.8h-8.5v-48.6h8.5V642.8z"/>
			<path class="st15" d="M562.7,600.1c-1-0.9-1.5-2-1.5-3.4s0.5-2.5,1.5-3.4c1-0.9,2.3-1.3,4-1.3c1.6,0,2.9,0.4,3.9,1.3
				c1,0.9,1.5,2,1.5,3.4s-0.5,2.5-1.5,3.4c-1,0.9-2.3,1.3-3.9,1.3C565,601.4,563.7,601,562.7,600.1z M570.9,642.8h-8.5v-35.1h8.5
				V642.8z"/>
			<path class="st15" d="M584.4,640.2c-3.5-2.3-5.2-5.4-5.2-9.3v-0.7h8.7v0.6c0,2,1,3.6,3.1,4.8c2.1,1.2,5.6,1.8,10.4,1.8
				c5.1,0,8.7-0.5,10.7-1.4c2-0.9,2.9-2.1,2.9-3.6c0-1.3-0.6-2.3-1.8-2.9c-1.2-0.6-2.8-1.1-4.6-1.3c-1.9-0.2-4.4-0.4-7.8-0.6
				c-4.4-0.2-8.1-0.5-10.9-0.9c-2.8-0.4-5.3-1.4-7.3-2.8c-2-1.4-3-3.5-3-6.4c0-3.2,1.7-5.9,5-7.8c3.4-2,9-3,16.8-3
				c7.4,0,12.9,1.2,16.4,3.6c3.5,2.4,5.3,5.6,5.5,9.4h-8.6c-0.3-4.5-4.7-6.7-13.3-6.7c-8.8,0-13.2,1.7-13.2,5c0,1.2,0.6,2,1.8,2.6
				c1.2,0.6,2.6,1,4.4,1.1c1.8,0.2,4.2,0.3,7.4,0.5c4.6,0.2,8.4,0.5,11.2,0.9c2.9,0.4,5.3,1.4,7.4,2.8c2.1,1.5,3.1,3.7,3.1,6.6
				c0,3.4-1.7,6-5,8c-3.4,1.9-9.1,2.9-17.2,2.9C593.5,643.6,587.9,642.5,584.4,640.2z"/>
			<path class="st15" d="M631.1,642.8v-48.6h8.5V606c0,2.1-0.1,4.1-0.3,5.9c-0.2,1.9-0.5,4.1-1,6.6h1c0.9-3.6,2.9-6.5,5.9-8.6
				c3-2.1,6.9-3.2,11.7-3.2c6.2,0,11,1.8,14.5,5.3c3.5,3.5,5.2,8.4,5.2,14.7v16h-8.5v-14.2c0-4.7-1.2-8.3-3.7-10.9
				c-2.5-2.5-6-3.8-10.5-3.8c-4.5,0-8,1.3-10.5,3.8c-2.5,2.5-3.7,6.2-3.7,10.8v14.2H631.1z"/>
		</g>
	</g>
	<g>
		<path class="st15" d="M432,478.8h-25.1V401h-40.6v-20.9h106.2V401H432V478.8z"/>
		<path class="st15" d="M561.2,449.5h-76.4c1.5,4.7,4.6,8.4,9.3,11.1c4.7,2.7,10.9,4,18.6,4c7.3,0,12.9-0.9,16.8-2.6
			c3.8-1.7,6.9-3.9,9.2-6.4h21.4c-1.4,3.9-3.9,7.8-7.6,11.6c-3.7,3.8-8.9,7-15.6,9.6c-6.7,2.6-14.9,3.9-24.6,3.9
			c-10.3,0-19.2-1.7-26.6-5c-7.4-3.3-12.9-7.8-16.7-13.5c-3.8-5.7-5.6-12-5.6-19.1c0-7,1.9-13.4,5.7-19.1s9.4-10.2,16.8-13.5
			c7.4-3.3,16.3-5,26.7-5c10.3,0,19.2,1.7,26.6,5c7.4,3.3,13,7.9,16.8,13.6s5.6,12.2,5.6,19.3C561.6,445.3,561.5,447.3,561.2,449.5z
			 M493.9,425.7c-4.7,2.7-7.8,6.5-9.2,11.3h55.6c-1.4-4.8-4.4-8.5-9.1-11.3c-4.6-2.7-10.9-4.1-18.7-4.1
			C504.8,421.6,498.6,423,493.9,425.7z"/>
		<path class="st15" d="M669.6,449.5h-76.4c1.5,4.7,4.6,8.4,9.3,11.1c4.7,2.7,10.9,4,18.6,4c7.3,0,12.9-0.9,16.8-2.6
			c3.8-1.7,6.9-3.9,9.2-6.4h21.4c-1.4,3.9-3.9,7.8-7.6,11.6c-3.7,3.8-8.9,7-15.6,9.6c-6.7,2.6-14.9,3.9-24.6,3.9
			c-10.3,0-19.2-1.7-26.6-5c-7.4-3.3-12.9-7.8-16.7-13.5c-3.8-5.7-5.6-12-5.6-19.1c0-7,1.9-13.4,5.7-19.1s9.4-10.2,16.8-13.5
			c7.4-3.3,16.3-5,26.7-5c10.3,0,19.2,1.7,26.6,5c7.4,3.3,13,7.9,16.8,13.6s5.6,12.2,5.6,19.3C670,445.3,669.9,447.3,669.6,449.5z
			 M602.3,425.7c-4.7,2.7-7.8,6.5-9.2,11.3h55.6c-1.4-4.8-4.4-8.5-9.1-11.3c-4.6-2.7-10.9-4.1-18.7-4.1
			C613.2,421.6,607,423,602.3,425.7z"/>
		<path class="st15" d="M687,478.8v-71.6h22.3l-3.4,21.6h2.4c2.1-7.5,6-13.3,11.8-17.3c5.8-4,11.6-6.1,20.8-6.1
			c12.1,0,21.6,3.5,28.6,10.6c6.9,7,10.4,16.8,10.4,29.2v33.7h-22.1v-28.6c0-8.4-2.2-14.8-6.6-19.3c-4.4-4.5-10.6-6.8-18.5-6.8
			c-7.9,0-12.4,2.3-16.8,6.8c-4.4,4.5-6.6,10.9-6.6,19.3v28.6H687z"/>
		<path class="st15" d="M813.3,507.3c-5-0.9-10-2.4-15.1-4.4v-18.2c5.8,1.9,11.1,3.2,15.8,4.1c4.7,0.8,9.5,1.3,14.4,1.3
			c24.8,0,37.2-11,37.2-33v-3.7h-2.1c-2,7-5.5,12.4-10.7,15.9c-5.2,3.6-12.2,5.4-21.1,5.4c-12,0-21.4-3.4-28.2-10.1
			c-6.8-6.7-10.1-16-10.1-28v-29.4h22.3v25.4c0,7.6,2.1,13.5,6.3,17.8c4.2,4.3,10,6.4,17.4,6.4c7.4,0,13.2-2.1,17.4-6.4
			c4.2-4.3,6.3-10.2,6.3-17.8v-25.4H885v45.4c0,19.2-4.5,33.3-13.5,42.4c-9,9.1-22.9,13.7-41.6,13.7
			C823.8,508.7,818.3,508.2,813.3,507.3z"/>
	</g>
	<g>
		<g>
			<path class="st14" d="M229.8,570.9l-28.9-98.6h27l16.9,63.1c1.6,6.8,2.4,13.3,2.4,19.6v1h2.3v-1c0-7.2,0.8-13.8,2.3-19.6
				l14.1-46.2h27.9l13.9,46.2c1.5,5.8,2.3,12.3,2.3,19.6v1h2.4v-1c0-6.1,0.8-12.6,2.3-19.6l16.9-63.1h27l-28.9,98.6H298l-13.9-43
				c-1.2-4.4-2-8.1-2.5-11c-0.4-2.9-0.6-7-0.6-12.3v-0.6h-2.4v0.6c0,5.3-0.2,9.3-0.6,12.3c-0.4,2.9-1.2,6.6-2.5,11l-13.9,43H229.8z"
				/>
			<path class="st14" d="M454.7,541.6h-76.4c1.5,4.7,4.6,8.4,9.3,11.1c4.7,2.7,10.9,4,18.6,4c7.3,0,12.9-0.9,16.8-2.6
				c3.8-1.7,6.9-3.9,9.2-6.4h21.4c-1.4,3.9-3.9,7.8-7.6,11.6c-3.7,3.8-8.9,7-15.6,9.6c-6.7,2.6-14.9,3.9-24.6,3.9
				c-10.3,0-19.2-1.7-26.6-5c-7.4-3.3-12.9-7.8-16.7-13.5c-3.8-5.7-5.6-12-5.6-19.1c0-7,1.9-13.4,5.7-19.1
				c3.8-5.7,9.4-10.2,16.8-13.5c7.4-3.3,16.3-5,26.7-5c10.3,0,19.2,1.7,26.6,5c7.4,3.3,13,7.9,16.8,13.6s5.6,12.2,5.6,19.3
				C455.1,537.4,455,539.4,454.7,541.6z M387.4,517.8c-4.7,2.7-7.8,6.5-9.2,11.3h55.6c-1.4-4.8-4.4-8.5-9.1-11.3
				c-4.6-2.7-10.9-4.1-18.7-4.1C398.3,513.7,392,515.1,387.4,517.8z"/>
			<path class="st14" d="M562.6,541.6h-76.4c1.5,4.7,4.6,8.4,9.3,11.1c4.7,2.7,10.9,4,18.6,4c7.3,0,12.9-0.9,16.8-2.6
				c3.8-1.7,6.9-3.9,9.2-6.4h21.4c-1.4,3.9-3.9,7.8-7.6,11.6s-8.9,7-15.6,9.6c-6.7,2.6-14.9,3.9-24.6,3.9c-10.3,0-19.2-1.7-26.6-5
				c-7.4-3.3-12.9-7.8-16.7-13.5c-3.8-5.7-5.6-12-5.6-19.1c0-7,1.9-13.4,5.7-19.1c3.8-5.7,9.4-10.2,16.8-13.5c7.4-3.3,16.3-5,26.7-5
				c10.3,0,19.2,1.7,26.6,5c7.4,3.3,13,7.9,16.8,13.6s5.6,12.2,5.6,19.3C563,537.4,562.9,539.4,562.6,541.6z M495.2,517.8
				c-4.7,2.7-7.8,6.5-9.2,11.3h55.6c-1.4-4.8-4.4-8.5-9.1-11.3c-4.6-2.7-10.9-4.1-18.7-4.1C506.2,513.7,499.9,515.1,495.2,517.8z"/>
			<path class="st14" d="M577,570.9v-71.6h22.3l-3.4,21.6h2.4c2.1-7.5,6-13.3,11.8-17.3c5.8-4,14.4-6.1,23.6-6.1
				c12.1,0,21.6,3.5,28.6,10.6c6.9,7,10.4,16.8,10.4,29.2v33.7h-22.1v-28.6c0-8.4-2.2-14.8-6.6-19.3c-4.4-4.5-10.6-6.8-18.5-6.8
				c-7.9,0-15.1,2.3-19.6,6.8c-4.4,4.5-6.6,10.9-6.6,19.3v28.6H577z"/>
			<path class="st14" d="M708.2,599.4c-5-0.9-10-2.4-15.1-4.4v-18.2c5.8,1.9,11.1,3.2,15.8,4.1c4.7,0.8,9.5,1.3,14.4,1.3
				c24.8,0,37.2-11,37.2-33v-3.7h-2.1c-2,7-5.5,12.4-10.7,15.9c-5.2,3.6-13,5.4-21.9,5.4c-12,0-21.4-3.4-28.2-10.1
				c-6.8-6.7-10.1-16-10.1-28v-29.4h22.3v25.4c0,7.6,2.1,13.5,6.3,17.8c4.2,4.3,10.8,6.4,18.2,6.4c7.4,0,13.2-2.1,17.4-6.4
				c4.2-4.3,6.3-10.2,6.3-17.8v-25.4h22.1v45.4c0,19.2-4.5,33.3-13.5,42.4c-9,9.1-22.9,13.7-41.6,13.7
				C718.7,600.8,713.1,600.3,708.2,599.4z"/>
		</g>
	</g>
</g>
</svg>
