<?xml version="1.0" encoding="utf-8"?>
<!-- Generator: Adobe Illustrator 22.0.0, SVG Export Plug-In . SVG Version: 6.00 Build 0)  -->
<svg version="1.1" id="Isolation_Mode" xmlns="http://www.w3.org/2000/svg" xmlns:xlink="http://www.w3.org/1999/xlink" x="0px"
	 y="0px" viewBox="0 0 1915.9 2329.8" style="enable-background:new 0 0 1915.9 2329.8;" xml:space="preserve">
<style type="text/css">
	.st0{fill:#004F72;stroke:#FDE6FF;stroke-width:262;stroke-linecap:round;stroke-linejoin:round;stroke-miterlimit:10;}
	.st1{fill:#004F72;}
	.st2{fill:#F75961;}
	.st3{fill:#A6D9FF;}
	.st4{fill:#317CAA;}
	.st5{fill:none;stroke:#004F72;stroke-width:19.0718;stroke-linecap:round;stroke-linejoin:round;stroke-miterlimit:10;}
	.st6{fill:none;stroke:#004F72;stroke-width:18.6718;stroke-linecap:round;stroke-miterlimit:10;}
	.st7{fill:#A6D9FF;stroke:#004F72;stroke-width:18.6718;stroke-linecap:round;stroke-miterlimit:10;}
	.st8{fill:#A6D9FF;stroke:#004F72;stroke-width:18.6718;stroke-linecap:round;stroke-linejoin:round;stroke-miterlimit:10;}
	.st9{clip-path:url(#SVGID_2_);fill:#FFFFFF;}
	.st10{fill:#FFFFFF;}
	.st11{clip-path:url(#SVGID_4_);fill:#004F72;}
	.st12{clip-path:url(#SVGID_6_);fill:#004F72;}
</style>
<g id="Layer_1">
	<g>
		<path class="st0" d="M654,569.7c-8.4-11.4-16.8-22.7-25.2-34.1c-67.2,52.9-126,126.2-170.8,222.6c53.3,24.7,106.5,49.4,159.8,74.1
			C648.6,766,689,715.6,735.2,679.2c-8.4-11.4-16.8-22.7-25.2-34.1c-35.6,28-68.1,63.5-96,107.2c-8.1-5.5-16.1-11-24.2-16.5
			c25.6-40,54.8-73.6,86.5-101.2c-7.8-9.7-15.7-19.4-23.6-29.1c-34.3,29.8-65.8,66.1-93.5,109.4c-7.3-4.9-14.6-9.9-21.9-14.9
			C571.3,646.9,610.8,603.7,654,569.7z"/>
		<path class="st0" d="M793.6,537.8c12.9-5.3,24.4-5.5,33.9-1.1c9.5,4.4,16,13,19.9,25.3c5.3,16.5,10.5,33,15.7,49.5
			c14.2-4.2,28.5-7.5,42.9-9.9c-4.1-20.7-8.1-41.4-12.2-62.1c-4.2-21.5-14.1-37.4-31.1-46.4c-16.9-9-38.8-10-63.6-1.3
			c-37.1,13.3-52.9,38.1-47.4,66.4c-1.6,0.9-3.3,1.8-4.9,2.7c-3.8-12.4-7.4-24.9-10.9-37.5c-17.7,9.4-34.9,20.2-51.6,32.2
			c24.6,35.7,49.3,71.5,73.9,107.2c12.6-9.1,25.5-17.1,38.8-24.2c-8.2-15.3-16.3-30.6-24.4-45.9c-6.1-11.5-7.6-22.1-3.9-31.9
			C772.3,551.1,780.7,543.1,793.6,537.8z"/>
		<path class="st0" d="M1038.2,594.6c-11.2,7.8-26.7,10.8-47.5,10.5c-8.6-0.1-16.9-0.6-24.9-1.7c-8-1-17.6-2.9-28.9-5.2
			c2.2,13.5,4.3,27.1,6.4,40.6c8.8,2.6,17,4.6,24.9,5.9c7.9,1.3,16.5,2,25.9,2.1c29.6,0.7,51.7-4.4,69.6-18.7
			c17.7-14.3,32.3-38.5,41.2-74.6c6.1-25.4,12.3-50.9,18.4-76.3c-19.6-5-39.4-9-59.4-12c1.4,11.8,2.7,23.7,3.7,35.5
			c-1.9-0.3-3.7-0.6-5.6-0.9c-5.8-26.3-30.9-43.3-73.2-44.1c-18-0.2-33.6,3.2-46,9.6c-12.4,6.4-21.1,15.1-26.2,25.5s-6.2,21.8-4,34
			c2.3,12.2,7.4,22.6,14.7,31.5c7.3,8.9,16.5,15.5,27.4,20.2c11,4.7,23.1,7,37,7.2c17,0.3,30.1-1.3,39.8-5.8
			c9.7-4.4,17.5-11.7,23.5-22.2c1.4,0.3,2.8,0.5,4.2,0.7c-0.2,0.9-0.3,1.7-0.4,2.6C1056.5,575.1,1049.3,586.8,1038.2,594.6z
			 M1055.7,526.9c-1,8.1-5.5,14.1-13.2,18.3c-7.7,4.2-18.5,5.6-32.6,4.8c-14-0.8-24.5-3.4-31.9-8.4c-7.4-5.1-11.5-11.5-12.1-19.7
			c-0.5-8,2.8-14.8,10.3-20c7.5-5.2,19.3-7.8,35.1-6.9c16,0.9,27.8,4.8,35.1,10.8C1053.7,511.9,1056.7,519,1055.7,526.9z"/>
		<path class="st0" d="M1238.2,468.9c-20.3-10.1-41-19.1-62.2-27.1c-21.5,58.2-43,116.4-64.5,174.6c14.5,5.5,28.8,11.7,42.7,18.6
			C1182.2,579.6,1210.2,524.2,1238.2,468.9z"/>
		<path class="st0" d="M1305.3,563.9c-17.1-12.5-34.9-24.1-53.2-34.8c-24,39.8-47.9,79.5-71.9,119.2c13.8,8.1,27.1,16.8,40,26.2
			C1248.6,637.7,1276.9,600.9,1305.3,563.9z"/>
		<path class="st0" d="M1289.1,531.3c9.4,6.1,18.2,9.3,26.6,9.4c8.4,0.1,15-2.7,19.6-8.6c4.6-5.9,5.6-12.8,2.7-20.9
			c-2.9-8.1-9.5-15.7-19.8-22.4c-10.3-6.7-20-9.8-28.7-9.4c-8.7,0.4-14.9,4-18.7,10.4c-3.9,6.4-4,13.4-0.7,21
			C1273.4,518.4,1279.8,525.1,1289.1,531.3z"/>
		<path class="st0" d="M1286.9,743.4c18,22.9,32,38.6,45.7,45.9c13.5,7.3,26.5,8.7,39.1,2.8c10.7-5,16.8-12.5,17.8-22.9
			c1-10.3-0.9-21.3-5.9-32.3s-12.6-24.5-23.5-39.8c-9.4-13-16.3-22.3-20.1-28.5c-3.8-6.2-4.2-10.6-1.1-13.3
			c2.7-2.3,6.9-2.1,12.5,0.9c5.5,3,13.5,10.3,23.2,22.5c8.7,11.1,13.3,20.3,14.3,27.2s-0.7,11.9-4.6,15.1c10.7,16,20.4,32.6,29,49.9
			c13.4-7.4,21.1-20.7,21.4-40.4c0.2-19.6-9.4-45.1-31.4-72.9c-23.7-29.8-46.7-46.3-64.4-51.8c-17.9-5.5-31.1-2.7-39.7,6.8
			c-7.7,8.5-10.1,17.7-7.8,27.7c2.3,10,6.9,19.5,13.7,28.9c6.8,9.4,15.8,20.8,26.3,34.6c9.1,12.1,14.8,21.8,17.7,28.3
			s2.3,11-1.5,13.4c-3.2,2-7.3,1.4-12.1-1.7c-4.9-3.1-11.3-10.4-20-21.4c-15.2-19.1-19.4-31.6-10.5-39.5c0.3-0.2,0.5-0.5,0.8-0.7
			c-12.1-13-25-25.3-38.5-36.9c-0.5,0.5-0.9,0.9-1.3,1.4c-10.5,11.7-13.5,25.5-10.6,41.4C1258.4,704.1,1269.4,721.5,1286.9,743.4z"
			/>
		<path class="st0" d="M1531.8,810.4c-6.8-21.1-15-41.5-24.3-61.3c-55.3,25.1-110.6,50.3-165.9,75.4c6.4,13.6,12,27.7,16.7,42
			c16.8-5.4,33.5-10.9,50.3-16.3c12.6-4.1,23.5-3.7,32.6,1.7c9.1,5.4,15.6,15.4,18.6,29.6s1.2,26.4-4.9,35.5s-15.9,14.4-28.9,16
			c-17.4,2.2-34.9,4.5-52.3,6.7c1.6,15.9,2.1,32.1,1.6,48.7c21.4-0.1,42.8-0.2,64.2-0.3c22.2,0,40-7.7,52.3-24.4
			c12.2-16.5,17.3-40,13-67.6c-6.8-41.4-28.7-61.3-58-60.7c-0.6-1.7-1.2-3.5-1.8-5.3c18.1-0.6,34.2-2.7,48.1-7.2
			C1506,818.8,1518.9,814.6,1531.8,810.4z"/>
		<path class="st0" d="M234.3,954.7c13.3,12.5,28.2,18.1,44.3,17.5c16.2-0.6,30.5-7.1,43.3-18.3c12.9-11.2,23.2-26.9,31.8-46.4
			c8.6-19.5,14.3-42.1,18-68c3.6-24.5,4.8-45,2.8-62.8s-5.5-32.4-11.2-44.2c-5.7-11.7-12.1-21.1-19.7-27.8
			c-7.1,20.5-13.2,41.7-18.4,63.6c2.9,6.4,4.8,14.2,5.8,23.4s0,21.9-2.5,38.8c-2.5,17.1-6.3,31-12,41.7c-5.7,10.6-12.6,18-21,21.7
			c4-71.2,17.1-136.4,37.8-195.6c-4.7-2.9-9.4-5.3-14-7c-15.4-6.1-31.1-6.8-47-1.2s-30.8,17.9-43.8,37.6
			c-12.9,19.7-22.7,46.4-27.6,80c-4.9,33.6-3.4,64.2,3.1,89.7S221,942.2,234.3,954.7z M244,815.6c2.9-19.7,8.2-34.7,15.2-45
			c7-10.4,15.2-16.2,24.3-18c-10.6,43.6-17.5,90.1-20.2,139.2c-8.1-5.3-14.2-14.4-17.8-27.4C241.8,851.4,241.1,834.9,244,815.6z"/>
		<path class="st0" d="M336.3,681.7c14.7,7,30,8.8,45.6,6.3c15.7-2.5,30.6-9.5,45.5-20.4s28.3-25.6,41.2-44.3
			c12.2-17.6,20.9-33.5,25.8-48.8c4.9-15.2,7.2-28.8,6.5-41c-0.7-12.1-3-22.7-7.3-31.7c-14.2,13.8-27.7,28.4-40.6,43.7
			c0.2,6.6-1,13.7-3.5,21.5s-8.1,17.5-16.6,29.6c-8.5,12.3-17.1,21.4-26.1,27s-18,8-26.9,7c29.6-52.7,65.7-98.9,106.8-138.6
			c-3.2-4.5-6.5-8.6-10.1-12.2C465,468,451,460.4,434.5,457.9s-34.6,0.9-53.7,11c-19.1,10-37.9,27-54.7,51.2
			c-16.8,24.2-26.7,48.5-30.1,70.9c-3.4,22.5-0.9,41.8,6.6,57.2C310.1,663.7,321.6,674.7,336.3,681.7z M341.5,587.8
			c1.2-11.7,6.3-25,15.8-39.1c9.6-14.4,19.7-24.1,29.8-29.4c10-5.3,19.6-6.5,28.6-4c-25.2,31-47.9,64.9-67.5,101.6
			C342.6,609.3,340.3,599.5,341.5,587.8z"/>
		<path class="st0" d="M590.1,489.4c-14-17.1-28.1-34.3-42.1-51.5c-10.6-12.9-15.2-25.6-13.5-38.2c1.7-12.6,9.6-23.9,23.6-33.2
			c14-9.3,27.7-12.3,40.5-9.3s23.3,11.8,31.8,26c11.3,18.9,22.7,37.9,34.1,56.8c16.2-9,32.8-17.3,49.7-24.8
			c-11.7-24.3-23.5-48.5-35.2-72.7c-12.1-25.2-29.2-41.7-52.2-48.1c-23-6.4-49.1-1.9-75.9,14.5c-40.1,24.7-52.2,57.2-37.8,90.7
			c-1.7,1.3-3.5,2.7-5.2,4.1c-8-14.5-15.8-29-23.5-43.7c-18.6,14.5-36.6,30-53.8,46.5c39,39.8,78,79.6,117,119.4
			C561.2,512.9,575.3,500.7,590.1,489.4z"/>
		<path class="st0" d="M737.5,365.2c19.5,8.9,40.2,9.5,64.1,2.7c17.2-4.8,30-11.7,38.6-21.4c8.6-9.7,13.5-22.9,14.7-40
			c1.8-0.4,3.6-0.7,5.4-1c0.3,1.4,0.6,2.9,0.9,4.4c4.3,22,1.1,40-8.2,54.3c-9.4,14.4-25.3,24.1-48.5,30.8c-9,2.6-18.2,4.5-27.9,5.9
			c-9.7,1.4-21,2.1-34.2,2.5c6.8,15.5,13.7,31.1,20.5,46.7c10.7,0.4,20.8,0.1,30.5-0.8s19.8-2.9,30.3-5.9
			c34.3-9.8,57.9-24.8,72.7-49.1c14.6-24.2,21-58.8,16-104.6c-3.6-32.4-7.3-64.8-10.9-97.2c-23.6,2.4-47,5.8-70.2,10.1
			c3.8,18.6,7.7,37.3,11.5,56c3,14.8,1.1,27.1-5.2,36.9c-6.3,9.9-16.3,16.3-30.2,19.8c-13.8,3.4-25.7,2.5-36.3-3.1
			c-10.6-5.6-18.6-15.3-23.7-29.6c-6.4-18-12.7-36.1-19.1-54.1c-22.4,7.2-44.5,15.3-66.2,24.4c9.6,21,19.3,42,28.9,63
			C702.3,340.4,718.1,356.4,737.5,365.2z"/>
		<path class="st0" d="M1061.4,364.5c11.6-26.6,24.2-52.9,37.7-78.9c5.4-11.1,9.4-20,11.8-26.9c2.4-6.9,5.2-17.7,8.3-32.5
			c0.1-0.5,0.2-0.9,0.3-1.3c2.1,0.5,4.3,0.9,6.4,1.3c-0.1,0.5-0.2,0.9-0.3,1.3c-3.2,14.7-5.1,25.7-5.8,32.9
			c-0.6,7.2-0.7,16.9-0.3,29.1c1.6,28.9,2.2,57.8,1.9,86.6c25.9,6.3,51.4,14.1,76.2,23.5c46-63.6,98-124.1,155.6-180.7
			c-28.1-13.5-56.9-25.4-86.3-35.8c-27,36.3-52.4,73.5-76,111.4c-8.8,15.3-15.8,31.4-21.3,48c-0.3,1-0.7,2.1-1,3.1
			c-1.8-0.5-3.6-1.1-5.4-1.6c0.3-1,0.7-2.1,1-3.1c6.2-19.4,10-36.4,11.1-51.1c1.4-31.6,1.7-63.3,1-95.2
			c-29.6-7.4-59.6-13.3-89.8-17.6c-13.9,29-26.8,58.3-38.6,87.8c-5.2,14-8.7,31-11,51.1c-0.2,1.1-0.3,2.1-0.4,3.2
			c-1.8-0.2-3.7-0.4-5.6-0.6c0.1-1.1,0.2-2.1,0.3-3.2c1.9-17.3,2.1-34.7,0.4-52.1c-6-43.7-13.9-87.4-23.6-131
			c-31.3-1.6-62.6-1.6-93.9-0.1c29.3,73.9,52,149.2,67.8,225C1008.6,357.9,1035.2,360.3,1061.4,364.5z"/>
		<path class="st0" d="M1302.9,306c-14.7,7.6-25.4,19-32.6,33.6c-7.2,14.5-9.7,29.5-8.2,44.8c1.6,15.3,7.4,29.8,17.1,44.1
			c9.8,14.3,23.5,27,41.4,39.2c17,11.6,32.6,19.8,47.8,24.3c15.2,4.5,28.8,6.6,41,5.7c12.2-0.9,22.9-3.3,31.9-7.6
			c-14-13.9-28.6-27-43.7-39.3c-6.5,0.3-13.5-0.7-21.2-3c-7.7-2.3-17.1-7.6-28.8-15.6c-11.8-8.1-20.3-16.2-25.4-24.9
			s-7.1-17.3-5.8-26.1c48.9,27.8,94.4,61.8,134.8,102.1c4.6-3.2,8.6-6.6,12.1-10.1c11.9-11.6,19.4-25.4,21.8-41.8
			c2.4-16.3-1.1-34.1-11.1-52.7c-10-18.6-26.7-36.6-49.9-52.5c-23.3-15.9-46.2-25-67.3-27.8C1335.7,295.6,1317.6,298.4,1302.9,306z
			 M1361.3,346.6c11.1,1.2,23.7,6.2,37.2,15.3c13.6,9.3,22.8,19.2,27.7,29.1c4.9,9.9,5.8,19.3,3.1,28.1
			c-30.1-24.8-62.3-46.8-96.1-65.9C1340.7,347.7,1350.1,345.4,1361.3,346.6z"/>
		<path class="st0" d="M1451.8,519.7c-3.8,15.3-3.4,31.4,0.8,48.8c4.2,17.5,12.6,35,25.1,53.9c11.8,18,23.5,32.3,36.1,42.9
			c12.5,10.6,24.4,18.3,36.1,22.5c11.7,4.2,22.4,6.3,32.3,5.7c-8.1-19.9-17.1-39-26.9-57.3c-6.1-2.2-12.3-6.1-18.7-11.4
			s-13.4-14.3-21.5-26.7c-8.2-12.6-13.3-23.7-15.1-34.1c-1.7-10.4-0.6-19.5,3.6-27.5c36.2,45.2,66.8,96.6,90.1,154.2
			c5.3-1.4,10.3-3,14.9-5.1c15.2-6.7,27-17.5,35-32.9s11-34.7,8.2-57.2c-2.8-22.4-12-46.9-28.2-71.5c-16.2-24.6-34.5-42-53.3-52.6
			c-18.9-10.6-36.8-14.4-53.2-12.4c-16.5,2.1-30.4,9.2-42.2,20.6C1463.1,491,1455.6,504.5,1451.8,519.7z M1557.5,519.7
			c10,5.4,20,15,29.4,29.2c9.5,14.4,14.7,27.8,15.8,39.5c1.1,11.7-1.3,21.4-6.9,29c-19.4-36.8-41.9-70.8-66.9-101.9
			C1537.9,513.1,1547.4,514.4,1557.5,519.7z"/>
		<path class="st0" d="M1564.7,794.6c20.8-7.2,41.5-14.5,62.3-21.8c15.5-5.5,29.1-4.9,40.6,2.7c11.5,7.5,19.8,21.2,24.2,41
			c4.4,19.8,2.8,36.9-4.2,49.9c-7,13.1-18.8,20.7-34.9,23.3c-21.5,3.5-43.1,7-64.7,10.5c3.2,23.2,5.3,47.3,6.4,72.1
			c26.6-1.1,53.3-2.3,79.9-3.4c27.7-1.1,49.1-13.1,62.9-37.3c13.7-24,18.3-57.1,11.4-95.3c-10.5-57.1-37.9-83.9-74.3-83.6
			c-0.7-2.4-1.5-4.9-2.3-7.3c16.3-2.1,32.6-4,49-5.6c-8.1-26.2-17.3-51.4-27.6-75.6c-50.1,23.6-100.2,47.2-150.3,70.8
			C1551.2,754,1558.5,773.9,1564.7,794.6z"/>
		<path class="st0" d="M1656.7,1093c9.9-8.7,22-12.1,36.6-9.5c18.4,3.3,36.9,6.6,55.3,9.9c4.5-29.7,7.6-60.5,9.2-92.5
			c-22.4-1.2-44.9-2.3-67.4-3.4c-26.2-1.3-47.1,8.3-63.4,25.9c-16.5,17.7-26.5,41.3-32.4,71.4c-4.3,21.6-4.9,39-1.1,53.5
			c3.8,14.5,12.4,27,26.1,37.7c-0.7,2-1.3,4-2,6c-1.4-0.5-2.8-1.1-4.2-1.6c-20.7-8-34.2-21.1-41.4-38.8c-7.3-17.8-7.4-39.9-1.9-69.3
			c2.1-11.4,4.9-22.9,8.2-34.8c3.3-11.8,7.9-25.4,13.4-41.3c-16.5-1.3-33.1-2.5-49.6-3.7c-5.1,12.4-9.5,24.3-13.2,35.9
			c-3.7,11.6-6.7,24-9.3,37.3c-8.3,43.1-8.1,74.9,4.4,103.1c12.5,27.9,37.8,53.1,78.8,73.6c29.1,14.4,58.1,28.8,87.1,43.2
			c10.9-24.2,20.7-49.5,29.2-75.9c-17.7-6.5-35.4-13-53.1-19.5c-14-5.2-23.3-13.9-28.3-26c-5.1-12.2-5.4-26.2-1.4-43.2
			C1640.2,1114.3,1646.8,1101.6,1656.7,1093z"/>
		<path class="st0" d="M368.9,1115.4c-5.5-23.9-9.7-48.8-12.4-74.7c-54.8,7.5-109.6,15-164.3,22.5c-4.4-42.1-5.8-86.3-3.8-132.5
			c-18.8-0.8-37.6-1.6-56.4-2.4c-6,138.8,16,260.6,58.9,365.1c17.4-7.8,34.8-15.6,52.2-23.4c-14.3-34.8-26.1-71.7-35.1-110.6
			C261.6,1144.7,315.3,1130.1,368.9,1115.4z"/>
		<path class="st0" d="M1769.7,1453.7c-15.9-16.4-43.3-25.1-75.1-23.9c-34.3,1.3-72-11.3-83-15.3c-27.4-51.7-63.5-92.7-107.5-122.1
			c-35.9-24-77.1-40.2-122.3-48.2c-45-8-84.7-6.3-110.3-3.3c-16.2-20.9-33.3-41-51-59.8c10.3-17.8,18.4-36.9,24.4-57.2
			c14-47.9,12.7-91.7,9.1-119.9l0-0.4c-1.2-9.6-2.9-18.8-4.9-27.4c-3.9-17.2-9.3-33.4-16.1-48.2c-5.8-12.7-12.6-24.5-20.3-35.1
			c0.6-15.1-1.8-32-7.1-50.2c-9.9-34-25.1-59.4-33.1-71.5l-0.1-0.2c-6.9-10.1-13.3-17.5-19.6-22.8c-9.2-7.6-18.7-11-28.3-10
			l-1.2,0.1l-0.1,0c-4.2,0.6-29.5,4.7-59.2,19.6c-18.8,9.4-35.7,21.2-50.2,35.1c-11.6,11.1-21.7,23.5-30.2,37.1
			c-11.6-11.1-24.5-20.6-38.5-28.4c-17.6-9.8-36.9-17-57.4-21.4c-35-7.5-61.7-4.2-62.9-4.1c-9.8,1.3-18.3,6.9-25.4,16.8
			c-4.8,6.6-9.1,15.4-13.2,27l0,0.1c-4.8,13.8-13.1,42.1-14.2,77.5c-0.6,20.1,1.6,37.9,6.5,52.9c-7.7,19.3-12.5,40.9-14.1,64.1
			c-1.7,14.7-1.2,33.6,1.5,53.3l0.1,1.2c3.5,26.4,10.1,50.8,19.7,72.7c11.8,28.9,27.8,54.9,47.4,77.1c3,3.5,6.2,6.8,9.4,10.1
			c-13.1,23.9-25.2,49.1-36.1,74.8c-34.8,12.4-88.2,26.7-123.6,14.1c-11.8-4.2-20.5-11-26.3-20.7c9.2-14.4,33.2-57.8,26.2-109
			c-8.1-59-35.1-78.1-55.3-91.6c-1.1-12.2-2.7-50,14.3-79.1c12.5-21.6,14.8-43.8,6.1-60.9c-7-13.9-20.2-22.9-36.2-24.6
			c-13.7-1.5-34.5,3.7-51.5,22.6c-17.3,19.1-34.4,56.7-22.2,128.5c-6.3-1-14.2-1.5-22.9-0.7c-19.6,1.9-47.3,11.5-67.6,46.5
			c-11.5,19.7-16.5,46.1-14.6,76.1c1.8,27.7,9.4,55.8,21.5,79c15.2,29.2,35.7,47.4,58.2,51.8c3.1,8.4,9.9,25,21.7,43.1
			c22.1,34.1,51.3,57.3,84.2,67.1c18.4,5.5,36.5,8.2,54.4,8.2c22.9,0,45.7-4.5,68.6-13.4c7.8-3.1,15.7-6.6,23.5-10.7
			c-5.5,23.4-9.8,46.6-12.7,69.5c-5.5,42.8-5.5,82.2-0.2,117.8c-39.1-38.4-74.2-68.8-107.1-92.7c-37.8-27.6-74.5-47.7-108.9-59.7
			c-35.8-12.6-71-17.1-104.6-13.6c-29.7,3.1-70.7,15.3-93.4,27.6c-30.4,16.5-51,40.8-56.5,66.5c-4.1,19.3,0.4,38.4,13.1,55
			c23.8,31.2,62.2,37,105.2,16c48.7-23.8,79.1-28.6,112.5-17.8c40.9,13.2,88.5,49.4,149.7,113.9c52.6,55.2,112.6,88.5,178.3,99.1
			c15.2,2.4,30.7,3.7,46.5,3.7c5.2,0,10.5-0.2,15.7-0.4l0,43.1l-0.1,129.3c-7.6,0.9-19,2.8-31.4,7.2c-29,10.4-49.5,29.4-59.3,55.2
			c-7.4,19.5-8.6,39.3-3.8,57.2c-78.8,9.6-124,23.3-124,38.7c0,29.1,162.4,52.9,408.1,53.2c245.7,0.3,388-23.2,388-52.3
			c0-16.1-43.4-30.6-123.7-40.3c4.4-17.5,3.1-36.8-4.1-55.8c-9.7-25.7-30.2-44.8-59.2-55.3c-12.4-4.5-23.9-6.4-31.4-7.3l0.2-198.4
			c47.1-23.6,84.5-55.2,108.7-92.9c47.4-71.3,49.3-166.9,5.4-276.5l0,0c-11.5-28.6-25.4-57.2-41.5-85.4
			c123.5,24.4,167.2,150.8,175.6,179.7c7.2,24.7,6.1,39.7-4.5,59.5c-14.1,26.4-12.5,43.9-8.7,53.9c3.7,9.7,11.2,17,21.1,20.6
			c4.2,1.5,8.4,2.3,12.6,2.3c17.5,0,34-13.2,45.8-37.5c4.7-9.6,9.9-26.9,13.2-38.6c20.6,11.8,41.6,18.4,62.6,19.6
			c21.5,1.2,42.5-3.1,62.4-12.9c41.1-20.1,68.5-59.7,70.2-84.8C1785.9,1479.8,1780.7,1465,1769.7,1453.7z M1074.1,2093.3
			c-0.3-7.5-1.5-15.4-3.5-23.9c-10-41.7-17-116.5-20.2-172.6c-1.2-20.3-1.9-40.2-2.1-59.5c19.4-0.2,39.4-1.5,59.7-4.1
			c1.2-0.2,5.8-0.7,7.1-0.9c0.3,0,0.5-0.1,0.8-0.1c-0.2,20.8-1,42.6-2.3,64.7c-3.4,56.2-10.5,131-20.6,172.5
			c-2,8.5-3.2,16.4-3.6,23.9C1084.3,2093.3,1079.1,2093.3,1074.1,2093.3z"/>
	</g>
	<g>
		<g>
			<g>
				<path class="st1" d="M633.4,535.6c8.4,11.4,16.8,22.7,25.2,34.1c-43.2,34-82.7,77.2-116.7,130.3c7.3,5,14.6,10,21.9,14.9
					c27.7-43.3,59.2-79.6,93.5-109.4c7.9,9.7,15.8,19.4,23.6,29.1c-31.7,27.6-60.9,61.2-86.5,101.2c8.1,5.5,16.1,11,24.2,16.5
					c27.9-43.7,60.4-79.2,96-107.2c8.4,11.4,16.8,22.7,25.2,34.1c-46.2,36.4-86.6,86.8-117.4,153.1
					c-53.3-24.7-106.5-49.4-159.8-74.1C507.4,661.8,566.2,588.5,633.4,535.6z"/>
				<path class="st1" d="M762.8,662.8c-24.6-35.7-49.3-71.5-73.9-107.2c16.7-12,33.9-22.8,51.6-32.2c3.5,12.6,7.1,25.1,10.9,37.5
					c1.6-0.9,3.3-1.8,4.9-2.7c-5.5-28.3,10.3-53.1,47.4-66.4c24.8-8.7,46.7-7.7,63.6,1.3c17,9,26.9,24.9,31.1,46.4
					c4.1,20.7,8.1,41.4,12.2,62.1c-14.4,2.4-28.7,5.7-42.9,9.9c-5.2-16.5-10.4-33-15.7-49.5c-3.9-12.3-10.4-20.9-19.9-25.3
					c-9.5-4.4-21-4.2-33.9,1.1c-12.9,5.3-21.3,13.3-24.9,23c-3.7,9.8-2.2,20.4,3.9,31.9c8.1,15.3,16.2,30.6,24.4,45.9
					C788.3,645.7,775.4,653.7,762.8,662.8z"/>
				<path class="st1" d="M972.8,644.7c-7.9-1.3-16.1-3.3-24.9-5.9c-2.1-13.5-4.2-27.1-6.4-40.6c11.3,2.3,20.9,4.2,28.9,5.2
					c8,1.1,16.3,1.6,24.9,1.7c20.8,0.3,36.3-2.7,47.5-10.5c11.1-7.8,18.3-19.5,20.6-35.6c0.1-0.9,0.2-1.7,0.4-2.6
					c-1.4-0.2-2.8-0.4-4.2-0.7c-6,10.5-13.8,17.8-23.5,22.2c-9.7,4.5-22.8,6.1-39.8,5.8c-13.9-0.2-26-2.5-37-7.2
					c-10.9-4.7-20.1-11.3-27.4-20.2c-7.3-8.9-12.4-19.3-14.7-31.5c-2.2-12.2-1.1-23.6,4-34s13.8-19.1,26.2-25.5s28-9.8,46-9.6
					c42.3,0.8,67.4,17.8,73.2,44.1c1.9,0.3,3.7,0.6,5.6,0.9c-1-11.8-2.3-23.7-3.7-35.5c20,3,39.8,7,59.4,12
					c-6.1,25.4-12.3,50.9-18.4,76.3c-8.9,36.1-23.5,60.3-41.2,74.6c-17.9,14.3-40,19.4-69.6,18.7C989.3,646.7,980.7,646,972.8,644.7
					z M1047.1,545.2c7.7-4.2,12.2-10.2,13.2-18.3c1-7.9-2-15-9.3-21.1c-7.3-6-19.1-9.9-35.1-10.8c-15.8-0.9-27.6,1.7-35.1,6.9
					c-7.5,5.2-10.8,12-10.3,20c0.6,8.2,4.7,14.6,12.1,19.7c7.4,5,17.9,7.6,31.9,8.4C1028.6,550.8,1039.4,549.4,1047.1,545.2z"/>
				<path class="st1" d="M1158.8,635c-13.9-6.9-28.2-13.1-42.7-18.6c21.5-58.2,43-116.4,64.5-174.6c21.2,8,41.9,17,62.2,27.1
					C1214.8,524.2,1186.8,579.6,1158.8,635z"/>
				<path class="st1" d="M1274.7,510.8c-3.3-7.6-3.2-14.6,0.7-21c3.8-6.4,10-10,18.7-10.4s18.4,2.7,28.7,9.4
					c10.3,6.7,16.9,14.3,19.8,22.4s1.9,15-2.7,20.9c-4.6,5.9-11.2,8.7-19.6,8.6c-8.4-0.1-17.2-3.3-26.6-9.4
					C1284.4,525.1,1278,518.4,1274.7,510.8z M1224.8,674.5c-12.9-9.4-26.2-18.1-40-26.2c24-39.7,47.9-79.4,71.9-119.2
					c18.3,10.7,36.1,22.3,53.2,34.8C1281.5,600.9,1253.2,637.7,1224.8,674.5z"/>
				<path class="st1" d="M1260,688.1c-2.9-15.9,0.1-29.7,10.6-41.4c0.4-0.5,0.8-0.9,1.3-1.4c13.5,11.6,26.4,23.9,38.5,36.9
					c-0.3,0.2-0.5,0.5-0.8,0.7c-8.9,7.9-4.7,20.4,10.5,39.5c8.7,11,15.1,18.3,20,21.4c4.8,3.1,8.9,3.7,12.1,1.7
					c3.8-2.4,4.4-6.9,1.5-13.4s-8.6-16.2-17.7-28.3c-10.5-13.8-19.5-25.2-26.3-34.6c-6.8-9.4-11.4-18.9-13.7-28.9
					c-2.3-10,0.1-19.2,7.8-27.7c8.6-9.5,21.8-12.3,39.7-6.8c17.7,5.5,40.7,22,64.4,51.8c22,27.8,31.6,53.3,31.4,72.9
					c-0.3,19.7-8,33-21.4,40.4c-8.6-17.3-18.3-33.9-29-49.9c3.9-3.2,5.6-8.2,4.6-15.1c-1-6.9-5.6-16.1-14.3-27.2
					c-9.7-12.2-17.7-19.5-23.2-22.5c-5.6-3-9.8-3.2-12.5-0.9c-3.1,2.7-2.7,7.1,1.1,13.3c3.8,6.2,10.7,15.5,20.1,28.5
					c10.9,15.3,18.5,28.8,23.5,39.8s6.9,22,5.9,32.3c-1,10.4-7.1,17.9-17.8,22.9c-12.6,5.9-25.6,4.5-39.1-2.8
					c-13.7-7.3-27.7-23-45.7-45.9C1274,721.5,1263,704.1,1260,688.1z"/>
				<path class="st1" d="M1346.2,824.5c55.3-25.1,110.6-50.3,165.9-75.4c9.3,19.8,17.5,40.2,24.3,61.3c-12.9,4.2-25.8,8.4-38.7,12.5
					c-13.9,4.5-30,6.6-48.1,7.2c0.6,1.8,1.2,3.6,1.8,5.3c29.3-0.6,51.2,19.3,58,60.7c4.3,27.6-0.8,51.1-13,67.6
					c-12.3,16.7-30.1,24.4-52.3,24.4c-21.4,0.1-42.8,0.2-64.2,0.3c0.5-16.6,0-32.8-1.6-48.7c17.4-2.2,34.9-4.5,52.3-6.7
					c13-1.6,22.8-6.9,28.9-16s7.9-21.3,4.9-35.5s-9.5-24.2-18.6-29.6c-9.1-5.4-20-5.8-32.6-1.7c-16.8,5.4-33.5,10.9-50.3,16.3
					C1358.2,852.2,1352.6,838.1,1346.2,824.5z"/>
			</g>
		</g>
		<g>
			<path class="st2" d="M337.9,698.3c-20.7,59.2-33.8,124.4-37.8,195.6c8.4-3.7,15.3-11.1,21-21.7c5.7-10.7,9.5-24.6,12-41.7
				c2.5-16.9,3.5-29.6,2.5-38.8s-2.9-17-5.8-23.4c5.2-21.9,11.3-43.1,18.4-63.6c7.6,6.7,14,16.1,19.7,27.8
				c5.7,11.8,9.2,26.4,11.2,44.2s0.8,38.3-2.8,62.8c-3.7,25.9-9.4,48.5-18,68s-18.9,35.2-31.8,46.4c-12.8,11.2-27.1,17.7-43.3,18.3
				c-16.1,0.6-31-5-44.3-17.5c-13.3-12.5-23.8-31.8-30.3-57.3s-8-56.1-3.1-89.7c4.9-33.6,14.7-60.3,27.6-80
				c13-19.7,27.9-32,43.8-37.6c15.9-5.6,31.6-4.9,47,1.2C328.5,693,333.2,695.4,337.9,698.3z M250.1,864.4
				c3.6,13,9.7,22.1,17.8,27.4c2.7-49.1,9.6-95.6,20.2-139.2c-9.1,1.8-17.3,7.6-24.3,18c-7,10.3-12.3,25.3-15.2,45
				C245.7,834.9,246.4,851.4,250.1,864.4z"/>
			<path class="st2" d="M491.3,492c-41.1,39.7-77.2,85.9-106.8,138.6c8.9,1,17.9-1.4,26.9-7s17.6-14.7,26.1-27
				c8.5-12.1,14.1-21.8,16.6-29.6s3.7-14.9,3.5-21.5c12.9-15.3,26.4-29.9,40.6-43.7c4.3,9,6.6,19.6,7.3,31.7
				c0.7,12.2-1.6,25.8-6.5,41c-4.9,15.3-13.6,31.2-25.8,48.8c-12.9,18.7-26.3,33.4-41.2,44.3c-14.9,10.9-29.8,17.9-45.5,20.4
				c-15.6,2.5-30.9,0.7-45.6-6.3c-14.7-7-26.2-18-33.7-33.5c-7.5-15.4-10-34.7-6.6-57.2c3.4-22.4,13.3-46.7,30.1-70.9
				c16.8-24.2,35.6-41.2,54.7-51.2c19.1-10.1,37.2-13.5,53.7-11s30.5,10.1,42.1,21.9C484.8,483.4,488.1,487.5,491.3,492z
				 M346.1,587.8c-1.2,11.7,1.1,21.5,6.7,29.1c19.6-36.7,42.3-70.6,67.5-101.6c-9-2.5-18.6-1.3-28.6,4c-10.1,5.3-20.2,15-29.8,29.4
				C352.4,562.8,347.3,576.1,346.1,587.8z"/>
			<path class="st2" d="M552.2,525.9c-39-39.8-78-79.6-117-119.4c17.2-16.5,35.2-32,53.8-46.5c7.7,14.7,15.5,29.2,23.5,43.7
				c1.7-1.4,3.5-2.8,5.2-4.1c-14.4-33.5-2.3-66,37.8-90.7c26.8-16.4,52.9-20.9,75.9-14.5s40.1,22.9,52.2,48.1
				c11.7,24.2,23.5,48.4,35.2,72.7c-16.9,7.5-33.5,15.8-49.7,24.8c-11.4-18.9-22.8-37.9-34.1-56.8c-8.5-14.2-19-23-31.8-26
				s-26.5,0-40.5,9.3s-21.9,20.6-23.6,33.2s2.9,25.3,13.5,38.2c14,17.2,28.1,34.4,42.1,51.5C579.9,500.7,565.8,512.9,552.2,525.9z"
				/>
			<path class="st2" d="M798,449.3c-9.7,0.9-19.8,1.2-30.5,0.8c-6.8-15.6-13.7-31.2-20.5-46.7c13.2-0.4,24.5-1.1,34.2-2.5
				s18.9-3.3,27.9-5.9c23.2-6.7,39.1-16.4,48.5-30.8c9.3-14.3,12.5-32.3,8.2-54.3c-0.3-1.5-0.6-3-0.9-4.4c-1.8,0.3-3.6,0.6-5.4,1
				c-1.2,17.1-6.1,30.3-14.7,40c-8.6,9.7-21.4,16.6-38.6,21.4c-23.9,6.8-44.6,6.2-64.1-2.7c-19.4-8.8-35.2-24.8-46.5-49.3
				c-9.6-21-19.3-42-28.9-63c21.7-9.1,43.8-17.2,66.2-24.4c6.4,18,12.7,36.1,19.1,54.1c5.1,14.3,13.1,24,23.7,29.6
				c10.6,5.6,22.5,6.5,36.3,3.1c13.9-3.5,23.9-9.9,30.2-19.8c6.3-9.8,8.2-22.1,5.2-36.9c-3.8-18.7-7.7-37.4-11.5-56
				c23.2-4.3,46.6-7.7,70.2-10.1c3.6,32.4,7.3,64.8,10.9,97.2c5,45.8-1.4,80.4-16,104.6c-14.8,24.3-38.4,39.3-72.7,49.1
				C817.8,446.4,807.7,448.4,798,449.3z"/>
			<path class="st2" d="M986.5,357.1c-15.8-75.8-38.5-151.1-67.8-225c31.3-1.5,62.6-1.5,93.9,0.1c9.7,43.6,17.6,87.3,23.6,131
				c1.7,17.4,1.5,34.8-0.4,52.1c-0.1,1.1-0.2,2.1-0.3,3.2c1.9,0.2,3.8,0.4,5.6,0.6c0.1-1.1,0.2-2.1,0.4-3.2
				c2.3-20.1,5.8-37.1,11-51.1c11.8-29.5,24.7-58.8,38.6-87.8c30.2,4.3,60.2,10.2,89.8,17.6c0.7,31.9,0.4,63.6-1,95.2
				c-1.1,14.7-4.9,31.7-11.1,51.1c-0.3,1-0.7,2.1-1,3.1c1.8,0.5,3.6,1.1,5.4,1.6c0.3-1,0.7-2.1,1-3.1c5.5-16.6,12.5-32.7,21.3-48
				c23.6-37.9,49-75.1,76-111.4c29.4,10.4,58.2,22.3,86.3,35.8c-57.6,56.6-109.6,117.1-155.6,180.7c-24.8-9.4-50.3-17.2-76.2-23.5
				c0.3-28.8-0.3-57.7-1.9-86.6c-0.4-12.2-0.3-21.9,0.3-29.1c0.7-7.2,2.6-18.2,5.8-32.9c0.1-0.4,0.2-0.8,0.3-1.3
				c-2.1-0.4-4.3-0.8-6.4-1.3c-0.1,0.4-0.2,0.8-0.3,1.3c-3.1,14.8-5.9,25.6-8.3,32.5s-6.4,15.8-11.8,26.9
				c-13.5,26-26.1,52.3-37.7,78.9C1039.8,360.3,1013.2,357.9,986.5,357.1z"/>
			<path class="st2" d="M1455.8,483.3c-40.4-40.3-85.9-74.3-134.8-102.1c-1.3,8.8,0.7,17.4,5.8,26.1c5.1,8.7,13.6,16.8,25.4,24.9
				c11.7,8,21.1,13.3,28.8,15.6c7.7,2.3,14.7,3.3,21.2,3c15.1,12.3,29.7,25.4,43.7,39.3c-9,4.3-19.7,6.7-31.9,7.6
				c-12.2,0.9-25.8-1.2-41-5.7s-30.8-12.7-47.8-24.3c-17.9-12.2-31.6-24.9-41.4-39.2c-9.7-14.3-15.5-28.8-17.1-44.1
				c-1.5-15.3,1-30.3,8.2-44.8c7.2-14.6,17.9-26,32.6-33.6s32.8-10.4,53.9-7.6s44,11.9,67.3,27.8c23.2,15.9,39.9,33.9,49.9,52.5
				s13.5,36.4,11.1,52.7c-2.4,16.4-9.9,30.2-21.8,41.8C1464.4,476.7,1460.4,480.1,1455.8,483.3z M1365.9,346.6
				c-11.2-1.2-20.6,1.1-28.1,6.6c33.8,19.1,66,41.1,96.1,65.9c2.7-8.8,1.8-18.2-3.1-28.1s-14.1-19.8-27.7-29.1
				C1389.6,352.8,1377,347.8,1365.9,346.6z"/>
			<path class="st2" d="M1598.3,690.7c-23.3-57.6-53.9-109-90.1-154.2c-4.2,8-5.3,17.1-3.6,27.5c1.8,10.4,6.9,21.5,15.1,34.1
				c8.1,12.4,15.1,21.4,21.5,26.7s12.6,9.2,18.7,11.4c9.8,18.3,18.8,37.4,26.9,57.3c-9.9,0.6-20.6-1.5-32.3-5.7
				c-11.7-4.2-23.6-11.9-36.1-22.5c-12.6-10.6-24.3-24.9-36.1-42.9c-12.5-18.9-20.9-36.4-25.1-53.9c-4.2-17.4-4.6-33.5-0.8-48.8
				c3.8-15.2,11.3-28.7,23.1-40.1c11.8-11.4,25.7-18.5,42.2-20.6c16.4-2,34.3,1.8,53.2,12.4c18.8,10.6,37.1,28,53.3,52.6
				c16.2,24.6,25.4,49.1,28.2,71.5c2.8,22.5-0.2,41.8-8.2,57.2s-19.8,26.2-35,32.9C1608.6,687.7,1603.6,689.3,1598.3,690.7z
				 M1562.1,519.7c-10.1-5.3-19.6-6.6-28.6-4.2c25,31.1,47.5,65.1,66.9,101.9c5.6-7.6,8-17.3,6.9-29s-6.3-25.1-15.8-39.5
				C1582.1,534.7,1572.1,525.1,1562.1,519.7z"/>
			<path class="st2" d="M1547.7,735c50.1-23.6,100.2-47.2,150.3-70.8c10.3,24.2,19.5,49.4,27.6,75.6c-16.4,1.6-32.7,3.5-49,5.6
				c0.8,2.4,1.6,4.9,2.3,7.3c36.4-0.3,63.8,26.5,74.3,83.6c6.9,38.2,2.3,71.3-11.4,95.3c-13.8,24.2-35.2,36.2-62.9,37.3
				c-26.6,1.1-53.3,2.3-79.9,3.4c-1.1-24.8-3.2-48.9-6.4-72.1c21.6-3.5,43.2-7,64.7-10.5c16.1-2.6,27.9-10.2,34.9-23.3
				c7-13,8.6-30.1,4.2-49.9c-4.4-19.8-12.7-33.5-24.2-41c-11.5-7.6-25.1-8.2-40.6-2.7c-20.8,7.3-41.5,14.6-62.3,21.8
				C1563.1,773.9,1555.8,754,1547.7,735z"/>
			<path class="st2" d="M1533.5,1038.4c3.7-11.6,8.1-23.5,13.2-35.9c16.5,1.2,33.1,2.4,49.6,3.7c-5.5,15.9-10.1,29.5-13.4,41.3
				c-3.3,11.9-6.1,23.4-8.2,34.8c-5.5,29.4-5.4,51.5,1.9,69.3c7.2,17.7,20.7,30.8,41.4,38.8c1.4,0.5,2.8,1.1,4.2,1.6
				c0.7-2,1.3-4,2-6c-13.7-10.7-22.3-23.2-26.1-37.7c-3.8-14.5-3.2-31.9,1.1-53.5c5.9-30.1,15.9-53.7,32.4-71.4
				c16.3-17.6,37.2-27.2,63.4-25.9c22.5,1.1,45,2.2,67.4,3.4c-1.6,32-4.7,62.8-9.2,92.5c-18.4-3.3-36.9-6.6-55.3-9.9
				c-14.6-2.6-26.7,0.8-36.6,9.5c-9.9,8.6-16.5,21.3-20.4,38c-4,17-3.7,31,1.4,43.2c5,12.1,14.3,20.8,28.3,26
				c17.7,6.5,35.4,13,53.1,19.5c-8.5,26.4-18.3,51.7-29.2,75.9c-29-14.4-58-28.8-87.1-43.2c-41-20.5-66.3-45.7-78.8-73.6
				c-12.5-28.2-12.7-60-4.4-103.1C1526.8,1062.4,1529.8,1050,1533.5,1038.4z"/>
			<path class="st2" d="M361.1,1040.7c2.7,25.9,6.9,50.8,12.4,74.7c-53.6,14.7-107.3,29.3-160.9,44c9,38.9,20.8,75.8,35.1,110.6
				c-17.4,7.8-34.8,15.6-52.2,23.4c-42.9-104.5-64.9-226.3-58.9-365.1c18.8,0.8,37.6,1.6,56.4,2.4c-2,46.2-0.6,90.4,3.8,132.5
				C251.5,1055.7,306.3,1048.2,361.1,1040.7z"/>
		</g>
		<g>
			<g>
				<g>
					<path class="st3" d="M547.7,1477.9c-3.5-1.4-6.9-2.6-10.3-3.8c-29-10.2-57.8-15-86-14.1c44.9,54.6,26.7,105.8,17.1,124.8
						c17.2-2.2,33.9-0.8,51.4,4.9c0.1,0,0.2,0.1,0.3,0.1C531.2,1576.8,566.5,1530,547.7,1477.9z"/>
					<path class="st3" d="M686.4,1566.1c-14.4-12.2-28.6-23.5-42.6-33.6c-5-3.6-10-7.1-14.9-10.5c-0.3,16.5-5.3,68.2-56.1,94.7
						c15.4,10.4,31.4,23,47.9,37.8C631.8,1649.1,669.3,1626.9,686.4,1566.1z"/>
					<path class="st3" d="M359.4,1481.5c-4.6,2-8.7,3.9-12.3,5.9c-46.9,25.5-68.6,70.3-40.3,107.3c22.2,29.1,56.9,31.1,93.4,13.2
						c3.3-1.6,6.5-3.1,9.7-4.6C431.3,1519.7,385.6,1491,359.4,1481.5z"/>
					<path class="st3" d="M796.4,1663.3c-14.3-9.6-28.3-21.1-41.9-34.6c-1.4-1.4-2.8-2.8-4.2-4.1c-5,11.5-30.9,63.6-78.8,79.3
						c0.7,0.7,1.4,1.5,2.1,2.2c17,17.8,34.2,32.7,51.5,45.2C733.6,1748.7,773.8,1733.4,796.4,1663.3z"/>
					<path class="st3" d="M976.5,1690.3c7.8,13.2,31.6,56.6,22.3,97.2c85.5-29.1,141.9-79.1,148-84.2
						c-25.5-19.1-50.7-39.5-75.8-61.3c0.1-0.1,0.2-0.2,0.4-0.3C1071.1,1641.7,1032.8,1673.5,976.5,1690.3z"/>
					<path class="st3" d="M905.4,1699.8c-15.2-0.5-30.2-2.8-45-6.8c-1.2,11.3-7.5,72.5-47.4,101.7c31.3,9.2,61.8,12,90.4,10.8
						C911.4,1792.8,925.9,1758.6,905.4,1699.8z"/>
				</g>
				<g>
					<g>
						<path class="st4" d="M451.4,1459.9c-4.8,0.2-9.6,0.5-14.4,1c-24.6,2.6-55.9,11.4-77.5,20.6c26.2,9.4,71.9,38.2,50.5,121.8
							c21.2-9.7,40.1-16.2,58.5-18.6C478,1565.7,496.3,1514.5,451.4,1459.9z"/>
						<path class="st4" d="M628.9,1521.9c-27.5-18.7-54.7-33.6-81.2-44.1c18.8,52.1-16.4,98.9-27.5,111.9
							c16.8,5.4,34.3,14.5,52.6,26.9C623.6,1590.1,628.6,1538.5,628.9,1521.9z"/>
						<path class="st4" d="M750.2,1624.6c-21.7-21.3-43-40.9-63.8-58.5c-17.1,60.9-54.6,83-65.7,88.3c16.3,14.5,33.2,31.1,50.7,49.5
							C719.3,1688.2,745.2,1636.1,750.2,1624.6z"/>
						<path class="st4" d="M860.4,1693c-21.9-6-43.3-15.8-64.1-29.7c-22.6,70.1-62.8,85.4-71.3,87.9c29.5,21.2,59.1,35.1,88,43.5
							C852.9,1765.6,859.2,1704.3,860.4,1693z"/>
						<path class="st4" d="M976.5,1690.3c-2.1,0.6-4.2,1.2-6.3,1.8c-21.9,5.9-43.6,8.5-64.8,7.8c20.5,58.7,6,93-2,105.8
							c33.8-1.4,64.9-8.3,91.5-16.9c1.3-0.4,2.6-0.9,3.9-1.3C1008.1,1746.9,984.3,1703.5,976.5,1690.3z"/>
					</g>
				</g>
				<g>
					<g>
						<path class="st5" d="M1146.9,1703.2c-6.2,5.2-64.2,56.7-152,85.6c-81.9,26.4-206.9,37.3-321.4-82.7
							c-57.4-60.6-108.3-101.8-153.6-116.4c-39.1-12.7-74-4-119.6,18.3c-36.5,17.8-71.2,15.8-93.4-13.2
							c-28.3-37-6.6-81.8,40.3-107.3c20.4-11.1,60-23.3,89.8-26.5c32.8-3.5,66.4,1.2,100.4,13.1c34.6,12.1,70.3,32.1,106.5,58.4
							c35.3,25.7,72.4,58.5,110.6,96.3c65.2,64.5,138.7,84,215.8,63.3c59.7-16.1,100.9-50.3,101.2-50.5c-0.1,0.1-0.2,0.2-0.4,0.3
							C1096.1,1663.6,1121.4,1684.1,1146.9,1703.2z"/>
					</g>
				</g>
			</g>
			<path class="st1" d="M688.3,2145.6c0,29.1,162.4,52.9,408.1,53.2s388-23.2,388-52.3c0-29.1-142.2-52.9-387.9-53.2
				S688.4,2116.4,688.3,2145.6z"/>
			<g>
				<g>
					<g>
						<path class="st3" d="M916.3,1996c0,0-69.9,0.6-91.3,57c-19.9,52.4,12.2,100,56.2,100.1c44,0.1,121.4,0.1,121.4,0.1
							s84.5,5.7,63.6-81.7c-10-41.7-17.1-115.8-20.5-174.2c-58.9-8.8-100.7-24.3-129.3-39.3L916.3,1996z"/>
						<path class="st1" d="M1047.5,1735.7l-131,28.4l-0.1,93.9c28.6,15,70.4,30.5,129.3,39.3
							C1042.4,1840.1,1042.7,1781.7,1047.5,1735.7z"/>
					</g>
					<path class="st6" d="M1066.2,2071.6c-10-41.7-17.1-115.8-20.5-174.2c-3.3-57.3-3-115.7,1.8-161.6l-131,28.4l-0.1,93.9
						l-0.1,137.9c0,0-69.9,0.6-91.3,57c-19.9,52.4,12.2,100,56.2,100.1c44,0.1,121.4,0.1,121.4,0.1S1087,2158.9,1066.2,2071.6z"/>
					<path class="st6" d="M957.2,2001.2c0,0-12.9-6.8-40.9-5.2"/>
				</g>
				<g>
					<g>
						<path class="st3" d="M1256.8,1996.4c0,0,69.9,0.8,91.2,57.2c19.8,52.4-12.4,100-56.5,99.9c-44-0.1-121.4-0.1-121.4-0.1
							s-84.5,5.5-63.4-81.8c10.1-41.7,17.3-115.7,20.8-174.1c59-8.7,100.7-24,129.4-39L1256.8,1996.4z"/>
						<path class="st1" d="M1126.1,1735.8l130.9,28.7l-0.1,93.9c-28.7,15-70.4,30.3-129.4,39
							C1130.9,1840.2,1130.8,1781.8,1126.1,1735.8z"/>
					</g>
					<path class="st6" d="M1106.7,2071.6c10.1-41.7,17.3-115.7,20.8-174.1c3.4-57.3,3.3-115.7-1.4-161.7l130.9,28.7l-0.1,93.9
						l-0.1,137.9c0,0,69.9,0.8,91.2,57.2c19.8,52.4-12.4,100-56.5,99.9c-44-0.1-121.4-0.1-121.4-0.1S1085.6,2158.9,1106.7,2071.6z"
						/>
					<path class="st6" d="M1215.8,2001.5c0,0,12.9-6.8,41-5.1"/>
				</g>
			</g>
			<g>
				<path class="st3" d="M1371.8,1423.5c-41.7-103.8-110.9-195.4-175.1-258.3c-63.8-61.3-121.3-95.7-176.9-88.6
					c-55.6,7.1-102.6,54.9-149,130.2c-46.4,77-90.3,183-104.7,294c-14.3,111.2,8.8,201.9,71.6,258.2c61.5,56.7,162.7,79,273.8,65
					c1.2-0.2,5.9-0.8,7.1-0.9c111-14.4,203.4-61.3,248.7-131.7C1413.9,1621.2,1413.5,1527.6,1371.8,1423.5z"/>
				<g>
					<path class="st4" d="M870.1,1715.1c60.4,34.9,143.9,47.3,235.6,36c91.6-12,169.3-45,219.1-93.9
						c50.2-48.7,72.5-113.4,64.1-182.7c-0.1-0.5-0.1-0.9-0.2-1.4c-4.6-16.1-10.2-32.6-16.9-49.4c-6.2-15.4-13-30.5-20.3-45.3
						c0.5,2.9,1,5.8,1.4,8.7c7.7,63.4-12.9,122.6-59.2,167.2c-45.9,44.8-117.6,75.1-202,86.1c-84.5,10.5-161.5-0.8-217.2-32.7
						c-56-31.5-90.8-83.7-99.3-146.9c-0.4-2.9-0.6-5.9-0.9-8.8c-3.3,16.2-6.1,32.5-8.2,48.9c-2.3,17.9-3.6,35.3-4,52
						c0.1,0.5,0.1,1,0.2,1.4C771.5,1623.5,809.3,1680.5,870.1,1715.1z"/>
					<path class="st4" d="M886.7,1518.7c49.5,28,117.9,37.9,193,28.6c75.1-9.8,138.8-36.5,179.7-76.1
						c41.2-39.3,59.6-91.5,52.8-147.4c-0.9-6.4-2.1-13.7-3.8-21.3c-6.5-10.1-13.2-19.9-20-29.5c-5.6,36-22.3,68.9-49.4,95.8
						c-39.1,39.3-100.3,65.7-172.5,75.2c-72.3,9-138.1-1.2-185.8-29.5c-32.9-19.2-57.3-46.8-71.8-80.3c-4.2,11-8.2,22.2-12,33.6
						c0.3,7.8,0.9,15.2,1.7,21.5C806.1,1445.1,836.9,1491,886.7,1518.7z"/>
				</g>
				<path class="st6" d="M1371.8,1423.5c-41.7-103.8-110.9-195.4-175.1-258.3c-63.8-61.3-121.3-95.7-176.9-88.6
					c-55.6,7.1-102.6,54.9-149,130.2c-46.4,77-90.3,183-104.7,294c-14.3,111.2,8.8,201.9,71.6,258.2c61.5,56.7,162.7,79,273.8,65
					c1.2-0.2,5.9-0.8,7.1-0.9c111-14.4,203.4-61.3,248.7-131.7C1413.9,1621.2,1413.5,1527.6,1371.8,1423.5z"/>
			</g>
			<g>
				<path class="st7" d="M849.9,1298.2c0,0-162.3,77.3-199.7-1.6c0,0,35.8-48.7,27.8-107.1c-8-58.4-35-74.1-54.8-87.6
					c0,0-7.2-50.8,15.1-89.1s4.5-68.6-23-71.6c-27.6-3-87.5,28.6-60.8,154.2c0,0-58.8-23.1-94.3,38c-35.5,61.1,2.1,188.6,64,193.8
					c0,0,26.3,87.4,101.6,109.7c84.8,25.2,154.1-13.9,219-73.2"/>
				<path class="st8" d="M516,1147.2c0,0,60.2-19.9,98.8,32.5c38.5,52.4,13.5,162.1-90.7,147.6"/>
				<path class="st8" d="M576,1111.7c0,0-7-10.7-21.6-16.2"/>
			</g>
			<g>
				<path class="st8" d="M1248.2,1254.8c0,0,243.9-59.7,361.4,167.1c0,0,47,18.8,90,17.1c43-1.7,83.3,16.4,80.5,56.7
					s-87.6,133.8-191.6,64.3c0,0-8.8,34.5-15.9,49c-11.5,23.6-28.5,37.2-46.9,30.5c-16.5-6-26.1-26.3-7.4-61.3
					c11.7-22,13.1-39.5,5.2-66.5s-66.4-210.3-257.6-188.8"/>
				<path class="st8" d="M1569.4,1546.2c0,0,7.6,7.1,20.8,15"/>
				<line class="st8" x1="1609.6" y1="1422" x2="1584.3" y2="1412.6"/>
			</g>
			<g>
				<path class="st3" d="M1249.3,1004.8c-1.2-9.3-2.8-18.2-4.8-26.6c-3.8-16.5-9-32.2-15.5-46.4c-6-13.2-13.2-25.4-21.3-36.1
					c1.1-14.9-1.1-31.8-6.5-50.4c-9.6-32.8-24.1-57.3-32-69l0,0l0,0c-6.4-9.4-12.2-16.2-17.8-20.9c-7.3-6.1-14.6-8.7-21.7-7.8l0,0
					l0,0c0,0,0,0,0,0c-1.2,0.1-26.3,3.5-56.8,18.7c-17.9,9-34.1,20.2-47.9,33.5c-13.9,13.3-25.5,28.6-34.7,45.6
					c-13.1-14.2-28.2-26.1-45-35.5c-16.8-9.4-35.2-16.3-54.8-20.5c-33.5-7.2-58.7-4.1-59.7-4l0,0l0,0c-7.1,0.9-13.5,5.3-19.1,13
					c-4.3,5.9-8.2,14-12,24.6l0,0l0,0c-4.6,13.3-12.6,40.6-13.6,74.7c-0.6,20.5,1.8,38.3,7.2,52.9c-8.2,19.3-13.2,41-14.8,64.7
					c-1.7,14-1.2,32.2,1.4,51.3c0,0.1,0,0.2,0,0.3c0,0.2,0.1,0.5,0.1,0.7l0,0l0,0c3.4,25.5,9.8,49.2,19,70.3
					c11.4,28,26.9,53.1,45.8,74.6c22.5,25.4,49.9,45.8,81.5,60.5c56.4,26.2,90.8,24.7,121.2,20.8l0.4,0
					c30.2-3.9,63.8-10.9,111.7-50.3c39.4-32.4,66.7-73.6,80.9-122.5c13.5-46.4,12.3-88.7,8.8-116.1l0-0.1l0,0l0,0L1249.3,1004.8
					L1249.3,1004.8z"/>
				<path class="st4" d="M1192.3,847.9c-7.7-26.4-19.8-49.9-30.8-66.4c-11.2-16.5-21.4-25.8-30.7-24.7c0,0,0,0,0,0
					c-9.2,1.2-16.8,12.8-23.5,31.6c-5.3,15.2-10.1,35.1-12.2,56.9c17.2,1.7,33.5,5.3,48.4,11.5c13.1,5.4,25.1,12.7,35.9,22.2
					c6.7,5.8,12.9,12.4,18.6,19.5C1199.8,883.9,1197.8,866.6,1192.3,847.9z"/>
				<path class="st4" d="M862.5,819.5c-11.2-16.5-21.4-25.8-30.7-24.7c0,0,0,0,0,0c-9.2,1.2-16.8,12.8-23.5,31.6
					c-6.5,18.7-12.3,44.5-13.1,71.9c-0.6,20.5,2,38.6,8,52.8c3.6-8,7.8-15.5,12.6-22.5c8.1-11.9,17.8-22.8,29-32.1
					c12.8-10.6,27.4-19.4,43.5-25.7C880.9,850.6,871.4,832.7,862.5,819.5z"/>
				<path class="st3" d="M1240.1,1006.1c-1.2-9.5-2.8-18.1-4.6-25.7c-7.3-31.9-19.9-59.9-37.3-81.8c-5.7-7.2-11.9-13.7-18.6-19.5
					c-10.8-9.6-22.9-16.8-35.9-22.2c-15-6.2-31.2-9.8-48.4-11.5c2.1-21.7,6.9-41.7,12.2-56.9c6.7-18.7,14.3-30.3,23.5-31.6
					c0,0-97.4,12.3-138.5,105.5c-63.2-79.9-160.5-67.6-160.5-67.6c9.3-1.1,19.4,8.2,30.7,24.7c8.9,13.2,18.4,31.1,25.8,51.4
					c-16.1,6.3-30.8,15-43.5,25.7c-11.2,9.3-21,20.1-29,32.1c-4.8,7-9,14.5-12.6,22.5c-8.8,19.4-14,41.5-15.6,65.4
					c-1.4,11.5-1.4,28.8,1.4,49.2c0,0.4,0.1,0.7,0.1,1.1c3.3,24.7,9.5,47.6,18.4,67.9c20,48.9,57.1,99.8,122.7,130.3
					c54.2,25.2,86.6,23.8,116.1,20c29.5-3.7,61.3-10.4,107.4-48.3c84.7-69.6,94.3-168.1,86.4-230.3
					C1240.1,1006.2,1240.1,1006.1,1240.1,1006.1C1240.1,1006.1,1240.1,1006.1,1240.1,1006.1z"/>
				<g>
					<path class="st6" d="M1195.1,1208.2c20.7-25.4,35.9-54.5,45.4-87c13.5-46.4,12.3-88.7,8.8-116.1l0-0.1l0,0l0,0l0-0.1l0,0
						c-1.2-9.3-2.8-18.2-4.8-26.6c-3.8-16.5-9-32.2-15.5-46.4c-6-13.2-13.2-25.4-21.3-36.1c1.1-14.9-1.1-31.8-6.5-50.4
						c-9.6-32.8-24.1-57.3-32-69l0,0l0,0c-6.4-9.4-12.2-16.2-17.8-20.9c-7.3-6.1-14.6-8.7-21.7-7.8l0,0l0,0c0,0,0,0,0,0
						c-1.2,0.1-26.3,3.5-56.8,18.7c-17.9,9-34.1,20.2-47.9,33.5c-13.9,13.3-25.5,28.6-34.7,45.6c-13.1-14.2-28.2-26.1-45-35.5
						c-16.8-9.4-35.2-16.3-54.8-20.5c-33.5-7.2-58.7-4.1-59.7-4l0,0l0,0c-7.1,0.9-13.5,5.3-19.1,13c-4.3,5.9-8.2,14-12,24.6l0,0l0,0
						c-4.6,13.3-12.6,40.6-13.6,74.7c-0.6,20.5,1.8,38.3,7.2,52.9c-8.2,19.3-13.2,41-14.8,64.7c-1.7,14-1.2,32.2,1.4,51.3
						c0,0.1,0,0.2,0,0.3c0,0.2,0.1,0.5,0.1,0.7l0,0l0,0c3.4,25.5,9.8,49.2,19,70.3c11.4,28,26.9,53.1,45.8,74.6
						c11.6,13.1,24.5,24.8,38.6,35.2"/>
					<path class="st6" d="M883.3,1248"/>
					<path class="st6" d="M1195.1,1208.2"/>
				</g>
				<path class="st6" d="M1013.9,854.5c0,0-20.5-3.4-43.7,5.2"/>
			</g>
			<g>
				<g>
					<g>
						<path class="st1" d="M1039.8,1234.2c50.7-5.8,77.9-27.5,73-58c-2.9-30.8-34.7-44.9-85.2-37.9c-50.7,5.8-77.9,27.5-73,58
							C957.5,1227.2,989.3,1241.3,1039.8,1234.2z"/>
						<g>
							<defs>
								<path id="SVGID_1_" d="M1039.8,1234.2c50.7-5.8,77.9-27.5,73-58c-2.9-30.8-34.7-44.9-85.2-37.9c-50.7,5.8-77.9,27.5-73,58
									C957.5,1227.2,989.3,1241.3,1039.8,1234.2z"/>
							</defs>
							<clipPath id="SVGID_2_">
								<use xlink:href="#SVGID_1_"  style="overflow:visible;"/>
							</clipPath>
							<path class="st9" d="M1043.8,1265.3c32.1-3.7,49.2-17.9,46-38.1c-2-20.4-22.1-29.9-54.1-25.4c-32.1,3.7-49.2,17.9-46,38.1
								C991.7,1260.4,1011.8,1269.8,1043.8,1265.3z"/>
						</g>
					</g>
					<g>
						<g>
							<path class="st10" d="M1032.6,1024.3c6.9,62.3,41.4,94.8,92.5,87c51.4-5.3,76.7-45.4,67.8-107.4c-6.9-62.3-41.4-94.8-92.5-87
								C1049,922.1,1023.7,962.2,1032.6,1024.3z"/>
							<g>
								<defs>
									<path id="SVGID_3_" d="M1032.6,1024.3c6.9,62.3,41.4,94.8,92.5,87c51.4-5.3,76.7-45.4,67.8-107.4
										c-6.9-62.3-41.4-94.8-92.5-87C1049,922.1,1023.7,962.2,1032.6,1024.3z"/>
								</defs>
								<clipPath id="SVGID_4_">
									<use xlink:href="#SVGID_3_"  style="overflow:visible;"/>
								</clipPath>
								<path class="st11" d="M1076.3,1052.4c3.5,31.7,21,48.1,47,44.2c26.1-2.7,39-23,34.4-54.6c-3.5-31.7-21-48.1-47-44.2
									C1084.6,1000.6,1071.7,1020.9,1076.3,1052.4z"/>
							</g>
						</g>
						<g>
							<path class="st10" d="M833.8,1049.6c6.9,62.3,41.4,94.8,92.5,87c51.4-5.3,76.7-45.4,67.8-107.4c-6.9-62.3-41.4-94.8-92.5-87
								C850.2,947.5,824.9,987.6,833.8,1049.6z"/>
							<g>
								<defs>
									<path id="SVGID_5_" d="M833.8,1049.6c6.9,62.3,41.4,94.8,92.5,87c51.4-5.3,76.7-45.4,67.8-107.4
										c-6.9-62.3-41.4-94.8-92.5-87C850.2,947.5,824.9,987.6,833.8,1049.6z"/>
								</defs>
								<clipPath id="SVGID_6_">
									<use xlink:href="#SVGID_5_"  style="overflow:visible;"/>
								</clipPath>
								<path class="st12" d="M877.5,1077.8c3.5,31.7,21,48.1,47,44.2c26.1-2.7,39-23,34.4-54.6c-3.5-31.7-21-48.1-47-44.2
									C885.8,1025.9,873,1046.3,877.5,1077.8z"/>
							</g>
						</g>
					</g>
					<g>
						
							<ellipse transform="matrix(0.9688 -0.2478 0.2478 0.9688 -251.8214 268.9478)" class="st3" cx="942.5" cy="1134.9" rx="74.9" ry="33.8"/>
						
							<ellipse transform="matrix(1 -3.290757e-03 3.290757e-03 1 -3.6587 3.6563)" class="st3" cx="1109.2" cy="1113.6" rx="74.9" ry="33.8"/>
					</g>
					<g>
						<g>
							<path class="st7" d="M1025.5,1119.5c2.4,17.5,8.3,31.7,19.1,39.7c10.7,8.2,26.3,10.2,44.3,8.1c17.9-2.5,32.6-8.2,40.8-18.9
								c8.5-10.4,10.6-25.7,8.5-43.2"/>
							<path class="st7" d="M912.2,1133.8c2.4,17.5,8.3,31.7,19.1,39.7c10.7,8.2,26.3,10.2,44.3,8.1c17.9-2.5,32.6-8.2,40.8-18.9
								c8.5-10.4,10.6-25.7,8.5-43.2"/>
						</g>
					</g>
					<path class="st1" d="M1020.8,1084.1c-18.3,1.9-28,11.7-25.8,26.1c1.4,14.6,13.1,21.7,31.4,19.2c18.3-1.9,28-11.7,25.8-26.1
						C1050.8,1088.7,1039.1,1081.6,1020.8,1084.1z"/>
				</g>
				<path class="st6" d="M1002.7,1292.3c0,0,42.2,21,87.7-11.2"/>
			</g>
		</g>
	</g>
</g>
</svg>
