<?xml version="1.0" encoding="utf-8"?>
<!-- Generator: Adobe Illustrator 22.0.0, SVG Export Plug-In . SVG Version: 6.00 Build 0)  -->
<svg version="1.1" id="Layer_1" xmlns="http://www.w3.org/2000/svg" xmlns:xlink="http://www.w3.org/1999/xlink" x="0px" y="0px"
	 viewBox="0 0 2414.5 2832.5" style="enable-background:new 0 0 2414.5 2832.5;" xml:space="preserve">
<style type="text/css">
	.st0{fill:#E9F3FF;}
	.st1{fill:#F4B991;}
	.st2{fill:#A3BDE5;}
	.st3{fill:#5979B2;}
	.st4{fill:none;stroke:#363636;stroke-width:23.9445;stroke-linecap:round;stroke-linejoin:round;stroke-miterlimit:10;}
	.st5{fill:#363636;}
	.st6{fill:none;stroke:#363636;stroke-width:24.4627;stroke-linecap:round;stroke-miterlimit:10;}
	.st7{fill:#72D3A3;stroke:#363636;stroke-width:24.4627;stroke-linecap:round;stroke-miterlimit:10;}
	.st8{fill:none;stroke:#363636;stroke-width:23.4904;stroke-linecap:round;stroke-miterlimit:10;}
	.st9{fill:#FFFFFF;}
	.st10{fill:#A3BDE5;stroke:#363636;stroke-width:22.3718;stroke-linecap:round;stroke-miterlimit:10;}
	.st11{clip-path:url(#SVGID_2_);fill:#363636;}
	.st12{clip-path:url(#SVGID_4_);fill:#363636;}
	.st13{fill:#A3BDE5;stroke:#363636;stroke-width:23.4904;stroke-linecap:round;stroke-miterlimit:10;}
	.st14{fill:#E0536F;}
	.st15{fill:#445578;}
	.st16{fill:#3E5072;}
</style>
<g>
	<g>
		<path class="st0" d="M0,65v2112.2c0,35.9,29.1,65,65,65h1670.6c35.9,0,65-29.1,65-65V65c0-35.9-29.1-65-65-65H65
			C29.1,0,0,29.1,0,65z"/>
	</g>
</g>
<g>
	<g>
		<g>
			<path class="st1" d="M1311.8,2100.4c-9.8,6-99.6,58.8-228.7,65.6c-121.2,6.4-299.7-27.6-462.3-226
				c-81.8-99.9-161.5-159.1-237-176.1c-65-14.6-131.1-0.2-208.1,45.5c-41.9,24.8-96,11-120.8-30.9s-11-96,30.9-120.8
				c55.4-32.8,108.3-54.4,161.8-66c58.9-12.8,117.8-12.7,175,0.2c58.3,13.1,116.2,40,172.1,79.7c54.5,38.8,109.2,91.5,162.6,156.7
				c91.1,111.2,195.3,165.7,309.7,162c88.5-2.9,152.7-40.3,153.4-40.6l-0.6,0.3L1311.8,2100.4z"/>
		</g>
	</g>
	<g>
		<g>
			<path class="st2" d="M765.8,2075c55.5,37.8,110.3,61.2,161.8,74.9c21.1-18.4,49.3-63.3,45.5-170.3c-24.8-6.6-49-16.2-72.7-28.9
				C901.6,1970.2,899.6,2061.3,765.8,2075z"/>
			<path class="st2" d="M600.6,1916c6.7,7.7,13.5,15.7,20.3,23.9c18.4,22.5,37.1,42.9,55.8,61.4c24.5,2.2,78.2-7.2,148.5-102.8
				c-23.4-20.2-46-43.6-67.9-70.3c-6.4-7.8-12.8-15.4-19.2-22.9C732.6,1843.3,704.8,1894.9,600.6,1916z"/>
			<path class="st2" d="M1027.9,2165.9c19.4,1.1,37.9,1,55.2,0.1c129.1-6.8,218.9-59.7,228.7-65.6l-92-150.5l0.6-0.3
				c-0.6,0.4-61.9,36-147.2,40.4C1091.5,2017.8,1117.9,2084.7,1027.9,2165.9z"/>
			<path class="st2" d="M151.2,1623.6c-21.5,9.6-43.2,20.9-65.4,34c-41.9,24.8-55.7,78.9-30.9,120.8s78.9,55.7,120.8,30.9
				c10.4-6.2,20.6-11.7,30.6-16.8C218.6,1752.5,224.5,1682.9,151.2,1623.6z"/>
			<path class="st2" d="M455.8,1792.1c26.6,14.8,53.6,34.4,80.9,58.8c27.6-7.1,73-34.4,119.2-130.1c-20.4-18.3-40.8-34.8-61.2-49.3
				c-17-12.1-34.1-23-51.4-32.6C552.3,1676,546.3,1734.9,455.8,1792.1z"/>
			<path class="st2" d="M423.5,1591.9c-0.2-0.1-0.5-0.1-0.7-0.2c-56.2-12.7-114.1-12.9-172-0.8c30.8,13.5,73.5,53.5,45.2,170.8
				c20.8-3.6,41.1-4.3,61.2-2.3C379.3,1745.4,429.2,1701.3,423.5,1591.9z"/>
		</g>
		<g>
			<path class="st3" d="M423.5,1591.9c5.7,109.4-44.1,153.4-66.4,167.5c9,0.9,18,2.3,26.9,4.4c23.6,5.3,47.5,14.7,71.9,28.2
				c90.5-57.2,96.5-116.1,87.5-153.2C503.9,1616.8,463.8,1601.1,423.5,1591.9z"/>
			<path class="st3" d="M536.8,1850.9c21.1,18.9,42.4,40.6,63.9,65.1c104.1-21.1,131.9-72.7,137.5-110.7
				c-27.2-31.5-54.6-59.7-82.2-84.5C609.7,1816.4,564.3,1843.8,536.8,1850.9z"/>
			<path class="st3" d="M676.7,2001.3c29.6,29.1,59.4,53.5,89.1,73.7c133.8-13.7,135.8-104.8,134.6-124.3
				c-25.8-13.8-50.9-31.2-75.2-52.2C754.9,1994.1,701.2,2003.5,676.7,2001.3z"/>
			<path class="st3" d="M927.6,2149.9c35.3,9.4,69.1,14.2,100.3,16c90-81.2,63.6-148.1,45.2-176c-2,0.1-4.1,0.2-6.1,0.3
				c-32.1,1.1-63.5-2.5-93.9-10.6C976.9,2086.7,948.6,2131.5,927.6,2149.9z"/>
			<path class="st3" d="M250.7,1590.9c-1,0.2-2,0.4-3,0.6c-32.1,7-64.1,17.5-96.4,32c73.2,59.3,67.3,129,55.2,169
				c31.3-15.7,60.8-25.9,89.4-30.8C324.3,1644.4,281.6,1604.5,250.7,1590.9z"/>
		</g>
	</g>
	<g>
		<path class="st4" d="M1311.8,2100.4c-9.8,6-99.6,58.8-228.7,65.6c-121.2,6.4-299.7-27.6-462.3-226
			c-81.8-99.9-161.5-159.1-237-176.1c-65-14.6-131.1-0.2-208.1,45.5c-41.9,24.8-96,11-120.8-30.9s-11-96,30.9-120.8
			c55.4-32.8,108.3-54.4,161.8-66c58.9-12.8,117.8-12.7,175,0.2c58.3,13.1,116.2,40,172.1,79.7c54.5,38.8,109.2,91.5,162.6,156.7
			c91.1,111.2,195.3,165.7,309.7,162c88.5-2.9,152.7-40.3,153.4-40.6l-0.6,0.3L1311.8,2100.4z"/>
	</g>
</g>
<path class="st5" d="M676.4,2701.5c0.7,33.3,278.6,54.7,698.2,46.1s661.9-40.5,661.3-73.8s-244.1-55.4-663.7-46.9
	C952.6,2635.5,675.7,2668.2,676.4,2701.5z"/>
<g>
	<g>
		<g>
			<path class="st2" d="M1092.2,2454.7c0,0-101,3.1-130.2,85.2c-27.1,76.3,20.7,144.1,84.3,142.8s175.4-3.6,175.4-3.6
				s122.2,5.5,89.3-119.9c-15.7-59.9-27.8-142.4-34.4-226.7c-85.4-10.9-146.2-31.9-188-52.7L1092.2,2454.7z"/>
			<path class="st3" d="M1274.2,2098.9l-188.3,45.1l2.8,135.7c41.8,20.8,102.6,41.9,188,52.7
				C1270.1,2249.8,1268.7,2165.4,1274.2,2098.9z"/>
		</g>
		<path class="st6" d="M1311.1,2559.2c-15.7-59.9-27.8-142.4-34.4-226.7c-6.5-82.6-7.9-167-2.5-233.6l-188.3,45.1l2.8,135.7l3.6,175
			c0,0-101,3.1-130.2,85.2c-27.1,76.3,20.7,144.1,84.3,142.8s175.4-3.6,175.4-3.6S1344,2684.7,1311.1,2559.2z"/>
		<path class="st7" d="M1151.5,2460.9c0,0-18.8-9.5-59.3-6.2"/>
	</g>
	<g>
		<g>
			<path class="st2" d="M1584.1,2444.7c0,0,101-1.1,133.5,79.9c30.2,75.1-14.8,144.8-78.5,146.1c-63.6,1.3-175.4,3.6-175.4,3.6
				s-121.9,10.5-94.1-116.2c13.2-60.5,21.9-143.4,25.2-227.9c84.9-14.3,144.8-37.9,185.7-60.4L1584.1,2444.7z"/>
			<path class="st3" d="M1387.8,2096.6l190,37.4l2.8,135.7c-40.9,22.5-100.8,46-185.7,60.4C1398,2247.2,1396,2162.9,1387.8,2096.6z"
				/>
		</g>
		<path class="st6" d="M1369.7,2558c13.2-60.5,21.9-143.4,25.2-227.9c3.2-82.8,1.1-167.2-7.1-233.5l190,37.4l2.8,135.7l3.6,175
			c0,0,101-1.1,133.5,79.9c30.2,75.1-14.8,144.8-78.5,146.1c-63.6,1.3-175.4,3.6-175.4,3.6S1341.9,2684.7,1369.7,2558z"/>
		<path class="st7" d="M1525.1,2453.3c0,0,18.4-10.2,59-8.6"/>
	</g>
</g>
<path class="st2" d="M776,1715.8c-23.4,172.9,12.2,314,110.8,401.5c96.5,88.4,256,123.2,431.2,101.8
	c175.1-22.8,322.6-96.3,397.3-206.3c76.9-109.7,80.9-255.8,20.6-418.1c-60.3-161.9-164.3-304.7-262.1-402.6
	c-100-98.2-193.8-151.6-284.3-140.5c-90.5,11.8-170.1,87-246,207.4C869.6,1378.6,799.5,1543.3,776,1715.8z"/>
<g>
	<g>
		<path class="st3" d="M1676,1960.2c-81.1,73-213.4,119.1-371.1,139.9c-157.9,19-296.5,7.1-391.3-43.7
			c-66-34.2-111.3-86.8-137.5-151.9c-9.3-56.6-9.4-119.4-0.3-187.1c19.5,83.9,66.7,151.7,144.7,192.1c89.1,47.8,219.5,59,367.9,41.1
			c148.3-19.6,272.6-62.9,348.9-131.6c67.1-58.7,98.3-136.3,99-222.8c23.5,63.6,37.1,124.7,40.3,182.1
			C1765.4,1848,1732.8,1910.5,1676,1960.2z"/>
		<path class="st3" d="M809.4,1561c8.9-30.3,18.8-60,29.7-88.8c6,17.8,13.4,34.6,22.4,50.2c21.2,37.3,50.9,68,89.5,90.2
			c74.2,44.1,182.1,55.5,304.9,40.8c122.5-16.2,225.1-54.2,287.7-115.5c32.7-31.1,54.8-68.4,67.4-110c5.3-17.4,8.9-35.6,10.8-54.4
			c16.8,25.3,33,51.6,48.2,78.9c0.3,2,0.6,4,0.8,6c0.3,2.8,0.5,5.6,0.7,8.4c6.3,86-20.8,163.9-87.9,221.2
			c-68.1,59.8-179,97.8-311.2,115.2c-132.3,15.9-248.4,6.6-327.7-34.6c-77.8-39-121-108-133.6-193.2c-0.4-2.8-0.8-5.6-1.1-8.4
			C809.7,1565.1,809.6,1563,809.4,1561z"/>
	</g>
</g>
<path class="st8" d="M776,1715.8c-23.4,172.9,12.2,314,110.8,401.5c96.5,88.4,256,123.2,431.2,101.8
	c175.1-22.8,322.6-96.3,397.3-206.3c76.9-109.7,80.9-255.8,20.6-418.1c-60.3-161.9-164.3-304.7-262.1-402.6
	c-100-98.2-193.8-151.6-284.3-140.5c-90.5,11.8-170.1,87-246,207.4C869.6,1378.6,799.5,1543.3,776,1715.8z"/>
<path class="st2" d="M908.5,649c0,0,277.1-27.7,311,308.7l-277.1,27.7L908.5,649z"/>
<path class="st2" d="M1364.8,603.5c0,0-277.1,27.7-243.3,364l277.1-27.7L1364.8,603.5z"/>
<path class="st3" d="M1454.5,744.5c-10.7-40.4-28-76.8-44.1-102.2c-16.4-25.5-31.5-40.1-45.7-38.8c-14.1,1.5-26,18.8-37,47
	c-10.7,28.1-20.5,67.1-22.9,108.9c-2.4,41.8,4.3,77.2,20.5,100.6c15.8,23.5,41.2,35.1,68.5,32.5c27.3-2.9,49.8-19.2,60.7-45.4
	C1465.7,820.9,1465.2,785,1454.5,744.5z"/>
<path class="st3" d="M848.6,804.9c2.4-41.7,12.2-80.8,22.9-108.9c11-28.2,22.9-45.6,37-47c14.1-1.3,29.2,13.3,45.7,38.8
	c16.1,25.4,33.4,61.7,44.1,102.2c10.7,40.5,11.2,76.5,0,102.6c-10.8,26.2-33.4,42.6-60.7,45.4c-27.3,2.6-52.7-9-68.5-32.5
	C852.9,882.1,846.3,846.7,848.6,804.9z"/>
<path class="st2" d="M832.5,1060.8c-0.1-0.5-0.1-1.1-0.1-1.6c-3.4-31.2-2.8-57.5-0.2-74.9c4.9-51.1,20.4-96.7,46.5-132.4
	c38-53.3,98.5-90.5,171.2-98.2c33-3.1,71.8,5.9,101,13.5c13.1-19.5,41.7-31.7,96.3-33.2c73-2,138.9,12.6,186.8,57.2
	c40.3,36.9,67.9,91.6,80.9,156.4c2.4,11.6,4.5,24.8,6,39.3c0,0,0,0,0,0.1v0.1c9.4,95-9.2,244.3-140.8,346.8
	c-71.6,55.8-120.3,64.7-165.2,69.2c-45,4.5-94.4,5.4-175.7-35.1c-98.5-49.1-153-127.9-181.4-203.1
	C845,1133.6,836.5,1098.5,832.5,1060.8z"/>
<g>
	<path class="st5" d="M1177.8,1284.4c19.8-14.4,52-23.3,90.2-27.6c22-2.3,42.3-2.6,59.8-0.5c0.5-4.3,0.6-8.7,0.3-13.2
		c-2.3-21.7-13.5-39.3-35.9-48.9c-22-9.9-55.1-11.8-93.3-7.9c-38.2,4.3-70.3,13.3-90.2,27.6c-20.2,14.2-28.1,33.8-26.5,55.6
		c2.3,21.7,13.5,39.3,35.9,48.9c9.3,4.2,20.6,6.9,33.5,8.4C1153.5,1310.3,1161.8,1295.6,1177.8,1284.4z"/>
	<path class="st9" d="M1211.4,1326.2c38.2-4.3,70.3-13.3,90.2-27.6c10-7,17-15.4,21.3-24.7c2.6-5.6,4.2-11.5,5-17.7
		c-17.5-2-37.8-1.7-59.8,0.5c-38.2,4.3-70.3,13.3-90.2,27.6c-16,11.3-24.3,25.9-26.3,42.4c10,1.2,20.9,1.6,32.5,1.3
		C1192.8,1327.8,1201.9,1327.2,1211.4,1326.2z"/>
</g>
<g>
	<g>
		<path class="st10" d="M1193.2,1135.2c2.9,26,11,47.3,26.7,59.6c15.4,12.6,38.5,16.1,65.2,13.7c26.6-2.9,48.6-10.9,61.2-26.3
			c13-15.1,16.6-37.6,14.3-63.7"/>
		<path class="st10" d="M1024.9,1152c2.9,26,11,47.3,26.7,59.6c15.4,12.6,38.5,16.1,65.2,13.7c26.6-2.9,48.6-10.9,61.2-26.3
			c13-15.1,16.6-37.6,14.3-63.7"/>
	</g>
</g>
<path class="st5" d="M848.4,686.9L848.4,686.9l0.1-0.2c6.6-17,13.4-30,20.8-39.7c10.6-13.9,22.9-21.6,36.7-23.1h0.1h0.1
	c1-0.1,24.5-2.4,58.4,2.1c35.4,4.6,68.9,14.5,99.6,29.5s58,34.8,81.5,59.2c13.8-21.7,30.3-41.2,49.3-58.5
	c22.4-20.3,48.2-37.4,76.8-50.7c48.6-22.7,88.9-27,90.6-27.2h0.1h0.1c3.2-0.3,6.5-0.2,9.8,0.2l0,0c11.7,1.5,22.8,7.4,33.9,18.1
	c8.1,7.8,16.3,18.2,25.1,31.9l0.1,0.1l0.1,0.1c11.8,18.6,33.6,57.6,47.2,109.3c7.4,28,10.3,53.8,8.6,76.7
	c11.4,16.4,21.4,34.7,29.7,54.5c9.6,22.6,17.1,47.3,22.3,73.3c2.8,13.2,4.9,27.2,6.4,41.7c0,0.1,0,0.1,0,0.2l0,0l0,0
	c0,0.1,0,0.2,0,0.3c4.2,42.9,4.4,109-18.6,180.8c-8.9,27.8-20.7,54.3-35.2,78.9c-3.7,6.3-12,8-17.9,3.6l0,0
	c-5.2-3.9-6.6-11.1-3.4-16.7c49.9-85,57-178,50.4-244.4v-0.1c0,0,0,0,0-0.1c-1.4-14.5-3.5-27.7-6-39.3
	c-9.8-48.8-27.9-91.9-53.4-125.9c3.2-22.2,0.7-48.6-6.8-77.2c-10.7-40.4-28-76.8-44.1-102.2c-14.7-22.9-28.4-37-41.3-38.7
	c-1.5-0.2-2.9-0.2-4.4-0.1l0,0c-0.1,0-148.6,14.9-214.8,154.8c-57.7-77.1-136.9-100.6-188.6-107.3c-31.5-4.1-52.8-2-52.8-2
	c-14.1,1.5-26,18.8-37,47c-10.7,28.1-20.5,67.1-22.9,108.9c-1.8,31.2,1.5,58.8,10,80.5c-14.1,29.1-22.9,62.5-26.4,98.8
	c-2.6,17.4-3.3,43.7,0.2,74.9c0,0.5,0.1,1.1,0.1,1.6c4,37.7,12.5,72.8,25.2,103.9c17.7,47,45.7,95.4,88.1,137.1
	c4.7,4.7,5.1,12.2,0.8,17.3l0,0c-4.6,5.5-12.8,5.9-18,0.8c-8.9-8.7-17.4-17.9-25.5-27.5c-28.8-34.4-51.8-74.2-68.5-118.4
	c-13.6-33.4-22.6-70.6-26.8-110.6v-0.1v-0.1c0-0.4-0.1-0.8-0.1-1.2c0-0.1,0-0.2,0-0.3c-3.3-30-3.3-58.5-0.1-80.6
	c3.4-35.4,11.6-68,24.3-97c-7.1-22.9-9.7-50-8-80.7C827,750,840.6,707.4,848.4,686.9z"/>
<path class="st5" d="M1187.5,1080.1c-28,2.2-43,16.6-40.4,38.7c1.6,22.2,19.1,33.6,47,30.5c28-2.2,43-16.6,40.4-38.7
	C1232.9,1088.4,1215.4,1077,1187.5,1080.1z"/>
<path class="st8" d="M1183,747.2c0,0-31-5.9-66.7,6.2"/>
<path class="st8" d="M1183.5,1433.8c0,0,46.4,9.2,100.5-12.6"/>
<g>
	<g>
		<path class="st9" d="M968.3,1154.6c4.1-7.1,8.9-13.7,14.5-19.8c26-29.2,68.9-45.9,120.2-51.4c15.5-1.4,30.4-1.7,44.5-0.8
			c5.4-22.4,6.5-48.5,3.9-76.6c-5-46.5-19-85.5-42.8-109.3c-23.6-24.2-57.1-33.4-94.7-30c-37.5,4.1-68.5,19.7-86.8,48.1
			c-18.7,28.1-24.6,69-20.2,115.6c5,46.5,19,85.5,42.8,109.3C955.3,1145.5,961.5,1150.5,968.3,1154.6z"/>
		<g>
			<g>
				<g>
					<g>
						<g>
							<g>
								<g>
									<defs>
										<path id="SVGID_1_" d="M968.3,1154.6c4.1-7.1,8.9-13.7,14.5-19.8c26-29.2,68.9-45.9,120.2-51.4
											c15.5-1.4,30.4-1.7,44.5-0.8c5.4-22.4,6.5-48.5,3.9-76.6c-5-46.5-19-85.5-42.8-109.3c-23.6-24.2-57.1-33.4-94.7-30
											c-37.5,4.1-68.5,19.7-86.8,48.1c-18.7,28.1-24.6,69-20.2,115.6c5,46.5,19,85.5,42.8,109.3
											C955.3,1145.5,961.5,1150.5,968.3,1154.6z"/>
									</defs>
									<clipPath id="SVGID_2_">
										<use xlink:href="#SVGID_1_"  style="overflow:visible;"/>
									</clipPath>
									<path class="st11" d="M1117.4,1067.4c-6.7-57.7-36.8-87.8-80.6-80.8c-44.1,4.7-65.3,41.6-56.9,99.1
										c6.7,57.7,36.8,87.8,80.6,80.8C1104.7,1161.8,1125.9,1124.8,1117.4,1067.4z"/>
								</g>
							</g>
						</g>
					</g>
				</g>
			</g>
		</g>
	</g>
	<g>
		<path class="st9" d="M1410.5,1100.4c-5.7-5.9-12-11.2-18.8-15.7c-32.3-22.1-77.9-28-129.1-20.9c-15.3,2.3-29.9,5.7-43.4,10
			c-10.7-20.4-18-45.5-22.3-73.4c-6.4-46.3-2.2-87.5,15.2-116.4c17-29.2,47.3-46.1,84.7-52c37.4-5,71.3,2.6,95.9,25.7
			c24.9,22.7,40.5,61,47.5,107.3c6.4,46.3,2.2,87.5-15.2,116.4C1420.9,1088.5,1416,1094.8,1410.5,1100.4z"/>
		<g>
			<g>
				<g>
					<g>
						<g>
							<g>
								<g>
									<defs>
										<path id="SVGID_3_" d="M1410.5,1100.4c-5.7-5.9-12-11.2-18.8-15.7c-32.3-22.1-77.9-28-129.1-20.9
											c-15.3,2.3-29.9,5.7-43.4,10c-10.7-20.4-18-45.5-22.3-73.4c-6.4-46.3-2.2-87.5,15.2-116.4c17-29.2,47.3-46.1,84.7-52
											c37.4-5,71.3,2.6,95.9,25.7c24.9,22.7,40.5,61,47.5,107.3c6.4,46.3,2.2,87.5-15.2,116.4
											C1420.9,1088.5,1416,1094.8,1410.5,1100.4z"/>
									</defs>
									<clipPath id="SVGID_4_">
										<use xlink:href="#SVGID_3_"  style="overflow:visible;"/>
									</clipPath>
									<path class="st12" d="M1244.7,1051.8c-7.4-57.6,14.5-94.1,58.8-97.9c44-6.1,73.5,24.6,79.1,82.4
										c7.4,57.6-14.5,94.1-58.8,97.9C1279.8,1140.3,1250.3,1109.6,1244.7,1051.8z"/>
								</g>
							</g>
						</g>
					</g>
				</g>
			</g>
		</g>
	</g>
</g>
<g>
	<path class="st13" d="M906.4,1383.1c0,0-238.1,118.7-295.5,3.1c0,0,51.7-73.1,38.2-159.3c-13.4-86.2-53.7-108.7-83.5-128.1
		c0,0-12.1-75,19.9-132.3s4.9-101.6-36-105.3s-128.8,44.6-85.9,229.9c0,0-87.7-32.6-138.6,58.8s8.2,279,99.9,285.1
		c0,0,41.4,137.8,153.5,168.8c126.2,34.9,244.6-41.8,339-131.3"/>
	<path class="st13" d="M408.2,1168.5c0,0,88.6-31.1,147,45.5c58.5,76.6,28.5,244.8-130.3,220.9"/>
	<path class="st13" d="M496.1,1114.5c0,0-10.6-15.7-32.5-23.4"/>
</g>
<path class="st13" d="M1531.8,1284.7c0,0,117.4-63.5,300.8,3.6s254.9,246.9,254.9,246.9s91.9,42.3,165.1,41.6
	c78.8-0.7,90.5,75.4,71.4,112.2c-19,36.8-75.6,79.2-122,86.2c-46.5,6.9-124.4-22.1-142.6-36.4c0,0-16,51.8-36.5,81.6
	c-20.5,29.8-58.6,34.3-71.9,28.6c-19.2-8.3-37.1-45.5-10.8-78.1c27.4-33.9,41.9-75.2,24.1-114c-17.8-38.9-162.5-346.3-441.5-279.2"
	/>
<g>
	<g>
		<path class="st14" d="M0,65v2112.3c0,35.9,29.1,65,65,65h1670.7c35.9,0,65-29.1,65-65V65c0-35.9-29.1-65-65-65H65
			C29.1,0,0,29.1,0,65z M1692.9,1635.4c-17.1,144.8-48.7,252.6-108.6,325.6c-59.5,73.6-147.3,112.4-265.3,133.3
			c-117,20.9-264.1,24-418.6,25.4c-154.4-1.4-301.6-4.5-418.6-25.4c-118-20.9-205.8-59.7-265.3-133.3c-60-73-91.6-180.8-108.6-325.6
			c-17-143.6-19.6-324.1-20.7-513.7c1.2-189.5,3.7-370.1,20.7-513.7c17.1-144.8,48.7-252.6,108.6-325.6
			C276,208.8,363.8,170,481.8,149.1c117-20.9,264.1-24,418.6-25.4c154.4,1.4,301.6,4.5,418.6,25.4c118,20.9,205.8,59.7,265.3,133.3
			c60,73,91.6,180.8,108.6,325.6c17,143.6,19.6,324.1,20.7,513.7C1712.4,1311.2,1709.9,1491.8,1692.9,1635.4z"/>
	</g>
</g>
<g>
	<g>
		<g>
			<path class="st2" d="M151.2,1623.6c-21.5,9.6-43.2,20.9-65.4,34c-41.9,24.8-55.7,78.9-30.9,120.8s78.9,55.7,120.8,30.9
				c10.4-6.2,20.6-11.7,30.6-16.8C218.6,1752.5,224.5,1682.9,151.2,1623.6z"/>
			<path class="st2" d="M423.5,1591.9c-0.2-0.1-0.5-0.1-0.7-0.2c-56.2-12.7-114.1-12.9-172-0.8c30.8,13.5,73.5,53.5,45.2,170.8
				c20.8-3.6,41.1-4.3,61.2-2.3C379.3,1745.4,429.2,1701.3,423.5,1591.9z"/>
		</g>
		<g>
			<path class="st3" d="M423.5,1591.9c5.7,109.4-44.1,153.4-66.4,167.5c9,0.9,18,2.3,26.9,4.4c23.6,5.3,47.5,14.7,71.9,28.2
				c90.5-57.2,96.5-116.1,87.5-153.2C503.9,1616.8,463.8,1601.1,423.5,1591.9z"/>
			<path class="st3" d="M250.7,1590.9c-1,0.2-2,0.4-3,0.6c-32.1,7-64.1,17.5-96.4,32c73.2,59.3,67.3,129,55.2,169
				c31.3-15.7,60.8-25.9,89.4-30.8C324.3,1644.4,281.6,1604.5,250.7,1590.9z"/>
		</g>
	</g>
	<path class="st5" d="M546.4,1843.4c-54.5-49-108-79.6-159.8-91.3c-17.1-3.9-34.3-5.8-51.7-5.8c-51.8,0-105.4,17.2-165.1,52.7
		c-36.1,21.4-83,9.5-104.4-26.7c-21.4-36.1-9.5-83,26.7-104.4c54.2-32.2,106-53.3,158.2-64.6c57.2-12.4,114.3-12.3,169.8,0.2
		c42.5,9.6,84.8,26.7,126.3,50.9v-27.5c-39.7-21.9-80.3-37.6-121-46.8c-58.9-13.3-119.6-13.4-180.2-0.2
		c-54.8,11.9-108.9,33.9-165.4,67.4c-47.5,28.2-63.2,89.7-35.1,137.2c18.7,31.5,52.1,49,86.3,49c17.4,0,34.9-4.5,50.9-14
		c74.2-44,137.5-58,199.3-44.1c52.8,11.9,108.1,45.6,165,100.6v-32.6L546.4,1843.4L546.4,1843.4z"/>
</g>
<g>
	<path class="st15" d="M640.3,553.7c-1.3-1.2-3-1.8-5.2-1.8c-2.2,0-4,0.6-5.3,1.8c-1.3,1.2-1.9,2.7-1.9,4.5c0,1.8,0.6,3.3,1.9,4.5
		c1.3,1.2,3.1,1.8,5.3,1.8c2.2,0,3.9-0.6,5.2-1.8c1.3-1.2,1.9-2.7,1.9-4.5C642.2,556.4,641.6,554.9,640.3,553.7z"/>
	<g>
		<g>
			<polygon class="st16" points="425.2,600.4 425.2,600.2 425.2,588 425.2,587.7 425.4,587.7 460.9,587.7 460.9,578.2 425.4,578.2 
				425.2,578.2 425.2,578 425.2,566.6 425.2,566.4 425.4,566.4 466.5,566.4 466.5,555.7 411.4,555.7 411.4,611.1 466.5,611.1 
				466.5,600.4 425.4,600.4 			"/>
			<path class="st16" d="M508.1,570c-5.1,0-9.4,1.1-12.6,3.4c-3.2,2.2-5.4,5.5-6.6,9.7l0,0.2h-0.2h-1.4H487l0-0.3l1.9-11.9h-12.1
				v40.1H489v-16c0-4.8,1.3-8.5,3.8-11.1c2.5-2.6,6.1-3.9,10.6-3.9c4.5,0,8.1,1.3,10.6,3.9c2.5,2.6,3.8,6.3,3.8,11.1v16h12.1v-18.9
				c0-6.9-2-12.4-5.8-16.4C520.2,572,514.8,570,508.1,570z"/>
			<path class="st16" d="M583.4,581.6l0,0.3h-0.3h-1.3h-0.2l-0.1-0.2c-1.3-3.7-3.6-6.6-6.8-8.7c-3.3-2-7.8-3.1-13.3-3.1
				c-4.6,0-8.7,0.9-12,2.5c-3.4,1.7-6,4-7.7,6.9c-1.8,2.9-2.7,6.3-2.7,10c0,3.8,0.9,7.2,2.7,10.1c1.8,2.9,4.4,5.3,7.8,6.9
				c3.4,1.7,7.5,2.5,12.2,2.5c5.7,0,10.1-0.9,13.2-2.7c3.1-1.8,5.3-4.4,6.6-7.8l0.1-0.2h0.2h1.2h0.2v0.2v1.6
				c0,5.6-1.8,10.1-5.5,13.1c-3.6,3.1-9.3,4.6-17,4.6c-3.1,0-6.1-0.2-8.9-0.7c-2.7-0.4-5.8-1.2-9.2-2.3v9.8c3,1.1,5.9,1.9,8.8,2.4
				c2.9,0.5,6.3,0.8,10.2,0.8c11,0,19.2-2.6,24.4-7.7c5.1-5.1,7.8-13.1,7.8-23.9v-25.4h-12L583.4,581.6z M577.6,597.7
				c-2.6,2-6.4,3-11.3,3c-4.9,0-8.7-1-11.3-3c-2.6-2-3.9-4.6-3.9-7.7c0-3.1,1.3-5.7,3.9-7.6c2.6-1.9,6.4-2.9,11.3-2.9
				c4.9,0,8.7,1,11.3,2.9c2.6,2,3.9,4.5,3.9,7.6C581.5,593.1,580.1,595.7,577.6,597.7z"/>
			<rect x="605.3" y="555.7" class="st16" width="12.1" height="55.4"/>
			<rect x="629.1" y="571" class="st16" width="12.1" height="40.1"/>
			<path class="st16" d="M698.8,591.9c-2.4-1.7-5.2-2.8-8.5-3.3c-3.3-0.5-7.6-0.8-12.7-1c-4.9-0.2-8.5-0.5-10.7-1
				c-2.4-0.5-3.5-1.6-3.5-3.3c0-1.6,1.1-2.9,3.4-3.7c2.2-0.8,5.5-1.2,9.8-1.2c8.2,0,12.6,2.1,13.1,6.4h12.3
				c-0.3-4.3-2.4-7.9-6.4-10.6c-4.1-2.8-10.5-4.2-19-4.2c-9.1,0-15.7,1.2-19.6,3.5c-3.9,2.3-5.9,5.4-5.9,9.1c0,3.3,1.1,5.7,3.4,7.3
				c2.3,1.6,5.1,2.7,8.3,3.2c3.2,0.5,7.4,0.9,12.5,1.1c3.4,0.2,6.1,0.3,8,0.5c1.9,0.2,3.5,0.6,4.7,1.2c1.3,0.6,2,1.6,2,2.9
				c0,1.5-1,2.7-3,3.6c-1.9,0.9-5.5,1.3-10.5,1.3c-4.5,0-7.9-0.5-10.1-1.6c-2.3-1.1-3.5-2.8-3.5-5v-0.2h-12.3v0.4
				c0,4.5,2,8.2,6.1,10.9c4.1,2.7,10.7,4.1,19.8,4.1c8.6,0,15.1-1.1,19.4-3.2c4.2-2.1,6.4-5.3,6.4-9.6
				C702.3,596.1,701.1,593.6,698.8,591.9z"/>
			<path class="st16" d="M743,570c-5.1,0-9.4,1.1-12.6,3.4c-3.2,2.2-5.4,5.5-6.6,9.7l0,0.2h-0.2h-1.4h-0.3l0.1-0.3
				c0.6-2.6,1.1-5.1,1.4-7.4c0.3-2.3,0.5-4.6,0.5-7.1v-12.8h-12.1v55.4h12.1v-16c0-4.8,1.3-8.5,3.8-11.1c2.5-2.6,6.1-3.9,10.6-3.9
				c4.5,0,8.1,1.3,10.6,3.9c2.5,2.6,3.8,6.3,3.8,11.1v16h12.1v-18.9c0-6.9-2-12.4-5.8-16.4C755.1,572,749.7,570,743,570z"/>
		</g>
	</g>
	<g>
		<g>
			<polygon class="st16" points="449.2,340.6 449.2,426.1 483.1,426.1 483.1,340.6 483.1,339.6 484.1,339.6 528.3,339.6 528.3,312 
				404,312 404,339.6 448.3,339.6 449.2,339.6 			"/>
			<path class="st16" d="M528,406.9c4.4,6.5,10.9,11.8,19.5,15.7c8.6,3.9,19.2,5.9,31.3,5.9c11.5,0,21.4-1.6,29.3-4.7
				c7.9-3.1,14.1-6.9,18.4-11.3c3.9-4,6.7-8.1,8.4-12.3h-28.6c-2.5,2.2-5.7,4-9.6,5.4c-4,1.5-9.9,2.2-17.5,2.2
				c-7.7,0-14.1-1.3-19-3.7c-4.9-2.5-8.4-6-10.2-10.4l-0.6-1.3h1.4h85.5c0.4-2.4,0.5-4.8,0.5-7c0-8.2-2.2-15.7-6.6-22.3
				c-4.4-6.6-11-11.9-19.6-15.7c-8.7-3.8-19.3-5.8-31.6-5.8c-12.3,0-22.9,2-31.6,5.8c-8.6,3.8-15.2,9.1-19.6,15.6
				c-4.3,6.5-6.6,14-6.6,22C521.4,393,523.6,400.4,528,406.9z M549.9,376.3c1.8-4.5,5.3-8.1,10.2-10.6c4.9-2.5,11.2-3.7,19-3.7
				c7.8,0,14.3,1.3,19.1,3.7c4.9,2.5,8.4,6.1,10.2,10.6l0.5,1.3h-1.4h-56.8h-1.4L549.9,376.3z"/>
			<path class="st16" d="M674.1,422.5c8.6,3.9,19.2,5.9,31.3,5.9c11.5,0,21.4-1.6,29.3-4.7c7.9-3.1,14.1-6.9,18.4-11.3
				c3.9-4,6.7-8.1,8.4-12.3H733c-2.5,2.2-5.7,4-9.6,5.4c-4,1.5-9.9,2.2-17.5,2.2c-7.7,0-14.1-1.3-19-3.7c-4.9-2.5-8.4-6-10.2-10.4
				l-0.6-1.3h1.4h85.5c0.4-2.4,0.5-4.8,0.5-7c0-8.2-2.2-15.7-6.6-22.3c-4.4-6.6-11-11.9-19.6-15.7c-8.7-3.8-19.3-5.8-31.6-5.8
				c-12.3,0-22.9,2-31.6,5.8c-8.6,3.8-15.2,9.1-19.6,15.6c-4.3,6.5-6.6,14-6.6,22c0,8.1,2.2,15.4,6.5,21.9
				C659,413.4,665.6,418.7,674.1,422.5z M676.6,376.3c1.8-4.5,5.3-8.1,10.2-10.6c4.9-2.5,11.2-3.7,19-3.7c7.8,0,14.3,1.3,19.1,3.7
				c4.9,2.5,8.4,6.1,10.2,10.6l0.5,1.3h-1.4h-56.8h-1.4L676.6,376.3z"/>
			<path class="st16" d="M860.7,344.5c-5.3-2-11.5-2.9-18.3-2.9c-10,0-17.5,2.1-23,6.5c-5.2,4.2-8.8,10.4-11.4,19.6l-0.2,0.7h-0.7
				h-3.1h-1.1l0.2-1.1l4.3-23.6h-29.4v82.4h29.6v-32.7c0-8.6,2.3-15.4,6.9-20.1c4.9-5.1,10.1-7.2,17.8-7.2c8.7,0,13.1,2.7,17.4,7.2
				c4.6,4.7,7,11.5,7,20.1v32.7h29.6V386c0-7-1-13.3-2.9-18.7c-1.9-5.4-4.9-10.1-8.7-14C870.6,349.4,866,346.4,860.7,344.5z"/>
			<path class="st16" d="M956.1,397.5c-7.5,0-13.5-2.3-17.9-6.7c-4.4-4.5-6.6-10.8-6.6-18.7v-28.4H902V378c0,6.7,1,12.8,2.9,18
				c1.9,5.2,4.8,9.7,8.5,13.5c3.8,3.7,8.3,6.6,13.6,8.5c5.3,1.9,11.4,2.8,18.1,2.8c9.7,0,17.5-1.9,23.1-5.7
				c5.6-3.8,9.5-9.9,11.8-18.1l0.2-0.7h0.7h2.8h0.9v0.9v2.3c0,11.7-3.6,20.9-10.7,27.3c-7.1,6.4-17.8,9.6-32,9.6
				c-5.4,0-11-0.5-16.6-1.4c-5.2-0.9-11.1-2.4-17.6-4.5v24c5.7,2.1,11.4,3.7,17.1,4.8c5.9,1.1,12.3,1.7,19.2,1.7
				c11.2,0,21.1-1.4,29.4-4.2c8.3-2.7,15.2-6.9,20.5-12.4c5.4-5.5,9.4-12.6,12.1-21.1c2.7-8.6,4.1-18.8,4.1-30.5v-49.3h-29.6V372
				c0,7.9-2.2,14.2-6.6,18.7C969.8,395.2,963.7,397.5,956.1,397.5z"/>
		</g>
	</g>
	<g>
		<g>
			<path class="st14" d="M364.4,418.8l-14.7,65.5c-1.6,8.7-2.5,17.6-2.5,26.5v1.7v0.9h-0.9h-3h-0.9v-0.9v-1.7
				c0-10.3-0.8-19.2-2.5-26.5l-11.7-46.5h-38l-11.7,46.5c-1.6,7.3-2.5,16.2-2.5,26.5v1.7v0.9H275h-3h-0.9v-0.9v-1.7
				c0-8.8-0.8-17.7-2.5-26.5l-14.7-65.5h-36.6l30.3,114.1h43.6l11.9-42.4c1.5-6,2.5-10.9,3-14.5c0.4-3.7,0.7-9.4,0.7-17v-0.7v-0.9
				h0.9h3h0.9v0.9v0.7c0,7.7,0.2,13.4,0.7,17c0.4,3.6,1.4,8.5,3,14.5l11.9,42.4h43.6L401,418.8H364.4z"/>
			<path class="st14" d="M456.1,535.2c11.5,0,21.4-1.6,29.3-4.7c7.9-3.1,14.1-6.9,18.4-11.3c3.9-4,6.7-8.1,8.4-12.3h-28.6
				c-2.5,2.2-5.7,4-9.6,5.4c-4,1.5-9.9,2.2-17.5,2.2c-7.7,0-14.1-1.3-19-3.7c-4.9-2.5-8.4-6-10.2-10.4l-0.6-1.3h1.4h85.5
				c0.4-2.4,0.5-4.8,0.5-7c0-8.2-2.2-15.7-6.6-22.3c-4.4-6.6-11-11.9-19.6-15.7c-8.7-3.8-19.3-5.8-31.6-5.8c-12.3,0-22.9,2-31.6,5.8
				c-8.6,3.8-15.2,9.1-19.6,15.6c-4.3,6.5-6.6,14-6.6,22c0,8.1,2.2,15.4,6.5,21.9c4.4,6.5,10.9,11.8,19.5,15.7
				C433.4,533.2,443.9,535.2,456.1,535.2z M427.2,483.1c1.8-4.5,5.3-8.1,10.2-10.6c4.9-2.5,11.2-3.7,19-3.7c7.8,0,14.3,1.3,19.1,3.7
				c4.9,2.5,8.4,6.1,10.2,10.6l0.5,1.3h-1.4h-56.8h-1.4L427.2,483.1z"/>
			<path class="st14" d="M580.7,535.2c11.5,0,21.4-1.6,29.3-4.7c7.9-3.1,14.1-6.9,18.4-11.3c3.9-4,6.7-8.1,8.4-12.3h-28.6
				c-2.5,2.2-5.7,4-9.6,5.4c-4,1.5-9.9,2.2-17.5,2.2c-7.7,0-14.1-1.3-19-3.7c-4.9-2.5-8.4-6-10.2-10.4l-0.6-1.3h1.4h85.5
				c0.4-2.4,0.5-4.8,0.5-7c0-8.2-2.2-15.7-6.6-22.3c-4.4-6.6-11-11.9-19.6-15.7c-8.7-3.8-19.3-5.8-31.6-5.8c-12.3,0-22.9,2-31.6,5.8
				c-8.6,3.8-15.2,9.1-19.6,15.6c-4.3,6.5-6.6,14-6.6,22c0,8.1,2.2,15.4,6.5,21.9c4.4,6.5,10.9,11.8,19.5,15.7
				C558,533.2,568.5,535.2,580.7,535.2z M551.8,483.1c1.8-4.5,5.3-8.1,10.2-10.6c4.9-2.5,11.2-3.7,19-3.7c7.8,0,14.3,1.3,19.1,3.7
				c4.9,2.5,8.4,6.1,10.2,10.6l0.5,1.3h-1.4h-56.8h-1.4L551.8,483.1z"/>
			<path class="st14" d="M814,497.6c-4.4-4.5-6.6-10.8-6.6-18.7v-28.4h-29.6v34.3c0,6.7,1,12.8,2.9,18c1.9,5.2,4.8,9.7,8.5,13.5
				c3.8,3.7,8.3,6.6,13.6,8.5c5.3,1.9,11.4,2.8,18.1,2.8c9.7,0,17.5-1.9,23.1-5.7c5.6-3.8,9.5-9.9,11.8-18.1l0.2-0.7h0.7h2.8h0.9
				v0.9v2.3c0,11.7-3.6,20.9-10.7,27.3c-7.1,6.4-17.8,9.6-32,9.6c-5.4,0-11-0.5-16.6-1.4c-5.2-0.9-11.1-2.4-17.6-4.5v24
				c5.7,2.1,11.4,3.7,17.1,4.8c5.9,1.1,12.3,1.7,19.2,1.7c11.2,0,21.1-1.4,29.4-4.2c8.3-2.7,15.2-6.9,20.5-12.4
				c5.4-5.5,9.4-12.6,12.1-21.1c2.7-8.6,4.1-18.8,4.1-30.5v-49.3h-29.6v28.4c0,7.9-2.2,14.2-6.6,18.7c-4.4,4.5-10.4,6.7-18.1,6.7
				C824.4,504.3,818.4,502,814,497.6z"/>
			<path class="st14" d="M738.6,451.2c-5.3-2-11.5-2.9-18.3-2.9c-10.2,0-18,2.1-24,6.5c-5.8,4.3-9.8,10.7-12.3,19.6l-0.2,0.7h-0.7
				H680h-1.1l0.2-1.1l4.3-23.6h-29.4v82.4h29.6v-32.7c0-8.6,2.3-15.4,6.9-20.1c4.7-4.9,10.7-7.2,18.8-7.2c7.9,0,13.5,2.2,18.4,7.2
				c4.6,4.7,7,11.5,7,20.1v32.7h29.6v-40.1c0-7-1-13.3-2.9-18.7c-1.9-5.4-4.9-10.1-8.7-14C748.6,456.1,744,453.2,738.6,451.2z"/>
		</g>
	</g>
</g>
</svg>
