<?xml version="1.0" encoding="utf-8"?>
<!-- Generator: Adobe Illustrator 22.0.0, SVG Export Plug-In . SVG Version: 6.00 Build 0)  -->
<svg version="1.1" id="Layer_1" xmlns="http://www.w3.org/2000/svg" xmlns:xlink="http://www.w3.org/1999/xlink" x="0px" y="0px"
	 viewBox="0 0 1790 2194" style="enable-background:new 0 0 1790 2194;" xml:space="preserve">
<style type="text/css">
	.st0{fill:#FFEDD8;}
	.st1{fill:#F4B991;}
	.st2{fill:#C5C5F9;}
	.st3{fill:#7171AD;}
	.st4{fill:none;stroke:#313866;stroke-width:14.8417;stroke-linecap:round;stroke-linejoin:round;stroke-miterlimit:10;}
	.st5{fill:#313866;}
	.st6{fill:none;stroke:#313866;stroke-width:14.842;stroke-linecap:round;stroke-miterlimit:10;}
	.st7{fill:none;stroke:#313866;stroke-width:14.8417;stroke-linecap:round;stroke-miterlimit:10;}
	.st8{fill:#C5C5F9;stroke:#313866;stroke-width:14.842;stroke-linecap:round;stroke-linejoin:round;stroke-miterlimit:10;}
	.st9{fill:none;}
	.st10{clip-path:url(#SVGID_2_);fill:#FFFFFF;}
	.st11{fill:#FFFFFF;}
	.st12{clip-path:url(#SVGID_4_);fill:#313866;}
	.st13{clip-path:url(#SVGID_6_);fill:#313866;}
	.st14{fill:#C5C5F9;stroke:#313866;stroke-width:14.8417;stroke-linecap:round;stroke-miterlimit:10;}
	.st15{fill:#FF555D;}
	.st16{opacity:0;fill:none;stroke:#313866;stroke-width:0.9331;stroke-miterlimit:10;}
	.st17{opacity:0;fill:none;stroke:#313866;stroke-width:0.7036;stroke-miterlimit:10;}
	.st18{opacity:0;fill:none;stroke:#313866;stroke-width:1.1061;stroke-miterlimit:10;}
</style>
<path class="st0" d="M1783.4,1358.9c-5.1-14-12.9-26.7-23.3-37.8c-8-8.5-17.4-15.8-27.9-21.8c-24.2-13.9-35-43.2-24.6-69.2
	c21-52.4,37.1-107.7,47.8-165.4c66.8-362.3-103.2-713.4-400.2-894.2l0,0c18.6-18.3,13.4-49.4-10.1-60.7l-32.6-15.7
	c-29.8-14.3-61-27.3-92.6-38.4l-5.7-2c-22.7-8-47.9-0.3-62.3,19l0,0l-28.4-7.1c-31.5-7.9-63.9-14.2-96.2-18.8l-27.6-3.9v0
	c-5.1-23-25-39.8-48.6-41l-7.9-0.4c-17-0.9-34.3-1.3-51.4-1.3c-16.2,0-32.6,0.4-48.8,1.2l-35,1.7c-26,1.3-43,27.7-33.4,51.9l0,0
	c-352.9,54.4-649,326-717.4,697c-2.8,15-5.1,30-7.1,45h0c-25.7-1.1-47.4,18.8-48.5,44.5L1,857.7c-6.1,142.2,15.3,274,63.6,391.7
	l5.7,13.8c10.4,25.4,39.7,37.1,64.8,25.8l13.6-6.1l52.2-23.4l9.4-4.2c25.9-11.6,56.4-0.9,69.3,24.5c6.8,13.5,14.3,28.3,21,41.9
	c12.2,24.5,0.3,54.3-25.5,63.5h0c0,0,0,0,0,0c-2.4,1.1-4.9,2.2-7.4,3.3c-0.4,0.2-0.8,0.4-1.2,0.6l-0.4,0.2c-2.1,1-4.1,1.9-5.9,2.9
	l-1.1,0.5c-1.9,0.9-3.8,1.9-5.9,3l-0.4,0.2c-0.5,0.2-0.9,0.5-1.4,0.7c-2,1-4,2.1-5.9,3.2c-0.5,0.3-1,0.5-1.5,0.8l-0.4,0.2
	c-1.9,1-3.7,2-5.4,3c-0.5,0.3-1,0.6-1.5,0.9c-1.3,0.7-2.5,1.5-3.8,2.2c-0.4,0.2-0.8,0.5-1.3,0.8l-0.2,0.1l0,0c-1,0.6-2,1.2-2.9,1.8
	c-1.3,0.8-2.6,1.6-3.9,2.4l-0.5,0.3c-0.8,0.5-1.5,0.9-2.3,1.4c-1.6,1-3.3,2.1-5.2,3.3c-0.7,0.4-1.4,0.9-2.1,1.4
	c-1.9,1.2-3.8,2.5-5.6,3.7c-0.6,0.4-1.2,0.8-1.8,1.2l-0.5,0.4c-1.4,1-2.9,2-4.3,3c-0.8,0.6-1.6,1.1-2.4,1.7c-1.5,1.1-3,2.1-4.5,3.2
	l-0.5,0.4c-0.5,0.4-1,0.8-1.6,1.1c-1.8,1.3-3.4,2.5-4.9,3.6l-0.1,0l-1.5,1.2c-19.3,14.6-33.5,34.4-41.3,57.2
	c-0.3,0.9-0.6,1.7-0.7,2.2c-0.2,0.8-0.6,2-1,3.4c-5.1,17.6-6.1,36.4-2.9,54.4c3.3,18.7,11.1,36.6,22.6,51.8
	c11.4,15.1,26.4,27.4,43.4,35.6c16.3,7.9,34.6,12.1,52.8,12.1c26.5,0,51.7-8.5,72.8-24.5l-0.1,0.1l0.2-0.2c0.3-0.2,0.6-0.4,0.8-0.6
	c0.9-0.7,1.8-1.4,2.7-2l0.2-0.1c0.3-0.2,0.5-0.4,0.8-0.6l0,0c0.9-0.7,1.9-1.4,2.8-2l0,0c0.2-0.1,0.4-0.3,0.6-0.4
	c1.2-0.8,2.2-1.5,3.1-2.2l0.2-0.1l0.1,0l0.1,0c1.2-0.8,2.3-1.5,3.4-2.2l0.3-0.2l0,0l0,0c3.5-2.3,7-4.4,10.4-6.3l0,0l0,0l0.3-0.2l0,0
	c0.7-0.4,1.4-0.8,2.2-1.2l0.6-0.3c0.7-0.4,1.4-0.7,2.1-1.1l0.2-0.1l0.3-0.2c0.7-0.4,1.4-0.7,2.1-1.1l-0.3,0.2l0.5-0.2
	c2.2-1.1,4.5-2.2,6.8-3.2l0.5-0.2l0,0c0.6-0.2,1.1-0.5,1.7-0.7l0.2-0.1l0.4-0.2c0.6-0.2,1.2-0.5,1.7-0.7l0.7-0.3
	c0.5-0.2,1.1-0.4,1.6-0.6l0.1,0l0.5-0.2l0,0l0,0c1.9-0.7,3.8-1.3,5.6-1.8c0.2-0.1,0.4-0.1,0.6-0.2c1.8-0.5,3.6-1,5.4-1.4l0.2,0
	l0.1,0l0.1,0c0.8-0.2,1.7-0.4,2.5-0.5l0.3-0.1c0.9-0.2,1.8-0.3,2.6-0.4l0.2,0c2.7-0.4,5.4-0.7,8.1-0.8l0.2,0c0.9,0,1.8-0.1,2.6-0.1
	l0.3,0c0.3,0,0.6,0,0.8,0c0.5,0,0.9,0,1.4,0l0.3,0c0.5,0,1.2,0,1.9,0.1c0.2,0,0.5,0,0.7,0c0.5,0,1.1,0.1,1.7,0.1
	c0.3,0,0.6,0,0.9,0.1c0.5,0,1,0.1,1.5,0.1c0.3,0,0.7,0.1,1,0.1c0.7,0.1,1.4,0.2,2.2,0.3l0.3,0l0.1,0l0,0l0,0
	c0.8,0.1,1.7,0.2,2.4,0.4l0.3,0.1c0.9,0.2,1.7,0.3,2.6,0.5l0.3,0.1c0.8,0.2,1.7,0.4,2.6,0.6v0l0.2,0l0.3,0.1c1.9,0.4,3.8,1,5.8,1.5
	l0,0l0,0l0.1,0l0.2,0.1c1,0.3,2,0.6,2.9,0.9l0.2,0.1l0,0l0,0c1,0.3,2,0.7,3,1c0.2,0.1,0.3,0.1,0.5,0.2c0.9,0.3,2,0.7,3,1.1l0.3,0.1
	l0.2,0.1c2.2,0.8,4.4,1.8,6.6,2.8l0.7,0.3c1.3,0.6,2.4,1.1,3.4,1.5l0.3,0.1l0,0c1,0.5,2,1,3.2,1.6l0.6,0.3l0.1,0
	c1.1,0.5,2.1,1.1,3.1,1.6l0,0c0,0,0,0,0.1,0l0.6,0.3c1.1,0.6,2.2,1.2,3.5,1.9l0.5,0.3l0.3,0.2c1,0.6,2,1.1,3,1.7l0.6,0.3l0.3,0.1
	c1.2,0.7,2.4,1.4,3.6,2.1l0,0l0,0l0.5,0.3l0.5,0.3c1,0.6,1.9,1.2,2.9,1.8l0.5,0.3l0.6,0.4c1.2,0.8,2.4,1.6,3.6,2.3l0.5,0.3l0.6,0.4
	c0.9,0.6,1.9,1.3,2.8,1.9l0.3,0.2c0.4,0.2,0.7,0.5,1.1,0.7c1.3,0.9,2.5,1.7,3.7,2.6c6.3,4.4,12.7,9.4,19.2,14.6l0,0l0.3,0.2
	c1.6,1.3,3.3,2.7,4.9,4l0.3,0.2c1.6,1.4,3.3,2.7,4.8,4.1c0.1,0.1,0.3,0.2,0.4,0.3c1.6,1.4,3.2,2.8,4.8,4.2l0.4,0.4
	c1.6,1.4,3.2,2.9,4.8,4.4l0.4,0.4l0.4,0.3c1.4,1.3,2.9,2.7,4.3,4c0.8,0.8,1.7,1.6,2.5,2.4l0,0l0,0c0.5,0.5,1,0.9,1.4,1.4
	c1.7,1.6,3.1,3,4.4,4.3c0.6,0.6,1.3,1.2,1.9,1.8l0.7,0.7l0.7,0.7c0.8,0.8,1.7,1.6,2.5,2.4c0.9,0.9,1.8,1.7,2.7,2.6l0.7,0.6l0.7,0.6
	c0.6,0.6,1.2,1.2,1.9,1.7c1.2,1.1,2.3,2.1,3.5,3.2l0.3,0.2l0.5,0.5c0.5,0.5,1,0.9,1.6,1.4c1.4,1.2,2.7,2.4,4.1,3.7l0.4,0.4
	c0.4,0.4,0.8,0.7,1.2,1.1c1.5,1.3,3,2.6,4.5,3.9l0.2,0.2l1.1,0.9c1.6,1.4,3.3,2.8,4.8,4.1l0.7,0.6c1.8,1.5,3.6,2.9,5.3,4.3l0,0l0,0
	l0.2,0.1c6.3,5.1,12.7,10,19.1,14.7l0.1,0l0,0l0,0c4.5,3.3,9,6.5,13.5,9.5l0.2,0.1c6,4.1,12.1,8,18.1,11.8l0.2,0.1l0.1,0.1
	c4.4,2.7,8.9,5.4,13.4,7.9l0.1,0l0,0l0,0c26,14.9,53,26.9,80.3,35.7l0,0l0,0l0.2,0.1c2.3,0.8,6.3,1.9,10.9,3.2
	c17.3,4.8,29.3,20.5,29.3,38.4l0,19.8c0,14.6-8.1,27.9-20.8,34.9c-8.7,4.8-16.8,10.3-24.1,16.5c-18.9,15.8-32.9,35.4-41.6,58.4
	c0,0.1,0,0.1-0.1,0.2c-4.5,12-14.8,20.9-27.4,23.5c-12.1,2.5-22.9,5.1-32.4,8c-17.1,5.1-30.7,10.9-41.6,17.8
	c-9.1,5.8-16.8,12.6-22.8,20.3c-10.1,13-15.5,28.4-15.5,44.4c0,14.8,4.6,29.2,13.3,41.7c5.5,7.8,12.5,14.7,21,20.6
	c10,7,22.4,12.9,37.8,18c22.7,7.6,54.2,14.1,93.5,19.4c77.7,10.5,182.2,16.1,302.3,16.2c1.5,0,2.9,0,4.4,0
	c117.9,0,218.1-5.5,289.8-15.8c37.2-5.4,65.7-11.8,87.1-19.7c14.8-5.5,26.7-11.8,36.3-19.4c19.6-15.5,30.4-36.7,30.4-59.9
	c0-15.3-4.8-30.1-13.9-42.8c-5.8-8.1-13.3-15.3-22.3-21.4c-11-7.5-24.7-13.7-42-19.1c-10.5-3.3-22.6-6.3-36.2-9.2
	c-11.5-2.4-21-10.5-25.1-21.6c0-0.1-0.1-0.3-0.1-0.4c-8.7-23-22.6-42.7-41.5-58.5c-4.9-4.2-10.2-8-15.8-11.6
	c-18-11.5-29.1-31.3-29.1-52.7l0.1-54.5c0-20.1,9.8-38.8,26.1-50.5c6.2-4.5,12.3-9.1,18.1-13.9c24.7-20.2,45.5-42.9,61.9-67.5
	c9-13.2,19-35.1,27-54.3c6.2-14.9,25.3-18.5,36.7-7.1c0.3,0.3,0.6,0.5,0.8,0.8c9.2,8.5,19.9,14.9,31.9,19.1c9.8,3.4,20,5.2,30.2,5.2
	c23.2,0,45.3-8.8,63.9-25.4c5.4-4.8,10.4-10.3,15.1-16.4c10-13,25.8-20.2,42.2-19.1c4,0.3,8.1,0.4,12.1,0.4
	c47,0,93.1-18.6,129.7-52.3c32.7-30.2,53.4-68.3,55.4-102C1790.7,1388.4,1788.6,1373.1,1783.4,1358.9z M406.4,1597.2L406.4,1597.2
	L406.4,1597.2L406.4,1597.2z"/>
<g>
	<g>
		<g>
			<g>
				<g>
					<path class="st1" d="M1053.3,1684.9c-5.9,4.6-60.3,45.5-143.6,59.5c-78.2,13.1-196.5,4.2-316.7-112.6
						c-60.5-58.8-116.6-91.4-166.8-96.8c-43.2-4.7-85.1,9.5-131.7,44.9c-25.4,19.2-61.5,14.2-80.7-11.1
						c-19.2-25.4-14.2-61.5,11.1-80.7c33.5-25.4,66.3-43.3,100.1-54.8c37.3-12.6,75.5-16.9,113.6-12.8c38.8,4.2,78.4,17.4,117.5,39
						c38.2,21.2,77.6,51.3,117.1,89.7c67.3,65.5,138.9,93.1,212.9,82.3c57.2-8.4,96.1-37.4,96.5-37.7l-0.3,0.3L1053.3,1684.9z"/>
				</g>
			</g>
			<g>
				<g>
					<path class="st2" d="M697,1708.7c38.8,20.4,76.1,31.6,110.5,36.7c12.3-13.5,27.3-44.7,17-113.9c-16.6-2.5-33-6.9-49.3-13.4
						C777.4,1630.7,782.8,1689.9,697,1708.7z"/>
					<path class="st2" d="M578.1,1617.7c4.9,4.5,9.9,9.2,14.9,14c13.6,13.3,27.2,25.1,40.8,35.7c16-0.4,50.2-10.5,88.8-77.7
						c-16.6-11.4-33.1-24.9-49.2-40.6c-4.7-4.6-9.4-9.1-14.2-13.4C658.4,1560.8,644.1,1596.3,578.1,1617.7z"/>
					<path class="st2" d="M873.8,1748.4c12.7-0.7,24.7-2.1,35.9-4c83.3-14,137.6-54.9,143.6-59.5l-70.8-90.9l0.3-0.3
						c-0.4,0.3-37.5,27.9-92.6,37.1C904.2,1647.6,926.2,1689,873.8,1748.4z"/>
					<path class="st2" d="M264.9,1461.1c-13.3,7.8-26.5,16.8-39.9,26.9c-25.4,19.2-30.3,55.3-11.1,80.7
						c19.2,25.4,55.3,30.3,80.7,11.1c6.3-4.8,12.5-9.1,18.6-13.1C318.1,1539.8,316.8,1494.2,264.9,1461.1z"/>
					<path class="st2" d="M475,1548c18.3,7.6,37.3,18.4,56.9,32.2c17.4-6.6,44.8-27.7,67.8-93.2c-14.6-10.4-29-19.6-43.4-27.5
						c-11.9-6.6-23.8-12.4-35.8-17.4C529,1465.5,529.5,1504.2,475,1548z"/>
					<path class="st2" d="M439.2,1420.5c-0.2,0-0.3,0-0.5-0.1c-37.4-4.1-75,0-111.7,12.1c21,6.5,51.7,29.3,41.9,107.5
						c13.2-3.8,26.4-5.8,39.5-6C421.9,1523.3,451,1491,439.2,1420.5z"/>
				</g>
				<g>
					<g>
						<path class="st3" d="M439.2,1420.5c11.8,70.6-17.3,102.8-30.7,113.6c5.9-0.1,11.8,0.2,17.8,0.8c15.7,1.7,31.9,6.1,48.7,13
							c54.5-43.8,54-82.5,45.5-105.9C493.3,1430.7,466.1,1423.5,439.2,1420.5z"/>
						<path class="st3" d="M531.9,1580.2c15.1,10.7,30.5,23.2,46.3,37.6c66-21.4,80.3-56.9,81.1-82c-20-18.4-39.9-34.7-59.6-48.8
							C576.7,1552.4,549.2,1573.5,531.9,1580.2z"/>
						<path class="st3" d="M633.8,1667.5c21.3,16.7,42.5,30.3,63.2,41.2c85.8-18.8,80.4-78,78.2-90.6c-17.8-7.1-35.3-16.5-52.6-28.3
							C684,1657,649.8,1667.1,633.8,1667.5z"/>
						<g>
							<path class="st3" d="M807.5,1745.4c23.6,3.5,45.9,4.1,66.3,3c52.4-59.3,30.3-100.8,16.4-117.6c-1.3,0.2-2.6,0.4-4,0.6
								c-20.8,3.1-41.4,3.1-61.7,0.1C834.9,1700.7,819.9,1731.9,807.5,1745.4z"/>
						</g>
						<path class="st3" d="M327.1,1432.6c-0.6,0.2-1.3,0.4-1.9,0.6c-20.3,6.9-40.3,16.1-60.2,27.9c51.9,33.1,53.2,78.7,48.3,105.6
							c19.1-12.5,37.6-21.3,55.8-26.6C378.8,1461.8,348.1,1439.1,327.1,1432.6z"/>
					</g>
				</g>
			</g>
			<g>
				<path class="st4" d="M1053.3,1684.9c-5.9,4.6-60.3,45.5-143.6,59.5c-78.2,13.1-196.5,4.2-316.7-112.6
					c-60.5-58.8-116.6-91.4-166.8-96.8c-43.2-4.7-85.1,9.5-131.7,44.9c-25.4,19.2-61.5,14.2-80.7-11.1
					c-19.2-25.4-14.2-61.5,11.1-80.7c33.5-25.4,66.3-43.3,100.1-54.8c37.3-12.6,75.5-16.9,113.6-12.8c38.8,4.2,78.4,17.4,117.5,39
					c38.2,21.2,77.6,51.3,117.1,89.7c67.3,65.5,138.9,93.1,212.9,82.3c57.2-8.4,96.1-37.4,96.5-37.7l-0.3,0.3L1053.3,1684.9z"/>
			</g>
		</g>
		<path class="st5" d="M611.6,2078.2c0,28.9,161.1,52.5,405,52.8s385-23,385-51.9c0-28.9-141.1-52.5-384.9-52.8
			S611.6,2049.3,611.6,2078.2z"/>
		<g>
			<g>
				<g>
					<path class="st2" d="M837.7,1929.8c0,0-69.4,0.6-90.6,56.6c-19.7,52,12.1,99.2,55.8,99.3c43.7,0,120.5,0.1,120.5,0.1
						s83.8,5.6,63.1-81c-9.9-41.4-17-98.2-20.3-156.2c-58.5-8.7-99.9-24.1-128.3-39L837.7,1929.8z"/>
					<path class="st5" d="M967.9,1688.2l-130,28.2l-0.1,93.2c28.4,14.9,69.8,30.3,128.3,39C962.9,1791.7,963.2,1733.8,967.9,1688.2z
						"/>
				</g>
				<path class="st6" d="M986.5,2004.7c-9.9-41.4-17-98.2-20.3-156.2c-3.3-56.8-3-114.8,1.8-160.4l-130,28.2l-0.1,93.2l-0.1,120.2
					c0,0-69.4,0.6-90.6,56.6c-19.7,52,12.1,99.2,55.8,99.3c43.7,0,120.5,0.1,120.5,0.1S1007.2,2091.4,986.5,2004.7z"/>
				<path class="st6" d="M878.3,1934.9c0,0-12.8-6.8-40.6-5.1"/>
			</g>
			<g>
				<g>
					<path class="st2" d="M1175.6,1930.1c0,0,69.4,0.8,90.5,56.8c19.6,52-12.3,99.2-56,99.2c-43.7,0-120.5-0.1-120.5-0.1
						s-83.8,5.4-62.9-81.2c10-41.3,17.2-98.1,20.7-156.1c58.5-8.6,100-23.9,128.4-38.7L1175.6,1930.1z"/>
					<path class="st5" d="M1046,1688.3l129.9,28.5l-0.1,93.2c-28.4,14.8-69.9,30.1-128.4,38.7
						C1050.8,1791.8,1050.6,1733.9,1046,1688.3z"/>
				</g>
				<path class="st6" d="M1026.7,2004.8c10-41.3,17.2-98.1,20.7-156.1c3.4-56.8,3.2-114.8-1.4-160.4l129.9,28.5l-0.1,93.2
					l-0.1,120.2c0,0,69.4,0.8,90.5,56.8c19.6,52-12.3,99.2-56,99.2c-43.7,0-120.5-0.1-120.5-0.1S1005.8,2091.4,1026.7,2004.8z"/>
				<path class="st6" d="M1135,1935.2c0,0,12.8-6.8,40.6-5"/>
			</g>
		</g>
		<g>
			<path class="st2" d="M676.9,1433.3c-14,113.1,10.3,205,75.3,261.4c63.7,57,168.1,78.6,282.4,63.3c114.2-16.1,210-65.3,258-137.6
				c49.4-72.2,51-167.7,10.4-273.2c-40.6-105.3-109.5-197.8-174.1-261c-66-63.4-127.7-97.6-186.7-89.7
				c-59,8.3-110.5,58.1-159.2,137.2C735.6,1212.3,691,1320.4,676.9,1433.3z"/>
			<g>
				<g>
					<path class="st3" d="M1266.5,1586.3c-52.5,48.3-138.5,79.3-241.3,94.1c-103,13.6-193.6,6.8-255.9-25.7
						c-43.4-21.9-73.3-55.9-90.9-98.2c-6.5-36.9-7-77.9-1.6-122.2c13.3,54.7,44.7,98.6,95.9,124.4c58.6,30.6,143.8,36.9,240.6,24.2
						c96.7-13.9,177.6-43.1,226.9-88.5c43.4-38.8,63.2-89.8,63-146.2c15.8,41.4,25.2,81.2,27.7,118.6
						C1324.1,1512.4,1303.2,1553.4,1266.5,1586.3z"/>
					<path class="st3" d="M697.6,1331.9c5.6-19.9,11.9-39.3,18.8-58.2c4,11.6,9,22.5,15,32.7c14.1,24.2,33.7,44.1,59.1,58.3
						c48.8,28.2,119.4,34.9,199.4,24.4c79.9-11.5,146.6-37,187-77.5c21.1-20.6,35.3-45.1,43.2-72.3c3.3-11.4,5.5-23.3,6.7-35.6
						c11.2,16.4,21.9,33.5,32,51.2c0.2,1.3,0.4,2.6,0.6,3.9c0.2,1.8,0.4,3.7,0.5,5.5c4.7,56.1-12.4,107.2-55.8,145.1
						c-44.1,39.6-116.2,65.2-202.4,77.5c-86.3,11.4-162.2,6.1-214.2-20.2c-51.1-24.9-79.8-69.6-88.6-125.2c-0.3-1.8-0.6-3.6-0.8-5.5
						C697.8,1334.5,697.7,1333.2,697.6,1331.9z"/>
				</g>
			</g>
			<path class="st7" d="M676.9,1433.3c-14,113.1,10.3,205,75.3,261.4c63.7,57,168.1,78.6,282.4,63.3c114.2-16.1,210-65.3,258-137.6
				c49.4-72.2,51-167.7,10.4-273.2c-40.6-105.3-109.5-197.8-174.1-261c-66-63.4-127.7-97.6-186.7-89.7
				c-59,8.3-110.5,58.1-159.2,137.2C735.6,1212.3,691,1320.4,676.9,1433.3z"/>
		</g>
		<g>
			<path class="st8" d="M763.6,1197.7c0,0-156.3,101.5-205.5,25.5c0,0,30.2-55,14-113.9s-46-71.4-68.3-82.6c0,0-14.3-51.3,3.4-93.7
				c17.7-42.4-4.6-71.1-33.4-70.5c-28.7,0.7-86.1,41.3-41.6,166.9c0,0-63.6-15.7-91.8,51.9c-28.2,67.7,27.8,193.6,92.1,190.6
				c0,0,39.7,92.7,120.2,105.4c90.6,14.3,167-48.5,225.6-118.2"/>
			<path class="st8" d="M399.7,1087.7c0,0,59.2-28.6,106,20c46.8,48.7,39.2,168.1-73.2,164.1"/>
			<path class="st8" d="M456.6,1043.1c0,0-8.6-10.1-24.5-13.8"/>
		</g>
		<g>
			<g>
				<g>
					<g>
						<g>
							<path class="st2" d="M971.3,1219.6l-0.4,0c-29.9,4-63.8,5.8-119.6-19.6c-31.3-14.3-58.5-34.1-80.9-59.1
								c-18.9-21.1-34.3-45.7-45.8-73.2c-9.3-20.7-15.8-44-19.3-69.2c0-0.3-0.1-0.5-0.1-0.7l0-0.4c-2.7-18.6-3.4-37-1.8-50.5
								c1.5-23.6,6.3-45.3,14.4-64.5c-5.6-14.4-8.2-32-7.7-52.4c0.6-24.6,5.3-51.5,12.9-73.8c8.2-23.3,17.4-34.9,29.1-36.5
								c0.3,0,25.8-3.4,58.8,3.4c19.4,4,37.6,10.6,54.1,19.7c17.3,9.5,32.9,21.8,46.3,36.5c9-17.8,20.8-33.7,35-47.5
								c13.5-13.1,29.3-24.4,46.9-33.3c29.9-15.2,54.7-18.7,55.7-18.9c11.8-1.5,23.8,7.2,37.8,27.4c13.3,19.5,25,44.2,32.1,67.8
								c5.6,18.5,7.8,35.3,6.8,50.1c17.1,22.1,29.7,49.5,37.3,81.6c2,8.2,3.7,17,4.9,26.2l0,0.2c3.6,27,5.2,68.8-7.8,114.7
								c-13.7,48.3-40.2,89.2-78.9,121.5C1034.1,1208.3,1001.1,1215.6,971.3,1219.6z"/>
						</g>
					</g>
				</g>
				<g>
					<path class="st3" d="M1111.7,777c-7.9-26.2-20-49.5-31.1-65.7c-11.3-16.3-21.5-25.5-30.7-24.3c0,0,0,0,0,0
						c-9.2,1.3-16.6,12.9-23.1,31.5c-5.2,15.1-9.8,35-11.6,56.6c17.1,1.5,33.3,5,48.2,11c13,5.2,25.1,12.4,35.9,21.8
						c6.7,5.7,12.9,12.2,18.6,19.3C1119.4,812.7,1117.2,795.6,1111.7,777z"/>
					<path class="st3" d="M783.8,751.3c-11.3-16.3-21.5-25.5-30.7-24.3l0,0c-9.2,1.3-16.6,12.9-23.1,31.5
						c-6.3,18.6-11.8,44.3-12.5,71.6c-0.5,20.4,2.3,38.4,8.3,52.4c3.5-7.9,7.6-15.4,12.4-22.4c7.9-11.9,17.5-22.7,28.6-32.1
						c12.6-10.7,27.1-19.4,43-25.8C802.3,782.1,792.7,764.4,783.8,751.3z"/>
					<path class="st2" d="M1160.3,933.8c-1.3-9.4-2.9-18-4.8-25.5c-7.5-31.7-20.3-59.3-37.7-81c-5.7-7.1-11.9-13.5-18.6-19.3
						c-10.8-9.4-22.9-16.5-35.9-21.8c-14.9-6-31.1-9.5-48.2-11c1.9-21.6,6.5-41.5,11.6-56.6c6.6-18.7,13.9-30.3,23.1-31.5
						c0,0-96.6,13-136.8,105.9c-63.4-78.9-160-65.9-160-65.9c9.2-1.2,19.4,8,30.7,24.3c8.9,13.1,18.5,30.8,26.1,50.8
						c-16,6.4-30.5,15.2-43,25.8c-11,9.4-20.7,20.2-28.6,32.1c-4.7,7-8.8,14.5-12.4,22.4c-8.6,19.3-13.6,41.3-15,65.1
						c-1.3,11.4-1.2,28.6,1.8,48.9c0,0.3,0.1,0.7,0.1,1c3.4,24.5,9.8,47.2,18.8,67.3c20.2,48.5,57.5,98.7,123,128.5
						c54,24.6,86.2,22.9,115.5,19c29.3-3.9,60.8-10.9,106.3-48.9c83.6-69.8,92.4-167.7,84.1-229.5
						C1160.4,933.9,1160.4,933.8,1160.3,933.8C1160.3,933.8,1160.3,933.8,1160.3,933.8z"/>
				</g>
				<g>
					<g>
						<path class="st6" d="M795.2,1164.8c-8.8-7.3-17-15.3-24.7-23.8c-18.9-21.1-34.3-45.7-45.8-73.2c-9.3-20.7-15.8-44-19.3-69.2
							c0-0.3-0.1-0.5-0.1-0.7l0-0.4c-2.7-18.6-3.4-37-1.8-50.5c1.5-23.6,6.3-45.3,14.4-64.5c-5.6-14.4-8.2-32-7.7-52.4
							c0.6-24.6,5.3-51.5,12.9-73.8c8.2-23.3,17.4-34.9,29.1-36.5c0.3,0,25.8-3.4,58.8,3.4c19.4,4,37.6,10.6,54.1,19.7
							c17.3,9.5,32.9,21.8,46.3,36.5c9-17.8,20.8-33.7,35-47.5c13.5-13.1,29.3-24.4,46.9-33.3c29.9-15.2,54.7-18.7,55.7-18.9
							c11.8-1.5,23.8,7.2,37.8,27.4c13.3,19.5,25,44.2,32.1,67.8c5.6,18.5,7.8,35.3,6.8,50.1c17.1,22.1,29.7,49.5,37.3,81.6
							c2,8.2,3.7,17,4.9,26.2l0,0.2c3.6,27,5.2,68.8-7.8,114.7c-7.5,26.3-18.7,50.4-33.7,72.1"/>
					</g>
				</g>
			</g>
			<path class="st7" d="M935,788.7c0,0-20.4-3.2-43.4,5.5"/>
		</g>
		<g>
			<g>
				<g>
					<path class="st9" d="M963.2,1162c50.3-6.2,77.2-27.9,72-58.2c-3.1-30.6-34.8-44.4-84.9-37c-50.3,6.2-77.2,27.9-72,58.2
						C881.3,1155.6,913,1169.4,963.2,1162z"/>
					<g>
						<defs>
							<path id="SVGID_1_" d="M963.2,1162c50.3-6.2,77.2-27.9,72-58.2c-3.1-30.6-34.8-44.4-84.9-37c-50.3,6.2-77.2,27.9-72,58.2
								C881.3,1155.6,913,1169.4,963.2,1162z"/>
						</defs>
						<use xlink:href="#SVGID_1_"  style="overflow:visible;fill:#313866;"/>
						<clipPath id="SVGID_2_">
							<use xlink:href="#SVGID_1_"  style="overflow:visible;"/>
						</clipPath>
						<path class="st10" d="M967.3,1192.9c31.8-3.9,48.7-18.1,45.4-38.2c-2.1-20.2-22.2-29.5-53.9-24.8
							c-31.8,3.9-48.7,18.1-45.4,38.2C915.5,1188.4,935.6,1197.6,967.3,1192.9z"/>
					</g>
				</g>
				<g>
					<g>
						<path class="st11" d="M954.3,953.5c7.3,61.9,41.9,93.8,92.6,85.7c51.1-5.7,75.9-45.7,66.5-107.3
							c-7.3-61.9-41.9-93.8-92.6-85.7C969.8,851.9,945,891.9,954.3,953.5z"/>
						<g>
							<defs>
								<path id="SVGID_3_" d="M954.3,953.5c7.3,61.9,41.9,93.8,92.6,85.7c51.1-5.7,75.9-45.7,66.5-107.3
									c-7.3-61.9-41.9-93.8-92.6-85.7C969.8,851.9,945,891.9,954.3,953.5z"/>
							</defs>
							<clipPath id="SVGID_4_">
								<use xlink:href="#SVGID_3_"  style="overflow:visible;"/>
							</clipPath>
							<path class="st12" d="M998,981.1c3.7,31.4,21.3,47.7,47,43.5c25.9-2.9,38.5-23.2,33.8-54.5c-3.7-31.4-21.3-47.7-47-43.5
								C1005.8,929.5,993.2,949.8,998,981.1z"/>
						</g>
					</g>
					<g>
						<path class="st11" d="M757,980.2c7.3,61.9,41.9,93.8,92.6,85.7c51.1-5.7,75.9-45.7,66.5-107.3c-7.3-61.9-41.9-93.8-92.6-85.7
							C772.5,878.6,747.7,918.6,757,980.2z"/>
						<g>
							<defs>
								<path id="SVGID_5_" d="M757,980.2c7.3,61.9,41.9,93.8,92.6,85.7c51.1-5.7,75.9-45.7,66.5-107.3
									c-7.3-61.9-41.9-93.8-92.6-85.7C772.5,878.6,747.7,918.6,757,980.2z"/>
							</defs>
							<clipPath id="SVGID_6_">
								<use xlink:href="#SVGID_5_"  style="overflow:visible;"/>
							</clipPath>
							<path class="st13" d="M800.7,1007.9c3.7,31.4,21.3,47.7,47,43.5c25.9-2.9,38.5-23.2,33.8-54.5c-3.7-31.4-21.3-47.7-47-43.5
								C808.5,956.3,795.9,976.6,800.7,1007.9z"/>
						</g>
					</g>
				</g>
				<g>
					
						<ellipse transform="matrix(0.9668 -0.2554 0.2554 0.9668 -243.0457 256.3831)" class="st2" cx="865.7" cy="1064.1" rx="74.4" ry="33.6"/>
					
						<ellipse transform="matrix(0.9999 -1.113920e-02 1.113920e-02 0.9999 -11.5393 11.5512)" class="st2" cx="1031.2" cy="1041.7" rx="74.4" ry="33.6"/>
				</g>
				<g>
					<g>
						<path class="st14" d="M948,1048.1c2.5,17.4,8.5,31.5,19.3,39.3c10.6,8.1,26.2,9.9,44,7.7c17.8-2.6,32.3-8.4,40.4-19
							c8.3-10.4,10.3-25.6,8.1-43"/>
						<path class="st14" d="M835.6,1063.3c2.5,17.4,8.5,31.5,19.3,39.3c10.6,8.1,26.2,9.9,44,7.7c17.8-2.6,32.3-8.4,40.4-19
							c8.3-10.4,10.3-25.6,8.1-43"/>
					</g>
				</g>
				<path class="st5" d="M943.1,1013c-18.2,2.1-27.7,11.8-25.5,26.2c1.5,14.4,13.2,21.5,31.3,18.8c18.2-2.1,27.7-11.8,25.5-26.2
					C972.9,1017.4,961.2,1010.4,943.1,1013z"/>
			</g>
			<path class="st7" d="M926.7,1220c0,0,42.1,20.5,87-11.8"/>
		</g>
		<g>
			<path class="st8" d="M1166.3,1154.5c0,0,210.3-76.4,381,170.8c0,0,49.5,19.1,94.5,16.8c45-2.3,87.6,16.2,85.1,58.5
				c-2.5,42.3-90.2,141.4-200.1,69.7c0,0-8.8,36.3-16.1,51.6c-11.8,24.9-29.4,39.3-48.8,32.6c-17.4-6.1-27.7-27.2-8.5-64.2
				c12-23.2,13.3-41.6,4.7-69.8c-8.6-28.2-73.1-226.3-273.2-201.5"/>
			<path class="st8" d="M1506.7,1456c0,0,8.1,7.4,21.9,15.5"/>
			<line class="st8" x1="1547.3" y1="1325.3" x2="1520.6" y2="1315.7"/>
		</g>
	</g>
	<g>
		<g>
			<g>
				<path class="st5" d="M560.8,467.7c8.4,11.4,16.8,22.7,25.2,34.1c-43.2,34-82.7,77.2-116.7,130.3c7.3,5,14.6,10,21.9,14.9
					c27.7-43.3,59.2-79.6,93.5-109.4c7.9,9.7,15.8,19.4,23.6,29.1c-31.7,27.6-60.9,61.2-86.5,101.2c8.1,5.5,16.1,11,24.2,16.5
					c27.9-43.7,60.4-79.2,96-107.2c8.4,11.4,16.8,22.7,25.2,34.1c-46.2,36.4-86.6,86.8-117.4,153.1
					c-53.3-24.7-106.5-49.4-159.8-74.1C434.8,593.9,493.6,520.6,560.8,467.7z"/>
				<path class="st5" d="M690.2,594.9c-24.6-35.7-49.3-71.5-73.9-107.2c16.7-12,33.9-22.8,51.6-32.2c3.5,12.6,7.1,25.1,10.9,37.5
					c1.6-0.9,3.3-1.8,4.9-2.7c-5.5-28.3,10.3-53.1,47.4-66.4c24.8-8.7,46.7-7.7,63.6,1.3c17,9,26.9,24.9,31.1,46.4
					c4.1,20.7,8.1,41.4,12.2,62.1c-14.4,2.4-28.7,5.7-42.9,9.9c-5.2-16.5-10.4-33-15.7-49.5c-3.9-12.3-10.4-20.9-19.9-25.3
					c-9.5-4.4-21-4.2-33.9,1.1c-12.9,5.3-21.3,13.3-24.9,23c-3.7,9.8-2.2,20.4,3.9,31.9c8.1,15.3,16.2,30.6,24.4,45.9
					C715.7,577.8,702.8,585.8,690.2,594.9z"/>
				<path class="st5" d="M900.2,576.8c-7.9-1.3-16.1-3.3-24.9-5.9c-2.1-13.5-4.2-27.1-6.4-40.6c11.3,2.3,20.9,4.2,28.9,5.2
					c8,1.1,16.3,1.6,24.9,1.7c20.8,0.3,36.3-2.7,47.5-10.5c11.1-7.8,18.3-19.5,20.6-35.6c0.1-0.9,0.2-1.7,0.4-2.6
					c-1.4-0.2-2.8-0.4-4.2-0.7c-6,10.5-13.8,17.8-23.5,22.2c-9.7,4.5-22.8,6.1-39.8,5.8c-13.9-0.2-26-2.5-37-7.2
					c-10.9-4.7-20.1-11.3-27.4-20.2c-7.3-8.9-12.4-19.3-14.7-31.5c-2.2-12.2-1.1-23.6,4-34c5.1-10.4,13.8-19.1,26.2-25.5
					c12.4-6.4,28-9.8,46-9.6c42.3,0.8,67.4,17.8,73.2,44.1c1.9,0.3,3.7,0.6,5.6,0.9c-1-11.8-2.3-23.7-3.7-35.5c20,3,39.8,7,59.4,12
					c-6.1,25.4-12.3,50.9-18.4,76.3c-8.9,36.1-23.5,60.3-41.2,74.6c-17.9,14.3-40,19.4-69.6,18.7
					C916.7,578.8,908.1,578.1,900.2,576.8z M974.5,477.3c7.7-4.2,12.2-10.2,13.2-18.3c1-7.9-2-15-9.3-21.1
					c-7.3-6-19.1-9.9-35.1-10.8c-15.8-0.9-27.6,1.7-35.1,6.9c-7.5,5.2-10.8,12-10.3,20c0.6,8.2,4.7,14.6,12.1,19.7
					c7.4,5,17.9,7.6,31.9,8.4C956,482.9,966.8,481.5,974.5,477.3z"/>
				<path class="st5" d="M1086.2,567.1c-13.9-6.9-28.2-13.1-42.7-18.6c21.5-58.2,43-116.4,64.5-174.6c21.2,8,41.9,17,62.2,27.1
					C1142.2,456.3,1114.2,511.7,1086.2,567.1z"/>
				<path class="st5" d="M1202.1,442.9c-3.3-7.6-3.2-14.6,0.7-21c3.8-6.4,10-10,18.7-10.4c8.7-0.4,18.4,2.7,28.7,9.4
					c10.3,6.7,16.9,14.3,19.8,22.4c2.9,8.1,1.9,15-2.7,20.9c-4.6,5.9-11.2,8.7-19.6,8.6c-8.4-0.1-17.2-3.3-26.6-9.4
					C1211.8,457.2,1205.4,450.5,1202.1,442.9z M1152.2,606.6c-12.9-9.4-26.2-18.1-40-26.2c24-39.7,47.9-79.4,71.9-119.2
					c18.3,10.7,36.1,22.3,53.2,34.8C1208.9,533,1180.6,569.8,1152.2,606.6z"/>
				<path class="st5" d="M1187.4,620.2c-2.9-15.9,0.1-29.7,10.6-41.4c0.4-0.5,0.8-0.9,1.3-1.4c13.5,11.6,26.4,23.9,38.5,36.9
					c-0.3,0.2-0.5,0.5-0.8,0.7c-8.9,7.9-4.7,20.4,10.5,39.5c8.7,11,15.1,18.3,20,21.4c4.8,3.1,8.9,3.7,12.1,1.7
					c3.8-2.4,4.4-6.9,1.5-13.4c-2.9-6.5-8.6-16.2-17.7-28.3c-10.5-13.8-19.5-25.2-26.3-34.6c-6.8-9.4-11.4-18.9-13.7-28.9
					c-2.3-10,0.1-19.2,7.8-27.7c8.6-9.5,21.8-12.3,39.7-6.8c17.7,5.5,40.7,22,64.4,51.8c22,27.8,31.6,53.3,31.4,72.9
					c-0.3,19.7-8,33-21.4,40.4c-8.6-17.3-18.3-33.9-29-49.9c3.9-3.2,5.6-8.2,4.6-15.1c-1-6.9-5.6-16.1-14.3-27.2
					c-9.7-12.2-17.7-19.5-23.2-22.5c-5.6-3-9.8-3.2-12.5-0.9c-3.1,2.7-2.7,7.1,1.1,13.3c3.8,6.2,10.7,15.5,20.1,28.5
					c10.9,15.3,18.5,28.8,23.5,39.8c5,11,6.9,22,5.9,32.3c-1,10.4-7.1,17.9-17.8,22.9c-12.6,5.9-25.6,4.5-39.1-2.8
					c-13.7-7.3-27.7-23-45.7-45.9C1201.4,653.6,1190.4,636.2,1187.4,620.2z"/>
				<path class="st5" d="M1273.6,756.6c55.3-25.1,110.6-50.3,165.9-75.4c9.3,19.8,17.5,40.2,24.3,61.3c-12.9,4.2-25.8,8.4-38.7,12.5
					c-13.9,4.5-30,6.6-48.1,7.2c0.6,1.8,1.2,3.6,1.8,5.3c29.3-0.6,51.2,19.3,58,60.7c4.3,27.6-0.8,51.1-13,67.6
					c-12.3,16.7-30.1,24.4-52.3,24.4c-21.4,0.1-42.8,0.2-64.2,0.3c0.5-16.6,0-32.8-1.6-48.7c17.4-2.2,34.9-4.5,52.3-6.7
					c13-1.6,22.8-6.9,28.9-16c6.1-9.1,7.9-21.3,4.9-35.5c-3-14.2-9.5-24.2-18.6-29.6c-9.1-5.4-20-5.8-32.6-1.7
					c-16.8,5.4-33.5,10.9-50.3,16.3C1285.6,784.3,1280,770.2,1273.6,756.6z"/>
			</g>
		</g>
		<g>
			<path class="st15" d="M265.3,630.4c-20.7,59.2-33.8,124.4-37.8,195.6c8.4-3.7,15.3-11.1,21-21.7c5.7-10.7,9.5-24.6,12-41.7
				c2.5-16.9,3.5-29.6,2.5-38.8c-1-9.2-2.9-17-5.8-23.4c5.2-21.9,11.3-43.1,18.4-63.6c7.6,6.7,14,16.1,19.7,27.8
				c5.7,11.8,9.2,26.4,11.2,44.2c2,17.8,0.8,38.3-2.8,62.8c-3.7,25.9-9.4,48.5-18,68c-8.6,19.5-18.9,35.2-31.8,46.4
				c-12.8,11.2-27.1,17.7-43.3,18.3c-16.1,0.6-31-5-44.3-17.5C153,874.3,142.5,855,136,829.5c-6.5-25.5-8-56.1-3.1-89.7
				c4.9-33.6,14.7-60.3,27.6-80c13-19.7,27.9-32,43.8-37.6c15.9-5.6,31.6-4.9,47,1.2C255.9,625.1,260.6,627.5,265.3,630.4z
				 M177.5,796.5c3.6,13,9.7,22.1,17.8,27.4c2.7-49.1,9.6-95.6,20.2-139.2c-9.1,1.8-17.3,7.6-24.3,18c-7,10.3-12.3,25.3-15.2,45
				C173.1,767,173.8,783.5,177.5,796.5z"/>
			<path class="st15" d="M418.7,424.1c-41.1,39.7-77.2,85.9-106.8,138.6c8.9,1,17.9-1.4,26.9-7c9-5.6,17.6-14.7,26.1-27
				c8.5-12.1,14.1-21.8,16.6-29.6c2.5-7.8,3.7-14.9,3.5-21.5c12.9-15.3,26.4-29.9,40.6-43.7c4.3,9,6.6,19.6,7.3,31.7
				c0.7,12.2-1.6,25.8-6.5,41c-4.9,15.3-13.6,31.2-25.8,48.8c-12.9,18.7-26.3,33.4-41.2,44.3c-14.9,10.9-29.8,17.9-45.5,20.4
				c-15.6,2.5-30.9,0.7-45.6-6.3c-14.7-7-26.2-18-33.7-33.5c-7.5-15.4-10-34.7-6.6-57.2c3.4-22.4,13.3-46.7,30.1-70.9
				c16.8-24.2,35.6-41.2,54.7-51.2c19.1-10.1,37.2-13.5,53.7-11c16.5,2.5,30.5,10.1,42.1,21.9C412.2,415.5,415.5,419.6,418.7,424.1z
				 M273.5,519.9c-1.2,11.7,1.1,21.5,6.7,29.1c19.6-36.7,42.3-70.6,67.5-101.6c-9-2.5-18.6-1.3-28.6,4c-10.1,5.3-20.2,15-29.8,29.4
				C279.8,494.9,274.7,508.2,273.5,519.9z"/>
			<path class="st15" d="M479.6,458c-39-39.8-78-79.6-117-119.4c17.2-16.5,35.2-32,53.8-46.5c7.7,14.7,15.5,29.2,23.5,43.7
				c1.7-1.4,3.5-2.8,5.2-4.1c-14.4-33.5-2.3-66,37.8-90.7c26.8-16.4,52.9-20.9,75.9-14.5c23,6.4,40.1,22.9,52.2,48.1
				c11.7,24.2,23.5,48.4,35.2,72.7c-16.9,7.5-33.5,15.8-49.7,24.8c-11.4-18.9-22.8-37.9-34.1-56.8c-8.5-14.2-19-23-31.8-26
				c-12.8-3-26.5,0-40.5,9.3c-14,9.3-21.9,20.6-23.6,33.2c-1.7,12.6,2.9,25.3,13.5,38.2c14,17.2,28.1,34.4,42.1,51.5
				C507.3,432.8,493.2,445,479.6,458z"/>
			<path class="st15" d="M725.4,381.4c-9.7,0.9-19.8,1.2-30.5,0.8c-6.8-15.6-13.7-31.2-20.5-46.7c13.2-0.4,24.5-1.1,34.2-2.5
				c9.7-1.4,18.9-3.3,27.9-5.9c23.2-6.7,39.1-16.4,48.5-30.8c9.3-14.3,12.5-32.3,8.2-54.3c-0.3-1.5-0.6-3-0.9-4.4
				c-1.8,0.3-3.6,0.6-5.4,1c-1.2,17.1-6.1,30.3-14.7,40c-8.6,9.7-21.4,16.6-38.6,21.4c-23.9,6.8-44.6,6.2-64.1-2.7
				c-19.4-8.8-35.2-24.8-46.5-49.3c-9.6-21-19.3-42-28.9-63c21.7-9.1,43.8-17.2,66.2-24.4c6.4,18,12.7,36.1,19.1,54.1
				c5.1,14.3,13.1,24,23.7,29.6c10.6,5.6,22.5,6.5,36.3,3.1c13.9-3.5,23.9-9.9,30.2-19.8c6.3-9.8,8.2-22.1,5.2-36.9
				c-3.8-18.7-7.7-37.4-11.5-56c23.2-4.3,46.6-7.7,70.2-10.1c3.6,32.4,7.3,64.8,10.9,97.2c5,45.8-1.4,80.4-16,104.6
				c-14.8,24.3-38.4,39.3-72.7,49.1C745.2,378.5,735.1,380.5,725.4,381.4z"/>
			<path class="st15" d="M913.9,289.2c-15.8-75.8-38.5-151.1-67.8-225c31.3-1.5,62.6-1.5,93.9,0.1c9.7,43.6,17.6,87.3,23.6,131
				c1.7,17.4,1.5,34.8-0.4,52.1c-0.1,1.1-0.2,2.1-0.3,3.2c1.9,0.2,3.8,0.4,5.6,0.6c0.1-1.1,0.2-2.1,0.4-3.2
				c2.3-20.1,5.8-37.1,11-51.1c11.8-29.5,24.7-58.8,38.6-87.8c30.2,4.3,60.2,10.2,89.8,17.6c0.7,31.9,0.4,63.6-1,95.2
				c-1.1,14.7-4.9,31.7-11.1,51.1c-0.3,1-0.7,2.1-1,3.1c1.8,0.5,3.6,1.1,5.4,1.6c0.3-1,0.7-2.1,1-3.1c5.5-16.6,12.5-32.7,21.3-48
				c23.6-37.9,49-75.1,76-111.4c29.4,10.4,58.2,22.3,86.3,35.8c-57.6,56.6-109.6,117.1-155.6,180.7c-24.8-9.4-50.3-17.2-76.2-23.5
				c0.3-28.8-0.3-57.7-1.9-86.6c-0.4-12.2-0.3-21.9,0.3-29.1c0.7-7.2,2.6-18.2,5.8-32.9c0.1-0.4,0.2-0.8,0.3-1.3
				c-2.1-0.4-4.3-0.8-6.4-1.3c-0.1,0.4-0.2,0.8-0.3,1.3c-3.1,14.8-5.9,25.6-8.3,32.5c-2.4,6.9-6.4,15.8-11.8,26.9
				c-13.5,26-26.1,52.3-37.7,78.9C967.2,292.4,940.6,290,913.9,289.2z"/>
			<path class="st15" d="M1383.2,415.4c-40.4-40.3-85.9-74.3-134.8-102.1c-1.3,8.8,0.7,17.4,5.8,26.1c5.1,8.7,13.6,16.8,25.4,24.9
				c11.7,8,21.1,13.3,28.8,15.6c7.7,2.3,14.7,3.3,21.2,3c15.1,12.3,29.7,25.4,43.7,39.3c-9,4.3-19.7,6.7-31.9,7.6
				c-12.2,0.9-25.8-1.2-41-5.7c-15.2-4.5-30.8-12.7-47.8-24.3c-17.9-12.2-31.6-24.9-41.4-39.2c-9.7-14.3-15.5-28.8-17.1-44.1
				c-1.5-15.3,1-30.3,8.2-44.8c7.2-14.6,17.9-26,32.6-33.6c14.7-7.6,32.8-10.4,53.9-7.6c21.1,2.8,44,11.9,67.3,27.8
				c23.2,15.9,39.9,33.9,49.9,52.5c10,18.6,13.5,36.4,11.1,52.7c-2.4,16.4-9.9,30.2-21.8,41.8
				C1391.8,408.8,1387.8,412.2,1383.2,415.4z M1293.3,278.7c-11.2-1.2-20.6,1.1-28.1,6.6c33.8,19.1,66,41.1,96.1,65.9
				c2.7-8.8,1.8-18.2-3.1-28.1c-4.9-9.9-14.1-19.8-27.7-29.1C1317,284.9,1304.4,279.9,1293.3,278.7z"/>
			<path class="st15" d="M1525.7,622.8c-23.3-57.6-53.9-109-90.1-154.2c-4.2,8-5.3,17.1-3.6,27.5c1.8,10.4,6.9,21.5,15.1,34.1
				c8.1,12.4,15.1,21.4,21.5,26.7c6.4,5.3,12.6,9.2,18.7,11.4c9.8,18.3,18.8,37.4,26.9,57.3c-9.9,0.6-20.6-1.5-32.3-5.7
				c-11.7-4.2-23.6-11.9-36.1-22.5c-12.6-10.6-24.3-24.9-36.1-42.9c-12.5-18.9-20.9-36.4-25.1-53.9c-4.2-17.4-4.6-33.5-0.8-48.8
				c3.8-15.2,11.3-28.7,23.1-40.1c11.8-11.4,25.7-18.5,42.2-20.6c16.4-2,34.3,1.8,53.2,12.4c18.8,10.6,37.1,28,53.3,52.6
				c16.2,24.6,25.4,49.1,28.2,71.5c2.8,22.5-0.2,41.8-8.2,57.2c-8,15.4-19.8,26.2-35,32.9C1536,619.8,1531,621.4,1525.7,622.8z
				 M1489.5,451.8c-10.1-5.3-19.6-6.6-28.6-4.2c25,31.1,47.5,65.1,66.9,101.9c5.6-7.6,8-17.3,6.9-29c-1.1-11.7-6.3-25.1-15.8-39.5
				C1509.5,466.8,1499.5,457.2,1489.5,451.8z"/>
			<path class="st15" d="M1475.1,667.1c50.1-23.6,100.2-47.2,150.3-70.8c10.3,24.2,19.5,49.4,27.6,75.6c-16.4,1.6-32.7,3.5-49,5.6
				c0.8,2.4,1.6,4.9,2.3,7.3c36.4-0.3,63.8,26.5,74.3,83.6c6.9,38.2,2.3,71.3-11.4,95.3c-13.8,24.2-35.2,36.2-62.9,37.3
				c-26.6,1.1-53.3,2.3-79.9,3.4c-1.1-24.8-3.2-48.9-6.4-72.1c21.6-3.5,43.2-7,64.7-10.5c16.1-2.6,27.9-10.2,34.9-23.3
				c7-13,8.6-30.1,4.2-49.9c-4.4-19.8-12.7-33.5-24.2-41c-11.5-7.6-25.1-8.2-40.6-2.7c-20.8,7.3-41.5,14.6-62.3,21.8
				C1490.5,706,1483.2,686.1,1475.1,667.1z"/>
			<path class="st15" d="M1460.9,970.5c3.7-11.6,8.1-23.5,13.2-35.9c16.5,1.2,33.1,2.4,49.6,3.7c-5.5,15.9-10.1,29.5-13.4,41.3
				c-3.3,11.9-6.1,23.4-8.2,34.8c-5.5,29.4-5.4,51.5,1.9,69.3c7.2,17.7,20.7,30.8,41.4,38.8c1.4,0.5,2.8,1.1,4.2,1.6
				c0.7-2,1.3-4,2-6c-13.7-10.7-22.3-23.2-26.1-37.7c-3.8-14.5-3.2-31.9,1.1-53.5c5.9-30.1,15.9-53.7,32.4-71.4
				c16.3-17.6,37.2-27.2,63.4-25.9c22.5,1.1,45,2.2,67.4,3.4c-1.6,32-4.7,62.8-9.2,92.5c-18.4-3.3-36.9-6.6-55.3-9.9
				c-14.6-2.6-26.7,0.8-36.6,9.5c-9.9,8.6-16.5,21.3-20.4,38c-4,17-3.7,31,1.4,43.2c5,12.1,14.3,20.8,28.3,26
				c17.7,6.5,35.4,13,53.1,19.5c-8.5,26.4-18.3,51.7-29.2,75.9c-29-14.4-58-28.8-87.1-43.2c-41-20.5-66.3-45.7-78.8-73.6
				c-12.5-28.2-12.7-60-4.4-103.1C1454.2,994.5,1457.2,982.1,1460.9,970.5z"/>
			<path class="st15" d="M288.5,972.8c2.7,25.9,6.9,50.8,12.4,74.7c-53.6,14.7-107.3,29.3-160.9,44c9,38.9,20.8,75.8,35.1,110.6
				c-17.4,7.8-34.8,15.6-52.2,23.4C80,1121,58,999.2,64,860.4c18.8,0.8,37.6,1.6,56.4,2.4c-2,46.2-0.6,90.4,3.8,132.5
				C178.9,987.8,233.7,980.3,288.5,972.8z"/>
		</g>
		<circle class="st16" cx="921.2" cy="915.8" r="523.5"/>
		<circle class="st17" cx="912.8" cy="921.2" r="394.7"/>
		<circle class="st18" cx="904.5" cy="908.3" r="620.5"/>
	</g>
</g>
</svg>
