<?xml version="1.0" encoding="utf-8"?>
<!-- Generator: Adobe Illustrator 22.0.0, SVG Export Plug-In . SVG Version: 6.00 Build 0)  -->
<svg version="1.1" id="Layer_1" xmlns="http://www.w3.org/2000/svg" xmlns:xlink="http://www.w3.org/1999/xlink" x="0px" y="0px"
	 viewBox="0 0 1800 1350" style="enable-background:new 0 0 1800 1350;" xml:space="preserve">
<style type="text/css">
	.st0{fill:#B2C9EA;}
	.st1{fill:#EF7689;}
	.st2{fill:#EBE386;}
	.st3{fill:#F4B991;}
	.st4{fill:#D98BE5;}
	.st5{fill:#72D3A3;}
	.st6{fill:#22CCD7;}
	.st7{fill:#B791E8;}
	.st8{fill:#C8E8A7;}
	.st9{fill:#F28FBF;}
	.st10{fill:#95959B;}
	.st11{fill:#AFE2EF;}
	.st12{fill:#6B84BC;}
	.st13{fill:none;stroke:#363636;stroke-width:9.1837;stroke-linecap:round;stroke-miterlimit:10;}
	.st14{fill:#363636;}
	.st15{fill:#A3BDE5;stroke:#363636;stroke-width:9.697;stroke-linecap:round;stroke-miterlimit:10;}
	.st16{clip-path:url(#SVGID_2_);fill:#FFFFFF;}
	.st17{fill:#B2C9EA;stroke:#363636;stroke-width:9.6886;stroke-linecap:round;stroke-miterlimit:10;}
	.st18{fill:#FFFFFF;}
	.st19{fill:#AF3C3B;}
	.st20{clip-path:url(#SVGID_4_);fill:#FFFFFF;}
	.st21{fill:#EF7689;stroke:#363636;stroke-width:9.6886;stroke-linecap:round;stroke-miterlimit:10;}
	.st22{clip-path:url(#SVGID_6_);fill:#363636;}
	.st23{clip-path:url(#SVGID_8_);fill:#363636;}
	.st24{fill:#C9B93C;}
	.st25{clip-path:url(#SVGID_10_);fill:#FFFFFF;}
	.st26{fill:#EBE386;stroke:#363636;stroke-width:9.6886;stroke-linecap:round;stroke-miterlimit:10;}
	.st27{clip-path:url(#SVGID_12_);fill:#363636;}
	.st28{clip-path:url(#SVGID_14_);fill:#363636;}
	.st29{fill:#EA823A;}
	.st30{clip-path:url(#SVGID_16_);fill:#FFFFFF;}
	.st31{fill:#F4B991;stroke:#363636;stroke-width:9.6886;stroke-linecap:round;stroke-miterlimit:10;}
	.st32{clip-path:url(#SVGID_18_);fill:#363636;}
	.st33{clip-path:url(#SVGID_20_);fill:#363636;}
	.st34{fill:#B74BC8;}
	.st35{clip-path:url(#SVGID_22_);fill:#FFFFFF;}
	.st36{fill:#D98BE5;stroke:#363636;stroke-width:9.6886;stroke-linecap:round;stroke-miterlimit:10;}
	.st37{clip-path:url(#SVGID_24_);fill:#363636;}
	.st38{clip-path:url(#SVGID_26_);fill:#363636;}
	.st39{fill:#348E5F;}
	.st40{fill:#72D3A3;stroke:#363636;stroke-width:9.6886;stroke-linecap:round;stroke-miterlimit:10;}
	.st41{fill:none;stroke:#363636;stroke-width:9.6886;stroke-linecap:round;stroke-miterlimit:10;}
	.st42{clip-path:url(#SVGID_28_);fill:#FFFFFF;}
	.st43{clip-path:url(#SVGID_30_);fill:#363636;}
	.st44{clip-path:url(#SVGID_32_);fill:#363636;}
	.st45{fill:#008A9A;}
	.st46{fill:#22CCD7;stroke:#363636;stroke-width:9.6886;stroke-linecap:round;stroke-miterlimit:10;}
	.st47{clip-path:url(#SVGID_34_);fill:#363636;}
	.st48{clip-path:url(#SVGID_36_);fill:#363636;}
	.st49{clip-path:url(#SVGID_38_);}
	.st50{clip-path:url(#SVGID_40_);fill:#FFFFFF;}
	.st51{fill:#924CDB;}
	.st52{clip-path:url(#SVGID_42_);fill:#363636;}
	.st53{clip-path:url(#SVGID_44_);fill:#363636;}
	.st54{fill:#B791E8;stroke:#363636;stroke-width:9.6886;stroke-linecap:round;stroke-miterlimit:10;}
	.st55{fill:#97C161;}
	.st56{fill:none;stroke:#363636;stroke-width:9.6886;stroke-linecap:round;stroke-linejoin:round;stroke-miterlimit:10;}
	.st57{clip-path:url(#SVGID_46_);fill:#FFFFFF;}
	.st58{fill:#C8E8A7;stroke:#363636;stroke-width:9.6886;stroke-linecap:round;stroke-miterlimit:10;}
	.st59{fill:#CE4A95;}
	.st60{clip-path:url(#SVGID_48_);fill:#FFFFFF;}
	.st61{fill:#F28FBF;stroke:#363636;stroke-width:9.6886;stroke-linecap:round;stroke-miterlimit:10;}
	.st62{clip-path:url(#SVGID_50_);fill:#363636;}
	.st63{clip-path:url(#SVGID_52_);fill:#363636;}
	.st64{fill:#57595B;}
	.st65{fill:#95959B;stroke:#363636;stroke-width:9.6886;stroke-linecap:round;stroke-miterlimit:10;}
	.st66{fill:#6C9DA8;}
	.st67{clip-path:url(#SVGID_54_);fill:#FFFFFF;}
	.st68{fill:#AFE2EF;stroke:#363636;stroke-width:9.6886;stroke-linecap:round;stroke-miterlimit:10;}
	.st69{fill:none;stroke:#FFFFFF;stroke-width:9.6886;stroke-linecap:round;stroke-miterlimit:10;}
</style>
<g>
	<rect y="0" class="st0" width="450" height="450"/>
	<rect x="450" class="st1" width="450" height="450"/>
	<rect x="900" y="0" class="st2" width="450" height="450"/>
	<rect x="1350" class="st3" width="450" height="450"/>
	<rect y="450" class="st4" width="450" height="450"/>
	<rect x="450" y="450" class="st5" width="450" height="450"/>
	<rect x="900" y="450" class="st6" width="450" height="450"/>
	<rect x="1350" y="450" class="st7" width="450" height="450"/>
	<rect y="900" class="st8" width="450" height="450"/>
	<rect x="450" y="900" class="st9" width="450" height="450"/>
	<rect x="900" y="900" class="st10" width="450" height="450"/>
	<rect x="1350" y="900" class="st11" width="450" height="450"/>
	<path class="st0" d="M135,96c0,0,108.9-0.2,109.2,132l-108.9,0.2L135,96z"/>
	<path class="st0" d="M314.2,95.7c0,0-108.9,0.2-108.5,132.4l108.9-0.2L314.2,95.7z"/>
	<g>
		<path class="st12" d="M343.8,154c-2.6-16.1-8-30.9-13.3-41.4c-5.4-10.5-10.7-16.8-16.3-16.8c-5.5,0-10.8,6.3-16.2,16.9
			c-5.2,10.5-10.5,25.3-13,41.5c-2.5,16.2-1.3,30.2,4.1,39.9c5.3,9.8,14.7,15.2,25.4,15.3c10.7-0.1,20.1-5.6,25.3-15.4
			C345.2,184.2,346.4,170.1,343.8,154z"/>
		<path class="st12" d="M105.7,154.4c2.5-16.2,7.8-31,13-41.5c5.4-10.6,10.7-16.9,16.2-16.9c5.5,0,10.9,6.3,16.3,16.8
			c5.3,10.5,10.7,25.3,13.3,41.4c2.6,16.2,1.4,30.2-3.9,39.9c-5.2,9.8-14.6,15.3-25.3,15.4c-10.7,0-20.1-5.5-25.4-15.3
			C104.4,184.6,103.2,170.6,105.7,154.4z"/>
	</g>
	<path class="st0" d="M89.7,253.3c0-0.2,0-0.4,0-0.6c-0.2-12.3,1.1-22.5,2.8-29.2c3.8-19.7,11.6-36.8,23.1-49.8
		c16.8-19.3,41.8-31.5,70.3-31.7c13,0.1,27.7,5,38.8,9.1c5.8-7.1,17.4-10.7,38.7-9.2c28.5,2,53.6,10.2,70.5,29.4
		c14.3,15.9,22.9,38.2,25.5,63.9c0.5,4.6,0.8,9.8,0.8,15.5c0,0,0,0,0,0c0,0,0,0,0,0.1c0,37.3-12.9,94.7-68,129.6
		c-30,19-49.3,20.6-66.9,20.6c-17.7,0-36.9-1.5-67-20.4c-36.5-22.9-54.6-55.6-62.8-85.9C91.8,282.1,89.8,268.2,89.7,253.3z"/>
	<g>
		<path class="st13" d="M238,144.7c0,0-11.8-3.5-26.2-0.1"/>
		<g>
			<path class="st14" d="M110.1,108.4L110.1,108.4L110.1,108.4c3.3-6.5,6.4-11.2,9.6-14.7c4.6-5,9.7-7.5,15.1-7.6l0,0l0,0
				c0.4,0,9.6,0,22.6,3c13.6,3.1,26.3,8.3,37.6,15.3c11.4,7,21.2,15.8,29.5,26.1c6.2-7.9,13.4-14.9,21.4-20.9
				c9.5-7,20.2-12.7,31.8-16.8c19.8-7,35.6-7.1,36.3-7.1l0,0l0,0c1.3,0,2.6,0.2,3.8,0.4c0,0,0,0,0,0c4.5,1,8.6,3.8,12.5,8.3
				c2.9,3.3,5.7,7.7,8.6,13.4l0,0l0,0c3.9,7.7,10.9,23.7,14.2,44.3c1.8,11.2,1.9,21.3,0.4,30.2c3.8,6.8,7,14.3,9.5,22.3
				c2.9,9.2,4.8,19,5.9,29.4c0.6,5.2,0.9,10.8,0.9,16.5c0,0,0,0,0,0.1v0v0c0,0,0,0.1,0,0.1c0,16.8-2.4,42.6-14.1,69.6
				c-4.5,10.5-10.1,20.3-16.7,29.4c-1.7,2.3-5,2.7-7.1,0.7l0,0c-1.9-1.7-2.2-4.6-0.7-6.6c22.6-31.2,29-67.1,28.9-93.2c0,0,0,0,0-0.1
				c0,0,0,0,0,0c0-5.7-0.3-10.9-0.8-15.5c-2-19.4-7.3-36.8-16-51c2.1-8.5,2.1-18.9,0.3-30.3c-2.6-16.1-8-30.9-13.3-41.4
				c-4.9-9.5-9.7-15.5-14.6-16.6c-0.6-0.1-1.1-0.2-1.7-0.2c0,0,0,0,0,0c0,0-58.4,0.1-89.5,52c-19.5-32.2-49.4-44.3-69.3-48.9
				C143.3,96,135,96,135,96c-5.5,0-10.8,6.3-16.2,16.9c-5.2,10.5-10.5,25.3-13,41.5c-1.9,12.1-1.7,22.9,0.8,31.7
				c-6.6,10.8-11.3,23.5-14,37.4c-1.7,6.7-2.9,16.9-2.8,29.2c0,0.2,0,0.4,0,0.6c0.1,14.8,2.1,28.8,5.8,41.4
				c5.1,19,14.1,38.9,29.1,56.7c1.7,2,1.5,5-0.3,6.8h0c-2,2-5.2,1.8-7-0.4c-3.1-3.7-6.1-7.6-8.9-11.7c-9.9-14.5-17.3-30.9-22.2-48.7
				c-4-13.5-6.1-28.3-6.2-44.1l0,0l0,0c0-0.2,0-0.3,0-0.5c0,0,0-0.1,0-0.1c-0.1-11.8,0.9-22.9,3-31.4c2.7-13.6,7.1-26,13.1-36.8
				c-1.9-9.2-1.9-19.8,0-31.7C99.4,132.2,106.3,116.2,110.1,108.4z"/>
			<path class="st15" d="M328.9,355c0,0,2.6-2.5,10-13"/>
		</g>
	</g>
	<path class="st14" d="M225.1,363.7c34.2,0.4,54.2-11.7,53.5-32.4c0.7-20.7-19.3-32.9-53.5-32.5c-34.2-0.4-54.2,11.7-53.5,32.4
		C170.9,352,190.9,364.1,225.1,363.7z"/>
	<g>
		<defs>
			<path id="SVGID_1_" d="M225.1,363.7c34.2,0.4,54.2-11.7,53.5-32.4c0.7-20.7-19.3-32.9-53.5-32.5c-34.2-0.4-54.2,11.7-53.5,32.4
				C170.9,352,190.9,364.1,225.1,363.7z"/>
		</defs>
		<clipPath id="SVGID_2_">
			<use xlink:href="#SVGID_1_"  style="overflow:visible;"/>
		</clipPath>
		<path class="st16" d="M225.1,384.7c21.6,0.3,34.3-7.7,33.8-21.5c0.4-13.7-12.2-21.7-33.8-21.5c-21.6-0.3-34.3,7.7-33.8,21.5
			C190.8,377,203.5,385,225.1,384.7z"/>
	</g>
	<g>
		<g>
			<path class="st17" d="M225.2,293.3c0.1,10.2,2.5,18.8,8.1,24.2c5.5,5.5,14.4,7.7,24.9,7.8c10.5-0.1,19.3-2.4,24.8-7.9
				c5.6-5.4,7.9-14,8-24.2"/>
			<path class="st17" d="M159,293.4c0.1,10.2,2.5,18.8,8.1,24.2c5.5,5.5,14.4,7.7,24.9,7.8c10.5-0.1,19.3-2.4,24.8-7.9
				c5.6-5.4,7.9-14,8-24.2"/>
		</g>
	</g>
	<path class="st14" d="M225,271.6c-11-0.2-17.4,4.8-17.2,13.5c-0.2,8.7,6.1,13.8,17.1,13.6c11,0.2,17.4-4.8,17.2-13.5
		C242.4,276.6,236,271.5,225,271.6z"/>
	<path class="st18" d="M242.9,240.6c-0.6,37.2,17.3,58.9,47.9,58.2c30.7,0.7,48.6-21,48-58.2c0.6-37.2-17.3-58.9-47.9-58.2
		C260.2,181.7,242.3,203.4,242.9,240.6z"/>
	<path class="st14" d="M264.5,250.7c-0.3,20.5,9.5,32.4,26.4,32c16.9,0.4,26.7-11.5,26.4-32c0.3-20.5-9.5-32.4-26.4-32
		C274,218.3,264.2,230.2,264.5,250.7z"/>
	<path class="st18" d="M112.2,240.6c-0.6,37.2,17.3,58.9,47.9,58.2c30.7,0.7,48.6-21,48-58.2c0.6-37.2-17.3-58.9-47.9-58.2
		C129.5,181.7,111.6,203.4,112.2,240.6z"/>
	<path class="st14" d="M133.8,250.7c-0.3,20.5,9.5,32.4,26.4,32c16.9,0.4,26.7-11.5,26.4-32c0.3-20.5-9.5-32.4-26.4-32
		C143.3,218.3,133.5,230.2,133.8,250.7z"/>
	<g>
		<path class="st1" d="M585,96c0,0,108.9-0.2,109.2,132l-108.9,0.2L585,96z"/>
		<path class="st1" d="M764.2,95.7c0,0-108.9,0.2-108.5,132.4l108.9-0.2L764.2,95.7z"/>
	</g>
	<g>
		<path class="st19" d="M793.8,154c-2.6-16.1-8-30.9-13.3-41.4c-5.4-10.5-10.7-16.8-16.3-16.8c-5.5,0-10.8,6.3-16.2,16.9
			c-5.2,10.5-10.5,25.3-13,41.5c-2.5,16.2-1.3,30.2,4.1,39.9c5.3,9.8,14.7,15.2,25.4,15.3c10.7-0.1,20.1-5.6,25.3-15.4
			C795.2,184.2,796.4,170.1,793.8,154z"/>
		<path class="st19" d="M555.7,154.4c2.5-16.2,7.8-31,13-41.5c5.4-10.6,10.7-16.9,16.2-16.9c5.5,0,10.9,6.3,16.3,16.8
			c5.3,10.5,10.7,25.3,13.3,41.4c2.6,16.2,1.4,30.2-3.9,39.9c-5.2,9.8-14.6,15.3-25.3,15.4c-10.7,0-20.1-5.5-25.4-15.3
			C554.4,184.6,553.2,170.6,555.7,154.4z"/>
	</g>
	<path class="st1" d="M539.7,253.3c0-0.2,0-0.4,0-0.6c-0.2-12.3,1.1-22.5,2.8-29.2c3.8-19.7,11.6-36.8,23.1-49.8
		c16.8-19.3,41.8-31.5,70.3-31.7c13,0.1,27.7,5,38.8,9.1c5.8-7.1,17.4-10.7,38.7-9.2c28.5,2,53.6,10.2,70.5,29.4
		c14.3,15.9,22.9,38.2,25.5,63.9c0.5,4.6,0.8,9.8,0.8,15.5c0,0,0,0,0,0c0,0,0,0,0,0.1c0,37.3-12.9,94.7-68,129.6
		c-30,19-49.3,20.6-66.9,20.6c-17.7,0-36.9-1.5-67-20.4c-36.5-22.9-54.6-55.6-62.8-85.9C541.8,282.1,539.8,268.2,539.7,253.3z"/>
	<g>
		<path class="st13" d="M688,144.7c0,0-11.8-3.5-26.2-0.1"/>
		<g>
			<path class="st14" d="M560.1,108.4L560.1,108.4L560.1,108.4c3.3-6.5,6.4-11.2,9.6-14.7c4.6-5,9.7-7.5,15.1-7.6l0,0l0,0
				c0.4,0,9.6,0,22.6,3c13.6,3.1,26.3,8.3,37.6,15.3c11.4,7,21.2,15.8,29.5,26.1c6.2-7.9,13.4-14.9,21.4-20.9
				c9.5-7,20.2-12.7,31.8-16.8c19.8-7,35.6-7.1,36.3-7.1l0,0l0,0c1.3,0,2.6,0.2,3.8,0.4c0,0,0,0,0,0c4.5,1,8.6,3.8,12.5,8.3
				c2.9,3.3,5.7,7.7,8.6,13.4l0,0l0,0c3.9,7.7,10.9,23.7,14.2,44.3c1.8,11.2,1.9,21.3,0.4,30.2c3.8,6.8,7,14.3,9.5,22.3
				c2.9,9.2,4.8,19,5.9,29.4c0.6,5.2,0.9,10.8,0.9,16.5c0,0,0,0,0,0.1v0v0c0,0,0,0.1,0,0.1c0,16.8-2.4,42.6-14.1,69.6
				c-4.5,10.5-10.1,20.3-16.7,29.4c-1.7,2.3-5,2.7-7.1,0.7l0,0c-1.9-1.7-2.2-4.6-0.7-6.6c22.6-31.2,29-67.1,28.9-93.2c0,0,0,0,0-0.1
				c0,0,0,0,0,0c0-5.7-0.3-10.9-0.8-15.5c-2-19.4-7.3-36.8-16-51c2.1-8.5,2.1-18.9,0.3-30.3c-2.6-16.1-8-30.9-13.3-41.4
				c-4.9-9.5-9.7-15.5-14.6-16.6c-0.6-0.1-1.1-0.2-1.7-0.2c0,0,0,0,0,0c0,0-58.4,0.1-89.5,52c-19.5-32.2-49.4-44.3-69.3-48.9
				C593.3,96,585,96,585,96c-5.5,0-10.8,6.3-16.2,16.9c-5.2,10.5-10.5,25.3-13,41.5c-1.9,12.1-1.7,22.9,0.8,31.7
				c-6.6,10.8-11.3,23.5-14,37.4c-1.7,6.7-2.9,16.9-2.8,29.2c0,0.2,0,0.4,0,0.6c0.1,14.8,2.1,28.8,5.8,41.4
				c5.1,19,14.1,38.9,29.1,56.7c1.7,2,1.5,5-0.3,6.8l0,0c-2,2-5.2,1.8-7-0.4c-3.1-3.7-6.1-7.6-8.9-11.7
				c-9.9-14.5-17.3-30.9-22.2-48.7c-4-13.5-6.1-28.3-6.2-44.1l0,0l0,0c0-0.2,0-0.3,0-0.5c0,0,0-0.1,0-0.1c-0.1-11.8,0.9-22.9,3-31.4
				c2.7-13.6,7.1-26,13.1-36.8c-1.9-9.2-1.9-19.8,0-31.7C549.4,132.2,556.3,116.2,560.1,108.4z"/>
			<path class="st15" d="M778.9,355c0,0,2.6-2.5,10-13"/>
		</g>
	</g>
	<path class="st14" d="M675.1,384c34.2,0.6,54.2-16.4,53.5-45.5c0.7-29.1-19.3-46.1-53.5-45.5c-34.2-0.6-54.2,16.4-53.5,45.5
		C620.9,367.6,640.9,384.5,675.1,384z"/>
	<g>
		<defs>
			<path id="SVGID_3_" d="M675.1,384c34.2,0.6,54.2-16.4,53.5-45.5c0.7-29.1-19.3-46.1-53.5-45.5c-34.2-0.6-54.2,16.4-53.5,45.5
				C620.9,367.6,640.9,384.5,675.1,384z"/>
		</defs>
		<clipPath id="SVGID_4_">
			<use xlink:href="#SVGID_3_"  style="overflow:visible;"/>
		</clipPath>
		<path class="st20" d="M675.1,419.5c21.6,0.4,34.3-10.8,33.8-30.1c0.4-19.3-12.2-30.5-33.8-30.1c-21.6-0.4-34.3,10.8-33.8,30.1
			C640.8,408.6,653.5,419.9,675.1,419.5z"/>
	</g>
	<g>
		<g>
			<path class="st21" d="M675.2,293.3c0.1,10.2,2.5,18.8,8.1,24.2c5.5,5.5,14.4,7.7,24.9,7.8c10.5-0.1,19.3-2.4,24.8-7.9
				c5.6-5.4,7.9-14,8-24.2"/>
			<path class="st21" d="M609,293.4c0.1,10.2,2.5,18.8,8.1,24.2c5.5,5.5,14.4,7.7,24.9,7.8c10.5-0.1,19.3-2.4,24.8-7.9
				c5.6-5.4,7.9-14,8-24.2"/>
		</g>
	</g>
	<path class="st14" d="M675,271.6c-11-0.2-17.4,4.8-17.2,13.5c-0.2,8.7,6.1,13.8,17.1,13.6c11,0.2,17.4-4.8,17.2-13.5
		C692.4,276.6,686,271.5,675,271.6z"/>
	<g>
		<path class="st18" d="M685.9,240.6c-0.6,37.2,17.3,58.9,47.9,58.2c30.7,0.7,48.6-21,48-58.2c0.6-37.2-17.3-58.9-47.9-58.2
			C703.2,181.7,685.3,203.4,685.9,240.6z"/>
		<g>
			<defs>
				<path id="SVGID_5_" d="M685.9,240.6c-0.6,37.2,17.3,58.9,47.9,58.2c30.7,0.7,48.6-21,48-58.2c0.6-37.2-17.3-58.9-47.9-58.2
					C703.2,181.7,685.3,203.4,685.9,240.6z"/>
			</defs>
			<clipPath id="SVGID_6_">
				<use xlink:href="#SVGID_5_"  style="overflow:visible;"/>
			</clipPath>
			<path class="st22" d="M763.2,282.4c0.4-22.8-10.6-36.1-29.4-35.6c-18.8-0.5-29.8,12.8-29.4,35.6c-0.4,22.8,10.6,36.1,29.4,35.6
				C752.6,318.4,763.6,305.2,763.2,282.4z"/>
		</g>
	</g>
	<path class="st18" d="M567.2,240.6c-0.6,37.2,17.3,58.9,47.9,58.2c30.7,0.7,48.6-21,48-58.2c0.6-37.2-17.3-58.9-47.9-58.2
		C584.5,181.7,566.6,203.4,567.2,240.6z"/>
	<g>
		<path class="st18" d="M567.2,240.6c-0.6,37.2,17.3,58.9,47.9,58.2c30.7,0.7,48.6-21,48-58.2c0.6-37.2-17.3-58.9-47.9-58.2
			C584.5,181.7,566.6,203.4,567.2,240.6z"/>
		<g>
			<defs>
				<path id="SVGID_7_" d="M567.2,240.6c-0.6,37.2,17.3,58.9,47.9,58.2c30.7,0.7,48.6-21,48-58.2c0.6-37.2-17.3-58.9-47.9-58.2
					C584.5,181.7,566.6,203.4,567.2,240.6z"/>
			</defs>
			<clipPath id="SVGID_8_">
				<use xlink:href="#SVGID_7_"  style="overflow:visible;"/>
			</clipPath>
			<path class="st23" d="M644.5,282.4c0.4-22.8-10.6-36.1-29.4-35.6c-18.8-0.5-29.8,12.8-29.4,35.6c-0.4,22.8,10.6,36.1,29.4,35.6
				C633.9,318.4,644.9,305.2,644.5,282.4z"/>
		</g>
	</g>
	<polygon class="st1" points="564,186 675,241 784,186 674,159 	"/>
	<g>
		<path class="st2" d="M1035,96c0,0,108.9-0.2,109.2,132l-108.9,0.2L1035,96z"/>
		<path class="st2" d="M1214.2,95.7c0,0-108.9,0.2-108.5,132.4l108.9-0.2L1214.2,95.7z"/>
	</g>
	<g>
		<path class="st24" d="M1243.8,154c-2.6-16.1-8-30.9-13.3-41.4c-5.4-10.5-10.7-16.8-16.3-16.8c-5.5,0-10.8,6.3-16.2,16.9
			c-5.2,10.5-10.5,25.3-13,41.5c-2.5,16.2-1.3,30.2,4.1,39.9c5.3,9.8,14.7,15.2,25.4,15.3c10.7-0.1,20.1-5.6,25.3-15.4
			C1245.2,184.2,1246.4,170.1,1243.8,154z"/>
		<path class="st24" d="M1005.7,154.4c2.5-16.2,7.8-31,13-41.5c5.4-10.6,10.7-16.9,16.2-16.9c5.5,0,10.9,6.3,16.3,16.8
			c5.3,10.5,10.7,25.3,13.3,41.4c2.6,16.2,1.4,30.2-3.9,39.9c-5.2,9.8-14.6,15.3-25.3,15.4c-10.7,0-20.1-5.5-25.4-15.3
			C1004.4,184.6,1003.2,170.6,1005.7,154.4z"/>
	</g>
	<path class="st2" d="M989.7,253.3c0-0.2,0-0.4,0-0.6c-0.2-12.3,1.1-22.5,2.8-29.2c3.8-19.7,11.6-36.8,23.1-49.8
		c16.8-19.3,41.8-31.5,70.3-31.7c13,0.1,27.7,5,38.8,9.1c5.8-7.1,17.4-10.7,38.7-9.2c28.5,2,53.6,10.2,70.5,29.4
		c14.3,15.9,22.9,38.2,25.5,63.9c0.5,4.6,0.8,9.8,0.8,15.5c0,0,0,0,0,0c0,0,0,0,0,0.1c0,37.3-12.9,94.7-68,129.6
		c-30,19-49.3,20.6-66.9,20.6c-17.7,0-36.9-1.5-67-20.4c-36.5-22.9-54.6-55.6-62.8-85.9C991.8,282.1,989.8,268.2,989.7,253.3z"/>
	<g>
		<path class="st13" d="M1138,144.7c0,0-11.8-3.5-26.2-0.1"/>
		<g>
			<path class="st14" d="M1010.1,108.4L1010.1,108.4L1010.1,108.4c3.3-6.5,6.4-11.2,9.6-14.7c4.6-5,9.7-7.5,15.1-7.6l0,0l0,0
				c0.4,0,9.6,0,22.6,3c13.6,3.1,26.3,8.3,37.6,15.3c11.4,7,21.2,15.8,29.5,26.1c6.2-7.9,13.4-14.9,21.4-20.9
				c9.5-7,20.2-12.7,31.8-16.8c19.8-7,35.6-7.1,36.3-7.1l0,0l0,0c1.3,0,2.6,0.2,3.8,0.4c0,0,0,0,0,0c4.5,1,8.6,3.8,12.5,8.3
				c2.9,3.3,5.7,7.7,8.6,13.4l0,0l0,0c3.9,7.7,10.9,23.7,14.2,44.3c1.8,11.2,1.9,21.3,0.4,30.2c3.8,6.8,7,14.3,9.5,22.3
				c2.9,9.2,4.8,19,5.9,29.4c0.6,5.2,0.9,10.8,0.9,16.5c0,0,0,0,0,0.1v0v0c0,0,0,0.1,0,0.1c0,16.8-2.4,42.6-14.1,69.6
				c-4.5,10.5-10.1,20.3-16.7,29.4c-1.7,2.3-5,2.7-7.1,0.7l0,0c-1.9-1.7-2.2-4.6-0.7-6.6c22.6-31.2,29-67.1,28.9-93.2c0,0,0,0,0-0.1
				c0,0,0,0,0,0c0-5.7-0.3-10.9-0.8-15.5c-2-19.4-7.3-36.8-16-51c2.1-8.5,2.1-18.9,0.3-30.3c-2.6-16.1-8-30.9-13.3-41.4
				c-4.9-9.5-9.7-15.5-14.6-16.6c-0.6-0.1-1.1-0.2-1.7-0.2c0,0,0,0,0,0c0,0-58.4,0.1-89.5,52c-19.5-32.2-49.4-44.3-69.3-48.9
				C1043.3,96,1035,96,1035,96c-5.5,0-10.8,6.3-16.2,16.9c-5.2,10.5-10.5,25.3-13,41.5c-1.9,12.1-1.7,22.9,0.8,31.7
				c-6.6,10.8-11.3,23.5-14,37.4c-1.7,6.7-2.9,16.9-2.8,29.2c0,0.2,0,0.4,0,0.6c0.1,14.8,2.1,28.8,5.8,41.4
				c5.1,19,14.1,38.9,29.1,56.7c1.7,2,1.5,5-0.3,6.8h0c-2,2-5.2,1.8-7-0.4c-3.1-3.7-6.1-7.6-8.9-11.7c-9.9-14.5-17.3-30.9-22.2-48.7
				c-4-13.5-6.1-28.3-6.2-44.1l0,0l0,0c0-0.2,0-0.3,0-0.5c0,0,0-0.1,0-0.1c-0.1-11.8,0.9-22.9,3-31.4c2.7-13.6,7.1-26,13.1-36.8
				c-1.9-9.2-1.9-19.8,0-31.7C999.4,132.2,1006.3,116.2,1010.1,108.4z"/>
			<path class="st15" d="M1228.9,355c0,0,2.6-2.5,10-13"/>
		</g>
	</g>
	<path class="st14" d="M1095.8,351c-0.4,25.6,10.5,40.5,29.2,40c18.7,0.5,29.6-14.4,29.2-40c0.4-25.6-10.5-40.5-29.2-40
		C1106.3,310.5,1095.4,325.4,1095.8,351z"/>
	<g>
		<defs>
			<path id="SVGID_9_" d="M1095.8,351c-0.4,25.6,10.5,40.5,29.2,40c18.7,0.5,29.6-14.4,29.2-40c0.4-25.6-10.5-40.5-29.2-40
				C1106.3,310.5,1095.4,325.4,1095.8,351z"/>
		</defs>
		<clipPath id="SVGID_10_">
			<use xlink:href="#SVGID_9_"  style="overflow:visible;"/>
		</clipPath>
		<path class="st25" d="M1123.8,419.8c13.9,0.3,22-8.1,21.7-22.5c0.3-14.4-7.8-22.8-21.7-22.5c-13.9-0.3-22,8.1-21.7,22.5
			C1101.8,411.6,1109.9,420,1123.8,419.8z"/>
	</g>
	<g>
		<g>
			<g>
				<path class="st26" d="M1125.2,295.3c0.1,10.2,2.5,18.8,8.1,24.2c5.5,5.5,14.4,7.7,24.9,7.8c10.5-0.1,19.3-2.4,24.8-7.9
					c5.6-5.4,7.9-14,8-24.2"/>
				<path class="st26" d="M1059,295.4c0.1,10.2,2.5,18.8,8.1,24.2c5.5,5.5,14.4,7.7,24.9,7.8c10.5-0.1,19.3-2.4,24.8-7.9
					c5.6-5.4,7.9-14,8-24.2"/>
			</g>
		</g>
		<path class="st14" d="M1125,273.6c-11-0.2-17.4,4.8-17.2,13.5c-0.2,8.7,6.1,13.8,17.1,13.6c11,0.2,17.4-4.8,17.2-13.5
			C1142.4,278.6,1136,273.5,1125,273.6z"/>
	</g>
	<g>
		<path class="st18" d="M1231.8,228.6c0.6-37.2-17.3-58.9-47.9-58.2c-30.7-0.7-48.6,21-48,58.2c-0.6,37.2,17.3,58.9,47.9,58.2
			C1214.5,287.5,1232.4,265.9,1231.8,228.6z"/>
		<g>
			<defs>
				<path id="SVGID_11_" d="M1231.8,228.6c0.6-37.2-17.3-58.9-47.9-58.2c-30.7-0.7-48.6,21-48,58.2c-0.6,37.2,17.3,58.9,47.9,58.2
					C1214.5,287.5,1232.4,265.9,1231.8,228.6z"/>
			</defs>
			<clipPath id="SVGID_12_">
				<use xlink:href="#SVGID_11_"  style="overflow:visible;"/>
			</clipPath>
			<path class="st27" d="M1154.5,186.9c-0.4,22.8,10.6,36.1,29.4,35.6c18.8,0.5,29.8-12.8,29.4-35.6c0.4-22.8-10.6-36.1-29.4-35.6
				C1165.1,150.8,1154.1,164.1,1154.5,186.9z"/>
		</g>
	</g>
	<g>
		<path class="st18" d="M1113.1,228.6c0.6-37.2-17.3-58.9-47.9-58.2c-30.7-0.7-48.6,21-48,58.2c-0.6,37.2,17.3,58.9,47.9,58.2
			C1095.8,287.5,1113.7,265.9,1113.1,228.6z"/>
		<g>
			<defs>
				<path id="SVGID_13_" d="M1113.1,228.6c0.6-37.2-17.3-58.9-47.9-58.2c-30.7-0.7-48.6,21-48,58.2c-0.6,37.2,17.3,58.9,47.9,58.2
					C1095.8,287.5,1113.7,265.9,1113.1,228.6z"/>
			</defs>
			<clipPath id="SVGID_14_">
				<use xlink:href="#SVGID_13_"  style="overflow:visible;"/>
			</clipPath>
			<path class="st28" d="M1035.8,186.9c-0.4,22.8,10.6,36.1,29.4,35.6c18.8,0.5,29.8-12.8,29.4-35.6c0.4-22.8-10.6-36.1-29.4-35.6
				C1046.4,150.8,1035.4,164.1,1035.8,186.9z"/>
		</g>
	</g>
	<g>
		<path class="st18" d="M1135.9,228.6c-0.6,37.2,17.3,58.9,47.9,58.2c30.7,0.7,48.6-21,48-58.2c0.6-37.2-17.3-58.9-47.9-58.2
			C1153.2,169.7,1135.3,191.4,1135.9,228.6z"/>
		<path class="st14" d="M1150.6,230.3c-0.4,25.8,12,40.8,33.2,40.3c21.3,0.5,33.7-14.5,33.3-40.3c0.4-25.8-12-40.8-33.2-40.3
			C1162.6,189.5,1150.2,204.5,1150.6,230.3z"/>
	</g>
	<g>
		<path class="st18" d="M1017.2,228.6c-0.6,37.2,17.3,58.9,47.9,58.2c30.7,0.7,48.6-21,48-58.2c0.6-37.2-17.3-58.9-47.9-58.2
			C1034.5,169.7,1016.6,191.4,1017.2,228.6z"/>
		<path class="st14" d="M1031.9,230.3c-0.4,25.8,12,40.8,33.2,40.3c21.3,0.5,33.7-14.5,33.3-40.3c0.4-25.8-12-40.8-33.2-40.3
			C1043.9,189.5,1031.5,204.5,1031.9,230.3z"/>
	</g>
	<g>
		<g>
			<path class="st3" d="M1485,96c0,0,108.9-0.2,109.2,132l-108.9,0.2L1485,96z"/>
			<path class="st3" d="M1664.2,95.7c0,0-108.9,0.2-108.5,132.4l108.9-0.2L1664.2,95.7z"/>
		</g>
		<g>
			<path class="st29" d="M1693.8,154c-2.6-16.1-8-30.9-13.3-41.4c-5.4-10.5-10.7-16.8-16.3-16.8c-5.5,0-10.8,6.3-16.2,16.9
				c-5.2,10.5-10.5,25.3-13,41.5c-2.5,16.2-1.3,30.2,4.1,39.9c5.3,9.8,14.7,15.2,25.4,15.3c10.7-0.1,20.1-5.6,25.3-15.4
				C1695.2,184.2,1696.4,170.1,1693.8,154z"/>
			<path class="st29" d="M1455.7,154.4c2.5-16.2,7.8-31,13-41.5c5.4-10.6,10.7-16.9,16.2-16.9c5.5,0,10.9,6.3,16.3,16.8
				c5.3,10.5,10.7,25.3,13.3,41.4c2.6,16.2,1.4,30.2-3.9,39.9c-5.2,9.8-14.6,15.3-25.3,15.4c-10.7,0-20.1-5.5-25.4-15.3
				C1454.4,184.6,1453.2,170.6,1455.7,154.4z"/>
		</g>
		<path class="st3" d="M1439.7,253.3c0-0.2,0-0.4,0-0.6c-0.2-12.3,1.1-22.5,2.8-29.2c3.8-19.7,11.6-36.8,23.1-49.8
			c16.8-19.3,41.8-31.5,70.3-31.7c13,0.1,27.7,5,38.8,9.1c5.8-7.1,17.4-10.7,38.7-9.2c28.5,2,53.6,10.2,70.5,29.4
			c14.3,15.9,22.9,38.2,25.5,63.9c0.5,4.6,0.8,9.8,0.8,15.5c0,0,0,0,0,0c0,0,0,0,0,0.1c0,37.3-12.9,94.7-68,129.6
			c-30,19-49.3,20.6-66.9,20.6c-17.7,0-36.9-1.5-67-20.4c-36.5-22.9-54.6-55.6-62.8-85.9C1441.8,282.1,1439.8,268.2,1439.7,253.3z"
			/>
		<g>
			<path class="st13" d="M1588,144.7c0,0-11.8-3.5-26.2-0.1"/>
			<g>
				<path class="st14" d="M1460.1,108.4L1460.1,108.4L1460.1,108.4c3.3-6.5,6.4-11.2,9.6-14.7c4.6-5,9.7-7.5,15.1-7.6l0,0l0,0
					c0.4,0,9.6,0,22.6,3c13.6,3.1,26.3,8.3,37.6,15.3c11.4,7,21.2,15.8,29.5,26.1c6.2-7.9,13.4-14.9,21.4-20.9
					c9.5-7,20.2-12.7,31.8-16.8c19.8-7,35.6-7.1,36.3-7.1l0,0l0,0c1.3,0,2.6,0.2,3.8,0.4c0,0,0,0,0,0c4.5,1,8.6,3.8,12.5,8.3
					c2.9,3.3,5.7,7.7,8.6,13.4l0,0l0,0c3.9,7.7,10.9,23.7,14.2,44.3c1.8,11.2,1.9,21.3,0.4,30.2c3.8,6.8,7,14.3,9.5,22.3
					c2.9,9.2,4.8,19,5.9,29.4c0.6,5.2,0.9,10.8,0.9,16.5c0,0,0,0,0,0.1v0v0c0,0,0,0.1,0,0.1c0,16.8-2.4,42.6-14.1,69.6
					c-4.5,10.5-10.1,20.3-16.7,29.4c-1.7,2.3-5,2.7-7.1,0.7l0,0c-1.9-1.7-2.2-4.6-0.7-6.6c22.6-31.2,29-67.1,28.9-93.2
					c0,0,0,0,0-0.1c0,0,0,0,0,0c0-5.7-0.3-10.9-0.8-15.5c-2-19.4-7.3-36.8-16-51c2.1-8.5,2.1-18.9,0.3-30.3
					c-2.6-16.1-8-30.9-13.3-41.4c-4.9-9.5-9.7-15.5-14.6-16.6c-0.6-0.1-1.1-0.2-1.7-0.2c0,0,0,0,0,0c0,0-58.4,0.1-89.5,52
					c-19.5-32.2-49.4-44.3-69.3-48.9C1493.3,96,1485,96,1485,96c-5.5,0-10.8,6.3-16.2,16.9c-5.2,10.5-10.5,25.3-13,41.5
					c-1.9,12.1-1.7,22.9,0.8,31.7c-6.6,10.8-11.3,23.5-14,37.4c-1.7,6.7-2.9,16.9-2.8,29.2c0,0.2,0,0.4,0,0.6
					c0.1,14.8,2.1,28.8,5.8,41.4c5.1,19,14.1,38.9,29.1,56.7c1.7,2,1.5,5-0.3,6.8h0c-2,2-5.2,1.8-7-0.4c-3.1-3.7-6.1-7.6-8.9-11.7
					c-9.9-14.5-17.3-30.9-22.2-48.7c-4-13.5-6.1-28.3-6.2-44.1l0,0v0c0-0.2,0-0.3,0-0.5c0,0,0-0.1,0-0.1c-0.1-11.8,0.9-22.9,3-31.4
					c2.7-13.6,7.1-26,13.1-36.8c-1.9-9.2-1.9-19.8,0-31.7C1449.4,132.2,1456.3,116.2,1460.1,108.4z"/>
				<path class="st15" d="M1678.9,355c0,0,2.6-2.5,10-13"/>
			</g>
		</g>
		<path class="st14" d="M1529,327.2c-0.6,17.4,16.5,27.6,46,27.2c29.4,0.3,46.6-9.8,46-27.2c0.6-17.4-16.5-27.6-46-27.2
			C1545.6,299.7,1528.4,309.8,1529,327.2z"/>
		<g>
			<defs>
				<path id="SVGID_15_" d="M1529,327.2c-0.6,17.4,16.5,27.6,46,27.2c29.4,0.3,46.6-9.8,46-27.2c0.6-17.4-16.5-27.6-46-27.2
					C1545.6,299.7,1528.4,309.8,1529,327.2z"/>
			</defs>
			<clipPath id="SVGID_16_">
				<use xlink:href="#SVGID_15_"  style="overflow:visible;"/>
			</clipPath>
			<path class="st30" d="M1573.1,374.1c21.9,0.2,34.6-5.5,34.2-15.3c0.4-9.8-12.3-15.5-34.2-15.3c-21.9-0.2-34.6,5.5-34.2,15.3
				C1538.5,368.6,1551.2,374.3,1573.1,374.1z"/>
		</g>
		<g>
			<g>
				<g>
					<path class="st31" d="M1575.2,295.3c0.1,10.2,2.5,18.8,8.1,24.2c5.5,5.5,14.4,7.7,24.9,7.8c10.5-0.1,19.3-2.4,24.8-7.9
						c5.6-5.4,7.9-14,8-24.2"/>
					<path class="st31" d="M1509,295.4c0.1,10.2,2.5,18.8,8.1,24.2c5.5,5.5,14.4,7.7,24.9,7.8c10.5-0.1,19.3-2.4,24.8-7.9
						c5.6-5.4,7.9-14,8-24.2"/>
				</g>
			</g>
			<path class="st14" d="M1575,273.6c-11-0.2-17.4,4.8-17.2,13.5c-0.2,8.7,6.1,13.8,17.1,13.6c11,0.2,17.4-4.8,17.2-13.5
				C1592.4,278.6,1586,273.5,1575,273.6z"/>
		</g>
		<g>
			<path class="st18" d="M1681.8,236.6c0.6-37.2-17.3-58.9-47.9-58.2c-30.7-0.7-48.6,21-48,58.2c-0.6,37.2,17.3,58.9,47.9,58.2
				C1664.5,295.5,1682.4,273.9,1681.8,236.6z"/>
			<g>
				<defs>
					<path id="SVGID_17_" d="M1681.8,236.6c0.6-37.2-17.3-58.9-47.9-58.2c-30.7-0.7-48.6,21-48,58.2c-0.6,37.2,17.3,58.9,47.9,58.2
						C1664.5,295.5,1682.4,273.9,1681.8,236.6z"/>
				</defs>
				<clipPath id="SVGID_18_">
					<use xlink:href="#SVGID_17_"  style="overflow:visible;"/>
				</clipPath>
				<path class="st32" d="M1604.5,185.9c-0.4,22.8,10.6,36.1,29.4,35.6c18.8,0.5,29.8-12.8,29.4-35.6c0.4-22.8-10.6-36.1-29.4-35.6
					C1615.1,149.8,1604.1,163.1,1604.5,185.9z"/>
			</g>
		</g>
		<g>
			<path class="st18" d="M1563.1,236.6c0.6-37.2-17.3-58.9-47.9-58.2c-30.7-0.7-48.6,21-48,58.2c-0.6,37.2,17.3,58.9,47.9,58.2
				C1545.8,295.5,1563.7,273.9,1563.1,236.6z"/>
			<g>
				<defs>
					<path id="SVGID_19_" d="M1563.1,236.6c0.6-37.2-17.3-58.9-47.9-58.2c-30.7-0.7-48.6,21-48,58.2c-0.6,37.2,17.3,58.9,47.9,58.2
						C1545.8,295.5,1563.7,273.9,1563.1,236.6z"/>
				</defs>
				<clipPath id="SVGID_20_">
					<use xlink:href="#SVGID_19_"  style="overflow:visible;"/>
				</clipPath>
				<path class="st33" d="M1485.8,185.9c-0.4,22.8,10.6,36.1,29.4,35.6c18.8,0.5,29.8-12.8,29.4-35.6c0.4-22.8-10.6-36.1-29.4-35.6
					C1496.4,149.8,1485.4,163.1,1485.8,185.9z"/>
			</g>
		</g>
	</g>
	<g>
		<path class="st4" d="M135,547c0,0,108.9-0.2,109.2,132l-108.9,0.2L135,547z"/>
		<path class="st4" d="M314.2,546.7c0,0-108.9,0.2-108.5,132.4l108.9-0.2L314.2,546.7z"/>
	</g>
	<g>
		<path class="st34" d="M343.8,605c-2.6-16.1-8-30.9-13.3-41.4c-5.4-10.5-10.7-16.8-16.3-16.8c-5.5,0-10.8,6.3-16.2,16.9
			c-5.2,10.5-10.5,25.3-13,41.5c-2.5,16.2-1.3,30.2,4.1,39.9c5.3,9.8,14.7,15.2,25.4,15.3c10.7-0.1,20.1-5.6,25.3-15.4
			C345.2,635.2,346.4,621.1,343.8,605z"/>
		<path class="st34" d="M105.7,605.4c2.5-16.2,7.8-31,13-41.5c5.4-10.6,10.7-16.9,16.2-16.9c5.5,0,10.9,6.3,16.3,16.8
			c5.3,10.5,10.7,25.3,13.3,41.4c2.6,16.2,1.4,30.2-3.9,39.9c-5.2,9.8-14.6,15.3-25.3,15.4c-10.7,0-20.1-5.5-25.4-15.3
			C104.4,635.6,103.2,621.6,105.7,605.4z"/>
	</g>
	<path class="st4" d="M89.7,704.3c0-0.2,0-0.4,0-0.6c-0.2-12.3,1.1-22.5,2.8-29.2c3.8-19.7,11.6-36.8,23.1-49.8
		c16.8-19.3,41.8-31.5,70.3-31.7c13,0.1,27.7,5,38.8,9.1c5.8-7.1,17.4-10.7,38.7-9.2c28.5,2,53.6,10.2,70.5,29.4
		c14.3,15.9,22.9,38.2,25.5,63.9c0.5,4.6,0.8,9.8,0.8,15.5c0,0,0,0,0,0c0,0,0,0,0,0.1c0,37.3-12.9,94.7-68,129.6
		c-30,19-49.3,20.6-66.9,20.6c-17.7,0-36.9-1.5-67-20.4c-36.5-22.9-54.6-55.6-62.8-85.9C91.8,733.1,89.8,719.2,89.7,704.3z"/>
	<g>
		<path class="st13" d="M238,595.7c0,0-11.8-3.5-26.2-0.1"/>
		<g>
			<path class="st14" d="M110.1,559.4L110.1,559.4L110.1,559.4c3.3-6.5,6.4-11.2,9.6-14.7c4.6-5,9.7-7.5,15.1-7.6l0,0l0,0
				c0.4,0,9.6,0,22.6,3c13.6,3.1,26.3,8.3,37.6,15.3c11.4,7,21.2,15.8,29.5,26.1c6.2-7.9,13.4-14.9,21.4-20.9
				c9.5-7,20.2-12.7,31.8-16.8c19.8-7,35.6-7.1,36.3-7.1l0,0l0,0c1.3,0,2.6,0.2,3.8,0.4c0,0,0,0,0,0c4.5,1,8.6,3.8,12.5,8.3
				c2.9,3.3,5.7,7.7,8.6,13.4l0,0l0,0c3.9,7.7,10.9,23.7,14.2,44.3c1.8,11.2,1.9,21.3,0.4,30.2c3.8,6.8,7,14.3,9.5,22.3
				c2.9,9.2,4.8,19,5.9,29.4c0.6,5.2,0.9,10.8,0.9,16.5c0,0,0,0,0,0.1v0v0c0,0,0,0.1,0,0.1c0,16.8-2.4,42.6-14.1,69.6
				c-4.5,10.5-10.1,20.3-16.7,29.3c-1.7,2.3-5,2.7-7.1,0.7l0,0c-1.9-1.7-2.2-4.6-0.7-6.6c22.6-31.2,29-67.1,28.9-93.2c0,0,0,0,0-0.1
				c0,0,0,0,0,0c0-5.7-0.3-10.9-0.8-15.5c-2-19.4-7.3-36.8-16-51c2.1-8.5,2.1-18.9,0.3-30.3c-2.6-16.1-8-30.9-13.3-41.4
				c-4.9-9.5-9.7-15.5-14.6-16.6c-0.6-0.1-1.1-0.2-1.7-0.2c0,0,0,0,0,0c0,0-58.4,0.1-89.5,52c-19.5-32.2-49.4-44.3-69.3-48.9
				C143.3,547,135,547,135,547c-5.5,0-10.8,6.3-16.2,16.9c-5.2,10.5-10.5,25.3-13,41.5c-1.9,12.1-1.7,22.9,0.8,31.7
				c-6.6,10.8-11.3,23.5-14,37.4c-1.7,6.7-2.9,16.9-2.8,29.2c0,0.2,0,0.4,0,0.6c0.1,14.8,2.1,28.8,5.8,41.4
				c5.1,19,14.1,38.9,29.1,56.7c1.7,2,1.5,5-0.3,6.8h0c-2,2-5.2,1.8-7-0.4c-3.1-3.7-6.1-7.6-8.9-11.7c-9.9-14.5-17.3-30.9-22.2-48.7
				c-4-13.5-6.1-28.3-6.2-44.1l0,0l0,0c0-0.2,0-0.3,0-0.5c0,0,0-0.1,0-0.1c-0.1-11.8,0.9-22.9,3-31.4c2.7-13.6,7.1-26,13.1-36.8
				c-1.9-9.2-1.9-19.8,0-31.7C99.4,583.2,106.3,567.2,110.1,559.4z"/>
			<path class="st15" d="M328.9,806c0,0,2.6-2.5,10-13"/>
		</g>
	</g>
	<g>
		<path class="st14" d="M225.5,827c36.2,0.7,57.4-13,56.8-36.6c0.8-23.6-20.2-37.5-56.4-37.2c-36.2-0.7-57.4,13-56.8,36.6
			C168.2,813.4,189.3,827.3,225.5,827z"/>
		<g>
			<defs>
				<path id="SVGID_21_" d="M225.5,827c36.2,0.7,57.4-13,56.8-36.6c0.8-23.6-20.2-37.5-56.4-37.2c-36.2-0.7-57.4,13-56.8,36.6
					C168.2,813.4,189.3,827.3,225.5,827z"/>
			</defs>
			<clipPath id="SVGID_22_">
				<use xlink:href="#SVGID_21_"  style="overflow:visible;"/>
			</clipPath>
			<path class="st35" d="M182.5,846.2c21.2,8.9,37,5.5,42.5-9.2c6.3-14.3-2.8-27.8-24.2-36.1c-21.2-8.9-37-5.5-42.5,9.2
				C152,824.4,161,837.9,182.5,846.2z"/>
		</g>
	</g>
	<g>
		<g>
			<path class="st36" d="M225.2,741.3c0.1,10.2,2.5,18.8,8.1,24.2c5.5,5.5,14.4,7.7,24.9,7.8c10.5-0.1,19.3-2.4,24.8-7.9
				c5.6-5.4,7.9-14,8-24.2"/>
			<path class="st36" d="M159,741.4c0.1,10.2,2.5,18.8,8.1,24.2c5.5,5.5,14.4,7.7,24.9,7.8c10.5-0.1,19.3-2.4,24.8-7.9
				c5.6-5.4,7.9-14,8-24.2"/>
		</g>
	</g>
	<path class="st14" d="M225,719.6c-11-0.2-17.4,4.8-17.2,13.5c-0.2,8.7,6.1,13.8,17.1,13.6c11,0.2,17.4-4.8,17.2-13.5
		C242.4,724.6,236,719.5,225,719.6z"/>
	<g>
		<g>
			<g>
				<path class="st18" d="M129.9,739.8c2-2.9,4.4-5.5,7-7.8c12.3-11.3,31.2-16.7,53.3-16.9c6.6,0,13,0.5,19,1.5
					c3.2-9.3,4.8-20.4,4.8-32.4c-0.2-20-4.5-37.2-13.7-48.3c-9-11.3-22.9-16.6-39.1-16.7c-16.1,0.2-30,5.5-39,16.9
					c-9.1,11.2-13.3,28.4-13.4,48.4c0.2,20,4.5,37.2,13.7,48.3C124.8,735.4,127.2,737.8,129.9,739.8z"/>
				<g>
					<defs>
						<path id="SVGID_23_" d="M129.9,739.8c2-2.9,4.4-5.5,7-7.8c12.3-11.3,31.2-16.7,53.3-16.9c6.6,0,13,0.5,19,1.5
							c3.2-9.3,4.8-20.4,4.8-32.4c-0.2-20-4.5-37.2-13.7-48.3c-9-11.3-22.9-16.6-39.1-16.7c-16.1,0.2-30,5.5-39,16.9
							c-9.1,11.2-13.3,28.4-13.4,48.4c0.2,20,4.5,37.2,13.7,48.3C124.8,735.4,127.2,737.8,129.9,739.8z"/>
					</defs>
					<clipPath id="SVGID_24_">
						<use xlink:href="#SVGID_23_"  style="overflow:visible;"/>
					</clipPath>
					<path class="st37" d="M197.1,708.9c-0.5-24.8-12-38.9-31-37.8c-19,0.2-29.6,15-28.3,39.8c0.5,24.8,12,38.9,31,37.8
						C187.7,748.6,198.3,733.7,197.1,708.9z"/>
				</g>
			</g>
		</g>
		<g>
			<g>
				<path class="st18" d="M320.1,739.8c-2-2.9-4.4-5.5-7-7.8c-12.3-11.3-31.2-16.7-53.3-16.9c-6.6,0-13,0.5-19,1.5
					c-3.2-9.3-4.8-20.4-4.8-32.4c0.2-20,4.5-37.2,13.7-48.3c9-11.3,22.9-16.6,39.1-16.7c16.1,0.2,30,5.5,39,16.9
					c9.1,11.2,13.3,28.4,13.4,48.4c-0.2,20-4.5,37.2-13.7,48.3C325.2,735.4,322.8,737.8,320.1,739.8z"/>
				<g>
					<defs>
						<path id="SVGID_25_" d="M320.1,739.8c-2-2.9-4.4-5.5-7-7.8c-12.3-11.3-31.2-16.7-53.3-16.9c-6.6,0-13,0.5-19,1.5
							c-3.2-9.3-4.8-20.4-4.8-32.4c0.2-20,4.5-37.2,13.7-48.3c9-11.3,22.9-16.6,39.1-16.7c16.1,0.2,30,5.5,39,16.9
							c9.1,11.2,13.3,28.4,13.4,48.4c-0.2,20-4.5,37.2-13.7,48.3C325.2,735.4,322.8,737.8,320.1,739.8z"/>
					</defs>
					<clipPath id="SVGID_26_">
						<use xlink:href="#SVGID_25_"  style="overflow:visible;"/>
					</clipPath>
					<path class="st38" d="M252.9,708.9c0.5-24.8,12-38.9,31-37.8c19,0.2,29.6,15,28.3,39.8c-0.5,24.8-12,38.9-31,37.8
						C262.3,748.6,251.7,733.7,252.9,708.9z"/>
				</g>
			</g>
		</g>
	</g>
	<path class="st5" d="M585,547c0,0,108.9-0.2,109.2,132l-108.9,0.2L585,547z"/>
	<path class="st5" d="M764.2,546.7c0,0-108.9,0.2-108.5,132.4l108.9-0.2L764.2,546.7z"/>
	<g>
		<path class="st39" d="M793.8,605c-2.6-16.1-8-30.9-13.3-41.4c-5.4-10.5-10.7-16.8-16.3-16.8c-5.5,0-10.8,6.3-16.2,16.9
			c-5.2,10.5-10.5,25.3-13,41.5c-2.5,16.2-1.3,30.2,4.1,39.9c5.3,9.8,14.7,15.2,25.4,15.3c10.7-0.1,20.1-5.6,25.3-15.4
			C795.2,635.2,796.4,621.1,793.8,605z"/>
		<path class="st39" d="M555.7,605.4c2.5-16.2,7.8-31,13-41.5c5.4-10.6,10.7-16.9,16.2-16.9c5.5,0,10.9,6.3,16.3,16.8
			c5.3,10.5,10.7,25.3,13.3,41.4c2.6,16.2,1.4,30.2-3.9,39.9c-5.2,9.8-14.6,15.3-25.3,15.4c-10.7,0-20.1-5.5-25.4-15.3
			C554.4,635.6,553.2,621.6,555.7,605.4z"/>
	</g>
	<path class="st5" d="M539.7,704.3c0-0.2,0-0.4,0-0.6c-0.2-12.3,1.1-22.5,2.8-29.2c3.8-19.7,11.6-36.8,23.1-49.8
		c16.8-19.3,41.8-31.5,70.3-31.7c13,0.1,27.7,5,38.8,9.1c5.8-7.1,17.4-10.7,38.7-9.2c28.5,2,53.6,10.2,70.5,29.4
		c14.3,15.9,22.9,38.2,25.5,63.9c0.5,4.6,0.8,9.8,0.8,15.5c0,0,0,0,0,0c0,0,0,0,0,0.1c0,37.3-12.9,94.7-68,129.6
		c-30,19-49.3,20.6-66.9,20.6c-17.7,0-36.9-1.5-67-20.4c-36.5-22.9-54.6-55.6-62.8-85.9C541.8,733.1,539.8,719.2,539.7,704.3z"/>
	<g>
		<path class="st13" d="M688,595.7c0,0-11.8-3.5-26.2-0.1"/>
		<g>
			<path class="st14" d="M560.1,559.4L560.1,559.4L560.1,559.4c3.3-6.5,6.4-11.2,9.6-14.7c4.6-5,9.7-7.5,15.1-7.6l0,0l0,0
				c0.4,0,9.6,0,22.6,3c13.6,3.1,26.3,8.3,37.6,15.3c11.4,7,21.2,15.8,29.5,26.1c6.2-7.9,13.4-14.9,21.4-20.9
				c9.5-7,20.2-12.7,31.8-16.8c19.8-7,35.6-7.1,36.3-7.1l0,0l0,0c1.3,0,2.6,0.2,3.8,0.4c0,0,0,0,0,0c4.5,1,8.6,3.8,12.5,8.3
				c2.9,3.3,5.7,7.7,8.6,13.4l0,0l0,0c3.9,7.7,10.9,23.7,14.2,44.3c1.8,11.2,1.9,21.3,0.4,30.2c3.8,6.8,7,14.3,9.5,22.3
				c2.9,9.2,4.8,19,5.9,29.4c0.6,5.2,0.9,10.8,0.9,16.5c0,0,0,0,0,0.1v0v0c0,0,0,0.1,0,0.1c0,16.8-2.4,42.6-14.1,69.6
				c-4.5,10.5-10.1,20.3-16.7,29.3c-1.7,2.3-5,2.7-7.1,0.7l0,0c-1.9-1.7-2.2-4.6-0.7-6.6c22.6-31.2,29-67.1,28.9-93.2c0,0,0,0,0-0.1
				c0,0,0,0,0,0c0-5.7-0.3-10.9-0.8-15.5c-2-19.4-7.3-36.8-16-51c2.1-8.5,2.1-18.9,0.3-30.3c-2.6-16.1-8-30.9-13.3-41.4
				c-4.9-9.5-9.7-15.5-14.6-16.6c-0.6-0.1-1.1-0.2-1.7-0.2c0,0,0,0,0,0c0,0-58.4,0.1-89.5,52c-19.5-32.2-49.4-44.3-69.3-48.9
				C593.3,547,585,547,585,547c-5.5,0-10.8,6.3-16.2,16.9c-5.2,10.5-10.5,25.3-13,41.5c-1.9,12.1-1.7,22.9,0.8,31.7
				c-6.6,10.8-11.3,23.5-14,37.4c-1.7,6.7-2.9,16.9-2.8,29.2c0,0.2,0,0.4,0,0.6c0.1,14.8,2.1,28.8,5.8,41.4
				c5.1,19,14.1,38.9,29.1,56.7c1.7,2,1.5,5-0.3,6.8l0,0c-2,2-5.2,1.8-7-0.4c-3.1-3.7-6.1-7.6-8.9-11.7
				c-9.9-14.5-17.3-30.9-22.2-48.7c-4-13.5-6.1-28.3-6.2-44.1l0,0l0,0c0-0.2,0-0.3,0-0.5c0,0,0-0.1,0-0.1c-0.1-11.8,0.9-22.9,3-31.4
				c2.7-13.6,7.1-26,13.1-36.8c-1.9-9.2-1.9-19.8,0-31.7C549.4,583.2,556.3,567.2,560.1,559.4z"/>
			<path class="st15" d="M778.9,806c0,0,2.6-2.5,10-13"/>
		</g>
	</g>
	<g>
		<g>
			<path class="st40" d="M675.2,744.3c0.1,10.2,2.5,18.8,8.1,24.2c5.5,5.5,14.4,7.7,24.9,7.8c10.5-0.1,19.3-2.4,24.8-7.9
				c5.6-5.4,7.9-14,8-24.2"/>
			<path class="st40" d="M609,744.4c0.1,10.2,2.5,18.8,8.1,24.2c5.5,5.5,14.4,7.7,24.9,7.8c10.5-0.1,19.3-2.4,24.8-7.9
				c5.6-5.4,7.9-14,8-24.2"/>
		</g>
	</g>
	<path class="st14" d="M675,722.6c-11-0.2-17.4,4.8-17.2,13.5c-0.2,8.7,6.1,13.8,17.1,13.6c11,0.2,17.4-4.8,17.2-13.5
		C692.4,727.6,686,722.5,675,722.6z"/>
	<path class="st18" d="M692.9,708.9c-0.6,22.3,17.3,35.3,48,34.9c30.7,0.4,48.6-12.6,48-34.9c0.6-22.3-17.3-35.3-48-34.9
		C710.2,673.6,692.3,686.6,692.9,708.9z"/>
	<path class="st18" d="M562.2,708.9c-0.6,22.3,17.3,35.3,48,34.9c30.7,0.4,48.6-12.6,48-34.9c0.6-22.3-17.3-35.3-48-34.9
		C579.5,673.6,561.6,686.6,562.2,708.9z"/>
	<g>
		<line class="st41" x1="607.4" y1="785.3" x2="699.8" y2="817.9"/>
		<g>
			<defs>
				
					<rect id="SVGID_27_" x="596.6" y="788.6" transform="matrix(0.9432 0.3322 -0.3322 0.9432 306.4199 -162.0551)" width="61" height="53"/>
			</defs>
			<clipPath id="SVGID_28_">
				<use xlink:href="#SVGID_27_"  style="overflow:visible;"/>
			</clipPath>
			<path class="st42" d="M608.9,796.6c-7.4,21.8-2.9,37.3,12.1,41.7c14.7,5.3,27.5-4.6,34.4-26.6c7.4-21.8,2.9-37.3-12.1-41.7
				C628.6,764.7,615.7,774.6,608.9,796.6z"/>
		</g>
	</g>
	<g>
		<defs>
			<path id="SVGID_29_" d="M692.9,708.9c-0.6,22.3,17.3,35.3,48,34.9c30.7,0.4,48.6-12.6,48-34.9c0.6-22.3-17.3-35.3-48-34.9
				C710.2,673.6,692.3,686.6,692.9,708.9z"/>
		</defs>
		<clipPath id="SVGID_30_">
			<use xlink:href="#SVGID_29_"  style="overflow:visible;"/>
		</clipPath>
		<path class="st43" d="M742.5,695.4c-0.3,20.5,9.5,32.4,26.4,32c16.9,0.4,26.7-11.5,26.4-32c0.3-20.5-9.5-32.4-26.4-32
			C752,663,742.2,675,742.5,695.4z"/>
	</g>
	<g>
		<defs>
			<path id="SVGID_31_" d="M562.2,708.9c-0.6,22.3,17.3,35.3,48,34.9c30.7,0.4,48.6-12.6,48-34.9c0.6-22.3-17.3-35.3-48-34.9
				C579.5,673.6,561.6,686.6,562.2,708.9z"/>
		</defs>
		<clipPath id="SVGID_32_">
			<use xlink:href="#SVGID_31_"  style="overflow:visible;"/>
		</clipPath>
		<path class="st44" d="M611.8,695.4c-0.3,20.5,9.5,32.4,26.4,32c16.9,0.4,26.7-11.5,26.4-32c0.3-20.5-9.5-32.4-26.4-32
			C621.3,663,611.5,674.9,611.8,695.4z"/>
	</g>
	<g>
		<path class="st6" d="M1035,547c0,0,108.9-0.2,109.2,132l-108.9,0.2L1035,547z"/>
		<path class="st6" d="M1214.2,546.7c0,0-108.9,0.2-108.5,132.4l108.9-0.2L1214.2,546.7z"/>
	</g>
	<g>
		<path class="st45" d="M1243.8,605c-2.6-16.1-8-30.9-13.3-41.4c-5.4-10.5-10.7-16.8-16.3-16.8c-5.5,0-10.8,6.3-16.2,16.9
			c-5.2,10.5-10.5,25.3-13,41.5c-2.5,16.2-1.3,30.2,4.1,39.9c5.3,9.8,14.7,15.2,25.4,15.3c10.7-0.1,20.1-5.6,25.3-15.4
			C1245.2,635.2,1246.4,621.1,1243.8,605z"/>
		<path class="st45" d="M1005.7,605.4c2.5-16.2,7.8-31,13-41.5c5.4-10.6,10.7-16.9,16.2-16.9c5.5,0,10.9,6.3,16.3,16.8
			c5.3,10.5,10.7,25.3,13.3,41.4c2.6,16.2,1.4,30.2-3.9,39.9c-5.2,9.8-14.6,15.3-25.3,15.4c-10.7,0-20.1-5.5-25.4-15.3
			C1004.4,635.6,1003.2,621.6,1005.7,605.4z"/>
	</g>
	<path class="st6" d="M989.7,704.3c0-0.2,0-0.4,0-0.6c-0.2-12.3,1.1-22.5,2.8-29.2c3.8-19.7,11.6-36.8,23.1-49.8
		c16.8-19.3,41.8-31.5,70.3-31.7c13,0.1,27.7,5,38.8,9.1c5.8-7.1,17.4-10.7,38.7-9.2c28.5,2,53.6,10.2,70.5,29.4
		c14.3,15.9,22.9,38.2,25.5,63.9c0.5,4.6,0.8,9.8,0.8,15.5c0,0,0,0,0,0c0,0,0,0,0,0.1c0,37.3-12.9,94.7-68,129.6
		c-30,19-49.3,20.6-66.9,20.6c-17.7,0-36.9-1.5-67-20.4c-36.5-22.9-54.6-55.6-62.8-85.9C991.8,733.1,989.8,719.2,989.7,704.3z"/>
	<g>
		<path class="st13" d="M1138,595.7c0,0-11.8-3.5-26.2-0.1"/>
		<g>
			<path class="st14" d="M1010.1,559.4L1010.1,559.4L1010.1,559.4c3.3-6.5,6.4-11.2,9.6-14.7c4.6-5,9.7-7.5,15.1-7.6l0,0l0,0
				c0.4,0,9.6,0,22.6,3c13.6,3.1,26.3,8.3,37.6,15.3c11.4,7,21.2,15.8,29.5,26.1c6.2-7.9,13.4-14.9,21.4-20.9
				c9.5-7,20.2-12.7,31.8-16.8c19.8-7,35.6-7.1,36.3-7.1l0,0l0,0c1.3,0,2.6,0.2,3.8,0.4c0,0,0,0,0,0c4.5,1,8.6,3.8,12.5,8.3
				c2.9,3.3,5.7,7.7,8.6,13.4l0,0l0,0c3.9,7.7,10.9,23.7,14.2,44.3c1.8,11.2,1.9,21.3,0.4,30.2c3.8,6.8,7,14.3,9.5,22.3
				c2.9,9.2,4.8,19,5.9,29.4c0.6,5.2,0.9,10.8,0.9,16.5c0,0,0,0,0,0.1v0v0c0,0,0,0.1,0,0.1c0,16.8-2.4,42.6-14.1,69.6
				c-4.5,10.5-10.1,20.3-16.7,29.3c-1.7,2.3-5,2.7-7.1,0.7l0,0c-1.9-1.7-2.2-4.6-0.7-6.6c22.6-31.2,29-67.1,28.9-93.2c0,0,0,0,0-0.1
				c0,0,0,0,0,0c0-5.7-0.3-10.9-0.8-15.5c-2-19.4-7.3-36.8-16-51c2.1-8.5,2.1-18.9,0.3-30.3c-2.6-16.1-8-30.9-13.3-41.4
				c-4.9-9.5-9.7-15.5-14.6-16.6c-0.6-0.1-1.1-0.2-1.7-0.2c0,0,0,0,0,0c0,0-58.4,0.1-89.5,52c-19.5-32.2-49.4-44.3-69.3-48.9
				c-12.1-2.8-20.5-2.8-20.5-2.8c-5.5,0-10.8,6.3-16.2,16.9c-5.2,10.5-10.5,25.3-13,41.5c-1.9,12.1-1.7,22.9,0.8,31.7
				c-6.6,10.8-11.3,23.5-14,37.4c-1.7,6.7-2.9,16.9-2.8,29.2c0,0.2,0,0.4,0,0.6c0.1,14.8,2.1,28.8,5.8,41.4
				c5.1,19,14.1,38.9,29.1,56.7c1.7,2,1.5,5-0.3,6.8h0c-2,2-5.2,1.8-7-0.4c-3.1-3.7-6.1-7.6-8.9-11.7c-9.9-14.5-17.3-30.9-22.2-48.7
				c-4-13.5-6.1-28.3-6.2-44.1l0,0l0,0c0-0.2,0-0.3,0-0.5c0,0,0-0.1,0-0.1c-0.1-11.8,0.9-22.9,3-31.4c2.7-13.6,7.1-26,13.1-36.8
				c-1.9-9.2-1.9-19.8,0-31.7C999.4,583.2,1006.3,567.2,1010.1,559.4z"/>
			<path class="st15" d="M1228.9,806c0,0,2.6-2.5,10-13"/>
		</g>
	</g>
	<path class="st14" d="M1125.1,802.3c34.2,0.7,54.2,23.8,53.5-8.2c0.7-32-19.3-50.7-53.5-50.1c-34.2-0.7-54.2,18-53.5,50
		C1070.9,826.1,1090.9,802.9,1125.1,802.3z"/>
	<path class="st18" d="M1017.2,691.6c-0.6,37.2,17.3,58.9,47.9,58.2c30.7,0.7,48.6-21,48-58.2c0.6-37.2-17.3-58.9-47.9-58.2
		C1034.5,632.7,1016.6,654.4,1017.2,691.6z"/>
	<g>
		<g>
			<path class="st46" d="M1125.2,744.3c0.1,10.2,2.5,18.8,8.1,24.2c5.5,5.5,14.4,7.7,24.9,7.8c10.5-0.1,19.3-2.4,24.8-7.9
				c5.6-5.4,7.9-14,8-24.2"/>
			<path class="st46" d="M1059,744.4c0.1,10.2,2.5,18.8,8.1,24.2c5.5,5.5,14.4,7.7,24.9,7.8c10.5-0.1,19.3-2.4,24.8-7.9
				c5.6-5.4,7.9-14,8-24.2"/>
		</g>
	</g>
	<path class="st14" d="M1125,722.6c-11-0.2-17.4,4.8-17.2,13.5c-0.2,8.7,6.1,13.8,17.1,13.6c11,0.2,17.4-4.8,17.2-13.5
		C1142.4,727.6,1136,722.5,1125,722.6z"/>
	<g>
		<path class="st18" d="M1017.2,691.6c-0.6,37.2,17.3,58.9,47.9,58.2c30.7,0.7,48.6-21,48-58.2c0.6-37.2-17.3-58.9-47.9-58.2
			C1034.5,632.7,1016.6,654.4,1017.2,691.6z"/>
		<g>
			<defs>
				<path id="SVGID_33_" d="M1017.2,691.6c-0.6,37.2,17.3,58.9,47.9,58.2c30.7,0.7,48.6-21,48-58.2c0.6-37.2-17.3-58.9-47.9-58.2
					C1034.5,632.7,1016.6,654.4,1017.2,691.6z"/>
			</defs>
			<clipPath id="SVGID_34_">
				<use xlink:href="#SVGID_33_"  style="overflow:visible;"/>
			</clipPath>
			<path class="st47" d="M1071.5,724.4c0.4-22.8-10.6-36.1-29.4-35.6c-18.8-0.5-29.8,12.8-29.4,35.6c-0.4,22.8,10.6,36.1,29.4,35.6
				C1060.9,760.4,1071.9,747.2,1071.5,724.4z"/>
		</g>
	</g>
	<g>
		<path class="st18" d="M1135.9,691.6c-0.6,37.2,17.3,58.9,47.9,58.2c30.7,0.7,48.6-21,48-58.2c0.6-37.2-17.3-58.9-47.9-58.2
			C1153.2,632.7,1135.3,654.4,1135.9,691.6z"/>
		<g>
			<defs>
				<path id="SVGID_35_" d="M1135.9,691.6c-0.6,37.2,17.3,58.9,47.9,58.2c30.7,0.7,48.6-21,48-58.2c0.6-37.2-17.3-58.9-47.9-58.2
					C1153.2,632.7,1135.3,654.4,1135.9,691.6z"/>
			</defs>
			<clipPath id="SVGID_36_">
				<use xlink:href="#SVGID_35_"  style="overflow:visible;"/>
			</clipPath>
			<path class="st48" d="M1237.2,660.4c0.4-22.8-10.6-36.1-29.4-35.6c-18.8-0.5-29.8,12.8-29.4,35.6c-0.4,22.8,10.6,36.1,29.4,35.6
				C1226.6,696.4,1237.6,683.2,1237.2,660.4z"/>
		</g>
	</g>
	<g>
		<defs>
			<path id="SVGID_37_" d="M1125.1,802.3c34.2,0.7,54.2,23.8,53.5-8.2c0.7-32-19.3-50.7-53.5-50.1c-34.2-0.7-54.2,18-53.5,50
				C1070.9,826.1,1090.9,802.9,1125.1,802.3z"/>
		</defs>
		<clipPath id="SVGID_38_">
			<use xlink:href="#SVGID_37_"  style="overflow:visible;"/>
		</clipPath>
		<g class="st49">
			<defs>
				<polygon id="SVGID_39_" points="1039.2,828.2 1123.6,845.2 1139.1,794 1054.6,777 				"/>
			</defs>
			<clipPath id="SVGID_40_">
				<use xlink:href="#SVGID_39_"  style="overflow:visible;"/>
			</clipPath>
			<path class="st50" d="M1118.1,828.6c6.4-22.3-2.8-37.6-24.7-41.2c-21.6-4.5-37.8,6.2-43.3,28.7c-6.4,22.3,2.8,37.6,24.7,41.2
				C1096.4,861.7,1112.6,851,1118.1,828.6z"/>
		</g>
	</g>
	<path class="st21" d="M1106,831c0,0,22-12,44,0"/>
	<g>
		<path class="st7" d="M1485,547c0,0,108.9-0.2,109.2,132l-108.9,0.2L1485,547z"/>
		<path class="st7" d="M1664.2,546.7c0,0-108.9,0.2-108.5,132.4l108.9-0.2L1664.2,546.7z"/>
	</g>
	<g>
		<path class="st51" d="M1693.8,605c-2.6-16.1-8-30.9-13.3-41.4c-5.4-10.5-10.7-16.8-16.3-16.8c-5.5,0-10.8,6.3-16.2,16.9
			c-5.2,10.5-10.5,25.3-13,41.5c-2.5,16.2-1.3,30.2,4.1,39.9c5.3,9.8,14.7,15.2,25.4,15.3c10.7-0.1,20.1-5.6,25.3-15.4
			C1695.2,635.2,1696.4,621.1,1693.8,605z"/>
		<path class="st51" d="M1455.7,605.4c2.5-16.2,7.8-31,13-41.5c5.4-10.6,10.7-16.9,16.2-16.9c5.5,0,10.9,6.3,16.3,16.8
			c5.3,10.5,10.7,25.3,13.3,41.4c2.6,16.2,1.4,30.2-3.9,39.9c-5.2,9.8-14.6,15.3-25.3,15.4c-10.7,0-20.1-5.5-25.4-15.3
			C1454.4,635.6,1453.2,621.6,1455.7,605.4z"/>
	</g>
	<path class="st7" d="M1439.7,704.3c0-0.2,0-0.4,0-0.6c-0.2-12.3,1.1-22.5,2.8-29.2c3.8-19.7,11.6-36.8,23.1-49.8
		c16.8-19.3,41.8-31.5,70.3-31.7c13,0.1,27.7,5,38.8,9.1c5.8-7.1,17.4-10.7,38.7-9.2c28.5,2,53.6,10.2,70.5,29.4
		c14.3,15.9,22.9,38.2,25.5,63.9c0.5,4.6,0.8,9.8,0.8,15.5c0,0,0,0,0,0c0,0,0,0,0,0.1c0,37.3-12.9,94.7-68,129.6
		c-30,19-49.3,20.6-66.9,20.6c-17.7,0-36.9-1.5-67-20.4c-36.5-22.9-54.6-55.6-62.8-85.9C1441.8,733.1,1439.8,719.2,1439.7,704.3z"/>
	<g>
		<path class="st13" d="M1588,595.7c0,0-11.8-3.5-26.2-0.1"/>
		<g>
			<path class="st14" d="M1460.1,559.4L1460.1,559.4L1460.1,559.4c3.3-6.5,6.4-11.2,9.6-14.7c4.6-5,9.7-7.5,15.1-7.6l0,0l0,0
				c0.4,0,9.6,0,22.6,3c13.6,3.1,26.3,8.3,37.6,15.3c11.4,7,21.2,15.8,29.5,26.1c6.2-7.9,13.4-14.9,21.4-20.9
				c9.5-7,20.2-12.7,31.8-16.8c19.8-7,35.6-7.1,36.3-7.1l0,0l0,0c1.3,0,2.6,0.2,3.8,0.4c0,0,0,0,0,0c4.5,1,8.6,3.8,12.5,8.3
				c2.9,3.3,5.7,7.7,8.6,13.4l0,0l0,0c3.9,7.7,10.9,23.7,14.2,44.3c1.8,11.2,1.9,21.3,0.4,30.2c3.8,6.8,7,14.3,9.5,22.3
				c2.9,9.2,4.8,19,5.9,29.4c0.6,5.2,0.9,10.8,0.9,16.5c0,0,0,0,0,0.1v0v0c0,0,0,0.1,0,0.1c0,16.8-2.4,42.6-14.1,69.6
				c-4.5,10.5-10.1,20.3-16.7,29.3c-1.7,2.3-5,2.7-7.1,0.7l0,0c-1.9-1.7-2.2-4.6-0.7-6.6c22.6-31.2,29-67.1,28.9-93.2c0,0,0,0,0-0.1
				c0,0,0,0,0,0c0-5.7-0.3-10.9-0.8-15.5c-2-19.4-7.3-36.8-16-51c2.1-8.5,2.1-18.9,0.3-30.3c-2.6-16.1-8-30.9-13.3-41.4
				c-4.9-9.5-9.7-15.5-14.6-16.6c-0.6-0.1-1.1-0.2-1.7-0.2c0,0,0,0,0,0c0,0-58.4,0.1-89.5,52c-19.5-32.2-49.4-44.3-69.3-48.9
				c-12.1-2.8-20.5-2.8-20.5-2.8c-5.5,0-10.8,6.3-16.2,16.9c-5.2,10.5-10.5,25.3-13,41.5c-1.9,12.1-1.7,22.9,0.8,31.7
				c-6.6,10.8-11.3,23.5-14,37.4c-1.7,6.7-2.9,16.9-2.8,29.2c0,0.2,0,0.4,0,0.6c0.1,14.8,2.1,28.8,5.8,41.4
				c5.1,19,14.1,38.9,29.1,56.7c1.7,2,1.5,5-0.3,6.8h0c-2,2-5.2,1.8-7-0.4c-3.1-3.7-6.1-7.6-8.9-11.7c-9.9-14.5-17.3-30.9-22.2-48.7
				c-4-13.5-6.1-28.3-6.2-44.1l0,0v0c0-0.2,0-0.3,0-0.5c0,0,0-0.1,0-0.1c-0.1-11.8,0.9-22.9,3-31.4c2.7-13.6,7.1-26,13.1-36.8
				c-1.9-9.2-1.9-19.8,0-31.7C1449.4,583.2,1456.3,567.2,1460.1,559.4z"/>
			<path class="st15" d="M1678.9,806c0,0,2.6-2.5,10-13"/>
		</g>
	</g>
	<g>
		<path class="st18" d="M1585.9,691.6c-0.6,37.2,17.3,58.9,47.9,58.2c30.7,0.7,48.6-21,48-58.2c0.6-37.2-17.3-58.9-47.9-58.2
			C1603.2,632.7,1585.3,654.4,1585.9,691.6z"/>
		<g>
			<defs>
				<path id="SVGID_41_" d="M1585.9,691.6c-0.6,37.2,17.3,58.9,47.9,58.2c30.7,0.7,48.6-21,48-58.2c0.6-37.2-17.3-58.9-47.9-58.2
					C1603.2,632.7,1585.3,654.4,1585.9,691.6z"/>
			</defs>
			<clipPath id="SVGID_42_">
				<use xlink:href="#SVGID_41_"  style="overflow:visible;"/>
			</clipPath>
			<path class="st52" d="M1663.2,733.4c0.4-22.8-10.6-36.1-29.4-35.6c-18.8-0.5-29.8,12.8-29.4,35.6c-0.4,22.8,10.6,36.1,29.4,35.6
				C1652.6,769.4,1663.6,756.2,1663.2,733.4z"/>
		</g>
	</g>
	<path class="st18" d="M1467.2,691.6c-0.6,37.2,17.3,58.9,47.9,58.2c30.7,0.7,48.6-21,48-58.2c0.6-37.2-17.3-58.9-47.9-58.2
		C1484.5,632.7,1466.6,654.4,1467.2,691.6z"/>
	<g>
		<path class="st18" d="M1467.2,691.6c-0.6,37.2,17.3,58.9,47.9,58.2c30.7,0.7,48.6-21,48-58.2c0.6-37.2-17.3-58.9-47.9-58.2
			C1484.5,632.7,1466.6,654.4,1467.2,691.6z"/>
		<g>
			<defs>
				<path id="SVGID_43_" d="M1467.2,691.6c-0.6,37.2,17.3,58.9,47.9,58.2c30.7,0.7,48.6-21,48-58.2c0.6-37.2-17.3-58.9-47.9-58.2
					C1484.5,632.7,1466.6,654.4,1467.2,691.6z"/>
			</defs>
			<clipPath id="SVGID_44_">
				<use xlink:href="#SVGID_43_"  style="overflow:visible;"/>
			</clipPath>
			<path class="st53" d="M1544.5,733.4c0.4-22.8-10.6-36.1-29.4-35.6c-18.8-0.5-29.8,12.8-29.4,35.6c-0.4,22.8,10.6,36.1,29.4,35.6
				C1533.9,769.4,1544.9,756.2,1544.5,733.4z"/>
		</g>
	</g>
	<polygon class="st7" points="1460,673 1574,632 1688,677 1658,628.8 1491.4,628.8 	"/>
	<path class="st14" d="M1575.1,796c34.2,0.3,54.2-6.8,53.5-19c0.7-12.2-19.3-19.2-53.5-19c-34.2-0.3-54.2,6.8-53.5,19
		C1520.9,789.1,1540.9,796.2,1575.1,796z"/>
	<g>
		<g>
			<path class="st54" d="M1575.2,744.3c0.1,10.2,2.5,18.8,8.1,24.2c5.5,5.5,14.4,7.7,24.9,7.8c10.5-0.1,19.3-2.4,24.8-7.9
				c5.6-5.4,7.9-14,8-24.2"/>
			<path class="st54" d="M1509,744.4c0.1,10.2,2.5,18.8,8.1,24.2c5.5,5.5,14.4,7.7,24.9,7.8c10.5-0.1,19.3-2.4,24.8-7.9
				c5.6-5.4,7.9-14,8-24.2"/>
		</g>
	</g>
	<path class="st14" d="M1575,722.6c-11-0.2-17.4,4.8-17.2,13.5c-0.2,8.7,6.1,13.8,17.1,13.6c11,0.2,17.4-4.8,17.2-13.5
		C1592.4,727.6,1586,722.5,1575,722.6z"/>
	<path class="st8" d="M135,997c0,0,108.9-0.2,109.2,132l-108.9,0.2L135,997z"/>
	<path class="st8" d="M314.2,996.7c0,0-108.9,0.2-108.5,132.4l108.9-0.2L314.2,996.7z"/>
	<g>
		<path class="st55" d="M343.8,1055c-2.6-16.1-8-30.9-13.3-41.4c-5.4-10.5-10.7-16.8-16.3-16.8c-5.5,0-10.8,6.3-16.2,16.9
			c-5.2,10.5-10.5,25.3-13,41.5c-2.5,16.2-1.3,30.2,4.1,39.9c5.3,9.8,14.7,15.2,25.4,15.3c10.7-0.1,20.1-5.6,25.3-15.4
			C345.2,1085.2,346.4,1071.1,343.8,1055z"/>
		<path class="st55" d="M105.7,1055.4c2.5-16.2,7.8-31,13-41.5c5.4-10.6,10.7-16.9,16.2-16.9c5.5,0,10.9,6.3,16.3,16.8
			c5.3,10.5,10.7,25.3,13.3,41.4c2.6,16.2,1.4,30.2-3.9,39.9c-5.2,9.8-14.6,15.3-25.3,15.4c-10.7,0-20.1-5.5-25.4-15.3
			C104.4,1085.6,103.2,1071.6,105.7,1055.4z"/>
	</g>
	<path class="st8" d="M89.7,1154.3c0-0.2,0-0.4,0-0.6c-0.2-12.3,1.1-22.5,2.8-29.2c3.8-19.7,11.6-36.8,23.1-49.8
		c16.8-19.3,41.8-31.5,70.3-31.7c13,0.1,27.7,5,38.8,9.1c5.8-7.1,17.4-10.7,38.7-9.2c28.5,2,53.6,10.2,70.5,29.4
		c14.3,15.9,22.9,38.2,25.5,63.9c0.5,4.6,0.8,9.8,0.8,15.5c0,0,0,0,0,0c0,0,0,0,0,0.1c0,37.3-12.9,94.7-68,129.6
		c-30,19-49.3,20.6-66.9,20.6c-17.7,0-36.9-1.5-67-20.4c-36.5-22.9-54.6-55.6-62.8-85.9C91.8,1183.1,89.8,1169.2,89.7,1154.3z"/>
	<g>
		<path class="st13" d="M238,1045.7c0,0-11.8-3.5-26.2-0.1"/>
		<g>
			<path class="st14" d="M110.1,1009.4L110.1,1009.4L110.1,1009.4c3.3-6.5,6.4-11.2,9.6-14.7c4.6-5,9.7-7.5,15.1-7.6l0,0l0,0
				c0.4,0,9.6,0,22.6,3c13.6,3.1,26.3,8.3,37.6,15.3c11.4,7,21.2,15.8,29.5,26.1c6.2-7.9,13.4-14.9,21.4-20.9
				c9.5-7,20.2-12.7,31.8-16.8c19.8-7,35.6-7.1,36.3-7.1l0,0l0,0c1.3,0,2.6,0.2,3.8,0.4c0,0,0,0,0,0c4.5,1,8.6,3.8,12.5,8.3
				c2.9,3.3,5.7,7.7,8.6,13.4l0,0l0,0c3.9,7.7,10.9,23.7,14.2,44.3c1.8,11.2,1.9,21.3,0.4,30.2c3.8,6.8,7,14.3,9.5,22.3
				c2.9,9.2,4.8,19,5.9,29.4c0.6,5.2,0.9,10.8,0.9,16.5c0,0,0,0,0,0.1v0v0c0,0,0,0.1,0,0.1c0,16.8-2.4,42.6-14.1,69.6
				c-4.5,10.5-10.1,20.3-16.7,29.3c-1.7,2.3-5,2.7-7.1,0.7l0,0c-1.9-1.7-2.2-4.6-0.7-6.6c22.6-31.2,29-67.1,28.9-93.2c0,0,0,0,0-0.1
				c0,0,0,0,0,0c0-5.7-0.3-10.9-0.8-15.5c-2-19.4-7.3-36.8-16-51c2.1-8.5,2.1-18.9,0.3-30.3c-2.6-16.1-8-30.9-13.3-41.4
				c-4.9-9.5-9.7-15.5-14.6-16.6c-0.6-0.1-1.1-0.2-1.7-0.2c0,0,0,0,0,0c0,0-58.4,0.1-89.5,52c-19.5-32.2-49.4-44.3-69.3-48.9
				C143.3,997,135,997,135,997c-5.5,0-10.8,6.3-16.2,16.9c-5.2,10.5-10.5,25.3-13,41.5c-1.9,12.1-1.7,22.9,0.8,31.7
				c-6.6,10.8-11.3,23.5-14,37.4c-1.7,6.7-2.9,16.9-2.8,29.2c0,0.2,0,0.4,0,0.6c0.1,14.8,2.1,28.8,5.8,41.4
				c5.1,19,14.1,38.9,29.1,56.7c1.7,2,1.5,5-0.3,6.8h0c-2,2-5.2,1.8-7-0.4c-3.1-3.7-6.1-7.6-8.9-11.7c-9.9-14.5-17.3-30.9-22.2-48.7
				c-4-13.5-6.1-28.3-6.2-44.1l0,0l0,0c0-0.2,0-0.3,0-0.5c0,0,0-0.1,0-0.1c-0.1-11.8,0.9-22.9,3-31.4c2.7-13.6,7.1-26,13.1-36.8
				c-1.9-9.2-1.9-19.8,0-31.7C99.4,1033.2,106.3,1017.2,110.1,1009.4z"/>
			<path class="st15" d="M328.9,1256c0,0,2.6-2.5,10-13"/>
		</g>
	</g>
	<path class="st18" d="M242.9,1141.6c-0.6,37.2,17.3,58.9,47.9,58.2c30.7,0.7,48.6-21,48-58.2c0.6-37.2-17.3-58.9-47.9-58.2
		C260.2,1082.7,242.3,1104.4,242.9,1141.6z"/>
	<path class="st14" d="M264.5,1151.7c-0.3,20.5,9.5,32.4,26.4,32c16.9,0.4,26.7-11.5,26.4-32c0.3-20.5-9.5-32.4-26.4-32
		C274,1119.3,264.2,1131.2,264.5,1151.7z"/>
	<polyline class="st56" points="141,1127 202,1142 141,1156 	"/>
	<path class="st14" d="M177.8,1223.9c-7.2,15.9,6.8,32.5,37.5,44.6c30.4,12.7,52,10.5,58-5.9c7.2-15.9-6.8-32.5-37.5-44.6
		C205.3,1205.3,183.7,1207.5,177.8,1223.9z"/>
	<g>
		<defs>
			<path id="SVGID_45_" d="M177.8,1223.9c-7.2,15.9,6.8,32.5,37.5,44.6c30.4,12.7,52,10.5,58-5.9c7.2-15.9-6.8-32.5-37.5-44.6
				C205.3,1205.3,183.7,1207.5,177.8,1223.9z"/>
		</defs>
		<clipPath id="SVGID_46_">
			<use xlink:href="#SVGID_45_"  style="overflow:visible;"/>
		</clipPath>
		<path class="st57" d="M176.8,1264.9c22.9,8.7,38.5,7.8,41.7-2.5c4.2-9.9-7-20.8-30.1-29.1c-22.9-8.7-38.5-7.8-41.7,2.5
			C142.6,1245.8,153.8,1256.6,176.8,1264.9z"/>
	</g>
	<g>
		<g>
			<path class="st58" d="M225.2,1194.3c0.1,10.2,2.5,18.8,8.1,24.2c5.5,5.5,14.4,7.7,24.9,7.8c10.5-0.1,19.3-2.4,24.8-7.9
				c5.6-5.4,7.9-14,8-24.2"/>
			<path class="st58" d="M159,1194.4c0.1,10.2,2.5,18.8,8.1,24.2c5.5,5.5,14.4,7.7,24.9,7.8c10.5-0.1,19.3-2.4,24.8-7.9
				c5.6-5.4,7.9-14,8-24.2"/>
		</g>
	</g>
	<path class="st14" d="M225,1172.6c-11-0.2-17.4,4.8-17.2,13.5c-0.2,8.7,6.1,13.8,17.1,13.6c11,0.2,17.4-4.8,17.2-13.5
		C242.4,1177.6,236,1172.5,225,1172.6z"/>
	<path class="st9" d="M585,997c0,0,108.9-0.2,109.2,132l-108.9,0.2L585,997z"/>
	<path class="st9" d="M764.2,996.7c0,0-108.9,0.2-108.5,132.4l108.9-0.2L764.2,996.7z"/>
	<g>
		<path class="st59" d="M793.8,1055c-2.6-16.1-8-30.9-13.3-41.4c-5.4-10.5-10.7-16.8-16.3-16.8c-5.5,0-10.8,6.3-16.2,16.9
			c-5.2,10.5-10.5,25.3-13,41.5c-2.5,16.2-1.3,30.2,4.1,39.9c5.3,9.8,14.7,15.2,25.4,15.3c10.7-0.1,20.1-5.6,25.3-15.4
			C795.2,1085.2,796.4,1071.1,793.8,1055z"/>
		<path class="st59" d="M555.7,1055.4c2.5-16.2,7.8-31,13-41.5c5.4-10.6,10.7-16.9,16.2-16.9c5.5,0,10.9,6.3,16.3,16.8
			c5.3,10.5,10.7,25.3,13.3,41.4c2.6,16.2,1.4,30.2-3.9,39.9c-5.2,9.8-14.6,15.3-25.3,15.4c-10.7,0-20.1-5.5-25.4-15.3
			C554.4,1085.6,553.2,1071.6,555.7,1055.4z"/>
	</g>
	<path class="st9" d="M539.7,1154.3c0-0.2,0-0.4,0-0.6c-0.2-12.3,1.1-22.5,2.8-29.2c3.8-19.7,11.6-36.8,23.1-49.8
		c16.8-19.3,41.8-31.5,70.3-31.7c13,0.1,27.7,5,38.8,9.1c5.8-7.1,17.4-10.7,38.7-9.2c28.5,2,53.6,10.2,70.5,29.4
		c14.3,15.9,22.9,38.2,25.5,63.9c0.5,4.6,0.8,9.8,0.8,15.5c0,0,0,0,0,0c0,0,0,0,0,0.1c0,37.3-12.9,94.7-68,129.6
		c-30,19-49.3,20.6-66.9,20.6c-17.7,0-36.9-1.5-67-20.4c-36.5-22.9-54.6-55.6-62.8-85.9C541.8,1183.1,539.8,1169.2,539.7,1154.3z"/>
	<g>
		<path class="st13" d="M688,1045.7c0,0-11.8-3.5-26.2-0.1"/>
		<g>
			<path class="st14" d="M560.1,1009.4L560.1,1009.4L560.1,1009.4c3.3-6.5,6.4-11.2,9.6-14.7c4.6-5,9.7-7.5,15.1-7.6l0,0l0,0
				c0.4,0,9.6,0,22.6,3c13.6,3.1,26.3,8.3,37.6,15.3c11.4,7,21.2,15.8,29.5,26.1c6.2-7.9,13.4-14.9,21.4-20.9
				c9.5-7,20.2-12.7,31.8-16.8c19.8-7,35.6-7.1,36.3-7.1l0,0l0,0c1.3,0,2.6,0.2,3.8,0.4c0,0,0,0,0,0c4.5,1,8.6,3.8,12.5,8.3
				c2.9,3.3,5.7,7.7,8.6,13.4l0,0l0,0c3.9,7.7,10.9,23.7,14.2,44.3c1.8,11.2,1.9,21.3,0.4,30.2c3.8,6.8,7,14.3,9.5,22.3
				c2.9,9.2,4.8,19,5.9,29.4c0.6,5.2,0.9,10.8,0.9,16.5c0,0,0,0,0,0.1v0v0c0,0,0,0.1,0,0.1c0,16.8-2.4,42.6-14.1,69.6
				c-4.5,10.5-10.1,20.3-16.7,29.3c-1.7,2.3-5,2.7-7.1,0.7l0,0c-1.9-1.7-2.2-4.6-0.7-6.6c22.6-31.2,29-67.1,28.9-93.2c0,0,0,0,0-0.1
				c0,0,0,0,0,0c0-5.7-0.3-10.9-0.8-15.5c-2-19.4-7.3-36.8-16-51c2.1-8.5,2.1-18.9,0.3-30.3c-2.6-16.1-8-30.9-13.3-41.4
				c-4.9-9.5-9.7-15.5-14.6-16.6c-0.6-0.1-1.1-0.2-1.7-0.2c0,0,0,0,0,0c0,0-58.4,0.1-89.5,52c-19.5-32.2-49.4-44.3-69.3-48.9
				C593.3,997,585,997,585,997c-5.5,0-10.8,6.3-16.2,16.9c-5.2,10.5-10.5,25.3-13,41.5c-1.9,12.1-1.7,22.9,0.8,31.7
				c-6.6,10.8-11.3,23.5-14,37.4c-1.7,6.7-2.9,16.9-2.8,29.2c0,0.2,0,0.4,0,0.6c0.1,14.8,2.1,28.8,5.8,41.4
				c5.1,19,14.1,38.9,29.1,56.7c1.7,2,1.5,5-0.3,6.8l0,0c-2,2-5.2,1.8-7-0.4c-3.1-3.7-6.1-7.6-8.9-11.7
				c-9.9-14.5-17.3-30.9-22.2-48.7c-4-13.5-6.1-28.3-6.2-44.1l0,0l0,0c0-0.2,0-0.3,0-0.5c0,0,0-0.1,0-0.1c-0.1-11.8,0.9-22.9,3-31.4
				c2.7-13.6,7.1-26,13.1-36.8c-1.9-9.2-1.9-19.8,0-31.7C549.4,1033.2,556.3,1017.2,560.1,1009.4z"/>
			<path class="st15" d="M778.9,1256c0,0,2.6-2.5,10-13"/>
		</g>
	</g>
	<path class="st14" d="M675.1,1297c27.5,0.5,43.6-14.8,43-41.1c0.5-26.3-15.5-41.6-43-41.1c-27.5-0.5-43.6,14.8-43,41.1
		C631.5,1282.2,647.6,1297.5,675.1,1297z"/>
	<g>
		<defs>
			<path id="SVGID_47_" d="M675.1,1288c24.5,0.5,38.8-13.2,38.3-36.6c0.5-23.4-13.8-37-38.3-36.6c-24.5-0.5-38.8,13.2-38.3,36.6
				C636.3,1274.8,650.6,1288.4,675.1,1288z"/>
		</defs>
		<clipPath id="SVGID_48_">
			<use xlink:href="#SVGID_47_"  style="overflow:visible;"/>
		</clipPath>
		<path class="st60" d="M675.1,1261c15.5,0.4,24.5-11.6,24.2-32.2c0.3-20.6-8.7-32.7-24.2-32.3c-15.5-0.4-24.5,11.6-24.2,32.2
			C650.6,1249.4,659.6,1261.4,675.1,1261z"/>
	</g>
	<g>
		<g>
			<path class="st61" d="M675.2,1194.3c0.1,10.2,2.5,18.8,8.1,24.2c5.5,5.5,14.4,7.7,24.9,7.8c10.5-0.1,19.3-2.4,24.8-7.9
				c5.6-5.4,7.9-14,8-24.2"/>
			<path class="st61" d="M609,1194.4c0.1,10.2,2.5,18.8,8.1,24.2c5.5,5.5,14.4,7.7,24.9,7.8c10.5-0.1,19.3-2.4,24.8-7.9
				c5.6-5.4,7.9-14,8-24.2"/>
		</g>
	</g>
	<path class="st14" d="M675,1172.6c-11-0.2-17.4,4.8-17.2,13.5c-0.2,8.7,6.1,13.8,17.1,13.6c11,0.2,17.4-4.8,17.2-13.5
		C692.4,1177.6,686,1172.5,675,1172.6z"/>
	<path class="st18" d="M692.9,1141.6c-0.6,37.2,17.3,58.9,47.9,58.2c30.7,0.7,48.6-21,48-58.2c0.6-37.2-17.3-58.9-47.9-58.2
		C710.2,1082.7,692.3,1104.4,692.9,1141.6z"/>
	<path class="st18" d="M562.2,1141.6c-0.6,37.2,17.3,58.9,47.9,58.2c30.7,0.7,48.6-21,48-58.2c0.6-37.2-17.3-58.9-47.9-58.2
		C579.5,1082.7,561.6,1104.4,562.2,1141.6z"/>
	<g>
		<path class="st18" d="M692.9,1141.6c-0.6,37.2,17.3,58.9,47.9,58.2c30.7,0.7,48.6-21,48-58.2c0.6-37.2-17.3-58.9-47.9-58.2
			C710.2,1082.7,692.3,1104.4,692.9,1141.6z"/>
		<g>
			<defs>
				<path id="SVGID_49_" d="M692.9,1141.6c-0.6,37.2,17.3,58.9,47.9,58.2c30.7,0.7,48.6-21,48-58.2c0.6-37.2-17.3-58.9-47.9-58.2
					C710.2,1082.7,692.3,1104.4,692.9,1141.6z"/>
			</defs>
			<clipPath id="SVGID_50_">
				<use xlink:href="#SVGID_49_"  style="overflow:visible;"/>
			</clipPath>
			<path class="st62" d="M771.2,1183.4c0.4-22.8-10.6-36.1-29.4-35.6c-18.8-0.5-29.8,12.8-29.4,35.6c-0.4,22.8,10.6,36.1,29.4,35.6
				C760.6,1219.4,771.6,1206.2,771.2,1183.4z"/>
		</g>
	</g>
	<g>
		<path class="st18" d="M562.2,1141.6c-0.6,37.2,17.3,58.9,47.9,58.2c30.7,0.7,48.6-21,48-58.2c0.6-37.2-17.3-58.9-47.9-58.2
			C579.5,1082.7,561.6,1104.4,562.2,1141.6z"/>
		<g>
			<defs>
				<path id="SVGID_51_" d="M562.2,1141.6c-0.6,37.2,17.3,58.9,47.9,58.2c30.7,0.7,48.6-21,48-58.2c0.6-37.2-17.3-58.9-47.9-58.2
					C579.5,1082.7,561.6,1104.4,562.2,1141.6z"/>
			</defs>
			<clipPath id="SVGID_52_">
				<use xlink:href="#SVGID_51_"  style="overflow:visible;"/>
			</clipPath>
			<path class="st63" d="M640.5,1183.4c0.4-22.8-10.6-36.1-29.4-35.6c-18.8-0.5-29.8,12.8-29.4,35.6c-0.4,22.8,10.6,36.1,29.4,35.6
				C629.9,1219.4,640.9,1206.2,640.5,1183.4z"/>
		</g>
	</g>
	<g>
		<path class="st10" d="M1035,997c0,0,108.9-0.2,109.2,132l-108.9,0.2L1035,997z"/>
		<path class="st10" d="M1214.2,996.7c0,0-108.9,0.2-108.5,132.4l108.9-0.2L1214.2,996.7z"/>
	</g>
	<g>
		<path class="st64" d="M1243.8,1055c-2.6-16.1-8-30.9-13.3-41.4c-5.4-10.5-10.7-16.8-16.3-16.8c-5.5,0-10.8,6.3-16.2,16.9
			c-5.2,10.5-10.5,25.3-13,41.5c-2.5,16.2-1.3,30.2,4.1,39.9c5.3,9.8,14.7,15.2,25.4,15.3c10.7-0.1,20.1-5.6,25.3-15.4
			C1245.2,1085.2,1246.4,1071.1,1243.8,1055z"/>
		<path class="st64" d="M1005.7,1055.4c2.5-16.2,7.8-31,13-41.5c5.4-10.6,10.7-16.9,16.2-16.9c5.5,0,10.9,6.3,16.3,16.8
			c5.3,10.5,10.7,25.3,13.3,41.4c2.6,16.2,1.4,30.2-3.9,39.9c-5.2,9.8-14.6,15.3-25.3,15.4c-10.7,0-20.1-5.5-25.4-15.3
			C1004.4,1085.6,1003.2,1071.6,1005.7,1055.4z"/>
	</g>
	<path class="st10" d="M989.7,1154.3c0-0.2,0-0.4,0-0.6c-0.2-12.3,1.1-22.5,2.8-29.2c3.8-19.7,11.6-36.8,23.1-49.8
		c16.8-19.3,41.8-31.5,70.3-31.7c13,0.1,27.7,5,38.8,9.1c5.8-7.1,17.4-10.7,38.7-9.2c28.5,2,53.6,10.2,70.5,29.4
		c14.3,15.9,22.9,38.2,25.5,63.9c0.5,4.6,0.8,9.8,0.8,15.5c0,0,0,0,0,0c0,0,0,0,0,0.1c0,37.3-12.9,94.7-68,129.6
		c-30,19-49.3,20.6-66.9,20.6c-17.7,0-36.9-1.5-67-20.4c-36.5-22.9-54.6-55.6-62.8-85.9C991.8,1183.1,989.8,1169.2,989.7,1154.3z"/>
	<g>
		<path class="st13" d="M1138,1045.7c0,0-11.8-3.5-26.2-0.1"/>
		<g>
			<path class="st14" d="M1010.1,1009.4L1010.1,1009.4L1010.1,1009.4c3.3-6.5,6.4-11.2,9.6-14.7c4.6-5,9.7-7.5,15.1-7.6l0,0l0,0
				c0.4,0,9.6,0,22.6,3c13.6,3.1,26.3,8.3,37.6,15.3c11.4,7,21.2,15.8,29.5,26.1c6.2-7.9,13.4-14.9,21.4-20.9
				c9.5-7,20.2-12.7,31.8-16.8c19.8-7,35.6-7.1,36.3-7.1l0,0l0,0c1.3,0,2.6,0.2,3.8,0.4c0,0,0,0,0,0c4.5,1,8.6,3.8,12.5,8.3
				c2.9,3.3,5.7,7.7,8.6,13.4l0,0l0,0c3.9,7.7,10.9,23.7,14.2,44.3c1.8,11.2,1.9,21.3,0.4,30.2c3.8,6.8,7,14.3,9.5,22.3
				c2.9,9.2,4.8,19,5.9,29.4c0.6,5.2,0.9,10.8,0.9,16.5c0,0,0,0,0,0.1v0v0c0,0,0,0.1,0,0.1c0,16.8-2.4,42.6-14.1,69.6
				c-4.5,10.5-10.1,20.3-16.7,29.3c-1.7,2.3-5,2.7-7.1,0.7l0,0c-1.9-1.7-2.2-4.6-0.7-6.6c22.6-31.2,29-67.1,28.9-93.2c0,0,0,0,0-0.1
				c0,0,0,0,0,0c0-5.7-0.3-10.9-0.8-15.5c-2-19.4-7.3-36.8-16-51c2.1-8.5,2.1-18.9,0.3-30.3c-2.6-16.1-8-30.9-13.3-41.4
				c-4.9-9.5-9.7-15.5-14.6-16.6c-0.6-0.1-1.1-0.2-1.7-0.2c0,0,0,0,0,0c0,0-58.4,0.1-89.5,52c-19.5-32.2-49.4-44.3-69.3-48.9
				c-12.1-2.8-20.5-2.8-20.5-2.8c-5.5,0-10.8,6.3-16.2,16.9c-5.2,10.5-10.5,25.3-13,41.5c-1.9,12.1-1.7,22.9,0.8,31.7
				c-6.6,10.8-11.3,23.5-14,37.4c-1.7,6.7-2.9,16.9-2.8,29.2c0,0.2,0,0.4,0,0.6c0.1,14.8,2.1,28.8,5.8,41.4
				c5.1,19,14.1,38.9,29.1,56.7c1.7,2,1.5,5-0.3,6.8h0c-2,2-5.2,1.8-7-0.4c-3.1-3.7-6.1-7.6-8.9-11.7c-9.9-14.5-17.3-30.9-22.2-48.7
				c-4-13.5-6.1-28.3-6.2-44.1l0,0l0,0c0-0.2,0-0.3,0-0.5c0,0,0-0.1,0-0.1c-0.1-11.8,0.9-22.9,3-31.4c2.7-13.6,7.1-26,13.1-36.8
				c-1.9-9.2-1.9-19.8,0-31.7C999.4,1033.2,1006.3,1017.2,1010.1,1009.4z"/>
			<path class="st15" d="M1228.9,1256c0,0,2.6-2.5,10-13"/>
		</g>
	</g>
	<g>
		<g>
			<path class="st65" d="M1125.2,1196.3c0.1,10.2,2.5,18.8,8.1,24.2c5.5,5.5,14.4,7.7,24.9,7.8c10.5-0.1,19.3-2.4,24.8-7.9
				c5.6-5.4,7.9-14,8-24.2"/>
			<path class="st65" d="M1059,1196.4c0.1,10.2,2.5,18.8,8.1,24.2c5.5,5.5,14.4,7.7,24.9,7.8c10.5-0.1,19.3-2.4,24.8-7.9
				c5.6-5.4,7.9-14,8-24.2"/>
		</g>
	</g>
	<path class="st14" d="M1125,1174.6c-11-0.2-17.4,4.8-17.2,13.5c-0.2,8.7,6.1,13.8,17.1,13.6c11,0.2,17.4-4.8,17.2-13.5
		C1142.4,1179.6,1136,1174.5,1125,1174.6z"/>
	<g>
		<path class="st18" d="M1231.8,1137.6c0.6-37.2-17.3-58.9-47.9-58.2c-30.7-0.7-48.6,21-48,58.2c-0.6,37.2,17.3,58.9,47.9,58.2
			C1214.5,1196.5,1232.4,1174.9,1231.8,1137.6z"/>
	</g>
	<g>
		<path class="st18" d="M1113.1,1137.6c0.6-37.2-17.3-58.9-47.9-58.2c-30.7-0.7-48.6,21-48,58.2c-0.6,37.2,17.3,58.9,47.9,58.2
			C1095.8,1196.5,1113.7,1174.9,1113.1,1137.6z"/>
	</g>
	<path class="st56" d="M1056.6,1095.4c22,0,39.9,20.4,39.9,45.7c0,21.4-15.2,38.8-33.9,38.8c-15.9,0-28.8-14.8-28.8-33
		c0-15.5,11-28,24.5-28c11.5,0,20.8,10.7,20.8,23.8c0,11.2-7.9,20.3-17.7,20.3c-8.3,0-15-7.7-15-17.2"/>
	<path class="st56" d="M1192.4,1095.4c-22,0-39.9,20.4-39.9,45.7c0,21.4,15.2,38.8,33.9,38.8c15.9,0,28.8-14.8,28.8-33
		c0-15.5-11-28-24.5-28c-11.5,0-20.8,10.7-20.8,23.8c0,11.2,7.9,20.3,17.7,20.3c8.3,0,15-7.7,15-17.2"/>
	<g>
		<polyline class="st10" points="1076,1251 1088.1,1271 1100.2,1251 1112.4,1271 1124.5,1251 1136.6,1271 1148.7,1251 1160.9,1271 
			1173,1251 		"/>
		<polyline class="st56" points="1076,1251 1088.1,1271 1100.2,1251 1112.4,1271 1124.5,1251 1136.6,1271 1148.7,1251 1160.9,1271 
			1173,1251 		"/>
	</g>
	<g>
		<path class="st11" d="M1485,997c0,0,108.9-0.2,109.2,132l-108.9,0.2L1485,997z"/>
		<path class="st11" d="M1664.2,996.7c0,0-108.9,0.2-108.5,132.4l108.9-0.2L1664.2,996.7z"/>
	</g>
	<g>
		<path class="st66" d="M1693.8,1055c-2.6-16.1-8-30.9-13.3-41.4c-5.4-10.5-10.7-16.8-16.3-16.8c-5.5,0-10.8,6.3-16.2,16.9
			c-5.2,10.5-10.5,25.3-13,41.5c-2.5,16.2-1.3,30.2,4.1,39.9c5.3,9.8,14.7,15.2,25.4,15.3c10.7-0.1,20.1-5.6,25.3-15.4
			C1695.2,1085.2,1696.4,1071.1,1693.8,1055z"/>
		<path class="st66" d="M1455.7,1055.4c2.5-16.2,7.8-31,13-41.5c5.4-10.6,10.7-16.9,16.2-16.9c5.5,0,10.9,6.3,16.3,16.8
			c5.3,10.5,10.7,25.3,13.3,41.4c2.6,16.2,1.4,30.2-3.9,39.9c-5.2,9.8-14.6,15.3-25.3,15.4c-10.7,0-20.1-5.5-25.4-15.3
			C1454.4,1085.6,1453.2,1071.6,1455.7,1055.4z"/>
	</g>
	<path class="st11" d="M1439.7,1154.3c0-0.2,0-0.4,0-0.6c-0.2-12.3,1.1-22.5,2.8-29.2c3.8-19.7,11.6-36.8,23.1-49.8
		c16.8-19.3,41.8-31.5,70.3-31.7c13,0.1,27.7,5,38.8,9.1c5.8-7.1,17.4-10.7,38.7-9.2c28.5,2,53.6,10.2,70.5,29.4
		c14.3,15.9,22.9,38.2,25.5,63.9c0.5,4.6,0.8,9.8,0.8,15.5c0,0,0,0,0,0c0,0,0,0,0,0.1c0,37.3-12.9,94.7-68,129.6
		c-30,19-49.3,20.6-66.9,20.6c-17.7,0-36.9-1.5-67-20.4c-36.5-22.9-54.6-55.6-62.8-85.9C1441.8,1183.1,1439.8,1169.2,1439.7,1154.3z
		"/>
	<g>
		<path class="st13" d="M1588,1045.7c0,0-11.8-3.5-26.2-0.1"/>
		<g>
			<path class="st14" d="M1460.1,1009.4L1460.1,1009.4L1460.1,1009.4c3.3-6.5,6.4-11.2,9.6-14.7c4.6-5,9.7-7.5,15.1-7.6l0,0l0,0
				c0.4,0,9.6,0,22.6,3c13.6,3.1,26.3,8.3,37.6,15.3c11.4,7,21.2,15.8,29.5,26.1c6.2-7.9,13.4-14.9,21.4-20.9
				c9.5-7,20.2-12.7,31.8-16.8c19.8-7,35.6-7.1,36.3-7.1l0,0l0,0c1.3,0,2.6,0.2,3.8,0.4c0,0,0,0,0,0c4.5,1,8.6,3.8,12.5,8.3
				c2.9,3.3,5.7,7.7,8.6,13.4l0,0l0,0c3.9,7.7,10.9,23.7,14.2,44.3c1.8,11.2,1.9,21.3,0.4,30.2c3.8,6.8,7,14.3,9.5,22.3
				c2.9,9.2,4.8,19,5.9,29.4c0.6,5.2,0.9,10.8,0.9,16.5c0,0,0,0,0,0.1v0v0c0,0,0,0.1,0,0.1c0,16.8-2.4,42.6-14.1,69.6
				c-4.5,10.5-10.1,20.3-16.7,29.3c-1.7,2.3-5,2.7-7.1,0.7l0,0c-1.9-1.7-2.2-4.6-0.7-6.6c22.6-31.2,29-67.1,28.9-93.2c0,0,0,0,0-0.1
				c0,0,0,0,0,0c0-5.7-0.3-10.9-0.8-15.5c-2-19.4-7.3-36.8-16-51c2.1-8.5,2.1-18.9,0.3-30.3c-2.6-16.1-8-30.9-13.3-41.4
				c-4.9-9.5-9.7-15.5-14.6-16.6c-0.6-0.1-1.1-0.2-1.7-0.2c0,0,0,0,0,0c0,0-58.4,0.1-89.5,52c-19.5-32.2-49.4-44.3-69.3-48.9
				c-12.1-2.8-20.5-2.8-20.5-2.8c-5.5,0-10.8,6.3-16.2,16.9c-5.2,10.5-10.5,25.3-13,41.5c-1.9,12.1-1.7,22.9,0.8,31.7
				c-6.6,10.8-11.3,23.5-14,37.4c-1.7,6.7-2.9,16.9-2.8,29.2c0,0.2,0,0.4,0,0.6c0.1,14.8,2.1,28.8,5.8,41.4
				c5.1,19,14.1,38.9,29.1,56.7c1.7,2,1.5,5-0.3,6.8h0c-2,2-5.2,1.8-7-0.4c-3.1-3.7-6.1-7.6-8.9-11.7c-9.9-14.5-17.3-30.9-22.2-48.7
				c-4-13.5-6.1-28.3-6.2-44.1l0,0v0c0-0.2,0-0.3,0-0.5c0,0,0-0.1,0-0.1c-0.1-11.8,0.9-22.9,3-31.4c2.7-13.6,7.1-26,13.1-36.8
				c-1.9-9.2-1.9-19.8,0-31.7C1449.4,1033.2,1456.3,1017.2,1460.1,1009.4z"/>
			<path class="st15" d="M1678.9,1256c0,0,2.6-2.5,10-13"/>
		</g>
	</g>
	<path class="st14" d="M1575.1,1270c28.6,0.5,45.2-13.7,44.7-38c0.6-24.3-16.1-38.5-44.7-38c-28.6-0.5-45.2,13.7-44.7,38
		C1529.9,1256.3,1546.5,1270.5,1575.1,1270z"/>
	<g>
		<defs>
			<path id="SVGID_53_" d="M1575.1,1270c28.6,0.5,45.2-13.7,44.7-38c0.6-24.3-16.1-38.5-44.7-38c-28.6-0.5-45.2,13.7-44.7,38
				C1529.9,1256.3,1546.5,1270.5,1575.1,1270z"/>
		</defs>
		<clipPath id="SVGID_54_">
			<use xlink:href="#SVGID_53_"  style="overflow:visible;"/>
		</clipPath>
		<path class="st67" d="M1575.1,1299.6c18.1,0.3,28.6-9,28.3-25.1c0.4-16.1-10.2-25.5-28.3-25.2c-18.1-0.3-28.6,9-28.3,25.1
			C1546.5,1290.6,1557,1299.9,1575.1,1299.6z"/>
	</g>
	<g>
		<g>
			<path class="st68" d="M1575.2,1194.3c0.1,10.2,2.5,18.8,8.1,24.2c5.5,5.5,14.4,7.7,24.9,7.8c10.5-0.1,19.3-2.4,24.8-7.9
				c5.6-5.4,7.9-14,8-24.2"/>
			<path class="st68" d="M1509,1194.4c0.1,10.2,2.5,18.8,8.1,24.2c5.5,5.5,14.4,7.7,24.9,7.8c10.5-0.1,19.3-2.4,24.8-7.9
				c5.6-5.4,7.9-14,8-24.2"/>
		</g>
	</g>
	<path class="st14" d="M1575,1172.6c-11-0.2-17.4,4.8-17.2,13.5c-0.2,8.7,6.1,13.8,17.1,13.6c11,0.2,17.4-4.8,17.2-13.5
		C1592.4,1177.6,1586,1172.5,1575,1172.6z"/>
	<g>
		<path class="st14" d="M1583.7,1106h-130.2c-1.3,5.1-2,10.7-1.8,16.8c-0.9,35.3,24.1,55.9,66.9,55.2c42.8,0.7,67.8-19.8,66.9-55.1
			C1585.7,1116.8,1585.1,1111.2,1583.7,1106z"/>
		<path class="st14" d="M1696.4,1106h-130.2c-1.3,5.1-2,10.7-1.8,16.8c-0.9,35.3,24.1,55.9,66.9,55.2c42.8,0.7,67.8-19.8,66.9-55.1
			C1698.4,1116.8,1697.8,1111.2,1696.4,1106z"/>
	</g>
	<path class="st69" d="M1485,1124c0,0,0,25,24,39"/>
	<path class="st69" d="M1509,1134c0,0,0,4,7,9"/>
</g>
</svg>
