<?xml version="1.0" encoding="utf-8"?>
<!-- Generator: Adobe Illustrator 22.0.0, SVG Export Plug-In . SVG Version: 6.00 Build 0)  -->
<svg version="1.1" id="DS_logotype" xmlns="http://www.w3.org/2000/svg" xmlns:xlink="http://www.w3.org/1999/xlink" x="0px"
	 y="0px" viewBox="0 0 808 127.4" style="enable-background:new 0 0 808 127.4;" xml:space="preserve">
<style type="text/css">
	.st0{fill:#FFFFFF;}
</style>
<g>
	<g>
		<path class="st0" d="M216.9,88.6h8.7v24.6h-11.3V98.9h-50.4v14.3h-11.3V88.6h6.5c4.6-3.8,7.2-10.2,7.2-29.9v-30h50.6V88.6z
			 M205.3,88.6V38.5H177v21.7c0,15.1-1.6,23-5.3,28.5L205.3,88.6L205.3,88.6z"/>
		<path class="st0" d="M262.9,99.5c-20.2,0-34.1-15.1-34.1-35.7s13.9-35.7,34.1-35.7S297,43.2,297,63.8S283,99.5,262.9,99.5z
			 M262.9,89.3c13.3,0,22.3-10.7,22.3-25.6s-8.9-25.6-22.3-25.6c-13.3,0-22.3,10.7-22.3,25.6S249.5,89.3,262.9,89.3z"/>
		<path class="st0" d="M307.1,28.7H322L344.5,84l22.1-55.3h14.6v70.2h-11.1V47.2L349,98.9h-9.7l-21.1-51.6v51.6h-11.1L307.1,28.7
			L307.1,28.7z"/>
		<path class="st0" d="M425.5,99.5c-20.2,0-34.1-15.1-34.1-35.7s13.9-35.7,34.1-35.7s34.1,15.1,34.1,35.7S445.6,99.5,425.5,99.5z
			 M425.5,89.3c13.3,0,22.3-10.7,22.3-25.6s-8.9-25.6-22.3-25.6s-22.3,10.7-22.3,25.6S412.1,89.3,425.5,89.3z"/>
		<path class="st0" d="M513.1,94.4v8.5h-11v-8.5c-21.6-1-35.1-12.2-35.1-30.6s13.4-29.6,35.1-30.6v-8.5h11v8.4
			c21.6,1.1,35,12.3,35,30.7C548.1,82,534.8,93.2,513.1,94.4z M502.1,84.8V42.7c-15.5,0.9-23.6,8.5-23.6,21.1
			C478.5,76.2,486.3,83.8,502.1,84.8z M513.1,84.8c15.5-0.9,23.6-8.6,23.6-21.1s-7.9-20.1-23.6-21V84.8z"/>
		<path class="st0" d="M589.7,99.5c-20.2,0-34.1-15.1-34.1-35.7s13.9-35.7,34.1-35.7s34.1,15.1,34.1,35.7S609.9,99.5,589.7,99.5z
			 M589.7,89.3c13.3,0,22.3-10.7,22.3-25.6s-8.9-25.6-22.3-25.6c-13.3,0-22.3,10.7-22.3,25.6S576.4,89.3,589.7,89.3z"/>
		<path class="st0" d="M634,28.7h11.5v29.5h32.6V28.7h11.5v70.2h-11.5V68.4h-32.6v30.5H634V28.7z"/>
	</g>
</g>
<g>
	<path class="st0" d="M699.6,45.1c0-12.1,7.5-20.4,19.1-20.4c8.9,0,15.4,5.2,16.8,13.5h-5.3c-1.5-5.6-5.8-8.9-11.8-8.9
		c-8.4,0-13.8,6.5-13.8,15.8c0,9.2,5.2,15.8,13.6,15.8c6.2,0,10.5-3.3,12-8.9h5.3c-1.5,8.3-8.1,13.5-17.2,13.5
		C706.9,65.4,699.6,57.3,699.6,45.1z"/>
	<path class="st0" d="M741.6,65.1V25H772v40.1h-5V29.6h-20.5v35.5H741.6z"/>
	<path class="st0" d="M808,51.5c0,8.1-5.7,14-14.3,14c-8.8,0-14.3-5.3-14.3-16.4c0-15.6,3.7-21.5,16.4-23.1l9.9-1.3v4.4l-8.9,1.1
		c-9.2,1.2-11.8,3.6-12.7,12.3c2.1-2.8,5.7-4.6,10.7-4.6C802.4,37.8,808,43.2,808,51.5z M803.2,51.6c0-5.6-3.9-9.7-9.4-9.7
		c-5.7,0-9.6,4.1-9.6,9.1c0,6.5,4,10.3,9.5,10.3C799.3,61.4,803.2,57.3,803.2,51.6z"/>
</g>
<path class="st0" d="M116.9,87V47.6c0-10.4-5.6-20.1-14.6-25.3L68.2,2.6c-6-3.5-13.5-3.5-19.5,0L14.6,22.3C5.6,27.5,0,37.1,0,47.6
	V87c0,7,3.7,13.4,9.7,16.8l34.1,19.7c9.1,5.2,20.2,5.2,29.2,0l34.1-19.7C113.2,100.3,116.9,93.9,116.9,87z M106.2,99.6H10.6
	L4.1,88.3L51.9,5.6h13l47.8,82.8L106.2,99.6z"/>
</svg>
