<?xml version="1.0" encoding="utf-8"?>
<!-- Generator: Adobe Illustrator 22.0.0, SVG Export Plug-In . SVG Version: 6.00 Build 0)  -->
<svg version="1.1" id="Layer_1" xmlns="http://www.w3.org/2000/svg" xmlns:xlink="http://www.w3.org/1999/xlink" x="0px" y="0px"
	 viewBox="0 0 168.7 122.7" style="enable-background:new 0 0 168.7 122.7;" xml:space="preserve">
<style type="text/css">
	.st0{fill:#FFFFFF;}
</style>
<g>
	<g>
		<g>
			<path class="st0" d="M112.2,10.7c0-6.3,4-10.6,10-10.6c4.6,0,7.9,2.7,8.8,7.1h-2.7c-0.8-2.9-2.9-4.6-6-4.6
				c-4.4,0-7.1,3.3-7.1,8.1s2.7,8.1,7.1,8.1c3.1,0,5.4-1.7,6.3-4.6h2.7c-0.8,4.4-4.2,7.1-9,7.1C116,21.3,112.2,16.9,112.2,10.7z"/>
			<path class="st0" d="M134.1,21.1V0.3h15.8v20.8h-2.7V2.6h-10.6v18.5C136.6,21.1,134.1,21.1,134.1,21.1z"/>
			<path class="st0" d="M168.7,14c0,4.2-2.9,7.3-7.5,7.3c-4.6,0-7.5-2.7-7.5-8.5c0-8.1,1.9-11.3,8.5-12.1l5.2-0.6v2.3L162.8,3
				c-4.8,0.6-6,1.9-6.7,6.5c1-1.5,2.9-2.3,5.6-2.3C165.7,6.9,168.7,9.6,168.7,14z M166.2,14c0-2.9-2.1-5-4.8-5c-2.9,0-5,2.1-5,4.8
				c0,3.3,2.1,5.4,5,5.4C164.1,19.2,166.2,16.9,166.2,14z"/>
		</g>
	</g>
	<path class="st0" d="M112.5,83.8V45.8c0-10-5.4-19.3-14-24.3l-32.8-19c-5.8-3.4-13-3.4-18.8,0L14,21.5c-8.7,5-14,14.2-14,24.3v37.9
		c0,6.7,3.6,12.9,9.3,16.2l32.8,19c8.8,5,19.4,5,28.1,0l32.8-19C108.9,96.6,112.5,90.5,112.5,83.8z M102.2,96h-92L3.9,85.1l46-79.6
		h12.5l46,79.7L102.2,96z"/>
</g>
</svg>
