<?xml version="1.0" encoding="utf-8"?>
<!-- Generator: Adobe Illustrator 22.0.0, SVG Export Plug-In . SVG Version: 6.00 Build 0)  -->
<svg version="1.1" id="Layer_1" xmlns="http://www.w3.org/2000/svg" xmlns:xlink="http://www.w3.org/1999/xlink" x="0px" y="0px"
	 viewBox="0 0 139.3 122.6" style="enable-background:new 0 0 139.3 122.6;" xml:space="preserve">
<style type="text/css">
	.st0{fill:#18191A;}
</style>
<g>
	<g>
		<g>
			<path class="st0" d="M112.2,5.1c0-3,1.9-5.1,4.8-5.1c2.2,0,3.8,1.3,4.2,3.4h-1.3c-0.4-1.4-1.4-2.2-2.9-2.2
				c-2.1,0-3.4,1.6-3.4,3.9c0,2.3,1.3,3.9,3.4,3.9c1.5,0,2.6-0.8,3-2.2h1.3c-0.4,2.1-2,3.4-4.3,3.4C114,10.2,112.2,8.1,112.2,5.1z"
				/>
			<path class="st0" d="M122.7,10.1v-10h7.6v10H129V1.2h-5.1v8.9H122.7z"/>
			<path class="st0" d="M139.3,6.7c0,2-1.4,3.5-3.6,3.5c-2.2,0-3.6-1.3-3.6-4.1c0-3.9,0.9-5.4,4.1-5.8l2.5-0.3v1.1l-2.2,0.3
				c-2.3,0.3-2.9,0.9-3.2,3.1c0.5-0.7,1.4-1.1,2.7-1.1C137.9,3.3,139.3,4.6,139.3,6.7z M138.1,6.7c0-1.4-1-2.4-2.3-2.4
				c-1.4,0-2.4,1-2.4,2.3c0,1.6,1,2.6,2.4,2.6C137.1,9.2,138.1,8.1,138.1,6.7z"/>
		</g>
	</g>
	<path class="st0" d="M112.5,83.7V45.8c0-10-5.4-19.3-14-24.3l-32.8-19c-5.8-3.4-13-3.4-18.8,0L14,21.5c-8.7,5-14,14.2-14,24.3v37.9
		c0,6.7,3.6,12.9,9.3,16.2l32.8,19c8.8,5,19.4,5,28.1,0l32.8-19C108.9,96.5,112.5,90.4,112.5,83.7z M102.2,95.9h-92L3.9,85l46-79.6
		h12.5l46,79.7L102.2,95.9z"/>
</g>
</svg>
