<?xml version="1.0" encoding="utf-8"?>
<!-- Generator: Adobe Illustrator 22.0.0, SVG Export Plug-In . SVG Version: 6.00 Build 0)  -->
<svg version="1.1" id="symbol" xmlns="http://www.w3.org/2000/svg" xmlns:xlink="http://www.w3.org/1999/xlink" x="0px" y="0px"
	 viewBox="0 0 250 170" style="enable-background:new 0 0 250 170;" xml:space="preserve">
<style type="text/css">
	.st0{opacity:0;}
	.st1{fill:#FFFFFF;}
</style>
<g class="st0">
	<path class="st1" d="M11.2,99.5c0-24.8,67.1-29,113.8-29v-29c-51.4,0-125,8.4-125,58c0,49.7,73.6,58,125,58v-29
		C78.2,128.5,11.2,124.3,11.2,99.5z"/>
	<path class="st1" d="M125,12.5v29c46.8,0,113.8,4.2,113.8,29s-67.1,29-113.8,29v29c51.4,0,125-8.4,125-58
		C250,20.8,176.4,12.5,125,12.5z"/>
</g>
<g>
	<path class="st1" d="M164.2,77.3L58.7,113.6c-3.4,1.2-7,1.2-10.4,0L1.9,97.7c-1.2-0.4-1.8-1.5-1.8-2.6v55.4
		c-0.1,1.2,0.7,2.2,1.8,2.6l23.2,8l23.2,8c3.4,1.2,7,1.2,10.4,0l52.8-18.1l52.7-18.1c1.2-0.4,1.8-1.5,1.8-2.6V75.2
		C165.8,76.1,165.2,77,164.2,77.3z"/>
	<path class="st1" d="M166,74.3v0.9C166,74.9,166.1,74.6,166,74.3z"/>
	<path class="st1" d="M164.2,16.8L141,8.9l-23.2-8c-3.4-1.2-7-1.2-10.4,0L54.6,19L1.8,37.1C0.6,37.5,0,38.6,0,39.7v55.5
		c0-1.2,0.7-2.3,1.8-2.6l105.6-36.3c3.4-1.2,7-1.2,10.4,0l46.4,15.9c0.8,0.2,1.4,0.9,1.7,1.7c0,0.1,0.1,0.3,0.1,0.4V19.4
		C166.1,18.2,165.3,17.2,164.2,16.8z"/>
</g>
</svg>
