<?xml version="1.0" encoding="utf-8"?>
<!-- Generator: Adobe Illustrator 22.0.0, SVG Export Plug-In . SVG Version: 6.00 Build 0)  -->
<svg version="1.1" id="logotype_1_" xmlns="http://www.w3.org/2000/svg" xmlns:xlink="http://www.w3.org/1999/xlink" x="0px"
	 y="0px" viewBox="0 0 182 41.1" style="enable-background:new 0 0 182 41.1;" xml:space="preserve">
<style type="text/css">
	.st0{fill:#FFFFFF;}
</style>
<g id="logotype">
	<g>
		<path class="st0" d="M3.2,24.7c0-7,19-8.2,32.2-8.2V8.2C20.9,8.2,0,10.6,0,24.7c0,14.1,20.9,16.4,35.4,16.4v-8.2
			C22.1,32.9,3.2,31.7,3.2,24.7z"/>
		<path class="st0" d="M35.4,0v8.2c13.3,0,32.2,1.2,32.2,8.2c0,7-19,8.2-32.2,8.2v8.2c14.5,0,35.4-2.4,35.4-16.4
			C70.8,2.4,49.9,0,35.4,0z"/>
	</g>
	<g>
		<path class="st0" d="M94.1,22.4v-3.8h11.5c-0.4-2-1.3-3.5-2.9-4.6c-1.5-1.1-3.5-1.7-5.8-1.7c-2,0-3.6,0.4-4.9,1.2
			s-2.2,1.9-2.7,3.3h-4.7c0.4-2.6,1.8-4.6,4-6.1s5-2.3,8.3-2.3c4.1,0,7.4,1.1,9.9,3.3s3.7,5.2,3.7,8.8c0,3.7-1.2,6.6-3.7,8.8
			s-5.8,3.3-9.8,3.3c-3.3,0-6.1-0.8-8.3-2.3c-2.2-1.5-3.5-3.6-4-6.1h4.7c0.5,1.4,1.4,2.5,2.7,3.3c1.3,0.8,3,1.2,5,1.2
			c2.4,0,4.3-0.6,5.8-1.7c1.5-1.2,2.5-2.7,2.8-4.7H94.1V22.4z"/>
		<path class="st0" d="M110,32.5v-4h0.7c1.6,0,2.7-0.6,3.4-1.7c0.7-1.1,1-3.3,1-6.4V8.6h20.6v23.9H131V12.6h-11.6v8.2
			c0,4.3-0.6,7.3-1.9,9.1c-1.3,1.8-3.4,2.6-6.2,2.6H110z"/>
		<path class="st0" d="M146.1,32.5V12.6h-8.9v-4h22.4v4h-8.9v19.9H146.1z"/>
		<path class="st0" d="M155.1,32.5l10.7-23.9h5.5L182,32.5h-5.1l-2.4-5.5h-12.1l-2.4,5.5H155.1z M164,23.2h8.9L168.4,13L164,23.2z"
			/>
	</g>
</g>
</svg>
