<?xml version="1.0" encoding="utf-8"?>
<!-- Generator: Adobe Illustrator 22.0.0, SVG Export Plug-In . SVG Version: 6.00 Build 0)  -->
<svg version="1.1" id="symbol" xmlns="http://www.w3.org/2000/svg" xmlns:xlink="http://www.w3.org/1999/xlink" x="0px" y="0px"
	 viewBox="0 0 250 170" style="enable-background:new 0 0 250 170;" xml:space="preserve">
<style type="text/css">
	.st0{opacity:0;}
	.st1{fill:#FFFFFF;}
</style>
<g class="st0">
	<path class="st1" d="M153.5,165.3h-42.8c-2.5,0-4.6-2.1-4.6-4.6v-42.8c0-2.5,2.1-4.6,4.6-4.6h42.8c2.5,0,4.6,2.1,4.6,4.6v42.8
		C158.1,163.2,156,165.3,153.5,165.3z"/>
	<path class="st1" d="M4.6,57.1h61.8c1.8,0,2.7,2.2,1.5,3.5L1.4,127.1c-1.8,1.8-1.8,4.7,0,6.4l30.1,30.4c1.8,1.8,4.7,1.8,6.5,0
		L156.8,45.2c1.8-1.8,1.8-4.7,0-6.5L126,7.9c-1.7-1.7-4-2.6-6.5-2.6H4.6C2.1,5.3,0,7.3,0,9.8v42.8C0,55,2.1,57.1,4.6,57.1z"/>
</g>
<g>
	<g>
		<path class="st1" d="M151,85c0,17.5-5.5,34.7-15.5,48.9c-10.1,14.2-24.5,25.2-41.1,31.1v-20.3c11.4-5.4,20.9-13.8,27.6-24.4
			s10.2-22.8,10.2-35.3s-3.5-24.8-10.3-35.3c-6.7-10.5-16.3-19-27.7-24.5V5c16.5,5.9,30.9,16.6,41.1,31.1
			C145.5,50.3,151,67.5,151,85z"/>
		<rect y="75.7" class="st1" width="75.5" height="18.8"/>
		<path class="st1" d="M113.1,85c0-6.1-1.2-12.3-3.5-18.1c-2.5-5.8-5.9-10.9-10.2-15.4C95,47.1,89.8,43.7,84,41.3
			c-5.8-2.3-11.9-3.4-18-3.4H37.8v18.8h56.7v56.6H37.8v18.8h28.3c6.2,0,12.3-1.2,18.1-3.5c5.8-2.5,10.9-5.9,15.4-10.2
			c4.4-4.4,7.8-9.6,10.2-15.4C112,97.3,113.1,91.2,113.1,85z"/>
	</g>
</g>
</svg>
