<?xml version="1.0" encoding="utf-8"?>
<!-- Generator: Adobe Illustrator 22.0.0, SVG Export Plug-In . SVG Version: 6.00 Build 0)  -->
<svg version="1.1" id="logotype_1_" xmlns="http://www.w3.org/2000/svg" xmlns:xlink="http://www.w3.org/1999/xlink" x="0px"
	 y="0px" viewBox="0 0 60 81.6" style="enable-background:new 0 0 60 81.6;" xml:space="preserve">
<style type="text/css">
	.st0{opacity:0;}
	.st1{fill:#FFFFFF;}
</style>
<g id="symbol_1_">
	<g class="st0">
		<path class="st1" d="M6.1,75.3V73h7c-0.2-1.2-0.8-2.1-1.8-2.8c-0.9-0.7-2.1-1-3.5-1c-1.2,0-2.2,0.2-3,0.7c-0.8,0.5-1.3,1.2-1.6,2
			H0.3c0.2-1.6,1.1-2.8,2.4-3.7c1.3-0.9,3-1.4,5.1-1.4c2.5,0,4.5,0.7,6,2c1.5,1.3,2.3,3.2,2.3,5.4c0,2.3-0.7,4-2.3,5.4s-3.5,2-6,2
			c-2,0-3.7-0.5-5.1-1.4c-1.3-0.9-2.1-2.2-2.4-3.7h2.9c0.3,0.9,0.9,1.5,1.6,2c0.8,0.5,1.8,0.7,3,0.7c1.5,0,2.6-0.4,3.5-1
			c0.9-0.7,1.5-1.6,1.7-2.9L6.1,75.3L6.1,75.3z"/>
		<path class="st1" d="M15.8,81.5v-2.4h0.4c1,0,1.6-0.4,2.1-1c0.4-0.7,0.6-2,0.6-3.9v-7.2h12.5v14.6h-2.9V69.4h-7.1v5
			c0,2.6-0.4,4.4-1.2,5.5c-0.8,1.1-2.1,1.6-3.8,1.6H15.8z"/>
		<path class="st1" d="M37.8,81.5V69.4h-5.4v-2.4H46v2.4h-5.4v12.1H37.8z"/>
		<path class="st1" d="M43.3,81.5l6.5-14.6h3.4l6.5,14.6h-3.1l-1.5-3.4h-7.4l-1.5,3.4H43.3z M48.7,75.8h5.4l-2.7-6.2L48.7,75.8z"/>
	</g>
	<g>
		<path class="st1" d="M5.9,72.9h6.6c-0.5-2.2-2.3-3.5-5-3.5c-2.4,0-3.9,1-4.4,2.6H0c0.5-3.1,3.5-5.2,7.5-5.2c5,0,8.3,3,8.3,7.4
			c0,4.5-3.3,7.4-8.3,7.4c-4.1,0-7.1-2.1-7.5-5.2h3.1C3.6,78,5.2,79,7.6,79c2.7,0,4.5-1.4,4.9-3.6H5.9V72.9z"/>
		<path class="st1" d="M15.4,78.8h0.5c1.7,0,2.5-0.9,2.5-4.7v-7.2h12.7v14.5H28V69.6h-6.7v4.8c0,5.2-1.6,7.1-5.1,7.1h-0.8V78.8z"/>
		<path class="st1" d="M37.3,69.6H32v-2.7h13.6v2.7h-5.3v11.8h-3.1V69.6z"/>
		<path class="st1" d="M49.9,66.9h3.7L60,81.4h-3.4l-1.4-3.2h-7.1l-1.3,3.2h-3.3L49.9,66.9z M54.1,75.8l-2.5-5.9l-2.5,5.9H54.1z"/>
	</g>
	<g>
		<path class="st1" d="M58.8,27.9L22.9,40.2c-2.3,0.8-4.7,0.8-7,0L1.3,35.4c-0.7-0.3-1.3-1-1.3-1.7v18.9c0,0.8,0.5,1.5,1.2,1.7
			l14.7,4.9c2.3,0.8,4.7,0.7,7,0l35.9-12.4c0.7-0.3,1.2-0.9,1.2-1.7V26.1C60,26.9,59.5,27.6,58.8,27.9z"/>
		<path class="st1" d="M58.8,5.5L44.1,0.6c-2.3-0.8-4.7-0.7-7,0L1.2,13C0.5,13.2,0,13.9,0,14.7v18.9c0-0.8,0.5-1.5,1.2-1.7
			l35.9-12.4c2.3-0.8,4.7-0.8,7,0l14.7,4.9c0.7,0.3,1.3,1,1.3,1.7V7.2C60,6.4,59.5,5.7,58.8,5.5z"/>
	</g>
</g>
</svg>
