<?xml version="1.0" encoding="utf-8"?>
<!-- Generator: Adobe Illustrator 22.0.0, SVG Export Plug-In . SVG Version: 6.00 Build 0)  -->
<svg version="1.1" id="Layer_1" xmlns="http://www.w3.org/2000/svg" xmlns:xlink="http://www.w3.org/1999/xlink" x="0px" y="0px"
	 viewBox="0 0 214.2 40" style="enable-background:new 0 0 214.2 40;" xml:space="preserve">
<style type="text/css">
	.st0{fill:#FFFFFF;}
</style>
<g>
	<g>
		<g>
			<path class="st0" d="M37.8,20c0,4.4-1.4,8.7-3.9,12.2s-6.1,6.3-10.3,7.8v-5.1c2.8-1.3,5.2-3.5,6.9-6.1c1.7-2.6,2.6-5.7,2.6-8.8
				s-0.9-6.2-2.6-8.8c-1.7-2.6-4.1-4.8-6.9-6.1V0c4.1,1.5,7.7,4.2,10.3,7.8C36.4,11.3,37.8,15.6,37.8,20z"/>
			<rect y="17.7" class="st0" width="18.9" height="4.7"/>
			<path class="st0" d="M28.3,20c0-1.5-0.3-3.1-0.9-4.5c-0.6-1.4-1.5-2.7-2.6-3.8s-2.4-2-3.8-2.6c-1.4-0.6-3-0.9-4.5-0.9H9.4v4.7
				h14.2v14.1H9.4v4.7h7.1c1.6,0,3.1-0.3,4.5-0.9c1.4-0.6,2.7-1.5,3.8-2.6s2-2.4,2.6-3.8C28,23.1,28.3,21.6,28.3,20z"/>
		</g>
	</g>
	<g>
		<g>
			<path class="st0" d="M50.4,17V5.2h2.3V10h2.4l4.1-4.8H62l-4.9,5.7l5.2,6.1h-3l-4.2-5h-2.5v5H50.4z"/>
			<path class="st0" d="M68.6,17.1c-2,0-3.7-0.6-4.9-1.7c-1.3-1.1-1.9-2.6-1.9-4.3c0-1.8,0.6-3.2,1.9-4.3c1.3-1.1,2.9-1.7,4.9-1.7
				c2,0,3.7,0.6,5,1.7c1.3,1.1,1.9,2.6,1.9,4.3c0,1.8-0.6,3.2-1.9,4.3C72.3,16.5,70.7,17.1,68.6,17.1z M68.6,15.1
				c1.4,0,2.5-0.4,3.3-1.1c0.8-0.7,1.2-1.7,1.2-3c0-1.2-0.4-2.2-1.2-3C71.1,7.4,70,7,68.6,7c-1.4,0-2.5,0.4-3.3,1.1
				c-0.8,0.7-1.2,1.7-1.2,2.9c0,1.2,0.4,2.2,1.2,2.9C66.2,14.8,67.3,15.1,68.6,15.1z"/>
			<path class="st0" d="M76.9,17V5.2h2.9l4.6,9.1l4.5-9.1h2.9V17h-2.2V8.6L85.3,17h-1.9l-4.3-8.3V17H76.9z"/>
			<path class="st0" d="M93.8,17V5.2h11.1V17h-2.3V7.2h-6.5V17H93.8z"/>
			<path class="st0" d="M106,17l5.3-11.8h2.7l5.3,11.8h-2.5l-1.2-2.7h-6l-1.2,2.7H106z M110.4,12.4h4.4l-2.2-5L110.4,12.4z"/>
			<path class="st0" d="M120.3,17V5.2h2.3V10h6.6V5.2h2.3V17h-2.3v-5h-6.6v5H120.3z"/>
			<path class="st0" d="M133.5,17V5.2h2.2v8.4l7-8.4h2.1V17h-2.2V8.6l-7,8.4H133.5z"/>
			<path class="st0" d="M146.2,17l3.2-4.4c-2-0.5-3-1.7-3-3.5c0-1.2,0.4-2.1,1.2-2.8c0.8-0.7,1.9-1,3.3-1h6.1V17h-2.3v-4.1h-2.9
				l-3,4.1H146.2z M151,10.9h3.8V7.1H151c-0.7,0-1.2,0.2-1.6,0.5c-0.4,0.3-0.6,0.8-0.6,1.4c0,0.6,0.2,1.1,0.6,1.4
				C149.8,10.8,150.3,10.9,151,10.9z"/>
			<path class="st0" d="M168.3,12v-1.9h5.7c-0.2-1-0.7-1.7-1.4-2.3c-0.8-0.6-1.7-0.8-2.9-0.8c-1,0-1.8,0.2-2.4,0.6
				c-0.6,0.4-1.1,0.9-1.3,1.6h-2.3c0.2-1.3,0.9-2.3,2-3c1.1-0.8,2.5-1.1,4.1-1.1c2,0,3.7,0.6,4.9,1.7c1.2,1.1,1.8,2.6,1.8,4.4
				c0,1.8-0.6,3.3-1.8,4.4c-1.2,1.1-2.8,1.6-4.9,1.6c-1.7,0-3-0.4-4.1-1.1c-1.1-0.7-1.8-1.8-2-3h2.3c0.2,0.7,0.7,1.3,1.3,1.6
				c0.7,0.4,1.5,0.6,2.5,0.6c1.2,0,2.1-0.3,2.9-0.9c0.7-0.6,1.2-1.3,1.4-2.3H168.3z"/>
			<path class="st0" d="M176.6,17v-2h0.4c0.8,0,1.3-0.3,1.7-0.8c0.3-0.6,0.5-1.6,0.5-3.2V5.2h10.2V17H187V7.2h-5.7v4
				c0,2.1-0.3,3.6-1,4.5c-0.6,0.9-1.7,1.3-3.1,1.3H176.6z"/>
			<path class="st0" d="M194.8,17V7.2h-4.4v-2h11.1v2h-4.4V17H194.8z"/>
			<path class="st0" d="M199.9,17l5.3-11.8h2.7l5.3,11.8h-2.5l-1.2-2.7h-6l-1.2,2.7H199.9z M204.3,12.4h4.4l-2.2-5L204.3,12.4z"/>
		</g>
		<g>
			<path class="st0" d="M50.1,29c0-3.6,2.7-6,6.7-6c3.1,0,5.3,1.5,5.9,4h-1.6c-0.6-1.7-2.1-2.6-4.4-2.6c-3.1,0-5.1,1.8-5.1,4.7
				s1.9,4.7,5,4.7c2.3,0,3.8-0.9,4.4-2.6h1.6c-0.6,2.5-2.8,4-6,4C52.6,35,50.1,32.6,50.1,29z"/>
			<path class="st0" d="M67.8,23.1h1.7L75,34.9h-1.6l-1.5-3.2h-6.5l-1.4,3.2h-1.6L67.8,23.1z M71.3,30.4l-2.7-5.9L66,30.4H71.3z"/>
			<path class="st0" d="M75.8,23.1h1.5v5.1H85v-5.1h1.5v11.8H85v-5.3h-7.7v5.3h-1.5V23.1z"/>
			<path class="st0" d="M88.3,23.1h1.5v5.1h2.8l4.7-5.1H99l-5.2,5.7l5.5,6.1h-1.9l-4.9-5.3h-2.8v5.3h-1.5V23.1z"/>
			<path class="st0" d="M104.4,24.4h-4.7v-1.4h10.9v1.4h-4.7v10.5h-1.5V24.4z"/>
			<path class="st0" d="M109.3,29.5h6.7v1.3h-6.7V29.5z"/>
			<path class="st0" d="M117.6,23.1h10.6v11.8h-1.5V24.4H119v10.5h-1.5V23.1z"/>
			<path class="st0" d="M129.9,23.1h8.9v1.4h-7.4v3.8h6.2v1.4h-6.2v4h7.7v1.4h-9.2V23.1z"/>
			<path class="st0" d="M144.3,24.4h-4.7v-1.4h10.9v1.4h-4.7v10.5h-1.5V24.4z"/>
			<path class="st0" d="M151.4,23.1h8.9v1.4h-7.4v3.8h6.2v1.4h-6.2v4h7.7v1.4h-9.2V23.1z"/>
			<path class="st0" d="M161.5,23.1h5.8c2.6,0,4.2,1.4,4.2,3.6c0,2.2-1.6,3.6-4.2,3.6H163v4.5h-1.5V23.1z M167.3,29
				c1.6,0,2.7-0.9,2.7-2.3c0-1.4-1-2.3-2.7-2.3H163V29H167.3z"/>
			<path class="st0" d="M172.4,23.1h8.6v1.4h-7.1v3.5h4.3c2.7,0,4.2,1.2,4.2,3.5c0,2.2-1.5,3.5-4.2,3.5h-5.7V23.1z M178,33.6
				c1.8,0,2.8-0.7,2.8-2.1c0-1.4-1-2.1-2.8-2.1h-4.1v4.3H178z"/>
			<path class="st0" d="M183.7,33.6h1.1c1.4,0,1.8-0.2,2.3-1.1l0.5-0.9l-5.5-8.4h1.8l4.5,7.1l3.9-7.1h1.7l-5.5,9.7
				c-0.9,1.6-1.7,2.1-3.4,2.1h-1.3V33.6z"/>
			<path class="st0" d="M194.7,23.1h5.8c2.6,0,4.2,1.4,4.2,3.6c0,2.2-1.6,3.6-4.2,3.6h-4.3v4.5h-1.5V23.1z M200.5,29
				c1.6,0,2.7-0.9,2.7-2.3c0-1.4-1-2.3-2.7-2.3h-4.3V29H200.5z"/>
			<path class="st0" d="M205.6,23.1h8.6v1.4h-7.2v10.5h-1.5V23.1z"/>
		</g>
	</g>
</g>
</svg>
