<?xml version="1.0" encoding="utf-8"?>
<!-- Generator: Adobe Illustrator 22.0.0, SVG Export Plug-In . SVG Version: 6.00 Build 0)  -->
<svg version="1.1" id="symbol" xmlns="http://www.w3.org/2000/svg" xmlns:xlink="http://www.w3.org/1999/xlink" x="0px" y="0px"
	 viewBox="0 0 250 170" style="enable-background:new 0 0 250 170;" xml:space="preserve">
<style type="text/css">
	.st0{opacity:0;}
</style>
<g class="st0">
	<path d="M11.2,99.5c0-24.8,67.1-29,113.8-29v-29c-51.4,0-125,8.4-125,58c0,49.7,73.6,58,125,58v-29
		C78.2,128.5,11.2,124.3,11.2,99.5z"/>
	<path d="M125,12.5v29c46.8,0,113.8,4.2,113.8,29s-67.1,29-113.8,29v29c51.4,0,125-8.4,125-58C250,20.8,176.4,12.5,125,12.5z"/>
</g>
<g class="st0">
	<path d="M164.2,77.3L58.7,113.6c-3.4,1.2-7,1.2-10.4,0L1.9,97.7c-1.2-0.4-1.8-1.5-1.8-2.6v55.4c-0.1,1.2,0.7,2.2,1.8,2.6l23.2,8
		l23.2,8c3.4,1.2,7,1.2,10.4,0l52.8-18.1l52.7-18.1c1.2-0.4,1.8-1.5,1.8-2.6V75.2C165.8,76.1,165.2,77,164.2,77.3z"/>
	<path d="M166,74.3v0.9C166,74.9,166.1,74.6,166,74.3z"/>
	<path d="M164.2,16.8L141,8.9l-23.2-8c-3.4-1.2-7-1.2-10.4,0L54.6,19L1.8,37.1C0.6,37.5,0,38.6,0,39.7v55.5c0-1.2,0.7-2.3,1.8-2.6
		l105.6-36.3c3.4-1.2,7-1.2,10.4,0l46.4,15.9c0.8,0.2,1.4,0.9,1.7,1.7c0,0.1,0.1,0.3,0.1,0.4V19.4C166.1,18.2,165.3,17.2,164.2,16.8
		z"/>
</g>
<g class="st0">
	<path d="M152.4,79.8l-93,32c-5.9,2-12.2,2-18.1,0.1l-38-12.8c-2-0.6-3.3-2.4-3.3-4.4v49.1c0,2,1.3,3.8,3.2,4.4L41.3,161
		c5.9,2,12.2,1.9,18.1-0.1l93.1-32.1c1.9-0.7,3.2-2.4,3.2-4.4V75.3C155.6,77.4,154.3,79.2,152.4,79.8z"/>
	<path d="M152.4,21.7L114.3,9c-5.8-2-12.2-2-18.1,0l-93,32.1C1.3,41.7,0,43.5,0,45.5v49.1c0-2,1.3-3.8,3.2-4.5l93-32
		c5.9-2,12.2-2,18.1-0.1l38,12.8c1.9,0.7,3.3,2.5,3.3,4.5V26.2C155.6,24.2,154.3,22.4,152.4,21.7z"/>
</g>
<g>
	<path d="M148.7,162.8h-41.4c-2.4,0-4.4-2-4.4-4.4v-41.4c0-2.4,2-4.4,4.4-4.4h41.4c2.4,0,4.4,2,4.4,4.4v41.4
		C153.1,160.8,151.1,162.8,148.7,162.8z"/>
	<path d="M4.4,57.9h59.8c1.8,0,2.7,2.1,1.4,3.4L1.3,125.7c-1.8,1.8-1.8,4.5,0,6.2l29.1,29.5c1.8,1.8,4.5,1.8,6.3,0l115.1-115
		c1.8-1.8,1.8-4.5,0-6.3l-29.8-29.8c-1.7-1.7-3.9-2.5-6.3-2.5H4.4C2,7.8,0,9.7,0,12.2v41.4C0,55.9,2,57.9,4.4,57.9z"/>
</g>
</svg>
