<?xml version="1.0" encoding="utf-8"?>
<!-- Generator: Adobe Illustrator 22.0.0, SVG Export Plug-In . SVG Version: 6.00 Build 0)  -->
<svg version="1.1" id="logotype_1_" xmlns="http://www.w3.org/2000/svg" xmlns:xlink="http://www.w3.org/1999/xlink" x="0px"
	 y="0px" viewBox="0 0 182 41.1" style="enable-background:new 0 0 182 41.1;" xml:space="preserve">
<style type="text/css">
	.st0{opacity:0;}
</style>
<g class="st0">
	<g>
		<path d="M69,22.8v-4.3h13c-0.4-2.2-1.4-4-3.3-5.2c-1.8-1.2-4-2-6.6-2c-2.2,0-4.1,0.4-5.6,1.3c-1.4,0.9-2.5,2.1-3.1,3.7h-5.3
			c0.4-3,2-5.2,4.6-6.9c2.6-1.7,5.7-2.6,9.5-2.6c4.6,0,8.5,1.2,11.1,3.7c2.9,2.5,4.2,5.9,4.2,9.9c0,4.2-1.3,7.5-4.2,9.9
			c-2.9,2.5-6.6,3.7-11.1,3.7c-3.7,0-6.9-0.9-9.5-2.6c-2.6-1.7-4-4.1-4.6-6.9h5.3c0.7,1.6,1.6,2.9,3.1,3.7c1.4,0.9,3.3,1.3,5.7,1.3
			c2.8,0,4.8-0.7,6.6-2c1.8-1.3,2.9-3.1,3.2-5.3L69,22.8L69,22.8z"/>
		<path d="M86.9,34.2v-4.6h0.8c1.9,0,3.1-0.7,3.9-2s1.1-3.7,1.1-7.2V7.2H116v27.1h-5.3V11.8H97.6V21c0,4.8-0.7,8.3-2.1,10.2
			c-1.4,2-3.9,3-7,3H86.9z"/>
		<path d="M127.9,34.2V11.8h-10.1V7.2h25.4v4.6h-10v22.6H128L127.9,34.2L127.9,34.2z"/>
		<path d="M138,34.2l12.1-27h6.2l12.2,27h-5.8l-2.8-6.2h-13.7l-2.8,6.2H138z M148,23.8h10l-5-11.6L148,23.8z"/>
	</g>
	<g>
		<path d="M38.9,40.9H28.1c-0.6,0-1.2-0.5-1.2-1.2V29c0-0.6,0.5-1.2,1.2-1.2h10.8c0.6,0,1.2,0.5,1.2,1.2v10.8
			C40.1,40.4,39.6,40.9,38.9,40.9z"/>
		<path d="M1.3,13.6h15.6c0.5,0,0.7,0.6,0.4,0.9L0.4,31.3c-0.5,0.5-0.5,1.2,0,1.6l7.7,7.7c0.5,0.5,1.2,0.5,1.6,0l30.1-30.1
			c0.5-0.5,0.5-1.2,0-1.6L32,1.1c-0.4-0.4-1-0.7-1.6-0.7H1.3C0.6,0.4,0.1,1,0.1,1.6v10.8C0.1,13.1,0.6,13.6,1.3,13.6z"/>
	</g>
</g>
<g>
	<g>
		<g>
			<path d="M37.8,20.7c0,4.4-1.4,8.7-3.9,12.2c-2.5,3.6-6.1,6.3-10.3,7.8v-5.1c2.8-1.3,5.2-3.5,6.9-6.1c1.7-2.6,2.6-5.7,2.6-8.8
				s-0.9-6.2-2.6-8.8c-1.7-2.6-4.1-4.8-6.9-6.1V0.7c4.1,1.5,7.7,4.2,10.3,7.8C36.4,12,37.8,16.3,37.8,20.7z"/>
			<rect y="18.4" width="18.9" height="4.7"/>
			<path d="M28.3,20.7c0-1.5-0.3-3.1-0.9-4.5c-0.6-1.4-1.5-2.7-2.6-3.8s-2.4-2-3.8-2.6c-1.4-0.6-3-0.9-4.5-0.9H9.4v4.7h14.2v14.1
				H9.4v4.7h7.1c1.6,0,3.1-0.3,4.5-0.9c1.4-0.6,2.7-1.5,3.8-2.6s2-2.4,2.6-3.8C28,23.8,28.3,22.3,28.3,20.7z"/>
		</g>
	</g>
	<g>
		<path d="M57.4,22.7v-3.8h11.6c-0.4-2-1.2-3.6-2.9-4.6c-1.6-1.1-3.6-1.8-5.9-1.8c-2,0-3.6,0.4-5,1.2c-1.2,0.8-2.2,1.9-2.8,3.3h-4.7
			c0.4-2.7,1.8-4.6,4.1-6.1c2.3-1.5,5.1-2.3,8.4-2.3c4.1,0,7.6,1.1,9.9,3.3c2.6,2.2,3.7,5.2,3.7,8.8c0,3.7-1.2,6.7-3.7,8.8
			c-2.6,2.2-5.9,3.3-9.9,3.3c-3.3,0-6.1-0.8-8.4-2.3c-2.3-1.5-3.6-3.6-4.1-6.1h4.7c0.6,1.4,1.4,2.6,2.8,3.3c1.2,0.8,2.9,1.2,5.1,1.2
			c2.5,0,4.3-0.6,5.9-1.8s2.6-2.8,2.8-4.7L57.4,22.7L57.4,22.7z"/>
		<path d="M73.3,32.8v-4.1H74c1.7,0,2.8-0.6,3.5-1.8c0.7-1.2,1-3.3,1-6.4V8.8h20.7v24.1h-4.7v-20H82.8v8.2c0,4.3-0.6,7.4-1.9,9.1
			c-1.2,1.8-3.5,2.7-6.2,2.7H73.3z"/>
		<path d="M109.7,32.8V12.9h-9V8.8h22.6v4.1h-8.9V33h-4.6L109.7,32.8L109.7,32.8z"/>
		<path d="M118.7,32.8l10.8-24h5.5l10.8,24h-5.2l-2.5-5.5H126l-2.5,5.5H118.7z M127.6,23.5h8.9l-4.4-10.3L127.6,23.5z"/>
	</g>
</g>
</svg>
