<?xml version="1.0" encoding="utf-8"?>
<!-- Generator: Adobe Illustrator 22.0.0, SVG Export Plug-In . SVG Version: 6.00 Build 0)  -->
<svg version="1.1" id="logotype_1_" xmlns="http://www.w3.org/2000/svg" xmlns:xlink="http://www.w3.org/1999/xlink" x="0px"
	 y="0px" viewBox="0 0 166.1 40" style="enable-background:new 0 0 166.1 40;" xml:space="preserve">
<style type="text/css">
	.st0{opacity:0;}
	.st1{fill:#14161E;}
</style>
<g class="st0">
	<g>
		<path class="st1" d="M68,22.1v-4.2h12.8c-0.4-2.2-1.4-3.9-3.3-5.1c-1.8-1.2-3.9-2-6.5-2c-2.2,0-4,0.4-5.5,1.3
			c-1.4,0.9-2.5,2.1-3.1,3.6h-5.2c0.4-3,2-5.1,4.5-6.8c2.5-1.7,5.6-2.6,9.4-2.6c4.5,0,8.4,1.2,10.9,3.6c2.9,2.5,4.1,5.8,4.1,9.8
			c0,4.1-1.3,7.4-4.1,9.8c-2.9,2.5-6.5,3.6-10.9,3.6c-3.6,0-6.8-0.9-9.4-2.6c-2.6-1.7-3.9-4-4.5-6.8h5.2c0.7,1.6,1.6,2.9,3.1,3.6
			c1.4,0.9,3.3,1.3,5.6,1.3c2.8,0,4.7-0.7,6.5-2s2.9-3.1,3.2-5.2L68,22.1L68,22.1z"/>
		<path class="st1" d="M85.6,33.3v-4.5h0.8c1.9,0,3.1-0.7,3.8-2s1.1-3.6,1.1-7.1v-13h23v26.7h-5.2V11.2H96.2v9.1
			c0,4.7-0.7,8.2-2.1,10.1c-1.4,2-3.8,3-6.9,3h-1.6V33.3z"/>
		<path class="st1" d="M126.1,33.3V11.2h-10V6.7h25v4.5h-9.9v22.3h-5.1L126.1,33.3L126.1,33.3z"/>
		<path class="st1" d="M136,33.3l11.9-26.6h6.1l12,26.6h-5.7l-2.8-6.1H144l-2.8,6.1H136z M145.9,23.1h9.9l-4.9-11.4L145.9,23.1z"/>
	</g>
	<g>
		<path class="st1" d="M38.3,39.9H27.7c-0.6,0-1.2-0.5-1.2-1.2V28.2c0-0.6,0.5-1.2,1.2-1.2h10.6c0.6,0,1.2,0.5,1.2,1.2v10.6
			C39.5,39.4,39,39.9,38.3,39.9z"/>
		<path class="st1" d="M1.3,13h15.4c0.5,0,0.7,0.6,0.4,0.9L0.4,30.5c-0.5,0.5-0.5,1.2,0,1.6L8,39.6c0.5,0.5,1.2,0.5,1.6,0L39.2,10
			c0.5-0.5,0.5-1.2,0-1.6l-7.7-7.7c-0.4-0.4-1-0.7-1.6-0.7H1.3C0.6,0,0.1,0.6,0.1,1.2v10.6C0.1,12.5,0.6,13,1.3,13z"/>
	</g>
</g>
<g>
	<g>
		<g>
			<path class="st1" d="M37.8,20c0,4.4-1.4,8.7-3.9,12.2c-2.5,3.6-6.1,6.3-10.3,7.8v-5.1c2.8-1.3,5.2-3.5,6.9-6.1s2.6-5.7,2.6-8.8
				s-0.9-6.2-2.6-8.8c-1.7-2.6-4.1-4.8-6.9-6.1V0c4.1,1.5,7.7,4.2,10.3,7.8C36.4,11.3,37.8,15.6,37.8,20z"/>
			<rect y="17.7" class="st1" width="18.9" height="4.7"/>
			<path class="st1" d="M28.3,20c0-1.5-0.3-3.1-0.9-4.5s-1.5-2.7-2.6-3.8s-2.4-2-3.8-2.6c-1.4-0.6-3-0.9-4.5-0.9H9.4v4.7h14.2V27
				H9.4v4.7h7.1c1.6,0,3.1-0.3,4.5-0.9s2.7-1.5,3.8-2.6s2-2.4,2.6-3.8C28,23.1,28.3,21.6,28.3,20z"/>
		</g>
	</g>
	<g>
		<path class="st1" d="M60.8,22v-4.2h12.9c-0.5-2.2-1.5-3.9-3.2-5.1c-1.7-1.3-3.9-1.8-6.5-1.8c-2.2,0-4.1,0.5-5.5,1.4
			c-1.5,0.9-2.5,2.2-3,3.8H50c0.5-2.9,1.9-5.1,4.5-6.9c2.5-1.7,5.6-2.5,9.3-2.5c4.6,0,8.3,1.3,11.1,3.8c2.7,2.5,4.2,5.8,4.2,9.8
			c0,4.1-1.4,7.4-4.2,9.9c-2.7,2.5-6.5,3.8-11.1,3.8c-3.8,0-6.9-0.8-9.4-2.5s-4-4-4.5-6.9h5.3c0.6,1.6,1.6,2.9,3,3.8
			c1.5,0.9,3.3,1.4,5.6,1.4c2.6,0,4.8-0.7,6.5-1.9c1.7-1.3,2.7-3.1,3.2-5.3H60.8V22z"/>
		<path class="st1" d="M78.9,33.5v-4.6h0.8c1.7,0,3-0.7,3.8-1.9c0.8-1.3,1.1-3.7,1.1-7.2V6.6h23.1v26.9h-5.1V11.2H89.4v9.1
			c0,4.8-0.7,8.2-2.2,10.2c-1.5,1.9-3.8,3-7,3H78.9z"/>
		<path class="st1" d="M119.9,33.5V11.2H110V6.6h25.1v4.6h-9.9v22.3H119.9z"/>
		<path class="st1" d="M131,33.5l12-26.9h6.2l12,26.9h-5.7l-2.7-6.2h-13.6l-2.6,6.2H131z M140.9,22.9h9.9l-5-11.4L140.9,22.9z"/>
	</g>
</g>
</svg>
