<?xml version="1.0" encoding="utf-8"?>
<!-- Generator: Adobe Illustrator 22.0.0, SVG Export Plug-In . SVG Version: 6.00 Build 0)  -->
<svg version="1.1" id="symbol" xmlns="http://www.w3.org/2000/svg" xmlns:xlink="http://www.w3.org/1999/xlink" x="0px" y="0px"
	 viewBox="0 0 250 170" style="enable-background:new 0 0 250 170;" xml:space="preserve">
<style type="text/css">
	.st0{opacity:0;}
	.st1{fill:#FFFFFF;}
</style>
<g class="st0">
	<path class="st1" d="M11.2,99.5c0-24.8,67.1-29,113.8-29v-29c-51.4,0-125,8.4-125,58c0,49.7,73.6,58,125,58v-29
		C78.2,128.5,11.2,124.3,11.2,99.5z"/>
	<path class="st1" d="M125,12.5v29c46.8,0,113.8,4.2,113.8,29s-67.1,29-113.8,29v29c51.4,0,125-8.4,125-58
		C250,20.8,176.4,12.5,125,12.5z"/>
</g>
<g class="st0">
	<path class="st1" d="M164.2,77.3L58.7,113.6c-3.4,1.2-7,1.2-10.4,0L1.9,97.7c-1.2-0.4-1.8-1.5-1.8-2.6v55.4
		c-0.1,1.2,0.7,2.2,1.8,2.6l23.2,8l23.2,8c3.4,1.2,7,1.2,10.4,0l52.8-18.1l52.7-18.1c1.2-0.4,1.8-1.5,1.8-2.6V75.2
		C165.8,76.1,165.2,77,164.2,77.3z"/>
	<path class="st1" d="M166,74.3v0.9C166,74.9,166.1,74.6,166,74.3z"/>
	<path class="st1" d="M164.2,16.8L141,8.9l-23.2-8c-3.4-1.2-7-1.2-10.4,0L54.6,19L1.8,37.1C0.6,37.5,0,38.6,0,39.7v55.5
		c0-1.2,0.7-2.3,1.8-2.6l105.6-36.3c3.4-1.2,7-1.2,10.4,0l46.4,15.9c0.8,0.2,1.4,0.9,1.7,1.7c0,0.1,0.1,0.3,0.1,0.4V19.4
		C166.1,18.2,165.3,17.2,164.2,16.8z"/>
</g>
<g class="st0">
	<path class="st1" d="M152.4,79.8l-93,32c-5.9,2-12.2,2-18.1,0.1l-38-12.8c-2-0.6-3.3-2.4-3.3-4.4v49.1c0,2,1.3,3.8,3.2,4.4
		L41.3,161c5.9,2,12.2,1.9,18.1-0.1l93.1-32.1c1.9-0.7,3.2-2.4,3.2-4.4V75.3C155.6,77.4,154.3,79.2,152.4,79.8z"/>
	<path class="st1" d="M152.4,21.7L114.3,9c-5.8-2-12.2-2-18.1,0l-93,32.1C1.3,41.7,0,43.5,0,45.5v49.1c0-2,1.3-3.8,3.2-4.5l93-32
		c5.9-2,12.2-2,18.1-0.1l38,12.8c1.9,0.7,3.3,2.5,3.3,4.5V26.2C155.6,24.2,154.3,22.4,152.4,21.7z"/>
</g>
<g>
	<path class="st1" d="M132.7,155H95.4c-2.2,0-4-1.8-4-4v-37.3c0-2.2,1.8-4,4-4h37.3c2.2,0,4,1.8,4,4v37.3
		C136.7,153.2,134.9,155,132.7,155z"/>
	<path class="st1" d="M4,60.4h60L2.8,121.6c-1.6,1.6-1.6,4.1,0,5.7l26.3,26.5c1.6,1.6,4.1,1.6,5.7,0L135.6,53.1
		c1.5-1.5,1.6-3.8,0.3-5.4l-24-29.7c-1.5-1.9-3.8-3-6.3-3H4c-2.2,0-4,1.8-4,4v37.3C0,58.6,1.8,60.4,4,60.4z"/>
</g>
</svg>
