<?xml version="1.0" encoding="utf-8"?>
<!-- Generator: Adobe Illustrator 22.0.0, SVG Export Plug-In . SVG Version: 6.00 Build 0)  -->
<svg version="1.1" id="logotype_1_" xmlns="http://www.w3.org/2000/svg" xmlns:xlink="http://www.w3.org/1999/xlink" x="0px"
	 y="0px" viewBox="0 0 60 92" style="enable-background:new 0 0 60 92;" xml:space="preserve">
<style type="text/css">
	.st0{fill:#FFFFFF;}
	.st1{opacity:0;}
</style>
<g>
	<path class="st0" d="M7.5,85.9v-2.1h6.6c-0.2-1.1-0.7-2-1.7-2.6c-0.8-0.7-2-0.9-3.3-0.9c-1.1,0-2.1,0.2-2.8,0.7S5.2,82,4.9,82.8H2
		c0.2-1.5,1-2.6,2.2-3.5C5.5,78.5,7,78,9.1,78c2.3,0,4.2,0.7,5.7,1.9c1.5,1.2,2.1,3,2.1,5.1c0,2.1-0.7,3.7-2.1,5.1
		c-1.5,1.3-3.3,1.9-5.7,1.9c-1.9,0-3.5-0.5-4.9-1.3c-1.2-1-2-2.2-2.2-3.6h2.7c0.3,0.8,0.8,1.4,1.5,1.9c0.7,0.5,1.7,0.7,2.8,0.7
		c1.4,0,2.4-0.4,3.3-0.9c0.8-0.7,1.4-1.5,1.6-2.7L7.5,85.9L7.5,85.9z"/>
	<path class="st0" d="M16.7,91.7v-2.2H17c0.9,0,1.5-0.4,2-0.9c0.4-0.7,0.6-1.9,0.6-3.6v-6.8h11.8v13.7h-2.7V80.3h-6.7v4.8
		c0,2.4-0.4,4.1-1.1,5.2c-0.7,1.1-2,1.5-3.5,1.5L16.7,91.7L16.7,91.7z"/>
	<path class="st0" d="M37.4,91.7V80.3h-5.1v-2.2H45v2.2h-5.1v11.4H37.4z"/>
	<path class="st0" d="M42.5,91.7L48.7,78h3.2L58,91.7h-2.9l-1.4-3.2h-7l-1.4,3.2H42.5z M47.6,86.4h5.1l-2.5-5.9L47.6,86.4z"/>
</g>
<g class="st1">
	<path class="st0" d="M58.3,60.7H42c-1,0-1.7-0.8-1.7-1.7V42.8c0-1,0.8-1.7,1.7-1.7h16.2c1,0,1.7,0.8,1.7,1.7V59
		C60,60,59.2,60.7,58.3,60.7z"/>
	<path class="st0" d="M1.7,19.7h23.5c0.7,0,1,0.8,0.6,1.3L0.5,46.3c-0.7,0.7-0.7,1.8,0,2.4l11.4,11.5c0.7,0.7,1.8,0.7,2.5,0
		l45.1-45.1c0.7-0.7,0.7-1.8,0-2.5L47.8,1c-0.7-0.7-1.5-1-2.5-1H1.7C0.8,0,0,0.8,0,1.7V18C0,18.9,0.8,19.7,1.7,19.7z"/>
</g>
<g>
	<g>
		<path class="st0" d="M60,31.8c0,7-2.2,13.8-6.2,19.4s-9.7,10-16.3,12.3v-8.1c4.5-2.1,8.3-5.5,11-9.7c2.6-4.2,4.1-9.1,4.1-14
			s-1.4-9.8-4.1-14c-2.7-4.2-6.5-7.6-11-9.7V0c6.6,2.3,12.3,6.6,16.3,12.3C57.8,18,60,24.8,60,31.8z"/>
		<rect y="28.1" class="st0" width="30" height="7.5"/>
		<path class="st0" d="M44.9,31.8c0-2.4-0.5-4.9-1.4-7.2c-1-2.3-2.3-4.3-4.1-6.1c-1.7-1.7-3.8-3.1-6.1-4.1s-4.7-1.4-7.2-1.4H15v7.5
			h22.5V43H15v7.5h11.3c2.5,0,4.9-0.5,7.2-1.4c2.3-1,4.3-2.3,6.1-4.1c1.7-1.7,3.1-3.8,4.1-6.1C44.5,36.7,44.9,34.3,44.9,31.8z"/>
	</g>
</g>
</svg>
