<?xml version="1.0" encoding="utf-8"?>
<!-- Generator: Adobe Illustrator 22.0.0, SVG Export Plug-In . SVG Version: 6.00 Build 0)  -->
<svg version="1.1" id="logotype_1_" xmlns="http://www.w3.org/2000/svg" xmlns:xlink="http://www.w3.org/1999/xlink" x="0px"
	 y="0px" viewBox="0 0 166.1 40" style="enable-background:new 0 0 166.1 40;" xml:space="preserve">
<style type="text/css">
	.st0{fill:#FFFFFF;}
	.st1{opacity:0;}
</style>
<g>
	<g>
		<g>
			<path class="st0" d="M37.8,20c0,4.4-1.4,8.7-3.9,12.2c-2.5,3.6-6.1,6.3-10.3,7.8v-5.1c2.8-1.3,5.2-3.5,6.9-6.1s2.6-5.7,2.6-8.8
				s-0.9-6.2-2.6-8.8c-1.7-2.6-4.1-4.8-6.9-6.1V0c4.1,1.5,7.7,4.2,10.3,7.8C36.4,11.3,37.8,15.6,37.8,20z"/>
			<rect y="17.7" class="st0" width="18.9" height="4.7"/>
			<path class="st0" d="M28.3,20c0-1.5-0.3-3.1-0.9-4.5s-1.5-2.7-2.6-3.8s-2.4-2-3.8-2.6c-1.4-0.6-3-0.9-4.5-0.9H9.4v4.7h14.2V27
				H9.4v4.7h7.1c1.6,0,3.1-0.3,4.5-0.9s2.7-1.5,3.8-2.6s2-2.4,2.6-3.8C28,23.1,28.3,21.6,28.3,20z"/>
		</g>
	</g>
	<g>
		<path class="st0" d="M60.8,22v-4.2h12.9c-0.5-2.2-1.5-3.9-3.2-5.1c-1.7-1.3-3.9-1.8-6.5-1.8c-2.2,0-4.1,0.5-5.5,1.4
			c-1.5,0.9-2.5,2.2-3,3.8H50c0.5-2.9,1.9-5.1,4.5-6.9c2.5-1.7,5.6-2.5,9.3-2.5c4.6,0,8.3,1.3,11.1,3.8c2.7,2.5,4.2,5.8,4.2,9.8
			c0,4.1-1.4,7.4-4.2,9.9c-2.7,2.5-6.5,3.8-11.1,3.8c-3.8,0-6.9-0.8-9.4-2.5s-4-4-4.5-6.9h5.3c0.6,1.6,1.6,2.9,3,3.8
			c1.5,0.9,3.3,1.4,5.6,1.4c2.6,0,4.8-0.7,6.5-1.9c1.7-1.3,2.7-3.1,3.2-5.3H60.8V22z"/>
		<path class="st0" d="M78.9,33.5v-4.6h0.8c1.7,0,3-0.7,3.8-1.9c0.8-1.3,1.1-3.7,1.1-7.2V6.6h23.1v26.9h-5.1V11.2H89.4v9.1
			c0,4.8-0.7,8.2-2.2,10.2c-1.5,1.9-3.8,3-7,3H78.9z"/>
		<path class="st0" d="M119.9,33.5V11.2H110V6.6h25.1v4.6h-9.9v22.3H119.9z"/>
		<path class="st0" d="M131,33.5l12-26.9h6.2l12,26.9h-5.7l-2.7-6.2h-13.6l-2.6,6.2H131z M140.9,22.9h9.9l-5-11.4L140.9,22.9z"/>
	</g>
	<g class="st1">
		<path class="st0" d="M60.2,18.1h11.6c-0.9-3.8-4.1-6.1-8.7-6.1c-4.1,0-6.9,1.8-7.7,4.5h-5.5c0.8-5.4,6.1-9,13.1-9
			c8.8,0,14.5,5.2,14.5,12.9c0,7.8-5.8,12.9-14.5,12.9c-7.2,0-12.4-3.6-13.2-9h5.5c0.9,2.7,3.6,4.5,7.8,4.5c4.7,0,7.9-2.4,8.7-6.3
			H60.2V18.1z"/>
		<path class="st0" d="M77.8,28.3h0.8c3,0,4.5-1.6,4.5-8.2V7.6h22.2V33h-5.4V12.3H88.2v8.3c0,9.1-2.8,12.4-9,12.4h-1.4V28.3z"/>
		<path class="st0" d="M116.8,12.3h-9.2V7.6h23.9v4.7h-9.3V33h-5.4V12.3z"/>
		<path class="st0" d="M139.7,7.6h6.5L157.5,33h-6l-2.4-5.6h-12.5l-2.4,5.6h-5.8L139.7,7.6z M147.2,23.1l-4.4-10.3l-4.4,10.3H147.2z
			"/>
	</g>
</g>
</svg>
