<?xml version="1.0" encoding="utf-8"?>
<!-- Generator: Adobe Illustrator 22.0.0, SVG Export Plug-In . SVG Version: 6.00 Build 0)  -->
<svg version="1.1" id="logotype_1_" xmlns="http://www.w3.org/2000/svg" xmlns:xlink="http://www.w3.org/1999/xlink" x="0px"
	 y="0px" viewBox="0 0 60 63.5" style="enable-background:new 0 0 60 63.5;" xml:space="preserve">
<style type="text/css">
	.st0{fill:#FFFFFF;}
	.st1{opacity:0;}
</style>
<g>
	<path class="st0" d="M7.1,86.4v-2.2h6.7c-0.2-1.1-0.8-2-1.7-2.7s-2-1-3.3-1c-1.1,0-2.1,0.2-2.9,0.7s-1.2,1.1-1.5,1.9H1.5
		c0.2-1.5,1-2.7,2.3-3.5c1.2-0.9,2.9-1.3,4.9-1.3c2.4,0,4.3,0.7,5.8,1.9c1.5,1.2,2.2,3,2.2,5.2s-0.7,3.8-2.2,5.2
		c-1.5,1.3-3.3,1.9-5.8,1.9c-1.9,0-3.5-0.5-4.9-1.3c-1.2-1-2-2.3-2.3-3.7h2.8c0.3,0.9,0.9,1.4,1.5,1.9c0.8,0.5,1.7,0.7,2.8,0.7
		c1.4,0,2.5-0.4,3.3-0.9c0.9-0.7,1.4-1.5,1.6-2.8L7.1,86.4L7.1,86.4z"/>
	<path class="st0" d="M16.4,92.3V90h0.4c1,0,1.5-0.4,2-1c0.4-0.7,0.6-1.9,0.6-3.7v-6.9h12v14h-2.8V80.8h-6.8v4.8
		c0,2.5-0.4,4.2-1.1,5.3c-0.8,1.1-2,1.5-3.6,1.5L16.4,92.3L16.4,92.3z"/>
	<path class="st0" d="M37.5,92.3V80.8h-5.2v-2.3h13v2.3h-5.2v11.6L37.5,92.3L37.5,92.3z"/>
	<path class="st0" d="M42.8,92.3l6.3-14h3.2l6.3,14h-2.9l-1.4-3.2H47l-1.4,3.2H42.8z M48,86.9h5.2l-2.6-6L48,86.9z"/>
</g>
<g class="st1">
	<path class="st0" d="M58.3,60.7H42c-1,0-1.7-0.8-1.7-1.7V42.8c0-1,0.8-1.7,1.7-1.7h16.2c1,0,1.7,0.8,1.7,1.7V59
		C60,60,59.2,60.7,58.3,60.7z"/>
	<path class="st0" d="M1.7,19.7h23.5c0.7,0,1,0.8,0.6,1.3L0.5,46.3c-0.7,0.7-0.7,1.8,0,2.4l11.4,11.5c0.7,0.7,1.8,0.7,2.5,0
		l45.1-45.1c0.7-0.7,0.7-1.8,0-2.5L47.8,1c-0.7-0.7-1.5-1-2.5-1H1.7C0.8,0,0,0.8,0,1.7V18C0,18.9,0.8,19.7,1.7,19.7z"/>
</g>
<g>
	<g>
		<path d="M60,31.8c0,7-2.2,13.8-6.2,19.4s-9.7,10-16.3,12.3v-8.1c4.5-2.1,8.3-5.5,11-9.7c2.6-4.2,4.1-9.1,4.1-14s-1.4-9.8-4.1-14
			c-2.7-4.2-6.5-7.6-11-9.7V0c6.6,2.3,12.3,6.6,16.3,12.3S60,24.8,60,31.8z"/>
		<rect y="28.1" width="30" height="7.5"/>
		<path d="M44.9,31.8c0-2.4-0.5-4.9-1.4-7.2c-1-2.3-2.3-4.3-4.1-6.1c-1.7-1.7-3.8-3.1-6.1-4.1S28.6,13,26.1,13H15v7.5h22.5V43H15
			v7.5h11.3c2.5,0,4.9-0.5,7.2-1.4c2.3-1,4.3-2.3,6.1-4.1c1.7-1.7,3.1-3.8,4.1-6.1C44.5,36.7,44.9,34.3,44.9,31.8z"/>
	</g>
</g>
</svg>
