<?xml version="1.0" encoding="utf-8"?>
<!-- Generator: Adobe Illustrator 22.0.0, SVG Export Plug-In . SVG Version: 6.00 Build 0)  -->
<svg version="1.1" id="symbol" xmlns="http://www.w3.org/2000/svg" xmlns:xlink="http://www.w3.org/1999/xlink" x="0px" y="0px"
	 viewBox="0 0 250 170" style="enable-background:new 0 0 250 170;" xml:space="preserve">
<style type="text/css">
	.st0{opacity:0;}
	.st1{fill:#08080F;}
</style>
<g class="st0">
	<path d="M153.5,165.3h-42.8c-2.5,0-4.6-2.1-4.6-4.6v-42.8c0-2.5,2.1-4.6,4.6-4.6h42.8c2.5,0,4.6,2.1,4.6,4.6v42.8
		C158.1,163.2,156,165.3,153.5,165.3z"/>
	<path d="M4.6,57.1h61.8c1.8,0,2.7,2.2,1.5,3.5L1.4,127.1c-1.8,1.8-1.8,4.7,0,6.4l30.1,30.4c1.8,1.8,4.7,1.8,6.5,0L156.8,45.2
		c1.8-1.8,1.8-4.7,0-6.5L126,7.9c-1.7-1.7-4-2.6-6.5-2.6H4.6C2.1,5.3,0,7.3,0,9.8v42.8C0,55,2.1,57.1,4.6,57.1z"/>
</g>
<g>
	<g>
		<path class="st1" d="M160.5,85c0,18.6-5.8,36.9-16.5,52c-10.7,15.1-26,26.8-43.6,33v-21.6c12.1-5.7,22.1-14.7,29.3-25.9
			c7.1-11.2,10.9-24.2,10.9-37.5s-3.7-26.3-11-37.5c-7.1-11.2-17.3-20.2-29.4-26V0c17.6,6.2,32.8,17.7,43.6,33
			C154.6,48.1,160.5,66.4,160.5,85z"/>
		<rect x="0" y="75.1" class="st1" width="80.2" height="20"/>
		<path class="st1" d="M120.2,85c0-6.5-1.3-13.1-3.7-19.2c-2.6-6.1-6.2-11.6-10.9-16.3s-10.2-8.3-16.3-10.9
			C83.2,36.2,76.7,35,70.2,35H40.1v20h60.2v60.1H40.1v20h30.1c6.6,0,13.1-1.3,19.2-3.7c6.1-2.6,11.6-6.2,16.3-10.9
			s8.3-10.2,10.9-16.3C119,98.1,120.2,91.6,120.2,85z"/>
	</g>
</g>
</svg>
