<?xml version="1.0" encoding="utf-8"?>
<!-- Generator: Adobe Illustrator 22.0.0, SVG Export Plug-In . SVG Version: 6.00 Build 0)  -->
<svg version="1.1" id="logotype_1_" xmlns="http://www.w3.org/2000/svg" xmlns:xlink="http://www.w3.org/1999/xlink" x="0px"
	 y="0px" viewBox="0 0 166.1 40" style="enable-background:new 0 0 166.1 40;" xml:space="preserve">
<style type="text/css">
	.st0{opacity:0;}
</style>
<g class="st0">
	<g>
		<path d="M68,22.1v-4.2h12.8c-0.4-2.2-1.4-3.9-3.3-5.1c-1.8-1.2-3.9-2-6.5-2c-2.2,0-4,0.4-5.5,1.3c-1.4,0.9-2.5,2.1-3.1,3.6h-5.2
			c0.4-3,2-5.1,4.5-6.8s5.6-2.6,9.4-2.6c4.5,0,8.4,1.2,10.9,3.6c2.9,2.5,4.1,5.8,4.1,9.8c0,4.1-1.3,7.4-4.1,9.8
			c-2.9,2.5-6.5,3.6-10.9,3.6c-3.6,0-6.8-0.9-9.4-2.6c-2.6-1.7-3.9-4-4.5-6.8h5.2c0.7,1.6,1.6,2.9,3.1,3.6c1.4,0.9,3.3,1.3,5.6,1.3
			c2.8,0,4.7-0.7,6.5-2c1.8-1.3,2.9-3.1,3.2-5.2L68,22.1L68,22.1z"/>
		<path d="M85.6,33.3v-4.5h0.8c1.9,0,3.1-0.7,3.8-2s1.1-3.6,1.1-7.1v-13h23v26.7h-5.2V11.2H96.2v9.1c0,4.7-0.7,8.2-2.1,10.1
			c-1.4,2-3.8,3-6.9,3H85.6z"/>
		<path d="M126.1,33.3V11.2h-10V6.7h25v4.5h-9.9v22.3h-5.1L126.1,33.3L126.1,33.3z"/>
		<path d="M136,33.3l11.9-26.6h6.1l12,26.6h-5.7l-2.8-6.1h-13.5l-2.8,6.1H136z M145.9,23.1h9.9l-4.9-11.4L145.9,23.1z"/>
	</g>
	<g>
		<path d="M38.3,39.9H27.7c-0.6,0-1.2-0.5-1.2-1.2V28.2c0-0.6,0.5-1.2,1.2-1.2h10.6c0.6,0,1.2,0.5,1.2,1.2v10.6
			C39.5,39.4,39,39.9,38.3,39.9z"/>
		<path d="M1.3,13h15.4c0.5,0,0.7,0.6,0.4,0.9L0.4,30.5c-0.5,0.5-0.5,1.2,0,1.6L8,39.6c0.5,0.5,1.2,0.5,1.6,0L39.2,10
			c0.5-0.5,0.5-1.2,0-1.6l-7.7-7.7c-0.4-0.4-1-0.7-1.6-0.7H1.3C0.6,0,0.1,0.6,0.1,1.2v10.6C0.1,12.5,0.6,13,1.3,13z"/>
	</g>
</g>
<g>
	<g>
		<g>
			<path d="M37.8,20c0,4.4-1.4,8.7-3.9,12.2c-2.5,3.6-6.1,6.3-10.3,7.8v-5.1c2.8-1.3,5.2-3.5,6.9-6.1c1.7-2.6,2.6-5.7,2.6-8.8
				s-0.9-6.2-2.6-8.8c-1.7-2.6-4.1-4.8-6.9-6.1V0c4.1,1.5,7.7,4.2,10.3,7.8C36.4,11.3,37.8,15.6,37.8,20z"/>
			<rect y="17.7" width="18.9" height="4.7"/>
			<path d="M28.3,20c0-1.5-0.3-3.1-0.9-4.5c-0.6-1.4-1.5-2.7-2.6-3.8s-2.4-2-3.8-2.6c-1.4-0.6-3-0.9-4.5-0.9H9.4v4.7h14.2v14.1H9.4
				v4.7h7.1c1.6,0,3.1-0.3,4.5-0.9c1.4-0.6,2.7-1.5,3.8-2.6s2-2.4,2.6-3.8C28,23.1,28.3,21.6,28.3,20z"/>
		</g>
	</g>
	<g>
		<path d="M59.4,21.8v-3.7h11.3c-0.4-1.9-1.3-3.4-2.8-4.5c-1.5-1.1-3.4-1.6-5.7-1.6c-1.9,0-3.6,0.4-4.8,1.2
			c-1.3,0.8-2.2,1.9-2.6,3.3H50c0.4-2.5,1.7-4.5,3.9-6c2.2-1.5,4.9-2.2,8.1-2.2c4,0,7.3,1.1,9.7,3.3c2.4,2.2,3.7,5.1,3.7,8.6
			c0,3.6-1.2,6.5-3.7,8.7c-2.4,2.2-5.7,3.3-9.7,3.3c-3.3,0-6-0.7-8.2-2.2c-2.2-1.5-3.5-3.5-3.9-6h4.6c0.5,1.4,1.4,2.5,2.6,3.3
			c1.3,0.8,2.9,1.2,4.9,1.2c2.3,0,4.2-0.6,5.7-1.7c1.5-1.1,2.4-2.7,2.8-4.6H59.4z"/>
		<path d="M75,31.8v-4h0.7c1.5,0,2.6-0.6,3.3-1.7c0.7-1.1,1-3.2,1-6.3V8.3h20.2v23.5h-4.5V12.3H84.2v8c0,4.2-0.6,7.2-1.9,8.9
			c-1.3,1.7-3.3,2.6-6.1,2.6H75z"/>
		<path d="M110.4,31.8V12.3h-8.7v-4h22v4H115v19.5H110.4z"/>
		<path d="M119.8,31.8l10.5-23.5h5.4l10.5,23.5h-5l-2.4-5.4h-11.9l-2.3,5.4H119.8z M128.5,22.6h8.7l-4.4-10L128.5,22.6z"/>
	</g>
</g>
</svg>
