<?xml version="1.0" encoding="utf-8"?>
<!-- Generator: Adobe Illustrator 22.0.0, SVG Export Plug-In . SVG Version: 6.00 Build 0)  -->
<svg version="1.1" id="symbol" xmlns="http://www.w3.org/2000/svg" xmlns:xlink="http://www.w3.org/1999/xlink" x="0px" y="0px"
	 viewBox="0 0 250 170" style="enable-background:new 0 0 250 170;" xml:space="preserve">
<style type="text/css">
	.st0{fill:#FFFFFF;fill-opacity:0;}
	.st1{fill:#FFFFFF;}
</style>
<path class="st0" d="M164.2,16.8c1.1,0.4,1.9,1.4,1.8,2.6v110.9c0,1.1-0.6,2.2-1.8,2.6L111.5,151l-52.8,18.1c-3.4,1.2-7,1.2-10.4,0
	l-23.2-8l-23.2-8c-1.1-0.4-1.9-1.4-1.8-2.6V95.1c0,1.1,0.6,2.2,1.8,2.6l46.4,15.9c3.4,1.2,7,1.2,10.4,0l105.5-36.3
	c1.4-0.5,2.2-2,1.7-3.4c-0.3-0.8-0.9-1.5-1.7-1.7l-46.4-15.9c-3.4-1.2-7-1.2-10.4,0L1.8,92.6C0.7,92.9,0,94,0,95.2V39.7
	c0-1.1,0.6-2.2,1.8-2.6L54.6,19l52.8-18.1c3.4-1.2,7-1.2,10.4,0l23.2,8L164.2,16.8L164.2,16.8z"/>
<g>
	<path class="st1" d="M11.2,99.5c0-24.8,67.1-29,113.8-29v-29c-51.4,0-125,8.4-125,58c0,49.7,73.6,58,125,58v-29
		C78.2,128.5,11.2,124.3,11.2,99.5z"/>
	<path class="st1" d="M125,12.5v29c46.8,0,113.8,4.2,113.8,29s-67.1,29-113.8,29v29c51.4,0,125-8.4,125-58
		C250,20.8,176.4,12.5,125,12.5z"/>
</g>
</svg>
