<?xml version="1.0" encoding="utf-8"?>
<!-- Generator: Adobe Illustrator 22.0.0, SVG Export Plug-In . SVG Version: 6.00 Build 0)  -->
<svg version="1.1" id="symbol" xmlns="http://www.w3.org/2000/svg" xmlns:xlink="http://www.w3.org/1999/xlink" x="0px" y="0px"
	 viewBox="0 0 250 166.7" style="enable-background:new 0 0 250 166.7;" xml:space="preserve">
<style type="text/css">
	.st0{opacity:0;}
</style>
<g class="st0">
	<path d="M125,0v41.7c59.8,0,108.3,9.3,108.3,20.8S184.8,83.3,125,83.3V125c69,0,125-28,125-62.5S194,0,125,0z"/>
	<path d="M16.7,104.2c0-11.5,48.5-20.8,108.3-20.8V41.7c-69,0-125,28-125,62.5s56,62.5,125,62.5V125C65.2,125,16.7,115.7,16.7,104.2
		z"/>
</g>
<g>
	<path d="M11.2,97.8c0-24.8,67.1-29,113.8-29v-29c-51.4,0-125,8.4-125,58c0,49.7,73.6,58,125,58v-29
		C78.2,126.9,11.2,122.7,11.2,97.8z"/>
	<path d="M125,10.8v29c46.8,0,113.8,4.2,113.8,29c0,24.8-67.1,29-113.8,29v29c51.4,0,125-8.4,125-58C250,19.2,176.4,10.8,125,10.8z"
		/>
</g>
</svg>
