<?xml version="1.0" encoding="utf-8"?>
<!-- Generator: Adobe Illustrator 22.0.0, SVG Export Plug-In . SVG Version: 6.00 Build 0)  -->
<svg version="1.1" id="symbol" xmlns="http://www.w3.org/2000/svg" xmlns:xlink="http://www.w3.org/1999/xlink" x="0px" y="0px"
	 viewBox="0 0 250 170" style="enable-background:new 0 0 250 170;" xml:space="preserve">
<style type="text/css">
	.st0{opacity:0;}
</style>
<g class="st0">
	<path d="M125,1.7v41.7c59.8,0,108.3,9.3,108.3,20.8S184.8,85,125,85v41.7c69,0,125-28,125-62.5S194,1.7,125,1.7z"/>
	<path d="M16.7,105.8C16.7,94.3,65.2,85,125,85V43.3c-69,0-125,28-125,62.5s56,62.5,125,62.5v-41.7
		C65.2,126.7,16.7,117.3,16.7,105.8z"/>
</g>
<g>
	<path d="M125,11v31.5c46.8,0,113.8,1.7,113.8,26.5c0,24.8-67.1,26.5-113.8,26.5V127c51.4,0,125-8.4,125-58
		C250,19.3,176.4,11,125,11z"/>
	<path d="M125,159v-31.5c-46.8,0-113.8-1.7-113.8-26.5c0-24.8,67.1-26.5,113.8-26.5V43C73.6,43,0,51.3,0,101
		C0,150.7,73.6,159,125,159z"/>
</g>
<path class="st0" d="M164.2,16.8c1.1,0.4,1.9,1.4,1.8,2.6v110.9c0,1.1-0.6,2.2-1.8,2.6L111.5,151l-52.8,18.1c-3.4,1.2-7,1.2-10.4,0
	l-23.2-8l-23.2-8c-1.1-0.4-1.9-1.4-1.8-2.6V95.1c0,1.1,0.6,2.2,1.8,2.6l46.4,15.9c3.4,1.2,7,1.2,10.4,0l105.5-36.3
	c1.4-0.5,2.2-2,1.7-3.4c-0.3-0.8-0.9-1.5-1.7-1.7l-46.4-15.9c-3.4-1.2-7-1.2-10.4,0L1.8,92.6C0.7,92.9,0,94,0,95.2V39.7
	c0-1.1,0.6-2.2,1.8-2.6L54.6,19l52.8-18.1c3.4-1.2,7-1.2,10.4,0l23.2,8L164.2,16.8L164.2,16.8z"/>
</svg>
