<?xml version="1.0" encoding="utf-8"?>
<!-- Generator: Adobe Illustrator 22.0.0, SVG Export Plug-In . SVG Version: 6.00 Build 0)  -->
<svg version="1.1" id="symbol" xmlns="http://www.w3.org/2000/svg" xmlns:xlink="http://www.w3.org/1999/xlink" x="0px" y="0px"
	 viewBox="0 0 250 170" style="enable-background:new 0 0 250 170;" xml:space="preserve">
<style type="text/css">
	.st0{opacity:0;}
</style>
<g class="st0">
	<path d="M11.2,99.5c0-24.8,67.1-29,113.8-29v-29c-51.4,0-125,8.4-125,58c0,49.7,73.6,58,125,58v-29
		C78.2,128.5,11.2,124.3,11.2,99.5z"/>
	<path d="M125,12.5v29c46.8,0,113.8,4.2,113.8,29s-67.1,29-113.8,29v29c51.4,0,125-8.4,125-58C250,20.8,176.4,12.5,125,12.5z"/>
</g>
<g>
	<path d="M152.1,71.6l-97.7,33.6c-3.2,1.1-6.5,1.1-9.6,0l-43-14.7c-1.1-0.4-1.7-1.4-1.7-2.4v51.3c-0.1,1.1,0.6,2,1.7,2.4l21.5,7.4
		l21.5,7.4c3.2,1.1,6.5,1.1,9.6,0l48.9-16.8l48.8-16.8c1.1-0.4,1.7-1.4,1.7-2.4V69.7C153.6,70.5,153,71.3,152.1,71.6z"/>
	<path d="M153.8,68.8v0.8C153.8,69.4,153.8,69.1,153.8,68.8z"/>
	<path d="M152.1,15.6l-21.5-7.3l-21.5-7.4c-3.1-1.1-6.5-1.1-9.6,0L50.6,17.6L1.7,34.4C0.6,34.7,0,35.8,0,36.8v51.4
		c0-1.1,0.6-2.1,1.7-2.4l97.8-33.6c3.2-1.1,6.5-1.1,9.6,0l43,14.7c0.7,0.2,1.3,0.8,1.6,1.6c0,0.1,0.1,0.3,0.1,0.4V18
		C153.9,16.9,153.1,15.9,152.1,15.6z"/>
</g>
</svg>
