<?xml version="1.0" encoding="utf-8"?>
<!-- Generator: Adobe Illustrator 22.0.0, SVG Export Plug-In . SVG Version: 6.00 Build 0)  -->
<svg version="1.1" id="logotype_1_" xmlns="http://www.w3.org/2000/svg" xmlns:xlink="http://www.w3.org/1999/xlink" x="0px"
	 y="0px" viewBox="0 0 60 85.8" style="enable-background:new 0 0 60 85.8;" xml:space="preserve">
<style type="text/css">
	.st0{opacity:0;}
</style>
<g class="st0">
	<path d="M5.9,76.9h6.6c-0.5-2.2-2.3-3.5-5-3.5c-2.4,0-3.9,1-4.4,2.6H0c0.5-3.1,3.5-5.2,7.5-5.2c5,0,8.3,3,8.3,7.4
		c0,4.5-3.3,7.4-8.3,7.4c-4.1,0-7.1-2.1-7.5-5.2h3.1C3.6,82,5.2,83,7.6,83c2.7,0,4.5-1.4,4.9-3.6H5.9V76.9z"/>
	<path d="M15.4,82.8h0.5c1.7,0,2.5-0.9,2.5-4.7v-7.2h12.7v14.5H28V73.6h-6.7v4.8c0,5.2-1.6,7.1-5.1,7.1h-0.8
		C15.4,85.5,15.4,82.8,15.4,82.8z"/>
	<path d="M37.3,73.6H32v-2.7h13.6v2.7h-5.3v11.8h-3.1L37.3,73.6L37.3,73.6z"/>
	<path d="M49.9,70.9h3.7L60,85.4h-3.4l-1.4-3.2h-7.1l-1.3,3.2h-3.3L49.9,70.9z M54.1,79.8l-2.5-5.9l-2.5,5.9H54.1z"/>
</g>
<g>
	<path d="M5.9,79.3V77H13c-0.2-1.2-0.8-2.1-1.8-2.8c-0.9-0.7-2.1-1-3.5-1c-1.2,0-2.2,0.2-3,0.7s-1.3,1.2-1.6,2H0
		c0.2-1.6,1.1-2.8,2.4-3.7c1.3-0.9,3-1.4,5.2-1.4c2.5,0,4.5,0.7,6.1,2S16,76,16,78.3s-0.7,4-2.3,5.5c-1.6,1.4-3.5,2-6.1,2
		c-2,0-3.7-0.5-5.2-1.4C1.1,83.3,0.3,82,0,80.5h2.9c0.3,0.9,0.9,1.5,1.6,2c0.8,0.5,1.8,0.7,3,0.7c1.5,0,2.6-0.4,3.5-1
		c0.9-0.7,1.5-1.6,1.7-2.9L5.9,79.3L5.9,79.3z"/>
	<path d="M15.7,85.5v-2.4h0.4c1,0,1.6-0.4,2.1-1c0.4-0.7,0.6-2,0.6-3.9v-7.3h12.6v14.7h-2.9V73.3h-7.2v5.1c0,2.6-0.4,4.4-1.2,5.6
		s-2.1,1.6-3.8,1.6L15.7,85.5L15.7,85.5z"/>
	<path d="M37.9,85.5V73.3h-5.5v-2.4h13.7v2.4h-5.5v12.2H37.9z"/>
	<path d="M43.4,85.5L50,70.8h3.4L60,85.5h-3.1l-1.5-3.4h-7.5l-1.5,3.4H43.4z M48.9,79.8h5.5l-2.7-6.3L48.9,79.8z"/>
</g>
<g class="st0">
	<path d="M58.8,27.8L22.9,40.1c-2.3,0.8-4.7,0.8-7,0L1.3,35.3C0.6,35,0,34.3,0,33.6v18.9c0,0.8,0.5,1.5,1.2,1.7l14.7,4.9
		c2.3,0.8,4.7,0.7,7,0l35.9-12.4c0.7-0.3,1.2-0.9,1.2-1.7V26C60,26.8,59.5,27.5,58.8,27.8z"/>
	<path d="M58.7,5.5L44,0.6c-2.3-0.8-4.7-0.7-7,0L1.2,12.9C0.5,13.1,0,13.8,0,14.6v18.9c0-0.8,0.5-1.5,1.2-1.7L37,19.4
		c2.3-0.8,4.7-0.8,7,0l14.7,4.9c0.7,0.3,1.3,1,1.3,1.7V7.2C59.9,6.4,59.4,5.7,58.7,5.5z"/>
</g>
<g>
	<path d="M58.3,60.8H42c-1,0-1.7-0.8-1.7-1.7V42.8c0-1,0.8-1.7,1.7-1.7h16.2c1,0,1.7,0.8,1.7,1.7V59C60,60,59.2,60.8,58.3,60.8z"/>
	<path d="M1.7,19.7h23.5c0.7,0,1,0.8,0.6,1.3L0.5,46.3c-0.7,0.7-0.7,1.8,0,2.4l11.4,11.5c0.7,0.7,1.8,0.7,2.5,0l45.1-45.1
		c0.7-0.7,0.7-1.8,0-2.5L47.8,1c-0.7-0.7-1.5-1-2.5-1H1.7C0.8,0,0,0.8,0,1.7V18C0,18.9,0.8,19.7,1.7,19.7z"/>
</g>
</svg>
