<?xml version="1.0" encoding="utf-8"?>
<!-- Generator: Adobe Illustrator 22.0.0, SVG Export Plug-In . SVG Version: 6.00 Build 0)  -->
<svg version="1.1" id="symbol" xmlns="http://www.w3.org/2000/svg" xmlns:xlink="http://www.w3.org/1999/xlink" x="0px" y="0px"
	 viewBox="0 0 250 170" style="enable-background:new 0 0 250 170;" xml:space="preserve">
<style type="text/css">
	.st0{opacity:0;}
	.st1{fill:#14161E;}
</style>
<g class="st0">
	<path class="st1" d="M153.5,165.3h-42.8c-2.5,0-4.6-2.1-4.6-4.6v-42.8c0-2.5,2.1-4.6,4.6-4.6h42.8c2.5,0,4.6,2.1,4.6,4.6v42.8
		C158.1,163.2,156,165.3,153.5,165.3z"/>
	<path class="st1" d="M4.6,57.1h61.8c1.8,0,2.7,2.2,1.5,3.5L1.4,127.1c-1.8,1.8-1.8,4.7,0,6.4l30.1,30.4c1.8,1.8,4.7,1.8,6.5,0
		L156.8,45.2c1.8-1.8,1.8-4.7,0-6.5L126,7.9c-1.7-1.7-4-2.6-6.5-2.6H4.6C2.1,5.3,0,7.3,0,9.8v42.8C0,55,2.1,57.1,4.6,57.1z"/>
</g>
<g>
	<g>
		<path class="st1" d="M146.3,85c0,17-5.3,33.6-15,47.4c-9.8,13.8-23.7,24.4-39.8,30.1v-19.7c11-5.2,20.2-13.4,26.7-23.6
			s9.9-22.1,9.9-34.2s-3.4-24-10-34.2c-6.5-10.2-15.8-18.4-26.8-23.7V7.5c16,5.7,29.9,16.1,39.8,30.1C141,51.4,146.3,68,146.3,85z"
			/>
		<rect y="76" class="st1" width="73.1" height="18.2"/>
		<path class="st1" d="M109.6,85c0-5.9-1.2-11.9-3.4-17.5c-2.4-5.6-5.7-10.6-9.9-14.9C92,48.3,87,45,81.4,42.7
			c-5.6-2.2-11.5-3.3-17.4-3.3H36.6v18.2h54.9v54.8H36.6v18.2H64c6,0,11.9-1.2,17.5-3.4c5.6-2.4,10.6-5.7,14.9-9.9
			c4.3-4.3,7.6-9.3,9.9-14.9C108.5,96.9,109.6,91,109.6,85z"/>
	</g>
</g>
</svg>
