<?xml version="1.0" encoding="utf-8"?>
<!-- Generator: Adobe Illustrator 22.0.0, SVG Export Plug-In . SVG Version: 6.00 Build 0)  -->
<svg version="1.1" id="logotype_1_" xmlns="http://www.w3.org/2000/svg" xmlns:xlink="http://www.w3.org/1999/xlink" x="0px"
	 y="0px" viewBox="0 0 60 90.8" style="enable-background:new 0 0 60 90.8;" xml:space="preserve">
<style type="text/css">
	.st0{fill:#FFFFFF;}
	.st1{opacity:0;}
</style>
<g>
	<path class="st0" d="M5.9,84.3V82H13c-0.2-1.2-0.8-2.1-1.8-2.8c-0.9-0.7-2.1-1-3.5-1c-1.2,0-2.2,0.2-3,0.7s-1.3,1.2-1.6,2H0
		c0.2-1.6,1.1-2.8,2.4-3.7c1.3-0.9,3-1.4,5.2-1.4c2.5,0,4.5,0.7,6.1,2S16,81,16,83.3s-0.7,4-2.3,5.5c-1.6,1.4-3.5,2-6.1,2
		c-2,0-3.7-0.5-5.2-1.4C1.1,88.3,0.3,87,0,85.5h2.9c0.3,0.9,0.9,1.5,1.6,2c0.8,0.5,1.8,0.7,3,0.7c1.5,0,2.6-0.4,3.5-1
		c0.9-0.7,1.5-1.6,1.7-2.9L5.9,84.3L5.9,84.3z"/>
	<path class="st0" d="M15.7,90.5v-2.4h0.4c1,0,1.6-0.4,2.1-1c0.4-0.7,0.6-2,0.6-3.9v-7.3h12.6v14.7h-2.9V78.3h-7.2v5.1
		c0,2.6-0.4,4.4-1.2,5.6s-2.1,1.6-3.8,1.6L15.7,90.5L15.7,90.5z"/>
	<path class="st0" d="M37.9,90.5V78.3h-5.5v-2.4h13.7v2.4h-5.5v12.2H37.9z"/>
	<path class="st0" d="M43.4,90.5L50,75.8h3.4L60,90.5h-3.1l-1.5-3.4h-7.5l-1.5,3.4H43.4z M48.9,84.8h5.5l-2.7-6.3L48.9,84.8z"/>
</g>
<g class="st1">
	<path class="st0" d="M58.3,60.8H42c-1,0-1.7-0.8-1.7-1.7V42.8c0-1,0.8-1.7,1.7-1.7h16.2c1,0,1.7,0.8,1.7,1.7V59
		C60,60,59.2,60.8,58.3,60.8z"/>
	<path class="st0" d="M1.7,19.7h23.5c0.7,0,1,0.8,0.6,1.3L0.5,46.3c-0.7,0.7-0.7,1.8,0,2.4l11.4,11.5c0.7,0.7,1.8,0.7,2.5,0
		l45.1-45.1c0.7-0.7,0.7-1.8,0-2.5L47.8,1c-0.7-0.7-1.5-1-2.5-1H1.7C0.8,0,0,0.8,0,1.7V18C0,18.9,0.8,19.7,1.7,19.7z"/>
</g>
<g>
	<g>
		<path class="st0" d="M60,31.8c0,7-2.2,13.8-6.2,19.4s-9.7,10-16.3,12.3v-8.1c4.5-2.1,8.3-5.5,11-9.7c2.6-4.2,4.1-9.1,4.1-14
			s-1.4-9.8-4.1-14c-2.7-4.2-6.5-7.6-11-9.7V0c6.6,2.3,12.3,6.6,16.3,12.3C57.8,18,60,24.8,60,31.8z"/>
		<rect x="0" y="28.1" class="st0" width="30" height="7.5"/>
		<path class="st0" d="M45,31.8c0-2.4-0.5-4.9-1.4-7.2c-1-2.3-2.3-4.3-4.1-6.1c-1.7-1.7-3.8-3.1-6.1-4.1s-4.7-1.4-7.2-1.4H15v7.5
			h22.5V43H15v7.5h11.3c2.5,0,4.9-0.5,7.2-1.4c2.3-1,4.3-2.3,6.1-4.1c1.7-1.7,3.1-3.8,4.1-6.1C44.5,36.7,45,34.3,45,31.8z"/>
	</g>
</g>
</svg>
