<?xml version="1.0" encoding="utf-8"?>
<!-- Generator: Adobe Illustrator 22.0.0, SVG Export Plug-In . SVG Version: 6.00 Build 0)  -->
<svg version="1.1" id="logotype_1_" xmlns="http://www.w3.org/2000/svg" xmlns:xlink="http://www.w3.org/1999/xlink" x="0px"
	 y="0px" viewBox="0 0 182 41.1" style="enable-background:new 0 0 182 41.1;" xml:space="preserve">
<style type="text/css">
	.st0{opacity:0;}
	.st1{fill:#FFFFFF;}
</style>
<g id="logotype" class="st0">
	<g>
		<path class="st1" d="M3.2,24.7c0-7,19-8.2,32.2-8.2V8.2C20.9,8.2,0,10.6,0,24.7s20.9,16.4,35.4,16.4v-8.2
			C22.1,32.9,3.2,31.7,3.2,24.7z"/>
		<path class="st1" d="M35.4,0v8.2c13.3,0,32.2,1.2,32.2,8.2s-19,8.2-32.2,8.2v8.2c14.5,0,35.4-2.4,35.4-16.4S49.9,0,35.4,0z"/>
	</g>
	<g>
		<path class="st1" d="M94.1,22.4v-3.8h11.5c-0.4-2-1.3-3.5-2.9-4.6c-1.5-1.1-3.5-1.7-5.8-1.7c-2,0-3.6,0.4-4.9,1.2
			s-2.2,1.9-2.7,3.3h-4.7c0.4-2.6,1.8-4.6,4-6.1s5-2.3,8.3-2.3c4.1,0,7.4,1.1,9.9,3.3s3.7,5.2,3.7,8.8c0,3.7-1.2,6.6-3.7,8.8
			s-5.8,3.3-9.8,3.3c-3.3,0-6.1-0.8-8.3-2.3c-2.2-1.5-3.5-3.6-4-6.1h4.7c0.5,1.4,1.4,2.5,2.7,3.3c1.3,0.8,3,1.2,5,1.2
			c2.4,0,4.3-0.6,5.8-1.7c1.5-1.2,2.5-2.7,2.8-4.7H94.1V22.4z"/>
		<path class="st1" d="M110,32.5v-4h0.7c1.6,0,2.7-0.6,3.4-1.7c0.7-1.1,1-3.3,1-6.4V8.6h20.6v23.9H131V12.6h-11.6v8.2
			c0,4.3-0.6,7.3-1.9,9.1c-1.3,1.8-3.4,2.6-6.2,2.6H110z"/>
		<path class="st1" d="M146.1,32.5V12.6h-8.9v-4h22.4v4h-8.9v19.9H146.1z"/>
		<path class="st1" d="M155.1,32.5l10.7-23.9h5.5L182,32.5h-5.1l-2.4-5.5h-12.1l-2.4,5.5H155.1z M164,23.2h8.9L168.4,13L164,23.2z"
			/>
	</g>
</g>
<g id="symbol" class="st0">
	<g>
		<path class="st1" d="M68,20.4v-4.2h12.8c-0.4-2.2-1.4-3.9-3.2-5.1c-1.7-1.2-3.9-1.9-6.5-1.9c-2.2,0-4,0.4-5.5,1.3
			c-1.4,0.9-2.5,2.1-3,3.7h-5.2c0.4-2.9,2-5.1,4.5-6.8c2.5-1.7,5.6-2.6,9.3-2.6c4.6,0,8.3,1.2,11,3.7c2.8,2.5,4.1,5.8,4.1,9.8
			c0,4.1-1.3,7.4-4.1,9.8c-2.8,2.5-6.5,3.7-10.9,3.7c-3.7,0-6.8-0.9-9.3-2.6c-2.5-1.7-3.9-4-4.5-6.8h5.2c0.6,1.6,1.6,2.8,3,3.7
			c1.4,0.9,3.3,1.3,5.6,1.3c2.7,0,4.8-0.7,6.5-1.9c1.7-1.3,2.8-3,3.1-5.2L68,20.4L68,20.4z"/>
		<path class="st1" d="M85.7,31.6v-4.5h0.8c1.8,0,3-0.7,3.8-1.9c0.8-1.2,1.1-3.7,1.1-7.1V5h23v26.7h-5.2V9.5h-13v9.1
			c0,4.8-0.7,8.1-2.1,10.1s-3.8,2.9-6.9,2.9H85.7z"/>
		<path class="st1" d="M126,31.6V9.5h-10V5h25v4.5h-9.9v22.2H126V31.6z"/>
		<path class="st1" d="M136,31.6L147.9,5h6.1l12,26.6h-5.7l-2.7-6.1h-13.5l-2.7,6.1H136z M145.9,21.3h9.9l-5-11.4L145.9,21.3z"/>
	</g>
	<g class="st0">
		<path class="st1" d="M66.9,15.9H79c-0.8-3.9-4.2-6.4-9-6.4c-4.3,0-7.2,1.9-8.1,4.7h-5.7c0.9-5.6,6.3-9.4,13.7-9.4
			c9.2,0,15.2,5.4,15.2,13.5S79,31.8,70,31.8c-7.5,0-12.9-3.8-13.8-9.4h5.7c0.9,2.8,3.8,4.7,8.1,4.7c4.9,0,8.2-2.5,9.1-6.6H66.9
			V15.9z"/>
		<path class="st1" d="M84.4,26.6h0.8c3.1,0,4.7-1.7,4.7-8.5V5h23.2v26.5h-5.7V9.9H95.2v8.7c0,9.5-2.9,12.9-9.4,12.9h-1.5v-4.9
			C84.3,26.6,84.4,26.6,84.4,26.6z"/>
		<path class="st1" d="M124.4,9.9h-9.6V5h25v4.9h-9.7v21.6h-5.7C124.4,31.5,124.4,9.9,124.4,9.9z"/>
		<path class="st1" d="M147.4,5h6.8L166,31.5h-6.3l-2.5-5.8h-13.1l-2.5,5.8h-6.1L147.4,5z M155.3,21.1l-4.6-10.8l-4.5,10.8H155.3z"
			/>
	</g>
	<g>
		<path class="st1" d="M40.5,19.2l-24.7,8.5c-1.6,0.6-3.2,0.6-4.8,0L0.9,24.3C0.4,24.1,0,23.6,0,23.2v13c0,0.6,0.3,1,0.8,1.2
			L11,40.7c1.6,0.6,3.2,0.5,4.8,0l24.7-8.5c0.5-0.2,0.8-0.6,0.8-1.2V17.9C41.4,18.5,41,19,40.5,19.2z"/>
		<path class="st1" d="M40.5,3.8L30.3,0.4c-1.6-0.6-3.2-0.5-4.8,0L0.8,8.9C0.3,9.1,0,9.5,0,10.1v13c0-0.6,0.3-1,0.8-1.2l24.7-8.5
			c1.6-0.6,3.2-0.6,4.8,0l10.1,3.4c0.5,0.2,0.9,0.7,0.9,1.2V5C41.3,4.4,40.9,3.9,40.5,3.8z"/>
	</g>
</g>
<g>
	<g>
		<path class="st1" d="M65.3,28.6V24h14c-0.4-2.4-1.5-4.3-3.5-5.6c-1.9-1.3-4.3-2.1-7.1-2.1c-2.4,0-4.4,0.4-6,1.4
			c-1.5,1-2.7,2.3-3.3,4h-5.7c0.4-3.2,2.2-5.6,4.9-7.4s6.1-2.8,10.2-2.8c5,0,9.1,1.3,12,4c3.1,2.7,4.5,6.3,4.5,10.7
			c0,4.5-1.4,8.1-4.5,10.7c-3.1,2.7-7.1,4-11.9,4c-4,0-7.4-1-10.2-2.8s-4.3-4.4-4.9-7.4h5.7c0.7,1.7,1.7,3.1,3.3,4
			c1.5,1,3.6,1.4,6.1,1.4c3,0,5.2-0.8,7.1-2.1c1.9-1.4,3.1-3.3,3.4-5.7L65.3,28.6L65.3,28.6z"/>
		<path class="st1" d="M84.6,40.8v-4.9h0.9c2,0,3.3-0.8,4.2-2.1c0.9-1.3,1.2-4,1.2-7.8V11.8H116v29.2h-5.7V16.7H96.1v9.9
			c0,5.2-0.8,8.9-2.3,11c-1.5,2.2-4.2,3.2-7.5,3.2H84.6z"/>
		<path class="st1" d="M128.7,40.8V16.7h-10.9v-4.9h27.3v4.9h-10.8v24.3h-5.6V40.8z"/>
		<path class="st1" d="M139.6,40.8l13-29.1h6.7l13.1,29.1h-6.2l-3-6.7h-14.8l-3,6.7H139.6z M150.4,29.6h10.8l-5.5-12.5L150.4,29.6z"
			/>
	</g>
	<g>
		<path class="st1" d="M37.9,40.9H27.1c-0.6,0-1.2-0.5-1.2-1.2V29c0-0.6,0.5-1.2,1.2-1.2h10.8c0.6,0,1.2,0.5,1.2,1.2v10.8
			C39.1,40.4,38.6,40.9,37.9,40.9z"/>
		<path class="st1" d="M1.3,13.6h15.5c0.5,0,0.7,0.6,0.4,0.9L0.3,31.3c-0.5,0.5-0.5,1.2,0,1.6L8,40.6c0.5,0.5,1.2,0.5,1.6,0
			l29.1-29.1c0.4-0.4,0.5-1.1,0.1-1.5l-7-8.6c-0.4-0.5-1.1-0.9-1.8-0.9H1.3C0.6,0.4,0.1,1,0.1,1.6v10.8C0.1,13.1,0.6,13.6,1.3,13.6z
			"/>
	</g>
</g>
</svg>
