<?xml version="1.0" encoding="utf-8"?>
<!-- Generator: Adobe Illustrator 22.0.0, SVG Export Plug-In . SVG Version: 6.00 Build 0)  -->
<svg version="1.1" id="Layer_1" xmlns="http://www.w3.org/2000/svg" xmlns:xlink="http://www.w3.org/1999/xlink" x="0px" y="0px"
	 viewBox="0 0 400 400" style="enable-background:new 0 0 400 400;" xml:space="preserve">
<style type="text/css">
	.st0{fill:#E1BEFA;}
</style>
<g>
	<g>
		<g>
			<g>
				<path class="st0" d="M0,0v400h400V0H0z M335,360H65c-13.8,0-25-11.2-25-25V65c0-13.8,11.2-25,25-25h270c13.8,0,25,11.2,25,25
					v270C360,348.8,348.8,360,335,360z"/>
			</g>
		</g>
		<g>
			<path class="st0" d="M85,85v230h230V85H85z M250,275H150c-13.8,0-25-11.2-25-25V150c0-13.8,11.2-25,25-25h100
				c13.8,0,25,11.2,25,25v100C275,263.8,263.8,275,250,275z"/>
		</g>
	</g>
</g>
</svg>
