<?xml version="1.0" encoding="utf-8"?>
<!-- Generator: Adobe Illustrator 22.0.0, SVG Export Plug-In . SVG Version: 6.00 Build 0)  -->
<svg version="1.1" id="Layer_1" xmlns="http://www.w3.org/2000/svg" xmlns:xlink="http://www.w3.org/1999/xlink" x="0px" y="0px"
	 viewBox="0 0 400 400" style="enable-background:new 0 0 400 400;" xml:space="preserve">
<style type="text/css">
	.st0{fill:#E1A5FF;}
	.st1{fill:#A126E9;}
	.st2{fill:#E1BEFA;}
</style>
<g>
	<polygon class="st0" points="305.9,400 306.1,400 306,399.9 	"/>
</g>
<g>
	<polygon class="st0" points="199.9,400 200.1,400 200,399.9 	"/>
</g>
<g>
	<polygon class="st1" points="231.9,901.5 232.1,901.5 232,901.4 	"/>
</g>
<g>
	
		<rect x="231.9" y="701.5" transform="matrix(0.7071 -0.7071 0.7071 0.7071 -428.1322 369.4927)" class="st1" width="0.1" height="0.1"/>
</g>
<g>
	
		<rect x="125.9" y="701.5" transform="matrix(0.7071 -0.7071 0.7071 0.7071 -459.1786 294.5401)" class="st1" width="0.1" height="0.1"/>
</g>
<g>
	<polygon class="st1" points="125.9,901.5 126.1,901.5 126,901.4 	"/>
</g>
<g>
	<path class="st2" d="M400,100L300.7,0H245l81.8,82.4c9.7,9.7,9.7,25.5,0,35.2L245,200l81.8,82.4c9.7,9.7,9.7,25.5,0,35.2L245,400
		h55.7L400,300l-81.8-82.4c-9.7-9.7-9.7-25.5,0-35.2L400,100z"/>
	<path class="st2" d="M277.5,100L178.2,0h-55.7l81.8,82.4c9.7,9.7,9.7,25.5,0,35.2L122.5,200l81.8,82.4c9.7,9.7,9.7,25.5,0,35.2
		L122.5,400h55.7l99.3-100l-81.8-82.4c-9.7-9.7-9.7-25.5,0-35.2L277.5,100z"/>
	<path class="st2" d="M155,100L55.7,0H0l81.8,82.4c9.7,9.7,9.7,25.5,0,35.2L0,200l81.8,82.4c9.7,9.7,9.7,25.5,0,35.2L0,400h55.7
		L155,300l-81.8-82.4c-9.7-9.7-9.7-25.5,0-35.2L155,100z"/>
</g>
</svg>
