<?xml version="1.0" encoding="utf-8"?>
<!-- Generator: Adobe Illustrator 22.0.0, SVG Export Plug-In . SVG Version: 6.00 Build 0)  -->
<svg version="1.1" id="Layer_1" xmlns="http://www.w3.org/2000/svg" xmlns:xlink="http://www.w3.org/1999/xlink" x="0px" y="0px"
	 viewBox="0 0 400 400" style="enable-background:new 0 0 400 400;" xml:space="preserve">
<style type="text/css">
	.st0{fill:#CD96F5;}
</style>
<path class="st0" d="M400,160h-67.2c-13.4,0-20.1-16.2-10.6-25.6l47.5-47.5l-56.6-56.6l-47.5,47.5c-9.4,9.4-25.6,2.8-25.6-10.6V0
	h-80v67.2c0,13.4-16.2,20.1-25.6,10.6L86.9,30.3L30.3,86.9l47.5,47.5c9.4,9.4,2.8,25.6-10.6,25.6H0v80h67.2
	c13.4,0,20.1,16.2,10.6,25.6l-47.5,47.5l56.6,56.6l47.5-47.5c9.4-9.4,25.6-2.8,25.6,10.6V400h80v-67.2c0-13.4,16.2-20.1,25.6-10.6
	l47.5,47.5l56.6-56.6l-47.5-47.5c-9.4-9.4-2.8-25.6,10.6-25.6H400V160z"/>
</svg>
