<?xml version="1.0" encoding="utf-8"?>
<!-- Generator: Adobe Illustrator 22.0.0, SVG Export Plug-In . SVG Version: 6.00 Build 0)  -->
<svg version="1.1" id="Layer_1" xmlns="http://www.w3.org/2000/svg" xmlns:xlink="http://www.w3.org/1999/xlink" x="0px" y="0px"
	 viewBox="0 0 400 400" style="enable-background:new 0 0 400 400;" xml:space="preserve">
<style type="text/css">
	.st0{fill:#E1BEFA;}
</style>
<g>
	<path class="st0" d="M400,0.1V0h-99.9l35.7,35.7c7.8,7.8,7.8,20.5,0,28.3L300,99.9v0.1h0.1l35.7,35.7c7.8,7.8,7.8,20.5,0,28.3
		L300,199.9v0.1h0.1l35.7,35.7c7.8,7.8,7.8,20.5,0,28.3L300,299.9v0.1h0.1l35.7,35.7c7.8,7.8,7.8,20.5,0,28.3L300,399.9v0.1h99.9
		l-35.7-35.7c-7.8-7.8-7.8-20.5,0-28.3l35.9-35.9V300h-0.1l-35.7-35.7c-7.8-7.8-7.8-20.5,0-28.3l35.9-35.9V200h-0.1l-35.7-35.7
		c-7.8-7.8-7.8-20.5,0-28.3l35.9-35.9V100h-0.1l-35.7-35.7c-7.8-7.8-7.8-20.5,0-28.3L400,0.1z"/>
	<path class="st0" d="M64.1,264.3c-7.8-7.8-7.8-20.5,0-28.3l35.9-35.9V200h-0.1l-35.7-35.7c-7.8-7.8-7.8-20.5,0-28.3l35.9-35.9V100
		h-0.1L64.1,64.3c-7.8-7.8-7.8-20.5,0-28.3L100,0.1V0H0.1l35.7,35.7c7.8,7.8,7.8,20.5,0,28.3L0,99.9v0.1h0.1l35.7,35.7
		c7.8,7.8,7.8,20.5,0,28.3L0,199.9v0.1h0.1l35.7,35.7c7.8,7.8,7.8,20.5,0,28.3L0,299.9v0.1h0.1l35.7,35.7c7.8,7.8,7.8,20.5,0,28.3
		L0,399.9v0.1h99.9l-35.7-35.7c-7.8-7.8-7.8-20.5,0-28.3l35.9-35.9V300h-0.1L64.1,264.3z"/>
	<path class="st0" d="M164.1,264.3c-7.8-7.8-7.8-20.5,0-28.3l35.9-35.9V200h-0.1l-35.7-35.7c-7.8-7.8-7.8-20.5,0-28.3l35.9-35.9V100
		h-0.1l-35.7-35.7c-7.8-7.8-7.8-20.5,0-28.3L200,0.1V0h-99.9l35.7,35.7c7.8,7.8,7.8,20.5,0,28.3L100,99.9v0.1h0.1l35.7,35.7
		c7.8,7.8,7.8,20.5,0,28.3L100,199.9v0.1h0.1l35.7,35.7c7.8,7.8,7.8,20.5,0,28.3L100,299.9v0.1h0.1l35.7,35.7
		c7.8,7.8,7.8,20.5,0,28.3L100,399.9v0.1h99.9l-35.7-35.7c-7.8-7.8-7.8-20.5,0-28.3l35.9-35.9V300h-0.1L164.1,264.3z"/>
	<path class="st0" d="M264.1,264.3c-7.8-7.8-7.8-20.5,0-28.3l35.9-35.9V200h-0.1l-35.7-35.7c-7.8-7.8-7.8-20.5,0-28.3l35.9-35.9V100
		h-0.1l-35.7-35.7c-7.8-7.8-7.8-20.5,0-28.3L300,0.1V0h-99.9l35.7,35.7c7.8,7.8,7.8,20.5,0,28.3L200,99.9v0.1h0.1l35.7,35.7
		c7.8,7.8,7.8,20.5,0,28.3L200,199.9v0.1h0.1l35.7,35.7c7.8,7.8,7.8,20.5,0,28.3L200,299.9v0.1h0.1l35.7,35.7
		c7.8,7.8,7.8,20.5,0,28.3L200,399.9v0.1h99.9l-35.7-35.7c-7.8-7.8-7.8-20.5,0-28.3l35.9-35.9V300h-0.1L264.1,264.3z"/>
</g>
</svg>
