<?xml version="1.0" encoding="utf-8"?>
<!-- Generator: Adobe Illustrator 22.0.0, SVG Export Plug-In . SVG Version: 6.00 Build 0)  -->
<svg version="1.1" id="Layer_1" xmlns="http://www.w3.org/2000/svg" xmlns:xlink="http://www.w3.org/1999/xlink" x="0px" y="0px"
	 viewBox="0 0 400 400" style="enable-background:new 0 0 400 400;" xml:space="preserve">
<style type="text/css">
	.st0{fill:#E1BEFA;}
</style>
<g>
	<g>
		<path class="st0" d="M0,0l100,100V24.1c0-8.9,10.8-13.4,17.1-7.1L200,100V24.1c0-8.9,10.8-13.4,17.1-7.1L300,100V24.1
			c0-8.9,10.8-13.4,17.1-7.1L400,100V0H0z"/>
		<path class="st0" d="M0,100l100,100v-75.9c0-8.9,10.8-13.4,17.1-7.1L200,200v-75.9c0-8.9,10.8-13.4,17.1-7.1L300,200v-75.9
			c0-8.9,10.8-13.4,17.1-7.1L400,200V100H0z"/>
	</g>
	<g>
		<path class="st0" d="M0,200l100,100v-75.9c0-8.9,10.8-13.4,17.1-7.1L200,300v-75.9c0-8.9,10.8-13.4,17.1-7.1L300,300v-75.9
			c0-8.9,10.8-13.4,17.1-7.1L400,300V200H0z"/>
		<path class="st0" d="M0,300l100,100v-75.9c0-8.9,10.8-13.4,17.1-7.1L200,400v-75.9c0-8.9,10.8-13.4,17.1-7.1L300,400v-75.9
			c0-8.9,10.8-13.4,17.1-7.1L400,400V300H0z"/>
	</g>
</g>
</svg>
