<?xml version="1.0" encoding="utf-8"?>
<!-- Generator: Adobe Illustrator 22.0.0, SVG Export Plug-In . SVG Version: 6.00 Build 0)  -->
<svg version="1.1" id="Layer_1" xmlns="http://www.w3.org/2000/svg" xmlns:xlink="http://www.w3.org/1999/xlink" x="0px" y="0px"
	 viewBox="0 0 400 400" style="enable-background:new 0 0 400 400;" xml:space="preserve">
<style type="text/css">
	.st0{fill:#AF55F0;}
</style>
<g>
	<g>
		<g>
			<g>
				<path class="st0" d="M200,0L200,0C89.5,0,0,89.5,0,200l0,0c0,110.5,89.5,200,200,200l0,0c110.5,0,200-89.5,200-200l0,0
					C400,89.5,310.5,0,200,0z M265,200c0,35.9-29.1,65-65,65l0,0c-35.9,0-65-29.1-65-65l0,0c0-35.9,29.1-65,65-65l0,0
					C235.9,135,265,164.1,265,200L265,200z"/>
			</g>
		</g>
	</g>
</g>
</svg>
