<?xml version="1.0" encoding="utf-8"?>
<!-- Generator: Adobe Illustrator 22.0.0, SVG Export Plug-In . SVG Version: 6.00 Build 0)  -->
<svg version="1.1" id="Layer_1" xmlns="http://www.w3.org/2000/svg" xmlns:xlink="http://www.w3.org/1999/xlink" x="0px" y="0px"
	 viewBox="0 0 400 400" style="enable-background:new 0 0 400 400;" xml:space="preserve">
<style type="text/css">
	.st0{fill:#E1BEFA;}
</style>
<g>
	<path class="st0" d="M400,180H284.5c-13.4,0-20.1-16.2-10.6-25.6l81.7-81.7l-28.3-28.3l-81.7,81.7c-9.4,9.4-25.6,2.8-25.6-10.6V0
		h-40v115.5c0,13.4-16.2,20.1-25.6,10.6L72.7,44.4L44.4,72.7l81.7,81.7c9.4,9.4,2.8,25.6-10.6,25.6H0v40h115.5
		c13.4,0,20.1,16.2,10.6,25.6l-81.7,81.7l28.3,28.3l81.7-81.7c9.4-9.4,25.6-2.8,25.6,10.6V400h40V284.5c0-13.4,16.2-20.1,25.6-10.6
		l81.7,81.7l28.3-28.3l-81.7-81.7c-9.4-9.4-2.8-25.6,10.6-25.6H400V180z"/>
</g>
</svg>
