<?xml version="1.0" encoding="utf-8"?>
<!-- Generator: Adobe Illustrator 22.0.0, SVG Export Plug-In . SVG Version: 6.00 Build 0)  -->
<svg version="1.1" id="Layer_1" xmlns="http://www.w3.org/2000/svg" xmlns:xlink="http://www.w3.org/1999/xlink" x="0px" y="0px"
	 viewBox="0 0 400 400" style="enable-background:new 0 0 400 400;" xml:space="preserve">
<style type="text/css">
	.st0{fill:#E1BEFA;}
</style>
<g>
	<g>
		<g>
			<path class="st0" d="M200,0L200,0C89.5,0,0,89.5,0,200v0c0,110.5,89.5,200,200,200h0c110.5,0,200-89.5,200-200v0
				C400,89.5,310.5,0,200,0z M360,200c0,88.4-71.6,160-160,160h0c-88.4,0-160-71.6-160-160v0c0-88.4,71.6-160,160-160h0
				C288.4,40,360,111.6,360,200L360,200z"/>
		</g>
	</g>
	<g>
		<path class="st0" d="M200,85c-63.5,0-115,51.5-115,115s51.5,115,115,115s115-51.5,115-115S263.5,85,200,85z M200,274
			c-40.9,0-74-33.1-74-74c0-40.9,33.1-74,74-74c40.9,0,74,33.1,74,74C274,240.9,240.9,274,200,274z"/>
	</g>
</g>
</svg>
