<?xml version="1.0" encoding="utf-8"?>
<!-- Generator: Adobe Illustrator 22.0.0, SVG Export Plug-In . SVG Version: 6.00 Build 0)  -->
<svg version="1.1" id="Layer_1" xmlns="http://www.w3.org/2000/svg" xmlns:xlink="http://www.w3.org/1999/xlink" x="0px" y="0px"
	 viewBox="0 0 400 400" style="enable-background:new 0 0 400 400;" xml:space="preserve">
<style type="text/css">
	.st0{fill:#CD96F5;}
</style>
<g>
	<path class="st0" d="M117.7,117.8c-9.8-9.8-9.8-25.6,0-35.4L200,0.1V0H0.1l82.2,82.2c9.8,9.8,9.8,25.6,0,35.4L0,199.9v0.1h0.1
		l82.2,82.2c9.8,9.8,9.8,25.6,0,35.4L0,399.9v0.1h199.9l-82.2-82.2c-9.8-9.8-9.8-25.6,0-35.4l82.3-82.4V200h-0.1L117.7,117.8z"/>
	<path class="st0" d="M400,0.1L400,0.1L200.1,0l82.2,82.2c9.8,9.8,9.8,25.6,0,35.4L200,199.9v0.1h0.1l82.2,82.2
		c9.8,9.8,9.8,25.6,0,35.4L200,399.9v0.1h199.9l-82.2-82.2c-9.8-9.8-9.8-25.6,0-35.4l82.3-82.4V200h-0.1l-82.2-82.2
		c-9.8-9.8-9.8-25.6,0-35.4L400,0.1z"/>
</g>
</svg>
