<?xml version="1.0" encoding="utf-8"?>
<!-- Generator: Adobe Illustrator 22.0.0, SVG Export Plug-In . SVG Version: 6.00 Build 0)  -->
<svg version="1.1" id="Layer_1" xmlns="http://www.w3.org/2000/svg" xmlns:xlink="http://www.w3.org/1999/xlink" x="0px" y="0px"
	 viewBox="0 0 400 400" style="enable-background:new 0 0 400 400;" xml:space="preserve">
<style type="text/css">
	.st0{fill:#CD96F5;}
</style>
<g>
	<path class="st0" d="M80.2,317.4L0,400h102.9L200,300l-80.2-82.6c-9.4-9.7-9.4-25.1,0-34.8L200,100L102.9,0H0l80.2,82.6
		c9.4,9.7,9.4,25.1,0,34.8L0,200l80.2,82.6C89.6,292.3,89.6,307.7,80.2,317.4z"/>
	<path class="st0" d="M280.2,317.4L200,400h102.9L400,300l-80.2-82.6c-9.4-9.7-9.4-25.1,0-34.8L400,100L302.9,0H200l80.2,82.6
		c9.4,9.7,9.4,25.1,0,34.8L200,200l80.2,82.6C289.6,292.3,289.6,307.7,280.2,317.4z"/>
</g>
</svg>
