<?xml version="1.0" encoding="utf-8"?>
<!-- Generator: Adobe Illustrator 22.0.0, SVG Export Plug-In . SVG Version: 6.00 Build 0)  -->
<svg version="1.1" id="Layer_1" xmlns="http://www.w3.org/2000/svg" xmlns:xlink="http://www.w3.org/1999/xlink" x="0px" y="0px"
	 viewBox="0 0 400 400" style="enable-background:new 0 0 400 400;" xml:space="preserve">
<style type="text/css">
	.st0{fill:#CD96F5;}
</style>
<g>
	<g>
		<g>
			<g>
				<path class="st0" d="M200,0L200,0C89.5,0,0,89.5,0,200l0,0c0,110.5,89.5,200,200,200l0,0c110.5,0,200-89.5,200-200l0,0
					C400,89.5,310.5,0,200,0z M320,200c0,66.3-53.7,120-120,120l0,0c-66.3,0-120-53.7-120-120l0,0c0-66.3,53.7-120,120-120l0,0
					C266.3,80,320,133.7,320,200L320,200z"/>
			</g>
		</g>
	</g>
</g>
</svg>
