<?xml version="1.0" encoding="utf-8"?>
<!-- Generator: Adobe Illustrator 22.0.0, SVG Export Plug-In . SVG Version: 6.00 Build 0)  -->
<svg version="1.1" id="Layer_1" xmlns="http://www.w3.org/2000/svg" xmlns:xlink="http://www.w3.org/1999/xlink" x="0px" y="0px"
	 viewBox="0 0 400 400" style="enable-background:new 0 0 400 400;" xml:space="preserve">
<style type="text/css">
	.st0{fill:#CD96F5;}
</style>
<g>
	<g>
		<g>
			<g>
				<g>
					<path class="st0" d="M200,0L200,0v80l0,0c66.3,0,120,53.7,120,120l0,0c0,66.3-53.7,120-120,120l0,0v80l0,0
						c110.5,0,200-89.5,200-200l0,0C400,89.5,310.5,0,200,0z"/>
				</g>
			</g>
			<g>
				<g>
					<path class="st0" d="M0,80c66.3,0,120,53.7,120,120l0,0c0,66.3-53.7,120-120,120l0,0v80l0,0c110.5,0,200-89.5,200-200l0,0
						C200,89.5,110.5,0,0,0l0,0V80L0,80z"/>
				</g>
			</g>
		</g>
	</g>
</g>
</svg>
