<?xml version="1.0" encoding="utf-8"?>
<!-- Generator: Adobe Illustrator 22.0.0, SVG Export Plug-In . SVG Version: 6.00 Build 0)  -->
<svg version="1.1" id="clearspace" xmlns="http://www.w3.org/2000/svg" xmlns:xlink="http://www.w3.org/1999/xlink" x="0px" y="0px"
	 viewBox="0 0 446.2 446.2" style="enable-background:new 0 0 446.2 446.2;" xml:space="preserve">
<style type="text/css">
	.st0{opacity:0.5;}
	.st1{fill:none;stroke:#2DD3C3;stroke-miterlimit:10;}
	.st2{fill:#2DD3C3;}
	.st3{fill:#2BC8B9;}
	.st4{fill:none;stroke:#2DD3C3;stroke-miterlimit:10;stroke-dasharray:4.0267,4.0267;}
</style>
<g id="XMLID_1478_" class="st0">
	<line id="XMLID_1522_" class="st1" x1="0" y1="414.3" x2="446.2" y2="414.3"/>
	<line id="XMLID_1521_" class="st1" x1="0" y1="382.5" x2="446.2" y2="382.5"/>
	<line id="XMLID_1520_" class="st1" x1="0" y1="350.6" x2="446.2" y2="350.6"/>
	<line id="XMLID_1519_" class="st1" x1="0" y1="318.8" x2="446.2" y2="318.8"/>
	<line id="XMLID_1518_" class="st1" x1="0" y1="286.9" x2="446.2" y2="286.9"/>
	<line id="XMLID_1517_" class="st1" x1="0" y1="255.1" x2="446.2" y2="255.1"/>
	<line id="XMLID_1516_" class="st1" x1="0" y1="223.2" x2="446.2" y2="223.2"/>
	<line id="XMLID_1515_" class="st1" x1="0" y1="191.3" x2="446.2" y2="191.3"/>
	<line id="XMLID_1514_" class="st1" x1="0" y1="159.4" x2="446.2" y2="159.4"/>
	<line id="XMLID_1513_" class="st1" x1="0" y1="127.5" x2="446.2" y2="127.5"/>
	<line id="XMLID_1512_" class="st1" x1="0" y1="95.6" x2="446.2" y2="95.6"/>
	<line id="XMLID_1511_" class="st1" x1="0" y1="63.7" x2="446.2" y2="63.7"/>
	<line id="XMLID_1497_" class="st1" x1="0" y1="31.9" x2="446.2" y2="31.9"/>
	<line id="XMLID_1496_" class="st1" x1="414.3" y1="0" x2="414.3" y2="446.2"/>
	<line id="XMLID_1495_" class="st1" x1="382.5" y1="0" x2="382.5" y2="446.2"/>
	<line id="XMLID_1491_" class="st1" x1="350.6" y1="0" x2="350.6" y2="446.2"/>
	<line id="XMLID_1490_" class="st1" x1="318.7" y1="0" x2="318.7" y2="446.2"/>
	<line id="XMLID_1489_" class="st1" x1="286.8" y1="0" x2="286.8" y2="446.2"/>
	<line id="XMLID_1487_" class="st1" x1="255" y1="0" x2="255" y2="446.2"/>
	<line id="XMLID_1486_" class="st1" x1="223.1" y1="0" x2="223.1" y2="446.2"/>
	<line id="XMLID_1485_" class="st1" x1="191.2" y1="0" x2="191.2" y2="446.2"/>
	<line id="XMLID_1483_" class="st1" x1="159.4" y1="0" x2="159.4" y2="446.2"/>
	<line id="XMLID_1482_" class="st1" x1="127.5" y1="0" x2="127.5" y2="446.2"/>
	<line id="XMLID_1481_" class="st1" x1="95.6" y1="0" x2="95.6" y2="446.2"/>
	<line id="XMLID_1480_" class="st1" x1="63.7" y1="0" x2="63.7" y2="446.2"/>
	<line id="XMLID_1479_" class="st1" x1="31.9" y1="0" x2="31.9" y2="446.2"/>
</g>
<g>
	<path class="st2" d="M445.2,1v444.2H1V1H445.2 M446.2,0H0v446.2h446.2V0L446.2,0z"/>
</g>
<g>
	<path class="st2" d="M366.8,1c20.8,0,40.5,8.2,55.3,23c14.9,14.9,23,34.5,23,55.4v287.3c0,20.9-8.2,40.5-23.1,55.4
		c-14.8,14.9-34.5,23.1-55.3,23.1H79.4c-20.8,0-40.5-8.2-55.3-23C9.2,407.3,1,387.6,1,366.7V79.5c0-20.9,8.2-40.5,23-55.4
		C38.8,9.2,58.5,1,79.4,1H366.8 M366.8,0H79.4C35.6,0,0,35.8,0,79.5v287.3c0,43.8,35.7,79.5,79.4,79.5h287.5
		c43.6,0,79.3-35.8,79.4-79.5V79.5C446.2,35.7,410.5,0,366.8,0L366.8,0z"/>
</g>
<g>
	<path class="st2" d="M223.1,1c30,0,59.1,5.9,86.5,17.5c26.4,11.2,50.2,27.2,70.6,47.6c20.4,20.4,36.4,44.1,47.6,70.6
		c11.6,27.4,17.5,56.5,17.5,86.5s-5.9,59.1-17.5,86.5c-11.2,26.4-27.2,50.2-47.6,70.6c-20.4,20.4-44.1,36.4-70.6,47.6
		c-27.4,11.6-56.5,17.5-86.5,17.5s-59.1-5.9-86.5-17.5c-26.4-11.2-50.2-27.2-70.6-47.6S29.6,336,18.5,309.6
		C6.9,282.2,1,253.1,1,223.1s5.9-59.1,17.5-86.5c11.2-26.4,27.2-50.2,47.6-70.6s44.1-36.4,70.6-47.6C164,6.9,193.1,1,223.1,1
		 M223.1,0C99.9,0,0,99.9,0,223.1s99.9,223.1,223.1,223.1s223.1-99.9,223.1-223.1S346.3,0,223.1,0L223.1,0z"/>
</g>
<g>
	<path class="st3" d="M403.5,217.6h-28.7c-4.3,0-7.9-3.3-8-7.6c-0.1-4.4,3.4-8.1,7.8-8.1h44.8c0.7,0,1.2-0.5,1.2-1.2v-8.6
		c0-0.7-0.5-1.2-1.2-1.2h-46c-10.3,0-18.9,8.2-19,18.4c-0.2,10.5,8.3,19,18.7,19h28.7c4.3,0,7.9,3.3,8,7.6c0.1,4.4-3.4,8.1-7.8,8.1
		h-51.2c-0.7,0-1.2-0.5-1.2-1.2v-33.2c0-10.3-9.9-18.7-20.2-18.7H276h-1.8h-15.6c-10.3,0-18.7,8.4-18.7,18.7v44.1
		c0,0.7,0.5,1.2,1.2,1.2h10c0.7,0,1.2-0.5,1.2-1.2v-44.1c0-4.3,3.5-7.8,7.8-7.8h14.1l0,34.4c0,10.3,8.4,18.7,18.7,18.7H341h7.2h53.5
		c10.3,0,20.3-8.2,20.5-18.4C422.4,226.2,414,217.6,403.5,217.6z M337.3,243c0,0.7-0.5,1.2-1.2,1.2h-41.7c-4.3,0-7.8-3.5-7.8-7.8
		v-33.2c0-0.7,0.5-1.2,1.2-1.2h41.7c4.3,0,7.8,3.5,7.8,7.8V243z"/>
	<path class="st3" d="M25.7,223.3c0.1,17.7,14.7,31.8,32.4,31.8H101c0.7,0,1.2-0.5,1.2-1.2v-61.6c0-0.7-0.5-1.2-1.2-1.2H57.7
		C40,191.1,25.6,205.6,25.7,223.3z M88.6,244.2H59.5c-11.6,0-21.2-9.3-21.4-20.9C38,211.6,47.5,202,59.2,202h29.3
		c0.7,0,1.2,0.5,1.2,1.2V243C89.7,243.7,89.2,244.2,88.6,244.2z"/>
	<path class="st3" d="M211.3,191.1h-15.6c-0.7,0-1.2,0.5-1.2,1.2v8.6c0,0.7,0.5,1.2,1.2,1.2h14.2c4.3,0,7.8,3.5,7.8,7.8v34.4h-67.4
		c-4.3,0-7.9-3.3-8-7.6c-0.1-4.4,3.4-8.1,7.8-8.1h21.8c10.3,0,18.9-8.2,19-18.4c0.2-10.5-8.3-19-18.7-19h-58.8
		c-0.7,0-1.2,0.5-1.2,1.2v61.6c0,0.7,0.5,1.2,1.2,1.2h10c0.7,0,1.2-0.5,1.2-1.2v-50.7c0-0.7,0.5-1.2,1.2-1.2h44.8
		c4.3,0,7.9,3.3,8,7.6c0.1,4.4-3.4,8.1-7.8,8.1h-21.8c-10.3,0-18.9,8.2-19,18.4c-0.2,10.5,8.3,19,18.7,19h80.3
		c0.7,0,1.2-0.5,1.2-1.2v-44.1C230,199.5,221.6,191.1,211.3,191.1z"/>
</g>
<g>
	<g>
		<line class="st1" x1="422.3" y1="122.4" x2="422.3" y2="124.4"/>
		<line class="st4" x1="422.3" y1="128.5" x2="422.3" y2="319.7"/>
		<line class="st1" x1="422.3" y1="321.8" x2="422.3" y2="323.8"/>
	</g>
</g>
<g>
	<g>
		<line class="st1" x1="25.7" y1="118.8" x2="25.7" y2="120.8"/>
		<line class="st4" x1="25.7" y1="124.8" x2="25.7" y2="316.1"/>
		<line class="st1" x1="25.7" y1="318.1" x2="25.7" y2="320.1"/>
	</g>
</g>
</svg>
