<?xml version="1.0" encoding="utf-8"?>
<!-- Generator: Adobe Illustrator 22.0.0, SVG Export Plug-In . SVG Version: 6.00 Build 0)  -->
<svg version="1.1" id="artos_x5F_logotype" xmlns="http://www.w3.org/2000/svg" xmlns:xlink="http://www.w3.org/1999/xlink" x="0px"
	 y="0px" viewBox="0 0 1485.1 1157.8" style="enable-background:new 0 0 1485.1 1157.8;" xml:space="preserve">
<style type="text/css">
	.st0{fill:none;stroke:#2BC8B9;stroke-width:2;stroke-miterlimit:10;}
	.st1{opacity:0;fill:#13232D;}
	.st2{fill:#2BC8B9;}
</style>
<rect x="1" y="1" class="st0" width="600" height="851"/>
<rect x="633.1" y="635.5" class="st0" width="521.3" height="521.3"/>
<rect x="758.6" y="-124.5" transform="matrix(-1.836970e-16 1 -1 -1.836970e-16 1359.5697 -757.5696)" class="st0" width="600" height="851"/>
<g>
	<rect x="1" y="386.4" class="st1" width="202.5" height="80.1"/>
	<g>
		<path class="st2" d="M168.3,424.5h-10.6c-1.6,0-2.9-1.2-2.9-2.8c0-1.6,1.3-3,2.9-3h16.5c0.2,0,0.4-0.2,0.4-0.4v-3.1
			c0-0.2-0.2-0.4-0.4-0.4h-16.9c-3.8,0-6.9,3-7,6.8c-0.1,3.8,3.1,7,6.9,7h10.6c1.6,0,2.9,1.2,2.9,2.8c0,1.6-1.3,3-2.9,3h-18.8
			c-0.2,0-0.4-0.2-0.4-0.4v-12.2c0-3.8-3.6-6.9-7.4-6.9h-19.7h-0.7H115c-3.8,0-6.9,3.1-6.9,6.9v16.2c0,0.2,0.2,0.4,0.4,0.4h3.7
			c0.2,0,0.4-0.2,0.4-0.4v-16.2c0-1.6,1.3-2.9,2.9-2.9h5.2l0,12.6c0,3.8,3.1,6.9,6.9,6.9h17.7h2.7h19.7c3.8,0,7.5-3,7.5-6.8
			C175.3,427.6,172.1,424.5,168.3,424.5z M143.9,433.8c0,0.2-0.2,0.4-0.4,0.4h-15.4c-1.6,0-2.9-1.3-2.9-2.9v-12.2
			c0-0.2,0.2-0.4,0.4-0.4h15.4c1.6,0,2.9,1.3,2.9,2.9V433.8z"/>
		<path class="st2" d="M29.2,426.6c0,6.5,5.4,11.7,11.9,11.7h15.8c0.2,0,0.4-0.2,0.4-0.4v-22.7c0-0.2-0.2-0.4-0.4-0.4H41
			C34.5,414.7,29.2,420,29.2,426.6z M52.4,434.3H41.7c-4.3,0-7.8-3.4-7.9-7.7c0-4.3,3.5-7.8,7.8-7.8h10.8c0.2,0,0.4,0.2,0.4,0.4
			v14.7C52.8,434.1,52.6,434.3,52.4,434.3z"/>
		<path class="st2" d="M97.5,414.7h-5.8c-0.2,0-0.4,0.2-0.4,0.4v3.1c0,0.2,0.2,0.4,0.4,0.4H97c1.6,0,2.9,1.3,2.9,2.9v12.6H75
			c-1.6,0-2.9-1.2-2.9-2.8c0-1.6,1.3-3,2.9-3h8c3.8,0,6.9-3,7-6.8c0.1-3.8-3.1-7-6.9-7H61.5c-0.2,0-0.4,0.2-0.4,0.4v22.7
			c0,0.2,0.2,0.4,0.4,0.4h3.7c0.2,0,0.4-0.2,0.4-0.4v-18.7c0-0.2,0.2-0.4,0.4-0.4h16.5c1.6,0,2.9,1.2,2.9,2.8c0,1.6-1.3,3-2.9,3h-8
			c-3.8,0-6.9,3-7,6.8c-0.1,3.8,3.1,7,6.9,7H104c0.2,0,0.4-0.2,0.4-0.4v-16.2C104.4,417.8,101.3,414.7,97.5,414.7z"/>
	</g>
</g>
<g>
	<rect x="398.5" y="386.4" class="st1" width="202.5" height="80.1"/>
	<g>
		<path class="st2" d="M565.8,424.5h-10.6c-1.6,0-2.9-1.2-2.9-2.8c0-1.6,1.3-3,2.9-3h16.5c0.2,0,0.4-0.2,0.4-0.4v-3.1
			c0-0.2-0.2-0.4-0.4-0.4h-16.9c-3.8,0-6.9,3-7,6.8c-0.1,3.8,3.1,7,6.9,7h10.6c1.6,0,2.9,1.2,2.9,2.8c0,1.6-1.3,3-2.9,3h-18.8
			c-0.2,0-0.4-0.2-0.4-0.4v-12.2c0-3.8-3.6-6.9-7.4-6.9h-19.7h-0.7h-5.7c-3.8,0-6.9,3.1-6.9,6.9v16.2c0,0.2,0.2,0.4,0.4,0.4h3.7
			c0.2,0,0.4-0.2,0.4-0.4v-16.2c0-1.6,1.3-2.9,2.9-2.9h5.2l0,12.6c0,3.8,3.1,6.9,6.9,6.9h17.7h2.7h19.7c3.8,0,7.5-3,7.5-6.8
			C572.8,427.6,569.7,424.5,565.8,424.5z M541.5,433.8c0,0.2-0.2,0.4-0.4,0.4h-15.4c-1.6,0-2.9-1.3-2.9-2.9v-12.2
			c0-0.2,0.2-0.4,0.4-0.4h15.4c1.6,0,2.9,1.3,2.9,2.9V433.8z"/>
		<path class="st2" d="M426.8,426.6c0,6.5,5.4,11.7,11.9,11.7h15.8c0.2,0,0.4-0.2,0.4-0.4v-22.7c0-0.2-0.2-0.4-0.4-0.4h-15.9
			C432,414.7,426.7,420,426.8,426.6z M449.9,434.3h-10.7c-4.3,0-7.8-3.4-7.9-7.7c0-4.3,3.5-7.8,7.8-7.8h10.8c0.2,0,0.4,0.2,0.4,0.4
			v14.7C450.3,434.1,450.1,434.3,449.9,434.3z"/>
		<path class="st2" d="M495.1,414.7h-5.8c-0.2,0-0.4,0.2-0.4,0.4v3.1c0,0.2,0.2,0.4,0.4,0.4h5.2c1.6,0,2.9,1.3,2.9,2.9v12.6h-24.8
			c-1.6,0-2.9-1.2-2.9-2.8c0-1.6,1.3-3,2.9-3h8c3.8,0,6.9-3,7-6.8c0.1-3.8-3.1-7-6.9-7H459c-0.2,0-0.4,0.2-0.4,0.4v22.7
			c0,0.2,0.2,0.4,0.4,0.4h3.7c0.2,0,0.4-0.2,0.4-0.4v-18.7c0-0.2,0.2-0.4,0.4-0.4h16.5c1.6,0,2.9,1.2,2.9,2.8c0,1.6-1.3,3-2.9,3h-8
			c-3.8,0-6.9,3-7,6.8c-0.1,3.8,3.1,7,6.9,7h29.6c0.2,0,0.4-0.2,0.4-0.4v-16.2C502,417.8,498.9,414.7,495.1,414.7z"/>
	</g>
</g>
<g>
	<rect x="633.1" y="260.9" class="st1" width="202.5" height="80.1"/>
	<g>
		<path class="st2" d="M800.4,299h-10.6c-1.6,0-2.9-1.2-2.9-2.8c0-1.6,1.3-3,2.9-3h16.5c0.2,0,0.4-0.2,0.4-0.4v-3.1
			c0-0.2-0.2-0.4-0.4-0.4h-16.9c-3.8,0-6.9,3-7,6.8c-0.1,3.8,3.1,7,6.9,7h10.6c1.6,0,2.9,1.2,2.9,2.8c0,1.6-1.3,3-2.9,3H781
			c-0.2,0-0.4-0.2-0.4-0.4v-12.2c0-3.8-3.6-6.9-7.4-6.9h-19.7h-0.7H747c-3.8,0-6.9,3.1-6.9,6.9v16.2c0,0.2,0.2,0.4,0.4,0.4h3.7
			c0.2,0,0.4-0.2,0.4-0.4v-16.2c0-1.6,1.3-2.9,2.9-2.9h5.2l0,12.6c0,3.8,3.1,6.9,6.9,6.9h17.7h2.7h19.7c3.8,0,7.5-3,7.5-6.8
			C807.3,302.1,804.2,299,800.4,299z M776,308.3c0,0.2-0.2,0.4-0.4,0.4h-15.4c-1.6,0-2.9-1.3-2.9-2.9v-12.2c0-0.2,0.2-0.4,0.4-0.4
			h15.4c1.6,0,2.9,1.3,2.9,2.9V308.3z"/>
		<path class="st2" d="M661.3,301.1c0,6.5,5.4,11.7,11.9,11.7H689c0.2,0,0.4-0.2,0.4-0.4v-22.7c0-0.2-0.2-0.4-0.4-0.4h-15.9
			C666.6,289.2,661.3,294.5,661.3,301.1z M684.4,308.8h-10.7c-4.3,0-7.8-3.4-7.9-7.7c0-4.3,3.5-7.8,7.8-7.8h10.8
			c0.2,0,0.4,0.2,0.4,0.4v14.7C684.9,308.6,684.7,308.8,684.4,308.8z"/>
		<path class="st2" d="M729.6,289.2h-5.8c-0.2,0-0.4,0.2-0.4,0.4v3.1c0,0.2,0.2,0.4,0.4,0.4h5.2c1.6,0,2.9,1.3,2.9,2.9v12.6h-24.8
			c-1.6,0-2.9-1.2-2.9-2.8c0-1.6,1.3-3,2.9-3h8c3.8,0,6.9-3,7-6.8c0.1-3.8-3.1-7-6.9-7h-21.7c-0.2,0-0.4,0.2-0.4,0.4v22.7
			c0,0.2,0.2,0.4,0.4,0.4h3.7c0.2,0,0.4-0.2,0.4-0.4v-18.7c0-0.2,0.2-0.4,0.4-0.4h16.5c1.6,0,2.9,1.2,2.9,2.8c0,1.6-1.3,3-2.9,3h-8
			c-3.8,0-6.9,3-7,6.8c-0.1,3.8,3.1,7,6.9,7h29.6c0.2,0,0.4-0.2,0.4-0.4v-16.2C736.5,292.3,733.4,289.2,729.6,289.2z"/>
	</g>
</g>
<g>
	<rect x="633.1" y="856" class="st1" width="202.5" height="80.1"/>
	<g>
		<path class="st2" d="M800.4,894.1h-10.6c-1.6,0-2.9-1.2-2.9-2.8c0-1.6,1.3-3,2.9-3h16.5c0.2,0,0.4-0.2,0.4-0.4v-3.1
			c0-0.2-0.2-0.4-0.4-0.4h-16.9c-3.8,0-6.9,3-7,6.8c-0.1,3.8,3.1,7,6.9,7h10.6c1.6,0,2.9,1.2,2.9,2.8c0,1.6-1.3,3-2.9,3H781
			c-0.2,0-0.4-0.2-0.4-0.4v-12.2c0-3.8-3.6-6.9-7.4-6.9h-19.7h-0.7H747c-3.8,0-6.9,3.1-6.9,6.9v16.2c0,0.2,0.2,0.4,0.4,0.4h3.7
			c0.2,0,0.4-0.2,0.4-0.4v-16.2c0-1.6,1.3-2.9,2.9-2.9h5.2l0,12.6c0,3.8,3.1,6.9,6.9,6.9h17.7h2.7h19.7c3.8,0,7.5-3,7.5-6.8
			C807.3,897.3,804.2,894.1,800.4,894.1z M776,903.4c0,0.2-0.2,0.4-0.4,0.4h-15.4c-1.6,0-2.9-1.3-2.9-2.9v-12.2
			c0-0.2,0.2-0.4,0.4-0.4h15.4c1.6,0,2.9,1.3,2.9,2.9V903.4z"/>
		<path class="st2" d="M661.3,896.2c0,6.5,5.4,11.7,11.9,11.7H689c0.2,0,0.4-0.2,0.4-0.4v-22.7c0-0.2-0.2-0.4-0.4-0.4h-15.9
			C666.6,884.3,661.3,889.7,661.3,896.2z M684.4,903.9h-10.7c-4.3,0-7.8-3.4-7.9-7.7c0-4.3,3.5-7.8,7.8-7.8h10.8
			c0.2,0,0.4,0.2,0.4,0.4v14.7C684.9,903.7,684.7,903.9,684.4,903.9z"/>
		<path class="st2" d="M729.6,884.3h-5.8c-0.2,0-0.4,0.2-0.4,0.4v3.1c0,0.2,0.2,0.4,0.4,0.4h5.2c1.6,0,2.9,1.3,2.9,2.9v12.6h-24.8
			c-1.6,0-2.9-1.2-2.9-2.8c0-1.6,1.3-3,2.9-3h8c3.8,0,6.9-3,7-6.8c0.1-3.8-3.1-7-6.9-7h-21.7c-0.2,0-0.4,0.2-0.4,0.4v22.7
			c0,0.2,0.2,0.4,0.4,0.4h3.7c0.2,0,0.4-0.2,0.4-0.4v-18.7c0-0.2,0.2-0.4,0.4-0.4h16.5c1.6,0,2.9,1.2,2.9,2.8c0,1.6-1.3,3-2.9,3h-8
			c-3.8,0-6.9,3-7,6.8c-0.1,3.8,3.1,7,6.9,7h29.6c0.2,0,0.4-0.2,0.4-0.4v-16.2C736.5,887.4,733.4,884.3,729.6,884.3z"/>
	</g>
</g>
<g>
	<rect x="951.9" y="856" class="st1" width="202.5" height="80.1"/>
	<g>
		<path class="st2" d="M1119.2,894.1h-10.6c-1.6,0-2.9-1.2-2.9-2.8c0-1.6,1.3-3,2.9-3h16.5c0.2,0,0.4-0.2,0.4-0.4v-3.1
			c0-0.2-0.2-0.4-0.4-0.4h-16.9c-3.8,0-6.9,3-7,6.8c-0.1,3.8,3.1,7,6.9,7h10.6c1.6,0,2.9,1.2,2.9,2.8c0,1.6-1.3,3-2.9,3h-18.8
			c-0.2,0-0.4-0.2-0.4-0.4v-12.2c0-3.8-3.6-6.9-7.4-6.9h-19.7h-0.7h-5.7c-3.8,0-6.9,3.1-6.9,6.9v16.2c0,0.2,0.2,0.4,0.4,0.4h3.7
			c0.2,0,0.4-0.2,0.4-0.4v-16.2c0-1.6,1.3-2.9,2.9-2.9h5.2V901c0,3.8,3.1,6.9,6.9,6.9h17.7h2.7h19.7c3.8,0,7.5-3,7.5-6.8
			C1126.1,897.3,1123,894.1,1119.2,894.1z M1094.8,903.4c0,0.2-0.2,0.4-0.4,0.4H1079c-1.6,0-2.9-1.3-2.9-2.9v-12.2
			c0-0.2,0.2-0.4,0.4-0.4h15.4c1.6,0,2.9,1.3,2.9,2.9V903.4z"/>
		<path class="st2" d="M980.1,896.2c0,6.5,5.4,11.7,11.9,11.7h15.8c0.2,0,0.4-0.2,0.4-0.4v-22.7c0-0.2-0.2-0.4-0.4-0.4h-15.9
			C985.4,884.3,980.1,889.7,980.1,896.2z M1003.3,903.9h-10.7c-4.3,0-7.8-3.4-7.9-7.7c0-4.3,3.5-7.8,7.8-7.8h10.8
			c0.2,0,0.4,0.2,0.4,0.4v14.7C1003.7,903.7,1003.5,903.9,1003.3,903.9z"/>
		<path class="st2" d="M1048.4,884.3h-5.8c-0.2,0-0.4,0.2-0.4,0.4v3.1c0,0.2,0.2,0.4,0.4,0.4h5.2c1.6,0,2.9,1.3,2.9,2.9v12.6h-24.8
			c-1.6,0-2.9-1.2-2.9-2.8c0-1.6,1.3-3,2.9-3h8c3.8,0,6.9-3,7-6.8c0.1-3.8-3.1-7-6.9-7h-21.7c-0.2,0-0.4,0.2-0.4,0.4v22.7
			c0,0.2,0.2,0.4,0.4,0.4h3.7c0.2,0,0.4-0.2,0.4-0.4v-18.7c0-0.2,0.2-0.4,0.4-0.4h16.5c1.6,0,2.9,1.2,2.9,2.8c0,1.6-1.3,3-2.9,3h-8
			c-3.8,0-6.9,3-7,6.8c-0.1,3.8,3.1,7,6.9,7h29.6c0.2,0,0.4-0.2,0.4-0.4v-16.2C1055.3,887.4,1052.2,884.3,1048.4,884.3z"/>
	</g>
</g>
<g>
	<rect x="1281.6" y="260.9" class="st1" width="202.5" height="80.1"/>
	<g>
		<path class="st2" d="M1448.9,299h-10.6c-1.6,0-2.9-1.2-2.9-2.8c0-1.6,1.3-3,2.9-3h16.5c0.2,0,0.4-0.2,0.4-0.4v-3.1
			c0-0.2-0.2-0.4-0.4-0.4h-16.9c-3.8,0-6.9,3-7,6.8c-0.1,3.8,3.1,7,6.9,7h10.6c1.6,0,2.9,1.2,2.9,2.8c0,1.6-1.3,3-2.9,3h-18.8
			c-0.2,0-0.4-0.2-0.4-0.4v-12.2c0-3.8-3.6-6.9-7.4-6.9H1402h-0.7h-5.7c-3.8,0-6.9,3.1-6.9,6.9v16.2c0,0.2,0.2,0.4,0.4,0.4h3.7
			c0.2,0,0.4-0.2,0.4-0.4v-16.2c0-1.6,1.3-2.9,2.9-2.9h5.2v12.6c0,3.8,3.1,6.9,6.9,6.9h17.7h2.7h19.7c3.8,0,7.5-3,7.5-6.8
			C1455.9,302.1,1452.7,299,1448.9,299z M1424.5,308.3c0,0.2-0.2,0.4-0.4,0.4h-15.4c-1.6,0-2.9-1.3-2.9-2.9v-12.2
			c0-0.2,0.2-0.4,0.4-0.4h15.4c1.6,0,2.9,1.3,2.9,2.9V308.3z"/>
		<path class="st2" d="M1309.9,301.1c0,6.5,5.4,11.7,11.9,11.7h15.8c0.2,0,0.4-0.2,0.4-0.4v-22.7c0-0.2-0.2-0.4-0.4-0.4h-15.9
			C1315.1,289.2,1309.8,294.5,1309.9,301.1z M1333,308.8h-10.7c-4.3,0-7.8-3.4-7.9-7.7c0-4.3,3.5-7.8,7.8-7.8h10.8
			c0.2,0,0.4,0.2,0.4,0.4v14.7C1333.4,308.6,1333.2,308.8,1333,308.8z"/>
		<path class="st2" d="M1378.1,289.2h-5.8c-0.2,0-0.4,0.2-0.4,0.4v3.1c0,0.2,0.2,0.4,0.4,0.4h5.2c1.6,0,2.9,1.3,2.9,2.9v12.6h-24.8
			c-1.6,0-2.9-1.2-2.9-2.8c0-1.6,1.3-3,2.9-3h8c3.8,0,6.9-3,7-6.8c0.1-3.8-3.1-7-6.9-7h-21.7c-0.2,0-0.4,0.2-0.4,0.4v22.7
			c0,0.2,0.2,0.4,0.4,0.4h3.7c0.2,0,0.4-0.2,0.4-0.4v-18.7c0-0.2,0.2-0.4,0.4-0.4h16.5c1.6,0,2.9,1.2,2.9,2.8c0,1.6-1.3,3-2.9,3h-8
			c-3.8,0-6.9,3-7,6.8c-0.1,3.8,3.1,7,6.9,7h29.6c0.2,0,0.4-0.2,0.4-0.4v-16.2C1385,292.3,1382,289.2,1378.1,289.2z"/>
	</g>
</g>
<line class="st0" x1="1" y1="1" x2="601" y2="852"/>
<line class="st0" x1="1" y1="852" x2="601" y2="1"/>
<line class="st0" x1="633.1" y1="1" x2="1484.1" y2="601"/>
<line class="st0" x1="633.1" y1="601" x2="1484.1" y2="1"/>
<line class="st0" x1="633.1" y1="635.5" x2="1154.4" y2="1156.8"/>
<line class="st0" x1="1154.4" y1="635.5" x2="633.1" y2="1156.8"/>
</svg>
