<?xml version="1.0" encoding="utf-8"?>
<!-- Generator: Adobe Illustrator 22.0.0, SVG Export Plug-In . SVG Version: 6.00 Build 0)  -->
<svg version="1.1" id="artos_x5F_logotype" xmlns="http://www.w3.org/2000/svg" xmlns:xlink="http://www.w3.org/1999/xlink" x="0px"
	 y="0px" viewBox="0 0 1485.1 1157.8" style="enable-background:new 0 0 1485.1 1157.8;" xml:space="preserve">
<style type="text/css">
	.st0{fill:#30DDCD;}
	.st1{fill:#13232D;}
	.st2{fill:none;stroke:#13232D;stroke-miterlimit:10;}
</style>
<rect x="1" y="1" class="st0" width="600" height="851"/>
<rect x="633.1" y="635.5" class="st0" width="521.3" height="521.3"/>
<rect x="758.6" y="-124.5" transform="matrix(-1.836970e-16 1 -1 -1.836970e-16 1359.5697 -757.5696)" class="st0" width="600" height="851"/>
<g>
	<path class="st1" d="M556.1,775.7h-40.8c-6,0-11.2-4.7-11.3-10.8c-0.2-6.3,4.9-11.4,11.1-11.4h63.7c0.9,0,1.7-0.8,1.7-1.7v-12.2
		c0-0.9-0.8-1.7-1.7-1.7h-65.4c-14.6,0-26.8,11.6-27,26.2c-0.2,14.9,11.8,27,26.6,27h40.8c6,0,11.2,4.7,11.3,10.8
		c0.2,6.3-4.9,11.4-11.1,11.4h-72.7c-0.9,0-1.7-0.8-1.7-1.7v-47.1c0-14.7-14-26.6-28.7-26.6h-76h-2.6h-22.1
		c-14.7,0-26.6,11.9-26.6,26.6v62.6c0,0.9,0.8,1.7,1.7,1.7h14.2c0.9,0,1.7-0.8,1.7-1.7v-62.6c0-6.1,5-11.1,11.1-11.1h20l0,48.8
		c0,14.7,11.9,26.6,26.6,26.6h68.3h10.3h76.1c14.6,0,28.9-11.6,29.1-26.2C582.9,787.9,570.9,775.7,556.1,775.7z M462,811.8
		c0,0.9-0.8,1.7-1.7,1.7H401c-6.1,0-11.1-5-11.1-11.1v-47.1c0-0.9,0.8-1.7,1.7-1.7h59.3c6.1,0,11.1,5,11.1,11.1V811.8z"/>
	<path class="st1" d="M19.3,783.8c0.1,25.1,20.9,45.2,46,45.2h60.9c0.9,0,1.7-0.8,1.7-1.7v-87.6c0-0.9-0.8-1.7-1.7-1.7H64.8
		C39.6,738,19.2,758.6,19.3,783.8z M108.6,813.4H67.3c-16.5,0-30.2-13.2-30.3-29.7c-0.2-16.7,13.3-30.3,30-30.3h41.7
		c0.9,0,1.7,0.8,1.7,1.7v56.6C110.3,812.7,109.5,813.4,108.6,813.4z"/>
	<path class="st1" d="M282.9,738h-22.2c-0.9,0-1.7,0.8-1.7,1.7v12.2c0,0.9,0.8,1.7,1.7,1.7h20.1c6.1,0,11.1,5,11.1,11.1v48.8h-95.8
		c-6,0-11.2-4.7-11.3-10.8c-0.2-6.3,4.9-11.4,11.1-11.4h31c14.6,0,26.8-11.6,27-26.2c0.2-14.9-11.8-27-26.6-27h-83.6
		c-0.9,0-1.7,0.8-1.7,1.7v87.6c0,0.9,0.8,1.7,1.7,1.7H158c0.9,0,1.7-0.8,1.7-1.7v-72.1c0-0.9,0.8-1.7,1.7-1.7H225
		c6,0,11.2,4.7,11.3,10.8c0.2,6.3-4.9,11.4-11.1,11.4h-31c-14.6,0-26.8,11.6-27,26.2c-0.2,14.9,11.8,27,26.6,27h114.1
		c0.9,0,1.7-0.8,1.7-1.7v-62.6C309.5,749.9,297.6,738,282.9,738z"/>
</g>
<g>
	<path class="st2" d="M556.1,57.9h-40.8c-6,0-11.2-4.7-11.3-10.8c-0.2-6.3,4.9-11.4,11.1-11.4h63.7c0.9,0,1.7-0.8,1.7-1.7V21.9
		c0-0.9-0.8-1.7-1.7-1.7h-65.4c-14.6,0-26.8,11.6-27,26.2c-0.2,14.9,11.8,27,26.6,27h40.8c6,0,11.2,4.7,11.3,10.8
		c0.2,6.3-4.9,11.4-11.1,11.4h-72.7c-0.9,0-1.7-0.8-1.7-1.7V46.8c0-14.7-14-26.6-28.7-26.6h-76h-2.6h-22.1
		c-14.7,0-26.6,11.9-26.6,26.6v62.6c0,0.9,0.8,1.7,1.7,1.7h14.2c0.9,0,1.7-0.8,1.7-1.7V46.8c0-6.1,5-11.1,11.1-11.1h20l0,48.8
		c0,14.7,11.9,26.6,26.6,26.6h68.3h10.3h76.1c14.6,0,28.9-11.6,29.1-26.2C582.9,70.1,570.9,57.9,556.1,57.9z M462,93.9
		c0,0.9-0.8,1.7-1.7,1.7H401c-6.1,0-11.1-5-11.1-11.1V37.4c0-0.9,0.8-1.7,1.7-1.7h59.3c6.1,0,11.1,5,11.1,11.1V93.9z"/>
	<path class="st2" d="M19.3,65.9c0.1,25.1,20.9,45.2,46,45.2h60.9c0.9,0,1.7-0.8,1.7-1.7V21.9c0-0.9-0.8-1.7-1.7-1.7H64.8
		C39.6,20.2,19.2,40.7,19.3,65.9z M108.6,95.6H67.3c-16.5,0-30.2-13.2-30.3-29.7c-0.2-16.7,13.3-30.3,30-30.3h41.7
		c0.9,0,1.7,0.8,1.7,1.7v56.6C110.3,94.9,109.5,95.6,108.6,95.6z"/>
	<path class="st2" d="M282.9,20.2h-22.2c-0.9,0-1.7,0.8-1.7,1.7V34c0,0.9,0.8,1.7,1.7,1.7h20.1c6.1,0,11.1,5,11.1,11.1v48.8h-95.8
		c-6,0-11.2-4.7-11.3-10.8c-0.2-6.3,4.9-11.4,11.1-11.4h31c14.6,0,26.8-11.6,27-26.2c0.2-14.9-11.8-27-26.6-27h-83.6
		c-0.9,0-1.7,0.8-1.7,1.7v87.6c0,0.9,0.8,1.7,1.7,1.7H158c0.9,0,1.7-0.8,1.7-1.7V37.4c0-0.9,0.8-1.7,1.7-1.7H225
		c6,0,11.2,4.7,11.3,10.8c0.2,6.3-4.9,11.4-11.1,11.4h-31c-14.6,0-26.8,11.6-27,26.2c-0.2,14.9,11.8,27,26.6,27h114.1
		c0.9,0,1.7-0.8,1.7-1.7V46.8C309.5,32.1,297.6,20.2,282.9,20.2z"/>
</g>
<g>
	<path class="st1" d="M1115.4,1090h-35.5c-5.3,0-9.7-4.1-9.9-9.4c-0.2-5.5,4.2-9.9,9.6-9.9h55.4c0.8,0,1.5-0.7,1.5-1.5v-10.6
		c0-0.8-0.7-1.5-1.5-1.5h-56.8c-12.7,0-23.3,10.1-23.5,22.8c-0.2,12.9,10.3,23.5,23.1,23.5h35.5c5.3,0,9.7,4.1,9.9,9.4
		c0.2,5.5-4.2,9.9-9.6,9.9h-63.2c-0.8,0-1.5-0.7-1.5-1.5v-41c0-12.8-12.2-23.1-24.9-23.1h-66h-2.2h-19.2
		c-12.8,0-23.1,10.4-23.1,23.1v54.5c0,0.8,0.7,1.5,1.5,1.5h12.4c0.8,0,1.5-0.7,1.5-1.5v-54.5c0-5.3,4.3-9.7,9.7-9.7h17.4l0,42.4
		c0,12.8,10.4,23.1,23.1,23.1h59.4h8.9h66.1c12.7,0,25.1-10.1,25.3-22.8C1138.7,1100.6,1128.3,1090,1115.4,1090z M1033.6,1121.4
		c0,0.8-0.7,1.5-1.5,1.5h-51.5c-5.3,0-9.7-4.3-9.7-9.7v-41c0-0.8,0.7-1.5,1.5-1.5h51.5c5.3,0,9.7,4.3,9.7,9.7V1121.4z"/>
	<path class="st1" d="M648.9,1097c0.1,21.8,18.1,39.3,40,39.3h52.9c0.8,0,1.5-0.7,1.5-1.5v-76.1c0-0.8-0.7-1.5-1.5-1.5h-53.4
		C666.5,1057.3,648.8,1075.1,648.9,1097z M726.5,1122.8h-35.9c-14.3,0-26.2-11.4-26.4-25.8c-0.1-14.5,11.6-26.3,26-26.3h36.2
		c0.8,0,1.5,0.7,1.5,1.5v49.2C727.9,1122.2,727.3,1122.8,726.5,1122.8z"/>
	<path class="st1" d="M878,1057.3h-19.3c-0.8,0-1.5,0.7-1.5,1.5v10.6c0,0.8,0.7,1.5,1.5,1.5h17.5c5.3,0,9.7,4.3,9.7,9.7v42.4h-83.3
		c-5.3,0-9.7-4.1-9.9-9.4c-0.2-5.5,4.2-9.9,9.6-9.9h27c12.7,0,23.3-10.1,23.5-22.8c0.2-12.9-10.3-23.5-23.1-23.5H757
		c-0.8,0-1.5,0.7-1.5,1.5v76.1c0,0.8,0.7,1.5,1.5,1.5h12.4c0.8,0,1.5-0.7,1.5-1.5v-62.6c0-0.8,0.7-1.5,1.5-1.5h55.3
		c5.3,0,9.7,4.1,9.9,9.4c0.2,5.5-4.2,9.9-9.6,9.9h-27c-12.7,0-23.3,10.1-23.5,22.8c-0.2,12.9,10.3,23.5,23.1,23.5h99.2
		c0.8,0,1.5-0.7,1.5-1.5v-54.5C901.1,1067.6,890.8,1057.3,878,1057.3z"/>
</g>
<g>
	<path class="st2" d="M1115.4,686.1h-35.5c-5.3,0-9.7-4.1-9.9-9.4c-0.2-5.5,4.2-9.9,9.6-9.9h55.4c0.8,0,1.5-0.7,1.5-1.5v-10.6
		c0-0.8-0.7-1.5-1.5-1.5h-56.8c-12.7,0-23.3,10.1-23.5,22.8c-0.2,12.9,10.3,23.5,23.1,23.5h35.5c5.3,0,9.7,4.1,9.9,9.4
		c0.2,5.5-4.2,9.9-9.6,9.9h-63.2c-0.8,0-1.5-0.7-1.5-1.5v-41c0-12.8-12.2-23.1-24.9-23.1h-66h-2.2h-19.2
		c-12.8,0-23.1,10.4-23.1,23.1v54.5c0,0.8,0.7,1.5,1.5,1.5h12.4c0.8,0,1.5-0.7,1.5-1.5v-54.5c0-5.3,4.3-9.7,9.7-9.7h17.4l0,42.4
		c0,12.8,10.4,23.1,23.1,23.1h59.4h8.9h66.1c12.7,0,25.1-10.1,25.3-22.8C1138.7,696.7,1128.3,686.1,1115.4,686.1z M1033.6,717.4
		c0,0.8-0.7,1.5-1.5,1.5h-51.5c-5.3,0-9.7-4.3-9.7-9.7v-41c0-0.8,0.7-1.5,1.5-1.5h51.5c5.3,0,9.7,4.3,9.7,9.7V717.4z"/>
	<path class="st2" d="M648.9,693.1c0.1,21.8,18.1,39.3,40,39.3h52.9c0.8,0,1.5-0.7,1.5-1.5v-76.1c0-0.8-0.7-1.5-1.5-1.5h-53.4
		C666.5,653.3,648.8,671.2,648.9,693.1z M726.5,718.9h-35.9c-14.3,0-26.2-11.4-26.4-25.8c-0.1-14.5,11.6-26.3,26-26.3h36.2
		c0.8,0,1.5,0.7,1.5,1.5v49.2C727.9,718.2,727.3,718.9,726.5,718.9z"/>
	<path class="st2" d="M878,653.3h-19.3c-0.8,0-1.5,0.7-1.5,1.5v10.6c0,0.8,0.7,1.5,1.5,1.5h17.5c5.3,0,9.7,4.3,9.7,9.7v42.4h-83.3
		c-5.3,0-9.7-4.1-9.9-9.4c-0.2-5.5,4.2-9.9,9.6-9.9h27c12.7,0,23.3-10.1,23.5-22.8c0.2-12.9-10.3-23.5-23.1-23.5H757
		c-0.8,0-1.5,0.7-1.5,1.5v76.1c0,0.8,0.7,1.5,1.5,1.5h12.4c0.8,0,1.5-0.7,1.5-1.5v-62.6c0-0.8,0.7-1.5,1.5-1.5h55.3
		c5.3,0,9.7,4.1,9.9,9.4c0.2,5.5-4.2,9.9-9.6,9.9h-27c-12.7,0-23.3,10.1-23.5,22.8c-0.2,12.9,10.3,23.5,23.1,23.5h99.2
		c0.8,0,1.5-0.7,1.5-1.5v-54.5C901.1,663.7,890.8,653.3,878,653.3z"/>
</g>
<g>
	<path class="st1" d="M1423.2,500.8h-58.4c-8.6,0-15.9-6.8-16.2-15.4c-0.3-9,7-16.4,15.9-16.4h91.1c1.3,0,2.4-1.1,2.4-2.4v-17.4
		c0-1.3-1.1-2.4-2.4-2.4h-93.5c-20.9,0-38.3,16.6-38.6,37.5c-0.3,21.2,16.9,38.6,38,38.6h58.4c8.6,0,15.9,6.8,16.2,15.4
		c0.3,9-7,16.4-15.9,16.4h-103.9c-1.3,0-2.4-1.1-2.4-2.4v-67.4c0-21-20-38-41-38h-108.6h-3.7h-31.7c-21,0-38,17-38,38v89.6
		c0,1.3,1.1,2.4,2.4,2.4h20.4c1.3,0,2.4-1.1,2.4-2.4v-89.6c0-8.8,7.1-15.9,15.9-15.9h28.7l0,69.8c0,21,17,38,38,38h97.6h14.7h108.8
		c20.9,0,41.3-16.6,41.6-37.5C1461.6,518.2,1444.4,500.8,1423.2,500.8z M1288.7,552.3c0,1.3-1.1,2.4-2.4,2.4h-84.8
		c-8.8,0-15.9-7.1-15.9-15.9v-67.4c0-1.3,1.1-2.4,2.4-2.4h84.8c8.8,0,15.9,7.1,15.9,15.9V552.3z"/>
	<path class="st1" d="M655.9,512.3c0.2,35.9,29.8,64.6,65.7,64.6h87c1.3,0,2.4-1.1,2.4-2.4V449.3c0-1.3-1.1-2.4-2.4-2.4h-87.8
		C684.9,446.9,655.7,476.2,655.9,512.3z M783.5,554.7h-59.1c-23.6,0-43.1-18.8-43.4-42.4c-0.2-23.8,19.1-43.3,42.8-43.3h59.6
		c1.3,0,2.4,1.1,2.4,2.4v80.9C785.9,553.6,784.8,554.7,783.5,554.7z"/>
	<path class="st1" d="M1032.7,446.9H1001c-1.3,0-2.4,1.1-2.4,2.4v17.4c0,1.3,1.1,2.4,2.4,2.4h28.8c8.8,0,15.9,7.1,15.9,15.9v69.8
		h-137c-8.6,0-15.9-6.8-16.2-15.4c-0.3-9,7-16.4,15.9-16.4h44.4c20.9,0,38.3-16.6,38.6-37.5c0.3-21.2-16.9-38.6-38-38.6H833.7
		c-1.3,0-2.4,1.1-2.4,2.4v125.2c0,1.3,1.1,2.4,2.4,2.4h20.4c1.3,0,2.4-1.1,2.4-2.4v-103c0-1.3,1.1-2.4,2.4-2.4h91
		c8.6,0,15.9,6.8,16.2,15.4c0.3,9-7,16.4-15.9,16.4h-44.4c-20.9,0-38.3,16.6-38.6,37.5c-0.3,21.2,16.9,38.6,38,38.6h163.1
		c1.3,0,2.4-1.1,2.4-2.4v-89.6C1070.8,463.9,1053.7,446.9,1032.7,446.9z"/>
</g>
<g>
	<path class="st2" d="M1423.2,78.1h-58.4c-8.6,0-15.9-6.8-16.2-15.4c-0.3-9,7-16.4,15.9-16.4h91.1c1.3,0,2.4-1.1,2.4-2.4V26.6
		c0-1.3-1.1-2.4-2.4-2.4h-93.5c-20.9,0-38.3,16.6-38.6,37.5c-0.3,21.2,16.9,38.6,38,38.6h58.4c8.6,0,15.9,6.8,16.2,15.4
		c0.3,9-7,16.4-15.9,16.4h-103.9c-1.3,0-2.4-1.1-2.4-2.4V62.2c0-21-20-38-41-38h-108.6h-3.7h-31.7c-21,0-38,17-38,38v89.6
		c0,1.3,1.1,2.4,2.4,2.4h20.4c1.3,0,2.4-1.1,2.4-2.4V62.2c0-8.8,7.1-15.9,15.9-15.9h28.7l0,69.8c0,21,17,38,38,38h97.6h14.7h108.8
		c20.9,0,41.3-16.6,41.6-37.5C1461.6,95.5,1444.4,78.1,1423.2,78.1z M1288.7,129.6c0,1.3-1.1,2.4-2.4,2.4h-84.8
		c-8.8,0-15.9-7.1-15.9-15.9V48.8c0-1.3,1.1-2.4,2.4-2.4h84.8c8.8,0,15.9,7.1,15.9,15.9V129.6z"/>
	<path class="st2" d="M655.9,89.6c0.2,35.9,29.8,64.6,65.7,64.6h87c1.3,0,2.4-1.1,2.4-2.4V26.6c0-1.3-1.1-2.4-2.4-2.4h-87.8
		C684.9,24.2,655.7,53.6,655.9,89.6z M783.5,132h-59.1c-23.6,0-43.1-18.8-43.4-42.4c-0.2-23.8,19.1-43.3,42.8-43.3h59.6
		c1.3,0,2.4,1.1,2.4,2.4v80.9C785.9,131,784.8,132,783.5,132z"/>
	<path class="st2" d="M1032.7,24.2H1001c-1.3,0-2.4,1.1-2.4,2.4V44c0,1.3,1.1,2.4,2.4,2.4h28.8c8.8,0,15.9,7.1,15.9,15.9V132h-137
		c-8.6,0-15.9-6.8-16.2-15.4c-0.3-9,7-16.4,15.9-16.4h44.4c20.9,0,38.3-16.6,38.6-37.5c0.3-21.2-16.9-38.6-38-38.6H833.7
		c-1.3,0-2.4,1.1-2.4,2.4v125.2c0,1.3,1.1,2.4,2.4,2.4h20.4c1.3,0,2.4-1.1,2.4-2.4v-103c0-1.3,1.1-2.4,2.4-2.4h91
		c8.6,0,15.9,6.8,16.2,15.4c0.3,9-7,16.4-15.9,16.4h-44.4c-20.9,0-38.3,16.6-38.6,37.5c-0.3,21.2,16.9,38.6,38,38.6h163.1
		c1.3,0,2.4-1.1,2.4-2.4V62.2C1070.8,41.2,1053.7,24.2,1032.7,24.2z"/>
</g>
</svg>
