<?xml version="1.0" encoding="utf-8"?>
<!-- Generator: Adobe Illustrator 22.0.0, SVG Export Plug-In . SVG Version: 6.00 Build 0)  -->
<svg version="1.1" id="Layer_1" xmlns="http://www.w3.org/2000/svg" xmlns:xlink="http://www.w3.org/1999/xlink" x="0px" y="0px"
	 viewBox="0 0 1200 1200" style="enable-background:new 0 0 1200 1200;" xml:space="preserve">
<style type="text/css">
	.st0{fill:#3FD8C9;}
	.st1{fill:#121212;}
</style>
<rect class="st0" width="1200" height="1200"/>
<g>
	<g>
		<path class="st1" d="M855.9,666.7H710.7c-1.4,0-2.5-1.1-2.5-2.5V535.7c0-1.4,1.1-2.5,2.5-2.5h145.2c1.4,0,2.5,1.1,2.5,2.5v128.5
			C858.3,665.6,857.2,666.7,855.9,666.7z M740.2,644h86.1c5.1,0,9.2-4.1,9.2-9.2v-69.5c0-5.1-4.1-9.2-9.2-9.2h-86.1
			c-5.1,0-9.2,4.1-9.2,9.2v69.5C731,639.8,735.1,644,740.2,644z"/>
	</g>
	<g>
		<path class="st1" d="M336.1,666.7h-93.7c-36.8,0-67.3-29.5-67.5-66.3c-0.2-37,29.8-67.1,66.7-67.1h94.4c1.4,0,2.5,1.1,2.5,2.5
			v128.5C338.6,665.6,337.5,666.7,336.1,666.7z M241.7,556c-24.4,0-44.2,20-44,44.4c0.2,24.2,20.3,43.5,44.5,43.5h64.3
			c5.1,0,9.2-4.1,9.2-9.2v-69.5c0-5.1-4.1-9.2-9.2-9.2H241.7z"/>
	</g>
	<g>
		<path class="st1" d="M985.4,666.7H879.5c-1.4,0-2.5-1.1-2.5-2.5v-17.8c0-1.4,1.1-2.5,2.5-2.5h106.1c8.9,0,16.4-6.9,16.6-15.8
			c0.3-9.2-7.1-16.8-16.3-16.8h-72.6c-21.4,0-39.3-17-39.6-38.4c-0.3-21.8,17.3-39.7,39.1-39.7h106.4c1.4,0,2.5,1.1,2.5,2.5v17.8
			c0,1.4-1.1,2.5-2.5,2.5H913.1c-8.9,0-16.4,6.9-16.6,15.8c-0.3,9.2,7.1,16.8,16.3,16.8h73.2c21.7,0,39.4,17.9,39.1,39.7
			C1024.7,649.7,1006.8,666.7,985.4,666.7z"/>
	</g>
	<g>
		<path class="st1" d="M379.8,666.7H362c-1.4,0-2.5-1.1-2.5-2.5V535.7c0-1.4,1.1-2.5,2.5-2.5h119c21.4,0,39.3,17,39.6,38.4
			c0.3,21.8-17.3,39.7-39.1,39.7h-35.9c-8.9,0-16.4,6.9-16.6,15.8c-0.3,9.2,7.1,16.8,16.3,16.8h68.3c1.4,0,2.5,1.1,2.5,2.5v17.8
			c0,1.4-1.1,2.5-2.5,2.5h-67.7c-21.4,0-39.3-17-39.6-38.4c-0.3-21.8,17.3-39.7,39.1-39.7h35.9c8.9,0,16.4-6.9,16.6-15.8
			c0.3-9.2-7.1-16.8-16.3-16.8h-90.1c-5.1,0-9.2,4.1-9.2,9.2v99C382.3,665.6,381.2,666.7,379.8,666.7z"/>
	</g>
	<path class="st1" d="M689.2,588.6h-55.4c-5.1,0-9.2-4.1-9.2-9.2V533c0-1.4-1.1-2.5-2.5-2.5h-17.8c-1.4,0-2.5,1.1-2.5,2.5v46.4
		c0,5.1-4.1,9.2-9.2,9.2h-55.4c-1.4,0-2.5,1.1-2.5,2.5v17.8c0,1.4,1.1,2.5,2.5,2.5h55.4c5.1,0,9.2,4.1,9.2,9.2V667
		c0,1.4,1.1,2.5,2.5,2.5h17.8c1.4,0,2.5-1.1,2.5-2.5v-46.4c0-5.1,4.1-9.2,9.2-9.2h55.4c1.4,0,2.5-1.1,2.5-2.5v-17.8
		C691.6,589.7,690.5,588.6,689.2,588.6z"/>
</g>
</svg>
