<?xml version="1.0" encoding="utf-8"?>
<!-- Generator: Adobe Illustrator 22.0.0, SVG Export Plug-In . SVG Version: 6.00 Build 0)  -->
<svg version="1.1" id="clearspace" xmlns="http://www.w3.org/2000/svg" xmlns:xlink="http://www.w3.org/1999/xlink" x="0px" y="0px"
	 viewBox="0 0 446.2 446.2" style="enable-background:new 0 0 446.2 446.2;" xml:space="preserve">
<style type="text/css">
	.st0{opacity:0;}
	.st1{fill:#F3F4F4;}
	.st2{fill:#D2D5D6;}
	.st3{fill:#2BC8B9;}
</style>
<g class="st0">
	<rect class="st1" width="446.2" height="446.2"/>
</g>
<g>
	<path class="st1" d="M223.1,445.7c-59.5,0-115.4-23.2-157.4-65.2c-42-42-65.2-97.9-65.2-157.4S23.7,107.7,65.7,65.7
		c42-42,97.9-65.2,157.4-65.2s115.4,23.2,157.4,65.2c42,42,65.2,97.9,65.2,157.4s-23.2,115.4-65.2,157.4
		C338.5,422.5,282.6,445.7,223.1,445.7z"/>
	<g>
		<path class="st2" d="M223.1,1c30,0,59.1,5.9,86.5,17.5c26.4,11.2,50.2,27.2,70.6,47.6c20.4,20.4,36.4,44.1,47.6,70.6
			c11.6,27.4,17.5,56.5,17.5,86.5s-5.9,59.1-17.5,86.5c-11.2,26.4-27.2,50.2-47.6,70.6c-20.4,20.4-44.1,36.4-70.6,47.6
			c-27.4,11.6-56.5,17.5-86.5,17.5s-59.1-5.9-86.5-17.5c-26.4-11.2-50.2-27.2-70.6-47.6S29.6,336,18.5,309.6
			C6.9,282.2,1,253.1,1,223.1s5.9-59.1,17.5-86.5c11.2-26.4,27.2-50.2,47.6-70.6s44.1-36.4,70.6-47.6C164,6.9,193.1,1,223.1,1
			 M223.1,0C99.9,0,0,99.9,0,223.1s99.9,223.1,223.1,223.1s223.1-99.9,223.1-223.1S346.3,0,223.1,0L223.1,0z"/>
	</g>
</g>
<g>
	<path class="st3" d="M403.5,217.6h-28.7c-4.3,0-7.9-3.3-8-7.6c-0.1-4.4,3.4-8.1,7.8-8.1h44.8c0.7,0,1.2-0.5,1.2-1.2v-8.6
		c0-0.7-0.5-1.2-1.2-1.2h-46c-10.3,0-18.9,8.2-19,18.4c-0.2,10.5,8.3,19,18.7,19h28.7c4.3,0,7.9,3.3,8,7.6c0.1,4.4-3.4,8.1-7.8,8.1
		h-51.2c-0.7,0-1.2-0.5-1.2-1.2v-33.2c0-10.3-9.9-18.7-20.2-18.7H276h-1.8h-15.6c-10.3,0-18.7,8.4-18.7,18.7v44.1
		c0,0.7,0.5,1.2,1.2,1.2h10c0.7,0,1.2-0.5,1.2-1.2v-44.1c0-4.3,3.5-7.8,7.8-7.8h14.1l0,34.4c0,10.3,8.4,18.7,18.7,18.7H341h7.2h53.5
		c10.3,0,20.3-8.2,20.5-18.4C422.4,226.2,414,217.6,403.5,217.6z M337.3,243c0,0.7-0.5,1.2-1.2,1.2h-41.7c-4.3,0-7.8-3.5-7.8-7.8
		v-33.2c0-0.7,0.5-1.2,1.2-1.2h41.7c4.3,0,7.8,3.5,7.8,7.8V243z"/>
	<path class="st3" d="M25.7,223.3c0.1,17.7,14.7,31.8,32.4,31.8H101c0.7,0,1.2-0.5,1.2-1.2v-61.6c0-0.7-0.5-1.2-1.2-1.2H57.7
		C40,191.1,25.6,205.6,25.7,223.3z M88.6,244.2H59.5c-11.6,0-21.2-9.3-21.4-20.9C38,211.6,47.5,202,59.2,202h29.3
		c0.7,0,1.2,0.5,1.2,1.2V243C89.7,243.7,89.2,244.2,88.6,244.2z"/>
	<path class="st3" d="M211.3,191.1h-15.6c-0.7,0-1.2,0.5-1.2,1.2v8.6c0,0.7,0.5,1.2,1.2,1.2h14.2c4.3,0,7.8,3.5,7.8,7.8v34.4h-67.4
		c-4.3,0-7.9-3.3-8-7.6c-0.1-4.4,3.4-8.1,7.8-8.1h21.8c10.3,0,18.9-8.2,19-18.4c0.2-10.5-8.3-19-18.7-19h-58.8
		c-0.7,0-1.2,0.5-1.2,1.2v61.6c0,0.7,0.5,1.2,1.2,1.2h10c0.7,0,1.2-0.5,1.2-1.2v-50.7c0-0.7,0.5-1.2,1.2-1.2h44.8
		c4.3,0,7.9,3.3,8,7.6c0.1,4.4-3.4,8.1-7.8,8.1h-21.8c-10.3,0-18.9,8.2-19,18.4c-0.2,10.5,8.3,19,18.7,19h80.3
		c0.7,0,1.2-0.5,1.2-1.2v-44.1C230,199.5,221.6,191.1,211.3,191.1z"/>
</g>
</svg>
