<?xml version="1.0" encoding="utf-8"?>
<!-- Generator: Adobe Illustrator 22.0.0, SVG Export Plug-In . SVG Version: 6.00 Build 0)  -->
<svg version="1.1" id="Layer_1" xmlns="http://www.w3.org/2000/svg" xmlns:xlink="http://www.w3.org/1999/xlink" x="0px" y="0px"
	 viewBox="0 0 1523.9 481.8" style="enable-background:new 0 0 1523.9 481.8;" xml:space="preserve">
<style type="text/css">
	.st0{opacity:0;fill:#FFFFFF;fill-opacity:0;}
	.st1{display:none;}
	.st2{display:inline;fill:#13232D;}
	.st3{display:inline;}
	.st4{fill:#2DD3C3;}
	.st5{display:inline;fill:#2DD3C3;}
	.st6{display:inline;fill:#30DDCD;}
	.st7{display:inline;fill:#32E8D6;}
	.st8{display:inline;fill:#34F2E0;}
	.st9{display:inline;fill:#36FDEA;}
	.st10{display:inline;fill:#8AFFF2;}
	.st11{display:inline;fill:#2BC8B9;}
	.st12{display:inline;fill:#1D887E;}
	.st13{display:inline;fill:#229D92;}
	.st14{display:inline;fill:#26B3A5;}
	.st15{display:inline;fill:#061116;}
	.st16{display:inline;fill:#5A656C;}
	.st17{display:inline;fill:#899196;}
	.st18{display:inline;fill:#B8BDC0;}
	.st19{display:inline;fill:#D2D5D6;}
	.st20{display:inline;fill:#E7E9EA;}
	.st21{display:inline;fill:#F3F4F4;}
	.st22{display:inline;fill:#166861;}
	.st23{display:inline;fill:#11564E;}
	.st24{fill:#2BC8B9;}
	.st25{fill:none;stroke:#26B3A5;stroke-width:2;stroke-miterlimit:10;}
	.st26{fill:#5A656C;}
</style>
<rect class="st0" width="1523.9" height="481.8"/>
<g id="Layer_1_1_" class="st1">
	<rect y="1" class="st2" width="2000" height="1250"/>
	<g class="st3">
		<g>
			<path class="st4" d="M1608.7,607.5h-97.4c-14.4,0-26.6-11.3-27.1-25.7c-0.4-15,11.6-27.3,26.5-27.3h152c2.2,0,4-1.8,4-4v-29
				c0-2.2-1.8-4-4-4h-156c-34.8,0-63.9,27.7-64.5,62.5c-0.5,35.5,28.2,64.5,63.5,64.5h97.4c14.4,0,26.6,11.3,27.1,25.7
				c0.4,15-11.6,27.3-26.5,27.3h-173.5c-2.2,0-4-1.8-4-4V581c0-35.1-33.4-63.5-68.5-63.5h-181.3h-6.2h-52.8
				c-35.1,0-63.5,28.4-63.5,63.5v149.5c0,2.2,1.8,4,4,4h34c2.2,0,4-1.8,4-4V581c0-14.6,11.9-26.5,26.5-26.5h47.8V671
				c0,35.1,28.4,63.5,63.5,63.5h163h24.5h181.5c34.8,0,68.9-27.7,69.5-62.5C1672.7,636.5,1644,607.5,1608.7,607.5z M1384.2,693.5
				c0,2.2-1.8,4-4,4h-141.5c-14.6,0-26.5-11.9-26.5-26.5V558.5c0-2.2,1.8-4,4-4h141.5c14.6,0,26.5,11.9,26.5,26.5V693.5z"/>
			<path class="st4" d="M327.8,626.6c0.3,59.9,49.8,107.9,109.7,107.9h145.3c2.2,0,4-1.8,4-4v-209c0-2.2-1.8-4-4-4H436.3
				C376.3,517.5,327.4,566.5,327.8,626.6z M540.8,697.5h-98.6c-39.4,0-72-31.4-72.4-70.8c-0.4-39.7,31.8-72.2,71.5-72.2h99.5
				c2.2,0,4,1.8,4,4v135C544.8,695.7,543,697.5,540.8,697.5z"/>
			<path class="st4" d="M956.9,517.5h-53c-2.2,0-4,1.8-4,4v29c0,2.2,1.8,4,4,4h48c14.6,0,26.5,11.9,26.5,26.5v116.5H749.7
				c-14.4,0-26.6-11.3-27.1-25.7c-0.4-15,11.6-27.3,26.5-27.3h74c34.8,0,63.9-27.7,64.5-62.5c0.5-35.5-28.2-64.5-63.5-64.5H624.6
				c-2.2,0-4,1.8-4,4v209c0,2.2,1.8,4,4,4h34c2.2,0,4-1.8,4-4v-172c0-2.2,1.8-4,4-4h151.9c14.4,0,26.6,11.3,27.1,25.7
				c0.4,15-11.6,27.3-26.5,27.3h-74c-34.8,0-63.9,27.7-64.5,62.5c-0.5,35.5,28.2,64.5,63.5,64.5h272.3c2.2,0,4-1.8,4-4V581
				C1020.4,545.9,991.9,517.5,956.9,517.5z"/>
		</g>
	</g>
	<rect x="-566" y="570.3" class="st5" width="295.7" height="114.2"/>
	<rect x="-470" y="456.5" class="st6" width="199.7" height="114.2"/>
	<rect x="-470" y="342.7" class="st7" width="199.7" height="114.2"/>
	<rect x="-470" y="228.8" class="st8" width="199.7" height="114.2"/>
	<rect x="-470" y="115" class="st9" width="199.7" height="114.2"/>
	<rect x="-470" y="1" class="st10" width="199.7" height="114.2"/>
	<rect x="-470" y="684.5" class="st11" width="199.7" height="114.2"/>
	<rect x="-470" y="1025.7" class="st12" width="199.7" height="114.2"/>
	<rect x="-470" y="911.8" class="st13" width="199.7" height="114.2"/>
	<rect x="-470" y="798" class="st14" width="199.7" height="114.2"/>
	<rect x="-270.1" y="684.5" class="st2" width="199.7" height="114.2"/>
	<rect x="-270.1" y="798.5" class="st15" width="199.7" height="114.2"/>
	<rect x="-270.1" y="570.5" class="st16" width="199.7" height="114.2"/>
	<rect x="-270.1" y="456.5" class="st17" width="199.7" height="114.2"/>
	<rect x="-270.1" y="342.5" class="st18" width="199.7" height="114.2"/>
	<rect x="-270.1" y="228.5" class="st19" width="199.7" height="114.2"/>
	<rect x="-270.1" y="114.5" class="st20" width="199.7" height="114.2"/>
	<rect x="-270.1" y="0.5" class="st21" width="199.7" height="114.2"/>
	<rect x="-470" y="1139.8" class="st22" width="199.7" height="114.2"/>
	<rect x="-470" y="1253.8" class="st23" width="199.7" height="114.2"/>
</g>
<path class="st24" d="M0,197.8c0.5,78.4,65.3,141.3,143.6,141.3h190.3c2.9,0,5.3-2.4,5.3-5.3V60.2c0-2.9-2.4-5.3-5.3-5.3H142.1
	C63.5,54.9-0.5,119.1,0,197.8z M279,290.7H149.8c-51.5,0-94.3-41.1-94.8-92.7c-0.5-52,41.6-94.6,93.6-94.6H279
	c2.9,0,5.3,2.4,5.3,5.3v176.9C284.2,288.3,281.8,290.7,279,290.7z"/>
<rect x="457.3" y="0" class="st24" width="339.2" height="339.2"/>
<rect x="995.2" y="169.6" class="st24" width="169.6" height="169.6"/>
<rect x="1342.2" y="254.4" class="st24" width="84.8" height="84.8"/>
<line class="st25" x1="457.3" y1="408.4" x2="796.5" y2="408.4"/>
<line class="st25" x1="995.5" y1="408.4" x2="1164.8" y2="408.4"/>
<line class="st25" x1="1342.4" y1="408.4" x2="1427" y2="408.4"/>
<line class="st25" x1="854.5" y1="0" x2="854.5" y2="339.2"/>
<line class="st25" x1="0" y1="408.4" x2="339.1" y2="408.4"/>
<g>
	<g>
		<path class="st26" d="M158.8,445.1l8.2-8.9l-7.9-8.6h4.4l4.8,5.2c0.4,0.5,0.7,0.9,0.9,1.2c0.2,0.3,0.3,0.6,0.3,0.9v0.2h0.4v-0.2
			c0-0.3,0.1-0.6,0.3-0.9c0.2-0.3,0.5-0.7,0.9-1.2l4.8-5.2h4.4l-7.9,8.6l8.2,8.9h-4.4l-5-5.5c-0.3-0.4-0.6-0.8-0.8-1.1
			c-0.2-0.3-0.3-0.6-0.3-0.8v-0.2h-0.4v0.2c0,0.3-0.1,0.6-0.3,0.9c-0.2,0.3-0.4,0.6-0.8,1l-5.1,5.5H158.8z"/>
	</g>
</g>
<g>
	<g>
		<path class="st26" d="M616.2,445.1l8.2-8.9l-7.9-8.6h4.4l4.8,5.2c0.4,0.5,0.7,0.9,0.9,1.2c0.2,0.3,0.3,0.6,0.3,0.9v0.2h0.4v-0.2
			c0-0.3,0.1-0.6,0.3-0.9c0.2-0.3,0.5-0.7,0.9-1.2l4.8-5.2h4.4l-7.9,8.6l8.2,8.9h-4.4l-5-5.5c-0.3-0.4-0.6-0.8-0.8-1
			c-0.2-0.3-0.3-0.6-0.3-0.8v-0.2h-0.4v0.2c0,0.3-0.1,0.6-0.3,0.9c-0.2,0.3-0.4,0.6-0.8,1l-5.1,5.5H616.2z"/>
	</g>
</g>
<g>
	<g>
		<path class="st26" d="M872.2,176.1l8.2-8.9l-7.9-8.6h4.3l4.8,5.2c0.4,0.5,0.7,0.9,0.9,1.2c0.2,0.3,0.3,0.6,0.3,0.9v0.2h0.4v-0.2
			c0-0.3,0.1-0.6,0.3-0.9c0.2-0.3,0.5-0.7,0.9-1.2l4.8-5.2h4.3l-7.9,8.6l8.2,8.9h-4.4l-5-5.5c-0.3-0.4-0.6-0.8-0.8-1.1
			c-0.2-0.3-0.3-0.6-0.3-0.8v-0.2h-0.4v0.2c0,0.3-0.1,0.6-0.3,0.9c-0.2,0.3-0.4,0.6-0.8,1l-5,5.5H872.2z"/>
	</g>
</g>
<g>
	<g>
		<path class="st26" d="M1050.6,442.2h6.1v2.9h-16.5v-2.9h7v-6c0-0.9,0.1-1.6,0.2-2.3s0.4-1.7,0.9-2.9h-0.4
			c-0.6,1.7-1.3,2.9-2.3,3.7c-0.9,0.7-2.2,1.1-3.9,1.1h-0.5v-2.9h1c3.5,0,5.2-1.7,5.2-5v-0.2h3.2V442.2z"/>
		<path class="st26" d="M1060.7,448.1h-3.1l10-20.5h3.1L1060.7,448.1z"/>
		<path class="st26" d="M1075.3,442.4h15.2v2.7H1072V442c0-1.7,0.4-3,1.3-3.8c0.9-0.9,1.9-1.4,3.1-1.7c1.2-0.3,2.8-0.4,4.8-0.6
			c1.5-0.1,2.6-0.2,3.4-0.3s1.5-0.4,2-0.8c0.5-0.4,0.8-1,0.8-1.8c0-2.1-2-3.1-6.1-3.1c-2.1,0-3.7,0.4-4.7,1c-1,0.7-1.5,1.6-1.5,2.8
			v0.6h-3.5v-0.6c0-2,0.8-3.6,2.3-4.7c1.6-1.2,4-1.7,7.3-1.7c3.3,0,5.8,0.5,7.3,1.5c1.5,1,2.3,2.4,2.3,4.1c0,1.5-0.4,2.6-1.2,3.3
			s-1.8,1.2-2.9,1.5c-1.1,0.2-2.7,0.4-4.5,0.5c-1.6,0.1-2.8,0.2-3.7,0.4c-0.9,0.2-1.7,0.5-2.3,1c-0.6,0.5-0.9,1.2-0.9,2.2V442.4z"/>
		<path class="st26" d="M1099.6,445.1l8.2-8.9l-7.9-8.6h4.3l4.8,5.2c0.4,0.5,0.7,0.9,0.9,1.2c0.2,0.3,0.3,0.6,0.3,0.9v0.2h0.4v-0.2
			c0-0.3,0.1-0.6,0.3-0.9c0.2-0.3,0.5-0.7,0.9-1.2l4.8-5.2h4.3l-7.9,8.6l8.2,8.9h-4.4l-5-5.5c-0.3-0.4-0.6-0.8-0.8-1.1
			c-0.2-0.3-0.3-0.6-0.3-0.8v-0.2h-0.4v0.2c0,0.3-0.1,0.6-0.3,0.9c-0.2,0.3-0.4,0.6-0.8,1l-5,5.5H1099.6z"/>
	</g>
</g>
<g>
	<g>
		<path class="st26" d="M1356.1,442.2h6.1v2.9h-16.5v-2.9h7v-6c0-0.9,0.1-1.6,0.2-2.3s0.4-1.7,0.9-2.9h-0.4
			c-0.6,1.7-1.3,2.9-2.3,3.7c-0.9,0.7-2.2,1.1-3.9,1.1h-0.5v-2.9h1c3.5,0,5.2-1.7,5.2-5v-0.2h3.2V442.2z"/>
		<path class="st26" d="M1366.2,448.1h-3.1l10-20.5h3.1L1366.2,448.1z"/>
		<path class="st26" d="M1391.3,439.1h3.6v2.8h-3.6v3.3h-3.5v-3.3h-12.4v-2.7l10.6-11.5h5.3V439.1z M1379.7,438.7v0.3h8.3v-6.3
			c0-0.7,0-1.3,0.1-1.9c0.1-0.6,0.2-1.2,0.4-1.9h-0.4c-0.3,0.6-0.6,1.2-0.9,1.7c-0.3,0.5-0.7,1-1.2,1.5L1379.7,438.7z"/>
		<path class="st26" d="M1403.3,445.1l8.2-8.9l-7.9-8.6h4.4l4.8,5.2c0.4,0.5,0.7,0.9,0.9,1.2c0.2,0.3,0.3,0.6,0.3,0.9v0.2h0.4v-0.2
			c0-0.3,0.1-0.6,0.3-0.9c0.2-0.3,0.5-0.7,0.9-1.2l4.8-5.2h4.3l-7.9,8.6l8.2,8.9h-4.4l-5-5.5c-0.3-0.4-0.6-0.8-0.8-1.1
			c-0.2-0.3-0.3-0.6-0.3-0.8v-0.2h-0.4v0.2c0,0.3-0.1,0.6-0.3,0.9c-0.2,0.3-0.4,0.6-0.8,1l-5.1,5.5H1403.3z"/>
	</g>
</g>
</svg>
