<?xml version="1.0" encoding="utf-8"?>
<!-- Generator: Adobe Illustrator 22.0.0, SVG Export Plug-In . SVG Version: 6.00 Build 0)  -->
<svg version="1.1" id="Layer_1" xmlns="http://www.w3.org/2000/svg" xmlns:xlink="http://www.w3.org/1999/xlink" x="0px" y="0px"
	 viewBox="0 0 1525.8 603.9" style="enable-background:new 0 0 1525.8 603.9;" xml:space="preserve">
<style type="text/css">
	.st0{opacity:0;fill:#FFFFFF;}
	.st1{display:none;}
	.st2{display:inline;fill:#13232D;}
	.st3{display:inline;}
	.st4{fill:#2DD3C3;}
	.st5{display:inline;fill:#2DD3C3;}
	.st6{display:inline;fill:#30DDCD;}
	.st7{display:inline;fill:#32E8D6;}
	.st8{display:inline;fill:#34F2E0;}
	.st9{display:inline;fill:#36FDEA;}
	.st10{display:inline;fill:#8AFFF2;}
	.st11{display:inline;fill:#2BC8B9;}
	.st12{display:inline;fill:#1D887E;}
	.st13{display:inline;fill:#229D92;}
	.st14{display:inline;fill:#26B3A5;}
	.st15{display:inline;fill:#061116;}
	.st16{display:inline;fill:#5A656C;}
	.st17{display:inline;fill:#899196;}
	.st18{display:inline;fill:#B8BDC0;}
	.st19{display:inline;fill:#D2D5D6;}
	.st20{display:inline;fill:#E7E9EA;}
	.st21{display:inline;fill:#F3F4F4;}
	.st22{display:inline;fill:#166861;}
	.st23{display:inline;fill:#11564E;}
	.st24{fill:#D2D5D6;}
	.st25{fill:none;stroke:#30DDCD;stroke-miterlimit:10;}
	.st26{fill:#2BC8B9;}
	.st27{fill:none;stroke:#26B3A5;stroke-width:2;stroke-miterlimit:10;}
	.st28{fill:none;stroke:#26B3A5;stroke-miterlimit:10;}
</style>
<rect x="1" class="st0" width="1523.9" height="603"/>
<g id="Layer_1_1_" class="st1">
	<rect x="1" y="1" class="st2" width="2000" height="1250"/>
	<g class="st3">
		<g>
			<path class="st4" d="M1609.7,607.5h-97.4c-14.4,0-26.6-11.3-27.1-25.7c-0.4-15,11.6-27.3,26.5-27.3h152c2.2,0,4-1.8,4-4v-29
				c0-2.2-1.8-4-4-4h-156c-34.8,0-63.9,27.7-64.5,62.5c-0.5,35.5,28.2,64.5,63.5,64.5h97.4c14.4,0,26.6,11.3,27.1,25.7
				c0.4,15-11.6,27.3-26.5,27.3h-173.5c-2.2,0-4-1.8-4-4V581c0-35.1-33.4-63.5-68.5-63.5h-181.3h-6.2h-52.8
				c-35.1,0-63.5,28.4-63.5,63.5v149.5c0,2.2,1.8,4,4,4h34c2.2,0,4-1.8,4-4V581c0-14.6,11.9-26.5,26.5-26.5h47.8V671
				c0,35.1,28.4,63.5,63.5,63.5h163h24.5h181.5c34.8,0,68.9-27.7,69.5-62.5C1673.7,636.5,1645,607.5,1609.7,607.5z M1385.2,693.5
				c0,2.2-1.8,4-4,4h-141.5c-14.6,0-26.5-11.9-26.5-26.5V558.5c0-2.2,1.8-4,4-4h141.5c14.6,0,26.5,11.9,26.5,26.5V693.5z"/>
			<path class="st4" d="M328.8,626.6c0.3,59.9,49.8,107.9,109.7,107.9h145.3c2.2,0,4-1.8,4-4v-209c0-2.2-1.8-4-4-4H437.3
				C377.3,517.5,328.4,566.5,328.8,626.6z M541.8,697.5h-98.6c-39.4,0-72-31.4-72.4-70.8c-0.4-39.7,31.8-72.2,71.5-72.2h99.5
				c2.2,0,4,1.8,4,4v135C545.8,695.7,544,697.5,541.8,697.5z"/>
			<path class="st4" d="M957.9,517.5h-53c-2.2,0-4,1.8-4,4v29c0,2.2,1.8,4,4,4h48c14.6,0,26.5,11.9,26.5,26.5v116.5H750.7
				c-14.4,0-26.6-11.3-27.1-25.7c-0.4-15,11.6-27.3,26.5-27.3h74c34.8,0,63.9-27.7,64.5-62.5c0.5-35.5-28.2-64.5-63.5-64.5H625.6
				c-2.2,0-4,1.8-4,4v209c0,2.2,1.8,4,4,4h34c2.2,0,4-1.8,4-4v-172c0-2.2,1.8-4,4-4h151.9c14.4,0,26.6,11.3,27.1,25.7
				c0.4,15-11.6,27.3-26.5,27.3h-74c-34.8,0-63.9,27.7-64.5,62.5c-0.5,35.5,28.2,64.5,63.5,64.5h272.3c2.2,0,4-1.8,4-4V581
				C1021.4,545.9,992.9,517.5,957.9,517.5z"/>
		</g>
	</g>
	<rect x="-565" y="570.3" class="st5" width="295.7" height="114.2"/>
	<rect x="-469" y="456.5" class="st6" width="199.7" height="114.2"/>
	<rect x="-469" y="342.7" class="st7" width="199.7" height="114.2"/>
	<rect x="-469" y="228.8" class="st8" width="199.7" height="114.2"/>
	<rect x="-469" y="115" class="st9" width="199.7" height="114.2"/>
	<rect x="-469" y="1" class="st10" width="199.7" height="114.2"/>
	<rect x="-469" y="684.5" class="st11" width="199.7" height="114.2"/>
	<rect x="-469" y="1025.7" class="st12" width="199.7" height="114.2"/>
	<rect x="-469" y="911.8" class="st13" width="199.7" height="114.2"/>
	<rect x="-469" y="798" class="st14" width="199.7" height="114.2"/>
	<rect x="-269.1" y="684.5" class="st2" width="199.7" height="114.2"/>
	<rect x="-269.1" y="798.5" class="st15" width="199.7" height="114.2"/>
	<rect x="-269.1" y="570.5" class="st16" width="199.7" height="114.2"/>
	<rect x="-269.1" y="456.5" class="st17" width="199.7" height="114.2"/>
	<rect x="-269.1" y="342.5" class="st18" width="199.7" height="114.2"/>
	<rect x="-269.1" y="228.5" class="st19" width="199.7" height="114.2"/>
	<rect x="-269.1" y="114.5" class="st20" width="199.7" height="114.2"/>
	<rect x="-269.1" y="0.5" class="st21" width="199.7" height="114.2"/>
	<rect x="-469" y="1139.8" class="st22" width="199.7" height="114.2"/>
	<rect x="-469" y="1253.8" class="st23" width="199.7" height="114.2"/>
</g>
<g id="border">
	<g>
		<path class="st24" d="M1,302.5c0.3,49,40.8,88.3,89.7,88.3h118.9c1.8,0,3.3-1.5,3.3-3.3v-171c0-1.8-1.5-3.3-3.3-3.3H89.8
			C40.7,213.2,0.7,253.3,1,302.5z M175.3,360.5H94.6c-32.2,0-58.9-25.7-59.2-57.9c-0.3-32.5,26-59.1,58.5-59.1h81.4
			c1.8,0,3.3,1.5,3.3,3.3v110.5C178.5,359,177.1,360.5,175.3,360.5z"/>
		<path class="st24" d="M1312.9,302.5c0.3,49,40.8,88.3,89.7,88.3h118.9c1.8,0,3.3-1.5,3.3-3.3v-171c0-1.8-1.5-3.3-3.3-3.3h-119.9
			C1352.6,213.2,1312.6,253.3,1312.9,302.5z M1487.2,360.5h-80.7c-32.2,0-58.9-25.7-59.2-57.9c-0.3-32.5,26-59.1,58.5-59.1h81.4
			c1.8,0,3.3,1.5,3.3,3.3v110.5C1490.5,359,1489,360.5,1487.2,360.5z"/>
		<path class="st24" d="M301.2,1c-49,0.3-88.3,40.8-88.3,89.7v118.9c0,1.8,1.5,3.3,3.3,3.3h171c1.8,0,3.3-1.5,3.3-3.3V89.8
			C390.5,40.7,350.4,0.7,301.2,1z M243.2,175.3V94.6c0-32.2,25.7-58.9,57.9-59.2c32.5-0.3,59.1,26,59.1,58.5v81.4
			c0,1.8-1.5,3.3-3.3,3.3H246.5C244.7,178.5,243.2,177.1,243.2,175.3z"/>
		<path class="st24" d="M301.2,391c-49,0.3-88.3,40.8-88.3,89.7v118.9c0,1.8,1.5,3.3,3.3,3.3h171c1.8,0,3.3-1.5,3.3-3.3V479.8
			C390.5,430.7,350.4,390.7,301.2,391z M243.2,565.3v-80.7c0-32.2,25.7-58.9,57.9-59.2c32.5-0.3,59.1,26,59.1,58.5v81.4
			c0,1.8-1.5,3.3-3.3,3.3H246.5C244.7,568.5,243.2,567.1,243.2,565.3z"/>
		<g>
			<rect x="1" y="1" class="st25" width="1523.9" height="602"/>
			<line class="st25" x1="1" y1="572.9" x2="1524.9" y2="572.9"/>
			<line class="st25" x1="1" y1="542.8" x2="1524.9" y2="542.8"/>
			<line class="st25" x1="1" y1="512.7" x2="1524.9" y2="512.7"/>
			<line class="st25" x1="1" y1="482.6" x2="1524.9" y2="482.6"/>
			<line class="st25" x1="1" y1="452.5" x2="1524.9" y2="452.5"/>
			<line class="st25" x1="1" y1="422.4" x2="1524.9" y2="422.4"/>
			<line class="st25" x1="1" y1="392.3" x2="1524.9" y2="392.3"/>
			<line class="st25" x1="1" y1="362.2" x2="1524.9" y2="362.2"/>
			<line class="st25" x1="1" y1="332.1" x2="1524.9" y2="332.1"/>
			<line class="st25" x1="1" y1="302" x2="1524.9" y2="302"/>
			<line class="st25" x1="1" y1="271.9" x2="1524.9" y2="271.9"/>
			<line class="st25" x1="1" y1="241.8" x2="1524.9" y2="241.8"/>
			<line class="st25" x1="1" y1="211.7" x2="1524.9" y2="211.7"/>
			<line class="st25" x1="1" y1="181.6" x2="1524.9" y2="181.6"/>
			<line class="st25" x1="1" y1="151.5" x2="1524.9" y2="151.5"/>
			<line class="st25" x1="1" y1="121.4" x2="1524.9" y2="121.4"/>
			<line class="st25" x1="1" y1="91.3" x2="1524.9" y2="91.3"/>
			<line class="st25" x1="1" y1="61.2" x2="1524.9" y2="61.2"/>
			<line class="st25" x1="1" y1="31.1" x2="1524.9" y2="31.1"/>
			<line class="st25" x1="1494.4" y1="1" x2="1494.4" y2="603"/>
			<line class="st25" x1="1464" y1="1" x2="1464" y2="603"/>
			<line class="st25" x1="1433.5" y1="1" x2="1433.5" y2="603"/>
			<line class="st25" x1="1403" y1="1" x2="1403" y2="603"/>
			<line class="st25" x1="1372.5" y1="1" x2="1372.5" y2="603"/>
			<line class="st25" x1="1342" y1="1" x2="1342" y2="603"/>
			<line class="st25" x1="1311.6" y1="1" x2="1311.6" y2="603"/>
			<line class="st25" x1="1281.1" y1="1" x2="1281.1" y2="603"/>
			<line class="st25" x1="1250.6" y1="1" x2="1250.6" y2="603"/>
			<line class="st25" x1="1220.1" y1="1" x2="1220.1" y2="603"/>
			<line class="st25" x1="1189.7" y1="1" x2="1189.7" y2="603"/>
			<line class="st25" x1="1159.2" y1="1" x2="1159.2" y2="603"/>
			<line class="st25" x1="1128.7" y1="1" x2="1128.7" y2="603"/>
			<line class="st25" x1="1098.2" y1="1" x2="1098.2" y2="603"/>
			<line class="st25" x1="1067.7" y1="1" x2="1067.7" y2="603"/>
			<line class="st25" x1="1037.3" y1="1" x2="1037.3" y2="603"/>
			<line class="st25" x1="1006.8" y1="1" x2="1006.8" y2="603"/>
			<line class="st25" x1="976.3" y1="1" x2="976.3" y2="603"/>
			<line class="st25" x1="945.8" y1="1" x2="945.8" y2="603"/>
			<line class="st25" x1="915.3" y1="1" x2="915.3" y2="603"/>
			<line class="st25" x1="884.9" y1="1" x2="884.9" y2="603"/>
			<line class="st25" x1="854.4" y1="1" x2="854.4" y2="603"/>
			<line class="st25" x1="823.9" y1="1" x2="823.9" y2="603"/>
			<line class="st25" x1="793.4" y1="1" x2="793.4" y2="603"/>
			<line class="st25" x1="763" y1="1" x2="763" y2="603"/>
			<line class="st25" x1="732.5" y1="1" x2="732.5" y2="603"/>
			<line class="st25" x1="702" y1="1" x2="702" y2="603"/>
			<line class="st25" x1="671.5" y1="1" x2="671.5" y2="603"/>
			<line class="st25" x1="641" y1="1" x2="641" y2="603"/>
			<line class="st25" x1="610.6" y1="1" x2="610.6" y2="603"/>
			<line class="st25" x1="580.1" y1="1" x2="580.1" y2="603"/>
			<line class="st25" x1="549.6" y1="1" x2="549.6" y2="603"/>
			<line class="st25" x1="519.1" y1="1" x2="519.1" y2="603"/>
			<line class="st25" x1="488.7" y1="1" x2="488.7" y2="603"/>
			<line class="st25" x1="458.2" y1="1" x2="458.2" y2="603"/>
			<line class="st25" x1="427.7" y1="1" x2="427.7" y2="603"/>
			<line class="st25" x1="397.2" y1="1" x2="397.2" y2="603"/>
			<line class="st25" x1="366.7" y1="1" x2="366.7" y2="603"/>
			<line class="st25" x1="336.3" y1="1" x2="336.3" y2="603"/>
			<line class="st25" x1="305.8" y1="1" x2="305.8" y2="603"/>
			<line class="st25" x1="275.3" y1="1" x2="275.3" y2="603"/>
			<line class="st25" x1="244.8" y1="1" x2="244.8" y2="603"/>
			<line class="st25" x1="214.3" y1="1" x2="214.3" y2="603"/>
			<line class="st25" x1="183.9" y1="1" x2="183.9" y2="603"/>
			<line class="st25" x1="153.4" y1="1" x2="153.4" y2="603"/>
			<line class="st25" x1="122.9" y1="1" x2="122.9" y2="603"/>
			<line class="st25" x1="92.4" y1="1" x2="92.4" y2="603"/>
			<line class="st25" x1="62" y1="1" x2="62" y2="603"/>
			<line class="st25" x1="31.5" y1="1" x2="31.5" y2="603"/>
		</g>
		<path class="st26" d="M1261,286.8h-79.7c-11.8,0-21.8-9.2-22.1-21c-0.4-12.3,9.5-22.3,21.7-22.3h124.4c1.8,0,3.3-1.5,3.3-3.3
			v-23.7c0-1.8-1.5-3.3-3.3-3.3h-127.7c-28.5,0-52.3,22.6-52.7,51.1c-0.4,29,23,52.8,51.9,52.8h79.7c11.8,0,21.8,9.2,22.1,21
			c0.4,12.3-9.5,22.3-21.7,22.3h-142c-1.8,0-3.3-1.5-3.3-3.3v-92c0-28.7-27.4-52-56-52H907.2h-5H859c-28.7,0-52,23.3-52,52v122.3
			c0,1.8,1.5,3.3,3.3,3.3h27.8c1.8,0,3.3-1.5,3.3-3.3V265.1c0-12,9.7-21.7,21.7-21.7h39.1v95.3c0,28.7,23.3,52,52,52h133.4h20h148.5
			c28.5,0,56.4-22.6,56.8-51.1C1313.3,310.6,1289.9,286.8,1261,286.8z M1077.3,357.2c0,1.8-1.5,3.3-3.3,3.3H958.2
			c-12,0-21.7-9.7-21.7-21.7v-92c0-1.8,1.5-3.3,3.3-3.3h115.8c12,0,21.7,9.7,21.7,21.7L1077.3,357.2L1077.3,357.2z"/>
		<path class="st26" d="M212.9,302.5c0.3,49,40.8,88.3,89.7,88.3h118.9c1.8,0,3.3-1.5,3.3-3.3v-171c0-1.8-1.5-3.3-3.3-3.3H301.7
			C252.6,213.2,212.6,253.3,212.9,302.5z M387.2,360.5h-80.7c-32.2,0-58.9-25.7-59.2-57.9c-0.3-32.5,26-59.1,58.5-59.1h81.4
			c1.8,0,3.3,1.5,3.3,3.3v110.5C390.5,359,389,360.5,387.2,360.5z"/>
		<path class="st26" d="M727.6,213.2h-43.4c-1.8,0-3.3,1.5-3.3,3.3v23.7c0,1.8,1.5,3.3,3.3,3.3h39.3c12,0,21.7,9.7,21.7,21.7v95.3
			H558.1c-11.8,0-21.8-9.2-22.1-21c-0.4-12.3,9.5-22.3,21.7-22.3h60.6c28.5,0,52.3-22.6,52.7-51.1c0.4-29-23-52.8-51.9-52.8H455.8
			c-1.8,0-3.3,1.5-3.3,3.3v171c0,1.8,1.5,3.3,3.3,3.3h27.8c1.8,0,3.3-1.5,3.3-3.3V246.7c0-1.8,1.5-3.3,3.3-3.3h124.3
			c11.8,0,21.8,9.2,22.1,21c0.4,12.3-9.5,22.3-21.7,22.3h-60.6c-28.5,0-52.3,22.6-52.7,51.1c-0.4,29,23,52.8,51.9,52.8h222.8
			c1.8,0,3.3-1.5,3.3-3.3V265.1C779.6,236.4,756.3,213.2,727.6,213.2z"/>
		<line class="st27" x1="212.9" y1="1" x2="212.9" y2="602.9"/>
		<line class="st27" x1="1312.9" y1="1" x2="1312.9" y2="602.9"/>
		<line class="st27" x1="1524.8" y1="1" x2="1524.8" y2="602.9"/>
		<line class="st27" x1="1" y1="1" x2="1" y2="602.9"/>
		<line class="st27" x1="1524.4" y1="1" x2="1" y2="1"/>
		<line class="st27" x1="1524.4" y1="213.2" x2="1" y2="213.2"/>
		<line class="st28" x1="1524.4" y1="390.7" x2="1" y2="390.7"/>
		<line class="st27" x1="1524.4" y1="602.9" x2="1" y2="602.9"/>
	</g>
</g>
</svg>
