<?xml version="1.0" encoding="utf-8"?>
<!-- Generator: Adobe Illustrator 22.0.0, SVG Export Plug-In . SVG Version: 6.00 Build 0)  -->
<svg version="1.1" id="artos_x5F_logotype" xmlns="http://www.w3.org/2000/svg" xmlns:xlink="http://www.w3.org/1999/xlink" x="0px"
	 y="0px" viewBox="0 0 1485.1 1157.8" style="enable-background:new 0 0 1485.1 1157.8;" xml:space="preserve">
<style type="text/css">
	.st0{fill:none;stroke:#2BC8B9;stroke-width:2;stroke-miterlimit:10;}
	.st1{opacity:0;fill:#13232D;}
	.st2{fill:#2BC8B9;}
</style>
<rect x="1" y="1" class="st0" width="600" height="851"/>
<rect x="633.1" y="635.5" class="st0" width="521.3" height="521.3"/>
<rect x="758.6" y="-124.5" transform="matrix(-1.836970e-16 1 -1 -1.836970e-16 1359.5697 -757.5696)" class="st0" width="600" height="851"/>
<g>
	<rect x="1" y="1" class="st1" width="202.5" height="80.1"/>
	<g>
		<path class="st2" d="M168.3,39.1h-10.6c-1.6,0-2.9-1.2-2.9-2.8c0-1.6,1.3-3,2.9-3h16.5c0.2,0,0.4-0.2,0.4-0.4v-3.1
			c0-0.2-0.2-0.4-0.4-0.4h-16.9c-3.8,0-6.9,3-7,6.8c-0.1,3.8,3.1,7,6.9,7h10.6c1.6,0,2.9,1.2,2.9,2.8c0,1.6-1.3,3-2.9,3h-18.8
			c-0.2,0-0.4-0.2-0.4-0.4V36.2c0-3.8-3.6-6.9-7.4-6.9h-19.7h-0.7H115c-3.8,0-6.9,3.1-6.9,6.9v16.2c0,0.2,0.2,0.4,0.4,0.4h3.7
			c0.2,0,0.4-0.2,0.4-0.4V36.2c0-1.6,1.3-2.9,2.9-2.9h5.2l0,12.6c0,3.8,3.1,6.9,6.9,6.9h17.7h2.7h19.7c3.8,0,7.5-3,7.5-6.8
			C175.3,42.2,172.1,39.1,168.3,39.1z M143.9,48.4c0,0.2-0.2,0.4-0.4,0.4h-15.4c-1.6,0-2.9-1.3-2.9-2.9V33.7c0-0.2,0.2-0.4,0.4-0.4
			h15.4c1.6,0,2.9,1.3,2.9,2.9V48.4z"/>
		<path class="st2" d="M29.2,41.1c0,6.5,5.4,11.7,11.9,11.7l15.8,0c0.2,0,0.4-0.2,0.4-0.4V29.7c0-0.2-0.2-0.4-0.4-0.4H41
			C34.5,29.3,29.2,34.6,29.2,41.1z M52.4,48.8H41.7c-4.3,0-7.8-3.4-7.9-7.7c0-4.3,3.5-7.8,7.8-7.8h10.8c0.2,0,0.4,0.2,0.4,0.4v14.7
			C52.8,48.6,52.6,48.8,52.4,48.8z"/>
		<path class="st2" d="M97.5,29.3h-5.8c-0.2,0-0.4,0.2-0.4,0.4v3.1c0,0.2,0.2,0.4,0.4,0.4H97c1.6,0,2.9,1.3,2.9,2.9v12.6H75
			c-1.6,0-2.9-1.2-2.9-2.8c0-1.6,1.3-3,2.9-3h8c3.8,0,6.9-3,7-6.8c0.1-3.8-3.1-7-6.9-7H61.5c-0.2,0-0.4,0.2-0.4,0.4v22.7
			c0,0.2,0.2,0.4,0.4,0.4h3.7c0.2,0,0.4-0.2,0.4-0.4V33.7c0-0.2,0.2-0.4,0.4-0.4h16.5c1.6,0,2.9,1.2,2.9,2.8c0,1.6-1.3,3-2.9,3h-8
			c-3.8,0-6.9,3-7,6.8c-0.1,3.8,3.1,7,6.9,7H104c0.2,0,0.4-0.2,0.4-0.4V36.2C104.4,32.4,101.3,29.3,97.5,29.3z"/>
	</g>
</g>
<g>
	<rect x="398.5" y="1" class="st1" width="202.5" height="80.1"/>
	<g>
		<path class="st2" d="M565.8,39.1h-10.6c-1.6,0-2.9-1.2-2.9-2.8c0-1.6,1.3-3,2.9-3h16.5c0.2,0,0.4-0.2,0.4-0.4v-3.1
			c0-0.2-0.2-0.4-0.4-0.4h-16.9c-3.8,0-6.9,3-7,6.8c-0.1,3.8,3.1,7,6.9,7h10.6c1.6,0,2.9,1.2,2.9,2.8c0,1.6-1.3,3-2.9,3h-18.8
			c-0.2,0-0.4-0.2-0.4-0.4V36.2c0-3.8-3.6-6.9-7.4-6.9h-19.7h-0.7h-5.7c-3.8,0-6.9,3.1-6.9,6.9v16.2c0,0.2,0.2,0.4,0.4,0.4h3.7
			c0.2,0,0.4-0.2,0.4-0.4V36.2c0-1.6,1.3-2.9,2.9-2.9h5.2l0,12.6c0,3.8,3.1,6.9,6.9,6.9h17.7h2.7h19.7c3.8,0,7.5-3,7.5-6.8
			C572.8,42.2,569.7,39.1,565.8,39.1z M541.5,48.4c0,0.2-0.2,0.4-0.4,0.4h-15.4c-1.6,0-2.9-1.3-2.9-2.9V33.7c0-0.2,0.2-0.4,0.4-0.4
			h15.4c1.6,0,2.9,1.3,2.9,2.9V48.4z"/>
		<path class="st2" d="M426.8,41.1c0,6.5,5.4,11.7,11.9,11.7l15.8,0c0.2,0,0.4-0.2,0.4-0.4V29.7c0-0.2-0.2-0.4-0.4-0.4h-15.9
			C432,29.3,426.7,34.6,426.8,41.1z M449.9,48.8h-10.7c-4.3,0-7.8-3.4-7.9-7.7c0-4.3,3.5-7.8,7.8-7.8h10.8c0.2,0,0.4,0.2,0.4,0.4
			v14.7C450.3,48.6,450.1,48.8,449.9,48.8z"/>
		<path class="st2" d="M495.1,29.3h-5.8c-0.2,0-0.4,0.2-0.4,0.4v3.1c0,0.2,0.2,0.4,0.4,0.4h5.2c1.6,0,2.9,1.3,2.9,2.9v12.6h-24.8
			c-1.6,0-2.9-1.2-2.9-2.8c0-1.6,1.3-3,2.9-3h8c3.8,0,6.9-3,7-6.8c0.1-3.8-3.1-7-6.9-7H459c-0.2,0-0.4,0.2-0.4,0.4v22.7
			c0,0.2,0.2,0.4,0.4,0.4h3.7c0.2,0,0.4-0.2,0.4-0.4V33.7c0-0.2,0.2-0.4,0.4-0.4h16.5c1.6,0,2.9,1.2,2.9,2.8c0,1.6-1.3,3-2.9,3h-8
			c-3.8,0-6.9,3-7,6.8c-0.1,3.8,3.1,7,6.9,7h29.6c0.2,0,0.4-0.2,0.4-0.4V36.2C502,32.4,498.9,29.3,495.1,29.3z"/>
	</g>
</g>
<g>
	<rect x="633.1" y="1" class="st1" width="202.5" height="80.1"/>
	<g>
		<path class="st2" d="M800.4,39.1h-10.6c-1.6,0-2.9-1.2-2.9-2.8c0-1.6,1.3-3,2.9-3h16.5c0.2,0,0.4-0.2,0.4-0.4v-3.1
			c0-0.2-0.2-0.4-0.4-0.4h-16.9c-3.8,0-6.9,3-7,6.8c-0.1,3.8,3.1,7,6.9,7h10.6c1.6,0,2.9,1.2,2.9,2.8c0,1.6-1.3,3-2.9,3H781
			c-0.2,0-0.4-0.2-0.4-0.4V36.2c0-3.8-3.6-6.9-7.4-6.9h-19.7h-0.7H747c-3.8,0-6.9,3.1-6.9,6.9v16.2c0,0.2,0.2,0.4,0.4,0.4h3.7
			c0.2,0,0.4-0.2,0.4-0.4V36.2c0-1.6,1.3-2.9,2.9-2.9h5.2l0,12.6c0,3.8,3.1,6.9,6.9,6.9h17.7h2.7h19.7c3.8,0,7.5-3,7.5-6.8
			C807.3,42.2,804.2,39.1,800.4,39.1z M776,48.4c0,0.2-0.2,0.4-0.4,0.4h-15.4c-1.6,0-2.9-1.3-2.9-2.9V33.7c0-0.2,0.2-0.4,0.4-0.4
			h15.4c1.6,0,2.9,1.3,2.9,2.9V48.4z"/>
		<path class="st2" d="M661.3,41.1c0,6.5,5.4,11.7,11.9,11.7l15.8,0c0.2,0,0.4-0.2,0.4-0.4V29.7c0-0.2-0.2-0.4-0.4-0.4h-15.9
			C666.6,29.3,661.3,34.6,661.3,41.1z M684.4,48.8h-10.7c-4.3,0-7.8-3.4-7.9-7.7c0-4.3,3.5-7.8,7.8-7.8h10.8c0.2,0,0.4,0.2,0.4,0.4
			v14.7C684.9,48.6,684.7,48.8,684.4,48.8z"/>
		<path class="st2" d="M729.6,29.3h-5.8c-0.2,0-0.4,0.2-0.4,0.4v3.1c0,0.2,0.2,0.4,0.4,0.4h5.2c1.6,0,2.9,1.3,2.9,2.9v12.6h-24.8
			c-1.6,0-2.9-1.2-2.9-2.8c0-1.6,1.3-3,2.9-3h8c3.8,0,6.9-3,7-6.8c0.1-3.8-3.1-7-6.9-7h-21.7c-0.2,0-0.4,0.2-0.4,0.4v22.7
			c0,0.2,0.2,0.4,0.4,0.4h3.7c0.2,0,0.4-0.2,0.4-0.4V33.7c0-0.2,0.2-0.4,0.4-0.4h16.5c1.6,0,2.9,1.2,2.9,2.8c0,1.6-1.3,3-2.9,3h-8
			c-3.8,0-6.9,3-7,6.8c-0.1,3.8,3.1,7,6.9,7h29.6c0.2,0,0.4-0.2,0.4-0.4V36.2C736.5,32.4,733.4,29.3,729.6,29.3z"/>
	</g>
</g>
<g>
	<rect x="633.1" y="635.5" class="st1" width="202.5" height="80.1"/>
	<g>
		<path class="st2" d="M800.4,673.5h-10.6c-1.6,0-2.9-1.2-2.9-2.8c0-1.6,1.3-3,2.9-3h16.5c0.2,0,0.4-0.2,0.4-0.4v-3.1
			c0-0.2-0.2-0.4-0.4-0.4h-16.9c-3.8,0-6.9,3-7,6.8c-0.1,3.8,3.1,7,6.9,7h10.6c1.6,0,2.9,1.2,2.9,2.8c0,1.6-1.3,3-2.9,3H781
			c-0.2,0-0.4-0.2-0.4-0.4v-12.2c0-3.8-3.6-6.9-7.4-6.9h-19.7h-0.7H747c-3.8,0-6.9,3.1-6.9,6.9v16.2c0,0.2,0.2,0.4,0.4,0.4h3.7
			c0.2,0,0.4-0.2,0.4-0.4v-16.2c0-1.6,1.3-2.9,2.9-2.9h5.2l0,12.6c0,3.8,3.1,6.9,6.9,6.9h17.7h2.7h19.7c3.8,0,7.5-3,7.5-6.8
			C807.3,676.7,804.2,673.5,800.4,673.5z M776,682.9c0,0.2-0.2,0.4-0.4,0.4h-15.4c-1.6,0-2.9-1.3-2.9-2.9v-12.2
			c0-0.2,0.2-0.4,0.4-0.4h15.4c1.6,0,2.9,1.3,2.9,2.9V682.9z"/>
		<path class="st2" d="M661.3,675.6c0,6.5,5.4,11.7,11.9,11.7H689c0.2,0,0.4-0.2,0.4-0.4v-22.7c0-0.2-0.2-0.4-0.4-0.4h-15.9
			C666.6,663.8,661.3,669.1,661.3,675.6z M684.4,683.3h-10.7c-4.3,0-7.8-3.4-7.9-7.7c0-4.3,3.5-7.8,7.8-7.8h10.8
			c0.2,0,0.4,0.2,0.4,0.4v14.7C684.9,683.1,684.7,683.3,684.4,683.3z"/>
		<path class="st2" d="M729.6,663.8h-5.8c-0.2,0-0.4,0.2-0.4,0.4v3.1c0,0.2,0.2,0.4,0.4,0.4h5.2c1.6,0,2.9,1.3,2.9,2.9v12.6h-24.8
			c-1.6,0-2.9-1.2-2.9-2.8c0-1.6,1.3-3,2.9-3h8c3.8,0,6.9-3,7-6.8c0.1-3.8-3.1-7-6.9-7h-21.7c-0.2,0-0.4,0.2-0.4,0.4v22.7
			c0,0.2,0.2,0.4,0.4,0.4h3.7c0.2,0,0.4-0.2,0.4-0.4v-18.7c0-0.2,0.2-0.4,0.4-0.4h16.5c1.6,0,2.9,1.2,2.9,2.8c0,1.6-1.3,3-2.9,3h-8
			c-3.8,0-6.9,3-7,6.8c-0.1,3.8,3.1,7,6.9,7h29.6c0.2,0,0.4-0.2,0.4-0.4v-16.2C736.5,666.8,733.4,663.8,729.6,663.8z"/>
	</g>
</g>
<g>
	<rect x="951.9" y="635.5" class="st1" width="202.5" height="80.1"/>
	<g>
		<path class="st2" d="M1119.2,673.5h-10.6c-1.6,0-2.9-1.2-2.9-2.8c0-1.6,1.3-3,2.9-3h16.5c0.2,0,0.4-0.2,0.4-0.4v-3.1
			c0-0.2-0.2-0.4-0.4-0.4h-16.9c-3.8,0-6.9,3-7,6.8c-0.1,3.8,3.1,7,6.9,7h10.6c1.6,0,2.9,1.2,2.9,2.8c0,1.6-1.3,3-2.9,3h-18.8
			c-0.2,0-0.4-0.2-0.4-0.4v-12.2c0-3.8-3.6-6.9-7.4-6.9h-19.7h-0.7h-5.7c-3.8,0-6.9,3.1-6.9,6.9v16.2c0,0.2,0.2,0.4,0.4,0.4h3.7
			c0.2,0,0.4-0.2,0.4-0.4v-16.2c0-1.6,1.3-2.9,2.9-2.9h5.2v12.6c0,3.8,3.1,6.9,6.9,6.9h17.7h2.7h19.7c3.8,0,7.5-3,7.5-6.8
			C1126.1,676.7,1123,673.5,1119.2,673.5z M1094.8,682.9c0,0.2-0.2,0.4-0.4,0.4H1079c-1.6,0-2.9-1.3-2.9-2.9v-12.2
			c0-0.2,0.2-0.4,0.4-0.4h15.4c1.6,0,2.9,1.3,2.9,2.9V682.9z"/>
		<path class="st2" d="M980.1,675.6c0,6.5,5.4,11.7,11.9,11.7h15.8c0.2,0,0.4-0.2,0.4-0.4v-22.7c0-0.2-0.2-0.4-0.4-0.4h-15.9
			C985.4,663.8,980.1,669.1,980.1,675.6z M1003.3,683.3h-10.7c-4.3,0-7.8-3.4-7.9-7.7c0-4.3,3.5-7.8,7.8-7.8h10.8
			c0.2,0,0.4,0.2,0.4,0.4v14.7C1003.7,683.1,1003.5,683.3,1003.3,683.3z"/>
		<path class="st2" d="M1048.4,663.8h-5.8c-0.2,0-0.4,0.2-0.4,0.4v3.1c0,0.2,0.2,0.4,0.4,0.4h5.2c1.6,0,2.9,1.3,2.9,2.9v12.6h-24.8
			c-1.6,0-2.9-1.2-2.9-2.8c0-1.6,1.3-3,2.9-3h8c3.8,0,6.9-3,7-6.8c0.1-3.8-3.1-7-6.9-7h-21.7c-0.2,0-0.4,0.2-0.4,0.4v22.7
			c0,0.2,0.2,0.4,0.4,0.4h3.7c0.2,0,0.4-0.2,0.4-0.4v-18.7c0-0.2,0.2-0.4,0.4-0.4h16.5c1.6,0,2.9,1.2,2.9,2.8c0,1.6-1.3,3-2.9,3h-8
			c-3.8,0-6.9,3-7,6.8c-0.1,3.8,3.1,7,6.9,7h29.6c0.2,0,0.4-0.2,0.4-0.4v-16.2C1055.3,666.8,1052.2,663.8,1048.4,663.8z"/>
	</g>
</g>
<g>
	<rect x="1281.6" y="1" class="st1" width="202.5" height="80.1"/>
	<g>
		<path class="st2" d="M1448.9,39.1h-10.6c-1.6,0-2.9-1.2-2.9-2.8c0-1.6,1.3-3,2.9-3h16.5c0.2,0,0.4-0.2,0.4-0.4v-3.1
			c0-0.2-0.2-0.4-0.4-0.4h-16.9c-3.8,0-6.9,3-7,6.8c-0.1,3.8,3.1,7,6.9,7h10.6c1.6,0,2.9,1.2,2.9,2.8c0,1.6-1.3,3-2.9,3h-18.8
			c-0.2,0-0.4-0.2-0.4-0.4V36.2c0-3.8-3.6-6.9-7.4-6.9H1402h-0.7h-5.7c-3.8,0-6.9,3.1-6.9,6.9v16.2c0,0.2,0.2,0.4,0.4,0.4h3.7
			c0.2,0,0.4-0.2,0.4-0.4V36.2c0-1.6,1.3-2.9,2.9-2.9h5.2v12.6c0,3.8,3.1,6.9,6.9,6.9h17.7h2.7h19.7c3.8,0,7.5-3,7.5-6.8
			C1455.9,42.2,1452.7,39.1,1448.9,39.1z M1424.5,48.4c0,0.2-0.2,0.4-0.4,0.4h-15.4c-1.6,0-2.9-1.3-2.9-2.9V33.7
			c0-0.2,0.2-0.4,0.4-0.4h15.4c1.6,0,2.9,1.3,2.9,2.9V48.4z"/>
		<path class="st2" d="M1309.9,41.1c0,6.5,5.4,11.7,11.9,11.7l15.8,0c0.2,0,0.4-0.2,0.4-0.4V29.7c0-0.2-0.2-0.4-0.4-0.4h-15.9
			C1315.1,29.3,1309.8,34.6,1309.9,41.1z M1333,48.8h-10.7c-4.3,0-7.8-3.4-7.9-7.7c0-4.3,3.5-7.8,7.8-7.8h10.8
			c0.2,0,0.4,0.2,0.4,0.4v14.7C1333.4,48.6,1333.2,48.8,1333,48.8z"/>
		<path class="st2" d="M1378.1,29.3h-5.8c-0.2,0-0.4,0.2-0.4,0.4v3.1c0,0.2,0.2,0.4,0.4,0.4h5.2c1.6,0,2.9,1.3,2.9,2.9v12.6h-24.8
			c-1.6,0-2.9-1.2-2.9-2.8c0-1.6,1.3-3,2.9-3h8c3.8,0,6.9-3,7-6.8c0.1-3.8-3.1-7-6.9-7h-21.7c-0.2,0-0.4,0.2-0.4,0.4v22.7
			c0,0.2,0.2,0.4,0.4,0.4h3.7c0.2,0,0.4-0.2,0.4-0.4V33.7c0-0.2,0.2-0.4,0.4-0.4h16.5c1.6,0,2.9,1.2,2.9,2.8c0,1.6-1.3,3-2.9,3h-8
			c-3.8,0-6.9,3-7,6.8c-0.1,3.8,3.1,7,6.9,7h29.6c0.2,0,0.4-0.2,0.4-0.4V36.2C1385,32.4,1382,29.3,1378.1,29.3z"/>
	</g>
</g>
</svg>
