<?xml version="1.0" encoding="utf-8"?>
<!-- Generator: Adobe Illustrator 22.0.0, SVG Export Plug-In . SVG Version: 6.00 Build 0)  -->
<svg version="1.1" id="Layer_1" xmlns="http://www.w3.org/2000/svg" xmlns:xlink="http://www.w3.org/1999/xlink" x="0px" y="0px"
	 viewBox="0 0 1200 1200" style="enable-background:new 0 0 1200 1200;" xml:space="preserve">
<style type="text/css">
	.st0{fill:#FFFFFF;}
	.st1{fill:#2BC8B9;}
</style>
<rect class="st0" width="1200" height="1200"/>
<g>
	<g>
		<path class="st1" d="M998.4,587.9h-63.8c-9.4,0-17.4-7.4-17.7-16.8c-0.3-9.8,7.6-17.9,17.3-17.9h99.5c1.4,0,2.6-1.2,2.6-2.6v-19
			c0-1.4-1.2-2.6-2.6-2.6H931.6c-22.8,0-41.8,18.1-42.2,40.9c-0.4,23.2,18.4,42.2,41.6,42.2h63.8c9.4,0,17.4,7.4,17.7,16.8
			c0.3,9.8-7.6,17.9-17.3,17.9H881.6c-1.4,0-2.6-1.2-2.6-2.6v-73.6c0-23-21.9-41.6-44.8-41.6H715.4h-4h-34.6
			c-23,0-41.6,18.6-41.6,41.6v97.9c0,1.4,1.2,2.6,2.6,2.6h22.3c1.4,0,2.6-1.2,2.6-2.6v-97.9c0-9.6,7.8-17.3,17.3-17.3h31.3l0,76.3
			c0,23,18.6,41.6,41.6,41.6h106.7h16h118.8c22.8,0,45.1-18.1,45.5-40.9C1040.3,606.9,1021.6,587.9,998.4,587.9z M851.5,644.2
			c0,1.4-1.2,2.6-2.6,2.6h-92.6c-9.6,0-17.3-7.8-17.3-17.3v-73.6c0-1.4,1.2-2.6,2.6-2.6h92.6c9.6,0,17.3,7.8,17.3,17.3V644.2z"/>
		<path class="st1" d="M160,600.4c0.2,39.2,32.6,70.6,71.8,70.6h95.1c1.4,0,2.6-1.2,2.6-2.6V531.6c0-1.4-1.2-2.6-2.6-2.6H231
			C191.7,529,159.8,561.1,160,600.4z M299.4,646.8h-64.5c-25.8,0-47.1-20.6-47.4-46.3c-0.3-26,20.8-47.3,46.8-47.3h65.1
			c1.4,0,2.6,1.2,2.6,2.6v88.4C302,645.6,300.9,646.8,299.4,646.8z"/>
		<path class="st1" d="M571.8,529h-34.7c-1.4,0-2.6,1.2-2.6,2.6v19c0,1.4,1.2,2.6,2.6,2.6h31.4c9.6,0,17.3,7.8,17.3,17.3v76.3H436.2
			c-9.4,0-17.4-7.4-17.7-16.8c-0.3-9.8,7.6-17.9,17.3-17.9h48.5c22.8,0,41.8-18.1,42.2-40.9C526.8,548,508,529,484.9,529H354.3
			c-1.4,0-2.6,1.2-2.6,2.6v136.8c0,1.4,1.2,2.6,2.6,2.6h22.3c1.4,0,2.6-1.2,2.6-2.6V555.8c0-1.4,1.2-2.6,2.6-2.6h99.5
			c9.4,0,17.4,7.4,17.7,16.8c0.3,9.8-7.6,17.9-17.3,17.9h-48.5c-22.8,0-41.8,18.1-42.2,40.9c-0.4,23.2,18.4,42.2,41.6,42.2h178.2
			c1.4,0,2.6-1.2,2.6-2.6v-97.9C613.3,547.6,594.7,529,571.8,529z"/>
	</g>
</g>
</svg>
