<?xml version="1.0" encoding="utf-8"?>
<!-- Generator: Adobe Illustrator 22.0.0, SVG Export Plug-In . SVG Version: 6.00 Build 0)  -->
<svg version="1.1" id="artos_x5F_logotype" xmlns="http://www.w3.org/2000/svg" xmlns:xlink="http://www.w3.org/1999/xlink" x="0px"
	 y="0px" viewBox="0 0 1485.1 1157.8" style="enable-background:new 0 0 1485.1 1157.8;" xml:space="preserve">
<style type="text/css">
	.st0{fill:none;stroke:#2BC8B9;stroke-width:2;stroke-miterlimit:10;}
	.st1{opacity:0;fill:#13232D;}
	.st2{fill:#2BC8B9;}
</style>
<rect x="1" y="1" class="st0" width="600" height="851"/>
<rect x="633.1" y="635.5" class="st0" width="521.3" height="521.3"/>
<rect x="758.6" y="-124.5" transform="matrix(-1.836970e-16 1 -1 -1.836970e-16 1359.5697 -757.5696)" class="st0" width="600" height="851"/>
<g>
	<rect x="1" y="771.9" class="st1" width="202.5" height="80.1"/>
	<g>
		<path class="st2" d="M168.3,809.9h-10.6c-1.6,0-2.9-1.2-2.9-2.8c0-1.6,1.3-3,2.9-3h16.5c0.2,0,0.4-0.2,0.4-0.4v-3.1
			c0-0.2-0.2-0.4-0.4-0.4h-16.9c-3.8,0-6.9,3-7,6.8c-0.1,3.8,3.1,7,6.9,7h10.6c1.6,0,2.9,1.2,2.9,2.8c0,1.6-1.3,3-2.9,3h-18.8
			c-0.2,0-0.4-0.2-0.4-0.4v-12.2c0-3.8-3.6-6.9-7.4-6.9h-19.7h-0.7H115c-3.8,0-6.9,3.1-6.9,6.9v16.2c0,0.2,0.2,0.4,0.4,0.4h3.7
			c0.2,0,0.4-0.2,0.4-0.4v-16.2c0-1.6,1.3-2.9,2.9-2.9h5.2l0,12.6c0,3.8,3.1,6.9,6.9,6.9h17.7h2.7h19.7c3.8,0,7.5-3,7.5-6.8
			C175.3,813.1,172.1,809.9,168.3,809.9z M143.9,819.3c0,0.2-0.2,0.4-0.4,0.4h-15.4c-1.6,0-2.9-1.3-2.9-2.9v-12.2
			c0-0.2,0.2-0.4,0.4-0.4h15.4c1.6,0,2.9,1.3,2.9,2.9V819.3z"/>
		<path class="st2" d="M29.2,812c0,6.5,5.4,11.7,11.9,11.7h15.8c0.2,0,0.4-0.2,0.4-0.4v-22.7c0-0.2-0.2-0.4-0.4-0.4H41
			C34.5,800.2,29.2,805.5,29.2,812z M52.4,819.7H41.7c-4.3,0-7.8-3.4-7.9-7.7c0-4.3,3.5-7.8,7.8-7.8h10.8c0.2,0,0.4,0.2,0.4,0.4
			v14.7C52.8,819.5,52.6,819.7,52.4,819.7z"/>
		<path class="st2" d="M97.5,800.2h-5.8c-0.2,0-0.4,0.2-0.4,0.4v3.1c0,0.2,0.2,0.4,0.4,0.4H97c1.6,0,2.9,1.3,2.9,2.9v12.6H75
			c-1.6,0-2.9-1.2-2.9-2.8c0-1.6,1.3-3,2.9-3h8c3.8,0,6.9-3,7-6.8c0.1-3.8-3.1-7-6.9-7H61.5c-0.2,0-0.4,0.2-0.4,0.4v22.7
			c0,0.2,0.2,0.4,0.4,0.4h3.7c0.2,0,0.4-0.2,0.4-0.4v-18.7c0-0.2,0.2-0.4,0.4-0.4h16.5c1.6,0,2.9,1.2,2.9,2.8c0,1.6-1.3,3-2.9,3h-8
			c-3.8,0-6.9,3-7,6.8c-0.1,3.8,3.1,7,6.9,7H104c0.2,0,0.4-0.2,0.4-0.4v-16.2C104.4,803.2,101.3,800.2,97.5,800.2z"/>
	</g>
</g>
<g>
	<rect x="398.5" y="771.9" class="st1" width="202.5" height="80.1"/>
	<g>
		<path class="st2" d="M565.8,809.9h-10.6c-1.6,0-2.9-1.2-2.9-2.8c0-1.6,1.3-3,2.9-3h16.5c0.2,0,0.4-0.2,0.4-0.4v-3.1
			c0-0.2-0.2-0.4-0.4-0.4h-16.9c-3.8,0-6.9,3-7,6.8c-0.1,3.8,3.1,7,6.9,7h10.6c1.6,0,2.9,1.2,2.9,2.8c0,1.6-1.3,3-2.9,3h-18.8
			c-0.2,0-0.4-0.2-0.4-0.4v-12.2c0-3.8-3.6-6.9-7.4-6.9h-19.7h-0.7h-5.7c-3.8,0-6.9,3.1-6.9,6.9v16.2c0,0.2,0.2,0.4,0.4,0.4h3.7
			c0.2,0,0.4-0.2,0.4-0.4v-16.2c0-1.6,1.3-2.9,2.9-2.9h5.2l0,12.6c0,3.8,3.1,6.9,6.9,6.9h17.7h2.7h19.7c3.8,0,7.5-3,7.5-6.8
			C572.8,813.1,569.7,809.9,565.8,809.9z M541.5,819.3c0,0.2-0.2,0.4-0.4,0.4h-15.4c-1.6,0-2.9-1.3-2.9-2.9v-12.2
			c0-0.2,0.2-0.4,0.4-0.4h15.4c1.6,0,2.9,1.3,2.9,2.9V819.3z"/>
		<path class="st2" d="M426.8,812c0,6.5,5.4,11.7,11.9,11.7h15.8c0.2,0,0.4-0.2,0.4-0.4v-22.7c0-0.2-0.2-0.4-0.4-0.4h-15.9
			C432,800.2,426.7,805.5,426.8,812z M449.9,819.7h-10.7c-4.3,0-7.8-3.4-7.9-7.7c0-4.3,3.5-7.8,7.8-7.8h10.8c0.2,0,0.4,0.2,0.4,0.4
			v14.7C450.3,819.5,450.1,819.7,449.9,819.7z"/>
		<path class="st2" d="M495.1,800.2h-5.8c-0.2,0-0.4,0.2-0.4,0.4v3.1c0,0.2,0.2,0.4,0.4,0.4h5.2c1.6,0,2.9,1.3,2.9,2.9v12.6h-24.8
			c-1.6,0-2.9-1.2-2.9-2.8c0-1.6,1.3-3,2.9-3h8c3.8,0,6.9-3,7-6.8c0.1-3.8-3.1-7-6.9-7H459c-0.2,0-0.4,0.2-0.4,0.4v22.7
			c0,0.2,0.2,0.4,0.4,0.4h3.7c0.2,0,0.4-0.2,0.4-0.4v-18.7c0-0.2,0.2-0.4,0.4-0.4h16.5c1.6,0,2.9,1.2,2.9,2.8c0,1.6-1.3,3-2.9,3h-8
			c-3.8,0-6.9,3-7,6.8c-0.1,3.8,3.1,7,6.9,7h29.6c0.2,0,0.4-0.2,0.4-0.4v-16.2C502,803.2,498.9,800.2,495.1,800.2z"/>
	</g>
</g>
<g>
	<rect x="633.1" y="520.9" class="st1" width="202.5" height="80.1"/>
	<g>
		<path class="st2" d="M800.4,558.9h-10.6c-1.6,0-2.9-1.2-2.9-2.8c0-1.6,1.3-3,2.9-3h16.5c0.2,0,0.4-0.2,0.4-0.4v-3.1
			c0-0.2-0.2-0.4-0.4-0.4h-16.9c-3.8,0-6.9,3-7,6.8c-0.1,3.8,3.1,7,6.9,7h10.6c1.6,0,2.9,1.2,2.9,2.8c0,1.6-1.3,3-2.9,3H781
			c-0.2,0-0.4-0.2-0.4-0.4V556c0-3.8-3.6-6.9-7.4-6.9h-19.7h-0.7H747c-3.8,0-6.9,3.1-6.9,6.9v16.2c0,0.2,0.2,0.4,0.4,0.4h3.7
			c0.2,0,0.4-0.2,0.4-0.4V556c0-1.6,1.3-2.9,2.9-2.9h5.2l0,12.6c0,3.8,3.1,6.9,6.9,6.9h17.7h2.7h19.7c3.8,0,7.5-3,7.5-6.8
			C807.3,562.1,804.2,558.9,800.4,558.9z M776,568.3c0,0.2-0.2,0.4-0.4,0.4h-15.4c-1.6,0-2.9-1.3-2.9-2.9v-12.2
			c0-0.2,0.2-0.4,0.4-0.4h15.4c1.6,0,2.9,1.3,2.9,2.9V568.3z"/>
		<path class="st2" d="M661.3,561c0,6.5,5.4,11.7,11.9,11.7H689c0.2,0,0.4-0.2,0.4-0.4v-22.7c0-0.2-0.2-0.4-0.4-0.4h-15.9
			C666.6,549.1,661.3,554.5,661.3,561z M684.4,568.7h-10.7c-4.3,0-7.8-3.4-7.9-7.7c0-4.3,3.5-7.8,7.8-7.8h10.8
			c0.2,0,0.4,0.2,0.4,0.4v14.7C684.9,568.5,684.7,568.7,684.4,568.7z"/>
		<path class="st2" d="M729.6,549.1h-5.8c-0.2,0-0.4,0.2-0.4,0.4v3.1c0,0.2,0.2,0.4,0.4,0.4h5.2c1.6,0,2.9,1.3,2.9,2.9v12.6h-24.8
			c-1.6,0-2.9-1.2-2.9-2.8c0-1.6,1.3-3,2.9-3h8c3.8,0,6.9-3,7-6.8c0.1-3.8-3.1-7-6.9-7h-21.7c-0.2,0-0.4,0.2-0.4,0.4v22.7
			c0,0.2,0.2,0.4,0.4,0.4h3.7c0.2,0,0.4-0.2,0.4-0.4v-18.7c0-0.2,0.2-0.4,0.4-0.4h16.5c1.6,0,2.9,1.2,2.9,2.8c0,1.6-1.3,3-2.9,3h-8
			c-3.8,0-6.9,3-7,6.8c-0.1,3.8,3.1,7,6.9,7h29.6c0.2,0,0.4-0.2,0.4-0.4V556C736.5,552.2,733.4,549.1,729.6,549.1z"/>
	</g>
</g>
<g>
	<rect x="633.1" y="1076.6" class="st1" width="202.5" height="80.1"/>
	<g>
		<path class="st2" d="M800.4,1114.7h-10.6c-1.6,0-2.9-1.2-2.9-2.8c0-1.6,1.3-3,2.9-3h16.5c0.2,0,0.4-0.2,0.4-0.4v-3.1
			c0-0.2-0.2-0.4-0.4-0.4h-16.9c-3.8,0-6.9,3-7,6.8c-0.1,3.8,3.1,7,6.9,7h10.6c1.6,0,2.9,1.2,2.9,2.8c0,1.6-1.3,3-2.9,3H781
			c-0.2,0-0.4-0.2-0.4-0.4v-12.2c0-3.8-3.6-6.9-7.4-6.9h-19.7h-0.7H747c-3.8,0-6.9,3.1-6.9,6.9v16.2c0,0.2,0.2,0.4,0.4,0.4h3.7
			c0.2,0,0.4-0.2,0.4-0.4v-16.2c0-1.6,1.3-2.9,2.9-2.9h5.2l0,12.6c0,3.8,3.1,6.9,6.9,6.9h17.7h2.7h19.7c3.8,0,7.5-3,7.5-6.8
			C807.3,1117.8,804.2,1114.7,800.4,1114.7z M776,1124c0,0.2-0.2,0.4-0.4,0.4h-15.4c-1.6,0-2.9-1.3-2.9-2.9v-12.2
			c0-0.2,0.2-0.4,0.4-0.4h15.4c1.6,0,2.9,1.3,2.9,2.9V1124z"/>
		<path class="st2" d="M661.3,1116.8c0,6.5,5.4,11.7,11.9,11.7H689c0.2,0,0.4-0.2,0.4-0.4v-22.7c0-0.2-0.2-0.4-0.4-0.4h-15.9
			C666.6,1104.9,661.3,1110.2,661.3,1116.8z M684.4,1124.5h-10.7c-4.3,0-7.8-3.4-7.9-7.7c0-4.3,3.5-7.8,7.8-7.8h10.8
			c0.2,0,0.4,0.2,0.4,0.4v14.7C684.9,1124.3,684.7,1124.5,684.4,1124.5z"/>
		<path class="st2" d="M729.6,1104.9h-5.8c-0.2,0-0.4,0.2-0.4,0.4v3.1c0,0.2,0.2,0.4,0.4,0.4h5.2c1.6,0,2.9,1.3,2.9,2.9v12.6h-24.8
			c-1.6,0-2.9-1.2-2.9-2.8c0-1.6,1.3-3,2.9-3h8c3.8,0,6.9-3,7-6.8c0.1-3.8-3.1-7-6.9-7h-21.7c-0.2,0-0.4,0.2-0.4,0.4v22.7
			c0,0.2,0.2,0.4,0.4,0.4h3.7c0.2,0,0.4-0.2,0.4-0.4v-18.7c0-0.2,0.2-0.4,0.4-0.4h16.5c1.6,0,2.9,1.2,2.9,2.8c0,1.6-1.3,3-2.9,3h-8
			c-3.8,0-6.9,3-7,6.8c-0.1,3.8,3.1,7,6.9,7h29.6c0.2,0,0.4-0.2,0.4-0.4v-16.2C736.5,1108,733.4,1104.9,729.6,1104.9z"/>
	</g>
</g>
<g>
	<rect x="951.9" y="1076.6" class="st1" width="202.5" height="80.1"/>
	<g>
		<path class="st2" d="M1119.2,1114.7h-10.6c-1.6,0-2.9-1.2-2.9-2.8c0-1.6,1.3-3,2.9-3h16.5c0.2,0,0.4-0.2,0.4-0.4v-3.1
			c0-0.2-0.2-0.4-0.4-0.4h-16.9c-3.8,0-6.9,3-7,6.8c-0.1,3.8,3.1,7,6.9,7h10.6c1.6,0,2.9,1.2,2.9,2.8c0,1.6-1.3,3-2.9,3h-18.8
			c-0.2,0-0.4-0.2-0.4-0.4v-12.2c0-3.8-3.6-6.9-7.4-6.9h-19.7h-0.7h-5.7c-3.8,0-6.9,3.1-6.9,6.9v16.2c0,0.2,0.2,0.4,0.4,0.4h3.7
			c0.2,0,0.4-0.2,0.4-0.4v-16.2c0-1.6,1.3-2.9,2.9-2.9h5.2v12.6c0,3.8,3.1,6.9,6.9,6.9h17.7h2.7h19.7c3.8,0,7.5-3,7.5-6.8
			C1126.1,1117.8,1123,1114.7,1119.2,1114.7z M1094.8,1124c0,0.2-0.2,0.4-0.4,0.4H1079c-1.6,0-2.9-1.3-2.9-2.9v-12.2
			c0-0.2,0.2-0.4,0.4-0.4h15.4c1.6,0,2.9,1.3,2.9,2.9V1124z"/>
		<path class="st2" d="M980.1,1116.8c0,6.5,5.4,11.7,11.9,11.7h15.8c0.2,0,0.4-0.2,0.4-0.4v-22.7c0-0.2-0.2-0.4-0.4-0.4h-15.9
			C985.4,1104.9,980.1,1110.2,980.1,1116.8z M1003.3,1124.5h-10.7c-4.3,0-7.8-3.4-7.9-7.7c0-4.3,3.5-7.8,7.8-7.8h10.8
			c0.2,0,0.4,0.2,0.4,0.4v14.7C1003.7,1124.3,1003.5,1124.5,1003.3,1124.5z"/>
		<path class="st2" d="M1048.4,1104.9h-5.8c-0.2,0-0.4,0.2-0.4,0.4v3.1c0,0.2,0.2,0.4,0.4,0.4h5.2c1.6,0,2.9,1.3,2.9,2.9v12.6h-24.8
			c-1.6,0-2.9-1.2-2.9-2.8c0-1.6,1.3-3,2.9-3h8c3.8,0,6.9-3,7-6.8c0.1-3.8-3.1-7-6.9-7h-21.7c-0.2,0-0.4,0.2-0.4,0.4v22.7
			c0,0.2,0.2,0.4,0.4,0.4h3.7c0.2,0,0.4-0.2,0.4-0.4v-18.7c0-0.2,0.2-0.4,0.4-0.4h16.5c1.6,0,2.9,1.2,2.9,2.8c0,1.6-1.3,3-2.9,3h-8
			c-3.8,0-6.9,3-7,6.8c-0.1,3.8,3.1,7,6.9,7h29.6c0.2,0,0.4-0.2,0.4-0.4v-16.2C1055.3,1108,1052.2,1104.9,1048.4,1104.9z"/>
	</g>
</g>
<g>
	<rect x="1281.6" y="520.9" class="st1" width="202.5" height="80.1"/>
	<g>
		<path class="st2" d="M1448.9,558.9h-10.6c-1.6,0-2.9-1.2-2.9-2.8c0-1.6,1.3-3,2.9-3h16.5c0.2,0,0.4-0.2,0.4-0.4v-3.1
			c0-0.2-0.2-0.4-0.4-0.4h-16.9c-3.8,0-6.9,3-7,6.8c-0.1,3.8,3.1,7,6.9,7h10.6c1.6,0,2.9,1.2,2.9,2.8c0,1.6-1.3,3-2.9,3h-18.8
			c-0.2,0-0.4-0.2-0.4-0.4V556c0-3.8-3.6-6.9-7.4-6.9H1402h-0.7h-5.7c-3.8,0-6.9,3.1-6.9,6.9v16.2c0,0.2,0.2,0.4,0.4,0.4h3.7
			c0.2,0,0.4-0.2,0.4-0.4V556c0-1.6,1.3-2.9,2.9-2.9h5.2v12.6c0,3.8,3.1,6.9,6.9,6.9h17.7h2.7h19.7c3.8,0,7.5-3,7.5-6.8
			C1455.9,562.1,1452.7,558.9,1448.9,558.9z M1424.5,568.3c0,0.2-0.2,0.4-0.4,0.4h-15.4c-1.6,0-2.9-1.3-2.9-2.9v-12.2
			c0-0.2,0.2-0.4,0.4-0.4h15.4c1.6,0,2.9,1.3,2.9,2.9V568.3z"/>
		<path class="st2" d="M1309.9,561c0,6.5,5.4,11.7,11.9,11.7h15.8c0.2,0,0.4-0.2,0.4-0.4v-22.7c0-0.2-0.2-0.4-0.4-0.4h-15.9
			C1315.1,549.1,1309.8,554.5,1309.9,561z M1333,568.7h-10.7c-4.3,0-7.8-3.4-7.9-7.7c0-4.3,3.5-7.8,7.8-7.8h10.8
			c0.2,0,0.4,0.2,0.4,0.4v14.7C1333.4,568.5,1333.2,568.7,1333,568.7z"/>
		<path class="st2" d="M1378.1,549.1h-5.8c-0.2,0-0.4,0.2-0.4,0.4v3.1c0,0.2,0.2,0.4,0.4,0.4h5.2c1.6,0,2.9,1.3,2.9,2.9v12.6h-24.8
			c-1.6,0-2.9-1.2-2.9-2.8c0-1.6,1.3-3,2.9-3h8c3.8,0,6.9-3,7-6.8c0.1-3.8-3.1-7-6.9-7h-21.7c-0.2,0-0.4,0.2-0.4,0.4v22.7
			c0,0.2,0.2,0.4,0.4,0.4h3.7c0.2,0,0.4-0.2,0.4-0.4v-18.7c0-0.2,0.2-0.4,0.4-0.4h16.5c1.6,0,2.9,1.2,2.9,2.8c0,1.6-1.3,3-2.9,3h-8
			c-3.8,0-6.9,3-7,6.8c-0.1,3.8,3.1,7,6.9,7h29.6c0.2,0,0.4-0.2,0.4-0.4V556C1385,552.2,1382,549.1,1378.1,549.1z"/>
	</g>
</g>
</svg>
