<?xml version="1.0" encoding="utf-8"?>
<!-- Generator: Adobe Illustrator 22.0.0, SVG Export Plug-In . SVG Version: 6.00 Build 0)  -->
<svg version="1.1" id="expoforum" xmlns="http://www.w3.org/2000/svg" xmlns:xlink="http://www.w3.org/1999/xlink" x="0px" y="0px"
	 viewBox="0 0 400 400" style="enable-background:new 0 0 400 400;" xml:space="preserve">
<style type="text/css">
	.st0{fill:#FFFFFF;}
</style>
<g>
	<path class="st0" d="M318.4,184.6l-8.4,20.5l-9.3-20.5h-6.5v30.8h6.3V198l8.4,17.6h2.3l7.6-17.4v17.3h6.3v-30.8H318.4z
		 M284.1,184.6v19.7c0,1.9-0.5,3.4-1.6,4.6c-1.1,1.2-2.7,1.8-4.8,1.8c-2.1,0-3.7-0.6-4.8-1.8c-1.1-1.2-1.7-2.7-1.7-4.6v-19.7h-6.4
		v20.3c0,1.8,0.3,3.3,1,4.7c0.7,1.4,1.6,2.6,2.7,3.5c1.1,1,2.5,1.7,4.1,2.2c1.6,0.5,3.2,0.8,5,0.8c1.8,0,3.5-0.3,5-0.8
		c1.5-0.5,2.9-1.2,4.1-2.2c1.2-1,2.1-2.1,2.8-3.5c0.7-1.4,1-3,1-4.7v-20.3H284.1z M254.7,203.5c1.3-0.4,2.4-0.9,3.3-1.5
		c0.9-0.7,1.7-1.4,2.3-2.2c0.6-0.8,1-1.8,1.3-2.8c0.3-1,0.4-2.1,0.4-3.2c0-1.8-0.4-3.3-1-4.5c-0.7-1.2-1.5-2.1-2.6-2.8
		c-1.1-0.7-2.2-1.2-3.6-1.5c-1.3-0.3-2.7-0.4-4-0.4H238v30.8h6.3v-11.6h3.5l7.8,11.6h7.3L254.7,203.5z M249.2,198.5h-4.9v-8.6h4.9
		c2.4,0,4.1,0.4,5.1,1.1c1,0.7,1.5,1.8,1.5,3.3c0,1.4-0.5,2.4-1.6,3.1C253.1,198.2,251.5,198.5,249.2,198.5z M235.1,194.1
		c-0.6-1.9-1.5-3.6-2.7-5.2c-1.2-1.5-2.8-2.7-4.6-3.6c-1.8-0.9-4-1.4-6.4-1.4c-2.5,0-4.6,0.5-6.4,1.4c-1.8,0.9-3.4,2.1-4.5,3.6
		c-1.2,1.5-2.1,3.2-2.7,5.2c-0.6,1.9-0.9,3.9-0.9,5.9s0.3,3.9,0.9,5.8c0.6,1.9,1.5,3.6,2.7,5.2c1.2,1.5,2.7,2.7,4.5,3.7
		c1.8,0.9,4,1.4,6.4,1.4c2.4,0,4.6-0.5,6.4-1.4c1.8-0.9,3.4-2.2,4.6-3.7c1.2-1.5,2.1-3.2,2.7-5.2c0.6-1.9,0.9-3.9,0.9-5.8
		S235.7,196.1,235.1,194.1z M229,203.9c-0.3,1.3-0.9,2.4-1.6,3.4c-0.7,1-1.6,1.8-2.6,2.4c-1,0.6-2.2,0.9-3.5,0.9
		c-1.3,0-2.5-0.3-3.5-0.9c-1-0.6-1.8-1.4-2.5-2.4c-0.7-1-1.2-2.1-1.6-3.4c-0.4-1.3-0.5-2.6-0.5-4c0-1.4,0.2-2.7,0.5-4
		c0.3-1.3,0.9-2.4,1.6-3.4c0.7-1,1.5-1.8,2.5-2.4c1-0.6,2.1-0.9,3.5-0.9c1.3,0,2.5,0.3,3.5,0.9c1,0.6,1.9,1.4,2.6,2.4
		c0.7,1,1.2,2.1,1.6,3.4c0.3,1.3,0.5,2.6,0.5,4C229.5,201.3,229.3,202.6,229,203.9z M206.8,190.2v-5.6h-21.5v30.8h6.4V203h12v-5.5
		h-12v-7.3H206.8z M182,194.1c-0.6-1.9-1.5-3.6-2.7-5.2c-1.2-1.5-2.8-2.7-4.6-3.6c-1.8-0.9-4-1.4-6.4-1.4c-2.5,0-4.6,0.5-6.4,1.4
		c-1.8,0.9-3.3,2.1-4.5,3.6c-1.2,1.5-2.1,3.2-2.7,5.2c-0.6,1.9-0.9,3.9-0.9,5.9s0.3,3.9,0.9,5.8c0.6,1.9,1.5,3.6,2.7,5.2
		c1.2,1.5,2.7,2.7,4.5,3.7c1.8,0.9,4,1.4,6.4,1.4c2.4,0,4.6-0.5,6.4-1.4c1.8-0.9,3.4-2.2,4.6-3.7c1.2-1.5,2.1-3.2,2.7-5.2
		c0.6-1.9,0.9-3.9,0.9-5.8S182.6,196.1,182,194.1z M175.9,203.9c-0.4,1.3-0.9,2.4-1.6,3.4c-0.7,1-1.6,1.8-2.6,2.4
		c-1,0.6-2.2,0.9-3.5,0.9c-1.3,0-2.5-0.3-3.5-0.9c-1-0.6-1.8-1.4-2.5-2.4c-0.7-1-1.2-2.1-1.6-3.4c-0.3-1.3-0.5-2.6-0.5-4
		c0-1.4,0.2-2.7,0.5-4c0.4-1.3,0.9-2.4,1.6-3.4c0.7-1,1.5-1.8,2.5-2.4c1-0.6,2.2-0.9,3.5-0.9c1.3,0,2.5,0.3,3.5,0.9
		c1,0.6,1.9,1.4,2.6,2.4c0.7,1,1.2,2.1,1.6,3.4c0.3,1.3,0.5,2.6,0.5,4C176.4,201.3,176.2,202.6,175.9,203.9z M151.1,189.4
		c-0.8-1.5-1.9-2.6-3.5-3.3c-1.2-0.6-2.5-1-3.9-1.2c-1.4-0.2-2.9-0.3-4.5-0.3h-9.9v30.8h6.2v-11.1h4.4c1.2,0,2.3-0.1,3.5-0.2
		c1.1-0.2,2.3-0.5,3.4-0.9c0.9-0.4,1.7-0.9,2.4-1.5c0.7-0.6,1.3-1.4,1.7-2.2c0.5-0.8,0.8-1.7,1.1-2.6c0.3-0.9,0.4-1.9,0.4-2.8
		C152.2,192.4,151.8,190.8,151.1,189.4z M145.3,196.7c-0.4,0.7-1,1.3-1.9,1.7c-0.5,0.2-1.2,0.4-1.9,0.5c-0.7,0.1-1.6,0.1-2.5,0.1
		h-3.6v-9.1h3.8c0.9,0,1.7,0,2.3,0.1c0.6,0.1,1.2,0.2,1.7,0.4c0.9,0.3,1.6,0.8,2,1.6c0.4,0.7,0.6,1.5,0.6,2.4
		C145.9,195.2,145.7,196,145.3,196.7z M116.9,199.4l9.5-14.8h-7.2l-5.8,9.4l-5.8-9.4h-7.2l9.6,14.8l-10.3,16.1h7.2l6.5-10.6
		l6.6,10.6h7.2L116.9,199.4z"/>
	<path class="st0" d="M97.8,189.8v-5.2H75v30.8h22.8v-5.2H81.1v-3.3h16.7v-5.2H81.1v-3.3h16.7v-5.2H81.1v-3.3H97.8z"/>
</g>
</svg>
