<?xml version="1.0" encoding="utf-8"?>
<!-- Generator: Adobe Illustrator 22.0.0, SVG Export Plug-In . SVG Version: 6.00 Build 0)  -->
<svg version="1.1" id="Layer_1" xmlns="http://www.w3.org/2000/svg" xmlns:xlink="http://www.w3.org/1999/xlink" x="0px" y="0px"
	 viewBox="0 0 400 400" style="enable-background:new 0 0 400 400;" xml:space="preserve">
<style type="text/css">
	.st0{display:none;}
	.st1{display:inline;}
	.st2{fill:#FFFFFF;}
</style>
<g id="bg" class="st0">
	<rect class="st1" width="400" height="400"/>
</g>
<g id="pulkovo">
	<g>
		<g>
			<path class="st2" d="M87.3,208.2c0.3-1.8,1.2-3.3,2.6-4.5c1.3-1.2,3-1.8,4.8-1.8h13.9c1.3-0.1,2.6,0.4,3.6,1.3
				c0.9,0.9,1.4,2.2,1.4,3.5c0,0.4,0,0.7-0.1,1.1l-3.6,20c-1.2-0.1-2.3-0.6-3.1-1.5c-0.8-0.9-1.2-2-1.2-3.2c0-0.4,0-0.7,0.1-1.1
				l1.9-10.4c0.3-1.1,0-2.3-0.7-3.3c-0.7-0.9-1.8-1.4-3-1.4h-7.1c-2.4,0.1-4.4,1.8-4.9,4.1L90,221.7c-0.3,1.5-1,3-2.2,4.1
				c-1.1,1.1-2.5,1.9-4.1,2.1L87.3,208.2z"/>
			<path class="st2" d="M196.1,214.8l10.7,13.1H203c-2.3,0.1-4.5-0.9-5.9-2.6l-5.6-6.8c-0.3-0.4-0.8-0.6-1.2-0.5
				c-0.9-0.1-1.7,0.6-1.8,1.6l-0.4,2.2c-0.3,1.6-1,3-2.1,4.1s-2.5,1.9-4,2.1l3.5-19.7c0.3-1.6,1-3,2.1-4.1s2.5-1.9,4-2.1l-1.4,8.1
				c-0.2,1.2,0.3,1.8,1.6,1.8c0.5,0,0.9-0.2,1.2-0.5l8-6.8c1.9-1.7,4.4-2.7,7-2.7h3.3L196.1,214.8z"/>
			<path class="st2" d="M244.9,207.8l-2.5,13.8c-0.3,1.7-1.2,3.3-2.5,4.4c-1.3,1.2-3,1.8-4.7,1.8h-13.9c-1.3,0-2.6-0.4-3.6-1.4
				c-1-0.9-1.5-2.2-1.4-3.6c0-0.3,0.1-0.7,0.1-1l2.4-13.8c0.3-1.7,1.2-3.3,2.6-4.4c1.3-1.2,3-1.8,4.7-1.8h14
				c2.6-0.1,4.8,1.8,4.9,4.4c0,0.2,0,0.3,0,0.5C244.9,207.1,244.9,207.5,244.9,207.8z M235.2,207h-7.1c-1.2,0-2.3,0.5-3.2,1.3
				s-1.5,1.8-1.7,3l-1.3,6.6c-0.3,1.2,0,2.4,0.7,3.3c0.7,0.9,1.8,1.5,3,1.4h7.1c1.2,0,2.3-0.5,3.2-1.3s1.5-1.9,1.7-3.1l1.2-6.6
				c0.3-1.1,0-2.3-0.7-3.3C237.4,207.5,236.3,207,235.2,207z"/>
			<path class="st2" d="M161.9,205.5c1.6-2.1,4.1-3.3,6.8-3.2l8.4,0.2l-4.4,26.1c-1.2-0.1-2.3-0.7-3.1-1.6c-0.8-0.9-1.2-2.1-1.3-3.3
				c0-0.3,0-0.7,0-1l2.8-12.9c0.1-0.7-0.2-1.5-0.7-2s-1.2-0.9-1.9-0.9s-1.5,0.3-2,0.8l-10,13.1c-1.2,1.6-3.2,2.5-5.2,2.4l-3.3-0.1
				L161.9,205.5z"/>
			<path class="st2" d="M317.2,207.8l-2.5,13.8c-0.3,1.7-1.2,3.3-2.5,4.4c-1.3,1.2-3,1.8-4.7,1.8h-13.9c-1.3,0-2.6-0.4-3.6-1.4
				c-1-0.9-1.5-2.2-1.4-3.6c0-0.3,0-0.7,0.1-1l2.4-13.8c0.3-1.7,1.2-3.3,2.6-4.4c1.3-1.2,3-1.8,4.7-1.8h14c2.6-0.1,4.8,1.8,4.9,4.4
				c0,0.2,0,0.3,0,0.5C317.3,207.1,317.3,207.5,317.2,207.8z M307.5,207h-7.1c-1.2,0-2.3,0.5-3.2,1.3c-0.9,0.8-1.5,1.8-1.7,3
				l-1.2,6.6c-0.3,1.2,0,2.4,0.7,3.3c0.7,0.9,1.8,1.5,3,1.4h7.1c1.2,0,2.3-0.5,3.2-1.3c0.9-0.8,1.5-1.8,1.7-3l1.2-6.6
				c0.3-1.1,0-2.3-0.7-3.3C309.8,207.5,308.7,207,307.5,207z"/>
			<path class="st2" d="M142,222c-0.3,1.7-1.2,3.3-2.6,4.4c-1.3,1.2-3,1.8-4.8,1.8h-16.3c1.1-3.1,4-5.1,7.2-5.2h8.4
				c1.5,0.2,2.9-1,3.1-2.5l0,0c0.1-0.7-0.1-1.4-0.5-2c-0.5-0.6-1.2-0.9-1.9-0.8h-12c-1.3,0-2.6-0.4-3.6-1.2s-1.5-2.1-1.4-3.4
				c0-0.3,0.1-0.7,0.1-1l1.7-9.8c1.2,0.1,2.2,0.6,3,1.5s1.2,2,1.1,3.2c0,0.4-0.1,0.8-0.1,1.1c-0.2,1.2,0,2.4,0.7,3.3
				c0.7,0.9,1.8,1.5,2.9,1.4h7.1c1.2,0,2.3-0.5,3.2-1.3s1.5-1.9,1.8-3.1c0.3-1.6,1.1-3,2.3-4.1c1.1-1.1,2.6-1.9,4.1-2.1L142,222z"/>
			<path class="st2" d="M281,207l-2.5,13.9c-0.3,1.7-1.3,3.3-2.6,4.4c-1.3,1.2-3,1.8-4.8,1.8h-19.7l4.6-26h20c1.3,0,2.6,0.5,3.6,1.4
				s1.5,2.2,1.5,3.5C281.1,206.3,281.1,206.7,281,207z M271.1,216.5h-10.3c-1.6-0.1-2.9,1-3.1,2.6c-0.1,0.7,0.1,1.4,0.5,2
				c0.5,0.6,1.2,0.9,1.9,0.9h10.3c1.5,0.1,2.9-1,3-2.5v-0.1c0-0.2,0.1-0.5,0.1-0.7C273.6,217.2,272.8,216.5,271.1,216.5z
				 M272.9,206.3h-12.8l-0.6,2.9c-0.2,1.2,0.7,2.3,1.9,2.5c0.2,0,0.4,0,0.6,0h10.3c1.5,0.2,2.9-1,3.1-2.5l0,0c0.1-0.7-0.1-1.4-0.5-2
				C274.4,206.6,273.7,206.3,272.9,206.3z"/>
		</g>
		<g>
			<path class="st2" d="M58.1,196.2c0,0,78.1-7.6,150.6-8.3c72.6-0.7,150.8,6.1,156.2,6.6s27.1,2-46.6-0.8
				c-74.2-2.9-121.6-3.4-166.8-1S62,198,48.9,199.2C-3.2,203.8,58.1,196.2,58.1,196.2z"/>
			<path class="st2" d="M114.7,165.5c0,0,15.7-3.9,22.6-5.3c6.9-1.4,20.9-3.9,13.7,3.4c-4.9,5.1-9.5,10.6-13.7,16.3
				c0,0,66.5-12.5,102.5-19.7c31-6.2,72-12.2,65.2,1.3s-30,26.3-21.5,18.4c4.1-3.8,6.7-5.3,12.2-10.9c6.6-6.6,12-15.9-27.5-10
				s-140.4,27.1-140.4,27.1s9.1-11.9,12.8-17.1c3.7-5.2,7.2-8.3-5.3-5.8s-20.8,3.3-25.2,3.9C105.5,167.7,114.7,165.5,114.7,165.5z"
				/>
			<path class="st2" d="M115.2,174.6c-9.3,0.4-18,1.4-20.6,2.2s14.2-0.6,19.7-0.7S115.2,174.6,115.2,174.6z"/>
			<path class="st2" d="M112.8,240.8l-1.5,2.9h-1.2l4.8-9.2h1.3l1.3,9.2h-1.2l-0.4-2.9H112.8z M115.9,239.9l-0.3-2.7
				c-0.1-0.5-0.1-1.2-0.2-1.7l0,0c-0.3,0.6-0.5,1.1-0.8,1.7l-1.4,2.7H115.9z"/>
			<path class="st2" d="M119.8,240h3c0-0.1,0-0.2,0-0.3c0-1-0.7-1.8-1.7-1.8c-0.1,0-0.1,0-0.2,0c-0.5,0-1,0.1-1.5,0.3l-0.2-0.8
				c0.6-0.3,1.2-0.4,1.8-0.4c1.5-0.1,2.8,1.1,2.9,2.6c0,0.1,0,0.3,0,0.4c0.1,2-1.4,3.7-3.4,3.8c-0.1,0-0.3,0-0.4,0
				c-0.7,0-1.3-0.2-1.9-0.5l0.3-0.8c0.5,0.2,1,0.4,1.6,0.4c1.3,0.1,2.4-0.9,2.5-2.2h-3L119.8,240z"/>
			<path class="st2" d="M124.2,246.4l1.3-7c0.2-0.8,0.3-1.7,0.4-2.4h1l-0.1,1.3l0,0c0.5-0.8,1.4-1.4,2.4-1.4c1.4,0,2,1.2,2,2.4
				c0,2.3-1.7,4.5-3.9,4.5c-0.5,0-1-0.1-1.4-0.3l0,0l-0.5,2.9H124.2z M126.1,242.6c0.4,0.3,0.8,0.4,1.3,0.4c1.5,0,2.7-1.8,2.7-3.6
				c0-0.7-0.3-1.5-1.3-1.5s-2,1-2.3,2.9L126.1,242.6z"/>
			<path class="st2" d="M132.1,241.1c-0.1-2.2,1.5-4,3.7-4.2c1.4,0,2.6,1.1,2.6,2.4c0,0.1,0,0.2,0,0.3c0,2-1.4,4.2-3.7,4.2
				c-1.4,0-2.5-1.1-2.6-2.5C132,241.3,132.1,241.2,132.1,241.1z M137.1,239.7c0-0.8-0.4-1.8-1.5-1.8c-1.4,0-2.4,1.7-2.4,3.2
				c0,1.1,0.6,1.9,1.6,1.9C136.1,243,137.1,241.2,137.1,239.7z"/>
			<path class="st2" d="M139.1,243.7l0.9-4.7c0.1-0.7,0.3-1.4,0.3-1.9h1l-0.2,1.3l0,0c0.5-0.9,1.4-1.4,2.4-1.4
				c0.9,0,1.7,0.7,1.7,1.5c0,0.1,0,0.2,0,0.3c0,0.4-0.1,0.7-0.1,1.1l-0.7,3.9h-1.1l0.7-3.8c0.1-0.3,0.1-0.6,0.1-0.9
				c0-0.6-0.3-1.1-1-1.1s-2,1-2.3,2.6l-0.6,3.2h-1.1V243.7z"/>
			<path class="st2" d="M146.4,241.1c-0.1-2.2,1.5-4,3.7-4.2c1.4,0,2.6,1,2.6,2.4c0,0.1,0,0.2,0,0.3c0,2-1.4,4.2-3.7,4.2
				c-1.4,0-2.5-1.1-2.6-2.5C146.4,241.3,146.4,241.2,146.4,241.1z M151.5,239.7c0.1-0.9-0.5-1.7-1.4-1.8H150c-1.4,0-2.4,1.7-2.4,3.2
				c0,1.1,0.6,1.9,1.6,1.9C150.5,243,151.5,241.2,151.5,239.7z"/>
			<path class="st2" d="M152.9,246.4l1.3-7c0.1-0.8,0.3-1.7,0.4-2.4h1l-0.2,1.3l0,0c0.5-0.8,1.4-1.4,2.4-1.4c1.4,0,2,1.2,2,2.4
				c0,2.3-1.7,4.5-3.9,4.5c-0.5,0-1-0.1-1.4-0.3l0,0l-0.5,2.8L152.9,246.4z M154.8,242.6c0.4,0.3,0.8,0.4,1.3,0.4
				c1.5,0,2.7-1.8,2.7-3.6c0-0.7-0.3-1.5-1.3-1.5s-2,1-2.3,2.9L154.8,242.6z"/>
			<path class="st2" d="M160.7,243.7l0.9-4.7c0.1-0.7,0.2-1.4,0.3-1.9h1l-0.2,1.2l0,0c0.5-0.8,1.4-1.4,2.3-1.4
				c0.8-0.1,1.5,0.5,1.5,1.3v0.1c0.5-0.9,1.4-1.4,2.4-1.5c0.9,0,1.6,0.7,1.6,1.5c0,0.1,0,0.1,0,0.2c0,0.4,0,0.8-0.1,1.1l-0.7,3.9
				h-1.1l0.7-3.8c0.1-0.3,0.1-0.6,0.1-0.9c0-0.7-0.3-1.1-1-1.1s-1.8,1-2.1,2.4l-0.6,3.4h-1.1l0.7-3.9c0.1-0.3,0.1-0.5,0.1-0.8
				c0-0.6-0.1-1.1-1-1.1s-1.9,1.1-2.1,2.5l-0.6,3.3L160.7,243.7z"/>
			<path class="st2" d="M180.6,243.4c-0.8,0.3-1.6,0.4-2.4,0.4c-1.9,0.1-3.6-1.3-3.7-3.2c0-0.2,0-0.4,0-0.6c0-1.7,0.7-3.3,2-4.4
				c1-0.8,2.2-1.3,3.5-1.2c0.7,0,1.4,0.1,2,0.4l-0.4,0.9c-0.6-0.3-1.2-0.4-1.8-0.4c-1,0-1.9,0.4-2.6,1c-0.9,0.9-1.4,2.2-1.4,3.5
				c0,1.6,0.8,3,2.8,3c0.7,0,1.4-0.1,2-0.4L180.6,243.4z"/>
			<path class="st2" d="M186,243.7c0-0.4,0.1-1,0.1-1.7l0,0c-0.4,1.1-1.4,1.8-2.6,1.9c-1.1-0.1-2-1-1.9-2.1v-0.1
				c-0.1-2.5,1.9-4.7,4.5-4.7h0.1c0.6,0,1.2,0.1,1.8,0.2l-0.7,3.4c-0.2,1-0.3,2-0.3,3.1L186,243.7L186,243.7z M186.7,237.9
				c-0.3-0.1-0.5-0.1-0.8-0.1c-1.7,0-3.1,1.8-3.1,3.6c0,0.7,0.3,1.5,1.1,1.5s2.1-1.2,2.4-3L186.7,237.9z"/>
			<path class="st2" d="M191.1,237.1l-0.5,2.7h3l0.5-2.7h1.1l-1.3,6.6h-1.1l0.6-3h-3l-0.6,3h-1.1l1.3-6.6H191.1z"/>
			<path class="st2" d="M198.3,237.1l-0.5,2.9h0.2l2.9-2.9h1.4l-3.2,3c0.7,0.2,1.1,0.8,1.4,1.9c0.2,0.7,0.4,1.3,0.6,1.7h-1.2
				c-0.2-0.4-0.3-1-0.6-1.6c-0.4-1-0.8-1.4-1.6-1.4h-0.2l-0.6,3h-1.1l1.3-6.6L198.3,237.1z"/>
			<path class="st2" d="M202.2,243.7l0.9-4.7c0.1-0.7,0.2-1.4,0.3-1.9h1l-0.2,1.2l0,0c0.5-0.8,1.4-1.4,2.3-1.4
				c0.8-0.1,1.5,0.5,1.5,1.3v0.1c0.5-0.9,1.4-1.4,2.4-1.5c0.9,0,1.6,0.7,1.6,1.5c0,0.1,0,0.1,0,0.2c0,0.4,0,0.8-0.1,1.1l-0.7,3.9
				h-1.1l0.7-3.8c0.1-0.3,0.1-0.6,0.1-0.9c0-0.7-0.3-1.1-1-1.1s-1.8,1-2.1,2.4l-0.6,3.4h-1.1l0.7-3.9c0.1-0.3,0.1-0.5,0.1-0.8
				c0-0.6-0.1-1.1-1-1.1s-1.9,1.1-2.1,2.5l-0.6,3.3L202.2,243.7z"/>
			<path class="st2" d="M216.7,239.6l-0.2,0.9h-3.3l0.2-0.9H216.7z"/>
			<path class="st2" d="M225.5,234.5l-1.8,9.2h-1.1l1.6-8.2h-4l-1.6,8.2h-1.1l1.7-9.2H225.5z"/>
			<path class="st2" d="M230.5,243.3c-0.7,0.3-1.4,0.5-2.2,0.5c-1.3,0.1-2.4-0.9-2.5-2.3c0-0.1,0-0.3,0-0.4c0-2,1.5-4.2,3.6-4.2
				c0.9-0.1,1.8,0.5,1.9,1.5c0,0.1,0,0.1,0,0.2c0,1.7-1.9,2.2-4.4,2.1c-0.1,0.4,0,0.9,0.1,1.3c0.3,0.6,0.8,0.9,1.5,0.9
				c0.6,0,1.2-0.2,1.8-0.4L230.5,243.3z M229.2,237.8c-1.1,0-1.9,1-2.2,2.1c1.8,0,3.2-0.2,3.2-1.3
				C230.2,238.1,229.8,237.8,229.2,237.8L229.2,237.8z"/>
			<path class="st2" d="M231.9,243.7l0.9-4.7c0.1-0.7,0.2-1.4,0.3-1.9h1l-0.2,1.2l0,0c0.5-0.8,1.4-1.4,2.3-1.4
				c0.8-0.1,1.5,0.5,1.5,1.3v0.1c0.5-0.9,1.4-1.4,2.4-1.5c0.9,0,1.6,0.7,1.6,1.5c0,0.1,0,0.1,0,0.2c0,0.4,0,0.8-0.1,1.1l-0.7,3.9h-1
				l0.7-3.8c0.1-0.3,0.1-0.6,0.1-0.9c0-0.7-0.3-1.1-1-1.1s-1.8,1-2.1,2.4l-0.6,3.4h-1.1l0.7-3.9c0-0.3,0.1-0.5,0.1-0.8
				c0-0.6-0.1-1.1-1-1.1s-1.9,1.1-2.1,2.5l-0.6,3.3L231.9,243.7z"/>
			<path class="st2" d="M247.7,243.3c-0.7,0.3-1.4,0.5-2.2,0.5c-1.3,0.1-2.4-0.9-2.5-2.3c0-0.1,0-0.3,0-0.4c0-2,1.5-4.2,3.6-4.2
				c0.9-0.1,1.8,0.5,1.9,1.5c0,0.1,0,0.1,0,0.2c0,1.7-2,2.2-4.4,2.1c-0.1,0.4,0,0.9,0.1,1.3c0.3,0.6,0.8,0.9,1.5,0.9
				c0.6,0,1.2-0.2,1.8-0.4L247.7,243.3z M246.4,237.8c-1.1,0-1.9,1-2.2,2.1c1.8,0,3.2-0.2,3.2-1.3
				C247.5,238.1,247,237.8,246.4,237.8L246.4,237.8z"/>
			<path class="st2" d="M248.5,246.4l1.3-7c0.1-0.8,0.3-1.7,0.4-2.4h1l-0.1,1.3l0,0c0.5-0.8,1.4-1.4,2.4-1.4c1.4,0,2,1.2,2,2.4
				c0,2.3-1.7,4.5-3.9,4.5c-0.5,0-1-0.1-1.4-0.3l0,0l-0.5,2.8L248.5,246.4z M250.4,242.6c0.4,0.3,0.8,0.4,1.3,0.4
				c1.5,0,2.7-1.8,2.7-3.6c0-0.7-0.3-1.5-1.3-1.5s-2,1-2.3,2.9L250.4,242.6z"/>
			<path class="st2" d="M263.1,234.9c-0.3,0.1-0.6,0.2-0.9,0.2c-1.3,0-2.5,0.6-3.4,1.5c-0.4,0.6-0.8,1.2-0.9,1.9l0,0
				c0.5-0.9,1.4-1.4,2.4-1.4c1.2,0,2.2,1,2.2,2.2c0,0.1,0,0.2,0,0.3c0,2-1.3,4.2-3.6,4.2c-1.6,0-2.4-1.2-2.4-3.1
				c0-1.7,0.5-3.4,1.5-4.7c1-1.2,2.5-1.8,4-1.9c0.4-0.1,0.7-0.1,1.1-0.3L263.1,234.9z M261.4,239.7c0-0.9-0.4-1.8-1.4-1.8
				c-0.7,0.1-1.4,0.5-1.7,1.1c-0.4,0.6-0.6,1.3-0.6,2c0,1,0.4,1.9,1.4,1.9C260.6,243,261.4,241.1,261.4,239.7z"/>
			<path class="st2" d="M264.7,237.1l0.7,3.5c0.1,0.8,0.3,1.3,0.3,1.8l0,0c0.2-0.4,0.4-0.9,0.7-1.6l1.6-3.7h1.2
				c-0.7,1.5-1.7,3.7-2.4,5c-0.6,1.3-1.4,2.4-2.3,3.4c-0.5,0.5-1.2,0.9-1.9,1.1l-0.3-1c0.4-0.1,0.8-0.3,1.2-0.6
				c0.5-0.4,1-0.9,1.3-1.5c0-0.1,0-0.2,0-0.3l-1.3-6.2L264.7,237.1z"/>
			<path class="st2" d="M268.6,246.4l1.3-7c0.1-0.8,0.3-1.7,0.4-2.4h1l-0.1,1.3l0,0c0.5-0.8,1.4-1.4,2.4-1.4c1.4,0,2,1.2,2,2.4
				c0,2.3-1.7,4.5-3.9,4.5c-0.5,0-1-0.1-1.4-0.3l0,0l-0.5,2.8L268.6,246.4z M270.5,242.6c0.4,0.3,0.8,0.4,1.3,0.4
				c1.5,0,2.7-1.8,2.7-3.6c0-0.7-0.3-1.5-1.3-1.5s-2,1-2.3,2.9L270.5,242.6z"/>
			<path class="st2" d="M277.4,237.4c0.5-0.3,1.1-0.4,1.7-0.4c1.2,0,1.8,0.7,1.8,1.6c0,1.1-1,1.6-2,2.1c-0.8,0.4-1.5,0.8-1.5,1.4
				c0,0.5,0.3,0.8,1,0.8c0.6,0,1.1-0.2,1.6-0.4l0.2,0.8c-0.6,0.3-1.3,0.5-2,0.5c-1.2,0-1.9-0.6-1.9-1.7c0-1.1,1-1.7,2-2.2
				c0.7-0.3,1.5-0.7,1.5-1.3c0-0.4-0.3-0.7-0.9-0.8c-0.5,0-0.9,0.1-1.3,0.3L277.4,237.4z"/>
			<path class="st2" d="M285.8,243.7c0-0.4,0.1-1,0.1-1.7l0,0c-0.4,1.1-1.4,1.8-2.6,1.9c-1.1-0.1-2-1-1.9-2.1v-0.1
				c-0.1-2.5,1.9-4.7,4.5-4.7h0.1c0.6,0,1.2,0.1,1.8,0.2l-0.7,3.4c-0.2,1-0.3,2-0.3,3.1L285.8,243.7L285.8,243.7z M286.5,237.9
				c-0.3-0.1-0.5-0.1-0.8-0.1c-1.7,0-3.1,1.8-3.1,3.6c0,0.7,0.3,1.5,1.1,1.5c0.9,0,2.1-1.2,2.4-3L286.5,237.9z"/>
		</g>
	</g>
</g>
</svg>
