<?xml version="1.0" encoding="utf-8"?>
<!-- Generator: Adobe Illustrator 22.0.0, SVG Export Plug-In . SVG Version: 6.00 Build 0)  -->
<svg version="1.1" id="lenta" xmlns="http://www.w3.org/2000/svg" xmlns:xlink="http://www.w3.org/1999/xlink" x="0px" y="0px"
	 viewBox="0 0 400 400" style="enable-background:new 0 0 400 400;" xml:space="preserve">
<style type="text/css">
	.st0{fill:#FFFFFF;}
</style>
<g id="Graphics">
	<path class="st0" d="M75,205.1c4.4,10.5,14.7,17.3,26.1,17.3C96.7,211.9,86.4,205.1,75,205.1z"/>
	<path class="st0" d="M101.1,222.3c8.4,0,15.9-4.9,19.4-12.5C112.1,209.9,104.5,214.8,101.1,222.3z"/>
	<path class="st0" d="M101.1,165.7c-11.7,0-21.3,9.5-21.3,21.3c0,11.7,9.5,21.3,21.3,21.3s21.3-9.5,21.3-21.3
		C122.3,175.2,112.8,165.7,101.1,165.7z M101.1,197.6c-5.9,0-10.6-4.8-10.6-10.6s4.8-10.6,10.6-10.6s10.6,4.8,10.6,10.6
		S107,197.6,101.1,197.6z"/>
	<path class="st0" d="M237.9,186.9h8.9v34.5h-8.9V208h-15.5v13.4h-8.9v-34.5h8.9v12.7h15.5V186.9z M251,195.5H262v25.9h8.9v-25.9
		h10.9v-8.6H251V195.5z M325,213.9v7.3c-1.5,0.8-3.4,1.1-5.6,1.1c-4.6,0-6.9-2-7.9-5.2l-0.1,0.2c-2.7,3.4-6.4,5-11.2,5
		c-4.6,0-8.6-1.7-11.9-5.2c-3.2-3.5-4.9-7.9-4.9-13s1.7-9.4,4.9-12.9c3.3-3.5,7.2-5.3,11.9-5.3s8.2,1.5,10.9,4.6v-3.6h8.9v24.4
		c0,2.1,0.9,3.2,2.8,3.2C323.5,214.5,324.3,214.3,325,213.9z M311.3,204.1c0-2.8-0.9-5.2-2.8-7c-1.8-1.9-4.1-2.8-6.8-2.8
		c-2.8,0-5,0.9-6.8,2.8c-1.8,1.8-2.7,4.1-2.7,7c0,2.8,0.9,5.2,2.7,7c1.8,1.8,4.1,2.7,6.8,2.7c2.8,0,5-0.9,6.8-2.7
		C310.4,209.3,311.3,207,311.3,204.1z M140.2,186.9l-0.2,12.9c-0.1,5.2-0.2,7.8-1,10.8c-0.7,2.8-2,3.6-4.1,3.6
		c-0.6,0-1.2-0.1-1.8-0.2v7.3c0.7,0.4,1.8,0.6,3.4,0.6c6.2-0.2,9.3-3.2,10.8-8.5c1.1-3.8,1.2-6.7,1.5-11.1l0.2-7h11v25.9h8.9v-34.4
		H140.2z M183,206.5c1,5.9,5.6,7.8,10.4,7.8c3.1,0,6.4-1.2,8.4-3.1l5.5,5.5c-3.3,3.6-7.8,5.6-14.1,5.6c-8.7,0-19.2-5.1-19.2-18.2
		c0-13.1,10.1-18.2,18.7-18.2c10.9,0,15.4,5.1,15.4,10.9C208.1,206.2,196.2,210.5,183,206.5z M198.5,197.8c0-2.7-2.6-3.8-5.6-3.8
		c-4.5,0-8.5,1.9-9.6,6.8C192.5,203.4,198.5,201.4,198.5,197.8L198.5,197.8z"/>
</g>
</svg>
