<?xml version="1.0" encoding="utf-8"?>
<!-- Generator: Adobe Illustrator 22.0.0, SVG Export Plug-In . SVG Version: 6.00 Build 0)  -->
<svg version="1.1" id="zvezda" xmlns="http://www.w3.org/2000/svg" xmlns:xlink="http://www.w3.org/1999/xlink" x="0px" y="0px"
	 viewBox="0 0 400 400" style="enable-background:new 0 0 400 400;" xml:space="preserve">
<style type="text/css">
	.st0{fill:#FFFFFF;}
</style>
<g>
	<polygon class="st0" points="160.3,169.3 128.5,169.3 117.6,186.1 106.8,169.3 75,169.3 99,205.4 90.8,215.2 94.1,220.7 107,220.7 
		113.2,230.7 113.5,230.7 116.6,230.7 122,230.7 128.3,220.7 141.1,220.7 144.5,215.2 136.3,205.4 	"/>
	<g>
		<path class="st0" d="M171.5,194.3c-1.2,0-2.1-0.3-2.6-0.8c-0.6-0.6-0.8-1.4-0.8-2.6v-1.6c0-0.2,0.1-0.4,0.4-0.4h2.3
			c0.2,0,0.4,0.1,0.4,0.4v1.2c0,0.5,0.1,0.9,0.3,1.2c0.2,0.2,0.6,0.3,1.2,0.3h8.8c0.5,0,0.9-0.1,1.1-0.4c0.2-0.2,0.3-0.6,0.3-1.1
			v-1.1c0-0.5-0.1-0.9-0.3-1.1c-0.2-0.2-0.6-0.4-1.1-0.4h-6.9c-0.2,0-0.4-0.1-0.4-0.4v-1.6c0-0.2,0.1-0.4,0.4-0.4h6.7
			c0.5,0,0.9-0.1,1.1-0.4c0.2-0.2,0.3-0.6,0.3-1.1v-1.1c0-0.5-0.1-0.9-0.3-1.1c-0.2-0.2-0.6-0.3-1.1-0.3h-8.3
			c-0.5,0-0.9,0.1-1.1,0.3c-0.2,0.2-0.3,0.6-0.3,1.1v1.2c0,0.3-0.1,0.4-0.4,0.4h-2.3c-0.3,0-0.4-0.1-0.4-0.4v-1.6
			c0-1.2,0.3-2,0.8-2.6c0.6-0.6,1.4-0.8,2.6-0.8h10.5c1.2,0,2,0.3,2.6,0.8c0.5,0.5,0.8,1.3,0.8,2.4v1.8c0,1.3-0.5,2.1-1.5,2.3v0.1
			c0.6,0.1,1,0.3,1.3,0.7c0.3,0.4,0.4,1.1,0.4,2v1.6c0,1.2-0.3,2.1-0.8,2.6c-0.6,0.6-1.4,0.8-2.6,0.8H171.5z"/>
		<path class="st0" d="M206,186.3c0.6,0.1,1.1,0.4,1.3,0.8c0.3,0.5,0.4,1.2,0.4,2.2v1.6c0,1.2-0.3,2.1-0.8,2.6
			c-0.6,0.6-1.4,0.8-2.6,0.8h-14.2c-0.2,0-0.4-0.1-0.4-0.4v-14.5c0-0.2,0.1-0.4,0.4-0.4h13.6c1.2,0,2,0.3,2.6,0.8
			c0.6,0.5,0.8,1.3,0.8,2.3v1.8c0,1.3-0.4,2-1.1,2.3V186.3z M192.8,181.5v3.8h10c0.5,0,0.9-0.1,1.1-0.3c0.2-0.2,0.3-0.6,0.3-1.1V183
			c0-0.5-0.1-0.9-0.3-1.1c-0.2-0.2-0.6-0.4-1.1-0.4H192.8z M204.8,189.2c0-0.5-0.1-0.9-0.4-1.1c-0.2-0.2-0.6-0.4-1.1-0.4h-10.6v4.1
			h10.6c0.5,0,0.9-0.1,1.1-0.3c0.2-0.2,0.4-0.6,0.4-1.1V189.2z"/>
		<path class="st0" d="M227.3,191.8c0.2,0,0.4,0.1,0.4,0.4v1.7c0,0.3-0.1,0.4-0.4,0.4h-15.6c-0.2,0-0.4-0.1-0.4-0.4v-14.5
			c0-0.2,0.1-0.4,0.4-0.4H227c0.2,0,0.4,0.1,0.4,0.4v1.7c0,0.3-0.1,0.4-0.4,0.4h-12.8v3.8H226c0.2,0,0.4,0.1,0.4,0.4v1.7
			c0,0.2-0.1,0.4-0.4,0.4h-11.7v4H227.3z"/>
		<path class="st0" d="M233.4,194.3c-1.2,0-2.1-0.3-2.6-0.8c-0.6-0.6-0.8-1.4-0.8-2.6v-1.6c0-0.2,0.1-0.4,0.4-0.4h2.3
			c0.2,0,0.4,0.1,0.4,0.4v1.2c0,0.5,0.1,0.9,0.3,1.2c0.2,0.2,0.6,0.3,1.2,0.3h8.8c0.5,0,0.9-0.1,1.1-0.4c0.2-0.2,0.3-0.6,0.3-1.1
			v-1.1c0-0.5-0.1-0.9-0.3-1.1c-0.2-0.2-0.6-0.4-1.1-0.4h-6.9c-0.2,0-0.4-0.1-0.4-0.4v-1.6c0-0.2,0.1-0.4,0.4-0.4h6.7
			c0.5,0,0.9-0.1,1.1-0.4c0.2-0.2,0.3-0.6,0.3-1.1v-1.1c0-0.5-0.1-0.9-0.3-1.1c-0.2-0.2-0.6-0.3-1.1-0.3h-8.3
			c-0.5,0-0.9,0.1-1.1,0.3c-0.2,0.2-0.3,0.6-0.3,1.1v1.2c0,0.3-0.1,0.4-0.4,0.4h-2.3c-0.3,0-0.4-0.1-0.4-0.4v-1.6
			c0-1.2,0.3-2,0.8-2.6c0.6-0.6,1.4-0.8,2.6-0.8h10.5c1.2,0,2,0.3,2.6,0.8c0.5,0.5,0.8,1.3,0.8,2.4v1.8c0,1.3-0.5,2.1-1.5,2.3v0.1
			c0.6,0.1,1,0.3,1.3,0.7c0.3,0.4,0.4,1.1,0.4,2v1.6c0,1.2-0.3,2.1-0.8,2.6c-0.6,0.6-1.4,0.8-2.6,0.8H233.4z"/>
		<path class="st0" d="M270.7,191.5c0.3,0,0.4,0.1,0.4,0.4v5.3c0,0.2-0.1,0.4-0.4,0.4h-2.2c-0.2,0-0.4-0.1-0.4-0.4v-2.9h-15.8v2.9
			c0,0.2-0.1,0.4-0.4,0.4h-2.2c-0.3,0-0.4-0.1-0.4-0.4v-5.3c0-0.3,0.1-0.4,0.4-0.4c1,0,1.7-0.2,2.2-0.7c0.5-0.5,0.8-1.3,0.9-2.5
			l0.8-8.9c0-0.2,0.1-0.3,0.3-0.3h13.8c0.2,0,0.4,0.1,0.4,0.4v12.1H270.7z M255.9,188.1c-0.2,1.6-0.6,2.7-1.4,3.4h10.7v-9.7h-8.7
			L255.9,188.1z"/>
		<path class="st0" d="M290.2,193.8c0,0.1,0,0.2,0,0.2c0,0.2-0.1,0.3-0.3,0.3h-2.1c-0.3,0-0.4-0.1-0.5-0.3l-0.8-3h-11.4l-0.8,3
			c-0.1,0.2-0.2,0.3-0.5,0.3h-2.1c-0.2,0-0.3-0.1-0.3-0.3c0-0.1,0-0.2,0-0.2l4-14.4c0.1-0.2,0.2-0.3,0.5-0.3h9.8
			c0.3,0,0.4,0.1,0.5,0.3L290.2,193.8z M277.6,181.8l-1.3,4.9l-0.5,1.8h10.1l-0.5-1.8l-1.3-4.9H277.6z"/>
		<path class="st0" d="M181.7,205.2c1.2,0,2.1,0.3,2.6,0.8c0.6,0.6,0.8,1.4,0.8,2.6v2.3c0,1.2-0.3,2.1-0.8,2.6
			c-0.6,0.6-1.4,0.8-2.6,0.8h-10.2v5.7c0,0.3-0.1,0.4-0.4,0.4h-2.2c-0.2,0-0.4-0.1-0.4-0.4v-14.5c0-0.2,0.1-0.4,0.4-0.4H181.7z
			 M182.2,209.1c0-0.5-0.1-0.9-0.3-1.1c-0.2-0.2-0.6-0.3-1.1-0.3h-9.2v4.2h9.2c0.5,0,0.9-0.1,1.1-0.3c0.2-0.2,0.3-0.6,0.3-1.1V209.1
			z"/>
		<path class="st0" d="M204.4,217.9c0.2,0,0.4,0.1,0.4,0.4v1.7c0,0.3-0.1,0.4-0.4,0.4h-15.6c-0.2,0-0.4-0.1-0.4-0.4v-14.5
			c0-0.2,0.1-0.4,0.4-0.4h15.4c0.2,0,0.4,0.1,0.4,0.4v1.7c0,0.3-0.1,0.4-0.4,0.4h-12.8v3.8h11.7c0.2,0,0.4,0.1,0.4,0.4v1.7
			c0,0.2-0.1,0.4-0.4,0.4h-11.7v4H204.4z"/>
		<path class="st0" d="M227.1,217.6c0.3,0,0.4,0.1,0.4,0.4v5.3c0,0.2-0.1,0.4-0.4,0.4h-2.2c-0.2,0-0.4-0.1-0.4-0.4v-2.9h-15.8v2.9
			c0,0.2-0.1,0.4-0.4,0.4h-2.2c-0.3,0-0.4-0.1-0.4-0.4V218c0-0.3,0.1-0.4,0.4-0.4c1,0,1.7-0.2,2.2-0.7c0.5-0.5,0.8-1.3,0.9-2.5
			l0.8-8.9c0-0.2,0.1-0.3,0.3-0.3h13.8c0.2,0,0.4,0.1,0.4,0.4v12.1H227.1z M212.3,214.2c-0.2,1.6-0.6,2.7-1.4,3.4h10.7v-9.7h-8.7
			L212.3,214.2z"/>
		<path class="st0" d="M230.3,220.4c-0.2,0-0.4-0.1-0.4-0.4v-2c0-0.2,0.1-0.4,0.4-0.4h2.7c0.6,0,1-0.1,1.3-0.2
			c0.3-0.1,0.5-0.3,0.7-0.7l0.3-0.5l-8.3-10.6c-0.1-0.1-0.1-0.2-0.1-0.3c0-0.2,0.2-0.3,0.5-0.3h2.4c0.3,0,0.5,0.1,0.7,0.3l6.5,8.4
			h0.1l5.5-8.3c0.1-0.2,0.4-0.3,0.6-0.3h2.4c0.3,0,0.4,0.1,0.4,0.3c0,0.1,0,0.2-0.1,0.3l-7.9,11.8c-0.5,0.8-1,1.3-1.4,1.7
			s-0.9,0.7-1.4,0.8c-0.5,0.2-1.2,0.3-2.1,0.3H230.3z"/>
		<path class="st0" d="M263.3,219.7c0.2,0.1,0.2,0.2,0.2,0.4c0,0.1,0,0.2-0.1,0.2c-0.1,0.1-0.2,0.1-0.4,0.1h-2.9
			c-0.4,0-0.8-0.1-1.2-0.3l-8.7-6.7v6.6c0,0.3-0.1,0.4-0.4,0.4h-2.2c-0.2,0-0.4-0.1-0.4-0.4v-14.5c0-0.2,0.1-0.4,0.4-0.4h2.2
			c0.2,0,0.4,0.1,0.4,0.4v6.2l8.6-6.3c0.3-0.2,0.6-0.3,1-0.3h3c0.2,0,0.3,0,0.4,0.1c0.1,0.1,0.1,0.1,0.1,0.2c0,0.1-0.1,0.3-0.3,0.5
			l-9,6.6L263.3,219.7z"/>
		<path class="st0" d="M282.3,205.2c0.2,0,0.4,0.1,0.4,0.4v2c0,0.2-0.1,0.4-0.4,0.4h-7.4V220c0,0.3-0.1,0.4-0.4,0.4h-2.2
			c-0.2,0-0.4-0.1-0.4-0.4v-12.1h-7.4c-0.3,0-0.4-0.1-0.4-0.4v-2c0-0.2,0.1-0.4,0.4-0.4H282.3z"/>
		<path class="st0" d="M288.5,220.4c-1.3,0-2.3-0.3-2.9-1c-0.7-0.7-1-1.7-1-2.9v-7.3c0-1.3,0.3-2.3,1-2.9c0.7-0.7,1.7-1,2.9-1h11.8
			c1.3,0,2.3,0.3,2.9,1c0.7,0.7,1,1.7,1,2.9v7.3c0,1.3-0.3,2.3-1,2.9c-0.7,0.7-1.7,1-2.9,1H288.5z M299.4,217.8
			c0.6,0,1.1-0.1,1.4-0.4c0.3-0.3,0.4-0.8,0.4-1.4v-6.4c0-0.6-0.1-1.1-0.4-1.4c-0.3-0.3-0.7-0.4-1.4-0.4h-10c-0.6,0-1.1,0.1-1.4,0.4
			c-0.3,0.3-0.4,0.7-0.4,1.4v6.4c0,0.6,0.1,1.1,0.4,1.4c0.3,0.3,0.7,0.4,1.4,0.4H299.4z"/>
		<path class="st0" d="M321.5,205.2c1.2,0,2.1,0.3,2.6,0.8c0.6,0.6,0.8,1.4,0.8,2.6v2.3c0,1.2-0.3,2.1-0.8,2.6
			c-0.6,0.6-1.4,0.8-2.6,0.8h-10.2v5.7c0,0.3-0.1,0.4-0.4,0.4h-2.2c-0.2,0-0.4-0.1-0.4-0.4v-14.5c0-0.2,0.1-0.4,0.4-0.4H321.5z
			 M322,209.1c0-0.5-0.1-0.9-0.3-1.1c-0.2-0.2-0.6-0.3-1.1-0.3h-9.2v4.2h9.2c0.5,0,0.9-0.1,1.1-0.3c0.2-0.2,0.3-0.6,0.3-1.1V209.1z"
			/>
	</g>
</g>
</svg>
