<?xml version="1.0" encoding="utf-8"?>
<!-- Generator: Adobe Illustrator 22.0.0, SVG Export Plug-In . SVG Version: 6.00 Build 0)  -->
<svg version="1.1" id="toyota" xmlns="http://www.w3.org/2000/svg" xmlns:xlink="http://www.w3.org/1999/xlink" x="0px" y="0px"
	 viewBox="0 0 400 400" style="enable-background:new 0 0 400 400;" xml:space="preserve">
<style type="text/css">
	.st0{fill:#FFFFFF;}
</style>
<g>
	<path class="st0" d="M301.4,202l3.8-9.9l3.8,9.9H301.4z M309.1,186.6h-7.8l-10.9,26.7h6.8l2.5-6.5h11.1l2.5,6.5h6.8L309.1,186.6
		L309.1,186.6z M254,208.6c-4.4,0-8-4-8-8.9s3.6-8.9,8-8.9s8,4,8,8.9S258.4,208.6,254,208.6 M254,185.7c-7.8,0-14.1,6.3-14.1,14.1
		s6.3,14.1,14.1,14.1s14.1-6.3,14.1-14.1C268.2,192,261.8,185.7,254,185.7 M198.4,208.6c-4.4,0-8-4-8-8.9s3.6-8.9,8-8.9
		c4.4,0,8,4,8,8.9S202.8,208.6,198.4,208.6 M198.4,185.7c-7.8,0-14.1,6.3-14.1,14.1c0,7.8,6.3,14.1,14.1,14.1s14.1-6.3,14.1-14.1
		C212.5,192,206.1,185.7,198.4,185.7 M233.2,186.6l-6.9,10.8l-6.9-10.8h-6.8l10.7,16.8v10h6v-10l10.7-16.8L233.2,186.6L233.2,186.6z
		 M291.8,186.6H269v5.1h8.5v21.6h6v-21.6h8.4C291.8,191.7,291.8,186.6,291.8,186.6z M160.2,191.7h8.5v21.6h6v-21.6h8.4v-5.1h-22.8
		C160.2,186.6,160.2,191.7,160.2,191.7z"/>
	<g>
		<path class="st0" d="M106.2,200.5c0-0.3,0-0.5,0-0.8c-6.9-1-11.9-3.9-11.9-7.2c0-0.2,0-0.3,0-0.4c-1.8,2.1-2.8,4.6-2.8,7.2
			c0,7.5,8.2,13.7,18.7,14.3C107.9,211.9,106.2,206.7,106.2,200.5z"/>
		<path class="st0" d="M112.1,190.3c-1.6,0-2.9,2.4-3.4,5.9c1.1,0.1,2.3,0.2,3.4,0.2c1.2,0,2.3-0.1,3.4-0.2
			C115,192.8,113.6,190.3,112.1,190.3z"/>
		<path class="st0" d="M112.1,200.2c-1.3,0-2.5-0.1-3.7-0.2c0.1,4.9,1.7,8.8,3.7,8.8c2,0,3.6-3.9,3.7-8.8
			C114.6,200.1,113.3,200.2,112.1,200.2z"/>
		<path class="st0" d="M106.5,195.9c0.8-5.4,3-9.3,5.6-9.3c2.6,0,4.7,3.9,5.6,9.3c4.9-0.8,8.3-2.5,8.3-4.5c0-2.7-6.2-4.9-13.8-4.9
			s-13.8,2.2-13.8,4.9C98.2,193.4,101.6,195.2,106.5,195.9z"/>
		<path class="st0" d="M80,167.9v64.1h64.1v-64.1H80z M112.1,215.5c-13.3,0-24-7-24-15.6c0-6.1,5.4-11.4,13.4-13.9
			c3-1,6.7-1.5,10.7-1.5c4,0,7.7,0.6,10.7,1.5c7.9,2.5,13.4,7.8,13.4,13.9C136.1,208.5,125.3,215.5,112.1,215.5z"/>
		<path class="st0" d="M129.8,192.6c0,3.3-5,6.1-11.9,7.2c0,0.2,0,0.5,0,0.8c0,6.2-1.7,11.4-4.1,13.2h0c10.5-0.6,18.7-6.8,18.7-14.3
			c0-2.6-1-5.1-2.8-7.2C129.8,192.3,129.8,192.5,129.8,192.6z"/>
	</g>
</g>
</svg>
