<?xml version="1.0" encoding="utf-8"?>
<!-- Generator: Adobe Illustrator 22.0.0, SVG Export Plug-In . SVG Version: 6.00 Build 0)  -->
<svg version="1.1" id="maxidom" xmlns="http://www.w3.org/2000/svg" xmlns:xlink="http://www.w3.org/1999/xlink" x="0px" y="0px"
	 viewBox="0 0 400 400" style="enable-background:new 0 0 400 400;" xml:space="preserve">
<style type="text/css">
	.st0{fill:#FFFFFF;}
</style>
<g>
	<polygon class="st0" points="100,221.7 99.8,221.7 96.1,204.4 80,204.4 80,236 89.3,236 89.3,211.2 89.6,211.2 95,236 104.1,236 
		109.7,211.2 109.9,211.2 109.9,236 119.7,236 119.7,204.4 103.6,204.4 	"/>
	<path class="st0" d="M248.7,212.3h-20.8c0,4.4,1,13.1-2.6,16.9h-2.5v11h9.3V236h10.2v4.2h9.3v-11h-2.9V212.3z M239.4,229.3h-5.2
		c1.9-3.3,1.8-6.4,1.8-10.1h3.4V229.3z"/>
	<path class="st0" d="M265.2,211.8c-7.8,0-13.2,4.4-13.2,12.4c0,8,5.5,12.4,13.2,12.4c7.7,0,13.2-4.4,13.2-12.4
		C278.5,216.2,273,211.8,265.2,211.8z M265.2,229.8c-2,0-2.3-2.9-2.3-4.3v-2.5c0-1.5,0.2-4.3,2.3-4.3c2.4,0,2.2,4,2.2,5.6
		C267.5,225.8,267.6,229.8,265.2,229.8z"/>
	<polygon class="st0" points="303.9,204.4 300.4,221.7 300.2,221.7 296.4,204.4 280.3,204.4 280.3,236 289.6,236 289.6,211.2 
		289.8,211.2 295.3,236 304.4,236 310,211.2 310.2,211.2 310.2,236 320,236 320,204.4 	"/>
	<polygon class="st0" points="206.4,223.5 206.1,223.5 206.1,212.3 196.8,212.3 196.8,236 206.9,236 211.6,225 211.8,225 211.8,236 
		221.1,236 221.1,212.3 211.1,212.3 	"/>
	<path class="st0" d="M133.3,211.8c-2.6,0-6.9,0.6-9.3,1.4v6.2c2-1,5.2-1.9,7.5-1.9c2.6,0,5.2,0.5,5,3.7c-6.2,0-15-0.3-15,8.2
		c0,4.5,3,7.1,7.4,7.1c3.2,0,5.4-0.9,7.4-3.4h0.1v2.9h9.4v-15.1C145.8,213.5,139.5,211.8,133.3,211.8z M136.5,227
		c0,1.8-0.8,3.8-2.9,3.8c-1.3,0-2.4-0.9-2.4-2.3c0-2.5,2.3-2.9,4.3-2.9c0.3,0,0.6,0,0.9,0L136.5,227L136.5,227z"/>
	<path class="st0" d="M184.8,224.2c0-3.5,2-5.6,5.6-5.6c1.3,0,3,0.4,4.2,1.1v-6.8c-2.3-0.7-4.8-1.1-7.1-1.1c-8,0-13.6,3.8-13.6,12.2
		c0,7.9,5.4,12.6,13.2,12.6c2.7,0,5.1-0.4,7.7-1.2v-6.8c-1.5,0.6-2.9,1.2-4.6,1.2C186.8,229.8,184.8,227.4,184.8,224.2z"/>
	<polygon class="st0" points="175.7,212.3 164.4,212.3 158.6,222.7 158.4,222.7 158.4,212.3 148.3,212.3 148.3,236 158.4,236 
		158.4,225.6 158.6,225.6 164.4,236 175.7,236 168.4,224 	"/>
	<g>
		<path class="st0" d="M254.9,175.3L239,191.2l-1.6-1.6l15.9-15.9l-14-14h-26.2l-14.8,14.8l-14.8-14.8h-25.9l-14.6,14.6l-16,16
			l16,16h12.2l15.5-15.5l15.5,15.5h24.5l15.6-15.6l15.6,15.6H254l16.1-16.1L254.9,175.3z M143.5,205l-13.7-13.7h10.3l13.7,13.7
			H143.5z M140.1,189.6h-10.3l13.7-13.7h10.3L140.1,189.6z M145.1,174.4l13.1-13.1h10.3l-13.1,13.1H145.1z M170.6,161.2h10.3
			l-13.1,13.1h-10.3L170.6,161.2z M157.6,175.9h10.3l13.7,13.7h-10.3L157.6,175.9z M186.6,205L173,191.3h10.3l13.7,13.7H186.6z
			 M199.1,205l-13.8-13.8h10.3l13.8,13.8H199.1z M195.7,189.6h-10.3l13.7-13.7h10.3L195.7,189.6z M200.7,174.3l13-13H224l-13,13
			H200.7z M226.2,161.2h10.3l-13.1,13.1h-10.3L226.2,161.2z M213.4,175.9h10.3l13.7,13.7H227L213.4,175.9z M242.4,205l-13.7-13.7
			H239l13.7,13.7H242.4z"/>
	</g>
</g>
</svg>
