<?xml version="1.0" encoding="utf-8"?>
<!-- Generator: Adobe Illustrator 22.0.0, SVG Export Plug-In . SVG Version: 6.00 Build 0)  -->
<svg version="1.1" id="Layer_11" xmlns="http://www.w3.org/2000/svg" xmlns:xlink="http://www.w3.org/1999/xlink" x="0px" y="0px"
	 viewBox="0 0 400 400" style="enable-background:new 0 0 400 400;" xml:space="preserve">
<style type="text/css">
	.st0{fill:#FFFFFF;}
</style>
<g>
	<path class="st0" d="M141.7,190.1L141.7,190.1c8.9-13.3,13.5-26.9,13.5-42.9c0-16-4.8-29.8-13.5-43.1h-0.1
		c-7.8,12.5-12.8,25.6-13.3,40.2C127.8,160.5,132.5,176.6,141.7,190.1z M141.7,186.9L141.7,186.9c-2.5-4.9-3.8-10.2-3.8-15.6
		c0-5.3,1.3-10.9,3.8-15.5v-0.1c2.4,4.9,3.8,10.1,3.8,15.6C145.5,177,144.1,181.8,141.7,186.9L141.7,186.9z M131.7,143.9
		c0.9-11.8,4.5-22.5,10-33.2l0.1,0.1c6.3,11.4,9.7,22.7,10.3,35.6c0.3,5.7-0.3,11.3-1.5,16.9c0.3-5.8-0.1-11.2-1.1-16.8
		c-1.4-7.8-4.1-14.8-7.7-21.8l-0.1-0.1c-3.2,6.4-5.7,12.7-7.2,19.6c-1.4,6.4-1.7,12.4-1.7,19.1C131.8,156.7,131.2,150.4,131.7,143.9
		L131.7,143.9z"/>
	<path class="st0" d="M128,205.9c2.6-2.5,5-3.8,8.7-3.5c5.9,0.6,9.7,4.1,10,10c0.6,11.2-14.3,18-23.6,17.5
		c-13.5-0.7-22.4-9.4-24.5-21.7c-1.3-7.5,1.5-15.8,6.8-21.5c5.2-5.6,12.4-7.8,19.7-8v-33.7c-25.2,0-43.8,17.9-45.1,42.4
		c-1.4,27.3,18.4,45.8,43.7,46.7c13.4,0.5,23.4-4.5,32.6-13.2v-29H128V205.9L128,205.9z M163.1,233h8.4v-34.6h3.9v-6.6h-12.3V233z
		 M179.7,191.8l-4,41.2h7.5l0.9-7.6h3.3l0.9,7.6h7.5l-4-41.2L179.7,191.8L179.7,191.8z M184.4,217.9l1.1-14.9h0.4l1.2,14.9H184.4z
		 M215.6,211.7v-0.5c1.8-0.3,1.8-3.9,1.8-5.6v-6.6c0-5.1-0.4-7.4-6.2-7.4h-7c-5.9,0-6.3,3-6.3,7.4v5.4h8.4v-4.6
		c0-1.1,0.9-1.4,1.3-1.4c0.8,0,1.3,0.7,1.3,1.4v4.9c0,2.6-0.8,3.1-3.2,3.1h-1.6v7.2h1.4c3.2,0,3.4,1.4,3.4,2.7v7.5
		c0,0.7-0.5,1.4-1.3,1.4c-0.5,0-1.3-0.3-1.3-1.4V218h-8.4v7.6c0,5.9,0.4,7.4,6.3,7.4h7c5.4,0,6.2-1,6.2-7.4v-8.3
		C217.4,215.8,217.6,211.7,215.6,211.7z M221.2,233h8.4v-34.5h2.7V233h8.4v-41.2h-19.5V233z M258.3,191.8h-13.2V233h8.4v-14h4.8
		c5.9,0,6.3-2.7,6.3-7.4v-12.5C264.6,195.5,264.2,191.8,258.3,191.8L258.3,191.8z M256.1,210.5c0,1.3-0.7,2.1-1.6,2.1h-1.1v-14.2
		h1.1c0.9,0,1.6,0.8,1.6,2V210.5z M281.4,191.8h-7c-5.9,0-6.2,3.4-6.2,7.3v26.6c0,4.8,0.4,7.4,6.2,7.4h7c5.9,0,6.3-2.3,6.3-7.4
		v-26.5C287.7,195.1,287.3,191.8,281.4,191.8z M279.2,225.1c0,0.7-0.6,1.3-1.3,1.3c0,0,0,0,0,0c-0.5,0-1.3-0.3-1.3-1.3v-25.3
		c0-1.1,0.8-1.3,1.3-1.3c0.8,0,1.3,0.6,1.3,1.3V225.1z M309,191.8l-3.4,18.9l-3.1-18.9h-11V233h8.5v-18.7h0.3l2.8,18.7h5.2l2.9-18.7
		h0.3V233h8.4v-41.2H309z"/>
</g>
</svg>
