<?xml version="1.0" encoding="utf-8"?>
<!-- Generator: Adobe Illustrator 22.0.0, SVG Export Plug-In . SVG Version: 6.00 Build 0)  -->
<svg version="1.1" id="etalon" xmlns="http://www.w3.org/2000/svg" xmlns:xlink="http://www.w3.org/1999/xlink" x="0px" y="0px"
	 viewBox="0 0 400 400" style="enable-background:new 0 0 400 400;" xml:space="preserve">
<path id="logo" d="M163.5,179.5l-15.9,41h8.5l3.1-8h11.2l3.1-8h-11.2l5.6-14.5l11.8,30.4h8.5l-15.9-41L163.5,179.5L163.5,179.5z
	 M147.6,179.6H119v7.9h10.4v33.1h7.9v-33.1h10.3L147.6,179.6L147.6,179.6z M94.6,179.5c-5.7,0-10.9,2.3-14.6,6.1l5.6,5.6
	c2.3-2.3,5.5-3.8,9-3.8c6.9,0,12.5,5.6,12.5,12.5s-5.6,12.5-12.5,12.5c-3.5,0-6.7-1.5-9-3.8l-5.6,5.6c3.7,3.8,8.9,6.1,14.6,6.1
	c11.3,0,20.4-9.2,20.4-20.4C115,188.7,105.9,179.5,94.6,179.5 M106,196H89.4l0.1,8h13.4L106,196z M291.9,179.5h-8v41h8V204h16.9
	l3.1-8h-20V179.5z M312,179.5v18.4v22.6h8v-41H312L312,179.5z M255.5,179.5c-11.3,0-20.4,9.2-20.4,20.4s9.2,20.4,20.4,20.4
	c11.3,0,20.4-9.2,20.4-20.4C276,188.6,266.8,179.5,255.5,179.5 M255.5,212.5c-6.9,0-12.5-5.6-12.5-12.5s5.6-12.5,12.5-12.5
	S268,193.1,268,200C268.1,206.9,262.4,212.5,255.5,212.5 M208,179.5l-15.9,41h8.5l11.8-30.4l11.8,30.4h8.5l-15.9-41H208L208,179.5z"
	/>
</svg>
