<?xml version="1.0" encoding="utf-8"?>
<!-- Generator: Adobe Illustrator 22.0.0, SVG Export Plug-In . SVG Version: 6.00 Build 0)  -->
<svg version="1.1" id="lensvet" xmlns="http://www.w3.org/2000/svg" xmlns:xlink="http://www.w3.org/1999/xlink" x="0px" y="0px"
	 viewBox="0 0 400 400" style="enable-background:new 0 0 400 400;" xml:space="preserve">
<g>
	<g>
		<path d="M89.6,191.9c-0.2,0.5-0.4,1-0.7,1.5c-0.2,0.3-0.2,0.6,0.1,0.8c0.2,0.1,0.4,0.2,0.5,0.3s0.3,0.2,0.4,0.3s0.1,0.3-0.1,0.4
			c-0.1,0.1-0.3,0.1-0.4,0.1c-0.2,0-0.4,0.1-0.4,0.3c-0.2,0.4-0.5,0.8-0.8,1.1c-0.2,0.2-0.4,0.3-0.7,0.5c-0.3,0.2-0.6,0.3-0.9,0.5
			c-0.2,0.1-0.3,0.4-0.2,0.5l0.1,0.1c0.3,0.1,0.5,0.2,0.8,0.4c0.2,0.1,0.3,0.1,0.5,0c0-0.2-0.1-0.2-0.2-0.3c-0.1-0.2-0.1-0.2,0-0.4
			c0.2-0.2,0.4-0.3,0.6-0.5c0,0.2,0.1,0.3,0.1,0.5s0.1,0.3,0.2,0.4c0.2,0.2,0.2,0.3,0.2,0.5c0,0,0,0,0,0.1c0,0,0,0,0.1,0
			c0.2,0.1,0.3,0.1,0.2,0.3c0,0.2-0.2,0.3-0.3,0.4c-0.2,0-0.5,0-0.7,0c-0.3,0-0.5,0-0.8,0c-0.1,0-0.2,0-0.3,0.1
			c-0.1,0.1-0.3,0.2-0.4,0.4c-0.1,0-0.2,0-0.1,0.1c0,0.1,0.1,0.1,0.1,0.1c0.2,0.1,0.2,0.3,0.2,0.5c-0.3,0-0.4,0.2-0.4,0.4
			c-0.1,0.3-0.3,0.5-0.5,0.7c-0.1,0.1-0.2,0.1-0.3,0c-0.1-0.1-0.2-0.3-0.3-0.4c-0.1-0.2-0.2-0.4-0.3-0.6c-0.1-0.2-0.1-0.3,0.1-0.5
			c0.1-0.1,0.2-0.1,0.2-0.3c0,0-0.1-0.1-0.2-0.1c-0.2-0.1-0.4-0.2-0.5-0.4c0-0.1-0.1-0.1-0.2-0.1c-0.3,0-0.6,0-0.9,0
			c-0.1,0-0.2,0.1-0.2,0.1c-0.3,0.2-0.6,0.5-1,0.7s-0.8,0.3-1.3,0.2s-0.9-0.3-1.2-0.6c-0.2-0.2-0.4-0.2-0.7-0.1
			c-0.1,0-0.1,0.1-0.1,0.2c-0.1,0.4-0.2,0.7-0.3,1.1c0,0.1-0.1,0.2-0.1,0.3c-0.1,0.2,0,0.3,0.1,0.4c0.2,0.1,0.4,0.3,0.6,0.4
			c0.1,0.1,0.2,0.2,0.2,0.3c0.1,0.1,0,0.2-0.1,0.3s-0.3,0.2-0.4,0.3c-0.2,0.1-0.5,0.2-0.7,0.2c-0.1,0-0.2,0.1-0.3,0.1
			c0,0.3,0,0.3,0.2,0.3c0.5,0.2,1,0.4,1.4,0.6c0.4,0.2,0.7,0.4,1,0.7c0.4,0.4,0.6,1.1,0.3,1.6c-0.2,0.4-0.5,0.8-0.9,1.1
			c-0.3,0.2-0.7,0.5-1,0.7c-0.1,0.1-0.1,0.1-0.1,0.2c0.2,0.1,0.4,0.1,0.6,0.2c0.5,0.2,1,0.5,1.4,0.8c0.3,0.2,0.6,0.5,0.9,0.8
			c0.2,0.3,0.3,0.6,0.3,0.9c0,0.5,0.1,1,0.2,1.5c0,0.1,0,0.3,0,0.4c0,0.6,0.1,1.1,0.1,1.7c0,0.1,0.1,0.3,0.1,0.4
			c0.1,0.2,0.3,0.5,0.5,0.7c0.1,0.1,0.1,0.2,0.3,0.2c0.3,0.1,0.6,0.1,0.9,0.2c0.3,0.1,0.6,0.2,0.9,0.3c0.4,0.1,0.7,0.2,1,0.4
			s0.6,0.3,0.9,0.5c0.2,0.1,0.2,0.2,0.1,0.4s-0.2,0.4-0.3,0.6c0,0,0,0.1,0.1,0.1c0.2,0,0.4,0.1,0.5,0.3c0.1,0.1,0.2,0.1,0.3,0
			c1-0.5,2.1-0.6,3.2-0.5c0.5,0.1,1,0.1,1.5,0.3c0,0.2,0.1,6.1,0,6.6c-0.1,0-0.2,0-0.3,0c-1.1,0-2.2,0-3.3,0c-9.5,0-19,0-28.5,0
			c-0.4,0-0.4,0-0.4-0.4c0-2.5,0-5,0-7.5c0-0.1,0-0.1,0-0.2c0-0.1,0-0.2,0.2-0.2s0.5,0,0.7,0h0.1c0.2,0.2,0.4,0.1,0.7,0
			c0.1,0.1,0.2,0.3,0.4,0.4c0.1,0.2,0.3,0.2,0.5,0.2c0.1,0,0.2,0,0.3,0c0.1,0.1,0.2,0.2,0.2,0.3c0,0.2,0,0.4-0.1,0.6c0,0,0,0,0.1,0
			c0.6-0.1,1.3-0.2,1.8-0.5c0.3-0.1,0.6-0.2,0.8-0.3c0,0,0.1,0,0.1-0.1c0.2-0.2,0.4-0.4,0.6-0.6c0.3-0.2,0.6-0.4,0.9-0.6
			c0.3-0.1,0.6-0.3,1-0.3c0.3-0.1,0.6-0.1,0.9-0.1s0.6-0.1,0.9-0.2c0.3-0.2,0.7-0.4,1-0.5c0.1,0,0.1-0.1,0.2-0.2c0-0.2,0-0.4,0-0.5
			c0-0.5,0-1.1,0-1.6c0-0.7,0-1.4,0.1-2.2c0-0.1,0.1-0.3,0.2-0.3c0.4-0.5,1-0.9,1.6-1.3c0.3-0.2,0.6-0.4,0.9-0.5
			c0.1-0.1,0.3-0.1,0.4-0.2c-0.1-0.1-0.1-0.1-0.1-0.2c-0.3-0.2-0.5-0.4-0.8-0.5c-0.4-0.3-0.8-0.6-1-1.1c-0.3-0.5-0.3-1.1,0-1.6
			s0.8-0.8,1.3-1.1c0.3-0.2,0.7-0.3,1-0.5c0,0,0.1,0,0.1-0.1c0.1-0.1,0.1-0.3-0.1-0.3c-0.3-0.1-0.6-0.2-0.8-0.3
			c-0.2-0.1-0.3-0.2-0.5-0.4c-0.1-0.1-0.1-0.4,0.1-0.5c0.2-0.2,0.5-0.4,0.8-0.5c0.1,0,0.2-0.1,0.3-0.1c0-0.1,0-0.1-0.1-0.2
			c-0.3-0.4-0.4-0.9-0.6-1.3l-0.1-0.1c0-0.1,0-0.3-0.2-0.4c-0.2,0-0.4-0.1-0.7,0.1c-0.2,0.1-0.4,0.2-0.6,0.3c-0.5,0.2-1,0.2-1.4,0.1
			c-0.3,0-0.6-0.2-0.8-0.3c-0.5-0.2-1-0.5-1.4-0.9c-0.2-0.2-0.5-0.2-0.7-0.1c-0.1,0-0.2,0.1-0.3,0.1c-0.2,0.1-0.3,0.2-0.5,0.2
			c-0.3,0-0.3,0.1-0.3,0.4c0,0,0.1,0,0.2,0.1c0.2,0.1,0.3,0.3,0.2,0.6c-0.2,0.4-0.5,0.8-0.8,1c-0.2-0.2-0.4-0.4-0.6-0.7
			c-0.1-0.1-0.1-0.2-0.2-0.3c-0.1-0.2-0.1-0.4,0.1-0.6c0.1-0.1,0.1-0.2,0-0.5c-0.3,0-0.7-0.1-1-0.3s-0.6-0.2-0.9-0.2
			c-0.3,0-0.6,0-0.8-0.2s-0.3-0.4-0.1-0.6c0.1-0.2,0.3-0.3,0.5-0.5c0.1-0.1,0.2-0.2,0.2-0.4s0-0.4,0-0.6c0-0.1,0-0.2,0.1-0.2
			s0.3,0,0.4,0.1c0.1,0.3,0.2,0.6,0.1,1c0,0.1-0.1,0.1-0.1,0.2c-0.1,0.1-0.1,0.2,0,0.2c0.2,0.1,0.3,0.1,0.5,0
			c0.4-0.2,0.8-0.3,1.2-0.3c0.1-0.2,0-0.3,0-0.5l-0.1-0.1c-0.5-0.1-1-0.4-1.4-0.8c-0.4-0.4-0.7-0.7-1-1.2c-0.1-0.1-0.2-0.3-0.3-0.4
			c-0.1-0.2-0.2-0.2-0.4-0.3c-0.3-0.1-0.5-0.2-0.7-0.3c-0.2-0.2-0.2-0.3,0-0.4c0.3-0.3,0.6-0.4,1-0.5c0.3-0.1,0.3-0.1,0.3-0.3
			c0-0.1,0.1-0.2,0.1-0.3s0-0.2-0.1-0.3c-0.4-0.3-0.6-0.7-0.8-1.1c0-0.1,0-0.2,0-0.3c0.2,0,0.4,0,0.6,0c0-0.1,0-0.1,0-0.2
			c0.1-0.2,0.3-0.3,0.5-0.2c0,0,0.1,0,0.1,0.1c0.3,0.1,0.4,0.1,0.5-0.1c0.3-0.4,0.7-0.7,1.2-0.9c0.1-0.1,0.2-0.1,0.4-0.2
			c0-0.1,0-0.2-0.1-0.3c-0.1-0.2-0.1-0.4-0.1-0.7c0-0.1,0-0.3-0.1-0.4c0,0,0-0.1,0-0.2c0.1,0,0.1,0,0.2,0c0.2,0,0.3,0,0.4-0.2
			l0.1-0.1c0.2,0,0.3-0.1,0.3-0.2l0.1-0.1c0.2-0.1,0.3-0.1,0.4,0.1c0.1,0.1,0.2,0.3,0.4,0.2c0,0,0.1,0,0.2,0.1
			c0,0.1,0.1,0.1,0.1,0.2c0.2,0,0.3,0,0.5,0c0,0.1,0,0.1-0.1,0.2c-0.1,0.1-0.1,0.2-0.1,0.4c0,0.3,0,0.6-0.2,0.9
			c-0.1,0.1,0,0.2,0.1,0.3c0.1,0,0.2,0.1,0.3,0.1c0.4,0.2,0.7,0.4,1,0.8c0.1,0.2,0.4,0.2,0.6,0.1c0.2-0.1,0.2-0.1,0.3,0
			c0.1,0.2,0.2,0.2,0.4,0.2c0.1,0,0.2,0,0.3,0c-0.1,0.1-0.1,0.1-0.1,0.2c-0.1,0.1-0.2,0.3-0.2,0.5c-0.1,0.3-0.2,0.5-0.4,0.8
			c-0.1,0.2-0.2,0.4-0.2,0.6c0,0.2,0,0.4,0,0.6c0,0.3,0,0.3,0.3,0.4c0.2,0.1,0.4,0.1,0.6,0.2c0.1,0,0.1,0.1,0.2,0.1
			c0.2,0.1,0.1,0.3,0,0.4c-0.3,0.2-0.6,0.3-0.9,0.4c-0.2,0-0.3,0.1-0.4,0.3c-0.2,0.3-0.4,0.7-0.7,1c-0.3,0.4-0.8,0.7-1.3,0.9
			c-0.2,0.1-0.4,0.1-0.6,0.2c-0.1,0-0.2,0.1-0.2,0.2c0,0.1,0,0.2,0,0.3c0.1,0,0.1,0,0.2,0c0.2,0,0.4,0,0.6,0.1s0.3,0.3,0.5,0.4
			c0.2,0.1,0.5,0.2,0.6,0c0.3-0.3,0.7-0.6,1.1-0.8c0.2-0.1,0.4-0.2,0.6-0.2c0.2-0.1,0.4-0.1,0.6-0.1c0.1,0,0.1,0,0.2,0
			c0.3,0.1,0.6,0.1,0.9,0.2c0.3,0.1,0.6,0.3,0.9,0.4c0.1,0.1,0.2,0.1,0.4,0.2c0.2,0.1,0.2,0.1,0.3-0.1c0.2-0.4,0.4-0.7,0.5-1.1
			c0.2-0.3,0.2-0.7,0.2-1.1c0-0.1,0-0.2,0-0.3c0-0.2,0-0.4-0.3-0.5c-0.2-0.1-0.2-0.3,0-0.5c0.1-0.1,0.1-0.1,0.2-0.2
			c0.1-0.1,0.1-0.2,0.1-0.3s-0.1-0.1-0.2-0.1c-0.2,0-0.4,0-0.5-0.1c-0.2-0.1-0.2-0.2-0.1-0.3s0.2-0.2,0.3-0.2c0.1,0,0.1-0.1,0.2-0.1
			c0.1-0.1,0.2-0.2,0.1-0.3c-0.1-0.2-0.1-0.3,0.1-0.4c0.2-0.1,0.4-0.3,0.5-0.4c0.1-0.1,0.2-0.1,0.3,0c0.2,0.1,0.4,0,0.4-0.3
			c0-0.2,0-0.3,0-0.5c0-0.4,0-0.7,0-1.1c-0.2,0-0.2-0.2-0.2-0.3c0-0.5,0-0.9-0.1-1.4c0-0.2-0.1-0.3-0.2-0.4
			c-0.1-0.1-0.2-0.1-0.3-0.1c-0.2,0-0.4,0.1-0.6,0.2c-0.3,0.2-0.3,0.2-0.4-0.1l-0.1-0.1c0,0,0-0.1,0.1-0.1c0.1-0.2,0.1-0.2-0.1-0.4
			l0,0c-0.2-0.2-0.2-0.3,0-0.5c0.1-0.1,0.2-0.1,0.2-0.1c0.4,0,0.9,0,1.3,0c0.1,0,0.1,0,0.2,0c0.1-0.2,0-0.5,0-0.7
			c-0.2,0-0.3-0.1-0.4-0.1s-0.1-0.1-0.1-0.1c0-0.1,0-0.2,0.1-0.2s0.2-0.1,0.3-0.1c0.1,0,0.2-0.1,0.2-0.2c0-0.2-0.1-0.2-0.2-0.3
			c-0.8-0.3-1.5-0.9-2-1.6c-0.3-0.4-0.5-0.9-0.7-1.4c0-0.1-0.1-0.2-0.2-0.2s-0.3-0.1-0.4-0.1c-0.1-0.1-0.3-0.2-0.4-0.3
			c0,0-0.1-0.1,0-0.2c0.1-0.2,0.3-0.4,0.5-0.4c0.1,0,0.3,0,0.4,0c0.2,0,0.2,0,0.2-0.2c0-0.4-0.1-0.9-0.2-1.3c0-0.1-0.1-0.2-0.2-0.3
			c-0.2-0.2-0.2-0.3,0-0.5c0.1,0,0.1-0.1,0.1-0.2c0-0.1,0-0.1,0-0.2c0.1-0.2,0.2-0.3,0.4-0.2c0.3,0.1,0.6-0.1,0.8-0.3
			c0.5-0.5,1.1-0.9,1.7-1.2c0-0.2-0.1-0.5-0.1-0.8c-0.2-0.1-0.4-0.2-0.5-0.3s-0.1-0.1-0.1-0.2c0-0.1,0.1-0.1,0.2-0.1
			c0.2,0.1,0.4,0.1,0.6,0.2c0.2,0.1,0.2,0.1,0.4-0.1c0.1-0.1,0.3-0.2,0.4-0.3s0.2-0.1,0.3,0c0.1,0.1,0.3,0.2,0.4,0.3
			c0.2,0.1,0.2,0.2,0.3,0.1c0.2-0.1,0.4-0.2,0.7-0.3c0,0,0.1,0.1,0.2,0.2c0,0,0,0.1-0.1,0.1c-0.1,0.1-0.3,0.2-0.5,0.3
			c-0.1,0.1-0.2,0.2-0.2,0.3c0,0.2,0,0.4,0,0.6c0.4,0.3,0.8,0.5,1.2,0.8c0.4,0.3,0.8,0.7,1.1,1c0.1-0.1,0.1-0.1,0.2-0.2
			c0.2-0.1,0.4-0.1,0.4,0.2c0,0.1,0,0.3,0.2,0.4c0,0,0,0.1,0,0.2c0,0.1-0.1,0.2-0.2,0.2c-0.3,0.1-0.3,0.4-0.3,0.6c0,0.3,0,0.6,0,0.9
			c0,0.3,0.2,0.4,0.5,0.3c0.1-0.1,0.3,0,0.4,0c0,0.1,0.1,0.2,0.3,0.2c0.2,0,0.2,0.1,0.1,0.3c-0.2,0.2-0.3,0.4-0.6,0.4
			c-0.1,0-0.2,0.1-0.2,0.2c-0.1,0.4-0.3,0.7-0.4,1.1c-0.2,0.4-0.5,0.7-0.8,1.1c-0.4,0.4-0.9,0.8-1.5,1c-0.2,0.1-0.3,0.1-0.5,0.2
			c-0.1,0-0.1,0.1-0.1,0.2c0,0.1,0.1,0.1,0.2,0.2c0.4,0.1,0.5,0.1,0.6,0.3c0,0.1-0.1,0.2-0.3,0.3c-0.2,0.1-0.3,0.4-0.2,0.6
			c0,0.1,0.1,0.1,0.2,0.1c0.3,0,0.5,0,0.8,0s0.6,0,0.9,0c0.1,0,0.2,0,0.2,0.1s0,0.2-0.2,0.3c-0.3,0.1-0.3,0.2-0.2,0.5
			c0,0.1,0,0.2-0.1,0.3s-0.2,0.2-0.2,0.3c-0.3-0.4-0.7-0.3-1.1-0.2c-0.3,0.3-0.2,0.7-0.2,1s0,0.5,0,0.8c0,0.2,0,0.3-0.1,0.4
			c-0.1,0.1-0.1,0.2-0.1,0.3c0,0.4,0,0.8,0,1.1c0,0.2,0,0.3,0.2,0.4l0.1,0.1c0.4-0.1,0.6,0.2,0.8,0.5c0.1,0.2,0.2,0.4,0,0.6
			c0,0,0,0.1-0.1,0.2c0.1,0,0.2,0.1,0.3,0.1c0.2,0.1,0.3,0.1,0.5,0.3c0.1,0.1,0.2,0.1,0.1,0.2c0,0.1-0.1,0.2-0.2,0.2
			c-0.2,0-0.3,0.1-0.5,0.1c-0.1,0-0.1,0-0.2,0c0,0.1,0,0.2,0,0.2c0.1,0.1,0.3,0.1,0.4,0.2c0.2,0.1,0.2,0.3,0,0.4
			c-0.1,0.1-0.2,0.1-0.2,0.1c-0.2,0.1-0.2,0.1-0.2,0.3c0,0.4,0.1,0.9,0.3,1.3c0.2,0.4,0.3,0.7,0.5,1.1c0.1,0.2,0.2,0.5,0.3,0.7
			c0.2,0.1,0.4-0.1,0.5-0.1c0.8-0.3,1.6-0.5,2.4-0.6c0.4,0,0.8,0,1.1,0.2c0.2,0.1,0.4,0.3,0.4,0.5c0.1,0.2,0.1,0.3,0.1,0.5
			c0,0.1,0,0.2,0,0.3c0.2,0,0.5,0,0.7-0.2s0.5-0.3,0.8-0.4c0.1-0.4,0-0.4-0.3-0.5c-0.2-0.1-0.4-0.2-0.6-0.4c-0.5-0.4-1-0.9-1.3-1.5
			c-0.2-0.3-0.3-0.6-0.4-0.9c-0.1,0-0.2,0-0.4,0c-0.1,0-0.3,0-0.4-0.1c-0.2-0.1-0.2-0.3-0.1-0.5s0.3-0.4,0.6-0.4
			c0.1,0,0.2-0.1,0.3-0.1c0.1,0,0.1-0.1,0.1-0.2c0-0.2-0.1-0.4-0.1-0.6c0-0.3-0.1-0.4-0.3-0.6c-0.1-0.1-0.2-0.2-0.3-0.2
			c-0.2-0.2-0.2-0.2-0.1-0.5c0.2,0,0.4,0.2,0.6,0.1c0-0.3,0.2-0.4,0.4-0.6c0.2,0.1,0.5,0.3,0.8,0.4c0.2-0.2,0.3-0.3,0.5-0.5
			c0.3-0.2,0.5-0.5,0.8-0.7c0.2-0.2,0.2-0.3,0-0.5s-0.2-0.4-0.3-0.6c0-0.1-0.1-0.2-0.1-0.3c0.1,0,0.2,0,0.3,0c0.3,0,0.5-0.1,0.6-0.3
			c0,0,0.1,0,0.1-0.1c0.3-0.2,0.3-0.2,0.5,0s0.4,0.3,0.7,0.2c0.1,0,0.1,0,0.2,0s0.2,0.2,0.1,0.3c0,0.1-0.1,0.1-0.1,0.2
			c-0.2,0.2-0.3,0.3-0.3,0.6c0,0.1,0,0.2-0.1,0.2c-0.1,0.2,0,0.2,0.1,0.4c0.3,0.3,0.6,0.6,0.8,0.8c0.1,0.1,0.2,0.2,0.3,0
			c0.2-0.2,0.3-0.2,0.5,0c0.1,0.1,0.2,0.1,0.2,0.2c0.1,0.2,0.3,0.2,0.5,0.2C89.4,191.8,89.5,191.8,89.6,191.9z M76.5,178.9
			c-0.3,0-0.5,0-0.7,0c-0.3,0.1-0.6,0.2-0.9,0.3c-0.5,0.2-0.7,0.6-0.7,1.1c0,0.3,0.1,0.6,0.3,0.9c0.1,0.2,0.3,0.3,0.5,0.3
			s0.4-0.1,0.6-0.2c0.1-0.1,0.2-0.1,0.3-0.1c0.4,0.1,0.7-0.1,1-0.3c0.2-0.1,0.3-0.1,0.4,0.1c0.1,0.2,0.2,0.2,0.4,0.1
			c0.2-0.1,0.4-0.2,0.7-0.3c0.2-0.1,0.4-0.2,0.6-0.4s0.2-0.4,0-0.6c-0.2-0.2-0.5-0.4-0.8-0.6c-0.3-0.1-0.6-0.2-0.9-0.3
			C77,178.9,76.7,179,76.5,178.9z M68.5,192.9C68.5,192.9,68.5,192.8,68.5,192.9c-0.2-0.2-0.3-0.2-0.5-0.3c-0.4-0.1-0.8-0.2-1.3-0.2
			c-0.1,0-0.1,0-0.2,0c-0.2-0.1-0.3-0.1-0.5,0c-0.1,0-0.3,0-0.4,0.1c-0.1,0-0.2,0-0.4,0c-0.2,0-0.5,0.1-0.6,0.4
			c0,0.1-0.1,0.1-0.1,0.2c-0.2,0.2-0.2,0.3-0.1,0.5c0,0.1,0.1,0.1,0.1,0.2c0,0.1,0,0.2-0.1,0.3c0.2,0.3,0.5,0.6,0.9,0.4
			c0-0.1,0-0.2,0.1-0.4c0.1,0.1,0.1,0.1,0.2,0.1c0.2,0.2,0.4,0.3,0.7,0.1c0.1-0.1,0.2-0.1,0.3-0.1c0.1,0,0.2-0.1,0.2-0.1
			c0.2-0.3,0.4-0.3,0.7-0.4c0.1,0,0.1,0,0.1,0c0,0.1-0.1,0.2-0.1,0.4c0.3,0,0.5-0.1,0.6-0.3c0-0.1,0-0.1,0-0.2
			c-0.1-0.3,0-0.5,0.2-0.6C68.4,192.9,68.5,192.9,68.5,192.9z M87.3,194.2c0.3,0.1,0.5,0.3,0.8,0.4c0-0.2-0.1-0.4-0.3-0.5
			c-0.1-0.1-0.2-0.2-0.4-0.3c-0.1-0.1-0.2-0.1-0.4-0.1c-0.1,0.1-0.2,0-0.4,0c-0.2-0.1-0.4-0.1-0.6-0.2c-0.4-0.1-0.8,0-1.1,0.1
			c-0.4,0.1-0.7,0.3-0.9,0.7c-0.2,0.3,0,0.7,0.2,0.9c0.1,0.1,0.2,0.1,0.2,0l0.1-0.1c0.1-0.1,0.1-0.2,0.2-0.2s0.2,0.1,0.2,0.2
			c0,0.1,0.1,0.2,0.2,0.3s0.1,0.1,0.2,0c0,0,0-0.1,0.1-0.1s0.2,0.1,0.2,0.1c0.2-0.1,0.5-0.1,0.6-0.3c0.1-0.1,0.2-0.1,0.3-0.1
			c0.1,0,0.1,0,0.2,0c0.1-0.2,0.2-0.4,0.4-0.4C87.3,194.5,87.2,194.4,87.3,194.2z M79.2,181.9c-0.1-0.1-0.1-0.2-0.2-0.1
			c-0.1,0-0.2,0.1-0.2,0.1c-0.1,0.2-0.2,0.3-0.3,0.5c-0.1,0.2-0.2,0.2-0.4,0.2c-0.2,0-0.5,0.1-0.7,0.1c-0.1,0-0.3,0.1-0.3,0.3
			c0.3,0.2,0.5,0.2,0.8,0.1c0.3-0.1,0.5-0.4,0.9-0.5c0.1,0,0.2-0.1,0.2-0.2c0.1-0.1,0.1-0.1,0.1-0.2C79.1,182.1,79.1,182,79.2,181.9
			z M72.9,210.4C72.9,210.4,73,210.4,72.9,210.4c0.5,0.2,1,0.1,1.5,0.1c0.1,0,0.1-0.1,0.2-0.1c0-0.1,0-0.2-0.1-0.2
			c-0.1-0.1-0.3-0.2-0.5-0.1C73.6,210.2,73.3,210.3,72.9,210.4C73,210.3,72.9,210.3,72.9,210.4z M73.4,211.9
			c-0.2-0.1-0.4-0.2-0.6-0.3c-0.1,0-0.3,0-0.4,0s-0.2,0.1-0.2,0.2c0.3,0.2,0.6,0.2,0.9,0.1C73.3,212,73.3,211.9,73.4,211.9z
			 M74.8,182.6c0,0.2,0.1,0.3,0.2,0.3c0.2,0,0.3,0,0.4,0.1h0.1c0.1,0,0.3,0,0.3-0.1s-0.1-0.2-0.2-0.3c-0.1,0-0.1,0-0.2,0
			C75.2,182.5,75,182.5,74.8,182.6z M77.7,192.2c-0.1,0-0.2,0.1-0.2,0.1c-0.2,0.1-0.2,0.2-0.1,0.4c0,0.1,0,0.1,0.1,0.2
			c0.1,0,0.1,0.1,0.2,0.1s0.2-0.1,0.2-0.2C77.9,192.6,77.9,192.4,77.7,192.2z M75.6,192.7c0-0.1,0-0.3,0-0.4l-0.1-0.1
			c-0.1,0-0.2,0-0.3,0.1c-0.1,0.1-0.1,0.2,0,0.3C75.2,192.7,75.3,192.7,75.6,192.7C75.5,192.7,75.5,192.7,75.6,192.7z M62.5,221
			c0.1,0.2,0.2,0.3,0.4,0.3c0.1,0,0.2-0.1,0.2-0.3c0-0.1-0.1-0.2-0.2-0.3C62.8,220.7,62.7,220.7,62.5,221z M73.8,179.5
			c0.4-0.1,0.5-0.2,0.4-0.5C73.9,179,73.7,179.2,73.8,179.5z M76.5,175.8c-0.2-0.1-0.3-0.1-0.4-0.1c-0.1,0.1,0,0.2,0,0.3
			c0,0,0,0.1,0.1,0.1s0.1,0.1,0.2,0.1c0,0,0.1-0.1,0.1-0.2C76.5,176,76.5,175.9,76.5,175.8z M77.1,176.4c0-0.2-0.1-0.3-0.3-0.3
			c-0.1,0-0.1,0.1-0.1,0.2c0.1,0.1,0.1,0.2,0.2,0.2H77C77.1,176.5,77.1,176.5,77.1,176.4L77.1,176.4z"/>
	</g>
	<g>
		<path d="M101.9,180c0,0.1,0.1,0.4,0.2,0.8c0.1,0.2,0.1,0.4,0.1,0.6h-0.4c-0.3-0.4-0.6-0.7-0.9-0.9s-0.7-0.3-1.1-0.3
			c-0.5,0-0.9,0.2-1.2,0.6c-0.4,0.5-0.6,1.2-0.6,2.2c0,0.5,0,0.9,0.1,1.1c0.1,0.4,0.3,0.7,0.4,0.9s0.3,0.3,0.5,0.4
			c0.3,0.1,0.6,0.2,0.9,0.2s0.7-0.1,1-0.3s0.6-0.5,0.9-1c0.1,0,0.3,0,0.5,0c0,0.1,0,0.2-0.1,0.4c0,0.1,0,0.2-0.1,0.6v0.1l-0.1,0.2
			c-0.2,0.1-0.5,0.3-0.8,0.3c-0.3,0.1-0.8,0.1-1.3,0.1c-0.4,0-0.8,0-1.1-0.1c-0.3-0.1-0.6-0.2-0.9-0.3c-0.4-0.2-0.6-0.5-0.8-0.7
			c-0.2-0.3-0.4-0.6-0.5-0.9c-0.1-0.3-0.1-0.7-0.1-1c0-0.9,0.3-1.7,0.9-2.3s1.4-0.9,2.4-0.9c0.4,0,0.8,0,1.1,0.1
			C101.3,179.9,101.6,180,101.9,180z"/>
		<path d="M106.4,185.1l0.1,0.1c0,0,0,0,0.1,0.1l0,0c-0.1,0.3-0.2,0.5-0.3,0.6c-0.1,0.1-0.3,0.2-0.5,0.2s-0.3-0.1-0.5-0.2
			c-0.1-0.1-0.3-0.3-0.4-0.5c-0.1,0.2-0.3,0.4-0.6,0.5c-0.2,0.1-0.5,0.2-0.9,0.2c-0.3,0-0.6-0.1-0.7-0.2c-0.2-0.1-0.2-0.3-0.2-0.5
			c0-0.1,0-0.2,0.1-0.3c0-0.1,0.1-0.2,0.2-0.3s0.3-0.2,0.5-0.3c0,0,0.2-0.1,0.4-0.2l1.2-0.5c0-0.1,0-0.2,0-0.4
			c0-0.4-0.1-0.7-0.2-0.9c-0.1-0.1-0.2-0.1-0.3-0.1c-0.2,0-0.3,0-0.4,0.1s-0.2,0.1-0.3,0.2c0,0.1-0.1,0.2-0.1,0.4
			c0,0.1,0,0.2-0.1,0.2c0,0.1-0.1,0.1-0.3,0.2c-0.1,0-0.2,0.1-0.3,0.1c-0.2,0.1-0.3,0.1-0.4,0.1c0,0-0.1-0.1-0.1-0.2
			c0-0.2,0-0.3,0.1-0.5s0.3-0.4,0.5-0.5c0.2-0.2,0.4-0.3,0.6-0.4c0.3-0.1,0.6-0.1,1-0.1c0.3,0,0.5,0,0.6,0.1
			c0.2,0.1,0.3,0.2,0.4,0.4s0.1,0.5,0.1,1v0.8v0.6v0.1c0,0.1,0,0.2,0.1,0.3l0.1,0.1h0.1L106.4,185.1L106.4,185.1z M104.9,184.1
			c-0.2,0.1-0.4,0.2-0.6,0.3s-0.4,0.3-0.5,0.4c-0.1,0.1-0.1,0.2-0.1,0.4c0,0.1,0,0.2,0.1,0.3s0.2,0.1,0.3,0.1c0.2,0,0.3-0.1,0.4-0.2
			c0.2-0.1,0.3-0.2,0.3-0.3s0-0.3,0-0.7C104.9,184.3,104.9,184.2,104.9,184.1z"/>
		<path d="M108,184h0.2h0.7h0.2h0.3c0.1,0,0.3,0,0.5,0v-0.5c0-0.5,0-0.7,0-0.8s-0.1-0.1-0.3-0.1c-0.1,0-0.2,0-0.3,0l-0.1-0.3
			c0.4,0,0.7,0,0.9,0h0.2h0.4c0.4,0,0.7,0,0.9,0l-0.1,0.3c-0.2,0-0.3,0-0.3,0c-0.1,0-0.2,0-0.2,0.1c0,0,0,0.2,0,0.5v0.6v0.8
			c0,0.7,0,1.1,0.1,1.2c0.2,0,0.3,0.1,0.4,0.1s0.1,0,0.1,0v0.3H111c-0.2,0-0.3,0-0.5,0h-0.7h-0.6v-0.3h0.1c0.2,0,0.3-0.1,0.4-0.1
			c0.1-0.3,0.1-0.7,0.1-1.1v-0.3c-0.2,0-0.4,0-0.6,0c-0.3,0-0.5,0-0.6,0h-0.4c-0.1,0-0.2,0-0.3,0v0.2v0.7c0,0.2,0,0.3,0.1,0.5
			c0.2,0,0.3,0.1,0.4,0.1s0.1,0,0.1,0v0.3h-0.6c-0.2,0-0.3,0-0.5,0h-0.7h-0.6v-0.3h0.1c0.2,0,0.3-0.1,0.4-0.1c0-0.2,0.1-0.6,0.1-1.2
			v-1.3c0-0.4,0-0.6-0.1-0.6c0,0-0.1,0-0.2,0s-0.2,0-0.3,0l-0.1-0.3c0.4,0,0.7,0,0.9,0h0.2h0.4c0.4,0,0.7,0,0.9,0l-0.1,0.3
			c-0.2,0-0.3,0-0.3,0c-0.1,0-0.2,0-0.2,0.1c0,0,0,0.2,0,0.5C108,183.5,108,183.8,108,184z"/>
		<path d="M113.7,182.2l-0.1,0.3h-0.3c-0.1,0-0.2,0-0.2,0s0,0.1-0.1,0.2c0,0,0,0.1,0,0.2c0,0.3,0,0.4,0,0.5v0.4
			c0.2-0.1,0.4-0.2,0.5-0.3s0.3-0.3,0.5-0.6c0.5-0.7,1-1,1.4-1c0.2,0,0.4,0.1,0.5,0.2c0.1,0.1,0.2,0.2,0.2,0.4c0,0.1,0,0.2-0.1,0.3
			s-0.2,0.1-0.3,0.1c-0.2,0-0.3-0.1-0.4-0.2c-0.1-0.1-0.2-0.1-0.2-0.1c-0.1,0-0.2,0-0.3,0.1c-0.1,0.1-0.3,0.2-0.4,0.5
			c-0.2,0.2-0.3,0.3-0.4,0.4c0.2,0.1,0.3,0.2,0.5,0.3c0.2,0.2,0.5,0.5,0.9,1c0.2,0.3,0.4,0.5,0.5,0.5c0.1,0.1,0.3,0.1,0.5,0.2v0.2
			v0.1c0,0-0.1,0-0.2,0c-0.2,0-0.3,0-0.5,0s-0.4,0-0.7,0c0-0.1-0.2-0.2-0.3-0.4l-0.5-0.6c-0.3-0.4-0.5-0.6-0.6-0.7
			c-0.1-0.1-0.3-0.1-0.5-0.1v1.1v0.2v0.2c0.1,0.1,0.2,0.1,0.4,0.1h0.1v0.1v0.1c0,0,0,0,0,0.1l0,0h-0.5c-0.2,0-0.4,0-0.6,0
			c-0.1,0-0.3,0-0.7,0c-0.1,0-0.2,0-0.2,0c-0.1,0-0.1,0-0.2,0c0-0.1,0-0.1,0-0.2v-0.1c0.1,0,0.1,0,0.2-0.1c0.1,0,0.1,0,0.1,0h0.2
			c0.1,0,0.1,0,0.1,0s0.1-0.5,0.1-1.4V184v-0.5v-0.6c0-0.2,0-0.4,0-0.4c0-0.1-0.1-0.1-0.3-0.1c-0.1,0-0.2,0-0.3,0l-0.1-0.3
			c0.4,0,0.7,0,0.9,0h0.2h0.4C113.2,182.2,113.5,182.2,113.7,182.2z"/>
		<path d="M115.7,183.2c0,0,0.1-0.1,0.1-0.2l0.1-0.2c0.1-0.2,0.1-0.4,0.2-0.7v-0.2h0.2c0,0,0,0,0,0.1c0.1,0.1,0.1,0.2,0.2,0.2
			c0,0,0.2,0,0.5,0h1h0.4h1.1c0,0,0,0,0.1,0s0.1,0,0.1,0s0-0.1,0.1-0.2v-0.1c0.1,0,0.1,0,0.3,0v0.7v0.3c0,0.2,0,0.3,0,0.3
			c-0.1,0-0.2,0.1-0.3,0.1c-0.1-0.1-0.1-0.2-0.2-0.4s-0.1-0.3-0.2-0.3c0,0-0.2,0-0.4,0h-0.3c-0.1,0-0.2,0-0.3,0v0.4v0.5v0.8
			c0,0.8,0,1.2,0.1,1.3c0.2,0,0.3,0.1,0.4,0.1s0.1,0,0.1,0v0.3h-0.6c-0.2,0-0.3,0-0.5,0h-0.7h-0.6v-0.3h0.1c0.2,0,0.3-0.1,0.4-0.1
			c0.1-0.2,0.1-0.6,0.1-1v-1c0-0.5,0-0.8,0-1c-0.1,0-0.3,0-0.3,0c-0.3,0-0.5,0-0.5,0.1c-0.1,0-0.2,0.2-0.4,0.4l-0.1,0.1
			c-0.1,0.1-0.1,0.1-0.1,0.1C115.9,183.3,115.8,183.3,115.7,183.2z"/>
		<path d="M119.9,183.6h1.5h0.8c0.1,0,0.2,0,0.3,0c0,0.1,0,0.3,0,0.3v0.1v0.2v0.1v0.1h-2.6c0-0.1,0-0.2,0-0.2c0-0.1,0-0.2,0-0.3
			s0-0.1,0-0.1L119.9,183.6L119.9,183.6z"/>
		<path d="M122.5,186c0-0.1,0-0.2,0-0.3c0,0,0.1,0,0.2,0h0.2c0.2,0,0.3-0.1,0.4-0.1l0.1-1.2v-1v-0.3v-1.3v-0.4v-0.2
			c0-0.4,0-0.6-0.1-0.8c0,0,0,0-0.1,0h-0.1c-0.1,0-0.3,0-0.4,0h-0.1c-0.1,0-0.2,0-0.2,0c0-0.1,0-0.1,0-0.2c0,0,0-0.1,0-0.2
			c0.1,0,0.1,0,0.2,0c0.2,0,0.4,0,0.6,0c0.6,0,1.2,0.1,1.9,0.1h1.5h1.1c0.8,0,1.4,0,1.8-0.1c0.1,0,0.2,0,0.3,0s0.2,0,0.3,0
			c0,0.1,0,0.2,0,0.3c-0.4,0.1-0.7,0.2-0.8,0.2c0,0.1,0,0.2,0,0.5v0.1v0.2v1.1v0.8v0.6v0.7v0.6c0,0.1,0,0.2,0,0.4c0.1,0,0.1,0,0.2,0
			c0.3,0.1,0.5,0.1,0.7,0.2v0.3H130c0,0-0.1,0-0.2,0h-0.4c-0.3,0-0.7,0-1.2,0c-0.2,0-0.4,0-0.5,0h-0.5c0,0-0.1,0-0.2,0
			c0-0.2,0-0.3,0-0.3l0.3-0.1h0.2c0.2,0,0.3-0.1,0.4-0.1c0-0.2,0.1-1.1,0.1-2.9v-2c-0.1,0-0.2,0-0.4,0h-2.2l0,0l0,0c0,0,0,0-0.1,0
			h-0.2c-0.2,0-0.3,0-0.3,0c0,0.3,0,0.6,0,0.9v2.4v1.4c0,0.2,0,0.3,0,0.3s0.1,0,0.2,0h0.2c0.1,0,0.2,0,0.3,0h0.2h0.1
			c0,0.1,0,0.1,0,0.1s0,0.1,0,0.2h-0.3c-0.1,0-0.3,0-0.5,0h-0.4h-0.2h-0.5c-0.1,0-0.3,0-0.4,0h-0.3h-0.7V186z"/>
		<path d="M130.3,183.5c0.1-0.3,0.2-0.4,0.2-0.5c0.2-0.3,0.4-0.5,0.6-0.6c0.2-0.1,0.4-0.2,0.5-0.3c0.2-0.1,0.4-0.1,0.5-0.1
			c0.3,0,0.5,0,0.7,0.1c0.2,0,0.3,0.1,0.5,0.2c0.2,0.1,0.3,0.2,0.4,0.4c0.1,0.1,0.2,0.3,0.3,0.4c0.1,0.2,0.1,0.4,0.1,0.6h-0.5
			c-0.1,0-0.5,0-1,0c-0.2,0-0.3,0-0.4,0c0,0-0.2,0-0.5,0h-0.4v0.1c0,0.2,0,0.3,0.1,0.5c0,0.2,0.1,0.3,0.2,0.5
			c0.1,0.1,0.2,0.3,0.3,0.4c0.1,0.1,0.2,0.2,0.4,0.2l0.3,0.1c0.2,0,0.4,0,0.5,0c0.2,0,0.3-0.1,0.4-0.1c0.1,0,0.3-0.1,0.4-0.2
			c0.1,0.1,0.2,0.2,0.3,0.2c-0.3,0.3-0.6,0.5-0.9,0.7c-0.3,0.1-0.6,0.2-1,0.2c-0.2,0-0.5,0-0.6-0.1c-0.2-0.1-0.4-0.1-0.6-0.3
			s-0.3-0.3-0.4-0.4c-0.1-0.2-0.2-0.4-0.3-0.5c-0.1-0.2-0.1-0.4-0.1-0.6C130.3,184,130.3,183.8,130.3,183.5z M133.1,183.3
			c0-0.2,0-0.3-0.1-0.5s-0.2-0.3-0.3-0.4c-0.1-0.1-0.3-0.1-0.4-0.1c-0.2,0-0.4,0.1-0.6,0.3s-0.3,0.4-0.3,0.8h1.1c0.1,0,0.2,0,0.3,0
			s0.2,0,0.2,0C133,183.3,133,183.3,133.1,183.3z"/>
		<path d="M133.9,183.2c0,0,0.1-0.1,0.1-0.2l0.1-0.2c0.1-0.2,0.1-0.4,0.2-0.7v-0.2h0.2c0,0,0,0,0,0.1c0.1,0.1,0.1,0.2,0.2,0.2
			c0,0,0.2,0,0.5,0h1h0.4h1.1c0,0,0,0,0.1,0s0.1,0,0.1,0s0-0.1,0.1-0.2v-0.1c0.1,0,0.1,0,0.3,0v0.7v0.3c0,0.2,0,0.3,0,0.3
			c-0.1,0-0.2,0.1-0.3,0.1c-0.1-0.1-0.1-0.2-0.2-0.4c-0.1-0.2-0.1-0.3-0.2-0.3c0,0-0.2,0-0.4,0h-0.3c-0.1,0-0.2,0-0.3,0v0.4v0.5v0.8
			c0,0.8,0,1.2,0.1,1.3c0.2,0,0.3,0.1,0.4,0.1c0.1,0,0.1,0,0.1,0v0.3h-0.6c-0.2,0-0.3,0-0.5,0h-0.7h-0.6v-0.3h0.1
			c0.2,0,0.3-0.1,0.4-0.1c0.1-0.2,0.1-0.6,0.1-1v-1c0-0.5,0-0.8,0-1c-0.1,0-0.3,0-0.3,0c-0.3,0-0.5,0-0.5,0.1
			c-0.1,0-0.2,0.2-0.4,0.4l-0.1,0.1c-0.1,0.1-0.1,0.1-0.1,0.1C134.1,183.3,134,183.3,133.9,183.2z"/>
		<path d="M138.1,183.5c0.1-0.3,0.2-0.4,0.2-0.5c0.2-0.3,0.4-0.5,0.6-0.6c0.2-0.1,0.4-0.2,0.5-0.3c0.2-0.1,0.4-0.1,0.5-0.1
			c0.3,0,0.5,0,0.7,0.1c0.2,0,0.3,0.1,0.5,0.2c0.2,0.1,0.3,0.2,0.4,0.4c0.1,0.1,0.2,0.3,0.3,0.4c0.1,0.2,0.1,0.4,0.1,0.6h-0.5
			c-0.1,0-0.5,0-1,0c-0.2,0-0.3,0-0.4,0c0,0-0.2,0-0.5,0h-0.4v0.1c0,0.2,0,0.3,0.1,0.5c0,0.2,0.1,0.3,0.2,0.5
			c0.1,0.1,0.2,0.3,0.3,0.4c0.1,0.1,0.2,0.2,0.4,0.2l0.3,0.1c0.2,0,0.4,0,0.5,0c0.2,0,0.3-0.1,0.4-0.1c0.1,0,0.3-0.1,0.4-0.2
			c0.1,0.1,0.2,0.2,0.3,0.2c-0.3,0.3-0.6,0.5-0.9,0.7c-0.3,0.1-0.6,0.2-1,0.2c-0.2,0-0.5,0-0.6-0.1c-0.2-0.1-0.4-0.1-0.6-0.3
			s-0.3-0.3-0.4-0.4c-0.1-0.2-0.2-0.4-0.3-0.5c-0.1-0.2-0.1-0.4-0.1-0.6C138,184,138,183.8,138.1,183.5z M140.8,183.3
			c0-0.2,0-0.3-0.1-0.5s-0.2-0.3-0.3-0.4c-0.1-0.1-0.3-0.1-0.4-0.1c-0.2,0-0.4,0.1-0.6,0.3s-0.3,0.4-0.3,0.8h1.1c0.1,0,0.2,0,0.3,0
			s0.2,0,0.2,0C140.7,183.3,140.8,183.3,140.8,183.3z"/>
		<path d="M141.6,188.4v-0.2c0.1,0,0.1-0.1,0.1-0.1l0.4-0.1c0.2-0.1,0.2-0.1,0.3-0.1c0.1-0.1,0.1-0.3,0.1-0.5v-1.9v-2.3
			c0-0.2,0-0.3-0.1-0.4c-0.1-0.1-0.2-0.1-0.5-0.2v-0.2c0.3-0.1,0.6-0.1,0.8-0.2c0.2-0.1,0.4-0.2,0.6-0.4h0.2v0.1v0.5v0.1
			c0.3-0.2,0.5-0.3,0.7-0.3c0.3-0.1,0.5-0.1,0.9-0.1c0.3,0,0.6,0.1,0.9,0.2c0,0,0,0,0.1,0.1c0.2,0.1,0.3,0.2,0.3,0.3
			c0.2,0.2,0.3,0.4,0.3,0.7c0.1,0.2,0.1,0.4,0.1,0.6c0,0.3,0,0.6-0.1,0.8s-0.2,0.5-0.4,0.7s-0.4,0.4-0.7,0.5
			c-0.2,0.1-0.5,0.1-0.7,0.1c-0.3,0-0.4,0-0.6,0c-0.2-0.1-0.4-0.1-0.6-0.3c0,0.1,0,0.1,0,0.1v0.1v0.1c0,0,0,0.1,0,0.4v0.9
			c0,0,0,0.1,0,0.2v0.1c0,0.1,0,0.2,0,0.3c0,0,0,0.1,0.1,0.1h0.1c0.1,0,0.2,0,0.3,0.1c0.1,0,0.2,0,0.2,0v0.1c0,0,0,0.1,0,0.2h-0.1
			c-0.2,0-0.3,0-0.4,0l-0.7-0.1H143h-0.2h-0.2h-0.3c-0.1,0-0.2,0-0.3,0C141.8,188.4,141.7,188.4,141.6,188.4L141.6,188.4z
			 M143.4,185.1L143.4,185.1c0.1,0.2,0.1,0.3,0.2,0.4c0.1,0.1,0.2,0.2,0.3,0.2c0.2,0.1,0.4,0.1,0.5,0.1c0.2,0,0.3,0,0.5-0.1
			s0.3-0.2,0.4-0.3c0,0,0,0,0.1-0.1c0-0.1,0-0.1,0.1-0.1c0.1-0.2,0.2-0.5,0.2-0.8c0-0.5-0.2-0.9-0.5-1.3c-0.2-0.2-0.5-0.4-0.9-0.4
			c-0.2,0-0.5,0.1-0.8,0.2c0,0.1,0,0.5,0,1v0.9C143.4,184.9,143.4,185,143.4,185.1z"/>
		<path d="M150.9,179.8h0.2c-0.1,0.5-0.2,0.8-0.4,1s-0.4,0.3-0.7,0.3c-0.2,0-0.4,0-0.7-0.1s-0.6-0.1-0.7-0.1c-0.8,0-1.2,0.8-1.3,2.4
			c0.3-0.5,0.6-0.8,0.8-1c0.3-0.1,0.6-0.2,0.9-0.2c0.6,0,1.2,0.2,1.5,0.6c0.4,0.4,0.6,0.9,0.6,1.5s-0.2,1.1-0.6,1.5
			c-0.4,0.4-0.9,0.6-1.5,0.6c-0.4,0-0.8-0.1-1.2-0.3s-0.6-0.5-0.8-0.9s-0.2-1-0.2-1.7c0-0.8,0.1-1.4,0.3-2c0.2-0.5,0.4-0.9,0.7-1.1
			c0.3-0.2,0.7-0.3,1.1-0.3c0.3,0,0.6,0.1,1.1,0.2c0.2,0.1,0.4,0.1,0.5,0.1C150.6,180.2,150.8,180.1,150.9,179.8z M148.9,182.3
			c-0.4,0-0.6,0.1-0.8,0.4c-0.2,0.3-0.2,0.7-0.2,1.3c0,0.8,0.1,1.2,0.3,1.5c0.2,0.2,0.4,0.3,0.8,0.3c0.7,0,1-0.6,1-1.7
			c0-0.6-0.1-1.1-0.3-1.4C149.5,182.5,149.3,182.3,148.9,182.3z"/>
		<path d="M150.9,182.2c0.1,0,0.2,0,0.3,0h0.1c0.3,0,0.5,0,0.7,0h0.2h0.7c0,0,0,0,0.1,0.1c0,0.1,0,0.2,0,0.3h-0.1
			c-0.1,0-0.1,0-0.2,0h-0.1c0,0-0.1,0-0.1,0.1s0,0.1,0.1,0.2l0.2,0.5c0.2,0.4,0.4,0.8,0.6,1.2l0.3,0.5c0,0,0.1-0.3,0.4-0.9
			c0.3-0.7,0.4-1.1,0.4-1.2v-0.1c0,0,0-0.1,0-0.2c-0.1-0.1-0.1-0.1-0.2-0.1c0,0-0.1,0-0.3,0h-0.2v-0.1v-0.1v-0.1c0.1,0,0.2,0,0.2,0
			h0.4h0.3c0.1,0,0.3,0,0.6,0c0.2,0,0.3,0,0.4,0c0,0.1,0,0.1,0,0.2c0,0,0,0,0,0.1c-0.1,0-0.1,0-0.2,0.1c-0.1,0-0.2,0.1-0.3,0.1
			l-0.1,0.1c-0.1,0.1-0.2,0.4-0.3,0.8l-0.3,0.9l-0.8,1.9l-0.5,1.2c-0.1,0.2-0.3,0.4-0.4,0.6c-0.1,0.1-0.1,0.1-0.2,0.2
			c-0.1,0.1-0.3,0.1-0.4,0.1c0,0-0.1,0-0.3,0c-0.1,0-0.2-0.1-0.3-0.2c-0.1-0.1-0.1-0.2-0.1-0.2c0-0.2,0.1-0.3,0.2-0.5
			c0.1-0.1,0.2-0.1,0.3-0.1s0.3,0.1,0.5,0.2c0.1,0.1,0.2,0.1,0.2,0.1c0.1,0,0.1,0,0.1-0.1c0.3-0.5,0.4-0.9,0.5-1.1l-0.9-1.9
			c-0.3-0.8-0.6-1.3-0.7-1.6c-0.1-0.2-0.2-0.2-0.2-0.3s-0.1-0.1-0.2-0.1c0,0-0.1,0-0.1-0.1C150.9,182.4,150.9,182.3,150.9,182.2z"/>
		<path d="M154.9,188.4v-0.2c0.1,0,0.1-0.1,0.1-0.1l0.4-0.1c0.2-0.1,0.2-0.1,0.3-0.1c0.1-0.1,0.1-0.3,0.1-0.5v-1.9v-2.3
			c0-0.2,0-0.3-0.1-0.4c-0.1-0.1-0.2-0.1-0.5-0.2v-0.2c0.3-0.1,0.6-0.1,0.8-0.2c0.2-0.1,0.4-0.2,0.6-0.4h0.2v0.1v0.5v0.1
			c0.3-0.2,0.5-0.3,0.7-0.3c0.3-0.1,0.5-0.1,0.9-0.1c0.3,0,0.6,0.1,0.9,0.2c0,0,0,0,0.1,0.1c0.2,0.1,0.3,0.2,0.3,0.3
			c0.2,0.2,0.3,0.4,0.3,0.7c0.1,0.2,0.1,0.4,0.1,0.6c0,0.3,0,0.6-0.1,0.8s-0.2,0.5-0.4,0.7s-0.4,0.4-0.7,0.5
			c-0.2,0.1-0.5,0.1-0.7,0.1c-0.3,0-0.4,0-0.6,0c-0.2-0.1-0.4-0.1-0.6-0.3c0,0.1,0,0.1,0,0.1v0.1v0.1c0,0,0,0.1,0,0.4v0.9
			c0,0,0,0.1,0,0.2v0.1c0,0.1,0,0.2,0,0.3c0,0,0,0.1,0.1,0.1h0.1c0.1,0,0.2,0,0.3,0.1c0.1,0,0.2,0,0.2,0v0.1c0,0,0,0.1,0,0.2h-0.1
			c-0.2,0-0.3,0-0.4,0l-0.7-0.1h-0.2h-0.2h-0.2h-0.3c-0.1,0-0.2,0-0.3,0C155.1,188.4,155,188.4,154.9,188.4L154.9,188.4z
			 M156.7,185.1L156.7,185.1c0.1,0.2,0.1,0.3,0.2,0.4c0.1,0.1,0.2,0.2,0.3,0.2c0.2,0.1,0.4,0.1,0.5,0.1c0.2,0,0.3,0,0.5-0.1
			s0.3-0.2,0.4-0.3c0,0,0,0,0.1-0.1c0-0.1,0-0.1,0.1-0.1c0.1-0.2,0.2-0.5,0.2-0.8c0-0.5-0.2-0.9-0.5-1.3c-0.2-0.2-0.5-0.4-0.9-0.4
			c-0.2,0-0.5,0.1-0.8,0.2c0,0.1,0,0.5,0,1v0.9C156.7,184.9,156.7,185,156.7,185.1z"/>
		<path d="M161.6,185.7c0.2,0,0.3,0.1,0.5,0.1l0,0c0.1,0,0.1,0,0.2,0v0.3c-0.1,0-0.3,0-0.7,0h-0.7h-0.5h-0.6v-0.3h0.1
			c0.2,0,0.3-0.1,0.4-0.1c0-0.2,0.1-0.6,0.1-1.2v-1.3c0-0.4,0-0.6-0.1-0.6c0,0-0.1-0.1-0.2-0.1c-0.1,0-0.2,0-0.3,0l-0.1-0.3
			c0.1,0,0.3,0,0.4,0c0.2,0,0.4,0,0.6,0c0.4,0,0.7,0,1,0s0.6,0,0.9,0c0.2,0,0.3,0,0.5,0h0.5c0,0.2,0,0.4,0,0.6c0,0.3,0,0.5,0,0.6
			c0,0,0,0.1-0.1,0.1s-0.1-0.1-0.2-0.2c0-0.2-0.1-0.4-0.2-0.4c-0.1-0.1-0.1-0.1-0.2-0.1c0,0-0.2,0-0.6,0c-0.4,0-0.7,0-0.8,0.1
			c-0.1,0-0.1,0.2-0.1,0.5v0.4v1.1C161.5,185.2,161.5,185.6,161.6,185.7z"/>
		<path d="M167.2,184.8c0.1,0,0.1,0,0.1,0.1c0.1,0,0.1,0.1,0.2,0.1c-0.1,0.3-0.3,0.6-0.6,0.8s-0.7,0.3-1.2,0.3
			c-0.3,0-0.6-0.1-0.9-0.2c-0.3-0.1-0.6-0.3-0.7-0.5c-0.1-0.2-0.2-0.4-0.3-0.6c-0.1-0.2-0.1-0.4-0.1-0.6c0-0.2,0-0.4,0.1-0.7
			s0.2-0.5,0.4-0.7s0.5-0.4,0.8-0.5s0.7-0.2,1.1-0.2c0.5,0,0.9,0.1,1.1,0.3c0.2,0.2,0.3,0.3,0.3,0.5s0,0.3-0.1,0.4
			c-0.1,0.1-0.2,0.1-0.4,0.1c-0.1,0-0.2,0-0.4-0.1c-0.1-0.1-0.2-0.2-0.3-0.4c-0.1-0.1-0.1-0.2-0.2-0.3c-0.1-0.1-0.2-0.1-0.3-0.1
			c-0.3,0-0.6,0.1-0.8,0.4c-0.2,0.3-0.3,0.6-0.3,1c0,0.5,0.1,0.9,0.4,1.3c0.3,0.3,0.6,0.5,1,0.5c0.2,0,0.3,0,0.5-0.1
			c0.1,0,0.2-0.1,0.3-0.2c0,0,0.1-0.1,0.2-0.2C167.1,184.9,167.1,184.8,167.2,184.8z"/>
		<path d="M169.7,182.2l-0.1,0.3h-0.3c-0.1,0-0.2,0-0.2,0s0,0.1-0.1,0.2c0,0,0,0.1,0,0.2c0,0.3,0,0.4,0,0.5v0.4
			c0.2-0.1,0.4-0.2,0.5-0.3s0.3-0.3,0.5-0.6c0.5-0.7,1-1,1.4-1c0.2,0,0.4,0.1,0.5,0.2c0.1,0.1,0.2,0.2,0.2,0.4c0,0.1,0,0.2-0.1,0.3
			s-0.2,0.1-0.3,0.1c-0.2,0-0.3-0.1-0.4-0.2c-0.1-0.1-0.2-0.1-0.2-0.1c-0.1,0-0.2,0-0.3,0.1s-0.3,0.2-0.4,0.5
			c-0.2,0.2-0.3,0.3-0.4,0.4c0.2,0.1,0.3,0.2,0.5,0.3c0.2,0.2,0.5,0.5,0.9,1c0.2,0.3,0.4,0.5,0.5,0.5c0.1,0.1,0.3,0.1,0.5,0.2v0.2
			v0.1c0,0-0.1,0-0.2,0c-0.2,0-0.3,0-0.5,0s-0.4,0-0.7,0c0-0.1-0.2-0.2-0.3-0.4l-0.5-0.6c-0.3-0.4-0.5-0.6-0.6-0.7
			c-0.1-0.1-0.3-0.1-0.5-0.1v1.1v0.2v0.2c0.1,0.1,0.2,0.1,0.4,0.1h0.1v0.1v0.1c0,0,0,0,0,0.1l0,0h-0.5c-0.2,0-0.4,0-0.6,0
			c-0.1,0-0.3,0-0.7,0c-0.1,0-0.2,0-0.2,0c-0.1,0-0.1,0-0.2,0c0-0.1,0-0.1,0-0.2v-0.1c0.1,0,0.1,0,0.2-0.1c0.1,0,0.1,0,0.1,0h0.2
			c0.1,0,0.1,0,0.1,0s0.1-0.5,0.1-1.4V184v-0.5v-0.6c0-0.2,0-0.4,0-0.4c0-0.1-0.1-0.1-0.3-0.1c-0.1,0-0.2,0-0.3,0l-0.1-0.3
			c0.4,0,0.7,0,0.9,0h0.2h0.4C169.2,182.2,169.5,182.2,169.7,182.2z"/>
		<path d="M175.7,182.6c0.2,0.2,0.4,0.4,0.5,0.7s0.1,0.5,0.1,0.7c0,0.4-0.1,0.8-0.2,1c-0.2,0.4-0.5,0.7-0.8,0.9s-0.7,0.3-1.2,0.3
			s-0.9-0.1-1.2-0.3s-0.6-0.5-0.7-0.7c-0.1-0.3-0.2-0.6-0.2-1c0-0.2,0-0.4,0.1-0.6c0.1-0.2,0.2-0.4,0.3-0.6c0.1-0.2,0.3-0.3,0.4-0.4
			c0.2-0.2,0.4-0.3,0.6-0.3c0.2-0.1,0.5-0.1,0.8-0.1C174.9,182,175.4,182.2,175.7,182.6z M173.2,184.2c0,0.4,0,0.6,0.1,0.7
			c0,0.2,0.1,0.4,0.2,0.5c0.1,0.1,0.2,0.2,0.3,0.3s0.3,0.1,0.5,0.1s0.4-0.1,0.6-0.2c0.2-0.1,0.3-0.4,0.3-0.7c0-0.2,0.1-0.5,0.1-1
			c0-0.6-0.1-1-0.3-1.2s-0.4-0.4-0.7-0.4c-0.2,0-0.4,0.1-0.6,0.2c-0.2,0.1-0.3,0.3-0.3,0.6C173.2,183.3,173.2,183.7,173.2,184.2z"/>
		<path d="M176.5,183.5c0.1-0.3,0.2-0.4,0.2-0.5c0.2-0.3,0.4-0.5,0.6-0.6c0.2-0.1,0.4-0.2,0.5-0.3c0.2-0.1,0.4-0.1,0.5-0.1
			c0.3,0,0.5,0,0.7,0.1c0.2,0,0.3,0.1,0.5,0.2c0.2,0.1,0.3,0.2,0.4,0.4c0.1,0.1,0.2,0.3,0.3,0.4c0.1,0.2,0.1,0.4,0.1,0.6h-0.5
			c-0.1,0-0.5,0-1,0c-0.2,0-0.3,0-0.4,0c0,0-0.2,0-0.5,0h-0.4v0.1c0,0.2,0,0.3,0.1,0.5c0,0.2,0.1,0.3,0.2,0.5
			c0.1,0.1,0.2,0.3,0.3,0.4c0.1,0.1,0.2,0.2,0.4,0.2l0.3,0.1c0.2,0,0.4,0,0.5,0c0.2,0,0.3-0.1,0.4-0.1c0.1,0,0.3-0.1,0.4-0.2
			c0.1,0.1,0.2,0.2,0.3,0.2c-0.3,0.3-0.6,0.5-0.9,0.7c-0.3,0.1-0.6,0.2-1,0.2c-0.2,0-0.5,0-0.6-0.1c-0.2-0.1-0.4-0.1-0.6-0.3
			s-0.3-0.3-0.4-0.4c-0.1-0.2-0.2-0.4-0.3-0.5c-0.1-0.2-0.1-0.4-0.1-0.6C176.5,184,176.5,183.8,176.5,183.5z M179.3,183.3
			c0-0.2,0-0.3-0.1-0.5s-0.2-0.3-0.3-0.4c-0.1-0.1-0.3-0.1-0.4-0.1c-0.2,0-0.4,0.1-0.6,0.3s-0.3,0.4-0.3,0.8h1.1c0.1,0,0.2,0,0.3,0
			s0.2,0,0.2,0C179.2,183.3,179.2,183.3,179.3,183.3z"/>
		<path d="M183.9,185.7c0.2,0,0.3,0.1,0.5,0.1l0,0c0.1,0,0.1,0,0.2,0v0.3c-0.1,0-0.3,0-0.7,0h-0.7h-0.5h-0.6v-0.3h0.1
			c0.2,0,0.3-0.1,0.4-0.1c0-0.2,0.1-0.6,0.1-1.2v-1.3c0-0.4,0-0.6-0.1-0.6c0,0-0.1-0.1-0.2-0.1c-0.1,0-0.2,0-0.3,0l-0.1-0.3
			c0.1,0,0.3,0,0.4,0c0.2,0,0.4,0,0.6,0c0.4,0,0.7,0,1,0s0.6,0,0.9,0c0.2,0,0.3,0,0.5,0h0.5c0,0.2,0,0.4,0,0.6c0,0.3,0,0.5,0,0.6
			s0,0.1-0.1,0.1s-0.1-0.1-0.2-0.2c0-0.2-0.1-0.4-0.2-0.4c-0.1-0.1-0.1-0.1-0.2-0.1c0,0-0.2,0-0.6,0c-0.4,0-0.7,0-0.8,0.1
			c-0.1,0-0.1,0.2-0.1,0.5v0.4v1.1C183.8,185.2,183.8,185.6,183.9,185.7z"/>
		<path d="M189.5,182.6c0.2,0.2,0.4,0.4,0.5,0.7s0.1,0.5,0.1,0.7c0,0.4-0.1,0.8-0.2,1c-0.2,0.4-0.5,0.7-0.8,0.9s-0.7,0.3-1.2,0.3
			s-0.9-0.1-1.2-0.3s-0.6-0.5-0.7-0.7c-0.1-0.3-0.2-0.6-0.2-1c0-0.2,0-0.4,0.1-0.6c0.1-0.2,0.2-0.4,0.3-0.6c0.1-0.2,0.3-0.3,0.4-0.4
			c0.2-0.2,0.4-0.3,0.6-0.3c0.2-0.1,0.5-0.1,0.8-0.1C188.6,182,189.1,182.2,189.5,182.6z M186.9,184.2c0,0.4,0,0.6,0.1,0.7
			c0,0.2,0.1,0.4,0.2,0.5c0.1,0.1,0.2,0.2,0.3,0.3s0.3,0.1,0.5,0.1s0.4-0.1,0.6-0.2c0.2-0.1,0.3-0.4,0.3-0.7c0-0.2,0.1-0.5,0.1-1
			c0-0.6-0.1-1-0.3-1.2s-0.4-0.4-0.7-0.4c-0.2,0-0.4,0.1-0.6,0.2c-0.2,0.1-0.3,0.3-0.3,0.6C187,183.3,186.9,183.7,186.9,184.2z"/>
		<path d="M193.9,184.8c0.1,0,0.1,0,0.1,0.1c0.1,0,0.1,0.1,0.2,0.1c-0.1,0.3-0.3,0.6-0.6,0.8s-0.7,0.3-1.2,0.3
			c-0.3,0-0.6-0.1-0.9-0.2c-0.3-0.1-0.6-0.3-0.7-0.5c-0.1-0.2-0.2-0.4-0.3-0.6c-0.1-0.2-0.1-0.4-0.1-0.6c0-0.2,0-0.4,0.1-0.7
			s0.2-0.5,0.4-0.7s0.5-0.4,0.8-0.5s0.7-0.2,1.1-0.2c0.5,0,0.9,0.1,1.1,0.3c0.2,0.2,0.3,0.3,0.3,0.5s0,0.3-0.1,0.4
			c-0.1,0.1-0.2,0.1-0.4,0.1c-0.1,0-0.2,0-0.4-0.1c-0.1-0.1-0.2-0.2-0.3-0.4c-0.1-0.1-0.1-0.2-0.2-0.3c-0.1-0.1-0.2-0.1-0.3-0.1
			c-0.3,0-0.6,0.1-0.8,0.4c-0.2,0.3-0.3,0.6-0.3,1c0,0.5,0.1,0.9,0.4,1.3c0.3,0.3,0.6,0.5,1,0.5c0.2,0,0.3,0,0.5-0.1
			c0.1,0,0.2-0.1,0.3-0.2c0,0,0.1-0.1,0.2-0.2C193.8,184.9,193.9,184.8,193.9,184.8z"/>
		<path d="M193.8,182.2c0.1,0,0.2,0,0.3,0h0.1c0.3,0,0.5,0,0.7,0h0.2h0.7c0,0,0,0,0.1,0.1c0,0.1,0,0.2,0,0.3h-0.1
			c-0.1,0-0.1,0-0.2,0h-0.1c0,0-0.1,0-0.1,0.1s0,0.1,0.1,0.2l0.2,0.5c0.2,0.4,0.4,0.8,0.6,1.2l0.3,0.5c0,0,0.1-0.3,0.4-0.9
			c0.3-0.7,0.4-1.1,0.4-1.2v-0.1c0,0,0-0.1,0-0.2c-0.1-0.1-0.1-0.1-0.2-0.1c0,0-0.1,0-0.3,0h-0.2v-0.1v-0.1v-0.1c0.1,0,0.2,0,0.2,0
			h0.4h0.3c0.1,0,0.3,0,0.6,0c0.2,0,0.3,0,0.4,0c0,0.1,0,0.1,0,0.2c0,0,0,0,0,0.1c-0.1,0-0.1,0-0.2,0.1c-0.1,0-0.2,0.1-0.3,0.1
			l-0.1,0.1c-0.1,0.1-0.2,0.4-0.3,0.8l-0.3,0.9l-0.8,1.9l-0.5,1.2c-0.1,0.2-0.3,0.4-0.4,0.6c-0.1,0.1-0.1,0.1-0.2,0.2
			c-0.1,0.1-0.3,0.1-0.4,0.1c0,0-0.1,0-0.3,0c-0.1,0-0.2-0.1-0.3-0.2c-0.1-0.1-0.1-0.2-0.1-0.2c0-0.2,0.1-0.3,0.2-0.5
			c0.1-0.1,0.2-0.1,0.3-0.1s0.3,0.1,0.5,0.2c0.1,0.1,0.2,0.1,0.2,0.1c0.1,0,0.1,0,0.1-0.1c0.3-0.5,0.4-0.9,0.5-1.1l-0.9-1.9
			c-0.3-0.8-0.6-1.3-0.7-1.6c-0.1-0.2-0.2-0.2-0.2-0.3c0,0-0.1-0.1-0.2-0.1c0,0-0.1,0-0.1-0.1C193.8,182.4,193.8,182.3,193.8,182.2z
			"/>
		<path d="M202.5,187.2c-0.1,0-0.1,0-0.1,0h-0.1c0-0.1-0.1-0.2-0.1-0.3c-0.2-0.4-0.3-0.6-0.5-0.7c-0.2-0.1-0.5-0.2-0.9-0.2h-0.7h-1
			c-0.3,0-0.4,0-0.5,0s-0.1,0.1-0.2,0.2c-0.1,0.1-0.1,0.3-0.2,0.6c-0.1,0.2-0.1,0.3-0.1,0.3s0,0-0.1,0s-0.1,0-0.1,0s0,0-0.1,0
			c0-0.2,0-0.4,0.1-0.5c0-0.5,0.1-0.8,0.1-1h0.1c0.1,0,0.2,0,0.3,0c0.3-0.6,0.6-1.4,1.1-2.6l0.2-0.6l0.1-0.4h0.4
			c0,0.1,0.3,0.7,0.8,1.8s0.8,1.7,0.9,1.8c0.1,0.1,0.2,0.1,0.3,0.2c0.1,0,0.1,0.1,0.2,0.1c0,0.1,0,0.3,0,0.6L202.5,187.2z
			 M200.8,185.6c-0.1-0.2-0.1-0.4-0.2-0.6l-0.4-1c-0.2-0.5-0.3-0.9-0.4-0.9l-1,2.5c0.4,0,0.8,0,1.2,0
			C200.3,185.7,200.5,185.7,200.8,185.6z"/>
		<path d="M206.3,185.1l0.1,0.1c0,0,0,0,0.1,0.1l0,0c-0.1,0.3-0.2,0.5-0.3,0.6s-0.3,0.2-0.5,0.2s-0.3-0.1-0.5-0.2
			c-0.1-0.1-0.3-0.3-0.4-0.5c-0.1,0.2-0.3,0.4-0.6,0.5c-0.2,0.1-0.5,0.2-0.9,0.2c-0.3,0-0.6-0.1-0.7-0.2c-0.2-0.1-0.2-0.3-0.2-0.5
			c0-0.1,0-0.2,0.1-0.3c0-0.1,0.1-0.2,0.2-0.3c0.1-0.1,0.3-0.2,0.5-0.3c0,0,0.2-0.1,0.4-0.2l1.2-0.5c0-0.1,0-0.2,0-0.4
			c0-0.4-0.1-0.7-0.2-0.9c-0.1-0.1-0.2-0.1-0.3-0.1c-0.2,0-0.3,0-0.4,0.1c-0.1,0.1-0.2,0.1-0.3,0.2c0,0.1-0.1,0.2-0.1,0.4
			c0,0.1,0,0.2-0.1,0.2c0,0.1-0.1,0.1-0.3,0.2c-0.1,0-0.2,0.1-0.3,0.1c-0.2,0.1-0.3,0.1-0.4,0.1c0,0-0.1-0.1-0.1-0.2
			c0-0.2,0-0.3,0.1-0.5s0.3-0.4,0.5-0.5c0.2-0.2,0.4-0.3,0.6-0.4c0.3-0.1,0.6-0.1,1-0.1c0.3,0,0.5,0,0.6,0.1
			c0.2,0.1,0.3,0.2,0.4,0.4c0.1,0.2,0.1,0.5,0.1,1v0.8v0.6v0.1c0,0.1,0,0.2,0.1,0.3l0.1,0.1h0.1L206.3,185.1L206.3,185.1z
			 M204.8,184.1c-0.2,0.1-0.4,0.2-0.6,0.3c-0.2,0.1-0.4,0.3-0.5,0.4c-0.1,0.1-0.1,0.2-0.1,0.4c0,0.1,0,0.2,0.1,0.3s0.2,0.1,0.3,0.1
			c0.2,0,0.3-0.1,0.4-0.2c0.2-0.1,0.3-0.2,0.3-0.3s0-0.3,0-0.7C204.8,184.3,204.8,184.2,204.8,184.1z"/>
		<path d="M206,188.4v-0.2c0.1,0,0.1-0.1,0.1-0.1l0.4-0.1c0.2-0.1,0.2-0.1,0.3-0.1c0.1-0.1,0.1-0.3,0.1-0.5v-1.9v-2.3
			c0-0.2,0-0.3-0.1-0.4c-0.1-0.1-0.2-0.1-0.5-0.2v-0.2c0.3-0.1,0.6-0.1,0.8-0.2c0.2-0.1,0.4-0.2,0.6-0.4h0.2v0.1v0.5v0.1
			c0.3-0.2,0.5-0.3,0.7-0.3c0.3-0.1,0.5-0.1,0.9-0.1c0.3,0,0.6,0.1,0.9,0.2c0,0,0,0,0.1,0.1c0.2,0.1,0.3,0.2,0.3,0.3
			c0.2,0.2,0.3,0.4,0.3,0.7c0.1,0.2,0.1,0.4,0.1,0.6c0,0.3,0,0.6-0.1,0.8s-0.2,0.5-0.4,0.7s-0.4,0.4-0.7,0.5
			c-0.2,0.1-0.5,0.1-0.7,0.1c-0.3,0-0.4,0-0.6,0c-0.2-0.1-0.4-0.1-0.6-0.3c0,0.1,0,0.1,0,0.1v0.1v0.1c0,0,0,0.1,0,0.4v0.9
			c0,0,0,0.1,0,0.2v0.1c0,0.1,0,0.2,0,0.3c0,0,0,0.1,0.1,0.1h0.1c0.1,0,0.2,0,0.3,0.1c0.1,0,0.2,0,0.2,0v0.1c0,0,0,0.1,0,0.2h-0.1
			c-0.2,0-0.3,0-0.4,0l-0.7-0.1h-0.2h-0.2H207h-0.3c-0.1,0-0.2,0-0.3,0C206.2,188.4,206.1,188.4,206,188.4L206,188.4z M207.8,185.1
			L207.8,185.1c0.1,0.2,0.1,0.3,0.2,0.4c0.1,0.1,0.2,0.2,0.3,0.2c0.2,0.1,0.4,0.1,0.5,0.1c0.2,0,0.3,0,0.5-0.1s0.3-0.2,0.4-0.3
			c0,0,0,0,0.1-0.1c0-0.1,0-0.1,0.1-0.1c0.1-0.2,0.2-0.5,0.2-0.8c0-0.5-0.2-0.9-0.5-1.3c-0.2-0.2-0.5-0.4-0.9-0.4
			c-0.2,0-0.5,0.1-0.8,0.2c0,0.1,0,0.5,0,1v0.9C207.8,184.9,207.8,185,207.8,185.1z"/>
		<path d="M214.8,184.8c0.1,0,0.1,0,0.1,0.1c0.1,0,0.1,0.1,0.2,0.1c-0.1,0.3-0.3,0.6-0.6,0.8s-0.7,0.3-1.2,0.3
			c-0.3,0-0.6-0.1-0.9-0.2c-0.3-0.1-0.6-0.3-0.7-0.5c-0.1-0.2-0.2-0.4-0.3-0.6c-0.1-0.2-0.1-0.4-0.1-0.6c0-0.2,0-0.4,0.1-0.7
			s0.2-0.5,0.4-0.7s0.5-0.4,0.8-0.5s0.7-0.2,1.1-0.2c0.5,0,0.9,0.1,1.1,0.3c0.2,0.2,0.3,0.3,0.3,0.5s0,0.3-0.1,0.4
			c-0.1,0.1-0.2,0.1-0.4,0.1c-0.1,0-0.2,0-0.4-0.1c-0.1-0.1-0.2-0.2-0.3-0.4c-0.1-0.1-0.1-0.2-0.2-0.3c-0.1-0.1-0.2-0.1-0.3-0.1
			c-0.3,0-0.6,0.1-0.8,0.4c-0.2,0.3-0.3,0.6-0.3,1c0,0.5,0.1,0.9,0.4,1.3c0.3,0.3,0.6,0.5,1,0.5c0.2,0,0.3,0,0.5-0.1
			c0.1,0,0.2-0.1,0.3-0.2c0,0,0.1-0.1,0.2-0.2C214.7,184.9,214.8,184.8,214.8,184.8z"/>
		<path d="M214.7,183.2c0,0,0.1-0.1,0.1-0.2l0.1-0.2c0.1-0.2,0.1-0.4,0.2-0.7v-0.2h0.2c0,0,0,0,0,0.1c0.1,0.1,0.1,0.2,0.2,0.2
			c0,0,0.2,0,0.5,0h1h0.4h1.1c0,0,0,0,0.1,0s0.1,0,0.1,0s0-0.1,0.1-0.2v-0.1c0.1,0,0.1,0,0.3,0v0.7v0.3c0,0.2,0,0.3,0,0.3
			c-0.1,0-0.2,0.1-0.3,0.1c-0.1-0.1-0.1-0.2-0.2-0.4c-0.1-0.2-0.1-0.3-0.2-0.3s-0.2,0-0.4,0h-0.3c-0.1,0-0.2,0-0.3,0v0.4v0.5v0.8
			c0,0.8,0,1.2,0.1,1.3c0.2,0,0.3,0.1,0.4,0.1c0.1,0,0.1,0,0.1,0v0.3h-0.6c-0.2,0-0.3,0-0.5,0h-0.7h-0.6v-0.3h0.1
			c0.2,0,0.3-0.1,0.4-0.1c0.1-0.2,0.1-0.6,0.1-1v-1c0-0.5,0-0.8,0-1c-0.1,0-0.3,0-0.3,0c-0.3,0-0.5,0-0.5,0.1
			c-0.1,0-0.2,0.2-0.4,0.4l-0.1,0.1c-0.1,0.1-0.1,0.1-0.1,0.1C214.9,183.3,214.8,183.3,214.7,183.2z"/>
		<path d="M218.7,186.1v-0.3c0,0,0.1,0,0.3,0c0.1,0,0.2,0,0.3-0.1c0-0.1,0.1-0.5,0.1-1.3v-0.8V183c0-0.3,0-0.4,0-0.5
			c0,0-0.1-0.1-0.2-0.1h-0.3v-0.3h0.6h1.8c0.7,0,1.2,0.1,1.4,0.3s0.3,0.4,0.3,0.7s-0.3,0.6-0.9,0.8c0.7,0.1,1.1,0.5,1.1,1
			c0,0.4-0.2,0.6-0.5,0.8s-0.8,0.3-1.3,0.3h-0.7L218.7,186.1z M220.4,183.8c0.1,0,0.2,0,0.3,0c0.7,0,1-0.2,1-0.7
			c0-0.1-0.1-0.3-0.2-0.4s-0.4-0.2-0.8-0.2c-0.1,0-0.2,0-0.4,0c0,0,0,0.1,0,0.2c0,0.2,0,0.4,0,0.6v0.3
			C220.4,183.7,220.4,183.7,220.4,183.8z M220.4,185.6c0.1,0,0.3,0.1,0.5,0.1c0.7,0,1.1-0.3,1.1-0.8s-0.4-0.7-1.3-0.7
			c-0.2,0-0.3,0-0.3,0v0.1v0.3C220.4,184.9,220.4,185.2,220.4,185.6C220.4,185.5,220.4,185.6,220.4,185.6z"/>
		<path d="M223.2,183.5c0.1-0.3,0.2-0.4,0.2-0.5c0.2-0.3,0.4-0.5,0.6-0.6c0.2-0.1,0.4-0.2,0.5-0.3c0.2-0.1,0.4-0.1,0.5-0.1
			c0.3,0,0.5,0,0.7,0.1c0.2,0,0.3,0.1,0.5,0.2c0.2,0.1,0.3,0.2,0.4,0.4c0.1,0.1,0.2,0.3,0.3,0.4c0.1,0.2,0.1,0.4,0.1,0.6h-0.5
			c-0.1,0-0.5,0-1,0c-0.2,0-0.3,0-0.4,0c0,0-0.2,0-0.5,0h-0.4v0.1c0,0.2,0,0.3,0.1,0.5c0,0.2,0.1,0.3,0.2,0.5
			c0.1,0.1,0.2,0.3,0.3,0.4c0.1,0.1,0.2,0.2,0.4,0.2l0.3,0.1c0.2,0,0.4,0,0.5,0c0.2,0,0.3-0.1,0.4-0.1c0.1,0,0.3-0.1,0.4-0.2
			c0.1,0.1,0.2,0.2,0.3,0.2c-0.3,0.3-0.6,0.5-0.9,0.7c-0.3,0.1-0.6,0.2-1,0.2c-0.2,0-0.5,0-0.6-0.1c-0.2-0.1-0.4-0.1-0.6-0.3
			s-0.3-0.3-0.4-0.4c-0.1-0.2-0.2-0.4-0.3-0.5c-0.1-0.2-0.1-0.4-0.1-0.6C223.2,184,223.2,183.8,223.2,183.5z M226,183.3
			c0-0.2,0-0.3-0.1-0.5s-0.2-0.3-0.3-0.4c-0.1-0.1-0.3-0.1-0.4-0.1c-0.2,0-0.4,0.1-0.6,0.3s-0.3,0.4-0.3,0.8h1.1c0.1,0,0.2,0,0.3,0
			s0.2,0,0.2,0C225.9,183.3,225.9,183.3,226,183.3z"/>
		<path d="M228.7,184h0.2h0.7h0.2h0.3c0.1,0,0.3,0,0.5,0v-0.5c0-0.5,0-0.7,0-0.8s-0.1-0.1-0.3-0.1c-0.1,0-0.2,0-0.3,0l-0.1-0.3
			c0.4,0,0.7,0,0.9,0h0.2h0.4c0.4,0,0.7,0,0.9,0l-0.1,0.3c-0.2,0-0.3,0-0.3,0c-0.1,0-0.2,0-0.2,0.1c0,0,0,0.2,0,0.5v0.6v0.8
			c0,0.7,0,1.1,0.1,1.2c0.2,0,0.3,0.1,0.4,0.1c0.1,0,0.1,0,0.1,0v0.3h-0.6c-0.2,0-0.3,0-0.5,0h-0.7h-0.6v-0.3h0.1
			c0.2,0,0.3-0.1,0.4-0.1c0.1-0.3,0.1-0.7,0.1-1.1v-0.3c-0.2,0-0.4,0-0.6,0c-0.3,0-0.5,0-0.6,0h-0.4c-0.1,0-0.2,0-0.3,0v0.2v0.7
			c0,0.2,0,0.3,0.1,0.5c0.2,0,0.3,0.1,0.4,0.1c0.1,0,0.1,0,0.1,0v0.3h-0.6c-0.2,0-0.3,0-0.5,0h-0.7h-0.6v-0.3h0.1
			c0.2,0,0.3-0.1,0.4-0.1c0-0.2,0.1-0.6,0.1-1.2v-1.3c0-0.4,0-0.6-0.1-0.6c0,0-0.1,0-0.2,0c-0.1,0-0.2,0-0.3,0l-0.1-0.3
			c0.4,0,0.7,0,0.9,0h0.2h0.4c0.4,0,0.7,0,0.9,0l-0.1,0.3c-0.2,0-0.3,0-0.3,0c-0.1,0-0.2,0-0.2,0.1c0,0,0,0.2,0,0.5
			C228.7,183.5,228.7,183.8,228.7,184z"/>
		<path d="M233.7,184h0.2h0.7h0.2h0.3c0.1,0,0.3,0,0.5,0v-0.5c0-0.5,0-0.7,0-0.8s-0.1-0.1-0.3-0.1c-0.1,0-0.2,0-0.3,0l-0.1-0.3
			c0.4,0,0.7,0,0.9,0h0.2h0.4c0.4,0,0.7,0,0.9,0l-0.1,0.3c-0.2,0-0.3,0-0.3,0c-0.1,0-0.2,0-0.2,0.1c0,0,0,0.2,0,0.5v0.6v0.8
			c0,0.7,0,1.1,0.1,1.2c0.2,0,0.3,0.1,0.4,0.1c0.1,0,0.1,0,0.1,0v0.3h-0.6c-0.2,0-0.3,0-0.5,0h-0.7h-0.6v-0.3h0.1
			c0.2,0,0.3-0.1,0.4-0.1c0.1-0.3,0.1-0.7,0.1-1.1v-0.3c-0.2,0-0.4,0-0.6,0c-0.3,0-0.5,0-0.6,0h-0.4c-0.1,0-0.2,0-0.3,0v0.2v0.7
			c0,0.2,0,0.3,0.1,0.5c0.2,0,0.3,0.1,0.4,0.1c0.1,0,0.1,0,0.1,0v0.3h-0.6c-0.2,0-0.3,0-0.5,0h-0.7h-0.6v-0.3h0.1
			c0.2,0,0.3-0.1,0.4-0.1c0-0.2,0.1-0.6,0.1-1.2v-1.3c0-0.4,0-0.6-0.1-0.6c0,0-0.1,0-0.2,0c-0.1,0-0.2,0-0.3,0l-0.1-0.3
			c0.4,0,0.7,0,0.9,0h0.2h0.4c0.4,0,0.7,0,0.9,0l-0.1,0.3c-0.2,0-0.3,0-0.3,0c-0.1,0-0.2,0-0.2,0.1c0,0,0,0.2,0,0.5
			C233.7,183.5,233.7,183.8,233.7,184z"/>
		<path d="M240.9,182.6c0.2,0.2,0.4,0.4,0.5,0.7s0.1,0.5,0.1,0.7c0,0.4-0.1,0.8-0.2,1c-0.2,0.4-0.5,0.7-0.8,0.9s-0.7,0.3-1.2,0.3
			s-0.9-0.1-1.2-0.3s-0.6-0.5-0.7-0.7c-0.1-0.3-0.2-0.6-0.2-1c0-0.2,0-0.4,0.1-0.6c0.1-0.2,0.2-0.4,0.3-0.6c0.1-0.2,0.3-0.3,0.4-0.4
			c0.2-0.2,0.4-0.3,0.6-0.3c0.2-0.1,0.5-0.1,0.8-0.1C240.1,182,240.6,182.2,240.9,182.6z M238.4,184.2c0,0.4,0,0.6,0.1,0.7
			c0,0.2,0.1,0.4,0.2,0.5c0.1,0.1,0.2,0.2,0.3,0.3s0.3,0.1,0.5,0.1s0.4-0.1,0.6-0.2c0.2-0.1,0.3-0.4,0.3-0.7c0-0.2,0.1-0.5,0.1-1
			c0-0.6-0.1-1-0.3-1.2s-0.4-0.4-0.7-0.4c-0.2,0-0.4,0.1-0.6,0.2c-0.2,0.1-0.3,0.3-0.3,0.6C238.4,183.3,238.4,183.7,238.4,184.2z"/>
		<path d="M241.7,183.5c0.1-0.3,0.2-0.4,0.2-0.5c0.2-0.3,0.4-0.5,0.6-0.6c0.2-0.1,0.4-0.2,0.5-0.3c0.2-0.1,0.4-0.1,0.5-0.1
			c0.3,0,0.5,0,0.7,0.1c0.2,0,0.3,0.1,0.5,0.2c0.2,0.1,0.3,0.2,0.4,0.4c0.1,0.1,0.2,0.3,0.3,0.4c0.1,0.2,0.1,0.4,0.1,0.6H245
			c-0.1,0-0.5,0-1,0c-0.2,0-0.3,0-0.4,0c0,0-0.2,0-0.5,0h-0.4v0.1c0,0.2,0,0.3,0.1,0.5c0,0.2,0.1,0.3,0.2,0.5
			c0.1,0.1,0.2,0.3,0.3,0.4c0.1,0.1,0.2,0.2,0.4,0.2l0.3,0.1c0.2,0,0.4,0,0.5,0c0.2,0,0.3-0.1,0.4-0.1c0.1,0,0.3-0.1,0.4-0.2
			c0.1,0.1,0.2,0.2,0.3,0.2c-0.3,0.3-0.6,0.5-0.9,0.7c-0.3,0.1-0.6,0.2-1,0.2c-0.2,0-0.5,0-0.6-0.1c-0.2-0.1-0.4-0.1-0.6-0.3
			s-0.3-0.3-0.4-0.4c-0.1-0.2-0.2-0.4-0.3-0.5c-0.1-0.2-0.1-0.4-0.1-0.6C241.7,184,241.7,183.8,241.7,183.5z M244.5,183.3
			c0-0.2,0-0.3-0.1-0.5s-0.2-0.3-0.3-0.4c-0.1-0.1-0.3-0.1-0.4-0.1c-0.2,0-0.4,0.1-0.6,0.3s-0.3,0.4-0.3,0.8h1.1c0.1,0,0.2,0,0.3,0
			s0.2,0,0.2,0C244.4,183.3,244.4,183.3,244.5,183.3z"/>
		<path d="M251.6,179.8h0.2c-0.1,0.5-0.2,0.8-0.4,1s-0.4,0.3-0.7,0.3c-0.2,0-0.4,0-0.7-0.1s-0.6-0.1-0.7-0.1c-0.8,0-1.2,0.8-1.3,2.4
			c0.3-0.5,0.6-0.8,0.8-1c0.3-0.1,0.6-0.2,0.9-0.2c0.6,0,1.2,0.2,1.5,0.6c0.4,0.4,0.6,0.9,0.6,1.5s-0.2,1.1-0.6,1.5
			c-0.4,0.4-0.9,0.6-1.5,0.6c-0.4,0-0.8-0.1-1.2-0.3s-0.6-0.5-0.8-0.9s-0.2-1-0.2-1.7c0-0.8,0.1-1.4,0.3-2c0.2-0.5,0.4-0.9,0.7-1.1
			c0.3-0.2,0.7-0.3,1.1-0.3c0.3,0,0.6,0.1,1.1,0.2c0.2,0.1,0.4,0.1,0.5,0.1C251.4,180.2,251.5,180.1,251.6,179.8z M249.6,182.3
			c-0.4,0-0.6,0.1-0.8,0.4c-0.2,0.3-0.2,0.7-0.2,1.3c0,0.8,0.1,1.2,0.3,1.5c0.2,0.2,0.4,0.3,0.8,0.3c0.7,0,1-0.6,1-1.7
			c0-0.6-0.1-1.1-0.3-1.4C250.3,182.5,250,182.3,249.6,182.3z"/>
		<path d="M254.8,183.8c0.1-0.5,0.3-1,0.7-1.3s0.9-0.5,1.5-0.5c0.7,0,1.2,0.2,1.6,0.6c0.4,0.4,0.6,0.9,0.6,1.4
			c0,0.7-0.2,1.2-0.6,1.6c-0.4,0.4-0.9,0.6-1.6,0.6c-0.6,0-1.1-0.2-1.6-0.6c-0.4-0.4-0.6-0.8-0.6-1.4H254h-0.4c0,0-0.1,0-0.2,0v0.2
			v0.8c0,0.2,0,0.3,0.1,0.5c0.2,0,0.3,0.1,0.4,0.1c0.1,0,0.1,0,0.1,0v0.3h-0.6c-0.2,0-0.3,0-0.5,0h-0.7h-0.6v-0.3h0.1
			c0.2,0,0.3-0.1,0.4-0.1c0-0.2,0.1-0.6,0.1-1.1v-0.9v-0.6c0-0.3,0-0.5,0-0.5s-0.1-0.1-0.2-0.1c-0.1,0-0.2,0-0.3,0l-0.1-0.3
			c0.4,0,0.7,0,0.9,0h0.2h0.4c0.4,0,0.7,0,0.9,0l-0.1,0.3h-0.3c-0.2,0-0.2,0-0.3,0.1c0,0.1,0,0.3,0,0.8c0,0.2,0,0.3,0,0.4h0.2h0.5
			h0.4H254.8z M257,182.3c-0.2,0-0.4,0.1-0.6,0.2c-0.2,0.1-0.3,0.3-0.3,0.5c-0.1,0.2-0.1,0.6-0.1,1.2v0.3c0,0.8,0.4,1.3,1,1.3
			c0.3,0,0.6-0.1,0.7-0.4c0.2-0.3,0.3-0.8,0.3-1.5C258,182.9,257.7,182.3,257,182.3z"/>
		<path d="M263.6,187.2c-0.1,0-0.1,0-0.1,0h-0.1c0-0.1-0.1-0.2-0.1-0.3c-0.2-0.4-0.3-0.6-0.5-0.7c-0.2-0.1-0.5-0.2-0.9-0.2h-0.7h-1
			c-0.3,0-0.4,0-0.5,0s-0.1,0.1-0.2,0.2c-0.1,0.1-0.1,0.3-0.2,0.6c-0.1,0.2-0.1,0.3-0.1,0.3s0,0-0.1,0s-0.1,0-0.1,0s0,0-0.1,0
			c0-0.2,0-0.4,0.1-0.5c0-0.5,0.1-0.8,0.1-1h0.1c0.1,0,0.2,0,0.3,0c0.3-0.6,0.6-1.4,1.1-2.6l0.2-0.6l0.1-0.4h0.4
			c0,0.1,0.3,0.7,0.8,1.8s0.8,1.7,0.9,1.8s0.2,0.1,0.3,0.2c0.1,0,0.1,0.1,0.2,0.1c0,0.1,0,0.3,0,0.6L263.6,187.2z M261.9,185.6
			c-0.1-0.2-0.1-0.4-0.2-0.6l-0.4-1c-0.2-0.5-0.3-0.9-0.4-0.9l-1,2.5c0.4,0,0.8,0,1.2,0C261.4,185.7,261.7,185.7,261.9,185.6z"/>
		<path d="M266.4,184.2c-0.2,0-0.4,0.1-0.5,0.1c-0.1,0.1-0.3,0.3-0.6,0.7l-0.5,0.6c-0.2,0.2-0.3,0.4-0.3,0.4c-0.3,0-0.6,0-0.7,0
			c-0.2,0-0.4,0-0.5,0h-0.2c0-0.1,0-0.1,0-0.1v-0.2c0.2-0.1,0.4-0.1,0.5-0.2c0.1-0.1,0.3-0.2,0.5-0.5c0.4-0.5,0.7-0.9,0.9-1
			c0.2-0.2,0.4-0.3,0.5-0.3c-0.1-0.1-0.2-0.2-0.4-0.4c-0.3-0.4-0.6-0.6-0.8-0.6c-0.1,0-0.1,0-0.2,0.1c-0.1,0.2-0.3,0.2-0.4,0.2
			s-0.3,0-0.3-0.1c-0.1-0.1-0.1-0.2-0.1-0.3c0-0.2,0.1-0.3,0.2-0.4c0.1-0.1,0.3-0.2,0.5-0.2c0.5,0,0.9,0.3,1.4,1
			c0.2,0.3,0.4,0.5,0.5,0.6s0.3,0.2,0.5,0.2v-0.9c0-0.2,0-0.4,0-0.4c0-0.1-0.1-0.1-0.3-0.1c-0.1,0-0.2,0-0.3,0l-0.1-0.3
			c0.4,0,0.7,0,0.9,0h0.2h0.4c0.4,0,0.7,0,0.9,0l-0.1,0.3h-0.3c-0.1,0-0.2,0-0.2,0s0,0.1-0.1,0.2v0.1c0,0.2,0,0.4,0,0.5v0.5
			c0.2-0.1,0.4-0.2,0.5-0.3s0.3-0.3,0.5-0.6c0.5-0.7,1-1,1.4-1c0.2,0,0.4,0.1,0.5,0.2c0.1,0.1,0.2,0.3,0.2,0.4c0,0.1,0,0.2-0.1,0.3
			s-0.2,0.1-0.3,0.1c-0.2,0-0.3-0.1-0.4-0.2c-0.1-0.1-0.2-0.1-0.2-0.1c-0.1,0-0.2,0-0.3,0.1c-0.1,0.1-0.3,0.2-0.4,0.5
			c-0.2,0.2-0.3,0.3-0.4,0.4c0.2,0.1,0.4,0.2,0.6,0.3c0.2,0.2,0.4,0.5,0.8,1c0.2,0.3,0.4,0.5,0.5,0.5c0.1,0.1,0.3,0.1,0.5,0.2v0.2
			v0.1c0,0-0.1,0-0.2,0c-0.2,0-0.3,0-0.5,0s-0.4,0-0.7,0c0-0.1-0.2-0.2-0.3-0.4l-0.5-0.6c-0.3-0.4-0.5-0.6-0.6-0.7
			c-0.1-0.1-0.3-0.1-0.5-0.1v1.1v0.2v0.2c0.1,0.1,0.2,0.1,0.4,0.1h0.1v0.1v0.1c0,0,0,0,0,0.1l0,0h-0.5c-0.2,0-0.4,0-0.6,0
			c-0.1,0-0.3,0-0.7,0c-0.1,0-0.2,0-0.2,0c-0.1,0-0.1,0-0.2,0c0-0.1,0-0.1,0-0.2v-0.1c0.1,0,0.1,0,0.2-0.1c0.1,0,0.1,0,0.1,0h0.2
			c0.1,0,0.1,0,0.1,0s0.1-0.4,0.1-1v-0.3H266.4z"/>
		<path d="M270.5,183.5c0.1-0.3,0.2-0.4,0.2-0.5c0.2-0.3,0.4-0.5,0.6-0.6s0.4-0.2,0.5-0.3c0.2-0.1,0.4-0.1,0.5-0.1
			c0.3,0,0.5,0,0.7,0.1c0.2,0,0.3,0.1,0.5,0.2c0.2,0.1,0.3,0.2,0.4,0.4c0.1,0.1,0.2,0.3,0.3,0.4s0.1,0.4,0.1,0.6h-0.5
			c-0.1,0-0.5,0-1,0c-0.2,0-0.3,0-0.4,0c0,0-0.2,0-0.5,0h-0.4v0.1c0,0.2,0,0.3,0.1,0.5c0,0.2,0.1,0.3,0.2,0.5
			c0.1,0.1,0.2,0.3,0.3,0.4c0.1,0.1,0.2,0.2,0.4,0.2l0.3,0.1c0.2,0,0.4,0,0.5,0c0.2,0,0.3-0.1,0.4-0.1s0.3-0.1,0.4-0.2
			c0.1,0.1,0.2,0.2,0.3,0.2c-0.3,0.3-0.6,0.5-0.9,0.7c-0.3,0.1-0.6,0.2-1,0.2c-0.2,0-0.5,0-0.6-0.1c-0.2-0.1-0.4-0.1-0.6-0.3
			c-0.2-0.1-0.3-0.3-0.4-0.4c-0.1-0.2-0.2-0.4-0.3-0.5c-0.1-0.2-0.1-0.4-0.1-0.6C270.5,184,270.5,183.8,270.5,183.5z M273.3,183.3
			c0-0.2,0-0.3-0.1-0.5s-0.2-0.3-0.3-0.4c-0.1-0.1-0.3-0.1-0.4-0.1c-0.2,0-0.4,0.1-0.6,0.3s-0.3,0.4-0.3,0.8h1.1c0.1,0,0.2,0,0.3,0
			c0.1,0,0.2,0,0.2,0C273.2,183.3,273.2,183.3,273.3,183.3z"/>
		<path d="M274.1,183.2c0,0,0.1-0.1,0.1-0.2l0.1-0.2c0.1-0.2,0.1-0.4,0.2-0.7v-0.2h0.2c0,0,0,0,0,0.1c0.1,0.1,0.1,0.2,0.2,0.2
			c0,0,0.2,0,0.5,0h1h0.4h1.1c0,0,0,0,0.1,0s0.1,0,0.1,0s0-0.1,0.1-0.2v-0.1c0.1,0,0.1,0,0.3,0v0.7v0.3c0,0.2,0,0.3,0,0.3
			c-0.1,0-0.2,0.1-0.3,0.1c-0.1-0.1-0.1-0.2-0.2-0.4s-0.1-0.3-0.2-0.3s-0.2,0-0.4,0h-0.3c-0.1,0-0.2,0-0.3,0v0.4v0.5v0.8
			c0,0.8,0,1.2,0.1,1.3c0.2,0,0.3,0.1,0.4,0.1s0.1,0,0.1,0v0.3h-0.6c-0.2,0-0.3,0-0.5,0h-0.7H275v-0.3h0.1c0.2,0,0.3-0.1,0.4-0.1
			c0.1-0.2,0.1-0.6,0.1-1v-1c0-0.5,0-0.8,0-1c-0.1,0-0.3,0-0.3,0c-0.3,0-0.5,0-0.5,0.1c-0.1,0-0.2,0.2-0.4,0.4l-0.1,0.1
			c-0.1,0.1-0.1,0.1-0.1,0.1C274.2,183.3,274.2,183.3,274.1,183.2z"/>
		<path d="M279.7,184h0.2h0.7h0.2h0.3c0.1,0,0.3,0,0.5,0v-0.5c0-0.5,0-0.7,0-0.8s-0.1-0.1-0.3-0.1c-0.1,0-0.2,0-0.3,0l-0.1-0.3
			c0.4,0,0.7,0,0.9,0h0.2h0.4c0.4,0,0.7,0,0.9,0l-0.1,0.3c-0.2,0-0.3,0-0.3,0c-0.1,0-0.2,0-0.2,0.1c0,0,0,0.2,0,0.5v0.6v0.8
			c0,0.7,0,1.1,0.1,1.2c0.2,0,0.3,0.1,0.4,0.1s0.1,0,0.1,0v0.3h-0.6c-0.2,0-0.3,0-0.5,0h-0.7h-0.6v-0.3h0.1c0.2,0,0.3-0.1,0.4-0.1
			c0.1-0.3,0.1-0.7,0.1-1.1v-0.3c-0.2,0-0.4,0-0.6,0c-0.3,0-0.5,0-0.6,0h-0.4c-0.1,0-0.2,0-0.3,0v0.2v0.7c0,0.2,0,0.3,0.1,0.5
			c0.2,0,0.3,0.1,0.4,0.1s0.1,0,0.1,0v0.3h-0.6c-0.2,0-0.3,0-0.5,0h-0.7h-0.6v-0.3h0.1c0.2,0,0.3-0.1,0.4-0.1c0-0.2,0.1-0.6,0.1-1.2
			v-1.3c0-0.4,0-0.6-0.1-0.6c0,0-0.1,0-0.2,0s-0.2,0-0.3,0l-0.1-0.3c0.4,0,0.7,0,0.9,0h0.2h0.4c0.4,0,0.7,0,0.9,0l-0.1,0.3
			c-0.2,0-0.3,0-0.3,0c-0.1,0-0.2,0-0.2,0.1c0,0,0,0.2,0,0.5C279.7,183.5,279.7,183.8,279.7,184z"/>
		<path d="M287,182.6c0.2,0.2,0.4,0.4,0.5,0.7s0.1,0.5,0.1,0.7c0,0.4-0.1,0.8-0.2,1c-0.2,0.4-0.5,0.7-0.8,0.9s-0.7,0.3-1.2,0.3
			s-0.9-0.1-1.2-0.3c-0.3-0.2-0.6-0.5-0.7-0.7c-0.1-0.3-0.2-0.6-0.2-1c0-0.2,0-0.4,0.1-0.6c0.1-0.2,0.2-0.4,0.3-0.6
			c0.1-0.2,0.3-0.3,0.4-0.4c0.2-0.2,0.4-0.3,0.6-0.3c0.2-0.1,0.5-0.1,0.8-0.1C286.1,182,286.6,182.2,287,182.6z M284.4,184.2
			c0,0.4,0,0.6,0.1,0.7c0,0.2,0.1,0.4,0.2,0.5s0.2,0.2,0.3,0.3c0.1,0.1,0.3,0.1,0.5,0.1s0.4-0.1,0.6-0.2c0.2-0.1,0.3-0.4,0.3-0.7
			c0-0.2,0.1-0.5,0.1-1c0-0.6-0.1-1-0.3-1.2c-0.2-0.2-0.4-0.4-0.7-0.4c-0.2,0-0.4,0.1-0.6,0.2c-0.2,0.1-0.3,0.3-0.3,0.6
			C284.4,183.3,284.4,183.7,284.4,184.2z"/>
		<path d="M287.8,183.5c0.1-0.3,0.2-0.4,0.2-0.5c0.2-0.3,0.4-0.5,0.6-0.6s0.4-0.2,0.5-0.3c0.2-0.1,0.4-0.1,0.5-0.1
			c0.3,0,0.5,0,0.7,0.1c0.2,0,0.3,0.1,0.5,0.2c0.2,0.1,0.3,0.2,0.4,0.4c0.1,0.1,0.2,0.3,0.3,0.4c0.1,0.2,0.1,0.4,0.1,0.6h-0.5
			c-0.1,0-0.5,0-1,0c-0.2,0-0.3,0-0.4,0c0,0-0.2,0-0.5,0h-0.4v0.1c0,0.2,0,0.3,0.1,0.5c0,0.2,0.1,0.3,0.2,0.5
			c0.1,0.1,0.2,0.3,0.3,0.4c0.1,0.1,0.2,0.2,0.4,0.2l0.3,0.1c0.2,0,0.4,0,0.5,0c0.2,0,0.3-0.1,0.4-0.1s0.3-0.1,0.4-0.2
			c0.1,0.1,0.2,0.2,0.3,0.2c-0.3,0.3-0.6,0.5-0.9,0.7c-0.3,0.1-0.6,0.2-1,0.2c-0.2,0-0.5,0-0.6-0.1c-0.2-0.1-0.4-0.1-0.6-0.3
			c-0.2-0.1-0.3-0.3-0.4-0.4c-0.1-0.2-0.2-0.4-0.3-0.5c-0.1-0.2-0.1-0.4-0.1-0.6C287.7,184,287.7,183.8,287.8,183.5z M290.5,183.3
			c0-0.2,0-0.3-0.1-0.5s-0.2-0.3-0.3-0.4c-0.1-0.1-0.3-0.1-0.4-0.1c-0.2,0-0.4,0.1-0.6,0.3s-0.3,0.4-0.3,0.8h1.1c0.1,0,0.2,0,0.3,0
			c0.1,0,0.2,0,0.2,0C290.4,183.3,290.4,183.3,290.5,183.3z"/>
		<path d="M293.1,182.2c0.1,0,0.2,0,0.3,0h0.1c0.3,0,0.5,0,0.7,0h0.2h0.7c0,0,0,0,0.1,0.1c0,0.1,0,0.2,0,0.3h-0.1
			c-0.1,0-0.1,0-0.2,0h-0.1c0,0-0.1,0-0.1,0.1s0,0.1,0.1,0.2l0.2,0.5c0.2,0.4,0.4,0.8,0.6,1.2l0.3,0.5c0,0,0.1-0.3,0.4-0.9
			c0.3-0.7,0.4-1.1,0.4-1.2v-0.1c0,0,0-0.1,0-0.2c-0.1-0.1-0.1-0.1-0.2-0.1c0,0-0.1,0-0.3,0H296v-0.1v-0.1v-0.1c0.1,0,0.2,0,0.2,0
			h0.4h0.3c0.1,0,0.3,0,0.6,0c0.2,0,0.3,0,0.4,0c0,0.1,0,0.1,0,0.2c0,0,0,0,0,0.1c-0.1,0-0.1,0-0.2,0.1c-0.1,0-0.2,0.1-0.3,0.1
			l-0.1,0.1c-0.1,0.1-0.2,0.4-0.3,0.8l-0.3,0.9l-0.8,1.9l-0.5,1.2c-0.1,0.2-0.3,0.4-0.4,0.6c-0.1,0.1-0.1,0.1-0.2,0.2
			c-0.1,0.1-0.3,0.1-0.4,0.1c0,0-0.1,0-0.3,0c-0.1,0-0.2-0.1-0.3-0.2c-0.1-0.1-0.1-0.2-0.1-0.2c0-0.2,0.1-0.3,0.2-0.5
			c0.1-0.1,0.2-0.1,0.3-0.1c0.1,0,0.3,0.1,0.5,0.2c0.1,0.1,0.2,0.1,0.2,0.1c0.1,0,0.1,0,0.1-0.1c0.3-0.5,0.4-0.9,0.5-1.1l-0.9-1.9
			c-0.3-0.8-0.6-1.3-0.7-1.6c-0.1-0.2-0.2-0.2-0.2-0.3c0,0-0.1-0.1-0.2-0.1c0,0-0.1,0-0.1-0.1C293.1,182.4,293.1,182.3,293.1,182.2z
			"/>
		<path d="M300.5,185.7c0-0.2,0.1-0.4,0.1-0.6v-0.6c0-0.1,0-0.2,0-0.3c-0.4,0.4-0.9,0.6-1.5,0.6c-0.3,0-0.6-0.1-0.8-0.2
			c-0.2-0.1-0.4-0.3-0.4-0.4c-0.1-0.2-0.1-0.4-0.1-0.7v-0.6c0-0.1,0-0.2-0.1-0.2c0,0-0.1,0-0.2,0c-0.3,0-0.4-0.1-0.4-0.2
			c0,0,0,0,0-0.1c0,0,0-0.1,0-0.2c0.1,0,0.1,0,0.1,0h0.2h1.1h0.4h0.1h0.1h0.1c0,0.1,0,0.1,0,0.2v0.1c0,0.1-0.1,0.1-0.4,0.2
			c-0.1,0-0.1,0-0.2,0c0,0.1-0.1,0.1-0.1,0.3v0.4c0,0.3,0,0.4,0,0.6c0,0.1,0.1,0.2,0.2,0.3s0.3,0.1,0.4,0.1c0.4,0,0.7-0.2,1-0.5
			v-0.3c0-0.5,0-0.8,0-0.9c0-0.1-0.1-0.1-0.3-0.1c-0.1,0-0.2,0-0.3,0l-0.1-0.3c0.4,0,0.7,0,0.9,0h0.2h0.4c0.4,0,0.7,0,0.9,0
			l-0.1,0.3h-0.3c-0.1,0-0.2,0-0.3,0.1c0,0.1,0,0.3,0,0.8v0.5v0.4v0.9c0,0.2,0,0.3,0.1,0.5c0.2,0,0.3,0.1,0.4,0.1s0.1,0,0.1,0v0.3
			h-0.6c-0.2,0-0.3,0-0.5,0h-1.3v-0.3h0.1C300.2,185.8,300.4,185.7,300.5,185.7z"/>
		<path d="M301.9,188.4v-0.2c0.1,0,0.1-0.1,0.1-0.1l0.4-0.1c0.2-0.1,0.2-0.1,0.3-0.1c0.1-0.1,0.1-0.3,0.1-0.5v-1.9v-2.3
			c0-0.2,0-0.3-0.1-0.4c-0.1-0.1-0.2-0.1-0.5-0.2v-0.2c0.3-0.1,0.6-0.1,0.8-0.2c0.2-0.1,0.4-0.2,0.6-0.4h0.2v0.1v0.5v0.1
			c0.3-0.2,0.5-0.3,0.7-0.3c0.3-0.1,0.5-0.1,0.9-0.1c0.3,0,0.6,0.1,0.9,0.2c0,0,0,0,0.1,0.1c0.2,0.1,0.3,0.2,0.3,0.3
			c0.2,0.2,0.3,0.4,0.3,0.7c0.1,0.2,0.1,0.4,0.1,0.6c0,0.3,0,0.6-0.1,0.8s-0.2,0.5-0.4,0.7c-0.2,0.2-0.4,0.4-0.7,0.5
			s-0.5,0.1-0.7,0.1c-0.3,0-0.4,0-0.6,0c-0.2-0.1-0.4-0.1-0.6-0.3c0,0.1,0,0.1,0,0.1v0.1v0.1c0,0,0,0.1,0,0.4v0.9c0,0,0,0.1,0,0.2
			v0.1c0,0.1,0,0.2,0,0.3c0,0,0,0.1,0.1,0.1h0.1c0.1,0,0.2,0,0.3,0.1c0.1,0,0.2,0,0.2,0v0.1c0,0,0,0.1,0,0.2h-0.1
			c-0.2,0-0.3,0-0.4,0l-0.7-0.1h-0.2h-0.2h-0.2h-0.3c-0.1,0-0.2,0-0.3,0C302.1,188.4,302,188.4,301.9,188.4L301.9,188.4z
			 M303.7,185.1L303.7,185.1c0.1,0.2,0.1,0.3,0.2,0.4c0.1,0.1,0.2,0.2,0.3,0.2c0.2,0.1,0.4,0.1,0.5,0.1c0.2,0,0.3,0,0.5-0.1
			s0.3-0.2,0.4-0.3c0,0,0,0,0.1-0.1c0-0.1,0-0.1,0.1-0.1c0.1-0.2,0.2-0.5,0.2-0.8c0-0.5-0.2-0.9-0.5-1.3c-0.2-0.2-0.5-0.4-0.9-0.4
			c-0.2,0-0.5,0.1-0.8,0.2c0,0.1,0,0.5,0,1v0.9C303.7,184.9,303.7,185,303.7,185.1z"/>
		<path d="M307.1,183.5c0.1-0.3,0.2-0.4,0.2-0.5c0.2-0.3,0.4-0.5,0.6-0.6s0.4-0.2,0.5-0.3c0.2-0.1,0.4-0.1,0.5-0.1
			c0.3,0,0.5,0,0.7,0.1c0.2,0,0.3,0.1,0.5,0.2c0.2,0.1,0.3,0.2,0.4,0.4c0.1,0.1,0.2,0.3,0.3,0.4c0.1,0.2,0.1,0.4,0.1,0.6h-0.5
			c-0.1,0-0.5,0-1,0c-0.2,0-0.3,0-0.4,0c0,0-0.2,0-0.5,0h-0.4v0.1c0,0.2,0,0.3,0.1,0.5c0,0.2,0.1,0.3,0.2,0.5
			c0.1,0.1,0.2,0.3,0.3,0.4c0.1,0.1,0.2,0.2,0.4,0.2l0.3,0.1c0.2,0,0.4,0,0.5,0c0.2,0,0.3-0.1,0.4-0.1s0.3-0.1,0.4-0.2
			c0.1,0.1,0.2,0.2,0.3,0.2c-0.3,0.3-0.6,0.5-0.9,0.7c-0.3,0.1-0.6,0.2-1,0.2c-0.2,0-0.5,0-0.6-0.1c-0.2-0.1-0.4-0.1-0.6-0.3
			c-0.2-0.1-0.3-0.3-0.4-0.4c-0.1-0.2-0.2-0.4-0.3-0.5c-0.1-0.2-0.1-0.4-0.1-0.6C307,184,307,183.8,307.1,183.5z M309.8,183.3
			c0-0.2,0-0.3-0.1-0.5s-0.2-0.3-0.3-0.4c-0.1-0.1-0.3-0.1-0.4-0.1c-0.2,0-0.4,0.1-0.6,0.3s-0.3,0.4-0.3,0.8h1.1c0.1,0,0.2,0,0.3,0
			c0.1,0,0.2,0,0.2,0C309.7,183.3,309.7,183.3,309.8,183.3z"/>
		<path d="M313.9,184.2c-0.2,0-0.4,0.1-0.5,0.1c-0.1,0.1-0.3,0.3-0.6,0.7l-0.5,0.6c-0.2,0.2-0.3,0.4-0.3,0.4c-0.3,0-0.6,0-0.7,0
			c-0.2,0-0.4,0-0.5,0h-0.2c0-0.1,0-0.1,0-0.1v-0.2c0.2-0.1,0.4-0.1,0.5-0.2c0.1-0.1,0.3-0.2,0.5-0.5c0.4-0.5,0.7-0.9,0.9-1
			c0.2-0.2,0.4-0.3,0.5-0.3c-0.1-0.1-0.2-0.2-0.4-0.4c-0.3-0.4-0.6-0.6-0.8-0.6c-0.1,0-0.1,0-0.2,0.1c-0.1,0.2-0.3,0.2-0.4,0.2
			s-0.3,0-0.3-0.1c-0.1-0.1-0.1-0.2-0.1-0.3c0-0.2,0.1-0.3,0.2-0.4c0.1-0.1,0.3-0.2,0.5-0.2c0.5,0,0.9,0.3,1.4,1
			c0.2,0.3,0.4,0.5,0.5,0.6s0.3,0.2,0.5,0.2v-0.9c0-0.2,0-0.4,0-0.4c0-0.1-0.1-0.1-0.3-0.1c-0.1,0-0.2,0-0.3,0l-0.1-0.3
			c0.4,0,0.7,0,0.9,0h0.2h0.4c0.4,0,0.7,0,0.9,0l-0.1,0.3h-0.3c-0.1,0-0.2,0-0.2,0s0,0.1-0.1,0.2v0.1c0,0.2,0,0.4,0,0.5v0.5
			c0.2-0.1,0.4-0.2,0.5-0.3s0.3-0.3,0.5-0.6c0.5-0.7,1-1,1.4-1c0.2,0,0.4,0.1,0.5,0.2c0.1,0.1,0.2,0.3,0.2,0.4c0,0.1,0,0.2-0.1,0.3
			s-0.2,0.1-0.3,0.1c-0.2,0-0.3-0.1-0.4-0.2c-0.1-0.1-0.2-0.1-0.2-0.1c-0.1,0-0.2,0-0.3,0.1c-0.1,0.1-0.3,0.2-0.4,0.5
			c-0.2,0.2-0.3,0.3-0.4,0.4c0.2,0.1,0.4,0.2,0.6,0.3c0.2,0.2,0.4,0.5,0.8,1c0.2,0.3,0.4,0.5,0.5,0.5c0.1,0.1,0.3,0.1,0.5,0.2v0.2
			v0.1c0,0-0.1,0-0.2,0c-0.2,0-0.3,0-0.5,0s-0.4,0-0.7,0c0-0.1-0.2-0.2-0.3-0.4L316,185c-0.3-0.4-0.5-0.6-0.6-0.7
			c-0.1-0.1-0.3-0.1-0.5-0.1v1.1v0.2v0.2c0.1,0.1,0.2,0.1,0.4,0.1h0.1v0.1v0.1c0,0,0,0,0,0.1l0,0h-0.5c-0.2,0-0.4,0-0.6,0
			c-0.1,0-0.3,0-0.7,0c-0.1,0-0.2,0-0.2,0c-0.1,0-0.1,0-0.2,0c0-0.1,0-0.1,0-0.2v-0.1c0.1,0,0.1,0,0.2-0.1c0.1,0,0.1,0,0.1,0h0.2
			c0.1,0,0.1,0,0.1,0s0.1-0.4,0.1-1V184.2z"/>
		<path d="M322.3,187.2c-0.1,0-0.1,0-0.1,0h-0.1c0-0.1-0.1-0.2-0.1-0.3c-0.2-0.4-0.3-0.6-0.5-0.7c-0.2-0.1-0.5-0.2-0.9-0.2h-0.7h-1
			c-0.3,0-0.4,0-0.5,0s-0.1,0.1-0.2,0.2c-0.1,0.1-0.1,0.3-0.2,0.6c-0.1,0.2-0.1,0.3-0.1,0.3s0,0-0.1,0s-0.1,0-0.1,0s0,0-0.1,0
			c0-0.2,0-0.4,0.1-0.5c0-0.5,0.1-0.8,0.1-1h0.1c0.1,0,0.2,0,0.3,0c0.3-0.6,0.6-1.4,1.1-2.6l0.2-0.6l0.1-0.4h0.4
			c0,0.1,0.3,0.7,0.8,1.8s0.8,1.7,0.9,1.8s0.2,0.1,0.3,0.2c0.1,0,0.1,0.1,0.2,0.1c0,0.1,0,0.3,0,0.6L322.3,187.2z M320.6,185.6
			c-0.1-0.2-0.1-0.4-0.2-0.6l-0.4-1c-0.2-0.5-0.3-0.9-0.4-0.9l-1,2.5c0.4,0,0.8,0,1.2,0C320.1,185.7,320.4,185.7,320.6,185.6z"/>
		<path d="M322.2,183.5c0.1-0.3,0.2-0.4,0.2-0.5c0.2-0.3,0.4-0.5,0.6-0.6s0.4-0.2,0.5-0.3c0.2-0.1,0.4-0.1,0.5-0.1
			c0.3,0,0.5,0,0.7,0.1c0.2,0,0.3,0.1,0.5,0.2c0.2,0.1,0.3,0.2,0.4,0.4c0.1,0.1,0.2,0.3,0.3,0.4s0.1,0.4,0.1,0.6h-0.5
			c-0.1,0-0.5,0-1,0c-0.2,0-0.3,0-0.4,0c0,0-0.2,0-0.5,0h-0.4v0.1c0,0.2,0,0.3,0.1,0.5c0,0.2,0.1,0.3,0.2,0.5
			c0.1,0.1,0.2,0.3,0.3,0.4c0.1,0.1,0.2,0.2,0.4,0.2l0.3,0.1c0.2,0,0.4,0,0.5,0c0.2,0,0.3-0.1,0.4-0.1s0.3-0.1,0.4-0.2
			c0.1,0.1,0.2,0.2,0.3,0.2c-0.3,0.3-0.6,0.5-0.9,0.7c-0.3,0.1-0.6,0.2-1,0.2c-0.2,0-0.5,0-0.6-0.1c-0.2-0.1-0.4-0.1-0.6-0.3
			c-0.2-0.1-0.3-0.3-0.4-0.4c-0.1-0.2-0.2-0.4-0.3-0.5c-0.1-0.2-0.1-0.4-0.1-0.6C322.1,184,322.1,183.8,322.2,183.5z M324.9,183.3
			c0-0.2,0-0.3-0.1-0.5s-0.2-0.3-0.3-0.4c-0.1-0.1-0.3-0.1-0.4-0.1c-0.2,0-0.4,0.1-0.6,0.3s-0.3,0.4-0.3,0.8h1.1c0.1,0,0.2,0,0.3,0
			c0.1,0,0.2,0,0.2,0C324.8,183.3,324.9,183.3,324.9,183.3z"/>
		<path d="M327.6,184h0.2h0.7h0.2h0.3c0.1,0,0.3,0,0.5,0v-0.5c0-0.5,0-0.7,0-0.8s-0.1-0.1-0.3-0.1c-0.1,0-0.2,0-0.3,0l-0.1-0.3
			c0.4,0,0.7,0,0.9,0h0.2h0.4c0.4,0,0.7,0,0.9,0l-0.1,0.3c-0.2,0-0.3,0-0.3,0c-0.1,0-0.2,0-0.2,0.1c0,0,0,0.2,0,0.5v0.6v0.8
			c0,0.7,0,1.1,0.1,1.2c0.2,0,0.3,0.1,0.4,0.1s0.1,0,0.1,0v0.3h-0.6c-0.2,0-0.3,0-0.5,0h-0.7h-0.6v-0.3h0.1c0.2,0,0.3-0.1,0.4-0.1
			c0.1-0.3,0.1-0.7,0.1-1.1v-0.3c-0.2,0-0.4,0-0.6,0c-0.3,0-0.5,0-0.6,0h-0.4c-0.1,0-0.2,0-0.3,0v0.2v0.7c0,0.2,0,0.3,0.1,0.5
			c0.2,0,0.3,0.1,0.4,0.1s0.1,0,0.1,0v0.3h-0.6c-0.2,0-0.3,0-0.5,0h-0.7h-0.6v-0.3h0.1c0.2,0,0.3-0.1,0.4-0.1c0-0.2,0.1-0.6,0.1-1.2
			v-1.3c0-0.4,0-0.6-0.1-0.6c0,0-0.1,0-0.2,0s-0.2,0-0.3,0l-0.1-0.3c0.4,0,0.7,0,0.9,0h0.2h0.4c0.4,0,0.7,0,0.9,0l-0.1,0.3
			c-0.2,0-0.3,0-0.3,0c-0.1,0-0.2,0-0.2,0.1c0,0,0,0.2,0,0.5C327.6,183.5,327.6,183.8,327.6,184z"/>
		<path d="M333.9,182.5l-0.1-0.3c0.4,0,0.7,0,0.9,0h0.2h0.4c0.4,0,0.7,0,0.9,0l-0.1,0.3h-0.3c-0.2,0-0.2,0-0.2,0.1c0,0,0,0.3,0,0.8
			v0.3v0.4c0,1,0,1.6,0.1,1.6c0.2,0,0.3,0.1,0.4,0.1h0.1v0.3h-0.3c-0.3,0-0.6,0-0.7,0h-1.3v-0.3h0.1c0.2,0,0.3-0.1,0.4-0.1
			c0-0.2,0.1-0.6,0.1-1.2v-0.3v-0.5c0,0,0-0.1,0-0.3c-1,1.1-1.6,1.7-1.8,1.9c0,0.2,0,0.3,0.1,0.4c0.2,0,0.3,0.1,0.4,0.1h0.1v0.3H333
			c-0.3,0-0.6,0-0.7,0H331v-0.3h0.1c0.2,0,0.3-0.1,0.4-0.1c0-0.2,0.1-0.4,0.1-0.6v-0.8v-0.7v-0.3V183c0-0.3,0-0.4,0-0.5
			c0,0-0.1-0.1-0.3-0.1c-0.1,0-0.2,0-0.3,0l-0.1-0.3c0.4,0,0.7,0,0.9,0h0.2h0.4c0.4,0,0.7,0,0.9,0l-0.1,0.3h-0.3
			c-0.2,0-0.2,0-0.3,0.1c0,0,0,0.3,0,0.8v0.3v0.3v0.9l0.9-0.9c0.2-0.3,0.5-0.5,0.6-0.7c0.2-0.2,0.3-0.3,0.3-0.4c0-0.1,0-0.1,0-0.2
			c0-0.1-0.1-0.2-0.3-0.2C334.1,182.5,334,182.5,333.9,182.5z"/>
		<path d="M336.2,183.5c0.1-0.3,0.2-0.4,0.2-0.5c0.2-0.3,0.4-0.5,0.6-0.6s0.4-0.2,0.5-0.3c0.2-0.1,0.4-0.1,0.5-0.1
			c0.3,0,0.5,0,0.7,0.1c0.2,0,0.3,0.1,0.5,0.2c0.2,0.1,0.3,0.2,0.4,0.4c0.1,0.1,0.2,0.3,0.3,0.4c0.1,0.2,0.1,0.4,0.1,0.6h-0.5
			c-0.1,0-0.5,0-1,0c-0.2,0-0.3,0-0.4,0c0,0-0.2,0-0.5,0h-0.4v0.1c0,0.2,0,0.3,0.1,0.5c0,0.2,0.1,0.3,0.2,0.5
			c0.1,0.1,0.2,0.3,0.3,0.4c0.1,0.1,0.2,0.2,0.4,0.2l0.3,0.1c0.2,0,0.4,0,0.5,0c0.2,0,0.3-0.1,0.4-0.1s0.3-0.1,0.4-0.2
			c0.1,0.1,0.2,0.2,0.3,0.2c-0.3,0.3-0.6,0.5-0.9,0.7c-0.3,0.1-0.6,0.2-1,0.2c-0.2,0-0.5,0-0.6-0.1c-0.2-0.1-0.4-0.1-0.6-0.3
			c-0.2-0.1-0.3-0.3-0.4-0.4c-0.1-0.2-0.2-0.4-0.3-0.5c-0.1-0.2-0.1-0.4-0.1-0.6C336.1,184,336.2,183.8,336.2,183.5z M338.9,183.3
			c0-0.2,0-0.3-0.1-0.5s-0.2-0.3-0.3-0.4c-0.1-0.1-0.3-0.1-0.4-0.1c-0.2,0-0.4,0.1-0.6,0.3s-0.3,0.4-0.3,0.8h1.1c0.1,0,0.2,0,0.3,0
			c0.1,0,0.2,0,0.2,0C338.8,183.3,338.9,183.3,338.9,183.3z"/>
	</g>
	<g>
		<path d="M97.4,218l3.3-3.5c1.7-1.8,3-3.1,3.7-3.9c0.9,0,1.6,0,2,0.1c-0.4,0.8-1.2,2.2-2.4,4.1l-1.8,3.1c0.7,1,1.6,2.5,2.7,4.6
			l1.3,2.3c0,0.1,0.1,0.2,0.2,0.4H106h-0.6h-0.9C101.7,222.6,99.3,220.1,97.4,218z M105.2,218.1c0.2-0.2,1.6-1.8,4.4-4.8
			c0.9-1,1.6-1.8,2.2-2.5h0.4c0.3,0,0.8,0,1.5,0c-0.1,0.3-0.2,0.6-0.3,0.8l-2.9,6c-0.1,0.2-0.1,0.3-0.1,0.5l1.6,3.1
			c0.2,0.4,0.4,0.8,0.5,1c0.3,0.7,0.5,1.2,0.7,1.5c0.3,0.5,0.5,1.1,0.7,1.6c-0.5,0-0.9,0-1,0c-0.2,0-0.5,0-0.8,0l-2.7-3L105.2,218.1
			z"/>
		<path d="M127.6,208.1l-3.9,10.4c-1,2.7-1.5,4.2-1.5,4.4c0,0.4,0.1,0.6,0.4,0.8s0.8,0.3,1.5,0.4c0.1,0,0.5,0.1,1.3,0.2v0.9
			c0,0.2,0,0.3,0,0.4c-0.8,0-1.9-0.1-3.4-0.2l-2.1-0.2l-0.8,0.1c-0.9,0.1-1.9,0.2-3,0.2v-1.2c0.1,0,0.5-0.1,1.2-0.3
			c1-0.2,1.6-0.4,1.9-0.6c0.3-0.2,0.6-0.8,1-1.8s1.4-3.8,3.1-8.4l2.5-6.4l2.2-5.9h2c0.4,0.8,1.4,3.3,3.2,7.5l0.5,1.1
			c0.6,1.2,1.3,3.2,2.3,5.8l0.6,1.4c0.4,1,0.9,2.1,1.3,3.3c0.5,1.3,0.9,2.2,1.2,2.7s0.7,0.8,1.3,0.9c0.7,0.1,1.3,0.2,1.8,0.5
			c0.1,0.4,0.1,0.7,0.1,0.9v0.4c-0.9,0-2,0-3.1-0.1c-1-0.1-1.8-0.1-2.4-0.1c-1.6,0-3.1,0.1-4.5,0.2l-2.1,0.1c0-0.4,0-0.9,0.1-1.2
			c0.1,0,0.5-0.1,1.4-0.3c1-0.3,1.6-0.4,1.7-0.5c0.1-0.1,0.2-0.2,0.2-0.5c0-0.2-0.5-1.4-1.4-3.6l-0.8-2.1
			C129.5,212.3,128.2,209.2,127.6,208.1z"/>
		<path d="M144.3,201.6c0.7,0,1.3,0.1,1.8,0.2c1,0.1,2.1,0.2,3.4,0.2c0.4,0,1.6,0,3.4-0.1c2.8-0.1,5.3-0.2,7.5-0.2h3.4
			c0.8,0,1.9,0.1,3.3,0.3c0.2,0.2,0.3,0.6,0.3,1v3.8v0.8c0,0.1,0,0.2,0,0.3h-0.8c-0.1,0-0.3,0-0.6,0c-0.1-0.2-0.3-0.6-0.4-1.1
			l-0.7-1.3c-0.3-0.6-0.7-1.1-1.2-1.7c-0.3-0.1-0.7-0.1-1.2-0.1c-0.1,0-0.5,0-1.1-0.1c-1.2-0.1-2.4-0.1-3.7-0.1
			c-1.5,0-2.9,0-4.1,0.1c0,0.3-0.1,1.5-0.1,3.7v3.1v2.3c0.3,0,0.6,0.1,0.8,0.1c2.2,0,3.8,0,4.8-0.1c0.9-0.1,1.5-0.2,1.8-0.4
			c0.2-0.2,0.4-0.4,0.6-0.8c0.1-0.3,0.3-1.2,0.7-2.7h0.2h1.1c0,1.1,0.1,1.9,0.1,2.5c0,1.3,0,2.1,0,2.5s0,0.7,0,0.9
			c0,0.3,0,0.9,0.1,1.6c0,0.7,0.1,1.3,0.1,1.6v0.4h-1.3c-0.1-0.2-0.1-0.6-0.3-1.2c-0.2-1.2-0.5-1.9-0.7-2.2
			c-0.1-0.2-0.4-0.4-0.7-0.5c-0.2-0.1-1.2-0.1-2.8-0.1c-1.9,0-3.3,0-4.2,0.1c0,0.3,0,0.5,0,0.6c0,1.5,0,2.7,0.1,3.7v4
			c0,0.5,0.2,0.8,0.5,1c0.5,0.3,2.1,0.4,4.7,0.4c1.7,0,3.2-0.1,4.4-0.4c0.8-0.2,1.6-0.6,2.2-1.2c0.8-0.8,1.5-2,2.1-3.5
			c0.4,0,0.7-0.1,0.9-0.1c0.1,0,0.3,0,0.6,0c0,0.3-0.1,0.6-0.1,0.8l-0.1,0.6l-0.7,3.5l-0.3,2.1c-0.8,0-1.4,0.1-1.9,0.1
			c-0.7,0-2.6-0.1-5.6-0.2c-2.1-0.1-4.7-0.1-7.7-0.1c-1.5,0-3.3,0.1-5.5,0.2h-0.8l-2.3,0.1v-1.3c0.2-0.1,0.7-0.1,1.4-0.2
			c1.3-0.1,2.2-0.3,2.7-0.6c0.1-0.4,0.2-0.8,0.2-1.4c0-0.2,0-0.6,0-1.1v-0.6l-0.1-7v-2.1l-0.1-3v-2.1l-0.2-2.3c0-0.1,0-0.2,0-0.4
			c-0.1-0.1-0.3-0.2-0.6-0.3c-0.1,0-0.3-0.1-0.6-0.1c-0.7-0.1-1.4-0.2-2-0.3c-0.2,0-0.5,0-0.8-0.1L144.3,201.6z"/>
		<path d="M173.7,225.6c0-0.4,0-0.8,0.1-1.3l2.3-0.4c0.3-0.1,0.6-0.2,1-0.3l0.2-4.7c0-1.7-0.1-2.9-0.1-3.8v-0.4
			c0-0.5,0.1-1.8,0.1-3.8v-0.5v-1.6v-1.6v-0.8c0-0.7-0.1-1.6-0.2-2.5c0-0.1-0.1-0.2-0.1-0.4c-0.1,0-0.2-0.1-0.3-0.1s-0.2,0-0.4-0.1
			c-0.5-0.1-1-0.1-1.6-0.2l-0.3-0.1c-0.3,0-0.6-0.1-0.8-0.1c0-0.4-0.1-0.6-0.1-0.7c0-0.1,0-0.4,0.1-0.6c0.2,0,0.6-0.1,1-0.1
			s0.8,0,0.9,0c1.5,0.2,2.6,0.2,3.4,0.3c0.3,0,0.7,0,1,0s0.6,0,0.9,0c0.4,0,1.4-0.1,3-0.2c0.3-0.1,0.5-0.1,0.9-0.1
			c0.5,0,0.8,0,1.2,0.1c0,0.3,0,0.4,0,0.6c0,0.2,0,0.4-0.1,0.7l-3.3,0.5c-0.3,0.1-0.4,0.3-0.4,0.5v0.7v0.3v0.8v0.6v0.1
			c0,0.1,0,0.3,0,0.4v2.4c0,0.2,0,0.4,0,0.5s0,0.3,0,0.6c0,0.2,0,0.4,0,0.6c0,0.2,0,0.6,0,1.3c0.3,0.1,0.6,0.1,0.9,0.1l2.7,0.1h1.3
			h3.3l3.3-0.1c0.4,0,0.9,0,1.3-0.1c0-0.4,0-1.5,0.1-3.1v-0.8l-0.1-3.2l-0.1-1.3c0-0.1-0.1-0.2-0.3-0.2c-0.4-0.2-1.3-0.5-2.6-0.8
			c-0.2,0-0.5-0.1-0.7-0.2c0-0.4,0.1-0.8,0.1-1.1c0.3,0,0.4,0,0.5,0h1.8c1.2,0.1,2.3,0.2,3.5,0.2c0.3,0,0.5,0,0.7,0l2.4-0.1
			c0.2,0,0.4,0,0.7,0c0.4-0.1,0.9-0.1,1.4-0.1c0.4,0,0.8,0,1.3,0.1c0,0.5,0,0.9-0.1,1.3c-1.1,0.2-1.9,0.4-2.2,0.5
			c-0.4,0.1-0.7,0.3-1.1,0.4l-0.1,0.4v0.3v0.5v0.2c0,0.3,0,0.5,0,0.6v0.5c0,0.6,0,0.9,0,0.9v2.4v1.8l-0.1,2.4c0,0.5,0,1.7,0.1,3.3
			v2.6v2.2c0,0.4,0,0.9,0,1.5c0.3,0.1,0.5,0.1,0.7,0.2c1.2,0.2,2,0.5,2.6,0.8l0.1,1.3c-0.5,0-0.8,0-0.9,0c-0.6,0-1.3,0-2-0.1
			c-1-0.1-2.6-0.2-4.9-0.2c-1,0-2.3,0.1-3.9,0.2c-0.2,0-0.4,0-0.6-0.1c0-0.6,0-1,0.1-1.2l1.4-0.3l1.5-0.2c0.1,0,0.3-0.1,0.6-0.2
			c0.1-1,0.2-2.7,0.2-5V217c-0.1-0.7-0.1-1.4-0.1-2.4c-0.5,0-1-0.1-1.5-0.1l-8.6-0.1h-0.2h-0.1c-0.1,0-0.2,0-0.3,0
			c-0.3,0-0.6,0-0.8,0h-0.5c-0.2,0-0.5,0-0.8,0.1l-0.1,1.4v0.2c0,0.3,0,0.6,0,0.7v5.8c0,0.3,0,0.7,0.1,1l0.2,0.1l2.7,0.4
			c0.1,0,0.2,0.1,0.3,0.1c0.2,0,0.3,0.1,0.4,0.2c0,0.3,0.1,0.5,0.1,0.6c0,0.2,0,0.4-0.1,0.7c-0.4,0-0.8,0-1.1,0s-0.5,0-0.8,0
			c-0.1,0-0.2,0-0.3,0l-2.6-0.1c-0.6-0.1-1.5-0.1-2.6-0.1h-0.4c-0.5,0-0.8,0-0.9,0.1C176.5,225.6,175.3,225.6,173.7,225.6z"/>
		<path d="M230.2,202c0.2,0.4,0.5,1.4,1,3.2c0.2,0.8,0.3,1.6,0.4,2.5h-1.7c-1.2-1.7-2.4-2.9-3.7-3.6c-1.3-0.7-2.7-1.1-4.2-1.1
			c-1.9,0-3.5,0.8-4.6,2.3c-1.6,2-2.4,4.9-2.4,8.5c0,2.1,0.1,3.6,0.4,4.5c0.4,1.5,1,2.6,1.7,3.6c0.5,0.7,1.2,1.2,2,1.7
			c1.1,0.6,2.3,0.8,3.5,0.8c1.4,0,2.7-0.4,4-1.3c1.3-0.8,2.5-2.1,3.7-3.8c0.5-0.1,1.1-0.1,1.8-0.1c0,0.5-0.1,1-0.2,1.5
			c0,0.2-0.2,1-0.4,2.4l-0.2,0.6l-0.3,0.9c-0.8,0.6-1.8,1-3.2,1.3s-3.1,0.4-5,0.4c-1.5,0-3-0.1-4.3-0.4c-1.4-0.3-2.5-0.7-3.5-1.4
			c-1.4-0.9-2.5-1.9-3.3-2.9s-1.4-2.2-1.8-3.4c-0.4-1.2-0.6-2.6-0.6-4.1c0-3.7,1.2-6.7,3.7-9.2c2.4-2.4,5.5-3.6,9.3-3.6
			c1.5,0,3,0.1,4.3,0.2C227.7,201.5,229,201.7,230.2,202z"/>
		<path d="M236.4,225.9v-1.5c0.3-0.1,0.7-0.1,1.1-0.2c0.8-0.1,1.5-0.3,2-0.5c0.2-0.3,0.3-0.6,0.3-0.8c0.1-0.7,0.1-1.7,0.1-3.1v-7.9
			c0-0.8,0-3-0.1-6.4c0-0.9-0.1-1.5-0.2-1.7c0-0.1-0.1-0.1-0.2-0.2c-0.2-0.1-0.6-0.2-1.1-0.2c-0.2,0-0.8-0.1-1.8-0.2l-0.1-1.3
			l4.2-0.1l6.1-0.2h0.7c0.1,0,0.3,0,0.4,0c0.1,0,0.5,0,1,0h1.2c0.9,0,2,0.1,3.1,0.4c0.4,0.1,0.9,0.3,1.5,0.6s1.2,0.7,1.6,1.2
			c0.5,0.5,0.8,1,1,1.6s0.3,1.3,0.3,1.9c0,0.8-0.2,1.4-0.5,2s-0.8,1.2-1.5,1.7c-0.3,0.2-1.1,0.7-2.4,1.2c1.9,0.4,3.3,1.2,4.3,2.3
			s1.5,2.4,1.5,3.7c0,0.8-0.2,1.7-0.5,2.6c-0.2,0.7-0.6,1.3-1.1,1.9c-0.7,0.8-1.5,1.3-2.2,1.7c-0.8,0.4-1.9,0.7-3.3,0.9
			c-0.7,0.1-1.7,0.2-3.2,0.2l-3.2-0.1c-1.3,0-2.9,0.1-4.8,0.2C240.2,225.7,238.8,225.8,236.4,225.9z M245,211.7
			c0.5,0.1,1.1,0.1,1.7,0.1c1.9,0,3.3-0.3,4.2-1c1-0.7,1.4-1.9,1.4-3.6c0-1.2-0.5-2.2-1.4-3s-2.3-1.2-4.1-1.2
			c-0.5,0-1.2,0.1-2.1,0.2c0,0.3,0,0.7,0,1.2c0.1,1.1,0.1,2.5,0.1,4.4v1.6C245,210.8,245,211.2,245,211.7z M245.3,223.6
			c0.8,0.3,1.6,0.5,2.3,0.5c1.4,0,2.6-0.2,3.5-0.6c0.9-0.4,1.5-1,2-1.8c0.4-0.8,0.6-1.7,0.6-2.9s-0.2-2.1-0.7-2.9
			c-0.6-1-1.4-1.7-2.3-2c-0.9-0.3-2.2-0.5-4-0.5c-0.8,0-1.3,0.1-1.6,0.2v2.3v2.8l0.1,4.3C245.1,223.1,245.2,223.3,245.3,223.6z"/>
		<path d="M263.5,201.6c0.7,0,1.3,0.1,1.8,0.2c1,0.1,2.1,0.2,3.4,0.2c0.4,0,1.6,0,3.4-0.1c2.8-0.1,5.3-0.2,7.5-0.2h3.4
			c0.8,0,1.9,0.1,3.3,0.3c0.2,0.2,0.3,0.6,0.3,1v3.8v0.8c0,0.1,0,0.2,0,0.3h-0.8c-0.1,0-0.3,0-0.6,0c-0.1-0.2-0.3-0.6-0.4-1.1
			l-0.7-1.3c-0.3-0.6-0.7-1.1-1.2-1.7c-0.3-0.1-0.7-0.1-1.2-0.1c-0.1,0-0.5,0-1.1-0.1c-1.2-0.1-2.4-0.1-3.7-0.1
			c-1.5,0-2.9,0-4.1,0.1c0,0.3-0.1,1.5-0.1,3.7v3.1v2.3c0.3,0,0.6,0.1,0.8,0.1c2.2,0,3.8,0,4.8-0.1c0.9-0.1,1.5-0.2,1.8-0.4
			c0.2-0.2,0.4-0.4,0.6-0.8c0.1-0.3,0.3-1.2,0.7-2.7h0.2h1.1c0,1.1,0.1,1.9,0.1,2.5c0,1.3,0,2.1,0,2.5s0,0.7,0,0.9
			c0,0.3,0,0.9,0.1,1.6c0,0.7,0.1,1.3,0.1,1.6v0.4h-1.3c-0.1-0.2-0.1-0.6-0.3-1.2c-0.2-1.2-0.5-1.9-0.7-2.2
			c-0.1-0.2-0.4-0.4-0.7-0.5c-0.2-0.1-1.2-0.1-2.8-0.1c-1.9,0-3.3,0-4.2,0.1c0,0.3,0,0.5,0,0.6c0,1.5,0,2.7,0.1,3.7v4
			c0,0.5,0.2,0.8,0.5,1c0.5,0.3,2.1,0.4,4.7,0.4c1.7,0,3.2-0.1,4.4-0.4c0.8-0.2,1.6-0.6,2.2-1.2c0.8-0.8,1.5-2,2.1-3.5
			c0.4,0,0.7-0.1,0.9-0.1c0.1,0,0.3,0,0.6,0c0,0.3-0.1,0.6-0.1,0.8l-0.1,0.6l-0.7,3.5l-0.3,2.1c-0.8,0-1.4,0.1-1.9,0.1
			c-0.7,0-2.6-0.1-5.6-0.2c-2.1-0.1-4.7-0.1-7.7-0.1c-1.5,0-3.3,0.1-5.5,0.2h-0.8l-2.3,0.1v-1.3c0.2-0.1,0.7-0.1,1.4-0.2
			c1.3-0.1,2.2-0.3,2.7-0.6c0.1-0.4,0.2-0.8,0.2-1.4c0-0.2,0-0.6,0-1.1v-0.6l-0.1-7v-2.1l-0.1-3v-2.1l-0.2-2.3c0-0.1,0-0.2,0-0.4
			c-0.1-0.1-0.3-0.2-0.6-0.3c-0.1,0-0.3-0.1-0.6-0.1c-0.7-0.1-1.4-0.2-2-0.3c-0.2,0-0.5,0-0.8-0.1L263.5,201.6z"/>
		<path d="M293.6,200.6h1.2c0.1,0.1,0.1,0.2,0.2,0.3c0.3,0.6,0.6,1,0.8,1.2c0.2,0,1,0.1,2.5,0.1c1,0,1.8,0,2.5,0h0.4h2.3h4.2h5.7
			l1.1-0.2c0.2-0.1,0.3-0.4,0.5-0.9c0-0.1,0.1-0.3,0.2-0.5h0.8c0.1,0,0.3,0,0.6,0c0,0.9,0,2.1,0,3.9v1.7v0.9c0,0.3,0,0.6-0.1,0.8
			c-0.5,0.2-1,0.3-1.3,0.3c-0.3-0.5-0.7-1.2-1.1-2.1c-0.4-0.9-0.6-1.4-0.7-1.5c-0.1-0.2-0.3-0.3-0.5-0.3c-0.3-0.1-1.6-0.1-4-0.1
			c-0.3,0-0.8,0-1.3,0.1c-0.1,0.5-0.1,0.9-0.1,1.2v2.5v5.5l0.1,5.9v2.4c0,0.9,0.1,1.5,0.2,1.9c0.2,0.1,0.6,0.2,1.1,0.2
			c0.1,0,0.6,0.1,1.4,0.3c0.4,0.1,0.7,0.2,1,0.3c0.1,0.4,0.1,0.7,0.1,0.8s0,0.3-0.1,0.5c-0.3,0-0.5,0-0.7,0c-1.3,0-2.4,0-3.3-0.1
			s-2.5-0.1-4.9-0.1c-0.4,0-1.5,0.1-3.3,0.2c-0.7,0-1.2,0.1-1.4,0.1c0-0.2,0-0.3,0-0.4v-0.4V225c0.3-0.4,0.8-0.6,1.5-0.8
			c1.3-0.3,2.2-0.6,2.7-0.8c0.1-0.2,0.2-0.5,0.2-0.9c0.1-1.5,0.1-3.9,0.1-7.1l-0.1-7c0-1.9,0-3.1-0.1-3.5c0-0.1-0.1-0.2-0.1-0.3
			c-0.1-0.1-0.1-0.1-0.3-0.1c-0.4,0-1.6-0.1-3.8-0.1c-1.2,0-1.9,0.1-2.3,0.3c-0.5,0.3-1.3,1.2-2.4,2.5c-0.3,0.4-0.5,0.6-0.7,0.6
			c-0.6-0.3-0.9-0.5-1.1-0.7c0.4-0.8,0.9-2.4,1.6-4.8C293.4,201.3,293.5,200.8,293.6,200.6z"/>
		<path d="M320.4,210.7c0.5,0,0.8,0,0.9,0c0.3,0,0.6,0,0.9,0l2.2,2.5l4.4,4.8c-0.4,0.5-1.8,2-4.2,4.6c-0.8,0.8-1.6,1.7-2.4,2.7
			l-1.8-0.1l3.4-7.2C321.9,214.5,320.8,212,320.4,210.7z M331.7,218.1c-0.6-0.8-1.6-2.6-3.1-5.2c-0.6-1.2-1-1.9-1.1-2.1h0.2
			c0.6,0,1.2,0,1.8,0c0.1,0.1,1.2,1.3,3.5,3.5c1.6,1.6,2.8,2.9,3.6,3.8l-4.4,4.6c-0.3,0.3-1.2,1.2-2.6,2.6l-2-0.1
			c0.4-0.9,0.7-1.4,0.9-1.7l2-3.3L331.7,218.1z"/>
	</g>
</g>
</svg>
