<?xml version="1.0" encoding="utf-8"?>
<!-- Generator: Adobe Illustrator 22.0.0, SVG Export Plug-In . SVG Version: 6.00 Build 0)  -->
<svg version="1.1" id="okt" xmlns="http://www.w3.org/2000/svg" xmlns:xlink="http://www.w3.org/1999/xlink" x="0px" y="0px"
	 viewBox="0 0 400 400" style="enable-background:new 0 0 400 400;" xml:space="preserve">
<style type="text/css">
	.st0{fill:#FFFFFF;}
</style>
<g>
	<g>
		<path class="st0" d="M164.4,222.9c-1.2-0.7-2.2-1.6-2.8-2.8c-0.7-1.2-1-2.5-1-3.9c0-1.4,0.3-2.7,1-3.9c0.7-1.2,1.6-2.2,2.8-2.8
			c1.2-0.7,2.5-1,4-1s2.8,0.3,4,1c1.2,0.7,2.2,1.6,2.8,2.8c0.7,1.2,1,2.5,1,3.9c0,1.4-0.3,2.7-1,3.9c-0.7,1.2-1.6,2.2-2.8,2.8
			c-1.2,0.7-2.5,1-4,1S165.6,223.6,164.4,222.9z M171.5,221.5c0.9-0.6,1.7-1.3,2.2-2.3c0.6-1,0.8-2,0.8-3.2c0-1.2-0.3-2.2-0.8-3.2
			c-0.6-1-1.3-1.7-2.2-2.3c-0.9-0.6-2-0.8-3.1-0.8c-1.1,0-2.2,0.3-3.1,0.8c-1,0.6-1.7,1.3-2.3,2.3c-0.6,1-0.8,2-0.8,3.2
			c0,1.2,0.3,2.2,0.8,3.2c0.6,1,1.3,1.7,2.3,2.3c1,0.6,2,0.8,3.1,0.8C169.5,222.4,170.6,222.1,171.5,221.5z"/>
		<path class="st0" d="M181.4,223.7h-1.6v-15.2h1.6v8.5l7.8-8.5h2.1l-5.8,6.3l6.3,8.9h-2l-5.4-7.7l-3,3.3V223.7z"/>
		<path class="st0" d="M198.8,223.7h-1.6V210h-4.8v-1.5h11.3v1.5h-4.8V223.7z"/>
		<path class="st0" d="M216.4,208.5v15.2h-1.6v-6h-4.1l-3.7,6h-1.8l3.8-6.2c-1-0.3-1.8-0.8-2.4-1.6c-0.6-0.8-0.9-1.7-0.9-2.8
			c0-0.9,0.2-1.6,0.6-2.3c0.4-0.7,1-1.2,1.7-1.7c0.7-0.4,1.6-0.6,2.5-0.6H216.4z M214.8,216.1V210h-4.4c-0.9,0-1.7,0.3-2.3,0.9
			c-0.6,0.6-0.9,1.3-0.9,2.2c0,0.9,0.3,1.6,0.9,2.2c0.6,0.6,1.4,0.9,2.3,0.9H214.8z"/>
		<path class="st0" d="M221,223.7v-15.2h9.5v1.5h-7.9v4.6h4.2c0.9,0,1.8,0.2,2.5,0.6c0.7,0.4,1.3,0.9,1.7,1.6
			c0.4,0.7,0.6,1.5,0.6,2.3c0,0.8-0.2,1.6-0.6,2.3c-0.4,0.7-1,1.2-1.7,1.6c-0.7,0.4-1.6,0.6-2.5,0.6H221z M226.9,222.2
			c1,0,1.7-0.3,2.3-0.8c0.6-0.6,0.9-1.3,0.9-2.2c0-0.9-0.3-1.6-0.9-2.2c-0.6-0.6-1.4-0.8-2.3-0.8h-4.2v6H226.9z"/>
		<path class="st0" d="M235.2,223.7v-15.2h5.7c0.9,0,1.8,0.2,2.6,0.6c0.8,0.4,1.4,1,1.8,1.7c0.4,0.7,0.7,1.5,0.7,2.4
			c0,0.9-0.2,1.7-0.7,2.4c-0.4,0.7-1,1.3-1.8,1.7c-0.8,0.4-1.6,0.6-2.6,0.6h-4.1v5.7H235.2z M240.9,216.5c1,0,1.8-0.3,2.4-0.9
			c0.6-0.6,0.9-1.4,0.9-2.3c0-0.6-0.1-1.2-0.4-1.6c-0.3-0.5-0.7-0.9-1.2-1.2c-0.5-0.3-1.1-0.4-1.7-0.4h-4.1v6.4H240.9z"/>
		<path class="st0" d="M249.1,223.7v-15.2h1.6v5.7h4.1c0.9,0,1.8,0.2,2.6,0.6c0.8,0.4,1.4,1,1.8,1.7c0.4,0.7,0.7,1.5,0.7,2.4
			c0,0.9-0.2,1.7-0.7,2.4c-0.4,0.7-1,1.3-1.8,1.7c-0.8,0.4-1.6,0.6-2.6,0.6H249.1z M254.8,222.2c0.7,0,1.2-0.1,1.7-0.4
			c0.5-0.3,0.9-0.7,1.2-1.2c0.3-0.5,0.4-1,0.4-1.6c0-0.9-0.3-1.7-0.9-2.3c-0.6-0.6-1.4-0.9-2.4-0.9h-4.1v6.5H254.8z"/>
		<path class="st0" d="M266,222.9c-1.2-0.7-2.2-1.6-2.8-2.8c-0.7-1.2-1-2.5-1-3.9c0-1.4,0.3-2.7,1-3.9c0.7-1.2,1.6-2.2,2.8-2.8
			c1.2-0.7,2.5-1,4-1c1.4,0,2.6,0.3,3.7,0.9c1.1,0.6,1.9,1.3,2.5,2.1l-1.2,0.9c-0.5-0.7-1.2-1.2-2-1.7c-0.8-0.5-1.9-0.7-3-0.7
			c-1.1,0-2.2,0.3-3.1,0.8c-1,0.6-1.7,1.3-2.3,2.3c-0.6,1-0.8,2-0.8,3.2c0,1.2,0.3,2.2,0.8,3.2c0.6,1,1.3,1.7,2.3,2.3
			c1,0.6,2,0.8,3.1,0.8c1.2,0,2.2-0.2,3-0.7c0.9-0.5,1.6-1.1,2.1-1.8l1.2,0.9c-0.6,0.9-1.5,1.6-2.6,2.2c-1.1,0.6-2.3,0.9-3.7,0.9
			C268.5,223.9,267.2,223.6,266,222.9z"/>
		<path class="st0" d="M281,223.7h-1.6v-15.2h1.6v8.5l7.8-8.5h2.1l-5.8,6.3l6.3,8.9h-2L284,216l-3,3.3V223.7z"/>
		<path class="st0" d="M294,223.7h-1.7l6.2-15.2h1.8l6.2,15.2h-1.8l-1.7-4.2h-7.3L294,223.7z M299.3,210.5l-3,7.5h6.1L299.3,210.5
			L299.3,210.5z"/>
		<path class="st0" d="M319.2,208.5v15.2h-1.6v-6h-4.1l-3.7,6h-1.8l3.8-6.2c-1-0.3-1.8-0.8-2.4-1.6c-0.6-0.8-0.9-1.7-0.9-2.8
			c0-0.9,0.2-1.6,0.6-2.3c0.4-0.7,1-1.2,1.7-1.7c0.7-0.4,1.6-0.6,2.5-0.6H319.2z M317.6,216.1V210h-4.4c-0.9,0-1.7,0.3-2.3,0.9
			c-0.6,0.6-0.9,1.3-0.9,2.2c0,0.9,0.3,1.6,0.9,2.2c0.6,0.6,1.4,0.9,2.3,0.9H317.6z"/>
	</g>
	<g>
		<path class="st0" d="M83.6,219.4c-0.6-0.3-1-0.8-1.4-1.3c-0.3-0.6-0.5-1.2-0.5-1.8c0-0.7,0.2-1.3,0.5-1.8c0.3-0.6,0.8-1,1.4-1.3
			c0.6-0.3,1.2-0.5,1.9-0.5s1.3,0.2,1.9,0.5c0.6,0.3,1,0.8,1.4,1.3c0.3,0.6,0.5,1.2,0.5,1.8c0,0.7-0.2,1.3-0.5,1.8
			c-0.3,0.6-0.8,1-1.4,1.3c-0.6,0.3-1.2,0.5-1.9,0.5S84.2,219.7,83.6,219.4z M86.8,218.5c0.4-0.2,0.7-0.6,1-1
			c0.2-0.4,0.4-0.8,0.4-1.3c0-0.5-0.1-0.9-0.4-1.3c-0.2-0.4-0.6-0.7-1-1c-0.4-0.2-0.8-0.4-1.3-0.4s-0.9,0.1-1.3,0.4
			c-0.4,0.2-0.7,0.6-1,1c-0.2,0.4-0.4,0.8-0.4,1.3c0,0.5,0.1,0.9,0.4,1.3c0.2,0.4,0.6,0.7,1,1s0.8,0.4,1.3,0.4
			S86.4,218.7,86.8,218.5z"/>
		<path class="st0" d="M100.8,219.8h-1.1v-6.1h-2.1v-1h5.4v1h-2.1V219.8z"/>
		<path class="st0" d="M116.9,219.8h-5.1v-7.1h5v1h-3.9v1.9h3.1v1h-3.1v2.2h4V219.8z"/>
		<path class="st0" d="M127,212.7h4.7v7.1h-1.1v-6.1h-2.5l0,1.1c0,1.3-0.1,2.4-0.3,3.1c-0.2,0.7-0.4,1.3-0.7,1.5
			c-0.3,0.3-0.7,0.4-1.2,0.4c-0.1,0-0.3,0-0.4,0c-0.1,0-0.2-0.1-0.3-0.1v-1c0.2,0.1,0.4,0.1,0.6,0.1c0.2,0,0.5-0.1,0.6-0.3
			c0.2-0.2,0.3-0.6,0.4-1.2c0.1-0.6,0.2-1.4,0.2-2.5L127,212.7z"/>
		<path class="st0" d="M141.5,219.8v-7.1h1.1v2.5h1.7c0.4,0,0.9,0.1,1.2,0.3s0.7,0.5,0.9,0.8c0.2,0.3,0.3,0.7,0.3,1.2
			c0,0.4-0.1,0.8-0.3,1.2c-0.2,0.3-0.5,0.6-0.9,0.8s-0.8,0.3-1.2,0.3H141.5z M144.3,218.8c0.4,0,0.7-0.1,0.9-0.4
			c0.2-0.2,0.4-0.5,0.4-0.9c0-0.4-0.1-0.7-0.4-0.9c-0.2-0.2-0.5-0.4-0.9-0.4h-1.7v2.5H144.3z"/>
	</g>
	<g>
		<path class="st0" d="M86.4,200c-2-1.1-3.5-2.7-4.7-4.7c-1.1-2-1.7-4.1-1.7-6.4c0-2.3,0.6-4.5,1.7-6.4c1.1-2,2.7-3.5,4.7-4.7
			c2-1.1,4.1-1.7,6.5-1.7c2.3,0,4.3,0.5,6.1,1.5c1.8,1,3.2,2.2,4.1,3.5l-1.9,1.5c-0.8-1.1-1.9-2-3.3-2.8c-1.4-0.8-3-1.2-4.9-1.2
			c-1.9,0-3.6,0.5-5.1,1.4c-1.6,0.9-2.8,2.1-3.7,3.7c-0.9,1.6-1.4,3.3-1.4,5.2c0,1.9,0.5,3.6,1.4,5.2c0.9,1.6,2.1,2.8,3.7,3.7
			c1.6,0.9,3.3,1.4,5.1,1.4c1.9,0,3.6-0.4,5-1.2c1.4-0.8,2.6-1.8,3.5-2.9l1.9,1.5c-1,1.4-2.4,2.6-4.2,3.6c-1.8,1-3.8,1.5-6.1,1.5
			C90.5,201.7,88.3,201.1,86.4,200z"/>
		<path class="st0" d="M110.9,201.3h-2.7v-24.9h2.7V201.3z"/>
		<path class="st0" d="M126.1,201.3h-2.7V179h-7.9v-2.5H134v2.5h-7.9V201.3z"/>
		<path class="st0" d="M147.3,201.3h-2.7v-8.8l-9.3-16.1h3.1l7.6,13.3h0.1l7.6-13.3h3l-9.3,16.1V201.3z"/>
		<path class="st0" d="M168.6,201.3H166V179h-7.9v-2.5h18.4v2.5h-7.9V201.3z"/>
		<path class="st0" d="M198.5,201.3h-17.4v-24.9h17.1v2.5h-14.4v8.2h11.6v2.5h-11.6v9.2h14.8V201.3z"/>
		<path class="st0" d="M219.7,201.3h-15.5v-24.9h2.7v22.4h12.8V201.3z"/>
	</g>
	<g>
		<g>
			<path class="st0" d="M251.1,196.2c-0.1,0-0.2,0-0.3-0.1l-4-2.1l-4,2.1c-0.2,0.1-0.5,0.1-0.8-0.1c-0.2-0.2-0.3-0.4-0.3-0.7
				l0.8-4.4l-3.2-3.1c-0.2-0.2-0.3-0.5-0.2-0.7c0.1-0.3,0.3-0.4,0.6-0.5l4.5-0.6l2-4c0.1-0.2,0.4-0.4,0.6-0.4c0.3,0,0.5,0.2,0.6,0.4
				l2,4l4.5,0.6c0.3,0,0.5,0.2,0.6,0.5c0.1,0.3,0,0.5-0.2,0.7l-3.2,3.1l0.8,4.4c0,0.3-0.1,0.5-0.3,0.7
				C251.4,196.2,251.3,196.2,251.1,196.2z M241.3,187.8l2.5,2.4c0.2,0.2,0.2,0.4,0.2,0.6l-0.6,3.4l3-1.6c0.2-0.1,0.5-0.1,0.7,0
				l3,1.6l-0.6-3.4c0-0.2,0-0.5,0.2-0.6l2.5-2.4l-3.4-0.5c-0.2,0-0.4-0.2-0.5-0.4l-1.5-3.1l-1.5,3.1c-0.1,0.2-0.3,0.4-0.5,0.4
				L241.3,187.8z"/>
		</g>
		<g>
			<path class="st0" d="M264.3,196.2c-0.1,0-0.3,0-0.4-0.1c-0.2-0.2-0.3-0.4-0.3-0.7l0.8-4.4l-3.2-3.1c-0.2-0.2-0.3-0.5-0.2-0.7
				c0.1-0.3,0.3-0.4,0.6-0.5l4.5-0.6l2-4c0.1-0.2,0.4-0.4,0.6-0.4c0.3,0,0.5,0.2,0.6,0.4l2,4l4.5,0.6c0.3,0,0.5,0.2,0.6,0.5
				c0.1,0.3,0,0.5-0.2,0.7l-3.2,3.1l0.8,4.4c0,0.3-0.1,0.5-0.3,0.7c-0.2,0.2-0.5,0.2-0.8,0.1l-4-2.1l-4,2.1
				C264.5,196.2,264.4,196.2,264.3,196.2z M268.6,192.5c0.1,0,0.2,0,0.3,0.1l3,1.6l-0.6-3.4c0-0.2,0-0.5,0.2-0.6l2.5-2.4l-3.4-0.5
				c-0.2,0-0.4-0.2-0.5-0.4l-1.5-3.1l-1.5,3.1c-0.1,0.2-0.3,0.4-0.5,0.4l-3.4,0.5l2.5,2.4c0.2,0.2,0.2,0.4,0.2,0.6l-0.6,3.4l3-1.6
				C268.4,192.6,268.5,192.5,268.6,192.5z"/>
		</g>
		<g>
			<path class="st0" d="M294.8,196.2c-0.1,0-0.2,0-0.3-0.1l-4-2.1l-4,2.1c-0.2,0.1-0.5,0.1-0.8-0.1c-0.2-0.2-0.3-0.4-0.3-0.7
				l0.8-4.4l-3.2-3.1c-0.2-0.2-0.3-0.5-0.2-0.7c0.1-0.3,0.3-0.4,0.6-0.5l4.5-0.6l2-4c0.1-0.2,0.4-0.4,0.6-0.4c0.3,0,0.5,0.2,0.6,0.4
				l2,4l4.5,0.6c0.3,0,0.5,0.2,0.6,0.5c0.1,0.3,0,0.5-0.2,0.7l-3.2,3.1l0.8,4.4c0,0.3-0.1,0.5-0.3,0.7
				C295.1,196.2,294.9,196.2,294.8,196.2z M290.5,192.5c0.1,0,0.2,0,0.3,0.1l3,1.6l-0.6-3.4c0-0.2,0-0.5,0.2-0.6l2.5-2.4l-3.4-0.5
				c-0.2,0-0.4-0.2-0.5-0.4l-1.5-3.1l-1.5,3.1c-0.1,0.2-0.3,0.4-0.5,0.4l-3.4,0.5l2.5,2.4c0.2,0.2,0.2,0.4,0.2,0.6l-0.6,3.4l3-1.6
				C290.2,192.6,290.4,192.5,290.5,192.5z"/>
		</g>
		<g>
			<path class="st0" d="M316.6,196.2c-0.1,0-0.2,0-0.3-0.1l-4-2.1l-4,2.1c-0.2,0.1-0.5,0.1-0.8-0.1c-0.2-0.2-0.3-0.4-0.3-0.7
				l0.8-4.4l-3.2-3.1c-0.2-0.2-0.3-0.5-0.2-0.7c0.1-0.3,0.3-0.4,0.6-0.5l4.5-0.6l2-4c0.1-0.2,0.4-0.4,0.6-0.4c0.3,0,0.5,0.2,0.6,0.4
				l2,4l4.5,0.6c0.3,0,0.5,0.2,0.6,0.5c0.1,0.3,0,0.5-0.2,0.7l-3.2,3.1l0.8,4.4c0,0.3-0.1,0.5-0.3,0.7
				C316.9,196.2,316.8,196.2,316.6,196.2z M306.9,187.8l2.5,2.4c0.2,0.2,0.2,0.4,0.2,0.6l-0.6,3.4l3-1.6c0.2-0.1,0.5-0.1,0.7,0
				l3,1.6l-0.6-3.4c0-0.2,0-0.5,0.2-0.6l2.5-2.4l-3.4-0.5c-0.2,0-0.4-0.2-0.5-0.4l-1.5-3.1l-1.5,3.1c-0.1,0.2-0.3,0.4-0.5,0.4
				L306.9,187.8z"/>
		</g>
	</g>
</g>
</svg>
