<?xml version="1.0" encoding="utf-8"?>
<!-- Generator: Adobe Illustrator 22.0.0, SVG Export Plug-In . SVG Version: 6.00 Build 0)  -->
<svg version="1.1" id="Layer_1" xmlns="http://www.w3.org/2000/svg" xmlns:xlink="http://www.w3.org/1999/xlink" x="0px" y="0px"
	 viewBox="0 0 400 400" style="enable-background:new 0 0 400 400;" xml:space="preserve">
<g id="magna">
	<g>
		<path d="M140.4,180.9H153l4.7,17.8h0.3c0.2-1.5,0.4-3.1,0.9-4.5l3.8-13.3h12.5l5.6,33.9h-11.9l-1.7-18.6H167
			c-0.2,1.1-0.4,2.3-0.8,3.4l-4.9,15.2h-7.2l-4.4-14.3c-0.4-1.4-0.7-2.8-0.8-4.2h-0.4c-0.1,1.3-0.2,2.7-0.3,4.1l-1.4,14.5h-11.9
			L140.4,180.9z"/>
		<path d="M199,202.6l-1.4-6c-0.4-1.4-0.6-2.9-0.8-4.4h-0.4l-2.2,10.3C194.1,202.6,199,202.6,199,202.6z M190.9,214.8h-13l11.8-33.9
			h13.6l12.1,33.9h-13l-1.1-4.2H192L190.9,214.8z"/>
		<path d="M248.8,194.9c-0.1,5.5-0.1,10.2-4.1,14.5c-3.6,3.9-9.1,6-14.4,6c-10.3,0-18.7-6.4-18.7-17.3c0-11.1,8.1-17.7,18.8-17.7
			c5.9,0,14,2.9,16.6,8.7l-11.5,4.2c-0.9-1.7-2.7-2.6-4.7-2.6c-4.4,0-6.8,3.8-6.8,7.9c0,3.7,2.3,7.2,6.3,7.2c1.9,0,4.4-0.9,5-3h-5.6
			v-8h19.1L248.8,194.9L248.8,194.9z"/>
		<path d="M249.8,180.9h11.8l11.1,18.8h0.4c-0.5-2.8-1-5.8-1-8.6v-10.2h11.8v33.9H272L261.1,197h-0.4c0.4,2.3,0.8,4.5,0.8,6.8v11
			h-11.8L249.8,180.9L249.8,180.9z"/>
		<path d="M303.7,202.6l-1.4-6c-0.4-1.4-0.6-2.9-0.8-4.4H301l-2.2,10.3C298.7,202.6,303.7,202.6,303.7,202.6z M295.5,214.8h-13
			l11.8-33.9h13.6l12.1,33.9h-13l-1.1-4.2h-9.3L295.5,214.8z"/>
		<polygon points="116.1,214.9 128.9,214.9 116.6,181 107.2,181 105.5,185.7 		"/>
		<path d="M107.4,166.6c-3.4,0-6.2,2.8-6.2,6.2s2.8,6.2,6.2,6.2s6.2-2.8,6.2-6.2C113.6,169.4,110.9,166.6,107.4,166.6"/>
		<polygon points="80,214.9 99,214.9 89.5,188.7 		"/>
		<polygon points="101.2,214.9 114,214.9 101.7,181 92.3,181 90.6,185.7 		"/>
	</g>
</g>
</svg>
