<?xml version="1.0" encoding="utf-8"?>
<!-- Generator: Adobe Illustrator 22.0.0, SVG Export Plug-In . SVG Version: 6.00 Build 0)  -->
<svg version="1.1" id="mehanobr" xmlns="http://www.w3.org/2000/svg" xmlns:xlink="http://www.w3.org/1999/xlink" x="0px" y="0px"
	 viewBox="0 0 400 400" style="enable-background:new 0 0 400 400;" xml:space="preserve">
<g>
	<g>
		<path d="M111,202.5v-15.2l-22.5-13.2L66,187.3v15.2h-6v9.9h6.3l22.2,13.4l22.2-13.4h6.3v-9.9H111z M113.8,210.5h-12.6v-14.9h-1.6
			c-2.5,2-4.3,5-4.7,8.2l-1,6.7H82.7l-0.9-7.1c-0.4-3-1.9-5.8-4.2-7.8h-1.7v14.9H63.3v-5.8h6.8v-14.9h9.5l0.8,0.6
			c4,2.9,6.6,7.4,7.2,12.3l0.2,2h0.9L89,203c0.8-5.1,3.6-9.7,7.9-12.6l0.7-0.5h9.3v14.9h6.8L113.8,210.5L113.8,210.5z"/>
		<g>
			<polygon points="110.9,216.2 88.5,229.7 66.2,216.2 61.1,216.2 88.5,232.7 116,216.2 			"/>
			<polygon points="62.7,185.5 88.5,170.3 114.4,185.5 114.4,199.2 117,199.2 117,184 88.5,167.3 60.1,184 60.1,199.2 62.7,199.2 
							"/>
		</g>
	</g>
	<g>
		<path d="M138.9,210.9c-0.4,0-0.6-0.2-0.6-0.6v-19.5c0-0.4,0.2-0.6,0.6-0.6h4.6c0.2,0,0.3,0,0.5,0.1c0.1,0.1,0.2,0.2,0.3,0.4l5.6,9
			h0.2l5.6-9c0.1-0.2,0.2-0.3,0.3-0.4c0.1-0.1,0.3-0.1,0.5-0.1h4.6c0.4,0,0.6,0.2,0.6,0.6v19.5c0,0.4-0.2,0.6-0.6,0.6h-3.3
			c-0.4,0-0.6-0.2-0.6-0.6v-13.8H157l-4.9,7.6c-0.1,0.2-0.3,0.4-0.4,0.4c-0.1,0.1-0.3,0.1-0.5,0.1h-2.5c-0.2,0-0.4,0-0.5-0.1
			s-0.2-0.2-0.4-0.4l-4.8-7.6h-0.2v13.8c0,0.4-0.2,0.6-0.6,0.6H138.9z"/>
		<path d="M181.1,207.1c0.4,0,0.6,0.2,0.6,0.6v2.7c0,0.4-0.2,0.6-0.6,0.6h-14.6c-0.4,0-0.6-0.2-0.6-0.6v-19.5c0-0.4,0.2-0.6,0.6-0.6
			h14.3c0.4,0,0.6,0.2,0.6,0.6v2.7c0,0.4-0.2,0.6-0.6,0.6h-10.4v4.6h9.5c0.4,0,0.6,0.2,0.6,0.6v2.5c0,0.4-0.2,0.6-0.6,0.6h-9.5v4.7
			h10.7V207.1z"/>
		<path d="M182.9,210.9c-0.2,0-0.4,0-0.5-0.1s-0.2-0.2-0.2-0.4c0-0.1,0-0.3,0.1-0.4l6.2-9.7l-5.9-9.2c-0.1-0.2-0.2-0.3-0.2-0.5
			c0-0.1,0.1-0.2,0.2-0.3c0.1-0.1,0.3-0.1,0.5-0.1h3.5c0.2,0,0.4,0,0.5,0.1s0.3,0.2,0.4,0.4l2.3,3.7l1.6,2.5h0.2l1.6-2.5l2.3-3.7
			c0.1-0.2,0.2-0.3,0.4-0.4c0.1-0.1,0.3-0.1,0.5-0.1h3.5c0.2,0,0.4,0,0.5,0.1s0.2,0.2,0.2,0.3s0,0.3-0.1,0.4l-5.9,9.2l6.2,9.7
			c0.1,0.1,0.1,0.3,0.1,0.4c0,0.3-0.2,0.5-0.6,0.5h-3.5c-0.2,0-0.4,0-0.5-0.1s-0.3-0.2-0.4-0.4l-2.7-4.3l-1.5-2.4h-0.2L190,206
			l-2.7,4.3c-0.1,0.2-0.2,0.3-0.4,0.4c-0.1,0.1-0.3,0.1-0.5,0.1h-3.5V210.9z"/>
		<path d="M220.5,210.3c0,0.1,0,0.1,0,0.3c0,0.3-0.1,0.4-0.4,0.4h-3.3c-0.4,0-0.6-0.1-0.7-0.4l-0.9-3.7h-9l-0.9,3.7
			c-0.1,0.3-0.3,0.4-0.7,0.4h-3.3c-0.3,0-0.4-0.1-0.4-0.4c0-0.1,0-0.2,0-0.3l4.9-19.6c0.1-0.3,0.3-0.4,0.7-0.4h8.3
			c0.4,0,0.6,0.1,0.7,0.4L220.5,210.3z M212.2,194.1h-2.9l-1.6,6.5l-0.6,2.4h7.3l-0.6-2.4L212.2,194.1z"/>
		<path d="M240.9,190.2c0.4,0,0.6,0.2,0.6,0.6v19.5c0,0.4-0.2,0.6-0.6,0.6h-3.4c-0.4,0-0.6-0.2-0.6-0.6v-7.8h-9.1v7.8
			c0,0.4-0.2,0.6-0.6,0.6h-3.4c-0.4,0-0.6-0.2-0.6-0.6v-19.5c0-0.4,0.2-0.6,0.6-0.6h3.4c0.4,0,0.6,0.2,0.6,0.6v7.5h9.1v-7.5
			c0-0.4,0.2-0.6,0.6-0.6H240.9z"/>
		<path d="M250.9,211.1c-1.8,0-3.1-0.4-4-1.3c-0.9-0.9-1.3-2.2-1.3-4v-10.5c0-1.8,0.4-3.1,1.3-3.9c0.9-0.9,2.2-1.3,4-1.3h8.7
			c1.8,0,3.1,0.4,3.9,1.3c0.9,0.9,1.3,2.2,1.3,3.9v10.5c0,1.8-0.4,3.1-1.3,4s-2.2,1.3-3.9,1.3H250.9z M258.3,207.1
			c0.7,0,1.2-0.2,1.5-0.5s0.5-0.8,0.5-1.5V196c0-0.7-0.2-1.2-0.5-1.5s-0.8-0.5-1.5-0.5h-6.2c-0.7,0-1.2,0.2-1.5,0.5
			s-0.5,0.8-0.5,1.5v9.2c0,0.7,0.2,1.2,0.5,1.5s0.8,0.5,1.5,0.5L258.3,207.1L258.3,207.1z"/>
		<path d="M281.6,198.1c1.7,0,3,0.4,3.8,1.2s1.2,2,1.2,3.8v2.9c0,1.7-0.4,3-1.2,3.8c-0.8,0.8-2,1.2-3.8,1.2h-12.1
			c-0.4,0-0.6-0.2-0.6-0.6v-19.5c0-0.4,0.2-0.6,0.6-0.6h14.8c0.4,0,0.6,0.2,0.6,0.6v2.7c0,0.4-0.2,0.6-0.6,0.6h-10.8v4.1h8.1V198.1z
			 M282,203.6c0-0.7-0.1-1.1-0.4-1.4c-0.3-0.3-0.7-0.4-1.4-0.4h-6.7v5.4h6.7c0.7,0,1.1-0.1,1.4-0.4c0.3-0.3,0.4-0.7,0.4-1.4V203.6z"
			/>
		<path d="M302.6,190.2c1.7,0,3,0.4,3.8,1.2s1.2,2,1.2,3.8v2.4c0,1.7-0.4,3-1.2,3.8c-0.8,0.8-2,1.2-3.8,1.2h-8.1v7.8
			c0,0.4-0.2,0.6-0.6,0.6h-3.4c-0.4,0-0.6-0.2-0.6-0.6v-19.5c0-0.4,0.2-0.6,0.6-0.6L302.6,190.2L302.6,190.2z M303,195.7
			c0-0.7-0.1-1.1-0.4-1.4c-0.3-0.3-0.7-0.4-1.4-0.4h-6.7v4.9h6.7c0.7,0,1.1-0.1,1.4-0.4c0.3-0.3,0.4-0.7,0.4-1.4V195.7z"/>
		<path d="M309.9,202.4c-0.4,0-0.6-0.2-0.6-0.6v-2.5c0-0.4,0.2-0.6,0.6-0.6h10.3c0.4,0,0.6,0.2,0.6,0.6v2.5c0,0.4-0.2,0.6-0.6,0.6
			H309.9z"/>
		<path d="M320.5,211.2c-0.3,0-0.4-0.1-0.4-0.4v-3.4c0-0.3,0.1-0.4,0.4-0.4h0.3c0.8,0,1.4-0.3,1.9-0.8s0.7-1.4,0.8-2.6l1.2-12.9
			c0-0.3,0.2-0.4,0.4-0.4h14.2c0.4,0,0.6,0.2,0.6,0.6v19.5c0,0.4-0.2,0.6-0.6,0.6H336c-0.4,0-0.6-0.2-0.6-0.6v-16h-6.5l-0.9,10
			c-0.2,2.4-0.9,4.2-2,5.2c-1.1,1.1-2.6,1.6-4.5,1.6L320.5,211.2L320.5,211.2z"/>
	</g>
</g>
</svg>
