<?xml version="1.0" encoding="utf-8"?>
<!-- Generator: Adobe Illustrator 22.0.0, SVG Export Plug-In . SVG Version: 6.00 Build 0)  -->
<svg version="1.1" id="Layer_1" xmlns="http://www.w3.org/2000/svg" xmlns:xlink="http://www.w3.org/1999/xlink" x="0px" y="0px"
	 viewBox="0 0 4400 1200" style="enable-background:new 0 0 4400 1200;" xml:space="preserve">
<style type="text/css">
	.st0{fill:#691CC2;}
</style>
<g>
	<path class="st0" d="M2400,135h-110c-13.8,0-25-11.2-25-25V0h-130v110c0,13.8-11.2,25-25,25h-110v130h110c13.8,0,25,11.2,25,25v110
		h130V290c0-13.8,11.2-25,25-25h110V135z"/>
</g>
<g>
	<path class="st0" d="M2400,980h-115.5c-13.4,0-20.1-16.2-10.6-25.6l81.7-81.7l-28.3-28.3l-81.7,81.7c-9.4,9.4-25.6,2.8-25.6-10.6
		V800h-40v115.5c0,13.4-16.2,20.1-25.6,10.6l-81.7-81.7l-28.3,28.3l81.7,81.7c9.4,9.4,2.8,25.6-10.6,25.6H2000v40h115.5
		c13.4,0,20.1,16.2,10.6,25.6l-81.7,81.7l28.3,28.3l81.7-81.7c9.4-9.4,25.6-2.8,25.6,10.6V1200h40v-115.5
		c0-13.4,16.2-20.1,25.6-10.6l81.7,81.7l28.3-28.3l-81.7-81.7c-9.4-9.4-2.8-25.6,10.6-25.6H2400V980z"/>
</g>
<g>
	<g>
		<g>
			<path class="st0" d="M2400,0l175.3,175.2c13.7,13.7,13.7,35.8,0,49.5L2400,400h199.9L2800,200L2599.9,0H2400z"/>
		</g>
	</g>
</g>
<g>
	<g>
		<path class="st0" d="M3800,0L3800,0c-110.5,0-200,89.5-200,200l0,0c0,110.5,89.5,200,200,200l0,0c110.5,0,200-89.5,200-200l0,0
			C4000,89.5,3910.5,0,3800,0z M3865,200c0,35.9-29.1,65-65,65l0,0c-35.9,0-65-29.1-65-65l0,0c0-35.9,29.1-65,65-65l0,0
			C3835.9,135,3865,164.1,3865,200L3865,200z"/>
	</g>
</g>
<g>
	<g>
		<g>
			<path class="st0" d="M2000,900l-99.3-100H1845l81.8,82.4c9.7,9.7,9.7,25.5,0,35.2L1845,1000l81.8,82.4c9.7,9.7,9.7,25.5,0,35.2
				L1845,1200h55.7l99.3-100l-81.8-82.4c-9.7-9.7-9.7-25.5,0-35.2L2000,900z"/>
		</g>
		<g>
			<path class="st0" d="M1877.5,900l-99.3-100h-55.7l81.8,82.4c9.7,9.7,9.7,25.5,0,35.2l-81.8,82.4l81.8,82.4
				c9.7,9.7,9.7,25.5,0,35.2l-81.8,82.4h55.7l99.3-100l-81.8-82.4c-9.7-9.7-9.7-25.5,0-35.2L1877.5,900z"/>
		</g>
		<g>
			<path class="st0" d="M1755,900l-99.3-100H1600l81.8,82.4c9.7,9.7,9.7,25.5,0,35.2L1600,1000l81.8,82.4c9.7,9.7,9.7,25.5,0,35.2
				L1600,1200h55.7l99.3-100l-81.8-82.4c-9.7-9.7-9.7-25.5,0-35.2L1755,900z"/>
		</g>
	</g>
</g>
<g>
	<g>
		<g>
			<path class="st0" d="M4200,0L4200,0v135l0,0c35.9,0,65,29.1,65,65l0,0c0,35.9-29.1,65-65,65l0,0v135l0,0
				c110.5,0,200-89.5,200-200l0,0C4400,89.5,4310.5,0,4200,0z"/>
		</g>
		<g>
			<path class="st0" d="M4000,135c35.9,0,65,29.1,65,65l0,0c0,35.9-29.1,65-65,65l0,0v135l0,0c110.5,0,200-89.5,200-200l0,0
				c0-110.5-89.5-200-200-200l0,0V135L4000,135z"/>
		</g>
	</g>
</g>
<g>
	<path class="st0" d="M2000,100L1900,0h-300l82.4,82.3c9.8,9.8,9.8,25.6,0,35.4L1600,200l82.4,82.3c9.8,9.8,9.8,25.6,0,35.4
		L1600,400h300l100-100l-82.4-82.3c-9.8-9.8-9.8-25.6,0-35.4L2000,100z"/>
</g>
<g>
	<path class="st0" d="M1200,0l174.4,174.4c9.4,9.4,2.8,25.6-10.6,25.6H1200l200,200V236.2c0-13.4,16.2-20.1,25.6-10.6L1600,400V0
		H1200z"/>
</g>
<g>
	<path class="st0" d="M2400,560h-67.2c-13.4,0-20.1-16.2-10.6-25.6l47.5-47.5l-56.6-56.6l-47.5,47.5c-9.4,9.4-25.6,2.8-25.6-10.6
		V400h-80v67.2c0,13.4-16.2,20.1-25.6,10.6l-47.5-47.5l-56.6,56.6l47.5,47.5c9.4,9.4,2.8,25.6-10.6,25.6H2000v80h67.2
		c13.4,0,20.1,16.2,10.6,25.6l-47.5,47.5l56.6,56.6l47.5-47.5c9.4-9.4,25.6-2.8,25.6,10.6V800h80v-67.2c0-13.4,16.2-20.1,25.6-10.6
		l47.5,47.5l56.6-56.6l-47.5-47.5c-9.4-9.4-2.8-25.6,10.6-25.6h67.2L2400,560L2400,560z"/>
</g>
<g>
	<g>
		<path class="st0" d="M3800,400L3800,400c-110.5,0-200,89.5-200,200l0,0c0,110.5,89.5,200,200,200l0,0c110.5,0,200-89.5,200-200
			l0,0C4000,489.5,3910.5,400,3800,400z M3920,600c0,66.3-53.7,120-120,120l0,0c-66.3,0-120-53.7-120-120l0,0
			c0-66.3,53.7-120,120-120l0,0C3866.3,480,3920,533.7,3920,600L3920,600z"/>
	</g>
</g>
<g>
	<g>
		<g>
			<path class="st0" d="M1680.2,717.4L1600,800h102.9l97.1-100l-80.2-82.6c-9.4-9.7-9.4-25.1,0-34.8L1800,500l-97.1-100H1600
				l80.2,82.6c9.4,9.7,9.4,25.1,0,34.8L1600,600l80.2,82.6C1689.6,692.3,1689.6,707.7,1680.2,717.4z"/>
		</g>
		<g>
			<path class="st0" d="M1880.2,717.4L1800,800h102.9l97.1-100l-80.2-82.6c-9.4-9.7-9.4-25.1,0-34.8L2000,500l-97.1-100H1800
				l80.2,82.6c9.4,9.7,9.4,25.1,0,34.8L1800,600l80.2,82.6C1889.6,692.3,1889.6,707.7,1880.2,717.4z"/>
		</g>
	</g>
</g>
<g>
	<g>
		<g>
			<path class="st0" d="M4200,400L4200,400v80l0,0c66.3,0,120,53.7,120,120l0,0c0,66.3-53.7,120-120,120l0,0v80l0,0
				c110.5,0,200-89.5,200-200l0,0C4400,489.5,4310.5,400,4200,400z"/>
		</g>
		<g>
			<path class="st0" d="M4000,480c66.3,0,120,53.7,120,120l0,0c0,66.3-53.7,120-120,120l0,0v80l0,0c110.5,0,200-89.5,200-200l0,0
				c0-110.5-89.5-200-200-200l0,0V480L4000,480z"/>
		</g>
	</g>
</g>
<g>
	<g>
		<g>
			<path class="st0" d="M1287,400h-87l200,200V436.2c0-13.4,16.2-20.1,25.6-10.6L1600,600V400h-119H1287z"/>
		</g>
		<g>
			<path class="st0" d="M1287,600h-87l200,200V636.2c0-13.4,16.2-20.1,25.6-10.6L1600,800V600h-119H1287z"/>
		</g>
	</g>
</g>
<g>
	<g>
		<g>
			<g>
				<path class="st0" d="M1200,800l100,100v-75.9c0-8.9,10.8-13.4,17.1-7.1l82.9,83v-75.9c0-8.9,10.8-13.4,17.1-7.1l82.9,83v-75.9
					c0-8.9,10.8-13.4,17.1-7.1l82.9,83V800H1200z"/>
			</g>
			<g>
				<path class="st0" d="M1200,900l100,100v-75.9c0-8.9,10.8-13.4,17.1-7.1l82.9,82.9V924c0-8.9,10.8-13.4,17.1-7.1l82.9,82.9v-75.9
					c0-8.9,10.8-13.4,17.1-7.1l82.9,82.9V900H1200z"/>
			</g>
		</g>
		<g>
			<g>
				<path class="st0" d="M1200,1000l100,100v-75.9c0-8.9,10.8-13.4,17.1-7.1l82.9,82.9V1024c0-8.9,10.8-13.4,17.1-7.1l82.9,82.9
					v-75.9c0-8.9,10.8-13.4,17.1-7.1l82.9,82.9v-100h-400V1000z"/>
			</g>
			<g>
				<path class="st0" d="M1200,1100l100,100v-75.9c0-8.9,10.8-13.4,17.1-7.1l82.9,82.9V1124c0-8.9,10.8-13.4,17.1-7.1l82.9,82.9
					v-75.9c0-8.9,10.8-13.4,17.1-7.1l82.9,82.9v-100h-400V1100z"/>
			</g>
		</g>
	</g>
</g>
<g>
	<g>
		<g>
			<g>
				<path class="st0" d="M3800,800L3800,800c-110.5,0-200,89.5-200,200l0,0c0,110.5,89.5,200,200,200l0,0c110.5,0,200-89.5,200-200
					l0,0C4000,889.5,3910.5,800,3800,800z M3960,1000c0,88.4-71.6,160-160,160l0,0c-88.4,0-160-71.6-160-160l0,0
					c0-88.4,71.6-160,160-160l0,0C3888.4,840,3960,911.6,3960,1000L3960,1000z"/>
			</g>
		</g>
		<g>
			<path class="st0" d="M3800,885c-63.5,0-115,51.5-115,115s51.5,115,115,115s115-51.5,115-115S3863.5,885,3800,885z M3800,1074
				c-40.9,0-74-33.1-74-74s33.1-74,74-74s74,33.1,74,74S3840.9,1074,3800,1074z"/>
		</g>
	</g>
</g>
<g>
	<g>
		<g>
			<g>
				<path class="st0" d="M4200,800L4200,800v40l0,0c88.4,0,160,71.6,160,160l0,0c0,88.4-71.6,160-160,160l0,0v40l0,0
					c110.5,0,200-89.5,200-200l0,0C4400,889.5,4310.5,800,4200,800z"/>
			</g>
			<g>
				<path class="st0" d="M4315,1000c0-63.5-51.5-115-115-115v41c40.9,0,74,33.1,74,74s-33.1,74-74,74v41
					C4263.5,1115,4315,1063.5,4315,1000z"/>
			</g>
		</g>
		<g>
			<g>
				<path class="st0" d="M4000,800L4000,800v40l0,0c88.4,0,160,71.6,160,160l0,0c0,88.4-71.6,160-160,160l0,0v40l0,0
					c110.5,0,200-89.5,200-200l0,0C4200,889.5,4110.5,800,4000,800z"/>
			</g>
			<g>
				<path class="st0" d="M4115,1000c0-63.5-51.5-115-115-115v41c40.9,0,74,33.1,74,74s-33.1,74-74,74v41
					C4063.5,1115,4115,1063.5,4115,1000z"/>
			</g>
		</g>
	</g>
</g>
<g>
	<g>
		<g>
			<path class="st0" d="M2600,400h-99l182.3,182.3c9.8,9.8,9.8,25.6,0,35.4L2501,800h99l200-200L2600,400z"/>
		</g>
		<g>
			<path class="st0" d="M2400,400v99.8l82.6,82.6c9.8,9.8,9.8,25.6,0,35.4l-82.6,82.6V800l200-200L2400,400z"/>
		</g>
	</g>
</g>
<g>
	<g>
		<g>
			<path class="st0" d="M1024.7,224.9c-13.7-13.7-13.7-35.8,0-49.5L1200,0H800.1l175.2,175.1c13.7,13.7,13.7,35.8,0,49.5L800,400
				h399.9L1024.7,224.9z"/>
		</g>
	</g>
</g>
<g>
	<g>
		<g>
			<path class="st0" d="M917.7,517.7c-9.8-9.8-9.8-25.6,0-35.4L1000,400l0,0H800.1l82.2,82.2c9.8,9.8,9.8,25.6,0,35.4L800,599.8v0.1
				h0.1l82.2,82.2c9.8,9.8,9.8,25.6,0,35.4L800,799.7v0.1h199.9l-82.2-82.2c-9.8-9.8-9.8-25.6,0-35.4l82.3-82.4v0h-0.1L917.7,517.7z
				"/>
		</g>
		<g>
			<path class="st0" d="M1200,400.1L1200,400.1l-199.9-0.1l82.2,82.2c9.8,9.8,9.8,25.6,0,35.4l-82.3,82.4v0.1h0.1l82.2,82.2
				c9.8,9.8,9.8,25.6,0,35.4l-82.3,82.4v0.1h199.9l-82.2-82.2c-9.8-9.8-9.8-25.6,0-35.4l82.3-82.4v-0.2h-0.1l-82.2-82.2
				c-9.8-9.8-9.8-25.6,0-35.4L1200,400.1z"/>
		</g>
	</g>
</g>
<g>
	<g>
		<g>
			<path class="st0" d="M1200,800.1V800h-99.9l39.3,39.2c5.9,5.9,5.9,15.4,0,21.2l-39.4,39.4v0.1h0.1l39.3,39.2
				c5.9,5.9,5.9,15.4,0,21.2l-39.4,39.4v0.1h0.1l39.3,39.2c5.9,5.9,5.9,15.4,0,21.2l-39.4,39.4v0.1h0.1l39.3,39.2
				c5.9,5.9,5.9,15.4,0,21.2l-39.4,39.4v0.1h99.9l-39.3-39.2c-5.9-5.9-5.9-15.4,0-21.2l39.4-39.4v-0.1h-0.1l-39.3-39.2
				c-5.9-5.9-5.9-15.4,0-21.2l39.4-39.4v-0.1h-0.1l-39.3-39.2c-5.9-5.9-5.9-15.4,0-21.2l39.4-39.4l0,0h-0.1l-39.3-39.2
				c-5.9-5.9-5.9-15.4,0-21.2L1200,800.1z"/>
		</g>
		<g>
			<path class="st0" d="M860.6,1060.9c-5.9-5.9-5.9-15.4,0-21.2l39.4-39.4v-0.1h-0.1L860.6,961c-5.9-5.9-5.9-15.4,0-21.2l39.4-39.4
				v-0.3h-0.1l-39.3-39.2c-5.9-5.9-5.9-15.4,0-21.2l39.4-39.4V800h-99.9l39.3,39.2c5.9,5.9,5.9,15.4,0,21.2L800,900v0.1h0.1
				l39.3,39.2c5.9,5.9,5.9,15.4,0,21.2L800,1000v0.1h0.1l39.3,39.2c5.9,5.9,5.9,15.4,0,21.2L800,1100v0.1h0.1l39.3,39.2
				c5.9,5.9,5.9,15.4,0,21.2l-39.4,39.4v0.1h99.9l-39.3-39.2c-5.9-5.9-5.9-15.4,0-21.2l39.4-39.4v-0.1h-0.1L860.6,1060.9z"/>
		</g>
		<g>
			<path class="st0" d="M960.6,1060.9c-5.9-5.9-5.9-15.4,0-21.2l39.4-39.4v-0.1h-0.1L960.6,961c-5.9-5.9-5.9-15.4,0-21.2l39.4-39.4
				v-0.3h-0.1l-39.3-39.2c-5.9-5.9-5.9-15.4,0-21.2l39.4-39.4V800h-99.9l39.3,39.2c5.9,5.9,5.9,15.4,0,21.2L900,900v0.1h0.1
				l39.3,39.2c5.9,5.9,5.9,15.4,0,21.2L900,1000v0.1h0.1l39.3,39.2c5.9,5.9,5.9,15.4,0,21.2L900,1100v0.1h0.1l39.3,39.2
				c5.9,5.9,5.9,15.4,0,21.2l-39.4,39.4v0.1h99.9l-39.3-39.2c-5.9-5.9-5.9-15.4,0-21.2l39.4-39.4v-0.1h-0.1L960.6,1060.9z"/>
		</g>
		<g>
			<path class="st0" d="M1060.6,1060.9c-5.9-5.9-5.9-15.4,0-21.2l39.4-39.4v-0.1h-0.1l-39.3-39.2c-5.9-5.9-5.9-15.4,0-21.2
				l39.4-39.4v-0.3h-0.1l-39.3-39.2c-5.9-5.9-5.9-15.4,0-21.2l39.4-39.4V800h-99.9l39.3,39.2c5.9,5.9,5.9,15.4,0,21.2l-39.4,39.4
				v0.1h0.1l39.3,39.2c5.9,5.9,5.9,15.4,0,21.2l-39.4,39.4v0.1h0.1l39.3,39.2c5.9,5.9,5.9,15.4,0,21.2l-39.4,39.4v0.1h0.1l39.3,39.2
				c5.9,5.9,5.9,15.4,0,21.2l-39.4,39.4v0.1h99.9l-39.3-39.2c-5.9-5.9-5.9-15.4,0-21.2l39.4-39.4v-0.1h-0.1L1060.6,1060.9z"/>
		</g>
	</g>
</g>
<g>
	<g>
		<g>
			<path class="st0" d="M2600,800h-55l182.3,182.3c9.8,9.8,9.8,25.6,0,35.4L2545,1200h55l200-200L2600,800z"/>
		</g>
		<g>
			<path class="st0" d="M2499,800h-55l182.3,182.3c9.8,9.8,9.8,25.6,0,35.4L2444,1200h55l200-200L2499,800z"/>
		</g>
		<g>
			<path class="st0" d="M2400,800v55l127.3,127.3c9.8,9.8,9.8,25.6,0,35.4L2400,1145v55l200-200L2400,800z"/>
		</g>
	</g>
</g>
<g>
	<g>
		<g>
			<path class="st0" d="M3470,400h-140c-71.8,0-130,58.2-130,130v10c0-33.1,26.9-60,60-60h200c33.1,0,60,26.9,60,60v200
				c0,33.1-26.9,60-60,60h10c71.8,0,130-58.2,130-130V530C3600,458.2,3541.8,400,3470,400z"/>
		</g>
		<g>
			<path class="st0" d="M3440,750V610c0-27.6-22.4-50-50-50h-140c-27.6,0-50,22.4-50,50v60c0-16.6,13.4-30,30-30h100
				c16.6,0,30,13.4,30,30v100c0,16.6-13.4,30-30,30h60C3417.6,800,3440,777.6,3440,750z"/>
		</g>
	</g>
</g>
<g>
	<g>
		<g>
			<path class="st0" d="M3470,800h-140c-56.1,0-103.9,35.6-122.1,85.4c12.9-26.8,40.4-45.4,72.1-45.4h200c44.2,0,80,35.8,80,80v200
				c0,31.8-18.5,59.2-45.4,72.1c49.8-18.2,85.4-66,85.4-122.1V930C3600,858.2,3541.8,800,3470,800z"/>
		</g>
		<g>
			<path class="st0" d="M3510,1120V970c0-44.2-35.8-80-80-80h-150c-44.2,0-80,35.8-80,80c0-22.1,17.9-40,40-40h190
				c22.1,0,40,17.9,40,40v190c0,22.1-17.9,40-40,40C3474.2,1200,3510,1164.2,3510,1120z"/>
		</g>
		<g>
			<path class="st0" d="M3420,1140v-100c0-33.1-26.9-60-60-60h-100c-33.1,0-60,26.9-60,60v10c0-16.6,13.4-30,30-30h120
				c16.6,0,30,13.4,30,30v120c0,16.6-13.4,30-30,30h10C3393.1,1200,3420,1173.1,3420,1140z"/>
		</g>
	</g>
</g>
<g>
	<path class="st0" d="M3313.6,400h-87.1c-14.6,0-26.4-11.8-26.4-26.4v-87.1c0-14.6,11.8-26.4,26.4-26.4h87.1
		c14.6,0,26.4,11.8,26.4,26.4v87.1C3340,388.2,3328.2,400,3313.6,400z"/>
	<g>
		<g>
			<path class="st0" d="M3470,0h-140c-71.8,0-130,58.2-130,130v60c0-33.1,26.9-60,60-60h150c33.1,0,60,26.9,60,60v150
				c0,33.1-26.9,60-60,60h60c71.8,0,130-58.2,130-130V130C3600,58.2,3541.8,0,3470,0z"/>
		</g>
		<g>
		</g>
	</g>
</g>
<g>
	<g>
		<g>
			<path class="st0" d="M700,600h100V500C800,555.2,755.2,600,700,600z"/>
		</g>
		<g>
			<path class="st0" d="M700,400c55.2,0,100,44.8,100,100V400H700z"/>
		</g>
		<g>
			<path class="st0" d="M700,400H600v100C600,444.8,644.8,400,700,400z"/>
		</g>
		<g>
			<path class="st0" d="M500,600H400v100C400,644.8,444.8,600,500,600z"/>
		</g>
		<g>
			<path class="st0" d="M500,800h100V700C600,755.2,555.2,800,500,800z"/>
		</g>
		<g>
			<path class="st0" d="M400,700v100h100C444.8,800,400,755.2,400,700z"/>
		</g>
		<g>
			<path class="st0" d="M600,700L600,700c0,55.2,44.8,100,100,100l0,0c55.2,0,100-44.8,100-100l0,0c0-55.2-44.8-100-100-100l0,0
				C644.8,600,600,644.8,600,700z"/>
		</g>
		<g>
			<path class="st0" d="M600,500L600,500c0-55.2-44.8-100-100-100l0,0c-55.2,0-100,44.8-100,100l0,0c0,55.2,44.8,100,100,100l0,0
				C555.2,600,600,555.2,600,500z"/>
		</g>
	</g>
</g>
<g>
	<g>
		<g>
			<g>
				<g>
					<path class="st0" d="M550,900h50v-50C600,877.6,577.6,900,550,900z"/>
				</g>
				<g>
					<path class="st0" d="M550,800c27.6,0,50,22.4,50,50v-50H550z"/>
				</g>
				<g>
					<path class="st0" d="M550,800h-50v50C500,822.4,522.4,800,550,800z"/>
				</g>
				<g>
					<path class="st0" d="M450,900h-50v50C400,922.4,422.4,900,450,900z"/>
				</g>
				<g>
					<path class="st0" d="M450,1000h50v-50C500,977.6,477.6,1000,450,1000z"/>
				</g>
				<g>
					<path class="st0" d="M400,950v50h50C422.4,1000,400,977.6,400,950z"/>
				</g>
				<g>
					<path class="st0" d="M500,950L500,950c0,27.6,22.4,50,50,50l0,0c27.6,0,50-22.4,50-50l0,0c0-27.6-22.4-50-50-50l0,0
						C522.4,900,500,922.4,500,950z"/>
				</g>
				<g>
					<path class="st0" d="M500,850L500,850c0-27.6-22.4-50-50-50l0,0c-27.6,0-50,22.4-50,50l0,0c0,27.6,22.4,50,50,50l0,0
						C477.6,900,500,877.6,500,850z"/>
				</g>
			</g>
		</g>
		<g>
			<g>
				<g>
					<path class="st0" d="M750,900h50v-50C800,877.6,777.6,900,750,900z"/>
				</g>
				<g>
					<path class="st0" d="M750,800c27.6,0,50,22.4,50,50v-50H750z"/>
				</g>
				<g>
					<path class="st0" d="M750,800h-50v50C700,822.4,722.4,800,750,800z"/>
				</g>
				<g>
					<path class="st0" d="M650,900h-50v50C600,922.4,622.4,900,650,900z"/>
				</g>
				<g>
					<path class="st0" d="M650,1000h50v-50C700,977.6,677.6,1000,650,1000z"/>
				</g>
				<g>
					<path class="st0" d="M600,950v50h50C622.4,1000,600,977.6,600,950z"/>
				</g>
				<g>
					<path class="st0" d="M700,950L700,950c0,27.6,22.4,50,50,50l0,0c27.6,0,50-22.4,50-50l0,0c0-27.6-22.4-50-50-50l0,0
						C722.4,900,700,922.4,700,950z"/>
				</g>
				<g>
					<path class="st0" d="M700,850L700,850c0-27.6-22.4-50-50-50l0,0c-27.6,0-50,22.4-50,50l0,0c0,27.6,22.4,50,50,50l0,0
						C677.6,900,700,877.6,700,850z"/>
				</g>
			</g>
		</g>
		<g>
			<g>
				<g>
					<path class="st0" d="M550,1100h50v-50C600,1077.6,577.6,1100,550,1100z"/>
				</g>
				<g>
					<path class="st0" d="M550,1000c27.6,0,50,22.4,50,50v-50H550z"/>
				</g>
				<g>
					<path class="st0" d="M550,1000h-50v50C500,1022.4,522.4,1000,550,1000z"/>
				</g>
				<g>
					<path class="st0" d="M450,1100h-50v50C400,1122.4,422.4,1100,450,1100z"/>
				</g>
				<g>
					<path class="st0" d="M450,1200h50v-50C500,1177.6,477.6,1200,450,1200z"/>
				</g>
				<g>
					<path class="st0" d="M400,1150v50h50C422.4,1200,400,1177.6,400,1150z"/>
				</g>
				<g>
					<path class="st0" d="M500,1150L500,1150c0,27.6,22.4,50,50,50l0,0c27.6,0,50-22.4,50-50l0,0c0-27.6-22.4-50-50-50l0,0
						C522.4,1100,500,1122.4,500,1150z"/>
				</g>
				<g>
					<path class="st0" d="M500,1050L500,1050c0-27.6-22.4-50-50-50l0,0c-27.6,0-50,22.4-50,50l0,0c0,27.6,22.4,50,50,50l0,0
						C477.6,1100,500,1077.6,500,1050z"/>
				</g>
			</g>
		</g>
		<g>
			<g>
				<g>
					<path class="st0" d="M750,1100h50v-50C800,1077.6,777.6,1100,750,1100z"/>
				</g>
				<g>
					<path class="st0" d="M750,1000c27.6,0,50,22.4,50,50v-50H750z"/>
				</g>
				<g>
					<path class="st0" d="M750,1000h-50v50C700,1022.4,722.4,1000,750,1000z"/>
				</g>
				<g>
					<path class="st0" d="M650,1100h-50v50C600,1122.4,622.4,1100,650,1100z"/>
				</g>
				<g>
					<path class="st0" d="M650,1200h50v-50C700,1177.6,677.6,1200,650,1200z"/>
				</g>
				<g>
					<path class="st0" d="M600,1150v50h50C622.4,1200,600,1177.6,600,1150z"/>
				</g>
				<g>
					<path class="st0" d="M700,1150L700,1150c0,27.6,22.4,50,50,50l0,0c27.6,0,50-22.4,50-50l0,0c0-27.6-22.4-50-50-50l0,0
						C722.4,1100,700,1122.4,700,1150z"/>
				</g>
				<g>
					<path class="st0" d="M700,1050L700,1050c0-27.6-22.4-50-50-50l0,0c-27.6,0-50,22.4-50,50l0,0c0,27.6,22.4,50,50,50l0,0
						C677.6,1100,700,1077.6,700,1050z"/>
				</g>
			</g>
		</g>
	</g>
</g>
<g>
	<g>
		<g>
			<path class="st0" d="M600,200c110.5,0,200,89.5,200,200V200H600z"/>
		</g>
		<g>
			<path class="st0" d="M400,400c0-110.5,89.5-200,200-200H400V400z"/>
		</g>
		<g>
			<path class="st0" d="M800,0H400c0,110.5,89.5,200,200,200l0,0C710.5,200,800,110.5,800,0z"/>
		</g>
	</g>
</g>
<g>
	<g>
		<g>
			<path class="st0" d="M400,400H300V125c0-13.8-11.2-25-25-25s-25,11.2-25,25v150c0,68.9-56.1,125-125,125S0,343.9,0,275V0h100v275
				c0,13.8,11.2,25,25,25s25-11.2,25-25V125C150,56.1,206.1,0,275,0s125,56.1,125,125V400z"/>
		</g>
	</g>
</g>
<g>
	<g>
		<g>
			<path class="st0" d="M310,800c-49.6,0-90-40.4-90-90V490c0-11-9-20-20-20s-20,9-20,20v220c0,49.6-40.4,90-90,90S0,759.6,0,710
				V400h70v310c0,11,9,20,20,20s20-9,20-20V490c0-49.6,40.4-90,90-90s90,40.4,90,90v220c0,11,9,20,20,20s20-9,20-20V400h70v310
				C400,759.6,359.6,800,310,800z"/>
		</g>
	</g>
</g>
<g>
	<g>
		<g>
			<path class="st0" d="M400,1200h-40V865c0-13.8-11.2-25-25-25s-25,11.2-25,25v270c0,35.8-29.2,65-65,65s-65-29.2-65-65V865
				c0-13.8-11.2-25-25-25s-25,11.2-25,25v270c0,35.8-29.2,65-65,65s-65-29.2-65-65V800h40v335c0,13.8,11.2,25,25,25s25-11.2,25-25
				V865c0-35.8,29.2-65,65-65s65,29.2,65,65v270c0,13.8,11.2,25,25,25c13.8,0,25-11.2,25-25V865c0-35.8,29.2-65,65-65s65,29.2,65,65
				V1200z"/>
		</g>
	</g>
</g>
<g>
	<g>
		<path class="st0" d="M2800,0v400h400V0H2800z M3037.5,262.5h-75c-13.8,0-25-11.2-25-25v-75c0-13.8,11.2-25,25-25h75
			c13.8,0,25,11.2,25,25v75C3062.5,251.3,3051.3,262.5,3037.5,262.5z"/>
	</g>
</g>
<g>
	<g>
		<path class="st0" d="M2800,400v400h400V400H2800z M3100,725h-200c-13.8,0-25-11.2-25-25V500c0-13.8,11.2-25,25-25h200
			c13.8,0,25,11.2,25,25v200C3125,713.8,3113.8,725,3100,725z"/>
	</g>
</g>
<g>
	<g>
		<g>
			<g>
				<path class="st0" d="M2800,800v400h400V800H2800z M3135,1160h-270c-13.8,0-25-11.2-25-25V865c0-13.8,11.2-25,25-25h270
					c13.8,0,25,11.2,25,25v270C3160,1148.8,3148.8,1160,3135,1160z"/>
			</g>
		</g>
		<g>
			<path class="st0" d="M2885,885v230h230V885H2885z M3050,1075h-100c-13.8,0-25-11.2-25-25V950c0-13.8,11.2-25,25-25h100
				c13.8,0,25,11.2,25,25v100C3075,1063.8,3063.8,1075,3050,1075z"/>
		</g>
	</g>
</g>
</svg>
