<?xml version="1.0" encoding="utf-8"?>
<!-- Generator: Adobe Illustrator 22.0.0, SVG Export Plug-In . SVG Version: 6.00 Build 0)  -->
<svg version="1.1" id="Layer_1" xmlns="http://www.w3.org/2000/svg" xmlns:xlink="http://www.w3.org/1999/xlink" x="0px" y="0px"
	 viewBox="0 0 2000 389.6" style="enable-background:new 0 0 2000 389.6;" xml:space="preserve">
<style type="text/css">
	.st0{fill:#A028EB;}
</style>
<g>
	<g>
		<path class="st0" d="M1156.4,0v390h390V0H1156.4z"/>
	</g>
</g>
<g>
	<g>
		<path class="st0" d="M1608,195L1608,195c0,107.7,87.3,195,195,195l0,0c107.7,0,195-87.3,195-195l0,0c0-107.7-87.3-195-195-195l0,0
			C1695.3,0,1608,87.3,1608,195z"/>
	</g>
</g>
<rect x="436" y="181.6" class="st0" width="250.4" height="26.8"/>
<g id="_x3C_Groupsymbol_x3E__3_">
	<g>
		<path class="st0" d="M246,0H126.8C56.7,0,0,56.7,0,126.8v43c0,70,56.7,126.8,126.8,126.8h121.2v-60H85.2
			c-13.5,0-24.4-10.9-24.4-24.4V85.2c0-13.5,10.9-24.4,24.4-24.4h202.4c13.5,0,24.4,10.9,24.4,24.4V390h60.8V126.8
			C372.8,56.7,316.1,0,246,0z"/>
	</g>
	<polygon class="st0" points="169.8,141.9 93.9,141.9 223.1,266.4 94.9,390 170.8,390 294.4,266.4 	"/>
</g>
<g>
	<g>
		<g>
			<path class="st0" d="M718,0l174.4,174.3c11.4,11.4,11.4,30,0,41.4L718,390h194.9L1108,195L912.9,0H718z"/>
		</g>
	</g>
</g>
</svg>
