<?xml version="1.0" encoding="utf-8"?>
<!-- Generator: Adobe Illustrator 22.0.0, SVG Export Plug-In . SVG Version: 6.00 Build 0)  -->
<svg version="1.1" id="Layer_1" xmlns="http://www.w3.org/2000/svg" xmlns:xlink="http://www.w3.org/1999/xlink" x="0px" y="0px"
	 viewBox="0 0 3200 400" style="enable-background:new 0 0 3200 400;" xml:space="preserve">
<style type="text/css">
	.st0{fill:#A028EB;}
</style>
<g>
	<path class="st0" d="M1600,180h-115.5c-13.4,0-20.1-16.2-10.6-25.6l81.7-81.7l-28.3-28.3l-81.7,81.7c-9.4,9.4-25.6,2.8-25.6-10.6V0
		h-40v115.5c0,13.4-16.2,20.1-25.6,10.6l-81.7-81.7l-28.3,28.3l81.7,81.7c9.4,9.4,2.8,25.6-10.6,25.6H1200v40h115.5
		c13.4,0,20.1,16.2,10.6,25.6l-81.7,81.7l28.3,28.3l81.7-81.7c9.4-9.4,25.6-2.8,25.6,10.6V400h40V284.5c0-13.4,16.2-20.1,25.6-10.6
		l81.7,81.7l28.3-28.3l-81.7-81.7c-9.4-9.4-2.8-25.6,10.6-25.6H1600V180z"/>
</g>
<g>
	<g>
		<path class="st0" d="M1200,100L1100.7,0H1045l81.8,82.4c9.7,9.7,9.7,25.5,0,35.2L1045,200l81.8,82.4c9.7,9.7,9.7,25.5,0,35.2
			L1045,400h55.7l99.3-100l-81.8-82.4c-9.7-9.7-9.7-25.5,0-35.2L1200,100z"/>
	</g>
	<g>
		<path class="st0" d="M1077.5,100L978.2,0h-55.7l81.8,82.4c9.7,9.7,9.7,25.5,0,35.2L922.5,200l81.8,82.4c9.7,9.7,9.7,25.5,0,35.2
			L922.5,400h55.7l99.3-100l-81.8-82.4c-9.7-9.7-9.7-25.5,0-35.2L1077.5,100z"/>
	</g>
	<g>
		<path class="st0" d="M955,100L855.7,0H800l81.8,82.4c9.7,9.7,9.7,25.5,0,35.2L800,200l81.8,82.4c9.7,9.7,9.7,25.5,0,35.2L800,400
			h55.7L955,300l-81.8-82.4c-9.7-9.7-9.7-25.5,0-35.2L955,100z"/>
	</g>
</g>
<g>
	<g>
		<path class="st0" d="M400,0l100,100V24.1c0-8.9,10.8-13.4,17.1-7.1L600,100V24.1c0-8.9,10.8-13.4,17.1-7.1L700,100V24.1
			c0-8.9,10.8-13.4,17.1-7.1L800,100V0H400z"/>
		<path class="st0" d="M400,100l100,100v-75.9c0-8.9,10.8-13.4,17.1-7.1L600,200v-75.9c0-8.9,10.8-13.4,17.1-7.1L700,200v-75.9
			c0-8.9,10.8-13.4,17.1-7.1L800,200V100H400z"/>
	</g>
	<g>
		<path class="st0" d="M400,200l100,100v-75.9c0-8.9,10.8-13.4,17.1-7.1L600,300v-75.9c0-8.9,10.8-13.4,17.1-7.1L700,300v-75.9
			c0-8.9,10.8-13.4,17.1-7.1L800,300V200H400z"/>
		<path class="st0" d="M400,300l100,100v-75.9c0-8.9,10.8-13.4,17.1-7.1L600,400v-75.9c0-8.9,10.8-13.4,17.1-7.1L700,400v-75.9
			c0-8.9,10.8-13.4,17.1-7.1L800,400V300H400z"/>
	</g>
</g>
<g>
	<g>
		<g>
			<path class="st0" d="M2000,0v400h400V0H2000z M2335,360h-270c-13.8,0-25-11.2-25-25V65c0-13.8,11.2-25,25-25h270
				c13.8,0,25,11.2,25,25v270C2360,348.8,2348.8,360,2335,360z"/>
		</g>
	</g>
	<g>
		<path class="st0" d="M2085,85v230h230V85H2085z M2250,275h-100c-13.8,0-25-11.2-25-25V150c0-13.8,11.2-25,25-25h100
			c13.8,0,25,11.2,25,25v100C2275,263.8,2263.8,275,2250,275z"/>
	</g>
</g>
<g>
	<g>
		<g>
			<path class="st0" d="M2600,0L2600,0c-110.5,0-200,89.5-200,200v0c0,110.5,89.5,200,200,200h0c110.5,0,200-89.5,200-200v0
				C2800,89.5,2710.5,0,2600,0z M2760,200c0,88.4-71.6,160-160,160h0c-88.4,0-160-71.6-160-160v0c0-88.4,71.6-160,160-160h0
				C2688.4,40,2760,111.6,2760,200L2760,200z"/>
		</g>
	</g>
	<g>
		<path class="st0" d="M2600,85c-63.5,0-115,51.5-115,115s51.5,115,115,115s115-51.5,115-115S2663.5,85,2600,85z M2600,274
			c-40.9,0-74-33.1-74-74c0-40.9,33.1-74,74-74s74,33.1,74,74C2674,240.9,2640.9,274,2600,274z"/>
	</g>
</g>
<g>
	<g>
		<g>
			<path class="st0" d="M3000,0L3000,0l0,40h0c88.4,0,160,71.6,160,160v0c0,88.4-71.6,160-160,160h0v40h0c110.5,0,200-89.5,200-200
				v0C3200,89.5,3110.5,0,3000,0z"/>
		</g>
		<g>
			<path class="st0" d="M3115,200c0-63.5-51.5-115-115-115v41c40.9,0,74,33.1,74,74c0,40.9-33.1,74-74,74v41
				C3063.5,315,3115,263.5,3115,200z"/>
		</g>
	</g>
	<g>
		<g>
			<path class="st0" d="M2800,0L2800,0l0,40h0c88.4,0,160,71.6,160,160v0c0,88.4-71.6,160-160,160h0v40h0c110.5,0,200-89.5,200-200
				v0C3000,89.5,2910.5,0,2800,0z"/>
		</g>
		<g>
			<path class="st0" d="M2915,200c0-63.5-51.5-115-115-115v41c40.9,0,74,33.1,74,74c0,40.9-33.1,74-74,74v41
				C2863.5,315,2915,263.5,2915,200z"/>
		</g>
	</g>
</g>
<g>
	<path class="st0" d="M400,0.1V0h-99.9l35.7,35.7c7.8,7.8,7.8,20.5,0,28.3L300,99.9v0.1h0.1l35.7,35.7c7.8,7.8,7.8,20.5,0,28.3
		L300,199.9v0.1h0.1l35.7,35.7c7.8,7.8,7.8,20.5,0,28.3L300,299.9v0.1h0.1l35.7,35.7c7.8,7.8,7.8,20.5,0,28.3L300,399.9v0.1h99.9
		l-35.7-35.7c-7.8-7.8-7.8-20.5,0-28.3l35.9-35.9V300h-0.1l-35.7-35.7c-7.8-7.8-7.8-20.5,0-28.3l35.9-35.9V200h-0.1l-35.7-35.7
		c-7.8-7.8-7.8-20.5,0-28.3l35.9-35.9V100h-0.1l-35.7-35.7c-7.8-7.8-7.8-20.5,0-28.3L400,0.1z"/>
	<path class="st0" d="M64.1,264.3c-7.8-7.8-7.8-20.5,0-28.3l35.9-35.9V200h-0.1l-35.7-35.7c-7.8-7.8-7.8-20.5,0-28.3l35.9-35.9V100
		h-0.1L64.1,64.3c-7.8-7.8-7.8-20.5,0-28.3L100,0.1V0H0.1l35.7,35.7c7.8,7.8,7.8,20.5,0,28.3L0,99.9v0.1h0.1l35.7,35.7
		c7.8,7.8,7.8,20.5,0,28.3L0,199.9v0.1h0.1l35.7,35.7c7.8,7.8,7.8,20.5,0,28.3L0,299.9v0.1h0.1l35.7,35.7c7.8,7.8,7.8,20.5,0,28.3
		L0,399.9v0.1h99.9l-35.7-35.7c-7.8-7.8-7.8-20.5,0-28.3l35.9-35.9V300h-0.1L64.1,264.3z"/>
	<path class="st0" d="M164.1,264.3c-7.8-7.8-7.8-20.5,0-28.3l35.9-35.9V200h-0.1l-35.7-35.7c-7.8-7.8-7.8-20.5,0-28.3l35.9-35.9V100
		h-0.1l-35.7-35.7c-7.8-7.8-7.8-20.5,0-28.3L200,0.1V0h-99.9l35.7,35.7c7.8,7.8,7.8,20.5,0,28.3L100,99.9v0.1h0.1l35.7,35.7
		c7.8,7.8,7.8,20.5,0,28.3L100,199.9v0.1h0.1l35.7,35.7c7.8,7.8,7.8,20.5,0,28.3L100,299.9v0.1h0.1l35.7,35.7
		c7.8,7.8,7.8,20.5,0,28.3L100,399.9v0.1h99.9l-35.7-35.7c-7.8-7.8-7.8-20.5,0-28.3l35.9-35.9V300h-0.1L164.1,264.3z"/>
	<path class="st0" d="M264.1,264.3c-7.8-7.8-7.8-20.5,0-28.3l35.9-35.9V200h-0.1l-35.7-35.7c-7.8-7.8-7.8-20.5,0-28.3l35.9-35.9V100
		h-0.1l-35.7-35.7c-7.8-7.8-7.8-20.5,0-28.3L300,0.1V0h-99.9l35.7,35.7c7.8,7.8,7.8,20.5,0,28.3L200,99.9v0.1h0.1l35.7,35.7
		c7.8,7.8,7.8,20.5,0,28.3L200,199.9v0.1h0.1l35.7,35.7c7.8,7.8,7.8,20.5,0,28.3L200,299.9v0.1h0.1l35.7,35.7
		c7.8,7.8,7.8,20.5,0,28.3L200,399.9v0.1h99.9l-35.7-35.7c-7.8-7.8-7.8-20.5,0-28.3l35.9-35.9V300h-0.1L264.1,264.3z"/>
</g>
<g>
	<g>
		<path class="st0" d="M1800,0h-55l182.3,182.3c9.8,9.8,9.8,25.6,0,35.4L1745,400h55l200-200L1800,0z"/>
	</g>
	<g>
		<path class="st0" d="M1699,0h-55l182.3,182.3c9.8,9.8,9.8,25.6,0,35.4L1644,400h55l200-200L1699,0z"/>
	</g>
	<g>
		<path class="st0" d="M1600,0v55l127.3,127.3c9.8,9.8,9.8,25.6,0,35.4L1600,345v55l200-200L1600,0z"/>
	</g>
</g>
</svg>
