<?xml version="1.0" encoding="utf-8"?>
<!-- Generator: Adobe Illustrator 22.0.0, SVG Export Plug-In . SVG Version: 6.00 Build 0)  -->
<svg version="1.1" id="Layer_1" xmlns="http://www.w3.org/2000/svg" xmlns:xlink="http://www.w3.org/1999/xlink" x="0px" y="0px"
	 viewBox="0 0 3200 400" style="enable-background:new 0 0 3200 400;" xml:space="preserve">
<style type="text/css">
	.st0{fill:#A028EB;}
</style>
<g>
	<path class="st0" d="M1600,160h-67.2c-13.4,0-20.1-16.2-10.6-25.6l47.5-47.5l-56.6-56.6l-47.5,47.5c-9.4,9.4-25.6,2.8-25.6-10.6V0
		h-80v67.2c0,13.4-16.2,20.1-25.6,10.6l-47.5-47.5l-56.6,56.6l47.5,47.5c9.4,9.4,2.8,25.6-10.6,25.6H1200v80h67.2
		c13.4,0,20.1,16.2,10.6,25.6l-47.5,47.5l56.6,56.6l47.5-47.5c9.4-9.4,25.6-2.8,25.6,10.6V400h80v-67.2c0-13.4,16.2-20.1,25.6-10.6
		l47.5,47.5l56.6-56.6l-47.5-47.5c-9.4-9.4-2.8-25.6,10.6-25.6h67.2V160z"/>
</g>
<g>
	<g>
		<path class="st0" d="M2000,0v400h400V0H2000z M2300,325h-200c-13.8,0-25-11.2-25-25V100c0-13.8,11.2-25,25-25h200
			c13.8,0,25,11.2,25,25v200C2325,313.8,2313.8,325,2300,325z"/>
	</g>
</g>
<g>
	<g>
		<path class="st0" d="M2600,0L2600,0c-110.5,0-200,89.5-200,200v0c0,110.5,89.5,200,200,200h0c110.5,0,200-89.5,200-200v0
			C2800,89.5,2710.5,0,2600,0z M2720,200c0,66.3-53.7,120-120,120l0,0c-66.3,0-120-53.7-120-120v0c0-66.3,53.7-120,120-120l0,0
			C2666.3,80,2720,133.7,2720,200L2720,200z"/>
	</g>
</g>
<g>
	<g>
		<g>
			<path class="st0" d="M880.2,317.4L800,400h102.9l97.1-100l-80.2-82.6c-9.4-9.7-9.4-25.1,0-34.8L1000,100L902.9,0H800l80.2,82.6
				c9.4,9.7,9.4,25.1,0,34.8L800,200l80.2,82.6C889.6,292.3,889.6,307.7,880.2,317.4z"/>
		</g>
		<g>
			<path class="st0" d="M1080.2,317.4L1000,400h102.9l97.1-100l-80.2-82.6c-9.4-9.7-9.4-25.1,0-34.8L1200,100L1102.9,0H1000
				l80.2,82.6c9.4,9.7,9.4,25.1,0,34.8L1000,200l80.2,82.6C1089.6,292.3,1089.6,307.7,1080.2,317.4z"/>
		</g>
	</g>
</g>
<g>
	<g>
		<g>
			<path class="st0" d="M3000,0L3000,0l0,80l0,0c66.3,0,120,53.7,120,120v0c0,66.3-53.7,120-120,120l0,0v80h0
				c110.5,0,200-89.5,200-200v0C3200,89.5,3110.5,0,3000,0z"/>
		</g>
		<g>
			<path class="st0" d="M2800,80c66.3,0,120,53.7,120,120v0c0,66.3-53.7,120-120,120l0,0v80h0c110.5,0,200-89.5,200-200v0
				c0-110.5-89.5-200-200-200h0V80L2800,80z"/>
		</g>
	</g>
</g>
<g>
	<g>
		<path class="st0" d="M487,0h-87l200,200V36.2c0-13.4,16.2-20.1,25.6-10.6L800,200V0H681H487z"/>
		<path class="st0" d="M487,200h-87l200,200V236.2c0-13.4,16.2-20.1,25.6-10.6L800,400V200H681H487z"/>
	</g>
</g>
<g>
	<g>
		<path class="st0" d="M1800,0h-99l182.3,182.3c9.8,9.8,9.8,25.6,0,35.4L1701,400h99l200-200L1800,0z"/>
	</g>
	<g>
		<path class="st0" d="M1600,0v99.8l82.6,82.6c9.8,9.8,9.8,25.6,0,35.4l-82.6,82.6V400l200-200L1600,0z"/>
	</g>
</g>
<g>
	<path class="st0" d="M117.7,117.8c-9.8-9.8-9.8-25.6,0-35.4L200,0.1V0H0.1l82.2,82.2c9.8,9.8,9.8,25.6,0,35.4L0,199.9v0.1h0.1
		l82.2,82.2c9.8,9.8,9.8,25.6,0,35.4L0,399.9v0.1h199.9l-82.2-82.2c-9.8-9.8-9.8-25.6,0-35.4l82.3-82.4V200h-0.1L117.7,117.8z"/>
	<path class="st0" d="M400,0.1L400,0.1L200.1,0l82.2,82.2c9.8,9.8,9.8,25.6,0,35.4L200,199.9v0.1h0.1l82.2,82.2
		c9.8,9.8,9.8,25.6,0,35.4L200,399.9v0.1h199.9l-82.2-82.2c-9.8-9.8-9.8-25.6,0-35.4l82.3-82.4V200h-0.1l-82.2-82.2
		c-9.8-9.8-9.8-25.6,0-35.4L400,0.1z"/>
</g>
</svg>
