<?xml version="1.0" encoding="utf-8"?>
<!-- Generator: Adobe Illustrator 22.0.0, SVG Export Plug-In . SVG Version: 6.00 Build 0)  -->
<svg version="1.1" id="Layer_1" xmlns="http://www.w3.org/2000/svg" xmlns:xlink="http://www.w3.org/1999/xlink" x="0px" y="0px"
	 viewBox="0 0 2000 389.6" style="enable-background:new 0 0 2000 389.6;" xml:space="preserve">
<style type="text/css">
	.st0{fill:none;stroke:#A028EB;stroke-miterlimit:10;}
	.st1{fill:#151515;}
	.st2{fill:#A028EB;}
</style>
<line class="st0" x1="3" y1="112" x2="3" y2="0"/>
<g>
	<g>
		<path class="st1" d="M19.7,29.3V9h7.7c2.3,0,4.2,0.5,5.5,1.4s2,2.3,2,4c0,2.5-1.3,4-3.8,4.5c1.4,0.2,2.5,0.6,3.3,1.4
			s1.2,1.9,1.2,3.2c0,1.8-0.7,3.2-2,4.2c-1.4,1-3.3,1.5-5.7,1.5L19.7,29.3L19.7,29.3z M27.6,12.4h-3.5v4.9h3.5
			c0.9,0,1.7-0.2,2.2-0.7c0.5-0.4,0.8-1,0.8-1.8s-0.3-1.4-0.8-1.8C29.2,12.6,28.5,12.4,27.6,12.4z M27.9,20.7h-3.8v5.1h3.8
			c1,0,1.9-0.2,2.4-0.7c0.6-0.4,0.9-1.1,0.9-1.9s-0.3-1.5-0.9-1.9S28.9,20.7,27.9,20.7z"/>
		<path class="st1" d="M48.1,21.6c2.1,0.4,3.2,1.5,3.2,3.4c0,1.4-0.6,2.5-1.9,3.3c-1.3,0.8-3,1.2-5.3,1.2s-4-0.4-5.1-1.3
			s-1.6-2.2-1.7-3.9h4c0.2,1.5,1.2,2.3,2.8,2.3c0.9,0,1.7-0.2,2.2-0.5s0.8-0.8,0.8-1.3c0-1-0.8-1.6-2.3-1.6h-2.1v-2.8h1.8
			c1.5,0,2.2-0.6,2.2-1.7s-0.8-1.6-2.5-1.6s-2.7,0.7-2.9,2.1h-4c0.1-1.5,0.8-2.8,2-3.7c1.2-0.9,2.9-1.4,5-1.4s3.7,0.4,4.9,1.1
			c1.1,0.7,1.7,1.8,1.7,3C51,20.1,50,21.2,48.1,21.6z"/>
		<path class="st1" d="M60.3,29.3h-6.8V14.4h6.7c2,0,3.6,0.3,4.6,1c1.1,0.7,1.6,1.6,1.6,2.9c0,1.8-1,2.9-2.9,3.3
			c2.2,0.3,3.4,1.5,3.4,3.5C66.9,27.9,64.7,29.3,60.3,29.3z M57.5,17.2v3.2h2.7c1.4,0,2.1-0.5,2.1-1.6s-0.7-1.6-2.1-1.6H57.5z
			 M57.5,23.1v3.4h3.1c1.5,0,2.3-0.6,2.3-1.7s-0.8-1.7-2.3-1.7C60.6,23.1,57.5,23.1,57.5,23.1z"/>
		<path class="st1" d="M76.6,29.5c-2.5,0-4.4-0.7-5.8-2.1s-2.1-3.2-2.1-5.5s0.7-4.2,2.1-5.6c1.4-1.4,3.3-2.1,5.6-2.1
			c2.2,0,4.1,0.6,5.4,1.9c1.4,1.3,2.1,3,2.1,5.2c0,0.5,0,1-0.1,1.4H72.9V23c0,1,0.4,1.9,1,2.5s1.5,0.9,2.5,0.9
			c1.8,0,2.8-0.7,3.2-2.1h4c-0.2,1.5-1,2.8-2.2,3.7C80.1,29,78.5,29.5,76.6,29.5z M73,20.1h6.7c-0.1-0.9-0.5-1.6-1.1-2.1
			s-1.4-0.7-2.3-0.7s-1.6,0.3-2.2,0.8C73.4,18.5,73.1,19.2,73,20.1z"/>
		<path class="st1" d="M107.4,29.3H86V14.4h4.1v11.5h4.5V14.4h4.1v11.5h4.6V14.4h4.1C107.4,14.4,107.4,29.3,107.4,29.3z"/>
		<path class="st1" d="M117.6,29.5c-2.5,0-4.4-0.7-5.8-2.1s-2.1-3.2-2.1-5.5s0.7-4.2,2.1-5.6c1.4-1.4,3.3-2.1,5.6-2.1
			c2.2,0,4.1,0.6,5.4,1.9c1.4,1.3,2.1,3,2.1,5.2c0,0.5,0,1-0.1,1.4H114V23c0,1,0.4,1.9,1,2.5s1.5,0.9,2.5,0.9c1.8,0,2.8-0.7,3.2-2.1
			h4c-0.2,1.5-1,2.8-2.2,3.7C121.1,29,119.5,29.5,117.6,29.5z M114,20.1h6.7c-0.1-0.9-0.5-1.6-1.1-2.1s-1.4-0.7-2.3-0.7
			s-1.6,0.3-2.2,0.8C114.5,18.5,114.1,19.2,114,20.1z"/>
		<path class="st1" d="M137.4,20v-5.7h4.1v14.9h-4.1v-5.8h-6.2v5.8h-4.1V14.4h4.1V20H137.4z"/>
		<path class="st1" d="M154.6,20v-5.7h4.1v14.9h-4.1v-5.8h-6.2v5.8h-4.1V14.4h4.1V20H154.6z"/>
		<path class="st1" d="M174.5,27.4c-1.4,1.4-3.3,2.1-5.7,2.1s-4.3-0.7-5.7-2.1s-2.1-3.2-2.1-5.5s0.7-4.1,2.1-5.5
			c1.4-1.4,3.3-2.1,5.7-2.1s4.3,0.7,5.7,2.1s2.1,3.2,2.1,5.5C176.7,24.1,175.9,26,174.5,27.4z M168.8,26.1c1.1,0,2-0.4,2.7-1.2
			c0.7-0.8,1-1.8,1-3.1c0-1.3-0.3-2.3-1-3.1c-0.7-0.8-1.6-1.2-2.7-1.2c-1.1,0-2,0.4-2.7,1.2c-0.7,0.8-1,1.8-1,3.1
			c0,1.3,0.3,2.3,1,3.1S167.7,26.1,168.8,26.1z"/>
		<path class="st1" d="M185.9,29.5c-2.4,0-4.2-0.7-5.6-2c-1.4-1.4-2-3.2-2-5.6c0-2.3,0.7-4.2,2.1-5.6s3.3-2.1,5.6-2.1
			c2,0,3.6,0.5,4.9,1.5c1.2,1,2,2.4,2.3,4.2H189c-0.4-1.6-1.4-2.4-3-2.4c-1.1,0-1.9,0.4-2.6,1.2c-0.6,0.8-1,1.8-1,3.1
			c0,1.3,0.3,2.3,1,3.1c0.6,0.8,1.5,1.2,2.6,1.2c0.8,0,1.4-0.2,2-0.7c0.5-0.4,0.8-1,1-1.8h4.3c-0.3,1.8-1.1,3.2-2.4,4.2
			C189.6,29,187.9,29.5,185.9,29.5z"/>
		<path class="st1" d="M202.8,29.3h-4.1V17.8H194v-3.5h13.5v3.5h-4.7V29.3z"/>
		<path class="st1" d="M216.5,29.3h-7.4V14.4h4.1v4.4h3.3c1.9,0,3.4,0.5,4.5,1.4s1.6,2.2,1.6,3.9c0,1.6-0.5,2.9-1.6,3.8
			C219.9,28.8,218.4,29.3,216.5,29.3z M213.2,21.8v4.4h2.6c0.9,0,1.5-0.2,2-0.6s0.7-0.9,0.7-1.6s-0.2-1.3-0.7-1.6s-1.1-0.6-2-0.6
			C215.8,21.8,213.2,21.8,213.2,21.8z"/>
	</g>
</g>
<line class="st0" x1="500" y1="112" x2="500" y2="0"/>
<g>
	<g>
		<path class="st1" d="M516.7,29.3V9h4.3v8.1h8.1V9h4.4v20.3h-4.4v-8.4H521v8.4H516.7z"/>
		<path class="st1" d="M550.8,25.8h0.5v3.5h-2.1c-1.9,0-2.8-0.8-2.8-2.4c-1.1,1.7-2.7,2.6-4.9,2.6c-1.7,0-3-0.4-4-1.1
			c-1-0.8-1.5-1.8-1.5-3.2c0-1.6,0.6-2.8,1.8-3.7c1.2-0.9,2.9-1.3,5.1-1.3h3v-0.7c0-0.7-0.2-1.2-0.7-1.6s-1.1-0.6-2-0.6
			c-0.8,0-1.4,0.2-1.9,0.5s-0.8,0.8-0.9,1.3h-3.9c0.2-1.4,0.9-2.6,2.1-3.5c1.2-0.9,2.8-1.3,4.8-1.3c2.1,0,3.7,0.5,4.9,1.4
			c1.2,0.9,1.7,2.3,1.7,4V25c0,0.4,0.1,0.6,0.2,0.7C550.2,25.8,550.5,25.8,550.8,25.8z M545.9,23.2v-0.3h-3c-0.9,0-1.5,0.2-2,0.5
			s-0.7,0.8-0.7,1.4c0,0.5,0.2,0.9,0.6,1.2c0.4,0.3,0.9,0.5,1.6,0.5c1.1,0,1.9-0.3,2.5-0.9C545.5,25,545.8,24.2,545.9,23.2z"/>
		<path class="st1" d="M557,29.3h-4.1V14.4H567v14.9h-4.1V17.8H557V29.3z"/>
		<path class="st1" d="M578.4,14.2c2,0,3.7,0.7,5,2.1s1.9,3.3,1.9,5.6s-0.6,4.1-1.9,5.5c-1.3,1.4-2.9,2.1-5,2.1
			c-1.9,0-3.4-0.7-4.5-2.1v7.7h-4.1V14.4h3.6l0.4,2.1C574.9,15,576.5,14.2,578.4,14.2z M574.9,25c0.7,0.8,1.5,1.2,2.6,1.2
			s2-0.4,2.7-1.2c0.7-0.8,1-1.8,1-3.1s-0.3-2.3-1-3.1c-0.7-0.8-1.6-1.2-2.7-1.2s-2,0.4-2.6,1.2c-0.7,0.8-1,1.8-1,3.1
			C573.9,23.1,574.2,24.2,574.9,25z"/>
		<path class="st1" d="M601.8,25.8h0.5v3.5h-2.1c-1.9,0-2.8-0.8-2.8-2.4c-1.1,1.7-2.7,2.6-4.9,2.6c-1.7,0-3-0.4-4-1.1
			c-1-0.8-1.5-1.8-1.5-3.2c0-1.6,0.6-2.8,1.8-3.7c1.2-0.9,2.9-1.3,5.1-1.3h3v-0.7c0-0.7-0.2-1.2-0.7-1.6s-1.1-0.6-2-0.6
			c-0.8,0-1.4,0.2-1.9,0.5s-0.8,0.8-0.9,1.3h-3.9c0.2-1.4,0.9-2.6,2.1-3.5c1.2-0.9,2.8-1.3,4.8-1.3c2.1,0,3.7,0.5,4.9,1.4
			c1.2,0.9,1.7,2.3,1.7,4V25c0,0.4,0.1,0.6,0.2,0.7C601.2,25.8,601.4,25.8,601.8,25.8z M596.8,23.2v-0.3h-3c-0.9,0-1.5,0.2-2,0.5
			s-0.7,0.8-0.7,1.4c0,0.5,0.2,0.9,0.6,1.2c0.4,0.3,0.9,0.5,1.6,0.5c1.1,0,1.9-0.3,2.5-0.9C596.5,25,596.8,24.2,596.8,23.2z"/>
		<path class="st1" d="M610.7,29.3h-6.8V14.4h6.7c2,0,3.6,0.3,4.6,1c1.1,0.7,1.6,1.6,1.6,2.9c0,1.8-1,2.9-2.9,3.3
			c2.2,0.3,3.4,1.5,3.4,3.5C617.3,27.9,615.1,29.3,610.7,29.3z M607.8,17.2v3.2h2.7c1.4,0,2.1-0.5,2.1-1.6s-0.7-1.6-2.1-1.6H607.8z
			 M607.8,23.1v3.4h3.1c1.5,0,2.3-0.6,2.3-1.7s-0.8-1.7-2.3-1.7C610.9,23.1,607.8,23.1,607.8,23.1z"/>
		<path class="st1" d="M619.4,29.3h-1.3v-3.5h0.6c0.7,0,1.2-0.3,1.5-0.9s0.4-1.8,0.4-3.4v-7.1h12.6v14.9h-4.1V17.8h-4.7v3.8
			c0,2.8-0.4,4.8-1.2,6C622.4,28.7,621.2,29.3,619.4,29.3z"/>
		<path class="st1" d="M643.5,29.5c-2.5,0-4.4-0.7-5.8-2.1c-1.4-1.4-2.1-3.2-2.1-5.5s0.7-4.2,2.1-5.6c1.4-1.4,3.3-2.1,5.6-2.1
			c2.2,0,4.1,0.6,5.4,1.9c1.4,1.3,2.1,3,2.1,5.2c0,0.5,0,1-0.1,1.4h-10.8V23c0,1,0.4,1.9,1,2.5s1.5,0.9,2.5,0.9
			c1.8,0,2.8-0.7,3.2-2.1h4c-0.2,1.5-1,2.8-2.2,3.7C647,29,645.4,29.5,643.5,29.5z M639.9,20.1h6.7c-0.1-0.9-0.5-1.6-1.1-2.1
			s-1.4-0.7-2.3-0.7c-0.9,0-1.6,0.3-2.2,0.8C640.4,18.5,640,19.2,639.9,20.1z"/>
		<path class="st1" d="M663.2,20v-5.7h4.1v14.9h-4.1v-5.8H657v5.8h-4V14.4h4.1V20H663.2z"/>
		<path class="st1" d="M673.7,29.3h-3.6V14.4h3.9v9.2l7-9.2h3.6v14.9h-4v-9.2L673.7,29.3z"/>
		<path class="st1" d="M694.9,29.5c-2.5,0-4.4-0.7-5.8-2.1c-1.4-1.4-2.1-3.2-2.1-5.5s0.7-4.2,2.1-5.6c1.4-1.4,3.3-2.1,5.6-2.1
			c2.2,0,4.1,0.6,5.4,1.9c1.4,1.3,2.1,3,2.1,5.2c0,0.5,0,1-0.1,1.4h-10.8V23c0,1,0.4,1.9,1,2.5s1.5,0.9,2.5,0.9
			c1.8,0,2.8-0.7,3.2-2.1h4c-0.2,1.5-1,2.8-2.2,3.7C698.4,29,696.8,29.5,694.9,29.5z M691.3,20.1h6.7c-0.1-0.9-0.5-1.6-1.1-2.1
			s-1.4-0.7-2.3-0.7c-0.9,0-1.6,0.3-2.2,0.8C691.8,18.5,691.4,19.2,691.3,20.1z"/>
	</g>
</g>
<line class="st0" x1="1250" y1="112" x2="1250" y2="0"/>
<g>
	<g>
		<path class="st1" d="M1270.7,29.3h-3v-3.7h1.9c0.9,0,1.5-0.1,1.9-0.3c0.4-0.2,0.7-0.6,1-1.2l0.3-0.8L1265,9h4.8l5.2,9.7l4.3-9.7
			h4.5l-7.4,16.1c-0.7,1.5-1.5,2.6-2.4,3.2C1273,29,1272,29.3,1270.7,29.3z"/>
		<path class="st1" d="M1289.8,29.5c-2.4,0-4.2-0.7-5.6-2c-1.4-1.4-2-3.2-2-5.6c0-2.3,0.7-4.2,2.1-5.6s3.3-2.1,5.6-2.1
			c2,0,3.6,0.5,4.9,1.5c1.2,1,2,2.4,2.3,4.2h-4.3c-0.4-1.6-1.4-2.4-3-2.4c-1.1,0-1.9,0.4-2.6,1.2c-0.6,0.8-1,1.8-1,3.1
			c0,1.3,0.3,2.3,1,3.1c0.6,0.8,1.5,1.2,2.6,1.2c0.8,0,1.4-0.2,2-0.7c0.5-0.4,0.8-1,1-1.8h4.3c-0.3,1.8-1.1,3.2-2.4,4.2
			C1293.4,29,1291.8,29.5,1289.8,29.5z"/>
		<path class="st1" d="M1306.6,29.3h-4.1V17.8h-4.7v-3.5h13.5v3.5h-4.7L1306.6,29.3L1306.6,29.3z"/>
		<path class="st1" d="M1325.4,27.4c-1.4,1.4-3.3,2.1-5.7,2.1c-2.4,0-4.3-0.7-5.7-2.1s-2.1-3.2-2.1-5.5s0.7-4.1,2.1-5.5
			s3.3-2.1,5.7-2.1c2.4,0,4.3,0.7,5.7,2.1c1.4,1.4,2.1,3.2,2.1,5.5C1327.6,24.1,1326.9,26,1325.4,27.4z M1319.7,26.1
			c1.1,0,2-0.4,2.7-1.2c0.7-0.8,1-1.8,1-3.1c0-1.3-0.3-2.3-1-3.1c-0.7-0.8-1.6-1.2-2.7-1.2s-2,0.4-2.7,1.2c-0.7,0.8-1,1.8-1,3.1
			c0,1.3,0.3,2.3,1,3.1S1318.6,26.1,1319.7,26.1z"/>
		<path class="st1" d="M1333.4,29.3h-3.6V14.4h3.9v9.2l7-9.2h3.6v14.9h-4v-9.2L1333.4,29.3z M1337,13c-1.5,0-2.6-0.4-3.5-1.1
			c-0.8-0.7-1.3-1.8-1.3-3.2h3c0,1.3,0.6,2,1.9,2c1.2,0,1.9-0.7,1.9-2h3c0,1.4-0.5,2.5-1.3,3.2C1339.7,12.6,1338.5,13,1337,13z"/>
		<path class="st1" d="M1356.1,20.9v-6.5h4.1v14.9h-4.1v-5.2c-1.1,0.5-2.3,0.8-3.7,0.8c-2,0-3.5-0.5-4.5-1.4s-1.5-2.4-1.5-4.5v-4.6
			h4.1v4.1c0,1,0.2,1.8,0.7,2.2c0.5,0.4,1.2,0.7,2.2,0.7C1354.5,21.4,1355.4,21.2,1356.1,20.9z"/>
		<path class="st1" d="M1366.6,29.3h-3.6V14.4h3.9v9.2l7-9.2h3.6v14.9h-4v-9.2L1366.6,29.3z"/>
		<path class="st1" d="M1387.2,29.3h-6.8V14.4h6.7c2,0,3.6,0.3,4.6,1c1.1,0.7,1.6,1.6,1.6,2.9c0,1.8-1,2.9-2.9,3.3
			c2.2,0.3,3.4,1.5,3.4,3.5C1393.8,27.9,1391.6,29.3,1387.2,29.3z M1384.4,17.2v3.2h2.7c1.4,0,2.1-0.5,2.1-1.6s-0.7-1.6-2.1-1.6
			H1384.4z M1384.4,23.1v3.4h3.1c1.5,0,2.3-0.6,2.3-1.7s-0.8-1.7-2.3-1.7C1387.5,23.1,1384.4,23.1,1384.4,23.1z"/>
		<path class="st1" d="M1409.1,27.4c-1.4,1.4-3.3,2.1-5.7,2.1c-2.4,0-4.3-0.7-5.7-2.1s-2.1-3.2-2.1-5.5s0.7-4.1,2.1-5.5
			s3.3-2.1,5.7-2.1c2.4,0,4.3,0.7,5.7,2.1c1.4,1.4,2.1,3.2,2.1,5.5C1411.2,24.1,1410.5,26,1409.1,27.4z M1403.4,26.1
			c1.1,0,2-0.4,2.7-1.2c0.7-0.8,1-1.8,1-3.1c0-1.3-0.3-2.3-1-3.1c-0.7-0.8-1.6-1.2-2.7-1.2s-2,0.4-2.7,1.2c-0.7,0.8-1,1.8-1,3.1
			c0,1.3,0.3,2.3,1,3.1C1401.3,25.7,1402.2,26.1,1403.4,26.1z"/>
		<path class="st1" d="M1420.5,29.5c-2.4,0-4.2-0.7-5.6-2c-1.4-1.4-2-3.2-2-5.6c0-2.3,0.7-4.2,2.1-5.6s3.3-2.1,5.6-2.1
			c2,0,3.6,0.5,4.9,1.5c1.2,1,2,2.4,2.3,4.2h-4.3c-0.4-1.6-1.4-2.4-3-2.4c-1.1,0-1.9,0.4-2.6,1.2c-0.6,0.8-1,1.8-1,3.1
			c0,1.3,0.3,2.3,1,3.1c0.6,0.8,1.5,1.2,2.6,1.2c0.8,0,1.4-0.2,2-0.7c0.5-0.4,0.8-1,1-1.8h4.3c-0.3,1.8-1.1,3.2-2.4,4.2
			C1424.2,29,1422.5,29.5,1420.5,29.5z"/>
		<path class="st1" d="M1437.3,29.3h-4.1V17.8h-4.7v-3.5h13.5v3.5h-4.7L1437.3,29.3L1437.3,29.3z"/>
		<path class="st1" d="M1451.1,29.3h-7.4V14.4h4.1v4.4h3.3c1.9,0,3.4,0.5,4.5,1.4s1.6,2.2,1.6,3.9c0,1.6-0.5,2.9-1.6,3.8
			C1454.4,28.8,1453,29.3,1451.1,29.3z M1447.8,21.8v4.4h2.6c0.9,0,1.5-0.2,2-0.6s0.7-0.9,0.7-1.6s-0.2-1.3-0.7-1.6
			c-0.5-0.4-1.1-0.6-2-0.6C1450.4,21.8,1447.8,21.8,1447.8,21.8z"/>
	</g>
</g>
<line class="st0" x1="1500" y1="112" x2="1500" y2="0"/>
<g>
	<g>
		<path class="st1" d="M1533.2,9v16.6h2.6v7.9h-4.2v-4.1h-14.9V9h4.3v16.6h7.8V9H1533.2z"/>
		<path class="st1" d="M1544.8,29.5c-2.5,0-4.4-0.7-5.8-2.1s-2.1-3.2-2.1-5.5s0.7-4.2,2.1-5.6c1.4-1.4,3.3-2.1,5.6-2.1
			c2.2,0,4.1,0.6,5.4,1.9c1.4,1.3,2.1,3,2.1,5.2c0,0.5,0,1-0.1,1.4h-10.8V23c0,1,0.4,1.9,1,2.5s1.5,0.9,2.5,0.9
			c1.8,0,2.8-0.7,3.2-2.1h4c-0.2,1.5-1,2.8-2.2,3.7C1548.3,29,1546.7,29.5,1544.8,29.5z M1541.2,20.1h6.7c-0.1-0.9-0.5-1.6-1.1-2.1
			s-1.4-0.7-2.3-0.7s-1.6,0.3-2.2,0.8C1541.6,18.5,1541.3,19.2,1541.2,20.1z"/>
		<path class="st1" d="M1553.9,29.3h-1.3v-3.5h0.6c0.7,0,1.2-0.3,1.5-0.9s0.4-1.8,0.4-3.4v-7.1h12.6v14.9h-4.1V17.8h-4.7v3.8
			c0,2.8-0.4,4.8-1.2,6C1557,28.7,1555.7,29.3,1553.9,29.3z"/>
		<path class="st1" d="M1578,29.3h-7.4V14.4h4.1v4.4h3.3c1.9,0,3.4,0.5,4.5,1.4s1.6,2.2,1.6,3.9c0,1.6-0.5,2.9-1.6,3.8
			C1581.4,28.8,1579.9,29.3,1578,29.3z M1574.7,21.8v4.4h2.6c0.9,0,1.5-0.2,2-0.6s0.7-0.9,0.7-1.6s-0.2-1.3-0.7-1.6s-1.1-0.6-2-0.6
			C1577.3,21.8,1574.7,21.8,1574.7,21.8z"/>
		<path class="st1" d="M1596.5,20v-5.7h4.1v14.9h-4.1v-5.8h-6.2v5.8h-4.1V14.4h4.1V20H1596.5z"/>
		<path class="st1" d="M1616.4,27.4c-1.4,1.4-3.3,2.1-5.7,2.1c-2.4,0-4.3-0.7-5.7-2.1c-1.4-1.4-2.1-3.2-2.1-5.5s0.7-4.1,2.1-5.5
			s3.3-2.1,5.7-2.1c2.4,0,4.3,0.7,5.7,2.1c1.4,1.4,2.1,3.2,2.1,5.5C1618.6,24.1,1617.9,26,1616.4,27.4z M1610.7,26.1
			c1.1,0,2-0.4,2.7-1.2c0.7-0.8,1-1.8,1-3.1c0-1.3-0.3-2.3-1-3.1c-0.7-0.8-1.6-1.2-2.7-1.2s-2,0.4-2.7,1.2c-0.7,0.8-1,1.8-1,3.1
			c0,1.3,0.3,2.3,1,3.1S1609.6,26.1,1610.7,26.1z"/>
		<path class="st1" d="M1627.9,29.5c-2.4,0-4.2-0.7-5.6-2c-1.4-1.4-2-3.2-2-5.6c0-2.3,0.7-4.2,2.1-5.6c1.4-1.4,3.3-2.1,5.6-2.1
			c2,0,3.6,0.5,4.9,1.5c1.2,1,2,2.4,2.3,4.2h-4.3c-0.4-1.6-1.4-2.4-3-2.4c-1.1,0-1.9,0.4-2.6,1.2c-0.6,0.8-1,1.8-1,3.1
			c0,1.3,0.3,2.3,1,3.1c0.6,0.8,1.5,1.2,2.6,1.2c0.8,0,1.4-0.2,2-0.7c0.5-0.4,0.8-1,1-1.8h4.3c-0.3,1.8-1.1,3.2-2.4,4.2
			C1631.5,29,1629.9,29.5,1627.9,29.5z"/>
		<path class="st1" d="M1644.7,29.3h-4.1V17.8h-4.7v-3.5h13.5v3.5h-4.7L1644.7,29.3L1644.7,29.3z"/>
		<path class="st1" d="M1658.4,29.3h-7.4V14.4h4.1v4.4h3.3c1.9,0,3.4,0.5,4.5,1.4s1.6,2.2,1.6,3.9c0,1.6-0.5,2.9-1.6,3.8
			C1661.8,28.8,1660.3,29.3,1658.4,29.3z M1655.1,21.8v4.4h2.6c0.9,0,1.5-0.2,2-0.6s0.7-0.9,0.7-1.6s-0.2-1.3-0.7-1.6
			s-1.1-0.6-2-0.6C1657.7,21.8,1655.1,21.8,1655.1,21.8z"/>
	</g>
</g>
<line class="st0" x1="1750" y1="112" x2="1750" y2="0"/>
<g>
	<g>
		<path class="st1" d="M1775.1,29.3h-8.4V9h13.7v3.6h-9.3v4.3h4c2.2,0,3.9,0.5,5.2,1.6c1.3,1,1.9,2.6,1.9,4.6s-0.6,3.6-1.9,4.7
			C1779,28.8,1777.3,29.3,1775.1,29.3z M1771.1,20.5v5.2h3.7c0.9,0,1.7-0.2,2.2-0.7s0.8-1.1,0.8-1.9s-0.3-1.5-0.8-1.9
			s-1.3-0.7-2.3-0.7H1771.1z"/>
		<path class="st1" d="M1798.4,25.8h0.5v3.5h-2.1c-1.9,0-2.8-0.8-2.8-2.4c-1.1,1.7-2.7,2.6-4.9,2.6c-1.7,0-3-0.4-4-1.1
			c-1-0.8-1.5-1.8-1.5-3.2c0-1.6,0.6-2.8,1.8-3.7c1.2-0.9,2.9-1.3,5.1-1.3h3v-0.7c0-0.7-0.2-1.2-0.7-1.6s-1.1-0.6-2-0.6
			c-0.8,0-1.4,0.2-1.9,0.5s-0.8,0.8-0.9,1.3h-3.9c0.2-1.4,0.9-2.6,2.1-3.5s2.8-1.3,4.8-1.3c2.1,0,3.7,0.5,4.9,1.4
			c1.2,0.9,1.7,2.3,1.7,4V25c0,0.4,0.1,0.6,0.2,0.7C1797.8,25.8,1798.1,25.8,1798.4,25.8z M1793.4,23.2v-0.3h-3
			c-0.9,0-1.5,0.2-2,0.5s-0.7,0.8-0.7,1.4c0,0.5,0.2,0.9,0.6,1.2c0.4,0.3,0.9,0.5,1.6,0.5c1.1,0,1.9-0.3,2.5-0.9
			C1793.1,25,1793.4,24.2,1793.4,23.2z"/>
		<path class="st1" d="M1801.3,29.3h-1.3v-3.5h0.6c0.7,0,1.2-0.3,1.5-0.9s0.4-1.8,0.4-3.4v-7.1h12.6v14.9h-4.1V17.8h-4.7v3.8
			c0,2.8-0.4,4.8-1.2,6C1804.3,28.7,1803,29.3,1801.3,29.3z"/>
		<path class="st1" d="M1832.2,25.8h0.5v3.5h-2.1c-1.9,0-2.8-0.8-2.8-2.4c-1.1,1.7-2.7,2.6-4.9,2.6c-1.7,0-3-0.4-4-1.1
			c-1-0.8-1.5-1.8-1.5-3.2c0-1.6,0.6-2.8,1.8-3.7c1.2-0.9,2.9-1.3,5.1-1.3h3v-0.7c0-0.7-0.2-1.2-0.7-1.6s-1.1-0.6-2-0.6
			c-0.8,0-1.4,0.2-1.9,0.5s-0.8,0.8-0.9,1.3h-3.9c0.2-1.4,0.9-2.6,2.1-3.5s2.8-1.3,4.8-1.3c2.1,0,3.7,0.5,4.9,1.4
			c1.2,0.9,1.7,2.3,1.7,4V25c0,0.4,0.1,0.6,0.2,0.7C1831.6,25.8,1831.8,25.8,1832.2,25.8z M1827.2,23.2v-0.3h-3
			c-0.9,0-1.5,0.2-2,0.5s-0.7,0.8-0.7,1.4c0,0.5,0.2,0.9,0.6,1.2c0.4,0.3,0.9,0.5,1.6,0.5c1.1,0,1.9-0.3,2.5-0.9
			C1826.9,25,1827.2,24.2,1827.2,23.2z"/>
		<path class="st1" d="M1844.5,20v-5.7h4.1v14.9h-4.1v-5.8h-6.2v5.8h-4.1V14.4h4.1V20H1844.5z"/>
		<path class="st1" d="M1858.5,29.5c-2.4,0-4.2-0.7-5.6-2c-1.4-1.4-2-3.2-2-5.6c0-2.3,0.7-4.2,2.1-5.6s3.3-2.1,5.6-2.1
			c2,0,3.6,0.5,4.9,1.5c1.2,1,2,2.4,2.3,4.2h-4.3c-0.4-1.6-1.4-2.4-3-2.4c-1.1,0-1.9,0.4-2.6,1.2c-0.6,0.8-1,1.8-1,3.1
			c0,1.3,0.3,2.3,1,3.1c0.6,0.8,1.5,1.2,2.6,1.2c0.8,0,1.4-0.2,2-0.7c0.5-0.4,0.8-1,1-1.8h4.3c-0.3,1.8-1.1,3.2-2.4,4.2
			C1862.2,29,1860.5,29.5,1858.5,29.5z"/>
	</g>
</g>
<g>
	<path class="st2" d="M1000,224h-68.8c-8.6,0-15.6-7-15.6-15.6v-68.8h-81.3v68.8c0,8.6-7,15.6-15.6,15.6H750v81.3h68.8
		c8.6,0,15.6,7,15.6,15.6v68.8h81.3v-68.8c0-8.6,7-15.6,15.6-15.6h68.8V224z"/>
</g>
<g>
	<g>
		<g>
			<path class="st2" d="M1000,139.6l114,114c6.1,6.1,6.1,16,0,22.1l-114,114h124.9l125.1-125l-125.1-125H1000z"/>
		</g>
	</g>
</g>
<g>
	<g>
		<path class="st2" d="M1250,139.6v250h250v-250H1250z M1398.4,303.7h-46.9c-8.6,0-15.6-7-15.6-15.6v-46.9c0-8.6,7-15.6,15.6-15.6
			h46.9c8.6,0,15.6,7,15.6,15.6V288C1414.1,296.7,1407.1,303.7,1398.4,303.7z"/>
	</g>
</g>
<g>
	<g>
		<path class="st2" d="M1625,139.6L1625,139.6c-69,0-125,56-125,125v0c0,69,56,125,125,125h0c69,0,125-56,125-125v0
			C1750,195.6,1694,139.6,1625,139.6z M1665.6,264.6c0,22.4-18.2,40.6-40.6,40.6h0c-22.4,0-40.6-18.2-40.6-40.6v0
			c0-22.4,18.2-40.6,40.6-40.6h0C1647.4,224,1665.6,242.2,1665.6,264.6L1665.6,264.6z"/>
	</g>
</g>
<g>
	<g>
		<g>
			<path class="st2" d="M1875,139.6L1875,139.6l0,84.4l0,0c22.4,0,40.6,18.2,40.6,40.6v0c0,22.4-18.2,40.6-40.6,40.6l0,0v84.4h0
				c69,0,125-56,125-125v0C2000,195.6,1944,139.6,1875,139.6z"/>
		</g>
		<g>
			<path class="st2" d="M1750,224c22.4,0,40.6,18.2,40.6,40.6v0c0,22.4-18.2,40.6-40.6,40.6l0,0v84.4h0c69,0,125-56,125-125v0
				c0-69-56-125-125-125h0V224L1750,224z"/>
		</g>
	</g>
</g>
<g>
	<path class="st2" d="M750,202.1l-62.5-62.5H500l51.5,51.4c6.1,6.1,6.1,16,0,22.1L500,264.6l51.5,51.4c6.1,6.1,6.1,16,0,22.1
		L500,389.6h187.5l62.5-62.5l-51.5-51.4c-6.1-6.1-6.1-16,0-22.1L750,202.1z"/>
</g>
<path class="st2" d="M250,139.6l109,109c5.9,5.9,1.7,16-6.6,16H250l125,125V287.2c0-8.4,10.1-12.5,16-6.6l109,109v-250H250z"/>
<g>
	<path class="st2" d="M136.1,275.7c-6.1-6.1-6.1-16,0-22.1l114-114.1H0.1L114,253.5c6.1,6.1,6.1,16,0,22.1L0,389.6h249.9
		L136.1,275.7z"/>
</g>
</svg>
