<?xml version="1.0" encoding="utf-8"?>
<!-- Generator: Adobe Illustrator 22.0.0, SVG Export Plug-In . SVG Version: 6.00 Build 0)  -->
<svg version="1.1" id="Layer_1" xmlns="http://www.w3.org/2000/svg" xmlns:xlink="http://www.w3.org/1999/xlink" x="0px" y="0px"
	 viewBox="0 0 2000 1100" style="enable-background:new 0 0 2000 1100;" xml:space="preserve">
<style type="text/css">
	.st0{fill:#0099FF;}
	.st1{opacity:0.2;}
	.st2{fill:none;stroke:#FFFFFF;stroke-width:3;stroke-miterlimit:10;}
	.st3{fill:#FFCA00;}
	.st4{fill:#000D37;}
	.st5{fill:#00D76F;}
	.st6{fill:none;stroke:#000D37;stroke-width:1.4135;stroke-miterlimit:10;}
	.st7{fill:none;stroke:#000D37;stroke-miterlimit:10;}
</style>
<rect class="st0" width="2000" height="1100"/>
<g class="st1">
	<g>
		<path class="st2" d="M-1368.7,137.9h685.3V305h-243.4v564.2h-198.6V305h-243.4V137.9z"/>
		<path class="st2" d="M-308.4,341.5v199.6c0,0-32.3-18.9-97.2-18.9c-96.2,0-137.9,55.4-137.9,127.5v219.4h-181.7V346.7h181.9v90.9
			h9.4c0,0,41.8-101.4,180.7-101.4C-330.3,336.3-308.4,341.5-308.4,341.5z"/>
		<path class="st2" d="M-49.2,336.3c133.7,0,178.7,100.2,178.7,100.2h8.4v-89.8h181.6v328.1c0,37.6,9.4,48,29.3,48
			c11.5,0,18.9-3.2,18.9-3.2V869c0,0-20.9,10.4-74.1,10.4c-124.3,0-147.4-101.4-147.4-101.4h-8.4c-2,6.2-41.8,101.4-186.9,101.4
			c-131.7,0-243.4-93-243.4-271.7C-292.7,429.3-180.9,336.3-49.2,336.3z M15.5,720.8c75.3,0,122.3-43.8,122.3-112.8
			c0-65.9-44-112.8-122.3-112.8c-77.3,0-122.3,47-122.3,112.8C-106.8,673.8-61.8,720.8,15.5,720.8z"/>
		<path class="st2" d="M798.9,869.2H534.7L351.8,346.7H543l119.1,374h9.4l119.1-374h191.2L798.9,869.2z"/>
		<path class="st2" d="M1171.8,643.5c1,62.7,33.3,110.6,117,110.6c75.3,0,97.2-53.2,97.2-53.2h194.4c0,0-20.9,178.7-291.5,178.7
			c-179.7,0-307.2-90.9-307.2-271.7c0-179.7,127.5-271.7,306-271.7c176.5,0,305,92,305,271.7c0,15.7-3.2,35.5-3.2,35.5H1171.8
			L1171.8,643.5z M1176,550.5h220.5c0-38.7-34.5-88.8-108.6-88.8C1213.7,461.6,1176,509.8,1176,550.5z"/>
		<path class="st2" d="M1655.5,137.9h181.7v502.5c0,66.9,21.9,90.9,70.1,90.9c26.1,0,42.8-7.2,42.8-7.2v143.2
			c0,0-28.1,12.5-87.7,12.5c-126.5,0-206.8-68.9-206.8-221.5L1655.5,137.9L1655.5,137.9z"/>
		<path class="st2" d="M2595.8,612.2c0-74.1-41.8-117-113.8-117c-78.3,0-114.9,49.2-114.9,117v257h-181.7V346.7h181.6v90.9h9.4
			c0,0,38.7-101.4,188.1-101.4c124.3,0,213,67.9,213,223.5V869h-181.7V612.2L2595.8,612.2z"/>
		<path class="st2" d="M3025,643.5c1,62.7,33.3,110.6,117,110.6c75.3,0,97.2-53.2,97.2-53.2h194.4c0,0-20.9,178.7-291.5,178.7
			c-179.7,0-307.2-90.9-307.2-271.7c0-179.7,127.5-271.7,306-271.7c176.5,0,305,92,305,271.7c0,15.7-3.2,35.5-3.2,35.5H3025
			L3025,643.5z M3029.3,550.5h220.5c0-38.7-34.5-88.8-108.6-88.8C3066.8,461.6,3029.3,509.8,3029.3,550.5z"/>
		<path class="st2" d="M3872.2,869.2h-264.2L3425,346.9h191.2l119.1,374h9.4l119.1-374h191.2L3872.2,869.2z"/>
		<path class="st2" d="M4245.2,643.5c1,62.7,33.3,110.6,117,110.6c75.3,0,97.2-53.2,97.2-53.2h194.4c0,0-20.9,178.7-291.5,178.7
			c-179.7,0-307.2-90.9-307.2-271.7c0-179.7,127.5-271.7,306-271.7c176.5,0,305,92,305,271.7c0,15.7-3.2,35.5-3.2,35.5H4245.2
			L4245.2,643.5z M4249.4,550.5h220.5c0-38.7-34.5-88.8-108.6-88.8C4287,461.6,4249.4,509.8,4249.4,550.5z"/>
		<path class="st2" d="M5145.6,341.5v199.6c0,0-32.3-18.9-97.2-18.9c-96.2,0-137.9,55.4-137.9,127.5v219.4h-181.7V346.7h181.7v90.9
			h9.4c0,0,41.8-101.4,180.7-101.4C5123.7,336.3,5145.6,341.5,5145.6,341.5z"/>
		<path class="st2" d="M-1381.7,1666.1c-133.7,0-178.7-100.2-178.7-100.2h-8.4v89.8h-181.7V924.4h181.7v266.4h7.2
			c0,0,51.2-67.9,179.7-67.9c131.7,0,243.4,93,243.4,271.7C-1138.3,1573.1-1250.2,1666.1-1381.7,1666.1z M-1446.5,1281.6
			c-75.3,0-122.3,43.8-122.3,112.8c0,65.8,44,112.8,122.3,112.8c77.3,0,122.3-47,122.3-112.8
			C-1324.3,1328.6-1369.2,1281.6-1446.5,1281.6z"/>
		<path class="st2" d="M-853.2,1122.8c133.7,0,178.7,100.2,178.7,100.2h8.4v-89.8h181.7v328.1c0,37.6,9.4,48,29.3,48
			c11.5,0,18.9-3.2,18.9-3.2v149.4c0,0-20.9,10.4-74.1,10.4c-124.3,0-147.4-101.4-147.4-101.4h-8.4c-2,6.2-41.8,101.4-186.9,101.4
			c-131.7,0-243.4-93-243.4-271.7C-1096.6,1215.8-984.7,1122.8-853.2,1122.8z M-788.4,1507.3c75.3,0,122.3-43.8,122.3-112.8
			c0-65.8-44-112.8-122.3-112.8c-77.3,0-122.3,47-122.3,112.8S-865.7,1507.3-788.4,1507.3z"/>
		<path class="st2" d="M-166.7,1122.8C-33,1122.8,11.9,1223,11.9,1223h8.4v-89.8h181.7v444.1c0,206.8-120.1,297.8-359.4,297.8
			c-78.3,0-120.1-18.9-120.1-18.9v-147.4c0,0,33.3,17.7,110.8,17.7c114.9,0,185.9-34.5,185.9-154.6h-6.2c0,0-40.8,83.5-174.5,83.5
			c-136.9,0-248.6-82.5-248.6-261.2C-410.3,1215.8-298.4,1122.8-166.7,1122.8z M-102.1,1496.8c75.3,0,122.3-38.7,122.3-107.6
			c0-65.8-44-107.6-122.3-107.6c-77.3,0-122.3,41.8-122.3,107.6C-224.3,1455.1-179.4,1496.8-102.1,1496.8z"/>
		<path class="st2" d="M508.1,1122.8c133.7,0,178.7,100.2,178.7,100.2h8.4v-89.8h181.7v444.1c0,206.8-120.1,297.8-359.4,297.8
			c-78.3,0-120.1-18.9-120.1-18.9v-147.4c0,0,33.3,17.7,110.8,17.7c114.9,0,185.9-34.5,185.9-154.6H688c0,0-40.8,83.5-174.5,83.5
			c-136.9,0-248.6-82.5-248.6-261.2C264.6,1215.8,376.4,1122.8,508.1,1122.8z M572.8,1496.8c75.3,0,122.3-38.7,122.3-107.6
			c0-65.8-44-107.6-122.3-107.6c-77.3,0-122.3,41.8-122.3,107.6C450.5,1455.1,495.5,1496.8,572.8,1496.8z"/>
		<path class="st2" d="M1129.5,1430c1,62.7,33.3,110.6,117,110.6c75.3,0,97.2-53.2,97.2-53.2h194.4c0,0-20.9,178.7-291.5,178.7
			c-179.7,0-307.2-90.9-307.2-271.7c0-179.7,127.5-271.7,306-271.7c176.5,0,305,92,305,271.7c0,15.7-3.2,35.5-3.2,35.5H1129.5z
			 M1133.8,1337h220.5c0-38.7-34.5-88.8-108.6-88.8C1171.3,1248.3,1133.8,1296.3,1133.8,1337z"/>
		<path class="st2" d="M1835.7,1122.8c128.5,0,179.7,67.9,179.7,67.9h7.2V924.4h181.7v731.3h-181.7v-89.8h-8.4
			c0,0-45,100.2-178.7,100.2c-131.7,0-243.4-93-243.4-271.7C1592.3,1215.8,1704.2,1122.8,1835.7,1122.8z M1900.5,1507.3
			c78.3,0,122.3-47,122.3-112.8c0-68.9-47-112.8-122.3-112.8c-77.3,0-122.3,47-122.3,112.8S1823.2,1507.3,1900.5,1507.3z"/>
		<path class="st2" d="M2719.5,1122.8c128.5,0,179.7,67.9,179.7,67.9h7.2V924.4h181.7v731.3h-181.7v-89.8h-8.4
			c0,0-45,100.2-178.7,100.2c-131.7,0-243.4-93-243.4-271.7S2587.8,1122.8,2719.5,1122.8z M2784.2,1507.3
			c78.3,0,122.3-47,122.3-112.8c0-68.9-47-112.8-122.3-112.8c-77.3,0-122.3,47-122.3,112.8
			C2662.1,1460.3,2706.9,1507.3,2784.2,1507.3z"/>
		<path class="st2" d="M3763,1394.5c0,179.7-127.5,271.7-306,271.7c-178.7,0-306-92-306-271.7s127.5-271.7,306-271.7
			C3635.7,1122.8,3763,1214.8,3763,1394.5z M3577.1,1394.5c0-68.9-48-114.9-120.1-114.9c-72.1,0-120.1,46-120.1,114.9
			c0,68.9,48,114.9,120.1,114.9C3529.1,1509.3,3577.1,1463.5,3577.1,1394.5z"/>
		<path class="st2" d="M4147.5,1655.7h-242.3l-131.7-522.3h183.9l74.1,363.6h7.2l93-363.6H4349l93,363.6h7.2l74.1-363.6h183.9
			l-131.7,522.3h-242.3l-89.8-345.8h-6.2L4147.5,1655.7z"/>
		<path class="st2" d="M5149.3,1398.7c0-74.1-41.8-117-113.8-117c-78.3,0-114.9,49.2-114.9,117v257h-181.7v-522.4h181.7v90.9h9.4
			c0,0,38.7-101.4,188.1-101.4c124.3,0,213,67.9,213,223.5v309.2h-181.7v-256.8H5149.3z"/>
		<path class="st2" d="M5481.5,1471.8c62.6,0,103.4,36.5,103.4,97.2s-40.8,97.2-103.4,97.2c-62.7,0-103.4-36.5-103.4-97.2
			S5418.9,1471.8,5481.5,1471.8z"/>
	</g>
</g>
<g>
	<g>
		<path class="st3" d="M63.1,510.3v36h-9.8v-36H63.1z"/>
		<path class="st3" d="M79.4,523.6l-2.1-4.8h-1l1.7,4.8v22.8h-9.8v-36H84l9.2,22.8l2.1,4.8h1l-1.7-4.8v-22.8h9.8v36H88.6L79.4,523.6
			z"/>
		<path class="st3" d="M106.4,510.3h33.8v8.2h-12v27.8h-9.8v-27.8h-12C106.4,518.5,106.4,510.3,106.4,510.3z"/>
		<path class="st3" d="M142.3,510.3H173v7.8h-21v6.1h17.5v7.4H152v6.9h21v7.8h-30.8v-36H142.3z"/>
		<path class="st3" d="M186.9,546.3h-9.8v-36h16.2c10.9,0,15.2,3.8,15.2,11.9c0,8.2-6.1,10.4-6.1,10.4v0.2l8.9,13.6h-10.9l-7.5-11.8
			h-6L186.9,546.3L186.9,546.3z M193.4,518.4H187v7.9h6.4c3.3,0,4.9-1.2,4.9-4S196.7,518.4,193.4,518.4z"/>
		<path class="st3" d="M224.6,523.6l-2.1-4.8h-1l1.7,4.8v22.8h-9.8v-36h15.8l9.2,22.8l2.1,4.8h1l-1.7-4.8v-22.8h9.8v36h-15.8
			L224.6,523.6z"/>
		<path class="st3" d="M291.8,546.3h-10.2l-2.2-5.5H263l-2.2,5.5h-10.2l14.4-36h12.5L291.8,546.3z M271.5,519.8h-0.6l-5.1,13.6h10.9
			L271.5,519.8z"/>
		<path class="st3" d="M286.2,510.3H320v8.2h-12v27.8h-9.8v-27.8h-12V510.3z"/>
		<path class="st3" d="M331.8,510.3v36H322v-36H331.8z"/>
		<path class="st3" d="M354.9,546.8c-11.6,0-19-6.9-19-18.5s7.4-18.5,19-18.5s19,6.9,19,18.5S366.6,546.8,354.9,546.8z M354.9,518.2
			c-6.1,0-8.8,4.5-8.8,10.1s2.7,10.1,8.8,10.1c6.1,0,8.8-4.5,8.8-10.1S361,518.2,354.9,518.2z"/>
		<path class="st3" d="M389.3,523.6l-2.1-4.8h-1l1.7,4.8v22.8h-9.8v-36h15.8l9.2,22.8l2.1,4.8h1l-1.7-4.8v-22.8h9.8v36h-15.8
			L389.3,523.6z"/>
		<path class="st3" d="M456.5,546.3h-10.2l-2.2-5.5h-16.4l-2.2,5.5h-10.2l14.4-36h12.5L456.5,546.3z M436.2,519.8h-0.6l-5.1,13.6
			h10.9L436.2,519.8z"/>
		<path class="st3" d="M487.5,546.3h-30v-36h9.8v27.8h20.2V546.3z"/>
		<path class="st3" d="M164.2,554.2H198v8.2h-12v27.8h-9.8v-27.8h-12V554.2z"/>
		<path class="st3" d="M209.8,590.2H200v-36h16.2c10.9,0,15.2,3.8,15.2,11.9c0,8.2-6.1,10.4-6.1,10.4v0.2l8.9,13.6h-10.9l-7.5-11.8
			h-6L209.8,590.2L209.8,590.2z M216.3,562.3h-6.4v7.9h6.4c3.3,0,4.9-1.2,4.9-4S219.6,562.3,216.3,562.3z"/>
		<path class="st3" d="M273.5,590.2h-10.2l-2.2-5.5h-16.4l-2.2,5.5h-10.2l14.4-36H259L273.5,590.2z M253.1,563.7h-0.6l-5.1,13.6
			h10.9L253.1,563.7z"/>
		<path class="st3" d="M294.4,590.2H281l-12.2-36h10.3l8.1,26.5h0.9l8.1-26.5h10.3L294.4,590.2z"/>
		<path class="st3" d="M308.7,554.2h30.8v7.8h-21v6.1H336v7.4h-17.5v6.9h21v7.8h-30.8V554.2z"/>
		<path class="st3" d="M373.5,590.2h-30v-36h9.8V582h20.2V590.2z"/>
	</g>
</g>
<g>
	<g>
		<path class="st4" d="M171.5,188v33.6h-16.7V188h-8.5v-9.2l8.5-3.6v-1c0-13.6,8-20.6,24.6-20.6c6.3,0,10.4,2.2,10.4,2.2V169
			c0,0-3.2-2.2-7.9-2.2c-6.3,0-10.4,3-10.4,7.4v1H185V188H171.5z"/>
		<path class="st4" d="M227.5,173.2v18.3c0,0-3-1.7-8.9-1.7c-8.8,0-12.7,5.1-12.7,11.7v20.1h-16.7v-47.9h16.7v8.3h0.9
			c0,0,3.8-9.3,16.6-9.3C225.4,172.7,227.5,173.2,227.5,173.2z"/>
		<path class="st4" d="M285.1,197.7c0,16.5-11.7,24.9-28.1,24.9s-28.1-8.4-28.1-24.9s11.7-24.9,28.1-24.9S285.1,181.2,285.1,197.7z
			 M268,197.7c0-6.3-4.4-10.5-11-10.5s-11,4.2-11,10.5s4.4,10.5,11,10.5S268,204,268,197.7z"/>
		<path class="st4" d="M354.5,197.1c0-5.7-1.9-9.8-7.5-9.8c-5.5,0-7.7,3.6-7.7,9.2v25.1h-16.7v-24.5c0-5.7-1.8-9.8-7.6-9.8
			c-5.6,0-7.6,3.9-7.6,9.8v24.5h-16.7v-47.9h16.7v8.3h0.8c0,0,2.9-9.3,14.4-9.3c12.4,0,14.9,9.3,14.9,9.3h0.8c0,0,2.7-9.3,14.3-9.3
			c12,0,18.6,6.3,18.6,20.5v28.4h-16.7L354.5,197.1L354.5,197.1z"/>
		<path class="st4" d="M154.9,226.7h16.7v46.1c0,6.1,2,8.3,6.4,8.3c2.4,0,3.9-0.7,3.9-0.7v13.1c0,0-2.6,1.2-8.1,1.2
			c-11.6,0-19-6.3-19-20.3v-47.7H154.9z"/>
		<path class="st4" d="M193.7,225.7c5.5,0,8.9,2.7,8.9,7.2s-3.5,7.2-8.9,7.2s-8.9-2.7-8.9-7.2S188.3,225.7,193.7,225.7z
			 M202.1,293.8h-16.7v-47.9h16.7V293.8z"/>
		<path class="st4" d="M230.1,244.9c12.3,0,16.4,9.2,16.4,9.2h0.8v-8.2H264v40.7c0,19-11,27.3-33,27.3c-7.2,0-11-1.7-11-1.7v-13.5
			c0,0,3.1,1.6,10.2,1.6c10.5,0,17.1-3.2,17.1-14.2h-0.6c0,0-3.7,7.7-16,7.7c-12.6,0-22.8-7.6-22.8-24S218.1,244.9,230.1,244.9z
			 M236.1,279.2c6.9,0,11.2-3.5,11.2-9.9c0-6-4-9.9-11.2-9.9c-7.1,0-11.2,3.8-11.2,9.9S229,279.2,236.1,279.2z"/>
		<path class="st4" d="M309.3,270.2c0-6.8-3.8-10.7-10.4-10.7c-7.2,0-10.5,4.5-10.5,10.7v23.6h-16.7v-67.1h16.7v27.5h0.9
			c0,0,3.5-9.3,17.3-9.3c11.4,0,19.6,6.2,19.6,20.5v28.4h-16.7v-23.6H309.3z"/>
		<path class="st4" d="M335.9,258.7h-6.5v-8.6l14.5-13.8h8.7v9.6h13.6v12.8h-13.6v14.2c0,6.5,3.6,8.2,8.7,8.2c3.7,0,6.3-1.4,6.3-1.4
			v13.4c0,0-3.3,1.6-8.9,1.6c-15.2,0-22.8-5.8-22.8-19.7L335.9,258.7L335.9,258.7z"/>
	</g>
</g>
<g>
	<g>
		<path class="st4" d="M1053,175.7c0,0,35,4.1,35,41.2c0,30.2-22.6,44-59,44h-64.9V99.7h66.6c29.5,0,47.7,15.4,47.7,40.1
			C1078.4,169.5,1053,175.7,1053,175.7z M1030.5,106.6h-59.4v66.3h62.2c21.2,0,38.2-11.7,38.2-33.2
			C1071.5,119.7,1056.3,106.6,1030.5,106.6z M1033.2,179.8H971V254h58c31.8,0,52-11.5,52-37.1
			C1081.1,196.9,1067.1,179.8,1033.2,179.8z"/>
		<path class="st4" d="M1167.3,263.2c-34.3,0-58.5-23.7-58.5-57.6s24.2-57.6,58.5-57.6s58.5,23.7,58.5,57.6
			S1201.6,263.2,1167.3,263.2z M1167.3,154.9c-31.8,0-51.6,22.3-51.6,50.7s19.8,50.7,51.6,50.7s51.6-22.3,51.6-50.7
			S1199,154.9,1167.3,154.9z"/>
		<path class="st4" d="M1361.2,257c0,36.2-27.2,52.3-56.9,52.3c-33.6,0-53.9-19.3-53.9-38.2h6.9c0,16.4,19.3,31.3,47,31.3
			c25.3,0,50-12.9,50-45.4v-22.6h-0.5c0,0-12.7,28.8-51.1,28.8c-34.3,0-58.5-23.7-58.5-57.6s24.2-57.6,58.5-57.6
			c39.4,0,51.1,28.8,51.1,28.8h0.5v-26.5h6.9V257z M1302.7,256.3c31.1,0,51.6-21.9,51.6-50.7c0-27.9-19.8-50.7-51.6-50.7
			s-51.6,22.3-51.6,50.7S1270.9,256.3,1302.7,256.3z"/>
		<path class="st4" d="M1445,263.2c-34.3,0-58.5-23.7-58.5-57.6s24.2-57.6,58.5-57.6s58.5,23.7,58.5,57.6S1479.3,263.2,1445,263.2z
			 M1445,154.9c-31.8,0-51.6,22.3-51.6,50.7s19.8,50.7,51.6,50.7s51.6-22.3,51.6-50.7S1476.8,154.9,1445,154.9z"/>
		<path class="st4" d="M1534.5,157.3h-20.7v-6.9h20.7v-27.6h6.9v27.6h49.5v6.9h-49.5v65.4c0,24.6,13.4,33.6,31.1,33.6
			c15.4,0,23-6.7,23-6.7v7.8c0,0-9.9,5.8-23.7,5.8c-19.8,0-37.3-10.1-37.3-39.4V157.3z"/>
		<path class="st4" d="M1710.3,238.5v-4.1h-0.5c0,0-12.7,28.8-51.1,28.8c-34.3,0-58.5-23.7-58.5-57.6s24.2-57.6,58.5-57.6
			c39.4,0,51.1,28.8,51.1,28.8h0.5v-26.5h6.9v88.2c0,9.4,3.2,17,13.1,17c4.8,0,7.6-1.8,7.6-1.8v6.4c0,0-2.5,1.8-7.6,1.8
			C1713.7,262,1710.3,248.9,1710.3,238.5z M1658.7,256.3c31.1,0,51.6-21.9,51.6-50.7c0-27.9-19.8-50.7-51.6-50.7
			s-51.6,22.3-51.6,50.7S1626.9,256.3,1658.7,256.3z"/>
		<path class="st4" d="M1028.5,270.8c48.4,0,78.3,35.9,78.3,82.9s-29.9,82.9-78.3,82.9s-78.3-35.9-78.3-82.9
			S980.2,270.8,1028.5,270.8z M1028.5,280.4c-42.6,0-67.9,32-67.9,73.2s25.3,73.2,67.9,73.2c42.6,0,67.9-32,67.9-73.2
			S1071.1,280.4,1028.5,280.4z"/>
		<path class="st4" d="M1139.7,332.9h-20.3v-9.2h20.3v-27.6h9.9v27.6h47v9.2h-47v62.6c0,24.4,14.5,31.8,30.2,31.8
			c12.2,0,20.3-6.2,20.3-6.2v9.7c0,0-8.5,5.8-21.6,5.8c-19.8,0-38.7-10.6-38.7-39.8v-63.9H1139.7z"/>
		<path class="st4" d="M1224.9,332.9h-20.3v-9.2h20.3v-27.6h9.9v27.6h47v9.2h-47v62.6c0,24.4,14.5,31.8,30.2,31.8
			c12.2,0,20.3-6.2,20.3-6.2v9.7c0,0-8.5,5.8-21.6,5.8c-19.8,0-38.7-10.6-38.7-39.8v-63.9H1224.9z"/>
		<path class="st4" d="M1399.5,411.2h-0.9c0,0-12.4,25.3-48.4,25.3c-34.3,0-59.2-23.7-59.2-57.6s24.9-57.6,59.2-57.6
			c35.9,0,48.4,25.3,48.4,25.3h0.9v-23h9.9v85.7c0,11.3,3.5,17.5,12.2,17.5c4.8,0,7.4-1.8,7.4-1.8v8.8c0,0-3,1.8-8.5,1.8
			c-14.7,0-21-12.4-21-22.3V411.2z M1350.2,427.4c27.6,0,49.3-19.8,49.3-48.4s-21.4-48.4-49.3-48.4c-29.9,0-49.3,21.4-49.3,48.4
			S1320.3,427.4,1350.2,427.4z"/>
		<path class="st4" d="M1553.1,425.3h0.5l30.9-101.6h9.9l-34.1,110.5h-13.1L1512,332.9h-0.5l-35.2,101.3H1463l-34-110.5h9.9
			l30.9,101.6h0.5l34.8-101.6h6.7h6.7L1553.1,425.3z"/>
		<path class="st4" d="M1713.1,411.2h-0.9c0,0-12.4,25.3-48.4,25.3c-34.3,0-59.2-23.7-59.2-57.6s24.9-57.6,59.2-57.6
			c35.9,0,48.4,25.3,48.4,25.3h0.9v-23h9.9v85.7c0,11.3,3.5,17.5,12.2,17.5c4.8,0,7.4-1.8,7.4-1.8v8.8c0,0-3,1.8-8.5,1.8
			c-14.7,0-21-12.4-21-22.3V411.2z M1663.8,427.4c27.6,0,49.3-19.8,49.3-48.4s-21.4-48.4-49.3-48.4c-29.9,0-49.3,21.4-49.3,48.4
			S1633.9,427.4,1663.8,427.4z"/>
		<path class="st4" d="M934.9,562.5h-19.3L861,463.7h-0.7v143.9h-15.2V446.5h23.7L925,548.9h0.2h0.2l56.2-102.5h23.7v161.2h-15.2
			V463.7h-0.7L934.9,562.5z"/>
		<path class="st4" d="M1047.3,560c0,4.6,8.5,36.2,45.4,36.2c26.7,0,37.1-17,37.1-17h17.3c0,0-13.4,30.9-54.3,30.9
			c-35.7,0-60.8-23.9-60.8-58.7s25.6-58.7,60.3-58.7c34.8,0,60.3,23.9,60.3,58.7c0,4.8-0.7,8.8-0.7,8.8h-104.6V560z M1092.2,506.3
			c-31.8,0-45.4,25.8-45.4,40.3h90.7C1137.6,532.1,1124,506.3,1092.2,506.3z"/>
		<path class="st4" d="M1175.5,446.5h14.3v126.4c0,19.1,6.2,23.7,17.3,23.7c6.7,0,9.9-1.8,9.9-1.8v13.1c0,0-3.7,2.1-12,2.1
			c-18.2,0-29.5-10.4-29.5-37.1L1175.5,446.5L1175.5,446.5z"/>
		<path class="st4" d="M1240.3,588.3h-0.9v19.3h-14.3V446.5h14.3v67.7h0.9c0.2,0,12.2-21.6,45.8-21.6c33.6,0,59.2,23.9,59.2,58.7
			s-25.6,58.7-59.2,58.7C1252.5,610,1240.5,588.3,1240.3,588.3z M1284.9,506.3c-26.7,0-45.6,18.4-45.6,44.9s18.9,44.9,45.6,44.9
			c27.4,0,45.6-19.8,45.6-44.9S1312.3,506.3,1284.9,506.3z"/>
		<path class="st4" d="M1462.2,589.2c0,0-9.7,20.7-43.5,20.7c-27.2,0-50.4-15.4-50.4-52v-63.1h14.3v60.3c0,30.2,17.7,41.5,39.8,41.5
			c26.3,0,39.4-17.3,39.8-40.1v-61.7h14.3v87c0,11.1,3.2,14.7,11.1,14.7c4.8,0,6.9-1.4,6.9-1.4v12.4c0,0-3,1.6-9.2,1.6
			c-21.9,0-22.3-20-22.3-20L1462.2,589.2L1462.2,589.2z"/>
		<path class="st4" d="M1578.5,494.6v15c0,0-6.2-2.3-15.9-2.3c-27.4,0-41.2,21.9-41.2,46.1v54.3h-14.3V494.8h14.3v22.8h0.9
			c0,0,9.7-25.1,42.1-25.1C1572.3,492.5,1578.5,494.6,1578.5,494.6z"/>
		<path class="st4" d="M1686.3,547.3c0-30.2-17.7-41.5-39.8-41.5c-26.9,0-39.8,18.2-39.8,41.9v59.9h-14.3V494.8h14.3v17.7h0.9
			c0,0,10.1-20,42.6-20c27.2,0,50.4,15.4,50.4,52v63.1h-14.3L1686.3,547.3L1686.3,547.3z"/>
		<path class="st4" d="M1737.9,560c0,4.6,8.5,36.2,45.4,36.2c26.7,0,37.1-17,37.1-17h17.3c0,0-13.4,30.9-54.3,30.9
			c-35.7,0-60.8-23.9-60.8-58.7s25.6-58.7,60.3-58.7c34.8,0,60.3,23.9,60.3,58.7c0,4.8-0.7,8.8-0.7,8.8h-104.6V560z M1782.8,506.3
			c-31.8,0-45.4,25.8-45.4,40.3h90.7C1828.2,532.1,1814.6,506.3,1782.8,506.3z"/>
		<path class="st4" d="M801.8,781h-36.4V619.8h69.1c46.3,0,66.1,16.8,66.1,52.3c0,38.2-28.8,46.3-28.8,46.3l40.1,62.6h-41
			l-35.5-55.5h-33.6L801.8,781L801.8,781z M834.5,650.5h-32.7v44.4h32.7c18.7,0,28.1-6.4,28.1-22.1
			C862.6,656.9,852.9,650.5,834.5,650.5z"/>
		<path class="st4" d="M978.7,663.6c38,0,65.6,21.6,65.6,59.9s-27.6,59.9-65.6,59.9s-65.6-21.6-65.6-59.9S940.7,663.6,978.7,663.6z
			 M978.7,692.1c-20.3,0-31.5,13.6-31.5,31.3s11.3,31.3,31.5,31.3s31.5-13.6,31.5-31.3C1010.2,705.7,998.9,692.1,978.7,692.1z"/>
		<path class="st4" d="M1121.4,663.6c45.6,0,64.3,31.1,64.3,49.5h-34.1c0,0-4.4-21-30.2-21c-20.3,0-31.5,13.6-31.5,31.3
			s11.3,31.3,31.5,31.3c25.8,0,30.2-21,30.2-21h34.1c0,18.4-18.7,49.5-64.3,49.5c-38,0-65.6-21.6-65.6-59.9
			S1083.4,663.6,1121.4,663.6z"/>
		<path class="st4" d="M1292.3,723c0-20-11.7-29.9-29.2-29.9c-19.3,0-29.2,12.7-29.2,29.9v58h-33.2V619.8h33.2V685h1.8
			c0,0,9-21.4,41.5-21.4c27.2,0,48.4,15.2,48.4,50.2V781h-33.2v-58H1292.3z"/>
		<path class="st4" d="M1375.2,732.2c0,12.7,10.1,25.3,31.3,25.3c19.6,0,25.8-11.5,25.8-11.5h36.4c0,0-6.9,37.3-62.2,37.3
			c-38.5,0-66.1-21.4-66.1-59.9s27.6-59.9,65.6-59.9c37.8,0,65.4,21.4,65.4,59.9c0,4.1-0.7,8.8-0.7,8.8L1375.2,732.2L1375.2,732.2z
			 M1375.7,712h60.6c0-9.2-9-22.6-30.2-22.6C1385.3,689.4,1375.7,702.7,1375.7,712z"/>
		<path class="st4" d="M1561.5,701.6c0-5.5-0.7-13.4-23-13.4c-15.9,0-21.4,4.6-21.4,10.6c0,19.3,83.8-2.8,83.8,47.7
			c0,26.5-24,36.8-60.3,36.8c-35.9,0-59.9-10.4-59.9-39.1v-3.7h34.1v3.7c0,10.6,8.1,14.5,25.8,14.5c18.7,0,26.3-3.9,26.3-11.7
			c0-22.1-83.8,1.4-83.8-48.4c0-23.3,21.9-35,56.2-35c34.8,0,56.4,11.5,56.4,38L1561.5,701.6L1561.5,701.6z"/>
		<path class="st4" d="M1616.5,692.6h-16.8v-19.1l32-30.6h18v23h35.9v26.7h-35.9v40.5c0,18.4,9.7,22.6,22.6,22.6
			c10.4,0,16.8-4.1,16.8-4.1v27.6c0,0-8.5,4.1-21.6,4.1c-32.9,0-50.9-13.6-50.9-45.8L1616.5,692.6L1616.5,692.6z"/>
		<path class="st4" d="M1726.1,732.2c0,12.7,10.1,25.3,31.3,25.3c19.6,0,25.8-11.5,25.8-11.5h36.4c0,0-6.9,37.3-62.2,37.3
			c-38.5,0-66.1-21.4-66.1-59.9s27.6-59.9,65.6-59.9c37.8,0,65.4,21.4,65.4,59.9c0,4.1-0.7,8.8-0.7,8.8L1726.1,732.2L1726.1,732.2z
			 M1726.6,712h60.6c0-9.2-9-22.6-30.2-22.6C1736.3,689.4,1726.6,702.7,1726.6,712z"/>
		<path class="st4" d="M1925.1,664.7v36.6c0,0-7.4-3.5-20-3.5c-22.3,0-33.4,14.3-33.4,32.2v51h-33.2V665.9h33.2v21.2h1.8
			c0,0,9-23.5,40.1-23.5C1919.1,663.6,1925.1,664.7,1925.1,664.7z"/>
		<path class="st4" d="M991.8,790.9c49.5,0,82.7,26.9,82.7,66.8H1022c0,0-0.7-23.7-30.2-23.7c-24.4,0-32,17.5-32,39.8
			s7.6,39.8,32,39.8c29.5,0,30.2-23.7,30.2-23.7h52.5c0,39.8-33.2,66.8-82.7,66.8c-52.5,0-85-29.9-85-82.9
			C906.8,820.9,939.3,790.9,991.8,790.9z"/>
		<path class="st4" d="M1134.3,894.8c0,12.7,7.4,21.6,21.9,21.6c14.3,0,21.9-9,21.9-21.6v-55.5h46.1v97.9
			c0,45.8-26.3,65.6-81.8,65.6c-17.7,0-28.8-4.4-28.8-4.4v-36.2c0,0,8.5,3.7,24.4,3.7c26.3,0,40.1-7.4,40.1-28.8h-1.6
			c0,0-7.6,17.3-38.7,17.3c-29.9,0-49.5-15-49.5-48.4v-66.8h46.1L1134.3,894.8L1134.3,894.8z"/>
		<path class="st4" d="M1339.3,837.7v51.1c0,0-8.3-4.6-23-4.6c-19.8,0-27.6,10.4-27.6,24.2v46.1h-46.1V839.3h46.1V860h2.3
			c0,0,8.1-23,39.1-23C1332.8,837,1339.3,837.7,1339.3,837.7z"/>
		<path class="st4" d="M1390.2,903.8c0.2,15,6.2,21.9,20.5,21.9c14,0,17.5-10.4,17.5-10.4h49.1c0,0-2.8,41.5-66.6,41.5
			c-40.3,0-69.1-18.9-69.1-59.9c0-40.8,28.8-59.9,69.1-59.9s69.1,19.1,69.1,59.9c0,3-0.7,6.9-0.7,6.9H1390.2z M1391.5,883h37.5
			c0-7.8-6.2-16.1-18.4-16.1S1391.5,874.5,1391.5,883z"/>
		<path class="st4" d="M1581.1,898.9c0-12.7-7.6-21.6-21.9-21.6c-14.5,0-21.9,9-21.9,21.6v55.5h-46.1V839.3h46.1V860h2.3
			c0,0,8.3-23,41.5-23c27.6,0,46.1,15,46.1,48.4v69.1h-46.1V898.9z"/>
		<path class="st4" d="M1687.2,903.8c0.2,15,6.2,21.9,20.5,21.9c14,0,17.5-10.4,17.5-10.4h49.1c0,0-2.8,41.5-66.6,41.5
			c-40.3,0-69.1-18.9-69.1-59.9c0-40.8,28.8-59.9,69.1-59.9s69.1,19.1,69.1,59.9c0,3-0.7,6.9-0.7,6.9H1687.2z M1688.6,883h37.5
			c0-7.8-6.2-16.1-18.4-16.1S1688.6,874.5,1688.6,883z"/>
	</g>
</g>
<g>
	<g>
		<path class="st4" d="M198.5,752.5h62.9v15.3H239v51.8h-18.2v-51.8h-22.3V752.5z"/>
		<path class="st4" d="M309.9,795.7c0,16.5-11.7,24.9-28.1,24.9s-28.1-8.4-28.1-24.9s11.7-24.9,28.1-24.9S309.9,779.2,309.9,795.7z
			 M292.8,795.7c0-6.3-4.4-10.5-11-10.5s-11,4.2-11,10.5s4.4,10.5,11,10.5S292.8,802,292.8,795.7z"/>
		<path class="st4" d="M158.6,892.8c-12.3,0-16.4-9.2-16.4-9.2h-0.8v8.2h-16.7v-67.1h16.7v24.4h0.7c0,0,4.7-6.2,16.5-6.2
			c12.1,0,22.3,8.5,22.3,24.9S170.7,892.8,158.6,892.8z M152.7,857.5c-6.9,0-11.2,4-11.2,10.4c0,6,4,10.4,11.2,10.4
			c7.1,0,11.2-4.3,11.2-10.4S159.8,857.5,152.7,857.5z"/>
		<path class="st4" d="M186.7,824.7h16.7v46.1c0,6.1,2,8.3,6.4,8.3c2.4,0,3.9-0.7,3.9-0.7v13.1c0,0-2.6,1.2-8.1,1.2
			c-11.6,0-19-6.3-19-20.3v-47.7H186.7z"/>
		<path class="st4" d="M236.5,842.9c12.3,0,16.4,9.2,16.4,9.2h0.8v-8.2h16.7V874c0,3.5,0.9,4.4,2.7,4.4c1.1,0,1.7-0.3,1.7-0.3v13.7
			c0,0-1.9,1-6.8,1c-11.4,0-13.5-9.3-13.5-9.3h-0.8c-0.2,0.6-3.8,9.3-17.2,9.3c-12.1,0-22.3-8.5-22.3-24.9S224.5,842.9,236.5,842.9z
			 M242.5,878.2c6.9,0,11.2-4,11.2-10.4c0-6-4-10.4-11.2-10.4c-7.1,0-11.2,4.3-11.2,10.4S235.4,878.2,242.5,878.2z"/>
		<path class="st4" d="M305.3,842.9c17.1,0,27.6,9.8,27.6,20.9h-17.2c0,0-1.4-6.9-10.4-6.9c-6.6,0-11,4.2-11,10.9s4.4,10.9,11,10.9
			c9,0,10.4-6.9,10.4-6.9h17.2c0,11.1-10.5,20.9-27.6,20.9c-16.3,0-28.1-8.5-28.1-24.9S289,842.9,305.3,842.9z"/>
		<path class="st4" d="M372.1,867l20.6,24.8h-18.6l-19.3-23.9v23.9h-16.7v-67.1h16.7V866l17.4-22.1h18.6L372.1,867z"/>
	</g>
</g>
<g>
	<path class="st4" d="M791.8,141.4l4,1.4l6.2-17.3l-12.6-4.5l-1.4,4c-1.6,4.4-6.4,6.7-10.8,5.1c-4.4-1.6-6.7-6.4-5.1-10.8l1.4-4
		l-12-4.3l-1.4,4c-1.6,4.4-6.4,6.7-10.8,5.1c-4.4-1.6-6.7-6.4-5.1-10.8l1.4-4l-12-4.3l-1.4,4c-1.6,4.4-6.4,6.7-10.8,5.1
		c-4.4-1.6-6.7-6.4-5.1-10.8l1.4-4l-12-4.3l-1.4,4c-1.6,4.4-6.4,6.7-10.8,5.1c-4.4-1.6-6.7-6.4-5.1-10.8l1.4-4l-12-4.3l-1.4,4
		c-1.6,4.4-6.4,6.7-10.8,5.1c-4.4-1.6-6.7-6.4-5.1-10.8l1.4-4l-12-4.3l-1.4,4c-1.6,4.4-6.4,6.7-10.8,5.1c-4.4-1.6-6.7-6.4-5.1-10.8
		l1.4-4l-13-4.6L614.8,78l4,1.4c4.4,1.6,6.7,6.4,5.1,10.8c-1.6,4.4-6.4,6.7-10.8,5.1l-4-1.4l-4.3,12l4,1.4c4.4,1.6,6.7,6.4,5.1,10.8
		c-1.6,4.4-6.4,6.7-10.8,5.1l-4-1.4l-4.3,12l4,1.4c4.4,1.6,6.7,6.4,5.1,10.8c-1.6,4.4-6.4,6.7-10.8,5.1l-4-1.4l-4.3,12l4,1.4
		c4.4,1.6,6.7,6.4,5.1,10.8s-6.4,6.7-10.8,5.1l-4-1.4l-4.3,12l4,1.4c4.4,1.6,6.7,6.4,5.1,10.8s-6.4,6.7-10.8,5.1l-4-1.4l-4.3,12
		l4,1.4c4.4,1.6,6.7,6.4,5.1,10.8s-6.4,6.7-10.8,5.1l-4-1.4l-4.3,12l4,1.4c4.4,1.6,6.7,6.4,5.1,10.8c-1.6,4.4-6.4,6.7-10.8,5.1
		l-4-1.4l-4.3,12l4,1.4c4.4,1.6,6.7,6.4,5.1,10.8c-1.6,4.4-6.4,6.7-10.8,5.1l-4-1.4l-6.2,17.3l12.6,4.5l1.4-4
		c1.6-4.4,6.4-6.7,10.8-5.1c4.4,1.6,6.7,6.4,5.1,10.8l-1.4,4l12,4.3l1.4-4c1.6-4.4,6.4-6.7,10.8-5.1c4.4,1.6,6.7,6.4,5.1,10.8
		l-1.4,4l12,4.3l1.4-4c1.6-4.4,6.4-6.7,10.8-5.1c4.4,1.6,6.7,6.4,5.1,10.8l-1.4,4l12,4.3l1.4-4c1.6-4.4,6.4-6.7,10.8-5.1
		c4.4,1.6,6.7,6.4,5.1,10.8l-1.4,4l12,4.3l1.4-4c1.6-4.4,6.4-6.7,10.8-5.1c4.4,1.6,6.7,6.4,5.1,10.8l-1.4,4l12,4.3l1.4-4
		c1.6-4.4,6.4-6.7,10.8-5.1c4.4,1.6,6.7,6.4,5.1,10.8l-1.4,4l12.6,4.5l6.2-17.3l-4-1.4c-4.4-1.6-6.7-6.4-5.1-10.8s6.4-6.7,10.8-5.1
		l4,1.4l4.3-12l-4-1.4c-4.4-1.6-6.7-6.4-5.1-10.8s6.4-6.7,10.8-5.1l4,1.4l4.3-12l-4-1.4c-4.4-1.6-6.7-6.4-5.1-10.8s6.4-6.7,10.8-5.1
		l4,1.4l4.3-12l-4-1.4c-4.4-1.6-6.7-6.4-5.1-10.8s6.4-6.7,10.8-5.1l4,1.4l4.3-12l-4-1.4c-4.4-1.6-6.7-6.4-5.1-10.8s6.4-6.7,10.8-5.1
		l4,1.4l4.3-12l-4-1.4c-4.4-1.6-6.7-6.4-5.1-10.8s6.4-6.7,10.8-5.1l4,1.4l4.3-12l-4-1.4c-4.4-1.6-6.7-6.4-5.1-10.8
		c1.6-4.4,6.4-6.7,10.8-5.1l4,1.4l4.3-12l-4-1.4c-4.4-1.6-6.7-6.4-5.1-10.8S787.4,139.9,791.8,141.4z"/>
	<path class="st5" d="M786.8,130.4l4,1.4l6.2-17.3l-12.6-4.5l-1.4,4c-1.6,4.4-6.4,6.7-10.8,5.1c-4.4-1.6-6.7-6.4-5.1-10.8l1.4-4
		l-12-4.3l-1.4,4c-1.6,4.4-6.4,6.7-10.8,5.1c-4.4-1.6-6.7-6.4-5.1-10.8l1.4-4l-12-4.3l-1.4,4c-1.6,4.4-6.4,6.7-10.8,5.1
		c-4.4-1.6-6.7-6.4-5.1-10.8l1.4-4l-12-4.3l-1.4,4c-1.6,4.4-6.4,6.7-10.8,5.1c-4.4-1.6-6.7-6.4-5.1-10.8l1.4-4l-12-4.3l-1.4,4
		c-1.6,4.4-6.4,6.7-10.8,5.1c-4.4-1.6-6.7-6.4-5.1-10.8l1.4-4l-12-4.3l-1.4,4c-1.6,4.4-6.4,6.7-10.8,5.1c-4.4-1.6-6.7-6.4-5.1-10.8
		l1.4-4l-13-4.6L609.8,67l4,1.4c4.4,1.6,6.7,6.4,5.1,10.8c-1.6,4.4-6.4,6.7-10.8,5.1l-4-1.4l-4.3,12l4,1.4c4.4,1.6,6.7,6.4,5.1,10.8
		c-1.6,4.4-6.4,6.7-10.8,5.1l-4-1.4l-4.3,12l4,1.4c4.4,1.6,6.7,6.4,5.1,10.8c-1.6,4.4-6.4,6.7-10.8,5.1l-4-1.4l-4.3,12l4,1.4
		c4.4,1.6,6.7,6.4,5.1,10.8s-6.4,6.7-10.8,5.1l-4-1.4l-4.3,12l4,1.4c4.4,1.6,6.7,6.4,5.1,10.8s-6.4,6.7-10.8,5.1l-4-1.4l-4.3,12
		l4,1.4c4.4,1.6,6.7,6.4,5.1,10.8s-6.4,6.7-10.8,5.1l-4-1.4l-4.3,12l4,1.4c4.4,1.6,6.7,6.4,5.1,10.8s-6.4,6.7-10.8,5.1l-4-1.4
		l-4.3,12l4,1.4c4.4,1.6,6.7,6.4,5.1,10.8c-1.6,4.4-6.4,6.7-10.8,5.1l-4-1.4l-6.2,17.3l12.6,4.5l1.4-4c1.6-4.4,6.4-6.7,10.8-5.1
		c4.4,1.6,6.7,6.4,5.1,10.8l-1.4,4l12,4.3l1.4-4c1.6-4.4,6.4-6.7,10.8-5.1c4.4,1.6,6.7,6.4,5.1,10.8l-1.4,4l12,4.3l1.4-4
		c1.6-4.4,6.4-6.7,10.8-5.1c4.4,1.6,6.7,6.4,5.1,10.8l-1.4,4l12,4.3l1.4-4c1.6-4.4,6.4-6.7,10.8-5.1c4.4,1.6,6.7,6.4,5.1,10.8
		l-1.4,4l12,4.3l1.4-4c1.6-4.4,6.4-6.7,10.8-5.1c4.4,1.6,6.7,6.4,5.1,10.8l-1.4,4l12,4.3l1.4-4c1.6-4.4,6.4-6.7,10.8-5.1
		c4.4,1.6,6.7,6.4,5.1,10.8l-1.4,4l12.6,4.5l6.2-17.3l-4-1.4c-4.4-1.6-6.7-6.4-5.1-10.8s6.4-6.7,10.8-5.1l4,1.4l4.3-12l-4-1.4
		c-4.4-1.6-6.7-6.4-5.1-10.8s6.4-6.7,10.8-5.1l4,1.4l4.3-12l-4-1.4c-4.4-1.6-6.7-6.4-5.1-10.8s6.4-6.7,10.8-5.1l4,1.4l4.3-12l-4-1.4
		c-4.4-1.6-6.7-6.4-5.1-10.8s6.4-6.7,10.8-5.1l4,1.4l4.3-12l-4-1.4c-4.4-1.6-6.7-6.4-5.1-10.8s6.4-6.7,10.8-5.1l4,1.4l4.3-12l-4-1.4
		c-4.4-1.6-6.7-6.4-5.1-10.8s6.4-6.7,10.8-5.1l4,1.4l4.3-12l-4-1.4c-4.4-1.6-6.7-6.4-5.1-10.8c1.6-4.4,6.4-6.7,10.8-5.1l4,1.4
		l4.3-12l-4-1.4c-4.4-1.6-6.7-6.4-5.1-10.8S782.4,128.9,786.8,130.4z"/>
	
		<rect x="561.3" y="138.8" transform="matrix(0.3373 -0.9414 0.9414 0.3373 245.6934 759.5498)" class="st6" width="202.1" height="132.9"/>
	<line class="st6" x1="583.9" y1="227.4" x2="709" y2="272.2"/>
	<line class="st6" x1="646.4" y1="249.8" x2="696.5" y2="110.1"/>
	<g>
		<path class="st4" d="M656.7,241.5c3.3-9.1,17.9-1.2,19.8-6.5c0.5-1.4-0.1-2.6-2.6-3.5c-2.9-1-4,0.5-4.5,1.8l-0.5,1.3l-8-2.9
			l0.5-1.3c2.4-6.7,7.2-8.1,14.8-5.4c7.7,2.7,10.4,6.9,8.3,12.8c-3.2,8.9-17.5,4-18.2,5.8l14.2,5.1l-2.2,6.2l-23.5-8.4L656.7,241.5z
			"/>
		<path class="st4" d="M695.9,256l-14-5l2.2-6.2l16.7-10.5l10.6,3.8l-5.2,14.6l3.3,1.2l-2.2,6.2l-3.3-1.2l-1.7,4.7l-8-2.9L695.9,256
			z M691.7,247.4l-0.1,0.2l6.6,2.4l2.5-7l2.3-2.5l-0.8-0.3l-2.6,2.4L691.7,247.4z"/>
	</g>
	<g>
		<path class="st4" d="M579.4,262.3l3.1,1.1l5.3-14.9l-2.8-1l0.8-2.3l5.4,1.9l-6.2,17.2l3.1,1.1l-0.8,2.3l-8.8-3.1L579.4,262.3z"/>
		<path class="st4" d="M603.2,253.7c-3.5-1.2-6.5,1.1-7.9,5h0.1c0,0,2.2-1.8,6.5-0.2c4.4,1.6,6.6,5.4,5.3,9.2
			c-1.4,4-5.5,5.4-10.2,3.7c-5.5-2-7-6.6-4.9-12.4l0.3-0.9c1.9-5.3,6.3-8.8,11.7-6.9c5.4,1.9,5.7,6.8,5.2,8.1l-2.7-1
			C606.4,258.5,607,255,603.2,253.7z M604.3,266.8c0.9-2.6-0.7-4.9-3.6-6c-2.9-1-5.6-0.3-6.6,2.3c-0.9,2.6,0.6,4.9,3.6,6
			C600.8,270.2,603.4,269.3,604.3,266.8z"/>
		<path class="st4" d="M615.9,266.9c1-2.9,4.3-3.1,7.8-1.9c3.5,1.3,5.9,3.5,4.6,7l-2.5-0.9c0.6-1.6-0.2-2.9-3-3.9
			c-2.9-1-4.1-0.6-4.5,0.5c-1.2,3.4,10.7,3.5,8.5,9.6c-1.2,3.2-4.7,3.2-8.2,1.9c-3.5-1.3-6.2-3.6-5-7.1l0.2-0.4l2.5,0.9l-0.2,0.4
			c-0.6,1.6,0.5,3,3.3,4s4.5,0.8,5-0.6C625.7,272.9,613.8,272.9,615.9,266.9z"/>
		<path class="st4" d="M632.6,278c-1,2.7,0.1,4,1.8,4.6c1.6,0.6,2.7,0.2,2.7,0.2l-0.8,2.2c0,0-1.3,0.2-2.9-0.4
			c-3.1-1.1-4.6-3.5-3.3-7.1l2.3-6.5l-2.3-0.8l0.8-2.2l2.3,0.8l1.1-3.1l2.4,0.9l-1.1,3.1l5.1,1.8l-0.8,2.2l-5.1-1.8L632.6,278z"/>
		<path class="st4" d="M650,287.8L650,287.8c-0.1,0-2.2,1.9-6,0.6c-3.3-1.2-5.5-4.1-3.9-8.6l2.7-7.6l2.4,0.9l-2.5,7.1
			c-1.2,3.4,0.3,5.4,2.8,6.3c3,1.1,5.2-0.4,6.1-3.1l2.5-7.1l2.4,0.9l-4.7,13.1c-1.6,4.4-5.5,5.3-9.1,4c-6.3-2.3-4.8-7.1-4.8-7.1
			l2.5,0.9c0,0-0.8,2.6,3.1,4c2.5,0.9,4.9,0.2,5.9-2.6L650,287.8z"/>
		<path class="st4" d="M661.4,272.2l2.4,0.9l-5.3,14.8c-0.9,2.4-0.3,3.2,1.1,3.7c0.7,0.3,1.3,0.2,1.3,0.2l-0.7,2.1
			c0,0-0.6,0.1-1.7-0.3c-2.5-0.9-3.6-2.8-2.4-6L661.4,272.2z"/>
		<path class="st4" d="M677.3,293.6l-12.4-4.4c-0.4,1.2,0.3,4.3,3.7,5.6c3.1,1.1,4.8-0.3,4.8-0.3l2.8,1c0,0-2.8,3.6-8.4,1.5
			c-4.4-1.6-6.7-5.5-5.1-9.9s5.8-6,10.1-4.4s6.5,5.5,5,9.8C677.6,293.1,677.3,293.6,677.3,293.6z M665.7,286.9l9.9,3.6
			c0.5-1.3-0.2-4.4-3.6-5.6S666.2,285.6,665.7,286.9z"/>
		<path class="st4" d="M680.9,290.2c1-2.9,4.3-3.1,7.8-1.9c3.5,1.3,5.9,3.5,4.6,7l-2.5-0.9c0.6-1.6-0.2-2.9-3-3.9
			c-2.9-1-4.1-0.6-4.5,0.5c-1.2,3.4,10.7,3.5,8.5,9.6c-1.2,3.2-4.7,3.2-8.2,1.9c-3.5-1.3-6.2-3.6-5-7.1l0.2-0.4l2.5,0.9l-0.2,0.4
			c-0.6,1.6,0.5,3,3.3,4s4.5,0.8,5-0.6C690.7,296.2,678.7,296.2,680.9,290.2z"/>
	</g>
	<path class="st6" d="M598.6,186.2c0,0,29-22.6,63,7.6s64.7,28,64.7,28"/>
	<path class="st6" d="M602,176.9c0,0,29-22.6,63,7.6s64.7,28,64.7,28"/>
	<path class="st6" d="M605.3,167.5c0,0,29-22.6,63,7.6s64.7,28,64.7,28"/>
	<path class="st6" d="M609.1,156.9c0,0,29-22.6,63,7.6s64.7,28,64.7,28"/>
	<path class="st6" d="M612.5,147.6c0,0,29-22.6,63,7.6s64.7,28,64.7,28"/>
	<path class="st6" d="M616.3,136.9c0,0,29-22.6,63,7.6s64.7,28,64.7,28"/>
	<path class="st6" d="M619.6,127.6c0,0,29-22.6,63,7.6s64.7,28,64.7,28"/>
	<path class="st6" d="M623.4,117c0,0,29-22.6,63,7.6s64.7,28,64.7,28"/>
</g>
<line class="st7" x1="53" y1="410" x2="488" y2="410"/>
<line class="st7" x1="53" y1="671.5" x2="488" y2="671.5"/>
</svg>
