<?xml version="1.0" encoding="utf-8"?>
<!-- Generator: Adobe Illustrator 22.0.0, SVG Export Plug-In . SVG Version: 6.00 Build 0)  -->
<svg version="1.1" id="Layer_1" xmlns="http://www.w3.org/2000/svg" xmlns:xlink="http://www.w3.org/1999/xlink" x="0px" y="0px"
	 viewBox="0 0 2000 1100" style="enable-background:new 0 0 2000 1100;" xml:space="preserve">
<style type="text/css">
	.st0{fill:none;}
	.st1{fill:#00302D;}
</style>
<g>
	<text transform="matrix(1 0 0 1 876.8496 -76.042)" style="fill:#08B468; font-family:'TTTravelsTrl-Bold'; font-size:24.453px;">BSET 01</text>
	<text transform="matrix(1 0 0 1 876.8496 -56.842)" style="fill:#08B468; font-family:'TTTravelsTrl-Bold'; font-size:24.453px;">LTS-F “f”</text>
</g>
<g>
	<text transform="matrix(1 0 0 1 876.8496 -31.042)" style="fill:#08B468; font-family:'TTTravelsTrl-Bold'; font-size:24.453px;">SCR 062</text>
</g>
<line class="st0" x1="877" y1="-52" x2="1088" y2="-52"/>
<g>
	<g>
		<path class="st1" d="M70.4,377h35.9v5.1H91.3v37.2h-5.7V382H70.4V377z"/>
		<path class="st1" d="M136.6,403.9c0-7.2-4.2-10.1-9.7-10.1c-6.4,0-9.7,4.2-9.7,10.1v15.3h-5.2V377h5.2v17.2h0.3
			c0,0,2.6-5.1,10.9-5.1c7.1,0,13.3,4.1,13.3,13.7v16.5h-5.2V403.9z"/>
		<path class="st1" d="M181.6,406.9h-26.7c0,2.7,3.5,8.1,11,8.1c6.6,0,9-3.9,9-3.9h6.1c0,0-2.9,8.8-15.1,8.8
			c-9.6,0-16.5-6-16.5-15.4c0-9.4,6.9-15.4,16.2-15.4s16.2,6,16.2,15.4C181.8,405.9,181.6,406.9,181.6,406.9z M154.8,402.2h21.5
			c0-2.9-3.4-8.3-10.7-8.3S154.8,399.3,154.8,402.2z"/>
		<path class="st1" d="M211.9,407.7c0,5.9,2.9,7.5,6.6,7.5c3.4,0,5.3-1.4,5.3-1.4v4.7c0,0-2.3,1.2-5.9,1.2
			c-6.6,0-11.2-3.6-11.2-11.4v-14.1h-5v-4.7h5V383h5.2v6.6h11v4.7h-11V407.7z"/>
		<path class="st1" d="M254.9,414.7h-0.3c0,0-2.6,5.1-10.9,5.1c-7.1,0-13.3-4.1-13.3-13.7v-16.5h5.2v15.3c0,7.2,4.2,10.1,9.7,10.1
			c6.4,0,9.7-4.2,9.7-10.1v-15.3h5.2V418c0,9.4-6.8,13.9-14.7,13.9c-13.7,0-14-10.3-14-10.3h5.4c0,0,0.2,5.5,8.6,5.5
			c5.4,0,9.5-3,9.5-9.1V414.7z"/>
		<path class="st1" d="M269.2,389.6h5.2v4.4h0.2c0,0,3.3-5,11.4-5c8.7,0,15.7,6,15.7,15.4c0,9.4-7,15.4-15.7,15.4
			c-8,0-11.4-5-11.4-5h-0.2v16.5h-5.2V389.6z M285.3,393.9c-6.8,0-11,4.5-11,10.6c0,6.2,4.4,10.6,11,10.6c6.8,0,11-4.5,11-10.6
			C296.3,398.4,292.1,393.9,285.3,393.9z"/>
		<path class="st1" d="M324.5,389c9.3,0,16.2,6,16.2,15.4c0,9.4-6.9,15.4-16.2,15.4s-16.2-6-16.2-15.4
			C308.3,395,315.2,389,324.5,389z M324.5,393.9c-6.8,0-10.9,4.5-10.9,10.6c0,6,4.2,10.6,10.9,10.6c6.8,0,10.9-4.5,10.9-10.6
			C335.4,398.4,331.3,393.9,324.5,393.9z"/>
		<path class="st1" d="M379.9,417.6c0,9.7-7.2,14.3-15.8,14.3c-14.2,0-14.8-10.3-14.8-10.3h5.4c0,0,0.7,5.5,9.4,5.5
			c6,0,10.6-3.1,10.6-9.5v-2.8h-0.2c0,0-3.3,5-11.4,5c-8.7,0-15.7-6-15.7-15.4c0-9.4,7-15.4,15.7-15.4c8,0,11.4,5,11.4,5h0.2v-4.4
			h5.2V417.6z M363.7,415c6.6,0,10.7-4.3,11-10.1V404c-0.2-6-4.6-10.1-11-10.1c-6.8,0-11,4.5-11,10.6
			C352.7,410.5,356.9,415,363.7,415z"/>
		<path class="st1" d="M408.8,389.5v5.7c0,0-1.7-0.6-4.5-0.6c-6.5,0-10.3,4.8-10.3,10.6v14.1h-5.2v-29.6h5.2v5.7h0.3
			c0,0,2.6-6.3,10.9-6.3C407.4,389,408.8,389.5,408.8,389.5z"/>
		<path class="st1" d="M445.2,411.1c0,3,0.8,4,2.5,4c1.2,0,1.7-0.4,1.7-0.4v4.6c0,0-0.9,0.5-2.7,0.5c-6.2,0-6.8-5-6.8-5h-0.2
			c0,0-3.3,5-11.4,5c-8.7,0-15.7-6-15.7-15.4c0-9.4,7-15.4,15.7-15.4c8,0,11.4,5,11.4,5h0.2v-4.4h5.2V411.1z M429.1,415
			c6.6,0,11-4.6,11-10.6c0-6.2-4.4-10.6-11-10.6c-6.8,0-11,4.5-11,10.6C418.1,410.5,422.3,415,429.1,415z"/>
		<path class="st1" d="M455.2,389.6h5.2v4.4h0.2c0,0,3.3-5,11.4-5c8.7,0,15.7,6,15.7,15.4c0,9.4-7,15.4-15.7,15.4
			c-8,0-11.4-5-11.4-5h-0.2v16.5h-5.2V389.6z M471.4,393.9c-6.8,0-11,4.5-11,10.6c0,6.2,4.4,10.6,11,10.6c6.8,0,11-4.5,11-10.6
			C482.4,398.4,478.1,393.9,471.4,393.9z"/>
		<path class="st1" d="M520,403.9c0-7.2-4.2-10.1-9.7-10.1c-6.4,0-9.7,4.2-9.7,10.1v15.3h-5.2V377h5.2v17.2h0.3
			c0,0,2.6-5.1,10.9-5.1c7.1,0,13.3,4.1,13.3,13.7v16.5H520V403.9z"/>
		<path class="st1" d="M558.5,414.7h-0.3c0,0-2.6,5.1-10.9,5.1c-7.1,0-13.3-4.1-13.3-13.7v-16.5h5.2v15.3c0,7.2,4.2,10.1,9.7,10.1
			c6.4,0,9.7-4.2,9.7-10.1v-15.3h5.2V418c0,9.4-6.8,13.9-14.7,13.9c-13.7,0-14-10.3-14-10.3h5.4c0,0,0.2,5.5,8.6,5.5
			c5.4,0,9.5-3,9.5-9.1V414.7z"/>
		<path class="st1" d="M602.3,389c11.4,0,15.7,8.5,15.7,12.1h-5.4c0,0-1.1-7.2-10.3-7.2c-6.8,0-10.9,4.5-10.9,10.5
			c0,6,4.2,10.6,10.9,10.6c9.2,0,10.3-7.2,10.3-7.2h5.4c0,3.6-4.3,12.1-15.7,12.1c-9.3,0-16.2-6-16.2-15.4
			C586,395,593,389,602.3,389z"/>
		<path class="st1" d="M650.3,403.9c0-7.2-4.2-10.1-9.7-10.1c-6.4,0-9.7,4.2-9.7,10.1v15.3h-5.2V377h5.2v17.2h0.3
			c0,0,2.6-5.1,10.9-5.1c7.1,0,13.3,4.1,13.3,13.7v16.5h-5.2V403.9z"/>
		<path class="st1" d="M695.5,411.1c0,3,0.8,4,2.5,4c1.2,0,1.7-0.4,1.7-0.4v4.6c0,0-0.9,0.5-2.7,0.5c-6.2,0-6.8-5-6.8-5h-0.2
			c0,0-3.3,5-11.4,5c-8.7,0-15.7-6-15.7-15.4c0-9.4,7-15.4,15.7-15.4c8,0,11.4,5,11.4,5h0.2v-4.4h5.2V411.1z M679.3,415
			c6.6,0,11-4.6,11-10.6c0-6.2-4.4-10.6-11-10.6c-6.8,0-11,4.5-11,10.6C668.4,410.5,672.6,415,679.3,415z"/>
		<path class="st1" d="M730,403.9c0-7.2-4.2-10.1-9.7-10.1c-6.4,0-9.7,4.2-9.7,10.1v15.3h-5.2v-29.6h5.2v4.5h0.3
			c0,0,2.6-5.1,10.9-5.1c7.1,0,13.3,4.1,13.3,13.7v16.5H730V403.9z"/>
		<path class="st1" d="M775.2,417.6c0,9.7-7.2,14.3-15.8,14.3c-14.2,0-14.8-10.3-14.8-10.3h5.4c0,0,0.7,5.5,9.4,5.5
			c6,0,10.6-3.1,10.6-9.5v-2.8h-0.2c0,0-3.3,5-11.4,5c-8.7,0-15.7-6-15.7-15.4c0-9.4,7-15.4,15.7-15.4c8,0,11.4,5,11.4,5h0.2v-4.4
			h5.2V417.6z M759,415c6.6,0,10.7-4.3,11-10.1V404c-0.2-6-4.6-10.1-11-10.1c-6.8,0-11,4.5-11,10.6C748,410.5,752.3,415,759,415z"/>
		<path class="st1" d="M815.3,406.9h-26.7c0,2.7,3.5,8.1,11,8.1c6.6,0,9-3.9,9-3.9h6.1c0,0-2.9,8.8-15.1,8.8
			c-9.6,0-16.5-6-16.5-15.4c0-9.4,6.9-15.4,16.2-15.4c9.3,0,16.2,6,16.2,15.4C815.5,405.9,815.3,406.9,815.3,406.9z M788.5,402.2
			H810c0-2.9-3.4-8.3-10.7-8.3C792,393.9,788.5,399.3,788.5,402.2z"/>
		<path class="st1" d="M854.6,419.2h-5.2v-4.4h-0.2c0,0-3.3,5-11.4,5c-8.7,0-15.7-6-15.7-15.4c0-9.4,7-15.4,15.7-15.4
			c8,0,11.4,5,11.4,5h0.2V377h5.2V419.2z M838.5,415c6.8,0,11-4.5,11-10.6c0-6.2-4.4-10.6-11-10.6c-6.8,0-11,4.5-11,10.6
			C827.5,410.5,831.7,415,838.5,415z"/>
		<path class="st1" d="M885.9,407.7c0,5.9,2.9,7.5,6.6,7.5c3.4,0,5.3-1.4,5.3-1.4v4.7c0,0-2.3,1.2-5.9,1.2
			c-6.6,0-11.2-3.6-11.2-11.4v-14.1h-5v-4.7h5V383h5.2v6.6h11v4.7h-11V407.7z"/>
		<path class="st1" d="M929,403.9c0-7.2-4.2-10.1-9.7-10.1c-6.4,0-9.7,4.2-9.7,10.1v15.3h-5.2V377h5.2v17.2h0.3
			c0,0,2.6-5.1,10.9-5.1c7.1,0,13.3,4.1,13.3,13.7v16.5H929V403.9z"/>
		<path class="st1" d="M974,406.9h-26.7c0,2.7,3.5,8.1,11,8.1c6.6,0,9-3.9,9-3.9h6.1c0,0-2.9,8.8-15.1,8.8c-9.6,0-16.5-6-16.5-15.4
			c0-9.4,6.9-15.4,16.2-15.4c9.3,0,16.2,6,16.2,15.4C974.2,405.9,974,406.9,974,406.9z M947.2,402.2h21.5c0-2.9-3.4-8.3-10.7-8.3
			C950.6,393.9,947.2,399.3,947.2,402.2z"/>
		<path class="st1" d="M1016.7,395.2h-0.2l-7.6,24h-6.9l-8.8-29.6h5.3l6.9,23.9h0.2l7.6-23.9h6.8l7.6,23.9h0.2l6.9-23.9h5.3
			l-8.8,29.6h-6.9L1016.7,395.2z"/>
		<path class="st1" d="M1070.3,403.9c0-7.2-4.2-10.1-9.7-10.1c-6.4,0-9.7,4.2-9.7,10.1v15.3h-5.2V377h5.2v17.2h0.3
			c0,0,2.6-5.1,10.9-5.1c7.1,0,13.3,4.1,13.3,13.7v16.5h-5.2V403.9z"/>
		<path class="st1" d="M1099.2,389c9.3,0,16.2,6,16.2,15.4c0,9.4-6.9,15.4-16.2,15.4s-16.2-6-16.2-15.4
			C1083,395,1089.9,389,1099.2,389z M1099.2,393.9c-6.8,0-10.9,4.5-10.9,10.6c0,6,4.2,10.6,10.9,10.6c6.8,0,10.9-4.5,10.9-10.6
			C1110.2,398.4,1106,393.9,1099.2,393.9z"/>
		<path class="st1" d="M1123.3,377h5.2V409c0,5.3,1.6,6.3,4.5,6.3c1.5,0,2.5-0.5,2.5-0.5v4.5c0,0-1.1,0.5-3.5,0.5
			c-5.4,0-8.8-2.8-8.8-9.8V377z"/>
		<path class="st1" d="M1171.5,406.9h-26.7c0,2.7,3.5,8.1,11,8.1c6.6,0,9-3.9,9-3.9h6.1c0,0-2.9,8.8-15.1,8.8
			c-9.6,0-16.5-6-16.5-15.4c0-9.4,6.9-15.4,16.2-15.4c9.3,0,16.2,6,16.2,15.4C1171.7,405.9,1171.5,406.9,1171.5,406.9z
			 M1144.7,402.2h21.5c0-2.9-3.4-8.3-10.7-8.3C1148.1,393.9,1144.7,399.3,1144.7,402.2z"/>
		<path class="st1" d="M1235.1,403.9c0-7.2-2.8-10.1-7.7-10.1c-5.8,0-7.7,4.2-7.7,10.1v15.3h-5.2v-15.3c0-7.2-2.8-10.1-7.7-10.1
			c-5.8,0-7.7,4.2-7.7,10.1v15.3h-5.2v-29.6h5.2v4.5h0.3c0,0,1.2-5.1,8.9-5.1c4,0,7.4,1.6,9.4,5.1h0.4c0,0,1.9-5.1,9.5-5.1
			c7.7,0,12.6,4.1,12.6,13.7v16.5h-5.2V403.9z"/>
		<path class="st1" d="M1264,389c9.3,0,16.2,6,16.2,15.4c0,9.4-6.9,15.4-16.2,15.4c-9.3,0-16.2-6-16.2-15.4
			C1247.8,395,1254.7,389,1264,389z M1264,393.9c-6.8,0-10.9,4.5-10.9,10.6c0,6,4.2,10.6,10.9,10.6c6.8,0,10.9-4.5,10.9-10.6
			C1275,398.4,1270.8,393.9,1264,393.9z"/>
		<path class="st1" d="M1303.2,389c9.3,0,16.2,6,16.2,15.4c0,9.4-6.9,15.4-16.2,15.4c-9.3,0-16.2-6-16.2-15.4
			C1286.9,395,1293.9,389,1303.2,389z M1303.2,393.9c-6.8,0-10.9,4.5-10.9,10.6c0,6,4.2,10.6,10.9,10.6c6.8,0,10.9-4.5,10.9-10.6
			C1314.1,398.4,1309.9,393.9,1303.2,393.9z"/>
		<path class="st1" d="M1358.5,419.2h-5.2v-4.4h-0.2c0,0-3.3,5-11.4,5c-8.7,0-15.7-6-15.7-15.4c0-9.4,7-15.4,15.7-15.4
			c8,0,11.4,5,11.4,5h0.2V377h5.2V419.2z M1342.3,415c6.8,0,11-4.5,11-10.6c0-6.2-4.4-10.6-11-10.6c-6.8,0-11,4.5-11,10.6
			C1331.3,410.5,1335.6,415,1342.3,415z"/>
		<path class="st1" d="M1397.1,389c9.3,0,16.2,6,16.2,15.4c0,9.4-6.9,15.4-16.2,15.4s-16.2-6-16.2-15.4
			C1380.8,395,1387.8,389,1397.1,389z M1397.1,393.9c-6.8,0-10.9,4.5-10.9,10.6c0,6,4.2,10.6,10.9,10.6c6.8,0,10.9-4.5,10.9-10.6
			C1408,398.4,1403.8,393.9,1397.1,393.9z"/>
		<path class="st1" d="M1428.6,389.6h8.7v4.7h-8.7v24.9h-5.2v-24.9h-5v-2.9l5-1.8v-1.9c0-7.9,4.8-11.4,11.7-11.4
			c3.7,0,6.3,1.6,6.3,1.6v4.6c0,0-1.9-1.7-5.4-1.7c-4.3,0-7.4,1.7-7.4,7.5V389.6z"/>
		<path class="st1" d="M1466.9,407.7c0,5.9,2.9,7.5,6.6,7.5c3.4,0,5.3-1.4,5.3-1.4v4.7c0,0-2.3,1.2-5.9,1.2
			c-6.6,0-11.2-3.6-11.2-11.4v-14.1h-5v-4.7h5V383h5.2v6.6h11v4.7h-11V407.7z"/>
		<path class="st1" d="M1510,403.9c0-7.2-4.2-10.1-9.7-10.1c-6.4,0-9.7,4.2-9.7,10.1v15.3h-5.2V377h5.2v17.2h0.3
			c0,0,2.6-5.1,10.9-5.1c7.1,0,13.3,4.1,13.3,13.7v16.5h-5.2V403.9z"/>
		<path class="st1" d="M1555,406.9h-26.7c0,2.7,3.5,8.1,11,8.1c6.6,0,9-3.9,9-3.9h6.1c0,0-2.9,8.8-15.1,8.8c-9.6,0-16.5-6-16.5-15.4
			c0-9.4,6.9-15.4,16.2-15.4s16.2,6,16.2,15.4C1555.2,405.9,1555,406.9,1555,406.9z M1528.2,402.2h21.5c0-2.9-3.4-8.3-10.7-8.3
			S1528.2,399.3,1528.2,402.2z"/>
		<path class="st1" d="M1580.1,382.1c-1.9,0-3.2-1.2-3.2-2.9c0-1.7,1.3-2.9,3.2-2.9c1.9,0,3.2,1.2,3.2,2.9
			C1583.3,380.9,1582,382.1,1580.1,382.1z M1582.7,419.2h-5.2v-29.6h5.2V419.2z"/>
		<path class="st1" d="M1623,419.2h-5.2v-4.4h-0.2c0,0-3.3,5-11.4,5c-8.7,0-15.7-6-15.7-15.4c0-9.4,7-15.4,15.7-15.4
			c8,0,11.4,5,11.4,5h0.2V377h5.2V419.2z M1606.9,415c6.8,0,11-4.5,11-10.6c0-6.2-4.4-10.6-11-10.6c-6.8,0-11,4.5-11,10.6
			C1595.9,410.5,1600.1,415,1606.9,415z"/>
		<path class="st1" d="M1663.2,406.9h-26.7c0,2.7,3.5,8.1,11,8.1c6.6,0,9-3.9,9-3.9h6.1c0,0-2.9,8.8-15.1,8.8
			c-9.6,0-16.5-6-16.5-15.4c0-9.4,6.9-15.4,16.2-15.4s16.2,6,16.2,15.4C1663.4,405.9,1663.2,406.9,1663.2,406.9z M1636.4,402.2h21.5
			c0-2.9-3.4-8.3-10.7-8.3S1636.4,399.3,1636.4,402.2z"/>
		<path class="st1" d="M1695.7,403.9c0-7.2-4.2-10.1-9.7-10.1c-6.4,0-9.7,4.2-9.7,10.1v15.3h-5.2v-29.6h5.2v4.5h0.3
			c0,0,2.6-5.1,10.9-5.1c7.1,0,13.3,4.1,13.3,13.7v16.5h-5.2V403.9z"/>
		<path class="st1" d="M1717.4,407.7c0,5.9,2.9,7.5,6.6,7.5c3.4,0,5.3-1.4,5.3-1.4v4.7c0,0-2.3,1.2-5.9,1.2
			c-6.6,0-11.2-3.6-11.2-11.4v-14.1h-5v-4.7h5V383h5.2v6.6h11v4.7h-11V407.7z"/>
		<path class="st1" d="M1738.5,382.1c-1.9,0-3.2-1.2-3.2-2.9c0-1.7,1.3-2.9,3.2-2.9c1.9,0,3.2,1.2,3.2,2.9
			C1741.7,380.9,1740.4,382.1,1738.5,382.1z M1741.1,419.2h-5.2v-29.6h5.2V419.2z"/>
		<path class="st1" d="M1757.9,407.7c0,5.9,2.9,7.5,6.6,7.5c3.4,0,5.3-1.4,5.3-1.4v4.7c0,0-2.3,1.2-5.9,1.2
			c-6.6,0-11.2-3.6-11.2-11.4v-14.1h-5v-4.7h5V383h5.2v6.6h11v4.7h-11V407.7z"/>
		<path class="st1" d="M1800.9,414.7h-0.3c0,0-2.6,5.1-10.9,5.1c-7.1,0-13.3-4.1-13.3-13.7v-16.5h5.2v15.3c0,7.2,4.2,10.1,9.7,10.1
			c6.4,0,9.7-4.2,9.7-10.1v-15.3h5.2V418c0,9.4-6.8,13.9-14.7,13.9c-13.7,0-14-10.3-14-10.3h5.4c0,0,0.2,5.5,8.6,5.5
			c5.4,0,9.5-3,9.5-9.1V414.7z"/>
		<path class="st1" d="M1817,413.5c2.1,0,3.3,1.1,3.3,3.1c0,2-1.3,3.1-3.3,3.1c-2.1,0-3.3-1.1-3.3-3.1
			C1813.7,414.7,1814.9,413.5,1817,413.5z"/>
		<path class="st1" d="M100.4,456h-0.2l-9.4,35.6h-8.5l-11.1-42.3h5.9l9.2,35.2h0.4l9.2-35.2h8.5l9.2,35.2h0.4l9.2-35.2h5.9
			l-11.1,42.3h-8.5L100.4,456z"/>
		<path class="st1" d="M164.1,479.3h-26.7c0,2.7,3.5,8.1,11,8.1c6.6,0,9-3.9,9-3.9h6.1c0,0-2.9,8.8-15.1,8.8
			c-9.6,0-16.5-6-16.5-15.4c0-9.4,6.9-15.4,16.2-15.4s16.2,6,16.2,15.4C164.2,478.3,164.1,479.3,164.1,479.3z M137.3,474.6h21.5
			c0-2.9-3.4-8.3-10.7-8.3S137.3,471.7,137.3,474.6z"/>
		<path class="st1" d="M217.8,491.7h-5.2v-4.4h-0.2c0,0-3.3,5-11.4,5c-8.7,0-15.7-6-15.7-15.4c0-9.4,7-15.4,15.7-15.4
			c8,0,11.4,5,11.4,5h0.2v-17.1h5.2V491.7z M201.7,487.4c6.8,0,11-4.5,11-10.6c0-6.2-4.4-10.6-11-10.6c-6.8,0-11,4.5-11,10.6
			C190.7,482.9,194.9,487.4,201.7,487.4z"/>
		<path class="st1" d="M229.5,454.6c-1.9,0-3.2-1.2-3.2-2.9s1.3-2.9,3.2-2.9c1.9,0,3.2,1.2,3.2,2.9S231.4,454.6,229.5,454.6z
			 M232.1,491.7h-5.2v-29.6h5.2V491.7z"/>
		<path class="st1" d="M272.4,491.7h-5.2v-4.4H267c0,0-3.3,5-11.4,5c-8.7,0-15.7-6-15.7-15.4c0-9.4,7-15.4,15.7-15.4
			c8,0,11.4,5,11.4,5h0.2v-17.1h5.2V491.7z M256.2,487.4c6.8,0,11-4.5,11-10.6c0-6.2-4.4-10.6-11-10.6c-6.8,0-11,4.5-11,10.6
			C245.3,482.9,249.5,487.4,256.2,487.4z"/>
		<path class="st1" d="M306,476.4c0-7.2-4.2-10.1-9.7-10.1c-6.4,0-9.7,4.2-9.7,10.1v15.3h-5.2v-29.6h5.2v4.5h0.3
			c0,0,2.6-5.1,10.9-5.1c7.1,0,13.3,4.1,13.3,13.7v16.5H306V476.4z"/>
		<path class="st1" d="M321.3,457.2c0-3.3-2.9-0.9-2.9-4.9c0-2.3,1.3-3.4,3.3-3.4c2,0,3.3,1.1,3.3,4c0,6.3-1.8,9.5-3.7,9.5V457.2z"
			/>
		<path class="st1" d="M340.3,480.2c0,5.9,2.9,7.5,6.6,7.5c3.4,0,5.3-1.4,5.3-1.4v4.7c0,0-2.3,1.2-5.9,1.2
			c-6.6,0-11.2-3.6-11.2-11.4v-14.1h-5v-4.7h5v-6.6h5.2v6.6h11v4.7h-11V480.2z"/>
		<path class="st1" d="M393.6,467.6h-0.2l-7.6,24h-6.9l-8.8-29.6h5.3l6.9,23.9h0.2l7.6-23.9h6.8l7.6,23.9h0.2l6.9-23.9h5.3
			l-8.8,29.6h-6.9L393.6,467.6z"/>
		<path class="st1" d="M453.9,483.5c0,3,0.8,4,2.5,4c1.2,0,1.7-0.4,1.7-0.4v4.6c0,0-0.9,0.5-2.7,0.5c-6.2,0-6.8-5-6.8-5h-0.2
			c0,0-3.3,5-11.4,5c-8.7,0-15.7-6-15.7-15.4c0-9.4,7-15.4,15.7-15.4c8,0,11.4,5,11.4,5h0.2v-4.4h5.2V483.5z M437.7,487.4
			c6.6,0,11-4.6,11-10.6c0-6.2-4.4-10.6-11-10.6c-6.8,0-11,4.5-11,10.6C426.7,482.9,430.9,487.4,437.7,487.4z"/>
		<path class="st1" d="M488.3,476.4c0-7.2-4.2-10.1-9.7-10.1c-6.4,0-9.7,4.2-9.7,10.1v15.3h-5.2v-29.6h5.2v4.5h0.3
			c0,0,2.6-5.1,10.9-5.1c7.1,0,13.3,4.1,13.3,13.7v16.5h-5.2V476.4z"/>
		<path class="st1" d="M510,480.2c0,5.9,2.9,7.5,6.6,7.5c3.4,0,5.3-1.4,5.3-1.4v4.7c0,0-2.3,1.2-5.9,1.2c-6.6,0-11.2-3.6-11.2-11.4
			v-14.1h-5v-4.7h5v-6.6h5.2v6.6h11v4.7h-11V480.2z"/>
		<path class="st1" d="M550.8,480.2c0,5.9,2.9,7.5,6.6,7.5c3.4,0,5.3-1.4,5.3-1.4v4.7c0,0-2.3,1.2-5.9,1.2
			c-6.6,0-11.2-3.6-11.2-11.4v-14.1h-5v-4.7h5v-6.6h5.2v6.6h11v4.7h-11V480.2z"/>
		<path class="st1" d="M582.5,461.5c9.3,0,16.2,6,16.2,15.4c0,9.4-6.9,15.4-16.2,15.4s-16.2-6-16.2-15.4
			C566.3,467.4,573.2,461.5,582.5,461.5z M582.5,466.3c-6.8,0-10.9,4.5-10.9,10.6c0,6,4.2,10.6,10.9,10.6c6.8,0,10.9-4.5,10.9-10.6
			C593.4,470.8,589.3,466.3,582.5,466.3z"/>
		<path class="st1" d="M645.6,476.4c0-7.2-4.2-10.1-9.7-10.1c-6.4,0-9.7,4.2-9.7,10.1v15.3h-5.2v-42.3h5.2v17.2h0.3
			c0,0,2.6-5.1,10.9-5.1c7.1,0,13.3,4.1,13.3,13.7v16.5h-5.2V476.4z"/>
		<path class="st1" d="M690.8,483.5c0,3,0.8,4,2.5,4c1.2,0,1.7-0.4,1.7-0.4v4.6c0,0-0.9,0.5-2.7,0.5c-6.2,0-6.8-5-6.8-5h-0.2
			c0,0-3.3,5-11.4,5c-8.7,0-15.7-6-15.7-15.4c0-9.4,7-15.4,15.7-15.4c8,0,11.4,5,11.4,5h0.2v-4.4h5.2V483.5z M674.6,487.4
			c6.6,0,11-4.6,11-10.6c0-6.2-4.4-10.6-11-10.6c-6.8,0-11,4.5-11,10.6C663.6,482.9,667.9,487.4,674.6,487.4z"/>
		<path class="st1" d="M716.9,491.7h-7.7l-12.1-29.6h5.4l10.4,25.5h0.2l10.4-25.5h5.4L716.9,491.7z"/>
		<path class="st1" d="M765.5,479.3h-26.7c0,2.7,3.5,8.1,11,8.1c6.6,0,9-3.9,9-3.9h6.1c0,0-2.9,8.8-15.1,8.8
			c-9.6,0-16.5-6-16.5-15.4c0-9.4,6.9-15.4,16.2-15.4s16.2,6,16.2,15.4C765.7,478.3,765.5,479.3,765.5,479.3z M738.7,474.6h21.5
			c0-2.9-3.4-8.3-10.7-8.3S738.7,471.7,738.7,474.6z"/>
		<path class="st1" d="M819.3,483.5c0,3,0.8,4,2.5,4c1.2,0,1.7-0.4,1.7-0.4v4.6c0,0-0.9,0.5-2.7,0.5c-6.2,0-6.8-5-6.8-5h-0.2
			c0,0-3.3,5-11.4,5c-8.7,0-15.7-6-15.7-15.4c0-9.4,7-15.4,15.7-15.4c8,0,11.4,5,11.4,5h0.2v-4.4h5.2V483.5z M803.1,487.4
			c6.6,0,11-4.6,11-10.6c0-6.2-4.4-10.6-11-10.6c-6.8,0-11,4.5-11,10.6C792.2,482.9,796.4,487.4,803.1,487.4z"/>
		<path class="st1" d="M853.8,476.4c0-7.2-4.2-10.1-9.7-10.1c-6.4,0-9.7,4.2-9.7,10.1v15.3h-5.2v-29.6h5.2v4.5h0.3
			c0,0,2.6-5.1,10.9-5.1c7.1,0,13.3,4.1,13.3,13.7v16.5h-5.2V476.4z"/>
		<path class="st1" d="M892.2,487.1h-0.3c0,0-2.6,5.1-10.9,5.1c-7.1,0-13.3-4.1-13.3-13.7v-16.5h5.2v15.3c0,7.2,4.2,10.1,9.7,10.1
			c6.4,0,9.7-4.2,9.7-10.1v-15.3h5.2v28.4c0,9.4-6.8,13.9-14.7,13.9c-13.7,0-14-10.3-14-10.3h5.4c0,0,0.2,5.5,8.6,5.5
			c5.4,0,9.5-3,9.5-9.1V487.1z"/>
		<path class="st1" d="M928.7,480.2c0,5.9,2.9,7.5,6.6,7.5c3.4,0,5.3-1.4,5.3-1.4v4.7c0,0-2.3,1.2-5.9,1.2
			c-6.6,0-11.2-3.6-11.2-11.4v-14.1h-5v-4.7h5v-6.6h5.2v6.6h11v4.7h-11V480.2z"/>
		<path class="st1" d="M971.7,487.1h-0.3c0,0-2.6,5.1-10.9,5.1c-7.1,0-13.3-4.1-13.3-13.7v-16.5h5.2v15.3c0,7.2,4.2,10.1,9.7,10.1
			c6.4,0,9.7-4.2,9.7-10.1v-15.3h5.2v28.4c0,9.4-6.8,13.9-14.7,13.9c-13.7,0-14-10.3-14-10.3h5.4c0,0,0.2,5.5,8.6,5.5
			c5.4,0,9.5-3,9.5-9.1V487.1z"/>
		<path class="st1" d="M986,462.1h5.2v4.4h0.2c0,0,3.3-5,11.4-5c8.7,0,15.7,6,15.7,15.4c0,9.4-7,15.4-15.7,15.4c-8,0-11.4-5-11.4-5
			h-0.2v16.5H986V462.1z M1002.2,466.3c-6.8,0-11,4.5-11,10.6c0,6.2,4.4,10.6,11,10.6c6.8,0,11-4.5,11-10.6
			C1013.2,470.8,1008.9,466.3,1002.2,466.3z"/>
		<path class="st1" d="M1057.4,479.3h-26.7c0,2.7,3.5,8.1,11,8.1c6.6,0,9-3.9,9-3.9h6.1c0,0-2.9,8.8-15.1,8.8
			c-9.6,0-16.5-6-16.5-15.4c0-9.4,6.9-15.4,16.2-15.4c9.3,0,16.2,6,16.2,15.4C1057.6,478.3,1057.4,479.3,1057.4,479.3z
			 M1030.6,474.6h21.5c0-2.9-3.4-8.3-10.7-8.3C1034,466.3,1030.6,471.7,1030.6,474.6z"/>
		<path class="st1" d="M1087.6,480.2c0,5.9,2.9,7.5,6.6,7.5c3.4,0,5.3-1.4,5.3-1.4v4.7c0,0-2.3,1.2-5.9,1.2
			c-6.6,0-11.2-3.6-11.2-11.4v-14.1h-5v-4.7h5v-6.6h5.2v6.6h11v4.7h-11V480.2z"/>
		<path class="st1" d="M1126.1,461.9v5.7c0,0-1.7-0.6-4.5-0.6c-6.5,0-10.3,4.8-10.3,10.6v14.1h-5.2v-29.6h5.2v5.7h0.3
			c0,0,2.6-6.3,10.9-6.3C1124.7,461.5,1126.1,461.9,1126.1,461.9z"/>
		<path class="st1" d="M1162.3,479.3h-26.7c0,2.7,3.5,8.1,11,8.1c6.6,0,9-3.9,9-3.9h6.1c0,0-2.9,8.8-15.1,8.8
			c-9.6,0-16.5-6-16.5-15.4c0-9.4,6.9-15.4,16.2-15.4c9.3,0,16.2,6,16.2,15.4C1162.5,478.3,1162.3,479.3,1162.3,479.3z
			 M1135.5,474.6h21.5c0-2.9-3.4-8.3-10.7-8.3S1135.5,471.7,1135.5,474.6z"/>
		<path class="st1" d="M1201.6,483.5c0,3,0.8,4,2.5,4c1.2,0,1.7-0.4,1.7-0.4v4.6c0,0-0.9,0.5-2.7,0.5c-6.2,0-6.8-5-6.8-5h-0.2
			c0,0-3.3,5-11.4,5c-8.7,0-15.7-6-15.7-15.4c0-9.4,7-15.4,15.7-15.4c8,0,11.4,5,11.4,5h0.2v-4.4h5.2V483.5z M1185.4,487.4
			c6.6,0,11-4.6,11-10.6c0-6.2-4.4-10.6-11-10.6c-6.8,0-11,4.5-11,10.6C1174.5,482.9,1178.7,487.4,1185.4,487.4z"/>
		<path class="st1" d="M1219.3,480.2c0,5.9,2.9,7.5,6.6,7.5c3.4,0,5.3-1.4,5.3-1.4v4.7c0,0-2.3,1.2-5.9,1.2
			c-6.6,0-11.2-3.6-11.2-11.4v-14.1h-5v-4.7h5v-6.6h5.2v6.6h11v4.7h-11V480.2z"/>
		<path class="st1" d="M1267.1,479.3h-26.7c0,2.7,3.5,8.1,11,8.1c6.6,0,9-3.9,9-3.9h6.1c0,0-2.9,8.8-15.1,8.8
			c-9.6,0-16.5-6-16.5-15.4c0-9.4,6.9-15.4,16.2-15.4s16.2,6,16.2,15.4C1267.3,478.3,1267.1,479.3,1267.1,479.3z M1240.3,474.6h21.5
			c0-2.9-3.4-8.3-10.7-8.3S1240.3,471.7,1240.3,474.6z"/>
		<path class="st1" d="M1306.4,491.7h-5.2v-4.4h-0.2c0,0-3.3,5-11.4,5c-8.7,0-15.7-6-15.7-15.4c0-9.4,7-15.4,15.7-15.4
			c8,0,11.4,5,11.4,5h0.2v-17.1h5.2V491.7z M1290.2,487.4c6.8,0,11-4.5,11-10.6c0-6.2-4.4-10.6-11-10.6c-6.8,0-11,4.5-11,10.6
			C1279.3,482.9,1283.5,487.4,1290.2,487.4z"/>
		<path class="st1" d="M1350.2,467.6h-0.2l-7.6,24h-6.9l-8.8-29.6h5.3l6.9,23.9h0.2l7.6-23.9h6.8l7.6,23.9h0.2l6.9-23.9h5.3
			l-8.8,29.6h-6.9L1350.2,467.6z"/>
		<path class="st1" d="M1381.8,454.6c-1.9,0-3.2-1.2-3.2-2.9s1.3-2.9,3.2-2.9c1.9,0,3.2,1.2,3.2,2.9S1383.7,454.6,1381.8,454.6z
			 M1384.4,491.7h-5.2v-29.6h5.2V491.7z"/>
		<path class="st1" d="M1401.2,480.2c0,5.9,2.9,7.5,6.6,7.5c3.4,0,5.3-1.4,5.3-1.4v4.7c0,0-2.3,1.2-5.9,1.2
			c-6.6,0-11.2-3.6-11.2-11.4v-14.1h-5v-4.7h5v-6.6h5.2v6.6h11v4.7h-11V480.2z"/>
		<path class="st1" d="M1444.2,476.4c0-7.2-4.2-10.1-9.7-10.1c-6.4,0-9.7,4.2-9.7,10.1v15.3h-5.2v-42.3h5.2v17.2h0.3
			c0,0,2.6-5.1,10.9-5.1c7.1,0,13.3,4.1,13.3,13.7v16.5h-5.2V476.4z"/>
		<path class="st1" d="M1472.1,470.4c0-6.3,6.1-8.9,13.6-8.9c7.5,0,13.6,2.8,13.6,10.3h-5.3c0-3.6-2.3-5.4-8.3-5.4
			c-6.2,0-8.3,1.7-8.3,4.1c0,7.3,22.9-0.5,22.9,12.5c0,6.9-6.9,9.4-14.4,9.4c-7.5,0-14.4-2.7-14.4-10.3v-1h5.3v1
			c0,3.6,3.1,5.4,9.1,5.4s9.1-1.6,9.1-4.5C1495,475.2,1472.1,483.4,1472.1,470.4z"/>
		<path class="st1" d="M1539.4,483.5c0,3,0.8,4,2.5,4c1.2,0,1.7-0.4,1.7-0.4v4.6c0,0-0.9,0.5-2.7,0.5c-6.2,0-6.8-5-6.8-5h-0.2
			c0,0-3.3,5-11.4,5c-8.7,0-15.7-6-15.7-15.4c0-9.4,7-15.4,15.7-15.4c8,0,11.4,5,11.4,5h0.2v-4.4h5.2V483.5z M1523.2,487.4
			c6.6,0,11-4.6,11-10.6c0-6.2-4.4-10.6-11-10.6c-6.8,0-11,4.5-11,10.6C1512.3,482.9,1516.5,487.4,1523.2,487.4z"/>
		<path class="st1" d="M1549.4,449.4h5.2v32.1c0,5.3,1.6,6.3,4.5,6.3c1.5,0,2.5-0.5,2.5-0.5v4.5c0,0-1.1,0.5-3.5,0.5
			c-5.4,0-8.8-2.8-8.8-9.8V449.4z"/>
		<path class="st1" d="M1569.1,454.6c-1.9,0-3.2-1.2-3.2-2.9s1.3-2.9,3.2-2.9c1.9,0,3.2,1.2,3.2,2.9S1571,454.6,1569.1,454.6z
			 M1571.7,491.7h-5.2v-29.6h5.2V491.7z"/>
		<path class="st1" d="M1595.7,461.5c11.4,0,15.7,8.4,15.7,12.1h-5.4c0,0-1.1-7.2-10.3-7.2c-6.8,0-10.9,4.5-10.9,10.5
			c0,6,4.2,10.6,10.9,10.6c9.2,0,10.3-7.2,10.3-7.2h5.4c0,3.6-4.3,12.1-15.7,12.1c-9.3,0-16.2-6-16.2-15.4
			C1579.5,467.4,1586.4,461.5,1595.7,461.5z"/>
		<path class="st1" d="M1643.8,487.1h-0.3c0,0-2.6,5.1-10.9,5.1c-7.1,0-13.3-4.1-13.3-13.7v-16.5h5.2v15.3c0,7.2,4.2,10.1,9.7,10.1
			c6.4,0,9.7-4.2,9.7-10.1v-15.3h5.2v28.4c0,9.4-6.8,13.9-14.7,13.9c-13.7,0-14-10.3-14-10.3h5.4c0,0,0.2,5.5,8.6,5.5
			c5.4,0,9.5-3,9.5-9.1V487.1z"/>
		<path class="st1" d="M1658,449.4h5.2v32.1c0,5.3,1.6,6.3,4.5,6.3c1.5,0,2.5-0.5,2.5-0.5v4.5c0,0-1.1,0.5-3.5,0.5
			c-5.4,0-8.8-2.8-8.8-9.8V449.4z"/>
		<path class="st1" d="M1677.7,454.6c-1.9,0-3.2-1.2-3.2-2.9s1.3-2.9,3.2-2.9c1.9,0,3.2,1.2,3.2,2.9S1679.7,454.6,1677.7,454.6z
			 M1680.3,491.7h-5.2v-29.6h5.2V491.7z"/>
		<path class="st1" d="M1704.4,461.5c11.4,0,15.7,8.4,15.7,12.1h-5.4c0,0-1.1-7.2-10.3-7.2c-6.8,0-10.9,4.5-10.9,10.5
			c0,6,4.2,10.6,10.9,10.6c9.2,0,10.3-7.2,10.3-7.2h5.4c0,3.6-4.3,12.1-15.7,12.1c-9.3,0-16.2-6-16.2-15.4
			C1688.2,467.4,1695.1,461.5,1704.4,461.5z"/>
		<path class="st1" d="M1773.7,483.5c0,3,0.8,4,2.5,4c1.2,0,1.7-0.4,1.7-0.4v4.6c0,0-0.9,0.5-2.7,0.5c-6.2,0-6.8-5-6.8-5h-0.2
			c0,0-3.3,5-11.4,5c-8.7,0-15.7-6-15.7-15.4c0-9.4,7-15.4,15.7-15.4c8,0,11.4,5,11.4,5h0.2v-4.4h5.2V483.5z M1757.5,487.4
			c6.6,0,11-4.6,11-10.6c0-6.2-4.4-10.6-11-10.6c-6.8,0-11,4.5-11,10.6C1746.5,482.9,1750.8,487.4,1757.5,487.4z"/>
		<path class="st1" d="M1798.7,461.5c11.4,0,15.7,8.4,15.7,12.1h-5.4c0,0-1.1-7.2-10.3-7.2c-6.8,0-10.9,4.5-10.9,10.5
			c0,6,4.2,10.6,10.9,10.6c9.2,0,10.3-7.2,10.3-7.2h5.4c0,3.6-4.3,12.1-15.7,12.1c-9.3,0-16.2-6-16.2-15.4
			C1782.5,467.4,1789.4,461.5,1798.7,461.5z"/>
		<path class="st1" d="M1824.8,454.6c-1.9,0-3.2-1.2-3.2-2.9s1.3-2.9,3.2-2.9c1.9,0,3.2,1.2,3.2,2.9S1826.8,454.6,1824.8,454.6z
			 M1827.4,491.7h-5.2v-29.6h5.2V491.7z"/>
		<path class="st1" d="M1867.8,491.7h-5.2v-4.4h-0.2c0,0-3.3,5-11.4,5c-8.7,0-15.7-6-15.7-15.4c0-9.4,7-15.4,15.7-15.4
			c8,0,11.4,5,11.4,5h0.2v-17.1h5.2V491.7z M1851.6,487.4c6.8,0,11-4.5,11-10.6c0-6.2-4.4-10.6-11-10.6c-6.8,0-11,4.5-11,10.6
			C1840.6,482.9,1844.8,487.4,1851.6,487.4z"/>
		<path class="st1" d="M1878.2,494.4c0-3.3-2.9-0.9-2.9-4.9c0-2.3,1.3-3.4,3.3-3.4c2,0,3.3,1.1,3.3,4c0,6.3-1.8,9.5-3.7,9.5V494.4z"
			/>
		<path class="st1" d="M73.2,542.8c0-6.3,6.1-8.9,13.6-8.9c7.5,0,13.6,2.8,13.6,10.3h-5.3c0-3.6-2.3-5.4-8.3-5.4
			c-6.2,0-8.3,1.7-8.3,4.1c0,7.3,22.9-0.5,22.9,12.5c0,6.9-6.9,9.4-14.4,9.4c-7.5,0-14.4-2.7-14.4-10.3v-1h5.3v1
			c0,3.6,3.1,5.4,9.1,5.4s9.1-1.6,9.1-4.5C96.1,547.7,73.2,555.8,73.2,542.8z"/>
		<path class="st1" d="M124.3,533.9c9.3,0,16.2,6,16.2,15.4s-6.9,15.4-16.2,15.4s-16.2-6-16.2-15.4S115,533.9,124.3,533.9z
			 M124.3,538.7c-6.8,0-10.9,4.5-10.9,10.6s4.2,10.6,10.9,10.6c6.8,0,10.9-4.5,10.9-10.6S131,538.7,124.3,538.7z"/>
		<path class="st1" d="M183.1,540.1h-0.2l-7.6,24h-6.9l-8.8-29.6h5.3l6.9,23.9h0.2l7.6-23.9h6.8l7.6,23.9h0.2l6.9-23.9h5.3
			l-8.8,29.6h-6.9L183.1,540.1z"/>
		<path class="st1" d="M243.2,551.8h-26.7c0,2.7,3.5,8.1,11,8.1c6.6,0,9-3.9,9-3.9h6.1c0,0-2.9,8.8-15.1,8.8
			c-9.6,0-16.5-6-16.5-15.4s6.9-15.4,16.2-15.4s16.2,6,16.2,15.4C243.4,550.8,243.2,551.8,243.2,551.8z M216.4,547.1h21.5
			c0-2.9-3.4-8.3-10.7-8.3S216.4,544.2,216.4,547.1z"/>
		<path class="st1" d="M285.9,540.1h-0.2l-7.6,24h-6.9l-8.8-29.6h5.3l6.9,23.9h0.2l7.6-23.9h6.8l7.6,23.9h0.2l6.9-23.9h5.3
			l-8.8,29.6h-6.9L285.9,540.1z"/>
		<path class="st1" d="M346.1,551.8h-26.7c0,2.7,3.5,8.1,11,8.1c6.6,0,9-3.9,9-3.9h6.1c0,0-2.9,8.8-15.1,8.8
			c-9.6,0-16.5-6-16.5-15.4s6.9-15.4,16.2-15.4s16.2,6,16.2,15.4C346.2,550.8,346.1,551.8,346.1,551.8z M319.3,547.1h21.5
			c0-2.9-3.4-8.3-10.7-8.3C322.7,538.7,319.3,544.2,319.3,547.1z"/>
		<path class="st1" d="M378.6,548.8c0-7.2-4.2-10.1-9.7-10.1c-6.4,0-9.7,4.2-9.7,10.1v15.3h-5.2v-29.6h5.2v4.5h0.3
			c0,0,2.6-5.1,10.9-5.1c7.1,0,13.3,4.1,13.3,13.7v16.5h-5.2V548.8z"/>
		<path class="st1" d="M400.3,552.6c0,5.9,2.9,7.5,6.6,7.5c3.4,0,5.3-1.4,5.3-1.4v4.7c0,0-2.3,1.2-5.9,1.2
			c-6.6,0-11.2-3.6-11.2-11.4v-14.1h-5v-4.7h5v-6.6h5.2v6.6h11v4.7h-11V552.6z"/>
		<path class="st1" d="M440.7,534.5h8.7v4.7h-8.7v24.9h-5.2v-24.9h-5v-2.9l5-1.8v-1.9c0-7.8,4.8-11.4,11.7-11.4
			c3.7,0,6.3,1.6,6.3,1.6v4.6c0,0-1.9-1.8-5.4-1.8c-4.3,0-7.4,1.7-7.4,7.5V534.5z"/>
		<path class="st1" d="M470.7,533.9c9.3,0,16.2,6,16.2,15.4s-6.9,15.4-16.2,15.4s-16.2-6-16.2-15.4S461.4,533.9,470.7,533.9z
			 M470.7,538.7c-6.8,0-10.9,4.5-10.9,10.6s4.2,10.6,10.9,10.6c6.8,0,10.9-4.5,10.9-10.6S477.4,538.7,470.7,538.7z"/>
		<path class="st1" d="M514.7,534.3v5.7c0,0-1.7-0.6-4.5-0.6c-6.5,0-10.3,4.8-10.3,10.6v14.1h-5.2v-29.6h5.2v5.7h0.3
			c0,0,2.6-6.3,10.9-6.3C513.2,533.9,514.7,534.3,514.7,534.3z"/>
		<path class="st1" d="M531.9,542.8c0-6.3,6.1-8.9,13.6-8.9c7.5,0,13.6,2.8,13.6,10.3h-5.3c0-3.6-2.3-5.4-8.3-5.4
			c-6.2,0-8.3,1.7-8.3,4.1c0,7.3,22.9-0.5,22.9,12.5c0,6.9-6.9,9.4-14.4,9.4c-7.5,0-14.4-2.7-14.4-10.3v-1h5.3v1
			c0,3.6,3.1,5.4,9.1,5.4s9.1-1.6,9.1-4.5C554.8,547.7,531.9,555.8,531.9,542.8z"/>
		<path class="st1" d="M583,533.9c9.3,0,16.2,6,16.2,15.4s-6.9,15.4-16.2,15.4s-16.2-6-16.2-15.4S573.7,533.9,583,533.9z M583,538.7
			c-6.8,0-10.9,4.5-10.9,10.6s4.2,10.6,10.9,10.6c6.8,0,10.9-4.5,10.9-10.6S589.8,538.7,583,538.7z"/>
		<path class="st1" d="M648.1,548.8c0-7.2-2.8-10.1-7.7-10.1c-5.8,0-7.7,4.2-7.7,10.1v15.3h-5.2v-15.3c0-7.2-2.8-10.1-7.7-10.1
			c-5.8,0-7.7,4.2-7.7,10.1v15.3h-5.2v-29.6h5.2v4.5h0.3c0,0,1.2-5.1,8.9-5.1c4,0,7.4,1.6,9.4,5.1h0.4c0,0,1.9-5.1,9.5-5.1
			c7.7,0,12.6,4.1,12.6,13.7v16.5h-5.2V548.8z"/>
		<path class="st1" d="M693.2,551.8h-26.7c0,2.7,3.5,8.1,11,8.1c6.6,0,9-3.9,9-3.9h6.1c0,0-2.9,8.8-15.1,8.8
			c-9.6,0-16.5-6-16.5-15.4s6.9-15.4,16.2-15.4s16.2,6,16.2,15.4C693.3,550.8,693.2,551.8,693.2,551.8z M666.4,547.1h21.5
			c0-2.9-3.4-8.3-10.7-8.3S666.4,544.2,666.4,547.1z"/>
		<path class="st1" d="M708.9,552.6c0,5.9,2.9,7.5,6.6,7.5c3.4,0,5.3-1.4,5.3-1.4v4.7c0,0-2.3,1.2-5.9,1.2
			c-6.6,0-11.2-3.6-11.2-11.4v-14.1h-5v-4.7h5v-6.6h5.2v6.6h11v4.7h-11V552.6z"/>
		<path class="st1" d="M752,548.8c0-7.2-4.2-10.1-9.7-10.1c-6.4,0-9.7,4.2-9.7,10.1v15.3h-5.2v-42.3h5.2V539h0.3
			c0,0,2.6-5.1,10.9-5.1c7.1,0,13.3,4.1,13.3,13.7v16.5H752V548.8z"/>
		<path class="st1" d="M768.5,527c-1.9,0-3.2-1.2-3.2-2.9c0-1.7,1.3-2.9,3.2-2.9c1.9,0,3.2,1.2,3.2,2.9
			C771.7,525.8,770.4,527,768.5,527z M771.1,564.1h-5.2v-29.6h5.2V564.1z"/>
		<path class="st1" d="M804.7,548.8c0-7.2-4.2-10.1-9.7-10.1c-6.4,0-9.7,4.2-9.7,10.1v15.3h-5.2v-29.6h5.2v4.5h0.3
			c0,0,2.6-5.1,10.9-5.1c7.1,0,13.3,4.1,13.3,13.7v16.5h-5.2V548.8z"/>
		<path class="st1" d="M849.9,562.5c0,9.7-7.2,14.3-15.8,14.3c-14.2,0-14.8-10.3-14.8-10.3h5.4c0,0,0.7,5.5,9.4,5.5
			c6,0,10.6-3.1,10.6-9.5v-2.8h-0.2c0,0-3.3,5-11.4,5c-8.7,0-15.7-6-15.7-15.4s7-15.4,15.7-15.4c8,0,11.4,5,11.4,5h0.2v-4.4h5.2
			V562.5z M833.7,559.9c6.6,0,10.7-4.3,11-10.1v-0.9c-0.2-6-4.6-10.1-11-10.1c-6.8,0-11,4.5-11,10.6S826.9,559.9,833.7,559.9z"/>
		<path class="st1" d="M888.4,533.9c9.3,0,16.2,6,16.2,15.4s-6.9,15.4-16.2,15.4c-9.3,0-16.2-6-16.2-15.4S879.1,533.9,888.4,533.9z
			 M888.4,538.7c-6.8,0-10.9,4.5-10.9,10.6s4.2,10.6,10.9,10.6c6.8,0,10.9-4.5,10.9-10.6S895.2,538.7,888.4,538.7z"/>
		<path class="st1" d="M932.5,534.3v5.7c0,0-1.7-0.6-4.5-0.6c-6.5,0-10.3,4.8-10.3,10.6v14.1h-5.2v-29.6h5.2v5.7h0.3
			c0,0,2.6-6.3,10.9-6.3C931,533.9,932.5,534.3,932.5,534.3z"/>
		<path class="st1" d="M968.9,562.5c0,9.7-7.2,14.3-15.8,14.3c-14.2,0-14.8-10.3-14.8-10.3h5.4c0,0,0.7,5.5,9.4,5.5
			c6,0,10.6-3.1,10.6-9.5v-2.8h-0.2c0,0-3.3,5-11.4,5c-8.7,0-15.7-6-15.7-15.4s7-15.4,15.7-15.4c8,0,11.4,5,11.4,5h0.2v-4.4h5.2
			V562.5z M952.7,559.9c6.6,0,10.7-4.3,11-10.1v-0.9c-0.2-6-4.6-10.1-11-10.1c-6.8,0-11,4.5-11,10.6S945.9,559.9,952.7,559.9z"/>
		<path class="st1" d="M1009.2,555.9c0,3,0.8,4,2.5,4c1.2,0,1.7-0.4,1.7-0.4v4.6c0,0-0.9,0.5-2.7,0.5c-6.2,0-6.8-5-6.8-5h-0.2
			c0,0-3.3,5-11.4,5c-8.7,0-15.7-6-15.7-15.4s7-15.4,15.7-15.4c8,0,11.4,5,11.4,5h0.2v-4.4h5.2V555.9z M993,559.9
			c6.6,0,11-4.6,11-10.6c0-6.2-4.4-10.6-11-10.6c-6.8,0-11,4.5-11,10.6S986.2,559.9,993,559.9z"/>
		<path class="st1" d="M1043.6,548.8c0-7.2-4.2-10.1-9.7-10.1c-6.4,0-9.7,4.2-9.7,10.1v15.3h-5.2v-29.6h5.2v4.5h0.3
			c0,0,2.6-5.1,10.9-5.1c7.1,0,13.3,4.1,13.3,13.7v16.5h-5.2V548.8z"/>
		<path class="st1" d="M1060.2,527c-1.9,0-3.2-1.2-3.2-2.9c0-1.7,1.3-2.9,3.2-2.9c1.9,0,3.2,1.2,3.2,2.9
			C1063.4,525.8,1062.1,527,1060.2,527z M1062.8,564.1h-5.2v-29.6h5.2V564.1z"/>
		<path class="st1" d="M1086.9,533.9c11.4,0,15.7,8.5,15.7,12.1h-5.4c0,0-1.1-7.2-10.3-7.2c-6.8,0-10.9,4.5-10.9,10.5
			c0,6,4.2,10.6,10.9,10.6c9.2,0,10.3-7.2,10.3-7.2h5.4c0,3.6-4.3,12.1-15.7,12.1c-9.3,0-16.2-6-16.2-15.4
			C1070.6,539.9,1077.6,533.9,1086.9,533.9z"/>
		<path class="st1" d="M1111.8,566.8c0-3.3-2.9-0.9-2.9-5c0-2.3,1.3-3.4,3.3-3.4c2,0,3.3,1.1,3.3,4c0,6.3-1.8,9.5-3.7,9.5V566.8z"/>
		<path class="st1" d="M1137,542.8c0-6.3,6.1-8.9,13.6-8.9c7.5,0,13.6,2.8,13.6,10.3h-5.3c0-3.6-2.3-5.4-8.3-5.4
			c-6.2,0-8.3,1.7-8.3,4.1c0,7.3,22.9-0.5,22.9,12.5c0,6.9-6.9,9.4-14.4,9.4c-7.5,0-14.4-2.7-14.4-10.3v-1h5.3v1
			c0,3.6,3.1,5.4,9.1,5.4c6,0,9.1-1.6,9.1-4.5C1159.9,547.7,1137,555.8,1137,542.8z"/>
		<path class="st1" d="M1188.1,533.9c9.3,0,16.2,6,16.2,15.4s-6.9,15.4-16.2,15.4c-9.3,0-16.2-6-16.2-15.4
			S1178.8,533.9,1188.1,533.9z M1188.1,538.7c-6.8,0-10.9,4.5-10.9,10.6s4.2,10.6,10.9,10.6c6.8,0,10.9-4.5,10.9-10.6
			S1194.9,538.7,1188.1,538.7z"/>
		<path class="st1" d="M1253.2,548.8c0-7.2-2.8-10.1-7.7-10.1c-5.8,0-7.7,4.2-7.7,10.1v15.3h-5.2v-15.3c0-7.2-2.8-10.1-7.7-10.1
			c-5.8,0-7.7,4.2-7.7,10.1v15.3h-5.2v-29.6h5.2v4.5h0.3c0,0,1.2-5.1,8.9-5.1c4,0,7.4,1.6,9.4,5.1h0.4c0,0,1.9-5.1,9.5-5.1
			s12.6,4.1,12.6,13.7v16.5h-5.2V548.8z"/>
		<path class="st1" d="M1298.3,551.8h-26.7c0,2.7,3.5,8.1,11,8.1c6.6,0,9-3.9,9-3.9h6.1c0,0-2.9,8.8-15.1,8.8
			c-9.6,0-16.5-6-16.5-15.4s6.9-15.4,16.2-15.4s16.2,6,16.2,15.4C1298.5,550.8,1298.3,551.8,1298.3,551.8z M1271.5,547.1h21.5
			c0-2.9-3.4-8.3-10.7-8.3S1271.5,544.2,1271.5,547.1z"/>
		<path class="st1" d="M1314,552.6c0,5.9,2.9,7.5,6.6,7.5c3.4,0,5.3-1.4,5.3-1.4v4.7c0,0-2.3,1.2-5.9,1.2c-6.6,0-11.2-3.6-11.2-11.4
			v-14.1h-5v-4.7h5v-6.6h5.2v6.6h11v4.7h-11V552.6z"/>
		<path class="st1" d="M1357.1,548.8c0-7.2-4.2-10.1-9.7-10.1c-6.4,0-9.7,4.2-9.7,10.1v15.3h-5.2v-42.3h5.2V539h0.3
			c0,0,2.6-5.1,10.9-5.1c7.1,0,13.3,4.1,13.3,13.7v16.5h-5.2V548.8z"/>
		<path class="st1" d="M1373.6,527c-1.9,0-3.2-1.2-3.2-2.9c0-1.7,1.3-2.9,3.2-2.9c1.9,0,3.2,1.2,3.2,2.9
			C1376.8,525.8,1375.5,527,1373.6,527z M1376.2,564.1h-5.2v-29.6h5.2V564.1z"/>
		<path class="st1" d="M1409.8,548.8c0-7.2-4.2-10.1-9.7-10.1c-6.4,0-9.7,4.2-9.7,10.1v15.3h-5.2v-29.6h5.2v4.5h0.3
			c0,0,2.6-5.1,10.9-5.1c7.1,0,13.3,4.1,13.3,13.7v16.5h-5.2V548.8z"/>
		<path class="st1" d="M1455,562.5c0,9.7-7.2,14.3-15.8,14.3c-14.2,0-14.8-10.3-14.8-10.3h5.4c0,0,0.7,5.5,9.4,5.5
			c6,0,10.6-3.1,10.6-9.5v-2.8h-0.2c0,0-3.3,5-11.4,5c-8.7,0-15.7-6-15.7-15.4s7-15.4,15.7-15.4c8,0,11.4,5,11.4,5h0.2v-4.4h5.2
			V562.5z M1438.8,559.9c6.6,0,10.7-4.3,11-10.1v-0.9c-0.2-6-4.6-10.1-11-10.1c-6.8,0-11,4.5-11,10.6S1432,559.9,1438.8,559.9z"/>
		<path class="st1" d="M1486.2,552.6c0,5.9,2.9,7.5,6.6,7.5c3.4,0,5.3-1.4,5.3-1.4v4.7c0,0-2.3,1.2-5.9,1.2
			c-6.6,0-11.2-3.6-11.2-11.4v-14.1h-5v-4.7h5v-6.6h5.2v6.6h11v4.7h-11V552.6z"/>
		<path class="st1" d="M1529.3,548.8c0-7.2-4.2-10.1-9.7-10.1c-6.4,0-9.7,4.2-9.7,10.1v15.3h-5.2v-42.3h5.2V539h0.3
			c0,0,2.6-5.1,10.9-5.1c7.1,0,13.3,4.1,13.3,13.7v16.5h-5.2V548.8z"/>
		<path class="st1" d="M1574.5,555.9c0,3,0.8,4,2.5,4c1.2,0,1.7-0.4,1.7-0.4v4.6c0,0-0.9,0.5-2.7,0.5c-6.2,0-6.8-5-6.8-5h-0.2
			c0,0-3.3,5-11.4,5c-8.7,0-15.7-6-15.7-15.4s7-15.4,15.7-15.4c8,0,11.4,5,11.4,5h0.2v-4.4h5.2V555.9z M1558.3,559.9
			c6.6,0,11-4.6,11-10.6c0-6.2-4.4-10.6-11-10.6c-6.8,0-11,4.5-11,10.6S1551.6,559.9,1558.3,559.9z"/>
		<path class="st1" d="M1592.2,552.6c0,5.9,2.9,7.5,6.6,7.5c3.4,0,5.3-1.4,5.3-1.4v4.7c0,0-2.3,1.2-5.9,1.2
			c-6.6,0-11.2-3.6-11.2-11.4v-14.1h-5v-4.7h5v-6.6h5.2v6.6h11v4.7h-11V552.6z"/>
		<path class="st1" d="M1624.7,542.8c0-6.3,6.1-8.9,13.6-8.9s13.6,2.8,13.6,10.3h-5.3c0-3.6-2.3-5.4-8.3-5.4c-6.2,0-8.3,1.7-8.3,4.1
			c0,7.3,22.9-0.5,22.9,12.5c0,6.9-6.9,9.4-14.4,9.4s-14.4-2.7-14.4-10.3v-1h5.3v1c0,3.6,3.1,5.4,9.1,5.4s9.1-1.6,9.1-4.5
			C1647.5,547.7,1624.7,555.8,1624.7,542.8z"/>
		<path class="st1" d="M1685.2,548.8c0-7.2-4.2-10.1-9.7-10.1c-6.4,0-9.7,4.2-9.7,10.1v15.3h-5.2v-42.3h5.2V539h0.3
			c0,0,2.6-5.1,10.9-5.1c7.1,0,13.3,4.1,13.3,13.7v16.5h-5.2V548.8z"/>
		<path class="st1" d="M1714.2,533.9c9.3,0,16.2,6,16.2,15.4s-6.9,15.4-16.2,15.4s-16.2-6-16.2-15.4S1704.9,533.9,1714.2,533.9z
			 M1714.2,538.7c-6.8,0-10.9,4.5-10.9,10.6s4.2,10.6,10.9,10.6c6.8,0,10.9-4.5,10.9-10.6S1720.9,538.7,1714.2,538.7z"/>
		<path class="st1" d="M1762.8,559.3c0,0-2.7,5.4-11,5.4c-7.2,0-13.5-4.1-13.5-13.7v-16.5h5.2v15.3c0,7.2,4.2,10.1,9.7,10.1
			c6.4,0,9.7-4.2,9.7-10.1v-15.3h5.2v21.4c0,3,0.8,4,2.5,4c1.2,0,1.7-0.4,1.7-0.4v4.6c0,0-0.9,0.5-2.7,0.5c-6.1,0-6.5-5.4-6.5-5.4
			H1762.8z"/>
		<path class="st1" d="M1777.9,521.8h5.2v32.1c0,5.3,1.6,6.3,4.5,6.3c1.5,0,2.5-0.5,2.5-0.5v4.5c0,0-1.1,0.5-3.5,0.5
			c-5.4,0-8.8-2.8-8.8-9.8V521.8z"/>
		<path class="st1" d="M1826.3,564.1h-5.2v-4.4h-0.2c0,0-3.3,5-11.4,5c-8.7,0-15.7-6-15.7-15.4s7-15.4,15.7-15.4c8,0,11.4,5,11.4,5
			h0.2v-17.1h5.2V564.1z M1810.1,559.9c6.8,0,11-4.5,11-10.6c0-6.2-4.4-10.6-11-10.6c-6.8,0-11,4.5-11,10.6
			S1803.3,559.9,1810.1,559.9z"/>
		<path class="st1" d="M114.8,621.3c0-7.2-2.8-10.1-7.7-10.1c-5.8,0-7.7,4.2-7.7,10.1v15.3h-5.2v-15.3c0-7.2-2.8-10.1-7.7-10.1
			c-5.8,0-7.7,4.2-7.7,10.1v15.3h-5.2v-29.6h5.2v4.5h0.3c0,0,1.2-5.1,8.9-5.1c4,0,7.4,1.6,9.4,5.1h0.4c0,0,1.9-5.1,9.5-5.1
			c7.7,0,12.6,4.1,12.6,13.7v16.5h-5.2V621.3z"/>
		<path class="st1" d="M159.8,624.2h-26.7c0,2.7,3.5,8.1,11,8.1c6.6,0,9-3.9,9-3.9h6.1c0,0-2.9,8.8-15.1,8.8
			c-9.6,0-16.5-6-16.5-15.4c0-9.4,6.9-15.4,16.2-15.4c9.3,0,16.2,6,16.2,15.4C160,623.2,159.8,624.2,159.8,624.2z M133,619.5h21.5
			c0-2.9-3.4-8.3-10.7-8.3C136.5,611.2,133,616.6,133,619.5z"/>
		<path class="st1" d="M167.9,594.3h5.2v32.1c0,5.3,1.6,6.3,4.5,6.3c1.5,0,2.5-0.5,2.5-0.5v4.5c0,0-1.1,0.5-3.5,0.5
			c-5.4,0-8.8-2.8-8.8-9.8V594.3z"/>
		<path class="st1" d="M192.7,625.1c0,5.9,2.9,7.5,6.6,7.5c3.4,0,5.3-1.4,5.3-1.4v4.7c0,0-2.3,1.2-5.9,1.2
			c-6.6,0-11.2-3.6-11.2-11.4v-14.1h-5v-4.7h5v-6.6h5.2v6.6h11v4.7h-11V625.1z"/>
		<path class="st1" d="M250.2,632h-0.3c0,0-2.6,5.1-10.9,5.1c-7.1,0-13.3-4.1-13.3-13.7v-16.5h5.2v15.3c0,7.2,4.2,10.1,9.7,10.1
			c6.4,0,9.7-4.2,9.7-10.1v-15.3h5.2v28.4c0,9.4-6.8,13.9-14.7,13.9c-13.7,0-14-10.3-14-10.3h5.4c0,0,0.2,5.5,8.6,5.5
			c5.4,0,9.5-3,9.5-9.1V632z"/>
		<path class="st1" d="M279.5,606.3c9.3,0,16.2,6,16.2,15.4c0,9.4-6.9,15.4-16.2,15.4s-16.2-6-16.2-15.4
			C263.2,612.3,270.2,606.3,279.5,606.3z M279.5,611.2c-6.8,0-10.9,4.5-10.9,10.6c0,6,4.2,10.6,10.9,10.6c6.8,0,10.9-4.5,10.9-10.6
			C290.4,615.7,286.2,611.2,279.5,611.2z"/>
		<path class="st1" d="M328.1,631.7c0,0-2.7,5.4-11,5.4c-7.2,0-13.5-4.1-13.5-13.7v-16.5h5.2v15.3c0,7.2,4.2,10.1,9.7,10.1
			c6.4,0,9.7-4.2,9.7-10.1v-15.3h5.2v21.4c0,3,0.8,4,2.5,4c1.2,0,1.7-0.4,1.7-0.4v4.6c0,0-0.9,0.5-2.7,0.5c-6.1,0-6.5-5.4-6.5-5.4
			H328.1z"/>
		<path class="st1" d="M344.6,602.1c0-3.3-2.9-0.9-2.9-4.9c0-2.3,1.3-3.4,3.3-3.4c2,0,3.3,1.1,3.3,4c0,6.3-1.8,9.5-3.7,9.5V602.1z"
			/>
		<path class="st1" d="M355.4,615.3c0-6.3,6.1-8.9,13.6-8.9c7.5,0,13.6,2.8,13.6,10.3h-5.3c0-3.6-2.3-5.4-8.3-5.4
			c-6.2,0-8.3,1.7-8.3,4.1c0,7.3,22.9-0.5,22.9,12.5c0,6.9-6.9,9.4-14.4,9.4c-7.5,0-14.4-2.7-14.4-10.3v-1h5.3v1
			c0,3.6,3.1,5.4,9.1,5.4c6,0,9.1-1.6,9.1-4.5C378.2,620.1,355.4,628.3,355.4,615.3z"/>
		<path class="st1" d="M405.3,615.3c0-6.3,6.1-8.9,13.6-8.9s13.6,2.8,13.6,10.3h-5.3c0-3.6-2.3-5.4-8.3-5.4c-6.2,0-8.3,1.7-8.3,4.1
			c0,7.3,22.9-0.5,22.9,12.5c0,6.9-6.9,9.4-14.4,9.4s-14.4-2.7-14.4-10.3v-1h5.3v1c0,3.6,3.1,5.4,9.1,5.4c6,0,9.1-1.6,9.1-4.5
			C428.2,620.1,405.3,628.3,405.3,615.3z"/>
		<path class="st1" d="M441.4,606.9h5.2v4.4h0.2c0,0,3.3-5,11.4-5c8.7,0,15.7,6,15.7,15.4c0,9.4-7,15.4-15.7,15.4
			c-8,0-11.4-5-11.4-5h-0.2v16.5h-5.2V606.9z M457.6,611.2c-6.8,0-11,4.5-11,10.6c0,6.2,4.4,10.6,11,10.6c6.8,0,11-4.5,11-10.6
			C468.5,615.7,464.3,611.2,457.6,611.2z"/>
		<path class="st1" d="M484.3,599.5c-1.9,0-3.2-1.2-3.2-2.9s1.3-2.9,3.2-2.9c1.9,0,3.2,1.2,3.2,2.9S486.2,599.5,484.3,599.5z
			 M486.9,636.5h-5.2v-29.6h5.2V636.5z"/>
		<path class="st1" d="M520.5,621.3c0-7.2-4.2-10.1-9.7-10.1c-6.4,0-9.7,4.2-9.7,10.1v15.3h-5.2v-29.6h5.2v4.5h0.3
			c0,0,2.6-5.1,10.9-5.1c7.1,0,13.3,4.1,13.3,13.7v16.5h-5.2V621.3z"/>
		<path class="st1" d="M565.5,624.2h-26.7c0,2.7,3.5,8.1,11,8.1c6.6,0,9-3.9,9-3.9h6.1c0,0-2.9,8.8-15.1,8.8
			c-9.6,0-16.5-6-16.5-15.4c0-9.4,6.9-15.4,16.2-15.4c9.3,0,16.2,6,16.2,15.4C565.7,623.2,565.5,624.2,565.5,624.2z M538.7,619.5
			h21.5c0-2.9-3.4-8.3-10.7-8.3S538.7,616.6,538.7,619.5z"/>
		<path class="st1" d="M575.3,630.9c2.1,0,3.3,1.1,3.3,3.1c0,2-1.3,3.1-3.3,3.1c-2.1,0-3.3-1.1-3.3-3.1
			C572,632,573.3,630.9,575.3,630.9z"/>
		<path class="st1" d="M607.3,594.3v42.3h-5.7v-42.3H607.3z"/>
		<path class="st1" d="M641.7,621.3c0-7.2-4.2-10.1-9.7-10.1c-6.4,0-9.7,4.2-9.7,10.1v15.3h-5.2v-29.6h5.2v4.5h0.3
			c0,0,2.6-5.1,10.9-5.1c7.1,0,13.3,4.1,13.3,13.7v16.5h-5.2V621.3z"/>
		<path class="st1" d="M677.9,625.1c0,5.9,2.9,7.5,6.6,7.5c3.4,0,5.3-1.4,5.3-1.4v4.7c0,0-2.3,1.2-5.9,1.2
			c-6.6,0-11.2-3.6-11.2-11.4v-14.1h-5v-4.7h5v-6.6h5.2v6.6h11v4.7h-11V625.1z"/>
		<path class="st1" d="M720.9,621.3c0-7.2-4.2-10.1-9.7-10.1c-6.4,0-9.7,4.2-9.7,10.1v15.3h-5.2v-42.3h5.2v17.2h0.3
			c0,0,2.6-5.1,10.9-5.1c7.1,0,13.3,4.1,13.3,13.7v16.5h-5.2V621.3z"/>
		<path class="st1" d="M766.1,628.4c0,3,0.8,4,2.5,4c1.2,0,1.7-0.4,1.7-0.4v4.6c0,0-0.9,0.5-2.7,0.5c-6.2,0-6.8-5-6.8-5h-0.2
			c0,0-3.3,5-11.4,5c-8.7,0-15.7-6-15.7-15.4c0-9.4,7-15.4,15.7-15.4c8,0,11.4,5,11.4,5h0.2v-4.4h5.2V628.4z M750,632.3
			c6.6,0,11-4.6,11-10.6c0-6.2-4.4-10.6-11-10.6c-6.8,0-11,4.5-11,10.6C739,627.8,743.2,632.3,750,632.3z"/>
		<path class="st1" d="M783.8,625.1c0,5.9,2.9,7.5,6.6,7.5c3.4,0,5.3-1.4,5.3-1.4v4.7c0,0-2.3,1.2-5.9,1.2
			c-6.6,0-11.2-3.6-11.2-11.4v-14.1h-5v-4.7h5v-6.6h5.2v6.6h11v4.7h-11V625.1z"/>
		<path class="st1" d="M816.3,615.3c0-6.3,6.1-8.9,13.6-8.9c7.5,0,13.6,2.8,13.6,10.3h-5.3c0-3.6-2.3-5.4-8.3-5.4
			c-6.2,0-8.3,1.7-8.3,4.1c0,7.3,22.9-0.5,22.9,12.5c0,6.9-6.9,9.4-14.4,9.4c-7.5,0-14.4-2.7-14.4-10.3v-1h5.3v1
			c0,3.6,3.1,5.4,9.1,5.4c6,0,9.1-1.6,9.1-4.5C839.2,620.1,816.3,628.3,816.3,615.3z"/>
		<path class="st1" d="M883.4,624.2h-26.7c0,2.7,3.5,8.1,11,8.1c6.6,0,9-3.9,9-3.9h6.1c0,0-2.9,8.8-15.1,8.8
			c-9.6,0-16.5-6-16.5-15.4c0-9.4,6.9-15.4,16.2-15.4c9.3,0,16.2,6,16.2,15.4C883.6,623.2,883.4,624.2,883.4,624.2z M856.6,619.5
			h21.5c0-2.9-3.4-8.3-10.7-8.3S856.6,616.6,856.6,619.5z"/>
		<path class="st1" d="M916,621.3c0-7.2-4.2-10.1-9.7-10.1c-6.4,0-9.7,4.2-9.7,10.1v15.3h-5.2v-29.6h5.2v4.5h0.3
			c0,0,2.6-5.1,10.9-5.1c7.1,0,13.3,4.1,13.3,13.7v16.5H916V621.3z"/>
		<path class="st1" d="M929.4,615.3c0-6.3,6.1-8.9,13.6-8.9c7.5,0,13.6,2.8,13.6,10.3h-5.3c0-3.6-2.3-5.4-8.3-5.4
			c-6.2,0-8.3,1.7-8.3,4.1c0,7.3,22.9-0.5,22.9,12.5c0,6.9-6.9,9.4-14.4,9.4s-14.4-2.7-14.4-10.3v-1h5.3v1c0,3.6,3.1,5.4,9.1,5.4
			s9.1-1.6,9.1-4.5C952.2,620.1,929.4,628.3,929.4,615.3z"/>
		<path class="st1" d="M996.5,624.2h-26.7c0,2.7,3.5,8.1,11,8.1c6.6,0,9-3.9,9-3.9h6.1c0,0-2.9,8.8-15.1,8.8
			c-9.6,0-16.5-6-16.5-15.4c0-9.4,6.9-15.4,16.2-15.4c9.3,0,16.2,6,16.2,15.4C996.7,623.2,996.5,624.2,996.5,624.2z M969.7,619.5
			h21.5c0-2.9-3.4-8.3-10.7-8.3S969.7,616.6,969.7,619.5z"/>
		<path class="st1" d="M1005.9,639.2c0-3.3-2.9-0.9-2.9-4.9c0-2.3,1.3-3.4,3.3-3.4c2,0,3.3,1.1,3.3,4c0,6.3-1.8,9.5-3.7,9.5V639.2z"
			/>
		<path class="st1" d="M1039.4,625.1c0,5.9,2.9,7.5,6.6,7.5c3.4,0,5.3-1.4,5.3-1.4v4.7c0,0-2.3,1.2-5.9,1.2
			c-6.6,0-11.2-3.6-11.2-11.4v-14.1h-5v-4.7h5v-6.6h5.2v6.6h11v4.7h-11V625.1z"/>
		<path class="st1" d="M1082.5,621.3c0-7.2-4.2-10.1-9.7-10.1c-6.4,0-9.7,4.2-9.7,10.1v15.3h-5.2v-42.3h5.2v17.2h0.3
			c0,0,2.6-5.1,10.9-5.1c7.1,0,13.3,4.1,13.3,13.7v16.5h-5.2V621.3z"/>
		<path class="st1" d="M1127.5,624.2h-26.7c0,2.7,3.5,8.1,11,8.1c6.6,0,9-3.9,9-3.9h6.1c0,0-2.9,8.8-15.1,8.8
			c-9.6,0-16.5-6-16.5-15.4c0-9.4,6.9-15.4,16.2-15.4c9.3,0,16.2,6,16.2,15.4C1127.7,623.2,1127.5,624.2,1127.5,624.2z
			 M1100.7,619.5h21.5c0-2.9-3.4-8.3-10.7-8.3C1104.1,611.2,1100.7,616.6,1100.7,619.5z"/>
		<path class="st1" d="M1150,594.3h5.2v32.1c0,5.3,1.6,6.3,4.5,6.3c1.5,0,2.5-0.5,2.5-0.5v4.5c0,0-1.1,0.5-3.5,0.5
			c-5.4,0-8.8-2.8-8.8-9.8V594.3z"/>
		<path class="st1" d="M1182.1,606.3c9.3,0,16.2,6,16.2,15.4c0,9.4-6.9,15.4-16.2,15.4c-9.3,0-16.2-6-16.2-15.4
			C1165.9,612.3,1172.8,606.3,1182.1,606.3z M1182.1,611.2c-6.8,0-10.9,4.5-10.9,10.6c0,6,4.2,10.6,10.9,10.6
			c6.8,0,10.9-4.5,10.9-10.6C1193,615.7,1188.9,611.2,1182.1,611.2z"/>
		<path class="st1" d="M1237.5,634.9c0,9.7-7.2,14.3-15.8,14.3c-14.2,0-14.8-10.3-14.8-10.3h5.4c0,0,0.7,5.5,9.4,5.5
			c6,0,10.6-3.1,10.6-9.5v-2.8h-0.2c0,0-3.3,5-11.4,5c-8.7,0-15.7-6-15.7-15.4c0-9.4,7-15.4,15.7-15.4c8,0,11.4,5,11.4,5h0.2v-4.4
			h5.2V634.9z M1221.3,632.3c6.6,0,10.7-4.3,11-10.1v-0.9c-0.2-6-4.6-10.1-11-10.1c-6.8,0-11,4.5-11,10.6
			C1210.3,627.8,1214.5,632.3,1221.3,632.3z"/>
		<path class="st1" d="M1261.6,606.3c9.3,0,16.2,6,16.2,15.4c0,9.4-6.9,15.4-16.2,15.4c-9.3,0-16.2-6-16.2-15.4
			C1245.3,612.3,1252.3,606.3,1261.6,606.3z M1261.6,611.2c-6.8,0-10.9,4.5-10.9,10.6c0,6,4.2,10.6,10.9,10.6
			c6.8,0,10.9-4.5,10.9-10.6C1272.5,615.7,1268.3,611.2,1261.6,611.2z"/>
		<path class="st1" d="M1293.4,625.1c0,5.9,2.9,7.5,6.6,7.5c3.4,0,5.3-1.4,5.3-1.4v4.7c0,0-2.3,1.2-5.9,1.2
			c-6.6,0-11.2-3.6-11.2-11.4v-14.1h-5v-4.7h5v-6.6h5.2v6.6h11v4.7h-11V625.1z"/>
		<path class="st1" d="M1336.4,632h-0.3c0,0-2.6,5.1-10.9,5.1c-7.1,0-13.3-4.1-13.3-13.7v-16.5h5.2v15.3c0,7.2,4.2,10.1,9.7,10.1
			c6.4,0,9.7-4.2,9.7-10.1v-15.3h5.2v28.4c0,9.4-6.8,13.9-14.7,13.9c-13.7,0-14-10.3-14-10.3h5.4c0,0,0.2,5.5,8.6,5.5
			c5.4,0,9.5-3,9.5-9.1V632z"/>
		<path class="st1" d="M1350.7,606.9h5.2v4.4h0.2c0,0,3.3-5,11.4-5c8.7,0,15.7,6,15.7,15.4c0,9.4-7,15.4-15.7,15.4
			c-8,0-11.4-5-11.4-5h-0.2v16.5h-5.2V606.9z M1366.8,611.2c-6.8,0-11,4.5-11,10.6c0,6.2,4.4,10.6,11,10.6c6.8,0,11-4.5,11-10.6
			C1377.8,615.7,1373.6,611.2,1366.8,611.2z"/>
		<path class="st1" d="M1422.1,624.2h-26.7c0,2.7,3.5,8.1,11,8.1c6.6,0,9-3.9,9-3.9h6.1c0,0-2.9,8.8-15.1,8.8
			c-9.6,0-16.5-6-16.5-15.4c0-9.4,6.9-15.4,16.2-15.4c9.3,0,16.2,6,16.2,15.4C1422.3,623.2,1422.1,624.2,1422.1,624.2z
			 M1395.3,619.5h21.5c0-2.9-3.4-8.3-10.7-8.3C1398.7,611.2,1395.3,616.6,1395.3,619.5z"/>
		<path class="st1" d="M1447.2,599.5c-1.9,0-3.2-1.2-3.2-2.9s1.3-2.9,3.2-2.9c1.9,0,3.2,1.2,3.2,2.9S1449.1,599.5,1447.2,599.5z
			 M1449.8,636.5h-5.2v-29.6h5.2V636.5z"/>
		<path class="st1" d="M1458.3,615.3c0-6.3,6.1-8.9,13.6-8.9c7.5,0,13.6,2.8,13.6,10.3h-5.3c0-3.6-2.3-5.4-8.3-5.4
			c-6.2,0-8.3,1.7-8.3,4.1c0,7.3,22.9-0.5,22.9,12.5c0,6.9-6.9,9.4-14.4,9.4c-7.5,0-14.4-2.7-14.4-10.3v-1h5.3v1
			c0,3.6,3.1,5.4,9.1,5.4c6,0,9.1-1.6,9.1-4.5C1481.2,620.1,1458.3,628.3,1458.3,615.3z"/>
		<path class="st1" d="M1523.8,606.3c9.3,0,16.2,6,16.2,15.4c0,9.4-6.9,15.4-16.2,15.4s-16.2-6-16.2-15.4
			C1507.6,612.3,1514.5,606.3,1523.8,606.3z M1523.8,611.2c-6.8,0-10.9,4.5-10.9,10.6c0,6,4.2,10.6,10.9,10.6
			c6.8,0,10.9-4.5,10.9-10.6C1534.8,615.7,1530.6,611.2,1523.8,611.2z"/>
		<path class="st1" d="M1567.9,606.8v5.7c0,0-1.7-0.6-4.5-0.6c-6.5,0-10.3,4.8-10.3,10.6v14.1h-5.2v-29.6h5.2v5.7h0.3
			c0,0,2.6-6.3,10.9-6.3C1566.4,606.3,1567.9,606.8,1567.9,606.8z"/>
		<path class="st1" d="M1604.3,634.9c0,9.7-7.2,14.3-15.8,14.3c-14.2,0-14.8-10.3-14.8-10.3h5.4c0,0,0.7,5.5,9.4,5.5
			c6,0,10.6-3.1,10.6-9.5v-2.8h-0.2c0,0-3.3,5-11.4,5c-8.7,0-15.7-6-15.7-15.4c0-9.4,7-15.4,15.7-15.4c8,0,11.4,5,11.4,5h0.2v-4.4
			h5.2V634.9z M1588.1,632.3c6.6,0,10.7-4.3,11-10.1v-0.9c-0.2-6-4.6-10.1-11-10.1c-6.8,0-11,4.5-11,10.6
			C1577.1,627.8,1581.3,632.3,1588.1,632.3z"/>
		<path class="st1" d="M1644.6,628.4c0,3,0.8,4,2.5,4c1.2,0,1.7-0.4,1.7-0.4v4.6c0,0-0.9,0.5-2.7,0.5c-6.2,0-6.8-5-6.8-5h-0.2
			c0,0-3.3,5-11.4,5c-8.7,0-15.7-6-15.7-15.4c0-9.4,7-15.4,15.7-15.4c8,0,11.4,5,11.4,5h0.2v-4.4h5.2V628.4z M1628.4,632.3
			c6.6,0,11-4.6,11-10.6c0-6.2-4.4-10.6-11-10.6c-6.8,0-11,4.5-11,10.6C1617.4,627.8,1621.6,632.3,1628.4,632.3z"/>
		<path class="st1" d="M1679,621.3c0-7.2-4.2-10.1-9.7-10.1c-6.4,0-9.7,4.2-9.7,10.1v15.3h-5.2v-29.6h5.2v4.5h0.3
			c0,0,2.6-5.1,10.9-5.1c7.1,0,13.3,4.1,13.3,13.7v16.5h-5.2V621.3z"/>
		<path class="st1" d="M1695.6,599.5c-1.9,0-3.2-1.2-3.2-2.9s1.3-2.9,3.2-2.9c1.9,0,3.2,1.2,3.2,2.9S1697.5,599.5,1695.6,599.5z
			 M1698.2,636.5h-5.2v-29.6h5.2V636.5z"/>
		<path class="st1" d="M1722.3,606.3c11.4,0,15.7,8.4,15.7,12.1h-5.4c0,0-1.1-7.2-10.3-7.2c-6.8,0-10.9,4.5-10.9,10.5
			c0,6,4.2,10.6,10.9,10.6c9.2,0,10.3-7.2,10.3-7.2h5.4c0,3.6-4.3,12.1-15.7,12.1c-9.3,0-16.2-6-16.2-15.4
			C1706,612.3,1713,606.3,1722.3,606.3z"/>
		<path class="st1" d="M1747.2,639.2c0-3.3-2.9-0.9-2.9-4.9c0-2.3,1.3-3.4,3.3-3.4c2,0,3.3,1.1,3.3,4c0,6.3-1.8,9.5-3.7,9.5V639.2z"
			/>
		<path class="st1" d="M1773,594.3h5.2v17.1h0.2c0,0,3.3-5,11.4-5c8.7,0,15.7,6,15.7,15.4c0,9.4-7,15.4-15.7,15.4
			c-8,0-11.4-5-11.4-5h-0.2v4.4h-5.2V594.3z M1789.2,611.2c-6.6,0-11,4.3-11,10.6c0,6,4.2,10.6,11,10.6c6.8,0,11-4.5,11-10.6
			C1800.1,615.7,1795.9,611.2,1789.2,611.2z"/>
		<path class="st1" d="M1837.8,631.7c0,0-2.7,5.4-11,5.4c-7.2,0-13.5-4.1-13.5-13.7v-16.5h5.2v15.3c0,7.2,4.2,10.1,9.7,10.1
			c6.4,0,9.7-4.2,9.7-10.1v-15.3h5.2v21.4c0,3,0.8,4,2.5,4c1.2,0,1.7-0.4,1.7-0.4v4.6c0,0-0.9,0.5-2.7,0.5c-6.1,0-6.5-5.4-6.5-5.4
			H1837.8z"/>
		<path class="st1" d="M1860.7,625.1c0,5.9,2.9,7.5,6.6,7.5c3.4,0,5.3-1.4,5.3-1.4v4.7c0,0-2.3,1.2-5.9,1.2
			c-6.6,0-11.2-3.6-11.2-11.4v-14.1h-5v-4.7h5v-6.6h5.2v6.6h11v4.7h-11V625.1z"/>
		<path class="st1" d="M1896.3,599.5c-1.9,0-3.2-1.2-3.2-2.9s1.3-2.9,3.2-2.9c1.9,0,3.2,1.2,3.2,2.9S1898.2,599.5,1896.3,599.5z
			 M1898.9,636.5h-5.2v-29.6h5.2V636.5z"/>
		<path class="st1" d="M1915.7,625.1c0,5.9,2.9,7.5,6.6,7.5c3.4,0,5.3-1.4,5.3-1.4v4.7c0,0-2.3,1.2-5.9,1.2
			c-6.6,0-11.2-3.6-11.2-11.4v-14.1h-5v-4.7h5v-6.6h5.2v6.6h11v4.7h-11V625.1z"/>
		<path class="st1" d="M105,700.8c0,3,0.8,4,2.5,4c1.2,0,1.7-0.4,1.7-0.4v4.6c0,0-0.9,0.5-2.7,0.5c-6.2,0-6.8-5-6.8-5h-0.2
			c0,0-3.3,5-11.4,5c-8.7,0-15.7-6-15.7-15.4c0-9.4,7-15.4,15.7-15.4c8,0,11.4,5,11.4,5h0.2v-4.4h5.2V700.8z M88.8,704.7
			c6.6,0,11-4.6,11-10.6c0-6.2-4.4-10.6-11-10.6c-6.8,0-11,4.5-11,10.6S82.1,704.7,88.8,704.7z"/>
		<path class="st1" d="M115,666.7h5.2v32.1c0,5.3,1.6,6.3,4.5,6.3c1.5,0,2.5-0.5,2.5-0.5v4.5c0,0-1.1,0.5-3.5,0.5
			c-5.4,0-8.8-2.8-8.8-9.8V666.7z"/>
		<path class="st1" d="M131.5,687.7c0-6.3,6.1-8.9,13.6-8.9c7.5,0,13.6,2.8,13.6,10.3h-5.3c0-3.6-2.3-5.4-8.3-5.4
			c-6.2,0-8.3,1.7-8.3,4.1c0,7.3,22.9-0.5,22.9,12.5c0,6.9-6.9,9.4-14.4,9.4c-7.5,0-14.4-2.7-14.4-10.3v-1h5.3v1
			c0,3.6,3.1,5.4,9.1,5.4s9.1-1.6,9.1-4.5C154.4,692.6,131.5,700.7,131.5,687.7z"/>
		<path class="st1" d="M182.6,678.8c9.3,0,16.2,6,16.2,15.4c0,9.4-6.9,15.4-16.2,15.4c-9.3,0-16.2-6-16.2-15.4
			C166.4,684.8,173.3,678.8,182.6,678.8z M182.6,683.6c-6.8,0-10.9,4.5-10.9,10.6s4.2,10.6,10.9,10.6c6.8,0,10.9-4.5,10.9-10.6
			S189.4,683.6,182.6,683.6z"/>
		<path class="st1" d="M228.6,679.4h8.7v4.7h-8.7V709h-5.2v-24.9h-5v-2.9l5-1.8v-1.9c0-7.8,4.8-11.4,11.7-11.4
			c3.7,0,6.3,1.6,6.3,1.6v4.6c0,0-1.9-1.8-5.4-1.8c-4.3,0-7.4,1.7-7.4,7.5V679.4z"/>
		<path class="st1" d="M274.6,696.7h-26.7c0,2.7,3.5,8.1,11,8.1c6.6,0,9-3.9,9-3.9h6.1c0,0-2.9,8.8-15.1,8.8
			c-9.6,0-16.5-6-16.5-15.4c0-9.4,6.9-15.4,16.2-15.4c9.3,0,16.2,6,16.2,15.4C274.8,695.6,274.6,696.7,274.6,696.7z M247.8,691.9
			h21.5c0-2.9-3.4-8.3-10.7-8.3C251.2,683.6,247.8,689,247.8,691.9z"/>
		<path class="st1" d="M313.7,696.7H287c0,2.7,3.5,8.1,11,8.1c6.6,0,9-3.9,9-3.9h6.1c0,0-2.9,8.8-15.1,8.8c-9.6,0-16.5-6-16.5-15.4
			c0-9.4,6.9-15.4,16.2-15.4s16.2,6,16.2,15.4C313.9,695.6,313.7,696.7,313.7,696.7z M286.9,691.9h21.5c0-2.9-3.4-8.3-10.7-8.3
			S286.9,689,286.9,691.9z"/>
		<path class="st1" d="M321.7,666.7h5.2v32.1c0,5.3,1.6,6.3,4.5,6.3c1.5,0,2.5-0.5,2.5-0.5v4.5c0,0-1.1,0.5-3.5,0.5
			c-5.4,0-8.8-2.8-8.8-9.8V666.7z"/>
		<path class="st1" d="M338.3,687.7c0-6.3,6.1-8.9,13.6-8.9c7.5,0,13.6,2.8,13.6,10.3h-5.3c0-3.6-2.3-5.4-8.3-5.4
			c-6.2,0-8.3,1.7-8.3,4.1c0,7.3,22.9-0.5,22.9,12.5c0,6.9-6.9,9.4-14.4,9.4s-14.4-2.7-14.4-10.3v-1h5.3v1c0,3.6,3.1,5.4,9.1,5.4
			c6,0,9.1-1.6,9.1-4.5C361.2,692.6,338.3,700.7,338.3,687.7z"/>
		<path class="st1" d="M388.8,666.7h5.2v32.1c0,5.3,1.6,6.3,4.5,6.3c1.5,0,2.5-0.5,2.5-0.5v4.5c0,0-1.1,0.5-3.5,0.5
			c-5.4,0-8.8-2.8-8.8-9.8V666.7z"/>
		<path class="st1" d="M408.5,671.9c-1.9,0-3.2-1.2-3.2-2.9c0-1.7,1.3-2.9,3.2-2.9c1.9,0,3.2,1.2,3.2,2.9
			C411.7,670.7,410.4,671.9,408.5,671.9z M411.1,709h-5.2v-29.6h5.2V709z"/>
		<path class="st1" d="M425.3,693.9v15h-5.2v-42.3h5.2v26.8l15.6-14.1h6.9L432,693.7l16.9,15.3H442L425.3,693.9z"/>
		<path class="st1" d="M483.3,696.7h-26.7c0,2.7,3.5,8.1,11,8.1c6.6,0,9-3.9,9-3.9h6.1c0,0-2.9,8.8-15.1,8.8
			c-9.6,0-16.5-6-16.5-15.4c0-9.4,6.9-15.4,16.2-15.4c9.3,0,16.2,6,16.2,15.4C483.5,695.6,483.3,696.7,483.3,696.7z M456.5,691.9
			H478c0-2.9-3.4-8.3-10.7-8.3C459.9,683.6,456.5,689,456.5,691.9z"/>
		<path class="st1" d="M508.4,671.9c-1.9,0-3.2-1.2-3.2-2.9c0-1.7,1.3-2.9,3.2-2.9c1.9,0,3.2,1.2,3.2,2.9
			C511.6,670.7,510.3,671.9,508.4,671.9z M511,709h-5.2v-29.6h5.2V709z"/>
		<path class="st1" d="M527.8,697.5c0,5.9,2.9,7.5,6.6,7.5c3.4,0,5.3-1.4,5.3-1.4v4.7c0,0-2.3,1.2-5.9,1.2
			c-6.6,0-11.2-3.6-11.2-11.4v-14.1h-5v-4.7h5v-6.6h5.2v6.6h11v4.7h-11V697.5z"/>
		<path class="st1" d="M585.3,693.7c0-7.2-4.2-10.1-9.7-10.1c-6.4,0-9.7,4.2-9.7,10.1V709h-5.2v-42.3h5.2v17.2h0.3
			c0,0,2.6-5.1,10.9-5.1c7.1,0,13.3,4.1,13.3,13.7V709h-5.2V693.7z"/>
		<path class="st1" d="M630.5,700.8c0,3,0.8,4,2.5,4c1.2,0,1.7-0.4,1.7-0.4v4.6c0,0-0.9,0.5-2.7,0.5c-6.2,0-6.8-5-6.8-5h-0.2
			c0,0-3.3,5-11.4,5c-8.7,0-15.7-6-15.7-15.4c0-9.4,7-15.4,15.7-15.4c8,0,11.4,5,11.4,5h0.2v-4.4h5.2V700.8z M614.3,704.7
			c6.6,0,11-4.6,11-10.6c0-6.2-4.4-10.6-11-10.6c-6.8,0-11,4.5-11,10.6S607.6,704.7,614.3,704.7z"/>
		<path class="st1" d="M639.9,687.7c0-6.3,6.1-8.9,13.6-8.9c7.5,0,13.6,2.8,13.6,10.3h-5.3c0-3.6-2.3-5.4-8.3-5.4
			c-6.2,0-8.3,1.7-8.3,4.1c0,7.3,22.9-0.5,22.9,12.5c0,6.9-6.9,9.4-14.4,9.4c-7.5,0-14.4-2.7-14.4-10.3v-1h5.3v1
			c0,3.6,3.1,5.4,9.1,5.4s9.1-1.6,9.1-4.5C662.8,692.6,639.9,700.7,639.9,687.7z"/>
		<path class="st1" d="M690.4,666.7h5.2v17.1h0.2c0,0,3.3-5,11.4-5c8.7,0,15.7,6,15.7,15.4c0,9.4-7,15.4-15.7,15.4
			c-8,0-11.4-5-11.4-5h-0.2v4.4h-5.2V666.7z M706.6,683.6c-6.6,0-11,4.3-11,10.6c0,6,4.2,10.6,11,10.6c6.8,0,11-4.5,11-10.6
			S713.4,683.6,706.6,683.6z"/>
		<path class="st1" d="M761.9,696.7h-26.7c0,2.7,3.5,8.1,11,8.1c6.6,0,9-3.9,9-3.9h6.1c0,0-2.9,8.8-15.1,8.8
			c-9.6,0-16.5-6-16.5-15.4c0-9.4,6.9-15.4,16.2-15.4c9.3,0,16.2,6,16.2,15.4C762,695.6,761.9,696.7,761.9,696.7z M735.1,691.9h21.5
			c0-2.9-3.4-8.3-10.7-8.3S735.1,689,735.1,691.9z"/>
		<path class="st1" d="M801,696.7h-26.7c0,2.7,3.5,8.1,11,8.1c6.6,0,9-3.9,9-3.9h6.1c0,0-2.9,8.8-15.1,8.8c-9.6,0-16.5-6-16.5-15.4
			c0-9.4,6.9-15.4,16.2-15.4c9.3,0,16.2,6,16.2,15.4C801.2,695.6,801,696.7,801,696.7z M774.2,691.9h21.5c0-2.9-3.4-8.3-10.7-8.3
			C777.6,683.6,774.2,689,774.2,691.9z"/>
		<path class="st1" d="M833.5,693.7c0-7.2-4.2-10.1-9.7-10.1c-6.4,0-9.7,4.2-9.7,10.1V709H809v-29.6h5.2v4.5h0.3
			c0,0,2.6-5.1,10.9-5.1c7.1,0,13.3,4.1,13.3,13.7V709h-5.2V693.7z"/>
		<path class="st1" d="M877,678.8c11.4,0,15.7,8.5,15.7,12.1h-5.4c0,0-1.1-7.2-10.3-7.2c-6.8,0-10.9,4.5-10.9,10.5
			c0,6,4.2,10.6,10.9,10.6c9.2,0,10.3-7.2,10.3-7.2h5.4c0,3.6-4.3,12.1-15.7,12.1c-9.3,0-16.2-6-16.2-15.4
			C860.7,684.8,867.7,678.8,877,678.8z"/>
		<path class="st1" d="M925,704.1c0,0-2.7,5.4-11,5.4c-7.2,0-13.5-4.1-13.5-13.7v-16.5h5.2v15.3c0,7.2,4.2,10.1,9.7,10.1
			c6.4,0,9.7-4.2,9.7-10.1v-15.3h5.2v21.4c0,3,0.8,4,2.5,4c1.2,0,1.7-0.4,1.7-0.4v4.6c0,0-0.9,0.5-2.7,0.5c-6.1,0-6.5-5.4-6.5-5.4
			H925z"/>
		<path class="st1" d="M947.9,697.5c0,5.9,2.9,7.5,6.6,7.5c3.4,0,5.3-1.4,5.3-1.4v4.7c0,0-2.3,1.2-5.9,1.2
			c-6.6,0-11.2-3.6-11.2-11.4v-14.1h-5v-4.7h5v-6.6h5.2v6.6h11v4.7h-11V697.5z"/>
		<path class="st1" d="M967.8,711.7c0-3.3-2.9-0.9-2.9-5c0-2.3,1.3-3.4,3.3-3.4c2,0,3.3,1.1,3.3,4c0,6.3-1.8,9.5-3.7,9.5V711.7z"/>
		<path class="st1" d="M1024.9,700.8c0,3,0.8,4,2.5,4c1.2,0,1.7-0.4,1.7-0.4v4.6c0,0-0.9,0.5-2.7,0.5c-6.2,0-6.8-5-6.8-5h-0.2
			c0,0-3.3,5-11.4,5c-8.7,0-15.7-6-15.7-15.4c0-9.4,7-15.4,15.7-15.4c8,0,11.4,5,11.4,5h0.2v-4.4h5.2V700.8z M1008.7,704.7
			c6.6,0,11-4.6,11-10.6c0-6.2-4.4-10.6-11-10.6c-6.8,0-11,4.5-11,10.6S1001.9,704.7,1008.7,704.7z"/>
		<path class="st1" d="M1059.3,693.7c0-7.2-4.2-10.1-9.7-10.1c-6.4,0-9.7,4.2-9.7,10.1V709h-5.2v-29.6h5.2v4.5h0.3
			c0,0,2.6-5.1,10.9-5.1c7.1,0,13.3,4.1,13.3,13.7V709h-5.2V693.7z"/>
		<path class="st1" d="M1104.6,709h-5.2v-4.4h-0.2c0,0-3.3,5-11.4,5c-8.7,0-15.7-6-15.7-15.4c0-9.4,7-15.4,15.7-15.4
			c8,0,11.4,5,11.4,5h0.2v-17.1h5.2V709z M1088.4,704.7c6.8,0,11-4.5,11-10.6c0-6.2-4.4-10.6-11-10.6c-6.8,0-11,4.5-11,10.6
			S1081.6,704.7,1088.4,704.7z"/>
		<path class="st1" d="M1135.8,697.5c0,5.9,2.9,7.5,6.6,7.5c3.4,0,5.3-1.4,5.3-1.4v4.7c0,0-2.3,1.2-5.9,1.2
			c-6.6,0-11.2-3.6-11.2-11.4v-14.1h-5v-4.7h5v-6.6h5.2v6.6h11v4.7h-11V697.5z"/>
		<path class="st1" d="M1178.9,693.7c0-7.2-4.2-10.1-9.7-10.1c-6.4,0-9.7,4.2-9.7,10.1V709h-5.2v-42.3h5.2v17.2h0.3
			c0,0,2.6-5.1,10.9-5.1c7.1,0,13.3,4.1,13.3,13.7V709h-5.2V693.7z"/>
		<path class="st1" d="M1223.9,696.7h-26.7c0,2.7,3.5,8.1,11,8.1c6.6,0,9-3.9,9-3.9h6.1c0,0-2.9,8.8-15.1,8.8
			c-9.6,0-16.5-6-16.5-15.4c0-9.4,6.9-15.4,16.2-15.4s16.2,6,16.2,15.4C1224.1,695.6,1223.9,696.7,1223.9,696.7z M1197.1,691.9h21.5
			c0-2.9-3.4-8.3-10.7-8.3S1197.1,689,1197.1,691.9z"/>
		<path class="st1" d="M1256.4,693.7c0-7.2-4.2-10.1-9.7-10.1c-6.4,0-9.7,4.2-9.7,10.1V709h-5.2v-29.6h5.2v4.5h0.3
			c0,0,2.6-5.1,10.9-5.1c7.1,0,13.3,4.1,13.3,13.7V709h-5.2V693.7z"/>
		<path class="st1" d="M1309.4,693.7c0-7.2-4.2-10.1-9.7-10.1c-6.4,0-9.7,4.2-9.7,10.1V709h-5.2v-42.3h5.2v17.2h0.3
			c0,0,2.6-5.1,10.9-5.1c7.1,0,13.3,4.1,13.3,13.7V709h-5.2V693.7z"/>
		<path class="st1" d="M1354.6,700.8c0,3,0.8,4,2.5,4c1.2,0,1.7-0.4,1.7-0.4v4.6c0,0-0.9,0.5-2.7,0.5c-6.2,0-6.8-5-6.8-5h-0.2
			c0,0-3.3,5-11.4,5c-8.7,0-15.7-6-15.7-15.4c0-9.4,7-15.4,15.7-15.4c8,0,11.4,5,11.4,5h0.2v-4.4h5.2V700.8z M1338.4,704.7
			c6.6,0,11-4.6,11-10.6c0-6.2-4.4-10.6-11-10.6c-6.8,0-11,4.5-11,10.6S1331.6,704.7,1338.4,704.7z"/>
		<path class="st1" d="M1364.5,666.7h5.2v32.1c0,5.3,1.6,6.3,4.5,6.3c1.5,0,2.5-0.5,2.5-0.5v4.5c0,0-1.1,0.5-3.5,0.5
			c-5.4,0-8.8-2.8-8.8-9.8V666.7z"/>
		<path class="st1" d="M1389.1,679.4h8.7v4.7h-8.7V709h-5.2v-24.9h-5v-2.9l5-1.8v-1.9c0-7.8,4.8-11.4,11.7-11.4
			c3.7,0,6.3,1.6,6.3,1.6v4.6c0,0-1.9-1.8-5.4-1.8c-4.3,0-7.4,1.7-7.4,7.5V679.4z"/>
		<path class="st1" d="M1415,693.5l-13.8,5.7v-5.5l13.8-5.7V693.5z"/>
		<path class="st1" d="M1421.9,666.7h5.2v32.1c0,5.3,1.6,6.3,4.5,6.3c1.5,0,2.5-0.5,2.5-0.5v4.5c0,0-1.1,0.5-3.5,0.5
			c-5.4,0-8.8-2.8-8.8-9.8V666.7z"/>
		<path class="st1" d="M1470.3,700.8c0,3,0.8,4,2.5,4c1.2,0,1.7-0.4,1.7-0.4v4.6c0,0-0.9,0.5-2.7,0.5c-6.2,0-6.8-5-6.8-5h-0.2
			c0,0-3.3,5-11.4,5c-8.7,0-15.7-6-15.7-15.4c0-9.4,7-15.4,15.7-15.4c8,0,11.4,5,11.4,5h0.2v-4.4h5.2V700.8z M1454.1,704.7
			c6.6,0,11-4.6,11-10.6c0-6.2-4.4-10.6-11-10.6c-6.8,0-11,4.5-11,10.6S1447.4,704.7,1454.1,704.7z"/>
		<path class="st1" d="M1482.9,671.9c-1.9,0-3.2-1.2-3.2-2.9c0-1.7,1.3-2.9,3.2-2.9c1.9,0,3.2,1.2,3.2,2.9
			C1486.1,670.7,1484.8,671.9,1482.9,671.9z M1485.5,709h-5.2v-29.6h5.2V709z"/>
		<path class="st1" d="M1519,693.7c0-7.2-4.2-10.1-9.7-10.1c-6.4,0-9.7,4.2-9.7,10.1V709h-5.2v-29.6h5.2v4.5h0.3
			c0,0,2.6-5.1,10.9-5.1c7.1,0,13.3,4.1,13.3,13.7V709h-5.2V693.7z"/>
		<path class="st1" d="M1554.9,679.4h8.7v4.7h-8.7V709h-5.2v-24.9h-5v-2.9l5-1.8v-1.9c0-7.8,4.8-11.4,11.7-11.4
			c3.7,0,6.3,1.6,6.3,1.6v4.6c0,0-1.9-1.8-5.4-1.8c-4.3,0-7.4,1.7-7.4,7.5V679.4z"/>
		<path class="st1" d="M1595.5,704.1c0,0-2.7,5.4-11,5.4c-7.2,0-13.5-4.1-13.5-13.7v-16.5h5.2v15.3c0,7.2,4.2,10.1,9.7,10.1
			c6.4,0,9.7-4.2,9.7-10.1v-15.3h5.2v21.4c0,3,0.8,4,2.5,4c1.2,0,1.7-0.4,1.7-0.4v4.6c0,0-0.9,0.5-2.7,0.5c-6.1,0-6.5-5.4-6.5-5.4
			H1595.5z"/>
		<path class="st1" d="M1610.7,666.7h5.2v32.1c0,5.3,1.6,6.3,4.5,6.3c1.5,0,2.5-0.5,2.5-0.5v4.5c0,0-1.1,0.5-3.5,0.5
			c-5.4,0-8.8-2.8-8.8-9.8V666.7z"/>
		<path class="st1" d="M1627.7,666.7h5.2v32.1c0,5.3,1.6,6.3,4.5,6.3c1.5,0,2.5-0.5,2.5-0.5v4.5c0,0-1.1,0.5-3.5,0.5
			c-5.4,0-8.8-2.8-8.8-9.8V666.7z"/>
		<path class="st1" d="M1669.3,704.4h-0.3c0,0-2.6,5.1-10.9,5.1c-7.1,0-13.3-4.1-13.3-13.7v-16.5h5.2v15.3c0,7.2,4.2,10.1,9.7,10.1
			c6.4,0,9.7-4.2,9.7-10.1v-15.3h5.2v28.4c0,9.4-6.8,13.9-14.7,13.9c-13.7,0-14-10.3-14-10.3h5.4c0,0,0.2,5.5,8.6,5.5
			c5.4,0,9.5-3,9.5-9.1V704.4z"/>
		<path class="st1" d="M1700.7,671.9c-1.9,0-3.2-1.2-3.2-2.9c0-1.7,1.3-2.9,3.2-2.9c1.9,0,3.2,1.2,3.2,2.9
			C1703.9,670.7,1702.6,671.9,1700.7,671.9z M1703.3,709h-5.2v-29.6h5.2V709z"/>
		<path class="st1" d="M1736.8,693.7c0-7.2-4.2-10.1-9.7-10.1c-6.4,0-9.7,4.2-9.7,10.1V709h-5.2v-29.6h5.2v4.5h0.3
			c0,0,2.6-5.1,10.9-5.1c7.1,0,13.3,4.1,13.3,13.7V709h-5.2V693.7z"/>
		<path class="st1" d="M1767.8,671.9c-1.9,0-3.2-1.2-3.2-2.9c0-1.7,1.3-2.9,3.2-2.9c1.9,0,3.2,1.2,3.2,2.9
			C1771,670.7,1769.8,671.9,1767.8,671.9z M1770.4,709h-5.2v-29.6h5.2V709z"/>
		<path class="st1" d="M1804,693.7c0-7.2-4.2-10.1-9.7-10.1c-6.4,0-9.7,4.2-9.7,10.1V709h-5.2v-29.6h5.2v4.5h0.3
			c0,0,2.6-5.1,10.9-5.1c7.1,0,13.3,4.1,13.3,13.7V709h-5.2V693.7z"/>
		<path class="st1" d="M1823.1,693.9v15h-5.2v-42.3h5.2v26.8l15.6-14.1h6.9l-15.9,14.3l16.9,15.3h-6.9L1823.1,693.9z"/>
		<path class="st1" d="M1853,703.3c2.1,0,3.3,1.1,3.3,3.1c0,2-1.3,3.1-3.3,3.1c-2.1,0-3.3-1.1-3.3-3.1
			C1849.7,704.4,1851,703.3,1853,703.3z"/>
	</g>
</g>
</svg>
