<?xml version="1.0" encoding="utf-8"?>
<!-- Generator: Adobe Illustrator 22.0.0, SVG Export Plug-In . SVG Version: 6.00 Build 0)  -->
<svg version="1.1" id="Layer_1" xmlns="http://www.w3.org/2000/svg" xmlns:xlink="http://www.w3.org/1999/xlink" x="0px" y="0px"
	 viewBox="0 0 2000 1100" style="enable-background:new 0 0 2000 1100;" xml:space="preserve">
<style type="text/css">
	.st0{fill:#F7F7F7;}
	.st1{fill:#00D76F;}
	.st2{fill:#FECE00;}
	.st3{fill:#00302D;}
	.st4{fill:none;stroke:#00302D;stroke-miterlimit:10;}
</style>
<rect class="st0" width="2000" height="1100"/>
<g>
	<polygon class="st1" points="4899,1122.5 1765.6,1122.5 1765.6,899.5 1330.7,899.5 1330.7,687.6 892.1,687.6 892.1,453.5 
		457.2,453.5 457.2,241.6 0,241.6 0,1475.6 4899,1475.6 	"/>
	<g>
		<g>
			<polygon class="st2" points="1765.6,999.9 4780.1,999.9 4899,1122.5 1765.6,1122.5 			"/>
			<polygon class="st2" points="1330.7,899.5 1765.6,899.5 1646.6,780.6 1330.7,780.6 			"/>
			<polygon class="st2" points="892.1,687.6 1330.7,687.6 1211.7,568.7 892.1,568.7 			"/>
			<polygon class="st2" points="457.2,453.5 892.1,453.5 773.1,334.5 457.2,334.5 			"/>
			<polygon class="st2" points="0,241.6 457.2,241.6 338.2,122.6 0,122.6 			"/>
		</g>
	</g>
</g>
<g>
	<path class="st3" d="M277.8,314.2c0-5.7,3.3-10.1,8.9-10.1s8.9,4.3,8.9,10.1c0,5.7-3.3,10.1-8.9,10.1S277.8,320,277.8,314.2z
		 M280.5,314.2c0,4.3,2.1,7.7,6.2,7.7s6.2-3.4,6.2-7.7c0-4.3-2.1-7.7-6.2-7.7S280.5,310,280.5,314.2z"/>
	<path class="st3" d="M307.1,324.3c-4.6,0-7.8-2.3-7.8-6.3v-0.5h2.6v0.5c0,2.7,2.1,3.9,5.2,3.9s5.2-1.3,5.2-3.9
		c0-2.7-2.1-3.9-5.2-3.9h-5v-2.3l7.8-4.9v-0.1H300v-2.3h14v2.3l-7.8,4.9v0.1h0.9c4.6,0,7.8,2.2,7.8,6.2
		C315,321.9,311.8,324.3,307.1,324.3z"/>
	<path class="st3" d="M318.1,321.9c0-6.7,13.1-6.4,13.1-11.8c0-2.4-1.8-3.5-4.9-3.5s-4.9,1.2-4.9,3.9v0.6h-2.6v-0.6
		c0-4,3-6.3,7.6-6.3s7.6,2.3,7.6,5.9c0,7.2-12.9,7.2-12.9,11.6h13v2.3h-15.8V321.9z"/>
	<path class="st3" d="M277.7,338c0-2.9,2.8-4.1,6.3-4.1c3.5,0,6.3,1.3,6.3,4.7h-2.5c0-1.6-1.1-2.5-3.9-2.5c-2.8,0-3.9,0.8-3.9,1.9
		c0,3.4,10.6-0.3,10.6,5.8c0,3.2-3.2,4.3-6.7,4.3c-3.5,0-6.7-1.3-6.7-4.7v-0.4h2.5v0.4c0,1.6,1.4,2.5,4.2,2.5s4.2-0.7,4.2-2.1
		C288.3,340.2,277.7,344,277.7,338z"/>
	<path class="st3" d="M308.7,342.1h-12.4c0,1.2,1.6,3.7,5.1,3.7c3.1,0,4.2-1.8,4.2-1.8h2.8c0,0-1.3,4-7,4c-4.4,0-7.7-2.8-7.7-7.1
		c0-4.4,3.2-7.1,7.5-7.1s7.5,2.8,7.5,7.1C308.8,341.6,308.7,342.1,308.7,342.1z M296.3,339.9h9.9c0-1.3-1.6-3.9-5-3.9
		C297.9,336.1,296.3,338.6,296.3,339.9z"/>
	<path class="st3" d="M316,342.5c0,2.7,1.3,3.5,3.1,3.5c1.6,0,2.4-0.6,2.4-0.6v2.2c0,0-1.1,0.6-2.7,0.6c-3.1,0-5.2-1.6-5.2-5.3v-6.5
		h-2.3v-2.2h2.3v-3.1h2.4v3.1h5.1v2.2H316V342.5z"/>
	<path class="st3" d="M324.5,338c0-5.7,3.3-10.1,8.9-10.1s8.9,4.3,8.9,10.1c0,5.7-3.3,10.1-8.9,10.1S324.5,343.8,324.5,338z
		 M327.2,338c0,4.3,2.1,7.7,6.2,7.7s6.2-3.4,6.2-7.7c0-4.3-2.1-7.7-6.2-7.7S327.2,333.8,327.2,338z"/>
	<path class="st3" d="M345.4,345.5h3.1v-14.9h-2.8v-2.3h5.4v17.2h3.1v2.3h-8.8V345.5z"/>
</g>
<g>
	<path class="st3" d="M813.8,314.2c0-5.7,3.3-10.1,8.9-10.1s8.9,4.3,8.9,10.1c0,5.7-3.3,10.1-8.9,10.1S813.8,320,813.8,314.2z
		 M816.5,314.2c0,4.3,2.1,7.7,6.2,7.7s6.2-3.4,6.2-7.7c0-4.3-2.1-7.7-6.2-7.7S816.5,310,816.5,314.2z"/>
	<path class="st3" d="M843.1,324.3c-4.6,0-7.8-2.3-7.8-6.3v-0.5h2.6v0.5c0,2.7,2.1,3.9,5.2,3.9s5.2-1.3,5.2-3.9
		c0-2.7-2.1-3.9-5.2-3.9h-5v-2.3l7.8-4.9v-0.1H836v-2.3h14v2.3l-7.8,4.9v0.1h0.9c4.6,0,7.8,2.2,7.8,6.2
		C851,321.9,847.8,324.3,843.1,324.3z"/>
	<path class="st3" d="M854.1,321.9c0-6.7,13.1-6.4,13.1-11.8c0-2.4-1.8-3.5-4.9-3.5s-4.9,1.2-4.9,3.9v0.6h-2.6v-0.6
		c0-4,3-6.3,7.6-6.3s7.6,2.3,7.6,5.9c0,7.2-12.9,7.2-12.9,11.6h13v2.3h-15.8V321.9z"/>
	<path class="st3" d="M813.7,338c0-2.9,2.8-4.1,6.3-4.1c3.5,0,6.3,1.3,6.3,4.7h-2.5c0-1.6-1.1-2.5-3.9-2.5c-2.8,0-3.9,0.8-3.9,1.9
		c0,3.4,10.6-0.3,10.6,5.8c0,3.2-3.2,4.3-6.7,4.3c-3.5,0-6.7-1.3-6.7-4.7v-0.4h2.5v0.4c0,1.6,1.4,2.5,4.2,2.5s4.2-0.7,4.2-2.1
		C824.3,340.2,813.7,344,813.7,338z"/>
	<path class="st3" d="M844.7,342.1h-12.4c0,1.2,1.6,3.7,5.1,3.7c3.1,0,4.2-1.8,4.2-1.8h2.8c0,0-1.3,4-7,4c-4.4,0-7.7-2.8-7.7-7.1
		c0-4.4,3.2-7.1,7.5-7.1s7.5,2.8,7.5,7.1C844.8,341.6,844.7,342.1,844.7,342.1z M832.3,339.9h9.9c0-1.3-1.6-3.9-5-3.9
		C833.9,336.1,832.3,338.6,832.3,339.9z"/>
	<path class="st3" d="M852,342.5c0,2.7,1.3,3.5,3.1,3.5c1.6,0,2.4-0.6,2.4-0.6v2.2c0,0-1.1,0.6-2.7,0.6c-3.1,0-5.2-1.6-5.2-5.3v-6.5
		h-2.3v-2.2h2.3v-3.1h2.4v3.1h5.1v2.2H852V342.5z"/>
	<path class="st3" d="M860.5,338c0-5.7,3.3-10.1,8.9-10.1s8.9,4.3,8.9,10.1c0,5.7-3.3,10.1-8.9,10.1S860.5,343.8,860.5,338z
		 M863.2,338c0,4.3,2.1,7.7,6.2,7.7s6.2-3.4,6.2-7.7c0-4.3-2.1-7.7-6.2-7.7S863.2,333.8,863.2,338z"/>
	<path class="st3" d="M881.8,345.8c0-6.7,13.1-6.4,13.1-11.8c0-2.4-1.8-3.5-4.9-3.5c-3.1,0-4.9,1.2-4.9,3.9v0.6h-2.6v-0.6
		c0-4,3-6.3,7.6-6.3s7.6,2.3,7.6,5.9c0,7.2-12.9,7.2-12.9,11.6h13v2.3h-15.8V345.8z"/>
</g>
<g>
	<path class="st3" d="M1325.8,314.2c0-5.7,3.3-10.1,8.9-10.1c5.7,0,8.9,4.3,8.9,10.1c0,5.7-3.3,10.1-8.9,10.1
		C1329.1,324.3,1325.8,320,1325.8,314.2z M1328.5,314.2c0,4.3,2.1,7.7,6.2,7.7c4.1,0,6.2-3.4,6.2-7.7c0-4.3-2.1-7.7-6.2-7.7
		C1330.7,306.6,1328.5,310,1328.5,314.2z"/>
	<path class="st3" d="M1355.1,324.3c-4.6,0-7.8-2.3-7.8-6.3v-0.5h2.6v0.5c0,2.7,2.1,3.9,5.2,3.9s5.2-1.3,5.2-3.9
		c0-2.7-2.1-3.9-5.2-3.9h-5v-2.3l7.8-4.9v-0.1h-9.9v-2.3h14v2.3l-7.8,4.9v0.1h0.9c4.6,0,7.8,2.2,7.8,6.2
		C1363,321.9,1359.8,324.3,1355.1,324.3z"/>
	<path class="st3" d="M1366.1,321.9c0-6.7,13.1-6.4,13.1-11.8c0-2.4-1.8-3.5-4.9-3.5s-4.9,1.2-4.9,3.9v0.6h-2.6v-0.6
		c0-4,3-6.3,7.6-6.3s7.6,2.3,7.6,5.9c0,7.2-12.9,7.2-12.9,11.6h13v2.3h-15.8V321.9z"/>
	<path class="st3" d="M1325.7,338c0-2.9,2.8-4.1,6.3-4.1c3.5,0,6.3,1.3,6.3,4.7h-2.5c0-1.6-1.1-2.5-3.9-2.5c-2.8,0-3.9,0.8-3.9,1.9
		c0,3.4,10.6-0.3,10.6,5.8c0,3.2-3.2,4.3-6.7,4.3c-3.5,0-6.7-1.3-6.7-4.7v-0.4h2.5v0.4c0,1.6,1.4,2.5,4.2,2.5c2.8,0,4.2-0.7,4.2-2.1
		C1336.3,340.2,1325.7,344,1325.7,338z"/>
	<path class="st3" d="M1356.7,342.1h-12.4c0,1.2,1.6,3.7,5.1,3.7c3.1,0,4.2-1.8,4.2-1.8h2.8c0,0-1.3,4-7,4c-4.4,0-7.7-2.8-7.7-7.1
		c0-4.4,3.2-7.1,7.5-7.1s7.5,2.8,7.5,7.1C1356.8,341.6,1356.7,342.1,1356.7,342.1z M1344.3,339.9h9.9c0-1.3-1.6-3.9-5-3.9
		C1345.9,336.1,1344.3,338.6,1344.3,339.9z"/>
	<path class="st3" d="M1364,342.5c0,2.7,1.3,3.5,3.1,3.5c1.6,0,2.4-0.6,2.4-0.6v2.2c0,0-1.1,0.6-2.7,0.6c-3.1,0-5.2-1.6-5.2-5.3
		v-6.5h-2.3v-2.2h2.3v-3.1h2.4v3.1h5.1v2.2h-5.1V342.5z"/>
	<path class="st3" d="M1372.5,338c0-5.7,3.3-10.1,8.9-10.1c5.7,0,8.9,4.3,8.9,10.1c0,5.7-3.3,10.1-8.9,10.1
		C1375.7,348.1,1372.5,343.8,1372.5,338z M1375.2,338c0,4.3,2.1,7.7,6.2,7.7c4.1,0,6.2-3.4,6.2-7.7c0-4.3-2.1-7.7-6.2-7.7
		C1377.3,330.4,1375.2,333.8,1375.2,338z"/>
	<path class="st3" d="M1401.8,348.1c-4.6,0-7.8-2.3-7.8-6.3v-0.5h2.6v0.5c0,2.7,2.1,3.9,5.2,3.9c3.1,0,5.2-1.3,5.2-3.9
		c0-2.7-2.1-3.9-5.2-3.9h-5v-2.3l7.8-4.9v-0.1h-9.9v-2.3h14v2.3l-7.8,4.9v0.1h0.9c4.6,0,7.8,2.2,7.8,6.2
		C1409.6,345.7,1406.4,348.1,1401.8,348.1z"/>
</g>
<line class="st4" x1="252" y1="303" x2="252" y2="729"/>
<line class="st4" x1="783.5" y1="303" x2="783.5" y2="729"/>
<line class="st4" x1="1298.5" y1="303" x2="1298.5" y2="729"/>
<path class="st3" d="M425.7,383.1c82.1,0,109.7,61.6,109.7,61.6h5.1v-55.2h111.7v272.7c0,127.1-73.8,182.9-220.8,182.9
	c-48.1,0-73.8-11.6-73.8-11.6v-90.5c0,0,20.5,10.9,68,10.9c70.6,0,114.2-21.2,114.2-95h-3.9c0,0-25,51.3-107.2,51.3
	c-84.1,0-152.7-50.7-152.7-160.4S344.9,383.1,425.7,383.1z M465.5,612.9c46.2,0,75.1-23.7,75.1-66.1c0-40.4-27-66.1-75.1-66.1
	c-47.5,0-75.1,25.7-75.1,66.1C390.4,587.2,418,612.9,465.5,612.9z"/>
<path class="st3" d="M989.7,383.1H1197V455h-58.4c0,0,9.6,16,9.6,41.1c0,68-61,104-158.5,104c-46.2,0-62.9,5.8-62.9,19.9
	c0,14.8,16.7,19.9,62.9,19.9c110.4,0,188,25,188,102.7c0,78.3-77.7,102.7-188,102.7C880,845.2,803,820.8,803,742.5
	c0-64.8,62.3-84.1,62.3-84.1v-2.6c0,0-23.7-11.6-23.7-35.9c0-30.2,36.6-42.4,36.6-42.4V575c0,0-46.8-19.9-46.8-83.4
	C831.2,423.6,892.8,383.1,989.7,383.1z M914.6,742.5c0,21.8,28.2,28.2,75.7,28.2c47.5,0,75.7-6.4,75.7-28.2
	c0-21.8-28.2-28.2-75.7-28.2C942.9,714.3,914.6,720.7,914.6,742.5z M941.6,491.6c0,20.5,14.8,36.6,48.1,36.6s48.1-16,48.1-36.6
	s-14.8-36.6-48.1-36.6S941.6,471.1,941.6,491.6z"/>
<path class="st3" d="M1323.8,704h109.1c0,9.6,10.3,50.1,72.5,50.1c53.3,0,72.5-30.8,72.5-89.2h-254.1V383.1h363.9v82.1h-59
	c0,87.3-46.8,116.2-46.8,116.2v1.3h105.2v82.1c0,107.2-58.4,173.9-181.6,173.9C1370.7,838.8,1323.8,766.3,1323.8,704z M1432.9,465.3
	v117.4c2.6,0,19.9,0,19.9,0c34.7,0,66.7-31.4,66.7-117.4H1432.9z"/>
</svg>
