<?xml version="1.0" encoding="utf-8"?>
<!-- Generator: Adobe Illustrator 22.0.0, SVG Export Plug-In . SVG Version: 6.00 Build 0)  -->
<svg version="1.1" id="Layer_1" xmlns="http://www.w3.org/2000/svg" xmlns:xlink="http://www.w3.org/1999/xlink" x="0px" y="0px"
	 viewBox="0 0 2000 1100" style="enable-background:new 0 0 2000 1100;" xml:space="preserve">
<style type="text/css">
	.st0{fill:#F7F7F7;}
	.st1{fill:#FFC501;}
	.st2{fill:#010D36;}
	.st3{fill:#00D76F;}
	.st4{fill:#00B6F5;}
	.st5{fill:#010E38;}
</style>
<rect class="st0" width="2000" height="1100"/>
<g>
	<g>
		<path class="st1" d="M502.3,393.3h-59.2l-12.8-31.8h-94.5L323,393.3h-59.2l83.2-208.1h72L502.3,393.3z M384.8,240.2h-3.6
			l-29.7,78.5h63L384.8,240.2z"/>
		<path class="st1" d="M562.6,241.7c36.6,0,51.1,19.3,51.1,19.3h2.1v-75.8h51.7v208.1h-51.7v-25.6h-2.4c0,0-12.8,28.5-50.8,28.5
			c-37.5,0-69.3-26.5-69.3-77.3S525.2,241.7,562.6,241.7z M581.1,351.1c22.3,0,34.8-13.4,34.8-32.1c0-19.6-13.4-32.1-34.8-32.1
			c-22,0-34.8,13.4-34.8,32.1C546.3,337.7,559.1,351.1,581.1,351.1z"/>
		<path class="st1" d="M754.7,241.7c36.6,0,51.1,19.3,51.1,19.3h2.1v-75.8h51.7v208.1h-51.7v-25.6h-2.4c0,0-12.8,28.5-50.8,28.5
			c-37.5,0-69.3-26.5-69.3-77.3S717.3,241.7,754.7,241.7z M773.1,351.1c22.3,0,34.8-13.4,34.8-32.1c0-19.6-13.4-32.1-34.8-32.1
			c-22,0-34.8,13.4-34.8,32.1C738.4,337.7,751.1,351.1,773.1,351.1z"/>
	</g>
</g>
<g>
	<g>
		<path class="st2" d="M1035.1,291.3c0-6.5,0-14.6-23.2-14.6c-16.7,0-22,4.5-22,10.7c0,22.3,105.8-7.1,105.8,60.4
			c0,33.9-29.4,48.5-81.2,48.5c-51.1,0-80.6-13.4-80.6-50.5V341h52.9v4.8c0,11.3,7.7,15.5,27.7,15.5c21.1,0,28.2-4.5,28.2-12.5
			c0-25.9-105.8,5.9-105.8-61.2c0-29.1,27.4-45.8,75.2-45.8c48.8,0,75.8,14.9,75.8,49.7H1035.1z"/>
		<path class="st2" d="M1278.9,319c0,51.1-36.3,77.3-87.1,77.3s-87.1-26.2-87.1-77.3c0-51.1,36.3-77.3,87.1-77.3
			S1278.9,267.8,1278.9,319z M1226,319c0-19.6-13.7-32.7-34.2-32.7c-20.5,0-34.2,13.1-34.2,32.7c0,19.6,13.7,32.7,34.2,32.7
			C1212.3,351.7,1226,338.6,1226,319z"/>
		<path class="st2" d="M1494.1,317.2c0-17.5-5.9-30.3-23.2-30.3c-16.9,0-23.8,11.3-23.8,28.5v77.9h-51.7v-76.1
			c0-17.5-5.6-30.3-23.5-30.3c-17.2,0-23.5,12.2-23.5,30.3v76.1h-51.7V244.6h51.7v25.9h2.4c0,0,8.9-28.8,44.6-28.8
			c38.4,0,46.1,28.8,46.1,28.8h2.4c0,0,8.3-28.8,44.3-28.8c37.2,0,57.7,19.6,57.7,63.6v88h-51.7V317.2z"/>
		<path class="st2" d="M1616.3,329.1c0.3,17.8,9.5,31.5,33.3,31.5c21.4,0,27.7-15.2,27.7-15.2h55.3c0,0-5.9,50.8-83,50.8
			c-51.1,0-87.4-25.9-87.4-77.3c0-51.1,36.3-77.3,87.1-77.3c50.2,0,86.8,26.2,86.8,77.3c0,4.5-0.9,10.1-0.9,10.1H1616.3z
			 M1617.5,302.6h62.7c0-11-9.8-25.3-30.9-25.3S1617.5,291,1617.5,302.6z"/>
	</g>
</g>
<g>
	<g>
		<path class="st3" d="M499.3,471.2c52.9,0,85.6,30.3,85.6,64.8h-53.2c0,0-4.5-21.4-32.4-21.4c-20.5,0-34.2,13.1-34.2,33.9
			c0,20.8,13.7,33.9,34.2,33.9c27.9,0,32.4-21.4,32.4-21.4h53.2c0,34.5-32.7,64.8-85.6,64.8c-50.5,0-87.1-26.5-87.1-77.3
			C412.2,497.7,448.8,471.2,499.3,471.2z"/>
		<path class="st3" d="M769.6,548.5c0,51.1-36.3,77.3-87.1,77.3c-50.8,0-87.1-26.2-87.1-77.3s36.3-77.3,87.1-77.3
			C733.3,471.2,769.6,497.4,769.6,548.5z M716.7,548.5c0-19.6-13.7-32.7-34.2-32.7s-34.2,13.1-34.2,32.7s13.7,32.7,34.2,32.7
			S716.7,568.1,716.7,548.5z"/>
		<path class="st3" d="M787.4,414.7h51.7v143c0,19,6.2,25.9,19.9,25.9c7.4,0,12.2-2.1,12.2-2.1v40.7c0,0-8,3.6-25,3.6
			c-36,0-58.9-19.6-58.9-63V414.7z"/>
		<path class="st3" d="M1047,548.5c0,51.1-36.3,77.3-87.1,77.3c-50.8,0-87.1-26.2-87.1-77.3s36.3-77.3,87.1-77.3
			C1010.7,471.2,1047,497.4,1047,548.5z M994,548.5c0-19.6-13.7-32.7-34.2-32.7c-20.5,0-34.2,13.1-34.2,32.7s13.7,32.7,34.2,32.7
			C980.4,581.2,994,568.1,994,548.5z"/>
		<path class="st3" d="M1183.4,472.7v56.8c0,0-9.2-5.4-27.7-5.4c-27.4,0-39.2,15.8-39.2,36.3v62.4h-51.7V474.2h51.7v25.9h2.7
			c0,0,11.9-28.8,51.4-28.8C1177.2,471.2,1183.4,472.7,1183.4,472.7z"/>
	</g>
</g>
<g>
	<g>
		<path class="st4" d="M1252.7,514h-20.2v-26.8l44.9-42.8h27.1v29.7h42.2V514h-42.2v44c0,20.2,11.3,25.6,27.1,25.6
			c11.6,0,19.6-4.5,19.6-4.5v41.6c0,0-10.1,5.1-27.7,5.1c-47.3,0-70.8-17.8-70.8-61V514z"/>
		<path class="st4" d="M1528.3,548.5c0,51.1-36.3,77.3-87.1,77.3s-87.1-26.2-87.1-77.3s36.3-77.3,87.1-77.3
			S1528.3,497.4,1528.3,548.5z M1475.4,548.5c0-19.6-13.7-32.7-34.2-32.7c-20.5,0-34.2,13.1-34.2,32.7s13.7,32.7,34.2,32.7
			C1461.7,581.2,1475.4,568.1,1475.4,548.5z"/>
	</g>
</g>
<g>
	<g>
		<path class="st5" d="M371.9,776.9c0,21.1,11.9,33.3,32.4,33.3c22.3,0,32.7-14,32.7-33.3v-73.1h51.7v126.4
			c0,58.9-34.2,84.7-102.3,84.7c-22.3,0-34.2-5.4-34.2-5.4v-41.9c0,0,9.5,5.1,31.5,5.1c34.8,0,53.2-11.3,53.2-42.5h-2.7
			c0,0-9.2,22.3-49.1,22.3c-38.9,0-65.1-16.4-65.1-60.7v-88h51.7V776.9z"/>
		<path class="st5" d="M680.8,778c0,51.1-36.3,77.3-87.1,77.3c-50.8,0-87.1-26.2-87.1-77.3s36.3-77.3,87.1-77.3
			C644.6,700.7,680.8,726.9,680.8,778z M627.9,778c0-19.6-13.7-32.7-34.2-32.7s-34.2,13.1-34.2,32.7s13.7,32.7,34.2,32.7
			S627.9,797.7,627.9,778z"/>
		<path class="st5" d="M766.2,855.4c-43.7,0-67.5-19.3-67.5-63.6v-88h51.7v73.1c0,21.1,11.9,33.3,32.4,33.3
			c22.3,0,32.7-14,32.7-33.3v-73.1h51.7v93.4c0,10.7,2.7,13.7,8.3,13.7c3.3,0,5.4-0.9,5.4-0.9v42.5c0,0-5.9,3-21.1,3
			c-30.9,0-37.5-28.8-37.5-28.8H820C820,826.5,810.2,855.4,766.2,855.4z"/>
		<path class="st5" d="M1012.9,702.2V759c0,0-9.2-5.4-27.7-5.4c-27.4,0-39.2,15.8-39.2,36.3v62.4h-51.7V703.7H946v25.9h2.7
			c0,0,11.9-28.8,51.4-28.8C1006.7,700.7,1012.9,702.2,1012.9,702.2z"/>
	</g>
</g>
<g>
	<path class="st1" d="M1137.2,700.7c36.6,0,51.1,19.3,51.1,19.3h2.1v-75.8h51.7v208.1h-51.7v-25.6h-2.4c0,0-12.8,28.5-50.8,28.5
		c-37.5,0-69.3-26.5-69.3-77.3C1067.9,727.2,1099.8,700.7,1137.2,700.7z M1155.6,810.2c22.3,0,34.8-13.4,34.8-32.1
		c0-19.6-13.4-32.1-34.8-32.1c-22,0-34.8,13.4-34.8,32.1C1120.9,796.8,1133.6,810.2,1155.6,810.2z"/>
	<path class="st1" d="M1329.3,700.7c38.1,0,50.8,28.5,50.8,28.5h2.4v-25.6h51.7v93.4c0,10.7,2.7,13.7,8.3,13.7
		c3.3,0,5.4-0.9,5.4-0.9v42.5c0,0-5.9,3-21.1,3c-35.4,0-41.9-28.8-41.9-28.8h-2.4c-0.6,1.8-11.9,28.8-53.2,28.8
		c-37.5,0-69.3-26.5-69.3-77.3C1260,727.2,1291.8,700.7,1329.3,700.7z M1347.7,810.2c21.4,0,34.8-12.5,34.8-32.1
		c0-18.7-12.5-32.1-34.8-32.1c-22,0-34.8,13.4-34.8,32.1C1312.9,796.8,1325.7,810.2,1347.7,810.2z"/>
	<path class="st1" d="M1513,776.9c0,21.1,11.9,33.3,32.4,33.3c22.3,0,32.7-14,32.7-33.3v-73.1h51.7v126.4
		c0,58.9-34.2,84.7-102.3,84.7c-22.3,0-34.2-5.4-34.2-5.4v-41.9c0,0,9.5,5.1,31.5,5.1c34.8,0,53.2-11.3,53.2-42.5h-2.7
		c0,0-9.2,22.3-49.1,22.3c-38.9,0-65.1-16.4-65.1-60.7v-88h51.7V776.9z"/>
	<path class="st1" d="M1674.2,800.1c17.8,0,29.4,10.4,29.4,27.7c0,17.2-11.6,27.7-29.4,27.7c-17.8,0-29.4-10.4-29.4-27.7
		C1644.7,810.5,1656.3,800.1,1674.2,800.1z"/>
</g>
</svg>
