<?xml version="1.0" encoding="utf-8"?>
<!-- Generator: Adobe Illustrator 22.0.0, SVG Export Plug-In . SVG Version: 6.00 Build 0)  -->
<svg version="1.1" id="Layer_1" xmlns="http://www.w3.org/2000/svg" xmlns:xlink="http://www.w3.org/1999/xlink" x="0px" y="0px"
	 viewBox="0 0 2000 1100" style="enable-background:new 0 0 2000 1100;" xml:space="preserve">
<style type="text/css">
	.st0{fill:#FFFFFF;}
	.st1{fill:#FFFFFF;stroke:#D500D8;stroke-width:2;stroke-miterlimit:10;}
	.st2{fill:#D500D8;}
	.st3{fill:#08B468;}
	.st4{fill:#FFFFFF;stroke:#D500D8;stroke-width:2.5051;stroke-miterlimit:10;}
	.st5{fill:#111111;}
	.st6{fill:none;stroke:#111111;stroke-width:2;stroke-miterlimit:10;}
</style>
<rect class="st0" width="2000" height="1100"/>
<g>
	<g>
		<g>
			<path class="st1" d="M350.1,416v163.7h-81.1V416h-74.6v163.7h-81.1V416H71.7v-44.3c13.5-6.1,27.5-12.6,41.5-18.2v-6.1
				c0-67.1,45.7-98.9,111.4-98.9c61.1,0,82.5,28.9,82.5,28.9h1.9c0,0,21.4-28.9,76-28.9c35.4,0,54.1,10.7,54.1,10.7v64.4
				c0,0-15.4-10.7-38.2-10.7c-32.2,0-50.8,11.2-50.8,37.8v2.8h65.7V416H350.1z M268.9,351.6c0-25.6-12.6-38.7-37.3-38.7
				c-24.7,0-37.3,13.1-37.3,38.7v1.9h74.6V351.6z"/>
			<path class="st1" d="M691.9,579.6h-81.1V416h-74.6v163.7H455V416h-41.5v-44.8l41.5-17.7V347c0-66.7,52.2-98.4,120.3-98.4
				c73.7,0,116.6,30.8,116.6,83h-81.1c0,0-3.3-18.7-35.9-18.7c-22.8,0-38.7,11.2-38.7,38.2v2.3h155.7V579.6z"/>
			<path class="st1" d="M984.2,576.9c0,69.9-39.2,100.7-98.4,100.7c-25.2,0-42.9-6.5-42.9-6.5v-64.8c0,0,10.3,5.1,23.3,5.1
				c22.4,0,36.8-9.8,36.8-42V416h-74.6v163.7h-81.1V416h-41.5v-44.8l41.5-17.7V347c0-66.7,52.2-98.4,120.3-98.4
				c73.7,0,116.6,30.8,116.6,83h-81.1c0,0-3.3-18.7-35.9-18.7c-22.8,0-38.7,11.2-38.7,38.2v2.3h155.7V576.9z"/>
			<path class="st1" d="M1144.2,341.8c44.8,0,64.8,16.3,64.8,16.3s-2.3-9.8-2.3-21.9c0-38.7,21-110,114.2-110
				c86.7,0,110,48.5,110,120.3h66.7V409h-66.2v69c0,31.7,17.7,40.1,42.4,40.1c18.2,0,30.8-7,30.8-7v65.3c0,0-15.9,7.9-43.4,7.9
				c-74.1,0-111-28-111-95.6V409h-31.7v-42c10.7,0,31.7-5.1,31.7-34.5c0-19.6-10.3-35.4-30.8-35.4c-35,0-36.4,34.5-36.4,69.5v76.9
				h-83.5c0,0-7-33.6-50.8-33.6c-32.2,0-53.6,20.5-53.6,53.2s21.4,53.2,53.6,53.2c43.8,0,50.8-33.6,50.8-33.6h83.5
				c0,54.1-51.3,101.7-134.3,101.7c-79.3,0-136.6-41.5-136.6-121.2S1071.4,341.8,1144.2,341.8z"/>
			<path class="st1" d="M1631.5,396.9c-26.1,0-34.5,7-34.5,16.8c0,35,166-11.2,166,94.7c0,53.2-46.2,76-127.3,76
				c-80.2,0-126.4-21-126.4-79.3v-7.5h83v7.5c0,17.7,12.1,24.2,43.4,24.2c33.1,0,44.3-7,44.3-19.6c0-40.6-166,9.3-166-96.1
				c0-45.7,43.8-71.8,115.6-71.8c32.6,0,47.1,8.4,47.1,8.4v-14c0-38.7,18.7-110,111.9-110c86.7,0,110,48.5,110,120.3h66.7V409h-66.2
				v69c0,31.7,17.7,40.1,42.4,40.1c18.2,0,30.8-7,30.8-7v65.3c0,0-15.9,7.9-43.4,7.9c-74.1,0-111-28-111-95.6V409h-31.7v-42
				c10.7,0,31.7-5.1,31.7-34.5c0-19.6-10.3-35.4-30.8-35.4c-35,0-36.4,34.5-36.4,69.5v53.2h-83
				C1667.8,409.4,1667.8,396.9,1631.5,396.9z"/>
			<path class="st1" d="M339.1,691.3c45.7,0,72.3,19.6,72.3,19.6c0-38.2,15.9-108.2,137.6-108.2h70.9v133.8h4.2
				c0,0,17.3-45.2,83.9-45.2c55.5,0,95.1,30.3,95.1,99.8v138h-81.1V814.4c0-33.1-18.7-52.2-50.8-52.2c-35,0-51.3,21.9-51.3,52.2
				v114.7h-81.1V669.9c-56.4,0.5-60.6,40.1-60.6,123.1h-83.5c0,0-7-33.6-50.8-33.6c-32.2,0-53.6,20.5-53.6,53.2
				c0,32.6,21.4,53.2,53.6,53.2c43.8,0,50.8-33.6,50.8-33.6h83.5c0,54.1-51.3,101.7-134.3,101.7c-79.3,0-136.6-41.5-136.6-121.2
				S266.4,691.3,339.1,691.3z"/>
			<path class="st1" d="M1325.3,808.4l100.3,120.8h-90.5L1241.4,813v116.1h-81.1V669.9c-56.4,0.5-60.6,40.1-60.6,123.1h-83.5
				c0,0-7-33.6-50.8-33.6c-32.2,0-53.6,20.5-53.6,53.2c0,32.6,21.4,53.2,53.6,53.2c43.8,0,50.8-33.6,50.8-33.6h83.5
				c0,54.1-51.3,101.7-134.3,101.7c-79.3,0-136.6-41.5-136.6-121.2s59.2-121.2,132-121.2c45.7,0,72.3,19.6,72.3,19.6
				c0-38.2,15.9-108.2,137.6-108.2h70.9v201l84.9-107.7h90.5L1325.3,808.4z"/>
			<path class="st1" d="M1771.6,808.4l100.3,120.8h-90.5L1687.7,813v116.1h-81.1V765.5h-74.6v163.7h-81.1V765.5h-41.5v-44.8
				l41.5-17.7v-6.1c0-67.1,51.3-98.9,118.4-98.9c71.8,0,118.4,31.7,118.4,98.9v106.8l84.9-107.7h90.5L1771.6,808.4z M1606.5,701.1
				c0-25.6-13.5-38.7-37.3-38.7c-23.8,0-37.3,13.1-37.3,38.7v1.9h74.6V701.1z"/>
		</g>
		<g>
			<path class="st1" d="M370.1,463v163.7h-81.1V463h-74.6v163.7h-81.1V463H91.7v-44.3c13.5-6.1,27.5-12.6,41.5-18.2v-6.1
				c0-67.1,45.7-98.9,111.4-98.9c61.1,0,82.5,28.9,82.5,28.9h1.9c0,0,21.4-28.9,76-28.9c35.4,0,54.1,10.7,54.1,10.7v64.4
				c0,0-15.4-10.7-38.2-10.7c-32.2,0-50.8,11.2-50.8,37.8v2.8h65.7V463H370.1z M288.9,398.6c0-25.6-12.6-38.7-37.3-38.7
				c-24.7,0-37.3,13.1-37.3,38.7v1.9h74.6V398.6z"/>
			<path class="st1" d="M711.9,626.6h-81.1V463h-74.6v163.7H475V463h-41.5v-44.8l41.5-17.7V394c0-66.7,52.2-98.4,120.3-98.4
				c73.7,0,116.6,30.8,116.6,83h-81.1c0,0-3.3-18.7-35.9-18.7c-22.8,0-38.7,11.2-38.7,38.2v2.3h155.7V626.6z"/>
			<path class="st1" d="M1004.2,623.9c0,69.9-39.2,100.7-98.4,100.7c-25.2,0-42.9-6.5-42.9-6.5v-64.8c0,0,10.3,5.1,23.3,5.1
				c22.4,0,36.8-9.8,36.8-42V463h-74.6v163.7h-81.1V463h-41.5v-44.8l41.5-17.7V394c0-66.7,52.2-98.4,120.3-98.4
				c73.7,0,116.6,30.8,116.6,83h-81.1c0,0-3.3-18.7-35.9-18.7c-22.8,0-38.7,11.2-38.7,38.2v2.3h155.7V623.9z"/>
			<path class="st1" d="M1164.2,388.8c44.8,0,64.8,16.3,64.8,16.3s-2.3-9.8-2.3-21.9c0-38.7,21-110,114.2-110
				c86.7,0,110,48.5,110,120.3h66.7V456h-66.2v69c0,31.7,17.7,40.1,42.4,40.1c18.2,0,30.8-7,30.8-7v65.3c0,0-15.9,7.9-43.4,7.9
				c-74.1,0-111-28-111-95.6V456h-31.7v-42c10.7,0,31.7-5.1,31.7-34.5c0-19.6-10.3-35.4-30.8-35.4c-35,0-36.4,34.5-36.4,69.5v76.9
				h-83.5c0,0-7-33.6-50.8-33.6c-32.2,0-53.6,20.5-53.6,53.2s21.4,53.2,53.6,53.2c43.8,0,50.8-33.6,50.8-33.6h83.5
				c0,54.1-51.3,101.7-134.3,101.7c-79.3,0-136.6-41.5-136.6-121.2S1091.4,388.8,1164.2,388.8z"/>
			<path class="st1" d="M1651.5,443.9c-26.1,0-34.5,7-34.5,16.8c0,35,166-11.2,166,94.7c0,53.2-46.2,76-127.3,76
				c-80.2,0-126.4-21-126.4-79.3v-7.5h83v7.5c0,17.7,12.1,24.2,43.4,24.2c33.1,0,44.3-7,44.3-19.6c0-40.6-166,9.3-166-96.1
				c0-45.7,43.8-71.8,115.6-71.8c32.6,0,47.1,8.4,47.1,8.4v-14c0-38.7,18.7-110,111.9-110c86.7,0,110,48.5,110,120.3h66.7V456h-66.2
				v69c0,31.7,17.7,40.1,42.4,40.1c18.2,0,30.8-7,30.8-7v65.3c0,0-15.9,7.9-43.4,7.9c-74.1,0-111-28-111-95.6V456h-31.7v-42
				c10.7,0,31.7-5.1,31.7-34.5c0-19.6-10.3-35.4-30.8-35.4c-35,0-36.4,34.5-36.4,69.5v53.2h-83
				C1687.8,456.4,1687.8,443.9,1651.5,443.9z"/>
			<path class="st1" d="M359.1,738.3c45.7,0,72.3,19.6,72.3,19.6c0-38.2,15.9-108.2,137.6-108.2h70.9v133.8h4.2
				c0,0,17.3-45.2,83.9-45.2c55.5,0,95.1,30.3,95.1,99.8v138h-81.1V861.4c0-33.1-18.7-52.2-50.8-52.2c-35,0-51.3,21.9-51.3,52.2
				v114.7h-81.1V716.9c-56.4,0.5-60.6,40.1-60.6,123.1h-83.5c0,0-7-33.6-50.8-33.6c-32.2,0-53.6,20.5-53.6,53.2
				c0,32.6,21.4,53.2,53.6,53.2c43.8,0,50.8-33.6,50.8-33.6h83.5c0,54.1-51.3,101.7-134.3,101.7c-79.3,0-136.6-41.5-136.6-121.2
				S286.4,738.3,359.1,738.3z"/>
			<path class="st1" d="M1345.3,855.4l100.3,120.8h-90.5L1261.4,860v116.1h-81.1V716.9c-56.4,0.5-60.6,40.1-60.6,123.1h-83.5
				c0,0-7-33.6-50.8-33.6c-32.2,0-53.6,20.5-53.6,53.2c0,32.6,21.4,53.2,53.6,53.2c43.8,0,50.8-33.6,50.8-33.6h83.5
				c0,54.1-51.3,101.7-134.3,101.7c-79.3,0-136.6-41.5-136.6-121.2s59.2-121.2,132-121.2c45.7,0,72.3,19.6,72.3,19.6
				c0-38.2,15.9-108.2,137.6-108.2h70.9v201l84.9-107.7h90.5L1345.3,855.4z"/>
			<path class="st1" d="M1791.6,855.4l100.3,120.8h-90.5L1707.7,860v116.1h-81.1V812.5h-74.6v163.7h-81.1V812.5h-41.5v-44.8
				l41.5-17.7v-6.1c0-67.1,51.3-98.9,118.4-98.9c71.8,0,118.4,31.7,118.4,98.9v106.8l84.9-107.7h90.5L1791.6,855.4z M1626.5,748.1
				c0-25.6-13.5-38.7-37.3-38.7c-23.8,0-37.3,13.1-37.3,38.7v1.9h74.6V748.1z"/>
		</g>
		<g>
			<path class="st1" d="M392.1,490v163.7h-81.1V490h-74.6v163.7h-81.1V490h-41.5v-44.3c13.5-6.1,27.5-12.6,41.5-18.2v-6.1
				c0-67.1,45.7-98.9,111.4-98.9c61.1,0,82.5,28.9,82.5,28.9h1.9c0,0,21.4-28.9,76-28.9c35.4,0,54.1,10.7,54.1,10.7v64.4
				c0,0-15.4-10.7-38.2-10.7c-32.2,0-50.8,11.2-50.8,37.8v2.8h65.7V490H392.1z M310.9,425.6c0-25.6-12.6-38.7-37.3-38.7
				c-24.7,0-37.3,13.1-37.3,38.7v1.9h74.6V425.6z"/>
			<path class="st1" d="M733.9,653.6h-81.1V490h-74.6v163.7H497V490h-41.5v-44.8l41.5-17.7V421c0-66.7,52.2-98.4,120.3-98.4
				c73.7,0,116.6,30.8,116.6,83h-81.1c0,0-3.3-18.7-35.9-18.7c-22.8,0-38.7,11.2-38.7,38.2v2.3h155.7V653.6z"/>
			<path class="st1" d="M1026.2,650.9c0,69.9-39.2,100.7-98.4,100.7c-25.2,0-42.9-6.5-42.9-6.5v-64.8c0,0,10.3,5.1,23.3,5.1
				c22.4,0,36.8-9.8,36.8-42V490h-74.6v163.7h-81.1V490h-41.5v-44.8l41.5-17.7V421c0-66.7,52.2-98.4,120.3-98.4
				c73.7,0,116.6,30.8,116.6,83h-81.1c0,0-3.3-18.7-35.9-18.7c-22.8,0-38.7,11.2-38.7,38.2v2.3h155.7V650.9z"/>
			<path class="st1" d="M1186.2,415.8c44.8,0,64.8,16.3,64.8,16.3s-2.3-9.8-2.3-21.9c0-38.7,21-110,114.2-110
				c86.7,0,110,48.5,110,120.3h66.7V483h-66.2v69c0,31.7,17.7,40.1,42.4,40.1c18.2,0,30.8-7,30.8-7v65.3c0,0-15.9,7.9-43.4,7.9
				c-74.1,0-111-28-111-95.6V483h-31.7v-42c10.7,0,31.7-5.1,31.7-34.5c0-19.6-10.3-35.4-30.8-35.4c-35,0-36.4,34.5-36.4,69.5v76.9
				h-83.5c0,0-7-33.6-50.8-33.6c-32.2,0-53.6,20.5-53.6,53.2s21.4,53.2,53.6,53.2c43.8,0,50.8-33.6,50.8-33.6h83.5
				c0,54.1-51.3,101.7-134.3,101.7c-79.3,0-136.6-41.5-136.6-121.2S1113.4,415.8,1186.2,415.8z"/>
			<path class="st1" d="M1673.5,470.9c-26.1,0-34.5,7-34.5,16.8c0,35,166-11.2,166,94.7c0,53.2-46.2,76-127.3,76
				c-80.2,0-126.4-21-126.4-79.3v-7.5h83v7.5c0,17.7,12.1,24.2,43.4,24.2c33.1,0,44.3-7,44.3-19.6c0-40.6-166,9.3-166-96.1
				c0-45.7,43.8-71.8,115.6-71.8c32.6,0,47.1,8.4,47.1,8.4v-14c0-38.7,18.7-110,111.9-110c86.7,0,110,48.5,110,120.3h66.7V483h-66.2
				v69c0,31.7,17.7,40.1,42.4,40.1c18.2,0,30.8-7,30.8-7v65.3c0,0-15.9,7.9-43.4,7.9c-74.1,0-111-28-111-95.6V483h-31.7v-42
				c10.7,0,31.7-5.1,31.7-34.5c0-19.6-10.3-35.4-30.8-35.4c-35,0-36.4,34.5-36.4,69.5v53.2h-83
				C1709.8,483.4,1709.8,470.9,1673.5,470.9z"/>
			<path class="st1" d="M381.1,765.3c45.7,0,72.3,19.6,72.3,19.6c0-38.2,15.9-108.2,137.6-108.2h70.9v133.8h4.2
				c0,0,17.3-45.2,83.9-45.2c55.5,0,95.1,30.3,95.1,99.8v138h-81.1V888.4c0-33.1-18.7-52.2-50.8-52.2c-35,0-51.3,21.9-51.3,52.2
				v114.7h-81.1V743.9c-56.4,0.5-60.6,40.1-60.6,123.1h-83.5c0,0-7-33.6-50.8-33.6c-32.2,0-53.6,20.5-53.6,53.2
				c0,32.6,21.4,53.2,53.6,53.2c43.8,0,50.8-33.6,50.8-33.6h83.5c0,54.1-51.3,101.7-134.3,101.7c-79.3,0-136.6-41.5-136.6-121.2
				S308.4,765.3,381.1,765.3z"/>
			<path class="st1" d="M1367.3,882.4l100.3,120.8h-90.5L1283.4,887v116.1h-81.1V743.9c-56.4,0.5-60.6,40.1-60.6,123.1h-83.5
				c0,0-7-33.6-50.8-33.6c-32.2,0-53.6,20.5-53.6,53.2c0,32.6,21.4,53.2,53.6,53.2c43.8,0,50.8-33.6,50.8-33.6h83.5
				c0,54.1-51.3,101.7-134.3,101.7c-79.3,0-136.6-41.5-136.6-121.2s59.2-121.2,132-121.2c45.7,0,72.3,19.6,72.3,19.6
				c0-38.2,15.9-108.2,137.6-108.2h70.9v201l84.9-107.7h90.5L1367.3,882.4z"/>
			<path class="st1" d="M1813.6,882.4l100.3,120.8h-90.5L1729.7,887v116.1h-81.1V839.5h-74.6v163.7h-81.1V839.5h-41.5v-44.8
				l41.5-17.7v-6.1c0-67.1,51.3-98.9,118.4-98.9c71.8,0,118.4,31.7,118.4,98.9v106.8l84.9-107.7h90.5L1813.6,882.4z M1648.5,775.1
				c0-25.6-13.5-38.7-37.3-38.7c-23.8,0-37.3,13.1-37.3,38.7v1.9h74.6V775.1z"/>
		</g>
		<g>
			<path class="st1" d="M412.1,528v163.7h-81.1V528h-74.6v163.7h-81.1V528h-41.5v-44.3c13.5-6.1,27.5-12.6,41.5-18.2v-6.1
				c0-67.1,45.7-98.9,111.4-98.9c61.1,0,82.5,28.9,82.5,28.9h1.9c0,0,21.4-28.9,76-28.9c35.4,0,54.1,10.7,54.1,10.7v64.4
				c0,0-15.4-10.7-38.2-10.7c-32.2,0-50.8,11.2-50.8,37.8v2.8h65.7V528H412.1z M330.9,463.6c0-25.6-12.6-38.7-37.3-38.7
				c-24.7,0-37.3,13.1-37.3,38.7v1.9h74.6V463.6z"/>
			<path class="st1" d="M753.9,691.6h-81.1V528h-74.6v163.7H517V528h-41.5v-44.8l41.5-17.7V459c0-66.7,52.2-98.4,120.3-98.4
				c73.7,0,116.6,30.8,116.6,83h-81.1c0,0-3.3-18.7-35.9-18.7c-22.8,0-38.7,11.2-38.7,38.2v2.3h155.7V691.6z"/>
			<path class="st1" d="M1046.2,688.9c0,69.9-39.2,100.7-98.4,100.7c-25.2,0-42.9-6.5-42.9-6.5v-64.8c0,0,10.3,5.1,23.3,5.1
				c22.4,0,36.8-9.8,36.8-42V528h-74.6v163.7h-81.1V528h-41.5v-44.8l41.5-17.7V459c0-66.7,52.2-98.4,120.3-98.4
				c73.7,0,116.6,30.8,116.6,83h-81.1c0,0-3.3-18.7-35.9-18.7c-22.8,0-38.7,11.2-38.7,38.2v2.3h155.7V688.9z"/>
			<path class="st1" d="M1206.2,453.8c44.8,0,64.8,16.3,64.8,16.3s-2.3-9.8-2.3-21.9c0-38.7,21-110,114.2-110
				c86.7,0,110,48.5,110,120.3h66.7V521h-66.2v69c0,31.7,17.7,40.1,42.4,40.1c18.2,0,30.8-7,30.8-7v65.3c0,0-15.9,7.9-43.4,7.9
				c-74.1,0-111-28-111-95.6V521h-31.7v-42c10.7,0,31.7-5.1,31.7-34.5c0-19.6-10.3-35.4-30.8-35.4c-35,0-36.4,34.5-36.4,69.5v76.9
				h-83.5c0,0-7-33.6-50.8-33.6c-32.2,0-53.6,20.5-53.6,53.2s21.4,53.2,53.6,53.2c43.8,0,50.8-33.6,50.8-33.6h83.5
				c0,54.1-51.3,101.7-134.3,101.7c-79.3,0-136.6-41.5-136.6-121.2S1133.4,453.8,1206.2,453.8z"/>
			<path class="st1" d="M1693.5,508.9c-26.1,0-34.5,7-34.5,16.8c0,35,166-11.2,166,94.7c0,53.2-46.2,76-127.3,76
				c-80.2,0-126.4-21-126.4-79.3v-7.5h83v7.5c0,17.7,12.1,24.2,43.4,24.2c33.1,0,44.3-7,44.3-19.6c0-40.6-166,9.3-166-96.1
				c0-45.7,43.8-71.8,115.6-71.8c32.6,0,47.1,8.4,47.1,8.4v-14c0-38.7,18.7-110,111.9-110c86.7,0,110,48.5,110,120.3h66.7V521h-66.2
				v69c0,31.7,17.7,40.1,42.4,40.1c18.2,0,30.8-7,30.8-7v65.3c0,0-15.9,7.9-43.4,7.9c-74.1,0-111-28-111-95.6V521h-31.7v-42
				c10.7,0,31.7-5.1,31.7-34.5c0-19.6-10.3-35.4-30.8-35.4c-35,0-36.4,34.5-36.4,69.5v53.2h-83
				C1729.8,521.4,1729.8,508.9,1693.5,508.9z"/>
			<path class="st1" d="M401.1,803.3c45.7,0,72.3,19.6,72.3,19.6c0-38.2,15.9-108.2,137.6-108.2h70.9v133.8h4.2
				c0,0,17.3-45.2,83.9-45.2c55.5,0,95.1,30.3,95.1,99.8v138h-81.1V926.4c0-33.1-18.7-52.2-50.8-52.2c-35,0-51.3,21.9-51.3,52.2
				v114.7h-81.1V781.9c-56.4,0.5-60.6,40.1-60.6,123.1h-83.5c0,0-7-33.6-50.8-33.6c-32.2,0-53.6,20.5-53.6,53.2
				c0,32.6,21.4,53.2,53.6,53.2c43.8,0,50.8-33.6,50.8-33.6h83.5c0,54.1-51.3,101.7-134.3,101.7c-79.3,0-136.6-41.5-136.6-121.2
				S328.4,803.3,401.1,803.3z"/>
			<path class="st1" d="M1387.3,920.4l100.3,120.8h-90.5L1303.4,925v116.1h-81.1V781.9c-56.4,0.5-60.6,40.1-60.6,123.1h-83.5
				c0,0-7-33.6-50.8-33.6c-32.2,0-53.6,20.5-53.6,53.2c0,32.6,21.4,53.2,53.6,53.2c43.8,0,50.8-33.6,50.8-33.6h83.5
				c0,54.1-51.3,101.7-134.3,101.7c-79.3,0-136.6-41.5-136.6-121.2s59.2-121.2,132-121.2c45.7,0,72.3,19.6,72.3,19.6
				c0-38.2,15.9-108.2,137.6-108.2h70.9v201l84.9-107.7h90.5L1387.3,920.4z"/>
			<path class="st1" d="M1833.6,920.4l100.3,120.8h-90.5L1749.7,925v116.1h-81.1V877.5h-74.6v163.7h-81.1V877.5h-41.5v-44.8
				l41.5-17.7v-6.1c0-67.1,51.3-98.9,118.4-98.9c71.8,0,118.4,31.7,118.4,98.9v106.8l84.9-107.7h90.5L1833.6,920.4z M1668.5,813.1
				c0-25.6-13.5-38.7-37.3-38.7c-23.8,0-37.3,13.1-37.3,38.7v1.9h74.6V813.1z"/>
		</g>
		<g>
			<path class="st1" d="M403.1,569v163.7h-81.1V569h-74.6v163.7h-81.1V569h-41.5v-44.3c13.5-6.1,27.5-12.6,41.5-18.2v-6.1
				c0-67.1,45.7-98.9,111.4-98.9c61.1,0,82.5,28.9,82.5,28.9h1.9c0,0,21.4-28.9,76-28.9c35.4,0,54.1,10.7,54.1,10.7v64.4
				c0,0-15.4-10.7-38.2-10.7c-32.2,0-50.8,11.2-50.8,37.8v2.8h65.7V569H403.1z M321.9,504.6c0-25.6-12.6-38.7-37.3-38.7
				c-24.7,0-37.3,13.1-37.3,38.7v1.9h74.6V504.6z"/>
			<path class="st1" d="M744.9,732.6h-81.1V569h-74.6v163.7H508V569h-41.5v-44.8l41.5-17.7V500c0-66.7,52.2-98.4,120.3-98.4
				c73.7,0,116.6,30.8,116.6,83h-81.1c0,0-3.3-18.7-35.9-18.7c-22.8,0-38.7,11.2-38.7,38.2v2.3h155.7V732.6z"/>
			<path class="st1" d="M1037.2,729.9c0,69.9-39.2,100.7-98.4,100.7c-25.2,0-42.9-6.5-42.9-6.5v-64.8c0,0,10.3,5.1,23.3,5.1
				c22.4,0,36.8-9.8,36.8-42V569h-74.6v163.7h-81.1V569h-41.5v-44.8l41.5-17.7V500c0-66.7,52.2-98.4,120.3-98.4
				c73.7,0,116.6,30.8,116.6,83h-81.1c0,0-3.3-18.7-35.9-18.7c-22.8,0-38.7,11.2-38.7,38.2v2.3h155.7V729.9z"/>
			<path class="st1" d="M1197.2,494.8c44.8,0,64.8,16.3,64.8,16.3s-2.3-9.8-2.3-21.9c0-38.7,21-110,114.2-110
				c86.7,0,110,48.5,110,120.3h66.7V562h-66.2v69c0,31.7,17.7,40.1,42.4,40.1c18.2,0,30.8-7,30.8-7v65.3c0,0-15.9,7.9-43.4,7.9
				c-74.1,0-111-28-111-95.6V562h-31.7v-42c10.7,0,31.7-5.1,31.7-34.5c0-19.6-10.3-35.4-30.8-35.4c-35,0-36.4,34.5-36.4,69.5v76.9
				h-83.5c0,0-7-33.6-50.8-33.6c-32.2,0-53.6,20.5-53.6,53.2s21.4,53.2,53.6,53.2c43.8,0,50.8-33.6,50.8-33.6h83.5
				c0,54.1-51.3,101.7-134.3,101.7c-79.3,0-136.6-41.5-136.6-121.2S1124.4,494.8,1197.2,494.8z"/>
			<path class="st1" d="M1684.5,549.9c-26.1,0-34.5,7-34.5,16.8c0,35,166-11.2,166,94.7c0,53.2-46.2,76-127.3,76
				c-80.2,0-126.4-21-126.4-79.3v-7.5h83v7.5c0,17.7,12.1,24.2,43.4,24.2c33.1,0,44.3-7,44.3-19.6c0-40.6-166,9.3-166-96.1
				c0-45.7,43.8-71.8,115.6-71.8c32.6,0,47.1,8.4,47.1,8.4v-14c0-38.7,18.7-110,111.9-110c86.7,0,110,48.5,110,120.3h66.7V562h-66.2
				v69c0,31.7,17.7,40.1,42.4,40.1c18.2,0,30.8-7,30.8-7v65.3c0,0-15.9,7.9-43.4,7.9c-74.1,0-111-28-111-95.6V562h-31.7v-42
				c10.7,0,31.7-5.1,31.7-34.5c0-19.6-10.3-35.4-30.8-35.4c-35,0-36.4,34.5-36.4,69.5v53.2h-83
				C1720.8,562.4,1720.8,549.9,1684.5,549.9z"/>
			<path class="st1" d="M392.1,844.3c45.7,0,72.3,19.6,72.3,19.6c0-38.2,15.9-108.2,137.6-108.2h70.9v133.8h4.2
				c0,0,17.3-45.2,83.9-45.2c55.5,0,95.1,30.3,95.1,99.8v138h-81.1V967.4c0-33.1-18.7-52.2-50.8-52.2c-35,0-51.3,21.9-51.3,52.2
				v114.7h-81.1V822.9c-56.4,0.5-60.6,40.1-60.6,123.1h-83.5c0,0-7-33.6-50.8-33.6c-32.2,0-53.6,20.5-53.6,53.2
				c0,32.6,21.4,53.2,53.6,53.2c43.8,0,50.8-33.6,50.8-33.6h83.5c0,54.1-51.3,101.7-134.3,101.7c-79.3,0-136.6-41.5-136.6-121.2
				S319.4,844.3,392.1,844.3z"/>
			<path class="st1" d="M1378.3,961.4l100.3,120.8h-90.5L1294.4,966v116.1h-81.1V822.9c-56.4,0.5-60.6,40.1-60.6,123.1h-83.5
				c0,0-7-33.6-50.8-33.6c-32.2,0-53.6,20.5-53.6,53.2c0,32.6,21.4,53.2,53.6,53.2c43.8,0,50.8-33.6,50.8-33.6h83.5
				c0,54.1-51.3,101.7-134.3,101.7c-79.3,0-136.6-41.5-136.6-121.2s59.2-121.2,132-121.2c45.7,0,72.3,19.6,72.3,19.6
				c0-38.2,15.9-108.2,137.6-108.2h70.9v201l84.9-107.7h90.5L1378.3,961.4z"/>
			<path class="st1" d="M1824.6,961.4l100.3,120.8h-90.5L1740.7,966v116.1h-81.1V918.5h-74.6v163.7h-81.1V918.5h-41.5v-44.8
				l41.5-17.7v-6.1c0-67.1,51.3-98.9,118.4-98.9c71.8,0,118.4,31.7,118.4,98.9v106.8l84.9-107.7h90.5L1824.6,961.4z M1659.5,854.1
				c0-25.6-13.5-38.7-37.3-38.7c-23.8,0-37.3,13.1-37.3,38.7v1.9h74.6V854.1z"/>
		</g>
		<g>
			<path class="st1" d="M328.1,386v163.7h-81.1V386h-74.6v163.7H91.2V386H49.7v-44.3c13.5-6.1,27.5-12.6,41.5-18.2v-6.1
				c0-67.1,45.7-98.9,111.4-98.9c61.1,0,82.5,28.9,82.5,28.9h1.9c0,0,21.4-28.9,76-28.9c35.4,0,54.1,10.7,54.1,10.7v64.4
				c0,0-15.4-10.7-38.2-10.7c-32.2,0-50.8,11.2-50.8,37.8v2.8h65.7V386H328.1z M246.9,321.6c0-25.6-12.6-38.7-37.3-38.7
				c-24.7,0-37.3,13.1-37.3,38.7v1.9h74.6V321.6z"/>
			<path class="st1" d="M669.9,549.6h-81.1V386h-74.6v163.7H433V386h-41.5v-44.8l41.5-17.7V317c0-66.7,52.2-98.4,120.3-98.4
				c73.7,0,116.6,30.8,116.6,83h-81.1c0,0-3.3-18.7-35.9-18.7c-22.8,0-38.7,11.2-38.7,38.2v2.3h155.7V549.6z"/>
			<path class="st1" d="M962.2,546.9c0,69.9-39.2,100.7-98.4,100.7c-25.2,0-42.9-6.5-42.9-6.5v-64.8c0,0,10.3,5.1,23.3,5.1
				c22.4,0,36.8-9.8,36.8-42V386h-74.6v163.7h-81.1V386h-41.5v-44.8l41.5-17.7V317c0-66.7,52.2-98.4,120.3-98.4
				c73.7,0,116.6,30.8,116.6,83h-81.1c0,0-3.3-18.7-35.9-18.7c-22.8,0-38.7,11.2-38.7,38.2v2.3h155.7V546.9z"/>
			<path class="st1" d="M1122.2,311.8c44.8,0,64.8,16.3,64.8,16.3s-2.3-9.8-2.3-21.9c0-38.7,21-110,114.2-110
				c86.7,0,110,48.5,110,120.3h66.7V379h-66.2v69c0,31.7,17.7,40.1,42.4,40.1c18.2,0,30.8-7,30.8-7v65.3c0,0-15.9,7.9-43.4,7.9
				c-74.1,0-111-28-111-95.6V379h-31.7v-42c10.7,0,31.7-5.1,31.7-34.5c0-19.6-10.3-35.4-30.8-35.4c-35,0-36.4,34.5-36.4,69.5v76.9
				h-83.5c0,0-7-33.6-50.8-33.6c-32.2,0-53.6,20.5-53.6,53.2s21.4,53.2,53.6,53.2c43.8,0,50.8-33.6,50.8-33.6h83.5
				c0,54.1-51.3,101.7-134.3,101.7c-79.3,0-136.6-41.5-136.6-121.2S1049.4,311.8,1122.2,311.8z"/>
			<path class="st1" d="M1609.5,366.9c-26.1,0-34.5,7-34.5,16.8c0,35,166-11.2,166,94.7c0,53.2-46.2,76-127.3,76
				c-80.2,0-126.4-21-126.4-79.3v-7.5h83v7.5c0,17.7,12.1,24.2,43.4,24.2c33.1,0,44.3-7,44.3-19.6c0-40.6-166,9.3-166-96.1
				c0-45.7,43.8-71.8,115.6-71.8c32.6,0,47.1,8.4,47.1,8.4v-14c0-38.7,18.7-110,111.9-110c86.7,0,110,48.5,110,120.3h66.7V379h-66.2
				v69c0,31.7,17.7,40.1,42.4,40.1c18.2,0,30.8-7,30.8-7v65.3c0,0-15.9,7.9-43.4,7.9c-74.1,0-111-28-111-95.6V379h-31.7v-42
				c10.7,0,31.7-5.1,31.7-34.5c0-19.6-10.3-35.4-30.8-35.4c-35,0-36.4,34.5-36.4,69.5v53.2h-83
				C1645.8,379.4,1645.8,366.9,1609.5,366.9z"/>
			<path class="st1" d="M317.1,661.3c45.7,0,72.3,19.6,72.3,19.6c0-38.2,15.9-108.2,137.6-108.2h70.9v133.8h4.2
				c0,0,17.3-45.2,83.9-45.2c55.5,0,95.1,30.3,95.1,99.8v138h-81.1V784.4c0-33.1-18.7-52.2-50.8-52.2c-35,0-51.3,21.9-51.3,52.2
				v114.7h-81.1V639.9c-56.4,0.5-60.6,40.1-60.6,123.1h-83.5c0,0-7-33.6-50.8-33.6c-32.2,0-53.6,20.5-53.6,53.2
				c0,32.6,21.4,53.2,53.6,53.2c43.8,0,50.8-33.6,50.8-33.6h83.5c0,54.1-51.3,101.7-134.3,101.7c-79.3,0-136.6-41.5-136.6-121.2
				S244.4,661.3,317.1,661.3z"/>
			<path class="st1" d="M1303.3,778.4l100.3,120.8h-90.5L1219.4,783v116.1h-81.1V639.9c-56.4,0.5-60.6,40.1-60.6,123.1h-83.5
				c0,0-7-33.6-50.8-33.6c-32.2,0-53.6,20.5-53.6,53.2c0,32.6,21.4,53.2,53.6,53.2c43.8,0,50.8-33.6,50.8-33.6h83.5
				c0,54.1-51.3,101.7-134.3,101.7c-79.3,0-136.6-41.5-136.6-121.2s59.2-121.2,132-121.2c45.7,0,72.3,19.6,72.3,19.6
				c0-38.2,15.9-108.2,137.6-108.2h70.9v201l84.9-107.7h90.5L1303.3,778.4z"/>
			<path class="st1" d="M1749.6,778.4l100.3,120.8h-90.5L1665.7,783v116.1h-81.1V735.5h-74.6v163.7h-81.1V735.5h-41.5v-44.8
				l41.5-17.7v-6.1c0-67.1,51.3-98.9,118.4-98.9c71.8,0,118.4,31.7,118.4,98.9v106.8l84.9-107.7h90.5L1749.6,778.4z M1584.5,671.1
				c0-25.6-13.5-38.7-37.3-38.7c-23.8,0-37.3,13.1-37.3,38.7v1.9h74.6V671.1z"/>
		</g>
	</g>
	<g>
		<g>
			<path class="st2" d="M904.7,398.8h-73.5l-15.9-39.5H697.8l-15.9,39.5h-73.5l103.4-258.6h89.4L904.7,398.8z M758.7,208.5h-4.4
				l-36.9,97.5h78.3L758.7,208.5z"/>
			<path class="st2" d="M1053.6,307.9c0-26.2-14.8-41.4-40.3-41.4c-27.7,0-40.6,17.4-40.6,41.4v90.9h-64.3V214.1h64.3v32.1h3.3
				c0,0,13.7-35.8,66.5-35.8c44,0,75.4,24,75.4,79.1v109.4h-64.3V307.9z"/>
			<path class="st2" d="M1224.3,210.4c45.4,0,63.5,24,63.5,24h2.6v-94.2h64.3v258.6h-64.3V367h-3c0,0-15.9,35.5-63.2,35.5
				c-46.6,0-86.1-32.9-86.1-96.1S1177.7,210.4,1224.3,210.4z M1247.2,346.3c27.7,0,43.2-16.6,43.2-39.9c0-24.4-16.6-39.9-43.2-39.9
				c-27.3,0-43.2,16.6-43.2,39.9S1219.8,346.3,1247.2,346.3z"/>
			<path class="st2" d="M429.9,677.5h-215V418.8h70.2v199.5h144.8V677.5z"/>
			<path class="st2" d="M475,415.1c21.1,0,34.4,10.3,34.4,27.7s-13.3,27.7-34.4,27.7c-21.1,0-34.4-10.3-34.4-27.7
				S453.9,415.1,475,415.1z M507.1,677.5h-64.3V492.7h64.3V677.5z"/>
			<path class="st2" d="M615.4,489c47.3,0,63.2,35.5,63.2,35.5h3v-31.8h64.3v157c0,73.2-42.5,105.3-127.1,105.3
				c-27.7,0-42.5-6.7-42.5-6.7v-52.1c0,0,11.8,6.3,39.2,6.3c40.6,0,65.8-12.2,65.8-54.7h-2.2c0,0-14.4,29.6-61.7,29.6
				c-48.4,0-87.9-29.2-87.9-92.4S568.8,489,615.4,489z M638.3,621.3c26.6,0,43.2-13.7,43.2-38.1c0-23.3-15.5-38.1-43.2-38.1
				c-27.3,0-43.2,14.8-43.2,38.1C595.1,606.5,611,621.3,638.3,621.3z"/>
			<path class="st2" d="M854.1,489c47.3,0,63.2,35.5,63.2,35.5h3v-31.8h64.3v116c0,13.3,3.3,17,10.3,17c4.1,0,6.7-1.1,6.7-1.1v52.8
				c0,0-7.4,3.7-26.2,3.7c-44,0-52.1-35.8-52.1-35.8h-3c-0.7,2.2-14.8,35.8-66.1,35.8c-46.6,0-86.1-32.9-86.1-96.1
				S807.5,489,854.1,489z M877,625c26.6,0,43.2-15.5,43.2-39.9c0-23.3-15.5-39.9-43.2-39.9c-27.3,0-43.2,16.6-43.2,39.9
				C833.7,608.4,849.6,625,877,625z"/>
			<path class="st2" d="M1028.4,542.2h-25.1V509l55.8-53.2h33.6v36.9h52.5v49.5h-52.5v54.7c0,25.1,14,31.8,33.6,31.8
				c14.4,0,24.4-5.5,24.4-5.5v51.7c0,0-12.6,6.3-34.4,6.3c-58.7,0-87.9-22.2-87.9-75.7V542.2z"/>
			<path class="st2" d="M1256.8,681.2c-54.3,0-83.9-24-83.9-79.1V492.7h64.3v90.9c0,26.2,14.8,41.4,40.3,41.4
				c27.7,0,40.6-17.4,40.6-41.4v-90.9h64.3v116c0,13.3,3.3,17,10.3,17c4.1,0,6.6-1.1,6.6-1.1v52.8c0,0-7.4,3.7-26.2,3.7
				c-38.4,0-46.6-35.8-46.6-35.8h-3C1323.6,645.3,1311.4,681.2,1256.8,681.2z"/>
			<path class="st2" d="M1563.4,490.9v70.6c0,0-11.5-6.7-34.4-6.7c-34,0-48.8,19.6-48.8,45.1v77.6H1416V492.7h64.3v32.1h3.3
				c0,0,14.8-35.8,63.9-35.8C1555.7,489,1563.4,490.9,1563.4,490.9z"/>
			<path class="st2" d="M1636.2,597.7c0.4,22.2,11.8,39.2,41.4,39.2c26.6,0,34.4-18.8,34.4-18.8h68.7c0,0-7.4,63.2-103.1,63.2
				c-63.5,0-108.6-32.1-108.6-96.1c0-63.5,45.1-96.1,108.3-96.1c62.4,0,107.9,32.5,107.9,96.1c0,5.5-1.1,12.6-1.1,12.6H1636.2z
				 M1637.7,564.8h78c0-13.7-12.2-31.4-38.4-31.4S1637.7,550.4,1637.7,564.8z"/>
			<path class="st2" d="M716.4,820.9h-25.1v-33.3l55.8-53.2h33.6v36.9h52.5v49.5h-52.5v54.7c0,25.1,14,31.8,33.6,31.8
				c14.4,0,24.4-5.5,24.4-5.5v51.7c0,0-12.6,6.3-34.4,6.3c-58.7,0-87.9-22.2-87.9-75.7V820.9z"/>
			<path class="st2" d="M1058.9,863.8c0,63.5-45.1,96.1-108.3,96.1c-63.2,0-108.3-32.5-108.3-96.1s45.1-96.1,108.3-96.1
				C1013.9,767.7,1058.9,800.2,1058.9,863.8z M993.2,863.8c0-24.4-17-40.6-42.5-40.6s-42.5,16.3-42.5,40.6s17,40.6,42.5,40.6
				S993.2,888.2,993.2,863.8z"/>
			<path class="st2" d="M1290.2,863.8c0,63.5-45.1,96.1-108.3,96.1s-108.3-32.5-108.3-96.1s45.1-96.1,108.3-96.1
				S1290.2,800.2,1290.2,863.8z M1224.4,863.8c0-24.4-17-40.6-42.5-40.6s-42.5,16.3-42.5,40.6s17,40.6,42.5,40.6
				S1224.4,888.2,1224.4,863.8z"/>
		</g>
	</g>
</g>
<g>
	<text transform="matrix(1 0 0 1 876.8496 -76.042)"><tspan x="0" y="0" class="st3" style="font-family:'TTTravelsTrl-Bold'; font-size:24.453px;">BSET 01</tspan><tspan x="0" y="19.2" class="st3" style="font-family:'TTTravelsTrl-Bold'; font-size:24.453px;">LTS-F “ff”</tspan></text>
</g>
<g>
	<text transform="matrix(1 0 0 1 876.8496 -31.042)" class="st3" style="font-family:'TTTravelsTrl-Bold'; font-size:24.453px;">SCR 062</text>
</g>
<line class="st3" x1="877" y1="-52" x2="1088" y2="-52"/>
<circle class="st4" cx="87" cy="263.5" r="62"/>
<circle class="st4" cx="461.5" cy="263.5" r="62"/>
<circle class="st4" cx="1041.5" cy="263.5" r="62"/>
<circle class="st4" cx="1527.5" cy="263.5" r="62"/>
<circle class="st4" cx="844.5" cy="625.5" r="62"/>
<circle class="st4" cx="227.5" cy="625.5" r="62"/>
<circle class="st4" cx="1424.5" cy="625.5" r="62"/>
<g>
	<g>
		<g>
			<path class="st5" d="M55.1,252.4h-5.8v-12.6h6.1c2.9,0,4.2,1.2,4.2,3.3c0,2.1-1.9,2.6-1.9,2.6v0.1c0,0,2.5,0.4,2.5,3
				C60.2,251.5,58.7,252.4,55.1,252.4z M54.9,242.1h-2.8v2.9h2.8c1.1,0,1.7-0.5,1.7-1.5C56.6,242.6,56.1,242.1,54.9,242.1z
				 M55.3,247h-3.1v3.2h3.1c1.5,0,2-0.6,2-1.6C57.3,247.6,56.6,247,55.3,247z"/>
			<path class="st5" d="M72.2,243.8h-3v-0.3c0-0.9-0.8-1.5-2.3-1.5c-1.3,0-2.3,0.4-2.3,1.4c0,2.5,8.2,0.4,8.2,5.4
				c0,2.5-2.2,3.9-5.7,3.9c-3.7,0-5.7-1.4-5.7-4.1v-0.5h3v0.5c0,1.3,1.2,1.7,2.8,1.7c1.7,0,2.8-0.4,2.8-1.5c0-2.2-8.2-0.4-8.2-5.4
				c0-2.3,1.9-3.7,5.3-3.7c3.4,0,5.3,1.4,5.3,3.8V243.8z"/>
			<path class="st5" d="M74.1,239.8h10.3v2.4H77v2.6h6.3v2.3H77v2.9h7.5v2.4H74.1V239.8z"/>
			<path class="st5" d="M84.8,239.8h11.5v2.5H92v10.1h-2.8v-10.1h-4.3V239.8z"/>
			<path class="st5" d="M105.3,239.6c3.8,0,6,2.7,6,6.5c0,3.8-2.2,6.5-6,6.5s-6-2.7-6-6.5C99.3,242.3,101.5,239.6,105.3,239.6z
				 M105.3,242.2c-2,0-3,1.7-3,4s1,4,3,4s3-1.7,3-4S107.3,242.2,105.3,242.2z"/>
			<path class="st5" d="M111.6,243.1l3.5-3.2h2.6v12.6h-2.8v-8.6h-0.1l-1.5,1.4L111.6,243.1z"/>
			<path class="st5" d="M59.4,268.3H49.3v-12.6h2.8v10.1h7.3V268.3z"/>
			<path class="st5" d="M57.8,255.7h11.5v2.5H65v10.1h-2.8v-10.1h-4.3V255.7z"/>
			<path class="st5" d="M80.5,259.6h-3v-0.3c0-0.9-0.8-1.5-2.3-1.5c-1.3,0-2.3,0.4-2.3,1.4c0,2.5,8.2,0.4,8.2,5.4
				c0,2.5-2.2,3.9-5.7,3.9c-3.7,0-5.7-1.4-5.7-4.1V264h3v0.5c0,1.3,1.2,1.7,2.8,1.7c1.7,0,2.8-0.4,2.8-1.5c0-2.2-8.2-0.4-8.2-5.4
				c0-2.3,1.9-3.7,5.3-3.7c3.4,0,5.3,1.4,5.3,3.8V259.6z"/>
			<path class="st5" d="M86,264.1l-4.4,1.8v-2.3l4.4-1.8V264.1z"/>
			<path class="st5" d="M87.2,255.7h10.1v2.4H90v3.3h6v2.3h-6v4.6h-2.8V255.7z"/>
			<path class="st5" d="M102.3,256.9c0,1.5,1.4,0.4,1.4,2.3c0,0.9-0.6,1.4-1.5,1.4c-1,0-1.5-0.5-1.5-1.8c0-2.1,0.8-3.2,1.7-3.2
				V256.9z M106.3,256.9c0,1.5,1.4,0.4,1.4,2.3c0,0.9-0.6,1.4-1.5,1.4c-1,0-1.5-0.5-1.5-1.8c0-2.1,0.8-3.2,1.7-3.2V256.9z"/>
			<path class="st5" d="M111.9,261.6v6.7h-2.6v-6.7h-1.6v-1.5l1.6-0.6v-0.3c0-2.5,1.5-3.7,4.2-3.7c1.2,0,2,0.5,2,0.5v2.1
				c0,0-0.6-0.5-1.5-0.5c-1.2,0-2.1,0.5-2.1,1.7v0.1h2.6v2.1H111.9z"/>
			<path class="st5" d="M118.6,261.6v6.7H116v-6.7h-1.6v-1.5l1.6-0.6v-0.3c0-2.5,1.5-3.7,4.2-3.7c1.2,0,2,0.5,2,0.5v2.1
				c0,0-0.6-0.5-1.5-0.5c-1.2,0-2.1,0.5-2.1,1.7v0.1h2.6v2.1H118.6z"/>
			<path class="st5" d="M123.6,259.2c0-1.5-1.4-0.4-1.4-2.3c0-0.9,0.6-1.4,1.5-1.4c1,0,1.5,0.5,1.5,1.8c0,2.1-0.8,3.2-1.7,3.2V259.2
				z M127.6,259.2c0-1.5-1.4-0.4-1.4-2.3c0-0.9,0.6-1.4,1.5-1.4c1,0,1.5,0.5,1.5,1.8c0,2.1-0.8,3.2-1.7,3.2V259.2z"/>
		</g>
	</g>
	<g>
		<g>
			<path class="st5" d="M59.7,281.1h-3v-0.3c0-0.9-0.8-1.5-2.3-1.5c-1.3,0-2.3,0.4-2.3,1.4c0,2.5,8.2,0.4,8.2,5.4
				c0,2.5-2.2,3.9-5.7,3.9c-3.7,0-5.7-1.4-5.7-4.1v-0.5h3v0.5c0,1.3,1.2,1.7,2.8,1.7c1.7,0,2.8-0.4,2.8-1.5c0-2.2-8.2-0.4-8.2-5.4
				c0-2.3,1.9-3.7,5.3-3.7c3.4,0,5.3,1.4,5.3,3.8V281.1z"/>
			<path class="st5" d="M67.8,277c3.9,0,6.4,2.3,6.4,5.2h-3c0,0-0.3-2.7-3.3-2.7c-2.3,0-3.6,1.7-3.6,4c0,2.2,1.2,4,3.6,4
				c3.1,0,3.3-2.7,3.3-2.7h3c0,2.9-2.5,5.2-6.4,5.2c-4,0-6.5-2.5-6.5-6.5C61.3,279.5,63.8,277,67.8,277z"/>
			<path class="st5" d="M78.6,289.7h-2.8v-12.6h5.4c3.6,0,5.2,1.3,5.2,4.1c0,3-2.3,3.6-2.3,3.6l3.1,4.9H84l-2.8-4.3h-2.6V289.7z
				 M81.2,279.5h-2.6v3.5h2.6c1.5,0,2.2-0.5,2.2-1.7C83.3,280,82.6,279.5,81.2,279.5z"/>
			<path class="st5" d="M97.3,277c3.8,0,6,2.7,6,6.5c0,3.8-2.2,6.5-6,6.5s-6-2.7-6-6.5C91.3,279.6,93.5,277,97.3,277z M97.3,279.5
				c-2,0-3,1.7-3,4s1,4,3,4s3-1.7,3-4S99.3,279.5,97.3,279.5z"/>
			<path class="st5" d="M115.5,285.5c0,2.8-1.9,4.4-5.3,4.4c-3.4,0-5.3-1.5-5.3-4h2.8c0,0.7,0.6,1.6,2.5,1.6c1.6,0,2.5-0.7,2.5-2
				c0-1.4-1-2-2.5-2c-2.1,0-2.4,1-2.4,1h-2.9v-7.4h9.8v2.3h-6.9v2.6h0.1c0,0,0.6-0.8,2.9-0.8C113.5,281.3,115.5,282.7,115.5,285.5z"
				/>
			<path class="st5" d="M127.5,285.5c0,2.8-1.9,4.4-5.3,4.4c-3.4,0-5.3-1.5-5.3-4h2.8c0,0.7,0.6,1.6,2.5,1.6c1.6,0,2.5-0.7,2.5-2
				c0-1.4-1-2-2.5-2c-2.1,0-2.4,1-2.4,1h-2.9v-7.4h9.8v2.3h-6.9v2.6h0.1c0,0,0.6-0.8,2.9-0.8C125.5,281.3,127.5,282.7,127.5,285.5z"
				/>
		</g>
	</g>
	<line class="st6" x1="48" y1="272.4" x2="223" y2="272.4"/>
	<g>
		<g>
			<path class="st5" d="M192.1,614.4h-5.8v-12.6h6.1c2.9,0,4.2,1.2,4.2,3.3c0,2.1-1.9,2.6-1.9,2.6v0.1c0,0,2.5,0.4,2.5,3
				C197.2,613.5,195.7,614.4,192.1,614.4z M191.9,604.1h-2.8v2.9h2.8c1.1,0,1.7-0.5,1.7-1.5C193.6,604.6,193.1,604.1,191.9,604.1z
				 M192.3,609h-3.1v3.2h3.1c1.5,0,2-0.6,2-1.6C194.3,609.6,193.6,609,192.3,609z"/>
			<path class="st5" d="M209.2,605.8h-3v-0.3c0-0.9-0.8-1.5-2.3-1.5c-1.3,0-2.3,0.4-2.3,1.4c0,2.5,8.2,0.4,8.2,5.4
				c0,2.5-2.2,3.9-5.7,3.9c-3.7,0-5.7-1.4-5.7-4.1v-0.5h3v0.5c0,1.3,1.2,1.7,2.8,1.7c1.7,0,2.8-0.4,2.8-1.5c0-2.2-8.2-0.4-8.2-5.4
				c0-2.3,1.9-3.7,5.3-3.7c3.4,0,5.3,1.3,5.3,3.8V605.8z"/>
			<path class="st5" d="M211.1,601.8h10.3v2.4H214v2.6h6.3v2.3H214v2.9h7.5v2.4h-10.3V601.8z"/>
			<path class="st5" d="M221.8,601.8h11.5v2.5H229v10.1h-2.8v-10.1h-4.3V601.8z"/>
			<path class="st5" d="M242.3,601.6c3.8,0,6,2.7,6,6.5s-2.2,6.5-6,6.5s-6-2.7-6-6.5S238.5,601.6,242.3,601.6z M242.3,604.2
				c-2,0-3,1.7-3,4s1,4,3,4s3-1.7,3-4S244.3,604.2,242.3,604.2z"/>
			<path class="st5" d="M249.5,612.4c0-4.6,8-3.7,8-6.7c0-1.1-0.8-1.7-2.4-1.7c-1.7,0-2.4,0.8-2.4,2v0.5h-2.8V606
				c0-3,1.9-4.4,5.3-4.4c3.4,0,5.3,1.4,5.3,4.1c0,4.7-7.7,4.5-7.7,6.3h7.7v2.4h-10.9V612.4z"/>
			<path class="st5" d="M196.4,630.3h-10.1v-12.6h2.8v10.1h7.3V630.3z"/>
			<path class="st5" d="M194.8,617.7h11.5v2.5H202v10.1h-2.8v-10.1h-4.3V617.7z"/>
			<path class="st5" d="M217.5,621.6h-3v-0.3c0-0.9-0.8-1.5-2.3-1.5c-1.3,0-2.3,0.4-2.3,1.4c0,2.5,8.2,0.4,8.2,5.4
				c0,2.5-2.2,3.9-5.7,3.9c-3.7,0-5.7-1.4-5.7-4.1V626h3v0.5c0,1.3,1.2,1.7,2.8,1.7c1.7,0,2.8-0.4,2.8-1.5c0-2.2-8.2-0.4-8.2-5.4
				c0-2.3,1.9-3.7,5.3-3.7c3.4,0,5.3,1.3,5.3,3.8V621.6z"/>
			<path class="st5" d="M223,626.1l-4.4,1.8v-2.3l4.4-1.8V626.1z"/>
			<path class="st5" d="M224.2,617.7h10.1v2.4H227v3.3h6v2.3h-6v4.6h-2.8V617.7z"/>
			<path class="st5" d="M239.3,618.9c0,1.5,1.4,0.4,1.4,2.3c0,0.9-0.6,1.4-1.5,1.4c-1,0-1.5-0.5-1.5-1.8c0-2.1,0.8-3.2,1.7-3.2
				V618.9z M243.3,618.9c0,1.5,1.4,0.4,1.4,2.3c0,0.9-0.6,1.4-1.5,1.4c-1,0-1.5-0.5-1.5-1.8c0-2.1,0.8-3.2,1.7-3.2V618.9z"/>
			<path class="st5" d="M250.5,621.1c3.6,0,5,2.4,5,3.9h-2.7c0,0-0.3-1.6-2.4-1.6c-1.6,0-2.5,1.1-2.5,2.4c0,1.4,0.9,2.4,2.5,2.4
				c2,0,2.4-1.6,2.4-1.6h2.7c0,1.4-1.5,3.9-5,3.9c-3,0-5.1-1.7-5.1-4.7S247.5,621.1,250.5,621.1z"/>
			<path class="st5" d="M263.9,625.8c0-1.6-0.9-2.3-2.3-2.3c-1.5,0-2.3,1-2.3,2.3v4.5h-2.6v-12.6h2.6v5.1h0.1c0,0,0.7-1.7,3.2-1.7
				c2.1,0,3.8,1.2,3.8,3.9v5.3h-2.6V625.8z"/>
			<path class="st5" d="M268.8,621.2c0-1.5-1.4-0.4-1.4-2.3c0-0.9,0.6-1.4,1.5-1.4c1,0,1.5,0.5,1.5,1.8c0,2.1-0.8,3.2-1.7,3.2V621.2
				z M272.8,621.2c0-1.5-1.4-0.4-1.4-2.3c0-0.9,0.6-1.4,1.5-1.4c1,0,1.5,0.5,1.5,1.8c0,2.1-0.8,3.2-1.7,3.2V621.2z"/>
		</g>
	</g>
	<g>
		<g>
			<path class="st5" d="M196.7,643.1h-3v-0.3c0-0.9-0.8-1.5-2.3-1.5c-1.3,0-2.3,0.4-2.3,1.4c0,2.5,8.2,0.4,8.2,5.4
				c0,2.5-2.2,3.9-5.7,3.9c-3.7,0-5.7-1.4-5.7-4.1v-0.5h3v0.5c0,1.3,1.2,1.7,2.8,1.7c1.7,0,2.8-0.4,2.8-1.5c0-2.2-8.2-0.4-8.2-5.4
				c0-2.3,1.9-3.7,5.3-3.7c3.4,0,5.3,1.3,5.3,3.8V643.1z"/>
			<path class="st5" d="M204.8,639c3.9,0,6.4,2.3,6.4,5.2h-3c0,0-0.3-2.7-3.3-2.7c-2.3,0-3.6,1.7-3.6,4c0,2.2,1.2,4,3.6,4
				c3.1,0,3.3-2.7,3.3-2.7h3c0,2.9-2.5,5.2-6.4,5.2c-4,0-6.5-2.5-6.5-6.5S200.8,639,204.8,639z"/>
			<path class="st5" d="M215.6,651.7h-2.8v-12.6h5.4c3.6,0,5.2,1.3,5.2,4.1c0,3-2.3,3.6-2.3,3.6l3.1,4.9H221l-2.8-4.3h-2.6V651.7z
				 M218.2,641.5h-2.6v3.5h2.6c1.5,0,2.2-0.5,2.2-1.7C220.3,642,219.6,641.5,218.2,641.5z"/>
			<path class="st5" d="M234.3,639c3.8,0,6,2.7,6,6.5s-2.2,6.5-6,6.5s-6-2.7-6-6.5S230.5,639,234.3,639z M234.3,641.5
				c-2,0-3,1.7-3,4s1,4,3,4s3-1.7,3-4S236.3,641.5,234.3,641.5z"/>
			<path class="st5" d="M241.5,649.7c0-4.6,8-3.7,8-6.7c0-1.1-0.8-1.7-2.4-1.7c-1.7,0-2.4,0.8-2.4,2v0.5h-2.8v-0.5
				c0-3,1.9-4.4,5.3-4.4c3.4,0,5.3,1.4,5.3,4.1c0,4.7-7.7,4.5-7.7,6.3h7.7v2.4h-10.9V649.7z"/>
			<path class="st5" d="M264.3,642.4c0,2.2-2.4,2.7-2.4,2.7v0.1c0,0,2.8,0.5,2.8,3.1c0,2.4-2.1,3.7-5.6,3.7s-5.6-1.2-5.6-3.7
				c0-2.6,2.8-3.1,2.8-3.1v-0.1c0,0-2.4-0.5-2.4-2.7c0-1.9,1.8-3.4,5.2-3.4C262.6,639,264.3,640.4,264.3,642.4z M261.8,648
				c0-1-0.9-1.7-2.6-1.7s-2.6,0.6-2.6,1.7c0,1,0.9,1.6,2.6,1.6S261.8,649,261.8,648z M259.2,641.3c-1.4,0-2.2,0.6-2.2,1.5
				c0,0.8,0.8,1.5,2.2,1.5s2.2-0.6,2.2-1.5C261.4,641.8,260.5,641.3,259.2,641.3z"/>
		</g>
	</g>
	<line class="st6" x1="185" y1="634.4" x2="360" y2="634.4"/>
	<g>
		<g>
			<path class="st5" d="M814.1,616.4h-5.8v-12.6h6.1c2.9,0,4.2,1.2,4.2,3.3c0,2.1-1.9,2.6-1.9,2.6v0.1c0,0,2.5,0.4,2.5,3
				C819.2,615.5,817.7,616.4,814.1,616.4z M813.9,606.1h-2.8v2.9h2.8c1.1,0,1.7-0.5,1.7-1.5C815.6,606.6,815.1,606.1,813.9,606.1z
				 M814.3,611h-3.1v3.2h3.1c1.5,0,2-0.6,2-1.6C816.3,611.6,815.6,611,814.3,611z"/>
			<path class="st5" d="M831.2,607.8h-3v-0.3c0-0.9-0.8-1.5-2.3-1.5c-1.3,0-2.3,0.4-2.3,1.4c0,2.5,8.2,0.4,8.2,5.4
				c0,2.5-2.2,3.9-5.7,3.9c-3.7,0-5.7-1.4-5.7-4.1v-0.5h3v0.5c0,1.3,1.2,1.7,2.8,1.7c1.7,0,2.8-0.4,2.8-1.5c0-2.2-8.2-0.4-8.2-5.4
				c0-2.3,1.9-3.7,5.3-3.7c3.4,0,5.3,1.3,5.3,3.8V607.8z"/>
			<path class="st5" d="M833.1,603.8h10.3v2.4H836v2.6h6.3v2.3H836v2.9h7.5v2.4h-10.3V603.8z"/>
			<path class="st5" d="M843.8,603.8h11.5v2.5H851v10.1h-2.8v-10.1h-4.3V603.8z"/>
			<path class="st5" d="M864.3,603.6c3.8,0,6,2.7,6,6.5s-2.2,6.5-6,6.5s-6-2.7-6-6.5S860.5,603.6,864.3,603.6z M864.3,606.2
				c-2,0-3,1.7-3,4s1,4,3,4s3-1.7,3-4S866.3,606.2,864.3,606.2z"/>
			<path class="st5" d="M871.5,614.4c0-4.6,8-3.7,8-6.7c0-1.1-0.8-1.7-2.4-1.7c-1.7,0-2.4,0.8-2.4,2v0.5h-2.8V608
				c0-3,1.9-4.4,5.3-4.4c3.4,0,5.3,1.4,5.3,4.1c0,4.7-7.7,4.5-7.7,6.3h7.7v2.4h-10.9V614.4z"/>
			<path class="st5" d="M818.4,632.3h-10.1v-12.6h2.8v10.1h7.3V632.3z"/>
			<path class="st5" d="M816.8,619.7h11.5v2.5H824v10.1h-2.8v-10.1h-4.3V619.7z"/>
			<path class="st5" d="M839.5,623.6h-3v-0.3c0-0.9-0.8-1.5-2.3-1.5c-1.3,0-2.3,0.4-2.3,1.4c0,2.5,8.2,0.4,8.2,5.4
				c0,2.5-2.2,3.9-5.7,3.9c-3.7,0-5.7-1.4-5.7-4.1V628h3v0.5c0,1.3,1.2,1.7,2.8,1.7c1.7,0,2.8-0.4,2.8-1.5c0-2.2-8.2-0.4-8.2-5.4
				c0-2.3,1.9-3.7,5.3-3.7c3.4,0,5.3,1.3,5.3,3.8V623.6z"/>
			<path class="st5" d="M845,628.1l-4.4,1.8v-2.3l4.4-1.8V628.1z"/>
			<path class="st5" d="M846.2,619.7h10.1v2.4H849v3.3h6v2.3h-6v4.6h-2.8V619.7z"/>
			<path class="st5" d="M861.3,620.9c0,1.5,1.4,0.4,1.4,2.3c0,0.9-0.6,1.4-1.5,1.4c-1,0-1.5-0.5-1.5-1.8c0-2.1,0.8-3.2,1.7-3.2
				V620.9z M865.3,620.9c0,1.5,1.4,0.4,1.4,2.3c0,0.9-0.6,1.4-1.5,1.4c-1,0-1.5-0.5-1.5-1.8c0-2.1,0.8-3.2,1.7-3.2V620.9z"/>
			<path class="st5" d="M872.5,623.1c3.6,0,5,2.4,5,3.9h-2.7c0,0-0.3-1.6-2.4-1.6c-1.6,0-2.5,1.1-2.5,2.4c0,1.4,0.9,2.4,2.5,2.4
				c2,0,2.4-1.6,2.4-1.6h2.7c0,1.4-1.5,3.9-5,3.9c-3,0-5.1-1.7-5.1-4.7S869.5,623.1,872.5,623.1z"/>
			<path class="st5" d="M884.2,627.7l4.2,4.6h-3.1l-4-4.4v4.4h-2.6v-12.6h2.6v7.8l3.7-4.2h3L884.2,627.7z"/>
			<path class="st5" d="M889.6,623.2c0-1.5-1.4-0.4-1.4-2.3c0-0.9,0.6-1.4,1.5-1.4c1,0,1.5,0.5,1.5,1.8c0,2.1-0.8,3.2-1.7,3.2V623.2
				z M893.5,623.2c0-1.5-1.4-0.4-1.4-2.3c0-0.9,0.6-1.4,1.5-1.4c1,0,1.5,0.5,1.5,1.8c0,2.1-0.8,3.2-1.7,3.2V623.2z"/>
		</g>
	</g>
	<g>
		<g>
			<path class="st5" d="M818.7,645.1h-3v-0.3c0-0.9-0.8-1.5-2.3-1.5c-1.3,0-2.3,0.4-2.3,1.4c0,2.5,8.2,0.4,8.2,5.4
				c0,2.5-2.2,3.9-5.7,3.9c-3.7,0-5.7-1.4-5.7-4.1v-0.5h3v0.5c0,1.3,1.2,1.7,2.8,1.7c1.7,0,2.8-0.4,2.8-1.5c0-2.2-8.2-0.4-8.2-5.4
				c0-2.3,1.9-3.7,5.3-3.7c3.4,0,5.3,1.3,5.3,3.8V645.1z"/>
			<path class="st5" d="M826.8,641c3.9,0,6.4,2.3,6.4,5.2h-3c0,0-0.3-2.7-3.3-2.7c-2.3,0-3.6,1.7-3.6,4c0,2.2,1.2,4,3.6,4
				c3.1,0,3.3-2.7,3.3-2.7h3c0,2.9-2.5,5.2-6.4,5.2c-4,0-6.5-2.5-6.5-6.5S822.8,641,826.8,641z"/>
			<path class="st5" d="M837.6,653.7h-2.8v-12.6h5.4c3.6,0,5.2,1.3,5.2,4.1c0,3-2.3,3.6-2.3,3.6l3.1,4.9H843l-2.8-4.3h-2.6V653.7z
				 M840.2,643.5h-2.6v3.5h2.6c1.5,0,2.2-0.5,2.2-1.7C842.3,644,841.6,643.5,840.2,643.5z"/>
			<path class="st5" d="M856.3,641c3.8,0,6,2.7,6,6.5s-2.2,6.5-6,6.5s-6-2.7-6-6.5S852.5,641,856.3,641z M856.3,643.5
				c-2,0-3,1.7-3,4s1,4,3,4s3-1.7,3-4S858.3,643.5,856.3,643.5z"/>
			<path class="st5" d="M863.9,641.1h9.8v2.3l-3.9,2.2l-1.5,0.4v0.3l1.7-0.4c2.6,0,4.3,1.3,4.3,3.8c0,2.7-2,4.2-5.5,4.2
				s-5.5-1.5-5.5-4.2v-0.3h2.8v0.3c0,1.4,1.1,1.8,2.6,1.8c1.5,0,2.6-0.5,2.6-1.8c0-1.4-1.1-1.8-2.6-1.8h-3.7v-1.7l3.7-2.3l1.5-0.4
				v-0.3l-1.5,0.3h-4.9V641.1z"/>
			<path class="st5" d="M882.1,651.1h-7.2v-2.4l6.3-7.6h3.8v7.6h1.7v2.3h-1.7v2.7h-2.8V651.1z M881.6,644.6l-3.4,4.1v0.1h3.9v-4.2
				l0.4-1.4h-0.3L881.6,644.6z"/>
		</g>
	</g>
	<line class="st6" x1="807" y1="636.4" x2="982" y2="636.4"/>
	<g>
		<g>
			<path class="st5" d="M1390.1,614.4h-5.8v-12.6h6.1c2.9,0,4.2,1.2,4.2,3.3c0,2.1-1.9,2.6-1.9,2.6v0.1c0,0,2.5,0.4,2.5,3
				C1395.2,613.5,1393.7,614.4,1390.1,614.4z M1389.9,604.1h-2.8v2.9h2.8c1.1,0,1.7-0.5,1.7-1.5
				C1391.6,604.6,1391.1,604.1,1389.9,604.1z M1390.3,609h-3.1v3.2h3.1c1.5,0,2-0.6,2-1.6C1392.3,609.6,1391.6,609,1390.3,609z"/>
			<path class="st5" d="M1407.2,605.8h-3v-0.3c0-0.9-0.8-1.5-2.3-1.5c-1.3,0-2.3,0.4-2.3,1.4c0,2.5,8.2,0.4,8.2,5.4
				c0,2.5-2.2,3.9-5.7,3.9c-3.7,0-5.7-1.4-5.7-4.1v-0.5h3v0.5c0,1.3,1.2,1.7,2.8,1.7c1.7,0,2.8-0.4,2.8-1.5c0-2.2-8.2-0.4-8.2-5.4
				c0-2.3,1.9-3.7,5.3-3.7s5.3,1.3,5.3,3.8V605.8z"/>
			<path class="st5" d="M1409.1,601.8h10.3v2.4h-7.5v2.6h6.3v2.3h-6.3v2.9h7.5v2.4h-10.3V601.8z"/>
			<path class="st5" d="M1419.8,601.8h11.5v2.5h-4.3v10.1h-2.8v-10.1h-4.3V601.8z"/>
			<path class="st5" d="M1440.3,601.6c3.8,0,6,2.7,6,6.5s-2.2,6.5-6,6.5c-3.8,0-6-2.7-6-6.5S1436.5,601.6,1440.3,601.6z
				 M1440.3,604.2c-2,0-3,1.7-3,4s1,4,3,4c2,0,3-1.7,3-4S1442.3,604.2,1440.3,604.2z"/>
			<path class="st5" d="M1447.5,612.4c0-4.6,8-3.7,8-6.7c0-1.1-0.8-1.7-2.4-1.7c-1.7,0-2.4,0.8-2.4,2v0.5h-2.8V606
				c0-3,1.9-4.4,5.3-4.4s5.3,1.4,5.3,4.1c0,4.7-7.7,4.5-7.7,6.3h7.7v2.4h-10.9V612.4z"/>
			<path class="st5" d="M1394.4,630.3h-10.1v-12.6h2.8v10.1h7.3V630.3z"/>
			<path class="st5" d="M1392.8,617.7h11.5v2.5h-4.3v10.1h-2.8v-10.1h-4.3V617.7z"/>
			<path class="st5" d="M1415.5,621.6h-3v-0.3c0-0.9-0.8-1.5-2.3-1.5c-1.3,0-2.3,0.4-2.3,1.4c0,2.5,8.2,0.4,8.2,5.4
				c0,2.5-2.2,3.9-5.7,3.9c-3.7,0-5.7-1.4-5.7-4.1V626h3v0.5c0,1.3,1.2,1.7,2.8,1.7c1.7,0,2.8-0.4,2.8-1.5c0-2.2-8.2-0.4-8.2-5.4
				c0-2.3,1.9-3.7,5.3-3.7c3.4,0,5.3,1.3,5.3,3.8V621.6z"/>
			<path class="st5" d="M1421,626.1l-4.4,1.8v-2.3l4.4-1.8V626.1z"/>
			<path class="st5" d="M1422.2,617.7h10.1v2.4h-7.3v3.3h6v2.3h-6v4.6h-2.8V617.7z"/>
			<path class="st5" d="M1437.3,618.9c0,1.5,1.4,0.4,1.4,2.3c0,0.9-0.6,1.4-1.5,1.4c-1,0-1.5-0.5-1.5-1.8c0-2.1,0.8-3.2,1.7-3.2
				V618.9z M1441.3,618.9c0,1.5,1.4,0.4,1.4,2.3c0,0.9-0.6,1.4-1.5,1.4c-1,0-1.5-0.5-1.5-1.8c0-2.1,0.8-3.2,1.7-3.2V618.9z"/>
			<path class="st5" d="M1446.9,623.6v6.7h-2.6v-6.7h-1.6v-1.5l1.6-0.6v-0.3c0-2.5,1.5-3.7,4.2-3.7c1.2,0,2,0.5,2,0.5v2.1
				c0,0-0.6-0.5-1.5-0.5c-1.2,0-2.1,0.5-2.1,1.7v0.1h2.6v2.1H1446.9z"/>
			<path class="st5" d="M1456.3,625.7l4.2,4.6h-3.1l-4-4.4v4.4h-2.6v-12.6h2.6v7.8l3.7-4.2h3L1456.3,625.7z"/>
			<path class="st5" d="M1461.6,621.2c0-1.5-1.4-0.4-1.4-2.3c0-0.9,0.6-1.4,1.5-1.4c1,0,1.5,0.5,1.5,1.8c0,2.1-0.8,3.2-1.7,3.2
				V621.2z M1465.6,621.2c0-1.5-1.4-0.4-1.4-2.3c0-0.9,0.6-1.4,1.5-1.4c1,0,1.5,0.5,1.5,1.8c0,2.1-0.8,3.2-1.7,3.2V621.2z"/>
		</g>
	</g>
	<g>
		<g>
			<path class="st5" d="M1394.7,643.1h-3v-0.3c0-0.9-0.8-1.5-2.3-1.5c-1.3,0-2.3,0.4-2.3,1.4c0,2.5,8.2,0.4,8.2,5.4
				c0,2.5-2.2,3.9-5.7,3.9c-3.7,0-5.7-1.4-5.7-4.1v-0.5h3v0.5c0,1.3,1.2,1.7,2.8,1.7c1.7,0,2.8-0.4,2.8-1.5c0-2.2-8.2-0.4-8.2-5.4
				c0-2.3,1.9-3.7,5.3-3.7c3.4,0,5.3,1.3,5.3,3.8V643.1z"/>
			<path class="st5" d="M1402.8,639c3.9,0,6.4,2.3,6.4,5.2h-3c0,0-0.3-2.7-3.3-2.7c-2.3,0-3.6,1.7-3.6,4c0,2.2,1.2,4,3.6,4
				c3.1,0,3.3-2.7,3.3-2.7h3c0,2.9-2.5,5.2-6.4,5.2c-4,0-6.5-2.5-6.5-6.5S1398.8,639,1402.8,639z"/>
			<path class="st5" d="M1413.6,651.7h-2.8v-12.6h5.4c3.6,0,5.2,1.3,5.2,4.1c0,3-2.3,3.6-2.3,3.6l3.1,4.9h-3.2l-2.8-4.3h-2.6V651.7z
				 M1416.2,641.5h-2.6v3.5h2.6c1.5,0,2.2-0.5,2.2-1.7C1418.3,642,1417.6,641.5,1416.2,641.5z"/>
			<path class="st5" d="M1432.3,639c3.8,0,6,2.7,6,6.5s-2.2,6.5-6,6.5c-3.8,0-6-2.7-6-6.5S1428.5,639,1432.3,639z M1432.3,641.5
				c-2,0-3,1.7-3,4s1,4,3,4c2,0,3-1.7,3-4S1434.3,641.5,1432.3,641.5z"/>
			<path class="st5" d="M1442.6,648.1c0,0.1,0.3,1.5,2.3,1.5c2,0,2.8-1.4,2.8-3.3h-0.1c0,0-0.8,1.1-3.1,1.1c-3,0-5-1.6-5-4.1
				c0-2.7,2.1-4.3,5.5-4.3c4,0,5.7,2.5,5.7,6.3v0.3c0,3.6-1.8,6.4-5.8,6.4c-3.8,0-5.3-2.2-5.3-3.9H1442.6z M1447.5,643.2
				c0-1.2-1.1-1.9-2.5-1.9c-1.5,0-2.5,0.7-2.5,1.9c0,1.2,1,1.9,2.5,1.9C1446.3,645.1,1447.5,644.5,1447.5,643.2z"/>
			<path class="st5" d="M1462.9,647.5c0,2.8-1.9,4.4-5.3,4.4c-3.4,0-5.3-1.5-5.3-4h2.8c0,0.7,0.6,1.6,2.5,1.6c1.6,0,2.5-0.7,2.5-2
				c0-1.4-1-2-2.5-2c-2.1,0-2.4,1-2.4,1h-2.9v-7.4h9.8v2.3h-6.9v2.6h0.1c0,0,0.6-0.8,2.9-0.8
				C1460.9,643.3,1462.9,644.7,1462.9,647.5z"/>
		</g>
	</g>
	<line class="st6" x1="1383" y1="634.4" x2="1558" y2="634.4"/>
	<g>
		<g>
			<path class="st5" d="M429.1,250.4h-5.8v-12.6h6.1c2.9,0,4.2,1.2,4.2,3.3c0,2.1-1.9,2.6-1.9,2.6v0.1c0,0,2.5,0.4,2.5,3
				C434.2,249.5,432.7,250.4,429.1,250.4z M428.9,240.1h-2.8v2.9h2.8c1.1,0,1.7-0.5,1.7-1.5C430.6,240.6,430.1,240.1,428.9,240.1z
				 M429.3,245h-3.1v3.2h3.1c1.5,0,2-0.6,2-1.6C431.3,245.6,430.6,245,429.3,245z"/>
			<path class="st5" d="M446.2,241.8h-3v-0.3c0-0.9-0.8-1.5-2.3-1.5c-1.3,0-2.3,0.4-2.3,1.4c0,2.5,8.2,0.4,8.2,5.4
				c0,2.5-2.2,3.9-5.7,3.9c-3.7,0-5.7-1.4-5.7-4.1v-0.5h3v0.5c0,1.3,1.2,1.7,2.8,1.7c1.7,0,2.8-0.4,2.8-1.5c0-2.2-8.2-0.4-8.2-5.4
				c0-2.3,1.9-3.7,5.3-3.7c3.4,0,5.3,1.4,5.3,3.8V241.8z"/>
			<path class="st5" d="M448.1,237.8h10.3v2.4H451v2.6h6.3v2.3H451v2.9h7.5v2.4h-10.3V237.8z"/>
			<path class="st5" d="M458.8,237.8h11.5v2.5H466v10.1h-2.8v-10.1h-4.3V237.8z"/>
			<path class="st5" d="M479.3,237.6c3.8,0,6,2.7,6,6.5c0,3.8-2.2,6.5-6,6.5s-6-2.7-6-6.5C473.3,240.3,475.5,237.6,479.3,237.6z
				 M479.3,240.2c-2,0-3,1.7-3,4s1,4,3,4s3-1.7,3-4S481.3,240.2,479.3,240.2z"/>
			<path class="st5" d="M485.6,241.1l3.5-3.2h2.6v12.6h-2.8v-8.6h-0.1l-1.5,1.4L485.6,241.1z"/>
			<path class="st5" d="M433.4,266.3h-10.1v-12.6h2.8v10.1h7.3V266.3z"/>
			<path class="st5" d="M431.8,253.7h11.5v2.5H439v10.1h-2.8v-10.1h-4.3V253.7z"/>
			<path class="st5" d="M454.5,257.6h-3v-0.3c0-0.9-0.8-1.5-2.3-1.5c-1.3,0-2.3,0.4-2.3,1.4c0,2.5,8.2,0.4,8.2,5.4
				c0,2.5-2.2,3.9-5.7,3.9c-3.7,0-5.7-1.4-5.7-4.1V262h3v0.5c0,1.3,1.2,1.7,2.8,1.7c1.7,0,2.8-0.4,2.8-1.5c0-2.2-8.2-0.4-8.2-5.4
				c0-2.3,1.9-3.7,5.3-3.7c3.4,0,5.3,1.4,5.3,3.8V257.6z"/>
			<path class="st5" d="M460,262.1l-4.4,1.8v-2.3l4.4-1.8V262.1z"/>
			<path class="st5" d="M461.2,253.7h10.1v2.4H464v3.3h6v2.3h-6v4.6h-2.8V253.7z"/>
			<path class="st5" d="M476.3,254.9c0,1.5,1.4,0.4,1.4,2.3c0,0.9-0.6,1.4-1.5,1.4c-1,0-1.5-0.5-1.5-1.8c0-2.1,0.8-3.2,1.7-3.2
				V254.9z M480.3,254.9c0,1.5,1.4,0.4,1.4,2.3c0,0.9-0.6,1.4-1.5,1.4c-1,0-1.5-0.5-1.5-1.8c0-2.1,0.8-3.2,1.7-3.2V254.9z"/>
			<path class="st5" d="M485.9,259.6v6.7h-2.6v-6.7h-1.6v-1.5l1.6-0.6v-0.3c0-2.5,1.5-3.7,4.2-3.7c1.2,0,2,0.5,2,0.5v2.1
				c0,0-0.6-0.5-1.5-0.5c-1.2,0-2.1,0.5-2.1,1.7v0.1h2.6v2.1H485.9z"/>
			<path class="st5" d="M491.1,253.5c0.9,0,1.4,0.5,1.4,1.2c0,0.7-0.6,1.2-1.4,1.2s-1.4-0.5-1.4-1.2
				C489.6,254,490.2,253.5,491.1,253.5z M492.4,266.3h-2.6v-9h2.6V266.3z"/>
			<path class="st5" d="M497.1,259.6v6.7h-2.6v-6.7H493v-1.5l1.6-0.6v-0.3c0-2.5,1.5-3.7,4.2-3.7c1.2,0,2,0.5,2,0.5v2.1
				c0,0-0.6-0.5-1.5-0.5c-1.2,0-2.1,0.5-2.1,1.7v0.1h2.6v2.1H497.1z"/>
			<path class="st5" d="M502.3,253.5c0.9,0,1.4,0.5,1.4,1.2c0,0.7-0.6,1.2-1.4,1.2s-1.4-0.5-1.4-1.2
				C500.9,254,501.4,253.5,502.3,253.5z M503.6,266.3H501v-9h2.6V266.3z"/>
			<path class="st5" d="M506,257.2c0-1.5-1.4-0.4-1.4-2.3c0-0.9,0.6-1.4,1.5-1.4c1,0,1.5,0.5,1.5,1.8c0,2.1-0.8,3.2-1.7,3.2V257.2z
				 M510,257.2c0-1.5-1.4-0.4-1.4-2.3c0-0.9,0.6-1.4,1.5-1.4c1,0,1.5,0.5,1.5,1.8c0,2.1-0.8,3.2-1.7,3.2V257.2z"/>
		</g>
	</g>
	<g>
		<g>
			<path class="st5" d="M433.7,279.1h-3v-0.3c0-0.9-0.8-1.5-2.3-1.5c-1.3,0-2.3,0.4-2.3,1.4c0,2.5,8.2,0.4,8.2,5.4
				c0,2.5-2.2,3.9-5.7,3.9c-3.7,0-5.7-1.4-5.7-4.1v-0.5h3v0.5c0,1.3,1.2,1.7,2.8,1.7c1.7,0,2.8-0.4,2.8-1.5c0-2.2-8.2-0.4-8.2-5.4
				c0-2.3,1.9-3.7,5.3-3.7c3.4,0,5.3,1.4,5.3,3.8V279.1z"/>
			<path class="st5" d="M441.8,275c3.9,0,6.4,2.3,6.4,5.2h-3c0,0-0.3-2.7-3.3-2.7c-2.3,0-3.6,1.7-3.6,4c0,2.2,1.2,4,3.6,4
				c3.1,0,3.3-2.7,3.3-2.7h3c0,2.9-2.5,5.2-6.4,5.2c-4,0-6.5-2.5-6.5-6.5C435.3,277.5,437.8,275,441.8,275z"/>
			<path class="st5" d="M452.6,287.7h-2.8v-12.6h5.4c3.6,0,5.2,1.3,5.2,4.1c0,3-2.3,3.6-2.3,3.6l3.1,4.9H458l-2.8-4.3h-2.6V287.7z
				 M455.2,277.5h-2.6v3.5h2.6c1.5,0,2.2-0.5,2.2-1.7C457.3,278,456.6,277.5,455.2,277.5z"/>
			<path class="st5" d="M471.3,275c3.8,0,6,2.7,6,6.5c0,3.8-2.2,6.5-6,6.5s-6-2.7-6-6.5C465.3,277.6,467.5,275,471.3,275z
				 M471.3,277.5c-2,0-3,1.7-3,4s1,4,3,4s3-1.7,3-4S473.3,277.5,471.3,277.5z"/>
			<path class="st5" d="M489.5,283.5c0,2.8-1.9,4.4-5.3,4.4c-3.4,0-5.3-1.5-5.3-4h2.8c0,0.7,0.6,1.6,2.5,1.6c1.6,0,2.5-0.7,2.5-2
				c0-1.4-1-2-2.5-2c-2.1,0-2.4,1-2.4,1h-2.9v-7.4h9.8v2.3h-6.9v2.6h0.1c0,0,0.6-0.8,2.9-0.8C487.5,279.3,489.5,280.7,489.5,283.5z"
				/>
			<path class="st5" d="M493.6,284.1c0,0.1,0.3,1.5,2.3,1.5c2,0,2.8-1.4,2.8-3.3h-0.1c0,0-0.8,1.1-3.1,1.1c-3,0-5-1.6-5-4.1
				c0-2.7,2.1-4.3,5.5-4.3c4,0,5.7,2.5,5.7,6.3v0.3c0,3.6-1.8,6.4-5.8,6.4c-3.8,0-5.3-2.2-5.3-3.9H493.6z M498.5,279.2
				c0-1.2-1.1-1.9-2.5-1.9c-1.5,0-2.5,0.7-2.5,1.9c0,1.2,1,1.9,2.5,1.9C497.3,281.1,498.5,280.5,498.5,279.2z"/>
		</g>
	</g>
	<line class="st6" x1="422" y1="270.4" x2="597" y2="270.4"/>
	<g>
		<g>
			<path class="st5" d="M1010.1,250.4h-5.8v-12.6h6.1c2.9,0,4.2,1.2,4.2,3.3c0,2.1-1.9,2.6-1.9,2.6v0.1c0,0,2.5,0.4,2.5,3
				C1015.2,249.5,1013.7,250.4,1010.1,250.4z M1009.9,240.1h-2.8v2.9h2.8c1.1,0,1.7-0.5,1.7-1.5
				C1011.6,240.6,1011.1,240.1,1009.9,240.1z M1010.3,245h-3.1v3.2h3.1c1.5,0,2-0.6,2-1.6C1012.3,245.6,1011.6,245,1010.3,245z"/>
			<path class="st5" d="M1027.2,241.8h-3v-0.3c0-0.9-0.8-1.5-2.3-1.5c-1.3,0-2.3,0.4-2.3,1.4c0,2.5,8.2,0.4,8.2,5.4
				c0,2.5-2.2,3.9-5.7,3.9c-3.7,0-5.7-1.4-5.7-4.1v-0.5h3v0.5c0,1.3,1.2,1.7,2.8,1.7c1.7,0,2.8-0.4,2.8-1.5c0-2.2-8.2-0.4-8.2-5.4
				c0-2.3,1.9-3.7,5.3-3.7s5.3,1.4,5.3,3.8V241.8z"/>
			<path class="st5" d="M1029.1,237.8h10.3v2.4h-7.5v2.6h6.3v2.3h-6.3v2.9h7.5v2.4h-10.3V237.8z"/>
			<path class="st5" d="M1039.8,237.8h11.5v2.5h-4.3v10.1h-2.8v-10.1h-4.3V237.8z"/>
			<path class="st5" d="M1060.3,237.6c3.8,0,6,2.7,6,6.5c0,3.8-2.2,6.5-6,6.5c-3.8,0-6-2.7-6-6.5
				C1054.3,240.3,1056.5,237.6,1060.3,237.6z M1060.3,240.2c-2,0-3,1.7-3,4s1,4,3,4c2,0,3-1.7,3-4S1062.3,240.2,1060.3,240.2z"/>
			<path class="st5" d="M1066.6,241.1l3.5-3.2h2.6v12.6h-2.8v-8.6h-0.1l-1.5,1.4L1066.6,241.1z"/>
			<path class="st5" d="M1014.4,266.3h-10.1v-12.6h2.8v10.1h7.3V266.3z"/>
			<path class="st5" d="M1012.8,253.7h11.5v2.5h-4.3v10.1h-2.8v-10.1h-4.3V253.7z"/>
			<path class="st5" d="M1035.5,257.6h-3v-0.3c0-0.9-0.8-1.5-2.3-1.5c-1.3,0-2.3,0.4-2.3,1.4c0,2.5,8.2,0.4,8.2,5.4
				c0,2.5-2.2,3.9-5.7,3.9c-3.7,0-5.7-1.4-5.7-4.1V262h3v0.5c0,1.3,1.2,1.7,2.8,1.7c1.7,0,2.8-0.4,2.8-1.5c0-2.2-8.2-0.4-8.2-5.4
				c0-2.3,1.9-3.7,5.3-3.7c3.4,0,5.3,1.4,5.3,3.8V257.6z"/>
			<path class="st5" d="M1041,262.1l-4.4,1.8v-2.3l4.4-1.8V262.1z"/>
			<path class="st5" d="M1042.2,253.7h10.1v2.4h-7.3v3.3h6v2.3h-6v4.6h-2.8V253.7z"/>
			<path class="st5" d="M1057.3,254.9c0,1.5,1.4,0.4,1.4,2.3c0,0.9-0.6,1.4-1.5,1.4c-1,0-1.5-0.5-1.5-1.8c0-2.1,0.8-3.2,1.7-3.2
				V254.9z M1061.3,254.9c0,1.5,1.4,0.4,1.4,2.3c0,0.9-0.6,1.4-1.5,1.4c-1,0-1.5-0.5-1.5-1.8c0-2.1,0.8-3.2,1.7-3.2V254.9z"/>
			<path class="st5" d="M1068.5,257.1c3.6,0,5,2.4,5,3.9h-2.7c0,0-0.3-1.6-2.4-1.6c-1.6,0-2.5,1.1-2.5,2.4c0,1.4,0.9,2.4,2.5,2.4
				c2,0,2.4-1.6,2.4-1.6h2.7c0,1.4-1.5,3.9-5,3.9c-3,0-5.1-1.7-5.1-4.7C1063.4,258.8,1065.5,257.1,1068.5,257.1z"/>
			<path class="st5" d="M1075.2,259.4h-1.3v-1.5l2.5-2.4h1.4v1.8h2.8v2.1h-2.8v3.2c0,1.4,0.8,1.8,1.8,1.8c0.8,0,1.3-0.3,1.3-0.3v2.2
				c0,0-0.7,0.3-1.7,0.3c-2.6,0-4-1.1-4-3.6V259.4z"/>
			<path class="st5" d="M1082.8,257.2c0-1.5-1.4-0.4-1.4-2.3c0-0.9,0.6-1.4,1.5-1.4c1,0,1.5,0.5,1.5,1.8c0,2.1-0.8,3.2-1.7,3.2
				V257.2z M1086.7,257.2c0-1.5-1.4-0.4-1.4-2.3c0-0.9,0.6-1.4,1.5-1.4c1,0,1.5,0.5,1.5,1.8c0,2.1-0.8,3.2-1.7,3.2V257.2z"/>
		</g>
	</g>
	<g>
		<g>
			<path class="st5" d="M1014.7,279.1h-3v-0.3c0-0.9-0.8-1.5-2.3-1.5c-1.3,0-2.3,0.4-2.3,1.4c0,2.5,8.2,0.4,8.2,5.4
				c0,2.5-2.2,3.9-5.7,3.9c-3.7,0-5.7-1.4-5.7-4.1v-0.5h3v0.5c0,1.3,1.2,1.7,2.8,1.7c1.7,0,2.8-0.4,2.8-1.5c0-2.2-8.2-0.4-8.2-5.4
				c0-2.3,1.9-3.7,5.3-3.7c3.4,0,5.3,1.4,5.3,3.8V279.1z"/>
			<path class="st5" d="M1022.8,275c3.9,0,6.4,2.3,6.4,5.2h-3c0,0-0.3-2.7-3.3-2.7c-2.3,0-3.6,1.7-3.6,4c0,2.2,1.2,4,3.6,4
				c3.1,0,3.3-2.7,3.3-2.7h3c0,2.9-2.5,5.2-6.4,5.2c-4,0-6.5-2.5-6.5-6.5C1016.3,277.5,1018.8,275,1022.8,275z"/>
			<path class="st5" d="M1033.6,287.7h-2.8v-12.6h5.4c3.6,0,5.2,1.3,5.2,4.1c0,3-2.3,3.6-2.3,3.6l3.1,4.9h-3.2l-2.8-4.3h-2.6V287.7z
				 M1036.2,277.5h-2.6v3.5h2.6c1.5,0,2.2-0.5,2.2-1.7C1038.3,278,1037.6,277.5,1036.2,277.5z"/>
			<path class="st5" d="M1052.3,275c3.8,0,6,2.7,6,6.5c0,3.8-2.2,6.5-6,6.5c-3.8,0-6-2.7-6-6.5C1046.3,277.6,1048.5,275,1052.3,275z
				 M1052.3,277.5c-2,0-3,1.7-3,4s1,4,3,4c2,0,3-1.7,3-4S1054.3,277.5,1052.3,277.5z"/>
			<path class="st5" d="M1067.3,278.8c0-0.1-0.3-1.5-2.1-1.5c-1.8,0-2.6,1.4-2.6,3.3h0.1c0,0,0.8-1.1,3.1-1.1c3,0,5,1.6,5,4.1
				c0,2.7-2.1,4.3-5.5,4.3c-4,0-5.7-2.5-5.7-6.3v-0.3c0-3.6,1.8-6.4,5.6-6.4c3.7,0,5.1,2.2,5.1,3.9H1067.3z M1062.8,283.6
				c0,1.2,1.1,1.9,2.5,1.9c1.5,0,2.5-0.7,2.5-1.9c0-1.2-1-1.9-2.5-1.9C1063.9,281.7,1062.8,282.4,1062.8,283.6z"/>
			<path class="st5" d="M1071,278.4l3.5-3.2h2.6v12.6h-2.8v-8.6h-0.1l-1.5,1.4L1071,278.4z"/>
		</g>
	</g>
	<line class="st6" x1="1003" y1="270.4" x2="1178" y2="270.4"/>
	<g>
		<g>
			<path class="st5" d="M1497.1,251.4h-5.8v-12.6h6.1c2.9,0,4.2,1.2,4.2,3.3c0,2.1-1.9,2.6-1.9,2.6v0.1c0,0,2.5,0.4,2.5,3
				C1502.2,250.5,1500.7,251.4,1497.1,251.4z M1496.9,241.1h-2.8v2.9h2.8c1.1,0,1.7-0.5,1.7-1.5
				C1498.6,241.6,1498.1,241.1,1496.9,241.1z M1497.3,246h-3.1v3.2h3.1c1.5,0,2-0.6,2-1.6C1499.3,246.6,1498.6,246,1497.3,246z"/>
			<path class="st5" d="M1514.2,242.8h-3v-0.3c0-0.9-0.8-1.5-2.3-1.5c-1.3,0-2.3,0.4-2.3,1.4c0,2.5,8.2,0.4,8.2,5.4
				c0,2.5-2.2,3.9-5.7,3.9c-3.7,0-5.7-1.4-5.7-4.1v-0.5h3v0.5c0,1.3,1.2,1.7,2.8,1.7c1.7,0,2.8-0.4,2.8-1.5c0-2.2-8.2-0.4-8.2-5.4
				c0-2.3,1.9-3.7,5.3-3.7s5.3,1.4,5.3,3.8V242.8z"/>
			<path class="st5" d="M1516.1,238.8h10.3v2.4h-7.5v2.6h6.3v2.3h-6.3v2.9h7.5v2.4h-10.3V238.8z"/>
			<path class="st5" d="M1526.8,238.8h11.5v2.5h-4.3v10.1h-2.8v-10.1h-4.3V238.8z"/>
			<path class="st5" d="M1547.3,238.6c3.8,0,6,2.7,6,6.5c0,3.8-2.2,6.5-6,6.5c-3.8,0-6-2.7-6-6.5
				C1541.3,241.3,1543.5,238.6,1547.3,238.6z M1547.3,241.2c-2,0-3,1.7-3,4s1,4,3,4c2,0,3-1.7,3-4S1549.3,241.2,1547.3,241.2z"/>
			<path class="st5" d="M1553.6,242.1l3.5-3.2h2.6v12.6h-2.8v-8.6h-0.1l-1.5,1.4L1553.6,242.1z"/>
			<path class="st5" d="M1501.4,267.3h-10.1v-12.6h2.8v10.1h7.3V267.3z"/>
			<path class="st5" d="M1499.8,254.7h11.5v2.5h-4.3v10.1h-2.8v-10.1h-4.3V254.7z"/>
			<path class="st5" d="M1522.5,258.6h-3v-0.3c0-0.9-0.8-1.5-2.3-1.5c-1.3,0-2.3,0.4-2.3,1.4c0,2.5,8.2,0.4,8.2,5.4
				c0,2.5-2.2,3.9-5.7,3.9c-3.7,0-5.7-1.4-5.7-4.1V263h3v0.5c0,1.3,1.2,1.7,2.8,1.7c1.7,0,2.8-0.4,2.8-1.5c0-2.2-8.2-0.4-8.2-5.4
				c0-2.3,1.9-3.7,5.3-3.7c3.4,0,5.3,1.4,5.3,3.8V258.6z"/>
			<path class="st5" d="M1528,263.1l-4.4,1.8v-2.3l4.4-1.8V263.1z"/>
			<path class="st5" d="M1529.2,254.7h10.1v2.4h-7.3v3.3h6v2.3h-6v4.6h-2.8V254.7z"/>
			<path class="st5" d="M1544.3,255.9c0,1.5,1.4,0.4,1.4,2.3c0,0.9-0.6,1.4-1.5,1.4c-1,0-1.5-0.5-1.5-1.8c0-2.1,0.8-3.2,1.7-3.2
				V255.9z M1548.3,255.9c0,1.5,1.4,0.4,1.4,2.3c0,0.9-0.6,1.4-1.5,1.4c-1,0-1.5-0.5-1.5-1.8c0-2.1,0.8-3.2,1.7-3.2V255.9z"/>
			<path class="st5" d="M1556.5,261.1c0-0.4-0.1-1-1.8-1c-1.2,0-1.7,0.4-1.7,0.8c0,1.5,6.6-0.2,6.6,3.7c0,2.1-1.9,2.9-4.7,2.9
				c-2.8,0-4.7-0.8-4.7-3.1v-0.3h2.7v0.3c0,0.8,0.6,1.1,2,1.1c1.5,0,2.1-0.3,2.1-0.9c0-1.7-6.6,0.1-6.6-3.8c0-1.8,1.7-2.7,4.4-2.7
				c2.7,0,4.4,0.9,4.4,3H1556.5z"/>
			<path class="st5" d="M1560.8,260.4h-1.3v-1.5l2.5-2.4h1.4v1.8h2.8v2.1h-2.8v3.2c0,1.4,0.8,1.8,1.8,1.8c0.8,0,1.3-0.3,1.3-0.3v2.2
				c0,0-0.7,0.3-1.7,0.3c-2.6,0-4-1.1-4-3.6V260.4z"/>
			<path class="st5" d="M1568.4,258.2c0-1.5-1.4-0.4-1.4-2.3c0-0.9,0.6-1.4,1.5-1.4c1,0,1.5,0.5,1.5,1.8c0,2.1-0.8,3.2-1.7,3.2
				V258.2z M1572.4,258.2c0-1.5-1.4-0.4-1.4-2.3c0-0.9,0.6-1.4,1.5-1.4c1,0,1.5,0.5,1.5,1.8c0,2.1-0.8,3.2-1.7,3.2V258.2z"/>
		</g>
	</g>
	<g>
		<g>
			<path class="st5" d="M1501.7,280.1h-3v-0.3c0-0.9-0.8-1.5-2.3-1.5c-1.3,0-2.3,0.4-2.3,1.4c0,2.5,8.2,0.4,8.2,5.4
				c0,2.5-2.2,3.9-5.7,3.9c-3.7,0-5.7-1.4-5.7-4.1v-0.5h3v0.5c0,1.3,1.2,1.7,2.8,1.7c1.7,0,2.8-0.4,2.8-1.5c0-2.2-8.2-0.4-8.2-5.4
				c0-2.3,1.9-3.7,5.3-3.7c3.4,0,5.3,1.4,5.3,3.8V280.1z"/>
			<path class="st5" d="M1509.8,276c3.9,0,6.4,2.3,6.4,5.2h-3c0,0-0.3-2.7-3.3-2.7c-2.3,0-3.6,1.7-3.6,4c0,2.2,1.2,4,3.6,4
				c3.1,0,3.3-2.7,3.3-2.7h3c0,2.9-2.5,5.2-6.4,5.2c-4,0-6.5-2.5-6.5-6.5C1503.3,278.5,1505.8,276,1509.8,276z"/>
			<path class="st5" d="M1520.6,288.7h-2.8v-12.6h5.4c3.6,0,5.2,1.3,5.2,4.1c0,3-2.3,3.6-2.3,3.6l3.1,4.9h-3.2l-2.8-4.3h-2.6V288.7z
				 M1523.2,278.5h-2.6v3.5h2.6c1.5,0,2.2-0.5,2.2-1.7C1525.3,279,1524.6,278.5,1523.2,278.5z"/>
			<path class="st5" d="M1539.3,276c3.8,0,6,2.7,6,6.5c0,3.8-2.2,6.5-6,6.5c-3.8,0-6-2.7-6-6.5C1533.3,278.6,1535.5,276,1539.3,276z
				 M1539.3,278.5c-2,0-3,1.7-3,4s1,4,3,4c2,0,3-1.7,3-4S1541.3,278.5,1539.3,278.5z"/>
			<path class="st5" d="M1554.3,279.8c0-0.1-0.3-1.5-2.1-1.5c-1.8,0-2.6,1.4-2.6,3.3h0.1c0,0,0.8-1.1,3.1-1.1c3,0,5,1.6,5,4.1
				c0,2.7-2.1,4.3-5.5,4.3c-4,0-5.7-2.5-5.7-6.3v-0.3c0-3.6,1.8-6.4,5.6-6.4c3.7,0,5.1,2.2,5.1,3.9H1554.3z M1549.8,284.6
				c0,1.2,1.1,1.9,2.5,1.9c1.5,0,2.5-0.7,2.5-1.9c0-1.2-1-1.9-2.5-1.9C1550.9,282.7,1549.8,283.4,1549.8,284.6z"/>
			<path class="st5" d="M1565.5,286.1h-7.2v-2.4l6.3-7.6h3.8v7.6h1.7v2.3h-1.7v2.7h-2.8V286.1z M1565,279.6l-3.4,4.1v0.1h3.9v-4.2
				l0.4-1.4h-0.3L1565,279.6z"/>
		</g>
	</g>
	<line class="st6" x1="1490" y1="271.4" x2="1665" y2="271.4"/>
</g>
</svg>
