<?xml version="1.0" encoding="utf-8"?>
<!-- Generator: Adobe Illustrator 22.0.0, SVG Export Plug-In . SVG Version: 6.00 Build 0)  -->
<svg version="1.1" id="Layer_1" xmlns="http://www.w3.org/2000/svg" xmlns:xlink="http://www.w3.org/1999/xlink" x="0px" y="0px"
	 viewBox="0 0 2000 1100" style="enable-background:new 0 0 2000 1100;" xml:space="preserve">
<style type="text/css">
	.st0{fill:#F7F7F7;}
	.st1{fill:#00D76F;}
	.st2{fill:#FECE00;}
	.st3{fill:#00302D;}
	.st4{fill:none;stroke:#00302D;stroke-miterlimit:10;}
</style>
<rect class="st0" width="2000" height="1100"/>
<g>
	<polygon class="st1" points="-2308.8,310.6 447.1,310.6 447.1,506.7 829.6,506.7 829.6,693.1 1215.4,693.1 1215.4,899 1597.9,899 
		1597.9,1085.3 2000,1085.3 2000,0 -2308.8,0 	"/>
	<g>
		<g>
			<polygon class="st2" points="447.1,418.4 -2204.2,418.4 -2308.8,310.6 447.1,310.6 			"/>
			<polygon class="st2" points="829.6,506.7 447.1,506.7 551.8,611.3 829.6,611.3 			"/>
			<polygon class="st2" points="1215.4,693.1 829.6,693.1 934.3,797.6 1215.4,797.6 			"/>
			<polygon class="st2" points="1597.9,899 1215.4,899 1320,1003.6 1597.9,1003.6 			"/>
			<polygon class="st2" points="2000,1085.3 1597.9,1085.3 1702.5,1190 2000,1190 			"/>
		</g>
	</g>
</g>
<g>
	<g>
		<path class="st3" d="M612.9,372c0-2.9,2.8-4.1,6.3-4.1s6.3,1.3,6.3,4.7H623c0-1.6-1.1-2.5-3.9-2.5s-3.9,0.8-3.9,1.9
			c0,3.4,10.6-0.3,10.6,5.8c0,3.2-3.2,4.3-6.7,4.3s-6.7-1.3-6.7-4.7V377h2.5v0.4c0,1.6,1.4,2.5,4.2,2.5s4.2-0.7,4.2-2.1
			C623.5,374.2,612.9,378,612.9,372z"/>
		<path class="st3" d="M643.9,376.1h-12.4c0,1.2,1.6,3.7,5.1,3.7c3.1,0,4.2-1.8,4.2-1.8h2.8c0,0-1.3,4-7,4c-4.4,0-7.7-2.8-7.7-7.1
			c0-4.4,3.2-7.1,7.5-7.1c4.3,0,7.5,2.8,7.5,7.1C644,375.6,643.9,376.1,643.9,376.1z M631.5,373.9h9.9c0-1.3-1.6-3.9-5-3.9
			C633.1,370.1,631.5,372.6,631.5,373.9z"/>
		<path class="st3" d="M651.2,376.5c0,2.7,1.3,3.5,3.1,3.5c1.6,0,2.4-0.6,2.4-0.6v2.2c0,0-1.1,0.6-2.7,0.6c-3.1,0-5.2-1.6-5.2-5.3
			v-6.5h-2.3v-2.2h2.3v-3.1h2.4v3.1h5.1v2.2h-5.1V376.5z"/>
		<path class="st3" d="M659.7,372c0-5.7,3.3-10.1,8.9-10.1s8.9,4.3,8.9,10.1c0,5.7-3.3,10.1-8.9,10.1S659.7,377.8,659.7,372z
			 M662.4,372c0,4.3,2.1,7.7,6.2,7.7c4.1,0,6.2-3.4,6.2-7.7c0-4.3-2.1-7.7-6.2-7.7C664.5,364.3,662.4,367.8,662.4,372z"/>
		<path class="st3" d="M680.6,379.5h3.1v-14.9h-2.8v-2.3h5.4v17.2h3.1v2.3h-8.8V379.5L680.6,379.5z"/>
	</g>
	<g>
		<path class="st3" d="M1148.9,372c0-2.9,2.8-4.1,6.3-4.1s6.3,1.3,6.3,4.7h-2.5c0-1.6-1.1-2.5-3.9-2.5s-3.9,0.8-3.9,1.9
			c0,3.4,10.6-0.3,10.6,5.8c0,3.2-3.2,4.3-6.7,4.3s-6.7-1.3-6.7-4.7V377h2.5v0.4c0,1.6,1.4,2.5,4.2,2.5c2.8,0,4.2-0.7,4.2-2.1
			C1159.5,374.2,1148.9,378,1148.9,372z"/>
		<path class="st3" d="M1179.9,376.1h-12.4c0,1.2,1.6,3.7,5.1,3.7c3.1,0,4.2-1.8,4.2-1.8h2.8c0,0-1.3,4-7,4c-4.4,0-7.7-2.8-7.7-7.1
			c0-4.4,3.2-7.1,7.5-7.1c4.3,0,7.5,2.8,7.5,7.1C1180,375.6,1179.9,376.1,1179.9,376.1z M1167.5,373.9h9.9c0-1.3-1.6-3.9-5-3.9
			C1169.1,370.1,1167.5,372.6,1167.5,373.9z"/>
		<path class="st3" d="M1187.2,376.5c0,2.7,1.3,3.5,3.1,3.5c1.6,0,2.4-0.6,2.4-0.6v2.2c0,0-1.1,0.6-2.7,0.6c-3.1,0-5.2-1.6-5.2-5.3
			v-6.5h-2.3v-2.2h2.3v-3.1h2.4v3.1h5.1v2.2h-5.1V376.5z"/>
		<path class="st3" d="M1195.7,372c0-5.7,3.3-10.1,8.9-10.1c5.6,0,8.9,4.3,8.9,10.1c0,5.7-3.3,10.1-8.9,10.1
			C1199,382.1,1195.7,377.8,1195.7,372z M1198.4,372c0,4.3,2.1,7.7,6.2,7.7c4.1,0,6.2-3.4,6.2-7.7c0-4.3-2.1-7.7-6.2-7.7
			C1200.5,364.3,1198.4,367.8,1198.4,372z"/>
		<path class="st3" d="M1217,379.8c0-6.7,13.1-6.4,13.1-11.8c0-2.4-1.8-3.5-4.9-3.5s-4.9,1.2-4.9,3.9v0.6h-2.6v-0.6
			c0-4,3-6.3,7.6-6.3s7.6,2.3,7.6,5.9c0,7.2-12.9,7.2-12.9,11.6h13v2.3h-15.8v-2.1H1217z"/>
	</g>
	<line class="st4" x1="587.2" y1="337" x2="587.2" y2="763"/>
	<line class="st4" x1="1118.7" y1="337" x2="1118.7" y2="763"/>
	<path class="st3" d="M868.5,424.6v122.6c0,0-19.9-11.6-59.7-11.6c-59,0-84.7,34-84.7,78.3v134.8H612.4V427.8h111.7v55.8h5.8
		c0,0,25.7-62.3,111-62.3C855,421.4,868.5,424.6,868.5,424.6z"/>
	<path class="st3" d="M1412.8,538.8l-152.7,87.3v122.6h-111.7V427.8h111.7V508h5.1l147.6-86.6V538.8z"/>
</g>
<g>
	<path class="st3" d="M611.4,348.7c0-5.9,3.4-10.4,9.3-10.4c5.9,0,9.3,4.5,9.3,10.4s-3.4,10.4-9.3,10.4
		C614.8,359.2,611.4,354.7,611.4,348.7z M614.3,348.7c0,4.4,2.2,7.9,6.4,7.9c4.2,0,6.4-3.5,6.4-7.9s-2.2-7.9-6.4-7.9
		C616.5,340.8,614.3,344.3,614.3,348.7z"/>
	<path class="st3" d="M642.5,340.7c-3.6,0-5.6,3.1-5.6,7.3h0.1c0,0,1.4-2.3,5.9-2.3c4.6,0,7.9,2.8,7.9,6.8c0,4.1-3.2,6.8-8.1,6.8
		c-5.7,0-8.6-3.8-8.6-9.8v-0.9c0-5.5,2.8-10.2,8.5-10.2c5.6,0,7.4,4.4,7.4,5.8h-2.8C647.1,344.1,646.5,340.7,642.5,340.7z
		 M647.9,352.4c0-2.7-2.3-4.3-5.3-4.3c-3,0-5.3,1.6-5.3,4.3c0,2.7,2.1,4.4,5.3,4.4S647.9,355.1,647.9,352.4z"/>
	<path class="st3" d="M665.6,354.1h-12.1v-2.4l11.2-13h3.7v13h2.8v2.4h-2.8v4.8h-2.7V354.1z M665.6,351.6v-10.5h-0.1l-8.9,10.4v0.1
		H665.6z"/>
</g>
<g>
	<path class="st3" d="M1148.4,348.7c0-5.9,3.4-10.4,9.3-10.4s9.3,4.5,9.3,10.4s-3.4,10.4-9.3,10.4S1148.4,354.7,1148.4,348.7z
		 M1151.3,348.7c0,4.4,2.2,7.9,6.4,7.9s6.4-3.5,6.4-7.9c0-4.4-2.2-7.9-6.4-7.9S1151.3,344.3,1151.3,348.7z"/>
	<path class="st3" d="M1179.5,340.7c-3.6,0-5.6,3.1-5.6,7.3h0.1c0,0,1.4-2.3,5.9-2.3c4.6,0,7.9,2.8,7.9,6.8c0,4.1-3.2,6.8-8.1,6.8
		c-5.7,0-8.6-3.8-8.6-9.8v-0.9c0-5.5,2.8-10.2,8.5-10.2c5.6,0,7.4,4.4,7.4,5.8h-2.8C1184.1,344.1,1183.5,340.7,1179.5,340.7z
		 M1184.9,352.4c0-2.7-2.3-4.3-5.3-4.3s-5.3,1.6-5.3,4.3c0,2.7,2.1,4.4,5.3,4.4S1184.9,355.1,1184.9,352.4z"/>
	<path class="st3" d="M1202.6,354.1h-12.1v-2.4l11.2-13h3.7v13h2.8v2.4h-2.8v4.8h-2.7V354.1z M1202.6,351.6v-10.5h-0.1l-8.9,10.4
		v0.1H1202.6z"/>
</g>
</svg>
