<?xml version="1.0" encoding="utf-8"?>
<!-- Generator: Adobe Illustrator 22.0.0, SVG Export Plug-In . SVG Version: 6.00 Build 0)  -->
<svg version="1.1" id="Layer_1" xmlns="http://www.w3.org/2000/svg" xmlns:xlink="http://www.w3.org/1999/xlink" x="0px" y="0px"
	 viewBox="0 0 2000 1100" style="enable-background:new 0 0 2000 1100;" xml:space="preserve">
<style type="text/css">
	.st0{fill:#FAEC65;}
	.st1{fill:#00D76F;}
	.st2{fill:#00302D;}
</style>
<rect class="st0" width="2000" height="1100"/>
<path class="st1" d="M1267,348c86.5,41,116.8,98.6,317.9,98.6c184.5,0,302.6-135.5,302.6-302.6V87H1354
	c-208.1,0-376.7,168.7-376.7,376.7v51C913.4,397.3,779,317.6,636,317.6H102.4v57c0,167.1,118.1,302.6,302.6,302.6
	c201.1,0,231.5-57.7,317.9-98.6c194.8-92.3,243.8,33.9,251.2,98.6c1.8,16,2,127,1.7,244.7c-64.1-116-197.7-194.6-339.8-194.6H102.4
	v57c0,167.1,118.1,302.6,302.6,302.6c201.1,0,231.5-57.7,317.9-98.6c194.8-92.3,243.8,33.9,251.2,98.6c0.3,3,0.6,6.5,0.9,10.5
	c0,0.9,0,1.8,0,2.7h50.7v-99.6c0,0-0.1-2.8-0.3-7.6h0.3c0,0-0.4-53-0.9-126.1c0.2-3.9,0.5-7.5,0.9-10.5
	c7.5-64.7,46.4-190.9,241.2-98.6c86.5,41,116.8,98.6,317.9,98.6c184.5,0,302.6-135.5,302.6-302.6v-57H1354
	c-142,0-265.7,78.6-329.9,194.7c-0.3-117.8-0.2-228.7,1.7-244.7C1033.2,381.9,1072.2,255.7,1267,348z"/>
<g>
	<path class="st2" d="M764.8,74.2h-22.3v-42h21.8c9.7,0,13.7,4.1,13.7,10.8c0,7.2-6.5,8.8-6.5,8.8v0.5c0,0,8.5,1.4,8.5,10.1
		C780,70.6,775.5,74.2,764.8,74.2z M753.9,40.9v8h7.6c3.4,0,4.5-1.8,4.5-4s-1.1-4-4.5-4H753.9z M753.9,56.6v8.9h8.9
		c3.7,0,5.2-1.9,5.2-4.4s-1.5-4.4-5.2-4.4L753.9,56.6L753.9,56.6z"/>
	<path class="st2" d="M796.4,43.6c7.7,0,10.3,5.8,10.3,5.8h0.5v-5.2h10.4V63c0,2.2,0.5,2.8,1.7,2.8c0.7,0,1.1-0.2,1.1-0.2v8.6
		c0,0-1.2,0.6-4.3,0.6c-7.1,0-8.5-5.8-8.5-5.8h-0.5c-0.1,0.4-2.4,5.8-10.7,5.8c-7.6,0-14-5.3-14-15.6S788.8,43.6,796.4,43.6z
		 M800.1,65.7c4.3,0,7-2.5,7-6.5c0-3.8-2.5-6.5-7-6.5c-4.4,0-7,2.7-7,6.5S795.6,65.7,800.1,65.7z"/>
	<path class="st2" d="M835.8,43.6c7.7,0,10.3,5.8,10.3,5.8h0.5v-5.2H857v25.5c0,11.9-6.9,17.1-20.6,17.1c-4.5,0-6.9-1.1-6.9-1.1
		v-8.5c0,0,1.9,1,6.4,1c6.6,0,10.7-2,10.7-8.9h-0.4c0,0-2.3,4.8-10,4.8c-7.9,0-14.3-4.7-14.3-15C821.8,48.9,828.2,43.6,835.8,43.6z
		 M839.5,65.1c4.3,0,7-2.2,7-6.2c0-3.8-2.5-6.2-7-6.2c-4.4,0-7,2.4-7,6.2S835.1,65.1,839.5,65.1z"/>
	<path class="st2" d="M874.5,43.6c7.7,0,10.3,5.8,10.3,5.8h0.5v-5.2h10.4v25.5c0,11.9-6.9,17.1-20.6,17.1c-4.5,0-6.9-1.1-6.9-1.1
		v-8.5c0,0,1.9,1,6.4,1c6.6,0,10.7-2,10.7-8.9h-0.4c0,0-2.3,4.8-10,4.8c-7.9,0-14.3-4.7-14.3-15C860.6,48.9,867,43.6,874.5,43.6z
		 M878.3,65.1c4.3,0,7-2.2,7-6.2c0-3.8-2.5-6.2-7-6.2c-4.4,0-7,2.4-7,6.2S873.8,65.1,878.3,65.1z"/>
	<path class="st2" d="M910.2,61.2c0.1,3.6,1.9,6.4,6.7,6.4c4.3,0,5.6-3.1,5.6-3.1h11.2c0,0-1.2,10.3-16.7,10.3
		c-10.3,0-17.6-5.2-17.6-15.6c0-10.3,7.3-15.6,17.6-15.6c10.1,0,17.5,5.3,17.5,15.6c0,0.9-0.2,2-0.2,2S910.2,61.2,910.2,61.2z
		 M910.5,55.9h12.7c0-2.2-2-5.1-6.2-5.1S910.5,53.5,910.5,55.9z"/>
	<path class="st2" d="M950.8,43.6c7.4,0,10.3,3.9,10.3,3.9h0.4V32.2H972v42h-10.4V69h-0.5c0,0-2.6,5.8-10.3,5.8
		c-7.6,0-14-5.3-14-15.6S943.2,43.6,950.8,43.6z M954.5,65.7c4.5,0,7-2.7,7-6.5c0-4-2.7-6.5-7-6.5c-4.4,0-7,2.7-7,6.5
		S950.1,65.7,954.5,65.7z"/>
	<path class="st2" d="M990.5,52.2h-4.1v-5.4l9.1-8.6h5.5v6h8.5v8h-8.5v8.9c0,4.1,2.3,5.2,5.5,5.2c2.3,0,4-0.9,4-0.9v8.4
		c0,0-2,1-5.6,1c-9.5,0-14.3-3.6-14.3-12.3V52.2H990.5z"/>
	<path class="st2" d="M1024.4,58.9c0,4.3,2.4,6.7,6.5,6.7c4.5,0,6.6-2.8,6.6-6.7V44.2h10.4v25.5c0,11.9-6.9,17.1-20.6,17.1
		c-4.5,0-6.9-1.1-6.9-1.1v-8.5c0,0,1.9,1,6.4,1c7,0,10.7-2.3,10.7-8.6h-0.5c0,0-1.9,4.5-9.9,4.5c-7.9,0-13.1-3.3-13.1-12.2V44.2
		h10.4V58.9z"/>
	<path class="st2" d="M1073.9,74.8c-7.4,0-10.3-3.9-10.3-3.9h-0.4v15.3h-10.4v-42h10.4v5.2h0.5c0,0,2.6-5.8,10.3-5.8
		c7.6,0,14,5.3,14,15.6C1087.9,69.4,1081.5,74.8,1073.9,74.8z M1070.2,52.7c-4.5,0-7,2.7-7,6.5c0,4,2.7,6.5,7,6.5c4.4,0,7-2.7,7-6.5
		S1074.6,52.7,1070.2,52.7z"/>
	<path class="st2" d="M1101.2,61.2c0.1,3.6,1.9,6.4,6.7,6.4c4.3,0,5.6-3.1,5.6-3.1h11.2c0,0-1.2,10.3-16.7,10.3
		c-10.3,0-17.6-5.2-17.6-15.6c0-10.3,7.3-15.6,17.6-15.6c10.1,0,17.5,5.3,17.5,15.6c0,0.9-0.2,2-0.2,2S1101.2,61.2,1101.2,61.2z
		 M1101.5,55.9h12.7c0-2.2-2-5.1-6.2-5.1S1101.5,53.5,1101.5,55.9z"/>
	<path class="st2" d="M1141.8,53.1v21.1h-10.4V53.1h-5.3v-5.8l5.3-2.3v-0.6c0-8.5,5-12.9,15.4-12.9c4,0,6.5,1.4,6.5,1.4v8.3
		c0,0-2-1.4-4.9-1.4c-4,0-6.5,1.9-6.5,4.6V45h8.5v8h-8.6V53.1z"/>
	<path class="st2" d="M1164.5,43.6c7.7,0,10.3,5.8,10.3,5.8h0.5v-5.2h10.4V63c0,2.2,0.5,2.8,1.7,2.8c0.7,0,1.1-0.2,1.1-0.2v8.6
		c0,0-1.2,0.6-4.3,0.6c-7.1,0-8.5-5.8-8.5-5.8h-0.5c-0.1,0.4-2.4,5.8-10.7,5.8c-7.6,0-14-5.3-14-15.6S1157,43.6,1164.5,43.6z
		 M1168.2,65.7c4.3,0,7-2.5,7-6.5c0-3.8-2.5-6.5-7-6.5c-4.4,0-7,2.7-7,6.5S1163.8,65.7,1168.2,65.7z"/>
	<path class="st2" d="M1207.5,43.6c10.7,0,17.3,6.1,17.3,13.1h-10.7c0,0-0.9-4.3-6.5-4.3c-4.1,0-6.9,2.6-6.9,6.8s2.8,6.8,6.9,6.8
		c5.6,0,6.5-4.3,6.5-4.3h10.7c0,7-6.6,13.1-17.3,13.1c-10.2,0-17.6-5.3-17.6-15.6C1190,48.9,1197.3,43.6,1207.5,43.6z"/>
	<path class="st2" d="M1237.8,61.2c0.1,3.6,1.9,6.4,6.7,6.4c4.3,0,5.6-3.1,5.6-3.1h11.2c0,0-1.2,10.3-16.7,10.3
		c-10.3,0-17.6-5.2-17.6-15.6c0-10.3,7.3-15.6,17.6-15.6c10.1,0,17.5,5.3,17.5,15.6c0,0.9-0.2,2-0.2,2S1237.8,61.2,1237.8,61.2z
		 M1238.1,55.9h12.7c0-2.2-2-5.1-6.2-5.1S1238.1,53.5,1238.1,55.9z"/>
</g>
<g>
	<path class="st2" d="M1590.6,101.7h24.3v6.6l-8.4,4l-3.5,0.9v0.8l3.8-0.9c5.9,0,9.7,3.4,9.7,9c0,6.7-4.6,10.3-13.5,10.3
		c-9,0-13.6-3.6-13.6-10.3v-0.7h8.2v0.7c0,2.8,2.3,3.6,5.3,3.6c3.1,0,5.3-0.9,5.3-3.6c0-2.8-2.3-3.5-5.3-3.5h-9.6v-4.7l8.9-4.7
		l3.5-0.9v-0.8l-3.6,0.8h-11.6L1590.6,101.7L1590.6,101.7z"/>
	<path class="st2" d="M1641.2,117.1c0-1,0-2.1-3.4-2.1c-2.4,0-3.2,0.6-3.2,1.6c0,3.2,15.4-1,15.4,8.8c0,4.9-4.3,7.1-11.8,7.1
		c-7.4,0-11.7-1.9-11.7-7.4v-0.7h7.7v0.7c0,1.6,1.1,2.3,4,2.3c3.1,0,4.1-0.6,4.1-1.8c0-3.8-15.4,0.9-15.4-8.9c0-4.2,4-6.7,11-6.7
		c7.1,0,11,2.2,11,7.2L1641.2,117.1L1641.2,117.1z"/>
	<path class="st2" d="M1659.2,122.6c0,2.6,1.4,4.6,4.8,4.6c3.1,0,4-2.2,4-2.2h8.1c0,0-0.9,7.4-12.1,7.4c-7.4,0-12.7-3.8-12.7-11.3
		c0-7.4,5.3-11.3,12.7-11.3c7.3,0,12.6,3.8,12.6,11.3c0,0.6-0.1,1.5-0.1,1.5S1659.2,122.6,1659.2,122.6z M1659.4,118.8h9.1
		c0-1.6-1.4-3.7-4.5-3.7C1660.9,115.1,1659.4,117.1,1659.4,118.8z"/>
	<path class="st2" d="M1680.5,116.1h-2.9v-3.9l6.5-6.2h3.9v4.3h6.1v5.8h-6.1v6.4c0,2.9,1.6,3.7,3.9,3.7c1.7,0,2.9-0.6,2.9-0.6v6.1
		c0,0-1.5,0.7-4,0.7c-6.9,0-10.3-2.6-10.3-8.9V116.1z"/>
	<path class="st2" d="M1710,117.1c0-1,0-2.1-3.4-2.1c-2.4,0-3.2,0.6-3.2,1.6c0,3.2,15.4-1,15.4,8.8c0,4.9-4.3,7.1-11.8,7.1
		c-7.4,0-11.7-1.9-11.7-7.4v-0.7h7.7v0.7c0,1.6,1.1,2.3,4,2.3c3.1,0,4.1-0.6,4.1-1.8c0-3.8-15.4,0.9-15.4-8.9c0-4.2,4-6.7,11-6.7
		c7.1,0,11,2.2,11,7.2L1710,117.1L1710,117.1z"/>
	<path class="st2" d="M1738.8,109.9c5.5,0,7.4,4.2,7.4,4.2h0.3v-3.7h7.5v18.4c0,8.6-5,12.3-14.9,12.3c-3.2,0-5-0.8-5-0.8v-6.1
		c0,0,1.4,0.7,4.6,0.7c4.8,0,7.7-1.4,7.7-6.4h-0.3c0,0-1.7,3.5-7.2,3.5c-5.7,0-10.3-3.4-10.3-10.8S1733.4,109.9,1738.8,109.9z
		 M1741.5,125.4c3.1,0,5.1-1.6,5.1-4.5c0-2.7-1.8-4.5-5.1-4.5c-3.2,0-5.1,1.7-5.1,4.5C1736.4,123.7,1738.3,125.4,1741.5,125.4z"/>
	<path class="st2" d="M1757.6,101.7h7.5v20.8c0,2.8,0.9,3.8,2.9,3.8c1.1,0,1.8-0.3,1.8-0.3v5.9c0,0-1.2,0.5-3.6,0.5
		c-5.2,0-8.6-2.9-8.6-9.2L1757.6,101.7L1757.6,101.7z"/>
	<path class="st2" d="M1778.4,121c0,3.1,1.7,4.8,4.7,4.8c3.2,0,4.8-2,4.8-4.8v-10.6h7.5v18.4c0,8.6-5,12.3-14.9,12.3
		c-3.2,0-5-0.8-5-0.8v-6.1c0,0,1.4,0.7,4.6,0.7c5.1,0,7.7-1.6,7.7-6.2h-0.4c0,0-1.3,3.2-7.1,3.2c-5.7,0-9.5-2.4-9.5-8.8v-12.8h7.5
		V121H1778.4z"/>
	<path class="st2" d="M1814.2,132.4c-5.3,0-7.4-2.8-7.4-2.8h-0.3v11h-7.5v-30.3h7.5v3.7h0.3c0,0,1.9-4.2,7.4-4.2s10.1,3.9,10.1,11.3
		C1824.3,128.5,1819.6,132.4,1814.2,132.4z M1811.5,116.5c-3.2,0-5.1,1.9-5.1,4.7c0,2.9,1.9,4.7,5.1,4.7s5.1-1.9,5.1-4.7
		S1814.7,116.5,1811.5,116.5z"/>
	<path class="st2" d="M1843.9,121.3c0-3.1-1.7-4.8-4.7-4.8c-3.2,0-4.8,2-4.8,4.8V132h-7.5v-30.3h7.5v12.4h0.4c0,0,1.6-4.2,7.8-4.2
		c5.2,0,8.8,2.8,8.8,9.3V132h-7.5L1843.9,121.3L1843.9,121.3z"/>
	<path class="st2" d="M1868.1,117.1c0-1,0-2.1-3.4-2.1c-2.4,0-3.2,0.6-3.2,1.6c0,3.2,15.4-1,15.4,8.8c0,4.9-4.3,7.1-11.8,7.1
		c-7.4,0-11.7-1.9-11.7-7.4v-0.7h7.7v0.7c0,1.6,1.1,2.3,4,2.3c3.1,0,4.1-0.6,4.1-1.8c0-3.8-15.4,0.9-15.4-8.9c0-4.2,4-6.7,11-6.7
		c7.1,0,11,2.2,11,7.2L1868.1,117.1L1868.1,117.1z"/>
</g>
<g>
	<g>
		<path class="st2" d="M213.6,387.4h167.3v40.8h-59.4v137.7H273V428.2h-59.4V387.4z"/>
		<path class="st2" d="M472.4,437.1v48.7c0,0-7.9-4.6-23.7-4.6c-23.5,0-33.7,13.5-33.7,31.1v53.6h-44.4V438.4H415v22.2h2.3
			c0,0,10.2-24.7,44.1-24.7C467.1,435.8,472.4,437.1,472.4,437.1z"/>
		<path class="st2" d="M535.7,435.8c32.6,0,43.6,24.5,43.6,24.5h2v-21.9h44.4v80.1c0,9.2,2.3,11.7,7.1,11.7c2.8,0,4.6-0.8,4.6-0.8
			v36.5c0,0-5.1,2.6-18.1,2.6c-30.3,0-36-24.7-36-24.7h-2c-0.5,1.5-10.2,24.7-45.6,24.7c-32.1,0-59.4-22.7-59.4-66.3
			S503.6,435.8,535.7,435.8z M551.5,529.7c18.4,0,29.8-10.7,29.8-27.5c0-16.1-10.7-27.5-29.8-27.5c-18.9,0-29.8,11.5-29.8,27.5
			S532.6,529.7,551.5,529.7z"/>
		<path class="st2" d="M742.7,565.9h-64.5l-44.6-127.5h46.7l29.1,91.3h2.3l29.1-91.3h46.7L742.7,565.9z"/>
		<path class="st2" d="M833.8,510.8c0.3,15.3,8.2,27,28.6,27c18.4,0,23.7-13,23.7-13h47.4c0,0-5.1,43.6-71.1,43.6
			c-43.9,0-75-22.2-75-66.3c0-43.9,31.1-66.3,74.7-66.3c43.1,0,74.5,22.4,74.5,66.3c0,3.8-0.8,8.7-0.8,8.7H833.8z M834.8,488.1h53.8
			c0-9.4-8.4-21.7-26.5-21.7S834.8,478.2,834.8,488.1z"/>
		<path class="st2" d="M951.8,387.4h44.4V510c0,16.3,5.4,22.2,17.1,22.2c6.4,0,10.5-1.8,10.5-1.8v34.9c0,0-6.9,3.1-21.4,3.1
			c-30.9,0-50.5-16.8-50.5-54.1L951.8,387.4L951.8,387.4z"/>
		<path class="st2" d="M1181.3,503.2c0-18.1-10.2-28.6-27.8-28.6c-19.1,0-28.1,12-28.1,28.6v62.7H1081V438.4h44.4v22.2h2.3
			c0,0,9.4-24.7,45.9-24.7c30.3,0,52,16.6,52,54.6V566h-44.4L1181.3,503.2L1181.3,503.2z"/>
		<path class="st2" d="M1286.1,510.8c0.3,15.3,8.2,27,28.6,27c18.4,0,23.7-13,23.7-13h47.4c0,0-5.1,43.6-71.1,43.6
			c-43.9,0-75-22.2-75-66.3c0-43.9,31.1-66.3,74.7-66.3c43.1,0,74.5,22.4,74.5,66.3c0,3.8-0.8,8.7-0.8,8.7H1286.1z M1287.2,488.1
			h53.8c0-9.4-8.4-21.7-26.5-21.7S1287.2,478.2,1287.2,488.1z"/>
		<path class="st2" d="M1492.9,565.9h-64.5l-44.6-127.5h46.7l29.1,91.3h2.3l29.1-91.3h46.7L1492.9,565.9z"/>
		<path class="st2" d="M1584,510.8c0.3,15.3,8.2,27,28.6,27c18.4,0,23.7-13,23.7-13h47.4c0,0-5.1,43.6-71.1,43.6
			c-43.9,0-75-22.2-75-66.3c0-43.9,31.1-66.3,74.7-66.3c43.1,0,74.5,22.4,74.5,66.3c0,3.8-0.8,8.7-0.8,8.7H1584z M1585,488.1h53.8
			c0-9.4-8.4-21.7-26.5-21.7S1585,478.2,1585,488.1z"/>
		<path class="st2" d="M1803.8,437.1v48.7c0,0-7.9-4.6-23.7-4.6c-23.5,0-33.7,13.5-33.7,31.1v53.6H1702V438.4h44.4v22.2h2.3
			c0,0,10.2-24.7,44.1-24.7C1798.4,435.8,1803.8,437.1,1803.8,437.1z"/>
		<path class="st2" d="M192.4,766.4c-32.6,0-43.6-24.5-43.6-24.5h-2v21.9h-44.4V585.4h44.4v65h1.8c0,0,12.5-16.6,43.9-16.6
			c32.1,0,59.4,22.7,59.4,66.3C251.8,743.7,224.6,766.4,192.4,766.4z M176.6,672.6c-18.4,0-29.8,10.7-29.8,27.5
			c0,16.1,10.7,27.5,29.8,27.5c18.9,0,29.8-11.5,29.8-27.5C206.5,684.1,195.5,672.6,176.6,672.6z"/>
		<path class="st2" d="M321.5,633.8c32.6,0,43.6,24.5,43.6,24.5h2v-21.9h44.4v80.1c0,9.2,2.3,11.7,7.1,11.7c2.8,0,4.6-0.8,4.6-0.8
			v36.5c0,0-5.1,2.6-18.1,2.6c-30.3,0-36-24.7-36-24.7h-2c-0.5,1.5-10.2,24.7-45.6,24.7c-32.1,0-59.4-22.7-59.4-66.3
			C262,656.5,289.3,633.8,321.5,633.8z M337.3,727.7c18.4,0,29.8-10.7,29.8-27.5c0-16.1-10.7-27.5-29.8-27.5
			c-18.9,0-29.8,11.5-29.8,27.5C307.4,716.2,318.4,727.7,337.3,727.7z"/>
		<path class="st2" d="M489,633.8c32.6,0,43.6,24.5,43.6,24.5h2v-21.9H579v108.4c0,50.5-29.3,72.7-87.7,72.7
			c-19.1,0-29.3-4.6-29.3-4.6v-36c0,0,8.2,4.3,27,4.3c28.1,0,45.4-8.4,45.4-37.7h-1.5c0,0-9.9,20.4-42.6,20.4
			c-33.4,0-60.7-20.1-60.7-63.8C429.6,656.5,456.9,633.8,489,633.8z M504.8,725.1c18.4,0,29.8-9.4,29.8-26.3
			c0-16.1-10.7-26.3-29.8-26.3c-18.9,0-29.8,10.2-29.8,26.3C475,714.9,485.9,725.1,504.8,725.1z"/>
		<path class="st2" d="M653.7,633.8c32.6,0,43.6,24.5,43.6,24.5h2v-21.9h44.4v108.4c0,50.5-29.3,72.7-87.7,72.7
			c-19.1,0-29.3-4.6-29.3-4.6v-36c0,0,8.2,4.3,27,4.3c28.1,0,45.4-8.4,45.4-37.7h-1.5c0,0-9.9,20.4-42.6,20.4
			c-33.4,0-60.7-20.1-60.7-63.8C594.3,656.5,621.6,633.8,653.7,633.8z M669.5,725.1c18.4,0,29.8-9.4,29.8-26.3
			c0-16.1-10.7-26.3-29.8-26.3c-18.9,0-29.8,10.2-29.8,26.3C639.7,714.9,650.7,725.1,669.5,725.1z"/>
		<path class="st2" d="M805.4,708.8c0.3,15.3,8.2,27,28.6,27c18.4,0,23.7-13,23.7-13h47.4c0,0-5.1,43.6-71.1,43.6
			c-43.9,0-75-22.2-75-66.3c0-43.9,31.1-66.3,74.7-66.3c43.1,0,74.5,22.4,74.5,66.3c0,3.8-0.8,8.7-0.8,8.7H805.4z M806.5,686.1h53.8
			c0-9.4-8.4-21.7-26.5-21.7S806.5,676.2,806.5,686.1z"/>
		<path class="st2" d="M977.8,633.8c31.4,0,43.9,16.6,43.9,16.6h1.8v-65h44.4v178.5h-44.4V742h-2c0,0-11,24.5-43.6,24.5
			c-32.1,0-59.4-22.7-59.4-66.3C918.4,656.5,945.7,633.8,977.8,633.8z M993.6,727.7c19.1,0,29.8-11.5,29.8-27.5
			c0-16.8-11.5-27.5-29.8-27.5c-18.9,0-29.8,11.5-29.8,27.5S974.8,727.7,993.6,727.7z"/>
		<path class="st2" d="M1203.6,633.8c31.4,0,43.9,16.6,43.9,16.6h1.8v-65h44.4v178.5h-44.4V742h-2c0,0-11,24.5-43.6,24.5
			c-32.1,0-59.4-22.7-59.4-66.3C1144.1,656.5,1171.4,633.8,1203.6,633.8z M1219.4,727.7c19.1,0,29.8-11.5,29.8-27.5
			c0-16.8-11.5-27.5-29.8-27.5c-18.9,0-29.8,11.5-29.8,27.5C1189.5,716.2,1200.5,727.7,1219.4,727.7z"/>
		<path class="st2" d="M1458.3,700.1c0,43.9-31.1,66.3-74.7,66.3s-74.7-22.4-74.7-66.3c0-43.9,31.1-66.3,74.7-66.3
			C1427.2,633.8,1458.3,656.3,1458.3,700.1z M1412.9,700.1c0-16.8-11.7-28.1-29.3-28.1c-17.6,0-29.3,11.2-29.3,28.1
			c0,16.8,11.7,28,29.3,28C1401.2,728.2,1412.9,717,1412.9,700.1z"/>
		<path class="st2" d="M1552.1,763.9H1493l-32.1-127.5h44.9l18.1,88.7h1.8l22.7-88.7h53l22.7,88.7h1.8l18.1-88.7h44.9l-32.1,127.5
			h-59.2l-21.9-84.4h-1.5L1552.1,763.9z"/>
		<path class="st2" d="M1796.7,701.2c0-18.1-10.2-28.6-27.8-28.6c-19.1,0-28.1,12-28.1,28.6v62.7h-44.4V636.4h44.4v22.2h2.3
			c0,0,9.4-24.7,45.9-24.7c30.3,0,52,16.6,52,54.6V764h-44.4L1796.7,701.2L1796.7,701.2z"/>
		<path class="st2" d="M1877.8,719c15.3,0,25.2,8.9,25.2,23.7s-9.9,23.7-25.2,23.7c-15.3,0-25.2-8.9-25.2-23.7
			C1852.5,727.9,1862.5,719,1877.8,719z"/>
	</g>
</g>
<g>
	<path class="st2" d="M102.4,274.6l8.5-7.8h7.7v30.3h-8.2v-19.8h-0.2l-3.3,2.9L102.4,274.6z"/>
	<path class="st2" d="M140.1,276c0-0.3-0.5-2.9-4.2-2.9c-3.4,0-5.4,2.9-5.2,6.5h0.2c0,0,1.7-2.2,6.8-2.2c7.5,0,12.2,3.7,12.2,9.6
		c0,6.6-5.2,10.5-13.8,10.5c-10,0-14.1-6.2-14.1-15.3v-0.3c0-8.9,4.3-15.6,13.9-15.6c9,0,12.9,4.8,12.9,9.7H140.1z M141.3,287.2
		c0-2.3-1.9-3.6-5.1-3.6c-3.1,0-5.1,1.3-5.1,3.6c0,2.3,1.9,3.6,5.1,3.6C139.4,290.8,141.3,289.5,141.3,287.2z"/>
	<path class="st2" d="M174.9,282.2c0-1,0-2.1-3.4-2.1c-2.4,0-3.2,0.6-3.2,1.6c0,3.2,15.4-1,15.4,8.8c0,4.9-4.3,7.1-11.8,7.1
		c-7.4,0-11.7-1.9-11.7-7.4v-0.7h7.7v0.7c0,1.6,1.1,2.3,4,2.3c3.1,0,4.1-0.7,4.1-1.8c0-3.8-15.4,0.9-15.4-8.9c0-4.2,4-6.7,11-6.7
		c7.1,0,11,2.2,11,7.2H174.9z"/>
	<path class="st2" d="M186.2,281.2h-2.9v-3.9l6.5-6.2h3.9v4.3h6.1v5.8h-6.1v6.4c0,2.9,1.6,3.7,3.9,3.7c1.7,0,2.9-0.6,2.9-0.6v6.1
		c0,0-1.5,0.7-4,0.7c-6.9,0-10.3-2.6-10.3-8.9V281.2z"/>
	<path class="st2" d="M210.7,286.1c0,3.1,1.7,4.8,4.7,4.8c3.2,0,4.8-2,4.8-4.8v-10.6h7.5v18.4c0,8.6-5,12.3-14.9,12.3
		c-3.2,0-5-0.8-5-0.8v-6.1c0,0,1.4,0.7,4.6,0.7c5.1,0,7.7-1.6,7.7-6.2h-0.4c0,0-1.3,3.2-7.1,3.2c-5.7,0-9.5-2.4-9.5-8.8v-12.8h7.5
		V286.1z"/>
	<path class="st2" d="M231.2,266.8h7.5v20.8c0,2.8,0.9,3.8,2.9,3.8c1.1,0,1.8-0.3,1.8-0.3v5.9c0,0-1.2,0.5-3.6,0.5
		c-5.2,0-8.6-2.9-8.6-9.2V266.8z"/>
	<path class="st2" d="M251.5,287.7c0,2.6,1.4,4.6,4.8,4.6c3.1,0,4-2.2,4-2.2h8.1c0,0-0.9,7.4-12.1,7.4c-7.4,0-12.7-3.8-12.7-11.3
		c0-7.4,5.3-11.3,12.7-11.3c7.3,0,12.6,3.8,12.6,11.3c0,0.6-0.1,1.5-0.1,1.5H251.5z M251.6,283.9h9.1c0-1.6-1.4-3.7-4.5-3.7
		C253.2,280.2,251.6,282.2,251.6,283.9z"/>
	<path class="st2" d="M284.9,282.2c0-1,0-2.1-3.4-2.1c-2.4,0-3.2,0.6-3.2,1.6c0,3.2,15.4-1,15.4,8.8c0,4.9-4.3,7.1-11.8,7.1
		c-7.4,0-11.7-1.9-11.7-7.4v-0.7h7.7v0.7c0,1.6,1.1,2.3,4,2.3c3.1,0,4.1-0.7,4.1-1.8c0-3.8-15.4,0.9-15.4-8.9c0-4.2,4-6.7,11-6.7
		c7.1,0,11,2.2,11,7.2H284.9z"/>
</g>
</svg>
