<?xml version="1.0" encoding="utf-8"?>
<!-- Generator: Adobe Illustrator 22.0.0, SVG Export Plug-In . SVG Version: 6.00 Build 0)  -->
<svg version="1.1" id="Layer_1" xmlns="http://www.w3.org/2000/svg" xmlns:xlink="http://www.w3.org/1999/xlink" x="0px" y="0px"
	 viewBox="0 0 2000 1100" style="enable-background:new 0 0 2000 1100;" xml:space="preserve">
<style type="text/css">
	.st0{fill:#F7F7F7;}
	.st1{fill:#00D76F;}
	.st2{fill:#FECE00;}
	.st3{fill:#00302D;}
	.st4{fill:none;stroke:#00302D;stroke-miterlimit:10;}
</style>
<rect class="st0" width="2000" height="1100"/>
<g>
	<polygon class="st1" points="1689.4,-3208.8 1689.4,-452.9 1493.3,-452.9 1493.3,-70.4 1306.9,-70.4 1306.9,315.4 1101,315.4 
		1101,697.9 914.7,697.9 914.7,1100 2000,1100 2000,-3208.8 	"/>
	<g>
		<g>
			<polygon class="st2" points="1581.6,-452.9 1581.6,-3104.2 1689.4,-3208.8 1689.4,-452.9 			"/>
			<polygon class="st2" points="1493.3,-70.4 1493.3,-452.9 1388.7,-348.2 1388.7,-70.4 			"/>
			<polygon class="st2" points="1306.9,315.4 1306.9,-70.4 1202.4,34.3 1202.4,315.4 			"/>
			<polygon class="st2" points="1101,697.9 1101,315.4 996.4,420 996.4,697.9 			"/>
			<polygon class="st2" points="914.7,1100 914.7,697.9 810,802.5 810,1100 			"/>
		</g>
	</g>
</g>
<g>
	<path class="st3" d="M612.9,372c0-2.9,2.8-4.1,6.3-4.1s6.3,1.3,6.3,4.7H623c0-1.6-1.1-2.5-3.9-2.5s-3.9,0.8-3.9,1.9
		c0,3.4,10.6-0.3,10.6,5.8c0,3.2-3.2,4.3-6.7,4.3s-6.7-1.3-6.7-4.7V377h2.5v0.4c0,1.6,1.4,2.5,4.2,2.5s4.2-0.7,4.2-2.1
		C623.5,374.2,612.9,378,612.9,372z"/>
	<path class="st3" d="M643.9,376.1h-12.4c0,1.2,1.6,3.7,5.1,3.7c3.1,0,4.2-1.8,4.2-1.8h2.8c0,0-1.3,4-7,4c-4.4,0-7.7-2.8-7.7-7.1
		c0-4.4,3.2-7.1,7.5-7.1c4.3,0,7.5,2.8,7.5,7.1C644,375.6,643.9,376.1,643.9,376.1z M631.5,373.9h9.9c0-1.3-1.6-3.9-5-3.9
		C633.1,370.1,631.5,372.6,631.5,373.9z"/>
	<path class="st3" d="M651.2,376.5c0,2.7,1.3,3.5,3.1,3.5c1.6,0,2.4-0.6,2.4-0.6v2.2c0,0-1.1,0.6-2.7,0.6c-3.1,0-5.2-1.6-5.2-5.3
		v-6.5h-2.3v-2.2h2.3v-3.1h2.4v3.1h5.1v2.2h-5.1V376.5z"/>
	<path class="st3" d="M659.7,372c0-5.7,3.3-10.1,8.9-10.1s8.9,4.3,8.9,10.1c0,5.7-3.3,10.1-8.9,10.1S659.7,377.8,659.7,372z
		 M662.4,372c0,4.3,2.1,7.7,6.2,7.7c4.1,0,6.2-3.4,6.2-7.7c0-4.3-2.1-7.7-6.2-7.7C664.5,364.3,662.4,367.8,662.4,372z"/>
	<path class="st3" d="M680.6,379.5h3.1v-14.9h-2.8v-2.3h5.4v17.2h3.1v2.3h-8.8V379.5L680.6,379.5z"/>
</g>
<g>
	<path class="st3" d="M1148.9,372c0-2.9,2.8-4.1,6.3-4.1s6.3,1.3,6.3,4.7h-2.5c0-1.6-1.1-2.5-3.9-2.5s-3.9,0.8-3.9,1.9
		c0,3.4,10.6-0.3,10.6,5.8c0,3.2-3.2,4.3-6.7,4.3s-6.7-1.3-6.7-4.7V377h2.5v0.4c0,1.6,1.4,2.5,4.2,2.5c2.8,0,4.2-0.7,4.2-2.1
		C1159.5,374.2,1148.9,378,1148.9,372z"/>
	<path class="st3" d="M1179.9,376.1h-12.4c0,1.2,1.6,3.7,5.1,3.7c3.1,0,4.2-1.8,4.2-1.8h2.8c0,0-1.3,4-7,4c-4.4,0-7.7-2.8-7.7-7.1
		c0-4.4,3.2-7.1,7.5-7.1c4.3,0,7.5,2.8,7.5,7.1C1180,375.6,1179.9,376.1,1179.9,376.1z M1167.5,373.9h9.9c0-1.3-1.6-3.9-5-3.9
		C1169.1,370.1,1167.5,372.6,1167.5,373.9z"/>
	<path class="st3" d="M1187.2,376.5c0,2.7,1.3,3.5,3.1,3.5c1.6,0,2.4-0.6,2.4-0.6v2.2c0,0-1.1,0.6-2.7,0.6c-3.1,0-5.2-1.6-5.2-5.3
		v-6.5h-2.3v-2.2h2.3v-3.1h2.4v3.1h5.1v2.2h-5.1V376.5z"/>
	<path class="st3" d="M1195.7,372c0-5.7,3.3-10.1,8.9-10.1c5.6,0,8.9,4.3,8.9,10.1c0,5.7-3.3,10.1-8.9,10.1
		C1199,382.1,1195.7,377.8,1195.7,372z M1198.4,372c0,4.3,2.1,7.7,6.2,7.7c4.1,0,6.2-3.4,6.2-7.7c0-4.3-2.1-7.7-6.2-7.7
		C1200.5,364.3,1198.4,367.8,1198.4,372z"/>
	<path class="st3" d="M1217,379.8c0-6.7,13.1-6.4,13.1-11.8c0-2.4-1.8-3.5-4.9-3.5s-4.9,1.2-4.9,3.9v0.6h-2.6v-0.6
		c0-4,3-6.3,7.6-6.3s7.6,2.3,7.6,5.9c0,7.2-12.9,7.2-12.9,11.6h13v2.3h-15.8v-2.1H1217z"/>
</g>
<line class="st4" x1="587.2" y1="337" x2="587.2" y2="763"/>
<line class="st4" x1="1118.7" y1="337" x2="1118.7" y2="763"/>
<g>
	<path class="st3" d="M611.4,348.7c0-5.9,3.4-10.4,9.3-10.4c5.9,0,9.3,4.5,9.3,10.4s-3.4,10.4-9.3,10.4
		C614.8,359.2,611.4,354.7,611.4,348.7z M614.3,348.7c0,4.4,2.2,7.9,6.4,7.9c4.2,0,6.4-3.5,6.4-7.9s-2.2-7.9-6.4-7.9
		C616.5,340.8,614.3,344.3,614.3,348.7z"/>
	<path class="st3" d="M642.5,359.2c-4.9,0-8-2.3-8-6.1h2.7c0,2.3,1.9,3.6,5.3,3.6c3.2,0,5.3-1.4,5.3-4.4c0-3.1-2.1-4.4-5.5-4.4
		c-4.4,0-5.1,2.3-5.1,2.3h-2.8v-11.5h14.6v2.4h-11.9v5.9h0.1c0,0,1.5-1.6,5.4-1.6c4.6,0,7.9,2.6,7.9,6.9S647.3,359.2,642.5,359.2z"
		/>
	<path class="st3" d="M664.4,341H652v-2.4h15.5v2.4l-9.6,17.9h-3.1L664.4,341z"/>
</g>
<g>
	<path class="st3" d="M1148.4,348.7c0-5.9,3.4-10.4,9.3-10.4s9.3,4.5,9.3,10.4s-3.4,10.4-9.3,10.4S1148.4,354.7,1148.4,348.7z
		 M1151.3,348.7c0,4.4,2.2,7.9,6.4,7.9s6.4-3.5,6.4-7.9c0-4.4-2.2-7.9-6.4-7.9S1151.3,344.3,1151.3,348.7z"/>
	<path class="st3" d="M1179.5,359.2c-4.9,0-8-2.3-8-6.1h2.7c0,2.3,1.9,3.6,5.3,3.6c3.2,0,5.3-1.4,5.3-4.4c0-3.1-2.1-4.4-5.5-4.4
		c-4.4,0-5.1,2.3-5.1,2.3h-2.8v-11.5h14.6v2.4h-11.9v5.9h0.1c0,0,1.5-1.6,5.4-1.6c4.6,0,7.9,2.6,7.9,6.9S1184.3,359.2,1179.5,359.2z
		"/>
	<path class="st3" d="M1201.4,341H1189v-2.4h15.5v2.4l-9.6,17.9h-3.1L1201.4,341z"/>
</g>
<path class="st3" d="M881.8,743c0,0,18.8,35.7,93.6,35.7v79.1c-135.5,0-192.4-96.5-192.4-96.5c-102.2-3.4-169.3-66.1-169.3-173.6
	c0-109,69.4-173.6,178.4-173.6c109,0,178.4,64.6,178.4,173.6C970.5,709.8,881.8,743,881.8,743z M792.1,493.2c-56.9,0-82,42-82,94.5
	c0,52.6,25.1,94.5,82,94.5s82-42,82-94.5C874,535.2,849,493.2,792.1,493.2z"/>
<path class="st3" d="M1320.8,762.3c-109,0-178.4-64.6-178.4-173.6s69.4-173.6,178.4-173.6c109,0,178.4,64.6,178.4,173.6
	S1429.8,762.3,1320.8,762.3z M1320.8,494.2c-56.9,0-82,42-82,94.5c0,52.6,25.1,94.5,82,94.5c56.9,0,82-42,82-94.5
	C1402.8,536.1,1377.7,494.2,1320.8,494.2z M1290.9,783.5h192.9v73.3h-237.8L1290.9,783.5z"/>
</svg>
