<?xml version="1.0" encoding="utf-8"?>
<!-- Generator: Adobe Illustrator 22.0.0, SVG Export Plug-In . SVG Version: 6.00 Build 0)  -->
<svg version="1.1" id="Layer_1" xmlns="http://www.w3.org/2000/svg" xmlns:xlink="http://www.w3.org/1999/xlink" x="0px" y="0px"
	 viewBox="0 0 2000 1100" style="enable-background:new 0 0 2000 1100;" xml:space="preserve">
<style type="text/css">
	.st0{fill:#F7F7F7;}
	.st1{fill:#00302D;stroke:#FECE00;stroke-width:4;stroke-miterlimit:10;}
	.st2{fill:#010E38;}
	.st3{fill:#00302D;}
	.st4{fill:#FECE00;}
	.st5{fill:#00D76F;}
	.st6{fill:#0099FF;}
	.st7{fill:#0A914A;}
</style>
<rect class="st0" width="2000" height="1100"/>
<g>
	<g>
		<path class="st1" d="M297,637.4v154.1h146.5v96.6h-356v-96.6h128.2V637.4H87.4v-96.6h356v96.6H297z"/>
	</g>
</g>
<g>
	<g>
		<path class="st1" d="M1551.4,733.2v-88.5h244.6c32.6,0,44.2-10.7,44.2-34.1c0-12.7-3.6-20.9-3.6-20.9h69.7c0,0,6.1,13.7,6.1,42.7
			c0,61.5-33.6,100.7-107.8,100.7H1551.4z"/>
		<path class="st1" d="M1551.4,577.1v-88.5h244.6c32.6,0,44.2-10.7,44.2-34.1c0-12.7-3.6-20.9-3.6-20.9h69.7c0,0,6.1,13.7,6.1,42.7
			c0,61.5-33.6,100.7-107.8,100.7H1551.4z"/>
	</g>
</g>
<g>
	<g>
		<path class="st1" d="M1710.6,428.6c30.5-0.5,53.9-16.3,53.9-57c0-36.6-25.9-47.3-25.9-47.3v-94.6c0,0,87,10.2,87,141.9
			c0,87.5-44.2,149.5-132.2,149.5c-87.5,0-132.2-62-132.2-149c0-86,44.8-148.5,132.2-148.5c7.6,0,17.3,1.5,17.3,1.5V428.6z
			 M1665.3,426.6V319.3c-18.8,0-43.2,16.8-43.2,52.9C1622.1,408.3,1645.5,426.6,1665.3,426.6z"/>
	</g>
</g>
<g>
	<g>
		<path class="st1" d="M270.6,482.6c30.5-0.5,53.9-16.3,53.9-57c0-36.6-25.9-47.3-25.9-47.3v-94.6c0,0,87,10.2,87,141.9
			c0,87.5-44.2,149.5-132.2,149.5c-87.5,0-132.2-62-132.2-149c0-86,44.8-148.5,132.2-148.5c7.6,0,17.3,1.5,17.3,1.5V482.6z
			 M225.3,480.6V373.3c-18.8,0-43.2,16.8-43.2,52.9C182.1,462.3,205.5,480.6,225.3,480.6z"/>
	</g>
</g>
<g>
	<g>
		<path class="st1" d="M759.1,125.5l-80.4,58v122.1h-88.5v-180l-80.4,58v122.1h-88.5V51.3h88.5v50.9h4.1l70.2-50.9h94.6v50.9h4.1
			L753,51.3h94.6v254.3h-88.5V125.5z"/>
	</g>
</g>
<g>
	<g>
		<path class="st1" d="M914.6,845.8L964,684.5h153.6v356h-96.6V816.3l13.7-48.3h-9.7l-16.8,48.3l-45.3,143.9H850l-45.3-143.9
			L788,767.9h-9.7l13.7,48.3v224.3h-96.6v-356H849l49.3,161.2l4.1,47.3h8.1L914.6,845.8z"/>
	</g>
</g>
<g>
	<g>
		<path class="st1" d="M1220.2,126l-111.4,56.5v123.1h-88.5V51.3h88.5v50.9h4.6l100.7-50.9h94.6v254.3h-88.5V126z"/>
	</g>
</g>
<path class="st2" d="M2281,87h-116c-6.6,0-12-5.4-12-12V-41c0-6.6,5.4-12,12-12h116c6.6,0,12,5.4,12,12V75
	C2293,81.6,2287.6,87,2281,87z"/>
<path class="st3" d="M2441,87h-116c-6.6,0-12-5.4-12-12V-41c0-6.6,5.4-12,12-12h116c6.6,0,12,5.4,12,12V75
	C2453,81.6,2447.6,87,2441,87z"/>
<path class="st4" d="M2607,87h-116c-6.6,0-12-5.4-12-12V-41c0-6.6,5.4-12,12-12h116c6.6,0,12,5.4,12,12V75
	C2619,81.6,2613.6,87,2607,87z"/>
<path class="st5" d="M2775,87h-116c-6.6,0-12-5.4-12-12V-41c0-6.6,5.4-12,12-12h116c6.6,0,12,5.4,12,12V75
	C2787,81.6,2781.6,87,2775,87z"/>
<path class="st6" d="M2943,87h-116c-6.6,0-12-5.4-12-12V-41c0-6.6,5.4-12,12-12h116c6.6,0,12,5.4,12,12V75
	C2955,81.6,2949.6,87,2943,87z"/>
<g>
	<path class="st5" d="M745.2,399.4c138.4,69.5,382.5,205.6,761.2,459.3C1391.7,775.5,1270.4,540.5,1020,382c-256-162-488-74-488-74
		c0,0.2,0.1,0.4,0.1,0.6l0.1-0.6C532.8,308.2,594.1,323.4,745.2,399.4z"/>
	<path class="st7" d="M531.3,311.1c16.3,106,207.9,413.1,543.7,442.9c237.1,21,357.1,67.2,407.6,92.9
		C1116.4,602.5,879,470.3,743.3,402.1C599.9,330.1,537.6,312.8,531.3,311.1z"/>
</g>
<g>
	<g>
		<path class="st1" d="M1663.8,1040.6h-128.7l-89-254.3h93.1l58,182.1h4.6l58-182.1h93.1L1663.8,1040.6z"/>
	</g>
</g>
<g>
	<g>
		<path class="st1" d="M1613.4,763.4c20.5-20.5,43.5-23.4,60.4-6.5c16.9,16.9,14,39.9-6.5,60.4s-43.5,23.4-60.4,6.5
			C1590.1,807,1592.9,783.9,1613.4,763.4z M1900.1,987.5l-62.6,62.6l-179.8-179.8l62.6-62.6L1900.1,987.5z"/>
	</g>
</g>
<g>
	<g>
		<path class="st1" d="M901.1,128.2c65.1,0,87,48.8,87,48.8h4.1v-43.7h88.5V293c0,18.3,4.6,23.4,14.2,23.4c5.6,0,9.2-1.5,9.2-1.5
			v72.7c0,0-10.2,5.1-36.1,5.1c-60.5,0-71.7-49.3-71.7-49.3h-4.1c-1,3.1-20.3,49.3-91,49.3c-64.1,0-118.5-45.3-118.5-132.2
			S837,128.2,901.1,128.2z M932.6,315.3c36.6,0,59.5-21.4,59.5-54.9c0-32-21.4-54.9-59.5-54.9c-37.6,0-59.5,22.9-59.5,54.9
			S895,315.3,932.6,315.3z"/>
	</g>
</g>
<g>
	<g>
		<path class="st1" d="M342.4,49.9l68.7,68.7c0,0-17.6,4.7-39.9,27c-33.1,33.1-28.4,66.5-3.6,91.3l75.5,75.5L380.5,375L200.7,195.2
			l62.6-62.6l31.3,31.3l3.2-3.2c0,0-20.5-49.3,27.3-97.1C333.1,55.7,342.4,49.9,342.4,49.9z"/>
	</g>
</g>
<g>
	<g>
		<path class="st1" d="M1337.8,684.5h88.5v244.6c0,32.6,10.7,44.2,34.1,44.2c12.7,0,20.9-3.6,20.9-3.6v69.7c0,0-13.7,6.1-42.7,6.1
			c-61.5,0-100.7-33.6-100.7-107.8V684.5z"/>
	</g>
</g>
<g>
	<g>
		<path class="st1" d="M1159.3,873.7c0.5,30.5,16.3,53.9,57,53.9c36.6,0,47.3-25.9,47.3-25.9h94.6c0,0-10.2,87-141.9,87
			c-87.5,0-149.5-44.2-149.5-132.2c0-87.5,62-132.2,149-132.2c86,0,148.5,44.8,148.5,132.2c0,7.6-1.5,17.3-1.5,17.3H1159.3z
			 M1161.3,828.4h107.3c0-18.8-16.8-43.2-52.9-43.2S1161.3,808.6,1161.3,828.4z"/>
	</g>
</g>
</svg>
