<?xml version="1.0" encoding="utf-8"?>
<!-- Generator: Adobe Illustrator 22.0.0, SVG Export Plug-In . SVG Version: 6.00 Build 0)  -->
<svg version="1.1" id="Layer_1" xmlns="http://www.w3.org/2000/svg" xmlns:xlink="http://www.w3.org/1999/xlink" x="0px" y="0px"
	 viewBox="0 0 2000 1100" style="enable-background:new 0 0 2000 1100;" xml:space="preserve">
<style type="text/css">
	.st0{fill:#F7F7F7;}
	.st1{fill:none;stroke:#EDE3D1;stroke-miterlimit:10;}
	.st2{fill:#00302D;}
	.st3{fill:#01B369;}
</style>
<rect class="st0" width="2000" height="1100"/>
<g>
	<g>
		<g>
			<line class="st1" x1="0" y1="186.5" x2="2000" y2="186.5"/>
		</g>
		<g>
			<line class="st1" x1="0" y1="83.5" x2="2000" y2="83.5"/>
		</g>
		<g>
			<line class="st1" x1="0" y1="348.5" x2="2000" y2="348.5"/>
		</g>
		<g>
			<line class="st1" x1="0" y1="510.5" x2="2000" y2="510.5"/>
		</g>
		<g>
			<line class="st1" x1="0" y1="672.5" x2="2000" y2="672.5"/>
		</g>
		<g>
			<line class="st1" x1="0" y1="834.5" x2="2000" y2="834.5"/>
		</g>
		<g>
			<line class="st1" x1="0" y1="245.5" x2="2000" y2="245.5"/>
		</g>
		<g>
			<line class="st1" x1="0" y1="407.5" x2="2000" y2="407.5"/>
		</g>
		<g>
			<line class="st1" x1="0" y1="569.5" x2="2000" y2="569.5"/>
		</g>
		<g>
			<line class="st1" x1="0" y1="731.5" x2="2000" y2="731.5"/>
		</g>
		<g>
			<line class="st1" x1="0" y1="893.5" x2="2000" y2="893.5"/>
		</g>
		<g>
			<line class="st1" x1="0" y1="996.5" x2="2000" y2="996.5"/>
		</g>
	</g>
</g>
<g>
	<g>
		<path class="st2" d="M327.8,83.6h85.5V88h-40.5v98.4h-4.4V88h-40.5V83.6z"/>
		<path class="st2" d="M442.5,187.9c-21.9,0-37.3-15.1-37.3-36.7s15.4-36.7,37.3-36.7s37.3,15.1,37.3,36.7S464.4,187.9,442.5,187.9z
			 M442.5,118.8c-20.3,0-32.9,14.2-32.9,32.3s12.6,32.3,32.9,32.3c20.3,0,32.9-14.2,32.9-32.3S462.8,118.8,442.5,118.8z"/>
		<path class="st2" d="M500.4,150v36.4H496V83.6h4.4v65.9l46.8-33.6h6.8l-46.7,33.8l49.9,36.7h-6.8L500.4,150z"/>
		<path class="st2" d="M570.4,154.4c0,21.4,13.1,29.1,28.2,29.1c19.2,0,28.2-14.2,28.2-29.7v-37.9h4.4v70.6
			c0,22.2-14.7,30.7-32,30.7c-19.7,0-31.6-10.4-31.6-24.4h4.4c0,12.6,11.2,20,27.2,20c14.5,0,27.6-6.5,27.6-26.3v-14.4h-0.3
			c0,0-6.3,15.7-28.5,15.7c-17.5,0-32-9.5-32-33v-38.9h4.4V154.4z"/>
		<path class="st2" d="M684.7,187.9c-21.9,0-37.3-15.1-37.3-36.7s15.4-36.7,37.3-36.7s37.3,15.1,37.3,36.7S706.6,187.9,684.7,187.9z
			 M684.7,118.8c-20.3,0-32.9,14.2-32.9,32.3s12.6,32.3,32.9,32.3c20.3,0,32.9-14.2,32.9-32.3S704.9,118.8,684.7,118.8z"/>
		<path class="st2" d="M326.2,314.8c0,6.3-1.6,11.2-1.6,11.2l14.8,18.9l-5,4.3L321.7,333h-0.1c0,0-7.2,16.9-31,16.9
			c-23.2,0-35.7-15.9-35.7-35.1c0-29.2,26.1-34.1,26.1-34.1l-21.7-28v-7h67v6.2h-58.9v0.3l52.1,67.3c0,0,0.3-1.9,0.3-4.6v-34.1h6.5
			V314.8z M290.5,343.7c21.6,0,26.6-16.6,26.6-16.6l-31.7-40.8c0,0-23.9,2.5-23.9,28.5C261.4,330.5,271.9,343.7,290.5,343.7z"/>
		<path class="st2" d="M452.5,348.4h-72.7V245.6h6.6v96.6h66.1V348.4z"/>
		<path class="st2" d="M491,349.9c-21.9,0-37.7-15.1-37.7-36.7s15.9-36.7,37.7-36.7s37.7,15.1,37.7,36.7S512.9,349.9,491,349.9z
			 M491,282.3c-19.1,0-31.4,13.7-31.4,30.8S471.9,344,491,344s31.4-13.7,31.4-30.8S510.1,282.3,491,282.3z"/>
		<path class="st2" d="M587.5,278v6.2c0,0-3.7-1.5-9.4-1.5c-18.8,0-27.6,14.4-27.6,30.7v35h-6.3v-70.5h6.3v14.4h0.4
			c0,0,6.3-15.9,27.6-15.9C583.3,276.4,587.5,278,587.5,278z"/>
		<path class="st2" d="M596.1,317.5c0,0,2.3,26.4,32.2,26.4c21,0,26.4-12.6,26.4-12.6h7.2c0,0-7,18.5-33.6,18.5
			c-22.9,0-38.6-15.1-38.6-36.7s15.9-36.7,37.7-36.7s37.7,15.1,37.7,36.7c0,1.5-0.3,4.4-0.3,4.4H596.1z M596,311.7h62.9
			c0-15.1-12.3-29.4-31.4-29.4S596,295.8,596,311.7z"/>
		<path class="st2" d="M684.7,283.8h-12.9v-5.9h12.9v-17.6h6.3v17.6h30v5.9h-30v39.9c0,15.6,9.3,20.3,19.2,20.3c7.8,0,12.9-4,12.9-4
			v6.2c0,0-5.4,3.7-13.8,3.7c-12.6,0-24.7-6.8-24.7-25.4V283.8z"/>
		<path class="st2" d="M764.6,349.9c-21.9,0-37.7-15.1-37.7-36.7s15.9-36.7,37.7-36.7s37.7,15.1,37.7,36.7S786.4,349.9,764.6,349.9z
			 M764.6,282.3c-19.1,0-31.4,13.7-31.4,30.8s12.3,30.8,31.4,30.8s31.4-13.7,31.4-30.8S783.6,282.3,764.6,282.3z"/>
		<path class="st2" d="M203.1,418.2h-0.3v92.2h-9.7V407.6h15.3l60.9,92.2h0.3v-92.2h9.7v102.8h-15.1L203.1,418.2z"/>
		<path class="st2" d="M363.2,498c-0.1,0-7.8,13.8-29.2,13.8c-21.4,0-37.7-15.3-37.7-37.4c0-22.2,16.3-37.4,37.7-37.4
			c21.4,0,29.1,13.8,29.2,13.8h0.6v-12.3h9.1v55.5c0,7,2.1,9.4,7,9.4c3.1,0,4.4-0.9,4.4-0.9v7.9c0,0-1.9,1-5.9,1
			c-14,0-14.7-13.4-14.7-13.4H363.2z M334.7,503c17,0,29.1-11.7,29.1-28.6s-12-28.6-29.1-28.6c-17.5,0-29.1,12.6-29.1,28.6
			S317.2,503,334.7,503z"/>
		<path class="st2" d="M401.5,473.7v36.7h-9.1V407.6h9.1v65.5l41.7-34.7h12.2l-41.7,35l44.6,37h-12.2L401.5,473.7z"/>
		<path class="st2" d="M524.6,498c-0.1,0-7.8,13.8-29.2,13.8s-37.7-15.3-37.7-37.4c0-22.2,16.3-37.4,37.7-37.4s29.1,13.8,29.2,13.8
			h0.6v-12.3h9.1v55.5c0,7,2.1,9.4,7,9.4c3.1,0,4.4-0.9,4.4-0.9v7.9c0,0-1.9,1-5.9,1c-14,0-14.7-13.4-14.7-13.4H524.6z M496.1,503
			c17,0,29.1-11.7,29.1-28.6s-12-28.6-29.1-28.6c-17.5,0-29.1,12.6-29.1,28.6S478.6,503,496.1,503z"/>
		<path class="st2" d="M550.9,474.4c0-22.2,16.3-37.4,37.7-37.4c21.4,0,29.1,13.8,29.2,13.8h0.6v-12.3h9.1v68.9
			c0,23.5-17.9,33.9-37.2,33.9c-28,0-35.7-18.5-35.7-24.7h9.4c0,5.7,7.3,16.2,26.3,16.2c14.7,0,28-7.5,28-25.4V498h-0.6
			c-0.1,0-7.8,13.8-29.2,13.8C567.2,511.9,550.9,496.6,550.9,474.4z M589.4,503c17,0,29.1-11.7,29.1-28.6s-12-28.6-29.1-28.6
			c-17.5,0-29.1,12.6-29.1,28.6S571.9,503,589.4,503z"/>
		<path class="st2" d="M709.2,498c-0.1,0-7.8,13.8-29.2,13.8s-37.7-15.3-37.7-37.4c0-22.2,16.3-37.4,37.7-37.4s29.1,13.8,29.2,13.8
			h0.6v-12.3h9.1v55.5c0,7,2.1,9.4,7,9.4c3.1,0,4.4-0.9,4.4-0.9v7.9c0,0-1.9,1-5.9,1c-14,0-14.7-13.4-14.7-13.4H709.2z M680.7,503
			c17,0,29.1-11.7,29.1-28.6s-12-28.6-29.1-28.6c-17.5,0-29.1,12.6-29.1,28.6S663.2,503,680.7,503z"/>
		<path class="st2" d="M783.9,438.3v9.5c0,0-4-1.5-10.1-1.5c-17.5,0-26.3,14-26.3,29.4v34.7h-9.1v-72h9.1V453h0.6
			c0,0,6.2-16,26.9-16C780,437,783.9,438.3,783.9,438.3z"/>
		<path class="st2" d="M853.8,498c-0.1,0-7.8,13.8-29.2,13.8c-21.4,0-37.7-15.3-37.7-37.4c0-22.2,16.3-37.4,37.7-37.4
			c21.4,0,29.1,13.8,29.2,13.8h0.6v-12.3h9.1v55.5c0,7,2.1,9.4,7,9.4c3.1,0,4.4-0.9,4.4-0.9v7.9c0,0-1.9,1-5.9,1
			c-14,0-14.7-13.4-14.7-13.4H853.8z M825.4,503c17,0,29.1-11.7,29.1-28.6s-12-28.6-29.1-28.6c-17.5,0-29.1,12.6-29.1,28.6
			S807.9,503,825.4,503z"/>
		<path class="st2" d="M258.2,672.4h-46.8V569.6h46.6c22.9,0,34.5,9.5,34.5,27.9c0,16.4-15,20.7-15,20.7v0.7c0,0,20.3,2.8,20.3,24.5
			C297.7,663.6,285.4,672.4,258.2,672.4z M255.9,584.6h-26.3v28.5h26.3c10.9,0,17.5-4,17.5-14.2C273.3,589,267.2,584.6,255.9,584.6z
			 M258.7,627.4h-29.1v30h29.1c13.8,0,20-5.1,20-15C278.6,632.1,272.2,627.4,258.7,627.4z"/>
		<path class="st2" d="M324.9,642.3c0,0,2.3,17.3,22.9,17.3c13.2,0,18.2-7.8,18.2-7.8h19.4c0,0-6.9,22-37.6,22
			c-23.3,0-40.5-13.8-40.5-37.4s17.2-37.4,40.5-37.4s40.5,13.8,40.5,37.4c0,3.4-0.4,5.9-0.4,5.9H324.9z M325,629.4h45.2
			c0,0-1.6-16.2-22.5-16.2C327.5,613.2,325,629.4,325,629.4z"/>
		<path class="st2" d="M399.8,569.6h16.4v75.8c0,10.3,3.7,13.5,10.9,13.5c3.7,0,6-1.2,6-1.2v14.7c0,0-3.4,1.5-9.7,1.5
			c-14.5,0-23.6-7.8-23.6-26.1V569.6z"/>
		<path class="st2" d="M433.1,636.4c0-23.6,17.8-37.4,38.3-37.4c17.6,0,25,10.9,25,10.9h0.7v-9.4h16.4v65.3
			c0,25.7-15.9,37.4-39.9,37.4c-34.7,0-38.5-24.2-38.5-24.2h18.1c0,0,3.7,9.3,20.4,9.3c14.7,0,23.5-7.5,23.5-22.5V663h-0.7
			c0,0-7.3,10.9-25,10.9C450.9,673.9,433.1,660,433.1,636.4z M473.6,658.9c14.1,0,23.5-9.3,23.5-22.5s-9.4-22.5-23.5-22.5
			s-23.5,9.3-23.5,22.5S459.5,658.9,473.6,658.9z"/>
		<path class="st2" d="M579.8,599.8V618c0,0-4.4-1.8-11.7-1.8c-15.1,0-23.3,10.4-23.3,23.5v32.6h-16.4v-72h16.4v13.8h1
			c0,0,6-15.3,26-15.3C576.1,599,579.8,599.8,579.8,599.8z"/>
		<path class="st2" d="M645.3,662.3c0,0-7.3,11.6-25,11.6c-20.6,0-38.3-13.8-38.3-37.4s17.8-37.4,38.3-37.4c17.6,0,25,10.9,25,10.9
			h0.7v-9.4h16.4v49.8c0,6.6,1.5,9,5.6,9c2.5,0,3.7-0.7,3.7-0.7v14.1c0,0-2.5,1.3-7.8,1.3c-14.7,0-17.9-11.6-17.9-11.6H645.3z
			 M622.6,658.9c13.8,0,23.5-8.5,23.5-22.5c0-13.2-9.4-22.5-23.5-22.5s-23.5,9.3-23.5,22.5S608.5,658.9,622.6,658.9z"/>
		<path class="st2" d="M676.2,636.4c0-23.6,17.8-37.4,38.3-37.4c17.6,0,25,10.9,25,10.9h0.7v-40.2h16.4v102.8h-16.4V663h-0.7
			c0,0-7.3,10.9-25,10.9C693.9,673.9,676.2,660,676.2,636.4z M716.7,658.9c14.1,0,23.5-9.3,23.5-22.5s-9.4-22.5-23.5-22.5
			s-23.5,9.3-23.5,22.5S702.6,658.9,716.7,658.9z"/>
		<path class="st2" d="M786,642.3c0,0,2.3,17.3,22.9,17.3c13.2,0,18.2-7.8,18.2-7.8h19.4c0,0-6.9,22-37.6,22
			c-23.3,0-40.5-13.8-40.5-37.4s17.2-37.4,40.5-37.4c23.3,0,40.5,13.8,40.5,37.4c0,3.4-0.4,5.9-0.4,5.9H786z M786.1,629.4h45.2
			c0,0-1.6-16.2-22.5-16.2C788.6,613.2,786.1,629.4,786.1,629.4z"/>
		<path class="st2" d="M353.6,834.4h-24.4l-7.2-17.8h-49.6l-7,17.8H241l41.4-102.8h29.8L353.6,834.4z M297.9,754.5h-1.5L280,797.8
			h34.4L297.9,754.5z"/>
		<path class="st2" d="M415,797.4c0-12.8-7.5-19.1-18.6-19.1c-12.3,0-18.7,8.1-18.7,19.1v37h-21.1V731.6h21.1v41.6h1.2
			c0,0,5.7-13.7,26.4-13.7c17.3,0,30.8,9.7,30.8,32v42.9H415V797.4z"/>
		<path class="st2" d="M507.1,797.4c0-12.8-7.5-19.1-18.6-19.1c-12.3,0-18.7,8.1-18.7,19.1v37h-21.1V761h21.1v12.2h1.2
			c0,0,5.7-13.7,26.4-13.7c17.3,0,30.8,9.7,30.8,32v42.9h-21.1V797.4z"/>
		<path class="st2" d="M559.9,803.3c0,8.1,6.5,16.2,20,16.2c12.5,0,16.4-7.3,16.4-7.3h23.2c0,0-4.4,23.8-39.7,23.8
			c-24.5,0-42.1-13.7-42.1-38.2c0-24.5,17.6-38.2,41.9-38.2c24.1,0,41.7,13.7,41.7,38.2c0,2.6-0.4,5.6-0.4,5.6H559.9z M560.2,790.3
			h38.6c0-5.9-5.7-14.4-19.2-14.4C566.4,775.9,560.2,784.5,560.2,790.3z"/>
		<path class="st2" d="M679.8,835.9c-19.1,0-26-13.5-26-13.5h-1v12h-21.1V731.6h21.1v38.3h0.9c0,0,7.6-10.4,26.1-10.4
			c19.4,0,35.5,13.8,35.5,38.2S699.1,835.9,679.8,835.9z M673.1,778.3c-12.3,0-20.4,7.9-20.4,19.4c0,11,7.6,19.4,20.4,19.4
			c12.8,0,20.4-8.4,20.4-19.4S685.9,778.3,673.1,778.3z"/>
		<path class="st2" d="M784,822.2h-1.2c0,0-5.7,13.7-26.4,13.7c-17.3,0-30.8-9.7-30.8-32V761h21.1v37c0,12.8,7.5,19.1,18.7,19.1
			c12.3,0,18.7-8.1,18.7-19.1v-37h21.1v62.4c0,29.1-17,41.9-48.6,41.9c-9.1,0-16-2.8-16-2.8V845c0,0,6.3,2.6,16,2.6
			c18.1,0,27.5-9.3,27.5-24.2V822.2z"/>
		<path class="st2" d="M319.5,893.6h30.3l-36.1,68.1v34.7h-31.7v-34.7l-36.1-68.1h30.3l20.7,43.6h2.1L319.5,893.6z"/>
		<path class="st2" d="M351.8,970.5c8.8,0,14.5,5.1,14.5,13.7s-5.7,13.7-14.5,13.7c-8.8,0-14.5-5.1-14.5-13.7S343,970.5,351.8,970.5
			z"/>
		<path class="st2" d="M438.5,940.1l14.2-46.6h44.3v102.8h-27.9v-64.8l4-14h-2.8l-4.8,14l-13.1,41.6h-32.6l-13.1-41.6l-4.8-14h-2.8
			l4,14v64.8h-27.9V893.6h44.3l14.2,46.6l1.2,13.7h2.3L438.5,940.1z"/>
		<path class="st2" d="M593.4,959.7c0,25.3-17.9,38.2-43,38.2s-43-12.9-43-38.2c0-25.3,17.9-38.2,43-38.2S593.4,934.4,593.4,959.7z
			 M567.3,959.7c0-9.7-6.8-16.2-16.9-16.2s-16.9,6.5-16.9,16.2c0,9.7,6.8,16.2,16.9,16.2S567.3,969.4,567.3,959.7z"/>
		<path class="st2" d="M606.3,942.6h-10v-13.2l22.2-21.1h13.4V923h20.9v19.7h-20.9v21.7c0,10,5.6,12.6,13.4,12.6
			c5.7,0,9.7-2.2,9.7-2.2v20.6c0,0-5,2.5-13.7,2.5c-23.3,0-35-8.8-35-30.1V942.6z"/>
		<path class="st2" d="M667.9,942.6h-10v-13.2l22.2-21.1h13.4V923h20.9v19.7h-20.9v21.7c0,10,5.6,12.6,13.4,12.6
			c5.7,0,9.7-2.2,9.7-2.2v20.6c0,0-5,2.5-13.7,2.5c-23.3,0-35-8.8-35-30.1V942.6z"/>
		<path class="st2" d="M804,959.7c0,25.3-17.9,38.2-43,38.2s-43-12.9-43-38.2c0-25.3,17.9-38.2,43-38.2S804,934.4,804,959.7z
			 M777.8,959.7c0-9.7-6.8-16.2-16.9-16.2s-16.9,6.5-16.9,16.2c0,9.7,6.8,16.2,16.9,16.2S777.8,969.4,777.8,959.7z"/>
	</g>
</g>
<g>
	<g>
		<path class="st2" d="M976.7,145.1c0-6.3,11.6-5.5,11.6-10.8c0-2.3-1.9-3.5-4.8-3.5c-2.8,0-4.8,1.2-4.8,3.7v0.5h-1.6v-0.5
			c0-3.3,2.6-5.2,6.3-5.2c3.7,0,6.3,1.8,6.3,4.9c0,6.4-11.6,5.8-11.6,10.7H990v1.4h-13.3V145.1z"/>
		<path class="st2" d="M992,138c0-4.8,2.8-8.6,7.5-8.6s7.5,3.8,7.5,8.6c0,4.8-2.8,8.6-7.5,8.6S992,142.8,992,138z M993.6,138
			c0,4,2.1,7.2,5.9,7.2s5.9-3.2,5.9-7.2c0-4-2.1-7.2-5.9-7.2S993.6,134,993.6,138z"/>
		<path class="st2" d="M1009.2,138c0-4.8,2.8-8.6,7.5-8.6s7.5,3.8,7.5,8.6c0,4.8-2.8,8.6-7.5,8.6S1009.2,142.8,1009.2,138z
			 M1010.8,138c0,4,2.1,7.2,5.9,7.2s5.9-3.2,5.9-7.2c0-4-2.1-7.2-5.9-7.2S1010.8,134,1010.8,138z"/>
		<path class="st2" d="M983.3,308.6c-3.8,0-6.5-1.9-6.5-5.4v-0.4h1.6v0.4c0,2.6,2,3.9,4.9,3.9c2.9,0,4.9-1.3,4.9-3.9
			c0-2.6-2-3.8-4.9-3.8h-4v-1.6l7.4-4.8v0h-9.3v-1.4h11.7v1.6l-7.4,4.8v0h1.6c3.8,0,6.5,1.8,6.5,5.3
			C989.8,306.7,987.1,308.6,983.3,308.6z"/>
		<path class="st2" d="M991.9,300c0-4.8,2.8-8.6,7.5-8.6s7.5,3.8,7.5,8.6c0,4.8-2.8,8.6-7.5,8.6S991.9,304.8,991.9,300z M993.5,300
			c0,4,2.1,7.2,5.9,7.2s5.9-3.2,5.9-7.2c0-4-2.1-7.2-5.9-7.2S993.5,296,993.5,300z"/>
		<path class="st2" d="M1009.1,300c0-4.8,2.8-8.6,7.5-8.6s7.5,3.8,7.5,8.6c0,4.8-2.8,8.6-7.5,8.6S1009.1,304.8,1009.1,300z
			 M1010.7,300c0,4,2.1,7.2,5.9,7.2s5.9-3.2,5.9-7.2c0-4-2.1-7.2-5.9-7.2S1010.7,296,1010.7,300z"/>
		<path class="st2" d="M986.4,466.2h-10.3v-1.5l9.7-11.1h2.1v11.2h2.4v1.4H988v4.2h-1.6V466.2z M986.4,464.7v-9.5h0l-8.4,9.5v0.1
			H986.4z"/>
		<path class="st2" d="M991.7,462c0-4.8,2.8-8.6,7.5-8.6s7.5,3.8,7.5,8.6c0,4.8-2.8,8.6-7.5,8.6S991.7,466.8,991.7,462z M993.3,462
			c0,4,2.1,7.2,5.9,7.2s5.9-3.2,5.9-7.2c0-4-2.1-7.2-5.9-7.2S993.3,458,993.3,462z"/>
		<path class="st2" d="M1008.9,462c0-4.8,2.8-8.6,7.5-8.6s7.5,3.8,7.5,8.6c0,4.8-2.8,8.6-7.5,8.6S1008.9,466.8,1008.9,462z
			 M1010.5,462c0,4,2.1,7.2,5.9,7.2s5.9-3.2,5.9-7.2c0-4-2.1-7.2-5.9-7.2S1010.5,458,1010.5,462z"/>
		<path class="st2" d="M983.7,632.6c-4.8,0-6.4-3-6.4-4.9h1.6c0,1.2,1.1,3.5,4.8,3.5c2.9,0,4.9-1.5,4.9-4.2c0-2.8-2-4.3-4.9-4.3
			c-3.8,0-4.6,2.4-4.6,2.4h-1.6v-9.5H989v1.4h-10v5.9h0c0,0,1.3-1.6,4.7-1.6c3.7,0,6.4,2.1,6.4,5.7S987.5,632.6,983.7,632.6z"/>
		<path class="st2" d="M992.1,624c0-4.8,2.8-8.6,7.5-8.6s7.5,3.8,7.5,8.6s-2.8,8.6-7.5,8.6S992.1,628.8,992.1,624z M993.7,624
			c0,4,2.1,7.2,5.9,7.2s5.9-3.2,5.9-7.2s-2.1-7.2-5.9-7.2S993.7,620,993.7,624z"/>
		<path class="st2" d="M1009.3,624c0-4.8,2.8-8.6,7.5-8.6s7.5,3.8,7.5,8.6s-2.8,8.6-7.5,8.6S1009.3,628.8,1009.3,624z M1011,624
			c0,4,2.1,7.2,5.9,7.2s5.9-3.2,5.9-7.2s-2.1-7.2-5.9-7.2S1011,620,1011,624z"/>
		<path class="st2" d="M977.5,777.6h12.3v1.6l-8.6,15.2h-1.7l8.7-15.4h-10.7V777.6z"/>
		<path class="st2" d="M990.3,786c0-4.8,2.8-8.6,7.5-8.6s7.5,3.8,7.5,8.6s-2.8,8.6-7.5,8.6S990.3,790.8,990.3,786z M991.9,786
			c0,4,2.1,7.2,5.9,7.2s5.9-3.2,5.9-7.2s-2.1-7.2-5.9-7.2S991.9,782,991.9,786z"/>
		<path class="st2" d="M1007.5,786c0-4.8,2.8-8.6,7.5-8.6s7.5,3.8,7.5,8.6s-2.8,8.6-7.5,8.6S1007.5,790.8,1007.5,786z M1009.2,786
			c0,4,2.1,7.2,5.9,7.2s5.9-3.2,5.9-7.2s-2.1-7.2-5.9-7.2S1009.2,782,1009.2,786z"/>
		<path class="st2" d="M978.5,952c0,0,0.9,3.1,4.6,3.1c3.8,0,5.3-3.3,5.3-7.3h0c0,0-1.2,2.7-5.4,2.7c-3.6,0-6.3-2.3-6.3-5.6
			c0-3.5,2.6-5.6,6.5-5.6c4.5,0,6.8,3.1,6.8,7.8v0.8c0,4.7-2.2,8.7-6.9,8.7c-4.8,0-6.3-3.9-6.3-4.6H978.5z M978.3,945
			c0,2.6,2.1,4.1,4.9,4.1c2.6,0,4.8-1.7,4.8-4.1c0-2.5-2-4.1-4.8-4.1C980.3,940.8,978.3,942.4,978.3,945z"/>
		<path class="st2" d="M992.3,948c0-4.8,2.8-8.6,7.5-8.6s7.5,3.8,7.5,8.6s-2.8,8.6-7.5,8.6S992.3,952.8,992.3,948z M994,948
			c0,4,2.1,7.2,5.9,7.2s5.9-3.2,5.9-7.2s-2.1-7.2-5.9-7.2S994,944,994,948z"/>
		<path class="st2" d="M1009.6,948c0-4.8,2.8-8.6,7.5-8.6s7.5,3.8,7.5,8.6s-2.8,8.6-7.5,8.6S1009.6,952.8,1009.6,948z M1011.2,948
			c0,4,2.1,7.2,5.9,7.2s5.9-3.2,5.9-7.2s-2.1-7.2-5.9-7.2S1011.2,944,1011.2,948z"/>
	</g>
</g>
<g>
	<g>
		<path class="st3" d="M1299.7,83.6h85.5l-0.9,4.4h-40.5l-20.9,98.4h-4.4l20.9-98.4h-40.5L1299.7,83.6z"/>
		<path class="st3" d="M1392.8,187.9c-18.8,0-31-12.2-31-29.5c0-25.4,18.8-43.9,45.7-43.9c18.8,0,30.8,12.2,30.8,29.5
			C1438.3,168.9,1418.1,187.9,1392.8,187.9z M1406.9,118.8c-23.3,0-40.5,17.9-40.5,38.5c0,14.8,9.5,26.1,26.9,26.1
			c23.3,0,40.5-17.9,40.5-38.5C1433.8,130.1,1424.2,118.8,1406.9,118.8z"/>
		<path class="st3" d="M1506.9,186.4h-6.3l-42.3-36.4l-7.8,36.4h-4.4L1468,83.6h4.4l-14.1,65.9l54-33.6h7.2l-54.5,34.2L1506.9,186.4
			z"/>
		<path class="st3" d="M1518.7,115.9h4.4l17.6,68.3l48.3-68.3h5.1l-52,73.6c-12.3,17.6-20.1,27.8-31.7,27.8c-3.8,0-7-1.5-7-1.5
			l0.9-4.4c0,0,2.9,1.5,6.6,1.5c9.1,0,16.6-10,25.8-22.9l0.7-1L1518.7,115.9z"/>
		<path class="st3" d="M1617,187.9c-18.8,0-31-12.2-31-29.5c0-25.4,18.8-43.9,45.7-43.9c18.8,0,30.8,12.2,30.8,29.5
			C1662.6,168.9,1642.3,187.9,1617,187.9z M1631.1,118.8c-23.3,0-40.5,17.9-40.5,38.5c0,14.8,9.5,26.1,26.9,26.1
			c23.3,0,40.5-17.9,40.5-38.5C1658,130.1,1648.5,118.8,1631.1,118.8z"/>
		<path class="st3" d="M1274.7,311.7c-1.8,8.2-5.1,14.8-5.1,14.8l11,19.1l-5.4,3.5l-9.4-16.2h-0.1c0,0-9.3,16.9-33,16.9
			c-18.2,0-30.7-12.5-30.7-29.5c0-33.2,34.4-39.6,34.4-39.6l-15.9-28l1.6-7h67l-1.3,6.2h-60.4l-0.1,0.3l38.6,67.7
			c0,0,1.8-4.6,2.5-8.1l6.8-31h6.5L1274.7,311.7z M1233.3,343.7c21.6,0,29.2-16.6,29.2-16.6l-23.1-40.8c0,0-30.8,3.7-30.8,34.2
			C1208.6,333,1217.4,343.7,1233.3,343.7z"/>
		<path class="st3" d="M1393.3,348.4h-72.7l21.9-102.8h6.6l-20.6,96.6h66.1L1393.3,348.4z"/>
		<path class="st3" d="M1432.8,349.9c-18.9,0-32.2-12.5-32.2-30c0-25,20.1-43.5,45.2-43.5c18.9,0,32.2,12.5,32.2,30
			C1478.1,331.3,1457.9,349.9,1432.8,349.9z M1445.9,282.3c-21.9,0-38.8,17-38.8,36.7c0,14.1,9.3,25,25.7,25c22,0,38.8-17,38.8-36.7
			C1471.6,293.2,1462.3,282.3,1445.9,282.3z"/>
		<path class="st3" d="M1543.3,278l-1.3,6.2c0,0-3.4-1.5-9.1-1.5c-18.8,0-30.7,14.4-34.1,30.7l-7.5,35h-6.3l15-70.5h6.3l-3.1,14.4
			h0.4c0,0,9.7-15.9,31-15.9C1539.4,276.4,1543.3,278,1543.3,278z"/>
		<path class="st3" d="M1544.6,317.5c0,0-0.1,0.9-0.1,2.2c0,6.3,2.5,24.2,26.4,24.2c19.5,0,29.1-12.6,29.1-12.6h7.2
			c0,0-11,18.5-36.3,18.5c-21,0-33-12.5-33-30c0-25,20.1-43.5,45.2-43.5c18.9,0,32.2,12.2,32.2,29.7c0,7.5-2.2,11.5-2.2,11.5H1544.6
			z M1545.2,311.7h63.1c0.4-1.9,0.6-3.8,0.6-5.7c0-12.8-9.1-23.6-25.8-23.6C1563.5,282.3,1548.4,295.8,1545.2,311.7z"/>
		<path class="st3" d="M1639.9,283.8H1627l1.3-5.9h12.9l3.7-17.6h6.3l-3.7,17.6h30l-1.3,5.9h-30l-8.5,39.9c-0.6,2.3-0.7,4.4-0.7,6.3
			c0,10.6,7.2,14,15.7,14c7.8,0,13.8-4,13.8-4l-1.3,6.2c0,0-6.3,3.7-14.7,3.7c-11.7,0-20-7-20-18.9c0-2.1,0.3-4.3,0.7-6.5
			L1639.9,283.8z"/>
		<path class="st3" d="M1707.1,349.9c-18.9,0-32.2-12.5-32.2-30c0-25,20.1-43.5,45.2-43.5c18.9,0,32.2,12.5,32.2,30
			C1752.4,331.3,1732.3,349.9,1707.1,349.9z M1720.2,282.3c-21.9,0-38.8,17-38.8,36.7c0,14.1,9.3,25,25.7,25c22,0,38.8-17,38.8-36.7
			C1745.9,293.2,1736.7,282.3,1720.2,282.3z"/>
		<path class="st3" d="M1188,418.2h-0.3l-19.5,92.2h-9.7l21.9-102.8h12.6l43.9,92.2h0.3l19.7-92.2h9.7l-21.9,102.8H1232L1188,418.2z
			"/>
		<path class="st3" d="M1302.8,469.3c17.2,0,25.6,7.5,25.6,7.5l2.8-13.2c0.3-1.3,0.4-2.6,0.4-3.8c0-9.7-9-14.2-20-14.2
			c-13.1,0-25.4,6.2-27,14h-9.1c2.5-10.4,15.1-22.5,37.6-22.5c15.1,0,27.9,6.5,27.9,20.6c0,1.9-0.3,3.8-0.7,6l-6.5,30.4
			c-0.3,1.8-0.6,3.2-0.6,4.4c0,3.7,1.8,5,5.6,5c3.1,0,4.6-0.9,4.6-0.9l-1.6,7.9c0,0-2.1,1-6,1c-11.7,0-11.7-8.7-12.2-8.7
			c0,0-10.9,9.1-29.2,9.1c-16.4,0-29.8-5.1-29.8-17.8C1264.5,476.9,1283.1,469.3,1302.8,469.3z M1297.2,503.3
			c16.7,0,26.9-7.9,27.2-8.2l2.2-10.1c-0.3-0.4-7-7.2-23.9-7.2c-14.2,0-28.5,3.5-28.5,14.7C1274.2,500.7,1285.2,503.3,1297.2,503.3z
			"/>
		<path class="st3" d="M1415.1,510.4h-11.6l-36.9-36.7l-7.8,36.7h-9.1l21.9-102.8h9.1l-14,65.5l49-34.7h12.6l-49.6,35.4
			L1415.1,510.4z"/>
		<path class="st3" d="M1456.2,469.3c17.2,0,25.6,7.5,25.6,7.5l2.8-13.2c0.3-1.3,0.4-2.6,0.4-3.8c0-9.7-9-14.2-20-14.2
			c-13.1,0-25.4,6.2-27,14h-9.1c2.5-10.4,15.1-22.5,37.6-22.5c15.1,0,27.9,6.5,27.9,20.6c0,1.9-0.3,3.8-0.7,6l-6.5,30.4
			c-0.3,1.8-0.6,3.2-0.6,4.4c0,3.7,1.8,5,5.6,5c3.1,0,4.6-0.9,4.6-0.9l-1.6,7.9c0,0-2.1,1-6,1c-11.7,0-11.7-8.7-12.2-8.7
			c0,0-10.9,9.1-29.2,9.1c-16.4,0-29.8-5.1-29.8-17.8C1417.9,476.9,1436.6,469.3,1456.2,469.3z M1450.7,503.3
			c16.7,0,26.9-7.9,27.2-8.2l2.2-10.1c-0.3-0.4-7-7.2-23.9-7.2c-14.2,0-28.5,3.5-28.5,14.7C1427.6,500.7,1438.6,503.3,1450.7,503.3z
			"/>
		<path class="st3" d="M1546.1,437h39.6l-1.9,8.8h-15.7l-0.1,0.4c0,0,4.6,4.3,4.6,12.2c0,15.6-16.2,25.6-36.4,25.6
			c-10.3,0-21,1.6-21,7.8c0,4.6,8.1,6.6,17.9,6.6c18.9,0,31,7.3,31,18.7c0,14.8-17.2,24.2-40.1,24.2c-19.1,0-31.1-6.9-31.1-18.5
			c0-15.6,19.5-21.3,19.5-21.3l0.1-0.3c0,0-6.9-1.8-6.9-8.4c0-9.1,12.8-12.5,12.8-12.5V480c0,0-9.1-4.8-9.1-16
			C1509.3,445.6,1528.4,437,1546.1,437z M1531.1,507.2c-17.3,0-28.8,6-28.8,14.1c0,6.9,9,11.2,23.3,11.2c16.7,0,28.8-5.4,28.8-14
			C1554.5,511.7,1545.4,507.2,1531.1,507.2z M1544.2,445.8c-14.2,0-25.3,6-25.3,17.3c0,7.9,7.5,12,18.9,12c14.1,0,25.1-5.6,25.1-17
			C1563,450,1555.4,445.8,1544.2,445.8z"/>
		<path class="st3" d="M1616.5,469.3c17.2,0,25.6,7.5,25.6,7.5l2.8-13.2c0.3-1.3,0.4-2.6,0.4-3.8c0-9.7-9-14.2-20-14.2
			c-13.1,0-25.4,6.2-27,14h-9.1c2.5-10.4,15.1-22.5,37.6-22.5c15.1,0,27.9,6.5,27.9,20.6c0,1.9-0.3,3.8-0.7,6l-6.5,30.4
			c-0.3,1.8-0.6,3.2-0.6,4.4c0,3.7,1.8,5,5.6,5c3.1,0,4.6-0.9,4.6-0.9l-1.6,7.9c0,0-2.1,1-6,1c-11.7,0-11.7-8.7-12.2-8.7
			c0,0-10.9,9.1-29.2,9.1c-16.4,0-29.8-5.1-29.8-17.8C1578.1,476.9,1596.8,469.3,1616.5,469.3z M1610.9,503.3
			c16.7,0,26.9-7.9,27.2-8.2l2.2-10.1c-0.3-0.4-7-7.2-23.9-7.2c-14.2,0-28.5,3.5-28.5,14.7C1587.8,500.7,1598.8,503.3,1610.9,503.3z
			"/>
		<path class="st3" d="M1724.3,438.3l-1.9,9.5c0,0-3.7-1.5-9.8-1.5c-17.5,0-29.4,14-32.6,29.4l-7.3,34.7h-9.1l15.3-72h9.1l-3.1,14.5
			h0.6c0,0,9.5-16,30.3-16C1720.6,437,1724.3,438.3,1724.3,438.3z"/>
		<path class="st3" d="M1753.2,469.3c17.2,0,25.6,7.5,25.6,7.5l2.8-13.2c0.3-1.3,0.4-2.6,0.4-3.8c0-9.7-9-14.2-20-14.2
			c-13.1,0-25.4,6.2-27,14h-9.1c2.5-10.4,15.1-22.5,37.6-22.5c15.1,0,27.9,6.5,27.9,20.6c0,1.9-0.3,3.8-0.7,6l-6.5,30.4
			c-0.3,1.8-0.6,3.2-0.6,4.4c0,3.7,1.8,5,5.6,5c3.1,0,4.6-0.9,4.6-0.9l-1.6,7.9c0,0-2.1,1-6,1c-11.7,0-11.7-8.7-12.2-8.7
			c0,0-10.9,9.1-29.2,9.1c-16.4,0-29.8-5.1-29.8-17.8C1714.9,476.9,1733.5,469.3,1753.2,469.3z M1747.6,503.3
			c16.7,0,26.9-7.9,27.2-8.2l2.2-10.1c-0.3-0.4-7-7.2-23.9-7.2c-14.2,0-28.5,3.5-28.5,14.7C1724.5,500.7,1735.6,503.3,1747.6,503.3z
			"/>
		<path class="st3" d="M1210.8,672.4h-46.8l21.9-102.8h46.6c19.5,0,29.4,8.7,29.4,22.9c0,23.1-20.3,25.7-20.3,25.7l-0.1,0.7
			c0,0,15.9,3.8,15.9,20.1C1257.2,660.2,1242.5,672.4,1210.8,672.4z M1220.8,627.4h-29.1l-6.3,30h29.1c16.7,0,23.6-6.9,23.6-18.4
			C1238.1,631.3,1232.4,627.4,1220.8,627.4z M1227.1,584.6h-26.3l-6,28.5h26.3c13.1,0,21-5.3,21-17.5
			C1242.1,588.1,1236.8,584.6,1227.1,584.6z"/>
		<path class="st3" d="M1283.8,642.3c0,0,0.3,17.3,19.2,17.3c13.2,0,20-7.8,20-7.8h19.4c0,0-10.3,22-41,22c-21.7,0-35-12.3-35-30.1
			c0-27.5,20.7-44.8,47.7-44.8c20.3,0,35.4,11.2,35.4,30.1c0,7.8-2.8,13.2-2.8,13.2H1283.8z M1286.7,629.4h45.2
			c0,0,0-16.2-19.1-16.2C1292.6,613.2,1286.7,629.4,1286.7,629.4z"/>
		<path class="st3" d="M1369.1,672.4h-16.4l21.9-102.8h16.4L1369.1,672.4z"/>
		<path class="st3" d="M1430.3,599h43.3l-2.8,13.2h-13.5v0.3c0,0,1.9,3.7,1.9,8.8c0,17.5-17.2,25.8-39.2,25.8
			c-10.3,0-18.6,1.3-18.6,6.8c0,4,6.6,5.3,16.2,5.3c20.4,0,34.8,5.4,34.8,18.7c0,18.1-19.2,25.4-44.2,25.4
			c-20.4,0-34.8-5.3-34.8-18.7c0-16.6,18.2-21.3,18.2-21.3l0.1-0.4c0,0-4.7-2.5-4.7-7.9c0-9.4,11.6-12.8,11.6-12.8v-0.4
			c0,0-7.5-5-7.5-15.3c0-1.6,0.1-3.2,0.6-5C1394.9,605.9,1410.7,599,1430.3,599z M1390.7,682.2c0,5.4,7.6,7.8,20.3,7.8
			c14.8,0,24.1-2.9,24.1-9.8c0-5.6-7.6-7.8-20.3-7.8C1399.9,672.4,1390.7,675.2,1390.7,682.2z M1408.4,624.7c0,5.3,4.8,9.3,14.5,9.3
			c11.9,0,19.1-5.6,19.1-12.5c0-5.4-5-9.3-14.5-9.3C1415.5,612.2,1408.4,617.6,1408.4,624.7z"/>
		<path class="st3" d="M1530.9,599.8l-3.8,18.2c0,0-4.1-1.8-11.5-1.8c-15.1,0-25.6,10.4-28.3,23.5l-6.9,32.6H1464l15.3-72h16.4
			l-2.9,13.8h1c0,0,9.3-15.3,29.2-15.3C1527.4,599,1530.9,599.8,1530.9,599.8z"/>
		<path class="st3" d="M1558.5,629.8c16.4,0,25,6.9,25,6.9l2.2-10.4c0.1-1,0.3-1.9,0.3-2.9c0-5.7-4.1-10.9-16.3-10.9
			c-10.9,0-19.4,3.5-21,10.7h-17c4-17,19.4-24.2,39.4-24.2c18.2,0,31.9,6.8,31.9,21c0,1.9-0.3,4.1-0.7,6.3l-5.1,23.9
			c-0.4,1.9-0.6,3.4-0.6,4.7c0,3.1,1.3,4.3,4.3,4.3c2.5,0,3.8-0.7,3.8-0.7l-2.9,14.1c0,0-2.8,1.3-8.1,1.3c-13.4,0-14.2-9.4-14.2-9.4
			h-0.9c0,0-7.3,9.4-28.2,9.4c-17.2,0-28.6-6.9-28.6-19.5C1521.5,636.8,1538.9,629.8,1558.5,629.8z M1579.7,654.5l1.5-6.9
			c0,0-5-4.6-19.5-4.6c-11.5,0-22.6,1.8-22.6,9.7c0,6.2,9.1,7.6,18.8,7.6C1572,660.3,1579.7,654.5,1579.7,654.5z"/>
		<path class="st3" d="M1612.6,643.7c0-29.1,23.6-44.8,47.3-44.8c17.6,0,22.6,10.9,22.6,10.9h0.7l8.5-40.2h16.4l-21.7,102.8H1670
			l1.9-9.4h-0.7c0,0-9.5,10.9-27.2,10.9C1626.2,673.9,1612.6,661.2,1612.6,643.7z M1649.3,658.9c16.3,0,28.9-11.6,28.9-26.9
			c0-10.7-7.2-18.1-19.4-18.1c-16.3,0-28.8,11.6-28.8,26.9C1630,651.5,1637.1,658.9,1649.3,658.9z"/>
		<path class="st3" d="M1722.1,642.3c0,0,0.3,17.3,19.2,17.3c13.2,0,20-7.8,20-7.8h19.4c0,0-10.3,22-41,22c-21.7,0-35-12.3-35-30.1
			c0-27.5,20.7-44.8,47.7-44.8c20.3,0,35.4,11.2,35.4,30.1c0,7.8-2.8,13.2-2.8,13.2H1722.1z M1725.1,629.4h45.2
			c0,0,0-16.2-19.1-16.2C1730.9,613.2,1725.1,629.4,1725.1,629.4z"/>
		<path class="st3" d="M1302.9,834.4h-23.2l-3.4-17.8h-49.6l-10.9,17.8h-25.6l63.3-102.8h29.8L1302.9,834.4z M1265.5,754.5h-1.5
			l-25.7,43.3h34.4L1265.5,754.5z"/>
		<path class="st3" d="M1372.3,797.4c0.4-2.1,0.6-3.8,0.6-5.4c0-9.1-5.9-13.7-15.3-13.7c-12.3,0-20.3,8.1-22.6,19.1l-7.9,37h-21.1
			l21.9-102.8h21.1l-8.8,41.6h1.2c0,0,8.5-13.7,29.2-13.7c14.7,0,25.1,6.9,25.1,22.6c0,2.8-0.3,6-1,9.4l-9.1,42.9h-21.1
			L1372.3,797.4z"/>
		<path class="st3" d="M1464.3,797.4c0.4-2.1,0.6-3.8,0.6-5.4c0-9.1-5.9-13.7-15.3-13.7c-12.3,0-20.3,8.1-22.6,19.1l-7.9,37H1398
			l15.6-73.4h21.1l-2.5,12.2h1.2c0,0,8.5-13.7,29.2-13.7c14.7,0,25.1,6.9,25.1,22.6c0,2.8-0.3,6-1,9.4l-9.1,42.9h-21.1L1464.3,797.4
			z"/>
		<path class="st3" d="M1515.9,803.3c-0.3,1-0.3,2.1-0.3,3.1c0,6.9,5.1,13.1,16.9,13.1c12.5,0,17.9-7.3,17.9-7.3h23.2
			c0,0-8.7,23.8-43.9,23.8c-21.3,0-35.8-11.9-35.8-31.4c0-28.5,22.2-44.9,50.2-44.9c20.9,0,35.4,11,35.4,30.5
			c0,8.4-2.6,13.2-2.6,13.2H1515.9z M1519,790.3h38.6c0.1-0.6,0.1-1.3,0.1-2.1c0-5.6-4.3-12.3-16.3-12.3
			C1528.2,775.9,1520.1,784.5,1519,790.3z"/>
		<path class="st3" d="M1629.4,835.9c-19.1,0-23.8-13.5-23.8-13.5h-1l-2.5,12h-21.1l21.9-102.8h21.1l-8.2,38.3h0.9
			c0,0,9-10.4,27.5-10.4c16.4,0,29.5,11.7,29.5,30.7C1673.6,819,1652.1,835.9,1629.4,835.9z M1634.4,778.3c-14.2,0-25,10-25,23.2
			c0,9,5.9,15.6,16.7,15.6c14.8,0,25.1-10.6,25.1-23.2C1651.3,784.9,1645.2,778.3,1634.4,778.3z"/>
		<path class="st3" d="M1710,812.4h1.2l30.4-51.4h22.5l-46.7,74.9c-12.9,20.7-23.5,29.4-39.2,29.4c-5.7,0-11.7-1.5-11.7-1.5l4-18.5
			c0,0,3.7,1.8,9.5,1.8c6.3,0,11.2-3.5,16.3-11.9l-19.7-74.2h21.3L1710,812.4z"/>
		<path class="st3" d="M1281.9,893.6h31l-50.7,68.1l-7.3,34.7h-31.7l7.3-34.7l-21.6-68.1h29.5l11.5,43.6h2.1L1281.9,893.6z"/>
		<path class="st3" d="M1298.5,970.5c7.6,0,12,4.1,12,10.9c0,9.8-7.5,16.4-17.8,16.4c-7.5,0-12-4.1-12-10.9
			C1280.7,977.1,1288.2,970.5,1298.5,970.5z"/>
		<path class="st3" d="M1390.7,940.1l24.2-46.6h45.2l-21.9,102.8h-27.9l13.8-64.8l6.9-14h-2.8l-7.8,14l-21.9,41.6H1366l-4.3-41.6
			l-1.9-14h-2.8l1,14l-13.8,64.8h-27.9l21.9-102.8h43.5l4.3,46.6l-1.6,13.7h2.3L1390.7,940.1z"/>
		<path class="st3" d="M1543.6,953.1c0,27.2-20.4,44.8-51.1,44.8c-21.7,0-37.2-11.6-37.2-31.4c0-27.3,20.4-44.9,51.3-44.9
			C1528.3,921.5,1543.6,933.2,1543.6,953.1z M1516.8,956.4c0-7.8-5.3-12.9-14-12.9c-11.7,0-20.9,8.2-20.9,19.4
			c0,7.8,5.3,12.9,14,12.9C1507.6,975.8,1516.8,967.6,1516.8,956.4z"/>
		<path class="st3" d="M1559,942.6h-10l2.8-13.2l26.7-21.1h13.4l-3.2,14.7h20.7l-4.1,19.7h-20.7l-4.6,21.7c-0.3,1.6-0.6,3.1-0.6,4.3
			c0,6.5,4.7,8.4,11.2,8.4c5.7,0,10.1-2.2,10.1-2.2l-4.3,20.6c0,0-5.6,2.5-14.2,2.5c-19.7,0-29.5-6.3-29.5-20.9c0-2.8,0.3-5.9,1-9.3
			L1559,942.6z"/>
		<path class="st3" d="M1620.5,942.6h-10l2.8-13.2l26.7-21.1h13.4l-3.2,14.7h20.7l-4.1,19.7h-20.7l-4.6,21.7
			c-0.3,1.6-0.6,3.1-0.6,4.3c0,6.5,4.7,8.4,11.2,8.4c5.7,0,10.1-2.2,10.1-2.2l-4.3,20.6c0,0-5.6,2.5-14.2,2.5
			c-19.7,0-29.5-6.3-29.5-20.9c0-2.8,0.3-5.9,1-9.3L1620.5,942.6z"/>
		<path class="st3" d="M1754.1,953.1c0,27.2-20.4,44.8-51.1,44.8c-21.7,0-37.2-11.6-37.2-31.4c0-27.3,20.4-44.9,51.3-44.9
			C1738.9,921.5,1754.1,933.2,1754.1,953.1z M1727.4,956.4c0-7.8-5.3-12.9-14-12.9c-11.7,0-20.9,8.2-20.9,19.4
			c0,7.8,5.3,12.9,14,12.9C1718.2,975.8,1727.4,967.6,1727.4,956.4z"/>
	</g>
</g>
</svg>
