<?xml version="1.0" encoding="utf-8"?>
<!-- Generator: Adobe Illustrator 22.0.0, SVG Export Plug-In . SVG Version: 6.00 Build 0)  -->
<svg version="1.1" id="Layer_1" xmlns="http://www.w3.org/2000/svg" xmlns:xlink="http://www.w3.org/1999/xlink" x="0px" y="0px"
	 viewBox="0 0 2000 1100" style="enable-background:new 0 0 2000 1100;" xml:space="preserve">
<style type="text/css">
	.st0{fill:#F7F7F7;}
	.st1{fill:#00D76F;}
	.st2{fill:#FECE00;}
	.st3{fill:#00302D;}
	.st4{fill:none;stroke:#00302D;stroke-miterlimit:10;}
</style>
<rect class="st0" width="2000" height="1100"/>
<polygon class="st1" points="0,954.8 1279.2,954.8 1279.2,863.8 1456.8,863.8 1456.8,777.3 1635.8,777.3 1635.8,681.7 1813.4,681.7 
	1813.4,595.2 2000,595.2 2000,1099 0,1099 "/>
<g>
	<g>
		<polygon class="st2" points="1279.2,904.8 48.6,904.8 0,954.8 1279.2,954.8 		"/>
		<polygon class="st2" points="1456.8,863.8 1279.2,863.8 1327.8,815.2 1456.8,815.2 		"/>
		<polygon class="st2" points="1635.8,777.3 1456.8,777.3 1505.3,728.7 1635.8,728.7 		"/>
		<polygon class="st2" points="1813.4,681.7 1635.8,681.7 1684.4,633.1 1813.4,633.1 		"/>
		<polygon class="st2" points="2000,595.2 1813.4,595.2 1861.9,546.6 2000,546.6 		"/>
	</g>
</g>
<g>
	<path class="st3" d="M425.2,383.1c82.1,0,109.7,61.6,109.7,61.6h5.1v-55.2h111.7v201.5c0,23.1,5.8,29.5,18,29.5
		c7.1,0,11.6-1.9,11.6-1.9v91.8c0,0-12.8,6.4-45.6,6.4c-76.4,0-90.5-62.3-90.5-62.3h-5.1c-1.3,3.9-25.7,62.3-114.9,62.3
		c-80.9,0-149.5-57.1-149.5-166.9S344.3,383.1,425.2,383.1z M465,619.3c46.2,0,75.1-27,75.1-69.3c0-40.4-27-69.3-75.1-69.3
		c-47.5,0-75.1,28.9-75.1,69.3S417.5,619.3,465,619.3z"/>
	<path class="st3" d="M961.8,383.1c82.1,0,109.7,61.6,109.7,61.6h5.1v-55.2h111.7v320.9h-111.7v-35.3h-4.5c0,0-31.4,41.7-110.4,41.7
		c-80.9,0-149.5-57.1-149.5-166.9S881,383.1,961.8,383.1z M1001.6,619.3c46.2,0,75.1-27,75.1-69.3c0-40.4-27-69.3-75.1-69.3
		c-47.5,0-75.1,28.9-75.1,69.3S954.1,619.3,1001.6,619.3z"/>
	<path class="st3" d="M1466.3,520.5c73.2,0,98.8,23.7,98.8,23.7v-44.3c0-19.3-10.9-39.8-55.2-39.8c-37.9,0-55.2,15.4-55.2,35.9
		h-114.2c0-76.4,66.1-112.9,170.7-112.9c105.2,0,165.6,35.9,165.6,116.8v91.1c0,23.1,5.8,29.5,18,29.5c7.1,0,11.6-1.9,11.6-1.9v91.8
		c0,0-12.8,6.4-45.6,6.4c-66.7,0-84.1-48.1-84.1-48.1h-5.1c0,1.3-19.9,48.1-117.4,48.1c-70.6,0-130.3-30.2-130.3-98.2
		C1323.9,548.1,1389.3,520.5,1466.3,520.5z M1438.1,613.5c0,20.5,25.7,26.3,62.3,26.3s62.3-5.8,62.3-26.3s-25.7-26.3-62.3-26.3
		S1438.1,593,1438.1,613.5z"/>
	<g>
		<path class="st3" d="M277.8,314.2c0-5.7,3.3-10.1,8.9-10.1s8.9,4.3,8.9,10.1c0,5.7-3.3,10.1-8.9,10.1S277.8,320,277.8,314.2z
			 M280.5,314.2c0,4.3,2.1,7.7,6.2,7.7s6.2-3.4,6.2-7.7c0-4.3-2.1-7.7-6.2-7.7S280.5,310,280.5,314.2z"/>
		<path class="st3" d="M299.2,321.9c0-6.7,13.1-6.4,13.1-11.8c0-2.4-1.8-3.5-4.9-3.5s-4.9,1.2-4.9,3.9v0.6h-2.6v-0.6
			c0-4,3-6.3,7.6-6.3s7.6,2.3,7.6,5.9c0,7.2-12.9,7.2-12.9,11.6h13v2.3h-15.8V321.9z"/>
		<path class="st3" d="M317.7,321.7h3.1v-14.9H318v-2.3h5.4v17.2h3.1v2.3h-8.8V321.7z"/>
		<path class="st3" d="M277.7,338c0-2.9,2.8-4.1,6.3-4.1c3.5,0,6.3,1.3,6.3,4.7h-2.5c0-1.6-1.1-2.5-3.9-2.5c-2.8,0-3.9,0.8-3.9,1.9
			c0,3.4,10.6-0.3,10.6,5.8c0,3.2-3.2,4.3-6.7,4.3c-3.5,0-6.7-1.3-6.7-4.7v-0.4h2.5v0.4c0,1.6,1.4,2.5,4.2,2.5s4.2-0.7,4.2-2.1
			C288.3,340.2,277.7,344,277.7,338z"/>
		<path class="st3" d="M308.7,342.1h-12.4c0,1.2,1.6,3.7,5.1,3.7c3.1,0,4.2-1.8,4.2-1.8h2.8c0,0-1.3,4-7,4c-4.4,0-7.7-2.8-7.7-7.1
			c0-4.4,3.2-7.1,7.5-7.1s7.5,2.8,7.5,7.1C308.8,341.6,308.7,342.1,308.7,342.1z M296.3,339.9h9.9c0-1.3-1.6-3.9-5-3.9
			C297.9,336.1,296.3,338.6,296.3,339.9z"/>
		<path class="st3" d="M316,342.5c0,2.7,1.3,3.5,3.1,3.5c1.6,0,2.4-0.6,2.4-0.6v2.2c0,0-1.1,0.6-2.7,0.6c-3.1,0-5.2-1.6-5.2-5.3
			v-6.5h-2.3v-2.2h2.3v-3.1h2.4v3.1h5.1v2.2H316V342.5z"/>
		<path class="st3" d="M324.5,338c0-5.7,3.3-10.1,8.9-10.1s8.9,4.3,8.9,10.1c0,5.7-3.3,10.1-8.9,10.1S324.5,343.8,324.5,338z
			 M327.2,338c0,4.3,2.1,7.7,6.2,7.7s6.2-3.4,6.2-7.7c0-4.3-2.1-7.7-6.2-7.7S327.2,333.8,327.2,338z"/>
		<path class="st3" d="M345.4,345.5h3.1v-14.9h-2.8v-2.3h5.4v17.2h3.1v2.3h-8.8V345.5z"/>
	</g>
	<g>
		<path class="st3" d="M813.8,314.2c0-5.7,3.3-10.1,8.9-10.1s8.9,4.3,8.9,10.1c0,5.7-3.3,10.1-8.9,10.1S813.8,320,813.8,314.2z
			 M816.5,314.2c0,4.3,2.1,7.7,6.2,7.7s6.2-3.4,6.2-7.7c0-4.3-2.1-7.7-6.2-7.7S816.5,310,816.5,314.2z"/>
		<path class="st3" d="M835.2,321.9c0-6.7,13.1-6.4,13.1-11.8c0-2.4-1.8-3.5-4.9-3.5s-4.9,1.2-4.9,3.9v0.6h-2.6v-0.6
			c0-4,3-6.3,7.6-6.3s7.6,2.3,7.6,5.9c0,7.2-12.9,7.2-12.9,11.6h13v2.3h-15.8V321.9z"/>
		<path class="st3" d="M853.7,321.7h3.1v-14.9H854v-2.3h5.4v17.2h3.1v2.3h-8.8V321.7z"/>
		<path class="st3" d="M813.7,338c0-2.9,2.8-4.1,6.3-4.1c3.5,0,6.3,1.3,6.3,4.7h-2.5c0-1.6-1.1-2.5-3.9-2.5c-2.8,0-3.9,0.8-3.9,1.9
			c0,3.4,10.6-0.3,10.6,5.8c0,3.2-3.2,4.3-6.7,4.3c-3.5,0-6.7-1.3-6.7-4.7v-0.4h2.5v0.4c0,1.6,1.4,2.5,4.2,2.5s4.2-0.7,4.2-2.1
			C824.3,340.2,813.7,344,813.7,338z"/>
		<path class="st3" d="M844.7,342.1h-12.4c0,1.2,1.6,3.7,5.1,3.7c3.1,0,4.2-1.8,4.2-1.8h2.8c0,0-1.3,4-7,4c-4.4,0-7.7-2.8-7.7-7.1
			c0-4.4,3.2-7.1,7.5-7.1s7.5,2.8,7.5,7.1C844.8,341.6,844.7,342.1,844.7,342.1z M832.3,339.9h9.9c0-1.3-1.6-3.9-5-3.9
			C833.9,336.1,832.3,338.6,832.3,339.9z"/>
		<path class="st3" d="M852,342.5c0,2.7,1.3,3.5,3.1,3.5c1.6,0,2.4-0.6,2.4-0.6v2.2c0,0-1.1,0.6-2.7,0.6c-3.1,0-5.2-1.6-5.2-5.3
			v-6.5h-2.3v-2.2h2.3v-3.1h2.4v3.1h5.1v2.2H852V342.5z"/>
		<path class="st3" d="M860.5,338c0-5.7,3.3-10.1,8.9-10.1s8.9,4.3,8.9,10.1c0,5.7-3.3,10.1-8.9,10.1S860.5,343.8,860.5,338z
			 M863.2,338c0,4.3,2.1,7.7,6.2,7.7s6.2-3.4,6.2-7.7c0-4.3-2.1-7.7-6.2-7.7S863.2,333.8,863.2,338z"/>
		<path class="st3" d="M881.8,345.8c0-6.7,13.1-6.4,13.1-11.8c0-2.4-1.8-3.5-4.9-3.5c-3.1,0-4.9,1.2-4.9,3.9v0.6h-2.6v-0.6
			c0-4,3-6.3,7.6-6.3s7.6,2.3,7.6,5.9c0,7.2-12.9,7.2-12.9,11.6h13v2.3h-15.8V345.8z"/>
	</g>
	<g>
		<path class="st3" d="M1325.8,314.2c0-5.7,3.3-10.1,8.9-10.1c5.7,0,8.9,4.3,8.9,10.1c0,5.7-3.3,10.1-8.9,10.1
			C1329.1,324.3,1325.8,320,1325.8,314.2z M1328.5,314.2c0,4.3,2.1,7.7,6.2,7.7c4.1,0,6.2-3.4,6.2-7.7c0-4.3-2.1-7.7-6.2-7.7
			C1330.7,306.6,1328.5,310,1328.5,314.2z"/>
		<path class="st3" d="M1347.2,321.9c0-6.7,13.1-6.4,13.1-11.8c0-2.4-1.8-3.5-4.9-3.5s-4.9,1.2-4.9,3.9v0.6h-2.6v-0.6
			c0-4,3-6.3,7.6-6.3s7.6,2.3,7.6,5.9c0,7.2-12.9,7.2-12.9,11.6h13v2.3h-15.8V321.9z"/>
		<path class="st3" d="M1365.7,321.7h3.1v-14.9h-2.8v-2.3h5.4v17.2h3.1v2.3h-8.8V321.7z"/>
		<path class="st3" d="M1325.7,338c0-2.9,2.8-4.1,6.3-4.1c3.5,0,6.3,1.3,6.3,4.7h-2.5c0-1.6-1.1-2.5-3.9-2.5c-2.8,0-3.9,0.8-3.9,1.9
			c0,3.4,10.6-0.3,10.6,5.8c0,3.2-3.2,4.3-6.7,4.3c-3.5,0-6.7-1.3-6.7-4.7v-0.4h2.5v0.4c0,1.6,1.4,2.5,4.2,2.5
			c2.8,0,4.2-0.7,4.2-2.1C1336.3,340.2,1325.7,344,1325.7,338z"/>
		<path class="st3" d="M1356.7,342.1h-12.4c0,1.2,1.6,3.7,5.1,3.7c3.1,0,4.2-1.8,4.2-1.8h2.8c0,0-1.3,4-7,4c-4.4,0-7.7-2.8-7.7-7.1
			c0-4.4,3.2-7.1,7.5-7.1s7.5,2.8,7.5,7.1C1356.8,341.6,1356.7,342.1,1356.7,342.1z M1344.3,339.9h9.9c0-1.3-1.6-3.9-5-3.9
			C1345.9,336.1,1344.3,338.6,1344.3,339.9z"/>
		<path class="st3" d="M1364,342.5c0,2.7,1.3,3.5,3.1,3.5c1.6,0,2.4-0.6,2.4-0.6v2.2c0,0-1.1,0.6-2.7,0.6c-3.1,0-5.2-1.6-5.2-5.3
			v-6.5h-2.3v-2.2h2.3v-3.1h2.4v3.1h5.1v2.2h-5.1V342.5z"/>
		<path class="st3" d="M1372.5,338c0-5.7,3.3-10.1,8.9-10.1c5.7,0,8.9,4.3,8.9,10.1c0,5.7-3.3,10.1-8.9,10.1
			C1375.7,348.1,1372.5,343.8,1372.5,338z M1375.2,338c0,4.3,2.1,7.7,6.2,7.7c4.1,0,6.2-3.4,6.2-7.7c0-4.3-2.1-7.7-6.2-7.7
			C1377.3,330.4,1375.2,333.8,1375.2,338z"/>
		<path class="st3" d="M1401.8,348.1c-4.6,0-7.8-2.3-7.8-6.3v-0.5h2.6v0.5c0,2.7,2.1,3.9,5.2,3.9c3.1,0,5.2-1.3,5.2-3.9
			c0-2.7-2.1-3.9-5.2-3.9h-5v-2.3l7.8-4.9v-0.1h-9.9v-2.3h14v2.3l-7.8,4.9v0.1h0.9c4.6,0,7.8,2.2,7.8,6.2
			C1409.6,345.7,1406.4,348.1,1401.8,348.1z"/>
	</g>
	<line class="st4" x1="252" y1="303" x2="252" y2="729"/>
	<line class="st4" x1="783.5" y1="303" x2="783.5" y2="729"/>
	<line class="st4" x1="1298.5" y1="303" x2="1298.5" y2="729"/>
</g>
</svg>
