<?xml version="1.0" encoding="utf-8"?>
<!-- Generator: Adobe Illustrator 22.0.0, SVG Export Plug-In . SVG Version: 6.00 Build 0)  -->
<svg version="1.1" id="Layer_1" xmlns="http://www.w3.org/2000/svg" xmlns:xlink="http://www.w3.org/1999/xlink" x="0px" y="0px"
	 viewBox="0 0 2000 1100" style="enable-background:new 0 0 2000 1100;" xml:space="preserve">
<style type="text/css">
	.st0{fill:#00302D;}
	.st1{fill:#EAE2D2;}
	.st2{fill:none;stroke:#FFBE27;stroke-miterlimit:10;}
	.st3{fill:none;stroke:#EAE2D2;stroke-miterlimit:10;}
	.st4{fill:#FFBE27;}
	.st5{fill:none;stroke:#EAE2D2;stroke-width:0.9138;stroke-miterlimit:10;}
</style>
<rect class="st0" width="2000" height="1100"/>
<g>
	<g>
		<path class="st1" d="M336.3,528.8l62.3-203.4h193.8v449.2H470.4v-283l17.3-61h-12.2l-21.2,61l-57.1,181.6H254.8l-57.1-181.6
			l-21.2-61h-12.2l17.3,61v283H59.7V325.4h193.8l62.3,203.4l5.1,59.7h10.3L336.3,528.8z"/>
	</g>
</g>
<g>
	<path class="st2" d="M319.3,547.8l62.3-203.4h193.8v449.2H453.4v-283l17.3-61h-12.2l-21.2,61l-57.1,181.6H237.8l-57.1-181.6
		l-21.2-61h-12.2l17.3,61v283H42.7V344.4h193.8l62.3,203.4l5.1,59.7h10.3L319.3,547.8z"/>
</g>
<g>
	<g>
		<path class="st1" d="M1645,491l-26.3-60.3h-12.2l21.2,60.3v283.7h-121.9V325.4h197L1817,609l26.3,60.3h12.2l-21.2-60.3V325.4
			h121.9v449.2h-197L1645,491z"/>
	</g>
</g>
<g>
	<path class="st2" d="M1628,512l-26.3-60.3h-12.2l21.2,60.3v283.7h-121.9V346.4h197L1800,630l26.3,60.3h12.2l-21.2-60.3V346.4h121.9
		v449.2h-197L1628,512z"/>
</g>
<line class="st3" x1="625" y1="61" x2="625" y2="1039"/>
<line class="st3" x1="885.5" y1="61" x2="885.5" y2="1039"/>
<line class="st3" x1="1040.5" y1="61" x2="1040.5" y2="1039"/>
<line class="st3" x1="1307.5" y1="61" x2="1307.5" y2="1039"/>
<line class="st3" x1="1454.5" y1="61" x2="1454.5" y2="1039"/>
<g>
	<path class="st1" d="M952.7,161.1v16.7c-16.7,0-49-16.2-49-58.3c0-37.2,25.6-60.2,61.9-60.2c36.3,0,61.9,23,61.9,60.2
		c0,42.1-32.3,58.3-49,58.3v-16.7c0,0,34.2-4.5,34.2-41.6c0-27.7-20.5-43.3-47.1-43.3c-26.7,0-47.1,15.7-47.1,43.3
		C918.5,156.7,952.7,161.1,952.7,161.1z"/>
	<path class="st1" d="M928.6,282.4c-8.6,0-11.4,2.4-11.4,7.2c0,3.4,1,4.8,1,4.8H905c0,0-1.4-2.6-1.4-7.6c0-17.7,14.3-19.3,14.3-19.3
		v-0.7c0,0-14.3-9.5-14.3-32.3c0-24.8,17-44.7,43.9-44.7s43.9,20,43.9,44.7c0,22.9-14.3,32.3-14.3,32.3v0.7h12.6v14.8H928.6z
		 M917.4,236.3c0,18.7,13.2,31.3,30.1,31.3c17.7,0,30.1-12.6,30.1-31.3c0-19.3-12.9-31.3-30.1-31.3S917.4,217,917.4,236.3z"/>
	<path class="st1" d="M905.4,317v-14.8h84.3V317H905.4z M1011,309.6c0-5.5,3.4-9.1,8.3-9.1c4.8,0,8.3,3.6,8.3,9.1s-3.4,9.1-8.3,9.1
		C1014.4,318.7,1011,315.1,1011,309.6z"/>
	<path class="st1" d="M990.2,390.9H974c0,0,1.7-4.8,1.7-12.7c0-18.6-13.6-29.2-30.3-29.2h-40.1v-14.8h84.3V349h-16.3v0.9
		c0,0,18.1,7.4,18.1,31C991.4,386.8,990.2,390.9,990.2,390.9z"/>
	<path class="st1" d="M991.4,439.8c0,26.5-17,46.3-43.9,46.3s-43.9-19.8-43.9-46.3c0-26.5,17-46.3,43.9-46.3
		S991.4,413.3,991.4,439.8z M977.6,439.8c0-19.3-12.9-31.1-30.1-31.1s-30.1,11.9-30.1,31.1s12.9,31.1,30.1,31.1
		S977.6,459,977.6,439.8z"/>
</g>
<g>
	<path class="st1" d="M1323.4,300.9v-17l26.5-10.8v-64.2l-26.5-10.8v-17l120.4,49.2v21.5L1323.4,300.9z M1429.2,241.4v-0.9
		l-64.8-25.8V267L1429.2,241.4z"/>
	<path class="st1" d="M1443.8,307.8v14.8h-91.3c-15,0-17.9,4.6-17.9,12.9c0,4.3,1.4,7.2,1.4,7.2h-12.7c0,0-1.5-3.3-1.5-10
		c0-15.5,8.1-24.9,28-24.9H1443.8z"/>
	<path class="st1" d="M1358.5,436.4v-76.2c-7.6,0-23,10-23,31.3c0,18.9,11.2,25.6,11.2,25.6v17.4c0,0-24.9-8.3-24.9-43
		c0-27.3,17-47.1,43.9-47.1c26.8,0,43.9,19.8,43.9,46.3s-17,46.3-43.9,46.3C1361.4,436.9,1358.5,436.4,1358.5,436.4z M1371.9,360.1
		v61.2c8.3,0,23.7-9.8,23.7-30.6S1380.1,360.1,1371.9,360.1z"/>
	<path class="st1" d="M1367.6,487l-44.2,35.6v-17.2l33.5-27l-33.5-26.8v-17.2l44.2,35.4l40.1-32.2v17.2l-29.4,23.6l29.4,23.7v17.2
		L1367.6,487z"/>
	<path class="st1" d="M1346.6,612.5c-8.6,0-11.4,2.4-11.4,7.2c0,3.4,1,4.8,1,4.8H1323c0,0-1.4-2.6-1.4-7.6
		c0-17.7,14.3-19.3,14.3-19.3v-0.7c0,0-14.3-9.5-14.3-32.3c0-24.8,17-44.7,43.9-44.7c26.8,0,43.9,20,43.9,44.7
		c0,22.9-14.3,32.3-14.3,32.3v0.7h12.6v14.8H1346.6z M1335.4,566.5c0,18.7,13.2,31.3,30.1,31.3c17.7,0,30.1-12.6,30.1-31.3
		c0-19.3-12.9-31.3-30.1-31.3C1348.3,535.1,1335.4,547.2,1335.4,566.5z"/>
	<path class="st1" d="M1366.9,702.2c20.6,0,28.7-11.9,28.7-27.5c0-18.2-12-27.5-28.7-27.5h-43.5v-14.8h84.3v14.8h-12.9v0.9
		c0,0,14.6,7.4,14.6,31c0,20.1-11.7,38-39,38h-47v-14.8H1366.9z"/>
	<path class="st1" d="M1323.4,822.4v-14.8h12.6v-0.7c0,0-14.3-9.5-14.3-32.3c0-24.8,17-44.7,43.9-44.7c26.8,0,43.9,20,43.9,44.7
		c0,22.9-14.3,32.3-14.3,32.3v0.7h48.7v14.8H1323.4z M1335.4,776.3c0,19.3,12.9,31.3,30.1,31.3c17.7,0,30.1-12.6,30.1-31.3
		c0-19.3-12.9-31.3-30.1-31.3C1348.3,745,1335.4,757,1335.4,776.3z"/>
	<path class="st1" d="M1408.2,896.3H1392c0,0,1.7-4.8,1.7-12.7c0-18.6-13.6-29.2-30.3-29.2h-40.1v-14.8h84.3v14.8h-16.3v0.9
		c0,0,18.1,7.4,18.1,31C1409.4,892.2,1408.2,896.3,1408.2,896.3z"/>
	<path class="st1" d="M1323.4,920.6v-14.8h84.3v14.8H1323.4z M1429,913.2c0-5.5,3.4-9.1,8.3-9.1c4.8,0,8.3,3.6,8.3,9.1
		s-3.4,9.1-8.3,9.1C1432.4,922.3,1429,918.7,1429,913.2z"/>
	<path class="st1" d="M1346.6,1026.9c-8.6,0-11.4,2.4-11.4,7.2c0,3.4,1,4.8,1,4.8H1323c0,0-1.4-2.6-1.4-7.6
		c0-17.7,14.3-19.3,14.3-19.3v-0.7c0,0-14.3-9.5-14.3-32.3c0-24.8,17-44.7,43.9-44.7c26.8,0,43.9,20,43.9,44.7
		c0,22.9-14.3,32.3-14.3,32.3v0.7h12.6v14.8H1346.6z M1335.4,980.8c0,18.7,13.2,31.3,30.1,31.3c17.7,0,30.1-12.6,30.1-31.3
		c0-19.3-12.9-31.3-30.1-31.3C1348.3,949.5,1335.4,961.5,1335.4,980.8z"/>
</g>
<g>
	<path class="st1" d="M808.8,309.3V239h-55.4v-16.2h120.4V239h-50.6v70.3h50.6v16.2H753.4v-16.2H808.8z"/>
	<path class="st1" d="M767.1,415.1c0,0-15.5-7.7-15.5-31.3c0-20.5,11.7-38.5,39-38.5h47v14.8h-43.5c-20.6,0-28.7,11.9-28.7,27.5
		c0,18.2,12,27.5,28.7,27.5h43.5v14.8h-61.1c-8.6,0-11.4,2.4-11.4,7.2c0,3.4,1,4.8,1,4.8H753c0,0-1.4-2.6-1.4-7.6
		c0-17.4,15.5-18.4,15.5-18.4V415.1z"/>
	<path class="st1" d="M838.2,506.4H822c0,0,1.7-4.8,1.7-12.7c0-18.6-13.6-29.2-30.3-29.2h-40.1v-14.8h84.3v14.8h-16.3v0.9
		c0,0,18.1,7.4,18.1,31C839.4,502.3,838.2,506.4,838.2,506.4z"/>
	<path class="st1" d="M758,601.6c-27.7,0-40.8-20.6-40.8-44.9c0-40.4,29.2-42.1,29.2-42.1V530c0,0-15.7,1.9-15.7,26.7
		c0,17.2,8.9,30.1,27.2,30.1h7.9v-0.7c0,0-14.3-9.5-14.3-32.3c0-24.8,17-44.7,43.9-44.7s43.9,20,43.9,44.7
		c0,22.9-14.3,32.3-14.3,32.3v0.7h12.6v14.8H758z M765.4,555.5c0,18.7,12.2,30.6,28.7,31.3h2.6c17-0.7,28.9-13.1,28.9-31.3
		c0-19.3-12.9-31.3-30.1-31.3S765.4,536.2,765.4,555.5z"/>
	<path class="st1" d="M796.9,688.6c20.6,0,28.7-11.9,28.7-27.5c0-18.2-12-27.5-28.7-27.5h-43.5v-14.8h120.4v14.8h-49v0.9
		c0,0,14.6,7.4,14.6,31c0,20.1-11.7,38-39,38h-47v-14.8H796.9z"/>
	<path class="st1" d="M776.6,808.8c-8.6,0-11.4,2.4-11.4,7.2c0,3.4,1,4.8,1,4.8H753c0,0-1.4-2.6-1.4-7.6c0-17.7,14.3-19.3,14.3-19.3
		v-0.7c0,0-14.3-9.5-14.3-32.3c0-24.8,17-44.7,43.9-44.7s43.9,20,43.9,44.7c0,22.9-14.3,32.3-14.3,32.3v0.7h12.6v14.8H776.6z
		 M765.4,762.7c0,18.7,13.2,31.3,30.1,31.3c17.7,0,30.1-12.6,30.1-31.3c0-19.3-12.9-31.3-30.1-31.3S765.4,743.5,765.4,762.7z"/>
	<path class="st1" d="M753.4,917.7v-14.8h12.6v-0.7c0,0-14.3-9.5-14.3-32.3c0-24.8,17-44.7,43.9-44.7s43.9,20,43.9,44.7
		c0,22.9-14.3,32.3-14.3,32.3v0.7h48.7v14.8H753.4z M765.4,871.6c0,19.3,12.9,31.3,30.1,31.3c17.7,0,30.1-12.6,30.1-31.3
		c0-19.3-12.9-31.3-30.1-31.3S765.4,852.3,765.4,871.6z"/>
	<path class="st1" d="M776.6,1024c-8.6,0-11.4,2.4-11.4,7.2c0,3.4,1,4.8,1,4.8H753c0,0-1.4-2.6-1.4-7.6c0-17.7,14.3-19.3,14.3-19.3
		v-0.7c0,0-14.3-9.5-14.3-32.3c0-24.8,17-44.7,43.9-44.7s43.9,20,43.9,44.7c0,22.9-14.3,32.3-14.3,32.3v0.7h12.6v14.8H776.6z
		 M765.4,977.9c0,18.7,13.2,31.3,30.1,31.3c17.7,0,30.1-12.6,30.1-31.3c0-19.3-12.9-31.3-30.1-31.3S765.4,958.6,765.4,977.9z"/>
</g>
<g>
	<path class="st4" d="M664.3,60.7v17.6h-1.8v-7.8h-19.1v-2h19.1v-7.8H664.3z"/>
	<path class="st4" d="M658,87.1h-1.9c0,0,0.3-0.8,0.3-2.1c0-3.6-2.8-5.4-6-5.4h-7.1v-1.9H658v1.9h-3v0.1c0,0,3.3,1.3,3.3,5.5
		C658.3,86.3,658,87.1,658,87.1z"/>
	<path class="st4" d="M645.9,101.3c0,0-2.8-1.6-2.8-6c0-4.4,3.1-7.7,7.6-7.7s7.6,3.3,7.6,7.7c0,4.4-2.8,5.9-2.8,6v0.1h2.5v1.9h-11.3
		c-1.4,0-1.9,0.4-1.9,1.4c0,0.6,0.2,0.9,0.2,0.9h-1.6c0,0-0.2-0.4-0.2-1.2c0-2.8,2.7-3,2.7-3V101.3z M644.9,95.5
		c0,3.5,2.4,5.9,5.8,5.9s5.8-2.5,5.8-5.9c0-3.6-2.6-5.9-5.8-5.9S644.9,92,644.9,95.5z"/>
	<path class="st4" d="M643.4,114.2v-2.7l14.7-6.2v1.9l-13.2,5.6v0.1l13.2,5.6v1.9L643.4,114.2z"/>
	<path class="st4" d="M649.5,123.5c-0.6,0-4.7,1.1-4.7,5.9c0,3.5,2.2,4.8,2.2,4.8v2.2c0,0-4-1.7-4-7.1c0-4.6,3.1-7.9,7.6-7.9
		s7.6,3.3,7.6,7.8c0,4.5-3.1,7.8-7.6,7.8c-0.6,0-1.1-0.1-1.1-0.1V123.5z M656.5,129.3c0-4.1-3.3-5.9-5.2-5.9v11.8
		C653.2,135.2,656.5,133.4,656.5,129.3z"/>
	<path class="st4" d="M664.3,140.1v1.9h-16.4c-2.5,0-3.1,0.8-3.1,2.2c0,0.9,0.2,1.3,0.2,1.3h-1.7c0,0-0.3-0.5-0.3-1.6
		c0-2.4,1.3-3.8,4.8-3.8H664.3z"/>
	<path class="st4" d="M651.2,164.5c3.9,0,5.4-2.3,5.4-5.2c0-3.5-2.4-5.2-5.4-5.2h-7.8v-1.9H658v1.9h-2.3v0.1c0,0,2.6,1.3,2.6,5.5
		c0,3.5-2,6.5-6.8,6.5h-8.2v-1.9H651.2z"/>
	<path class="st4" d="M649.5,171.2c-0.6,0-4.7,1.1-4.7,5.9c0,3.5,2.2,4.8,2.2,4.8v2.2c0,0-4-1.7-4-7.1c0-4.6,3.1-7.9,7.6-7.9
		s7.6,3.3,7.6,7.8c0,4.5-3.1,7.8-7.6,7.8c-0.6,0-1.1-0.1-1.1-0.1V171.2z M656.5,177c0-4.1-3.3-5.9-5.2-5.9v11.8
		C653.2,182.9,656.5,181.1,656.5,177z"/>
	<path class="st4" d="M643.4,194.2v-2.7l14.7-6.2v1.9l-13.2,5.6v0.1l13.2,5.6v1.9L643.4,194.2z"/>
	<path class="st4" d="M649.5,203.4c-0.6,0-4.7,1.1-4.7,5.9c0,3.5,2.2,4.8,2.2,4.8v2.2c0,0-4-1.7-4-7.1c0-4.6,3.1-7.9,7.6-7.9
		s7.6,3.3,7.6,7.8c0,4.5-3.1,7.8-7.6,7.8c-0.6,0-1.1-0.1-1.1-0.1V203.4z M656.5,209.2c0-4.1-3.3-5.9-5.2-5.9v11.8
		C653.2,215.1,656.5,213.4,656.5,209.2z"/>
	<path class="st4" d="M658,229.3h-1.9c0,0,0.3-0.8,0.3-2.1c0-3.6-2.8-5.4-6-5.4h-7.1V220H658v1.9h-3v0.1c0,0,3.3,1.3,3.3,5.5
		C658.3,228.5,658,229.3,658,229.3z"/>
	<path class="st4" d="M645.9,243v-0.1h-2.5V241h20.9v1.9h-8.8v0.1c0,0,2.8,1.6,2.8,6c0,4.4-3.1,7.7-7.6,7.7s-7.6-3.3-7.6-7.7
		C643.1,244.5,645.9,243,645.9,243z M656.5,248.8c0-3.5-2.4-5.9-5.8-5.9s-5.8,2.5-5.8,5.9c0,3.6,2.6,5.9,5.8,5.9
		S656.5,252.3,656.5,248.8z"/>
	<path class="st4" d="M645.9,272.6c0,0-2.8-1.6-2.8-6s3.1-7.7,7.6-7.7s7.6,3.3,7.6,7.7s-2.8,5.9-2.8,6v0.1h2.5v1.9h-11.3
		c-1.4,0-1.9,0.4-1.9,1.4c0,0.6,0.2,0.9,0.2,0.9h-1.6c0,0-0.2-0.4-0.2-1.2c0-2.8,2.7-3,2.7-3V272.6z M644.9,266.8
		c0,3.5,2.4,5.9,5.8,5.9s5.8-2.5,5.8-5.9c0-3.6-2.6-5.9-5.8-5.9S644.9,263.3,644.9,266.8z"/>
	<path class="st4" d="M650.7,278c4.5,0,7.6,3.3,7.6,7.7c0,4.4-2.8,5.9-2.8,6v0.1h2.5v1.9h-14c-4.8,0-6.9-3.6-6.9-7.6
		c0-5.7,3.8-7.3,5-7.3v1.9c-1.2,0-3.3,1.5-3.3,5.4c0,3,1.5,5.7,5.2,5.7h1.9v-0.1c0,0-2.8-1.6-2.8-6C643.1,281.3,646.2,278,650.7,278
		z M644.9,285.8c0,3.5,2.4,5.9,5.8,5.9s5.8-2.5,5.8-5.9c0-3.6-2.6-5.9-5.8-5.9S644.9,282.3,644.9,285.8z"/>
	<path class="st4" d="M650.7,296.6c4.5,0,7.6,3.3,7.6,7.7c0,4.4-2.8,5.9-2.8,6v0.1h2.5v1.9h-14c-4.8,0-6.9-3.6-6.9-7.6
		c0-5.7,3.8-7.3,5-7.3v1.9c-1.2,0-3.3,1.5-3.3,5.4c0,3,1.5,5.7,5.2,5.7h1.9v-0.1c0,0-2.8-1.6-2.8-6
		C643.1,299.9,646.2,296.6,650.7,296.6z M644.9,304.4c0,3.5,2.4,5.9,5.8,5.9s5.8-2.5,5.8-5.9c0-3.6-2.6-5.9-5.8-5.9
		S644.9,300.9,644.9,304.4z"/>
	<path class="st4" d="M649.5,317.2c-0.6,0-4.7,1.1-4.7,5.9c0,3.5,2.2,4.8,2.2,4.8v2.2c0,0-4-1.7-4-7.1c0-4.6,3.1-7.9,7.6-7.9
		s7.6,3.3,7.6,7.8c0,4.5-3.1,7.8-7.6,7.8c-0.6,0-1.1-0.1-1.1-0.1V317.2z M656.5,323c0-4.1-3.3-5.9-5.2-5.9v11.8
		C653.2,328.9,656.5,327.1,656.5,323z"/>
	<path class="st4" d="M650.7,333.2c4.5,0,7.6,3.3,7.6,7.7c0,4.4-2.8,5.9-2.8,6v0.1h8.8v1.9h-20.9V347h2.5v-0.1c0,0-2.8-1.6-2.8-6
		C643.1,336.6,646.2,333.2,650.7,333.2z M644.9,341.1c0,3.5,2.4,5.9,5.8,5.9s5.8-2.5,5.8-5.9c0-3.6-2.6-5.9-5.8-5.9
		S644.9,337.5,644.9,341.1z"/>
	<path class="st4" d="M650.7,357.5c4.5,0,7.6,3.3,7.6,7.7s-2.8,5.9-2.8,6v0.1h8.8v1.9h-20.9v-1.9h2.5v-0.1c0,0-2.8-1.6-2.8-6
		S646.2,357.5,650.7,357.5z M644.9,365.4c0,3.5,2.4,5.9,5.8,5.9s5.8-2.5,5.8-5.9c0-3.6-2.6-5.9-5.8-5.9S644.9,361.8,644.9,365.4z"/>
	<path class="st4" d="M658.3,384c0,4.5-3.1,7.8-7.6,7.8s-7.6-3.3-7.6-7.8c0-4.5,3.1-7.8,7.6-7.8S658.3,379.5,658.3,384z M656.5,384
		c0-3.6-2.6-5.9-5.8-5.9s-5.8,2.4-5.8,5.9c0,3.6,2.6,5.9,5.8,5.9S656.5,387.5,656.5,384z"/>
	<path class="st4" d="M656.1,404.2L656.1,404.2l-12.8-4.3v-2.5L658,393v1.9l-12.8,3.8v0.1l12.8,4.2v2.4l-12.8,4.2v0.1l12.8,3.8v1.9
		l-14.7-4.4v-2.5L656.1,404.2z"/>
	<path class="st4" d="M651.2,429.2c3.9,0,5.4-2.3,5.4-5.2c0-3.5-2.4-5.2-5.4-5.2h-7.8V417H658v1.9h-2.3v0.1c0,0,2.6,1.3,2.6,5.5
		c0,3.5-2,6.5-6.8,6.5h-8.2v-1.9H651.2z"/>
</g>
<g>
	<path class="st4" d="M1290.3,427.1v17.6h-1.8v-7.8h-19.1v-2h19.1v-7.8H1290.3z"/>
	<path class="st4" d="M1284,453.5h-1.9c0,0,0.3-0.8,0.3-2.1c0-3.6-2.8-5.4-6-5.4h-7.1v-1.9h14.7v1.9h-3v0.1c0,0,3.3,1.3,3.3,5.5
		C1284.3,452.7,1284,453.5,1284,453.5z"/>
	<path class="st4" d="M1271.9,467.8c0,0-2.8-1.6-2.8-6c0-4.4,3.1-7.7,7.6-7.7s7.6,3.3,7.6,7.7c0,4.4-2.8,5.9-2.8,6v0.1h2.5v1.9
		h-11.3c-1.4,0-1.9,0.4-1.9,1.4c0,0.6,0.2,0.9,0.2,0.9h-1.6c0,0-0.2-0.4-0.2-1.2c0-2.8,2.7-3,2.7-3V467.8z M1270.9,462
		c0,3.5,2.4,5.9,5.8,5.9s5.8-2.5,5.8-5.9c0-3.6-2.6-5.9-5.8-5.9S1270.9,458.4,1270.9,462z"/>
	<path class="st4" d="M1277.2,485.9c3.9,0,5.4-2.3,5.4-5.2c0-3.5-2.4-5.2-5.4-5.2h-7.8v-1.9h14.7v1.9h-2.3v0.1c0,0,2.6,1.3,2.6,5.5
		c0,3.5-2,6.5-6.8,6.5h-8.2v-1.9H1277.2z"/>
	<path class="st4" d="M1280.1,491c2.9,0,4.2,2.8,4.2,6.5s-1.5,6.5-4.8,6.5v-1.9c2,0,3.1-1.6,3.1-4.6c0-3.1-0.9-4.6-2.5-4.6
		c-4,0-0.4,11.6-6.6,11.6c-3.3,0-4.4-3.2-4.4-6.9s1.4-6.9,5-6.9h0.6v1.9h-0.6c-2.2,0-3.3,2-3.3,5.1c0,3,0.7,5.1,2.7,5.1
		C1277.6,502.6,1273.9,491,1280.1,491z"/>
	<path class="st4" d="M1284.3,514.6c0,5.5-4.3,7.7-6,7.7v-1.9c0.6,0,4.2-1.4,4.2-5.7c0-3.6-2.6-5.9-5.8-5.9s-5.8,2.3-5.8,5.9
		c0,4.3,3.6,5.7,4.2,5.7v1.9c-1.6,0-6-2.2-6-7.7c0-4.5,3.1-7.8,7.6-7.8S1284.3,510.1,1284.3,514.6z"/>
	<path class="st4" d="M1284.3,532.3c0,4.5-3.1,7.8-7.6,7.8s-7.6-3.3-7.6-7.8c0-4.5,3.1-7.8,7.6-7.8S1284.3,527.8,1284.3,532.3z
		 M1282.5,532.3c0-3.6-2.6-5.9-5.8-5.9s-5.8,2.4-5.8,5.9c0,3.6,2.6,5.9,5.8,5.9S1282.5,535.9,1282.5,532.3z"/>
	<path class="st4" d="M1277.2,555.4c3.9,0,5.4-2.3,5.4-5.2c0-3.5-2.4-5.2-5.4-5.2h-7.8v-1.9h14.7v1.9h-2.3v0.1c0,0,2.6,1.3,2.6,5.5
		c0,3.5-2,6.5-6.8,6.5h-8.2v-1.9H1277.2z"/>
	<path class="st4" d="M1282.3,561.4v-2.5h1.7v2.5h3.3v1.9h-3.3v5.6h-1.7v-5.6h-7.5c-3,0-4,1.4-4,3.4c0,1.9,0.7,2.8,0.7,2.8h-1.8
		c0,0-0.7-1.1-0.7-3c0-2.8,1.6-5.1,5.5-5.1H1282.3z"/>
	<path class="st4" d="M1269.4,573.6v-1.9h14.7v1.9H1269.4z M1290.6,572.7c0,0.7-0.5,1.2-1.1,1.2s-1.1-0.5-1.1-1.2
		c0-0.7,0.5-1.2,1.1-1.2S1290.6,571.9,1290.6,572.7z"/>
	<path class="st4" d="M1277.2,589.4c3.9,0,5.4-2.3,5.4-5.2c0-3.5-2.4-5.2-5.4-5.2h-7.8v-1.9h14.7v1.9h-2.3v0.1c0,0,2.6,1.3,2.6,5.5
		c0,3.5-2,6.5-6.8,6.5h-8.2v-1.9H1277.2z"/>
	<path class="st4" d="M1275.5,596.1c-0.6,0-4.7,1.1-4.7,5.9c0,3.5,2.2,4.8,2.2,4.8v2.2c0,0-4-1.7-4-7.1c0-4.6,3.1-7.9,7.6-7.9
		s7.6,3.3,7.6,7.8c0,4.5-3.1,7.8-7.6,7.8c-0.6,0-1.1-0.1-1.1-0.1V596.1z M1282.5,601.9c0-4.1-3.3-5.9-5.2-5.9v11.8
		C1279.2,607.8,1282.5,606,1282.5,601.9z"/>
	<path class="st4" d="M1277.2,624.9c3.9,0,5.4-2.3,5.4-5.2c0-3.5-2.4-5.2-5.4-5.2h-7.8v-1.9h14.7v1.9h-2.3v0.1c0,0,2.6,1.3,2.6,5.5
		c0,3.5-2,6.5-6.8,6.5h-8.2v-1.9H1277.2z"/>
	<path class="st4" d="M1282.3,631v-2.5h1.7v2.5h3.3v1.9h-3.3v5.6h-1.7v-5.6h-7.5c-3,0-4,1.4-4,3.4c0,1.9,0.7,2.8,0.7,2.8h-1.8
		c0,0-0.7-1.1-0.7-3c0-2.8,1.6-5.1,5.5-5.1H1282.3z"/>
	<path class="st4" d="M1271.9,653.4c0,0-2.8-1.6-2.8-6c0-4.4,3.1-7.7,7.6-7.7s7.6,3.3,7.6,7.7c0,4.4-2.8,5.9-2.8,6v0.1h2.5v1.9
		h-11.3c-1.4,0-1.9,0.4-1.9,1.4c0,0.6,0.2,0.9,0.2,0.9h-1.6c0,0-0.2-0.4-0.2-1.2c0-2.8,2.7-3,2.7-3V653.4z M1270.9,647.6
		c0,3.5,2.4,5.9,5.8,5.9s5.8-2.5,5.8-5.9c0-3.6-2.6-5.9-5.8-5.9S1270.9,644.1,1270.9,647.6z"/>
	<path class="st4" d="M1290.3,659.4v1.9h-16.4c-2.5,0-3.1,0.8-3.1,2.2c0,0.9,0.2,1.3,0.2,1.3h-1.7c0,0-0.3-0.5-0.3-1.6
		c0-2.4,1.3-3.8,4.8-3.8H1290.3z"/>
	<path class="st4" d="M1284.3,678.7c0,5.5-4.3,7.7-6,7.7v-1.9c0.6,0,4.2-1.4,4.2-5.7c0-3.6-2.6-5.9-5.8-5.9s-5.8,2.3-5.8,5.9
		c0,4.3,3.6,5.7,4.2,5.7v1.9c-1.6,0-6-2.2-6-7.7c0-4.5,3.1-7.8,7.6-7.8S1284.3,674.2,1284.3,678.7z"/>
	<path class="st4" d="M1284.3,696.4c0,4.5-3.1,7.8-7.6,7.8s-7.6-3.3-7.6-7.8c0-4.5,3.1-7.8,7.6-7.8S1284.3,691.9,1284.3,696.4z
		 M1282.5,696.4c0-3.6-2.6-5.9-5.8-5.9s-5.8,2.4-5.8,5.9c0,3.6,2.6,5.9,5.8,5.9S1282.5,700,1282.5,696.4z"/>
	<path class="st4" d="M1271.8,719.4c0,0-2.7-1.3-2.7-5.7c0-3.5,2-6.5,6.8-6.5h8.2v1.9h-7.8c-3.9,0-5.4,2.3-5.4,5.2
		c0,3.4,2.2,5.1,5.2,5.2h8v1.9h-11.3c-1.4,0-1.9,0.4-1.9,1.4c0,0.6,0.2,0.9,0.2,0.9h-1.6c0,0-0.2-0.4-0.2-1.2
		C1269.1,719.6,1271.8,719.5,1271.8,719.4L1271.8,719.4z"/>
	<path class="st4" d="M1277.2,737.5c3.9,0,5.4-2.3,5.4-5.2c0-3.5-2.4-5.2-5.4-5.2h-7.8v-1.9h14.7v1.9h-2.3v0.1c0,0,2.6,1.3,2.6,5.5
		c0,3.5-2,6.5-6.8,6.5h-8.2v-1.9H1277.2z"/>
	<path class="st4" d="M1282.3,743.5V741h1.7v2.5h3.3v1.9h-3.3v5.6h-1.7v-5.6h-7.5c-3,0-4,1.4-4,3.4c0,1.9,0.7,2.8,0.7,2.8h-1.8
		c0,0-0.7-1.1-0.7-3c0-2.8,1.6-5.1,5.5-5.1H1282.3z"/>
	<path class="st4" d="M1284,763.1h-1.9c0,0,0.3-0.8,0.3-2.1c0-3.6-2.8-5.4-6-5.4h-7.1v-1.9h14.7v1.9h-3v0.1c0,0,3.3,1.3,3.3,5.5
		C1284.3,762.3,1284,763.1,1284,763.1z"/>
	<path class="st4" d="M1276.2,766.8c-3.9,0-5.4,2.3-5.4,5.2c0,3.5,2.4,5.2,5.4,5.2h7.8v1.9h-14.4c-4.6,0-6.6-3.2-6.6-6.9
		c0-5.6,3.8-6.7,5-6.7v1.9c-1.2,0-3.3,1.1-3.3,4.8c0,2.8,1.4,5.1,4.8,5.1h2V777c0,0-2.6-1.3-2.6-5.5c0-3.5,2-6.5,6.8-6.5h8.2v1.9
		H1276.2z"/>
	<path class="st4" d="M1249.7,428.8c2.9,0,4.2,2.8,4.2,6.5s-1.5,6.5-4.8,6.5v-1.9c2,0,3.1-1.6,3.1-4.6c0-3.1-0.9-4.6-2.5-4.6
		c-4,0-0.4,11.6-6.6,11.6c-3.3,0-4.4-3.2-4.4-6.9s1.4-6.9,5-6.9h0.6v1.9h-0.6c-2.2,0-3.3,2-3.3,5.1c0,3,0.7,5.1,2.7,5.1
		C1247.3,440.4,1243.5,428.8,1249.7,428.8z"/>
	<path class="st4" d="M1246.3,460.9c-4.5,0-7.6-3.3-7.6-7.7s2.8-5.9,2.8-6v-0.1h-8.5v-1.9h20.6v1.9h-2.5v0.1c0,0,2.8,1.6,2.8,6
		S1250.8,460.9,1246.3,460.9z M1252.1,453.1c0-3.5-2.4-5.9-5.8-5.9s-5.8,2.5-5.8,5.9c0,3.6,2.6,5.9,5.8,5.9
		S1252.1,456.6,1252.1,453.1z"/>
	<path class="st4" d="M1241.5,476.9c0,0-2.8-1.6-2.8-6c0-4.4,3.1-7.7,7.6-7.7c4.5,0,7.6,3.3,7.6,7.7c0,4.4-2.8,5.9-2.8,6v0.1h2.5
		v1.9h-11.3c-1.4,0-1.9,0.4-1.9,1.4c0,0.6,0.2,0.9,0.2,0.9h-1.6c0,0-0.2-0.4-0.2-1.2c0-2.8,2.7-3,2.7-3V476.9z M1240.5,471.1
		c0,3.5,2.4,5.9,5.8,5.9s5.8-2.5,5.8-5.9c0-3.6-2.6-5.9-5.8-5.9S1240.5,467.6,1240.5,471.1z"/>
	<path class="st4" d="M1246.8,495.1c3.9,0,5.4-2.3,5.4-5.2c0-3.5-2.4-5.2-5.4-5.2h-7.8v-1.9h14.7v1.9h-2.3v0.1c0,0,2.6,1.3,2.6,5.5
		c0,3.5-2,6.5-6.8,6.5h-8.2v-1.9H1246.8z"/>
	<path class="st4" d="M1246.8,512.6c3.9,0,5.4-2.3,5.4-5.2c0-3.5-2.4-5.2-5.4-5.2h-7.8v-1.9h14.7v1.9h-2.3v0.1c0,0,2.6,1.3,2.6,5.5
		c0,3.5-2,6.5-6.8,6.5h-8.2v-1.9H1246.8z"/>
	<path class="st4" d="M1239,519.7v-1.9h14.7v1.9H1239z M1260.2,518.8c0,0.7-0.5,1.2-1.1,1.2s-1.1-0.5-1.1-1.2c0-0.7,0.5-1.2,1.1-1.2
		S1260.2,518,1260.2,518.8z"/>
	<path class="st4" d="M1246.8,535.5c3.9,0,5.4-2.3,5.4-5.2c0-3.5-2.4-5.2-5.4-5.2h-7.8v-1.9h14.7v1.9h-2.3v0.1c0,0,2.6,1.3,2.6,5.5
		c0,3.5-2,6.5-6.8,6.5h-8.2v-1.9H1246.8z"/>
	<path class="st4" d="M1246.3,540.2c4.5,0,7.6,3.3,7.6,7.7c0,4.4-2.8,5.9-2.8,6v0.1h2.5v1.9h-14c-4.8,0-6.9-3.6-6.9-7.6
		c0-5.7,3.8-7.3,5-7.3v1.9c-1.2,0-3.3,1.5-3.3,5.4c0,3,1.5,5.7,5.2,5.7h1.9v-0.1c0,0-2.8-1.6-2.8-6
		C1238.7,543.5,1241.8,540.2,1246.3,540.2z M1240.5,548c0,3.5,2.4,5.9,5.8,5.9s5.8-2.5,5.8-5.9c0-3.6-2.6-5.9-5.8-5.9
		S1240.5,544.5,1240.5,548z"/>
	<path class="st4" d="M1251.9,565.8v-2.5h1.7v2.5h3.3v1.9h-3.3v5.6h-1.7v-5.6h-7.5c-3,0-4,1.4-4,3.4c0,1.9,0.7,2.8,0.7,2.8h-1.8
		c0,0-0.7-1.1-0.7-3c0-2.8,1.6-5.1,5.5-5.1H1251.9z"/>
	<path class="st4" d="M1246.8,588.4c3.9,0,5.4-2.3,5.4-5.2c0-3.5-2.4-5.2-5.4-5.2h-7.8v-1.9h20.9v1.9h-8.6v0.1c0,0,2.6,1.3,2.6,5.5
		c0,3.5-2,6.5-6.8,6.5h-8.2v-1.9H1246.8z"/>
	<path class="st4" d="M1245.2,595.1c-0.6,0-4.7,1.1-4.7,5.9c0,3.5,2.2,4.8,2.2,4.8v2.2c0,0-4-1.7-4-7.1c0-4.6,3.1-7.9,7.6-7.9
		c4.5,0,7.6,3.3,7.6,7.8c0,4.5-3.1,7.8-7.6,7.8c-0.6,0-1.1-0.1-1.1-0.1V595.1z M1252.1,600.9c0-4.1-3.3-5.9-5.2-5.9v11.8
		C1248.8,606.8,1252.1,605,1252.1,600.9z"/>
	<path class="st4" d="M1246.8,629.6c3.9,0,5.4-2.3,5.4-5.2c0-3.5-2.4-5.2-5.4-5.2h-7.8v-1.9h14.7v1.9h-2.3v0.1c0,0,2.6,1.3,2.6,5.5
		c0,3.5-2,6.5-6.8,6.5h-8.2v-1.9H1246.8z"/>
	<path class="st4" d="M1253.9,642.1c0,4.5-3.1,7.8-7.6,7.8c-4.5,0-7.6-3.3-7.6-7.8c0-4.5,3.1-7.8,7.6-7.8
		C1250.8,634.3,1253.9,637.6,1253.9,642.1z M1252.1,642.1c0-3.6-2.6-5.9-5.8-5.9s-5.8,2.4-5.8,5.9c0,3.6,2.6,5.9,5.8,5.9
		S1252.1,645.7,1252.1,642.1z"/>
	<path class="st4" d="M1253.7,662.2h-1.9c0,0,0.3-0.8,0.3-2.1c0-3.6-2.8-5.4-6-5.4h-7.1V653h14.7v1.9h-3v0.1c0,0,3.3,1.3,3.3,5.5
		C1253.9,661.4,1253.7,662.2,1253.7,662.2z"/>
	<path class="st4" d="M1251.9,664.8v-2.5h1.7v2.5h3.3v1.9h-3.3v5.6h-1.7v-5.6h-7.5c-3,0-4,1.4-4,3.4c0,1.9,0.7,2.8,0.7,2.8h-1.8
		c0,0-0.7-1.1-0.7-3c0-2.8,1.6-5.1,5.5-5.1H1251.9z"/>
	<path class="st4" d="M1246.8,687.3c3.9,0,5.4-2.3,5.4-5.2c0-3.5-2.4-5.2-5.4-5.2h-7.8v-1.9h20.9v1.9h-8.6v0.1c0,0,2.6,1.3,2.6,5.5
		c0,3.5-2,6.5-6.8,6.5h-8.2v-1.9H1246.8z"/>
	<path class="st4" d="M1245.2,694c-0.6,0-4.7,1.1-4.7,5.9c0,3.5,2.2,4.8,2.2,4.8v2.2c0,0-4-1.7-4-7.1c0-4.6,3.1-7.9,7.6-7.9
		c4.5,0,7.6,3.3,7.6,7.8c0,4.5-3.1,7.8-7.6,7.8c-0.6,0-1.1-0.1-1.1-0.1V694z M1252.1,699.8c0-4.1-3.3-5.9-5.2-5.9v11.8
		C1248.8,705.7,1252.1,704,1252.1,699.8z"/>
	<path class="st4" d="M1241.5,723.7c0,0-2.8-1.6-2.8-6c0-4.4,3.1-7.7,7.6-7.7c4.5,0,7.6,3.3,7.6,7.7c0,4.4-2.8,5.9-2.8,6v0.1h2.5
		v1.9h-11.3c-1.4,0-1.9,0.4-1.9,1.4c0,0.6,0.2,0.9,0.2,0.9h-1.6c0,0-0.2-0.4-0.2-1.2c0-2.8,2.7-3,2.7-3V723.7z M1240.5,717.9
		c0,3.5,2.4,5.9,5.8,5.9s5.8-2.5,5.8-5.9c0-3.6-2.6-5.9-5.8-5.9S1240.5,714.3,1240.5,717.9z"/>
	<path class="st4" d="M1249.7,729.4c2.9,0,4.2,2.8,4.2,6.5c0,3.7-1.5,6.5-4.8,6.5v-1.9c2,0,3.1-1.6,3.1-4.6c0-3.1-0.9-4.6-2.5-4.6
		c-4,0-0.4,11.6-6.6,11.6c-3.3,0-4.4-3.2-4.4-6.9s1.4-6.9,5-6.9h0.6v1.9h-0.6c-2.2,0-3.3,2-3.3,5.1c0,3,0.7,5.1,2.7,5.1
		C1247.3,741,1243.5,729.4,1249.7,729.4z"/>
	<path class="st4" d="M1251.9,746v-2.5h1.7v2.5h3.3v1.9h-3.3v5.6h-1.7v-5.6h-7.5c-3,0-4,1.4-4,3.4c0,1.9,0.7,2.8,0.7,2.8h-1.8
		c0,0-0.7-1.1-0.7-3c0-2.8,1.6-5.1,5.5-5.1H1251.9z"/>
	<path class="st4" d="M1253.9,769.2c0,5.5-4.3,7.7-6,7.7v-1.9c0.6,0,4.2-1.4,4.2-5.7c0-3.6-2.6-5.9-5.8-5.9s-5.8,2.3-5.8,5.9
		c0,4.3,3.6,5.7,4.2,5.7v1.9c-1.6,0-6-2.2-6-7.7c0-4.5,3.1-7.8,7.6-7.8C1250.8,761.4,1253.9,764.7,1253.9,769.2z"/>
	<path class="st4" d="M1253.9,786.9c0,4.5-3.1,7.8-7.6,7.8c-4.5,0-7.6-3.3-7.6-7.8c0-4.5,3.1-7.8,7.6-7.8
		C1250.8,779.1,1253.9,782.4,1253.9,786.9z M1252.1,786.9c0-3.6-2.6-5.9-5.8-5.9s-5.8,2.4-5.8,5.9c0,3.6,2.6,5.9,5.8,5.9
		S1252.1,790.5,1252.1,786.9z"/>
	<path class="st4" d="M1253.7,807h-1.9c0,0,0.3-0.8,0.3-2.1c0-3.6-2.8-5.4-6-5.4h-7.1v-1.9h14.7v1.9h-3v0.1c0,0,3.3,1.3,3.3,5.5
		C1253.9,806.2,1253.7,807,1253.7,807z"/>
	<path class="st4" d="M1246.8,821c3.9,0,5.4-2.3,5.4-5.2c0-3.5-2.4-5.2-5.4-5.2h-7.8v-1.9h14.7v1.9h-2.3v0.1c0,0,2.6,1.3,2.6,5.5
		c0,3.5-2,6.5-6.8,6.5h-8.2V821H1246.8z"/>
	<path class="st4" d="M1245.2,827.7c-0.6,0-4.7,1.1-4.7,5.9c0,3.5,2.2,4.8,2.2,4.8v2.2c0,0-4-1.7-4-7.1c0-4.6,3.1-7.9,7.6-7.9
		c4.5,0,7.6,3.3,7.6,7.8c0,4.5-3.1,7.8-7.6,7.8c-0.6,0-1.1-0.1-1.1-0.1V827.7z M1252.1,833.5c0-4.1-3.3-5.9-5.2-5.9v11.8
		C1248.8,839.4,1252.1,837.7,1252.1,833.5z"/>
	<path class="st4" d="M1253.7,853.6h-1.9c0,0,0.3-0.8,0.3-2.1c0-3.6-2.8-5.4-6-5.4h-7.1v-1.9h14.7v1.9h-3v0.1c0,0,3.3,1.3,3.3,5.5
		C1253.9,852.8,1253.7,853.6,1253.7,853.6z"/>
	<path class="st4" d="M1253.9,866.9c0,4.5-3.1,7.8-7.6,7.8c-4.5,0-7.6-3.3-7.6-7.8c0-4.5,3.1-7.8,7.6-7.8
		C1250.8,859,1253.9,862.3,1253.9,866.9z M1252.1,866.9c0-3.6-2.6-5.9-5.8-5.9s-5.8,2.4-5.8,5.9c0,3.6,2.6,5.9,5.8,5.9
		S1252.1,870.4,1252.1,866.9z"/>
	<path class="st4" d="M1253.6,880.3v4.8h-1.7v-4.8H1239v-1.9h12.9v-2.5h1.7v2.5h0.9c4,0,5.7,2.2,5.7,5.1c0,1.9-0.7,3-0.7,3h-1.8
		c0,0,0.7-1,0.7-2.8c0-1.9-1-3.4-4.1-3.4H1253.6z"/>
	<path class="st4" d="M1239,910.6v-2.1l5-2.1v-11.6l-5-2.1v-2.1l20.9,8.6v2.7L1239,910.6z M1258.2,900.7L1258.2,900.7l-12.4-5.1
		v10.1L1258.2,900.7z"/>
	<path class="st4" d="M1253.6,914.8v4.8h-1.7v-4.8H1239V913h12.9v-2.5h1.7v2.5h0.9c4,0,5.7,2.2,5.7,5.1c0,1.9-0.7,3-0.7,3h-1.8
		c0,0,0.7-1,0.7-2.8c0-1.9-1-3.4-4.1-3.4H1253.6z"/>
	<path class="st4" d="M1253.7,930.8h-1.9c0,0,0.3-0.8,0.3-2.1c0-3.6-2.8-5.4-6-5.4h-7.1v-1.9h14.7v1.9h-3v0.1c0,0,3.3,1.3,3.3,5.5
		C1253.9,930,1253.7,930.8,1253.7,930.8z"/>
	<path class="st4" d="M1239,934.4v-1.9h14.7v1.9H1239z M1260.2,933.5c0,0.7-0.5,1.2-1.1,1.2s-1.1-0.5-1.1-1.2c0-0.7,0.5-1.2,1.1-1.2
		S1260.2,932.7,1260.2,933.5z"/>
	<path class="st4" d="M1253.9,945.2c0,5.5-4.3,7.7-6,7.7v-1.9c0.6,0,4.2-1.4,4.2-5.7c0-3.6-2.6-5.9-5.8-5.9s-5.8,2.3-5.8,5.9
		c0,4.3,3.6,5.7,4.2,5.7v1.9c-1.6,0-6-2.2-6-7.7c0-4.5,3.1-7.8,7.6-7.8C1250.8,937.4,1253.9,940.7,1253.9,945.2z"/>
	<path class="st4" d="M1241.5,968.7c0,0-2.8-1.6-2.8-6c0-4.4,3.1-7.7,7.6-7.7c4.5,0,7.6,3.3,7.6,7.7c0,4.4-2.8,5.9-2.8,6v0.1h2.5
		v1.9h-11.3c-1.4,0-1.9,0.4-1.9,1.4c0,0.6,0.2,0.9,0.2,0.9h-1.6c0,0-0.2-0.4-0.2-1.2c0-2.8,2.7-3,2.7-3V968.7z M1240.5,962.9
		c0,3.5,2.4,5.9,5.8,5.9s5.8-2.5,5.8-5.9c0-3.6-2.6-5.9-5.8-5.9S1240.5,959.4,1240.5,962.9z"/>
</g>
<g>
	<path class="st1" d="M1059.4,517.4v-90.3h120.4v16.2h-106v74.1H1059.4z"/>
	<path class="st1" d="M1073.1,595c0,0-15.5-7.7-15.5-31.3c0-20.5,11.7-38.5,39-38.5h47V540h-43.5c-20.6,0-28.7,11.9-28.7,27.5
		c0,18.2,12,27.5,28.7,27.5h43.5v14.8h-61.1c-8.6,0-11.4,2.4-11.4,7.2c0,3.4,1,4.8,1,4.8H1059c0,0-1.4-2.6-1.4-7.6
		c0-17.4,15.5-18.4,15.5-18.4V595z"/>
	<path class="st1" d="M1103.6,677.9l-44.2,35.6v-17.2l33.5-27l-33.5-26.8v-17.2l44.2,35.4l40.1-32.2v17.2l-29.4,23.6l29.4,23.7v17.2
		L1103.6,677.9z"/>
	<path class="st1" d="M1145.4,757.2c0,26.5-17,46.3-43.9,46.3c-26.8,0-43.9-19.8-43.9-46.3c0-26.5,17-46.3,43.9-46.3
		C1128.4,710.9,1145.4,730.7,1145.4,757.2z M1131.6,757.2c0-19.3-12.9-31.1-30.1-31.1c-17.2,0-30.1,11.9-30.1,31.1
		s12.9,31.1,30.1,31.1C1118.7,788.3,1131.6,776.5,1131.6,757.2z"/>
	<path class="st1" d="M1144.2,874H1128c0,0,1.7-4.8,1.7-12.7c0-18.6-13.6-29.2-30.3-29.2h-40.1v-14.8h84.3V832h-16.3v0.9
		c0,0,18.1,7.4,18.1,31C1145.4,869.9,1144.2,874,1144.2,874z"/>
</g>
<g>
	<path class="st1" d="M803.3,61l1,1l-48.4,48.4H871v1.3H755.8l48.1,47.9l-1,1l-49.8-49.6L803.3,61z"/>
</g>
<g>
	<path class="st1" d="M1127.9,375.7l-1-1l48.4-48.4h-115.2v-1.3h115.2l-48.1-47.9l1-1l49.8,49.6L1127.9,375.7z"/>
</g>
<g>
	<path class="st1" d="M1323.6,73.8h1.4v68.5l81.4-81.4l0.9,0.9l-81.4,81.4l67.9-0.1l0,1.4l-70.3,0.1L1323.6,73.8z"/>
</g>
<g>
	<path class="st1" d="M915.1,587.3v-1.4h68.5l-81.4-81.4l0.9-0.9l81.4,81.4l-0.1-67.9l1.4,0l0.1,70.3L915.1,587.3z"/>
</g>
<circle class="st4" cx="1122" cy="128" r="67"/>
<circle class="st3" cx="1220" cy="128" r="67"/>
<circle class="st4" cx="963.2" cy="885.2" r="61.2"/>
<circle class="st5" cx="963.2" cy="974.8" r="61.2"/>
</svg>
