<?xml version="1.0" encoding="utf-8"?>
<!-- Generator: Adobe Illustrator 19.0.0, SVG Export Plug-In . SVG Version: 6.00 Build 0)  -->
<svg version="1.1" id="Layer_1" xmlns="http://www.w3.org/2000/svg" xmlns:xlink="http://www.w3.org/1999/xlink" x="0px" y="0px"
	 viewBox="0 0 1200 737.9" style="enable-background:new 0 0 1200 737.9;" xml:space="preserve">
<style type="text/css">
	.st0{opacity:0;fill:#FFFFFF;}
	.st1{fill:#9829E0;}
</style>
<rect id="XMLID_7_" class="st0" width="1200" height="737.9"/>
<g id="XMLID_1_">
	<path id="XMLID_2_" class="st1" d="M563.6,501.9c-60.2-19.6-95.4-71.7-95.4-139.4c0-84.6,65-148.2,160.4-148.2h187.4v480.4h-92.7
		V513.4h-48.7h-16.9L550.7,694.8H445.8L563.6,501.9z M723.2,433.6V293.5h-82.6c-42.6,0-77.8,23-77.8,69c0,46,31.1,71,76.5,71H723.2z
		"/>
	<path id="XMLID_5_" class="st1" d="M944.5,556.7c-42.6-12.2-69-46-69-102.2c0-69.7,52.1-115.7,126.5-115.7h168.5v355.9h-90.7V572.3
		h-48L954,694.8h-99.5L944.5,556.7z M1079.8,507.3v-98.8h-63.6c-32.5,0-52.8,19.6-52.8,48.7c0,28.4,16.9,50.1,49.4,50.1H1079.8z"/>
</g>
</svg>
