<?xml version="1.0" encoding="utf-8"?>
<!-- Generator: Adobe Illustrator 22.0.0, SVG Export Plug-In . SVG Version: 6.00 Build 0)  -->
<svg version="1.1" id="Layer_1" xmlns="http://www.w3.org/2000/svg" xmlns:xlink="http://www.w3.org/1999/xlink" x="0px" y="0px"
	 viewBox="0 0 1000 829.8" style="enable-background:new 0 0 1000 829.8;" xml:space="preserve">
<style type="text/css">
	.st0{fill:#FE59FE;}
	.st1{fill:#222222;}
	.st2{fill:#FFFFFF;}
</style>
<g>
	<g>
		<g>
			<g>
				<path class="st0" d="M482.5,618.2l-89.9-225.8c46-19.7,46-125,46-125c-124.7,0-208.3,59.2-221.4,120.6l81.1,41.7L272,477.9
					L482.5,618.2z"/>
				<path class="st0" d="M482.5,618.2l89.9-225.8c-46-19.7-46-125-46-125c124.7,0,208.3,59.2,221.4,120.6l-81.1,41.7l26.3,48.2
					L482.5,618.2z"/>
			</g>
		</g>
		<g>
			<path class="st1" d="M333.1,170.9c0,0,26,54.9,4.4,80.8c-21.5,26-55.6,94.9-8.2,153.5c0,0-15.6-51.9,8.2-66.7
				c0,0-20,63.8,22.2,104.6c0,0-15.6-55.1,6.3-88c0,0-4.1,29.4-0.4,49.4l54.1-49.7l5.9-170.5L333.1,170.9z"/>
			<path class="st1" d="M620,221.3c0,0-17.1,106.8,18.5,117.2c0,0-25.2,5.9-40-17.1c0,0-8.9,28.2,20.8,60.1c0,0-60.1,11.1-75.6-31.1
				s0-129,0-129H620z"/>
		</g>
		<path class="st2" d="M482.5,381.5L482.5,381.5c-51.4,0-94.4-62.8-99.3-114l-10.3-105.3h219.2l-10.3,105.3
			C576.9,318.6,533.9,381.5,482.5,381.5z"/>
		<g>
			<g>
				<path class="st1" d="M484.7,622.6c-39.2,0-76.1-15.3-103.9-43c-57.3-57.3-57.3-150.5,0-207.7c27.7-27.7,64.6-43,103.9-43
					s76.1,15.3,103.9,43l0,0l0,0c57.3,57.3,57.3,150.5,0,207.7C560.8,607.3,523.9,622.6,484.7,622.6z M484.7,372.7
					c-27.5,0-53.4,10.7-72.9,30.2c-40.2,40.2-40.2,105.5,0,145.7c19.5,19.5,45.3,30.2,72.9,30.2c27.5,0,53.4-10.7,72.9-30.2
					c40.2-40.2,40.2-105.5,0-145.7l0,0C538.1,383.4,512.2,372.7,484.7,372.7z"/>
			</g>
			<g>
				<path class="st1" d="M642.6,655.5c-5.6,0-11.2-2.1-15.5-6.4l-69.5-69.5c-8.6-8.6-8.6-22.4,0-31c8.6-8.6,22.4-8.6,31,0l69.5,69.5
					c8.6,8.6,8.6,22.4,0,31C653.8,653.4,648.2,655.5,642.6,655.5z"/>
			</g>
		</g>
		<path class="st1" d="M619.7,124.7l-12.1-65.1C601.2,25,571.1,0,535.9,0H442c-28.7,0-54.8,16.9-66.5,43.1l-35.7,79.6
			c-29.5,0-60.9,0.1-94.4,0.1c-8.5,0-12.1,10.9-5.2,15.8c70.8,51.5,306,202.8,452.7,63.1C750.4,147,751.5,129.8,619.7,124.7z"/>
	</g>
	<g>
		<path class="st0" d="M0.1,296l123.9,0.2l0,21.2l-50.4-0.1l0,21.1l50.4,0.1l0,21.4L0,359.7l0-21.4l54.9,0.1l0-21.1l-54.9-0.1
			L0.1,296z"/>
		<path class="st0" d="M60.4,409.2l10.2,10.5l3.5-0.7c7.7-1.5,10.6-5.5,9.7-9.9c-0.8-4.3-5-7.2-12-5.9l-6.9,1.4l-3.4-17.2
			c0,0,4.1-2.8,9.3-3.8c14.7-2.9,27.2,5.7,30.4,22.1c3.4,17.4-5,29.8-23.2,33.4l-42.6,8.3c-13.9,2.7-16.7,6.9-16.7,6.9l-3.5,0.7
			l-3.7-19.1c0,0,4.5-4.5,14.2-6.4l-0.2-0.9c0,0-17.4-1-20.3-15.9c-2-10.4,3.6-18.6,17.5-21.3C37.4,388.5,45.9,393.9,60.4,409.2z
			 M54.8,422.8l-7.7-7.4c-5.3-5.4-8.7-7.5-15.6-6.1c-5.2,1-7.2,4.2-6.2,9.4c1,5.2,6.1,8.6,14,7.1L54.8,422.8z"/>
		<path class="st0" d="M68.6,526l-1.7,0.6c-15.6,6-28.3,0.4-35-16.8c-6.7-17.4-1.1-30,12.9-35.4c5-1.9,9.7-2,9.7-2l6.4,16.5
			l-6.8,2.6c-5.7,2.2-7.7,6.8-5.7,11.9c1.6,4.1,6.1,6.1,11.1,4.2l1.7-0.6c11.6-4.5,1.8-39.5,24.9-48.5c15.6-6,28.2-0.6,35.1,17.1
			c5.9,15.3,0.3,28-13.6,33.4c-5,1.9-8.9,1.5-8.9,1.5l-6.1-15.8l5.9-2.3c5.7-2.2,7.7-6.8,6.2-10.8c-1.6-4.2-6.2-6.2-11.2-4.3
			C81.9,481.8,91.7,517,68.6,526z"/>
		<path class="st0" d="M81.9,602.9l42.9-47.1l12.7-12.9l-0.5-0.8l-14.1,10.7l-51.3,34.7L59.7,570l102.6-69.5l15.3,22.6l-47.8,52.6
			l-13.7,11.4l0.5,0.8l15.6-8.5l66.6-24.7l15.3,22.6l-102.6,69.5l-11.9-17.6l51.3-34.7l15.2-9.1l-0.5-0.8l-16.6,7L89.4,614
			L81.9,602.9z"/>
		<path class="st0" d="M149.6,692.5l48.3-88.1l14.9,13.9l-28.9,48l-9.6,12.9l0.6,0.5l12.2-10.4l42.6-35.3l14.9,13.9l-80.7,57.8
			c-19,13.8-31.4,14.3-40.4,5.9c-5.2-4.8-7.3-10.3-7.3-10.3l11.9-12.7c0,0,1.6,3.5,4.2,5.9C136,698.1,141,697.9,149.6,692.5z"/>
		<path class="st0" d="M284.3,724c0,0-4.1,9.8-9.8,18.7c-11,17.2-25.6,20.5-42.7,9.6c-17.9-11.4-21.2-26.1-8.8-45.5l32.3-50.8
			c12.4-19.4,27-22.7,44.9-11.3c16.4,10.5,19.9,26.2,9.4,42.8c-5.2,8.1-11.9,15.3-11.9,15.3L282,693l9-14.1c6.1-9.6,5-14.5-0.8-18.2
			c-6-3.8-10.9-2.7-17,6.9l-32.3,50.8c-6.1,9.6-5,14.5,0.9,18.3c5.8,3.7,10.7,2.6,16.9-7l9.9-15.6L284.3,724z"/>
		<path class="st0" d="M354.4,777.9c-7.1,18.1-20.9,24.1-38.1,17.4c-17.4-6.8-23.4-20.6-16.3-38.7l12.9-32.9
			c7.1-18.1,20.9-24.1,38.3-17.3c17.2,6.8,23.2,20.5,16.1,38.7L354.4,777.9z M318.9,763.9c-3.2,8.2-1.1,12.9,3.9,14.8
			c4.8,1.9,9.4-0.1,12.6-8.4l12.9-33c3.2-8.2,1.2-12.8-3.6-14.7c-4.9-1.9-9.7,0-12.9,8.2L318.9,763.9z"/>
		<path class="st0" d="M416,821.1l11.5-61.9c1.6-8.7-1.2-12.8-5.5-13.6c-5.2-1-10.5,2.6-11.9,10.4l-11.5,61.9l-19.9-3.7l16.8-90.5
			l19.9,3.7l-1.3,7l-3.2,7.4l0.8,0.1c0,0,8.4-15.5,22.2-12.9c11.4,2.1,17.8,11.5,14.6,28.7l-12.5,67.1L416,821.1z"/>
		<path class="st0" d="M513.9,753.9l-15-0.3l-0.8,48.8c-0.1,6.1,2.4,8.7,6.8,8.8c4.5,0.1,8.1-1.6,8.1-1.6l-0.3,17.9
			c0,0-4.5,2.5-13.2,2.4c-13.4-0.2-22.1-9.2-21.8-25.1l0.9-51.3l-10.6-0.2l0.3-17.7l10.6,0.2l0.4-21.2l20.4,0.3l-0.4,21.2l15,0.3
			L513.9,753.9z"/>
		<path class="st0" d="M558.2,784.3l1.7,11.5c1.3,8.8,5.5,11.7,10.7,10.9c5.1-0.8,8.1-4.8,7-11.8l-0.8-5.3l17.7-2.6
			c0,0,2.3,3.2,3,8.5c2.1,14-6.1,26-24.4,28.7c-18.6,2.8-30.5-6.2-33.4-25.5l-5.2-35c-2.9-19.3,6.1-31.3,24.6-34.1
			c18.3-2.7,30.4,6.2,33.2,25.5l3.5,23.6L558.2,784.3z M555.8,767.8l17.5-2.6l-1-7c-1.3-8.8-5.3-11.7-10.4-11
			c-5.3,0.8-8.4,4.8-7.1,13.6L555.8,767.8z"/>
		<path class="st0" d="M672.6,797l-20.8-59.4c-2.9-8.4-7.4-10.5-11.5-9.1c-5,1.8-7.8,7.5-5.2,14.9l20.8,59.4l-19.1,6.7l-30.4-86.9
			l19.1-6.7l2.3,6.7l0.9,8l0.8-0.3c0,0-0.4-17.6,12.8-22.2c10.9-3.8,21.2,1.1,27,17.7l22.6,64.4L672.6,797z"/>
		<path class="st0" d="M724.1,689.9l-13.1,7.3l23.6,42.6c3,5.3,6.5,6.4,10.3,4.2c3.9-2.2,6.2-5.4,6.2-5.4l8.7,15.6
			c0,0-2.7,4.4-10.3,8.6c-11.7,6.5-23.7,3-31.4-10.9L693.1,707l-9.3,5.1l-8.6-15.5l9.3-5.1L674.2,673l17.9-9.9l10.3,18.6l13.1-7.3
			L724.1,689.9z"/>
		<path class="st0" d="M832.1,702l-43.8,34.3l-76.4-97.5l16.7-13.1l64.9,82.8l27.1-21.2L832.1,702z"/>
		<path class="st0" d="M834.8,642.3l8.6,7.7c6.6,5.9,11.7,5.5,15.2,1.6c3.4-3.8,3.2-8.8-2.1-13.6l-3.9-3.5l11.9-13.3
			c0,0,3.8,1,7.8,4.6c10.5,9.5,11.9,23.9-0.5,37.6c-12.6,14-27.5,14.7-42,1.7l-26.3-23.7c-14.5-13-15.3-28-2.8-41.9
			c12.4-13.8,27.4-14.6,41.8-1.5l17.7,15.9L834.8,642.3z M822.3,631.1l11.8-13.2l-5.3-4.7c-6.6-5.9-11.6-5.6-15-1.8
			c-3.6,3.9-3.4,9.1,3.2,15L822.3,631.1z"/>
		<path class="st0" d="M876.8,566.2l-0.5-14.6l-3-1.8c-6.7-4.1-11.5-3.1-13.9,0.8c-2.3,3.7-1.2,8.7,4.9,12.4l6,3.7l-9.2,15
			c0,0-4.8-0.7-9.4-3.5c-12.8-7.8-16.2-22.6-7.5-36.8c9.2-15.1,23.8-18.6,39.6-8.9l37.1,22.7c12.1,7.4,16.9,6.2,16.9,6.2l3,1.8
			l-10.2,16.6c0,0-6.4,0.2-14.7-4.9l-0.5,0.8c0,0,12.1,12.5,4.2,25.4c-5.5,9.1-15.2,11.3-27.3,3.9
			C879.7,597,877.1,587.3,876.8,566.2z M890.1,560l0.7,10.6c0.3,7.5,1.3,11.4,7.4,15.1c4.5,2.8,8.2,1.8,10.9-2.7
			c2.8-4.5,1.3-10.5-5.5-14.7L890.1,560z"/>
		<path class="st0" d="M890.8,445.1l34.8,30.5l51.7,1l-7.4,19.1l-42.3-1.3l-2.3,5.9l37.2,14.4l-7.3,18.9l-120.5-46.6L842,468
			l66.8,25.8l2.3-5.9l-27.7-23.8L890.8,445.1z"/>
		<path class="st0" d="M948.4,424.6l11.4,2.2c8.7,1.7,12.9-1.3,13.9-6.5c1-5.1-1.8-9.2-8.8-10.5l-5.2-1l3.4-17.5c0,0,3.8-1.1,9-0.1
			c13.9,2.7,22.5,14.3,19,32.5c-3.5,18.5-15.9,26.8-35.1,23.1l-34.8-6.7c-19.1-3.7-27.5-16.1-24-34.4c3.5-18.2,15.9-26.6,35-22.9
			l23.4,4.5L948.4,424.6z M932,421.4l3.3-17.4l-7-1.3c-8.7-1.7-12.8,1.1-13.8,6.2c-1,5.2,1.8,9.5,10.5,11.2L932,421.4z"/>
		<path class="st0" d="M932.7,359.3c-20.3,0-28.3-8.1-28.3-19.5c0-14.2,16.8-19.4,16.8-19.4l0-0.8l-7.9,1.8l-44.2-0.1l0-20.4
			l129.2,0.2l0,20.4l-7.1,0l-8-1.8l0,0.8c0,0,16.9,5.3,16.9,19.5c0,11.4-7.9,19.5-28.3,19.4L932.7,359.3z M935.3,321.3
			c-8.9,0-12.4,3.5-12.4,8.7c0,5.3,3.5,9,12.4,9l33.6,0c8.8,0,12.4-3.7,12.4-9c0-5.1-3.5-8.7-12.4-8.7L935.3,321.3z"/>
	</g>
</g>
</svg>
