<?xml version="1.0" encoding="utf-8"?>
<!-- Generator: Adobe Illustrator 22.0.0, SVG Export Plug-In . SVG Version: 6.00 Build 0)  -->
<svg version="1.1" id="Layer_1" xmlns="http://www.w3.org/2000/svg" xmlns:xlink="http://www.w3.org/1999/xlink" x="0px" y="0px"
	 viewBox="0 0 993.2 203.6" style="enable-background:new 0 0 993.2 203.6;" xml:space="preserve">
<style type="text/css">
	.st0{fill:#FE59FE;}
	.st1{fill:#222222;}
	.st2{fill:#FFFFFF;}
</style>
<g>
	<path class="st0" d="M228.3,146.7v-74H241v30.1h12.6V72.7h12.8v74h-12.8V114H241v32.8H228.3z"/>
	<path class="st0" d="M289.7,115l7.3-4.8v-2.1c0-4.7-2-6.8-4.7-6.8c-2.6,0-4.8,2.1-4.8,6.3v4.2H277c0,0-1.2-2.7-1.2-5.9
		c0-8.9,6.4-15.3,16.4-15.3c10.6,0,16.9,6.3,16.9,17.4V134c0,8.5,2.1,10.6,2.1,10.6v2.1h-11.6c0,0-2.1-3.2-2.1-9H297
		c0,0-2.6,10.1-11.6,10.1c-6.3,0-10.5-4.2-10.5-12.7C274.9,126.1,279,121.7,289.7,115z M297,119.8l-5.2,3.7
		c-3.7,2.5-5.4,4.2-5.4,8.5c0,3.2,1.6,4.7,4.8,4.7c3.2,0,5.8-2.6,5.8-7.4V119.8z"/>
	<path class="st0" d="M350.5,130.9v1.1c0,10-5.9,15.9-16.9,15.9c-11.1,0-16.9-5.9-16.9-14.8c0-3.2,1-5.9,1-5.9h10.6v4.3
		c0,3.7,2.1,5.8,5.4,5.8c2.6,0,4.7-2.1,4.7-5.3v-1.1c0-7.4-21.6-9.5-21.6-24.3c0-10,5.8-15.9,17.1-15.9c9.8,0,15.7,5.9,15.7,14.8
		c0,3.2-1.1,5.3-1.1,5.3h-10.1V107c0-3.7-2.1-5.8-4.7-5.8c-2.7,0-4.8,2.1-4.8,5.3C328.8,114,350.5,116.1,350.5,130.9z"/>
	<path class="st0" d="M382.7,146.7l-8.9-37l-2.1-10.6H371l0.6,10.6v37h-12.7v-74h16.3l10,41.2l1.1,10.6h0.6l1.1-10.6L398,72.7h16.3
		v74h-12.7v-37l0.6-10.6h-0.6l-2.1,10.6l-8.9,37H382.7z"/>
	<path class="st0" d="M435.4,149.9l-14.8-58.1h12.2l6.9,32.8l1.1,9.5h0.5l1.1-9.5l4.2-32.8h12.2L447,149.9c-2.7,13.7-7.9,19-15.3,19
		c-4.2,0-7.4-1.5-7.4-1.5V157c0,0,2.1,0.9,4.2,0.9C431.8,157.9,433.9,155.8,435.4,149.9z"/>
	<path class="st0" d="M501,116.7c0,0,1.1,6.2,1.1,12.6c0,12.2-6.3,18.5-18.4,18.5c-12.7,0-19-6.3-19-20.1V91.8
		c0-13.7,6.3-20.1,19-20.1c11.6,0,18.4,6.8,18.4,18.5c0,5.8-1.1,11.5-1.1,11.5h-11.1v-10c0-6.8-2.1-8.9-6.2-8.9
		c-4.2,0-6.3,2.1-6.3,8.9v35.9c0,6.8,2.1,8.9,6.3,8.9c4.1,0,6.2-2.1,6.2-8.9v-11H501z"/>
	<path class="st0" d="M544.9,129.8c0,11.6-6.3,18-17.4,18c-11.1,0-17.5-6.3-17.5-18v-21.1c0-11.6,6.3-18,17.5-18
		c11,0,17.4,6.3,17.4,18V129.8z M522.2,129.8c0,5.3,2.2,7.4,5.4,7.4c3.1,0,5.2-2.1,5.2-7.4v-21.1c0-5.3-2.1-7.4-5.2-7.4
		c-3.2,0-5.4,2.1-5.4,7.4V129.8z"/>
	<path class="st0" d="M576.7,146.7v-37.6c0-5.3-2.1-7.4-4.7-7.4c-3.2,0-5.9,2.7-5.9,7.4v37.6H554v-55h12.1V96l-1.1,4.7h0.5
		c0,0,3.3-10,11.6-10c6.9,0,11.7,4.8,11.7,15.3v40.7H576.7z"/>
	<path class="st0" d="M623.2,102.3h-8.9v29.1c0,3.7,1.5,5.2,4.1,5.2c2.7,0,4.8-1.1,4.8-1.1v10.7c0,0-2.7,1.5-7.9,1.5
		c-8,0-13.3-5.3-13.3-14.8v-30.7h-6.3V91.8h6.3V79.1h12.2v12.7h8.9V102.3z"/>
	<path class="st0" d="M642.7,122.9v6.9c0,5.3,2.2,7.4,5.4,7.4c3.1,0,5.2-2.1,5.2-6.3v-3.2h10.7c0,0,1.1,2.1,1.1,5.3
		c0,8.5-5.9,14.8-16.9,14.8c-11.2,0-17.5-6.3-17.5-18v-21.1c0-11.6,6.3-18,17.5-18c11,0,17.4,6.3,17.4,18v14.2H642.7z M642.7,112.9
		h10.6v-4.2c0-5.3-2.1-7.4-5.2-7.4c-3.2,0-5.4,2.1-5.4,7.4V112.9z"/>
	<path class="st0" d="M697.1,146.7v-37.6c0-5.3-2.1-7.4-4.7-7.4c-3.2,0-5.9,2.7-5.9,7.4v37.6h-12.1v-55h12.1V96l-1.1,4.7h0.5
		c0,0,3.3-10,11.6-10c6.9,0,11.7,4.8,11.7,15.3v40.7H697.1z"/>
	<path class="st0" d="M743.6,102.3h-8.9v29.1c0,3.7,1.5,5.2,4.1,5.2c2.7,0,4.8-1.1,4.8-1.1v10.7c0,0-2.7,1.5-7.9,1.5
		c-8,0-13.3-5.3-13.3-14.8v-30.7h-6.3V91.8h6.3V79.1h12.2v12.7h8.9V102.3z"/>
	<path class="st0" d="M785.9,146.7h-33.2v-74h12.7v62.8h20.6V146.7z"/>
	<path class="st0" d="M801.8,122.9v6.9c0,5.3,2.2,7.4,5.4,7.4c3.1,0,5.2-2.1,5.2-6.3v-3.2H823c0,0,1.1,2.1,1.1,5.3
		c0,8.5-5.9,14.8-16.9,14.8c-11.2,0-17.5-6.3-17.5-18v-21.1c0-11.6,6.3-18,17.5-18c11,0,17.4,6.3,17.4,18v14.2H801.8z M801.8,112.9
		h10.6v-4.2c0-5.3-2.1-7.4-5.2-7.4c-3.2,0-5.4,2.1-5.4,7.4V112.9z"/>
	<path class="st0" d="M846.3,115l7.3-4.8v-2.1c0-4.7-2-6.8-4.7-6.8c-2.6,0-4.8,2.1-4.8,6.3v4.2h-10.5c0,0-1.2-2.7-1.2-5.9
		c0-8.9,6.4-15.3,16.4-15.3c10.6,0,16.9,6.3,16.9,17.4V134c0,8.5,2.1,10.6,2.1,10.6v2.1h-11.6c0,0-2.1-3.2-2.1-9h-0.6
		c0,0-2.6,10.1-11.6,10.1c-6.3,0-10.5-4.2-10.5-12.7C831.5,126.1,835.6,121.7,846.3,115z M853.6,119.8l-5.2,3.7
		c-3.7,2.5-5.4,4.2-5.4,8.5c0,3.2,1.6,4.7,4.8,4.7c3.2,0,5.8-2.6,5.8-7.4V119.8z"/>
	<path class="st0" d="M910.7,91.8l-9.5,25.9l10.6,29h-12.2l-8.4-23.8h-3.7v23.8h-12.1V69.6h12.1v42.8h3.7l7.3-20.6H910.7z"/>
	<path class="st0" d="M927.1,122.9v6.9c0,5.3,2.2,7.4,5.4,7.4c3.1,0,5.2-2.1,5.2-6.3v-3.2h10.7c0,0,1.1,2.1,1.1,5.3
		c0,8.5-5.9,14.8-16.9,14.8c-11.2,0-17.5-6.3-17.5-18v-21.1c0-11.6,6.3-18,17.5-18c11,0,17.4,6.3,17.4,18v14.2H927.1z M927.1,112.9
		h10.6v-4.2c0-5.3-2.1-7.4-5.2-7.4c-3.2,0-5.4,2.1-5.4,7.4V112.9z"/>
	<path class="st0" d="M958.3,107.6c0-12.1,4.8-16.9,11.6-16.9c8.5,0,11.6,10,11.6,10h0.5L981,96V69.6h12.2v77.2H981v-4.2l1.1-4.8
		h-0.5c0,0-3.2,10.1-11.6,10.1c-6.8,0-11.6-4.7-11.6-16.9V107.6z M981,109.2c0-5.3-2.1-7.4-5.2-7.4c-3.2,0-5.4,2.1-5.4,7.4v20.1
		c0,5.3,2.2,7.4,5.4,7.4c3.1,0,5.2-2.1,5.2-7.4V109.2z"/>
</g>
<g>
	<g>
		<g>
			<path class="st0" d="M82.4,192.1l-27.9-70.1c14.3-6.1,14.3-38.8,14.3-38.8C30,83.1,4.1,101.5,0,120.5l25.2,12.9l-8.2,15
				L82.4,192.1z"/>
			<path class="st0" d="M82.4,192.1l27.9-70.1C96,115.8,96,83.1,96,83.1c38.7,0,64.7,18.4,68.8,37.5l-25.2,12.9l8.2,15L82.4,192.1z"
				/>
		</g>
	</g>
	<g>
		<circle class="st1" cx="53.7" cy="105.2" r="9.3"/>
		<path class="st1" d="M36,53.1c0,0,8.1,17,1.4,25.1s-17.3,29.5-2.5,47.7c0,0-4.8-16.1,2.5-20.7c0,0-6.2,19.8,6.9,32.5
			c0,0-4.8-17.1,2-27.3c0,0-1.3,9.1-0.1,15.4l16.8-15.4l1.8-53L36,53.1z"/>
		<path class="st1" d="M125.1,68.7c0,0-5.3,33.2,5.8,36.4c0,0-7.8,1.8-12.4-5.3c0,0-2.8,8.8,6.4,18.7c0,0-18.7,3.5-23.5-9.7
			s0-40.1,0-40.1H125.1z"/>
	</g>
	<path class="st1" d="M37.5,39.5l11.7-26.1C52.8,5.2,60.9,0,69.8,0H99c10.9,0,20.3,7.8,22.3,18.5l7.5,40.1L37.5,39.5z"/>
	<path class="st2" d="M82.4,118.5L82.4,118.5c-16,0-29.3-19.5-30.9-35.4l-3.2-32.7h68.1l-3.2,32.7C111.7,99,98.4,118.5,82.4,118.5z"
		/>
	<g>
		<g>
			<path class="st1" d="M83.1,193.4c-12.2,0-23.6-4.7-32.3-13.4c-17.8-17.8-17.8-46.7,0-64.5c8.6-8.6,20.1-13.4,32.3-13.4
				s23.6,4.7,32.3,13.4l0,0l0,0c17.8,17.8,17.8,46.7,0,64.5C106.7,188.7,95.3,193.4,83.1,193.4z M83.1,115.8
				c-8.6,0-16.6,3.3-22.6,9.4c-12.5,12.5-12.5,32.8,0,45.3c6,6,14.1,9.4,22.6,9.4s16.6-3.3,22.6-9.4c12.5-12.5,12.5-32.8,0-45.3l0,0
				C99.7,119.1,91.6,115.8,83.1,115.8z"/>
		</g>
		<g>
			<path class="st1" d="M132.1,203.6c-1.7,0-3.5-0.7-4.8-2l-21.6-21.6c-2.7-2.7-2.7-7,0-9.6c2.7-2.7,7-2.7,9.6,0l21.6,21.6
				c2.7,2.7,2.7,7,0,9.6C135.6,203,133.9,203.6,132.1,203.6z"/>
		</g>
	</g>
	<path class="st1" d="M8.8,38.1c-2.6,0-3.8,3.4-1.6,4.9c22,16,95,63,140.6,19.6C175.9,35.9,160.6,38.1,8.8,38.1z"/>
</g>
</svg>
