<?xml version="1.0" encoding="utf-8"?>
<!-- Generator: Adobe Illustrator 22.0.0, SVG Export Plug-In . SVG Version: 6.00 Build 0)  -->
<svg version="1.1" id="Layer_1" xmlns="http://www.w3.org/2000/svg" xmlns:xlink="http://www.w3.org/1999/xlink" x="0px" y="0px"
	 viewBox="0 0 2043 1200" style="enable-background:new 0 0 2043 1200;" xml:space="preserve">
<style type="text/css">
	.st0{fill:#FFFFFF;}
	.st1{fill:#462170;}
	.st2{fill:#691CC2;}
	.st3{fill:#8F3BF2;}
	.st4{fill:#AD73FA;}
	.st5{fill:#CCADFF;}
	.st6{fill:#E3D6FF;}
	.st7{fill:#F1EAFE;}
	.st8{fill:none;stroke:#121212;stroke-miterlimit:10;}
</style>
<rect class="st0" width="2043" height="1200"/>
<rect class="st1" width="1200" height="1200"/>
<g>
	<rect x="100" y="100" class="st2" width="1000" height="1000"/>
</g>
<g>
	<rect x="200" y="200" class="st3" width="800" height="800"/>
</g>
<g>
	<rect x="300" y="300" class="st4" width="600" height="600"/>
</g>
<g>
	<rect x="400" y="400" class="st5" width="400" height="400"/>
</g>
<g>
	<rect x="500" y="500" class="st6" width="200" height="200"/>
</g>
<g>
	<rect x="1641" y="200" class="st6" width="402" height="200"/>
</g>
<g>
	<rect x="575" y="575" class="st7" width="50" height="50"/>
</g>
<g>
	<rect x="1000" y="201" class="st2" width="641" height="100"/>
</g>
<g>
	<rect x="900" y="301" class="st3" width="741" height="100"/>
</g>
<line class="st8" x1="1099" y1="99.5" x2="1641" y2="99.5"/>
<line class="st8" x1="999.5" y1="200.5" x2="1641" y2="200.5"/>
<line class="st8" x1="899.5" y1="300.5" x2="1641" y2="300.5"/>
<line class="st8" x1="799.5" y1="400.5" x2="1641" y2="400.5"/>
<line class="st8" x1="699.5" y1="500.5" x2="1641" y2="500.5"/>
<line class="st8" x1="624.5" y1="575.5" x2="1641" y2="575.5"/>
<g>
	<path d="M1393.5,66.3c0-7.1,4.4-12,11.2-12c5.2,0,9,3,9.9,7.9h-3.1c-0.9-3.3-3.4-5.2-6.9-5.2c-4.9,0-8.1,3.8-8.1,9.3
		c0,5.4,3,9.3,8,9.3c3.6,0,6.1-1.9,7-5.2h3.1c-0.9,4.9-4.8,7.9-10.1,7.9C1397.8,78.3,1393.5,73.5,1393.5,66.3z"/>
	<path d="M1417.7,78.1V61h2.7v13l10.2-13h2.4v17.1h-2.7v-13l-10.2,13H1417.7z"/>
	<path d="M1453.6,69.5c0,5.2-3.5,8.8-8.2,8.8c-2.9,0-4.8-1.2-5.9-2.8v9.3h-2.8V61h2.4l0.4,2.8c1.1-1.6,3-3,5.9-3
		C1450.1,60.8,1453.6,64,1453.6,69.5z M1450.8,69.5c0-3.7-2.3-6.3-5.7-6.3c-3.4,0-5.6,2.6-5.6,6.2c0,3.8,2.3,6.4,5.6,6.4
		C1448.5,75.8,1450.8,73.3,1450.8,69.5z"/>
	<path d="M1456.2,69.5c0-5.2,3.3-8.8,8.1-8.8s8,3.1,8.1,8.1c0,0.4,0,0.8-0.1,1.2h-13.3v0.2c0.1,3.3,2.1,5.5,5.4,5.5
		c2.4,0,4.3-1.3,4.9-3.5h2.8c-0.7,3.4-3.5,5.9-7.5,5.9C1459.5,78.3,1456.2,74.8,1456.2,69.5z M1469.5,67.8c-0.3-3-2.3-4.6-5.1-4.6
		c-2.5,0-4.8,1.8-5.1,4.6H1469.5z"/>
	<path d="M1488,61h2.8v17.1h-2.8v-7.5h-9.6v7.5h-2.8V61h2.8v7.1h9.6V61z"/>
	<path d="M1493.9,69.5c0-5.2,3.3-8.8,8.1-8.8s8,3.1,8.1,8.1c0,0.4,0,0.8-0.1,1.2h-13.3v0.2c0.1,3.3,2.1,5.5,5.4,5.5
		c2.4,0,4.3-1.3,4.9-3.5h2.8c-0.7,3.4-3.5,5.9-7.5,5.9C1497.2,78.3,1493.9,74.8,1493.9,69.5z M1507.2,67.8c-0.3-3-2.3-4.6-5.1-4.6
		c-2.5,0-4.8,1.8-5.1,4.6H1507.2z"/>
	<path d="M1513.3,78.1V61h7.3c4.2,0,6.3,1.6,6.3,4.6c0,2.1-1.4,3.3-2.8,3.7c2,0.3,3.5,1.5,3.5,3.9c0,3.3-2.4,5-6.8,5H1513.3z
		 M1516,68.3h4.8c2.3,0,3.3-0.9,3.3-2.5c0-1.6-1-2.5-3.3-2.5h-4.8V68.3z M1516,75.7h5c2.3,0,3.6-0.8,3.6-2.6c0-1.7-1.3-2.6-3.6-2.6
		h-5V75.7z"/>
	<path d="M1530.5,78.1V61h2.8v5.6h4.4c4.3,0,6.7,2.1,6.7,5.8c0,3.6-2.5,5.8-6.7,5.8H1530.5z M1533.3,75.7h3.9c2.8,0,4.4-1.2,4.4-3.4
		c0-2.2-1.5-3.4-4.4-3.4h-3.9V75.7z M1547.2,78.1V61h2.8v17.1H1547.2z"/>
	<path d="M1553.7,78.1V61h2.7v13l10.2-13h2.4v17.1h-2.7v-13l-10.2,13H1553.7z M1556.4,54.4h2.3c0,1.6,0.7,2.7,2.7,2.7
		c1.9,0,2.7-1,2.7-2.7h2.3c-0.1,2.8-1.8,4.6-5,4.6C1558,59,1556.4,57.2,1556.4,54.4z"/>
	<path d="M1585.3,54.6h2.8v23.5h-2.8V61.2c-0.3,0.3-0.9,0.4-1.6,0.4h-3.8v-2.5h3.8c1.1,0,1.6-0.8,1.6-2V54.6z"/>
	<path d="M1591.1,75.7l9.1-7.9c2.2-1.9,4-3.7,4-6.2c0-3-2-4.6-5.1-4.6c-3,0-5,2-5,5.2v0.4h-2.8V62c0-4.4,3.1-7.6,7.9-7.6
		c5.1,0,8,2.8,8,7c0,3.5-2.3,5.7-5.1,8.1l-7,6h12.3v2.6h-16.2V75.7z"/>
	<path d="M1609.7,65.8c0-6.7,3.6-11.4,8.9-11.4c5.3,0,8.9,4.7,8.9,11.4v1.1c0,7-3.6,11.4-8.9,11.4c-5.3,0-8.9-4.4-8.9-11.4V65.8z
		 M1624.7,65.9c0-5.6-2.4-8.9-6-8.9c-3.7,0-6.1,3.4-6.1,8.9v0.9c0,5.6,2.4,8.9,6.1,8.9c3.6,0,6-3.4,6-8.9V65.9z"/>
</g>
<g>
	<path d="M1390.8,169.3c0-7.1,4.4-12,11.2-12c5.2,0,9,3,9.9,7.9h-3.1c-0.9-3.3-3.4-5.2-6.9-5.2c-4.9,0-8.1,3.8-8.1,9.3
		c0,5.4,3,9.3,8,9.3c3.6,0,6.1-1.9,7-5.2h3.1c-0.9,4.9-4.8,7.9-10.1,7.9C1395,181.3,1390.8,176.5,1390.8,169.3z"/>
	<path d="M1415,181.1V164h2.7v13l10.2-13h2.4v17.1h-2.7v-13l-10.2,13H1415z"/>
	<path d="M1450.9,172.5c0,5.2-3.5,8.8-8.2,8.8c-2.9,0-4.8-1.2-5.9-2.8v9.3h-2.8V164h2.4l0.4,2.8c1.1-1.6,3-3,5.9-3
		C1447.4,163.8,1450.9,167,1450.9,172.5z M1448.1,172.5c0-3.7-2.3-6.3-5.7-6.3c-3.4,0-5.6,2.6-5.6,6.2c0,3.8,2.3,6.4,5.6,6.4
		C1445.8,178.8,1448.1,176.3,1448.1,172.5z"/>
	<path d="M1453.4,172.5c0-5.2,3.3-8.8,8.1-8.8s8,3.1,8.1,8.1c0,0.4,0,0.8-0.1,1.2h-13.3v0.2c0.1,3.3,2.1,5.5,5.4,5.5
		c2.4,0,4.3-1.3,4.9-3.5h2.8c-0.7,3.4-3.5,5.9-7.5,5.9C1456.8,181.3,1453.4,177.8,1453.4,172.5z M1466.7,170.8
		c-0.3-3-2.3-4.6-5.1-4.6c-2.5,0-4.8,1.8-5.1,4.6H1466.7z"/>
	<path d="M1485.2,164h2.8v17.1h-2.8v-7.5h-9.6v7.5h-2.8V164h2.8v7.1h9.6V164z"/>
	<path d="M1491.1,172.5c0-5.2,3.3-8.8,8.1-8.8s8,3.1,8.1,8.1c0,0.4,0,0.8-0.1,1.2H1494v0.2c0.1,3.3,2.1,5.5,5.4,5.5
		c2.4,0,4.3-1.3,4.9-3.5h2.8c-0.7,3.4-3.5,5.9-7.5,5.9C1494.5,181.3,1491.1,177.8,1491.1,172.5z M1504.4,170.8
		c-0.3-3-2.3-4.6-5.1-4.6c-2.5,0-4.8,1.8-5.1,4.6H1504.4z"/>
	<path d="M1510.5,181.1V164h7.3c4.2,0,6.3,1.6,6.3,4.6c0,2.1-1.4,3.3-2.8,3.7c2,0.3,3.5,1.5,3.5,3.9c0,3.3-2.4,5-6.8,5H1510.5z
		 M1513.3,171.3h4.8c2.3,0,3.3-0.9,3.3-2.5c0-1.6-1-2.5-3.3-2.5h-4.8V171.3z M1513.3,178.7h5c2.3,0,3.6-0.8,3.6-2.6
		c0-1.7-1.3-2.6-3.6-2.6h-5V178.7z"/>
	<path d="M1527.8,181.1V164h2.8v5.6h4.4c4.3,0,6.7,2.1,6.7,5.8c0,3.6-2.5,5.8-6.7,5.8H1527.8z M1530.5,178.7h3.9
		c2.8,0,4.4-1.2,4.4-3.4c0-2.2-1.5-3.4-4.4-3.4h-3.9V178.7z M1544.4,181.1V164h2.8v17.1H1544.4z"/>
	<path d="M1550.9,181.1V164h2.7v13l10.2-13h2.4v17.1h-2.7v-13l-10.2,13H1550.9z M1553.6,157.4h2.3c0,1.6,0.7,2.7,2.7,2.7
		s2.7-1,2.7-2.7h2.3c-0.1,2.8-1.8,4.6-5,4.6C1555.3,162,1553.7,160.2,1553.6,157.4z"/>
	<path d="M1582.5,157.6h2.8v23.5h-2.8v-16.9c-0.3,0.3-0.9,0.4-1.6,0.4h-3.8v-2.5h3.8c1.1,0,1.6-0.8,1.6-2V157.6z"/>
	<path d="M1589,168.8c0-6.7,3.6-11.4,8.9-11.4c5.3,0,8.9,4.7,8.9,11.4v1.1c0,7-3.6,11.4-8.9,11.4c-5.3,0-8.9-4.4-8.9-11.4V168.8z
		 M1604,168.9c0-5.6-2.4-8.9-6-8.9c-3.7,0-6.1,3.4-6.1,8.9v0.9c0,5.6,2.4,8.9,6.1,8.9c3.6,0,6-3.4,6-8.9V168.9z"/>
	<path d="M1609.7,168.8c0-6.7,3.6-11.4,8.9-11.4c5.3,0,8.9,4.7,8.9,11.4v1.1c0,7-3.6,11.4-8.9,11.4c-5.3,0-8.9-4.4-8.9-11.4V168.8z
		 M1624.7,168.9c0-5.6-2.4-8.9-6-8.9c-3.7,0-6.1,3.4-6.1,8.9v0.9c0,5.6,2.4,8.9,6.1,8.9c3.6,0,6-3.4,6-8.9V168.9z"/>
</g>
<g>
	<path d="M1740.6,305.4h2.9v7.5h-2.9v-4.8h-18v4.8h-2.9v-7.5h2.2c1.6-1.4,2.5-3.6,2.5-10.5v-10.3h16.2V305.4z M1737.7,305.4v-18.3
		h-10.5v8.2c0,5.5-0.6,8.2-1.8,10.1H1737.7z"/>
	<path d="M1746.1,308.1V291h7.3c4.2,0,6.3,1.6,6.3,4.6c0,2.1-1.4,3.3-2.8,3.7c2,0.3,3.5,1.5,3.5,3.9c0,3.3-2.4,5-6.8,5H1746.1z
		 M1748.9,298.3h4.8c2.3,0,3.3-0.9,3.3-2.5c0-1.6-1-2.5-3.3-2.5h-4.8V298.3z M1748.9,305.7h5c2.3,0,3.6-0.8,3.6-2.6
		c0-1.7-1.3-2.6-3.6-2.6h-5V305.7z"/>
	<path d="M1779.4,305.6v2.5h-1.5c-2.3,0-3.1-1-3.1-2.7c-1.1,1.5-2.8,2.9-5.7,2.9c-3.8,0-6.3-1.9-6.3-5c0-3.4,2.4-5.3,6.9-5.3h5v-1.2
		c0-2.2-1.6-3.6-4.3-3.6c-2.4,0-4,1.1-4.4,2.9h-2.8c0.4-3.4,3.1-5.3,7.3-5.3c4.4,0,6.9,2.2,6.9,6.2v7.5c0,0.9,0.3,1.1,1.1,1.1
		H1779.4z M1774.6,300.3h-5.3c-2.5,0-3.8,0.9-3.8,2.9c0,1.7,1.4,2.8,3.7,2.8c3.4,0,5.4-2,5.4-4.8V300.3z"/>
	<path d="M1790.3,308.1V291h2.8v14.6h7.5V291h2.8v14.6h7.5V291h2.8v17.1H1790.3z"/>
	<path d="M1833.2,305.6v2.5h-1.5c-2.3,0-3.1-1-3.1-2.7c-1.1,1.5-2.8,2.9-5.7,2.9c-3.8,0-6.3-1.9-6.3-5c0-3.4,2.4-5.3,6.9-5.3h5v-1.2
		c0-2.2-1.6-3.6-4.3-3.6c-2.4,0-4,1.1-4.4,2.9h-2.8c0.4-3.4,3.1-5.3,7.3-5.3c4.4,0,6.9,2.2,6.9,6.2v7.5c0,0.9,0.3,1.1,1.1,1.1
		H1833.2z M1828.5,300.3h-5.3c-2.5,0-3.8,0.9-3.8,2.9c0,1.7,1.4,2.8,3.7,2.8c3.4,0,5.4-2,5.4-4.8V300.3z"/>
	<path d="M1835.3,308.1V291h11v2.5h-8.2v14.6H1835.3z"/>
	<path d="M1863.7,305.6v2.5h-1.5c-2.3,0-3.1-1-3.1-2.7c-1.1,1.5-2.8,2.9-5.7,2.9c-3.8,0-6.3-1.9-6.3-5c0-3.4,2.4-5.3,6.9-5.3h5v-1.2
		c0-2.2-1.6-3.6-4.3-3.6c-2.4,0-4,1.1-4.4,2.9h-2.8c0.4-3.4,3.1-5.3,7.3-5.3c4.4,0,6.9,2.2,6.9,6.2v7.5c0,0.9,0.3,1.1,1.1,1.1
		H1863.7z M1859,300.3h-5.3c-2.5,0-3.8,0.9-3.8,2.9c0,1.7,1.4,2.8,3.7,2.8c3.4,0,5.4-2,5.4-4.8V300.3z"/>
	<path d="M1874.7,308.1V291h7.3c4.2,0,6.3,1.6,6.3,4.6c0,2.1-1.4,3.3-2.8,3.7c2,0.3,3.5,1.5,3.5,3.9c0,3.3-2.4,5-6.8,5H1874.7z
		 M1877.4,298.3h4.8c2.3,0,3.3-0.9,3.3-2.5c0-1.6-1-2.5-3.3-2.5h-4.8V298.3z M1877.4,305.7h5c2.3,0,3.6-0.8,3.6-2.6
		c0-1.7-1.3-2.6-3.6-2.6h-5V305.7z"/>
	<path d="M1905.4,308.1v-14.6h-6.2V291h15.1v2.5h-6.2v14.6H1905.4z"/>
	<path d="M1915,299.5c0-5.2,3.5-8.8,8.5-8.8s8.5,3.6,8.5,8.8c0,5.2-3.5,8.8-8.5,8.8S1915,304.7,1915,299.5z M1929.2,299.5
		c0-3.7-2.3-6.3-5.7-6.3s-5.7,2.7-5.7,6.3c0,3.7,2.3,6.3,5.7,6.3S1929.2,303.2,1929.2,299.5z"/>
	<path d="M1947.6,291h2.8v17.1h-2.8v-7.5h-9.6v7.5h-2.8V291h2.8v7.1h9.6V291z"/>
	<path d="M1953.5,299.5c0-5.2,3.3-8.8,8.1-8.8s8,3.1,8.1,8.1c0,0.4,0,0.8-0.1,1.2h-13.3v0.2c0.1,3.3,2.1,5.5,5.4,5.5
		c2.4,0,4.3-1.3,4.9-3.5h2.8c-0.7,3.4-3.5,5.9-7.5,5.9C1956.8,308.3,1953.5,304.8,1953.5,299.5z M1966.8,297.8
		c-0.3-3-2.3-4.6-5.1-4.6c-2.5,0-4.8,1.8-5.1,4.6H1966.8z"/>
</g>
<g>
	<path class="st0" d="M1402.4,272.3c0-7.1,4.4-12,11.2-12c5.2,0,9,3,9.9,7.9h-3.1c-0.9-3.3-3.4-5.2-6.9-5.2c-4.9,0-8.1,3.8-8.1,9.3
		c0,5.4,3,9.3,8,9.3c3.6,0,6.1-1.9,7-5.2h3.1c-0.9,4.9-4.8,7.9-10.1,7.9C1406.6,284.3,1402.4,279.5,1402.4,272.3z"/>
	<path class="st0" d="M1426.5,284.1V267h2.7v13l10.2-13h2.4v17.1h-2.7v-13l-10.2,13H1426.5z"/>
	<path class="st0" d="M1462.5,275.5c0,5.2-3.5,8.8-8.2,8.8c-2.9,0-4.8-1.2-5.9-2.8v9.3h-2.8V267h2.4l0.4,2.8c1.1-1.6,3-3,5.9-3
		C1459,266.8,1462.5,270,1462.5,275.5z M1459.6,275.5c0-3.7-2.3-6.3-5.7-6.3c-3.4,0-5.6,2.6-5.6,6.2c0,3.8,2.3,6.4,5.6,6.4
		C1457.4,281.8,1459.6,279.3,1459.6,275.5z"/>
	<path class="st0" d="M1465,275.5c0-5.2,3.3-8.8,8.1-8.8s8,3.1,8.1,8.1c0,0.4,0,0.8-0.1,1.2h-13.3v0.2c0.1,3.3,2.1,5.5,5.4,5.5
		c2.4,0,4.3-1.3,4.9-3.5h2.8c-0.7,3.4-3.5,5.9-7.5,5.9C1468.4,284.3,1465,280.8,1465,275.5z M1478.3,273.8c-0.3-3-2.3-4.6-5.1-4.6
		c-2.5,0-4.8,1.8-5.1,4.6H1478.3z"/>
	<path class="st0" d="M1496.8,267h2.8v17.1h-2.8v-7.5h-9.6v7.5h-2.8V267h2.8v7.1h9.6V267z"/>
	<path class="st0" d="M1502.7,275.5c0-5.2,3.3-8.8,8.1-8.8s8,3.1,8.1,8.1c0,0.4,0,0.8-0.1,1.2h-13.3v0.2c0.1,3.3,2.1,5.5,5.4,5.5
		c2.4,0,4.3-1.3,4.9-3.5h2.8c-0.7,3.4-3.5,5.9-7.5,5.9C1506.1,284.3,1502.7,280.8,1502.7,275.5z M1516,273.8c-0.3-3-2.3-4.6-5.1-4.6
		c-2.5,0-4.8,1.8-5.1,4.6H1516z"/>
	<path class="st0" d="M1522.1,284.1V267h7.3c4.2,0,6.3,1.6,6.3,4.6c0,2.1-1.4,3.3-2.8,3.7c2,0.3,3.5,1.5,3.5,3.9c0,3.3-2.4,5-6.8,5
		H1522.1z M1524.9,274.3h4.8c2.3,0,3.3-0.9,3.3-2.5c0-1.6-1-2.5-3.3-2.5h-4.8V274.3z M1524.9,281.7h5c2.3,0,3.6-0.8,3.6-2.6
		c0-1.7-1.3-2.6-3.6-2.6h-5V281.7z"/>
	<path class="st0" d="M1539.4,284.1V267h2.8v5.6h4.4c4.3,0,6.7,2.1,6.7,5.8c0,3.6-2.5,5.8-6.7,5.8H1539.4z M1542.1,281.7h3.9
		c2.8,0,4.4-1.2,4.4-3.4c0-2.2-1.5-3.4-4.4-3.4h-3.9V281.7z M1556,284.1V267h2.8v17.1H1556z"/>
	<path class="st0" d="M1562.5,284.1V267h2.7v13l10.2-13h2.4v17.1h-2.7v-13l-10.2,13H1562.5z M1565.2,260.4h2.3
		c0,1.6,0.7,2.7,2.7,2.7s2.7-1,2.7-2.7h2.3c-0.1,2.8-1.8,4.6-5,4.6C1566.9,265,1565.3,263.2,1565.2,260.4z"/>
	<path class="st0" d="M1606.9,277.8c0,3.8-3.3,6.5-8.6,6.5c-5.3,0-8.6-2.7-8.6-6.5c0-3.2,2-5.2,4.7-5.8c-2.2-0.5-4-2.5-4-5.3
		c0-3.7,3.1-6.2,7.9-6.2c4.8,0,7.9,2.6,7.9,6.2c0,2.7-1.7,4.8-4,5.3C1604.9,272.5,1606.9,274.6,1606.9,277.8z M1604.1,277.6
		c0-2.5-2.3-4.3-5.7-4.3c-3.4,0-5.7,1.8-5.7,4.3c0,2.5,2.3,4.3,5.7,4.3C1601.7,281.9,1604.1,280.1,1604.1,277.6z M1598.4,270.5
		c3,0,5-1.5,5-3.9c0-2.3-2-3.8-5-3.8c-3,0-5,1.5-5,3.8C1593.4,269,1595.4,270.5,1598.4,270.5z"/>
	<path class="st0" d="M1609.7,271.8c0-6.7,3.6-11.4,8.9-11.4c5.3,0,8.9,4.7,8.9,11.4v1.1c0,7-3.6,11.4-8.9,11.4
		c-5.3,0-8.9-4.4-8.9-11.4V271.8z M1624.7,271.9c0-5.6-2.4-8.9-6-8.9c-3.7,0-6.1,3.4-6.1,8.9v0.9c0,5.6,2.4,8.9,6.1,8.9
		c3.6,0,6-3.4,6-8.9V271.9z"/>
</g>
<g>
	<path class="st0" d="M1402.3,374.3c0-7.1,4.4-12,11.2-12c5.2,0,9,3,9.9,7.9h-3.1c-0.9-3.3-3.4-5.2-6.9-5.2c-4.9,0-8.1,3.8-8.1,9.3
		c0,5.4,3,9.3,8,9.3c3.6,0,6.1-1.9,7-5.2h3.1c-0.9,4.9-4.8,7.9-10.1,7.9C1406.5,386.3,1402.3,381.5,1402.3,374.3z"/>
	<path class="st0" d="M1426.5,386.1V369h2.7v13l10.2-13h2.4v17.1h-2.7v-13l-10.2,13H1426.5z"/>
	<path class="st0" d="M1462.4,377.5c0,5.2-3.5,8.8-8.2,8.8c-2.9,0-4.8-1.2-5.9-2.8v9.3h-2.8V369h2.4l0.4,2.8c1.1-1.6,3-3,5.9-3
		C1458.9,368.8,1462.4,372,1462.4,377.5z M1459.6,377.5c0-3.7-2.3-6.3-5.7-6.3c-3.4,0-5.6,2.6-5.6,6.2c0,3.8,2.3,6.4,5.6,6.4
		C1457.3,383.8,1459.6,381.3,1459.6,377.5z"/>
	<path class="st0" d="M1464.9,377.5c0-5.2,3.3-8.8,8.1-8.8s8,3.1,8.1,8.1c0,0.4,0,0.8-0.1,1.2h-13.3v0.2c0.1,3.3,2.1,5.5,5.4,5.5
		c2.4,0,4.3-1.3,4.9-3.5h2.8c-0.7,3.4-3.5,5.9-7.5,5.9C1468.3,386.3,1464.9,382.8,1464.9,377.5z M1478.2,375.8
		c-0.3-3-2.3-4.6-5.1-4.6c-2.5,0-4.8,1.8-5.1,4.6H1478.2z"/>
	<path class="st0" d="M1496.7,369h2.8v17.1h-2.8v-7.5h-9.6v7.5h-2.8V369h2.8v7.1h9.6V369z"/>
	<path class="st0" d="M1502.6,377.5c0-5.2,3.3-8.8,8.1-8.8s8,3.1,8.1,8.1c0,0.4,0,0.8-0.1,1.2h-13.3v0.2c0.1,3.3,2.1,5.5,5.4,5.5
		c2.4,0,4.3-1.3,4.9-3.5h2.8c-0.7,3.4-3.5,5.9-7.5,5.9C1506,386.3,1502.6,382.8,1502.6,377.5z M1515.9,375.8c-0.3-3-2.3-4.6-5.1-4.6
		c-2.5,0-4.8,1.8-5.1,4.6H1515.9z"/>
	<path class="st0" d="M1522,386.1V369h7.3c4.2,0,6.3,1.6,6.3,4.6c0,2.1-1.4,3.3-2.8,3.7c2,0.3,3.5,1.5,3.5,3.9c0,3.3-2.4,5-6.8,5
		H1522z M1524.8,376.3h4.8c2.3,0,3.3-0.9,3.3-2.5c0-1.6-1-2.5-3.3-2.5h-4.8V376.3z M1524.8,383.7h5c2.3,0,3.6-0.8,3.6-2.6
		c0-1.7-1.3-2.6-3.6-2.6h-5V383.7z"/>
	<path class="st0" d="M1539.3,386.1V369h2.8v5.6h4.4c4.3,0,6.7,2.1,6.7,5.8c0,3.6-2.5,5.8-6.7,5.8H1539.3z M1542.1,383.7h3.9
		c2.8,0,4.4-1.2,4.4-3.4c0-2.2-1.5-3.4-4.4-3.4h-3.9V383.7z M1555.9,386.1V369h2.8v17.1H1555.9z"/>
	<path class="st0" d="M1562.4,386.1V369h2.7v13l10.2-13h2.4v17.1h-2.7v-13l-10.2,13H1562.4z M1565.1,362.4h2.3
		c0,1.6,0.7,2.7,2.7,2.7c1.9,0,2.7-1,2.7-2.7h2.3c-0.1,2.8-1.8,4.6-5,4.6C1566.8,367,1565.2,365.2,1565.1,362.4z"/>
	<path class="st0" d="M1589.9,374.4c0-7.4,3.3-12.1,8.9-12.1c4.3,0,7.2,2.6,7.8,6.5h-2.8c-0.5-2.4-2.2-4-5.1-4c-4.1,0-6.3,3.7-6.3,9
		c0,0.3,0,0.6,0,1.1c0-0.1,0.1-0.3,0.2-0.6c1-2.3,3.4-3.9,6.5-3.9c4.6,0,7.9,3.1,7.9,7.9c0,4.5-3.3,7.9-8.2,7.9
		c-3.3,0-5.6-1.5-7.1-3.9C1590.5,380.4,1589.9,377.5,1589.9,374.4z M1598.9,373c-3.3,0-5.5,2.2-5.5,5.4c0,3.2,2.1,5.3,5.4,5.3
		c3.3,0,5.4-2.2,5.4-5.4C1604.2,375.3,1602.1,373,1598.9,373z"/>
	<path class="st0" d="M1609.7,373.8c0-6.7,3.6-11.4,8.9-11.4c5.3,0,8.9,4.7,8.9,11.4v1.1c0,7-3.6,11.4-8.9,11.4
		c-5.3,0-8.9-4.4-8.9-11.4V373.8z M1624.7,373.9c0-5.6-2.4-8.9-6-8.9c-3.7,0-6.1,3.4-6.1,8.9v0.9c0,5.6,2.4,8.9,6.1,8.9
		c3.6,0,6-3.4,6-8.9V373.9z"/>
</g>
<g>
	<path d="M1402.5,473.3c0-7.1,4.4-12,11.2-12c5.2,0,9,3,9.9,7.9h-3.1c-0.9-3.3-3.4-5.2-6.9-5.2c-4.9,0-8.1,3.8-8.1,9.3
		c0,5.4,3,9.3,8,9.3c3.6,0,6.1-1.9,7-5.2h3.1c-0.9,4.9-4.8,7.9-10.1,7.9C1406.7,485.3,1402.5,480.5,1402.5,473.3z"/>
	<path d="M1426.6,485.1V468h2.7v13l10.2-13h2.4v17.1h-2.7v-13l-10.2,13H1426.6z"/>
	<path d="M1462.6,476.5c0,5.2-3.5,8.8-8.2,8.8c-2.9,0-4.8-1.2-5.9-2.8v9.3h-2.8V468h2.4l0.4,2.8c1.1-1.6,3-3,5.9-3
		C1459.1,467.8,1462.6,471,1462.6,476.5z M1459.7,476.5c0-3.7-2.3-6.3-5.7-6.3c-3.4,0-5.6,2.6-5.6,6.2c0,3.8,2.3,6.4,5.6,6.4
		C1457.5,482.8,1459.7,480.3,1459.7,476.5z"/>
	<path d="M1465.1,476.5c0-5.2,3.3-8.8,8.1-8.8s8,3.1,8.1,8.1c0,0.4,0,0.8-0.1,1.2H1468v0.2c0.1,3.3,2.1,5.5,5.4,5.5
		c2.4,0,4.3-1.3,4.9-3.5h2.8c-0.7,3.4-3.5,5.9-7.5,5.9C1468.5,485.3,1465.1,481.8,1465.1,476.5z M1478.4,474.8
		c-0.3-3-2.3-4.6-5.1-4.6c-2.5,0-4.8,1.8-5.1,4.6H1478.4z"/>
	<path d="M1496.9,468h2.8v17.1h-2.8v-7.5h-9.6v7.5h-2.8V468h2.8v7.1h9.6V468z"/>
	<path d="M1502.8,476.5c0-5.2,3.3-8.8,8.1-8.8s8,3.1,8.1,8.1c0,0.4,0,0.8-0.1,1.2h-13.3v0.2c0.1,3.3,2.1,5.5,5.4,5.5
		c2.4,0,4.3-1.3,4.9-3.5h2.8c-0.7,3.4-3.5,5.9-7.5,5.9C1506.2,485.3,1502.8,481.8,1502.8,476.5z M1516.1,474.8
		c-0.3-3-2.3-4.6-5.1-4.6c-2.5,0-4.8,1.8-5.1,4.6H1516.1z"/>
	<path d="M1522.2,485.1V468h7.3c4.2,0,6.3,1.6,6.3,4.6c0,2.1-1.4,3.3-2.8,3.7c2,0.3,3.5,1.5,3.5,3.9c0,3.3-2.4,5-6.8,5H1522.2z
		 M1525,475.3h4.8c2.3,0,3.3-0.9,3.3-2.5c0-1.6-1-2.5-3.3-2.5h-4.8V475.3z M1525,482.7h5c2.3,0,3.6-0.8,3.6-2.6
		c0-1.7-1.3-2.6-3.6-2.6h-5V482.7z"/>
	<path d="M1539.5,485.1V468h2.8v5.6h4.4c4.3,0,6.7,2.1,6.7,5.8c0,3.6-2.5,5.8-6.7,5.8H1539.5z M1542.2,482.7h3.9
		c2.8,0,4.4-1.2,4.4-3.4c0-2.2-1.5-3.4-4.4-3.4h-3.9V482.7z M1556.1,485.1V468h2.8v17.1H1556.1z"/>
	<path d="M1562.6,485.1V468h2.7v13l10.2-13h2.4v17.1h-2.7v-13l-10.2,13H1562.6z M1565.3,461.4h2.3c0,1.6,0.7,2.7,2.7,2.7
		c1.9,0,2.7-1,2.7-2.7h2.3c-0.1,2.8-1.8,4.6-5,4.6C1567,466,1565.4,464.2,1565.3,461.4z"/>
	<path d="M1589,476.8l12-15.2h3.2v15.2h3.8v2.6h-3.8v5.7h-2.8v-5.7H1589V476.8z M1592.2,476.8h9.2v-11.7L1592.2,476.8z"/>
	<path d="M1609.7,472.8c0-6.7,3.6-11.4,8.9-11.4c5.3,0,8.9,4.7,8.9,11.4v1.1c0,7-3.6,11.4-8.9,11.4c-5.3,0-8.9-4.4-8.9-11.4V472.8z
		 M1624.7,472.9c0-5.6-2.4-8.9-6-8.9c-3.7,0-6.1,3.4-6.1,8.9v0.9c0,5.6,2.4,8.9,6.1,8.9c3.6,0,6-3.4,6-8.9V472.9z"/>
</g>
<g>
	<path d="M1404.2,549.3c0-7.1,4.4-12,11.2-12c5.2,0,9,3,9.9,7.9h-3.1c-0.9-3.3-3.4-5.2-6.9-5.2c-4.9,0-8.1,3.8-8.1,9.3
		c0,5.4,3,9.3,8,9.3c3.6,0,6.1-1.9,7-5.2h3.1c-0.9,4.9-4.8,7.9-10.1,7.9C1408.4,561.3,1404.2,556.5,1404.2,549.3z"/>
	<path d="M1428.4,561.1V544h2.7v13l10.2-13h2.4v17.1h-2.7v-13l-10.2,13H1428.4z"/>
	<path d="M1464.3,552.5c0,5.2-3.5,8.8-8.2,8.8c-2.9,0-4.8-1.2-5.9-2.8v9.3h-2.8V544h2.4l0.4,2.8c1.1-1.6,3-3,5.9-3
		C1460.8,543.8,1464.3,547,1464.3,552.5z M1461.5,552.5c0-3.7-2.3-6.3-5.7-6.3c-3.4,0-5.6,2.6-5.6,6.2c0,3.8,2.3,6.4,5.6,6.4
		C1459.2,558.8,1461.5,556.3,1461.5,552.5z"/>
	<path d="M1466.9,552.5c0-5.2,3.3-8.8,8.1-8.8s8,3.1,8.1,8.1c0,0.4,0,0.8-0.1,1.2h-13.3v0.2c0.1,3.3,2.1,5.5,5.4,5.5
		c2.4,0,4.3-1.3,4.9-3.5h2.8c-0.7,3.4-3.5,5.9-7.5,5.9C1470.2,561.3,1466.9,557.8,1466.9,552.5z M1480.1,550.8
		c-0.3-3-2.3-4.6-5.1-4.6c-2.5,0-4.8,1.8-5.1,4.6H1480.1z"/>
	<path d="M1498.6,544h2.8v17.1h-2.8v-7.5h-9.6v7.5h-2.8V544h2.8v7.1h9.6V544z"/>
	<path d="M1504.6,552.5c0-5.2,3.3-8.8,8.1-8.8s8,3.1,8.1,8.1c0,0.4,0,0.8-0.1,1.2h-13.3v0.2c0.1,3.3,2.1,5.5,5.4,5.5
		c2.4,0,4.3-1.3,4.9-3.5h2.8c-0.7,3.4-3.5,5.9-7.5,5.9C1507.9,561.3,1504.6,557.8,1504.6,552.5z M1517.8,550.8
		c-0.3-3-2.3-4.6-5.1-4.6c-2.5,0-4.8,1.8-5.1,4.6H1517.8z"/>
	<path d="M1524,561.1V544h7.3c4.2,0,6.3,1.6,6.3,4.6c0,2.1-1.4,3.3-2.8,3.7c2,0.3,3.5,1.5,3.5,3.9c0,3.3-2.4,5-6.8,5H1524z
		 M1526.7,551.3h4.8c2.3,0,3.3-0.9,3.3-2.5c0-1.6-1-2.5-3.3-2.5h-4.8V551.3z M1526.7,558.7h5c2.3,0,3.6-0.8,3.6-2.6
		c0-1.7-1.3-2.6-3.6-2.6h-5V558.7z"/>
	<path d="M1541.2,561.1V544h2.8v5.6h4.4c4.3,0,6.7,2.1,6.7,5.8c0,3.6-2.5,5.8-6.7,5.8H1541.2z M1544,558.7h3.9
		c2.8,0,4.4-1.2,4.4-3.4c0-2.2-1.5-3.4-4.4-3.4h-3.9V558.7z M1557.8,561.1V544h2.8v17.1H1557.8z"/>
	<path d="M1564.3,561.1V544h2.7v13l10.2-13h2.4v17.1h-2.7v-13l-10.2,13H1564.3z M1567,537.4h2.3c0,1.6,0.7,2.7,2.7,2.7
		s2.7-1,2.7-2.7h2.3c-0.1,2.8-1.8,4.6-5,4.6C1568.7,542,1567.1,540.2,1567,537.4z"/>
	<path d="M1591.1,558.7l9.1-7.9c2.2-1.9,4-3.7,4-6.2c0-3-2-4.6-5.1-4.6c-3,0-5,2-5,5.2v0.4h-2.8V545c0-4.4,3.1-7.6,7.9-7.6
		c5.1,0,8,2.8,8,7c0,3.5-2.3,5.7-5.1,8.1l-7,6h12.3v2.6h-16.2V558.7z"/>
	<path d="M1609.7,548.8c0-6.7,3.6-11.4,8.9-11.4c5.3,0,8.9,4.7,8.9,11.4v1.1c0,7-3.6,11.4-8.9,11.4c-5.3,0-8.9-4.4-8.9-11.4V548.8z
		 M1624.7,548.9c0-5.6-2.4-8.9-6-8.9c-3.7,0-6.1,3.4-6.1,8.9v0.9c0,5.6,2.4,8.9,6.1,8.9c3.6,0,6-3.4,6-8.9V548.9z"/>
</g>
</svg>
