<?xml version="1.0" encoding="utf-8"?>
<!-- Generator: Adobe Illustrator 22.0.0, SVG Export Plug-In . SVG Version: 6.00 Build 0)  -->
<svg version="1.1" id="Layer_1" xmlns="http://www.w3.org/2000/svg" xmlns:xlink="http://www.w3.org/1999/xlink" x="0px" y="0px"
	 viewBox="0 0 1920 1080" style="enable-background:new 0 0 1920 1080;" xml:space="preserve">
<style type="text/css">
	.st0{fill:#E3D6FF;}
	.st1{fill:#462170;}
</style>
<rect class="st0" width="1920" height="1080"/>
<g>
	<g>
		<path class="st1" d="M802.9,839v-14.7h8.1c6.7,0,9.2-1.3,11.4-6.1l1.4-3.2l-30.6-55.6h18.6l20.2,38l16.9-38h17.5l-29.1,63.2
			C831.7,835,825,839,815.7,839H802.9z"/>
		<path class="st1" d="M865.1,813.4h16.7c0.9,8.8,6.4,12.7,15.8,12.7c8.4,0,14-3.9,14-10.8c0-6.7-4.5-9.9-14.1-9.9h-9.2v-13.3h8.2
			c9.2,0,13.5-3.8,13.5-10.1c0-6.3-5-9.8-13.1-9.8c-8.9,0-14,4.5-15,11.9h-16.4c1-14.9,12.6-25.5,31.7-25.5
			c18.6,0,29.9,8.1,29.9,21.8c0,9.8-5.7,15.2-13.5,17.4c8.1,2,15.2,7.5,15.2,18.4c0,14.7-12.5,23.3-31.7,23.3
			C876.9,839.7,866,830.8,865.1,813.4z"/>
		<path class="st1" d="M937.4,759.4h17.1v31.9h31.6v-31.9h17V839h-17v-32.8h-31.6V839h-17.1V759.4z"/>
		<path class="st1" d="M1008.4,839l29.1-79.6h20.5l28.9,79.6h-18.3l-6.1-17.4h-30.2L1026,839H1008.4z M1036.7,807.8h21l-10.6-30.2
			L1036.7,807.8z"/>
		<path class="st1" d="M1198.5,799.2c0,23.2-15.6,40.5-38.9,40.5c-20.8,0-35.5-13.9-38.3-33.5h-12V839h-17.1v-79.6h17.1v32.2h12.2
			c3.1-19.2,17.6-32.9,38.2-32.9C1182.9,758.7,1198.5,776,1198.5,799.2z M1181,799.2c0-15-8.2-26-21.4-26c-13.1,0-21.3,11-21.3,26
			c0,15,8.2,26,21.3,26C1172.8,825.2,1181,814.2,1181,799.2z"/>
		<g>
			<path class="st1" d="M753.3,759.4c-17.5,0-29.3,10.5-29.3,26.3c0,11.2,5.8,19.7,15.5,23.7c0,0,5.3,2.6,13.8,2.6l17.7,0V839H788
				v-79.6H753.3z M754.4,797.7c-8.1,0-13.2-4.6-13.2-12c0-7.4,5.1-12,13.2-12H771v24H754.4z"/>
			<polygon class="st1" points="768.6,799.2 750.3,799.2 721.5,839 741.5,839 			"/>
		</g>
	</g>
	<g id="_x3C_Groupsymbol_x3E__7_">
		<g>
			<path class="st1" d="M1034.1,240.3H885.9c-87,0-157.6,70.5-157.6,157.6v53.4c0,87,70.5,157.6,157.6,157.6h150.6v-74.6H834.2
				c-16.7,0-30.3-13.6-30.3-30.3V346.3c0-16.7,13.6-30.3,30.3-30.3h251.6c16.7,0,30.3,13.6,30.3,30.3v378.9h75.6V397.9
				C1191.7,310.9,1121.2,240.3,1034.1,240.3z"/>
		</g>
		<polygon class="st1" points="939.3,416.7 845,416.7 1005.6,571.6 846.3,725.1 940.6,725.1 1094.2,571.6 		"/>
	</g>
</g>
</svg>
