<?xml version="1.0" encoding="utf-8"?>
<!-- Generator: Adobe Illustrator 22.0.0, SVG Export Plug-In . SVG Version: 6.00 Build 0)  -->
<svg version="1.1" id="Layer_1" xmlns="http://www.w3.org/2000/svg" xmlns:xlink="http://www.w3.org/1999/xlink" x="0px" y="0px"
	 viewBox="0 0 1920 1080" style="enable-background:new 0 0 1920 1080;" xml:space="preserve">
<style type="text/css">
	.st0{fill:#462170;}
	.st1{fill:#E3D6FF;}
	.st2{fill:none;stroke:#E3D6FF;stroke-miterlimit:10;}
</style>
<rect class="st0" width="1920" height="1080"/>
<g>
	<g id="_x3C_Groupsymbol_x3E__7_">
		<g>
			<path class="st1" d="M1034.1,297.6H885.9c-87,0-157.6,70.5-157.6,157.6v53.4c0,87,70.5,157.6,157.6,157.6h150.6v-74.6H834.2
				c-16.7,0-30.3-13.6-30.3-30.3V403.6c0-16.7,13.6-30.3,30.3-30.3h251.6c16.7,0,30.3,13.6,30.3,30.3v378.9h75.6V455.2
				C1191.7,368.2,1121.2,297.6,1034.1,297.6z"/>
		</g>
		<polygon class="st1" points="939.3,474 845,474 1005.6,628.8 846.3,782.3 940.6,782.3 1094.2,628.8 		"/>
	</g>
</g>
<rect x="593" y="173" class="st2" width="734" height="734"/>
<path class="st2" d="M960,907L960,907c-202.7,0-367-164.3-367-367v0c0-202.7,164.3-367,367-367h0c202.7,0,367,164.3,367,367v0
	C1327,742.7,1162.7,907,960,907z"/>
<path class="st2" d="M1179.5,907h-439C659,907,593,841,593,759.5v-439C593,239,659,173,740.5,173h439c81.5,0,147.5,66,147.5,147.5
	v439C1327,841,1261,907,1179.5,907z"/>
</svg>
