<?xml version="1.0" encoding="utf-8"?>
<!-- Generator: Adobe Illustrator 22.0.0, SVG Export Plug-In . SVG Version: 6.00 Build 0)  -->
<svg version="1.1" id="Layer_1" xmlns="http://www.w3.org/2000/svg" xmlns:xlink="http://www.w3.org/1999/xlink" x="0px" y="0px"
	 viewBox="0 0 2600 1625.7" style="enable-background:new 0 0 2600 1625.7;" xml:space="preserve">
<style type="text/css">
	.st0{fill:#FFFFFF;}
	.st1{fill:#CCADFF;}
	.st2{fill:#462170;}
	.st3{fill:#8F3BF2;}
</style>
<g>
	<rect class="st0" width="2600" height="1625"/>
	<g>
		<path class="st1" d="M0,0h93.2l83.6,152.8L264.6,0h88.9L216.7,234.2v138.4h-79.8V234.2L0,0z"/>
		<path class="st1" d="M288.5,372.6L424.7,0h95.8l135.2,372.6h-85.7l-28.7-81.4H399.7L371,372.6H288.5z M421,226.8h98.5L470,85.2
			L421,226.8z"/>
		<path class="st1" d="M651.4,0h79.8v216.1c0,59.1,21.8,91,72.9,91c51.6,0,73.5-31.9,73.5-91V0h79.9v211.9
			c0,105.9-52.7,164-153.3,164c-100.1,0-152.8-58-152.8-164V0z"/>
		<path class="st1" d="M979.5,0H1276v52.7l-191.1,251.8h195.9v68.1H974.7v-52.7l191.1-251.8H979.5V0z"/>
		<path class="st1" d="M1307.7,372.6V0h72.4l158.1,234.8V0h78.8v372.6H1544l-158.1-234.8v234.8H1307.7z"/>
		<path class="st1" d="M1628.5,372.6L1764.8,0h95.8l135.2,372.6h-85.7l-28.7-81.4h-141.6l-28.7,81.4H1628.5z M1761.1,226.8h98.5
			L1810,85.2L1761.1,226.8z"/>
		<path class="st1" d="M1930.8,0h93.2l83.6,152.8L2195.4,0h88.9l-136.8,234.2v138.4h-79.9V234.2L1930.8,0z"/>
		<path class="st1" d="M2293.9,0h79.8v216.1c0,59.1,21.8,91,72.9,91c51.6,0,73.5-31.9,73.5-91V0h79.8v211.9
			c0,105.9-52.7,164-153.3,164c-100.1,0-152.8-58-152.8-164V0z"/>
	</g>
	<g>
		<path class="st2" d="M1444.1,769V546.3h17.2v206.9h106.6V769H1444.1z"/>
		<path class="st2" d="M1577.8,562.2c0-6.7,5.1-11.5,11.5-11.5c6.4,0,11.5,4.8,11.5,11.5c0,6.7-5.1,11.5-11.5,11.5
			C1582.9,573.6,1577.8,568.8,1577.8,562.2z M1581,607.7h16.2V769H1581V607.7z"/>
		<path class="st2" d="M1756,607.7h14v151.5c0,50.6-24.5,75.4-76.7,75.4c-39.1,0-66.8-18.5-71.9-52.8h16.9
			c5.1,24.5,26.1,38.2,56.3,38.2c38.8,0,59.2-18.5,59.2-61.4v-28.6c-10.2,25.1-31.5,41.1-61.7,41.1c-44.2,0-76.1-31.8-76.1-82.7
			c0-49,31.8-82.4,76.1-82.4c29.9,0,51.6,15.6,61.4,39.5L1756,607.7z M1754.1,688.5c0-40.4-24.8-68.4-60.8-68.4
			c-36,0-60.8,28-60.8,68.1s24.8,68.1,60.8,68.1C1729.3,756.3,1754.1,728.3,1754.1,688.5z"/>
		<path class="st2" d="M1935.3,678.6V769h-16.2v-89.7c0-38.2-19.1-58.6-50-58.6c-34.4,0-55.7,26.7-55.7,68.7V769h-16.2V546.3h16.2
			v99.6c9.2-23.2,28-40.1,58.2-40.1C1908.3,605.8,1935.3,627.7,1935.3,678.6z"/>
		<path class="st2" d="M1967,622.6h-30.6v-15h30.6v-45.2h16.2v45.2h43.6v15h-43.6v108.5c0,16.5,6,22.9,22.9,22.9h22.3v15h-23.5
			c-27.4,0-37.9-11.8-37.9-37.6V622.6z"/>
		<path class="st2" d="M1442.9,829.2h85.3c44.6,0,74.1,26.7,74.1,68.4c0,31.2-18.8,55.4-47.4,63.3l50,91h-31.2l-47.1-85.6h-56v85.6
			h-27.7V829.2z M1470.6,854.6v86.2h55.4c29.3,0,48.1-17.2,48.1-43.3c0-26.1-18.8-43-47.7-43H1470.6z"/>
		<path class="st2" d="M1611.3,970.8c0-49.3,31.2-83.1,77-83.1s75.7,29,77,77c0,3.5-0.3,7.3-0.6,11.1h-126v2.2
			c1,30.9,20.4,52.5,51.2,52.5c22.9,0,40.7-12.1,46.1-33.1h26.4c-6.4,32.5-33.1,56.3-70.6,56.3
			C1643.2,1053.8,1611.3,1020.4,1611.3,970.8z M1737.4,954.2c-2.5-28-21.6-43.6-48.7-43.6c-23.9,0-45.8,17.2-48.4,43.6H1737.4z"/>
		<path class="st2" d="M1913.3,889.6h22.6V1044c0,46.8-24.8,73.5-80.5,73.5c-41.4,0-70.3-19.4-74.5-55.1h26.7
			c4.5,20.4,22.6,31.8,49.6,31.8c34.1,0,52.5-15.9,52.5-51.2v-19.1c-10.8,18.5-28.3,29.9-55.7,29.9c-44.9,0-78-30.2-78-83.1
			c0-49.6,33.1-83.1,78-83.1c27.4,0,45.5,11.8,55.7,29.9L1913.3,889.6z M1910.1,971.4c0-35.6-21.6-60.5-53.5-60.5
			c-32.1,0-53.8,24.5-53.8,59.8s21.6,59.8,53.8,59.8C1888.5,1030.6,1910.1,1006.1,1910.1,971.4z"/>
		<path class="st2" d="M2075.3,889.6h26.1v162.3h-22.6l-3.5-21.6c-9.5,12.1-25.1,23.5-51.9,23.5c-35.6,0-64-20-64-73.8v-90.4h26.1
			v88.8c0,33.7,15.3,51.6,42.3,51.6c29.6,0,47.4-22.6,47.4-59.2V889.6z"/>
		<path class="st2" d="M2126.5,829.2h26.1v222.8h-26.1V829.2z"/>
		<path class="st2" d="M2328.3,1028.1v23.9H2314c-21.6,0-29-9.2-29.3-25.1c-10.2,14.6-26.4,27-54.4,27c-35.6,0-59.8-17.8-59.8-47.4
			c0-32.5,22.6-50.6,65.2-50.6h47.7v-11.1c0-21-15-33.7-40.4-33.7c-22.9,0-38.2,10.8-41.4,27.4h-26.1c3.8-31.8,29.6-50.6,68.7-50.6
			c41.4,0,65.2,20.7,65.2,58.6v71c0,8.6,3.2,10.8,10.5,10.8H2328.3z M2283.4,977.8h-50.3c-23.2,0-36.3,8.6-36.3,27
			c0,15.9,13.7,26.7,35.3,26.7c32.5,0,51.2-18.8,51.2-45.8V977.8z"/>
		<path class="st2" d="M2421.2,889.6v25.5h-13c-34.1,0-43.3,28.3-43.3,54.1v82.7h-26.1V889.6h22.6l3.5,24.5
			c7.6-12.4,20-24.5,49-24.5H2421.2z"/>
		<path class="st2" d="M1441.6,1112.1h47.4l71.3,175.3l70-175.3h46.5v222.8h-35.3V1171l-66.8,163.9h-30.9l-66.8-163.9v163.9h-35.3
			V1112.1z"/>
		<path class="st2" d="M1697.2,1253.7c0-50.3,32.1-83.7,80.2-83.7c47.1,0,78.6,29.9,79.6,77.6c0,4.1-0.3,8.6-1,13h-122.8v2.2
			c1,27.7,18.5,45.8,45.5,45.8c21,0,36.3-10.5,41.1-28.6h34.4c-5.7,32.1-33.1,56.6-73.5,56.6
			C1729.3,1336.8,1697.2,1303.7,1697.2,1253.7z M1821.3,1235.6c-2.9-24.2-19.7-37.9-43.6-37.9c-22,0-40.7,14.6-43.3,37.9H1821.3z"/>
		<path class="st2" d="M1995.2,1112.1h34.4v222.8h-29.9l-4.1-24.5c-10.5,14.3-27.4,26.4-53.1,26.4c-44.2,0-77-31.2-77-83.4
			c0-50.3,32.8-83.4,77-83.4c24.8,0,42.3,10.2,52.8,24.5V1112.1z M1995.6,1254c0-32.5-18.8-54.7-47.4-54.7
			c-28.6,0-47.4,22.3-47.4,54.1c0,32.1,18.8,54.4,47.4,54.4C1976.8,1307.8,1995.6,1285.5,1995.6,1254z"/>
		<path class="st2" d="M2049.5,1128.3c0-12.1,9.2-20.7,21-20.7c11.8,0,21,8.6,21,20.7s-9.2,20.7-21,20.7
			C2058.7,1149,2049.5,1140.4,2049.5,1128.3z M2053,1171.9h34.4v162.9H2053V1171.9z"/>
		<path class="st2" d="M2221.6,1171.9h34.4v162.9h-30.2l-3.8-20.7c-10.2,12.4-25.1,22.6-50.3,22.6c-34.7,0-64.3-18.5-64.3-74.1
			v-90.7h34.4v86.9c0,31.8,12.7,48.1,37.9,48.1c26.1,0,42-19.7,42-53.5V1171.9z"/>
		<path class="st2" d="M2527.7,1241v93.9h-34.4v-91.7c0-28.6-11.8-43.6-34.1-43.6c-23.5,0-38.5,17.8-38.5,47.1v88.2H2386v-91.7
			c0-28.6-11.8-43.6-34.4-43.6c-23.5,0-38.2,19.1-38.2,48.1v87.2h-34.4v-162.9h29.9l3.8,21.3c9.2-12.1,23.2-22.9,47.7-23.2
			c21.3,0,40.4,8.6,50.3,29.6c10.5-17.8,29-29.6,55.7-29.6C2500.3,1170,2527.7,1189.4,2527.7,1241z"/>
		<path class="st2" d="M1440.3,1395h84.7c51.6,0,81.5,21.6,81.5,58.9c0,28-16.5,43.9-42,49.3c29.6,3.8,50,19.4,50,51.2
			c0,38.8-30.6,63.3-85.3,63.3h-88.8V1395z M1488.1,1432.6v54.1h38.2c20.4,0,32.5-10.5,32.5-27c0-16.5-11.8-27-32.5-27H1488.1z
			 M1488.1,1523.6v56.3h41.4c22.9,0,36-10.5,36-27.7c0-18.1-13.4-28.6-36-28.6H1488.1z"/>
		<path class="st2" d="M1621.4,1536c0-50.3,34.1-83.7,86.2-83.7c52.2,0,86.2,33.4,86.2,83.7c0,50.6-34.1,83.7-86.2,83.7
			C1655.5,1619.7,1621.4,1586.3,1621.4,1536z M1748.4,1536c0-27.7-15.6-47.1-40.7-47.1c-25.1,0-40.4,19.4-40.4,47.1
			s15.3,47.1,40.4,47.1C1732.8,1583.1,1748.4,1563.7,1748.4,1536z"/>
		<path class="st2" d="M1807.8,1395h44.9v222.8h-44.9V1395z"/>
		<path class="st2" d="M1991.7,1395h44.9v222.8h-39.1l-4.5-22.6c-10.8,14-26.7,24.5-50.3,24.5c-43.9,0-76.1-32.1-76.1-84
			c0-50.6,32.1-83.4,75.7-83.4c22.6,0,38.8,8.9,49.3,22.3V1395z M1992.3,1536.3c0-28-15.3-47.4-39.8-47.4
			c-24.5,0-40.1,19.1-40.1,47.1s15.6,47.1,40.1,47.1C1977,1583.1,1992.3,1564,1992.3,1536.3z"/>
	</g>
	<g>
		<path class="st3" d="M1020.6,707.9c0,36.9-31.2,63-77.6,63s-77-25.1-77-67.1h16.5c0,32.8,25.5,52.2,61.4,52.2
			c34.4,0,59.8-20,59.8-49c0-28.6-22-44.6-60.8-44.6h-18.5v-14.3H942c36.9,0,55.7-19.7,55.7-45.8c0-25.8-21.6-43-53.5-43
			c-32.8,0-56.3,18.5-56.6,47.7H871c0.3-38.2,30.9-62.7,73.2-62.7c43.3,0,70.3,23.2,70.3,57.3c0,29-16.5,46.8-41.7,51.9
			C998.6,657.3,1020.6,673.2,1020.6,707.9z"/>
		<path class="st3" d="M1038,652.5c0-63.3,32.1-108.2,80.5-108.2c47.7,0,80.2,44.9,80.2,108.2v10.2c0,65.2-32.5,108.2-80.2,108.2
			c-48.4,0-80.5-43-80.5-108.2V652.5z M1181.8,653.2c0-56.6-25.1-93.6-63.3-93.6c-38.5,0-63.6,36.9-63.6,93.6v8.9
			c0,56.6,25.1,93.6,63.6,93.6c38.2,0,63.3-36.9,63.3-93.6V653.2z"/>
		<path class="st3" d="M1218.4,652.5c0-63.3,32.1-108.2,80.5-108.2c47.7,0,80.2,44.9,80.2,108.2v10.2c0,65.2-32.5,108.2-80.2,108.2
			c-48.4,0-80.5-43-80.5-108.2V652.5z M1362.2,653.2c0-56.6-25.1-93.6-63.3-93.6c-38.5,0-63.6,36.9-63.6,93.6v8.9
			c0,56.6,25.1,93.6,63.6,93.6c38.2,0,63.3-36.9,63.3-93.6V653.2z"/>
		<path class="st3" d="M860.2,973.6l113.6-144.5h29.9V973h36v24.5h-36v54.4H977v-54.4H860.2V973.6z M890.1,973H977V861.9L890.1,973z
			"/>
		<path class="st3" d="M1047.3,935.5c0-63.3,34.4-108.2,84.7-108.2c50,0,84.3,44.9,84.3,108.2v10.2c0,66.5-34.4,108.2-84.3,108.2
			c-50.3,0-84.7-41.7-84.7-108.2V935.5z M1189.2,936.4c0-52.8-22.9-84.7-57.3-84.7c-34.7,0-57.6,31.8-57.6,84.7v8.3
			c0,52.8,22.9,84.7,57.6,84.7c34.4,0,57.3-31.8,57.3-84.7V936.4z"/>
		<path class="st3" d="M1233.9,935.5c0-63.3,34.4-108.2,84.7-108.2c50,0,84.3,44.9,84.3,108.2v10.2c0,66.5-34.4,108.2-84.3,108.2
			c-50.3,0-84.7-41.7-84.7-108.2V935.5z M1375.9,936.4c0-52.8-22.9-84.7-57.3-84.7c-34.7,0-57.6,31.8-57.6,84.7v8.3
			c0,52.8,22.9,84.7,57.6,84.7c34.4,0,57.3-31.8,57.3-84.7V936.4z"/>
		<path class="st3" d="M1031.1,1260.1c0,50-37.2,76.4-80.8,76.4c-50.6,0-80.5-32.1-82.7-71.9h35c2.5,23.2,19.4,42.3,48.1,42.3
			c22.9,0,44.9-15.9,44.9-46.8c0-27-17.5-46.5-44.9-46.5c-13.4,0-36,4.5-44.9,27.4l-34.1-0.6l7-128.3h139.1v30.9H910.8l-3.8,60.5
			c12.4-13.4,29.3-18.8,49.6-18.8C1000.9,1184.6,1031.1,1215.2,1031.1,1260.1z"/>
		<path class="st3" d="M1039.5,1218.4c0-64.6,36-108.2,87.8-108.2c51.9,0,87.8,43.6,87.8,108.2v10.2c0,67.1-36,108.2-87.8,108.2
			c-51.9,0-87.8-41.1-87.8-108.2V1218.4z M1179.5,1219.7c0-49.6-21-78.6-52.2-78.6c-31.2,0-52.2,29-52.2,78.6v7.6
			c0,50,21,78.6,52.2,78.6c31.2,0,52.2-28.6,52.2-78.6V1219.7z"/>
		<path class="st3" d="M1229.4,1218.4c0-64.6,36-108.2,87.8-108.2c51.9,0,87.8,43.6,87.8,108.2v10.2c0,67.1-36,108.2-87.8,108.2
			c-51.9,0-87.8-41.1-87.8-108.2V1218.4z M1369.5,1219.7c0-49.6-21-78.6-52.2-78.6c-31.2,0-52.2,29-52.2,78.6v7.6
			c0,50,21,78.6,52.2,78.6c31.2,0,52.2-28.6,52.2-78.6V1219.7z"/>
		<path class="st3" d="M858.9,1395h163.3v29.6l-98,193.2h-49.6l97.4-183.9h-113V1395z"/>
		<path class="st3" d="M1016.2,1501.3c0-66.5,37.9-108.2,91.7-108.2c54.1,0,92,41.7,92,108.2v10.2c0,67.8-37.9,108.2-92,108.2
			c-53.8,0-91.7-40.4-91.7-108.2V1501.3z M1154,1502.9c0-45.8-18.8-71-46.1-71c-27.1,0-45.8,25.1-45.8,71v7c0,46.1,18.8,71,45.8,71
			c27.4,0,46.1-24.8,46.1-71V1502.9z"/>
		<path class="st3" d="M1211.2,1501.3c0-66.5,37.9-108.2,91.7-108.2c54.1,0,92,41.7,92,108.2v10.2c0,67.8-37.9,108.2-92,108.2
			c-53.8,0-91.7-40.4-91.7-108.2V1501.3z M1349,1502.9c0-45.8-18.8-71-46.1-71c-27.1,0-45.8,25.1-45.8,71v7c0,46.1,18.8,71,45.8,71
			c27.4,0,46.1-24.8,46.1-71V1502.9z"/>
	</g>
	<g>
		<g>
			<path class="st1" d="M46.8,692.8c1.6,21.6,18.8,36.6,46.1,36.6c22,0,38.2-9.5,38.2-27c0-18.8-18.1-22.6-55.4-29.9
				c-37.6-7-70.6-19.1-70.6-64.3c0-39.5,32.8-67.5,83.1-67.5c52.5,0,85.9,27.4,86.6,70h-46.8c-2.2-18.8-16.5-31.8-39.8-31.8
				c-20.4,0-35,8.6-35,25.8c0,18.1,17.5,22,54.4,29c38.2,7,71.9,18.5,71.6,63.3c-0.3,41.7-34.7,70.3-86.9,70.3
				c-56.6,0-92-29.9-92.3-75.1L46.8,692.8z"/>
			<path class="st1" d="M354.6,727.5v37.9h-22.9c-23.2,0-30.6-11.1-30.2-26.7c-11.5,18.1-28,28.6-53.5,28.6
				c-35.3,0-60.8-16.9-60.8-48.1c0-34.7,26.1-54.4,75.1-54.4h32.5v-8c0-14.6-10.5-24.2-29.3-24.2c-17.5,0-29.3,8-31.2,20H191
				c3.2-31.8,32.5-52.8,75.7-52.8c45.8,0,72.2,20.4,72.2,59.5v57.9c0,8.6,3.5,10.2,10.5,10.2H354.6z M294.8,694.7H262
				c-18.8,0-29.6,7.6-29.6,21.3c0,11.5,9.2,18.8,24.2,18.8c23.5,0,37.9-14.6,38.2-36.9V694.7z"/>
			<path class="st1" d="M524.1,674.7v90.7h-44.9v-86.2c0-27.7-10.5-42.3-33.1-42.3c-23.2,0-36.6,16.5-36.6,44.9v83.7h-44.9V601.8
				h39.1l4.1,20.4c10.5-12.7,25.5-22.3,50.6-22.3C493.8,599.9,524.1,618.7,524.1,674.7z"/>
			<path class="st1" d="M576.9,711c1.6,14.3,14,24.2,36,24.2c18.8,0,30.2-6,30.2-17.5c0-13.4-11.1-14.3-37.6-17.8
				c-38.2-4.5-67.8-13-67.8-46.8c0-32.5,28.3-53.8,70.3-53.5c43.9,0,74.1,19.4,76.4,52.8h-43c-1.3-13-13.7-21-31.8-21
				c-17.5,0-29,6.4-29,16.9c0,12.4,14,13.7,37.6,16.5c37.6,3.8,68.7,12.4,68.7,49.3c0,32.5-30.6,53.1-74.5,53.1
				c-45.5,0-76.4-21.3-78.3-56.3H576.9z"/>
		</g>
	</g>
	<g>
		<path class="st2" d="M0,1122l18.2-47h4.2l18.1,47h-3.9l-5.6-14.4H9.4L3.8,1122H0z M10.5,1104.3h19.5l-9.7-25.2L10.5,1104.3z"/>
		<path class="st2" d="M74.2,1118.8v3.2h-2c-4,0-5.7-1.7-5.6-5.8v-1.2c-2.1,4.2-6.2,7.4-13.1,7.4c-7.2,0-12-3.7-12-9.7
			c0-6.4,4.7-10.1,13.4-10.1h11.5v-3c0-5.6-3.6-9-10-9c-5.8,0-9.4,2.8-10.3,6.9h-3.4c0.9-6.2,6-9.9,13.8-9.9
			c8.5,0,13.3,4.4,13.3,12.1v15.8c0,2.6,1,3.3,3,3.3H74.2z M66.5,1105.5H54.7c-6.3,0-9.7,2.5-9.7,7c0,4.2,3.4,7,8.8,7
			c8.1,0,12.7-4.7,12.7-11.2V1105.5z"/>
		<path class="st2" d="M77.2,1122v-47h27.6v3.4h-24v16.6h13.7c8.8,0,14.6,4.8,14.6,13.5c0,8.4-5.8,13.6-14.6,13.6H77.2z
			 M80.9,1118.6h13.4c6.9,0,11.3-4,11.3-10.1c0-6.2-4.4-10.2-11.3-10.2H80.9V1118.6z"/>
		<path class="st2" d="M144.4,1106c0,9.5-6.6,16.4-16.1,16.4c-9.6,0-16.1-6.2-16.1-18.5c0-19.1,4.2-25.9,18.7-27.8l11.1-1.5v3.2
			l-10.5,1.4c-11.6,1.5-15,5.6-15.8,18.1c2.1-4.1,6.7-7.4,13.4-7.4C137.9,1089.9,144.4,1096.4,144.4,1106z M140.9,1106.1
			c0-7.6-5.2-13.2-12.5-13.2c-7.5,0-12.7,5.5-12.7,12.3c0,9.1,5.4,14.1,12.6,14.1C135.6,1119.4,140.9,1113.9,140.9,1106.1z"/>
		<path class="st2" d="M148.4,1075h16c9.5,0,14.7,4.6,14.7,12.1c0,5.7-3.2,9.3-8.5,10.6c6.2,0.9,10.6,4.5,10.6,11.2
			c0,8.1-5.6,13.1-16.6,13.1h-16.3V1075z M152,1078.3v18h12.5c7,0,10.9-3.4,10.9-9.1c0-5.6-3.9-9-10.9-9H152z M152,1099.6v19.1h12.7
			c8.5,0,12.8-3.7,12.8-9.6c0-6.2-4.7-9.5-12.8-9.5H152z"/>
		<path class="st2" d="M185.9,1122v-34H200c7.9,0,11.5,3.2,11.5,8.8c0,4.3-2.5,6.9-6.3,7.6c4.6,0.6,7.6,3.2,7.6,8.1
			c0,6.2-4.5,9.5-12.8,9.5H185.9z M189.3,1103.1h10.9c5.6,0,7.8-2.3,7.8-6.1c0-4-2.2-6.1-7.8-6.1h-10.9V1103.1z M189.3,1119h11.2
			c5.8,0,8.9-2.1,8.9-6.5c0-4.2-3.2-6.5-8.9-6.5h-11.2V1119z"/>
		<path class="st2" d="M217.8,1122v-47h26.4v3.4h-22.8v43.6H217.8z"/>
		<path class="st2" d="M236.9,1122v-34h20.9v3.2h-17.5v30.9H236.9z"/>
		<path class="st2" d="M294.1,1118.6h5.8v12.9h-3.6v-9.6h-38.6v9.6h-3.6v-12.9h4.2c3.3-3.1,5.2-7.8,5.2-22.3V1075h30.6V1118.6z
			 M290.5,1118.6v-40.5H267v18.7c0,12.5-1.4,18.1-4.3,21.9H290.5z"/>
		<path class="st2" d="M333.3,1118.8h5.4v12.2h-3.4v-9.1h-30.3v9.1h-3.4v-12.2h3.4c2.6-2.2,4-5,4-16.4V1088h24.3V1118.8z
			 M329.9,1118.8v-27.7h-17.5v11.6c0,9.5-1.1,13.5-3.2,16.1H329.9z"/>
		<path class="st2" d="M341.9,1075h28.9v3.4h-25.3v17.9h21.2v3.4h-21.2v19h26.2v3.4h-29.8V1075z"/>
		<path class="st2" d="M372.1,1104.7c0-10.1,6.4-17.2,15.7-17.2c9.1,0,15.4,5.9,15.7,16c0,0.4-0.1,0.9-0.1,1.4h-27.8v0.6
			c0.1,7.9,4.9,13.7,12.5,13.7c5.6,0,10.1-3.3,11.4-8.6h3.5c-1.5,6.8-7.2,11.7-14.6,11.7C378.8,1122.4,372.1,1115.4,372.1,1104.7z
			 M399.8,1102.1c-0.5-7.4-5.3-11.5-11.9-11.5c-6.2,0-11.4,4.6-11.9,11.5H399.8z"/>
		<path class="st2" d="M408.4,1075h28.9v3.4h-25.3v17.9h21.2v3.4h-21.2v19h26.2v3.4h-29.8V1075z M417.4,1063.4c1.4,0,2.4,1,2.4,2.3
			s-1,2.3-2.4,2.3c-1.3,0-2.3-1-2.3-2.3S416.1,1063.4,417.4,1063.4z M428.7,1063.4c1.3,0,2.3,1,2.3,2.3s-1,2.3-2.3,2.3
			s-2.4-1-2.4-2.3S427.4,1063.4,428.7,1063.4z"/>
		<path class="st2" d="M438.6,1104.7c0-10.1,6.4-17.2,15.7-17.2c9.1,0,15.4,5.9,15.7,16c0,0.4-0.1,0.9-0.1,1.4h-27.8v0.6
			c0.1,7.9,4.9,13.7,12.5,13.7c5.6,0,10.1-3.3,11.4-8.6h3.5c-1.5,6.8-7.2,11.7-14.6,11.7C445.3,1122.4,438.6,1115.4,438.6,1104.7z
			 M466.3,1102.1c-0.5-7.4-5.3-11.5-11.9-11.5c-6.2,0-11.4,4.6-11.9,11.5H466.3z M449,1076.4c1.4,0,2.4,1,2.4,2.3
			c0,1.3-1,2.3-2.4,2.3c-1.3,0-2.3-1-2.3-2.3C446.6,1077.4,447.6,1076.4,449,1076.4z M460.2,1076.4c1.3,0,2.3,1,2.3,2.3
			c0,1.3-1,2.3-2.3,2.3c-1.3,0-2.4-1-2.4-2.3C457.8,1077.4,458.9,1076.4,460.2,1076.4z"/>
		<path class="st2" d="M0.1,1192.4l17.8-24.1l-16.6-22.9h4.2l15.6,21.4h8.3v-21.4H33v21.4h8.3l15.6-21.4h4.2l-16.6,22.9l17.7,24.1
			h-4.4l-16.4-22.2H33v22.2h-3.6v-22.2H21l-16.5,22.2H0.1z"/>
		<path class="st2" d="M63.7,1192.4l13.8-17.6l-12.6-16.4h3.8l11.6,15h6.2v-15h3.4v15H96l11.5-15h3.8l-12.5,16.4l13.7,17.6h-4
			l-12.5-15.8h-6.2v15.8h-3.4v-15.8h-6.3l-12.5,15.8H63.7z"/>
		<path class="st2" d="M113.7,1178.9h3.7c0.6,7,5.6,10.6,13.4,10.6c8.1,0,12.9-3.8,12.9-10c0-6.2-4.3-9.5-12.3-9.5h-6v-3.1h5.8
			c7.4,0,11.3-3.8,11.3-9.5c0-5.7-4.8-9.1-11.8-9.1c-7.6,0-12.1,3.8-12.7,9.9h-3.7c0.7-8,6.9-13.2,16.4-13.2
			c9.7,0,15.6,4.9,15.6,12.1c0,6.2-3.6,10.1-8.8,11.1c5.5,0.9,10,4.2,10,11.4c0,7.9-6.6,13.2-16.8,13.2
			C120.3,1192.8,114.2,1187.8,113.7,1178.9z"/>
		<path class="st2" d="M178.2,1182.8c0,6-5.4,10-14.2,10c-9,0-13.2-3.8-13.6-10.3h3.6c0.7,4.8,3.6,7.4,10.1,7.4
			c6.5,0,10.6-2.8,10.6-7c0-4.2-3.2-6.2-8.5-6.2h-5.7v-3h5.5c4.8,0,7.9-2,7.9-6.2c0-4-3.6-6.5-9.5-6.5c-6.3,0-9.6,3-10.3,7.2h-3.5
			c0.5-6,5.6-10.2,13.9-10.2c8.1,0,12.9,3.7,12.9,9.4c0,4.4-2.8,6.9-6.6,7.6C175.2,1175.7,178.2,1178.2,178.2,1182.8z"/>
		<path class="st2" d="M183.2,1192.4v-47h3.6v40.9l28-40.9h3.4v47h-3.6v-40.9l-27.9,40.9H183.2z"/>
		<path class="st2" d="M224.8,1192.4v-34h3.4v28.8l22.6-28.8h3v34h-3.4v-28.9l-22.6,28.9H224.8z"/>
		<path class="st2" d="M260.3,1192.4v-47h3.6v40.9l28-40.9h3.4v47h-3.6v-40.9l-27.9,40.9H260.3z M268.8,1132.3h2.9
			c0,3.8,1.8,6,6.2,6c4.4,0,6.3-2.2,6.3-6h2.9c-0.1,5.3-3.2,8.5-9.2,8.5C271.9,1140.8,268.9,1137.6,268.8,1132.3z"/>
		<path class="st2" d="M301.8,1192.4v-34h3.4v28.8l22.6-28.8h3v34h-3.4v-28.9l-22.6,28.9H301.8z M307.1,1145.3h2.9
			c0,3.8,1.8,6,6.2,6c4.4,0,6.3-2.2,6.3-6h2.9c-0.1,5.3-3.2,8.5-9.2,8.5C310.2,1153.8,307.2,1150.6,307.1,1145.3z"/>
		<path class="st2" d="M337.2,1192.4v-47h3.6v21.3h10.1l16.3-21.3h4.2l-17.4,22.8l18.7,24.2h-4.4l-17.3-22.3h-10.1v22.3H337.2z"/>
		<path class="st2" d="M375.6,1192.4v-34h3.4v15h8.3l12-15h4l-13.2,16.4l14.4,17.6h-4.2l-13-15.8h-8.3v15.8H375.6z"/>
		<path class="st2" d="M405.5,1192.4v-3.4h1.1c5.6,0,8.1-3.8,8.1-20.6v-23h30.7v47h-3.6v-43.6h-23.5v19.9c0,18.5-3.6,23.7-11.2,23.7
			H405.5z"/>
		<path class="st2" d="M448.4,1192.4v-3.2h0.8c4.2,0,6-2.8,6-14.3v-16.6h24.2v34h-3.4v-30.9h-17.4v13.6c0,13.6-2.9,17.3-8.9,17.3
			H448.4z"/>
		<path class="st2" d="M3.4,1215.9h7.4l16.6,39l16.4-39h7.2v47h-5.7v-37l-15.6,37h-5.2l-15.6-37v37H3.4V1215.9z"/>
		<path class="st2" d="M57.1,1262.9v-34.2h6.8l13.1,27.5l12.9-27.5h6.6l0.1,34.2h-5.3V1237l-12.3,25.8h-4.4L62.4,1237v25.8H57.1z"/>
		<path class="st2" d="M102.7,1215.9h5.8v20.4h24.3v-20.4h5.8v47h-5.8v-21.2h-24.3v21.2h-5.8V1215.9z"/>
		<path class="st2" d="M169.4,1228.7h5.5v34.2h-5.5V1248h-19.3v14.9h-5.5v-34.2h5.5v14.3h19.3V1228.7z"/>
		<path class="st2" d="M201.5,1263.3c-13.2,0-22.4-10.1-22.4-23.9s9.2-23.9,22.4-23.9s22.4,10.1,22.4,23.9
			S214.7,1263.3,201.5,1263.3z M201.5,1257.9c9.8,0,16.4-7.7,16.4-18.5s-6.6-18.5-16.4-18.5c-9.8,0-16.4,7.7-16.4,18.5
			S191.7,1257.9,201.5,1257.9z"/>
		<path class="st2" d="M226.5,1245.8c0-10.4,7-17.5,17-17.5c10,0,17,7.1,17,17.5s-7,17.5-17,17.5
			C233.5,1263.3,226.5,1256.2,226.5,1245.8z M254.9,1245.8c0-7.3-4.6-12.6-11.3-12.6s-11.3,5.3-11.3,12.6c0,7.3,4.6,12.6,11.3,12.6
			S254.9,1253.1,254.9,1245.8z"/>
		<path class="st2" d="M264.8,1262.9v-47h35.6v47h-5.8v-41.6h-24v41.6H264.8z"/>
		<path class="st2" d="M306.4,1262.9v-34.2H336v34.2h-5.5v-29.2h-18.6v29.2H306.4z"/>
		<path class="st2" d="M342,1215.9h18c9.4,0,15.6,5.6,15.6,14.4s-6.2,14.5-15.6,14.5h-12.2v18H342V1215.9z M347.8,1221.3v18.2h11.7
			c6.2,0,10.1-3.6,10.1-9.1s-3.9-9.1-10.1-9.1H347.8z"/>
		<path class="st2" d="M412,1245.8c0,10.5-7,17.5-16.4,17.5c-5.8,0-9.7-2.3-11.7-5.6v18.7h-5.5v-47.6h4.8l0.7,5.5
			c2.3-3.2,6-5.9,11.7-5.9C405,1228.3,412,1234.6,412,1245.8z M406.4,1245.8c0-7.4-4.6-12.6-11.3-12.6c-6.7,0-11.3,5.2-11.3,12.5
			c0,7.5,4.6,12.7,11.3,12.7C401.8,1258.4,406.4,1253.2,406.4,1245.8z"/>
		<path class="st2" d="M414.6,1239.4c0-14.2,8.8-23.9,22.4-23.9c10.4,0,18,6,19.7,15.8h-6.2c-1.8-6.5-6.8-10.4-13.8-10.4
			c-9.9,0-16.2,7.6-16.2,18.5c0,10.8,6,18.5,15.9,18.5c7.2,0,12.3-3.8,14-10.4h6.2c-1.7,9.7-9.5,15.8-20.1,15.8
			C423,1263.3,414.6,1253.8,414.6,1239.4z"/>
		<path class="st2" d="M459.2,1245.8c0-10.5,6.8-17.6,16.7-17.6c8.4,0,13.7,4.7,15.1,12.2h-5.8c-1-4.6-4.4-7.3-9.4-7.3
			c-6.6,0-11,5.2-11,12.7s4.4,12.5,11,12.5c4.9,0,8.3-2.8,9.3-7.2h5.8c-1.3,7.4-6.9,12.1-15.2,12.1
			C465.8,1263.3,459.2,1256.5,459.2,1245.8z"/>
		<path class="st2" d="M0.2,1286.4h36.3v5.4H21.3v41.6h-5.8v-41.6H0.2V1286.4z"/>
		<path class="st2" d="M41.7,1333.3v-29.2H29.3v-5h30.2v5H47.2v29.2H41.7z"/>
		<path class="st2" d="M62.2,1333.3v-5.4h4.2c3.8,0,5.2-0.6,7-4.4l1.5-3.2l-18.1-33.9h6.7l14.5,27.7l12.4-27.7h6.3l-18,38.7
			c-3,6.4-6,8.3-10.7,8.3H62.2z"/>
		<path class="st2" d="M94.3,1299.1h5.8l10.5,27.3l10.2-27.3h5.8l-15.8,40c-2.1,5.5-3.4,7.6-8.3,7.6h-6.6v-5h4.9c3.2,0,3.7-0.8,5-4
			l1.7-4.2L94.3,1299.1z"/>
		<path class="st2" d="M156.6,1330.3v5.7h-5.6v-5.7c-14.5-0.5-23.7-8.1-23.7-20.5c0-12.3,9.1-20,23.7-20.5v-5.7h5.6v5.7
			c14.5,0.5,23.7,8.1,23.7,20.5C180.2,1322.2,171.1,1329.7,156.6,1330.3z M150.9,1325.1v-30.6c-11.5,0.4-17.8,6-17.8,15.3
			C133.1,1319,139.4,1324.7,150.9,1325.1z M156.6,1325.1c11.5-0.5,17.8-6.1,17.8-15.3s-6.3-14.8-17.8-15.3V1325.1z"/>
		<path class="st2" d="M202.3,1346.7v-13.2c-11.7-0.3-19.5-7-19.5-17.4c0-10.3,7.8-17,19.5-17.4v-11.4h5.4v11.4
			c11.7,0.3,19.4,7,19.4,17.4c0,10.3-7.7,17.1-19.4,17.4v13.2H202.3z M202.3,1303.7c-8.4,0.2-13.8,4.8-13.8,12.5s5.4,12.3,13.8,12.5
			V1303.7z M207.6,1328.8c8.5-0.2,13.8-4.8,13.8-12.5s-5.4-12.3-13.8-12.5V1328.8z"/>
		<path class="st2" d="M241,1309.2l-14.8-22.9h6.8l11.7,18.2l11.7-18.2h6.7l-14.8,22.5l15.8,24.5h-6.9l-12.7-19.7l-12.6,19.7h-6.8
			L241,1309.2z"/>
		<path class="st2" d="M278,1315.7l-12.1-16.6h6.6l9.1,12.7l9.2-12.7h6.2l-12.2,16.6l13.1,17.6h-6.6l-10-13.8l-10,13.8H265
			L278,1315.7z"/>
		<path class="st2" d="M335.8,1328h5.8v15h-5.8v-9.6h-35.6v-47h5.8v41.6h24v-41.6h5.8V1328z"/>
		<path class="st2" d="M373.3,1328.3h5.7v14.1h-5.5v-9.1h-29.2v-34.2h5.5v29.2h18v-29.2h5.5V1328.3z"/>
		<path class="st2" d="M406.5,1286.4h5.8v47h-5.8v-20.1c-3.2,1.9-7.6,3.1-12.6,3.1c-9.3,0-16.1-4.6-16.1-14.6v-15.3h5.8v14.2
			c0,7.2,4.4,10.4,10.9,10.4c4.8,0,8.9-1.3,12-3.5V1286.4z"/>
		<path class="st2" d="M439.3,1299.1h5.5v34.2h-5.5v-13.8c-2.6,1.7-6.2,2.6-9.5,2.6c-8.3,0-13.4-3.6-13.4-12.4v-10.7h5.5v9.7
			c0,6.2,3,8.4,9,8.4c3.3,0,6.2-0.8,8.5-2.8V1299.1z"/>
		<path class="st2" d="M3.2,1403.8v-47h7.7v40.1h17.6v-40.1h7.7v40.1h17.6v-40.1h7.7v47H3.2z"/>
		<path class="st2" d="M67.1,1403.8v-34.4h7.2v28h12.9v-28h7.2v28h12.9v-28h7.2v34.4H67.1z"/>
		<path class="st2" d="M178.7,1396.9h5.8v16.4h-7.5v-9.6h-56.7v-47h7.7v40.1h17.6v-40.1h7.7v40.1H171v-40.1h7.7V1396.9z"/>
		<path class="st2" d="M234.6,1397.4h5.8v15.4h-7.1v-9.1h-46.3v-34.4h7.2v28h12.9v-28h7.2v28h12.9v-28h7.2V1397.4z"/>
		<path class="st2" d="M247.2,1403.8v-40.4h-13v-6.6h20.7v17.1H266c9.7,0,16.2,6.1,16.2,15c0,8.7-6.4,14.9-16.2,14.9H247.2z
			 M254.9,1397.1h10.4c5.5,0,9-3.2,9-8.2c0-5-3.6-8.2-9-8.2h-10.4V1397.1z"/>
		<path class="st2" d="M306,1380.1c8.7,0,13.8,4.4,13.8,11.9c0,7.4-5.1,11.8-13.8,11.8h-15.8v-28h-9.9v-6.4h17.2v10.7H306z
			 M304.8,1398c4.9,0,7.6-2.2,7.6-6c0-4-2.7-6.1-7.6-6.1h-7.2v12.1H304.8z"/>
		<path class="st2" d="M322.8,1403.8v-47h7.7v17.1h10.5c9.8,0,16.2,6.1,16.2,15c0,8.7-6.4,14.9-16.2,14.9H322.8z M330.5,1397.1h9.9
			c5.4,0,9-3.2,9-8.2c0-5-3.6-8.2-9.1-8.2h-9.8V1397.1z M362.7,1403.8v-47h7.7v47H362.7z"/>
		<path class="st2" d="M375.9,1403.8v-34.4h7.2v10.7h8c8.7,0,13.8,4.4,13.8,11.9c0,7.4-5.1,11.8-13.8,11.8H375.9z M383.2,1398h6.8
			c4.9,0,7.6-2.2,7.6-6c0-4-2.7-6.1-7.6-6.1h-6.8V1398z M410,1403.8v-34.4h7.2v34.4H410z"/>
		<path class="st2" d="M422.7,1403.8v-47h7.7v17.1h11.1c9.7,0,16.2,6.1,16.2,15c0,8.7-6.4,14.9-16.2,14.9H422.7z M430.4,1397.1h10.4
			c5.5,0,9-3.2,9-8.2c0-5-3.6-8.2-9-8.2h-10.4V1397.1z"/>
		<path class="st2" d="M460.6,1403.8v-34.4h7.2v10.7h8.5c8.7,0,13.7,4.4,13.7,11.9c0,7.4-5,11.8-13.7,11.8H460.6z M467.8,1398h7.3
			c4.9,0,7.5-2.2,7.5-6c0-4-2.6-6.1-7.5-6.1h-7.3V1398z"/>
		<path class="st2" d="M43.6,1450.7c0,14.3-8.8,23.9-22.7,23.9c-10.9,0-18.4-6.4-20-16.2h8c1.5,5.8,5.8,9.5,12.4,9.5
			c7.9,0,13.3-5.6,14.3-14.1h-18v-6.6h18c-1.1-8.3-6.1-13.7-13.9-13.7c-6.7,0-10.9,3.7-12.5,9.5h-8c1.6-9.8,9.3-16.2,20.2-16.2
			C35.3,1426.8,43.6,1436.3,43.6,1450.7z"/>
		<path class="st2" d="M78.8,1457c0,10.7-6.8,17.6-17.3,17.6c-9,0-14.5-4.9-15.8-12.7h7.4c0.9,4.2,3.9,6.6,8.5,6.6
			c5.2,0,8.8-3.4,9.7-8.9H58.1v-5.6h13.1c-0.9-5.2-4.5-8.6-9.6-8.6c-4.4,0-7.5,2.5-8.5,6.5h-7.5c1.3-7.7,7.5-12.5,16-12.5
			C72.1,1439.5,78.8,1446.2,78.8,1457z"/>
		<path class="st2" d="M142.9,1450.7c0,13.8-9.1,23.9-22.5,23.9c-12.3,0-21-8.6-22.3-20.7h-7.8v20.3h-7.7v-47h7.7v19.9h7.8
			c1.5-11.9,10.1-20.3,22.3-20.3C133.8,1426.8,142.9,1437,142.9,1450.7z M135,1450.7c0-9.9-5.8-17.1-14.6-17.1
			c-8.8,0-14.6,7.2-14.6,17.1s5.8,17.1,14.6,17.1C129.3,1467.8,135,1460.7,135,1450.7z"/>
		<path class="st2" d="M195.4,1457c0,10.6-6.8,17.6-17.4,17.6c-9.4,0-15.9-5.8-17-14.8h-7.2v14.4h-7.2v-34.4h7.2v14.1h7.2
			c1.2-8.8,7.7-14.4,17-14.4C188.5,1439.5,195.4,1446.5,195.4,1457z M188,1457c0-6.9-3.9-11.6-10-11.6c-6,0-9.9,4.7-9.9,11.6
			c0,7,3.9,11.8,9.9,11.8C184.1,1468.8,188,1464,188,1457z"/>
		<path class="st2" d="M214.9,1439.9l-10.3,17.2l10.3,17.2h-7.3l-10.4-17.2l10.4-17.2H214.9z M230.2,1439.9l-10.3,17.2l10.3,17.2
			h-7.3l-10.5-17.2l10.5-17.2H230.2z"/>
		<path class="st2" d="M268.2,1427.3v47h-7.7v-17.1H251l-10.1,17.1h-8.9l11-18.1c-6.5-1.9-10.2-7.1-10.2-14
			c0-8.9,6.6-14.8,16.5-14.8H268.2z M260.5,1450.4V1434h-10.7c-5.6,0-9.2,3.2-9.2,8.2s3.6,8.3,9.2,8.3H260.5z"/>
		<path class="st2" d="M302.1,1439.9v34.4h-7.2v-11.3H287l-7.6,11.3h-8.3l8.8-12.3c-5-1.3-7.8-5-7.8-10.4c0-7.2,5.1-11.6,14.2-11.6
			H302.1z M294.8,1457.1v-11.5h-8.4c-4.5,0-7,2.1-7,5.7c0,3.9,2.5,5.8,7,5.8H294.8z"/>
		<path class="st2" d="M304.5,1439.9h7.3l10.5,17.2l-10.5,17.2h-7.3l10.3-17.2L304.5,1439.9z M319.8,1439.9h7.3l10.4,17.2
			l-10.4,17.2h-7.3L330,1457L319.8,1439.9z"/>
		<path class="st2" d="M1.2,1520.1c0-14,8-22.8,19.3-22.8c11.4,0,19.4,8.8,19.4,22.8v2.1c0,14.3-8,22.8-19.4,22.8
			c-11.3,0-19.3-8.5-19.3-22.8V1520.1z M30.3,1520.4c0-9.7-4-15-9.7-15c-5.7,0-9.7,5.3-9.7,15v1.5c0,9.7,4,15,9.7,15
			c5.8,0,9.7-5.2,9.7-15V1520.4z"/>
		<path class="st2" d="M51.2,1497.7h9.5v47H51v-30.4c-0.7,0.2-1.5,0.3-2.5,0.3h-7.9v-8h7c2.7,0,3.6-1.8,3.6-4.6V1497.7z"/>
		<path class="st2" d="M64.5,1537.2l17.8-14.8c4.1-3.4,6.6-6.2,6.6-10c0-4.6-3-7-7.3-7c-4.5,0-7.6,3.1-7.6,8.2v0.7h-9.7v-1.3
			c0-8.9,6.6-15.7,17.4-15.7c11,0,17,6,17,14.8c0,6.9-3.8,11.1-9.7,15.9l-10.5,8.6H99v8.1H64.5V1537.2z"/>
		<path class="st2" d="M136,1531.4c0,8.1-7,13.7-18,13.7s-18.1-5.6-18.1-15.7h9.6c0.1,5.3,3.9,8.1,9,8.1c4.4,0,7.8-2.5,7.8-6.7
			c0-3.7-2.8-6-8.2-6h-4.6v-7.7h4.1c5.2,0,7.8-2.6,7.8-6.3c0-3.8-3.2-5.8-7.2-5.8c-4.6,0-7.8,2.8-7.9,7.2h-9.5
			c0.1-8.8,7.2-14.8,17.5-14.8c10.6,0,16.9,5,16.9,12.7c0,5.7-3.6,9.1-8.2,10.3C131.9,1521.2,136,1524.5,136,1531.4z"/>
		<path class="st2" d="M137,1526.6l20.7-28.9h11.7v28.8h6.5v8.1h-6.5v10.1H160v-10.1h-23V1526.6z M146.3,1526.5H160v-19.3
			L146.3,1526.5z"/>
		<path class="st2" d="M212.8,1528.8c0,10.8-8.1,16.3-17.8,16.3c-10.9,0-17.6-6.9-18-15.5h9.6c0.5,4.2,3.4,7.6,8.5,7.6
			c4.1,0,8-2.8,8-8.4c0-5-3.2-8.5-8.1-8.5c-2.6,0-6.2,1-7.9,4.9h-9.3l1.3-27.5h30.9v8.1h-22.1l-0.5,10.3c2.3-2.1,5.4-3.4,9.6-3.4
			C206.4,1512.7,212.8,1519.2,212.8,1528.8z"/>
		<path class="st2" d="M214.2,1521.7c0-15.7,7.5-24.4,19.3-24.4c8.8,0,15.7,5,16.8,13.6h-9.5c-0.9-3.8-3.8-5.8-8-5.8
			c-6,0-9.5,4.8-9.5,13.5v1.1c0.2-0.3,0.3-0.6,0.6-1c2.1-3.4,6.2-5.5,11.1-5.5c9.5,0,15.9,6.4,15.9,15.9c0,9.6-7,16-17.5,16
			c-6.6,0-11.6-2.7-14.9-7.4C215.7,1533.7,214.2,1528.2,214.2,1521.7z M233.4,1520.7c-4.8,0-8.1,3.4-8.1,8.4s3.2,8.4,7.9,8.4
			s7.9-3.4,7.9-8.4S238.2,1520.7,233.4,1520.7z"/>
		<path class="st2" d="M250.7,1497.7h34.4v6.2l-20.7,40.7H254l20.5-38.8h-23.8V1497.7z"/>
		<path class="st2" d="M321.2,1531.6c0,8.1-6.6,13.5-18.2,13.5s-18.2-5.4-18.2-13.5c0-6.6,4.4-10.3,9.3-11.4
			c-4.2-1.2-8.1-4.6-8.1-10.5c0-7.2,6.4-12.4,17-12.4s17,5.2,17,12.4c0,5.5-3.8,9.2-8.1,10.4
			C316.8,1521.2,321.2,1524.9,321.2,1531.6z M311.4,1531.2c0-4.1-3.4-7.1-8.5-7.1c-5,0-8.4,3-8.4,7.1c0,4,3.4,7,8.4,7
			C308,1538.2,311.4,1535.3,311.4,1531.2z M295.7,1510.2c0,3.6,2.9,6.1,7.3,6.1c4.5,0,7.4-2.5,7.4-6.1c0-3.6-2.9-6-7.4-6
			C298.6,1504.2,295.7,1506.6,295.7,1510.2z"/>
		<path class="st2" d="M323.4,1531.4h9.5c0.8,3.7,3.7,5.8,8,5.8c6.2,0,9.6-5,9.6-13.5c0-0.3,0-0.7-0.1-1.2l-1,1.5
			c-2.3,3.2-6,4.9-10.5,4.9c-9.5,0-16-6.1-16-15.7c0-9.3,7-16,17.5-16c6.3,0,11.2,2.5,14.5,6.8c3,4,4.8,9.7,4.8,16.5
			c0,15.6-6.9,24.4-19.4,24.4C330.7,1545.1,324.5,1540.1,323.4,1531.4z M348.6,1513.1c0-5-3.2-8.3-8-8.3c-4.8,0-7.9,3.4-7.9,8.3
			c0,5,3,8.4,7.8,8.4S348.6,1518.2,348.6,1513.1z"/>
		<path class="st2" d="M377.2,1542.4v-23.2l-10.1,10.4l-5.8-5.8l20.2-20.1l20.1,20.1l-5.8,5.8l-10.1-10.4v23.2H377.2z"/>
		<path class="st2" d="M418.9,1504.5h8.6v23.1l10.1-10.3l5.8,5.8l-20.1,20.2l-20.2-20.2l5.8-5.8l10.1,10.3V1504.5z"/>
		<path class="st2" d="M7.2,1604.3c3.2,0,5.7,2.3,5.7,5.6c0,3.2-2.5,5.6-5.7,5.6c-3.3,0-5.7-2.3-5.7-5.6
			C1.5,1606.7,3.9,1604.3,7.2,1604.3z"/>
		<path class="st2" d="M28.4,1613.3c0,7.5-4.9,11.5-12.5,11.5v-4.9c4.3-0.1,6.4-2.1,6.4-4.6c0-0.3,0-0.7-0.1-0.9
			c-0.7,0.3-1.3,0.5-2.1,0.5c-2.5,0-4.6-1.7-4.6-5.1c0-3,2.6-5.4,5.9-5.4C25.6,1604.5,28.4,1608.1,28.4,1613.3z"/>
		<path class="st2" d="M38.9,1623.8c-6.7-9.1-9.8-18.1-9.8-28.8c0-10.5,3-19.7,9.8-28.8h10.1c-7.6,10.4-10.5,18.2-10.5,28.8
			c0,10.7,2.8,18.7,10.5,28.8H38.9z"/>
		<path class="st2" d="M58.9,1566.1c6.7,9.1,9.8,18.1,9.8,28.8c0,10.5-3,19.7-9.8,28.8H48.8c7.6-10.4,10.5-18.2,10.5-28.8
			c0-10.7-2.8-18.7-10.5-28.8H58.9z"/>
		<path class="st2" d="M102.1,1569.5c17,0,28.6,10.1,28.6,24.5c0,10.9-7,18-16.2,18c-4.2,0-6.8-2.3-7.4-5.3l-0.2-0.9
			c-1.7,3.7-5.6,6.1-10.1,6.1c-5.8,0-11.3-4.6-11.3-12.9c0-8.7,5.8-15.4,13.5-15.4c4.6,0,7.4,2.1,7.9,4.3l1.2-3.8h7.6l-2.1,18.7
			c-0.3,2.7,0.7,3.7,2.7,3.7c3.8,0,7.4-5.4,7.4-12.8c0-11.3-8.4-18.5-21.9-18.5c-13.8,0-24.1,10.3-24.1,23.6
			c0,13.6,8.6,21.1,23.8,21.1c5.4,0,10.5-1.3,14.7-3.4l-0.3,6.1c-3.2,1.9-8.7,3.2-15.3,3.2c-17.2,0-29.9-10.3-29.9-26.8
			C70.8,1581.7,84.8,1569.5,102.1,1569.5z M101.1,1590.4c-3.8,0-6.7,3.6-6.7,8.1s2.4,6.6,5.3,6.6c3.6,0,6.7-3.3,6.7-8.7
			C106.4,1592.3,104.1,1590.4,101.1,1590.4z"/>
		<path class="st2" d="M143.9,1567.7c7,0,12.3,4.9,12.3,11.6c0,6.7-5.2,11.6-12.3,11.6c-7.1,0-12.3-4.9-12.3-11.6
			C131.6,1572.6,136.8,1567.7,143.9,1567.7z M139.2,1615.1l32.2-47h9.3l-32.2,47H139.2z M143.9,1574.6c-2.7,0-4.7,2.1-4.7,4.8
			c0,2.8,2,4.8,4.7,4.8c2.6,0,4.6-2,4.6-4.8C148.6,1576.7,146.5,1574.6,143.9,1574.6z M175.9,1592.3c7.1,0,12.3,4.9,12.3,11.6
			c0,6.7-5.2,11.6-12.3,11.6c-7,0-12.3-4.9-12.3-11.6C163.7,1597.2,168.9,1592.3,175.9,1592.3z M175.9,1599.1
			c-2.6,0-4.6,2.1-4.6,4.8c0,2.8,2,4.8,4.6,4.8c2.7,0,4.7-2,4.7-4.8C180.6,1601.2,178.6,1599.1,175.9,1599.1z"/>
		<path class="st2" d="M228.2,1605.9c1.1,1.2,2,1.3,3.4,1.3h4.8v7.8h-6.2c-3.5,0-6.6-0.7-9.2-3.4l-0.8-0.8
			c-3.8,3.2-7.7,4.6-12.5,4.6c-9.4,0-16.8-4.2-16.8-12.7c0.1-4.4,2.3-9.5,9.8-12.9c-3.1-3.8-3.7-6.2-3.7-10.1
			c0-6.9,6.1-12.1,14.7-12.1c7.3,0,13.1,4.6,13.1,11.1c0,4.6-2.1,8.7-10.7,12.2l0.1,0.1l7.5,7.9l6-9.3h8.7l-9.8,14.6L228.2,1605.9z
			 M215.4,1605.8l-10.5-11.2c-3.2,1.9-4.2,4.4-4.2,7.2c0,4.2,3,6.4,7.6,6.4C211,1608.2,213.2,1607.3,215.4,1605.8z M206.2,1579.6
			c0,2.7,1,4.2,3.3,6.7c4.6-2,6.4-4.4,6.4-7.2c0-2.8-1.9-4.6-4.6-4.6C208.3,1574.4,206.2,1576.6,206.2,1579.6z"/>
		<path class="st2" d="M245.6,1604.3c3.3,0,5.7,2.3,5.7,5.6c0,3.2-2.4,5.6-5.7,5.6c-3.2,0-5.6-2.3-5.6-5.6
			C240,1606.7,242.4,1604.3,245.6,1604.3z M242.2,1600.6l-1.5-32.4h10.1l-1.4,32.4H242.2z"/>
		<path class="st2" d="M252.7,1584c0-8.9,6-16.3,16.6-16.3c9.9,0,16,5.3,16,12.7c0,6.4-3.3,9.2-7,11.7c-3.7,2.5-5.5,4.1-5.5,7v0.9
			H264v-1.9c0-5.6,2.9-7.8,7.1-10.3c3.1-1.9,4.5-3.9,4.5-6.6c0-3.2-2.4-5.4-6.2-5.4c-4.3,0-7.1,3.3-7.1,8.2H252.7z M268.7,1604.7
			c3.2,0,5.6,2.2,5.6,5.4s-2.4,5.4-5.6,5.4s-5.6-2.3-5.6-5.4S265.5,1604.7,268.7,1604.7z"/>
		<path class="st2" d="M292.3,1581c3.2,0,5.7,2.3,5.7,5.6c0,3.3-2.5,5.6-5.7,5.6c-3.3,0-5.7-2.3-5.7-5.6
			C286.6,1583.4,289,1581,292.3,1581z M292.3,1604.3c3.2,0,5.7,2.3,5.7,5.6c0,3.2-2.5,5.6-5.7,5.6c-3.3,0-5.7-2.3-5.7-5.6
			C286.6,1606.7,289,1604.3,292.3,1604.3z"/>
		<path class="st2" d="M312.5,1613.3c0,7.5-4.9,11.5-12.5,11.5v-4.9c4.3-0.1,6.4-2.1,6.4-4.6c0-0.3,0-0.7-0.1-0.9
			c-0.7,0.3-1.3,0.5-2.1,0.5c-2.5,0-4.6-1.7-4.6-5.1c0-3,2.6-5.4,5.9-5.4C309.6,1604.5,312.5,1608.1,312.5,1613.3z M305.7,1581
			c3.2,0,5.7,2.3,5.7,5.6c0,3.2-2.5,5.6-5.7,5.6c-3.3,0-5.7-2.3-5.7-5.6C300,1583.4,302.5,1581,305.7,1581z"/>
		<path class="st2" d="M315.6,1615.1v-47h8.6l17.6,28v-28h9.9v47H343l-17.6-28v28H315.6z M356,1583.8c0-9.7,6.5-16,16.6-16
			s16.6,6.4,16.6,16c0,9.7-6.5,16.1-16.6,16.1S356,1593.5,356,1583.8z M379.8,1583.8c0-5.2-2.7-8.6-7.2-8.6c-4.6,0-7.2,3.4-7.2,8.6
			s2.7,8.6,7.2,8.6C377.1,1592.4,379.8,1588.9,379.8,1583.8z"/>
		<path class="st2" d="M406.8,1567.7c8.3,0,15,6.3,15,14.4c0,8.2-6.7,14.5-15,14.5c-8.2,0-14.9-6.3-14.9-14.4
			C391.9,1574.1,398.6,1567.7,406.8,1567.7z M406.8,1571c-6.2,0-11.1,4.9-11.1,11.3c0,6.2,4.8,11.1,11.1,11.1
			c6.3,0,11.2-4.8,11.2-11.1C418,1575.9,413.1,1571,406.8,1571z M401.1,1574.5h6.2c3.7,0,6.1,2.1,6.1,5.2c0,2-1.1,3.6-2.9,4.4
			l3.1,5.7h-4.2l-2.6-4.8H405v4.8h-3.8V1574.5z M405,1577.6v4.2h2.1c1.4,0,2.3-0.8,2.3-2.1c0-1.3-0.9-2.1-2.3-2.1H405z"/>
	</g>
</g>
</svg>
