<?xml version="1.0" encoding="utf-8"?>
<!-- Generator: Adobe Illustrator 22.0.0, SVG Export Plug-In . SVG Version: 6.00 Build 0)  -->
<svg version="1.1" id="logotype" xmlns="http://www.w3.org/2000/svg" xmlns:xlink="http://www.w3.org/1999/xlink" x="0px" y="0px"
	 viewBox="0 0 993.7 847" style="enable-background:new 0 0 993.7 847;" xml:space="preserve">
<style type="text/css">
	.st0{fill:none;stroke:#AD73FA;stroke-miterlimit:10;}
	.st1{fill:#462170;}
	.st2{opacity:0;fill:#462170;}
</style>
<rect x="0.5" y="0.5" class="st0" width="400" height="554"/>
<rect x="516.2" y="-76.5" transform="matrix(6.123234e-17 -1 1 6.123234e-17 515.6549 916.6549)" class="st0" width="400" height="554"/>
<rect x="439.2" y="446.5" transform="matrix(6.123234e-17 -1 1 6.123234e-17 -7.3451 1285.6549)" class="st0" width="400" height="400"/>
<g>
	<g>
		<g>
			<g>
				<path class="st1" d="M54.4,37.1V35h1.2c1,0,1.4-0.2,1.7-0.9l0.2-0.5L53,25.5h2.7l3,5.6l2.5-5.6h2.6l-4.3,9.3
					c-0.8,1.8-1.8,2.4-3.2,2.4L54.4,37.1L54.4,37.1z"/>
			</g>
			<g>
				<path class="st1" d="M63.5,33.4H66c0.1,1.3,0.9,1.9,2.3,1.9c1.2,0,2-0.6,2-1.6c0-1-0.7-1.5-2.1-1.5h-1.3v-1.9h1.2
					c1.4,0,2-0.6,2-1.5s-0.7-1.4-1.9-1.4c-1.3,0-2,0.7-2.2,1.8h-2.4c0.2-2.2,1.9-3.7,4.6-3.7c2.7,0,4.4,1.2,4.4,3.2
					c0,1.4-0.8,2.2-2,2.5c1.2,0.3,2.2,1.1,2.2,2.7c0,2.1-1.8,3.4-4.6,3.4C65.3,37.2,63.7,35.9,63.5,33.4z"/>
			</g>
			<g>
				<polygon class="st1" points="74.1,25.5 76.6,25.5 76.6,30.1 81.2,30.1 81.2,25.5 83.7,25.5 83.7,37.1 81.2,37.1 81.2,32.3 
					76.6,32.3 76.6,37.1 74.1,37.1 				"/>
			</g>
			<g>
				<path class="st1" d="M84.5,37.1l4.3-11.6h3L96,37.1h-2.7l-0.9-2.5H88l-0.9,2.5C87.1,37.1,84.5,37.1,84.5,37.1z M88.6,32.5h3.1
					l-1.5-4.4L88.6,32.5z"/>
			</g>
			<g>
				<path class="st1" d="M112.3,31.3c0,3.4-2.3,5.9-5.7,5.9c-3.1,0-5.2-2-5.6-4.9h-1.8v4.8h-2.5V25.5h2.5v4.7h1.8
					c0.5-2.8,2.6-4.8,5.6-4.8C110,25.4,112.3,27.9,112.3,31.3z M109.7,31.3c0-2.2-1.2-3.8-3.1-3.8s-3.1,1.6-3.1,3.8s1.2,3.8,3.1,3.8
					C108.5,35.1,109.7,33.5,109.7,31.3z"/>
			</g>
			<g>
				<g>
					<path class="st1" d="M47.2,25.5c-2.6,0-4.3,1.5-4.3,3.8c0,1.6,0.8,2.9,2.3,3.5c0,0,0.8,0.4,2,0.4h2.6v4h2.5V25.5H47.2
						L47.2,25.5z M47.3,31.1c-1.2,0-1.9-0.7-1.9-1.8c0-1.1,0.7-1.8,1.9-1.8h2.4v3.5H47.3z"/>
				</g>
				<g>
					<polygon class="st1" points="49.4,31.3 46.7,31.3 42.5,37.1 45.4,37.1 					"/>
				</g>
			</g>
		</g>
		<g id="_x3C_Groupsymbol_x3E__3_">
			<g>
				<g>
					<path class="st1" d="M31.2,18.8h-5.6c-3.3,0-6,2.7-6,6v2c0,3.3,2.7,6,6,6h5.7v-2.8h-7.6c-0.6,0-1.1-0.5-1.1-1.1v-6
						c0-0.6,0.5-1.1,1.1-1.1h9.5c0.6,0,1.1,0.5,1.1,1.1v14.3h2.8V24.8C37.2,21.5,34.5,18.8,31.2,18.8z"/>
				</g>
			</g>
			<g>
				<polygon class="st1" points="27.7,25.5 24.1,25.5 30.2,31.3 24.1,37.1 27.7,37.1 33.5,31.3 				"/>
			</g>
		</g>
	</g>
	<rect x="1.4" y="0.5" class="st2" width="129.2" height="55"/>
</g>
<g>
	<g>
		<g>
			<g>
				<path class="st1" d="M492.2,37.1V35h1.2c1,0,1.4-0.2,1.7-0.9l0.2-0.5l-4.5-8.1h2.7l3,5.6l2.5-5.6h2.6l-4.3,9.3
					c-0.8,1.8-1.8,2.4-3.2,2.4L492.2,37.1L492.2,37.1z"/>
			</g>
			<g>
				<path class="st1" d="M501.3,33.4h2.4c0.1,1.3,0.9,1.9,2.3,1.9c1.2,0,2-0.6,2-1.6c0-1-0.7-1.5-2.1-1.5h-1.3v-1.9h1.2
					c1.4,0,2-0.6,2-1.5s-0.7-1.4-1.9-1.4c-1.3,0-2,0.7-2.2,1.8h-2.4c0.2-2.2,1.9-3.7,4.6-3.7c2.7,0,4.4,1.2,4.4,3.2
					c0,1.4-0.8,2.2-2,2.5c1.2,0.3,2.2,1.1,2.2,2.7c0,2.1-1.8,3.4-4.6,3.4C503,37.2,501.4,35.9,501.3,33.4z"/>
			</g>
			<g>
				<polygon class="st1" points="511.9,25.5 514.4,25.5 514.4,30.1 519,30.1 519,25.5 521.5,25.5 521.5,37.1 519,37.1 519,32.3 
					514.4,32.3 514.4,37.1 511.9,37.1 				"/>
			</g>
			<g>
				<path class="st1" d="M522.2,37.1l4.3-11.6h3l4.2,11.6H531l-0.9-2.5h-4.4l-0.9,2.5C524.8,37.1,522.2,37.1,522.2,37.1z
					 M526.4,32.5h3.1l-1.5-4.4L526.4,32.5z"/>
			</g>
			<g>
				<path class="st1" d="M550,31.3c0,3.4-2.3,5.9-5.7,5.9c-3.1,0-5.2-2-5.6-4.9H537v4.8h-2.5V25.5h2.5v4.7h1.8
					c0.5-2.8,2.6-4.8,5.6-4.8C547.8,25.4,550,27.9,550,31.3z M547.5,31.3c0-2.2-1.2-3.8-3.1-3.8s-3.1,1.6-3.1,3.8s1.2,3.8,3.1,3.8
					C546.3,35.1,547.5,33.5,547.5,31.3z"/>
			</g>
			<g>
				<g>
					<path class="st1" d="M484.9,25.5c-2.6,0-4.3,1.5-4.3,3.8c0,1.6,0.8,2.9,2.3,3.5c0,0,0.8,0.4,2,0.4h2.6v4h2.5V25.5H484.9
						L484.9,25.5z M485.1,31.1c-1.2,0-1.9-0.7-1.9-1.8c0-1.1,0.7-1.8,1.9-1.8h2.4v3.5H485.1z"/>
				</g>
				<g>
					<polygon class="st1" points="487.2,31.3 484.5,31.3 480.3,37.1 483.2,37.1 					"/>
				</g>
			</g>
		</g>
		<g id="_x3C_Groupsymbol_x3E__5_">
			<g>
				<g>
					<path class="st1" d="M469,18.8h-5.6c-3.3,0-6,2.7-6,6v2c0,3.3,2.7,6,6,6h5.7v-2.8h-7.6c-0.6,0-1.1-0.5-1.1-1.1v-6
						c0-0.6,0.5-1.1,1.1-1.1h9.5c0.6,0,1.1,0.5,1.1,1.1v14.3h2.8V24.8C475,21.5,472.3,18.8,469,18.8z"/>
				</g>
			</g>
			<g>
				<polygon class="st1" points="465.4,25.5 461.9,25.5 467.9,31.3 461.9,37.1 465.5,37.1 471.3,31.3 				"/>
			</g>
		</g>
	</g>
	<rect x="439.2" y="0.5" class="st2" width="129.2" height="55"/>
</g>
<g>
	<g>
		<g>
			<g>
				<path class="st1" d="M324.3,37.1V35h1.2c1,0,1.4-0.2,1.7-0.9l0.2-0.5l-4.5-8.1h2.7l3,5.6l2.5-5.6h2.6l-4.3,9.3
					c-0.8,1.8-1.8,2.4-3.2,2.4L324.3,37.1L324.3,37.1z"/>
			</g>
			<g>
				<path class="st1" d="M333.4,33.4h2.4c0.1,1.3,0.9,1.9,2.3,1.9c1.2,0,2-0.6,2-1.6c0-1-0.7-1.5-2.1-1.5h-1.3v-1.9h1.2
					c1.4,0,2-0.6,2-1.5s-0.7-1.4-1.9-1.4c-1.3,0-2,0.7-2.2,1.8h-2.4c0.2-2.2,1.9-3.7,4.6-3.7c2.7,0,4.4,1.2,4.4,3.2
					c0,1.4-0.8,2.2-2,2.5c1.2,0.3,2.2,1.1,2.2,2.7c0,2.1-1.8,3.4-4.6,3.4C335.2,37.2,333.6,35.9,333.4,33.4z"/>
			</g>
			<g>
				<polygon class="st1" points="344,25.5 346.5,25.5 346.5,30.1 351.1,30.1 351.1,25.5 353.6,25.5 353.6,37.1 351.1,37.1 
					351.1,32.3 346.5,32.3 346.5,37.1 344,37.1 				"/>
			</g>
			<g>
				<path class="st1" d="M354.4,37.1l4.3-11.6h3l4.2,11.6h-2.7l-0.9-2.5h-4.4l-0.9,2.5C357,37.1,354.4,37.1,354.4,37.1z M358.5,32.5
					h3.1l-1.5-4.4L358.5,32.5z"/>
			</g>
			<g>
				<path class="st1" d="M382.2,31.3c0,3.4-2.3,5.9-5.7,5.9c-3.1,0-5.2-2-5.6-4.9h-1.8v4.8h-2.5V25.5h2.5v4.7h1.8
					c0.5-2.8,2.6-4.8,5.6-4.8C379.9,25.4,382.2,27.9,382.2,31.3z M379.6,31.3c0-2.2-1.2-3.8-3.1-3.8c-1.9,0-3.1,1.6-3.1,3.8
					s1.2,3.8,3.1,3.8C378.4,35.1,379.6,33.5,379.6,31.3z"/>
			</g>
			<g>
				<g>
					<path class="st1" d="M317.1,25.5c-2.6,0-4.3,1.5-4.3,3.8c0,1.6,0.8,2.9,2.3,3.5c0,0,0.8,0.4,2,0.4h2.6v4h2.5V25.5H317.1
						L317.1,25.5z M317.2,31.1c-1.2,0-1.9-0.7-1.9-1.8c0-1.1,0.7-1.8,1.9-1.8h2.4v3.5H317.2z"/>
				</g>
				<g>
					<polygon class="st1" points="319.3,31.3 316.6,31.3 312.4,37.1 315.3,37.1 					"/>
				</g>
			</g>
		</g>
		<g id="_x3C_Groupsymbol_x3E__1_">
			<g>
				<g>
					<path class="st1" d="M301.1,18.8h-5.6c-3.3,0-6,2.7-6,6v2c0,3.3,2.7,6,6,6h5.7v-2.8h-7.6c-0.6,0-1.1-0.5-1.1-1.1v-6
						c0-0.6,0.5-1.1,1.1-1.1h9.5c0.6,0,1.1,0.5,1.1,1.1v14.3h2.8V24.8C307.1,21.5,304.5,18.8,301.1,18.8z"/>
				</g>
			</g>
			<g>
				<polygon class="st1" points="297.6,25.5 294,25.5 300.1,31.3 294,37.1 297.6,37.1 303.4,31.3 				"/>
			</g>
		</g>
	</g>
	<rect x="271.3" y="0.5" class="st2" width="129.2" height="55"/>
</g>
<g>
	<g>
		<g>
			<g>
				<path class="st1" d="M917,37.1V35h1.2c1,0,1.4-0.2,1.7-0.9l0.2-0.5l-4.5-8.1h2.7l3,5.6l2.5-5.6h2.6l-4.3,9.3
					c-0.8,1.8-1.8,2.4-3.2,2.4L917,37.1L917,37.1z"/>
			</g>
			<g>
				<path class="st1" d="M926.1,33.4h2.4c0.1,1.3,0.9,1.9,2.3,1.9c1.2,0,2-0.6,2-1.6c0-1-0.7-1.5-2.1-1.5h-1.3v-1.9h1.2
					c1.4,0,2-0.6,2-1.5s-0.7-1.4-1.9-1.4c-1.3,0-2,0.7-2.2,1.8h-2.4c0.2-2.2,1.9-3.7,4.6-3.7c2.7,0,4.4,1.2,4.4,3.2
					c0,1.4-0.8,2.2-2,2.5c1.2,0.3,2.2,1.1,2.2,2.7c0,2.1-1.8,3.4-4.6,3.4C927.8,37.2,926.2,35.9,926.1,33.4z"/>
			</g>
			<g>
				<polygon class="st1" points="936.7,25.5 939.2,25.5 939.2,30.1 943.8,30.1 943.8,25.5 946.3,25.5 946.3,37.1 943.8,37.1 
					943.8,32.3 939.2,32.3 939.2,37.1 936.7,37.1 				"/>
			</g>
			<g>
				<path class="st1" d="M947,37.1l4.3-11.6h3l4.2,11.6h-2.7l-0.9-2.5h-4.4l-0.9,2.5C949.6,37.1,947,37.1,947,37.1z M951.2,32.5h3.1
					l-1.5-4.4L951.2,32.5z"/>
			</g>
			<g>
				<path class="st1" d="M974.9,31.3c0,3.4-2.3,5.9-5.7,5.9c-3.1,0-5.2-2-5.6-4.9h-1.8v4.8h-2.5V25.5h2.5v4.7h1.8
					c0.5-2.8,2.6-4.8,5.6-4.8C972.6,25.4,974.9,27.9,974.9,31.3z M972.3,31.3c0-2.2-1.2-3.8-3.1-3.8s-3.1,1.6-3.1,3.8
					s1.2,3.8,3.1,3.8C971.1,35.1,972.3,33.5,972.3,31.3z"/>
			</g>
			<g>
				<g>
					<path class="st1" d="M909.7,25.5c-2.6,0-4.3,1.5-4.3,3.8c0,1.6,0.8,2.9,2.3,3.5c0,0,0.8,0.4,2,0.4h2.6v4h2.5V25.5H909.7
						L909.7,25.5z M909.9,31.1c-1.2,0-1.9-0.7-1.9-1.8c0-1.1,0.7-1.8,1.9-1.8h2.4v3.5H909.9z"/>
				</g>
				<g>
					<polygon class="st1" points="912,31.3 909.3,31.3 905.1,37.1 908,37.1 					"/>
				</g>
			</g>
		</g>
		<g id="_x3C_Groupsymbol_x3E__6_">
			<g>
				<g>
					<path class="st1" d="M893.8,18.8h-5.6c-3.3,0-6,2.7-6,6v2c0,3.3,2.7,6,6,6h5.7v-2.8h-7.6c-0.6,0-1.1-0.5-1.1-1.1v-6
						c0-0.6,0.5-1.1,1.1-1.1h9.5c0.6,0,1.1,0.5,1.1,1.1v14.3h2.8V24.8C899.8,21.5,897.1,18.8,893.8,18.8z"/>
				</g>
			</g>
			<g>
				<polygon class="st1" points="890.2,25.5 886.7,25.5 892.7,31.3 886.7,37.1 890.3,37.1 896.1,31.3 				"/>
			</g>
		</g>
	</g>
	<rect x="864" y="0.5" class="st2" width="129.2" height="55"/>
</g>
<g>
	<g>
		<g>
			<g>
				<path class="st1" d="M492.2,382.1V380h1.2c1,0,1.4-0.2,1.7-0.9l0.2-0.5l-4.5-8.1h2.7l3,5.6l2.5-5.6h2.6l-4.3,9.3
					c-0.8,1.8-1.8,2.4-3.2,2.4L492.2,382.1L492.2,382.1z"/>
			</g>
			<g>
				<path class="st1" d="M501.3,378.4h2.4c0.1,1.3,0.9,1.9,2.3,1.9c1.2,0,2-0.6,2-1.6c0-1-0.7-1.5-2.1-1.5h-1.3v-1.9h1.2
					c1.4,0,2-0.6,2-1.5s-0.7-1.4-1.9-1.4c-1.3,0-2,0.7-2.2,1.8h-2.4c0.2-2.2,1.9-3.7,4.6-3.7c2.7,0,4.4,1.2,4.4,3.2
					c0,1.4-0.8,2.2-2,2.5c1.2,0.3,2.2,1.1,2.2,2.7c0,2.1-1.8,3.4-4.6,3.4C503,382.2,501.4,380.9,501.3,378.4z"/>
			</g>
			<g>
				<polygon class="st1" points="511.9,370.5 514.4,370.5 514.4,375.1 519,375.1 519,370.5 521.5,370.5 521.5,382.1 519,382.1 
					519,377.3 514.4,377.3 514.4,382.1 511.9,382.1 				"/>
			</g>
			<g>
				<path class="st1" d="M522.2,382.1l4.3-11.6h3l4.2,11.6H531l-0.9-2.5h-4.4l-0.9,2.5C524.8,382.1,522.2,382.1,522.2,382.1z
					 M526.4,377.5h3.1l-1.5-4.4L526.4,377.5z"/>
			</g>
			<g>
				<path class="st1" d="M550,376.3c0,3.4-2.3,5.9-5.7,5.9c-3.1,0-5.2-2-5.6-4.9H537v4.8h-2.5v-11.6h2.5v4.7h1.8
					c0.5-2.8,2.6-4.8,5.6-4.8C547.8,370.4,550,372.9,550,376.3z M547.5,376.3c0-2.2-1.2-3.8-3.1-3.8s-3.1,1.6-3.1,3.8
					c0,2.2,1.2,3.8,3.1,3.8C546.3,380.1,547.5,378.5,547.5,376.3z"/>
			</g>
			<g>
				<g>
					<path class="st1" d="M484.9,370.5c-2.6,0-4.3,1.5-4.3,3.8c0,1.6,0.8,2.9,2.3,3.5c0,0,0.8,0.4,2,0.4h2.6v4h2.5v-11.6H484.9
						L484.9,370.5z M485.1,376.1c-1.2,0-1.9-0.7-1.9-1.8c0-1.1,0.7-1.8,1.9-1.8h2.4v3.5H485.1z"/>
				</g>
				<g>
					<polygon class="st1" points="487.2,376.3 484.5,376.3 480.3,382.1 483.2,382.1 					"/>
				</g>
			</g>
		</g>
		<g id="_x3C_Groupsymbol_x3E__8_">
			<g>
				<g>
					<path class="st1" d="M469,363.8h-5.6c-3.3,0-6,2.7-6,6v2c0,3.3,2.7,6,6,6h5.7v-2.8h-7.6c-0.6,0-1.1-0.5-1.1-1.1v-6
						c0-0.6,0.5-1.1,1.1-1.1h9.5c0.6,0,1.1,0.5,1.1,1.1v14.3h2.8v-12.3C475,366.5,472.3,363.8,469,363.8z"/>
				</g>
			</g>
			<g>
				<polygon class="st1" points="465.4,370.5 461.9,370.5 467.9,376.3 461.9,382.1 465.5,382.1 471.3,376.3 				"/>
			</g>
		</g>
	</g>
	<rect x="439.2" y="345.5" class="st2" width="129.2" height="55"/>
</g>
<g>
	<g>
		<g>
			<g>
				<path class="st1" d="M492.2,483.1V481h1.2c1,0,1.4-0.2,1.7-0.9l0.2-0.5l-4.5-8.1h2.7l3,5.6l2.5-5.6h2.6l-4.3,9.3
					c-0.8,1.8-1.8,2.4-3.2,2.4L492.2,483.1L492.2,483.1z"/>
			</g>
			<g>
				<path class="st1" d="M501.3,479.4h2.4c0.1,1.3,0.9,1.9,2.3,1.9c1.2,0,2-0.6,2-1.6c0-1-0.7-1.5-2.1-1.5h-1.3v-1.9h1.2
					c1.4,0,2-0.6,2-1.5s-0.7-1.4-1.9-1.4c-1.3,0-2,0.7-2.2,1.8h-2.4c0.2-2.2,1.9-3.7,4.6-3.7c2.7,0,4.4,1.2,4.4,3.2
					c0,1.4-0.8,2.2-2,2.5c1.2,0.3,2.2,1.1,2.2,2.7c0,2.1-1.8,3.4-4.6,3.4C503,483.2,501.4,481.9,501.3,479.4z"/>
			</g>
			<g>
				<polygon class="st1" points="511.9,471.5 514.4,471.5 514.4,476.1 519,476.1 519,471.5 521.5,471.5 521.5,483.1 519,483.1 
					519,478.3 514.4,478.3 514.4,483.1 511.9,483.1 				"/>
			</g>
			<g>
				<path class="st1" d="M522.2,483.1l4.3-11.6h3l4.2,11.6H531l-0.9-2.5h-4.4l-0.9,2.5C524.8,483.1,522.2,483.1,522.2,483.1z
					 M526.4,478.5h3.1l-1.5-4.4L526.4,478.5z"/>
			</g>
			<g>
				<path class="st1" d="M550,477.3c0,3.4-2.3,5.9-5.7,5.9c-3.1,0-5.2-2-5.6-4.9H537v4.8h-2.5v-11.6h2.5v4.7h1.8
					c0.5-2.8,2.6-4.8,5.6-4.8C547.8,471.4,550,473.9,550,477.3z M547.5,477.3c0-2.2-1.2-3.8-3.1-3.8s-3.1,1.6-3.1,3.8
					c0,2.2,1.2,3.8,3.1,3.8C546.3,481.1,547.5,479.5,547.5,477.3z"/>
			</g>
			<g>
				<g>
					<path class="st1" d="M484.9,471.5c-2.6,0-4.3,1.5-4.3,3.8c0,1.6,0.8,2.9,2.3,3.5c0,0,0.8,0.4,2,0.4h2.6v4h2.5v-11.6H484.9
						L484.9,471.5z M485.1,477.1c-1.2,0-1.9-0.7-1.9-1.8c0-1.1,0.7-1.8,1.9-1.8h2.4v3.5H485.1z"/>
				</g>
				<g>
					<polygon class="st1" points="487.2,477.3 484.5,477.3 480.3,483.1 483.2,483.1 					"/>
				</g>
			</g>
		</g>
		<g id="_x3C_Groupsymbol_x3E__9_">
			<g>
				<g>
					<path class="st1" d="M469,464.8h-5.6c-3.3,0-6,2.7-6,6v2c0,3.3,2.7,6,6,6h5.7v-2.8h-7.6c-0.6,0-1.1-0.5-1.1-1.1v-6
						c0-0.6,0.5-1.1,1.1-1.1h9.5c0.6,0,1.1,0.5,1.1,1.1v14.3h2.8v-12.3C475,467.5,472.3,464.8,469,464.8z"/>
				</g>
			</g>
			<g>
				<polygon class="st1" points="465.4,471.5 461.9,471.5 467.9,477.3 461.9,483.1 465.5,483.1 471.3,477.3 				"/>
			</g>
		</g>
	</g>
	<rect x="439.2" y="446.5" class="st2" width="129.2" height="55"/>
</g>
<g>
	<g>
		<g>
			<g>
				<path class="st1" d="M763,483.1V481h1.2c1,0,1.4-0.2,1.7-0.9l0.2-0.5l-4.5-8.1h2.7l3,5.6l2.5-5.6h2.6l-4.3,9.3
					c-0.8,1.8-1.8,2.4-3.2,2.4L763,483.1L763,483.1z"/>
			</g>
			<g>
				<path class="st1" d="M772.1,479.4h2.4c0.1,1.3,0.9,1.9,2.3,1.9c1.2,0,2-0.6,2-1.6c0-1-0.7-1.5-2.1-1.5h-1.3v-1.9h1.2
					c1.4,0,2-0.6,2-1.5s-0.7-1.4-1.9-1.4c-1.3,0-2,0.7-2.2,1.8h-2.4c0.2-2.2,1.9-3.7,4.6-3.7c2.7,0,4.4,1.2,4.4,3.2
					c0,1.4-0.8,2.2-2,2.5c1.2,0.3,2.2,1.1,2.2,2.7c0,2.1-1.8,3.4-4.6,3.4C773.8,483.2,772.2,481.9,772.1,479.4z"/>
			</g>
			<g>
				<polygon class="st1" points="782.7,471.5 785.2,471.5 785.2,476.1 789.8,476.1 789.8,471.5 792.3,471.5 792.3,483.1 
					789.8,483.1 789.8,478.3 785.2,478.3 785.2,483.1 782.7,483.1 				"/>
			</g>
			<g>
				<path class="st1" d="M793,483.1l4.3-11.6h3l4.2,11.6h-2.7l-0.9-2.5h-4.4l-0.9,2.5C795.6,483.1,793,483.1,793,483.1z
					 M797.2,478.5h3.1l-1.5-4.4L797.2,478.5z"/>
			</g>
			<g>
				<path class="st1" d="M820.9,477.3c0,3.4-2.3,5.9-5.7,5.9c-3.1,0-5.2-2-5.6-4.9h-1.8v4.8h-2.5v-11.6h2.5v4.7h1.8
					c0.5-2.8,2.6-4.8,5.6-4.8C818.6,471.4,820.9,473.9,820.9,477.3z M818.3,477.3c0-2.2-1.2-3.8-3.1-3.8s-3.1,1.6-3.1,3.8
					c0,2.2,1.2,3.8,3.1,3.8C817.1,481.1,818.3,479.5,818.3,477.3z"/>
			</g>
			<g>
				<g>
					<path class="st1" d="M755.7,471.5c-2.6,0-4.3,1.5-4.3,3.8c0,1.6,0.8,2.9,2.3,3.5c0,0,0.8,0.4,2,0.4h2.6v4h2.5v-11.6H755.7
						L755.7,471.5z M755.9,477.1c-1.2,0-1.9-0.7-1.9-1.8c0-1.1,0.7-1.8,1.9-1.8h2.4v3.5H755.9z"/>
				</g>
				<g>
					<polygon class="st1" points="758,477.3 755.3,477.3 751.1,483.1 754,483.1 					"/>
				</g>
			</g>
		</g>
		<g id="_x3C_Groupsymbol_x3E__10_">
			<g>
				<g>
					<path class="st1" d="M739.8,464.8h-5.6c-3.3,0-6,2.7-6,6v2c0,3.3,2.7,6,6,6h5.7v-2.8h-7.6c-0.6,0-1.1-0.5-1.1-1.1v-6
						c0-0.6,0.5-1.1,1.1-1.1h9.5c0.6,0,1.1,0.5,1.1,1.1v14.3h2.8v-12.3C745.8,467.5,743.1,464.8,739.8,464.8z"/>
				</g>
			</g>
			<g>
				<polygon class="st1" points="736.2,471.5 732.7,471.5 738.7,477.3 732.7,483.1 736.3,483.1 742.1,477.3 				"/>
			</g>
		</g>
	</g>
	<rect x="710" y="446.5" class="st2" width="129.2" height="55"/>
</g>
<g>
	<g>
		<g>
			<g>
				<path class="st1" d="M492.2,828.1V826h1.2c1,0,1.4-0.2,1.7-0.9l0.2-0.5l-4.5-8.1h2.7l3,5.6l2.5-5.6h2.6l-4.3,9.3
					c-0.8,1.8-1.8,2.4-3.2,2.4L492.2,828.1L492.2,828.1z"/>
			</g>
			<g>
				<path class="st1" d="M501.3,824.4h2.4c0.1,1.3,0.9,1.9,2.3,1.9c1.2,0,2-0.6,2-1.6c0-1-0.7-1.5-2.1-1.5h-1.3v-1.9h1.2
					c1.4,0,2-0.6,2-1.5s-0.7-1.4-1.9-1.4c-1.3,0-2,0.7-2.2,1.8h-2.4c0.2-2.2,1.9-3.7,4.6-3.7c2.7,0,4.4,1.2,4.4,3.2
					c0,1.4-0.8,2.2-2,2.5c1.2,0.3,2.2,1.1,2.2,2.7c0,2.1-1.8,3.4-4.6,3.4C503,828.2,501.4,826.9,501.3,824.4z"/>
			</g>
			<g>
				<polygon class="st1" points="511.9,816.5 514.4,816.5 514.4,821.1 519,821.1 519,816.5 521.5,816.5 521.5,828.1 519,828.1 
					519,823.3 514.4,823.3 514.4,828.1 511.9,828.1 				"/>
			</g>
			<g>
				<path class="st1" d="M522.2,828.1l4.3-11.6h3l4.2,11.6H531l-0.9-2.5h-4.4l-0.9,2.5C524.8,828.1,522.2,828.1,522.2,828.1z
					 M526.4,823.5h3.1l-1.5-4.4L526.4,823.5z"/>
			</g>
			<g>
				<path class="st1" d="M550,822.3c0,3.4-2.3,5.9-5.7,5.9c-3.1,0-5.2-2-5.6-4.9H537v4.8h-2.5v-11.6h2.5v4.7h1.8
					c0.5-2.8,2.6-4.8,5.6-4.8C547.8,816.4,550,818.9,550,822.3z M547.5,822.3c0-2.2-1.2-3.8-3.1-3.8s-3.1,1.6-3.1,3.8
					s1.2,3.8,3.1,3.8C546.3,826.1,547.5,824.5,547.5,822.3z"/>
			</g>
			<g>
				<g>
					<path class="st1" d="M484.9,816.5c-2.6,0-4.3,1.5-4.3,3.8c0,1.6,0.8,2.9,2.3,3.5c0,0,0.8,0.4,2,0.4h2.6v4h2.5v-11.6H484.9
						L484.9,816.5z M485.1,822.1c-1.2,0-1.9-0.7-1.9-1.8c0-1.1,0.7-1.8,1.9-1.8h2.4v3.5H485.1z"/>
				</g>
				<g>
					<polygon class="st1" points="487.2,822.3 484.5,822.3 480.3,828.1 483.2,828.1 					"/>
				</g>
			</g>
		</g>
		<g id="_x3C_Groupsymbol_x3E__12_">
			<g>
				<g>
					<path class="st1" d="M469,809.8h-5.6c-3.3,0-6,2.7-6,6v2c0,3.3,2.7,6,6,6h5.7v-2.8h-7.6c-0.6,0-1.1-0.5-1.1-1.1v-6
						c0-0.6,0.5-1.1,1.1-1.1h9.5c0.6,0,1.1,0.5,1.1,1.1v14.3h2.8v-12.3C475,812.5,472.3,809.8,469,809.8z"/>
				</g>
			</g>
			<g>
				<polygon class="st1" points="465.4,816.5 461.9,816.5 467.9,822.3 461.9,828.1 465.5,828.1 471.3,822.3 				"/>
			</g>
		</g>
	</g>
	<rect x="439.2" y="791.5" class="st2" width="129.2" height="55"/>
</g>
<g>
	<g>
		<g>
			<g>
				<path class="st1" d="M763,828.1V826h1.2c1,0,1.4-0.2,1.7-0.9l0.2-0.5l-4.5-8.1h2.7l3,5.6l2.5-5.6h2.6l-4.3,9.3
					c-0.8,1.8-1.8,2.4-3.2,2.4L763,828.1L763,828.1z"/>
			</g>
			<g>
				<path class="st1" d="M772.1,824.4h2.4c0.1,1.3,0.9,1.9,2.3,1.9c1.2,0,2-0.6,2-1.6c0-1-0.7-1.5-2.1-1.5h-1.3v-1.9h1.2
					c1.4,0,2-0.6,2-1.5s-0.7-1.4-1.9-1.4c-1.3,0-2,0.7-2.2,1.8h-2.4c0.2-2.2,1.9-3.7,4.6-3.7c2.7,0,4.4,1.2,4.4,3.2
					c0,1.4-0.8,2.2-2,2.5c1.2,0.3,2.2,1.1,2.2,2.7c0,2.1-1.8,3.4-4.6,3.4C773.8,828.2,772.2,826.9,772.1,824.4z"/>
			</g>
			<g>
				<polygon class="st1" points="782.7,816.5 785.2,816.5 785.2,821.1 789.8,821.1 789.8,816.5 792.3,816.5 792.3,828.1 
					789.8,828.1 789.8,823.3 785.2,823.3 785.2,828.1 782.7,828.1 				"/>
			</g>
			<g>
				<path class="st1" d="M793,828.1l4.3-11.6h3l4.2,11.6h-2.7l-0.9-2.5h-4.4l-0.9,2.5C795.6,828.1,793,828.1,793,828.1z
					 M797.2,823.5h3.1l-1.5-4.4L797.2,823.5z"/>
			</g>
			<g>
				<path class="st1" d="M820.9,822.3c0,3.4-2.3,5.9-5.7,5.9c-3.1,0-5.2-2-5.6-4.9h-1.8v4.8h-2.5v-11.6h2.5v4.7h1.8
					c0.5-2.8,2.6-4.8,5.6-4.8C818.6,816.4,820.9,818.9,820.9,822.3z M818.3,822.3c0-2.2-1.2-3.8-3.1-3.8s-3.1,1.6-3.1,3.8
					s1.2,3.8,3.1,3.8C817.1,826.1,818.3,824.5,818.3,822.3z"/>
			</g>
			<g>
				<g>
					<path class="st1" d="M755.7,816.5c-2.6,0-4.3,1.5-4.3,3.8c0,1.6,0.8,2.9,2.3,3.5c0,0,0.8,0.4,2,0.4h2.6v4h2.5v-11.6H755.7
						L755.7,816.5z M755.9,822.1c-1.2,0-1.9-0.7-1.9-1.8c0-1.1,0.7-1.8,1.9-1.8h2.4v3.5H755.9z"/>
				</g>
				<g>
					<polygon class="st1" points="758,822.3 755.3,822.3 751.1,828.1 754,828.1 					"/>
				</g>
			</g>
		</g>
		<g id="_x3C_Groupsymbol_x3E__11_">
			<g>
				<g>
					<path class="st1" d="M739.8,809.8h-5.6c-3.3,0-6,2.7-6,6v2c0,3.3,2.7,6,6,6h5.7v-2.8h-7.6c-0.6,0-1.1-0.5-1.1-1.1v-6
						c0-0.6,0.5-1.1,1.1-1.1h9.5c0.6,0,1.1,0.5,1.1,1.1v14.3h2.8v-12.3C745.8,812.5,743.1,809.8,739.8,809.8z"/>
				</g>
			</g>
			<g>
				<polygon class="st1" points="736.2,816.5 732.7,816.5 738.7,822.3 732.7,828.1 736.3,828.1 742.1,822.3 				"/>
			</g>
		</g>
	</g>
	<rect x="710" y="791.5" class="st2" width="129.2" height="55"/>
</g>
<g>
	<g>
		<g>
			<g>
				<path class="st1" d="M917,382.1V380h1.2c1,0,1.4-0.2,1.7-0.9l0.2-0.5l-4.5-8.1h2.7l3,5.6l2.5-5.6h2.6l-4.3,9.3
					c-0.8,1.8-1.8,2.4-3.2,2.4L917,382.1L917,382.1z"/>
			</g>
			<g>
				<path class="st1" d="M926.1,378.4h2.4c0.1,1.3,0.9,1.9,2.3,1.9c1.2,0,2-0.6,2-1.6c0-1-0.7-1.5-2.1-1.5h-1.3v-1.9h1.2
					c1.4,0,2-0.6,2-1.5s-0.7-1.4-1.9-1.4c-1.3,0-2,0.7-2.2,1.8h-2.4c0.2-2.2,1.9-3.7,4.6-3.7c2.7,0,4.4,1.2,4.4,3.2
					c0,1.4-0.8,2.2-2,2.5c1.2,0.3,2.2,1.1,2.2,2.7c0,2.1-1.8,3.4-4.6,3.4C927.8,382.2,926.2,380.9,926.1,378.4z"/>
			</g>
			<g>
				<polygon class="st1" points="936.7,370.5 939.2,370.5 939.2,375.1 943.8,375.1 943.8,370.5 946.3,370.5 946.3,382.1 
					943.8,382.1 943.8,377.3 939.2,377.3 939.2,382.1 936.7,382.1 				"/>
			</g>
			<g>
				<path class="st1" d="M947,382.1l4.3-11.6h3l4.2,11.6h-2.7l-0.9-2.5h-4.4l-0.9,2.5C949.6,382.1,947,382.1,947,382.1z
					 M951.2,377.5h3.1l-1.5-4.4L951.2,377.5z"/>
			</g>
			<g>
				<path class="st1" d="M974.9,376.3c0,3.4-2.3,5.9-5.7,5.9c-3.1,0-5.2-2-5.6-4.9h-1.8v4.8h-2.5v-11.6h2.5v4.7h1.8
					c0.5-2.8,2.6-4.8,5.6-4.8C972.6,370.4,974.9,372.9,974.9,376.3z M972.3,376.3c0-2.2-1.2-3.8-3.1-3.8s-3.1,1.6-3.1,3.8
					c0,2.2,1.2,3.8,3.1,3.8C971.1,380.1,972.3,378.5,972.3,376.3z"/>
			</g>
			<g>
				<g>
					<path class="st1" d="M909.7,370.5c-2.6,0-4.3,1.5-4.3,3.8c0,1.6,0.8,2.9,2.3,3.5c0,0,0.8,0.4,2,0.4h2.6v4h2.5v-11.6H909.7
						L909.7,370.5z M909.9,376.1c-1.2,0-1.9-0.7-1.9-1.8c0-1.1,0.7-1.8,1.9-1.8h2.4v3.5H909.9z"/>
				</g>
				<g>
					<polygon class="st1" points="912,376.3 909.3,376.3 905.1,382.1 908,382.1 					"/>
				</g>
			</g>
		</g>
		<g id="_x3C_Groupsymbol_x3E__7_">
			<g>
				<g>
					<path class="st1" d="M893.8,363.8h-5.6c-3.3,0-6,2.7-6,6v2c0,3.3,2.7,6,6,6h5.7v-2.8h-7.6c-0.6,0-1.1-0.5-1.1-1.1v-6
						c0-0.6,0.5-1.1,1.1-1.1h9.5c0.6,0,1.1,0.5,1.1,1.1v14.3h2.8v-12.3C899.8,366.5,897.1,363.8,893.8,363.8z"/>
				</g>
			</g>
			<g>
				<polygon class="st1" points="890.2,370.5 886.7,370.5 892.7,376.3 886.7,382.1 890.3,382.1 896.1,376.3 				"/>
			</g>
		</g>
	</g>
	<rect x="864" y="345.5" class="st2" width="129.2" height="55"/>
</g>
<g>
	<g>
		<g>
			<g>
				<path class="st1" d="M54,536.1V534h1.2c1,0,1.4-0.2,1.7-0.9l0.2-0.5l-4.5-8.1h2.7l3,5.6l2.5-5.6h2.6l-4.3,9.3
					c-0.8,1.8-1.8,2.4-3.2,2.4L54,536.1L54,536.1z"/>
			</g>
			<g>
				<path class="st1" d="M63.1,532.4h2.4c0.1,1.3,0.9,1.9,2.3,1.9c1.2,0,2-0.6,2-1.6c0-1-0.7-1.5-2.1-1.5h-1.3v-1.9h1.2
					c1.4,0,2-0.6,2-1.5s-0.7-1.4-1.9-1.4c-1.3,0-2,0.7-2.2,1.8h-2.4c0.2-2.2,1.9-3.7,4.6-3.7c2.7,0,4.4,1.2,4.4,3.2
					c0,1.4-0.8,2.2-2,2.5c1.2,0.3,2.2,1.1,2.2,2.7c0,2.1-1.8,3.4-4.6,3.4C64.8,536.2,63.2,534.9,63.1,532.4z"/>
			</g>
			<g>
				<polygon class="st1" points="73.7,524.5 76.2,524.5 76.2,529.1 80.8,529.1 80.8,524.5 83.3,524.5 83.3,536.1 80.8,536.1 
					80.8,531.3 76.2,531.3 76.2,536.1 73.7,536.1 				"/>
			</g>
			<g>
				<path class="st1" d="M84,536.1l4.3-11.6h3l4.2,11.6h-2.7l-0.9-2.5h-4.4l-0.9,2.5C86.6,536.1,84,536.1,84,536.1z M88.2,531.5h3.1
					l-1.5-4.4L88.2,531.5z"/>
			</g>
			<g>
				<path class="st1" d="M111.8,530.3c0,3.4-2.3,5.9-5.7,5.9c-3.1,0-5.2-2-5.6-4.9h-1.8v4.8h-2.5v-11.6h2.5v4.7h1.8
					c0.5-2.8,2.6-4.8,5.6-4.8C109.6,524.4,111.8,526.9,111.8,530.3z M109.3,530.3c0-2.2-1.2-3.8-3.1-3.8s-3.1,1.6-3.1,3.8
					s1.2,3.8,3.1,3.8C108.1,534.1,109.3,532.5,109.3,530.3z"/>
			</g>
			<g>
				<g>
					<path class="st1" d="M46.7,524.5c-2.6,0-4.3,1.5-4.3,3.8c0,1.6,0.8,2.9,2.3,3.5c0,0,0.8,0.4,2,0.4h2.6v4h2.5v-11.6H46.7
						L46.7,524.5z M46.9,530.1c-1.2,0-1.9-0.7-1.9-1.8c0-1.1,0.7-1.8,1.9-1.8h2.4v3.5H46.9z"/>
				</g>
				<g>
					<polygon class="st1" points="49,530.3 46.3,530.3 42.1,536.1 45,536.1 					"/>
				</g>
			</g>
		</g>
		<g id="_x3C_Groupsymbol_x3E__4_">
			<g>
				<g>
					<path class="st1" d="M30.8,517.8h-5.6c-3.3,0-6,2.7-6,6v2c0,3.3,2.7,6,6,6h5.7v-2.8h-7.6c-0.6,0-1.1-0.5-1.1-1.1v-6
						c0-0.6,0.5-1.1,1.1-1.1h9.5c0.6,0,1.1,0.5,1.1,1.1v14.3h2.8v-12.3C36.8,520.5,34.1,517.8,30.8,517.8z"/>
				</g>
			</g>
			<g>
				<polygon class="st1" points="27.2,524.5 23.7,524.5 29.7,530.3 23.7,536.1 27.3,536.1 33.1,530.3 				"/>
			</g>
		</g>
	</g>
	<rect x="1" y="499.5" class="st2" width="129.2" height="55"/>
</g>
<g>
	<g>
		<g>
			<g>
				<path class="st1" d="M323.9,536.1V534h1.2c1,0,1.4-0.2,1.7-0.9l0.2-0.5l-4.5-8.1h2.7l3,5.6l2.5-5.6h2.6l-4.3,9.3
					c-0.8,1.8-1.8,2.4-3.2,2.4L323.9,536.1L323.9,536.1z"/>
			</g>
			<g>
				<path class="st1" d="M333,532.4h2.4c0.1,1.3,0.9,1.9,2.3,1.9c1.2,0,2-0.6,2-1.6c0-1-0.7-1.5-2.1-1.5h-1.3v-1.9h1.2
					c1.4,0,2-0.6,2-1.5s-0.7-1.4-1.9-1.4c-1.3,0-2,0.7-2.2,1.8H333c0.2-2.2,1.9-3.7,4.6-3.7c2.7,0,4.4,1.2,4.4,3.2
					c0,1.4-0.8,2.2-2,2.5c1.2,0.3,2.2,1.1,2.2,2.7c0,2.1-1.8,3.4-4.6,3.4C334.7,536.2,333.1,534.9,333,532.4z"/>
			</g>
			<g>
				<polygon class="st1" points="343.6,524.5 346.1,524.5 346.1,529.1 350.7,529.1 350.7,524.5 353.2,524.5 353.2,536.1 
					350.7,536.1 350.7,531.3 346.1,531.3 346.1,536.1 343.6,536.1 				"/>
			</g>
			<g>
				<path class="st1" d="M353.9,536.1l4.3-11.6h3l4.2,11.6h-2.7l-0.9-2.5h-4.4l-0.9,2.5C356.5,536.1,353.9,536.1,353.9,536.1z
					 M358.1,531.5h3.1l-1.5-4.4L358.1,531.5z"/>
			</g>
			<g>
				<path class="st1" d="M381.7,530.3c0,3.4-2.3,5.9-5.7,5.9c-3.1,0-5.2-2-5.6-4.9h-1.8v4.8h-2.5v-11.6h2.5v4.7h1.8
					c0.5-2.8,2.6-4.8,5.6-4.8C379.5,524.4,381.7,526.9,381.7,530.3z M379.2,530.3c0-2.2-1.2-3.8-3.1-3.8s-3.1,1.6-3.1,3.8
					s1.2,3.8,3.1,3.8C378,534.1,379.2,532.5,379.2,530.3z"/>
			</g>
			<g>
				<g>
					<path class="st1" d="M316.6,524.5c-2.6,0-4.3,1.5-4.3,3.8c0,1.6,0.8,2.9,2.3,3.5c0,0,0.8,0.4,2,0.4h2.6v4h2.5v-11.6H316.6
						L316.6,524.5z M316.8,530.1c-1.2,0-1.9-0.7-1.9-1.8c0-1.1,0.7-1.8,1.9-1.8h2.4v3.5H316.8z"/>
				</g>
				<g>
					<polygon class="st1" points="318.9,530.3 316.2,530.3 312,536.1 314.9,536.1 					"/>
				</g>
			</g>
		</g>
		<g id="_x3C_Groupsymbol_x3E__2_">
			<g>
				<g>
					<path class="st1" d="M300.7,517.8h-5.6c-3.3,0-6,2.7-6,6v2c0,3.3,2.7,6,6,6h5.7v-2.8h-7.6c-0.6,0-1.1-0.5-1.1-1.1v-6
						c0-0.6,0.5-1.1,1.1-1.1h9.5c0.6,0,1.1,0.5,1.1,1.1v14.3h2.8v-12.3C306.7,520.5,304,517.8,300.7,517.8z"/>
				</g>
			</g>
			<g>
				<polygon class="st1" points="297.1,524.5 293.6,524.5 299.6,530.3 293.6,536.1 297.2,536.1 303,530.3 				"/>
			</g>
		</g>
	</g>
	<rect x="270.9" y="499.5" class="st2" width="129.2" height="55"/>
</g>
</svg>
