<?xml version="1.0" encoding="utf-8"?>
<!-- Generator: Adobe Illustrator 22.0.0, SVG Export Plug-In . SVG Version: 6.00 Build 0)  -->
<svg version="1.1" id="Layer_1" xmlns="http://www.w3.org/2000/svg" xmlns:xlink="http://www.w3.org/1999/xlink" x="0px" y="0px"
	 viewBox="0 0 971 321" style="enable-background:new 0 0 971 321;" xml:space="preserve">
<style type="text/css">
	.st0{fill:#DEDEDE;}
</style>
<g>
	<path class="st0" d="M588.4,155.1c32.9-9,54.1-31.6,54.1-69c0-51.8-39.7-83.4-109.1-83.4H426.1h-8.6H372L260.1,252.5L238.1,2.7
		h-49.1L74.8,252.5L53.7,2.3L0,2.7l33.8,315.6h60.4L197.9,86.1L220,318.3h61.3L417.5,21.4v296.9h119.9c76.2,0,117.2-34.3,117.2-90.2
		C654.6,183,625.8,161,588.4,155.1z M469.3,46h65.4c36.1,0,55.9,17.1,55.9,45.1c0,28.4-20.3,45.5-55.9,45.5h-65.4V46z M537.9,274.6
		h-68.5v-95.1h68.5c40.1,0,63.6,17.1,63.6,48.2C601.4,257,579.3,274.6,537.9,274.6z"/>
	<path class="st0" d="M694.2,259.7c-18,0-31.1,12.6-31.1,30.7c0,18,13.1,30.7,31.1,30.7c18,0,31.6-12.6,31.6-30.7
		C725.8,272.3,712.2,259.7,694.2,259.7z"/>
	<path class="st0" d="M868.2,136.6c-49.6-8.6-82.1-15.3-82.1-47.8c0-29.8,24.8-45.1,60.4-45.1c38.3,0,63.6,21.6,67.6,53.7H966
		C963.8,39.2,918.7,0,846.6,0c-67.2,0-112.3,37.4-112.3,92.4c0,62.7,49.6,79.4,101.9,88.4c50,9,83,16.2,83,49.6
		c0,30.2-27.1,46.9-64.5,46.9c-44.2,0-73-24.8-75.7-61.8l-52.3-0.9c1.8,63.1,49.1,106.4,127.6,106.4c69.4,0,116.8-39.2,116.8-96
		C971.4,162.8,920.5,146.1,868.2,136.6z"/>
</g>
</svg>
