<?xml version="1.0" encoding="utf-8"?>
<!-- Generator: Adobe Illustrator 22.0.0, SVG Export Plug-In . SVG Version: 6.00 Build 0)  -->
<svg version="1.1" id="Layer_1" xmlns="http://www.w3.org/2000/svg" xmlns:xlink="http://www.w3.org/1999/xlink" x="0px" y="0px"
	 viewBox="0 0 1000 345" style="enable-background:new 0 0 1000 345;" xml:space="preserve">
<style type="text/css">
	.st0{opacity:0;}
</style>
<g>
	<path d="M611.6,172.4c34.2-9.4,56.2-32.8,56.2-71.7c0-53.8-41.3-86.7-113.4-86.7H442.9h-8.9h-47.3L270.3,273.7L247.5,14h-51
		L77.7,273.7L55.8,13.6L0,14l35.1,328h62.8l107.8-241.3l23,241.3h63.7L433.9,33.5v308.6h124.6c79.2,0,121.8-35.7,121.8-93.8
		C680.4,201.4,650.5,178.6,611.6,172.4z M487.8,59h68c37.5,0,58.1,17.8,58.1,46.9c0,29.5-21.1,47.3-58.1,47.3h-68L487.8,59L487.8,59
		z M559.1,296.6h-71.2v-98.8h71.2c41.7,0,66.1,17.8,66.1,50.1C625.1,278.3,602.1,296.6,559.1,296.6z"/>
	<g>
		<path d="M716.3,281.1c-18.7,0-32.3,13.1-32.3,31.9c0,18.7,13.6,31.9,32.3,31.9s32.8-13.1,32.8-31.9
			C749.2,294.2,735.1,281.1,716.3,281.1z"/>
	</g>
	<path d="M893,153.2c-51.6-8.9-85.3-15.9-85.3-49.7c0-31,25.8-46.9,62.8-46.9c39.8,0,66.1,22.5,70.3,55.8h53.9
		C992.4,52,945.5,11.2,870.6,11.2c-69.8,0-116.7,38.9-116.7,96c0,65.2,51.6,82.5,105.9,91.9c52,9.4,86.3,16.8,86.3,51.6
		c0,31.4-28.2,48.7-67,48.7c-45.9,0-75.9-25.8-78.7-64.2l-54.4-0.9c1.9,65.6,51,110.6,132.6,110.6c72.1,0,121.4-40.7,121.4-99.8
		C1000.3,180.4,947.4,163.1,893,153.2z"/>
</g>
<g class="st0">
	<path d="M623.5,166.2c32-11.1,53.3-34.9,53.3-73.6c0-54.7-40.2-89.6-112.4-89.6H449.6h-5.3h-39.7L275.2,287.8L246.6,2.9H204
		L70.7,287.8L43.6,2.9H0l37.8,339.2h50.4L211.7,73.2l29.1,268.9h51.4L444.3,14.4v327.6h123.5c80.4,0,123.1-36.8,123.1-96.9
		C690.9,196.2,659.4,173,623.5,166.2z M486.4,41.2h79.9c44.1,0,68.3,20.3,68.3,54.3c0,34.4-24.7,54.7-68.3,54.7h-79.9V41.2z
		 M567.8,303.8h-81.4V188h81.4c50.4,0,79.9,20.8,79.9,59.1C647.8,282,620.1,303.8,567.8,303.8z"/>
	<path d="M722.9,290.7c-16,0-27.6,10.7-27.6,27.1s11.6,27.1,27.6,27.1c16,0,27.6-10.7,27.6-27.1S738.9,290.7,722.9,290.7z"/>
	<path d="M888.1,151.6c-50.9-8.7-92.1-17-92.1-57.7c0-36.3,29.6-55.7,73.6-55.7c46,0,77.5,25.7,82.4,64.9h43.6
		C991.8,42.2,945.3,0,869.7,0c-68.8,0-115.8,38.8-115.8,96.4c0,65.9,56.2,83.8,111,93c51.4,8.7,93,17.4,93,59.6
		c0,36.8-32.5,57.7-78,57.7c-51.8,0-87.2-30-90.6-75.6h-43.6C748.1,298,796.5,345,879.4,345c71.2,0,120.6-41.2,120.6-99.8
		C1000,179.3,943.3,160.9,888.1,151.6z"/>
</g>
</svg>
