<?xml version="1.0" encoding="utf-8"?>
<!-- Generator: Adobe Illustrator 22.0.0, SVG Export Plug-In . SVG Version: 6.00 Build 0)  -->
<svg version="1.1" id="Layer_1" xmlns="http://www.w3.org/2000/svg" xmlns:xlink="http://www.w3.org/1999/xlink" x="0px" y="0px"
	 viewBox="0 0 1470 504.1" style="enable-background:new 0 0 1470 504.1;" xml:space="preserve">
<g>
	<g>
		<path d="M0,4.2l84.3-0.7l33.3,393L296.7,4.2h77.2l34.7,392.2L584.1,4.2h85L441.8,499.9h-96.3l-34.7-364.6L148,499.9H53.1L0,4.2z"
			/>
		<path d="M631.1,4.2h182c109,0,171.3,49.6,171.3,131c0,58.8-33.3,94.2-85,108.3c58.8,9.2,104.1,43.9,104.1,114.7
			c0,87.8-64.4,141.6-184.1,141.6H631.1V4.2z M712.5,72.2v142.3h102.7c55.9,0,87.8-26.9,87.8-71.5c0-43.9-31.2-70.8-87.8-70.8H712.5
			z M712.5,281.8v149.4h107.6c65.1,0,99.8-27.6,99.8-73.6c0-48.9-36.8-75.8-99.8-75.8H712.5z"/>
		<path d="M1047.4,407.8c28.3,0,49.6,19.8,49.6,48.1s-21.2,48.1-49.6,48.1c-28.3,0-48.9-19.8-48.9-48.1S1019.1,407.8,1047.4,407.8z"
			/>
		<path d="M1168.4,338.4c4.2,58.1,49.6,97,118.9,97c58.8,0,101.2-26.2,101.2-73.6c0-52.4-51.7-63.7-130.3-77.9
			c-82.1-14.2-160-40.4-160-138.8c0-86.4,70.8-145.1,176.3-145.1c113.3,0,184.1,61.6,187.6,152.9h-81.4
			c-6.4-50.3-46-84.3-106.2-84.3c-55.9,0-94.9,24.1-94.9,70.8c0,51,51,61.6,128.9,75c82.1,14.9,162.1,41.1,161.4,138.8
			c0,89.2-74.3,150.8-183.4,150.8c-123.2,0-197.5-68-200.4-167.1L1168.4,338.4z"/>
	</g>
</g>
</svg>
