<?xml version="1.0" encoding="utf-8"?>
<!-- Generator: Adobe Illustrator 22.0.0, SVG Export Plug-In . SVG Version: 6.00 Build 0)  -->
<svg version="1.1" id="Elta_logotype" xmlns="http://www.w3.org/2000/svg" xmlns:xlink="http://www.w3.org/1999/xlink" x="0px"
	 y="0px" viewBox="0 0 890.2 225.2" style="enable-background:new 0 0 890.2 225.2;" xml:space="preserve">
<style type="text/css">
	.st0{fill:#FFFFFF;}
</style>
<g>
	<g>
		<g id="name_10_">
			<g>
				<path class="st0" d="M546.4,110.7c0,51.5-31.8,86.5-81.2,86.5c-38.6,0-65.6-21.9-71.9-57.1h22.6c6.6,23.6,23.8,37.7,50.3,37.7
					c33,0,54.9-23.6,58.1-58.1h-70.5v-19.4h70.5c-3.4-33.5-23.8-56.6-56.4-56.6c-26.2,0-43.7,13.8-50.1,37.7h-22.6
					c6.3-35.2,33.8-57.1,71.7-57.1C516.2,24.2,546.4,58.7,546.4,110.7z"/>
				<path class="st0" d="M547.8,195.7v-18.2h3.6c14.1,0,19.4-8.5,19.4-45.7v-60h93.8v123.9h-19.9V90h-54.4v42.5
					c0,49.3-11.7,63.2-35.7,63.2H547.8z"/>
				<path class="st0" d="M719.8,195.7V90h-44.7V71.8h109.3V90h-44.7v105.7H719.8z"/>
				<path class="st0" d="M890.2,115.1v80.7h-17.3l-1.7-19.4c-7.8,11.2-20.2,20.9-41.6,20.9c-27.2,0-45.7-13.6-45.7-36.2
					c0-24.8,17.3-38.6,49.8-38.6h36.5v-8.5c0-16-11.4-25.8-30.9-25.8c-17.5,0-29.2,8.3-31.6,20.9h-19.9
					c2.9-24.3,22.6-38.6,52.5-38.6C871.9,70.4,890.2,86.1,890.2,115.1z M870.2,139.1h-38.4c-17.7,0-27.7,6.6-27.7,20.7
					c0,12.1,10.4,20.4,27,20.4c24.8,0,39.1-14.3,39.1-35V139.1z"/>
			</g>
		</g>
		<polygon id="icon_8_" class="st0" points="206.3,126.2 206.3,110 278.2,38.1 240.1,0 129.6,110.6 129.6,45.1 0,45.1 0,99 72.2,99 
			72.2,115.2 0.3,187.1 38.4,225.2 148.9,114.6 148.9,180.1 278.5,180.1 278.5,126.2 		"/>
	</g>
</g>
</svg>
