<?xml version="1.0" encoding="utf-8"?>
<!-- Generator: Adobe Illustrator 22.0.0, SVG Export Plug-In . SVG Version: 6.00 Build 0)  -->
<svg version="1.1" id="Layer_1" xmlns="http://www.w3.org/2000/svg" xmlns:xlink="http://www.w3.org/1999/xlink" x="0px" y="0px"
	 viewBox="0 0 327.6 82.1" style="enable-background:new 0 0 327.6 82.1;" xml:space="preserve">
<style type="text/css">
	.st0{fill:#272623;}
</style>
<g>
	<g>
		<path class="st0" d="M200.5,41c0,19-11.8,32-30,32c-14.3,0-24.2-8.1-26.6-21.1h8.4c2.4,8.7,8.8,13.9,18.6,13.9
			c12.2,0,20.3-8.7,21.5-21.5h-26v-7.2h26c-1.3-12.4-8.8-20.9-20.8-20.9c-9.7,0-16.2,5.1-18.5,13.9h-8.4c2.3-13,12.5-21.1,26.5-21.1
			C189.4,9.1,200.5,21.8,200.5,41z"/>
		<path class="st0" d="M201.1,72.5v-6.7h1.3c5.2,0,7.2-3.1,7.2-16.9V26.7h34.7v45.8h-7.4V33.4h-20.1v15.7c0,18.2-4.3,23.3-13.2,23.3
			H201.1z"/>
		<path class="st0" d="M264.6,72.5V33.4h-16.5v-6.7h40.4v6.7H272v39.1H264.6z"/>
		<path class="st0" d="M327.6,42.6v29.8h-6.4l-0.6-7.2c-2.9,4.1-7.5,7.7-15.4,7.7c-10.1,0-16.9-5-16.9-13.4
			c0-9.2,6.4-14.3,18.4-14.3h13.5v-3.1c0-5.9-4.2-9.5-11.4-9.5c-6.5,0-10.8,3.1-11.7,7.7h-7.4c1.1-9,8.4-14.3,19.4-14.3
			C320.8,26.1,327.6,32,327.6,42.6z M320.2,51.5H306c-6.6,0-10.2,2.4-10.2,7.6c0,4.5,3.9,7.5,10,7.5c9.2,0,14.5-5.3,14.5-12.9V51.5z
			"/>
	</g>
</g>
<g>
	<polygon class="st0" points="71.4,39.6 98.9,12.1 86.7,0 45.7,41 45.7,20.2 2.1,20.2 2.1,37.3 27.5,37.3 27.5,42.5 0,69.9 
		12.1,82.1 53.1,41.1 53.1,61.9 96.8,61.9 96.8,44.7 71.4,44.7 	"/>
</g>
</svg>
