<?xml version="1.0" encoding="utf-8"?>
<!-- Generator: Adobe Illustrator 22.0.0, SVG Export Plug-In . SVG Version: 6.00 Build 0)  -->
<svg version="1.1" id="Elta_logotype" xmlns="http://www.w3.org/2000/svg" xmlns:xlink="http://www.w3.org/1999/xlink" x="0px"
	 y="0px" viewBox="0 0 324.2 71.9" style="enable-background:new 0 0 324.2 71.9;" xml:space="preserve">
<style type="text/css">
	.st0{fill:#272623;}
</style>
<g id="name">
	<g>
		<path class="st0" d="M188.4,35.9c0,20.4-12.6,34.2-32.1,34.2c-15.3,0-25.9-8.6-28.4-22.6h8.9c2.6,9.3,9.4,14.9,19.9,14.9
			c13.1,0,21.7-9.3,22.9-22.9h-27.8v-7.7h27.8c-1.3-13.2-9.4-22.4-22.3-22.4c-10.4,0-17.3,5.5-19.8,14.9h-8.9
			c2.5-13.9,13.3-22.6,28.3-22.6C176.5,1.8,188.4,15.4,188.4,35.9z"/>
		<path class="st0" d="M189,69.5v-7.2h1.4c5.6,0,7.7-3.4,7.7-18V20.6h37.1v49h-7.9V27.8h-21.5v16.8c0,19.5-4.6,25-14.1,25H189z"/>
		<path class="st0" d="M257,69.5V27.8h-17.7v-7.2h43.2v7.2h-17.7v41.8H257z"/>
		<path class="st0" d="M324.2,37.7v31.9h-6.8l-0.7-7.7c-3.1,4.4-8,8.3-16.4,8.3c-10.8,0-18-5.4-18-14.3c0-9.8,6.8-15.3,19.7-15.3
			h14.4v-3.4c0-6.3-4.5-10.2-12.2-10.2c-6.9,0-11.5,3.3-12.5,8.3h-7.9c1.2-9.6,8.9-15.3,20.7-15.3C317,20,324.2,26.2,324.2,37.7z
			 M316.4,47.2h-15.2c-7,0-10.9,2.6-10.9,8.2c0,4.8,4.1,8.1,10.7,8.1c9.8,0,15.5-5.7,15.5-13.8V47.2z"/>
	</g>
</g>
<g id="symbol">
	<polygon class="st0" points="62.5,34.7 86.6,10.6 76,0 40.1,35.9 40.1,17.7 0,17.7 0,32.7 24.1,32.7 24.1,37.2 0,61.3 10.6,71.9 
		46.5,36 46.5,54.2 86.6,54.2 86.6,39.2 62.5,39.2 	"/>
</g>
</svg>
