<?xml version="1.0" encoding="utf-8"?>
<!-- Generator: Adobe Illustrator 22.0.0, SVG Export Plug-In . SVG Version: 6.00 Build 0)  -->
<svg version="1.1" id="Layer_1" xmlns="http://www.w3.org/2000/svg" xmlns:xlink="http://www.w3.org/1999/xlink" x="0px" y="0px"
	 viewBox="0 0 424 91.7" style="enable-background:new 0 0 424 91.7;" xml:space="preserve">
<style type="text/css">
	.st0{fill:#FC7328;}
</style>
<g>
	<g>
		<path class="st0" d="M245.5,45.8c0,27.3-16.9,45.8-43,45.8c-20.5,0-34.8-11.6-38.1-30.2h12c3.5,12.5,12.6,20,26.6,20
			c17.5,0,29.1-12.5,30.8-30.8h-37.3V40.3h37.3c-1.8-17.8-12.6-30-29.9-30c-13.9,0-23.2,7.3-26.5,20h-12c3.3-18.7,17.9-30.2,38-30.2
			C229.6,0,245.5,18.3,245.5,45.8z"/>
		<path class="st0" d="M245.1,90.9v-9.7h1.9c7.5,0,10.3-4.5,10.3-24.2V25.2H307v65.6h-10.6v-56h-28.8v22.5
			c0,26.1-6.2,33.5-18.9,33.5L245.1,90.9L245.1,90.9z"/>
		<path class="st0" d="M335,90.9v-56h-21v-9.7h52.4v9.7h-20.9v56H335z"/>
		<path class="st0" d="M424,48.1v42.7h-9.1L414,80.6c-4.1,5.9-10.7,11.1-22,11.1c-14.4,0-24.2-7.2-24.2-19.2
			c0-13.1,9.1-20.5,26.4-20.5h19.3v-4.5c0-8.5-6.1-13.6-16.3-13.6c-9.3,0-15.4,4.4-16.7,11.1h-10.6c1.5-12.9,12-20.5,27.8-20.5
			C414.3,24.5,424,32.8,424,48.1z M413.4,60.9h-20.3c-9.4,0-14.7,3.5-14.7,10.9c0,6.4,5.5,10.8,14.3,10.8c13.1,0,20.7-7.6,20.7-18.5
			V60.9z"/>
	</g>
	<g>
		<polygon class="st0" points="65.5,91.6 86.8,91.6 119.1,59.3 119.1,44.3 0,44.3 0,59.3 97.9,59.3 		"/>
		<polygon class="st0" points="65.5,47.3 86.8,47.3 119.1,15 119.1,0 0,0 0,15 97.9,15 		"/>
	</g>
</g>
</svg>
