<?xml version="1.0" encoding="utf-8"?>
<!-- Generator: Adobe Illustrator 22.0.0, SVG Export Plug-In . SVG Version: 6.00 Build 0)  -->
<svg version="1.1" id="Elta_logotype" xmlns="http://www.w3.org/2000/svg" xmlns:xlink="http://www.w3.org/1999/xlink" x="0px"
	 y="0px" viewBox="0 0 311.6 71.9" style="enable-background:new 0 0 311.6 71.9;" xml:space="preserve">
<style type="text/css">
	.st0{fill:#272623;}
</style>
<g id="name">
	<g>
		<path class="st0" d="M184.5,35.9c0,19-11.8,32-30,32c-14.3,0-24.2-8.1-26.6-21.1h8.4c2.4,8.7,8.8,13.9,18.6,13.9
			c12.2,0,20.3-8.7,21.5-21.5h-26v-7.2h26c-1.3-12.4-8.8-20.9-20.8-20.9c-9.7,0-16.2,5.1-18.5,13.9h-8.4C131,12,141.2,4,155.2,4
			C173.4,4,184.5,16.7,184.5,35.9z"/>
		<path class="st0" d="M185.1,67.4v-6.7h1.3c5.2,0,7.2-3.1,7.2-16.9V21.6h34.7v45.8h-7.4V28.3h-20.1V44c0,18.2-4.3,23.3-13.2,23.3
			H185.1z"/>
		<path class="st0" d="M248.6,67.4V28.3h-16.5v-6.7h40.4v6.7H256v39.1H248.6z"/>
		<path class="st0" d="M311.6,37.5v29.8h-6.4l-0.6-7.2c-2.9,4.1-7.5,7.7-15.4,7.7c-10.1,0-16.9-5-16.9-13.4
			c0-9.2,6.4-14.3,18.4-14.3h13.5v-3.1c0-5.9-4.2-9.5-11.4-9.5c-6.5,0-10.8,3.1-11.7,7.7h-7.4c1.1-9,8.4-14.3,19.4-14.3
			C304.8,21,311.6,26.9,311.6,37.5z M304.2,46.4H290c-6.6,0-10.2,2.4-10.2,7.6c0,4.5,3.9,7.5,10,7.5c9.2,0,14.5-5.3,14.5-12.9V46.4z
			"/>
	</g>
</g>
<g id="symbol">
	<polygon class="st0" points="62.5,34.7 86.6,10.6 76,0 40.1,35.9 40.1,17.7 0,17.7 0,32.7 24.1,32.7 24.1,37.2 0,61.3 10.6,71.9 
		46.5,36 46.5,54.2 86.6,54.2 86.6,39.2 62.5,39.2 	"/>
</g>
</svg>
