<?xml version="1.0" encoding="utf-8"?>
<!-- Generator: Adobe Illustrator 22.0.0, SVG Export Plug-In . SVG Version: 6.00 Build 0)  -->
<svg version="1.1" id="Layer_1" xmlns="http://www.w3.org/2000/svg" xmlns:xlink="http://www.w3.org/1999/xlink" x="0px" y="0px"
	 viewBox="0 0 421.1 120" style="enable-background:new 0 0 421.1 120;" xml:space="preserve">
<style type="text/css">
	.st0{fill:#FFFFFF;}
</style>
<g>
	<g>
		<path class="st0" d="M246.8,63.9c0,27.6-17,46.3-43.4,46.3c-20.7,0-35.1-11.7-38.5-30.6H177c3.5,12.6,12.7,20.2,26.9,20.2
			c17.7,0,29.4-12.6,31.1-31.1h-37.7V58.3H235C233.2,40.4,222.2,28,204.8,28c-14,0-23.4,7.4-26.8,20.2h-12.1
			c3.4-18.9,18.1-30.6,38.4-30.6C230.7,17.6,246.8,36.1,246.8,63.9z"/>
		<path class="st0" d="M244.3,109.4v-9.8h2c7.5,0,10.4-4.6,10.4-24.5V43.1h50.2v66.3h-10.7V52.8h-29.1v22.8
			c0,26.4-6.2,33.8-19.1,33.8H244.3z"/>
		<path class="st0" d="M333.2,109.4V52.8H312v-9.8h53v9.8h-21.2v56.6H333.2z"/>
		<path class="st0" d="M421.1,66.2v43.2h-9.2L410.9,99c-4.2,6-10.8,11.2-22.2,11.2c-14.6,0-24.5-7.3-24.5-19.4
			c0-13.3,9.2-20.7,26.7-20.7h19.5v-4.6c0-8.6-6.1-13.8-16.5-13.8c-9.4,0-15.6,4.4-16.9,11.2h-10.7c1.6-13,12.1-20.7,28.1-20.7
			C411.3,42.3,421.1,50.8,421.1,66.2z M410.4,79.1h-20.6c-9.5,0-14.8,3.5-14.8,11.1c0,6.5,5.6,10.9,14.4,10.9
			c13.3,0,20.9-7.7,20.9-18.7V79.1z"/>
	</g>
	<path class="st0" d="M44.8,2.6c6.1-3.5,13.6-3.4,19.7,0.2l19.8,11.8c2.7,1.6,3.5,5,1.9,7.7c-1.6,2.7-5,3.5-7.7,1.9L58.8,12.4
		c-2.6-1.5-5.8-1.6-8.4-0.1L15.4,32.2c-2.6,1.5-4.2,4.3-4.2,7.3v41c0,3,1.6,5.8,4.2,7.3L49,107.3V68.1c0-7,3.7-13.4,9.8-16.9
		L95.4,30c6.1-3.5,13.6,0.9,13.6,7.9v44.4c0,6.9-7.5,11.3-13.5,7.9L73.4,77.9c-2.7-1.5-3.7-4.9-2.1-7.6c1.5-2.7,4.9-3.7,7.6-2.1
		l18.9,10.6V41.5L64.4,60.9c-2.6,1.5-4.2,4.3-4.2,7.3v42.8c0,7-7.6,11.4-13.6,7.9L9.7,97.4C3.7,93.9,0,87.4,0,80.5v-41
		c0-7,3.8-13.5,9.9-17L44.8,2.6z"/>
</g>
</svg>
