<?xml version="1.0" encoding="utf-8"?>
<!-- Generator: Adobe Illustrator 22.0.0, SVG Export Plug-In . SVG Version: 6.00 Build 0)  -->
<svg version="1.1" id="Layer_1" xmlns="http://www.w3.org/2000/svg" xmlns:xlink="http://www.w3.org/1999/xlink" x="0px" y="0px"
	 viewBox="0 0 421 120" style="enable-background:new 0 0 421 120;" xml:space="preserve">
<style type="text/css">
	.st0{opacity:0;}
</style>
<g class="st0">
	<g>
		<path d="M246.8,63.9c0,27.6-17,46.3-43.4,46.3c-20.7,0-35.1-11.7-38.5-30.6h12.1c3.5,12.6,12.7,20.2,26.9,20.2
			c17.7,0,29.4-12.6,31.1-31.1h-37.7V58.3h37.7C233.1,40.3,222.2,28,204.8,28c-14,0-23.4,7.4-26.8,20.2h-12.1
			c3.4-18.9,18.1-30.6,38.4-30.6C230.6,17.6,246.8,36.1,246.8,63.9z"/>
		<path d="M244.3,109.4v-9.8h2c7.5,0,10.4-4.6,10.4-24.4V43.1h50.2v66.3h-10.7V52.8H267v22.8c0,26.4-6.2,33.8-19.1,33.8H244.3z"/>
		<path d="M333.1,109.4V52.8h-21.2v-9.8h53v9.8h-21.2v56.6H333.1z"/>
		<path d="M421,66.2v43.2h-9.2L410.9,99c-4.2,6-10.8,11.2-22.2,11.2c-14.6,0-24.4-7.3-24.4-19.4c0-13.3,9.2-20.7,26.7-20.7h19.5
			v-4.5c0-8.6-6.1-13.8-16.5-13.8c-9.4,0-15.6,4.4-16.9,11.2h-10.7c1.6-13,12.1-20.7,28.1-20.7C411.2,42.3,421,50.7,421,66.2z
			 M410.3,79.1h-20.5c-9.5,0-14.8,3.5-14.8,11.1c0,6.5,5.6,10.9,14.4,10.9c13.3,0,20.9-7.7,20.9-18.7V79.1z"/>
	</g>
	<path d="M44.8,2.6c6.1-3.5,13.6-3.4,19.7,0.2l19.8,11.8c2.7,1.6,3.5,5,1.9,7.7c-1.6,2.7-5,3.5-7.7,1.9L58.8,12.4
		c-2.6-1.5-5.8-1.6-8.4-0.1L15.4,32.2c-2.6,1.5-4.2,4.3-4.2,7.3v41c0,3,1.6,5.8,4.2,7.3L49,107.2V68.1c0-7,3.7-13.4,9.8-16.9
		L95.4,30c6.1-3.5,13.6,0.9,13.6,7.9v44.4c0,6.9-7.5,11.3-13.5,7.9l-22-12.4c-2.7-1.5-3.7-4.9-2.1-7.6c1.5-2.7,4.9-3.7,7.6-2.1
		l18.9,10.6V41.5L64.4,60.9c-2.6,1.5-4.2,4.3-4.2,7.3v42.8c0,7-7.6,11.4-13.6,7.9L9.7,97.4C3.7,93.9,0,87.4,0,80.4v-41
		c0-7,3.8-13.5,9.9-17L44.8,2.6z"/>
</g>
<g>
	<g>
		<path d="M245.5,45.8c0,27.3-16.9,45.8-43,45.8c-20.5,0-34.8-11.6-38.1-30.2h12c3.5,12.5,12.6,20,26.6,20
			c17.5,0,29.1-12.5,30.8-30.8h-37.3V40.3h37.3c-1.8-17.8-12.6-30-29.9-30c-13.9,0-23.2,7.3-26.5,20h-12c3.3-18.7,17.9-30.2,38-30.2
			C229.6,0,245.5,18.3,245.5,45.8z"/>
		<path d="M243.1,90.9v-9.7h1.9c7.5,0,10.3-4.5,10.3-24.2V25.2H305v65.6h-10.6v-56h-28.8v22.5c0,26.1-6.2,33.5-18.9,33.5H243.1z"/>
		<path d="M331,90.9v-56H310v-9.7h52.4v9.7h-20.9v56H331z"/>
		<path d="M418,48.1v42.7h-9.1L408,80.6c-4.1,5.9-10.7,11.1-22,11.1c-14.4,0-24.2-7.2-24.2-19.2c0-13.1,9.1-20.5,26.4-20.5h19.3
			v-4.5c0-8.5-6.1-13.6-16.3-13.6c-9.3,0-15.4,4.4-16.7,11.1h-10.6c1.5-12.9,12-20.5,27.8-20.5C408.3,24.5,418,32.8,418,48.1z
			 M407.4,60.9h-20.3c-9.4,0-14.7,3.5-14.7,10.9c0,6.4,5.5,10.8,14.3,10.8c13.1,0,20.7-7.6,20.7-18.5V60.9z"/>
	</g>
	<g>
		<polygon points="65.5,91.6 86.8,91.6 119.1,59.3 119.1,44.3 0,44.3 0,59.3 97.9,59.3 		"/>
		<polygon points="65.5,47.3 86.8,47.3 119.1,15 119.1,0 0,0 0,15 97.9,15 		"/>
	</g>
</g>
</svg>
