<?xml version="1.0" encoding="utf-8"?>
<!-- Generator: Adobe Illustrator 22.0.0, SVG Export Plug-In . SVG Version: 6.00 Build 0)  -->
<svg version="1.1" id="Layer_1" xmlns="http://www.w3.org/2000/svg" xmlns:xlink="http://www.w3.org/1999/xlink" x="0px" y="0px"
	 viewBox="0 0 421 120" style="enable-background:new 0 0 421 120;" xml:space="preserve">
<style type="text/css">
	.st0{opacity:0;}
	.st1{fill:#FFFFFF;}
</style>
<g class="st0">
	<g>
		<path class="st1" d="M246.8,63.9c0,27.6-17,46.3-43.4,46.3c-20.7,0-35.1-11.7-38.5-30.6h12.1c3.5,12.6,12.7,20.2,26.9,20.2
			c17.7,0,29.4-12.6,31.1-31.1h-37.7V58.3h37.7C233.1,40.3,222.2,28,204.8,28c-14,0-23.4,7.4-26.8,20.2h-12.1
			c3.4-18.9,18.1-30.6,38.4-30.6C230.6,17.6,246.8,36.1,246.8,63.9z"/>
		<path class="st1" d="M244.3,109.4v-9.8h2c7.5,0,10.4-4.6,10.4-24.4V43.1h50.2v66.3h-10.7V52.8H267v22.8c0,26.4-6.2,33.8-19.1,33.8
			H244.3z"/>
		<path class="st1" d="M333.1,109.4V52.8h-21.2v-9.8h53v9.8h-21.2v56.6H333.1z"/>
		<path class="st1" d="M421,66.2v43.2h-9.2L410.9,99c-4.2,6-10.8,11.2-22.2,11.2c-14.6,0-24.4-7.3-24.4-19.4
			c0-13.3,9.2-20.7,26.7-20.7h19.5v-4.5c0-8.6-6.1-13.8-16.5-13.8c-9.4,0-15.6,4.4-16.9,11.2h-10.7c1.6-13,12.1-20.7,28.1-20.7
			C411.2,42.3,421,50.7,421,66.2z M410.3,79.1h-20.5c-9.5,0-14.8,3.5-14.8,11.1c0,6.5,5.6,10.9,14.4,10.9c13.3,0,20.9-7.7,20.9-18.7
			V79.1z"/>
	</g>
	<path class="st1" d="M44.8,2.6c6.1-3.5,13.6-3.4,19.7,0.2l19.8,11.8c2.7,1.6,3.5,5,1.9,7.7c-1.6,2.7-5,3.5-7.7,1.9L58.8,12.4
		c-2.6-1.5-5.8-1.6-8.4-0.1L15.4,32.2c-2.6,1.5-4.2,4.3-4.2,7.3v41c0,3,1.6,5.8,4.2,7.3L49,107.2V68.1c0-7,3.7-13.4,9.8-16.9
		L95.4,30c6.1-3.5,13.6,0.9,13.6,7.9v44.4c0,6.9-7.5,11.3-13.5,7.9l-22-12.4c-2.7-1.5-3.7-4.9-2.1-7.6c1.5-2.7,4.9-3.7,7.6-2.1
		l18.9,10.6V41.5L64.4,60.9c-2.6,1.5-4.2,4.3-4.2,7.3v42.8c0,7-7.6,11.4-13.6,7.9L9.7,97.4C3.7,93.9,0,87.4,0,80.4v-41
		c0-7,3.8-13.5,9.9-17L44.8,2.6z"/>
</g>
<g>
	<g>
		<path class="st1" d="M247,63c0,27.1-16.7,45.4-42.6,45.4c-20.3,0-34.5-11.5-37.8-30h11.9c3.4,12.4,12.5,19.8,26.4,19.8
			c17.4,0,28.8-12.4,30.5-30.5h-37V57.5h37c-1.8-17.6-12.5-29.7-29.6-29.7c-13.8,0-23,7.3-26.3,19.8h-11.9c3.3-18.5,17.7-30,37.7-30
			C231.2,17.6,247,35.7,247,63z"/>
		<path class="st1" d="M244.6,107.7v-9.6h1.9c7.4,0,10.2-4.5,10.2-24V42.6H306v65.1h-10.5V52.1h-28.6v22.3
			c0,25.9-6.1,33.2-18.8,33.2H244.6z"/>
		<path class="st1" d="M331.7,107.7V52.1H311v-9.6h52v9.6h-20.8v55.5H331.7z"/>
		<path class="st1" d="M418,65.3v42.4h-9.1L408,97.4c-4.1,5.9-10.6,11-21.8,11c-14.3,0-24-7.1-24-19c0-13,9.1-20.3,26.2-20.3h19.1
			v-4.5c0-8.4-6-13.5-16.2-13.5c-9.2,0-15.3,4.3-16.6,11h-10.5c1.5-12.8,11.9-20.3,27.6-20.3C408.4,41.8,418,50.1,418,65.3z
			 M407.5,77.9h-20.2c-9.3,0-14.5,3.4-14.5,10.8c0,6.4,5.5,10.7,14.2,10.7c13,0,20.5-7.5,20.5-18.4V77.9z"/>
	</g>
	<polygon class="st1" points="65.3,108.4 97.4,76.3 0,76.3 0,61.2 71.8,61.2 100.4,32.6 0,32.6 0,17.6 121.6,17.6 121.6,32.7 
		93.1,61.2 121.6,61.2 121.6,73.4 86.6,108.4 	"/>
</g>
</svg>
