<?xml version="1.0" encoding="utf-8"?>
<!-- Generator: Adobe Illustrator 22.0.0, SVG Export Plug-In . SVG Version: 6.00 Build 0)  -->
<svg version="1.1" id="Layer_2_1_" xmlns="http://www.w3.org/2000/svg" xmlns:xlink="http://www.w3.org/1999/xlink" x="0px" y="0px"
	 viewBox="0 0 640 640" style="enable-background:new 0 0 640 640;" xml:space="preserve">
<style type="text/css">
	.st0{fill:#FF5C6C;}
	.st1{fill:#FFFFFF;}
	.st2{fill:#FFEDD8;}
	.st3{fill:#414373;}
</style>
<rect class="st0" width="640" height="640"/>
<g>
	<g>
		<g>
			<polygon class="st1" points="221.3,386.7 221.3,386.6 221.3,380 221.3,379.9 221.4,379.9 240.6,379.9 240.6,374.8 221.4,374.8 
				221.3,374.8 221.3,374.7 221.3,368.5 221.3,368.4 221.4,368.4 243.6,368.4 243.6,362.7 213.9,362.7 213.9,392.5 243.6,392.5 
				243.6,386.7 221.4,386.7 			"/>
			<path class="st1" d="M264.9,370.3c-2.8,0-5,0.6-6.8,1.8c-1.7,1.2-2.9,3-3.5,5.2v0.1h-0.1h-0.7h-0.1v-0.1l1-6.4H248v21.6h6.5V384
				c0-2.6,0.7-4.6,2-6c1.4-1.4,3.3-2.1,5.7-2.1s4.4,0.7,5.7,2.1c1.4,1.4,2,3.4,2,6v8.6h6.5v-10.1c0-3.7-1.1-6.7-3.2-8.8
				C271.4,371.4,268.5,370.3,264.9,370.3z"/>
			<path class="st1" d="M303.3,376.6v0.1h-0.1h-0.6h-0.1v-0.1c-0.6-2-1.9-3.5-3.7-4.7c-1.8-1.1-4.1-1.7-7.1-1.7
				c-2.4,0-4.7,0.4-6.5,1.4c-1.8,0.9-3.2,2.1-4.1,3.7c-1,1.6-1.5,3.4-1.5,5.4s0.5,3.8,1.5,5.4s2.3,2.9,4.1,3.7
				c1.8,0.9,4,1.4,6.5,1.4c3.1,0,5.4-0.5,7.1-1.5s2.9-2.3,3.5-4.1v-0.1h0.1h0.6h0.1v0.1v0.9c0,3.1-1,5.4-3,7c-1.9,1.6-5,2.4-9.2,2.4
				c-1.7,0-3.3-0.1-4.8-0.3c-1.4-0.2-3.1-0.6-4.9-1.2v5.3c1.6,0.5,3.2,1.1,4.7,1.3c1.6,0.3,3.4,0.4,5.4,0.4c6,0,10.3-1.4,13.1-4.1
				c2.8-2.8,4.1-7,4.1-12.9v-13.6H302L303.3,376.6z M300.2,385.2c-1.4,1.1-3.4,1.6-6.1,1.6s-4.7-0.5-6.1-1.6s-2.1-2.4-2.1-4.1
				s0.7-3.1,2.1-4.1c1.4-1.1,3.4-1.6,6.1-1.6s4.7,0.5,6.1,1.6s2.1,2.4,2.1,4.1C302.2,382.8,301.6,384.2,300.2,385.2z"/>
			<rect x="314" y="362.7" class="st1" width="6.5" height="29.8"/>
			<g>
				<path class="st1" d="M331.8,361.6c-0.6-0.6-1.6-1-2.8-1c-1.2,0-2.1,0.3-2.9,1c-0.6,0.6-1.1,1.5-1.1,2.4c0,1,0.3,1.8,1.1,2.4
					c0.6,0.6,1.6,1,2.9,1c1.2,0,2.1-0.3,2.8-1s1.1-1.5,1.1-2.4C332.8,363.1,332.4,362.3,331.8,361.6z"/>
				<rect x="325.7" y="371" class="st1" width="6.5" height="21.6"/>
			</g>
			<path class="st1" d="M362.2,382.2c-1.3-0.9-2.8-1.5-4.6-1.8c-1.8-0.3-4-0.4-6.8-0.5c-2.7-0.1-4.6-0.3-5.7-0.5
				c-1.3-0.2-1.9-0.9-1.9-1.8s0.6-1.6,1.8-2s3-0.6,5.2-0.6c4.5,0,6.8,1.2,7,3.4h6.6c-0.1-2.3-1.3-4.3-3.5-5.7
				c-2.2-1.5-5.6-2.2-10.2-2.2c-4.9,0-8.4,0.6-10.5,1.9s-3.2,2.9-3.2,4.9c0,1.7,0.6,3.1,1.8,3.9c1.3,0.9,2.8,1.5,4.5,1.7
				c1.7,0.3,4,0.4,6.7,0.5c1.8,0.1,3.3,0.2,4.3,0.3c1.1,0.1,1.9,0.3,2.6,0.6c0.7,0.3,1.1,0.9,1.1,1.6s-0.5,1.5-1.6,1.9
				s-3,0.7-5.6,0.7c-2.4,0-4.3-0.3-5.4-0.9c-1.3-0.6-1.9-1.5-1.9-2.7v-0.1H336v0.2c0,2.4,1.1,4.4,3.3,5.9c2.2,1.5,5.7,2.2,10.6,2.2
				c4.6,0,8.2-0.5,10.4-1.7c2.2-1.2,3.4-2.9,3.4-5.1C364,384.4,363.4,383.1,362.2,382.2z"/>
			<path class="st1" d="M384.9,370.3c-2.8,0-5,0.6-6.8,1.8c-1.7,1.2-2.9,3-3.5,5.2v0.1h-0.1h-0.7h-0.2v-0.1c0.3-1.4,0.6-2.8,0.7-3.9
				c0.2-1.2,0.2-2.4,0.2-3.8v-6.9h-6.4v29.8h6.5v-8.6c0-2.6,0.7-4.6,2-6c1.4-1.4,3.3-2.1,5.7-2.1s4.4,0.7,5.7,2.1s2,3.4,2,6v8.6h6.5
				v-10.1c0-3.7-1.1-6.7-3.2-8.8C391.4,371.4,388.5,370.3,384.9,370.3z"/>
		</g>
		<g>
			<polygon class="st1" points="237,253.1 237,297 254.4,297 254.4,253.1 254.4,252.7 254.9,252.7 277.6,252.7 277.6,238.5 
				213.8,238.5 213.8,252.7 236.5,252.7 237,252.7 			"/>
			<path class="st1" d="M276.4,287.2c2.2,3.3,5.6,6.1,10,8c4.5,2,9.8,3,16,3c5.9,0,11-0.8,15-2.4s7.2-3.6,9.4-5.8
				c2-2,3.5-4.2,4.4-6.3h-14.7c-1.3,1.1-2.9,2-4.9,2.7s-5.1,1.1-8.9,1.1c-4,0-7.2-0.6-9.7-1.9s-4.3-3-5.3-5.4l-0.3-0.7h0.7H332
				c0.2-1.2,0.3-2.4,0.3-3.6c0-4.2-1.1-8-3.5-11.5c-2.2-3.3-5.7-6.1-10-8.1c-4.5-1.9-9.9-2.9-16.2-2.9c-6.3,0-11.8,1-16.2,2.9
				c-4.5,1.9-7.8,4.7-10,8s-3.3,7.2-3.3,11.3C273.1,280.1,274.2,283.9,276.4,287.2z M287.7,271.5c0.9-2.3,2.7-4.2,5.3-5.5
				c2.5-1.3,5.8-1.9,9.7-1.9c4.1,0,7.3,0.6,9.8,1.9s4.3,3.1,5.3,5.5l0.3,0.7h-0.7h-29.1h-0.7L287.7,271.5z"/>
			<path class="st1" d="M350.6,295.2c4.5,2,9.8,3,16,3c5.9,0,11-0.8,15-2.4s7.2-3.6,9.4-5.8c2-2,3.5-4.2,4.4-6.3h-14.7
				c-1.3,1.1-2.9,2-4.9,2.7s-5.1,1.1-8.9,1.1c-4,0-7.2-0.6-9.7-1.9s-4.3-3-5.3-5.4l-0.3-0.7h0.7h43.9c0.2-1.2,0.3-2.4,0.3-3.6
				c0-4.2-1.1-8-3.5-11.5c-2.2-3.3-5.7-6.1-10-8.1c-4.5-1.9-9.9-2.9-16.2-2.9c-6.3,0-11.8,1-16.2,2.9c-4.5,1.9-7.8,4.7-10,8
				s-3.3,7.2-3.3,11.3c0,4.2,1.1,7.9,3.3,11.3C342.8,290.6,346.1,293.2,350.6,295.2z M351.8,271.5c0.9-2.3,2.7-4.2,5.3-5.5
				c2.5-1.3,5.8-1.9,9.7-1.9c4.1,0,7.3,0.6,9.8,1.9s4.3,3.1,5.3,5.5l0.3,0.7h-0.7h-29.1h-0.8L351.8,271.5z"/>
			<path class="st1" d="M445.1,255.1c-2.7-1-5.9-1.5-9.4-1.5c-5.1,0-8.9,1.1-11.8,3.3c-2.6,2.1-4.6,5.4-5.9,10l-0.1,0.3h-0.4h-1.6
				h-0.5l0.1-0.6l2.2-12.1h-15.1v42.3h15.2v-16.7c0-4.5,1.2-7.9,3.6-10.4c2.5-2.6,5.2-3.7,9.1-3.7c4.5,0,6.7,1.4,8.9,3.7
				c2.3,2.4,3.6,5.9,3.6,10.4v16.7h15.2v-20.6c0-3.6-0.5-6.8-1.5-9.6c-1-2.7-2.5-5.2-4.5-7.2C450.2,257.7,447.8,256.1,445.1,255.1z"
				/>
			<path class="st1" d="M492.1,282.3c-3.9,0-6.9-1.1-9.2-3.5c-2.2-2.3-3.3-5.5-3.3-9.6v-14.5h-15.2v17.7c0,3.5,0.5,6.6,1.4,9.2
				c1,2.6,2.4,5,4.4,6.9c1.9,1.9,4.3,3.3,7,4.4c2.7,1,5.8,1.4,9.3,1.4c5,0,8.9-1,11.9-2.9c2.8-1.9,4.9-5.1,6.1-9.3l0.1-0.4h0.4h1.4
				h0.5v0.5v1.2c0,6-1.8,10.8-5.5,14s-9.1,5-16.4,5c-2.7,0-5.7-0.2-8.5-0.7c-2.6-0.4-5.7-1.2-9-2.3v12.4c2.9,1,5.9,1.9,8.8,2.4
				c3,0.6,6.3,0.9,9.8,0.9c5.8,0,10.9-0.7,15.1-2.1s7.8-3.6,10.6-6.4c2.7-2.8,4.9-6.5,6.2-10.9c1.4-4.4,2.1-9.6,2.1-15.6v-25.3
				h-15.2v14.5c0,4.1-1.1,7.3-3.3,9.6C499.1,281.2,495.9,282.3,492.1,282.3z"/>
		</g>
	</g>
	<g>
		<path class="st1" d="M195.5,293.3l-7.6,33.6c-0.8,4.5-1.2,9-1.2,13.6v0.8v0.5h-0.5h-1.5h-0.5v-0.5v-0.8c0-5.3-0.4-9.8-1.2-13.6
			l-6-23.9h-19.5l-6,23.9c-0.8,3.8-1.2,8.3-1.2,13.6v0.8v0.5h-0.5h-1.5h-0.5v-0.5v-0.8c0-4.6-0.4-9.1-1.2-13.6l-7.6-33.6h-19
			l15.5,58.6H158l6.1-21.7c0.8-3,1.3-5.6,1.5-7.4c0.2-1.9,0.3-4.8,0.3-8.7v-0.3v-0.5h0.5h1.5h0.5v0.5v0.3c0,4,0.1,6.9,0.3,8.7
			c0.2,1.8,0.7,4.4,1.5,7.4l6.1,21.7h22.4l15.5-58.6H195.5z"/>
		<path class="st1" d="M240.5,353c5.9,0,11-0.8,15-2.4c4.1-1.6,7.2-3.6,9.4-5.8c2-2,3.5-4.2,4.4-6.3h-14.7c-1.3,1.1-2.9,2-4.9,2.7
			s-5.1,1.1-8.9,1.1c-4,0-7.2-0.6-9.7-1.9s-4.3-3-5.3-5.4l-0.3-0.7h0.7H270c0.2-1.2,0.3-2.4,0.3-3.6c0-4.2-1.1-8-3.5-11.5
			c-2.2-3.3-5.7-6.1-10-8.1c-4.5-1.9-9.9-2.9-16.2-2.9s-11.8,1-16.2,2.9s-7.8,4.7-10,8s-3.3,7.2-3.3,11.3c0,4.2,1.1,7.9,3.3,11.3
			c2.2,3.3,5.6,6.1,10,8C228.9,352,234.3,353,240.5,353z M225.7,326.3c0.9-2.3,2.7-4.2,5.3-5.5c2.5-1.3,5.8-1.9,9.7-1.9
			c4.1,0,7.3,0.6,9.8,1.9s4.3,3.1,5.3,5.5l0.3,0.7h-0.7h-29.1h-0.7L225.7,326.3z"/>
		<path class="st1" d="M303.5,353c5.9,0,11-0.8,15-2.4c4.1-1.6,7.2-3.6,9.4-5.8c2-2,3.5-4.2,4.4-6.3h-14.7c-1.3,1.1-2.9,2-4.9,2.7
			s-5.1,1.1-8.9,1.1c-4,0-7.2-0.6-9.7-1.9s-4.3-3-5.3-5.4l-0.3-0.7h0.7H333c0.2-1.2,0.3-2.4,0.3-3.6c0-4.2-1.1-8-3.5-11.5
			c-2.2-3.3-5.7-6.1-10-8.1c-4.5-1.9-9.9-2.9-16.2-2.9c-6.3,0-11.8,1-16.2,2.9c-4.5,1.9-7.8,4.7-10,8s-3.3,7.2-3.3,11.3
			c0,4.2,1.1,7.9,3.3,11.3c2.2,3.3,5.6,6.1,10,8C291.8,352,297.2,353,303.5,353z M288.7,326.3c0.9-2.3,2.7-4.2,5.3-5.5
			c2.5-1.3,5.8-1.9,9.7-1.9c4.1,0,7.3,0.6,9.8,1.9s4.3,3.1,5.3,5.5l0.3,0.7h-0.7h-29.1h-0.7L288.7,326.3z"/>
		<path class="st1" d="M421.1,333.7c-2.2-2.3-3.3-5.5-3.3-9.6v-14.5h-15.2v17.7c0,3.5,0.5,6.6,1.4,9.2c1,2.6,2.4,5,4.4,6.9
			s4.3,3.3,7,4.4c2.7,1,5.8,1.4,9.3,1.4c5,0,8.9-1,11.9-2.9c2.8-1.9,4.9-5.1,6.1-9.3l0.1-0.4h0.4h1.4h0.5v0.5v1.2
			c0,6-1.8,10.8-5.5,14s-9.1,5-16.4,5c-2.7,0-5.7-0.2-8.5-0.7c-2.6-0.4-5.7-1.2-9-2.3v12.4c2.9,1,5.9,1.9,8.8,2.4
			c3,0.6,6.3,0.9,9.8,0.9c5.8,0,10.9-0.7,15.1-2.1c4.3-1.4,7.8-3.6,10.6-6.4c2.7-2.8,4.9-6.5,6.2-10.9c1.4-4.4,2.1-9.6,2.1-15.6
			v-25.3h-15.2V324c0,4.1-1.1,7.3-3.3,9.6c-2.2,2.3-5.4,3.5-9.2,3.5C426.5,337.1,423.4,336,421.1,333.7z"/>
		<path class="st1" d="M383.5,309.9c-2.7-1-5.9-1.5-9.4-1.5c-5.2,0-9.2,1.1-12.3,3.3c-2.9,2.2-5.1,5.5-6.3,10l-0.1,0.3H355h-1.6
			h-0.6l0.1-0.6l2.2-12.1H340v42.3h15.2V335c0-4.5,1.2-7.9,3.6-10.4s5.5-3.7,9.6-3.7s6.9,1.1,9.4,3.7c2.3,2.4,3.6,5.9,3.6,10.4v16.7
			h15.2v-20.6c0-3.6-0.5-6.8-1.5-9.6c-1-2.7-2.5-5.2-4.5-7.2C388.6,312.5,386.2,311,383.5,309.9z"/>
	</g>
</g>
<rect x="114" y="725" class="st2" width="300" height="300"/>
<rect x="714" y="425" class="st0" width="300" height="300"/>
<rect x="1014" y="125" class="st3" width="600" height="300"/>
</svg>
