<?xml version="1.0" encoding="utf-8"?>
<!-- Generator: Adobe Illustrator 22.0.0, SVG Export Plug-In . SVG Version: 6.00 Build 0)  -->
<svg version="1.1" id="Layer_2_1_" xmlns="http://www.w3.org/2000/svg" xmlns:xlink="http://www.w3.org/1999/xlink" x="0px" y="0px"
	 viewBox="0 0 640 640" style="enable-background:new 0 0 640 640;" xml:space="preserve">
<style type="text/css">
	.st0{fill:#E15764;}
	.st1{fill:#FFFFFF;}
</style>
<rect y="0" class="st0" width="640" height="640"/>
<g>
	<g>
		<g>
			<g>
				<g>
					<path class="st1" d="M246.1,363.1v5.6h-20.8v5.7h18v5h-18v6.1h20.8v5.6h-27.9v-28.1H246.1z"/>
					<path class="st1" d="M251.1,391.3v-20.4h6.3l-1,6.1h0.7c0.6-2.1,1.7-3.8,3.4-4.9c1.6-1.2,3.8-1.7,6.4-1.7c3.5,0,6.2,1,8.2,3
						c2,2,3,4.8,3,8.3v9.6h-6.3v-8.2c0-2.4-0.6-4.2-1.9-5.5c-1.3-1.3-3-1.9-5.3-1.9c-2.2,0-4,0.6-5.3,1.9c-1.3,1.3-1.9,3.1-1.9,5.5
						v8.2H251.1z"/>
					<path class="st1" d="M288.7,399.4c-1.5-0.3-3-0.7-4.5-1.2V393c1.8,0.6,3.4,1,4.8,1.2c1.4,0.2,2.9,0.3,4.4,0.3
						c3.8,0,6.6-0.8,8.5-2.3c1.8-1.5,2.7-3.7,2.7-6.5v-0.8h-0.6c-0.7,1.7-1.8,3.1-3.4,4c-1.6,0.9-3.8,1.4-6.7,1.4
						c-2.4,0-4.4-0.4-6.2-1.3c-1.7-0.9-3-2-4-3.5c-0.9-1.5-1.4-3.2-1.4-5.1c0-1.9,0.5-3.6,1.4-5.1c0.9-1.5,2.2-2.7,3.9-3.5
						c1.7-0.9,3.7-1.3,6.1-1.3c2.8,0,5.1,0.5,6.7,1.6c1.7,1,2.9,2.5,3.5,4.4h0.6l-0.9-5.4h6.3v12.9c0,5.5-1.3,9.5-3.9,12.1
						c-2.6,2.6-6.7,3.9-12.3,3.9C291.8,399.8,290.1,399.7,288.7,399.4z M301.8,384.3c1.3-1,1.9-2.2,1.9-3.8c0-1.5-0.6-2.8-1.9-3.7
						c-1.3-1-3.1-1.4-5.6-1.4c-2.5,0-4.3,0.5-5.6,1.4c-1.3,1-1.9,2.2-1.9,3.7c0,1.5,0.6,2.8,1.9,3.8c1.3,1,3.1,1.5,5.6,1.5
						C298.6,385.8,300.5,385.3,301.8,384.3z"/>
					<path class="st1" d="M322,391.3h-6.3v-28.1h6.3V391.3z"/>
					<path class="st1" d="M328.1,366.8c-0.7-0.6-1-1.4-1-2.3c0-0.9,0.3-1.7,1-2.3c0.7-0.6,1.6-0.9,2.7-0.9c1.1,0,2,0.3,2.7,0.9
						c0.7,0.6,1,1.4,1,2.3c0,0.9-0.3,1.7-1,2.3c-0.7,0.6-1.6,0.9-2.7,0.9C329.7,367.8,328.7,367.5,328.1,366.8z M334,391.3h-6.3
						v-20.4h6.3V391.3z"/>
					<path class="st1" d="M341.6,389.7c-2.1-1.4-3.1-3.2-3.1-5.6v-0.3h6.4v0.2c0,2.1,2.2,3.2,6.7,3.2c2.5,0,4.3-0.2,5.2-0.6
						c1-0.4,1.4-1,1.4-1.7c0-0.6-0.3-1.1-0.9-1.4c-0.6-0.3-1.4-0.5-2.4-0.6c-0.9-0.1-2.3-0.2-4-0.3c-2.6-0.1-4.7-0.3-6.3-0.5
						c-1.6-0.3-3-0.8-4.2-1.6c-1.2-0.8-1.8-2.1-1.8-3.8c0-1.9,1-3.5,3-4.7c2-1.2,5.3-1.8,9.9-1.8c4.3,0,7.5,0.7,9.6,2.1
						c2.1,1.4,3.2,3.3,3.3,5.6h-6.4c-0.2-2.1-2.3-3.2-6.5-3.2c-4.3,0-6.5,0.8-6.5,2.3c0,0.8,0.6,1.3,1.7,1.5
						c1.1,0.2,2.9,0.4,5.4,0.5c2.6,0.1,4.7,0.2,6.4,0.5c1.7,0.3,3.1,0.8,4.3,1.7c1.2,0.9,1.8,2.1,1.8,3.9c0,4.4-4.4,6.5-13.1,6.5
						C347,391.8,343.7,391.1,341.6,389.7z"/>
					<path class="st1" d="M369.2,391.3v-28.1h6.3v6.5c0,1.2-0.1,2.4-0.2,3.6c-0.2,1.2-0.4,2.4-0.7,3.7h0.7c0.6-2.1,1.7-3.8,3.4-4.9
						c1.6-1.2,3.8-1.7,6.4-1.7c3.5,0,6.2,1,8.2,3c2,2,3,4.8,3,8.3v9.6h-6.3v-8.2c0-2.4-0.6-4.2-1.9-5.5c-1.3-1.3-3-1.9-5.3-1.9
						c-2.3,0-4,0.6-5.3,1.9c-1.3,1.3-1.9,3.1-1.9,5.5v8.2H369.2z"/>
				</g>
			</g>
			<g>
				<g>
					<g>
						<g>
							<path class="st1" d="M254.8,298.5h-18V255h-22.8v-14.8h63.5V255h-22.8V298.5z"/>
						</g>
					</g>
					<g>
						<g>
							<path class="st1" d="M331.9,281.5h-43.4c0.9,2.1,2.5,3.8,4.9,5c2.4,1.2,5.5,1.8,9.3,1.8c3.8,0,6.7-0.4,8.6-1.1
								c2-0.7,3.6-1.6,4.8-2.7h15.3c-0.8,2.4-2.4,4.7-4.6,7c-2.2,2.3-5.4,4.2-9.4,5.8c-4.1,1.6-9,2.4-14.9,2.4c-6.2,0-11.5-1-16-3
								c-4.4-2-7.8-4.7-10-8c-2.2-3.4-3.4-7.1-3.4-11.3c0-4.2,1.1-7.9,3.4-11.3c2.2-3.4,5.6-6.1,10-8c4.4-2,9.8-3,16.1-3
								c6.3,0,11.6,1,16.1,3c4.4,2,7.8,4.7,10.1,8.1c2.3,3.4,3.4,7.2,3.4,11.5C332.2,278.8,332.1,280.2,331.9,281.5z M293.3,268.1
								c-2.4,1.2-4,2.9-4.9,5.1H317c-0.9-2.2-2.5-3.9-4.9-5.1c-2.4-1.2-5.5-1.8-9.4-1.8C298.8,266.3,295.7,266.9,293.3,268.1z"/>
						</g>
					</g>
					<g>
						<g>
							<path class="st1" d="M395.6,281.5h-43.4c0.9,2.1,2.5,3.8,4.9,5c2.4,1.2,5.5,1.8,9.3,1.8c3.8,0,6.7-0.4,8.6-1.1
								c2-0.7,3.6-1.6,4.8-2.7h15.3c-0.8,2.4-2.4,4.7-4.6,7c-2.2,2.3-5.4,4.2-9.4,5.8c-4.1,1.6-9,2.4-14.9,2.4c-6.2,0-11.5-1-16-3
								c-4.4-2-7.8-4.7-10-8c-2.2-3.4-3.4-7.1-3.4-11.3c0-4.2,1.1-7.9,3.4-11.3c2.2-3.4,5.6-6.1,10-8c4.4-2,9.8-3,16.1-3
								c6.3,0,11.6,1,16.1,3c4.4,2,7.8,4.7,10.1,8.1c2.3,3.4,3.4,7.2,3.4,11.5C395.9,278.8,395.8,280.2,395.6,281.5z M357,268.1
								c-2.4,1.2-4,2.9-4.9,5.1h28.6c-0.9-2.2-2.5-3.9-4.9-5.1c-2.4-1.2-5.5-1.8-9.4-1.8C362.5,266.3,359.4,266.9,357,268.1z"/>
						</g>
					</g>
					<g>
						<g>
							<path class="st1" d="M402.1,298.5v-42.4H418l-2.3,12.4h1.6c2.5-9,7.3-13.5,17.7-13.5c7,0,12.5,2,16.5,6c4,4,6,9.6,6,16.8
								v20.7h-15.8v-16.9c0-4.2-1.1-7.5-3.4-9.8c-2.3-2.3-4.4-3.5-8.4-3.5c-4,0-6.4,1.2-8.6,3.5c-2.2,2.3-3.3,5.6-3.3,9.8v16.9
								H402.1z"/>
						</g>
					</g>
					<g>
						<g>
							<path class="st1" d="M476.5,315.3c-3-0.6-6-1.4-9-2.5v-13.1c3.5,1.2,6.6,2,9.4,2.5c2.8,0.5,5.5,0.7,8.3,0.7
								c7.1,0,12.3-1.6,15.8-4.7c3.5-3.1,5.2-7.6,5.2-13.4v-1.2h-1.4c-1.2,4.3-3.2,7.4-6.1,9.4c-2.9,2-6.9,3-11.9,3
								c-6.9,0-12.4-1.9-16.3-5.8c-3.9-3.9-5.9-9.3-5.9-16.2v-17.7h15.8v14.7c0,3.9,1.1,6.9,3.2,9.1c2.1,2.2,5,3.2,8.7,3.2
								c3.7,0,6.6-1.1,8.8-3.2c2.1-2.2,3.2-5.2,3.2-9.1v-14.7H520v25.3c0,11.9-2.8,20.7-8.3,26.3c-5.5,5.6-14,8.5-25.5,8.5
								C482.7,316.1,479.5,315.8,476.5,315.3z"/>
						</g>
					</g>
				</g>
			</g>
		</g>
	</g>
	<g>
		<g>
			<g>
				<g>
					<path class="st1" d="M135.5,352.3L120,293.9h19.4l7.5,33.3c0.8,4.4,1.3,8.9,1.3,13.4v0.8h1.5v-0.8c0-5.2,0.4-9.7,1.3-13.4
						l6-23.8h19.8l6,23.8c0.8,3.7,1.3,8.2,1.3,13.4v0.8h1.5v-0.8c0-4.5,0.4-9,1.2-13.4l7.5-33.3h19.4l-15.5,58.3h-22.7l-6.1-21.7
						c-0.8-3.1-1.3-5.5-1.5-7.4c-0.2-1.9-0.3-4.7-0.3-8.6v-0.3h-1.5v0.3c0,3.9-0.1,6.8-0.3,8.6c-0.2,1.9-0.7,4.3-1.5,7.4l-6.1,21.7
						H135.5z"/>
				</g>
			</g>
			<g>
				<g>
					<path class="st1" d="M270.2,335.3h-43.4c0.9,2.1,2.5,3.8,4.9,5c2.4,1.2,5.5,1.8,9.3,1.8c3.8,0,6.7-0.4,8.6-1.1
						c2-0.7,3.6-1.6,4.8-2.7h15.3c-0.8,2.4-2.4,4.7-4.6,7c-2.2,2.3-5.4,4.2-9.4,5.8c-4.1,1.6-9,2.4-14.9,2.4c-6.2,0-11.5-1-16-3
						c-4.4-2-7.8-4.7-10-8c-2.2-3.4-3.4-7.1-3.4-11.3c0-4.2,1.1-7.9,3.4-11.3c2.2-3.4,5.6-6.1,10-8c4.4-2,9.8-3,16.1-3
						c6.3,0,11.6,1,16.1,3c4.4,2,7.8,4.7,10.1,8.1c2.3,3.4,3.4,7.2,3.4,11.5C270.5,332.5,270.4,333.9,270.2,335.3z M231.6,321.9
						c-2.4,1.2-4,2.9-4.9,5.1h28.6c-0.9-2.2-2.5-3.9-4.9-5.1c-2.4-1.2-5.5-1.8-9.4-1.8C237.1,320,234,320.6,231.6,321.9z"/>
				</g>
			</g>
			<g>
				<g>
					<path class="st1" d="M332.9,335.3h-43.4c0.9,2.1,2.5,3.8,4.9,5c2.4,1.2,5.5,1.8,9.3,1.8c3.8,0,6.7-0.4,8.6-1.1
						c2-0.7,3.6-1.6,4.8-2.7h15.3c-0.8,2.4-2.4,4.7-4.6,7c-2.2,2.3-5.4,4.2-9.4,5.8c-4.1,1.6-9,2.4-14.9,2.4c-6.2,0-11.5-1-16-3
						c-4.4-2-7.8-4.7-10-8c-2.2-3.4-3.4-7.1-3.4-11.3c0-4.2,1.1-7.9,3.4-11.3c2.2-3.4,5.6-6.1,10-8c4.4-2,9.8-3,16.1-3
						c6.3,0,11.6,1,16.1,3c4.4,2,7.8,4.7,10.1,8.1c2.3,3.4,3.4,7.2,3.4,11.5C333.2,332.5,333.1,333.9,332.9,335.3z M294.3,321.9
						c-2.4,1.2-4,2.9-4.9,5.1h28.6c-0.9-2.2-2.5-3.9-4.9-5.1c-2.4-1.2-5.5-1.8-9.4-1.8C299.8,320,296.7,320.6,294.3,321.9z"/>
				</g>
			</g>
			<g>
				<g>
					<path class="st1" d="M414.1,369c-3-0.6-6-1.4-9-2.5v-13.1c3.5,1.2,6.6,2,9.4,2.5c2.8,0.5,5.5,0.7,8.3,0.7
						c7.1,0,12.3-1.6,15.8-4.7c3.5-3.1,5.2-7.6,5.2-13.4v-1.2h-1.4c-1.2,4.3-3.2,7.4-6.1,9.4c-2.9,2-6.9,3-11.9,3
						c-6.9,0-12.4-1.9-16.3-5.8c-3.9-3.9-5.9-9.3-5.9-16.2v-17.7H418v14.7c0,3.9,1.1,6.9,3.2,9.1c2.1,2.2,5,3.2,8.7,3.2
						c3.7,0,6.6-1.1,8.8-3.2c2.1-2.2,3.2-5.2,3.2-9.1v-14.7h15.8v25.3c0,11.9-2.8,20.7-8.3,26.3c-5.5,5.6-14,8.5-25.5,8.5
						C420.3,369.9,417.1,369.6,414.1,369z"/>
				</g>
			</g>
			<g>
				<g>
					<path class="st1" d="M339.8,352.3v-42.4h15.8l-2.3,12.4h1.6c2.5-9,8.2-13.5,18.7-13.5c7,0,12.5,2,16.5,6c4,4,6,9.6,6,16.8v20.7
						h-15.8v-16.9c0-4.2-1.1-7.5-3.4-9.8c-2.3-2.3-4.9-3.5-8.9-3.5c-4,0-6.9,1.2-9.1,3.5c-2.2,2.3-3.3,5.6-3.3,9.8v16.9H339.8z"/>
				</g>
			</g>
		</g>
	</g>
</g>
</svg>
