<?xml version="1.0" encoding="utf-8"?>
<!-- Generator: Adobe Illustrator 22.0.0, SVG Export Plug-In . SVG Version: 6.00 Build 0)  -->
<svg version="1.1" id="Layer_2_1_" xmlns="http://www.w3.org/2000/svg" xmlns:xlink="http://www.w3.org/1999/xlink" x="0px" y="0px"
	 viewBox="0 0 640 640" style="enable-background:new 0 0 640 640;" xml:space="preserve">
<style type="text/css">
	.st0{fill:#FFF2E3;}
	.st1{fill:#3A3A66;}
	.st2{fill:#F94B6C;}
</style>
<rect class="st0" width="640" height="640"/>
<g>
	<g>
		<g>
			<g>
				<path class="st1" d="M333.9,362.3c-0.6-0.6-1.5-0.9-2.6-0.9s-2,0.3-2.7,0.9c-0.6,0.6-1,1.4-1,2.3s0.3,1.7,1,2.3
					c0.6,0.6,1.5,0.9,2.7,0.9c1.1,0,2-0.3,2.6-0.9s1-1.4,1-2.3C334.9,363.7,334.5,362.9,333.9,362.3z"/>
				<g>
					<g>
						<polygon class="st1" points="225.1,385.9 225.1,385.8 225.1,379.6 225.1,379.5 225.2,379.5 243.2,379.5 243.2,374.7 
							225.2,374.7 225.1,374.7 225.1,374.6 225.1,368.8 225.1,368.7 225.2,368.7 246,368.7 246,363.3 218.1,363.3 218.1,391.3 
							246,391.3 246,385.9 225.2,385.9 						"/>
						<path class="st1" d="M267,370.5c-2.6,0-4.7,0.6-6.4,1.7c-1.6,1.1-2.7,2.8-3.3,4.9v0.1h-0.1h-0.7h-0.1v-0.1l0.9-6h-6.1v20.3
							h6.1v-8.1c0-2.4,0.7-4.3,1.9-5.6c1.3-1.3,3.1-2,5.4-2s4.1,0.7,5.4,2s1.9,3.2,1.9,5.6v8.1h6.1v-9.5c0-3.5-1-6.3-3-8.3
							C273.2,371.5,270.4,370.5,267,370.5z"/>
						<path class="st1" d="M305.1,376.4v0.1H305h-0.6h-0.1v-0.1c-0.6-1.9-1.8-3.3-3.5-4.4c-1.7-1-3.9-1.6-6.7-1.6
							c-2.3,0-4.4,0.4-6.1,1.3c-1.7,0.8-3,2-3.9,3.5s-1.4,3.2-1.4,5.1s0.5,3.6,1.4,5.1s2.2,2.7,3.9,3.5c1.7,0.8,3.8,1.3,6.1,1.3
							c2.9,0,5.1-0.5,6.7-1.4s2.7-2.2,3.3-3.9v-0.1h0.1h0.6h0.1v0.1v0.8c0,2.9-0.9,5.1-2.8,6.6c-1.8,1.5-4.7,2.3-8.6,2.3
							c-1.6,0-3.1-0.1-4.5-0.3c-1.3-0.2-2.9-0.6-4.6-1.1v5c1.5,0.5,3,1,4.4,1.2c1.5,0.3,3.2,0.4,5.1,0.4c5.6,0,9.7-1.3,12.3-3.9
							c2.6-2.6,3.9-6.6,3.9-12.1V371H304L305.1,376.4z M302.2,384.5c-1.3,1-3.2,1.5-5.7,1.5s-4.4-0.5-5.7-1.5c-1.3-1-2-2.3-2-3.9
							s0.7-2.9,2-3.9s3.2-1.5,5.7-1.5s4.4,0.5,5.7,1.5c1.3,1,2,2.3,2,3.9C304.1,382.2,303.5,383.5,302.2,384.5z"/>
						<rect x="316.2" y="363.3" class="st1" width="6.1" height="28"/>
						<rect x="328.2" y="371.1" class="st1" width="6.1" height="20.3"/>
						<path class="st1" d="M363.5,381.6c-1.2-0.8-2.6-1.4-4.3-1.7c-1.7-0.3-3.8-0.4-6.4-0.5c-2.5-0.1-4.3-0.3-5.4-0.5
							c-1.2-0.2-1.8-0.8-1.8-1.7c0-0.8,0.6-1.5,1.7-1.9s2.8-0.6,4.9-0.6c4.2,0,6.4,1.1,6.6,3.2h6.2c-0.1-2.2-1.2-4-3.3-5.4
							c-2.1-1.4-5.3-2.1-9.6-2.1c-4.6,0-7.9,0.6-9.9,1.8c-2,1.2-3,2.7-3,4.6c0,1.6,0.6,2.9,1.7,3.7c1.2,0.8,2.6,1.4,4.2,1.6
							c1.6,0.3,3.8,0.4,6.3,0.5c1.7,0.1,3.1,0.2,4,0.3c1,0.1,1.8,0.3,2.4,0.6c0.7,0.3,1,0.8,1,1.5s-0.5,1.4-1.5,1.8
							s-2.8,0.7-5.3,0.7c-2.3,0-4-0.3-5.1-0.8c-1.2-0.6-1.8-1.4-1.8-2.5v-0.1h-6.2v0.2c0,2.3,1,4.1,3.1,5.5s5.4,2.1,10,2.1
							c4.3,0,7.7-0.5,9.8-1.6c2.1-1.1,3.2-2.7,3.2-4.8C365.2,383.7,364.6,382.5,363.5,381.6z"/>
						<path class="st1" d="M385.8,370.5c-2.6,0-4.7,0.6-6.4,1.7c-1.6,1.1-2.7,2.8-3.3,4.9v0.1H376h-0.7h-0.2v-0.1
							c0.3-1.3,0.6-2.6,0.7-3.7c0.2-1.1,0.2-2.3,0.2-3.6v-6.5h-6v28h6.1v-8.1c0-2.4,0.7-4.3,1.9-5.6c1.3-1.3,3.1-2,5.4-2
							s4.1,0.7,5.4,2s1.9,3.2,1.9,5.6v8.1h6.1v-9.5c0-3.5-1-6.3-3-8.3C391.9,371.5,389.2,370.5,385.8,370.5z"/>
					</g>
				</g>
			</g>
			<g>
				<g>
					<polygon class="st1" points="237.3,254.5 237.3,297.8 254.4,297.8 254.4,254.5 254.4,254.1 254.9,254.1 277.3,254.1 
						277.3,240.1 214.4,240.1 214.4,254.1 236.8,254.1 237.3,254.1 					"/>
					<path class="st1" d="M277.1,288.1c2.2,3.3,5.5,6,9.9,7.9c4.4,2,9.7,3,15.8,3c5.8,0,10.8-0.8,14.8-2.4s7.1-3.5,9.3-5.7
						c2-2,3.4-4.1,4.3-6.2h-14.5c-1.3,1.1-2.9,2-4.8,2.7c-2,0.7-5,1.1-8.8,1.1c-3.9,0-7.1-0.6-9.6-1.9s-4.2-3-5.2-5.3l-0.3-0.7h0.7
						h43.2c0.2-1.2,0.3-2.4,0.3-3.5c0-4.1-1.1-7.9-3.4-11.3c-2.2-3.3-5.6-6-9.9-8c-4.4-1.9-9.8-2.9-16-2.9s-11.6,1-16,2.9
						s-7.7,4.6-9.9,7.9c-2.2,3.3-3.3,7.1-3.3,11.1C273.8,281.1,274.9,284.8,277.1,288.1z M288.2,272.6c0.9-2.3,2.7-4.1,5.2-5.4
						s5.7-1.9,9.6-1.9c4,0,7.2,0.6,9.7,1.9s4.2,3.1,5.2,5.4l0.3,0.7h-0.7h-28.7h-0.7L288.2,272.6z"/>
					<path class="st1" d="M351,296c4.4,2,9.7,3,15.8,3c5.8,0,10.8-0.8,14.8-2.4s7.1-3.5,9.3-5.7c2-2,3.4-4.1,4.3-6.2h-14.5
						c-1.3,1.1-2.9,2-4.8,2.7c-2,0.7-5,1.1-8.8,1.1c-3.9,0-7.1-0.6-9.6-1.9s-4.2-3-5.2-5.3l-0.3-0.7h0.7H396
						c0.2-1.2,0.3-2.4,0.3-3.5c0-4.1-1.1-7.9-3.4-11.3c-2.2-3.3-5.6-6-9.9-8c-4.4-1.9-9.8-2.9-16-2.9s-11.6,1-16,2.9
						s-7.7,4.6-9.9,7.9c-2.2,3.3-3.3,7.1-3.3,11.1c0,4.1,1.1,7.8,3.3,11.1C343.3,291.4,346.6,294,351,296z M352.2,272.6
						c0.9-2.3,2.7-4.1,5.2-5.4s5.7-1.9,9.6-1.9c4,0,7.2,0.6,9.7,1.9s4.2,3.1,5.2,5.4l0.3,0.7h-0.7h-28.7H352L352.2,272.6z"/>
					<path class="st1" d="M445.3,256.5c-2.7-1-5.8-1.5-9.3-1.5c-5,0-8.8,1.1-11.6,3.3c-2.6,2.1-4.5,5.3-5.8,9.9l-0.1,0.3h-0.4h-1.6
						H416l0.1-0.6l2.2-11.9h-14.9v41.7h15v-16.5c0-4.4,1.2-7.8,3.5-10.2c2.5-2.6,5.1-3.6,9-3.6c4.4,0,6.6,1.4,8.8,3.6
						c2.3,2.4,3.5,5.8,3.5,10.2v16.5h15v-20.3c0-3.5-0.5-6.7-1.5-9.5c-1-2.7-2.5-5.1-4.4-7.1C450.3,259,448,257.5,445.3,256.5z"/>
					<path class="st1" d="M492.6,283.3c-3.8,0-6.8-1.1-9.1-3.4c-2.2-2.3-3.3-5.4-3.3-9.5v-14.3h-15v17.4c0,3.4,0.5,6.5,1.4,9.1
						c1,2.6,2.4,4.9,4.3,6.8s4.2,3.3,6.9,4.3c2.7,1,5.7,1.4,9.2,1.4c4.9,0,8.8-1,11.7-2.9c2.8-1.9,4.8-5,6-9.2l0.1-0.4h0.4h1.4h0.5
						v0.5v1.2c0,5.9-1.8,10.6-5.4,13.8c-3.6,3.2-9,4.9-16.2,4.9c-2.7,0-5.6-0.2-8.4-0.7c-2.6-0.4-5.6-1.2-8.9-2.3v12.2
						c2.9,1,5.8,1.9,8.7,2.4c3,0.6,6.2,0.9,9.7,0.9c5.7,0,10.7-0.7,14.9-2.1c4.2-1.4,7.7-3.5,10.4-6.3c2.7-2.8,4.8-6.4,6.1-10.7
						c1.4-4.3,2.1-9.5,2.1-15.4v-24.9h-15v14.3c0,4-1.1,7.2-3.3,9.5C499.5,282.2,496.4,283.3,492.6,283.3z"/>
				</g>
			</g>
		</g>
	</g>
	<g>
		<g>
			<g>
				<path class="st2" d="M194.4,294.1l-7.5,33.1c-0.8,4.4-1.2,8.9-1.2,13.4v0.8v0.5h-0.5h-1.5h-0.5v-0.5v-0.8
					c0-5.2-0.4-9.7-1.2-13.4l-5.9-23.5h-19.2l-5.9,23.5c-0.8,3.7-1.2,8.2-1.2,13.4v0.8v0.5h-0.5h-1.5h-0.5v-0.5v-0.8
					c0-4.5-0.4-9-1.2-13.4l-7.5-33.1H120l15.3,57.7h22.1l6-21.4c0.8-3,1.3-5.5,1.5-7.3c0.2-1.9,0.3-4.7,0.3-8.6v-0.3v-0.5h0.5h1.5
					h0.5v0.5v0.3c0,3.9,0.1,6.8,0.3,8.6c0.2,1.8,0.7,4.3,1.5,7.3l6,21.4h22.1l15.3-57.7H194.4z"/>
				<path class="st2" d="M240.7,352.9c5.8,0,10.8-0.8,14.8-2.4s7.1-3.5,9.3-5.7c2-2,3.4-4.1,4.3-6.2h-14.5c-1.3,1.1-2.9,2-4.8,2.7
					c-2,0.7-5,1.1-8.8,1.1c-3.9,0-7.1-0.6-9.6-1.9s-4.2-3-5.2-5.3l-0.3-0.7h0.7h43.2c0.2-1.2,0.3-2.4,0.3-3.5
					c0-4.1-1.1-7.9-3.4-11.3c-2.2-3.3-5.6-6-9.9-8c-4.4-1.9-9.8-2.9-16-2.9s-11.6,1-16,2.9s-7.7,4.6-9.9,7.9s-3.3,7.1-3.3,11.1
					c0,4.1,1.1,7.8,3.3,11.1c2.2,3.3,5.5,6,9.9,7.9C229.3,351.9,234.6,352.9,240.7,352.9z M226.1,326.6c0.9-2.3,2.7-4.1,5.2-5.4
					s5.7-1.9,9.6-1.9c4,0,7.2,0.6,9.7,1.9s4.2,3.1,5.2,5.4l0.3,0.7h-0.7h-28.7H226L226.1,326.6z"/>
				<path class="st2" d="M303.8,352.9c5.8,0,10.8-0.8,14.8-2.4s7.1-3.5,9.3-5.7c2-2,3.4-4.1,4.3-6.2h-14.5c-1.3,1.1-2.9,2-4.8,2.7
					c-2,0.7-5,1.1-8.8,1.1c-3.9,0-7.1-0.6-9.6-1.9s-4.2-3-5.2-5.3l-0.3-0.7h0.7h43.2c0.2-1.2,0.3-2.4,0.3-3.5
					c0-4.1-1.1-7.9-3.4-11.3c-2.2-3.3-5.6-6-9.9-8c-4.4-1.9-9.8-2.9-16-2.9s-11.6,1-16,2.9s-7.7,4.6-9.9,7.9
					c-2.2,3.3-3.3,7.1-3.3,11.1c0,4.1,1.1,7.8,3.3,11.1c2.2,3.3,5.5,6,9.9,7.9C292.3,351.9,297.6,352.9,303.8,352.9z M289.2,326.6
					c0.9-2.3,2.7-4.1,5.2-5.4s5.7-1.9,9.6-1.9c4,0,7.2,0.6,9.7,1.9s4.2,3.1,5.2,5.4l0.3,0.7h-0.7h-28.7h-0.7L289.2,326.6z"/>
				<path class="st2" d="M421.7,333.9c-2.2-2.3-3.3-5.4-3.3-9.5v-14.3h-15v17.4c0,3.4,0.5,6.5,1.4,9.1c1,2.6,2.4,4.9,4.3,6.8
					s4.2,3.3,6.9,4.3c2.7,1,5.7,1.4,9.2,1.4c4.9,0,8.8-1,11.7-2.9c2.8-1.9,4.8-5,6-9.2l0.1-0.4h0.4h1.4h0.5v0.5v1.2
					c0,5.9-1.8,10.6-5.4,13.8c-3.6,3.2-9,4.9-16.2,4.9c-2.7,0-5.6-0.2-8.4-0.7c-2.6-0.4-5.6-1.2-8.9-2.3v12.2c2.9,1,5.8,1.9,8.7,2.4
					c3,0.6,6.2,0.9,9.7,0.9c5.7,0,10.7-0.7,14.9-2.1c4.2-1.4,7.7-3.5,10.4-6.3c2.7-2.8,4.8-6.4,6.1-10.7c1.4-4.3,2.1-9.5,2.1-15.4
					v-24.9h-15v14.3c0,4-1.1,7.2-3.3,9.5c-2.2,2.3-5.3,3.4-9.1,3.4C427,337.3,423.9,336.2,421.7,333.9z"/>
				<path class="st2" d="M383.6,310.5c-2.7-1-5.8-1.5-9.3-1.5c-5.1,0-9.1,1.1-12.1,3.3c-2.9,2.2-5,5.4-6.2,9.9l-0.1,0.3h-0.4h-1.6
					h-0.6l0.1-0.6l2.2-11.9h-14.9v41.7h15v-16.5c0-4.4,1.2-7.8,3.5-10.2c2.4-2.5,5.4-3.6,9.5-3.6c4,0,6.8,1.1,9.3,3.6
					c2.3,2.4,3.5,5.8,3.5,10.2v16.5h15v-20.3c0-3.5-0.5-6.7-1.5-9.5c-1-2.7-2.5-5.1-4.4-7.1C388.6,313,386.3,311.5,383.6,310.5z"/>
			</g>
		</g>
	</g>
</g>
</svg>
