<?xml version="1.0" encoding="utf-8"?>
<!-- Generator: Adobe Illustrator 22.0.0, SVG Export Plug-In . SVG Version: 6.00 Build 0)  -->
<svg version="1.1" id="Layer_1" xmlns="http://www.w3.org/2000/svg" xmlns:xlink="http://www.w3.org/1999/xlink" x="0px" y="0px"
	 viewBox="0 0 3000 2000" style="enable-background:new 0 0 3000 2000;" xml:space="preserve">
<style type="text/css">
	.st0{fill:#DDB9FF;}
	.st1{fill:#FFFFFF;}
	.st2{fill:none;stroke:#FFFFFF;stroke-width:2;stroke-miterlimit:10;}
	.st3{fill:none;stroke:#FFFFFF;stroke-width:3;stroke-miterlimit:10;}
	.st4{fill:#221133;}
</style>
<rect class="st0" width="3000" height="2000"/>
<circle class="st1" cx="2200" cy="797" r="15"/>
<circle class="st1" cx="2061" cy="1061" r="15"/>
<circle class="st1" cx="1832.7" cy="1242" r="15"/>
<circle class="st1" cx="1832.7" cy="1780" r="15"/>
<circle class="st1" cx="2146" cy="1629" r="15"/>
<circle class="st1" cx="2248" cy="1715" r="15"/>
<circle class="st1" cx="2684" cy="1715" r="15"/>
<circle class="st1" cx="2637" cy="1954" r="15"/>
<circle class="st1" cx="2051" cy="1954" r="15"/>
<circle class="st1" cx="2757" cy="1853" r="15"/>
<circle class="st1" cx="2846" cy="1853" r="15"/>
<circle class="st1" cx="2146" cy="1360" r="15"/>
<circle class="st1" cx="2472" cy="1289" r="15"/>
<circle class="st1" cx="2823" cy="1351" r="15"/>
<line class="st2" x1="2200" y1="796" x2="2177" y2="924"/>
<rect x="1861" y="908" class="st2" width="30" height="30"/>
<rect x="2162" y="908" class="st2" width="30" height="30"/>
<rect x="2808" y="1045" class="st2" width="30" height="30"/>
<rect x="2808" y="1274" class="st2" width="30" height="30"/>
<rect x="2839" y="1689" class="st2" width="30" height="30"/>
<rect x="1752" y="1922" class="st2" width="30" height="30"/>
<rect x="1403" y="1922" class="st2" width="30" height="30"/>
<line class="st2" x1="1876" y1="921" x2="1907" y2="645"/>
<path class="st3" d="M-111,1937.3l745.6-1992h389.9l742.7,1992h-350L1229.3,1445H412.6l-185,492.3H-111z M503.7,1166.2h634.6
	L819.6,298.2L503.7,1166.2z"/>
<path class="st3" d="M3284,1669.8v267.5h-162.2c-199.2,0-267.5-88.2-267.5-233.4c-96.8,148-244.7,250.4-480.9,250.4
	c-318.7,0-540.7-156.5-540.7-426.9c0-298.8,216.3-466.7,623.2-466.7H2823v-88.2c0-162.2-116.7-261.8-318.7-261.8
	c-182.1,0-304.5,85.4-327.3,213.4h-301.6c31.3-284.6,276-461,643.1-461c387,0,609,185,609,529.3v583.4c0,74,31.3,93.9,93.9,93.9
	H3284z M2823,1288.5h-381.3c-190.7,0-296,71.1-296,219.1c0,122.4,102.4,207.7,270.3,207.7c256.1,0,404.1-150.8,406.9-375.6V1288.5z"
	/>
<g>
	<path class="st4" d="M891.5,45.3h2.7v9.5h11.4v-9.5h2.7v22h-2.7v-9.9h-11.4v9.9h-2.7V45.3z"/>
	<path class="st4" d="M927.2,64.9v2.4h-1.4c-2.1,0-2.9-0.9-2.9-2.5c-1,1.4-2.6,2.7-5.4,2.7c-3.5,0-5.9-1.8-5.9-4.7
		c0-3.2,2.2-5,6.4-5h4.7v-1.1c0-2.1-1.5-3.3-4-3.3c-2.3,0-3.8,1.1-4.1,2.7h-2.6c0.4-3.1,2.9-5,6.8-5c4.1,0,6.4,2,6.4,5.8v7
		c0,0.8,0.3,1.1,1,1.1H927.2z M922.7,60h-5c-2.3,0-3.6,0.8-3.6,2.7c0,1.6,1.4,2.6,3.5,2.6c3.2,0,5.1-1.9,5.1-4.5V60z"/>
	<path class="st4" d="M927,51.3h2.7l4.9,12.8l4.8-12.8h2.7L934.7,70c-1,2.6-1.6,3.6-3.9,3.6h-3.1v-2.4h2.3c1.5,0,1.7-0.4,2.3-1.9
		l0.8-1.9L927,51.3z"/>
	<path class="st4" d="M958.3,64.9v2.4h-1.4c-2.1,0-2.9-0.9-2.9-2.5c-1,1.4-2.6,2.7-5.4,2.7c-3.5,0-5.9-1.8-5.9-4.7
		c0-3.2,2.2-5,6.4-5h4.7v-1.1c0-2.1-1.5-3.3-4-3.3c-2.3,0-3.8,1.1-4.1,2.7h-2.6c0.4-3.1,2.9-5,6.8-5c4.1,0,6.4,2,6.4,5.8v7
		c0,0.8,0.3,1.1,1,1.1H958.3z M953.8,60h-5c-2.3,0-3.6,0.8-3.6,2.7c0,1.6,1.4,2.6,3.5,2.6c3.2,0,5.1-1.9,5.1-4.5V60z"/>
	<path class="st4" d="M961.4,53.6h-2.9v-2.4h2.9v-4.5h2.6v4.5h4.1v2.4H964v9.5c0,1.4,0.5,1.9,1.9,1.9h2.5v2.4h-2.8
		c-3.1,0-4.2-1.4-4.2-4.2V53.6z"/>
	<path class="st4" d="M981.2,60.1c0.2,3,2.5,4.9,5.9,4.9c3,0,5.1-1.4,5.1-3.7c0-2.7-2.7-3.3-6-3.9c-3.5-0.6-7.2-1.8-7.2-6
		c0-3.7,3-6.2,7.5-6.2c4.9,0,7.9,2.7,8.2,6.7h-2.8c-0.3-2.5-2.4-4.2-5.3-4.2c-2.9,0-4.8,1.3-4.8,3.6c0,2.6,2.7,3.2,6,3.7
		c3.6,0.6,7.3,1.8,7.3,6.1c0,3.8-3.2,6.5-7.8,6.5c-5.4,0-8.5-3-8.7-7.4H981.2z"/>
	<path class="st4" d="M1012.9,64.9v2.4h-1.4c-2.1,0-2.9-0.9-2.9-2.5c-1,1.4-2.6,2.7-5.4,2.7c-3.5,0-5.9-1.8-5.9-4.7
		c0-3.2,2.2-5,6.4-5h4.7v-1.1c0-2.1-1.5-3.3-4-3.3c-2.3,0-3.8,1.1-4.1,2.7h-2.6c0.4-3.1,2.9-5,6.8-5c4.1,0,6.4,2,6.4,5.8v7
		c0,0.8,0.3,1.1,1,1.1H1012.9z M1008.5,60h-5c-2.3,0-3.6,0.8-3.6,2.7c0,1.6,1.4,2.6,3.5,2.6c3.2,0,5.1-1.9,5.1-4.5V60z"/>
	<path class="st4" d="M1029.2,58.4v8.9h-2.6v-8.8c0-3.3-1.5-5.1-4.3-5.1c-3,0-4.8,2.2-4.8,5.8v8h-2.6v-16h2.2l0.3,2.2
		c0.9-1.2,2.6-2.4,5.3-2.4C1026.4,51.1,1029.2,53.1,1029.2,58.4z"/>
	<path class="st4" d="M1034.5,62c0.1,1.9,1.8,3.3,4.4,3.3c2.3,0,3.9-1,3.9-2.4c0-2-1.8-2.2-4.1-2.4c-3.6-0.4-6.4-1.2-6.4-4.5
		c0-2.9,2.7-4.8,6.3-4.8c3.6,0,6.3,1.7,6.5,5.1h-2.6c-0.2-1.6-1.7-2.9-3.9-2.9c-2.2,0-3.7,0.9-3.7,2.4c0,1.8,1.7,2,4,2.3
		c3.6,0.4,6.6,1.1,6.6,4.7c0,3-2.9,4.8-6.4,4.8c-4.1,0-7-1.9-7.1-5.5H1034.5z"/>
	<path class="st4" d="M1056.8,45.3h8.4c4.4,0,7.3,2.6,7.3,6.8c0,4.1-2.9,6.8-7.3,6.8h-5.7v8.4h-2.7V45.3z M1059.5,47.8v8.5h5.5
		c2.9,0,4.7-1.7,4.7-4.3s-1.8-4.2-4.7-4.2H1059.5z"/>
	<path class="st4" d="M1083.2,51.3v2.5h-1.3c-3.4,0-4.3,2.8-4.3,5.3v8.2h-2.6v-16h2.2l0.3,2.4c0.8-1.2,2-2.4,4.8-2.4H1083.2z"/>
	<path class="st4" d="M1083.9,59.3c0-4.9,3.3-8.2,7.9-8.2c4.7,0,7.9,3.3,7.9,8.2c0,4.9-3.3,8.2-7.9,8.2
		C1087.2,67.5,1083.9,64.1,1083.9,59.3z M1097.2,59.3c0-3.4-2.1-5.9-5.3-5.9s-5.3,2.5-5.3,5.9s2.1,5.9,5.3,5.9
		S1097.2,62.7,1097.2,59.3z"/>
</g>
<g>
	<path class="st4" d="M891.5,102.3v-22h16.7v22h-2.7V82.8h-11.2v19.5H891.5z"/>
	<path class="st4" d="M927.8,94.3c0,4.9-3.3,8.2-7.7,8.2c-2.7,0-4.5-1.1-5.5-2.6v8.7H912V86.3h2.2l0.3,2.6c1.1-1.5,2.8-2.8,5.5-2.8
		C924.5,86.1,927.8,89.1,927.8,94.3z M925.2,94.3c0-3.5-2.1-5.9-5.3-5.9c-3.1,0-5.3,2.4-5.3,5.8c0,3.5,2.1,6,5.3,6
		C923,100.2,925.2,97.8,925.2,94.3z"/>
	<path class="st4" d="M930.8,102.3v-16h2.5v12.1l9.5-12.1h2.3v16h-2.5V90.1l-9.5,12.2H930.8z"/>
	<path class="st4" d="M948.6,102.3v-16h3.2l6.2,12.9l6.1-12.9h3.1l0.1,16h-2.5V90.2l-5.7,12.1h-2.1l-5.7-12.1v12.1H948.6z"/>
	<path class="st4" d="M970.1,94.3c0-4.9,3.1-8.2,7.6-8.2c4.5,0,7.5,2.9,7.6,7.6c0,0.3,0,0.7-0.1,1.1h-12.4V95c0.1,3,2,5.2,5.1,5.2
		c2.3,0,4-1.2,4.6-3.3h2.6c-0.6,3.2-3.3,5.6-7,5.6C973.2,102.5,970.1,99.2,970.1,94.3z M982.5,92.6c-0.3-2.8-2.1-4.3-4.8-4.3
		c-2.4,0-4.5,1.7-4.8,4.3H982.5z"/>
	<path class="st4" d="M999.8,86.3h2.6v16h-2.6v-7h-9v7h-2.6v-16h2.6V93h9V86.3z"/>
	<path class="st4" d="M1018.6,86.3v16h-2.6v-5.5h-4.3l-3.9,5.5h-3l4.4-5.8c-2.6-0.6-4-2.3-4-4.9c0-3.3,2.3-5.3,6.3-5.3H1018.6z
		 M1016,94.6v-6.1h-4.4c-2.4,0-3.8,1-3.8,3c0,2.1,1.4,3.1,3.8,3.1H1016z"/>
	<path class="st4" d="M1021.5,94.3c0-4.9,3.1-8.2,7.6-8.2c4.5,0,7.5,2.9,7.6,7.6c0,0.3,0,0.7-0.1,1.1h-12.4V95c0.1,3,2,5.2,5.1,5.2
		c2.3,0,4-1.2,4.6-3.3h2.6c-0.6,3.2-3.3,5.6-7,5.6C1024.7,102.5,1021.5,99.2,1021.5,94.3z M1034,92.6c-0.3-2.8-2.1-4.3-4.8-4.3
		c-2.4,0-4.5,1.7-4.8,4.3H1034z"/>
	<path class="st4" d="M1043.1,102.3V88.6h-5.8v-2.4h14.1v2.4h-5.8v13.7H1043.1z"/>
	<path class="st4" d="M1052.1,94.3c0-4.9,3.2-8.2,7.8-8.2c3.9,0,6.4,2.2,7.1,5.7h-2.7c-0.5-2.1-2-3.4-4.4-3.4
		c-3.1,0-5.1,2.4-5.1,5.9c0,3.5,2.1,5.9,5.1,5.9c2.3,0,3.9-1.3,4.4-3.4h2.7c-0.6,3.5-3.2,5.7-7.1,5.7
		C1055.2,102.5,1052.1,99.3,1052.1,94.3z"/>
	<path class="st4" d="M1082.4,86.3v16h-2.6v-5.5h-4.3l-3.9,5.5h-3l4.4-5.8c-2.6-0.6-4-2.3-4-4.9c0-3.3,2.3-5.3,6.3-5.3H1082.4z
		 M1079.8,94.6v-6.1h-4.4c-2.4,0-3.8,1-3.8,3c0,2.1,1.4,3.1,3.8,3.1H1079.8z"/>
	<path class="st4" d="M1094.1,102.3v-16h6.8c4,0,5.9,1.5,5.9,4.3c0,2-1.3,3.1-2.6,3.4c1.9,0.3,3.2,1.4,3.2,3.6
		c0,3.1-2.2,4.6-6.4,4.6H1094.1z M1096.7,93.1h4.5c2.1,0,3-0.9,3-2.3c0-1.5-0.9-2.3-3-2.3h-4.5V93.1z M1096.7,100.1h4.7
		c2.2,0,3.4-0.8,3.4-2.4c0-1.6-1.2-2.4-3.4-2.4h-4.7V100.1z"/>
	<path class="st4" d="M1128.5,86.3h2.6v16h-2.6v-6.4c-1.2,0.8-2.9,1.2-4.5,1.2c-3.9,0-6.3-1.7-6.3-5.8v-5h2.6v4.6
		c0,2.9,1.4,3.9,4.2,3.9c1.5,0,2.9-0.4,4-1.3V86.3z"/>
	<path class="st4" d="M1134.1,94.3c0-4.9,3.1-8.2,7.6-8.2c4.5,0,7.5,2.9,7.6,7.6c0,0.3,0,0.7-0.1,1.1h-12.4V95c0.1,3,2,5.2,5.1,5.2
		c2.3,0,4-1.2,4.6-3.3h2.6c-0.6,3.2-3.3,5.6-7,5.6C1137.2,102.5,1134.1,99.2,1134.1,94.3z M1146.5,92.6c-0.3-2.8-2.1-4.3-4.8-4.3
		c-2.4,0-4.5,1.7-4.8,4.3H1146.5z"/>
	<path class="st4" d="M1155.6,102.3V88.6h-5.8v-2.4h14.1v2.4h-5.8v13.7H1155.6z"/>
	<path class="st4" d="M1166.1,102.3v-16h2.6v5.2h4.1c4,0,6.3,2,6.3,5.4c0,3.4-2.3,5.4-6.3,5.4H1166.1z M1168.7,100.1h3.7
		c2.6,0,4.1-1.2,4.1-3.2c0-2.1-1.4-3.2-4.1-3.2h-3.7V100.1z M1181.6,102.3v-16h2.6v16H1181.6z"/>
	<path class="st4" d="M1203.5,94.3c0,4.9-3.3,8.2-7.7,8.2c-2.7,0-4.5-1.1-5.5-2.6v8.7h-2.6V86.3h2.2l0.3,2.6
		c1.1-1.5,2.8-2.8,5.5-2.8C1200.2,86.1,1203.5,89.1,1203.5,94.3z M1200.9,94.3c0-3.5-2.1-5.9-5.3-5.9c-3.1,0-5.3,2.4-5.3,5.8
		c0,3.5,2.1,6,5.3,6C1198.7,100.2,1200.9,97.8,1200.9,94.3z"/>
	<path class="st4" d="M1205.9,94.3c0-4.9,3.1-8.2,7.6-8.2c4.5,0,7.5,2.9,7.6,7.6c0,0.3,0,0.7-0.1,1.1h-12.4V95c0.1,3,2,5.2,5.1,5.2
		c2.3,0,4-1.2,4.6-3.3h2.6c-0.6,3.2-3.3,5.6-7,5.6C1209,102.5,1205.9,99.2,1205.9,94.3z M1218.3,92.6c-0.3-2.8-2.1-4.3-4.8-4.3
		c-2.4,0-4.5,1.7-4.8,4.3H1218.3z"/>
	<path class="st4" d="M1227.8,94.1l-5.7-7.8h3.1l4.2,5.9l4.3-5.9h2.9l-5.7,7.8l6.1,8.2h-3.1l-4.7-6.4l-4.7,6.4h-2.9L1227.8,94.1z"/>
	<path class="st4" d="M1247.1,102.3v-16h6.8c4,0,5.9,1.5,5.9,4.3c0,2-1.3,3.1-2.6,3.4c1.9,0.3,3.2,1.4,3.2,3.6
		c0,3.1-2.2,4.6-6.4,4.6H1247.1z M1249.6,93.1h4.5c2.1,0,3-0.9,3-2.3c0-1.5-0.9-2.3-3-2.3h-4.5V93.1z M1249.6,100.1h4.7
		c2.2,0,3.4-0.8,3.4-2.4c0-1.6-1.2-2.4-3.4-2.4h-4.7V100.1z"/>
	<path class="st4" d="M1262.6,94.3c0-4.9,3.1-8.2,7.6-8.2c4.5,0,7.5,2.9,7.6,7.6c0,0.3,0,0.7-0.1,1.1h-12.4V95c0.1,3,2,5.2,5.1,5.2
		c2.3,0,4-1.2,4.6-3.3h2.6c-0.6,3.2-3.3,5.6-7,5.6C1265.8,102.5,1262.6,99.2,1262.6,94.3z M1275.1,92.6c-0.3-2.8-2.1-4.3-4.8-4.3
		c-2.4,0-4.5,1.7-4.8,4.3H1275.1z"/>
	<path class="st4" d="M1280.2,94.3c0-4.9,3.2-8.2,7.8-8.2c3.9,0,6.4,2.2,7.1,5.7h-2.7c-0.5-2.1-2-3.4-4.4-3.4
		c-3.1,0-5.1,2.4-5.1,5.9c0,3.5,2.1,5.9,5.1,5.9c2.3,0,3.9-1.3,4.4-3.4h2.7c-0.6,3.5-3.2,5.7-7.1,5.7
		C1283.3,102.5,1280.2,99.3,1280.2,94.3z"/>
	<path class="st4" d="M1312.9,99.9v2.4h-1.4c-2.1,0-2.9-0.9-2.9-2.5c-1,1.4-2.6,2.7-5.4,2.7c-3.5,0-5.9-1.8-5.9-4.7
		c0-3.2,2.2-5,6.4-5h4.7v-1.1c0-2.1-1.5-3.3-4-3.3c-2.3,0-3.8,1.1-4.1,2.7h-2.6c0.4-3.1,2.9-5,6.8-5c4.1,0,6.4,2,6.4,5.8v7
		c0,0.8,0.3,1.1,1,1.1H1312.9z M1308.5,95h-5c-2.3,0-3.6,0.8-3.6,2.7c0,1.6,1.4,2.6,3.5,2.6c3.2,0,5.1-1.9,5.1-4.5V95z"/>
	<path class="st4" d="M1319.7,94.1l-5.7-7.8h3.1l4.2,5.9l4.3-5.9h2.9l-5.7,7.8l6.1,8.2h-3.1l-4.7-6.4l-4.7,6.4h-2.9L1319.7,94.1z"/>
</g>
<line class="st2" x1="2150" y1="463.3" x2="2882" y2="463.3"/>
<circle class="st1" cx="2165" cy="463.3" r="15"/>
<circle class="st1" cx="1907" cy="645" r="15"/>
<circle class="st2" cx="2516" cy="463.3" r="16"/>
<circle class="st2" cx="2509" cy="711" r="16"/>
<circle class="st2" cx="2451" cy="1061" r="16"/>
<circle class="st2" cx="1833" cy="1532" r="16"/>
<circle class="st2" cx="2146" cy="1502" r="16"/>
<circle class="st2" cx="2427" cy="1715" r="16"/>
<circle class="st2" cx="2368" cy="1954" r="16"/>
<circle class="st1" cx="2867" cy="463.3" r="15"/>
<circle class="st1" cx="2725" cy="711" r="15"/>
<circle class="st1" cx="2823" cy="942" r="15"/>
<circle class="st1" cx="2317" cy="711" r="15"/>
<line class="st2" x1="2322" y1="711" x2="2714" y2="711"/>
<line class="st2" x1="2823" y1="942" x2="2823" y2="1060"/>
<line class="st2" x1="2060" y1="1061" x2="2435" y2="1061"/>
<line class="st2" x1="1832.7" y1="1242" x2="1832.7" y2="1780"/>
<line class="st2" x1="2146" y1="1360" x2="2146" y2="1632"/>
<line class="st2" x1="2248" y1="1715" x2="2684" y2="1715"/>
<line class="st2" x1="2758" y1="1852" x2="2854" y2="1704"/>
<line class="st2" x1="2846" y1="1854" x2="2854" y2="1704"/>
<line class="st2" x1="2055" y1="1954" x2="2628" y2="1954"/>
<rect x="1214" y="1431" class="st2" width="30" height="30"/>
<rect x="1123" y="1151" class="st2" width="30" height="30"/>
<rect x="398" y="1431" class="st2" width="30" height="30"/>
<polygon class="st2" points="510.5,1148.1 480.2,1168.3 521.6,1182.7 "/>
<rect x="805" y="283" class="st2" width="30" height="30"/>
<rect x="212" y="1922" class="st2" width="30" height="30"/>
<g>
	<path class="st4" d="M136.8,544.4h38.6v98.8h109.2v-98.8h38.6v235.1h-38.6V677.4H175.5v102.1h-38.6V544.4z"/>
	<path class="st4" d="M525.5,748v31.6h-19.1c-23.5,0-31.6-10.4-31.6-27.5c-11.4,17.5-28.9,29.6-56.8,29.6
		c-37.6,0-63.8-18.5-63.8-50.4c0-35.3,25.5-55.1,73.6-55.1h43.3v-10.4c0-19.1-13.8-30.9-37.6-30.9c-21.5,0-35.9,10.1-38.6,25.2
		h-35.6c3.7-33.6,32.6-54.4,75.9-54.4c45.7,0,71.9,21.8,71.9,62.5v68.9c0,8.7,3.7,11.1,11.1,11.1H525.5z M471.1,702.9h-45
		c-22.5,0-34.9,8.4-34.9,25.9c0,14.4,12.1,24.5,31.9,24.5c30.2,0,47.7-17.8,48-44.3V702.9z"/>
	<path class="st4" d="M519.5,607.5h38.6l48,130.7l46.7-130.7h38.6l-77.9,198.9c-10.7,27.9-18.1,40.3-43.3,40.3h-39v-31.9h25.5
		c14.1,0,17.5-3.4,22.8-17.5l6.7-16.8L519.5,607.5z"/>
	<path class="st4" d="M863.8,748v31.6h-19.1c-23.5,0-31.6-10.4-31.6-27.5c-11.4,17.5-28.9,29.6-56.8,29.6
		c-37.6,0-63.8-18.5-63.8-50.4c0-35.3,25.5-55.1,73.6-55.1h43.3v-10.4c0-19.1-13.8-30.9-37.6-30.9c-21.5,0-35.9,10.1-38.6,25.2
		h-35.6c3.7-33.6,32.6-54.4,75.9-54.4c45.7,0,71.9,21.8,71.9,62.5v68.9c0,8.7,3.7,11.1,11.1,11.1H863.8z M809.4,702.9h-45
		c-22.5,0-34.9,8.4-34.9,25.9c0,14.4,12.1,24.5,31.9,24.5c30.2,0,47.7-17.8,48-44.3V702.9z"/>
	<path class="st4" d="M894.3,639.5h-29.9v-31.9h29.9v-48H931v48h42v31.9h-42v89.7c0,13.4,4.7,18.5,18.5,18.5H975v31.9h-33.6
		c-32.9,0-47-15.5-47-46.7V639.5z"/>
	<path class="st4" d="M1114,702.9c2,27.5,23.5,46,56.4,46c27.9,0,48-12.4,48-34.9c0-24.9-24.5-30.2-61.8-37
		c-39-6.7-75.9-19.1-75.9-65.8c0-41,33.6-68.9,83.6-68.9c53.7,0,87.3,29.2,89,72.6h-38.6c-3-23.9-21.8-40-50.4-40
		c-26.5,0-45,11.4-45,33.6c0,24.2,24.2,29.2,61.1,35.6c39,7.1,76.9,19.5,76.6,65.8c0,42.3-35.3,71.6-87,71.6
		c-58.5,0-93.7-32.2-95.1-79.3L1114,702.9z"/>
	<path class="st4" d="M1450.3,748v31.6h-19.1c-23.5,0-31.6-10.4-31.6-27.5c-11.4,17.5-28.9,29.6-56.8,29.6
		c-37.6,0-63.8-18.5-63.8-50.4c0-35.3,25.5-55.1,73.6-55.1h43.3v-10.4c0-19.1-13.8-30.9-37.6-30.9c-21.5,0-35.9,10.1-38.6,25.2H1284
		c3.7-33.6,32.6-54.4,75.9-54.4c45.7,0,71.9,21.8,71.9,62.5v68.9c0,8.7,3.7,11.1,11.1,11.1H1450.3z M1395.9,702.9h-45
		c-22.5,0-34.9,8.4-34.9,25.9c0,14.4,12.1,24.5,31.9,24.5c30.2,0,47.7-17.8,48-44.3V702.9z"/>
	<path class="st4" d="M1628.3,683.8v95.7h-36.6v-92.7c0-32.6-13.8-50.1-41-50.1c-28.9,0-46,21.2-46,56.1v86.7h-36.3v-172h31.6
		l4,22.5c10.8-13.4,27.2-24.5,55.1-24.5C1597.1,605.5,1628.3,626.4,1628.3,683.8z"/>
	<path class="st4" d="M1687.8,722.8c1.3,17.8,16.8,30.6,43,30.6c22.5,0,37.3-8.7,37.3-22.5c0-18.5-15.8-19.8-42.3-23.2
		c-39.3-4.7-70.2-13.1-70.2-48.7c0-32.6,29.2-53.7,70.5-53.4c42.3,0,72.2,19.5,74.6,54.8H1765c-2-15.8-16.8-26.9-38.3-26.9
		s-35.6,8.7-35.6,22.5c0,16.1,16.5,18.1,41.3,20.8c39.3,4.7,71.2,12.8,71.2,51.1c0,32.9-31.2,53.7-72.9,53.7
		c-46,0-77.6-21.5-78.6-58.8H1687.8z"/>
	<path class="st4" d="M136.8,824.4h92.7c49,0,81.3,29.2,81.3,74.9c0,45.3-32.2,74.9-81.3,74.9h-54.1v85.3h-38.6V824.4z M175.5,858
		v82.6h50.7c27.5,0,45.3-16.1,45.3-41.3c0-25.5-17.5-41.3-45-41.3H175.5z"/>
	<path class="st4" d="M430.1,887.5v33.9H414c-32.2,0-42.7,25.2-42.7,51.7v86.3H335v-172h32.2l4,25.9c8.7-14.4,22.5-25.9,50.7-25.9
		H430.1z"/>
	<path class="st4" d="M436.5,973.5c0-52.4,35.3-88,87.7-88s87.7,35.6,87.7,88c0,52.7-35.3,88-87.7,88S436.5,1026.3,436.5,973.5z
		 M574.9,973.5c0-33.3-20.2-57.1-50.7-57.1s-50.4,23.9-50.4,57.1c0,33.3,19.8,57.1,50.4,57.1S574.9,1006.8,574.9,973.5z"/>
</g>
<g>
	<path class="st4" d="M848,1059.5V824.4h18.1v218.3h112.5v16.8H848z"/>
	<path class="st4" d="M1002.2,841.2c0-7.1,5.4-12.1,12.1-12.1c6.7,0,12.1,5,12.1,12.1c0,7.1-5.4,12.1-12.1,12.1
		C1007.5,853.3,1002.2,848.2,1002.2,841.2z M1005.5,889.2h17.1v170.3h-17.1V889.2z"/>
	<path class="st4" d="M1204.4,889.2h14.8v159.9c0,53.4-25.9,79.6-81,79.6c-41.3,0-70.5-19.5-75.9-55.8h17.8
		c5.4,25.9,27.5,40.3,59.5,40.3c41,0,62.5-19.5,62.5-64.8v-30.2c-10.7,26.5-33.3,43.3-65.2,43.3c-46.7,0-80.3-33.6-80.3-87.3
		c0-51.7,33.6-87,80.3-87c31.6,0,54.4,16.5,64.8,41.7L1204.4,889.2z M1202.4,974.5c0-42.7-26.2-72.2-64.2-72.2
		c-38,0-64.2,29.6-64.2,71.9s26.2,71.9,64.2,71.9C1176.2,1046.1,1202.4,1016.5,1202.4,974.5z"/>
	<path class="st4" d="M1405.3,964.1v95.4h-17.1v-94.7c0-40.3-20.2-61.8-52.7-61.8c-36.3,0-58.8,28.2-58.8,72.6v84h-17.1V824.4h17.1
		v105.1c9.7-24.5,29.6-42.3,61.5-42.3C1376.7,887.2,1405.3,910.4,1405.3,964.1z"/>
	<path class="st4" d="M1456.3,905h-32.2v-15.8h32.2v-47.7h17.1v47.7h46V905h-46v114.5c0,17.5,6.4,24.2,24.2,24.2h23.5v15.8h-24.9
		c-28.9,0-40-12.4-40-39.6V905z"/>
	<path class="st4" d="M1668.6,824.4h18.1l-41.7,235.1H1627L1668.6,824.4z"/>
	<path class="st4" d="M1729.8,905h-32.2l2.7-15.8h32.2l8.4-47.7h17.1l-8.4,47.7h45.3l-2.7,15.8h-45.3l-20.5,115.2
		c-0.7,3-1,5.7-1,8.4c0,11.1,6,15.1,19.8,15.1h24.5l-2.7,15.8h-24.5c-24.2,0-34.3-9.1-34.3-27.9c0-3.7,0.7-8.7,1.7-15.1L1729.8,905z
		"/>
	<path class="st4" d="M1947.4,1043.7l-2.7,15.8h-9.7c-16.8,0-24.2-7.7-24.2-19.5c0-1.7,0.3-4.4,0.7-8.4
		c-13.4,16.8-34.9,29.9-66.2,29.9c-33.3,0-55.8-17.1-55.8-44.3c0-39,31.9-55.1,75.2-55.1h58.1l2.7-13.4c0.3-3.7,1-8.4,1-12.4
		c0-21.5-16.5-33.9-44-33.9c-30.6,0-47.7,13.8-55.8,34.6h-17.5c9.7-31.2,34.9-49.7,75.2-49.7c35.6,0,59.5,17.1,59.5,48
		c0,5-0.7,10.4-1.7,16.1l-13.1,71.9c-0.7,4.4-1.3,7.1-1.3,9.7c0,6.7,3.7,10.8,12.4,10.8H1947.4z M1920.6,976.9h-58.8
		c-31.9,0-54.8,11.8-54.8,39c0,18.8,15.8,30.9,40,30.9c41,0,65.5-24.9,71.2-56.8L1920.6,976.9z"/>
	<path class="st4" d="M2009.2,824.4h17.1l-41.7,235.1h-17.1L2009.2,824.4z"/>
	<path class="st4" d="M2054.9,889.2h17.1l-30.2,170.3h-17.1L2054.9,889.2z M2059.6,842.5c0-7.7,6-13.4,13.1-13.4
		c6.4,0,11.1,4.7,11.1,10.7c0,8.1-6,13.4-13.1,13.4C2064.3,853.3,2059.6,848.6,2059.6,842.5z"/>
	<path class="st4" d="M2238,1004.4c-10.4,38-41.3,57.1-77.9,57.1c-42.3,0-70.5-30.6-70.5-71.9c0-57.8,37.3-102.5,93.4-102.5
		c39,0,63.5,22.5,64.5,56.8h-16.8c-1.7-26.2-21.5-41.7-49-41.7c-46,0-74.6,40.3-74.6,86.3c0,34.3,21.8,57.4,54.4,57.4
		c27.9,0,49.7-15.1,59.5-41.7H2238z"/>
	<path class="st4" d="M846.6,1104.4h90c47,0,78.3,28.2,78.3,72.2c0,32.9-19.8,58.5-50.1,66.8l52.7,96.1h-32.9l-49.7-90.4h-59.1v90.4
		h-29.2V1104.4z M875.9,1131.3v91h58.5c30.9,0,50.7-18.1,50.7-45.7c0-27.5-19.8-45.3-50.4-45.3H875.9z"/>
	<path class="st4" d="M1033.1,1253.9c0-52.1,32.9-87.7,81.3-87.7c48.4,0,79.9,30.6,81.3,81.3c0,3.7-0.3,7.7-0.7,11.8h-133v2.4
		c1,32.6,21.5,55.4,54.1,55.4c24.2,0,43-12.8,48.7-34.9h27.9c-6.7,34.3-34.9,59.5-74.6,59.5
		C1066.7,1341.5,1033.1,1306.3,1033.1,1253.9z M1166.1,1236.4c-2.7-29.6-22.8-46-51.4-46c-25.2,0-48.4,18.1-51.1,46H1166.1z"/>
	<path class="st4" d="M1366,1168.2h23.9v162.9c0,49.4-26.2,77.6-85,77.6c-43.7,0-74.2-20.5-78.6-58.1h28.2
		c4.7,21.5,23.9,33.6,52.4,33.6c35.9,0,55.4-16.8,55.4-54.1V1310c-11.4,19.5-29.9,31.6-58.8,31.6c-47.4,0-82.3-31.9-82.3-87.7
		c0-52.4,34.9-87.7,82.3-87.7c28.9,0,48,12.4,58.8,31.6L1366,1168.2z M1362.6,1254.5c0-37.6-22.8-63.8-56.4-63.8
		c-33.9,0-56.8,25.9-56.8,63.2s22.8,63.2,56.8,63.2C1339.8,1317,1362.6,1291.2,1362.6,1254.5z"/>
	<path class="st4" d="M1547.4,1168.2h27.5v171.3h-23.9l-3.7-22.8c-10.1,12.8-26.5,24.9-54.8,24.9c-37.6,0-67.5-21.2-67.5-77.9v-95.4
		h27.5v93.7c0,35.6,16.1,54.4,44.7,54.4c31.2,0,50.1-23.9,50.1-62.5V1168.2z"/>
	<path class="st4" d="M1612.5,1104.4h27.5v235.1h-27.5V1104.4z"/>
	<path class="st4" d="M1837.9,1314.3v25.2h-15.1c-22.8,0-30.6-9.7-30.9-26.5c-10.8,15.5-27.9,28.6-57.4,28.6
		c-37.6,0-63.2-18.8-63.2-50.1c0-34.3,23.9-53.4,68.9-53.4h50.4v-11.8c0-22.2-15.8-35.6-42.7-35.6c-24.2,0-40.3,11.4-43.7,28.9
		h-27.5c4-33.6,31.2-53.4,72.6-53.4c43.7,0,68.9,21.8,68.9,61.8v74.9c0,9.1,3.4,11.4,11.1,11.4H1837.9z M1790.6,1261.3h-53.1
		c-24.5,0-38.3,9.1-38.3,28.6c0,16.8,14.4,28.2,37.3,28.2c34.3,0,54.1-19.8,54.1-48.4V1261.3z"/>
	<path class="st4" d="M1946.1,1168.2v26.9h-13.8c-35.9,0-45.7,29.9-45.7,57.1v87.3h-27.5v-171.3h23.9l3.7,25.9
		c8.1-13.1,21.2-25.9,51.7-25.9H1946.1z"/>
	<path class="st4" d="M2090.9,1104.4h29.2l-41.7,235.1h-29.2L2090.9,1104.4z"/>
	<path class="st4" d="M2159.1,1193.4h-30.9l4.4-25.2h30.9l8.4-48h27.5l-8.4,48h43.3l-4.4,25.2h-43.3l-18.1,102.1
		c-0.3,2.7-0.7,5-0.7,7.1c0,8.7,4.4,11.8,15.5,11.8h28.9l-4.4,25.2h-28.9c-27.5,0-39-10.8-39-31.9c0-4,1-10.1,2.4-18.5
		L2159.1,1193.4z"/>
	<path class="st4" d="M2392.2,1314.3l-4.4,25.2h-14.1c-17.8,0-26.9-8.1-27.9-18.5c-13.1,10.7-30.9,20.5-57.1,20.5
		c-34.6,0-58.8-16.5-58.8-46.4c0-40.3,32.2-57.1,77.3-57.1h51.1l1.7-9.1c0.3-2.7,1-7.7,1-11.1c0-17.1-14.4-27.2-37.3-27.2
		c-27.9,0-41,11.4-47.4,28.9h-28.2c10.1-34.6,34.9-53.4,78.6-53.4c35.6,0,62.1,17.1,62.1,50.1c0,5.4-0.7,11.1-1.7,17.1l-12.4,66.5
		c-0.7,3.4-1,5-1,7.1c0,4.4,2.4,7.4,9.4,7.4H2392.2z M2352.9,1268.6l1.3-7.4h-52.1c-26.2,0-44,9.7-44,31.6
		c0,16.8,13.4,25.2,33.3,25.2C2326.7,1318,2347.9,1297.2,2352.9,1268.6z"/>
	<path class="st4" d="M2450.6,1104.4h27.5l-41.7,235.1H2409L2450.6,1104.4z"/>
	<path class="st4" d="M2504.1,1168.2h27.5l-30.2,171.3h-27.5L2504.1,1168.2z M2508.1,1123.2c0-11.4,9.1-19.5,19.1-19.5
		c9.7,0,16.5,6.7,16.5,16.1c0,11.4-8.7,19.5-18.8,19.5C2515.1,1139.3,2508.1,1132.6,2508.1,1123.2z"/>
	<path class="st4" d="M2701.9,1280.4c-9.4,41.7-42,61.1-80.3,61.1c-44.3,0-74.2-32.2-74.2-74.6c0-58.5,35.9-100.8,93.7-100.8
		c42,0,66.8,24.5,67.9,60.5h-26.9c-2.4-22.8-19.8-35.9-43.3-35.9c-41.3,0-63.5,34.6-63.5,74.6c0,31.2,19.8,51.7,49,51.7
		c23.2,0,42-12.4,49.7-36.6H2701.9z"/>
	<path class="st4" d="M845.3,1384.4h50.1l75.2,185.1l73.9-185.1h49v235.1h-37.3v-173l-70.5,173h-32.6l-70.5-173v173h-37.3V1384.4z"
		/>
	<path class="st4" d="M1126.4,1533.9c0-53.1,33.9-88.3,84.7-88.3c49.7,0,83,31.6,84,82c0,4.4-0.3,9.1-1,13.8h-129.7v2.4
		c1,29.2,19.5,48.4,48,48.4c22.2,0,38.3-11.1,43.3-30.2h36.3c-6,33.9-34.9,59.8-77.6,59.8
		C1160.4,1621.5,1126.4,1586.6,1126.4,1533.9z M1257.5,1514.7c-3-25.5-20.8-40-46-40c-23.2,0-43,15.5-45.7,40H1257.5z"/>
	<path class="st4" d="M1455,1384.4h36.3v235.1h-31.6l-4.4-25.9c-11.1,15.1-28.9,27.9-56.1,27.9c-46.7,0-81.3-32.9-81.3-88
		c0-53.1,34.6-88,81.3-88c26.2,0,44.7,10.8,55.8,25.9V1384.4z M1455.3,1534.2c0-34.3-19.8-57.8-50.1-57.8s-50.1,23.5-50.1,57.1
		c0,33.9,19.8,57.4,50.1,57.4S1455.3,1567.4,1455.3,1534.2z"/>
	<path class="st4" d="M1523.2,1401.5c0-12.8,9.7-21.8,22.2-21.8c12.4,0,22.2,9.1,22.2,21.8c0,12.8-9.7,21.8-22.2,21.8
		C1532.9,1423.3,1523.2,1414.3,1523.2,1401.5z M1526.9,1447.5h36.3v172h-36.3V1447.5z"/>
	<path class="st4" d="M1716.7,1447.5h36.3v172H1721l-4-21.8c-10.8,13.1-26.5,23.9-53.1,23.9c-36.6,0-67.9-19.5-67.9-78.3v-95.7h36.3
		v91.7c0,33.6,13.4,50.7,40,50.7c27.5,0,44.3-20.8,44.3-56.4V1447.5z"/>
	<path class="st4" d="M2050.9,1520.4v99.1h-36.3v-96.7c0-30.2-12.4-46-35.9-46c-24.9,0-40.6,18.8-40.6,49.7v93.1h-36.6v-96.7
		c0-30.2-12.4-46-36.3-46c-24.9,0-40.3,20.2-40.3,50.7v92h-36.3v-172h31.6l4,22.5c9.7-12.8,24.5-24.2,50.4-24.5
		c22.5,0,42.7,9.1,53.1,31.2c11.1-18.8,30.6-31.2,58.8-31.2C2022,1445.5,2050.9,1466,2050.9,1520.4z"/>
	<path class="st4" d="M2204.4,1384.4h38.6l-41.3,235.1h-38.6L2204.4,1384.4z"/>
	<path class="st4" d="M2278.3,1479.4h-29.9l5.4-31.9h29.9l8.7-48h36.3l-8.4,48h41.3l-5.4,31.9h-41.7l-16.1,90.4
		c-0.3,2.4-0.7,5-0.7,7.1c0,7.7,4,10.7,14.4,10.7h27.2l-5.4,31.9h-31.6c-28.6,0-42-11.8-42-34.6c0-4,1-9.4,2-16.8L2278.3,1479.4z"/>
	<path class="st4" d="M2523.9,1587.9l-5.4,31.6h-18.1c-19.1,0-28.2-8.7-28.6-20.5c-13.4,13.4-30.6,22.5-56.1,22.5
		c-33.9,0-59.5-16.1-59.5-47c0-40.6,31.9-58.5,78.9-58.5h47l1.3-8.1c0.3-2.7,1-6.7,1-9.7c0-15.1-13.1-23.5-32.9-23.5
		c-25.9,0-36.3,10.4-42,25.2H2373c10.1-35.9,36.3-54.4,81.6-54.4c37.6,0,65.8,16.8,65.8,51.7c0,5.4-0.7,11.1-1.7,17.1l-10.7,58.8
		c-0.7,3.4-1,5.4-1,7.1c0,4.7,2.4,7.7,8.7,7.7H2523.9z M2476.5,1548.3l1-5.4h-44.7c-24.5,0-39.6,8.7-39.6,28.2
		c0,14.4,11.8,22.2,28.6,22.2C2453.3,1593.3,2471.8,1573.8,2476.5,1548.3z"/>
	<path class="st4" d="M2580,1384.4h36.3l-41.7,235.1h-36.3L2580,1384.4z"/>
	<path class="st4" d="M2640.1,1447.5h36.6l-30.2,172h-36.6L2640.1,1447.5z M2644.5,1403.5c0-13.8,10.8-23.9,23.5-23.9
		c12.1,0,20.5,8.4,20.5,19.8c0,13.8-10.7,23.9-23.5,23.9C2652.9,1423.3,2644.5,1414.9,2644.5,1403.5z"/>
	<path class="st4" d="M2851.4,1557.7c-10.4,42.7-42,63.8-84.3,63.8c-46.4,0-76.9-32.6-76.9-75.6c0-59.5,36.6-100.4,95.4-100.4
		c44,0,71.6,26.2,71.9,63.2h-35.9c-2-20.2-17.1-32.2-38.3-32.2c-36.3,0-56.4,32.2-56.4,67.9c0,27.9,17.1,46.4,43,46.4
		c21.2,0,37.3-11.8,44.3-32.9H2851.4z"/>
	<path class="st4" d="M843.9,1656h89.4c54.4,0,86,22.8,86,62.1c0,29.6-17.5,46.4-44.3,52.1c31.2,4,52.7,20.5,52.7,54.1
		c0,41-32.2,66.8-90,66.8h-93.7V1656z M894.3,1695.6v57.1h40.3c21.5,0,34.3-11.1,34.3-28.6s-12.4-28.6-34.3-28.6H894.3z
		 M894.3,1791.7v59.5H938c24.2,0,38-11.1,38-29.2c0-19.1-14.1-30.2-38-30.2H894.3z"/>
	<path class="st4" d="M1047.5,1804.8c0-53.1,35.9-88.3,91-88.3c55.1,0,91,35.3,91,88.3c0,53.4-35.9,88.3-91,88.3
		C1083.5,1893.1,1047.5,1857.9,1047.5,1804.8z M1181.5,1804.8c0-29.2-16.5-49.7-43-49.7c-26.5,0-42.7,20.5-42.7,49.7
		s16.1,49.7,42.7,49.7C1165.1,1854.5,1181.5,1834,1181.5,1804.8z"/>
	<path class="st4" d="M1255.8,1656h47.4v235.1h-47.4V1656z"/>
	<path class="st4" d="M1461.4,1656h47.4v235.1h-41.3l-4.7-23.9c-11.4,14.8-28.2,25.9-53.1,25.9c-46.4,0-80.3-33.9-80.3-88.7
		c0-53.4,33.9-88,79.9-88c23.9,0,41,9.4,52.1,23.5V1656z M1462,1805.1c0-29.6-16.1-50.1-42-50.1c-25.9,0-42.3,20.2-42.3,49.7
		s16.5,49.7,42.3,49.7C1445.9,1854.5,1462,1834.3,1462,1805.1z"/>
	<path class="st4" d="M1662.2,1656h50.4l-41.7,235.1h-50.4L1662.2,1656z"/>
	<path class="st4" d="M1743.2,1758.4h-28.6l7.1-40h28.6l8.4-48.4h47.4l-8.4,48.4h39.3l-7.1,40h-39.3l-13.4,75.9
		c-0.3,2-0.7,5-0.7,6.7c0,6.7,3.4,10.1,13.1,10.1h25.2l-7.1,40h-34.9c-29.6,0-45.3-12.8-45.3-38c0-4,0.7-8.7,1.7-14.8L1743.2,1758.4
		z"/>
	<path class="st4" d="M2004.2,1851.1l-7.1,40h-22.8c-20.2,0-28.9-9.7-28.9-22.2v-0.3c-13.8,16.1-29.9,24.5-55.4,24.5
		c-32.6,0-59.8-15.8-59.8-48c0-41.3,30.9-60.1,81-60.1h41.7l1-6.4c0.7-2.7,1-6,1-8.4c0-12.4-11.4-19.1-27.5-19.1
		c-23.2,0-30.6,9.1-34.6,21.2h-47.4c9.7-37.6,38-55.8,85.3-55.8c40.3,0,70.2,16.5,70.2,53.7c0,5.4-0.7,11.1-1.7,17.1l-8.7,49.4
		c-0.7,3-1,5.7-1,7.1c0,4.7,2.4,7.4,8.1,7.4H2004.2z M1946.8,1819.2l0.3-2.7h-34.9c-22.5,0-33.9,7.4-33.9,23.9
		c0,11.8,9.7,18.5,22.5,18.5C1927.3,1858.9,1942.7,1841.1,1946.8,1819.2z"/>
	<path class="st4" d="M2057,1656h47.4l-42,235.1h-46.7L2057,1656z"/>
	<path class="st4" d="M2125.8,1718.4h47.7l-30.6,172.7h-47.4L2125.8,1718.4z M2130.2,1675.5c0-16.5,13.1-28.9,29.2-28.9
		c15.1,0,25.5,10.1,25.5,24.5c0,16.5-13.1,28.9-29.2,28.9C2140.6,1700,2130.2,1689.9,2130.2,1675.5z"/>
	<path class="st4" d="M2353.6,1825.6c-11.8,44.7-42,67.5-89.4,67.5c-48.7,0-80.3-32.9-80.3-76.6c0-60.8,37.6-100.1,97.4-100.1
		c46.7,0,77.6,27.9,77.3,66.5h-47.7c-1.7-16.8-13.8-27.9-31.6-27.9c-30.2,0-47.7,29.6-47.7,59.1c0,24.2,13.8,40.3,35.6,40.3
		c18.1,0,30.9-11.1,37.3-28.9H2353.6z"/>
</g>
</svg>
