<?xml version="1.0" encoding="utf-8"?>
<!-- Generator: Adobe Illustrator 22.0.0, SVG Export Plug-In . SVG Version: 6.00 Build 0)  -->
<svg version="1.1" id="Layer_3" xmlns="http://www.w3.org/2000/svg" xmlns:xlink="http://www.w3.org/1999/xlink" x="0px" y="0px"
	 viewBox="0 0 2000 1305" style="enable-background:new 0 0 2000 1305;" xml:space="preserve">
<style type="text/css">
	.st0{opacity:0;fill:#FFFFFF;}
	.st1{fill:#2BC8B9;}
	.st2{fill:#5A656C;}
</style>
<rect class="st0" width="2000" height="1305"/>
<g>
	<path class="st1" d="M155.3,360.1h-9.7l-8-19.7h-47l-8.2,19.7h-9.5l35.3-85.2h11.9L155.3,360.1z M113.9,283.6l-20.1,48.8h40.4
		l-20-48.8H113.9z"/>
	<path class="st1" d="M175.1,356.4c-4.6-3.3-6.9-7.9-6.9-13.8c0-3.8,1.2-7.1,3.5-10c2.3-2.8,5.5-5,9.5-6.6c4-1.5,8.5-2.3,13.6-2.3
		c4.3,0,8.6,0.5,12.8,1.6c4.2,1.1,7.7,2.5,10.4,4.2v-8.9c0-5-1.7-8.8-5.2-11.3c-3.5-2.5-8.2-3.8-14.2-3.8c-5.8,0-10.5,1.1-14.1,3.2
		c-3.5,2.2-5.3,4.9-5.3,8.1h-8.6c0-3.6,1.1-6.8,3.4-9.6c2.3-2.8,5.5-5.1,9.7-6.8c4.2-1.7,9.2-2.5,15-2.5c8.4,0,15.2,1.9,20.2,5.8
		c5,3.9,7.5,9.5,7.5,16.9v25.9c0,3.9,1.7,5.8,5.1,5.8c1.7,0,3-0.3,3.8-0.9v7.2c-1.8,0.8-3.8,1.2-6,1.2c-5.5,0-9-2.3-10.4-6.9h-0.5
		c-2.7,2.4-6.3,4.4-10.8,5.9c-4.5,1.5-9.3,2.3-14.3,2.3C185.7,361.3,179.6,359.7,175.1,356.4z M207.9,351.7c4.1-1.4,7.5-3.3,10-5.7
		v-9.5c-2.4-1.5-5.6-2.8-9.5-3.7c-3.9-0.9-7.9-1.4-11.9-1.4c-5.8,0-10.5,1-14.1,2.9c-3.7,1.9-5.5,4.7-5.5,8.3c0,3.8,1.7,6.6,5,8.5
		c3.3,1.8,7.7,2.7,13,2.7C199.4,353.7,203.7,353.1,207.9,351.7z"/>
	<path class="st1" d="M288.8,308.3c10.6,0,18.7,2.2,24.2,6.6c5.5,4.4,8.2,10.8,8.2,19.4c0,8.4-2.7,14.9-8.2,19.2
		c-5.5,4.4-13.5,6.6-24.2,6.6h-35.4v-85.2h59.5v8.4h-50.4v25.1H288.8z M288.9,351.7c15.2,0,22.8-5.8,22.8-17.4
		c0-11.7-7.6-17.5-22.8-17.5h-26.4v34.9H288.9z"/>
	<path class="st1" d="M388,307.2c4.4,2.4,7.8,5.8,10.2,10.2c2.4,4.4,3.7,9.4,3.7,15c0,5.8-1.3,10.9-3.9,15.3
		c-2.6,4.5-6.3,7.9-11,10.4c-4.7,2.4-10.1,3.7-16.3,3.7c-10.5,0-18.4-3.1-23.7-9.3c-5.3-6.2-8-15.3-8-27.3c0-8.9,1-16.3,3.1-22
		c2.1-5.7,5.4-10.1,9.9-13.3c4.5-3.1,10.5-5.2,18-6.1c6.8-0.8,11.7-1.9,14.6-3.2c2.9-1.3,4.4-3.2,4.4-5.5h8.8
		c0,4.9-2.1,8.6-6.2,11.2c-4.1,2.6-11.2,4.4-21.1,5.5c-7.4,0.9-12.9,3.3-16.4,7.1c-3.6,3.9-5.7,9.6-6.3,17.1c2.5-3.8,6-6.8,10.4-8.9
		c4.4-2.2,9.3-3.2,14.7-3.2C378.5,303.6,383.6,304.8,388,307.2z M387,348.3c4.1-3.9,6.1-9.1,6.1-15.7c0-6.4-2-11.6-6-15.5
		c-4-3.9-9.4-5.8-16.2-5.8c-6.7,0-12.2,1.9-16.4,5.8c-4.2,3.9-6.3,9.1-6.3,15.5c0,6.6,2,11.8,6,15.7s9.5,5.8,16.4,5.8
		C377.5,354.1,383,352.2,387,348.3z"/>
	<path class="st1" d="M473.9,314.9c5,1.5,9,4.2,11.8,7.9c2.8,3.7,4.2,8.1,4.2,13.2c0,7.9-2.6,13.9-7.9,18
		c-5.2,4.1-12.8,6.1-22.8,6.1H422v-85.2h36.8c8.7,0,15.4,1.8,20,5.5c4.7,3.7,7,9,7,15.8c0,4.3-1,8-3,11.1c-2,3.1-5,5.5-8.9,7.2
		V314.9z M431.1,283.2v28.4h28c5.4,0,9.7-1.3,12.7-3.8c3-2.5,4.5-6,4.5-10.6c0-4.6-1.5-8.1-4.4-10.5c-3-2.4-7.3-3.5-13.1-3.5H431.1z
		 M459.3,351.7c6.9,0,12.1-1.3,15.7-4c3.6-2.7,5.4-6.7,5.4-11.9c0-5.2-1.7-9.2-5.1-12c-3.4-2.8-8.3-4.2-14.6-4.2h-29.5v32.1H459.3z"
		/>
	<path class="st1" d="M554.8,328.7c3.7,0.8,6.5,2.5,8.6,5.1c2.1,2.6,3.1,5.7,3.1,9.4c0,5.6-1.9,9.8-5.8,12.7
		c-3.9,2.8-9.6,4.3-17.2,4.3h-32.9v-60.4h32.9c6.3,0,11,1.3,14.4,4c3.3,2.7,5,6.5,5,11.4c0,2.9-0.7,5.5-2.1,7.8
		c-1.4,2.3-3.4,4-5.9,5.2V328.7z M518.9,307.2v18.4h23.5c3.8,0,6.7-0.8,8.7-2.4c2-1.6,3-3.9,3-6.9c0-6-3.9-9-11.7-9H518.9z
		 M544.7,352.5c4.2,0,7.4-0.8,9.7-2.4c2.2-1.6,3.3-4.1,3.3-7.4c0-6.6-4.3-9.9-13-9.9h-25.8v19.7H544.7z"/>
	<path class="st1" d="M596.9,360.1h-9.1v-85.2h59.8v8.4h-50.7V360.1z"/>
	<path class="st1" d="M648.8,360.1h-8.3v-60.4h46.4v7.5h-38.1V360.1z"/>
	<path class="st1" d="M768,351.7h13.2v29.1H772v-20.7h-71.8v20.7H691v-29.1h2.4c7.4,0,11.5-5.6,12.3-16.9l4.3-59.9h58V351.7z
		 M708.2,351.7h50.7v-68.4h-40.4l-3.8,52.2c-0.6,7.3-2.7,12.6-6.5,15.8V351.7z"/>
	<path class="st1" d="M855.8,352.5h9.7v24h-8.4v-16.4h-53v16.4h-8.3v-24h1.6c5.4,0,8.4-3.9,8.9-11.7l2.6-41.2h46.9V352.5z
		 M809.8,352.5h37.6v-45.3h-30.7l-1.9,31.7c-0.2,3.4-0.8,6.3-1.7,8.5c-0.9,2.3-2,3.9-3.3,4.7V352.5z"/>
	<path class="st1" d="M946.2,274.8v8.4h-53.1v29.2h46.4v7.9h-46.4v31.3h53.1v8.4H884v-85.2H946.2z"/>
	<path class="st1" d="M1023.7,332.9h-54.4c0.6,6.4,3,11.5,7.2,15.4c4.1,3.9,9.5,5.8,16,5.8c10.6,0,17.5-3.8,20.6-11.4h9.3
		c-1.8,6.2-5.2,10.9-10.3,14.1c-5.1,3.2-11.6,4.9-19.5,4.9c-6.3,0-11.9-1.3-16.7-4c-4.8-2.7-8.6-6.4-11.3-11.2
		c-2.7-4.8-4-10.3-4-16.6c0-6.2,1.4-11.7,4.1-16.5c2.8-4.8,6.6-8.6,11.4-11.3c4.9-2.7,10.4-4.1,16.6-4.1c6.1,0,11.5,1.3,16.3,4
		c4.7,2.7,8.5,6.4,11.1,11.1c2.7,4.7,4,10,4,16C1023.9,330.6,1023.8,331.9,1023.7,332.9z M977,311.1c-4.2,3.7-6.7,8.6-7.6,14.6h45.8
		c-0.4-6-2.7-10.9-6.9-14.6c-4.2-3.7-9.5-5.6-15.7-5.6C986.3,305.5,981.1,307.4,977,311.1z"/>
	<path class="st1" d="M1107,274.8v8.4h-53.1v29.2h46.4v7.9h-46.4v31.3h53.1v8.4h-62.2v-85.2H1107z M1059.2,261.1
		c-1-1-1.5-2.3-1.5-3.8c0-1.5,0.5-2.8,1.5-3.9c1-1.1,2.3-1.6,3.8-1.6c1.5,0,2.8,0.5,3.9,1.6c1.1,1.1,1.6,2.4,1.6,3.9
		c0,1.5-0.5,2.8-1.6,3.8c-1.1,1-2.4,1.5-3.9,1.5C1061.5,262.7,1060.2,262.2,1059.2,261.1z M1086.1,261.1c-1-1-1.5-2.3-1.5-3.8
		c0-1.5,0.5-2.8,1.5-3.9c1-1.1,2.3-1.6,3.8-1.6c1.5,0,2.8,0.5,3.9,1.6c1.1,1.1,1.6,2.4,1.6,3.9c0,1.5-0.5,2.8-1.6,3.8
		c-1.1,1-2.4,1.5-3.9,1.5C1088.4,262.7,1087.1,262.2,1086.1,261.1z"/>
	<path class="st1" d="M1184.4,332.9H1130c0.6,6.4,3,11.5,7.2,15.4c4.1,3.9,9.5,5.8,16,5.8c10.6,0,17.5-3.8,20.6-11.4h9.3
		c-1.8,6.2-5.2,10.9-10.3,14.1c-5.1,3.2-11.6,4.9-19.5,4.9c-6.3,0-11.9-1.3-16.7-4c-4.8-2.7-8.6-6.4-11.3-11.2
		c-2.7-4.8-4-10.3-4-16.6c0-6.2,1.4-11.7,4.1-16.5c2.8-4.8,6.6-8.6,11.4-11.3c4.9-2.7,10.4-4.1,16.6-4.1c6.1,0,11.5,1.3,16.3,4
		c4.7,2.7,8.5,6.4,11.1,11.1c2.7,4.7,4,10,4,16C1184.6,330.6,1184.6,331.9,1184.4,332.9z M1137.7,311.1c-4.2,3.7-6.7,8.6-7.6,14.6
		h45.8c-0.4-6-2.7-10.9-6.9-14.6c-4.2-3.7-9.5-5.6-15.7-5.6C1147.1,305.5,1141.9,307.4,1137.7,311.1z M1135.9,285.7
		c-1-1-1.5-2.2-1.5-3.8c0-1.5,0.5-2.8,1.5-3.9c1-1.1,2.3-1.6,3.8-1.6c1.5,0,2.8,0.5,3.9,1.6c1.1,1.1,1.6,2.4,1.6,3.9
		c0,1.5-0.5,2.8-1.6,3.8c-1.1,1-2.4,1.5-3.9,1.5C1138.2,287.1,1136.9,286.7,1135.9,285.7z M1162.8,285.7c-1-1-1.5-2.2-1.5-3.8
		c0-1.5,0.5-2.8,1.5-3.9c1-1.1,2.3-1.6,3.8-1.6c1.5,0,2.8,0.5,3.9,1.6c1.1,1.1,1.6,2.4,1.6,3.9c0,1.5-0.5,2.8-1.6,3.8
		c-1.1,1-2.4,1.5-3.9,1.5C1165.1,287.1,1163.8,286.7,1162.8,285.7z"/>
	<path class="st1" d="M1266,316.2l42.7,43.8h-12.2l-41.2-42v42h-9.1v-42.1l-41.2,42.1h-12.2l42.7-43.7l-39.5-41.5h11.1l39,41.2
		v-41.2h9.1v41l39-41h11.1L1266,316.2z"/>
	<path class="st1" d="M1383.1,328.9l33.9,31.2h-11.3l-32.4-29.8v29.8h-8.4v-29.8l-32.4,29.8h-11.3l33.9-31.2l-30.9-29.2h10.7
		l30.1,28.7v-28.7h8.4v28.7l30.1-28.7h10.7L1383.1,328.9z"/>
	<path class="st1" d="M1438.8,354c-6-4.9-9.1-11.7-9.1-20.5h9.1c0,6.2,2.2,10.9,6.7,14.3c4.5,3.4,10.9,5.1,19.2,5.1
		c8,0,14.1-1.5,18.6-4.4c4.4-3,6.6-7.2,6.6-12.7c0-5.1-1.8-9.1-5.5-11.9c-3.7-2.8-8.9-4.3-15.6-4.3h-14.7v-7.9h14.7
		c6.1,0,10.7-1.3,13.9-3.8c3.2-2.5,4.7-6,4.7-10.6c0-4.8-2-8.5-5.9-11.2c-3.9-2.7-9.6-4-16.9-4c-7.6,0-13.7,1.5-18.1,4.6
		c-4.4,3-6.6,7.2-6.6,12.6h-9.1c0-5.3,1.4-9.8,4.1-13.7c2.8-3.9,6.7-6.8,11.8-8.8c5.1-2,11.1-3,17.9-3c10.1,0,18.1,2,23.7,6
		c5.7,4,8.5,9.6,8.5,16.9c0,4.4-1.2,8.2-3.7,11.4c-2.4,3.2-5.7,5.6-9.7,7.1v0.5c4.8,1.1,8.7,3.6,11.6,7.2c3,3.7,4.4,8.1,4.4,13.1
		c0,8-3.1,14.2-9.4,18.7c-6.3,4.5-14.7,6.8-25.5,6.8C1453.5,361.3,1444.8,358.9,1438.8,354z"/>
	<path class="st1" d="M1524.1,356.4c-4.9-3.5-7.3-8.3-7.3-14.4h8.8c0,3.7,1.7,6.6,5.1,8.8s8.4,3.3,15.1,3.3c6.7,0,11.8-1,15-2.9
		s4.9-4.7,4.9-8.3c0-6.7-5.3-10.1-15.8-10.1h-14.7v-7.2h14.7c9.4,0,14.1-3.2,14.1-9.7c0-3.3-1.5-5.9-4.5-7.7
		c-3-1.8-7.6-2.7-13.8-2.7c-6.2,0-10.9,1.1-14.2,3.2c-3.3,2.1-5,4.8-5,8.2h-8.6c0-5.7,2.5-10.2,7.4-13.7c5-3.4,11.8-5.2,20.5-5.2
		c8.8,0,15.5,1.5,20.1,4.5c4.6,3,6.9,7.2,6.9,12.7c0,3.4-0.9,6.2-2.7,8.4c-1.8,2.2-4.3,3.8-7.4,4.7v0.5c3.8,0.9,6.7,2.6,8.8,5.1
		c2,2.5,3,5.6,3,9.1c0,5.9-2.4,10.5-7.3,13.8c-4.9,3.2-12,4.9-21.4,4.9C1536.2,361.7,1529,359.9,1524.1,356.4z"/>
	<path class="st1" d="M1606.8,360.1h-10.6v-85.2h9.1v72.9h0.4l51.4-72.9h10.6v85.2h-9.1v-72.9h-0.5L1606.8,360.1z"/>
	<path class="st1" d="M1702.1,360.1h-9.5v-60.4h8.3v49.4h0.4l38.6-49.4h9.6v60.4h-8.4v-49.6h-0.4L1702.1,360.1z"/>
	<path class="st1" d="M1784.9,360.1h-10.6v-85.2h9.1v72.9h0.4l51.4-72.9h10.6v85.2h-9.1v-72.9h-0.5L1784.9,360.1z M1796.4,262.2
		c-3.3-2.8-5-6.6-5-11.5h7.2c0,2.8,1,5.1,3,6.8c2,1.7,4.8,2.6,8.4,2.6c3.5,0,6.3-0.9,8.3-2.6c2-1.7,3-4,3-6.8h7.2
		c0,4.9-1.6,8.7-4.9,11.5s-7.8,4.2-13.6,4.2C1804.3,266.4,1799.8,265,1796.4,262.2z"/>
	<path class="st1" d="M1879.8,360.1h-9.5v-60.4h8.3v49.4h0.4l38.6-49.4h9.6v60.4h-8.4v-49.6h-0.4L1879.8,360.1z M1885.2,284.3
		c-3.3-2.8-5-6.7-5-11.4h7.2c0,2.9,1,5.2,3,6.9c2,1.7,4.8,2.5,8.4,2.5c3.5,0,6.3-0.8,8.3-2.5c2-1.7,3-4,3-6.9h7.2
		c0,4.8-1.7,8.6-5,11.4c-3.3,2.8-7.8,4.3-13.5,4.3C1893,288.6,1888.5,287.2,1885.2,284.3z"/>
	<path class="st1" d="M182.8,434.4l46.4,43.7H217l-45.1-42.1v42.1h-9.1v-85.2h9.1v41l42.7-41h11.2L182.8,434.4z"/>
	<path class="st1" d="M264.1,447l36.9,31.1h-11.4l-35.7-29.8v29.8h-8.3v-60.4h8.3v28.9l33.4-28.9h10.8L264.1,447z"/>
	<path class="st1" d="M314,478.3v-8.4c1.2,0.4,2.6,0.6,4,0.6c3.7,0,6.3-1.1,8-3.2c1.7-2.1,2.7-6,3-11.7l4.3-62.8h59.1v85.2h-9.1
		v-76.8h-41.5l-3.7,54.9c-0.6,8.4-2.3,14.3-5.2,17.8c-2.9,3.5-7.3,5.3-13.2,5.3C317.4,479.3,315.5,479,314,478.3z"/>
	<path class="st1" d="M410.5,478.6v-7.9c1.3,0.2,2.4,0.2,3.3,0.2c2.7,0,4.7-0.8,6-2.3c1.3-1.5,2.1-4.2,2.4-7.9l2.6-43h49.6v60.4H466
		v-52.8h-33.5l-2.2,36.7c-0.7,11.6-5.6,17.4-14.7,17.4C413.2,479.3,411.5,479.1,410.5,478.6z"/>
	<path class="st1" d="M508.3,478.1h-9.1v-85.2h11.2l35.4,53.2h0.4l35.4-53.2h11v85.2h-9.1v-72.3H583l-34,50.8h-6.5l-34-50.8h-0.4
		V478.1z"/>
	<path class="st1" d="M625.7,478.1h-8.3v-60.4h9.9l25.9,38h0.4l25.9-38h9.7v60.4h-8.4v-48.7h-0.4l-24.1,35.2h-6.2l-24.1-35.2h-0.4
		V478.1z"/>
	<path class="st1" d="M775.9,429.9v-37h9.1v85.2h-9.1v-39.8h-52.6v39.8h-9.1v-85.2h9.1v37H775.9z"/>
	<path class="st1" d="M857.7,443.3v-25.6h8.4v60.4h-8.4v-27.3h-39.6v27.3h-8.3v-60.4h8.3v25.6H857.7z"/>
	<path class="st1" d="M907.6,473.7c-6.5-3.7-11.4-8.9-15-15.6c-3.5-6.7-5.3-14.2-5.3-22.6c0-8.4,1.8-16,5.3-22.6
		c3.5-6.7,8.5-11.9,15-15.6c6.5-3.7,13.9-5.6,22.3-5.6c8.4,0,15.9,1.9,22.3,5.6c6.5,3.7,11.4,8.9,15,15.6c3.5,6.7,5.3,14.2,5.3,22.6
		c0,8.4-1.8,16-5.3,22.6c-3.5,6.7-8.5,11.9-15,15.6c-6.5,3.7-13.9,5.6-22.3,5.6C921.5,479.3,914,477.4,907.6,473.7z M947.3,466.3
		c5-3,8.9-7.2,11.6-12.6c2.7-5.4,4.1-11.4,4.1-18.3c0-6.8-1.4-12.9-4.1-18.3c-2.7-5.4-6.6-9.6-11.6-12.6c-5-3-10.8-4.6-17.4-4.6
		s-12.4,1.5-17.4,4.6c-5,3-8.9,7.2-11.6,12.6c-2.7,5.4-4.1,11.4-4.1,18.3c0,6.8,1.4,12.9,4.1,18.3c2.7,5.4,6.6,9.6,11.6,12.6
		c5,3,10.8,4.6,17.4,4.6S942.3,469.4,947.3,466.3z"/>
	<path class="st1" d="M1005.4,475.6c-4.8-2.7-8.6-6.4-11.2-11.3c-2.6-4.8-4-10.3-4-16.5c0-6.2,1.3-11.7,4-16.5
		c2.7-4.8,6.4-8.6,11.2-11.3c4.8-2.7,10.3-4.1,16.6-4.1c6.3,0,11.8,1.4,16.6,4.1c4.8,2.7,8.5,6.5,11.2,11.3c2.7,4.8,4,10.3,4,16.5
		c0,6.2-1.3,11.7-4,16.5c-2.6,4.8-6.4,8.6-11.2,11.3c-4.8,2.7-10.4,4-16.6,4C1015.8,479.7,1010.2,478.3,1005.4,475.6z M1038.9,465.4
		c4.2-4.5,6.3-10.3,6.3-17.5c0-7.1-2.1-13-6.3-17.5c-4.2-4.5-9.8-6.8-16.9-6.8s-12.7,2.3-16.8,6.8c-4.1,4.5-6.2,10.4-6.2,17.6
		c0,7.1,2.1,13,6.2,17.5c4.1,4.5,9.7,6.8,16.8,6.8S1034.7,469.9,1038.9,465.4z"/>
	<path class="st1" d="M1084.1,478.1h-9.1v-85.2h69.3v85.2h-9.1v-76.8h-51V478.1z"/>
	<path class="st1" d="M1177.3,478.1h-8.3v-60.4h55.4v60.4h-8.4v-52.8h-38.7V478.1z"/>
	<path class="st1" d="M1281.3,392.8c10.6,0,18.8,2.5,24.6,7.5c5.8,5,8.6,12.2,8.6,21.6c0,9.3-2.9,16.5-8.6,21.5
		c-5.7,5-13.9,7.5-24.7,7.5h-22.8v27.2h-9.1v-85.2H1281.3z M1281.3,442.6c7.7,0,13.6-1.8,17.7-5.4c4.1-3.6,6.1-8.7,6.1-15.3
		c0-6.7-2-11.8-6.1-15.3c-4.1-3.6-9.9-5.4-17.7-5.4h-22.8v41.4H1281.3z"/>
	<path class="st1" d="M1333.8,502.4v-84.8h7.9v11.1h0.4c2-3.7,5.3-6.8,9.8-9.2c4.5-2.4,9.2-3.6,14.1-3.6c6.1,0,11.5,1.3,16.2,4
		c4.7,2.7,8.4,6.4,11,11.3c2.6,4.8,3.9,10.4,3.9,16.6c0,6.2-1.3,11.7-3.9,16.5c-2.6,4.8-6.3,8.6-11,11.3c-4.7,2.7-10.1,4-16.2,4
		c-4.7,0-9.2-1.1-13.6-3.3c-4.3-2.2-7.7-5.2-9.9-9h-0.4v35.1H1333.8z M1377.3,469.1c3.5-2,6.2-4.9,8.1-8.5c1.9-3.7,2.9-7.9,2.9-12.7
		c0-4.8-1-9-2.9-12.7c-1.9-3.7-4.6-6.6-8.1-8.6c-3.5-2-7.5-3-12.1-3c-4.5,0-8.4,1-11.9,3c-3.5,2-6.2,4.9-8.2,8.6
		c-2,3.7-3,7.9-3,12.7c0,4.8,1,9,3,12.7c2,3.7,4.7,6.5,8.2,8.5c3.5,2,7.5,3,11.9,3C1369.8,472.1,1373.8,471.1,1377.3,469.1z"/>
	<path class="st1" d="M1434.8,473.7c-6.4-3.7-11.4-8.9-14.9-15.6c-3.5-6.7-5.2-14.2-5.2-22.6c0-8.4,1.7-16,5.2-22.6
		c3.5-6.7,8.4-11.9,14.9-15.6c6.4-3.7,13.8-5.6,22.3-5.6c7.1,0,13.5,1.3,19.1,4c5.6,2.7,10.1,6.3,13.5,11c3.4,4.6,5.6,9.8,6.5,15.5
		h-9.4c-0.8-4.1-2.5-7.8-5.1-11.1c-2.6-3.4-6-6-10.2-8c-4.2-1.9-9-2.9-14.4-2.9c-6.6,0-12.3,1.5-17.3,4.6c-5,3-8.8,7.2-11.5,12.6
		c-2.7,5.4-4.1,11.4-4.1,18.3c0,6.8,1.4,12.9,4.1,18.3c2.7,5.4,6.6,9.6,11.5,12.6c5,3,10.7,4.6,17.3,4.6c8.1,0,14.8-2,20-6.1
		c5.2-4.1,8.5-9.4,10-16h9.4c-1.1,5.8-3.4,11-6.9,15.6c-3.5,4.6-8,8.3-13.5,10.9c-5.6,2.6-11.9,4-18.9,4
		C1448.7,479.3,1441.2,477.4,1434.8,473.7z"/>
	<path class="st1" d="M1529.4,475.6c-4.9-2.7-8.6-6.5-11.3-11.3c-2.7-4.8-4-10.3-4-16.4c0-6.2,1.4-11.7,4.1-16.5
		c2.7-4.8,6.5-8.6,11.4-11.3c4.9-2.7,10.4-4.1,16.6-4.1c5.8,0,10.8,1.1,15.1,3.3c4.3,2.2,7.7,5,10,8.5c2.4,3.5,3.9,7.2,4.4,11.1
		h-8.8c-1-4.5-3.3-8.2-7-11.1c-3.7-2.8-8.3-4.3-13.8-4.3c-4.6,0-8.7,1-12.2,3.1c-3.5,2.1-6.2,5-8.2,8.6c-1.9,3.7-2.9,7.9-2.9,12.6
		c0,4.7,1,8.9,2.9,12.5c1.9,3.7,4.6,6.5,8.2,8.6c3.5,2.1,7.6,3.1,12.2,3.1c6,0,10.9-1.5,14.6-4.5c3.7-3,6-6.7,6.8-11.2h8.8
		c-0.4,4-1.8,7.8-4.3,11.3c-2.5,3.6-5.9,6.5-10.3,8.6s-9.6,3.3-15.6,3.3C1539.8,479.7,1534.2,478.3,1529.4,475.6z"/>
	<path class="st1" d="M1615.4,478.1h-9.1v-76.8h-31.8v-8.4h72.7v8.4h-31.8V478.1z"/>
	<path class="st1" d="M1677.2,478.1h-8.4v-52.8h-24.8v-7.5h58.2v7.5h-25V478.1z"/>
	<path class="st1" d="M1774.2,392.8h9.7l-32.5,65.6c-3.7,7.6-7.4,13-11,16.1c-3.6,3.1-8.1,4.7-13.6,4.7c-2.5,0-4.7-0.4-6.7-1.2v-8.4
		c1.9,0.8,4.1,1.2,6.7,1.2c3.2,0,5.9-0.9,8.2-2.7c2.3-1.8,4.5-4.9,6.6-9.2l1.8-3.7l-35.1-62.5h10l29.5,53.3h0.4L1774.2,392.8z"/>
	<path class="st1" d="M1845.8,417.7h9l-27.5,62.8c-2.4,5.6-4.7,10-6.9,13.3c-2.2,3.3-4.6,5.7-7.4,7.4c-2.7,1.6-5.9,2.4-9.7,2.4
		c-2.5,0-4.9-0.4-7.1-1.1V495c1.9,0.7,4.1,1.1,6.3,1.1c3.4,0,6.3-1.1,8.7-3.3c2.4-2.2,4.8-6.3,7.1-12.4l0.7-1.9l-29.8-60.8h9.5
		l24.6,50.7h0.4L1845.8,417.7z"/>
	<path class="st1" d="M510,579.8c-8.1,6-18.9,9-32.3,9.1v8.4h-9.1v-8.4c-13.5-0.1-24.3-3.1-32.3-9.1c-8.1-6-12.1-14.8-12.1-26.4
		c0-11.5,4-20.3,12.1-26.2c8-6,18.8-9,32.4-9.2v-8.4h9.1v8.4c13.6,0.2,24.4,3.2,32.4,9.2c8,6,12.1,14.7,12.1,26.2
		C522.2,565.1,518.1,573.9,510,579.8z M443.1,573.7c6.3,4.5,14.8,6.8,25.4,6.9v-54.3c-10.7,0.1-19.2,2.4-25.5,6.8
		c-6.3,4.5-9.4,11.2-9.4,20.3C433.6,562.5,436.8,569.2,443.1,573.7z M477.7,580.6c10.6-0.1,19.1-2.4,25.4-6.9s9.5-11.3,9.5-20.3
		c0-9.1-3.1-15.9-9.4-20.3c-6.3-4.5-14.8-6.7-25.5-6.8V580.6z"/>
	<path class="st1" d="M584.3,534.5c6.9,0,13,1.3,18.4,3.8c5.4,2.6,9.6,6.2,12.6,11c3,4.7,4.5,10.3,4.5,16.6c0,6.3-1.5,11.8-4.5,16.5
		c-3,4.7-7.2,8.4-12.6,11c-5.4,2.6-11.5,3.9-18.4,3.9h-0.6v23.1h-8.3v-23.1h-0.7c-6.9,0-13-1.3-18.4-3.9c-5.4-2.6-9.5-6.3-12.5-11
		c-3-4.7-4.5-10.2-4.5-16.5c0-6.3,1.5-11.9,4.5-16.6c3-4.7,7.2-8.4,12.5-11c5.4-2.6,11.5-3.8,18.4-3.8h0.7v-23.6h8.3v23.6H584.3z
		 M575.4,589.7V542h-0.7c-5.2,0-9.8,1-13.9,3c-4.1,2-7.2,4.8-9.4,8.4c-2.2,3.6-3.3,7.8-3.3,12.5c0,4.7,1.1,8.9,3.3,12.5
		c2.2,3.6,5.4,6.4,9.4,8.4c4.1,2,8.7,3,13.9,3H575.4z M584.3,589.7c5.2,0,9.8-1,13.9-3c4.1-2,7.2-4.8,9.5-8.4
		c2.3-3.6,3.4-7.8,3.4-12.5c0-4.7-1.1-8.9-3.4-12.5c-2.3-3.6-5.4-6.4-9.5-8.4c-4.1-2-8.7-3-13.9-3h-0.6v47.7H584.3z"/>
	<path class="st1" d="M638.7,596.1h-10.5l32.4-44.3l-29.2-40.9h10.5l24.5,34.3h0.4l24.5-34.3h10.4l-29.2,40.9l32.3,44.3h-10.5
		l-27.4-37.6h-0.5L638.7,596.1z"/>
	<path class="st1" d="M727.4,596.1h-9.6l24.7-31.3l-22-29.1h9.6l17.5,23.7h0.4l17.5-23.7h9.6l-22,29.1l24.7,31.3h-9.7L748,570.4
		h-0.5L727.4,596.1z"/>
	<path class="st1" d="M876.2,616.8h-9.1v-20.7h-71.5v-85.2h9.1v76.8H854v-76.8h9.1v76.8h13.2V616.8z"/>
	<path class="st1" d="M957.7,612.5h-8.4v-16.4h-54.9v-60.4h8.3v52.8h36.9v-52.8h8.4v52.8h9.7V612.5z"/>
	<path class="st1" d="M1026.2,510.8h9.1v85.2h-9.1v-34c-3.2,1.5-6.8,2.7-11,3.6c-4.1,0.9-8.4,1.3-12.9,1.3c-11,0-19.3-2.7-24.8-8
		c-5.5-5.3-8.2-13.5-8.2-24.4v-23.7h9.1v24c0,8.2,2,14.2,6.1,18c4.1,3.8,10.4,5.7,18.8,5.7c8.6,0,16.2-1.8,22.8-5.5V510.8z"/>
	<path class="st1" d="M1101.6,535.7h8.4v60.4h-8.4v-22.4c-5.2,2.5-11.5,3.8-19,3.8c-8.2,0-14.5-2-18.9-6.1
		c-4.4-4.1-6.6-9.9-6.6-17.5v-18.1h8.3v18.1c0,10.7,6,16.1,18.1,16.1c6.9,0,12.9-1.3,18-4V535.7z"/>
	<path class="st1" d="M1235.8,596.1h-100.9v-85.2h9.1v76.8h36.8v-76.8h9.1v76.8h36.8v-76.8h9.1V596.1z"/>
	<path class="st1" d="M1340.4,596.1h-79.8v-60.4h8.3v52.8h27.4v-52.8h8.4v52.8h27.4v-52.8h8.3V596.1z"/>
	<path class="st1" d="M1479.4,616.8h-9.1v-20.7h-105v-85.2h9.1v76.8h36.8v-76.8h9.1v76.8h36.8v-76.8h9.1v76.8h13.2V616.8z"/>
	<path class="st1" d="M1586.8,612.5h-8.3v-16.4h-81.2v-60.4h8.3v52.8h27.4v-52.8h8.4v52.8h27.4v-52.8h8.3v52.8h9.7V612.5z"/>
	<path class="st1" d="M510.8,658.2c10.9,0,19.2,2.4,24.9,7.2c5.7,4.8,8.6,11.7,8.6,20.8c0,8.9-2.9,15.8-8.7,20.6
		c-5.8,4.8-14.1,7.2-24.8,7.2h-30.4v-76.8h-24.2v-8.4h33.4v29.3H510.8z M510.8,705.7c7.9,0,13.8-1.6,17.9-4.9
		c4.1-3.3,6.1-8.1,6.1-14.6c0-6.5-2-11.4-6.1-14.7c-4.1-3.3-10-4.9-17.9-4.9h-21.3v39.1H510.8z"/>
	<path class="st1" d="M593.9,673.5c8.4,0,14.9,1.7,19.3,5.2c4.4,3.5,6.6,8.5,6.6,15.2c0,6.6-2.2,11.6-6.6,15
		c-4.4,3.5-10.9,5.2-19.3,5.2h-22v-52.8h-18.5v-7.5h26.8v19.8H593.9z M593.5,706.5c6.1,0,10.6-1,13.4-3c2.8-2,4.3-5.2,4.3-9.6
		c0-4.5-1.4-7.7-4.3-9.7c-2.8-2-7.3-3-13.4-3h-13.3v25.5H593.5z"/>
	<path class="st1" d="M669.3,658.2c10.9,0,19.2,2.4,25,7.2c5.8,4.8,8.6,11.7,8.6,20.8c0,8.9-2.9,15.8-8.7,20.6
		c-5.8,4.8-14.1,7.2-24.9,7.2h-29.3v-85.2h9.1v29.3H669.3z M669.3,705.7c7.9,0,13.9-1.6,18-4.9c4.1-3.3,6.1-8.1,6.1-14.6
		c0-6.4-2.1-11.3-6.1-14.6c-4.1-3.3-10.1-5-18-5h-20.2v39.1H669.3z M717.9,714.1v-85.2h9.1v85.2H717.9z"/>
	<path class="st1" d="M773.3,673.5c8.4,0,14.9,1.7,19.3,5.2c4.4,3.5,6.6,8.5,6.6,15.2c0,6.6-2.2,11.6-6.6,15
		c-4.4,3.5-10.9,5.2-19.3,5.2h-21.4v-60.4h8.3v19.8H773.3z M772.8,706.5c6.1,0,10.6-1,13.4-3c2.8-2,4.3-5.2,4.3-9.6
		c0-4.5-1.4-7.7-4.3-9.7c-2.8-2-7.3-3-13.4-3h-12.7v25.5H772.8z M809.8,714.1v-60.4h8.3v60.4H809.8z"/>
	<path class="st1" d="M874.6,658.2c10.9,0,19.2,2.4,24.9,7.2c5.7,4.8,8.6,11.7,8.6,20.8c0,8.9-2.9,15.8-8.7,20.6
		c-5.8,4.8-14.1,7.2-24.8,7.2h-31.7v-85.2h9.1v29.3H874.6z M874.6,705.7c7.9,0,13.8-1.6,17.9-4.9c4.1-3.3,6.1-8.1,6.1-14.6
		c0-6.5-2-11.4-6.1-14.7c-4.1-3.3-10-4.9-17.9-4.9H852v39.1H874.6z"/>
	<path class="st1" d="M951.4,673.5c8.4,0,14.9,1.7,19.3,5.2c4.4,3.5,6.6,8.5,6.6,15.2c0,6.6-2.2,11.6-6.6,15
		c-4.4,3.5-10.9,5.2-19.3,5.2h-23.3v-60.4h8.3v19.8H951.4z M950.9,706.5c6.1,0,10.6-1,13.4-3c2.8-2,4.3-5.2,4.3-9.6
		c0-4.5-1.4-7.7-4.3-9.7c-2.8-2-7.3-3-13.4-3h-14.5v25.5H950.9z"/>
	<path class="st1" d="M1056.4,633.2c6.4,3.7,11.3,8.9,14.8,15.6c3.5,6.7,5.2,14.2,5.2,22.6c0,8.4-1.7,16-5.2,22.6
		c-3.5,6.7-8.4,11.9-14.8,15.6c-6.4,3.7-13.7,5.6-22.1,5.6c-7.3,0-13.7-1.3-19.3-4c-5.6-2.6-10-6.3-13.5-10.8
		c-3.4-4.6-5.7-9.8-6.8-15.6h9.4c1.4,6.6,4.7,11.9,9.9,16c5.2,4.1,12,6.1,20.3,6.1c6.2,0,11.6-1.4,16.3-4.1
		c4.7-2.7,8.4-6.5,11.2-11.3c2.8-4.8,4.4-10.3,4.9-16.6h-40.4v-7.9h40.3c-0.6-6.1-2.2-11.5-5-16.1c-2.8-4.7-6.5-8.3-11.1-11
		c-4.7-2.6-10-4-16.1-4c-8.3,0-15.1,2.1-20.3,6.3c-5.3,4.2-8.5,9.4-9.6,15.8H995c0.9-5.7,3-10.8,6.4-15.5c3.4-4.6,7.9-8.3,13.5-11
		c5.6-2.7,12.1-4,19.4-4C1042.7,627.6,1050.1,629.5,1056.4,633.2z"/>
	<path class="st1" d="M1140.9,656.1c4.8,2.7,8.5,6.5,11.1,11.3c2.6,4.8,4,10.3,4,16.5c0,6.2-1.3,11.7-3.9,16.5
		c-2.6,4.8-6.3,8.6-11.1,11.3c-4.8,2.7-10.4,4-16.7,4c-6.1,0-11.4-1.1-15.8-3.3c-4.5-2.2-7.9-5.1-10.4-8.6
		c-2.4-3.6-3.9-7.3-4.3-11.3h8.8c0.7,4.5,3,8.2,6.8,11.2c3.8,3,8.7,4.5,14.9,4.5c6.5,0,11.8-1.9,15.8-5.7c4.1-3.8,6.4-8.8,7.1-15.1
		H1117v-7.2h30c-0.7-6.2-3-11.1-7.1-14.9c-4.1-3.8-9.3-5.7-15.6-5.7c-5.8,0-10.6,1.5-14.4,4.4c-3.7,2.9-6,6.7-6.8,11.3h-8.8
		c0.4-4.1,1.8-7.9,4.2-11.4c2.4-3.5,5.8-6.4,10.2-8.6s9.6-3.3,15.6-3.3C1130.5,652,1136.1,653.3,1140.9,656.1z"/>
	<path class="st1" d="M1263.6,633.3c6.2,3.8,10.9,9,14.2,15.6c3.3,6.6,5,14.1,5,22.6c0,8.4-1.7,16-5,22.6
		c-3.3,6.6-8.1,11.8-14.2,15.6c-6.2,3.8-13.4,5.7-21.6,5.7c-7.9,0-14.8-1.7-20.8-5.1c-6-3.4-10.7-8.2-14.1-14.2s-5.4-13.1-5.8-20.9
		H1186v39.1h-9.1v-85.2h9.1v38.2h15.2c0.6-7.7,2.6-14.6,6.1-20.5c3.5-6,8.2-10.6,14.1-13.9c5.9-3.3,12.8-5,20.6-5
		C1250.2,627.6,1257.4,629.5,1263.6,633.3z M1258.6,702.3c4.7-3,8.4-7.2,10.9-12.6c2.5-5.4,3.8-11.4,3.8-18.3
		c0-6.8-1.3-12.9-3.8-18.3c-2.5-5.4-6.1-9.6-10.9-12.6s-10.3-4.6-16.6-4.6s-11.9,1.5-16.6,4.6s-8.4,7.2-11,12.6
		c-2.6,5.4-3.8,11.4-3.8,18.3c0,6.8,1.3,12.9,3.8,18.3c2.6,5.4,6.2,9.6,11,12.6s10.3,4.6,16.6,4.6S1253.9,705.4,1258.6,702.3z"/>
	<path class="st1" d="M1369.4,655.9c4.6,2.6,8.3,6.4,10.9,11.2c2.6,4.8,4,10.4,4,16.7s-1.3,11.9-4,16.7c-2.6,4.8-6.3,8.5-10.9,11.1
		c-4.6,2.6-9.9,4-15.7,4c-5.5,0-10.5-1.1-14.9-3.4c-4.4-2.3-8-5.5-10.8-9.8c-2.8-4.3-4.4-9.2-4.9-14.9h-11v26.5h-8.3v-60.4h8.3v26.7
		h11c0.5-5.7,2.1-10.7,4.8-15c2.7-4.3,6.3-7.6,10.8-9.9c4.5-2.3,9.5-3.5,15-3.5C1359.5,652,1364.7,653.3,1369.4,655.9z M1365,705.1
		c3.3-2,5.9-4.9,7.7-8.6c1.8-3.7,2.7-7.9,2.7-12.6c0-4.8-0.9-9-2.7-12.7c-1.8-3.7-4.4-6.6-7.7-8.6c-3.3-2-7.1-3-11.3-3
		c-4.3,0-8.1,1-11.4,3c-3.3,2-5.9,4.9-7.7,8.6c-1.8,3.7-2.7,7.9-2.7,12.7c0,4.7,0.9,8.9,2.7,12.6c1.8,3.7,4.4,6.6,7.7,8.6
		c3.3,2,7.1,3,11.4,3C1357.9,708.1,1361.7,707.1,1365,705.1z"/>
	<path class="st1" d="M1466.2,628.8v85.2h-9.1v-31.5h-28.4l-19.7,31.5h-10.6L1419,681c-4.7-1.2-8.9-3.9-12.5-8.1
		c-3.7-4.2-5.5-10-5.5-17.4c0-5.3,1.2-9.9,3.5-13.9s5.6-7.1,9.9-9.4c4.3-2.2,9.2-3.3,14.9-3.3H1466.2z M1457,674.1v-36.9h-27.8
		c-5.5,0-10,1.7-13.5,5.2c-3.5,3.5-5.2,7.9-5.2,13.3c0,5.5,1.7,10,5.1,13.3c3.4,3.4,7.8,5.1,13.3,5.1H1457z"/>
	<path class="st1" d="M1540.7,653.7v60.4h-8.3v-21.6H1511l-14.2,21.6h-9.7l15.2-22.8c-3.4-1-6.5-3-9.2-6c-2.7-3-4.1-7.1-4.1-12.2
		c0-6.2,2-10.9,6-14.3c4-3.4,9.6-5.1,16.9-5.1H1540.7z M1532.4,685v-23.7h-20c-4.9,0-8.6,1-11.1,3c-2.5,2-3.8,4.9-3.8,8.8
		c0,3.9,1.3,6.9,3.8,8.9c2.5,2,6.1,3,10.7,3H1532.4z"/>
	<path class="st1" d="M627.8,945.7c-5.6-3.7-9.9-8.9-13-15.5c-3-6.6-4.6-14.2-4.6-22.7s1.5-16.1,4.6-22.7c3-6.6,7.4-11.8,13-15.5
		c5.6-3.7,12.1-5.6,19.5-5.6c7.4,0,13.9,1.9,19.5,5.6c5.6,3.7,9.9,8.9,13,15.5c3,6.6,4.6,14.2,4.6,22.7s-1.5,16.1-4.6,22.7
		c-3,6.6-7.4,11.8-13,15.5c-5.6,3.7-12.1,5.6-19.5,5.6C639.9,951.3,633.4,949.4,627.8,945.7z M661.9,938.4c4.1-3,7.3-7.2,9.6-12.5
		c2.2-5.4,3.3-11.5,3.3-18.4c0-6.9-1.1-13-3.3-18.4c-2.2-5.4-5.4-9.5-9.6-12.5c-4.1-3-9-4.5-14.6-4.5c-5.6,0-10.5,1.5-14.6,4.5
		c-4.1,3-7.3,7.2-9.6,12.5c-2.2,5.4-3.3,11.5-3.3,18.4c0,6.9,1.1,13,3.3,18.4c2.2,5.4,5.4,9.5,9.6,12.5c4.1,3,9,4.5,14.6,4.5
		C652.9,942.9,657.8,941.4,661.9,938.4z"/>
	<path class="st1" d="M730.5,864.8v76.8h20.1v8.4h-50.5v-8.4h21.3v-65.9L703,888.7v-10.4l19.2-13.5H730.5z"/>
	<path class="st1" d="M832.8,941.7v8.4h-67.2v-5c0-6.8,1.5-12.4,4.6-16.8c3-4.4,6.7-7.8,10.9-10.2c4.2-2.4,9.9-5.1,16.9-7.9
		c5.6-2.2,10-4.1,13.2-5.8c3.2-1.7,5.9-3.8,8-6.5c2.1-2.7,3.2-6,3.2-9.9c0-5.2-1.8-9.2-5.5-11.9c-3.7-2.7-8.9-4.1-15.7-4.1
		c-6.8,0-12.5,1.6-17,4.8c-4.5,3.2-6.8,7.6-6.8,13.1h-9.1c0-5.4,1.4-10,4.3-14c2.9-4,6.8-7,11.8-9.1c5-2.1,10.6-3.2,16.9-3.2
		c9.3,0,16.8,2.2,22.3,6.5c5.6,4.3,8.3,10.3,8.3,17.8c0,5.6-1.4,10.3-4.1,14c-2.8,3.7-6.1,6.7-10.1,8.9c-4,2.2-9.3,4.6-16,7.2
		c-5.8,2.2-10.5,4.2-14,6c-3.5,1.8-6.4,4.2-8.8,7c-2.4,2.8-3.5,6.4-3.5,10.6H832.8z"/>
	<path class="st1" d="M855.5,944.1c-5.9-4.8-8.9-11.5-8.9-20.1h9.1c0,6.1,2.2,10.8,6.5,14c4.3,3.2,10.1,4.9,17.4,4.9
		c7.4,0,13.2-1.6,17.3-4.9c4.1-3.2,6.2-8,6.2-14.2c0-6.3-2.1-10.9-6.4-14c-4.3-3.1-10.3-4.6-18.1-4.6h-19.1v-7.5l35.7-24v-0.4h-44.4
		v-8.4h58.6v8.4l-35.6,23.9v0.5h6.9c9.7,0,17.5,2.3,23.3,6.9c5.8,4.6,8.7,11,8.7,19.2c0,8.5-3,15.2-8.9,20.2
		c-5.9,4.9-14,7.4-24.2,7.4C869.5,951.3,861.5,948.9,855.5,944.1z"/>
	<path class="st1" d="M988.5,921.2h11.8v8.3h-11.8v20.6h-9.1v-20.6H929v-8.8l47.2-55.9h12.3V921.2z M939.1,920.9v0.4h40.3v-47.6H979
		L939.1,920.9z"/>
	<path class="st1" d="M1025.4,944.2c-5.8-4.7-8.8-11.3-8.8-19.8h9.1c0,5.9,2.1,10.5,6.3,13.7c4.2,3.2,10,4.8,17.4,4.8
		c7.5,0,13.3-1.9,17.4-5.7c4.1-3.8,6.2-9,6.2-15.6c0-6.5-2.1-11.6-6.2-15.3c-4.1-3.7-9.8-5.6-16.9-5.6c-4.8,0-9.1,1-12.8,3.1
		c-3.7,2.1-6.7,5-8.8,8.8h-8.8l8-47.7h51.5v8.4h-43.8l-4.5,26.1h0.4c2.2-2.2,5.1-3.9,8.6-5.2c3.5-1.3,7.4-1.9,11.5-1.9
		c6.3,0,11.9,1.2,16.6,3.6c4.7,2.4,8.3,5.8,10.9,10.2c2.6,4.4,3.8,9.5,3.8,15.3c0,6-1.3,11.3-4,15.8s-6.5,8-11.5,10.5
		c-5,2.5-10.9,3.7-17.6,3.7C1039.3,951.3,1031.3,948.9,1025.4,944.2z"/>
	<path class="st1" d="M1116.5,947.5c-5.1-2.6-9-6.1-11.7-10.7c-2.7-4.5-4-9.7-4-15.5c0-4.6,0.9-9.3,2.7-14c1.8-4.7,4.6-9.3,8.2-13.8
		l22.9-28.7h11.1l-24,29.6h0.4c1.7-1,3.6-1.7,5.8-2.2c2.2-0.5,4.8-0.7,8-0.7c6.5,0,12.2,1.2,17.2,3.7c5,2.5,8.8,5.9,11.5,10.4
		c2.7,4.5,4.1,9.5,4.1,15.2c0,5.9-1.4,11.2-4.2,15.8c-2.8,4.6-6.8,8.2-11.9,10.8c-5.2,2.6-11.1,3.9-18,3.9
		C1127.6,951.3,1121.6,950,1116.5,947.5z M1152.4,937c4.5-3.9,6.7-9.2,6.7-15.6c0-6.5-2.2-11.7-6.7-15.6c-4.5-3.9-10.4-5.9-17.8-5.9
		c-7.5,0-13.4,1.9-17.8,5.8s-6.6,9.1-6.6,15.7c0,6.5,2.2,11.7,6.6,15.6c4.4,3.9,10.3,5.9,17.7,5.9
		C1142,942.9,1147.9,940.9,1152.4,937z"/>
	<path class="st1" d="M1193.2,950.1h-10l40.3-76.5v-0.4h-49.6v-8.4h59.5v8.5L1193.2,950.1z"/>
	<path class="st1" d="M1261.7,948.3c-5.2-2-9.2-4.9-12-8.6c-2.8-3.7-4.2-8.1-4.2-13c0-5.2,1.6-9.7,4.9-13.4
		c3.2-3.7,7.2-6.2,11.9-7.4v-0.5c-4.1-1.4-7.4-3.7-10.1-7.1c-2.7-3.3-4-7.3-4-11.9c0-4.5,1.3-8.5,4-11.9c2.6-3.4,6.4-6,11.1-7.9
		c4.8-1.9,10.4-2.8,16.7-2.8c6.3,0,11.8,0.9,16.6,2.8c4.8,1.9,8.5,4.5,11.1,7.9c2.6,3.4,4,7.4,4,11.9c0,4.6-1.4,8.6-4.1,11.9
		c-2.7,3.3-6.1,5.7-10.2,7.1v0.5c4.8,1.2,8.8,3.7,12.1,7.4c3.2,3.7,4.9,8.2,4.9,13.4c0,5-1.4,9.3-4.2,13c-2.8,3.7-6.8,6.6-12,8.6
		c-5.2,2-11.2,3-18.1,3C1273,951.3,1266.9,950.3,1261.7,948.3z M1298.1,938.9c4.5-3,6.7-7.1,6.7-12.3c0-5.4-2.2-9.5-6.7-12.4
		c-4.5-2.9-10.5-4.4-18.1-4.4c-7.8,0-13.9,1.5-18.3,4.4c-4.4,2.9-6.6,7.1-6.6,12.4c0,5.2,2.2,9.3,6.7,12.3c4.5,3,10.6,4.5,18.3,4.5
		C1287.6,943.4,1293.7,941.9,1298.1,938.9z M1296.2,897.7c4-2.8,6-6.5,6-11.1s-2-8.3-6-11c-4-2.7-9.4-4.1-16.1-4.1
		c-6.7,0-12.1,1.4-16.2,4.1c-4.1,2.7-6.1,6.4-6.1,11s2,8.3,5.9,11.1c3.9,2.8,9.4,4.1,16.4,4.1
		C1286.8,901.9,1292.2,900.5,1296.2,897.7z"/>
	<path class="st1" d="M1353.9,950.1l23.1-29.6h-0.4c-3.2,1.9-7.7,2.9-13.6,2.9c-6.5,0-12.2-1.2-17.2-3.7c-5-2.5-8.8-5.9-11.5-10.4
		c-2.7-4.5-4.1-9.5-4.1-15.2c0-5.9,1.4-11.2,4.2-15.8c2.8-4.6,6.8-8.2,11.9-10.8c5.1-2.6,11.1-3.9,17.9-3.9c6.9,0,12.9,1.3,18,3.8
		c5.1,2.6,9,6.1,11.8,10.7c2.7,4.5,4.1,9.7,4.1,15.5c0,9.3-3.6,18.6-10.7,27.8l-22.4,28.7H1353.9z M1382,909.3
		c4.4-3.9,6.6-9.1,6.6-15.7c0-6.5-2.2-11.7-6.7-15.6c-4.5-3.9-10.4-5.9-17.8-5.9c-7.4,0-13.3,2-17.7,5.9c-4.4,3.9-6.6,9.2-6.6,15.6
		c0,6.5,2.2,11.7,6.6,15.6c4.4,3.9,10.3,5.9,17.7,5.9C1371.7,915.1,1377.7,913.2,1382,909.3z"/>
	<path class="st1" d="M567.7,1186.1h-9.1v-85.2H569l50.7,71.7h0.4v-71.7h9.1v85.2h-10.5l-50.7-71.7h-0.4V1186.1z M644.6,1166
		c-3.3-3.3-4.9-7.7-4.9-13c0-5.4,1.6-9.7,4.9-13c3.3-3.3,7.6-5,13-5s9.7,1.7,13,5c3.3,3.3,4.9,7.7,4.9,13c0,5.4-1.6,9.7-4.9,13
		c-3.3,3.3-7.6,5-13,5S647.9,1169.3,644.6,1166z M674.5,1186.1h-33.7v-6.8h33.7V1186.1z M665.1,1160.8c1.9-2,2.9-4.6,2.9-7.9
		c0-3.3-0.9-6-2.8-7.9c-1.9-1.9-4.4-2.9-7.5-2.9c-3.1,0-5.6,1-7.4,2.9c-1.9,1.9-2.8,4.6-2.8,7.9c0,3.3,0.9,6,2.8,7.9
		c1.9,1.9,4.3,2.9,7.4,2.9C660.7,1163.8,663.2,1162.8,665.1,1160.8z"/>
	<path class="st1" d="M696,1185.3c-1.2-1.1-1.8-2.6-1.8-4.3c0-1.7,0.6-3.1,1.8-4.3c1.2-1.1,2.7-1.7,4.4-1.7c1.8,0,3.3,0.5,4.4,1.6
		c1.2,1.1,1.8,2.5,1.8,4.3c0,1.8-0.6,3.2-1.8,4.3c-1.2,1.1-2.7,1.6-4.4,1.6C698.7,1187.1,697.3,1186.5,696,1185.3z M703.8,1162.8
		h-6.6l-1.3-42.1v-19.8h9.1v19.8L703.8,1162.8z"/>
	<path class="st1" d="M751.7,1156.7c0-3.6,0.7-6.7,2.1-9.3c1.4-2.6,3-4.7,5-6.5c1.9-1.7,4.5-3.6,7.7-5.6c2.7-1.8,4.8-3.3,6.3-4.5
		c1.5-1.2,2.8-2.7,3.8-4.4c1-1.7,1.5-3.7,1.5-6c0-3.9-1.8-7-5.5-9.2c-3.7-2.2-8.9-3.3-15.6-3.3c-6.8,0-12.4,1.4-16.7,4.2
		c-4.3,2.8-6.5,6.6-6.5,11.4h-9.1c0-4.8,1.4-9,4.1-12.7c2.8-3.7,6.6-6.5,11.5-8.4c4.9-1.9,10.5-2.9,16.7-2.9c6,0,11.3,0.9,15.9,2.6
		c4.6,1.7,8.1,4.1,10.7,7.2c2.5,3.1,3.8,6.8,3.8,10.9c0,3.2-0.7,6.1-2,8.5s-3,4.5-4.9,6.1c-1.9,1.6-4.5,3.5-7.7,5.6
		c-2.8,1.9-5.1,3.5-6.8,4.8c-1.7,1.3-3,3-4.1,4.9c-1.1,1.9-1.6,4.1-1.6,6.5v6.1h-8.3V1156.7z M751.8,1185.3
		c-1.2-1.1-1.8-2.6-1.8-4.3c0-1.7,0.6-3.1,1.8-4.3c1.2-1.1,2.6-1.7,4.3-1.7c1.8,0,3.3,0.6,4.5,1.7c1.2,1.1,1.8,2.6,1.8,4.3
		c0,1.7-0.6,3.1-1.8,4.3s-2.7,1.7-4.5,1.7C754.4,1187.1,753,1186.5,751.8,1185.3z"/>
	<path class="st1" d="M818.1,1153.9v10.5H847v7.9h-28.9v13.8H809v-13.8h-12.7v-7.9H809v-10.5h-12.7v-8.4H809v-44.7h27.4
		c10.6,0,18.7,2.3,24.4,6.8c5.7,4.5,8.5,11.1,8.5,19.7c0,8.6-2.8,15.2-8.5,19.7c-5.7,4.5-13.8,6.8-24.4,6.8H818.1z M818.1,1109.2
		v36.3H837c7.5,0,13.1-1.5,17-4.6c3.9-3.1,5.8-7.6,5.8-13.5c0-5.9-1.9-10.4-5.8-13.5c-3.9-3.1-9.5-4.6-17-4.6H818.1z"/>
	<path class="st1" d="M929.2,1216.5c-7.5,0-14.4-2.7-20.8-8.1c-6.4-5.4-11.4-13-15.2-22.8c-3.8-9.8-5.7-21-5.7-33.7
		s1.9-23.9,5.7-33.7c3.8-9.8,8.8-17.4,15.2-22.8c6.4-5.4,13.3-8.1,20.8-8.1v7.5c-5.8,0-11.3,2.5-16.4,7.5c-5.1,5-9.1,11.9-12.1,20.6
		c-3,8.7-4.5,18.3-4.5,28.9c0,10.6,1.5,20.2,4.5,28.9c3,8.7,7,15.5,12.1,20.6c5.1,5,10.5,7.5,16.4,7.5V1216.5z"/>
	<path class="st1" d="M943.6,1209c5.8,0,11.2-2.5,16.3-7.5c5.1-5,9.1-11.9,12.1-20.6c3-8.7,4.5-18.3,4.5-28.9
		c0-10.6-1.5-20.2-4.5-28.9c-3-8.7-7-15.5-12.1-20.6c-5.1-5-10.5-7.5-16.3-7.5v-7.5c7.5,0,14.4,2.7,20.8,8.1
		c6.4,5.4,11.4,13,15.2,22.8c3.8,9.8,5.7,21,5.7,33.7s-1.9,23.9-5.7,33.7c-3.8,9.8-8.8,17.4-15.2,22.8c-6.4,5.4-13.3,8.1-20.8,8.1
		V1209z"/>
	<path class="st1" d="M1069.1,1186.1c0-5.8-1.4-11-4.3-15.6c-6.7,11.2-17,16.8-30.9,16.8c-9,0-16.2-2.3-21.6-6.8
		c-5.4-4.5-8-10.8-8-18.6c0-4.5,1.1-8.9,3.4-13c2.3-4.1,5.5-7.7,9.6-10.7v-0.4c-2.7-2.2-4.8-4.7-6.3-7.7c-1.5-2.9-2.3-6.2-2.3-9.7
		c0-4,1.1-7.5,3.3-10.7c2.2-3.1,5.4-5.6,9.4-7.4c4-1.8,8.6-2.7,13.8-2.7c8,0,14.4,1.9,19.4,5.6c5,3.7,8.1,8.9,9.2,15.5h-8.8
		c-1.1-4.2-3.4-7.5-6.9-9.7c-3.5-2.3-7.8-3.4-13.1-3.4c-5.2,0-9.4,1.1-12.7,3.4c-3.3,2.3-4.9,5.4-4.9,9.5c0,2.8,1,5.4,2.9,7.7
		s4.4,4.4,7.4,6.3c3,1.9,7.1,4.3,12.5,7.2c5.1,2.8,9.3,5.1,12.6,7.1c3.3,2,6.4,4.2,9.4,6.6c1-4.6,1.5-9.7,1.5-15.3h8.8
		c0,8-1.1,15.4-3.4,22c5.8,7,8.6,15,8.6,24H1069.1z M1059.4,1163.8c-2.3-2.3-4.9-4.3-7.9-6.2c-3-1.9-6.6-3.9-10.8-6.2l-16.3-8.9
		c-3.5,2.4-6.3,5.2-8.3,8.6c-2.1,3.4-3.1,7-3.1,10.7c0,5.3,1.9,9.5,5.8,12.7c3.9,3.2,9,4.8,15.2,4.8
		C1046,1179.4,1054.5,1174.2,1059.4,1163.8z"/>
	<path class="st1" d="M1095.8,1136c-2.9-1.7-5.2-4-6.8-6.9c-1.6-3-2.4-6.3-2.4-9.9c0-5.7,1.8-10.4,5.4-14c3.6-3.7,8.2-5.5,13.7-5.5
		c5.5,0,10.1,1.8,13.6,5.5c3.6,3.7,5.4,8.3,5.4,14c0,5.6-1.8,10.2-5.4,13.9c-3.6,3.7-8.1,5.5-13.6,5.5
		C1102,1138.5,1098.7,1137.6,1095.8,1136z M1113.9,1127.9c2.1-2.2,3.2-5.2,3.2-8.8c0-3.7-1-6.6-3.1-8.9c-2.1-2.3-4.9-3.4-8.3-3.4
		c-3.5,0-6.3,1.1-8.4,3.4c-2.1,2.3-3.2,5.2-3.2,8.9c0,3.7,1.1,6.6,3.2,8.8c2.1,2.2,4.9,3.3,8.4,3.3
		C1109.1,1131.3,1111.8,1130.2,1113.9,1127.9z M1105,1186.1h-8.6l58.6-85.2h8.6L1105,1186.1z M1140.8,1181.8
		c-3.6-3.7-5.4-8.3-5.4-14c0-3.7,0.8-7,2.4-9.9c1.6-3,3.9-5.3,6.8-6.9c2.9-1.7,6.2-2.5,9.9-2.5s6.9,0.8,9.9,2.5
		c2.9,1.7,5.2,4,6.8,6.9c1.6,3,2.4,6.3,2.4,9.9c0,5.7-1.8,10.4-5.4,14c-3.6,3.7-8.2,5.5-13.7,5.5
		C1149,1187.3,1144.4,1185.5,1140.8,1181.8z M1162.9,1176.7c2.1-2.3,3.2-5.2,3.2-8.9c0-3.6-1.1-6.5-3.2-8.8
		c-2.1-2.3-4.9-3.4-8.4-3.4c-3.5,0-6.3,1.1-8.4,3.4c-2.1,2.3-3.2,5.2-3.2,8.8c0,3.7,1.1,6.6,3.2,8.9c2.1,2.3,4.9,3.4,8.4,3.4
		C1158,1180.1,1160.8,1179,1162.9,1176.7z"/>
	<path class="st1" d="M1214,1200.2c-7.9-4.4-14.1-10.6-18.5-18.6c-4.4-8-6.6-17.2-6.6-27.7c0-10.2,2.2-19.4,6.7-27.5
		c4.5-8.1,10.7-14.4,18.8-18.9c8-4.5,17.1-6.8,27.3-6.8c10.6,0,19.8,2.1,27.8,6.1c8,4.1,14.1,9.9,18.4,17.5
		c4.3,7.5,6.5,16.4,6.5,26.7c0,8.9-1.7,15.8-5.1,20.7c-3.4,4.9-8.2,7.3-14.4,7.3c-3.7,0-6.8-0.9-9.3-2.8c-2.6-1.9-4.4-4.5-5.4-7.8
		h-0.5c-1.6,3.4-4.2,6.1-7.7,8.2c-3.5,2.1-7.5,3.1-12.2,3.1c-4.9,0-9.2-1.1-12.8-3.2c-3.7-2.1-6.6-5.2-8.6-9.2
		c-2.1-4-3.1-8.6-3.1-13.8c0-5,1.1-9.5,3.2-13.5c2.1-3.9,5-7,8.8-9.2c3.7-2.2,8-3.3,12.8-3.3c3.9,0,7.5,0.9,10.7,2.7
		c3.2,1.8,5.6,4.1,7.2,6.9h0.2v-8.4h8v32c0,3.7,0.8,6.4,2.4,8.2c1.6,1.8,3.9,2.7,6.7,2.7c7.4,0,11.1-6.9,11.1-20.8
		c0-8.8-1.8-16.5-5.4-23c-3.6-6.5-8.8-11.5-15.5-14.9c-6.7-3.4-14.7-5.2-23.7-5.2c-8.8,0-16.5,1.9-23.3,5.8
		c-6.8,3.9-12.1,9.3-15.8,16.3c-3.8,7-5.7,14.9-5.7,23.9c0,9.1,1.9,17.1,5.6,24c3.7,6.9,9,12.2,15.7,16c6.7,3.8,14.4,5.7,23,5.7
		c9.4,0,17.4-1.8,24-5.5v7.7c-2.9,1.6-6.5,2.9-10.7,3.7c-4.2,0.9-8.6,1.3-13.3,1.3C1231,1206.8,1221.9,1204.6,1214,1200.2z
		 M1253.2,1167.5c3.2-3.5,4.8-8.1,4.8-13.8c0-5.6-1.6-10.1-4.7-13.6c-3.2-3.4-7.4-5.2-12.7-5.2c-5.3,0-9.5,1.7-12.7,5.2
		c-3.2,3.5-4.7,8-4.7,13.6c0,5.7,1.6,10.3,4.8,13.8c3.2,3.5,7.4,5.3,12.6,5.3C1245.8,1172.8,1250,1171,1253.2,1167.5z"/>
	<path class="st1" d="M1311.3,1134.9c-1.2-1.1-1.8-2.6-1.8-4.3c0-1.7,0.6-3.1,1.8-4.3c1.2-1.1,2.6-1.7,4.3-1.7
		c1.8,0,3.3,0.5,4.4,1.6c1.2,1.1,1.8,2.5,1.8,4.3c0,1.8-0.6,3.2-1.8,4.3c-1.2,1.1-2.7,1.6-4.4,1.6
		C1313.9,1136.6,1312.5,1136.1,1311.3,1134.9z M1311.3,1185c-1.2-1.1-1.8-2.6-1.8-4.3c0-1.8,0.6-3.2,1.8-4.4
		c1.2-1.1,2.6-1.7,4.3-1.7c1.8,0,3.3,0.6,4.4,1.7c1.2,1.1,1.8,2.6,1.8,4.4c0,1.8-0.6,3.2-1.8,4.3c-1.2,1.1-2.7,1.6-4.4,1.6
		C1313.9,1186.7,1312.5,1186.1,1311.3,1185z"/>
	<path class="st1" d="M1340.9,1134.9c-1.2-1.1-1.8-2.6-1.8-4.3c0-1.7,0.6-3.1,1.8-4.3c1.2-1.1,2.7-1.7,4.4-1.7
		c1.8,0,3.3,0.5,4.4,1.6c1.2,1.1,1.8,2.5,1.8,4.3c0,1.8-0.6,3.2-1.8,4.3c-1.2,1.1-2.7,1.6-4.4,1.6
		C1343.6,1136.6,1342.1,1136.1,1340.9,1134.9z M1349.8,1176.5c1.1,1.3,1.7,2.8,1.7,4.6c0,1.3-0.2,2.8-0.7,4.4
		c-0.4,1.6-1.2,3.7-2.3,6.2l-3.5,8.5h-4.4l3.7-13.5c-1.5-0.2-2.7-0.8-3.7-1.9c-1-1.1-1.5-2.5-1.5-4.1c0-1.8,0.6-3.2,1.8-4.4
		c1.2-1.1,2.7-1.7,4.4-1.7C1347.1,1174.6,1348.6,1175.3,1349.8,1176.5z"/>
	<path class="st1" d="M1370.8,1200.7h-7.9l46.5-99.9h7.9L1370.8,1200.7z"/>
	<path class="st1" d="M1414.4,1185c-1.2-1.1-1.8-2.6-1.8-4.3c0-1.8,0.6-3.2,1.8-4.4c1.2-1.1,2.6-1.7,4.3-1.7c1.8,0,3.3,0.6,4.4,1.7
		c1.2,1.1,1.8,2.6,1.8,4.4c0,1.8-0.6,3.2-1.8,4.3c-1.2,1.1-2.7,1.6-4.4,1.6C1417,1186.7,1415.6,1186.1,1414.4,1185z"/>
	<path class="st1" d="M1452.9,1176.5c1.1,1.3,1.7,2.8,1.7,4.6c0,1.3-0.2,2.8-0.7,4.4c-0.4,1.6-1.2,3.7-2.3,6.2l-3.5,8.5h-4.4
		l3.7-13.5c-1.5-0.2-2.7-0.8-3.7-1.9c-1-1.1-1.5-2.5-1.5-4.1c0-1.8,0.6-3.2,1.8-4.4c1.2-1.1,2.7-1.7,4.4-1.7
		C1450.2,1174.6,1451.7,1175.3,1452.9,1176.5z"/>
</g>
<g>
	<path class="st2" d="M727.4,111.8h-4.5l-2.5-6.2h-15.7l-2.5,6.2h-4.3L710,82.4h5.4L727.4,111.8z M712.5,86.4l-6.3,15.6H719
		l-6.3-15.6H712.5z"/>
	<path class="st2" d="M744,109.8c-2.1-1.6-3.2-4-3.2-7h4.4c0,3.8,2.8,5.7,8.3,5.7c2.5,0,4.4-0.4,5.8-1.1c1.4-0.8,2.1-1.9,2.1-3.4
		c0-1.1-0.4-2-1.1-2.6c-0.8-0.7-1.7-1.2-2.8-1.5c-1.1-0.3-2.7-0.7-4.7-1.1c-2.4-0.5-4.4-1-5.9-1.5c-1.5-0.5-2.8-1.3-3.8-2.4
		c-1.1-1.1-1.6-2.6-1.6-4.5c0-2.7,1.1-4.8,3.2-6.2c2.2-1.5,5-2.2,8.6-2.2c2.4,0,4.6,0.4,6.4,1.1c1.8,0.7,3.2,1.7,4.2,3.1
		c1,1.3,1.4,2.9,1.4,4.7h-4.4c0-1.6-0.7-2.8-2-3.7c-1.3-0.9-3.2-1.3-5.7-1.3c-2.3,0-4,0.4-5.3,1.1c-1.3,0.7-1.9,1.8-1.9,3.2
		c0,1,0.4,1.8,1.1,2.4c0.7,0.6,1.6,1.1,2.7,1.4c1.1,0.3,2.5,0.7,4.4,1c2.5,0.5,4.5,1,6.1,1.6c1.6,0.5,2.9,1.4,4,2.6
		c1.1,1.2,1.7,2.8,1.7,4.9c0,2.7-1.1,4.8-3.2,6.2c-2.1,1.4-5.1,2.1-9.1,2.1C749.3,112.2,746.2,111.4,744,109.8z"/>
	<path class="st2" d="M797.9,111.8h-4.5l-2.5-6.2h-15.7l-2.5,6.2h-4.3l12.1-29.4h5.4L797.9,111.8z M783.1,86.4l-6.3,15.6h12.8
		l-6.3-15.6H783.1z"/>
	<path class="st2" d="M806.2,111.8h-4.1V82.4h4.5l17.3,23.1h0.2V82.4h4.1v29.4h-4.5l-17.3-23.1h-0.2V111.8z"/>
	<path class="st2" d="M837.6,109.8c-2.1-1.6-3.2-4-3.2-7h4.4c0,3.8,2.8,5.7,8.3,5.7c2.5,0,4.4-0.4,5.8-1.1c1.4-0.8,2.1-1.9,2.1-3.4
		c0-1.1-0.4-2-1.1-2.6c-0.8-0.7-1.7-1.2-2.8-1.5c-1.1-0.3-2.7-0.7-4.7-1.1c-2.4-0.5-4.4-1-5.9-1.5c-1.5-0.5-2.8-1.3-3.8-2.4
		c-1.1-1.1-1.6-2.6-1.6-4.5c0-2.7,1.1-4.8,3.2-6.2c2.2-1.5,5-2.2,8.6-2.2c2.4,0,4.6,0.4,6.4,1.1c1.8,0.7,3.2,1.7,4.2,3.1
		c1,1.3,1.4,2.9,1.4,4.7h-4.4c0-1.6-0.7-2.8-2-3.7c-1.3-0.9-3.2-1.3-5.7-1.3c-2.3,0-4,0.4-5.3,1.1c-1.3,0.7-1.9,1.8-1.9,3.2
		c0,1,0.4,1.8,1.1,2.4c0.7,0.6,1.6,1.1,2.7,1.4c1.1,0.3,2.5,0.7,4.4,1c2.5,0.5,4.5,1,6.1,1.6c1.6,0.5,2.9,1.4,4,2.6
		c1.1,1.2,1.7,2.8,1.7,4.9c0,2.7-1.1,4.8-3.2,6.2c-2.1,1.4-5.1,2.1-9.1,2.1C842.9,112.2,839.7,111.4,837.6,109.8z"/>
	<path class="st2" d="M887.9,111.8h-4.2V86.2H873v-3.8h25.5v3.8h-10.6V111.8z"/>
	<path class="st2" d="M924.9,82.4v3.8h-17.9V95h15.5v3.6h-15.5v9.5h17.9v3.8h-22.1V82.4H924.9z"/>
	<path class="st2" d="M933.1,111.8h-4.7l11-15.2l-10-14.2h4.8l7.9,11.3h0.2l7.9-11.3h4.7l-10,14.2l11,15.2h-4.8l-8.8-12.2h-0.2
		L933.1,111.8z"/>
	<path class="st2" d="M972.7,111.8h-4.2V86.2h-10.6v-3.8h25.5v3.8h-10.6V111.8z"/>
	<path class="st2" d="M1022.8,111.8h-4.7l-7.1-10.9h-8.7v10.9h-4.2V82.4h12.2c3.6,0,6.3,0.8,8.1,2.4c1.8,1.6,2.8,3.9,2.8,6.8
		c0,1.6-0.3,3-0.9,4.2c-0.6,1.2-1.4,2.2-2.3,2.9c-0.9,0.7-1.8,1.2-2.7,1.4L1022.8,111.8z M1010.3,97.1c2.1,0,3.7-0.5,4.8-1.4
		s1.7-2.3,1.7-4.1c0-1.8-0.6-3.1-1.7-4.1c-1.1-0.9-2.7-1.4-4.8-1.4h-8v10.9H1010.3z"/>
	<path class="st2" d="M1049.7,82.4v3.8h-17.8V95h15.5v3.6h-15.5v9.5h17.8v3.8h-22V82.4H1049.7z"/>
	<path class="st2" d="M1066.6,96.5h15.8v0.8c0,2.9-0.6,5.5-1.7,7.8c-1.2,2.3-2.8,4-5,5.3c-2.2,1.2-4.8,1.9-7.7,1.9
		c-2.9,0-5.5-0.6-7.7-1.9c-2.3-1.3-4-3.1-5.3-5.4c-1.3-2.3-1.9-4.9-1.9-7.9c0-2.9,0.6-5.6,1.9-7.9c1.3-2.3,3-4.1,5.3-5.4
		c2.3-1.3,4.9-1.9,7.8-1.9c2.4,0,4.5,0.4,6.5,1.3c1.9,0.8,3.5,2,4.7,3.5c1.2,1.5,2,3.3,2.2,5.3h-4.3c-0.4-2-1.5-3.5-3.1-4.6
		c-1.6-1.1-3.6-1.7-6-1.7c-2.1,0-3.9,0.5-5.5,1.4c-1.6,1-2.8,2.3-3.7,4c-0.9,1.7-1.3,3.7-1.3,5.9c0,2.2,0.4,4.2,1.3,5.9
		c0.9,1.7,2.1,3,3.7,4c1.6,1,3.4,1.4,5.5,1.4c3,0,5.3-0.7,7.1-2.2c1.8-1.5,2.8-3.5,3.2-6.2h-11.5V96.5z"/>
	<path class="st2" d="M1091.2,108.9c-2.3-2.2-3.4-5.2-3.4-9.2V82.4h4.2v17.2c0,2.8,0.7,4.9,2.2,6.4c1.5,1.5,3.6,2.2,6.4,2.2
		s4.9-0.7,6.4-2.2c1.5-1.5,2.2-3.6,2.2-6.4V82.4h4.2v17.4c0,3.9-1.1,7-3.4,9.2s-5.4,3.3-9.4,3.3
		C1096.6,112.2,1093.5,111.1,1091.2,108.9z"/>
	<path class="st2" d="M1142,111.8h-21.4V82.4h4.2V108h17.2V111.8z"/>
	<path class="st2" d="M1174.4,111.8h-4.5l-2.5-6.2h-15.7l-2.5,6.2h-4.3l12.1-29.4h5.4L1174.4,111.8z M1159.5,86.4l-6.3,15.6h12.8
		l-6.3-15.6H1159.5z"/>
	<path class="st2" d="M1203.4,111.8h-4.7l-7.1-10.9h-8.7v10.9h-4.2V82.4h12.2c3.6,0,6.3,0.8,8.1,2.4c1.8,1.6,2.8,3.9,2.8,6.8
		c0,1.6-0.3,3-0.9,4.2c-0.6,1.2-1.4,2.2-2.3,2.9c-0.9,0.7-1.8,1.2-2.7,1.4L1203.4,111.8z M1190.8,97.1c2.1,0,3.7-0.5,4.8-1.4
		s1.7-2.3,1.7-4.1c0-1.8-0.6-3.1-1.7-4.1c-1.1-0.9-2.7-1.4-4.8-1.4h-8v10.9H1190.8z"/>
	<path class="st2" d="M1236.8,101.3h4v3.8h-4v6.7h-4.2v-6.7h-17v-3.9l15.6-18.8h5.6V101.3z M1220.2,101.1v0.2h12.4V86.4h-0.2
		L1220.2,101.1z"/>
	<path class="st2" d="M1250.7,110.3c-2-1.3-3.6-3-4.7-5.3c-1.1-2.3-1.7-4.9-1.7-7.9c0-3,0.6-5.6,1.7-7.9c1.1-2.3,2.7-4.1,4.7-5.3
		c2-1.3,4.3-1.9,6.9-1.9s4.9,0.6,6.9,1.9c2,1.3,3.6,3,4.7,5.3c1.1,2.3,1.7,4.9,1.7,7.9c0,3-0.6,5.6-1.7,7.9
		c-1.1,2.3-2.7,4.1-4.7,5.3c-2,1.3-4.3,1.9-6.9,1.9S1252.7,111.6,1250.7,110.3z M1262.3,107c1.3-0.9,2.4-2.3,3.1-4
		c0.7-1.7,1.1-3.7,1.1-6c0-2.3-0.4-4.3-1.1-6c-0.7-1.7-1.7-3-3.1-4c-1.3-0.9-2.9-1.4-4.7-1.4s-3.4,0.5-4.7,1.4
		c-1.3,0.9-2.4,2.3-3.1,4c-0.7,1.7-1.1,3.7-1.1,6c0,2.3,0.4,4.3,1.1,6c0.7,1.7,1.7,3,3.1,4c1.3,0.9,2.9,1.4,4.7,1.4
		S1260.9,108,1262.3,107z"/>
	<path class="st2" d="M1281.9,110.3c-2-1.3-3.6-3-4.7-5.3c-1.1-2.3-1.7-4.9-1.7-7.9c0-3,0.6-5.6,1.7-7.9c1.1-2.3,2.7-4.1,4.7-5.3
		c2-1.3,4.3-1.9,6.9-1.9s4.9,0.6,6.9,1.9c2,1.3,3.6,3,4.7,5.3c1.1,2.3,1.7,4.9,1.7,7.9c0,3-0.6,5.6-1.7,7.9
		c-1.1,2.3-2.7,4.1-4.7,5.3c-2,1.3-4.3,1.9-6.9,1.9S1284,111.6,1281.9,110.3z M1293.5,107c1.3-0.9,2.4-2.3,3.1-4
		c0.7-1.7,1.1-3.7,1.1-6c0-2.3-0.4-4.3-1.1-6c-0.7-1.7-1.7-3-3.1-4c-1.3-0.9-2.9-1.4-4.7-1.4s-3.4,0.5-4.7,1.4
		c-1.3,0.9-2.4,2.3-3.1,4c-0.7,1.7-1.1,3.7-1.1,6c0,2.3,0.4,4.3,1.1,6c0.7,1.7,1.7,3,3.1,4c1.3,0.9,2.9,1.4,4.7,1.4
		S1292.2,108,1293.5,107z"/>
</g>
</svg>
