<?xml version="1.0" encoding="utf-8"?>
<!-- Generator: Adobe Illustrator 22.0.0, SVG Export Plug-In . SVG Version: 6.00 Build 0)  -->
<svg version="1.1" id="Layer_1_copy" xmlns="http://www.w3.org/2000/svg" xmlns:xlink="http://www.w3.org/1999/xlink" x="0px"
	 y="0px" viewBox="0 0 2000 1305" style="enable-background:new 0 0 2000 1305;" xml:space="preserve">
<style type="text/css">
	.st0{opacity:0;fill:#FFFFFF;}
	.st1{fill:#2BC8B9;}
	.st2{fill:#5A656C;}
</style>
<rect class="st0" width="2000" height="1305"/>
<g>
	<path class="st1" d="M228.9,360.1H206l-6.3-14h-48l-6.3,14h-23l40.5-85.2h25.5L228.9,360.1z M159.4,329.3H192l-10.7-23.6
		c-1.7-4.1-2.9-7.4-3.6-10c-0.7-2.6-1-5.1-1-7.5v-0.4h-1.9v0.4c0,2.4-0.3,4.9-1,7.5c-0.7,2.6-1.9,6-3.6,10L159.4,329.3z"/>
	<path class="st1" d="M305,306.7c10.6,0,18.6,2.4,24,7.1s8.2,11.3,8.2,19.5s-2.7,14.8-8.2,19.5s-13.5,7.1-24,7.1h-60.6v-85.2h88
		v16.7h-67.8v15.2H305z M302.4,343.4c4.2,0,7.5-1,9.7-3c2.3-2,3.4-4.6,3.4-8c0-3.3-1.1-6-3.4-7.9c-2.3-1.9-5.5-2.9-9.7-2.9h-37v21.8
		H302.4z"/>
	<path class="st1" d="M432.2,316.6c6.7,0.6,11.8,2.7,15.4,6.3c3.6,3.6,5.4,8.3,5.4,14.2c0,7.3-2.5,13-7.6,17c-5.1,4-13.1,6-23.9,6
		h-65.1v-85.2h65.5c9.4,0,16.5,1.9,21.1,5.6c4.7,3.7,7,8.8,7,15.1c0,5.2-1.6,9.5-4.7,12.8c-3.1,3.4-7.5,5.3-13.1,5.9V316.6z
		 M377.4,291.5v17.9h39.7c3.7,0,6.4-0.8,8.3-2.4c1.9-1.6,2.9-3.8,2.9-6.5c0-2.8-1-5-2.9-6.6c-1.9-1.6-4.7-2.4-8.3-2.4H377.4z
		 M419.1,343.4c4.1,0,7.1-0.8,9.1-2.5c2-1.7,3-4,3-7c0-3-1-5.4-3-7.1c-2-1.7-5.1-2.6-9.1-2.6h-41.8v19.1H419.1z"/>
	<path class="st1" d="M493.6,360.1h-21.7v-85.2h77.7v18h-56V360.1z"/>
	<path class="st1" d="M654.9,342.4H668v38.4h-20.9v-20.7h-74.4v20.7h-20.9v-38.4h5.2c6.7,0,10.4-4.1,11.3-12.4l6.5-55.2h80.1V342.4z
		 M634,342.4v-49.9h-40.5l-3.9,35.3c-0.7,7.5-3,12.4-6.7,14.6H634z"/>
	<path class="st1" d="M769.5,274.8v17h-63v17.3H761v15.2h-54.4V343h63v17h-84.6v-85.2H769.5z"/>
	<path class="st1" d="M875.3,274.8v17h-63v17.3h54.4v15.2h-54.4V343h63v17h-84.6v-85.2H875.3z M806.5,262.8c-2-1.7-3-4-3-6.9
		c0-2.8,1-5,3-6.8c2-1.8,4.8-2.7,8.4-2.7c3.6,0,6.4,0.9,8.4,2.7c2,1.8,3,4.1,3,6.8c0,2.8-1,5.1-3,6.9c-2,1.7-4.8,2.6-8.4,2.6
		C811.3,265.5,808.5,264.6,806.5,262.8z M842.6,262.8c-2-1.7-3-4-3-6.9c0-2.8,1-5,3-6.8c2-1.8,4.8-2.7,8.4-2.7
		c3.6,0,6.4,0.9,8.4,2.7c2,1.8,3,4.1,3,6.8c0,2.8-1,5.1-3,6.9c-2,1.7-4.8,2.6-8.5,2.6C847.4,265.5,844.6,264.6,842.6,262.8z"/>
	<path class="st1" d="M996.7,315.9l40.8,44.2h-26.8L974,318.9v41.2h-20.8v-41.2l-36.8,41.2h-26.9l40.9-44.2l-38.5-41h25.9l35.3,38.7
		v-38.7H974v38.7l35.2-38.7h25.9L996.7,315.9z"/>
	<path class="st1" d="M1119.4,317c6.1,0.6,10.9,2.6,14.3,6.1c3.4,3.5,5.2,7.9,5.2,13.2c0,7.6-3.8,13.8-11.3,18.4
		c-7.5,4.6-19.8,6.9-37,6.9c-16.8,0-29-2.7-36.7-8c-7.6-5.3-11.4-12.5-11.4-21.5v-1.3h21.7v1.3c0,3.7,2.1,6.7,6.3,9.1
		c4.2,2.4,10.9,3.7,20.2,3.7c9.8,0,16.6-1,20.5-2.9c3.8-1.9,5.7-4.5,5.7-7.7c0-6.8-7.5-10.2-22.5-10.2h-20.7v-14.5h20.7
		c7.7,0,13.2-0.9,16.4-2.7c3.2-1.8,4.9-4.1,4.9-6.9c0-6.7-8.3-10.1-25-10.1c-8.8,0-15.3,1.2-19.2,3.6c-4,2.4-6,5.4-6,9v1h-21.7V302
		c0-8.8,3.8-15.7,11.3-20.9c7.5-5.2,19.4-7.8,35.6-7.8c11.2,0,20.3,1.1,27.3,3.2c7,2.2,12.1,5,15.1,8.5c3,3.5,4.6,7.3,4.6,11.6
		c0,5.1-1.6,9.3-4.7,12.5c-3.2,3.2-7.7,5.1-13.5,5.7V317z"/>
	<path class="st1" d="M1158.2,360.1v-85.2h20.8v49.9c0,4.8-0.3,8.8-0.8,12.2c-0.5,3.3-1.3,6.7-2.4,10.2h2.1l45.5-72.3h33.7v85.2
		h-20.8v-49.9c0-4.8,0.3-8.8,0.8-12.2c0.5-3.3,1.3-6.7,2.4-10.2h-2.1l-45.5,72.3H1158.2z"/>
	<path class="st1" d="M1280.9,360.1v-85.2h20.8v49.9c0,4.8-0.3,8.8-0.8,12.2c-0.5,3.3-1.3,6.7-2.4,10.2h2.1l45.5-72.3h33.7v85.2
		h-20.8v-49.9c0-4.8,0.3-8.8,0.8-12.2c0.5-3.3,1.3-6.7,2.4-10.2h-2.1l-45.5,72.3H1280.9z M1308.1,261.1c-5.4-4.1-8.5-9.8-9.3-17.1
		h17.5c0.4,2.9,1.9,5.3,4.5,7.1c2.6,1.8,6.4,2.7,11.4,2.7c5.1,0,9-0.9,11.6-2.7c2.6-1.8,4.1-4.1,4.6-7.1h17.4
		c-0.7,7.3-3.8,13-9.3,17.1c-5.5,4.1-13.6,6.1-24.3,6.1S1313.5,265.2,1308.1,261.1z"/>
	<path class="st1" d="M1449.6,315.9l46.8,44.2h-29l-42.1-41.4v41.4h-21.7v-85.2h21.7v39.1l40.7-39.1h28L1449.6,315.9z"/>
	<path class="st1" d="M1508.1,360v-18.1c1.9,0.7,3.8,1,5.6,1c3.9,0,6.8-0.9,8.6-2.8c1.9-1.9,3.1-5.1,3.7-9.7l6.5-55.4h83.8v85.2
		h-21.7v-67.2h-43.1l-4.5,41c-1.1,9.3-3.9,16.2-8.4,20.8c-4.5,4.6-11.1,6.9-19.6,6.9C1514.8,361.7,1511.2,361.1,1508.1,360z"/>
	<path class="st1" d="M1639.9,360.1v-85.2h33.7l20.6,45.9c1.9,5.4,2.8,9,2.8,10.7v1.1h1.9v-1.1c0-1.7,0.9-5.3,2.8-10.7l20.6-45.9
		h33.9v85.2h-20.9v-48.2c0-5.4,0.2-9.9,0.7-13.4c0.4-3.5,1.2-7.1,2.1-10.7h-2.1l-25.9,57.7H1686l-25.9-57.7h-2.1
		c1,3.7,1.7,7.2,2.1,10.7c0.4,3.5,0.7,8,0.7,13.4v48.2H1639.9z"/>
	<path class="st1" d="M1856,307v-32.1h21.7v85.2H1856V325h-54.4v35.1h-21.7v-85.2h21.7V307H1856z"/>
	<path class="st1" d="M299.2,488.9c-8.5-3.9-14.9-9.1-19.2-15.8c-4.3-6.7-6.5-14.2-6.5-22.6c0-8.4,2.2-16,6.5-22.6
		c4.3-6.7,10.8-11.9,19.2-15.8c8.5-3.9,18.8-5.8,30.9-5.8c12.1,0,22.4,1.9,30.9,5.8c8.5,3.9,14.9,9.1,19.2,15.8
		c4.3,6.7,6.5,14.2,6.5,22.6c0,8.4-2.2,16-6.5,22.6c-4.3,6.7-10.8,11.9-19.2,15.8c-8.5,3.9-18.8,5.8-30.9,5.8
		C317.9,494.7,307.6,492.7,299.2,488.9z M349.2,473.5c5.2-2.3,9.2-5.5,11.8-9.5c2.6-4,4-8.5,4-13.6c0-5-1.3-9.6-4-13.6
		c-2.6-4-6.6-7.2-11.8-9.5c-5.2-2.3-11.6-3.5-19.2-3.5c-7.5,0-13.9,1.2-19.2,3.5c-5.2,2.3-9.2,5.5-11.8,9.5c-2.6,4-4,8.5-4,13.6
		c0,5,1.3,9.6,4,13.6c2.6,4,6.6,7.2,11.8,9.5c5.2,2.3,11.6,3.5,19.2,3.5C337.6,477,344,475.8,349.2,473.5z"/>
	<path class="st1" d="M427.4,493.1h-21.7v-85.2h96v85.2H480v-67.2h-52.6V493.1z"/>
	<path class="st1" d="M580.1,407.8c11.8,0,20.7,2.6,26.7,7.9c6,5.2,9,12.4,9,21.6c0,9.2-3,16.4-9,21.7c-6,5.3-14.9,7.9-26.7,7.9H547
		v26.2h-21.7v-85.2H580.1z M579.2,449.5c4.9,0,8.6-1.1,11.1-3.3c2.5-2.2,3.8-5.2,3.8-8.9c0-3.7-1.3-6.7-3.8-8.8
		c-2.5-2.1-6.2-3.2-11.1-3.2h-33.4v24.2H579.2z"/>
	<path class="st1" d="M656.5,488.9c-8.4-3.8-14.7-9.1-19-15.8c-4.3-6.7-6.5-14.3-6.5-22.7c0-8.4,2.1-16,6.5-22.7
		c4.3-6.7,10.6-12,19-15.8c8.4-3.8,18.5-5.7,30.3-5.7c11.1,0,20.7,1.6,28.7,4.7c8,3.1,14.2,7.4,18.8,12.7s7.3,11.4,8.5,18.3H721
		c-1.2-5-4.7-9.3-10.4-12.8c-5.7-3.5-13.6-5.2-23.9-5.2c-7.2,0-13.4,1.2-18.6,3.5c-5.2,2.3-9,5.5-11.6,9.5c-2.6,4-3.9,8.5-3.9,13.6
		c0,5,1.3,9.6,3.9,13.6c2.6,4,6.5,7.2,11.6,9.5c5.2,2.3,11.3,3.5,18.6,3.5c10.2,0,18.2-1.7,23.9-5.2c5.7-3.5,9.1-7.8,10.4-12.8h21.7
		c-1.1,6.9-3.9,13-8.4,18.4c-4.5,5.4-10.7,9.6-18.7,12.7c-8,3.1-17.6,4.6-28.8,4.6C674.9,494.7,664.8,492.8,656.5,488.9z"/>
	<path class="st1" d="M809.5,493.1h-21.7v-67.2h-35.1v-18h91.8v18h-35.1V493.1z"/>
	<path class="st1" d="M930.4,407.8h24.7l-37.5,64.1c-4.5,7.6-9.4,13.3-14.9,17.1c-5.5,3.8-12.3,5.7-20.4,5.7
		c-5.1,0-9.7-0.7-13.9-2.1v-18c3.7,0.8,7.1,1.2,10.2,1.2c4.2,0,7.6-0.6,10.1-1.9c2.5-1.3,4.5-3.3,6.1-6.1L856,407.8h25.2l19.5,31.7
		c3.7,6.4,5.5,11.9,5.5,16.3v1.2h2.1v-1.2c0-2.4,0.4-4.8,1.2-7.4c0.8-2.6,2-5.6,3.7-8.9L930.4,407.8z"/>
	<path class="st1" d="M1077.9,470.1c-3.7,5.7-9.5,10.1-17.2,13.4c-7.8,3.2-17.4,4.9-28.9,5v8.9h-21.7v-8.9
		c-11.5-0.1-21.1-1.7-28.9-5c-7.7-3.2-13.4-7.7-17.2-13.4c-3.7-5.7-5.6-12.2-5.6-19.6c0-7.4,1.9-13.9,5.6-19.6
		c3.7-5.7,9.5-10.1,17.2-13.4c7.7-3.2,17.3-4.9,28.9-5v-8.9h21.7v8.9c11.5,0.1,21.2,1.7,28.9,5c7.8,3.2,13.5,7.7,17.2,13.4
		c3.7,5.7,5.6,12.2,5.6,19.6C1083.5,457.8,1081.7,464.4,1077.9,470.1z M987.4,465.9c5.1,3.9,12.8,5.8,23.1,5.8h0.6v-42.4h-0.6
		c-10.3,0-18,1.9-23.1,5.8c-5.1,3.9-7.7,9-7.7,15.4C979.8,456.9,982.3,462,987.4,465.9z M1031.4,471.6c10.3,0,18-1.9,23.1-5.8
		c5.1-3.9,7.6-9,7.6-15.4c0-6.4-2.5-11.5-7.6-15.4c-5.1-3.9-12.8-5.8-23.1-5.8h-0.6v42.4H1031.4z"/>
	<path class="st1" d="M1086.9,493.1l37.1-43.2l-35.9-42h26.8l18.4,21.7c1.9,2.7,3.4,5,4.3,6.8c0.9,1.9,1.3,3.6,1.3,5.2v1.5h2.1v-1.5
		c0-1.7,0.4-3.5,1.3-5.4c0.9-1.9,2.3-4.1,4.3-6.7l18.4-21.7h26.8l-35.9,42l37.1,43.2h-27.3l-19.8-23.4c-1.7-2.2-2.9-4.1-3.7-5.8
		c-0.8-1.7-1.2-3.3-1.2-5.1v-1.1h-2.1v1.1c0,1.6-0.4,3.3-1.2,4.9c-0.8,1.7-2,3.6-3.7,5.9l-19.8,23.4H1086.9z"/>
	<path class="st1" d="M1316.5,513.8h-20.9v-20.7h-86.9v-85.2h21.7v67.6h51.4v-67.6h21.7v67.6h13.2V513.8z"/>
	<path class="st1" d="M1397,407.8h21.7v85.2H1397v-29.6c-3.7,2.3-8.1,4-13,5.1c-4.9,1.1-10.7,1.7-17.5,1.7c-13.9,0-24.2-3.2-31-9.7
		c-6.8-6.5-10.2-16.1-10.2-29v-23.7h21.7v23.7c0,7,2,12.2,5.9,15.6c3.9,3.4,10.2,5.1,18.9,5.1c5.8,0,10.8-0.6,14.7-1.7
		c4-1.1,7.4-2.9,10.4-5.2V407.8z"/>
	<path class="st1" d="M1550,475.4v-67.6h21.7v85.2h-129.4v-85.2h21.7v67.6h32.6v-67.6h20.8v67.6H1550z"/>
	<path class="st1" d="M1724.8,407.8v67.6h13.2v38.4H1717v-20.7h-121.6v-85.2h21.7v67.6h32.6v-67.6h20.8v67.6h32.6v-67.6H1724.8z"/>
	<path class="st1" d="M699.6,566.4c11.6,0,20.5,2.7,26.5,8s9.1,12.7,9.1,21.9c0,9.2-3,16.4-9.1,21.7c-6.1,5.3-14.9,8-26.5,8h-54.8
		v-67.2h-22.5v-18h44.2v25.6H699.6z M698.6,608.7c4.9,0,8.6-1.1,11.2-3.3c2.6-2.2,3.9-5.2,3.9-9c0-3.8-1.3-6.9-3.9-9.1
		c-2.6-2.3-6.3-3.4-11.2-3.4h-33.1v24.8H698.6z"/>
	<path class="st1" d="M803.6,566.4c11.7,0,20.6,2.7,26.7,8c6.1,5.4,9.1,12.7,9.1,21.9c0,9.2-3.1,16.4-9.2,21.7c-6.1,5.3-15,8-26.6,8
		h-51.4v-85.2h21.7v25.6H803.6z M802.5,608.7c4.9,0,8.6-1.1,11.3-3.3c2.6-2.2,4-5.2,4-9c0-3.8-1.3-6.9-4-9.1
		c-2.6-2.3-6.4-3.4-11.3-3.4h-29.7v24.8H802.5z M850.8,626.1v-85.2h21.7v85.2H850.8z"/>
	<path class="st1" d="M951,566.4c11.6,0,20.5,2.7,26.5,8s9.1,12.7,9.1,21.9c0,9.2-3,16.4-9.1,21.7c-6.1,5.3-14.9,8-26.5,8h-54.8
		v-85.2h21.7v25.6H951z M949.9,608.7c4.9,0,8.6-1.1,11.2-3.3c2.6-2.2,3.9-5.2,3.9-9c0-3.8-1.3-6.9-3.9-9.1
		c-2.6-2.3-6.3-3.4-11.2-3.4h-33.1v24.8H949.9z"/>
	<path class="st1" d="M1087.6,545c8.4,3.8,14.8,9.1,19.1,15.8c4.3,6.7,6.5,14.3,6.5,22.7c0,8.4-2.2,16-6.5,22.7
		c-4.3,6.7-10.7,12-19.1,15.8c-8.4,3.8-18.5,5.7-30.4,5.7c-11,0-20.5-1.5-28.5-4.6c-8-3.1-14.2-7.2-18.7-12.4
		c-4.5-5.2-7.4-11-8.6-17.4h21.1c1.6,4.9,5.2,9,10.8,12.4c5.6,3.4,13.6,5.1,23.9,5.1c9.4,0,17-1.8,22.8-5.4
		c5.8-3.6,9.5-8.5,11.1-14.6h-45.7V576h45.7c-1.7-6.1-5.4-10.9-11.2-14.4c-5.8-3.5-13.3-5.3-22.6-5.3c-10.3,0-18.3,1.7-23.9,5.1
		c-5.6,3.4-9.2,7.5-10.8,12.4h-21.1c1.2-6.4,4.1-12.2,8.6-17.4c4.5-5.2,10.7-9.3,18.7-12.4c8-3.1,17.5-4.6,28.5-4.6
		C1069.1,539.3,1079.2,541.2,1087.6,545z"/>
	<path class="st1" d="M1247.5,545c8,3.9,14.1,9.1,18.3,15.8c4.2,6.7,6.3,14.2,6.3,22.6c0,8.4-2.1,15.9-6.3,22.6
		c-4.2,6.7-10.3,12-18.3,15.8c-8,3.9-17.5,5.8-28.4,5.8c-9.7,0-18.3-1.5-25.8-4.6c-7.4-3-13.4-7.3-17.9-12.7
		c-4.5-5.4-7.4-11.6-8.7-18.6h-13v34.2H1132v-85.2h21.7v33.9h13.2c1.4-7,4.3-13.1,8.8-18.4c4.5-5.3,10.5-9.5,17.8-12.5
		c7.4-3,15.9-4.5,25.6-4.5C1230,539.3,1239.5,541.2,1247.5,545z M1235.6,606.5c4.8-2.3,8.5-5.5,11-9.5c2.5-4,3.8-8.5,3.8-13.6
		c0-5-1.3-9.6-3.8-13.6c-2.5-4-6.2-7.2-11-9.5c-4.8-2.3-10.5-3.5-17-3.5c-6.5,0-12.1,1.2-16.9,3.5c-4.8,2.3-8.4,5.5-11,9.5
		c-2.5,4-3.8,8.5-3.8,13.6c0,5,1.3,9.6,3.8,13.6c2.5,4,6.2,7.2,11,9.5c4.8,2.3,10.4,3.5,16.9,3.5
		C1225.1,610,1230.7,608.8,1235.6,606.5z"/>
	<path class="st1" d="M1377.7,540.8v85.2H1356v-29.6h-23.1c-4.1,0-7.2,0.5-9.3,1.6c-2.1,1.1-3.8,3.1-5.1,6l-9.3,21.9h-25.8l8-17.5
		c2.4-5,4.9-8.5,7.5-10.5c2.7-1.9,6.3-3,10.7-3.2v-2.1c-4.1-0.3-7.8-1.6-11.1-3.9c-3.3-2.3-6-5.3-7.9-9c-1.9-3.7-2.9-7.8-2.9-12.4
		c0-8,3-14.5,8.9-19.4c5.9-4.9,14.5-7.4,25.7-7.4H1377.7z M1357.1,582.9v-25h-32.5c-5,0-8.7,1.1-11.3,3.3c-2.6,2.2-3.8,5.3-3.8,9.1
		c0,3.8,1.3,6.9,3.8,9.1c2.6,2.3,6.3,3.4,11.3,3.4H1357.1z"/>
	<path class="st1" d="M490.9,887.9c-7.4-3.8-13.1-9.1-17-15.8c-4-6.7-6-14.3-6-22.6c0-8.4,2-15.9,6-22.6c4-6.7,9.7-12,17-15.8
		c7.4-3.8,16-5.7,25.7-5.7c9.7,0,18.3,1.9,25.7,5.7c7.4,3.8,13.1,9.1,17,15.8c4,6.7,6,14.3,6,22.6c0,8.4-2,15.9-6,22.6
		c-4,6.7-9.7,12-17,15.8c-7.4,3.8-16,5.7-25.7,5.7C506.9,893.7,498.3,891.8,490.9,887.9z M530.8,872.7c4.1-2.2,7.3-5.4,9.5-9.4
		c2.2-4,3.3-8.6,3.3-13.8c0-5.2-1.1-9.8-3.3-13.8c-2.2-4-5.4-7.1-9.5-9.4c-4.1-2.2-8.8-3.3-14.2-3.3c-5.4,0-10.1,1.1-14.2,3.3
		c-4.1,2.2-7.3,5.4-9.5,9.4c-2.2,4-3.3,8.6-3.3,13.8c0,5.2,1.1,9.8,3.3,13.8c2.2,4,5.4,7.1,9.5,9.4c4.1,2.2,8.8,3.3,14.2,3.3
		C522,876,526.7,874.9,530.8,872.7z"/>
	<path class="st1" d="M634.4,874.4h28v17.7h-81.6v-17.7h32.3v-21.2c0-4.7,0.5-9,1.6-12.8c1.1-3.9,2.8-8.9,5.4-15.2H618
		c-2.3,5.7-4.7,10.1-7.3,13.4c-2.6,3.2-5.7,5.6-9.4,7.2c-3.7,1.5-8.2,2.3-13.8,2.3h-2.1v-18h5.4c8.1,0,14.2-1.9,18.1-5.7
		c4-3.8,6-9.4,6-16.9v-0.7h19.5V874.4z"/>
	<path class="st1" d="M698.8,876h70.9v16.1h-91.8v-15.7c0-8.4,2.1-14.7,6.4-18.9c4.3-4.3,9.4-7,15.3-8.3c6-1.3,13.6-2.2,23-2.7
		c6.4-0.4,11.4-0.9,15-1.5c3.6-0.6,6.6-1.7,9-3.3c2.4-1.7,3.6-4.1,3.6-7.4c0-8.4-8.6-12.5-25.9-12.5c-8.9,0-15.5,1.5-19.7,4.4
		c-4.2,2.9-6.3,6.8-6.3,11.7v2.6h-21.7v-2.9c0-9.8,3.9-17.6,11.6-23.4c7.8-5.8,19.7-8.7,36-8.7c16.5,0,28.5,2.6,36.2,7.7
		c7.6,5.2,11.4,12,11.4,20.4c0,7.5-2,13.1-5.9,16.7c-3.9,3.7-8.7,6.1-14.2,7.2c-5.5,1.1-12.8,2-21.8,2.6c-7.2,0.5-12.9,1.1-16.9,1.8
		c-4.1,0.7-7.4,2.1-10.2,4.1c-2.7,2.1-4.1,5.2-4.1,9.3V876z"/>
	<path class="st1" d="M845.6,839.6c25.1,0.7,37.6,9.4,37.6,26.3c0,8.4-3.8,15.2-11.4,20.2c-7.6,5-19.8,7.5-36.6,7.5
		c-17.1,0-29.4-2.6-36.7-7.7c-7.3-5.2-11-12.6-11-22.2v-2.1h21.7v1.7c0,4.5,1.9,8,5.7,10.4c3.8,2.4,10.6,3.5,20.3,3.5
		c9.7,0,16.5-1.1,20.4-3.3c3.9-2.2,5.9-5.2,5.9-9c0-8.1-8.2-12.2-24.5-12.2h-19.5v-11.4l41.6-21.2V818c-9.6,3.9-19.5,5.8-29.8,5.8
		h-38.2v-17h87.7v16.1L845.6,839.6z"/>
	<path class="st1" d="M978,860.2H995V877H978v15.1h-21.7V877h-58.2v-16.4l46.9-53.7h33V860.2z M924.1,858.2v1.9h33.5v-24.6
		c0-3.9,0.3-7.4,0.8-10.6c0.5-3.2,1.3-6.6,2.4-10.2h-1.9c-1.4,3.5-2.9,6.6-4.4,9.2c-1.6,2.6-3.6,5.3-5.9,8.1L924.1,858.2z"/>
	<path class="st1" d="M1021.7,886.2c-7.3-5-11-11.7-11-20.2v-1.3h21.7v0.7c0,3.5,1.9,6.3,5.7,8.5c3.8,2.2,10.1,3.3,19.1,3.3
		c8.8,0,15.1-1.3,19-3.8c3.9-2.5,5.8-5.8,5.8-10c0-9.2-8.5-13.8-25.5-13.8c-8,0-13.9,0.8-17.8,2.3c-3.9,1.5-6.6,3.3-8,5.4h-21.1
		l6-50.5h85.4v16.1h-69.4l-3.2,24.6h1.8c4.6-8.1,15.8-12.2,33.6-12.2c13.7,0,23.8,2.5,30.2,7.5c6.4,5,9.6,12,9.6,20.9
		c0,9.5-3.7,16.9-11,22.1c-7.3,5.2-19.2,7.9-35.7,7.9C1040.8,893.7,1029.1,891.2,1021.7,886.2z"/>
	<path class="st1" d="M1141.9,889c-7.5-3.1-12.9-7.9-16.4-14.4c-3.5-6.5-5.2-14.9-5.2-25.1c0-14.9,3.9-25.9,11.7-33.2
		c7.8-7.3,20-11,36.7-11c11,0,20.1,1.2,27.2,3.7c7.1,2.5,12.2,5.8,15.5,10c3.2,4.2,4.9,9,4.9,14.4v1.1h-21.7V834c0-3.7-2-6.7-6-9.1
		c-4-2.4-10.3-3.6-19-3.6c-10,0-17.3,2.2-22,6.5c-4.7,4.3-7,10.9-7,19.5c0,1.9,0,3.5,0.1,4.7h1.8c3.5-8.9,15.2-13.4,35.2-13.4
		c13.3,0,23.3,2.4,29.8,7.3c6.6,4.9,9.9,11.3,9.9,19.2c0,8.8-3.7,15.7-11,20.8c-7.3,5.1-19,7.6-35.2,7.6
		C1159.1,893.7,1149.4,892.1,1141.9,889z M1189.6,874.1c4-2.4,6-5.4,6-9c0-3.6-2-6.5-6.1-8.8c-4.1-2.3-10.8-3.5-20.2-3.5
		c-9.4,0-16.2,1.2-20.2,3.5c-4.1,2.3-6.1,5.3-6.1,8.8c0,3.7,2,6.7,6.1,9c4.1,2.4,10.9,3.5,20.4,3.5
		C1178.9,877.6,1185.6,876.4,1189.6,874.1z"/>
	<path class="st1" d="M1252.3,889.2c0-15,3.5-27.8,10.4-38.4c6.9-10.6,18.3-18.6,34-23.9v-1.9h-65.4v-18h85.4v19.8
		c-15,5.5-25.8,13.3-32.2,23.4c-6.5,10.1-9.7,23.1-9.7,39v2.9h-22.5V889.2z"/>
	<path class="st1" d="M1404,848.7c7,0.2,12.6,2.1,16.9,5.7c4.3,3.6,6.4,8.4,6.4,14.4c0,7.8-3.7,13.9-11,18.3
		c-7.3,4.4-19.9,6.6-37.7,6.6s-30.3-2.2-37.7-6.6c-7.3-4.4-11-10.5-11-18.3c0-6,2.1-10.8,6.4-14.4c4.3-3.6,9.9-5.5,16.9-5.7v-2.1
		c-6.3-0.1-11.4-1.8-15.2-5.3c-3.8-3.4-5.7-7.9-5.7-13.3c0-6.8,3.6-12.3,10.7-16.5c7.1-4.2,19-6.3,35.6-6.3s28.4,2.1,35.6,6.3
		c7.1,4.2,10.7,9.7,10.7,16.5c0,5.4-1.9,9.9-5.7,13.3c-3.8,3.5-8.8,5.2-15.2,5.3V848.7z M1399.7,874.3c3.9-1.9,5.9-4.6,5.9-7.9
		c0-3.4-1.9-6.1-5.8-8c-3.9-1.9-11-2.9-21.2-2.9s-17.3,1-21.2,2.9c-3.9,1.9-5.8,4.6-5.8,8.1c0,3.3,1.9,6,5.8,7.9
		c3.9,1.9,11,2.9,21.2,2.9C1388.7,877.2,1395.7,876.2,1399.7,874.3z M1359.3,824.4c-3.6,1.8-5.4,4.2-5.4,7.3c0,3.2,1.8,5.6,5.4,7.4
		c3.6,1.8,10,2.7,19.2,2.7c9.3,0,15.7-0.9,19.2-2.7c3.6-1.8,5.4-4.3,5.4-7.4c0-3.1-1.8-5.5-5.4-7.3c-3.6-1.8-10-2.7-19.2-2.7
		C1369.3,821.7,1362.9,822.6,1359.3,824.4z"/>
	<path class="st1" d="M1465.3,890c-7.1-2.4-12.3-5.7-15.5-9.7c-3.2-4.1-4.9-8.6-4.9-13.5v-1.1h21.7v0.5c0,1.9,0.8,3.8,2.5,5.5
		c1.7,1.7,4.4,3.1,8.1,4.3c3.7,1.1,8.5,1.7,14.4,1.7c9.9,0,17.2-2.1,21.9-6.3c4.7-4.2,7.1-10.4,7.1-18.5c0-1.9,0-3.5-0.1-4.7h-1.8
		c-3.5,8.9-15.2,13.4-35.2,13.4c-13.4,0-23.4-2.5-29.9-7.4c-6.5-5-9.8-11.5-9.8-19.7c0-9,3.7-16.1,11-21.3c7.3-5.2,19-7.7,35.1-7.7
		c12,0,21.8,1.6,29.2,4.7c7.5,3.1,13,7.9,16.5,14.4c3.5,6.5,5.3,14.9,5.3,25.1c0,14.9-3.9,25.9-11.7,33.2c-7.8,7.3-20,11-36.7,11
		C1481.4,893.7,1472.4,892.4,1465.3,890z M1511.9,843.9c4-2.4,6-5.5,6-9.4c0-4-2-7.2-6.1-9.6c-4.1-2.4-10.9-3.6-20.5-3.6
		c-9.3,0-16,1.2-20,3.6c-4,2.4-6,5.6-6,9.6c0,3.9,2,7,6.1,9.4c4.1,2.4,10.8,3.5,20.2,3.5C1501.2,847.4,1507.9,846.2,1511.9,843.9z"
		/>
	<path class="st1" d="M454,1158.1v-85.2h33.9l44.6,72.3h1.9c-1.1-3.5-1.8-6.9-2.4-10.2c-0.5-3.3-0.8-7.4-0.8-12.2v-49.9h20.9v85.2
		h-34l-44.4-72.3h-2.1c1.1,3.5,1.8,6.9,2.4,10.2c0.5,3.3,0.8,7.4,0.8,12.2v49.9H454z M571.5,1137.5c-3.6-1.9-6.4-4.5-8.3-7.8
		c-1.9-3.3-2.9-7.1-2.9-11.3c0-4.2,1-8,2.9-11.3c1.9-3.3,4.7-5.9,8.3-7.7c3.6-1.9,7.9-2.8,12.7-2.8s9.1,0.9,12.8,2.8
		c3.7,1.9,6.5,4.4,8.4,7.7c1.9,3.3,2.9,7,2.9,11.3c0,4.2-1,8-2.9,11.3c-1.9,3.3-4.7,5.9-8.4,7.8c-3.7,1.9-7.9,2.8-12.8,2.8
		S575.2,1139.4,571.5,1137.5z M607.2,1158.1h-45.7v-11.8h45.7V1158.1z M592.4,1125.9c2-1.9,3-4.4,3-7.5c0-3-1-5.5-3-7.4
		c-2-1.9-4.7-2.9-8-2.9c-3.3,0-6,1-8,2.9c-2,1.9-3,4.4-3,7.4c0,3.1,1,5.6,3,7.5c2,1.9,4.6,2.9,8,2.9
		C587.7,1128.7,590.4,1127.8,592.4,1125.9z"/>
	<path class="st1" d="M628.5,1156.7c-2.1-2-3.1-4.5-3.1-7.6c0-3.1,1-5.6,3.1-7.6c2.1-2,4.8-3,8.2-3s6.2,1,8.3,3
		c2.1,2,3.2,4.5,3.2,7.6c0,3.1-1.1,5.6-3.2,7.6c-2.1,2-4.9,3-8.3,3S630.6,1158.7,628.5,1156.7z M643.5,1131.2h-13.4l-3.7-21.9v-36.4
		h20.8v36.4L643.5,1131.2z"/>
	<path class="st1" d="M693.1,1128.4c0-4.6,1-8.3,3-11.1c2-2.8,4.3-4.9,7.1-6.3c2.7-1.4,6.3-2.8,10.7-4.1c4.3-1.3,7.4-2.6,9.4-3.8
		c2-1.2,3-3,3-5.5c0-3-1.5-5.3-4.5-7c-3-1.7-8.2-2.5-15.7-2.5c-14.5,0-21.7,4.3-21.7,12.9v1.5h-21.1v-1.8c0-19.6,14-29.3,42-29.3
		c14.8,0,25.5,2.2,32.1,6.5c6.6,4.3,9.9,10.1,9.9,17.4c0,4.7-0.9,8.5-2.8,11.4c-1.9,2.9-4.1,5.1-6.7,6.6c-2.6,1.5-6,3-10.2,4.5
		c-3.2,1.2-5.6,2.3-7.3,3.1s-3.1,2-4.3,3.5c-1.2,1.5-1.8,3.3-1.8,5.5v1.5h-21.1V1128.4z M695.3,1156.7c-2.1-2-3.2-4.5-3.2-7.6
		c0-3.1,1.1-5.6,3.2-7.6c2.1-2,4.9-3,8.3-3c3.4,0,6.1,1,8.2,3c2.1,2,3.1,4.5,3.1,7.6c0,3.1-1,5.6-3.1,7.6c-2.1,2-4.8,3-8.2,3
		C700.1,1159.7,697.4,1158.7,695.3,1156.7z"/>
	<path class="st1" d="M829.7,1072.8c11.6,0,20.4,2.5,26.4,7.6c6,5.1,9,11.9,9,20.4c0,8.5-3,15.3-8.9,20.2c-5.9,5-14.8,7.4-26.5,7.4
		h-33.5v7.5h30.4v11h-30.4v11.1h-21.7V1147H757v-11h17.5v-7.5H757v-14.6h17.5v-41H829.7z M829,1113.9c4.7,0,8.3-1.1,10.8-3.2
		c2.5-2.1,3.7-5,3.7-8.6s-1.2-6.5-3.7-8.6c-2.5-2.1-6.1-3.2-10.8-3.2h-33.9v23.6H829z"/>
	<path class="st1" d="M927.6,1183c-9.7-2-18-6-25-11.8c-7-5.8-12.4-13.4-16.2-22.6c-3.8-9.3-5.7-19.9-5.7-31.9
		c0-12,1.9-22.6,5.7-31.9c3.8-9.3,9.2-16.8,16.2-22.6c7-5.8,15.4-9.8,25-11.8v17.4c-8.9,3.5-15.8,9.3-20.6,17.5
		c-4.8,8.2-7.2,18.7-7.2,31.5c0,12.8,2.4,23.3,7.2,31.5c4.8,8.2,11.6,14,20.6,17.5V1183z"/>
	<path class="st1" d="M942.1,1165.6c8.9-3.5,15.8-9.3,20.6-17.5c4.8-8.2,7.2-18.7,7.2-31.5c0-12.8-2.4-23.3-7.2-31.5
		c-4.8-8.2-11.6-14-20.6-17.5v-17.4c9.7,2,18,6,25.1,11.8s12.5,13.4,16.3,22.6c3.8,9.3,5.7,19.9,5.7,31.9c0,12-1.9,22.6-5.7,31.9
		c-3.8,9.3-9.2,16.8-16.3,22.6s-15.4,9.8-25.1,11.8V1165.6z"/>
	<path class="st1" d="M1104.2,1147.6l-9.9,12.1l-10.1-8.4c-3.6,2.5-8.4,4.5-14.4,6.1c-6,1.5-13.2,2.3-21.6,2.3
		c-15,0-26-2.5-32.9-7.5c-6.9-5-10.3-12-10.3-20.8c0-13.7,8.3-22.2,24.8-25.5l-20-16.6v-16.4h77.2v15.2h-51.5v2.1l39.3,33v-19.2
		h16.4v33L1104.2,1147.6z M1070.8,1140.1l-28.3-23.6c-6.7,0.7-11.5,2.1-14.4,4.4c-2.8,2.3-4.3,5.2-4.3,8.9c0,4.4,2,7.8,5.9,10.2
		c3.9,2.4,10.6,3.7,20,3.7C1059.3,1143.6,1066.3,1142.4,1070.8,1140.1z"/>
	<path class="st1" d="M1120.4,1112c-3.7-1.9-6.5-4.5-8.4-7.8c-1.9-3.3-2.9-7.1-2.9-11.2c0-4.1,1-7.9,2.9-11.2
		c1.9-3.3,4.7-5.9,8.4-7.8c3.7-1.9,7.9-2.8,12.8-2.8c4.8,0,9,0.9,12.7,2.8c3.7,1.9,6.5,4.5,8.4,7.8c1.9,3.3,2.9,7.1,2.9,11.2
		c0,4.1-1,7.9-2.9,11.2c-1.9,3.3-4.7,5.9-8.4,7.8c-3.7,1.9-7.9,2.8-12.7,2.8C1128.3,1114.8,1124.1,1113.9,1120.4,1112z
		 M1136.9,1158.1h-15.6l63.3-85.2h15.6L1136.9,1158.1z M1141.2,1100.5c2.1-1.9,3.1-4.4,3.1-7.4c0-3-1-5.5-3.1-7.4s-4.7-2.9-8-2.9
		c-3.3,0-6,1-8,2.9c-2,1.9-3,4.4-3,7.4c0,3,1,5.5,3,7.4c2,1.9,4.7,2.9,8,2.9C1136.5,1103.4,1139.1,1102.4,1141.2,1100.5z
		 M1175.6,1156.9c-3.7-1.9-6.5-4.5-8.4-7.8c-1.9-3.3-2.9-7.1-2.9-11.2c0-4.1,1-7.9,2.9-11.2c1.9-3.3,4.7-5.9,8.4-7.8
		c3.7-1.9,7.9-2.8,12.8-2.8c4.8,0,9,0.9,12.7,2.8c3.7,1.9,6.5,4.5,8.4,7.8c1.9,3.3,2.9,7.1,2.9,11.2c0,4.1-1,7.9-2.9,11.2
		c-1.9,3.3-4.7,5.9-8.4,7.8s-7.9,2.8-12.7,2.8C1183.5,1159.7,1179.2,1158.7,1175.6,1156.9z M1196.3,1145.3c2-1.9,3-4.4,3-7.4
		c0-3-1-5.5-3-7.4c-2-1.9-4.7-2.9-7.9-2.9c-3.3,0-6,1-8,2.9c-2,1.9-3,4.4-3,7.4c0,3,1,5.5,3,7.4c2,1.9,4.7,2.9,8,2.9
		C1191.6,1148.2,1194.3,1147.2,1196.3,1145.3z"/>
	<path class="st1" d="M1255.1,1162.5c-9.2-4.6-16.3-11-21.2-19.1c-5-8.1-7.4-17.2-7.4-27.3c0-10.1,2.5-19.3,7.4-27.3
		c5-8.1,12.1-14.4,21.6-19.1c9.4-4.6,20.5-6.9,33.2-6.9c12.7,0,23.8,2.3,33.2,6.8c9.4,4.5,16.5,10.7,21.5,18.6
		c5,7.8,7.4,16.5,7.4,26.1c0,9.3-2,16.2-6.1,20.9c-4.1,4.7-9.7,7.1-16.9,7.1c-10.5,0-17-3.9-19.5-11.8h-1.7
		c-1.7,3.6-4.4,6.4-8.2,8.6c-3.7,2.2-8.6,3.2-14.6,3.2c-8.3,0-14.8-2.4-19.7-7.1c-4.8-4.7-7.2-11.1-7.2-19.1c0-8,2.4-14.3,7.2-19.1
		c4.8-4.7,11.3-7.1,19.4-7.1c5.5,0,10.1,1.1,13.7,3.3c3.6,2.2,6.1,4.8,7.5,7.9h1.9l-2.8-10h13.8v28.5c0,3,0.8,5.3,2.3,6.9
		c1.5,1.6,3.6,2.4,6.4,2.4c3.1,0,5.4-1.1,7-3.3c1.6-2.2,2.4-6,2.4-11.3c0-7.1-1.8-13.6-5.5-19.4c-3.7-5.8-9.1-10.4-16.2-13.7
		c-7.1-3.3-15.5-5-25.3-5c-9.8,0-18.3,1.7-25.3,5.1c-7.1,3.4-12.4,8.1-16.1,14.1c-3.7,6-5.5,12.9-5.5,20.7c0,7.7,1.8,14.6,5.5,20.6
		c3.7,6,8.9,10.8,15.8,14.2c6.9,3.4,15.1,5.1,24.6,5.1c5.7,0,10.7-0.5,15-1.4c4.3-0.9,8.4-2.3,12.2-4l6.1,11.2
		c-7.3,5-18.4,7.5-33.2,7.5C1275.1,1169.4,1264.3,1167.1,1255.1,1162.5z M1298.4,1125.4c2.6-2.3,4-5.4,4-9.3s-1.3-7-4-9.3
		c-2.6-2.3-6.4-3.5-11.1-3.5c-4.9,0-8.6,1.2-11.3,3.5c-2.6,2.3-4,5.4-4,9.3s1.3,7,4,9.3c2.6,2.3,6.4,3.5,11.3,3.5
		C1292.1,1128.9,1295.8,1127.7,1298.4,1125.4z"/>
	<path class="st1" d="M1368.7,1112.9c-2.1-2-3.2-4.5-3.2-7.5c0-3.1,1.1-5.6,3.2-7.7c2.1-2,4.8-3,8.2-3c3.4,0,6.2,1,8.3,3
		c2.1,2,3.2,4.6,3.2,7.7c0,3-1.1,5.5-3.2,7.5c-2.2,2-4.9,3-8.2,3C1373.5,1115.9,1370.8,1114.9,1368.7,1112.9z M1368.6,1156.7
		c-2.1-2-3.1-4.5-3.1-7.6c0-3.1,1-5.6,3.1-7.6c2.1-2,4.8-3,8.2-3c3.4,0,6.2,1,8.3,3c2.1,2,3.2,4.5,3.2,7.6c0,3.1-1.1,5.6-3.2,7.6
		c-2.1,2-4.9,3-8.3,3C1373.5,1159.7,1370.7,1158.7,1368.6,1156.7z"/>
	<path class="st1" d="M1422.5,1141.9c2.1,2.3,3.2,5.7,3.2,10.3c0,9.2-2.3,16.4-6.8,21.6c-4.5,5.2-10.5,7.8-18.1,7.8v-14h1.5
		c4.6,0,8.1-0.7,10.5-2.1c2.4-1.4,3.9-3.5,4.6-6.2c-1,0.2-2,0.4-3.2,0.4c-3.4,0-6.1-1-8.2-3s-3.1-4.5-3.1-7.6c0-3.1,1-5.6,3-7.6
		c2-2,4.6-3,7.7-3C1417.5,1138.5,1420.4,1139.6,1422.5,1141.9z M1406.1,1112.9c-2.1-2-3.2-4.5-3.2-7.5c0-3.1,1.1-5.6,3.2-7.7
		c2.1-2,4.8-3,8.2-3c3.4,0,6.2,1,8.3,3c2.1,2,3.2,4.6,3.2,7.7c0,3-1.1,5.5-3.2,7.5c-2.2,2-4.9,3-8.2,3
		C1410.9,1115.9,1408.2,1114.9,1406.1,1112.9z"/>
	<path class="st1" d="M1454.1,1172.7h-18.4l47.9-99.9h18.4L1454.1,1172.7z"/>
	<path class="st1" d="M1500.8,1156.7c-2.1-2-3.1-4.5-3.1-7.6c0-3.1,1-5.6,3.1-7.6c2.1-2,4.8-3,8.2-3c3.4,0,6.2,1,8.3,3
		c2.1,2,3.2,4.5,3.2,7.6c0,3.1-1.1,5.6-3.2,7.6c-2.1,2-4.9,3-8.3,3C1505.6,1159.7,1502.9,1158.7,1500.8,1156.7z"/>
	<path class="st1" d="M1556.7,1141.9c2.1,2.3,3.2,5.7,3.2,10.3c0,9.2-2.3,16.4-6.8,21.6c-4.5,5.2-10.5,7.8-18.1,7.8v-14h1.5
		c4.6,0,8.1-0.7,10.5-2.1c2.4-1.4,3.9-3.5,4.6-6.2c-1,0.2-2,0.4-3.2,0.4c-3.4,0-6.1-1-8.2-3s-3.1-4.5-3.1-7.6c0-3.1,1-5.6,3-7.6
		c2-2,4.6-3,7.7-3C1551.7,1138.5,1554.6,1139.6,1556.7,1141.9z"/>
</g>
<g>
	<path class="st2" d="M704.3,111.8h-6.2l-2.6-5.4H677l-2.6,5.4h-6.2l14.6-29.4h6.8L704.3,111.8z M679.2,101.8h14.1L688.1,91
		c-1-2.1-1.5-3.8-1.5-5v-0.1H686V86c0,1.2-0.5,2.9-1.5,5L679.2,101.8z"/>
	<path class="st2" d="M723.5,109.4c-2.7-2-4.1-4.6-4.1-8v-0.6h5.9v0.5c0,4.4,3.8,6.6,11.3,6.6c4.3,0,7.2-0.4,8.9-1.2
		c1.6-0.8,2.4-1.9,2.4-3.3c0-1.2-0.5-2.2-1.6-2.8c-1-0.6-2.4-1.1-3.9-1.3c-1.6-0.2-3.7-0.4-6.5-0.5c-3.5-0.2-6.3-0.4-8.5-0.8
		c-2.2-0.4-4-1.1-5.5-2.2c-1.5-1.1-2.3-2.9-2.3-5.1c0-5.8,5.7-8.7,17-8.7c5.9,0,10.2,1,12.9,2.9c2.7,1.9,4.1,4.5,4.1,7.7v0.3h-5.9
		v-0.3c0-1.8-0.9-3.3-2.6-4.4c-1.7-1.1-4.6-1.7-8.5-1.7c-4.1,0-7,0.4-8.7,1.2c-1.6,0.8-2.5,1.9-2.5,3.2c0,1.1,0.5,1.9,1.5,2.4
		c1,0.5,2.2,0.9,3.7,1.1c1.5,0.2,3.5,0.3,6.2,0.4c3.6,0.1,6.5,0.4,8.8,0.8c2.3,0.4,4.2,1.2,5.8,2.4c1.6,1.2,2.4,3,2.4,5.4
		c0,2.8-1.3,5-3.9,6.6c-2.6,1.6-7.1,2.4-13.3,2.4C730.6,112.3,726.2,111.3,723.5,109.4z"/>
	<path class="st2" d="M791.9,111.8h-6.2l-2.6-5.4h-18.5l-2.6,5.4h-6.2l14.6-29.4h6.8L791.9,111.8z M766.8,101.8h14.1L775.6,91
		c-1-2.1-1.5-3.8-1.5-5v-0.1h-0.6V86c0,1.2-0.5,2.9-1.5,5L766.8,101.8z"/>
	<path class="st2" d="M796,111.8V82.4h9.1l19.1,25.9h0.6c-0.3-1.2-0.5-2.3-0.7-3.2c-0.1-1-0.2-2.2-0.2-3.6V82.4h5.6v29.4h-9.1
		l-19.1-25.9h-0.6c0.3,1.2,0.5,2.3,0.7,3.2c0.1,1,0.2,2.2,0.2,3.6v19.1H796z"/>
	<path class="st2" d="M840,109.4c-2.7-2-4.1-4.6-4.1-8v-0.6h5.9v0.5c0,4.4,3.8,6.6,11.3,6.6c4.3,0,7.2-0.4,8.9-1.2
		c1.6-0.8,2.4-1.9,2.4-3.3c0-1.2-0.5-2.2-1.6-2.8c-1-0.6-2.4-1.1-3.9-1.3c-1.6-0.2-3.7-0.4-6.5-0.5c-3.5-0.2-6.3-0.4-8.5-0.8
		c-2.2-0.4-4-1.1-5.5-2.2c-1.5-1.1-2.3-2.9-2.3-5.1c0-5.8,5.7-8.7,17-8.7c5.9,0,10.2,1,12.9,2.9c2.7,1.9,4.1,4.5,4.1,7.7v0.3h-5.9
		v-0.3c0-1.8-0.9-3.3-2.6-4.4c-1.7-1.1-4.6-1.7-8.5-1.7c-4.1,0-7,0.4-8.7,1.2c-1.6,0.8-2.5,1.9-2.5,3.2c0,1.1,0.5,1.9,1.5,2.4
		c1,0.5,2.2,0.9,3.7,1.1c1.5,0.2,3.5,0.3,6.2,0.4c3.6,0.1,6.5,0.4,8.8,0.8c2.3,0.4,4.2,1.2,5.8,2.4c1.6,1.2,2.4,3,2.4,5.4
		c0,2.8-1.3,5-3.9,6.6c-2.6,1.6-7.1,2.4-13.3,2.4C847.1,112.3,842.8,111.3,840,109.4z"/>
	<path class="st2" d="M903.7,111.8h-5.8V87.3h-12.7v-4.9h31.3v4.9h-12.7V111.8z"/>
	<path class="st2" d="M945.4,111.8h-25.3V107h9.7V87.2h-9.7v-4.8h25.3v4.8h-9.7V107h9.7V111.8z"/>
	<path class="st2" d="M967.7,111.8h-5.8V87.3h-12.7v-4.9h31.3v4.9h-12.7V111.8z"/>
	<path class="st2" d="M1011.5,111.8h-27V82.4h5.8v24.5h21.1V111.8z"/>
	<path class="st2" d="M1044.7,82.4v4.7h-22.8v7.6h19.9V99h-19.9v8h22.8v4.7h-28.6V82.4H1044.7z"/>
	<path class="st2" d="M1088.5,96.9c2.2,0.2,3.9,0.9,5.2,2.1c1.2,1.2,1.8,2.9,1.8,4.9c0,2.5-0.9,4.5-2.6,5.8
		c-1.7,1.4-4.5,2.1-8.2,2.1h-22V82.4h22.1c3.2,0,5.6,0.7,7.3,2c1.6,1.3,2.4,3.1,2.4,5.3c0,1.8-0.5,3.3-1.6,4.4
		c-1.1,1.2-2.5,1.9-4.3,2.1V96.9z M1068.4,87.1v7.6h15.5c1.5,0,2.7-0.3,3.5-1c0.8-0.7,1.2-1.6,1.2-2.8s-0.4-2.1-1.2-2.8
		c-0.8-0.7-2-1-3.5-1H1068.4z M1084.4,107.1c1.8,0,3.1-0.3,3.9-1c0.9-0.7,1.3-1.7,1.3-2.9c0-1.3-0.4-2.3-1.3-3
		c-0.9-0.7-2.2-1.1-3.9-1.1h-16v8.1H1084.4z"/>
	<path class="st2" d="M1108.2,110.3c-2.9-1.3-5.1-3.1-6.6-5.4c-1.5-2.3-2.2-4.9-2.2-7.8c0-2.9,0.7-5.5,2.2-7.8
		c1.5-2.3,3.7-4.1,6.6-5.4c2.9-1.3,6.4-2,10.5-2s7.6,0.7,10.5,2c2.9,1.3,5.1,3.1,6.6,5.4c1.5,2.3,2.2,4.9,2.2,7.8
		c0,2.9-0.7,5.5-2.2,7.8c-1.5,2.3-3.7,4.1-6.6,5.4c-2.9,1.3-6.4,2-10.5,2S1111.2,111.6,1108.2,110.3z M1126.1,106.1
		c2-0.9,3.6-2.1,4.6-3.7c1-1.6,1.5-3.3,1.5-5.3c0-2-0.5-3.7-1.5-5.3c-1-1.6-2.5-2.8-4.6-3.7c-2-0.9-4.5-1.4-7.4-1.4
		s-5.3,0.5-7.4,1.4c-2,0.9-3.6,2.1-4.6,3.7c-1,1.6-1.5,3.3-1.5,5.3c0,2,0.5,3.7,1.5,5.3c1,1.6,2.5,2.8,4.6,3.7
		c2,0.9,4.5,1.4,7.4,1.4S1124.1,107,1126.1,106.1z"/>
	<path class="st2" d="M1170.9,111.8h-27V82.4h5.8v24.5h21.1V111.8z"/>
	<path class="st2" d="M1175.4,111.8V82.4h14.4c3.7,0,6.9,0.6,9.6,1.9c2.7,1.3,4.8,3,6.2,5.3c1.4,2.2,2.1,4.7,2.1,7.5
		c0,2.8-0.7,5.3-2.1,7.5s-3.5,4-6.2,5.3c-2.7,1.3-5.9,1.9-9.6,1.9H1175.4z M1189.9,107c2.5,0,4.7-0.4,6.5-1.3c1.8-0.9,3.2-2,4.1-3.5
		c1-1.5,1.4-3.2,1.4-5c0-1.9-0.5-3.6-1.4-5c-1-1.5-2.3-2.7-4.1-3.5c-1.8-0.9-4-1.3-6.5-1.3h-8.6V107H1189.9z"/>
	<path class="st2" d="M1248.3,96.9c2.5,0.1,4.6,0.7,6.1,2c1.6,1.2,2.3,2.9,2.3,5.1c0,2.6-1.2,4.7-3.7,6.2c-2.5,1.5-6.8,2.2-12.8,2.2
		c-6,0-10.3-0.7-12.8-2.2c-2.5-1.5-3.7-3.5-3.7-6.2c0-2.1,0.8-3.8,2.3-5.1c1.6-1.2,3.6-1.9,6.1-2v-0.6c-2.3-0.1-4.1-0.7-5.5-1.9
		c-1.4-1.2-2.1-2.8-2.1-4.7c0-5.2,5.2-7.8,15.7-7.8c10.5,0,15.7,2.6,15.7,7.8c0,1.9-0.7,3.5-2.1,4.7c-1.4,1.2-3.2,1.8-5.5,1.9V96.9z
		 M1248.6,106.6c1.6-0.8,2.4-1.9,2.4-3.3c0-1.4-0.8-2.5-2.3-3.3c-1.6-0.8-4.3-1.2-8.4-1.2c-4,0-6.8,0.4-8.4,1.2
		c-1.6,0.8-2.3,1.9-2.3,3.3c0,1.4,0.8,2.5,2.4,3.3c1.6,0.8,4.4,1.2,8.4,1.2C1244.2,107.8,1247,107.4,1248.6,106.6z M1232.5,93.7
		c1.4,0.8,4,1.1,7.7,1.1c3.7,0,6.3-0.4,7.7-1.1c1.4-0.8,2.2-1.8,2.2-3.1c0-1.3-0.7-2.4-2.2-3.1c-1.4-0.8-4-1.1-7.7-1.1
		c-3.7,0-6.3,0.4-7.7,1.1c-1.4,0.8-2.2,1.8-2.2,3.1C1230.3,91.9,1231.1,93,1232.5,93.7z"/>
	<path class="st2" d="M1268.8,110.3c-2.5-1.3-4.4-3.1-5.8-5.4c-1.4-2.3-2.1-4.9-2.1-7.8c0-2.9,0.7-5.5,2.1-7.8
		c1.4-2.3,3.3-4.1,5.8-5.4c2.5-1.3,5.4-2,8.7-2c3.3,0,6.2,0.7,8.7,2c2.5,1.3,4.4,3.1,5.8,5.4c1.4,2.3,2.1,4.9,2.1,7.8
		c0,2.9-0.7,5.5-2.1,7.8c-1.4,2.3-3.3,4.1-5.8,5.4c-2.5,1.3-5.4,2-8.7,2C1274.2,112.3,1271.3,111.6,1268.8,110.3z M1283.1,106.1
		c1.6-0.9,2.9-2.1,3.8-3.7c0.9-1.6,1.3-3.4,1.3-5.4c0-2-0.4-3.8-1.3-5.4c-0.9-1.6-2.2-2.8-3.8-3.7c-1.6-0.9-3.5-1.3-5.6-1.3
		c-2.1,0-4,0.4-5.6,1.3c-1.6,0.9-2.9,2.1-3.8,3.7c-0.9,1.6-1.3,3.4-1.3,5.4c0,2,0.4,3.8,1.3,5.4c0.9,1.6,2.2,2.8,3.8,3.7
		c1.6,0.9,3.5,1.3,5.6,1.3C1279.6,107.5,1281.5,107,1283.1,106.1z"/>
	<path class="st2" d="M1306.5,110.3c-2.5-1.3-4.4-3.1-5.8-5.4c-1.4-2.3-2.1-4.9-2.1-7.8c0-2.9,0.7-5.5,2.1-7.8
		c1.4-2.3,3.3-4.1,5.8-5.4c2.5-1.3,5.4-2,8.7-2c3.3,0,6.2,0.7,8.7,2c2.5,1.3,4.4,3.1,5.8,5.4c1.4,2.3,2.1,4.9,2.1,7.8
		c0,2.9-0.7,5.5-2.1,7.8c-1.4,2.3-3.3,4.1-5.8,5.4c-2.5,1.3-5.4,2-8.7,2C1311.9,112.3,1309,111.6,1306.5,110.3z M1320.8,106.1
		c1.6-0.9,2.9-2.1,3.8-3.7c0.9-1.6,1.3-3.4,1.3-5.4c0-2-0.4-3.8-1.3-5.4c-0.9-1.6-2.2-2.8-3.8-3.7c-1.6-0.9-3.5-1.3-5.6-1.3
		c-2.1,0-4,0.4-5.6,1.3c-1.6,0.9-2.9,2.1-3.8,3.7c-0.9,1.6-1.3,3.4-1.3,5.4c0,2,0.4,3.8,1.3,5.4c0.9,1.6,2.2,2.8,3.8,3.7
		c1.6,0.9,3.5,1.3,5.6,1.3C1317.3,107.5,1319.2,107,1320.8,106.1z"/>
</g>
</svg>
