<?xml version="1.0" encoding="utf-8"?>
<!-- Generator: Adobe Illustrator 22.0.0, SVG Export Plug-In . SVG Version: 6.00 Build 0)  -->
<svg version="1.1" id="Layer_1" xmlns="http://www.w3.org/2000/svg" xmlns:xlink="http://www.w3.org/1999/xlink" x="0px" y="0px"
	 viewBox="0 0 2000 1305" style="enable-background:new 0 0 2000 1305;" xml:space="preserve">
<style type="text/css">
	.st0{fill:#32E8D6;}
	.st1{fill:none;stroke:#115856;stroke-miterlimit:10;}
	.st2{opacity:0;}
	.st3{fill:none;stroke:#FFFFFF;stroke-miterlimit:10;}
	.st4{fill:#13232D;}
	.st5{fill:#FFFFFF;}
</style>
<rect class="st0" width="2000" height="1305"/>
<line class="st1" x1="0" y1="1072.3" x2="2000" y2="1072.3"/>
<g class="st2">
	<line class="st3" x1="0" y1="29" x2="2000" y2="29"/>
	<line class="st3" x1="0" y1="171.4" x2="2000" y2="171.4"/>
	<line class="st3" x1="0" y1="204.6" x2="2000" y2="204.6"/>
	<line class="st3" x1="0" y1="347.4" x2="2000" y2="347.4"/>
	<line class="st3" x1="0" y1="392" x2="2000" y2="392"/>
	<line class="st3" x1="0" y1="574.2" x2="2000" y2="574.2"/>
	<line class="st3" x1="0" y1="716.3" x2="2000" y2="716.3"/>
	<line class="st3" x1="0" y1="750" x2="2000" y2="750"/>
	<line class="st3" x1="0" y1="892.4" x2="2000" y2="892.4"/>
	<line class="st3" x1="0" y1="930" x2="2000" y2="930"/>
	<line class="st3" x1="0" y1="1131" x2="2000" y2="1131"/>
	<line class="st3" x1="0" y1="1273.4" x2="2000" y2="1273.4"/>
	<line class="st3" x1="0" y1="534.3" x2="2000" y2="534.3"/>
</g>
<g>
	<g>
		<path class="st4" d="M1469.6,171.4h-22.2l-14.4-28.7h-98.6l-14.4,28.7h-22.2L1371.5,29h24.2L1469.6,171.4z M1342.9,125.8h81.5
			l-32.7-64.5c-4.5-8.9-6.7-15.5-6.7-19.7v-0.2h-2.6v0.2c0,4.2-2.2,10.8-6.7,19.7L1342.9,125.8z"/>
		<path class="st4" d="M1587.7,85.8c16.8,0,29.6,3.9,38.4,11.6s13.2,18.2,13.2,31.3c0,13.2-4.4,23.6-13.2,31.2
			c-8.8,7.7-21.6,11.5-38.4,11.5h-98.8V29h142.4v17.9h-122v38.8h78.4V85.8z M1587.7,153.5c9.9,0,17.5-2.3,22.8-6.9
			c5.3-4.6,7.9-10.8,7.9-18.5s-2.6-13.9-7.9-18.5s-12.9-6.9-22.8-6.9h-77.9v50.8H1587.7z"/>
		<path class="st4" d="M1788.4,99.4c10.3,0.8,18.4,4.2,24.3,10.2s8.8,13.8,8.8,23.6c0,25.5-17.3,38.2-51.9,38.2h-104.9V29h104.9
			c15.5,0,27.1,3.2,35,9.7c7.9,6.4,11.8,15.2,11.8,26.1c0,8.7-2.6,15.8-7.7,21.5c-5.2,5.6-11.9,9-20.3,10.1L1788.4,99.4L1788.4,99.4
			z M1685.7,46.9v43.9h83c8.7,0,15.3-2,19.9-6s6.9-9.3,6.9-16c0-6.8-2.3-12.1-6.9-16.1c-4.6-3.9-11.3-5.9-19.9-5.9L1685.7,46.9
			L1685.7,46.9z M1770.7,153.5c10.2,0,17.7-2,22.6-6s7.3-9.6,7.3-16.8c0-7.3-2.4-13-7.3-17s-12.4-6-22.6-6h-85v45.8H1770.7z"/>
		<path class="st4" d="M1866.9,171.4H1846V29h125v17.9h-104.1V171.4z"/>
	</g>
	<g>
		<path class="st4" d="M322.5,323.9h22.2v58.6h-27.3v-35.2H180.1v35.2h-27.3v-58.6h8.5c11.4,0,17.9-7.6,19.5-22.8l11.2-96.2h130.4
			v119H322.5z M295.2,323.9v-95.6h-78.5l-7.7,70.2c-0.7,6.8-2,12.3-3.9,16.5s-4.5,7.2-7.7,8.9H295.2z"/>
		<path class="st4" d="M501.8,205v23H391.4v36.6h96.2v20.9h-96.2v38.8h110.4v23H363.2V205H501.8z"/>
		<path class="st4" d="M666.4,205v23H555.9v36.6h96.2v20.9h-96.2v38.8h110.4v23H527.7V205H666.4z M555.6,183.7
			c-2.9-2.5-4.4-5.7-4.4-9.7c0-3.9,1.5-7.1,4.4-9.7c2.9-2.5,6.9-3.8,11.9-3.8s9,1.3,11.9,3.8s4.4,5.7,4.4,9.7c0,3.9-1.5,7.2-4.4,9.7
			s-6.9,3.8-11.9,3.8S558.5,186.2,555.6,183.7z M614.6,183.7c-2.9-2.5-4.4-5.7-4.4-9.7c0-3.9,1.5-7.1,4.4-9.7
			c2.9-2.5,6.9-3.8,11.9-3.8c5.2,0,9.2,1.3,12,3.8s4.3,5.7,4.3,9.7c0,3.9-1.4,7.2-4.3,9.7c-2.8,2.5-6.8,3.8-12,3.8
			C621.5,187.5,617.5,186.2,614.6,183.7z"/>
		<path class="st4" d="M835.6,273.7l76.9,73.6h-36.6l-71.6-69.8v69.8H777v-69.5l-71.6,69.5H669l76.9-73.6L673.1,205h35.4l68.5,65.7
			V205h27.3v65.9L873,205h35.4L835.6,273.7z"/>
		<path class="st4" d="M1034.4,275.5c10.4,0.9,18.6,4.4,24.5,10.5c5.9,6,8.8,13.5,8.8,22.3c0,12.6-6.1,22.7-18.3,30.2
			s-32.4,11.3-60.6,11.3c-27.5,0-47.6-4.3-60.2-13c-12.6-8.7-18.9-20.3-18.9-34.8v-2.8H938v2.8c0,7.1,4.1,13,12.2,17.9
			c8.1,4.9,21,7.3,38.6,7.3c33.6,0,50.4-7.1,50.4-21.4c0-13.6-14.2-20.3-42.5-20.3h-36.6V265h36.6c14.4,0,24.7-1.8,31-5.4
			c6.3-3.6,9.5-8.2,9.5-13.9c0-6-3.7-10.9-11-14.7s-19.8-5.8-37.4-5.8c-16.8,0-29.2,2.4-37,7.2c-7.9,4.8-11.8,10.7-11.8,17.8v2
			h-28.3v-2.8c0-14,6.2-25.2,18.7-33.9c12.5-8.6,31.9-12.9,58.4-12.9c18.3,0,33.2,1.8,44.6,5.3c11.5,3.5,19.7,8.2,24.7,13.9
			c5,5.8,7.5,12.2,7.5,19.2c0,8.4-2.7,15.4-8.1,21s-13.2,9-23.2,10.1L1034.4,275.5L1034.4,275.5z"/>
		<path class="st4" d="M1089.3,347.3V205h27.3v92.3c0,6.9-0.3,12.7-1,17.5c-0.7,4.7-1.8,10-3.3,15.7h2.8l92.5-125.5h44.1v142.4
			h-27.3V255c0-6.9,0.3-12.7,1-17.5c0.7-4.7,1.8-10,3.3-15.7h-3.1l-92.3,125.5H1089.3z"/>
	</g>
	<g>
		<path class="st4" d="M46.7,534.3H29V392h15.3v121.8h0.6L130.6,392h17.7v142.4H133V412.5h-0.8L46.7,534.3z M66,370.9
			c-5.6-4.7-8.3-11.1-8.3-19.2h12c0,4.7,1.7,8.5,5.1,11.4c3.4,2.8,8.1,4.3,14,4.3c5.8,0,10.4-1.4,13.8-4.3c3.4-2.8,5.1-6.6,5.1-11.4
			h12c0,8.1-2.7,14.5-8.2,19.2s-13,7-22.7,7C79.1,378,71.5,375.6,66,370.9z"/>
		<path class="st4" d="M195.3,534.3h-15.9V433.5h13.8V516h0.6l64.5-82.6h16.1v100.9h-14v-82.8h-0.6L195.3,534.3z M204.3,407.8
			c-5.6-4.7-8.3-11.1-8.3-19.1h12c0,4.9,1.7,8.7,5.1,11.5c3.4,2.8,8.1,4.2,14,4.2c5.8,0,10.4-1.4,13.8-4.2c3.4-2.8,5.1-6.6,5.1-11.5
			h12c0,8-2.8,14.4-8.3,19.1c-5.6,4.7-13.1,7.1-22.6,7.1C217.4,415,209.8,412.6,204.3,407.8z"/>
		<path class="st4" d="M338.7,461.3l77.5,73h-20.3L320.6,464v70.4h-15.3V392h15.3v68.5L392,392h18.7L338.7,461.3z"/>
		<path class="st4" d="M456.8,482.5l61.6,51.9h-19.1l-59.6-49.8v49.8h-13.8V433.5h13.8v48.2l55.7-48.2h18.1L456.8,482.5z"/>
		<path class="st4" d="M517.4,534.7v-14c2,0.7,4.3,1,6.7,1c6.1,0,10.5-1.8,13.3-5.3s4.4-10,5-19.5l7.1-104.9h98.6v142.4h-15.3V406
			h-69.3l-6.1,91.7c-1,14-3.9,23.9-8.7,29.8c-4.9,5.9-12.2,8.8-22,8.8C523,536.4,519.9,535.8,517.4,534.7z"/>
		<path class="st4" d="M666.7,535.2V522c2.2,0.3,4,0.4,5.5,0.4c4.5,0,7.8-1.3,10.1-3.9c2.2-2.6,3.6-7,4-13.2l4.3-71.8h82.8v100.9
			h-13.8v-88.3h-55.9l-3.7,61.2c-1.1,19.4-9.3,29.1-24.6,29.1C671.2,536.4,668.3,536,666.7,535.2z"/>
		<path class="st4" d="M819.6,534.3h-15.3V392H823l59.2,88.9h0.6L942,392h18.3v142.4H945V413.5h-0.6l-56.7,84.8H877l-56.7-84.8h-0.6
			v120.8H819.6z"/>
		<path class="st4" d="M1005.3,534.3h-13.8V433.5h16.5l43.3,63.4h0.6l43.3-63.4h16.3v100.9h-14V453h-0.6l-40.3,58.8h-10.4
			l-40.3-58.8h-0.6L1005.3,534.3L1005.3,534.3z"/>
		<path class="st4" d="M1245.6,453.8V392h15.3v142.4h-15.3v-66.5h-87.9v66.5h-15.3V392h15.3v61.8H1245.6z"/>
		<path class="st4" d="M1371.9,476.2v-42.7h14v100.9h-14v-45.6h-66.1v45.6H1292V433.5h13.8v42.7H1371.9z"/>
	</g>
	<g>
		<path class="st4" d="M1179.9,709.5c-11.3-6.2-20.1-14.8-26.4-26s-9.5-24-9.5-38.3c0-14.4,3.2-27.1,9.5-38.3s15.1-19.9,26.4-26
			c11.3-6.2,24.3-9.3,38.9-9.3s27.6,3.1,38.9,9.3s20.1,14.8,26.4,26s9.5,24,9.5,38.3c0,14.4-3.2,27.1-9.5,38.3s-15.1,19.9-26.4,26
			c-11.3,6.2-24.3,9.3-38.9,9.3C1204.2,718.8,1191.2,715.7,1179.9,709.5z M1241.5,686.4c6.6-3.9,11.7-9.5,15.3-16.6
			c3.6-7.1,5.4-15.4,5.4-24.7s-1.8-17.6-5.4-24.7c-3.6-7.1-8.7-12.6-15.3-16.6c-6.6-3.9-14.1-5.9-22.7-5.9c-8.5,0-16.1,2-22.7,5.9
			s-11.7,9.5-15.3,16.6c-3.6,7.1-5.4,15.4-5.4,24.7s1.8,17.6,5.4,24.7c3.6,7.1,8.7,12.6,15.3,16.6c6.6,3.9,14.1,5.9,22.7,5.9
			C1227.4,692.3,1234.9,690.4,1241.5,686.4z"/>
		<path class="st4" d="M1333.7,712.7c-8.5-4.5-15.2-10.8-19.8-19c-4.7-8.2-7-17.7-7-28.6c0-10.8,2.3-20.4,7-28.6
			c4.7-8.2,11.3-14.6,19.8-19.1s18.4-6.8,29.7-6.8c11.3,0,21.1,2.3,29.7,6.8c8.5,4.5,15.1,10.9,19.8,19.1c4.7,8.2,7,17.7,7,28.6
			c0,10.8-2.3,20.4-7,28.6c-4.7,8.2-11.3,14.5-19.8,19s-18.4,6.7-29.7,6.7C1352.2,719.4,1342.3,717.2,1333.7,712.7z M1384.7,687
			c5.2-5.4,7.8-12.6,7.8-21.9c0-9.4-2.6-16.7-7.7-22.1c-5.2-5.4-12.3-8-21.4-8s-16.2,2.7-21.4,8c-5.2,5.4-7.7,12.7-7.7,22.1
			c0,9.2,2.6,16.5,7.8,21.9c5.2,5.4,12.3,8,21.3,8S1379.4,692.3,1384.7,687z"/>
		<path class="st4" d="M1469.8,716.3h-29.5V574h128.1v142.4h-29.5v-117h-69.1V716.3z"/>
		<path class="st4" d="M1621.3,716.3h-26.4V613.6h102.7v102.7h-26.4V638h-49.8L1621.3,716.3L1621.3,716.3z"/>
		<path class="st4" d="M1782.5,574c19.5,0,34.5,4.3,44.8,13c10.4,8.7,15.6,21.4,15.6,38.2c0,16.9-5.2,29.8-15.6,38.4
			c-10.4,8.7-25.3,13-44.8,13h-29.1v39.7H1724V574H1782.5z M1780.9,651.3c20.3,0,30.5-8.7,30.5-26c0-17.2-10.2-25.8-30.5-25.8h-27.5
			v51.9h27.5V651.3z"/>
		<path class="st4" d="M1858.2,757V614.7h25.4v12.2h1c3.9-5.2,9-9,15.2-11.5s13.1-3.8,20.8-3.8c9.9,0,18.6,2.3,26.2,6.8
			s13.5,10.9,17.8,19.2s6.4,17.7,6.4,28.3c0,10.7-2.1,20.2-6.3,28.5c-4.2,8.3-10.1,14.7-17.8,19.2c-7.7,4.5-16.6,6.8-26.7,6.8
			c-7.3,0-13.9-1.1-19.8-3.4c-5.9-2.2-10.8-5.5-14.7-9.9h-1V757H1858.2z M1935.3,687.7c5.5-5.6,8.2-12.8,8.2-21.8
			s-2.7-16.2-8.2-21.7s-12.6-8.2-21.3-8.2c-8.7,0-15.8,2.7-21.3,8.2s-8.2,12.7-8.2,21.7s2.7,16.2,8.2,21.8s12.6,8.3,21.3,8.3
			C1922.8,696,1929.9,693.2,1935.3,687.7z"/>
	</g>
	<g>
		<path class="st4" d="M680.7,885.1c-10.9-6.2-19.4-14.8-25.5-25.9c-6.1-11.1-9.2-23.8-9.2-38s3.1-26.9,9.2-38
			c6.1-11.1,14.6-19.8,25.5-25.9c10.9-6.2,23.4-9.3,37.5-9.3c11.5,0,22,2.1,31.4,6.3s17.1,10.1,23.1,17.8s9.7,16.6,11.2,26.7H763
			c-1.9-9.9-6.9-17.8-14.9-23.7c-8.1-5.9-18-8.8-29.8-8.8c-9.9,0-18.7,2.3-26.4,7s-13.7,11.2-18,19.4c-4.3,8.3-6.4,17.8-6.4,28.5
			s2.1,20.2,6.4,28.5c4.3,8.3,10.3,14.7,18,19.4s16.5,7,26.4,7c11.9,0,21.8-2.8,29.7-8.5s13-13.7,15.5-24h20.9
			c-3.1,15.7-10.6,28.1-22.4,37.2c-11.8,9.1-26.4,13.6-43.7,13.6C704.1,894.4,691.6,891.3,680.7,885.1z"/>
		<path class="st4" d="M824,888.5c-8.4-4.6-14.9-11-19.5-19.2s-6.9-17.5-6.9-27.8s2.3-19.6,6.9-27.8c4.6-8.2,11.1-14.6,19.5-19.2
			c8.4-4.6,18-6.9,28.7-6.9c10.6,0,19.6,2,27.1,6s13.3,9.1,17.2,15.3s6,12.3,6.3,18.4H884c-0.8-6.5-4.1-12-9.9-16.6
			c-5.8-4.5-12.9-6.8-21.5-6.8c-7.1,0-13.3,1.6-18.7,4.8s-9.6,7.6-12.6,13.3s-4.5,12.2-4.5,19.5s1.5,13.8,4.5,19.5
			s7.2,10.1,12.6,13.3c5.4,3.2,11.7,4.8,18.7,4.8c6.4,0,11.9-1.1,16.6-3.4s8.3-5.2,11-8.7c2.6-3.6,4.2-7.4,4.8-11.3h19.3
			c-0.3,6.1-2.4,12.2-6.4,18.4s-9.9,11.3-17.6,15.3s-16.9,6-27.7,6C841.9,895.4,832.4,893.1,824,888.5z"/>
		<path class="st4" d="M983.2,892.3h-20.3v-124h-51.4V750h123.2v18.3h-51.4L983.2,892.3L983.2,892.3z"/>
		<path class="st4" d="M1079.8,892.3h-18.3v-85.4h-40.1v-16.3h98.6v16.3h-40.3v85.4H1079.8z"/>
		<path class="st4" d="M1228.6,750h21.6l-53.1,108c-4.6,9.4-9.1,16.7-13.5,22s-9,9-13.9,11.2s-10.6,3.3-17.1,3.3
			c-4.2,0-8.1-0.7-11.8-2V874c3.7,1.4,7.5,2,11.6,2c4.9,0,9.2-1.3,12.9-4c3.7-2.6,7.1-6.9,10.1-12.9l2.8-5.9L1120,750h22l46,83.2
			h0.8L1228.6,750z"/>
		<path class="st4" d="M1334,790.7h19.9L1308.8,895c-4.5,10.4-8.7,18.5-12.8,24.2c-4.1,5.7-8.5,9.8-13.2,12.2s-10.5,3.7-17.3,3.7
			c-4.5,0-8.7-0.6-12.8-1.8V917c3.5,1.2,7.2,1.8,11,1.8c6,0,10.9-1.7,14.8-5s7.5-9.4,10.6-18.2l0.8-2.4L1240,790.7h20.7l38.2,80.1
			h0.8L1334,790.7z"/>
		<path class="st4" d="M1507.6,865.1c-13.4,10-31.1,15.2-53.1,15.5v13.8h-20.3v-13.8c-22-0.3-39.7-5.4-53.1-15.5
			c-13.4-10-20.1-24.7-20.1-43.9c0-19.1,6.6-33.7,19.9-43.8s31-15.3,53.3-15.6V748h20.3v13.8c22.2,0.3,40,5.5,53.3,15.6
			s19.9,24.7,19.9,43.8C1527.8,840.4,1521.1,855.1,1507.6,865.1z M1396.6,851.7c9.5,6.8,22,10.3,37.6,10.6v-82.2
			c-15.7,0.3-28.3,3.8-37.7,10.7c-9.4,6.8-14.1,17-14.1,30.4C1382.4,834.7,1387.1,844.9,1396.6,851.7z M1454.6,862.2
			c15.6-0.3,28.1-3.8,37.6-10.6s14.2-16.9,14.2-30.5c0-13.4-4.7-23.6-14.1-30.4c-9.4-6.8-22-10.4-37.7-10.7V862.2z"/>
		<path class="st4" d="M1620.9,788.6c11.5,0,21.8,2.2,30.8,6.5s16,10.5,21,18.5s7.5,17.3,7.5,27.9s-2.5,19.9-7.5,27.9
			s-12,14.2-21,18.5s-19.3,6.5-30.8,6.5h-0.6V933H1602v-38.6h-0.6c-11.5,0-21.8-2.2-30.8-6.5s-16-10.5-21-18.5s-7.5-17.3-7.5-27.9
			s2.5-19.9,7.5-27.9s12-14.2,21-18.5s19.3-6.5,30.8-6.5h0.6V750h18.3v38.6H1620.9z M1602,878.1v-73.2h-0.6
			c-7.6,0-14.4,1.5-20.5,4.5s-10.9,7.3-14.3,12.8c-3.5,5.6-5.2,12-5.2,19.3s1.7,13.8,5.2,19.3c3.5,5.6,8.2,9.8,14.2,12.8
			s12.9,4.5,20.6,4.5L1602,878.1L1602,878.1z M1620.9,878.1c7.7,0,14.6-1.5,20.6-4.5s10.8-7.3,14.2-12.8c3.5-5.6,5.2-12,5.2-19.3
			s-1.7-13.8-5.2-19.3c-3.5-5.6-8.2-9.8-14.3-12.8c-6.1-3-12.9-4.5-20.5-4.5h-0.6v73.2L1620.9,878.1L1620.9,878.1z"/>
		<path class="st4" d="M1709.2,892.3h-22.8l53.1-73.6l-48.4-68.7h23.2l38,54.5h0.8l38.2-54.5h22.6l-48.4,68.7l53.1,73.6h-23.2
			l-42.5-59.2h-0.8L1709.2,892.3z"/>
		<path class="st4" d="M1833.6,892.3h-21.1l40.5-52.5l-36.2-49.2h20.9l26.8,37.8h0.8l26.6-37.8h20.9l-36.2,49.2l40.5,52.5H1896
			l-30.9-40.5h-0.8L1833.6,892.3z"/>
	</g>
	<g>
		<path class="st4" d="M167.3,1106.9H147v-34.6H29V930h20.3v124h75.2V930h20.3v124h22.4v52.9H167.3z"/>
		<path class="st4" d="M293.3,1099.8H275v-27.5h-91.5V970.7h18.3v85.4h56.9v-85.4H277v85.4h16.3V1099.8z"/>
		<path class="st4" d="M400.1,930h20.3v142.4h-20.3v-53.7c-4.7,2.2-10.4,3.9-17,5.1c-6.6,1.2-13.5,1.8-20.8,1.8
			c-19.4,0-33.7-4.6-42.9-13.8c-9.2-9.2-13.8-23.5-13.8-42.9V930h20.3v39.7c0,13,3.2,22.5,9.5,28.6c6.3,6,16.2,9,29.6,9
			c6.6,0,13-0.7,19-2.1c6-1.4,11.4-3.4,16.2-6V930H400.1z"/>
		<path class="st4" d="M519.1,970.7h18.3v101.7h-18.3v-35.2c-8.1,3.4-17.8,5.1-28.9,5.1c-14.2,0-25.2-3.5-32.8-10.5
			c-7.7-7-11.5-17.2-11.5-30.6v-30.5h18.3v30.5c0,8.5,2.4,14.8,7.1,18.8c4.7,4,11.9,6,21.4,6c9.8,0,18.6-1.8,26.4-5.3V970.7z"/>
		<path class="st4" d="M738.7,1072.3H565.8V930h20.3v124H642V930h20.3v124h55.9V930h20.3v142.3H738.7z"/>
		<path class="st4" d="M903.4,1072.3H767.2V970.7h18.3v85.4h40.7v-85.4h18.3v85.4h40.7v-85.4h18.3L903.4,1072.3L903.4,1072.3z"/>
		<path class="st4" d="M1127.1,1106.9h-20.3v-34.6H931.9V930h20.3v124h55.9V930h20.3v124h55.9V930h20.3v124h22.4L1127.1,1106.9
			L1127.1,1106.9z"/>
		<path class="st4" d="M1295.9,1099.8h-18.3v-27.5h-134.2V970.7h18.3v85.4h40.7v-85.4h18.3v85.4h40.7v-85.4h18.3v85.4h16.3v43.7
			H1295.9z"/>
	</g>
	<g>
		<path class="st4" d="M368,1180c18.2,0,32,4,41.6,12s14.3,19.6,14.3,34.8c0,14.9-4.8,26.4-14.5,34.5s-23.5,12.1-41.4,12.1h-50.8
			V1145h-40.5v-14h55.7v49H368z M368,1259.3c13.1,0,23.1-2.7,29.9-8.2s10.2-13.6,10.2-24.3c0-10.8-3.4-19-10.2-24.5
			c-6.8-5.5-16.7-8.2-29.9-8.2h-35.6v65.3H368V1259.3z"/>
		<path class="st4" d="M493.4,1205.6c14.1,0,24.8,2.9,32.2,8.6c7.4,5.8,11.1,14.2,11.1,25.3c0,11-3.7,19.4-11.1,25.1
			c-7.4,5.8-18.1,8.6-32.2,8.6h-36.8v-88.3h-30.9v-12.6h44.7v33.1h23V1205.6z M492.6,1260.7c10.2,0,17.6-1.7,22.4-5.1
			c4.7-3.4,7.1-8.7,7.1-16.1c0-7.5-2.4-12.9-7.1-16.3c-4.7-3.4-12.2-5.1-22.4-5.1h-22.2v42.5L492.6,1260.7L492.6,1260.7z"/>
		<path class="st4" d="M611,1180c18.2,0,32.1,4,41.7,12c9.6,8,14.4,19.6,14.4,34.8c0,14.9-4.8,26.4-14.5,34.5s-23.6,12.1-41.6,12.1
			h-49V1131h15.3v49H611z M611,1259.3c13.1,0,23.1-2.7,30-8.2c6.8-5.5,10.3-13.6,10.3-24.3c0-10.7-3.4-18.8-10.3-24.4
			c-6.8-5.6-16.8-8.3-30-8.3h-33.8v65.3L611,1259.3L611,1259.3z M692.1,1273.3V1131h15.3v142.4L692.1,1273.3L692.1,1273.3z"/>
		<path class="st4" d="M774.3,1205.6c14.1,0,24.8,2.9,32.2,8.6c7.4,5.8,11.1,14.2,11.1,25.3c0,11-3.7,19.4-11.1,25.1
			c-7.4,5.8-18.1,8.6-32.2,8.6h-35.8v-100.9h13.8v33.1h22V1205.6z M773.5,1260.7c10.2,0,17.6-1.7,22.4-5.1c4.7-3.4,7.1-8.7,7.1-16.1
			c0-7.5-2.4-12.9-7.1-16.3c-4.7-3.4-12.2-5.1-22.4-5.1h-21.1v42.5L773.5,1260.7L773.5,1260.7z M835.3,1273.3v-100.9h13.8v100.9
			H835.3z"/>
		<path class="st4" d="M933.1,1180c18.2,0,32,4,41.6,12s14.3,19.6,14.3,34.8c0,14.9-4.8,26.4-14.5,34.5s-23.5,12.1-41.4,12.1h-52.9
			V1131h15.3v49H933.1z M933.1,1259.3c13.1,0,23.1-2.7,29.9-8.2c6.8-5.5,10.2-13.6,10.2-24.3c0-10.8-3.4-19-10.2-24.5
			s-16.7-8.2-29.9-8.2h-37.6v65.3h37.6V1259.3z"/>
		<path class="st4" d="M1049.4,1205.6c14.1,0,24.8,2.9,32.2,8.6c7.4,5.8,11.1,14.2,11.1,25.3c0,11-3.7,19.4-11.1,25.1
			c-7.4,5.8-18.1,8.6-32.2,8.6h-38.8v-100.9h13.8v33.1h25V1205.6z M1048.6,1260.7c10.2,0,17.6-1.7,22.4-5.1
			c4.7-3.4,7.1-8.7,7.1-16.1c0-7.5-2.4-12.9-7.1-16.3s-12.2-5.1-22.4-5.1h-24.2v42.5L1048.6,1260.7L1048.6,1260.7z"/>
		<path class="st4" d="M1212.8,1138.3c10.6,6.2,18.9,14.9,24.7,26c5.8,11.1,8.7,23.7,8.7,37.8c0,14.1-2.9,26.7-8.7,37.8
			c-5.8,11.1-14.1,19.8-24.7,26s-22.9,9.4-36.9,9.4c-12.2,0-22.9-2.2-32.2-6.6c-9.3-4.4-16.8-10.4-22.5-18.1s-9.5-16.4-11.4-26.1
			h15.7c2.3,11,7.8,19.9,16.5,26.6c8.7,6.8,20,10.2,34,10.2c10.3,0,19.4-2.3,27.3-6.8s14.1-10.8,18.7-18.8s7.3-17.2,8.1-27.7h-67.5
			v-13.2h67.3c-0.9-10.2-3.7-19.1-8.3-26.9c-4.6-7.8-10.8-13.9-18.6-18.3c-7.8-4.4-16.8-6.6-26.9-6.6c-13.8,0-25.1,3.5-34,10.5
			c-8.8,7-14.2,15.8-16.1,26.3h-15.7c1.5-9.5,5-18.1,10.7-25.8c5.6-7.7,13.1-13.8,22.6-18.3c9.4-4.5,20.2-6.7,32.4-6.7
			C1189.9,1129,1202.2,1132.1,1212.8,1138.3z"/>
		<path class="st4" d="M1341.2,1176.4c8,4.5,14.2,10.8,18.6,18.9s6.6,17.3,6.6,27.6c0,10.3-2.2,19.5-6.5,27.6s-10.5,14.3-18.6,18.8
			s-17.4,6.7-28,6.7c-10.2,0-19-1.8-26.4-5.5c-7.5-3.7-13.2-8.5-17.3-14.4c-4.1-6-6.4-12.3-7.1-18.9h14.6c1.2,7.5,5,13.7,11.3,18.7
			s14.6,7.5,24.9,7.5c10.8,0,19.7-3.2,26.4-9.6c6.8-6.4,10.7-14.8,11.8-25.2h-50.2v-12h50c-1.1-10.3-5-18.6-11.8-24.9
			s-15.5-9.5-26-9.5c-9.8,0-17.8,2.4-24,7.3s-10,11.2-11.4,18.9h-14.6c0.7-6.8,3-13.1,7-19s9.7-10.7,17-14.3c7.3-3.7,16-5.5,26-5.5
			C1324,1169.6,1333.2,1171.9,1341.2,1176.4z"/>
		<path class="st4" d="M1535.6,1138.4c10.3,6.3,18.2,15,23.8,26c5.6,11.1,8.3,23.6,8.3,37.7s-2.8,26.7-8.3,37.7
			c-5.6,11.1-13.5,19.7-23.8,26s-22.3,9.5-36,9.5c-13.2,0-24.7-2.8-34.8-8.5c-10-5.7-17.9-13.6-23.6-23.8c-5.7-10.2-8.9-21.8-9.8-35
			H1406v65.3h-15.3V1131h15.3v63.9h25.4c0.9-12.9,4.3-24.3,10.2-34.3c5.8-10,13.7-17.7,23.6-23.3c9.9-5.6,21.4-8.3,34.4-8.3
			C1513.3,1129,1525.3,1132.1,1535.6,1138.4z M1527.4,1253.7c7.9-5.1,14-12.1,18.2-21s6.3-19.1,6.3-30.5s-2.1-21.6-6.3-30.5
			c-4.2-8.9-10.3-16-18.2-21s-17.2-7.6-27.8-7.6c-10.6,0-19.8,2.5-27.8,7.6c-7.9,5.1-14,12.1-18.3,21s-6.4,19.1-6.4,30.5
			s2.1,21.6,6.4,30.5s10.4,16,18.3,21c7.9,5.1,17.2,7.6,27.8,7.6C1510.2,1261.3,1519.5,1258.8,1527.4,1253.7z"/>
		<path class="st4" d="M1701.2,1176.2c7.7,4.4,13.8,10.6,18.2,18.7c4.4,8.1,6.6,17.4,6.6,28s-2.2,19.9-6.6,27.9
			s-10.5,14.2-18.2,18.6s-16.5,6.6-26.2,6.6c-9.2,0-17.5-1.9-24.9-5.7c-7.4-3.8-13.4-9.3-18-16.4s-7.3-15.4-8.1-24.9h-18.3v44.3
			h-13.8v-100.9h13.8v44.5h18.3c0.8-9.5,3.5-17.8,8-25s10.5-12.7,18-16.6s15.8-5.8,25-5.8
			C1684.7,1169.6,1693.5,1171.8,1701.2,1176.2z M1693.9,1258.3c5.6-3.4,9.9-8.2,12.9-14.3c3-6.2,4.6-13.2,4.6-21
			c0-8-1.5-15.1-4.6-21.3c-3.1-6.2-7.4-10.9-12.9-14.3c-5.6-3.4-11.9-5.1-18.9-5.1c-7.2,0-13.6,1.7-19.1,5.1
			c-5.6,3.4-9.9,8.2-12.9,14.3c-3,6.2-4.6,13.3-4.6,21.3c0,7.9,1.5,14.9,4.6,21c3.1,6.2,7.4,10.9,12.9,14.3
			c5.6,3.4,11.9,5.1,19.1,5.1C1682,1263.4,1688.3,1261.7,1693.9,1258.3z"/>
		<path class="st4" d="M1856.1,1131v142.4h-15.3v-52.7h-47.4l-32.9,52.7h-17.7l34.6-55.3c-7.9-2-14.8-6.5-20.9-13.5
			s-9.2-16.6-9.2-29c0-8.8,1.9-16.6,5.8-23.3s9.4-11.9,16.5-15.7c7.1-3.7,15.4-5.6,24.9-5.6H1856.1z M1840.9,1206.6V1145h-46.4
			c-9.2,0-16.7,2.9-22.6,8.6c-5.8,5.8-8.7,13.2-8.7,22.3c0,9.2,2.8,16.6,8.4,22.3c5.6,5.6,13,8.4,22.3,8.4L1840.9,1206.6
			L1840.9,1206.6z"/>
		<path class="st4" d="M1971,1172.5v100.9h-13.8v-36h-35.8l-23.8,36h-16.3l25.4-38c-5.7-1.6-10.8-5-15.4-10.1
			c-4.5-5.1-6.8-11.9-6.8-20.4c0-10.3,3.4-18.3,10.1-23.9s16.1-8.4,28.2-8.4L1971,1172.5L1971,1172.5z M1957.2,1224.7V1185h-33.4
			c-8.1,0-14.3,1.7-18.5,5s-6.3,8.2-6.3,14.7s2.1,11.5,6.3,14.8c4.2,3.4,10.2,5.1,17.9,5.1L1957.2,1224.7L1957.2,1224.7z"/>
	</g>
	<g>
		<path class="st5" d="M162.4,663.1h28.3v28.1h-28.3v25.2h-36.2v-25.2H29v-27.5l78.3-89.7h55.1V663.1z M72.3,659.8v3.3h55.9V622
			c0-6.5,0.4-12.4,1.3-17.7c0.9-5.3,2.2-11,4-17.1h-3.3c-2.3,5.8-4.8,10.9-7.4,15.4c-2.6,4.4-5.9,8.9-9.9,13.5L72.3,659.8z"/>
		<path class="st5" d="M217,706.5c-12.3-8.3-18.4-19.6-18.4-33.7v-2.2h36.2v1.2c0,5.8,3.2,10.6,9.5,14.2c6.3,3.7,16.9,5.5,31.8,5.5
			c14.6,0,25.2-2.1,31.7-6.3s9.8-9.8,9.8-16.7c0-15.3-14.2-23-42.5-23c-13.3,0-23.2,1.3-29.8,3.8s-11,5.5-13.3,9h-35.2l10-84.4
			h142.6v26.8H233.3l-5.3,41.1h3.1c7.7-13.6,26.4-20.3,56.1-20.3c22.9,0,39.7,4.2,50.4,12.5c10.7,8.3,16.1,20,16.1,34.9
			c0,15.9-6.1,28.2-18.3,36.9c-12.2,8.7-32.1,13.1-59.6,13.1C248.9,719,229.2,714.8,217,706.5z"/>
		<path class="st5" d="M403.5,711.2c-12.5-5.2-21.6-13.3-27.5-24.1c-5.8-10.8-8.7-24.8-8.7-41.9c0-24.8,6.5-43.3,19.5-55.5
			s33.4-18.3,61.2-18.3c18.4,0,33.6,2.1,45.3,6.2c11.8,4.1,20.4,9.7,25.8,16.8c5.4,7.1,8.1,15,8.1,24v1.8H491v-0.8
			c0-6.1-3.3-11.1-10-15.2c-6.6-4-17.2-6-31.7-6c-16.7,0-28.9,3.6-36.7,10.9c-7.8,7.3-11.7,18.1-11.7,32.6c0,3.3,0.1,5.9,0.2,7.9
			h3.1c5.8-14.9,25.4-22.4,58.8-22.4c22.2,0,38.8,4.1,49.8,12.2c11,8.1,16.5,18.8,16.5,32.1c0,14.6-6.1,26.2-18.3,34.7
			s-31.8,12.7-58.8,12.7C432.3,719,416,716.4,403.5,711.2z M483.2,686.2c6.7-3.9,10.1-8.9,10.1-15c0-6-3.4-10.9-10.2-14.7
			c-6.8-3.9-18-5.8-33.8-5.8c-15.7,0-27,1.9-33.8,5.8c-6.8,3.9-10.2,8.8-10.2,14.7c0,6.1,3.4,11.1,10.3,15
			c6.8,3.9,18.2,5.9,34.1,5.9C465.3,692.1,476.5,690.2,483.2,686.2z"/>
		<path class="st5" d="M565.2,711.5c0-25.1,5.8-46.5,17.4-64.2c11.6-17.7,30.5-31,56.8-40V604H530.2v-30h142.6v33.1
			c-25.1,9.2-43,22.3-53.8,39.1c-10.8,16.9-16.2,38.6-16.2,65.2v4.9h-37.6L565.2,711.5L565.2,711.5z"/>
		<path class="st5" d="M800.9,643.9c11.7,0.3,21,3.4,28.2,9.5c7.1,6,10.7,14.1,10.7,24.1c0,13-6.1,23.2-18.4,30.5
			c-12.3,7.3-33.2,11-62.9,11s-50.7-3.7-62.9-11c-12.3-7.3-18.4-17.5-18.4-30.5c0-10,3.6-18.1,10.7-24.1c7.1-6,16.5-9.2,28.2-9.5
			v-3.5c-10.6-0.1-19-3.1-25.3-8.8c-6.3-5.8-9.5-13.2-9.5-22.3c0-11.4,6-20.6,17.9-27.6s31.7-10.5,59.4-10.5s47.4,3.5,59.4,10.5
			c11.9,7,17.9,16.2,17.9,27.6c0,9.1-3.2,16.5-9.5,22.3s-14.7,8.7-25.3,8.8v3.5H800.9z M793.7,686.6c6.6-3.3,9.9-7.7,9.9-13.2
			c0-5.7-3.3-10.2-9.8-13.4c-6.5-3.3-18.3-4.9-35.4-4.9s-28.9,1.6-35.4,4.8s-9.8,7.7-9.8,13.5c0,5.6,3.3,10,9.8,13.2
			c6.5,3.3,18.3,4.9,35.4,4.9C775.4,691.5,787.1,689.9,793.7,686.6z M726.3,603.3c-6,3-8.9,7.1-8.9,12.2c0,5.3,3,9.4,8.9,12.4
			c6,3,16.7,4.5,32.1,4.5c15.5,0,26.2-1.5,32.1-4.6c6-3.1,8.9-7.1,8.9-12.3s-3-9.2-8.9-12.2c-6-3-16.7-4.5-32.1-4.5
			C743,598.8,732.2,600.3,726.3,603.3z"/>
		<path class="st5" d="M888.9,712.9c-11.9-4.1-20.5-9.5-25.9-16.3s-8.1-14.3-8.1-22.6v-1.8H891v0.8c0,3.3,1.4,6.3,4.2,9.2
			c2.8,2.8,7.3,5.2,13.5,7.1c6.2,1.9,14.2,2.8,24,2.8c16.5,0,28.7-3.5,36.6-10.6c7.9-7,11.8-17.4,11.8-30.9c0-3.3-0.1-5.9-0.2-7.9
			h-3.1c-5.8,14.9-25.4,22.4-58.8,22.4c-22.4,0-39-4.1-49.9-12.4c-10.9-8.3-16.4-19.2-16.4-32.9c0-15,6.1-26.9,18.3-35.5
			s31.7-12.9,58.6-12.9c20.1,0,36.3,2.6,48.8,7.8s21.7,13.3,27.6,24.1c5.9,10.8,8.8,24.8,8.8,41.9c0,24.8-6.5,43.3-19.5,55.5
			S961.9,719,934.1,719C915.8,719,900.7,716.9,888.9,712.9z M966.8,635.8c6.7-3.9,10.1-9.2,10.1-15.7c0-6.6-3.4-12-10.2-16
			s-18.2-6-34.2-6c-15.6,0-26.7,2-33.5,6c-6.7,4-10.1,9.3-10.1,16c0,6.5,3.4,11.7,10.2,15.7c6.8,3.9,18,5.9,33.8,5.9
			C948.8,641.7,960,639.7,966.8,635.8z"/>
	</g>
	<g>
		<path class="st5" d="M1359.3,340.4c-12.3-6.4-21.8-15.2-28.5-26.4c-6.6-11.3-10-23.9-10-37.8c0-14,3.3-26.6,10-37.8
			c6.6-11.3,16.1-20.1,28.5-26.4c12.3-6.4,26.6-9.6,42.9-9.6s30.6,3.2,42.9,9.6c12.3,6.4,21.8,15.2,28.5,26.4
			c6.6,11.3,10,23.9,10,37.8c0,14-3.3,26.6-10,37.8c-6.6,11.3-16.1,20.1-28.5,26.4c-12.3,6.4-26.6,9.6-42.9,9.6
			S1371.7,346.8,1359.3,340.4z M1425.9,314.9c6.8-3.7,12.1-8.9,15.9-15.7c3.7-6.7,5.6-14.4,5.6-23.1s-1.9-16.4-5.6-23.1
			c-3.7-6.7-9-11.9-15.9-15.7c-6.8-3.7-14.7-5.6-23.7-5.6c-8.9,0-16.8,1.9-23.7,5.6c-6.8,3.7-12.1,8.9-15.9,15.7
			c-3.7,6.7-5.6,14.4-5.6,23.1s1.9,16.4,5.6,23.1s9,11.9,15.9,15.7c6.8,3.7,14.7,5.6,23.7,5.6
			C1411.2,320.5,1419.1,318.6,1425.9,314.9z"/>
		<path class="st5" d="M1585.7,317.8h46.8v29.5h-136.3v-29.5h53.9v-35.4c0-7.9,0.9-15,2.6-21.5c1.8-6.4,4.7-14.9,8.9-25.3h-3.5
			c-3.8,9.5-7.9,16.9-12.2,22.4c-4.3,5.4-9.6,9.4-15.7,12s-13.8,3.9-23,3.9h-3.5v-30.1h8.9c13.6,0,23.7-3.2,30.3-9.5
			c6.6-6.3,10-15.7,10-28.2V205h32.5v112.8H1585.7z"/>
		<path class="st5" d="M1681,320.5h118.4v26.8h-153.3v-26.2c0-14,3.6-24.5,10.7-31.6s15.7-11.7,25.6-13.8c10-2.1,22.7-3.6,38.3-4.6
			c10.7-0.7,19.1-1.5,25.1-2.4s11-2.8,15-5.6c4-2.8,6-6.9,6-12.3c0-14-14.4-20.9-43.3-20.9c-14.9,0-25.9,2.4-32.8,7.3
			c-7,4.9-10.5,11.4-10.5,19.5v4.3H1644v-5c0-16.4,6.5-29.5,19.4-39.1c12.9-9.7,33-14.5,60.1-14.5c27.5,0,47.7,4.3,60.4,12.9
			c12.7,8.6,19.1,20,19.1,34.1c0,12.5-3.3,21.8-9.9,28s-14.5,10.2-23.7,12.1s-21.4,3.3-36.4,4.3c-12.1,0.8-21.5,1.8-28.3,2.9
			c-6.8,1.2-12.4,3.5-17,6.9c-4.5,3.5-6.8,8.6-6.8,15.6v1.3H1681z"/>
		<path class="st5" d="M1908.2,259.7c41.9,1.1,62.8,15.7,62.8,43.9c0,14.1-6.3,25.4-19,33.8s-33,12.6-61.1,12.6
			c-28.6,0-49-4.3-61.3-12.9s-18.4-21-18.4-37.1v-3.5h36.2v2.8c0,7.6,3.2,13.4,9.6,17.3s17.7,5.9,34,5.9c16.1,0,27.5-1.8,34.1-5.5
			s9.9-8.7,9.9-15c0-13.6-13.6-20.3-40.9-20.3h-32.5v-19.1l69.5-35.4v-3.5c-16,6.5-32.6,9.8-49.8,9.8h-63.9V205h146.4v26.8
			L1908.2,259.7z"/>
	</g>
</g>
<g>
	<path class="st4" d="M38.8,46.4h-2.4V32.1H29v-2.1h17.2v2.1h-7.4V46.4z"/>
	<path class="st4" d="M49,46.4V30.1h2.3v11.5c0,0.7,0,1.3-0.1,1.7c-0.1,0.5-0.2,1-0.3,1.6h0.3l12.3-14.9h3.8v16.3h-2.3V34.9
		c0-0.7,0-1.3,0.1-1.7c0.1-0.5,0.2-1,0.3-1.6H65L52.7,46.4H49z"/>
	<path class="st4" d="M74,46.4h-2.4V30.1h17.7v16.3h-2.4V32.1H74V46.4z"/>
	<path class="st4" d="M97.6,45.6c-1.6-0.7-2.8-1.7-3.6-3c-0.8-1.3-1.2-2.7-1.2-4.3c0-1.6,0.4-3.1,1.2-4.3c0.8-1.3,2-2.3,3.6-3
		c1.6-0.7,3.5-1.1,5.8-1.1s4.2,0.4,5.8,1.1c1.6,0.7,2.8,1.7,3.6,3c0.8,1.3,1.2,2.7,1.2,4.3c0,1.6-0.4,3.1-1.2,4.3
		c-0.8,1.3-2,2.3-3.6,3c-1.6,0.7-3.5,1.1-5.8,1.1S99.2,46.3,97.6,45.6z M107.8,43.8c1.2-0.6,2.2-1.3,2.8-2.3c0.6-1,0.9-2.1,0.9-3.3
		c0-1.2-0.3-2.3-0.9-3.3c-0.6-1-1.6-1.7-2.8-2.3c-1.2-0.6-2.7-0.8-4.5-0.8c-1.7,0-3.2,0.3-4.5,0.8c-1.2,0.6-2.2,1.3-2.8,2.3
		c-0.6,1-0.9,2.1-0.9,3.3c0,1.2,0.3,2.3,0.9,3.3c0.6,1,1.6,1.7,2.8,2.3c1.2,0.6,2.7,0.8,4.5,0.8C105.1,44.6,106.6,44.3,107.8,43.8z"
		/>
	<path class="st4" d="M119.8,46.4h-2.4V30.1h14.3v2.1h-11.9V46.4z"/>
	<path class="st4" d="M145.1,30.1c2.1,0,3.7,0.5,4.8,1.4c1.1,1,1.7,2.3,1.7,3.9c0,1.6-0.6,3-1.7,3.9c-1.1,1-2.7,1.4-4.8,1.4h-7.8
		v5.6h-2.4V30.1H145.1z M145.1,38.7c1.3,0,2.3-0.3,3-0.9c0.7-0.6,1-1.4,1-2.4c0-1-0.3-1.8-1-2.4c-0.7-0.6-1.7-0.9-3-0.9h-7.9v6.6
		H145.1z"/>
	<path class="st4" d="M171.2,46.4h-2.5l-1.7-3.3h-11.3l-1.7,3.3h-2.5l8.5-16.3h2.8L171.2,46.4z M156.7,41.2h9.4l-3.8-7.4
		c-0.5-1-0.8-1.8-0.8-2.3v0h-0.3v0c0,0.5-0.3,1.2-0.8,2.3L156.7,41.2z"/>
	<path class="st4" d="M185.1,31c2.3,0,4.3,0.3,5.8,0.9c1.5,0.6,2.7,1.5,3.4,2.5c0.7,1.1,1.1,2.3,1.1,3.7c0,1.4-0.4,2.7-1.1,3.7
		c-0.7,1.1-1.9,1.9-3.4,2.5c-1.5,0.6-3.5,0.9-5.8,0.9h-0.2v1.9h-2.4v-1.9h-0.2c-2.3,0-4.3-0.3-5.8-0.9c-1.5-0.6-2.7-1.5-3.4-2.5
		c-0.7-1.1-1.1-2.3-1.1-3.7c0-1.4,0.4-2.7,1.1-3.7c0.7-1.1,1.9-1.9,3.4-2.5c1.5-0.6,3.5-0.9,5.8-0.9h0.2v-1.9h2.4V31H185.1z
		 M182.5,43.5V32.9h-0.3c-2.7,0-4.7,0.5-5.9,1.4c-1.3,1-1.9,2.2-1.9,3.8c0,1.6,0.6,2.9,1.9,3.8c1.3,1,3.3,1.4,5.9,1.4H182.5z
		 M185.1,43.5c2.7,0,4.7-0.5,5.9-1.4c1.3-1,1.9-2.2,1.9-3.8c0-1.6-0.6-2.9-1.9-3.8c-1.3-1-3.3-1.4-5.9-1.4h-0.3v10.5H185.1z"/>
	<path class="st4" d="M198.6,46.4V30.1h2.3v11.5c0,0.7,0,1.3-0.1,1.7c-0.1,0.5-0.2,1-0.3,1.6h0.3l12.3-14.9h3.8v16.3h-2.3V34.9
		c0-0.7,0-1.3,0.1-1.7c0.1-0.5,0.2-1,0.3-1.6h-0.3l-12.3,14.9H198.6z"/>
	<path class="st4" d="M226.8,37.9l11.5,8.4h-3.7l-10.9-8.1v8.1h-2.4V30.1h2.4v7.7l10.6-7.7h3.6L226.8,37.9z"/>
	<path class="st4" d="M259.7,46.4h-2.5l-1.7-3.3h-11.3l-1.7,3.3H240l8.5-16.3h2.8L259.7,46.4z M245.2,41.2h9.4l-3.8-7.4
		c-0.5-1-0.8-1.8-0.8-2.3v0h-0.3v0c0,0.5-0.3,1.2-0.8,2.3L245.2,41.2z"/>
	<path class="st4" d="M287.1,46.4h-2.5l-1.7-3.3h-11.3l-1.7,3.3h-2.5l8.5-16.3h2.8L287.1,46.4z M272.6,41.2h9.4l-3.8-7.4
		c-0.5-1-0.8-1.8-0.8-2.3v0h-0.3v0c0,0.5-0.3,1.2-0.8,2.3L272.6,41.2z"/>
	<path class="st4" d="M307.6,46.4h-2.8l-1.9-4.2c-0.2-0.5-0.5-0.9-0.7-1.2c-0.3-0.3-0.6-0.4-1-0.5c-0.4-0.1-1-0.2-1.7-0.2h-7.2v6
		h-2.4V30.1h10.5c1.3,0,2.5,0.2,3.4,0.7c0.9,0.4,1.7,1,2.2,1.8c0.5,0.8,0.7,1.6,0.7,2.5c0,1.3-0.4,2.3-1.1,3.2
		c-0.7,0.9-1.7,1.4-2.8,1.5V40c0.7,0,1.3,0.2,1.7,0.6c0.4,0.3,0.8,1,1.2,1.9L307.6,46.4z M292.2,38.4h8.2c1.3,0,2.2-0.3,2.9-0.9
		c0.7-0.6,1-1.3,1-2.3c0-1-0.3-1.8-1-2.3c-0.7-0.6-1.6-0.9-2.9-0.9h-8.2V38.4z"/>
	<path class="st4" d="M318.7,46.4h-2.4V32.1h-7.4v-2.1H326v2.1h-7.4V46.4z"/>
	<path class="st4" d="M332,45.6c-1.6-0.7-2.8-1.7-3.6-3c-0.8-1.3-1.2-2.7-1.2-4.3c0-1.6,0.4-3.1,1.2-4.3c0.8-1.3,2-2.3,3.6-3
		c1.6-0.7,3.5-1.1,5.8-1.1s4.2,0.4,5.8,1.1c1.6,0.7,2.8,1.7,3.6,3c0.8,1.3,1.2,2.7,1.2,4.3c0,1.6-0.4,3.1-1.2,4.3
		c-0.8,1.3-2,2.3-3.6,3c-1.6,0.7-3.5,1.1-5.8,1.1S333.6,46.3,332,45.6z M342.3,43.8c1.2-0.6,2.2-1.3,2.8-2.3c0.6-1,0.9-2.1,0.9-3.3
		c0-1.2-0.3-2.3-0.9-3.3c-0.6-1-1.6-1.7-2.8-2.3c-1.2-0.6-2.7-0.8-4.5-0.8c-1.7,0-3.2,0.3-4.5,0.8c-1.2,0.6-2.2,1.3-2.8,2.3
		c-0.6,1-0.9,2.1-0.9,3.3c0,1.2,0.3,2.3,0.9,3.3c0.6,1,1.6,1.7,2.8,2.3c1.2,0.6,2.7,0.8,4.5,0.8C339.5,44.6,341,44.3,342.3,43.8z"/>
	<path class="st4" d="M353.6,45.1c-1.5-1.1-2.3-2.5-2.3-4.4v-0.4h2.4v0.3c0,2.7,2.3,4.1,7,4.1c2.7,0,4.5-0.3,5.5-0.8
		c1-0.5,1.5-1.2,1.5-2.1c0-0.8-0.3-1.4-1-1.8c-0.6-0.4-1.4-0.7-2.4-0.8c-1-0.1-2.3-0.2-3.9-0.3c-2-0.1-3.5-0.2-4.7-0.4
		c-1.2-0.2-2.2-0.6-3.1-1.2s-1.3-1.5-1.3-2.8c0-3.1,3.1-4.7,9.3-4.7c3.2,0,5.6,0.5,7.1,1.6s2.2,2.4,2.2,4.2v0.2h-2.4v-0.2
		c0-1.2-0.5-2.1-1.6-2.8c-1.1-0.7-2.8-1-5.3-1c-2.6,0-4.4,0.3-5.4,0.8c-1,0.5-1.5,1.2-1.5,2.1c0,0.7,0.3,1.2,0.9,1.6
		c0.6,0.3,1.3,0.6,2.2,0.7c0.9,0.1,2.1,0.2,3.7,0.3c2,0.1,3.7,0.2,4.9,0.4c1.3,0.2,2.3,0.6,3.2,1.3c0.9,0.7,1.3,1.7,1.3,3
		c0,1.5-0.7,2.7-2.1,3.6c-1.4,0.9-3.9,1.3-7.3,1.3C357.5,46.7,355.1,46.1,353.6,45.1z"/>
</g>
</svg>
