<?xml version="1.0" encoding="utf-8"?>
<!-- Generator: Adobe Illustrator 22.0.0, SVG Export Plug-In . SVG Version: 6.00 Build 0)  -->
<svg version="1.1" id="Layer_1" xmlns="http://www.w3.org/2000/svg" xmlns:xlink="http://www.w3.org/1999/xlink" x="0px" y="0px"
	 viewBox="0 0 6803 3539" style="enable-background:new 0 0 6803 3539;" xml:space="preserve">
<style type="text/css">
	.st0{fill:#FFFFFF;}
	.st1{fill:#F7ACBE;}
	.st2{fill:#F4B991;}
	.st3{fill:#A3BDE5;}
	.st4{fill:#5979B2;}
	.st5{fill:none;stroke:#363636;stroke-width:24.6675;stroke-linecap:round;stroke-linejoin:round;stroke-miterlimit:10;}
	.st6{fill:#363636;}
	.st7{fill:none;stroke:#363636;stroke-width:25.2014;stroke-linecap:round;stroke-miterlimit:10;}
	.st8{fill:#72D3A3;stroke:#363636;stroke-width:25.2014;stroke-linecap:round;stroke-miterlimit:10;}
	.st9{fill:none;stroke:#363636;stroke-width:24.1997;stroke-linecap:round;stroke-miterlimit:10;}
	.st10{fill:#A3BDE5;stroke:#363636;stroke-width:23.0474;stroke-linecap:round;stroke-miterlimit:10;}
	.st11{clip-path:url(#SVGID_2_);fill:#363636;}
	.st12{clip-path:url(#SVGID_4_);fill:#363636;}
	.st13{fill:#A3BDE5;stroke:#363636;stroke-width:24.1997;stroke-linecap:round;stroke-miterlimit:10;}
	.st14{fill:#E05765;}
	.st15{fill:#445578;}
</style>
<rect class="st0" width="6803" height="3539"/>
<rect x="2208.8" y="233" class="st1" width="1855.1" height="2310"/>
<path class="st0" d="M3974.1,1432.7c-1.2,196.2-3.8,383.2-21.3,531.8c-17.6,149.9-50.1,261.5-111.9,337
	c-61.3,76.2-151.7,116.4-273.3,138c-120.5,21.7-272.1,24.8-431.2,26.3c-159.1-1.5-310.7-4.7-431.2-26.3
	c-121.6-21.7-212-61.8-273.3-138c-61.8-75.6-94.3-187.1-111.9-337.1c-17.6-148.6-20.1-335.6-21.3-531.8
	c1.2-196.2,3.8-383.2,21.3-531.8c17.6-149.9,50.1-261.5,111.9-337c61.3-76.2,151.7-116.4,273.3-138
	c120.5-21.7,272.1-24.8,431.2-26.3c159.1,1.5,310.7,4.7,431.2,26.3c121.6,21.7,212,61.8,273.3,138c61.8,75.6,94.3,187.1,111.9,337.1
	C3970.3,1049.6,3972.9,1236.5,3974.1,1432.7z"/>
<g>
	<g>
		<g>
			<path class="st2" d="M3560.2,2396.8c-10.1,6.2-102.6,60.6-235.6,67.6c-124.8,6.6-308.8-28.4-476.2-232.9
				c-84.3-102.9-166.4-164-244.1-181.5c-66.9-15.1-135.1-0.2-214.4,46.8c-43.2,25.6-98.9,11.4-124.5-31.8
				c-25.6-43.2-11.4-98.9,31.8-124.5c57-33.8,111.6-56.1,166.7-68c60.7-13.1,121.3-13.1,180.3,0.2c60.1,13.5,119.7,41.2,177.3,82.1
				c56.1,40,112.5,94.3,167.5,161.5c93.8,114.6,201.2,170.7,319,166.8c91.2-3,157.3-41.5,158-41.9l-0.6,0.3L3560.2,2396.8z"/>
		</g>
	</g>
	<g>
		<g>
			<path class="st3" d="M2997.7,2370.7c57.1,38.9,113.6,63.1,166.7,77.2c21.7-19,50.8-65.2,46.9-175.5
				c-25.6-6.8-50.5-16.7-74.9-29.7C3137.6,2262.7,3135.5,2356.5,2997.7,2370.7z"/>
			<path class="st3" d="M2827.5,2206.9c6.9,7.9,13.9,16.1,20.9,24.7c19,23.2,38.2,44.2,57.5,63.2c25.2,2.2,80.5-7.5,153-105.9
				c-24.1-20.8-47.4-44.9-69.9-72.4c-6.6-8-13.2-15.9-19.8-23.6C2963.5,2132,2934.8,2185.1,2827.5,2206.9z"/>
			<path class="st3" d="M3267.7,2464.3c20,1.1,39.1,1,56.9,0.1c133-7,225.5-61.5,235.6-67.6l-94.8-155l0.6-0.3
				c-0.6,0.4-63.8,37.1-151.7,41.6C3333.2,2311.8,3360.4,2380.7,3267.7,2464.3z"/>
			<path class="st3" d="M2364.6,1905.6c-22.2,9.9-44.6,21.6-67.3,35.1c-43.2,25.6-57.4,81.3-31.8,124.5
				c25.6,43.2,81.3,57.4,124.5,31.8c10.7-6.3,21.2-12.1,31.5-17.3C2434,2038.4,2440,1966.7,2364.6,1905.6z"/>
			<path class="st3" d="M2678.4,2079.2c27.4,15.2,55.2,35.4,83.4,60.6c28.4-7.3,75.2-35.5,122.8-134c-21-18.9-42-35.9-63-50.8
				c-17.5-12.4-35.2-23.7-53-33.6C2777.7,1959.6,2771.6,2020.3,2678.4,2079.2z"/>
			<path class="st3" d="M2645,1873c-0.3-0.1-0.5-0.1-0.8-0.2c-57.9-13.1-117.5-13.3-177.2-0.9c31.7,14,75.8,55.1,46.5,176
				c21.4-3.7,42.3-4.4,63-2.3C2599.6,2031.1,2650.9,1985.7,2645,1873z"/>
		</g>
		<g>
			<path class="st4" d="M2645,1873c5.9,112.7-45.4,158.1-68.4,172.6c9.3,0.9,18.5,2.4,27.7,4.5c24.3,5.5,49,15.2,74,29.1
				c93.2-58.9,99.4-119.6,90.2-157.8C2727.9,1898.7,2686.6,1882.5,2645,1873z"/>
			<path class="st4" d="M2761.7,2139.8c21.7,19.4,43.7,41.8,65.8,67.1c107.3-21.8,135.9-74.9,141.7-114
				c-28-32.4-56.3-61.5-84.7-87.1C2836.9,2104.3,2790.1,2132.5,2761.7,2139.8z"/>
			<path class="st4" d="M2905.9,2294.8c30.5,30,61.2,55.1,91.8,75.9c137.8-14.1,139.9-108,138.7-128c-26.6-14.2-52.4-32.2-77.5-53.8
				C2986.4,2287.3,2931.1,2297,2905.9,2294.8z"/>
			<path class="st4" d="M3164.4,2447.8c36.4,9.7,71.2,14.7,103.4,16.5c92.7-83.7,65.5-152.6,46.6-181.3c-2.1,0.1-4.2,0.2-6.3,0.3
				c-33.1,1.1-65.4-2.6-96.8-10.9C3215.1,2382.7,3186.1,2428.9,3164.4,2447.8z"/>
			<path class="st4" d="M2467.1,1872c-1,0.2-2.1,0.4-3.1,0.7c-33.1,7.2-66,18.1-99.4,33c75.4,61.1,69.4,132.9,56.9,174.1
				c32.2-16.2,62.7-26.7,92.1-31.7C2542.9,1927,2498.8,1885.9,2467.1,1872z"/>
		</g>
	</g>
	<g>
		<path class="st5" d="M3560.2,2396.8c-10.1,6.2-102.6,60.6-235.6,67.6c-124.8,6.6-308.8-28.4-476.2-232.9
			c-84.3-102.9-166.4-164-244.1-181.5c-66.9-15.1-135.1-0.2-214.4,46.8c-43.2,25.6-98.9,11.4-124.5-31.8
			c-25.6-43.2-11.4-98.9,31.8-124.5c57-33.8,111.6-56.1,166.7-68c60.7-13.1,121.3-13.1,180.3,0.2c60.1,13.5,119.7,41.2,177.3,82.1
			c56.1,40,112.5,94.3,167.5,161.5c93.8,114.6,201.2,170.7,319,166.8c91.2-3,157.3-41.5,158-41.9l-0.6,0.3L3560.2,2396.8z"/>
	</g>
</g>
<path class="st6" d="M2905.6,3016.1c0.7,34.3,287.1,56.3,719.3,47.5c432.2-8.8,681.9-41.7,681.2-76.1
	c-0.7-34.3-251.5-57.1-683.8-48.3C3190.1,2948.1,2904.9,2981.7,2905.6,3016.1z"/>
<g>
	<g>
		<g>
			<path class="st3" d="M3334,2761.8c0,0-104,3.1-134.1,87.8c-27.9,78.6,21.3,148.4,86.9,147.1c65.5-1.3,180.7-3.7,180.7-3.7
				s125.9,5.7,92-123.6c-16.2-61.7-28.6-146.7-35.5-233.6c-88-11.2-150.6-32.9-193.7-54.3L3334,2761.8z"/>
			<path class="st4" d="M3521.4,2395.3l-194,46.5l2.8,139.8c43.1,21.4,105.7,43.1,193.7,54.3
				C3517.2,2550.8,3515.8,2463.8,3521.4,2395.3z"/>
		</g>
		<path class="st7" d="M3559.4,2869.5c-16.2-61.7-28.6-146.7-35.5-233.6c-6.7-85.1-8.2-172.1-2.5-240.6l-194,46.5l2.8,139.8
			l3.7,180.2c0,0-104,3.1-134.1,87.8c-27.9,78.6,21.3,148.4,86.9,147.1c65.5-1.3,180.7-3.7,180.7-3.7S3593.3,2998.8,3559.4,2869.5z"
			/>
		<path class="st8" d="M3395,2768.2c0,0-19.4-9.8-61.1-6.4"/>
	</g>
	<g>
		<g>
			<path class="st3" d="M3840.7,2751.5c0,0,104-1.1,137.5,82.3c31.1,77.4-15.3,149.2-80.8,150.5c-65.5,1.3-180.7,3.7-180.7,3.7
				s-125.5,10.8-97-119.7c13.6-62.3,22.6-147.8,25.9-234.8c87.5-14.8,149.1-39,191.3-62.2L3840.7,2751.5z"/>
			<path class="st4" d="M3638.5,2392.9l195.7,38.5l2.8,139.8c-42.2,23.2-103.9,47.4-191.3,62.2
				C3649,2548.1,3646.9,2461.2,3638.5,2392.9z"/>
		</g>
		<path class="st7" d="M3619.8,2868.2c13.6-62.3,22.6-147.8,25.9-234.8c3.3-85.3,1.1-172.3-7.3-240.5l195.7,38.5l2.8,139.8
			l3.7,180.2c0,0,104-1.1,137.5,82.3c31.1,77.4-15.3,149.2-80.8,150.5c-65.5,1.3-180.7,3.7-180.7,3.7S3591.2,2998.8,3619.8,2868.2z"
			/>
		<path class="st8" d="M3779.9,2760.4c0,0,19-10.6,60.8-8.9"/>
	</g>
</g>
<path class="st3" d="M3008.2,2000.6c-24.1,178.1,12.6,323.4,114.2,413.7c99.4,91,263.7,126.9,444.2,104.8
	c180.4-23.4,332.4-99.2,409.3-212.5c79.2-113,83.3-263.5,21.2-430.7c-62.1-166.8-169.2-313.9-270-414.8
	c-103-101.2-199.6-156.1-292.9-144.7c-93.2,12.1-175.3,89.6-253.5,213.7C3104.7,1653.2,3032.4,1822.9,3008.2,2000.6z"/>
<g>
	<g>
		<path class="st4" d="M3935.4,2252.4c-83.6,75.2-219.8,122.7-382.3,144.1c-162.6,19.6-305.5,7.3-403.1-45
			c-68-35.2-114.7-89.5-141.7-156.5c-9.6-58.3-9.7-123-0.3-192.8c20.1,86.5,68.7,156.2,149.1,197.9c91.8,49.2,226.1,60.8,379.1,42.4
			c152.7-20.2,280.9-64.8,359.5-135.5c69.1-60.5,101.3-140.4,102-229.5c24.2,65.5,38.2,128.5,41.5,187.6
			C4027.5,2136.8,3993.9,2201.2,3935.4,2252.4z"/>
		<path class="st4" d="M3042.6,1841.1c9.1-31.2,19.4-61.8,30.6-91.4c6.2,18.3,13.8,35.6,23,51.8c21.9,38.4,52.4,70.1,92.2,92.9
			c76.4,45.4,187.6,57.1,314.1,42c126.2-16.7,231.9-55.8,296.3-119c33.7-32.1,56.5-70.5,69.5-113.3c5.4-18,9.1-36.7,11.2-56.1
			c17.3,26,34,53.2,49.6,81.3c0.3,2.1,0.6,4.1,0.8,6.2c0.3,2.9,0.5,5.8,0.7,8.7c6.5,88.6-21.4,168.8-90.6,227.9
			c-70.2,61.6-184.4,100.7-320.6,118.7c-136.3,16.4-255.9,6.8-337.6-35.6c-80.1-40.2-124.6-111.2-137.6-199.1
			c-0.4-2.9-0.8-5.7-1.2-8.6C3042.9,1845.3,3042.8,1843.2,3042.6,1841.1z"/>
	</g>
</g>
<path class="st9" d="M3008.2,2000.6c-24.1,178.1,12.6,323.4,114.2,413.7c99.4,91,263.7,126.9,444.2,104.8
	c180.4-23.4,332.4-99.2,409.3-212.5c79.2-113,83.3-263.5,21.2-430.7c-62.1-166.8-169.2-313.9-270-414.8
	c-103-101.2-199.6-156.1-292.9-144.7c-93.2,12.1-175.3,89.6-253.5,213.7C3104.7,1653.2,3032.4,1822.9,3008.2,2000.6z"/>
<path class="st3" d="M3144.7,901.6c0,0,285.5-28.5,320.4,318l-285.5,28.5L3144.7,901.6z"/>
<path class="st3" d="M3614.8,854.7c0,0-285.5,28.5-250.6,375l285.5-28.5L3614.8,854.7z"/>
<path class="st4" d="M3707.2,999.9c-11-41.7-28.9-79.1-45.4-105.3c-16.9-26.3-32.5-41.3-47-40c-14.5,1.5-26.8,19.4-38.1,48.5
	c-11,28.9-21.1,69.1-23.6,112.2c-2.5,43.1,4.4,79.5,21.1,103.6c16.3,24.3,42.4,36.2,70.6,33.5c28.1-2.9,51.3-19.8,62.5-46.8
	C3718.7,1078.7,3718.2,1041.7,3707.2,999.9z"/>
<path class="st4" d="M3083,1062.2c2.5-43,12.5-83.2,23.6-112.2c11.3-29.1,23.6-46.9,38.1-48.5c14.5-1.4,30.1,13.7,47,40
	c16.6,26.2,34.4,63.6,45.4,105.3c11,41.7,11.5,78.8,0,105.7c-11.2,27-34.4,43.9-62.5,46.8c-28.1,2.7-54.2-9.3-70.6-33.5
	C3087.5,1141.7,3080.6,1105.3,3083,1062.2z"/>
<path class="st3" d="M3066.4,1325.8c-0.1-0.6-0.1-1.1-0.1-1.7c-3.5-32.1-2.9-59.2-0.2-77.2c5-52.7,21-99.6,47.9-136.4
	c39.2-54.9,101.5-93.2,176.3-101.2c34-3.2,73.9,6.1,104,13.9c13.5-20.1,43-32.6,99.2-34.2c75.2-2.1,143.1,12.9,192.4,59
	c41.6,38,69.9,94.3,83.4,161.1c2.5,11.9,4.7,25.5,6.2,40.4c0,0,0,0,0,0.1c0,0,0,0.1,0,0.1c9.7,97.8-9.4,251.7-145,357.2
	c-73.8,57.5-123.9,66.6-170.2,71.3c-46.3,4.6-97.2,5.5-181-36.2c-101.5-50.6-157.6-131.8-186.8-209.2
	C3079.3,1400.8,3070.5,1364.7,3066.4,1325.8z"/>
<g>
	<path class="st6" d="M3422.2,1558.2c20.4-14.8,53.5-24,92.9-28.5c22.7-2.3,43.6-2.6,61.6-0.5c0.5-4.4,0.6-9,0.3-13.6
		c-2.4-22.4-13.9-40.5-37-50.4c-22.7-10.2-56.8-12.2-96.1-8.1c-39.3,4.4-72.4,13.7-92.9,28.5c-20.8,14.6-29,34.8-27.3,57.3
		c2.4,22.4,13.9,40.5,37,50.4c9.6,4.3,21.3,7.2,34.5,8.7C3397.1,1584.9,3405.7,1569.8,3422.2,1558.2z"/>
	<path class="st0" d="M3456.7,1601.3c39.3-4.4,72.4-13.7,92.9-28.5c10.3-7.2,17.5-15.8,22-25.4c2.7-5.8,4.4-11.9,5.1-18.2
		c-18-2.1-38.9-1.8-61.6,0.5c-39.3,4.4-72.4,13.7-92.9,28.5c-16.5,11.6-25.1,26.7-27.1,43.6c10.3,1.2,21.5,1.6,33.4,1.3
		C3437.6,1602.9,3447,1602.3,3456.7,1601.3z"/>
</g>
<g>
	<g>
		<path class="st10" d="M3438,1402.5c3,26.8,11.3,48.8,27.5,61.4c15.9,13,39.7,16.6,67.2,14.1c27.5-3,50-11.3,63-27.1
			c13.4-15.6,17.1-38.8,14.7-65.6"/>
		<path class="st10" d="M3264.6,1419.8c3,26.8,11.3,48.8,27.5,61.4c15.9,13,39.7,16.6,67.2,14.1c27.5-3,50-11.3,63-27.1
			c13.4-15.6,17.1-38.8,14.7-65.6"/>
	</g>
</g>
<path class="st6" d="M3082.8,940.6l0-0.1l0-0.1c6.8-17.6,13.8-30.9,21.4-40.9c10.9-14.3,23.6-22.3,37.8-23.8l0.1,0l0.1,0
	c1-0.1,25.2-2.4,60.2,2.1c36.5,4.7,71,15,102.7,30.4c31.7,15.5,59.8,35.9,84,61c14.2-22.3,31.2-42.5,50.8-60.2
	c23.1-20.9,49.7-38.5,79.1-52.2c50.1-23.4,91.6-27.8,93.3-28l0.1,0l0.1,0c3.3-0.3,6.7-0.3,10.1,0.2c0,0,0,0,0,0
	c12.1,1.6,23.5,7.7,34.9,18.6c8.3,8,16.8,18.7,25.9,32.8l0.1,0.1l0.1,0.1c12.1,19.2,34.6,59.3,48.6,112.6c7.6,28.9,10.6,55.4,8.8,79
	c11.7,16.9,22,35.8,30.6,56.1c9.8,23.3,17.6,48.7,23,75.5c2.9,13.6,5.1,28,6.6,43c0,0.1,0,0.1,0,0.2l0,0l0,0c0,0.1,0,0.2,0,0.3
	c4.4,44.2,4.6,112.3-19.2,186.3c-9.2,28.7-21.4,55.9-36.2,81.3c-3.8,6.5-12.4,8.3-18.5,3.7l0,0c-5.3-4-6.8-11.4-3.5-17.2
	c51.4-87.5,58.7-183.3,51.9-251.7c0,0,0-0.1,0-0.1c0,0,0,0,0-0.1c-1.5-14.9-3.6-28.5-6.2-40.4c-10.1-50.3-28.7-94.6-55-129.7
	c3.2-22.9,0.7-50-7-79.5c-11-41.7-28.9-79.1-45.4-105.3c-15.2-23.6-29.3-38.1-42.6-39.9c-1.5-0.2-3-0.2-4.5-0.1c0,0,0,0,0,0
	c-0.1,0-153,15.3-221.3,159.5c-59.4-79.4-141-103.6-194.3-110.5c-32.5-4.2-54.4-2-54.4-2c-14.5,1.5-26.8,19.4-38.1,48.5
	c-11,28.9-21.1,69.1-23.6,112.2c-1.8,32.2,1.5,60.6,10.3,83c-14.5,30-23.6,64.4-27.2,101.8c-2.7,18-3.4,45.1,0.2,77.2
	c0.1,0.6,0.1,1.1,0.1,1.7c4.1,38.8,12.9,75,25.9,107.1c18.3,48.4,47,98.3,90.8,141.2c4.9,4.8,5.3,12.6,0.9,17.8l0,0
	c-4.8,5.6-13.2,6-18.5,0.9c-9.2-9-17.9-18.5-26.2-28.4c-29.6-35.4-53.4-76.5-70.6-122c-14-34.4-23.3-72.7-27.6-114l0-0.1l0-0.1
	c0-0.4-0.1-0.8-0.1-1.2c0-0.1,0-0.2,0-0.3c-3.4-30.9-3.4-60.3-0.1-83c3.5-36.4,11.9-70,25-99.9c-7.3-23.6-10-51.5-8.2-83.1
	C3060.7,1005.6,3074.7,961.8,3082.8,940.6z"/>
<path class="st6" d="M3432.2,1345.7c-28.8,2.3-44.3,17.1-41.6,39.9c1.6,22.9,19.6,34.6,48.4,31.4c28.8-2.3,44.3-17.1,41.6-39.9
	C3478.9,1354.3,3460.9,1342.5,3432.2,1345.7z"/>
<path class="st9" d="M3427.5,1002.8c0,0-31.9-6.1-68.7,6.4"/>
<path class="st9" d="M3428,1710.1c0,0,47.8,9.5,103.5-13"/>
<g>
	<g>
		<path class="st0" d="M3206.3,1422.5c4.2-7.3,9.2-14.2,14.9-20.4c26.8-30.1,70.9-47.3,123.8-53c15.9-1.5,31.3-1.7,45.8-0.8
			c5.6-23.1,6.7-49.9,4-78.9c-5.1-47.9-19.5-88-44.1-112.6c-24.3-25-58.8-34.4-97.5-30.9c-38.7,4.3-70.6,20.3-89.5,49.6
			c-19.2,28.9-25.3,71.1-20.8,119.1c5.1,47.9,19.5,88,44.1,112.6C3192.9,1413.1,3199.3,1418.2,3206.3,1422.5z"/>
		<g>
			<defs>
				<path id="SVGID_1_" d="M3206.3,1422.5c4.2-7.3,9.2-14.2,14.9-20.4c26.8-30.1,70.9-47.3,123.8-53c15.9-1.5,31.3-1.7,45.8-0.8
					c5.6-23.1,6.7-49.9,4-78.9c-5.1-47.9-19.5-88-44.1-112.6c-24.3-25-58.8-34.4-97.5-30.9c-38.7,4.3-70.6,20.3-89.5,49.6
					c-19.2,28.9-25.3,71.1-20.8,119.1c5.1,47.9,19.5,88,44.1,112.6C3192.9,1413.1,3199.3,1418.2,3206.3,1422.5z"/>
			</defs>
			<clipPath id="SVGID_2_">
				<use xlink:href="#SVGID_1_"  style="overflow:visible;"/>
			</clipPath>
			<path class="st11" d="M3359.9,1332.6c-6.9-59.4-37.9-90.5-83.1-83.3c-45.5,4.8-67.3,42.9-58.6,102.1
				c6.9,59.4,37.9,90.5,83.1,83.3C3346.8,1429.8,3368.7,1391.8,3359.9,1332.6z"/>
		</g>
	</g>
	<g>
		<path class="st0" d="M3661.9,1366.7c-5.9-6.1-12.3-11.5-19.4-16.2c-33.2-22.7-80.3-28.8-133-21.5c-15.8,2.4-30.8,5.8-44.7,10.3
			c-11-21.1-18.6-46.8-22.9-75.6c-6.6-47.7-2.3-90.2,15.7-119.9c17.6-30.1,48.8-47.5,87.2-53.5c38.5-5.2,73.4,2.6,98.8,26.5
			c25.6,23.4,41.7,62.9,48.9,110.5c6.6,47.7,2.3,90.2-15.7,119.9C3672.6,1354.4,3667.6,1360.9,3661.9,1366.7z"/>
		<g>
			<defs>
				<path id="SVGID_3_" d="M3661.9,1366.7c-5.9-6.1-12.3-11.5-19.4-16.2c-33.2-22.7-80.3-28.8-133-21.5
					c-15.8,2.4-30.8,5.8-44.7,10.3c-11-21.1-18.6-46.8-22.9-75.6c-6.6-47.7-2.3-90.2,15.7-119.9c17.6-30.1,48.8-47.5,87.2-53.5
					c38.5-5.2,73.4,2.6,98.8,26.5c25.6,23.4,41.7,62.9,48.9,110.5c6.6,47.7,2.3,90.2-15.7,119.9
					C3672.6,1354.4,3667.6,1360.9,3661.9,1366.7z"/>
			</defs>
			<clipPath id="SVGID_4_">
				<use xlink:href="#SVGID_3_"  style="overflow:visible;"/>
			</clipPath>
			<path class="st12" d="M3491.1,1316.6c-7.6-59.3,15-96.9,60.5-100.9c45.3-6.3,75.7,25.4,81.5,84.9c7.6,59.3-15,96.9-60.5,100.9
				C3527.2,1407.7,3496.8,1376.1,3491.1,1316.6z"/>
		</g>
	</g>
</g>
<g>
	<path class="st13" d="M3142.6,1657.9c0,0-245.2,122.3-304.4,3.2c0,0,53.2-75.3,39.4-164.1s-55.4-112-86.1-132
		c0,0-12.4-77.3,20.5-136.3c32.9-59.1,5-104.7-37.1-108.5c-42.1-3.8-132.7,46-88.5,236.9c0,0-90.4-33.5-142.8,60.6
		c-52.4,94.2,8.4,287.4,102.9,293.7c0,0,42.7,142,158.1,173.9c130,36,252-43.1,349.2-135.3"/>
	<path class="st13" d="M2629.3,1436.8c0,0,91.3-32,151.5,46.9s29.4,252.2-134.2,227.6"/>
	<path class="st13" d="M2719.8,1381.1c0,0-10.9-16.1-33.4-24.2"/>
</g>
<path class="st13" d="M3786.8,1556.5c0,0,120.9-65.4,309.9,3.7c189,69.2,262.6,254.3,262.6,254.3s94.7,43.5,170.1,42.9
	c81.2-0.7,93.2,77.7,73.6,115.6s-77.9,81.6-125.7,88.8s-128.1-22.8-146.9-37.5c0,0-16.5,53.4-37.6,84s-60.3,35.4-74,29.5
	c-19.8-8.5-38.3-46.9-11.1-80.5c28.2-34.9,43.2-77.4,24.8-117.5c-18.4-40-167.4-356.8-454.8-287.6"/>
<g>
	<g>
		<path class="st14" d="M1450,233v2310h2613.9V233H1450z M3952.8,1964.5c-17.6,149.9-50.1,261.5-111.9,337
			c-61.3,76.2-151.7,116.4-273.3,138c-120.5,21.7-272.1,24.8-431.2,26.3c-159.1-1.5-310.7-4.7-431.2-26.3
			c-121.6-21.7-212-61.8-273.3-138c-61.8-75.6-94.3-187.1-111.9-337.1c-17.6-148.6-20.1-335.6-21.3-531.8
			c1.2-196.2,3.8-383.2,21.3-531.8c17.6-149.9,50.1-261.5,111.9-337c61.3-76.2,151.7-116.3,273.3-138
			c120.5-21.7,272.1-24.8,431.2-26.3c159.1,1.5,310.7,4.7,431.2,26.3c121.6,21.7,212,61.8,273.3,138
			c61.8,75.6,94.3,187.1,111.9,337.1c17.6,148.6,20.1,335.6,21.3,531.8C3972.9,1629,3970.3,1815.9,3952.8,1964.5z"/>
	</g>
</g>
<g>
	<g>
		<g>
			<path class="st3" d="M2364.6,1905.6c-22.2,9.9-44.6,21.6-67.3,35.1c-43.2,25.6-57.4,81.3-31.8,124.5
				c25.6,43.2,81.3,57.4,124.5,31.8c10.7-6.3,21.2-12.1,31.5-17.3C2434,2038.4,2440,1966.7,2364.6,1905.6z"/>
			<path class="st3" d="M2645,1873c-0.3-0.1-0.5-0.1-0.8-0.2c-57.9-13.1-117.5-13.3-177.2-0.9c31.7,14,75.8,55.1,46.5,176
				c21.4-3.7,42.3-4.4,63-2.3C2599.6,2031.1,2650.9,1985.7,2645,1873z"/>
		</g>
		<g>
			<path class="st4" d="M2645,1873c5.9,112.7-45.4,158.1-68.4,172.6c9.3,0.9,18.5,2.4,27.7,4.5c24.3,5.5,49,15.2,74,29.1
				c93.2-58.9,99.4-119.6,90.2-157.8C2727.9,1898.7,2686.6,1882.5,2645,1873z"/>
			<path class="st4" d="M2467.1,1872c-1,0.2-2.1,0.4-3.1,0.7c-33.1,7.2-66,18.1-99.4,33c75.4,61.1,69.4,132.9,56.9,174.1
				c32.2-16.2,62.7-26.7,92.1-31.7C2542.9,1927,2498.8,1885.9,2467.1,1872z"/>
		</g>
	</g>
	<path class="st6" d="M2771.6,2132.1c-56.2-50.5-111.3-82-164.6-94.1c-17.7-4-35.4-6-53.3-6c-53.3,0-108.6,17.8-170.1,54.3
		c-37.2,22.1-85.5,9.8-107.6-27.5c-22.1-37.2-9.8-85.5,27.5-107.6c55.9-33.1,109.2-54.9,163-66.6c58.9-12.8,117.8-12.7,175,0.2
		c43.8,9.9,87.4,27.5,130.1,52.5V1909c-40.9-22.6-82.7-38.7-124.7-48.2c-60.7-13.7-123.2-13.8-185.6-0.2
		c-56.5,12.2-112.2,35-170.4,69.5c-48.9,29-65.1,92.4-36.1,141.4c19.3,32.5,53.7,50.5,88.9,50.5c17.9,0,36-4.6,52.5-14.4
		c76.4-45.3,141.7-59.8,205.4-45.4c54.4,12.3,111.4,47,170,103.7V2132.1z"/>
</g>
<g>
	<g>
		<g>
			<g>
				<g>
					<path class="st15" d="M2680.8,799.3v11.3h-41.8V822h36.1v10.1h-36.1v12.4h41.8v11.3h-56.1v-56.6H2680.8z"/>
					<path class="st15" d="M2690.8,855.8v-41h12.8l-1.9,12.4h1.4c1.2-4.3,3.4-7.6,6.7-9.9c3.3-2.3,7.6-3.5,12.9-3.5
						c6.9,0,12.4,2,16.4,6.1c4,4,6,9.6,6,16.7v19.3h-12.7v-16.4c0-4.8-1.3-8.5-3.8-11.1c-2.5-2.6-6.1-3.9-10.6-3.9
						c-4.5,0-8.1,1.3-10.6,3.9c-2.5,2.6-3.8,6.3-3.8,11.1v16.4H2690.8z"/>
					<path class="st15" d="M2766.5,872.1c-3-0.5-6-1.4-9-2.5v-10.4c3.6,1.1,6.8,1.9,9.6,2.4c2.8,0.5,5.7,0.7,8.9,0.7
						c7.7,0,13.4-1.5,17-4.6c3.6-3.1,5.5-7.4,5.5-13.1V843h-1.2c-1.3,3.5-3.6,6.2-6.8,8c-3.2,1.8-7.7,2.7-13.5,2.7
						c-4.8,0-8.9-0.9-12.4-2.6c-3.5-1.7-6.1-4.1-8-7.1c-1.8-3-2.7-6.5-2.7-10.3c0-3.8,0.9-7.2,2.7-10.3c1.8-3,4.5-5.4,7.9-7.1
						c3.4-1.7,7.5-2.6,12.3-2.6c5.7,0,10.2,1.1,13.6,3.2c3.4,2.1,5.7,5.1,7,8.9h1.3l-1.8-10.9h12.7v25.9c0,11-2.6,19.1-7.9,24.3
						c-5.3,5.2-13.5,7.8-24.8,7.8C2772.9,872.9,2769.4,872.7,2766.5,872.1z M2792.8,841.8c2.6-2,3.8-4.5,3.8-7.6
						c0-3.1-1.3-5.6-3.8-7.5c-2.6-1.9-6.3-2.9-11.3-2.9c-5,0-8.7,1-11.3,2.9c-2.6,1.9-3.8,4.4-3.8,7.5c0,3.1,1.3,5.6,3.8,7.6
						c2.6,2,6.3,2.9,11.3,2.9C2786.5,844.7,2790.3,843.8,2792.8,841.8z"/>
					<path class="st15" d="M2833.6,855.8h-12.8v-56.6h12.8V855.8z"/>
					<path class="st15" d="M2845.7,806.7c-1.3-1.2-2-2.8-2-4.7c0-1.9,0.7-3.4,2-4.7c1.3-1.2,3.2-1.9,5.5-1.9c2.3,0,4.1,0.6,5.4,1.9
						c1.3,1.2,2,2.8,2,4.7c0,1.9-0.7,3.4-2,4.7c-1.3,1.2-3.2,1.9-5.4,1.9C2848.9,808.6,2847.1,807.9,2845.7,806.7z M2857.6,855.8
						h-12.8v-41h12.8V855.8z"/>
					<path class="st15" d="M2872.9,852.7c-4.2-2.8-6.3-6.5-6.3-11.2v-0.6h12.9v0.5c0,4.3,4.5,6.5,13.5,6.5c5.1,0,8.6-0.4,10.5-1.3
						c1.9-0.9,2.9-2,2.9-3.4c0-1.2-0.6-2.2-1.9-2.7c-1.3-0.6-2.8-1-4.7-1.2c-1.9-0.2-4.6-0.4-8.1-0.5c-5.2-0.2-9.4-0.6-12.7-1.1
						c-3.3-0.5-6.1-1.6-8.5-3.3c-2.4-1.7-3.6-4.2-3.6-7.6c0-3.9,2-7,6.1-9.4c4-2.4,10.7-3.6,20-3.6c8.7,0,15.1,1.4,19.3,4.3
						c4.2,2.9,6.4,6.6,6.6,11.2h-12.9c-0.3-4.3-4.7-6.5-13-6.5c-8.7,0-13.1,1.6-13.1,4.7c0,1.6,1.1,2.7,3.4,3.1
						c2.3,0.5,5.9,0.8,10.8,1c5.2,0.2,9.5,0.5,12.9,1c3.4,0.5,6.3,1.6,8.7,3.4c2.4,1.7,3.6,4.3,3.6,7.8c0,8.8-8.8,13.2-26.3,13.2
						C2883.8,856.9,2877.1,855.5,2872.9,852.7z"/>
					<path class="st15" d="M2928.4,855.8v-56.6h12.8v13.2c0,2.5-0.2,4.9-0.5,7.2c-0.3,2.3-0.8,4.8-1.5,7.5h1.4
						c1.2-4.3,3.4-7.6,6.7-9.9c3.3-2.3,7.6-3.5,12.9-3.5c6.9,0,12.4,2,16.4,6.1c4,4,6,9.6,6,16.7v19.3H2970v-16.4
						c0-4.8-1.3-8.5-3.8-11.1c-2.5-2.6-6.1-3.9-10.6-3.9c-4.5,0-8.1,1.3-10.6,3.9c-2.5,2.6-3.8,6.3-3.8,11.1v16.4H2928.4z"/>
				</g>
			</g>
			<g>
				<g>
					<g>
						<g>
							<path class="st15" d="M2698.4,669.4h-36.2v-87.5h-45.7v-29.8h127.7v29.8h-45.7V669.4z"/>
						</g>
					</g>
					<g>
						<g>
							<path class="st15" d="M2853.4,635.2h-87.3c1.8,4.2,5.1,7.6,9.9,10.1c4.8,2.5,11.1,3.7,18.8,3.7c7.6,0,13.4-0.7,17.3-2.2
								c4-1.4,7.2-3.3,9.6-5.5h30.7c-1.7,4.8-4.7,9.5-9.2,14.1c-4.5,4.6-10.8,8.5-18.9,11.6c-8.2,3.2-18.2,4.8-30,4.8
								c-12.5,0-23.2-2-32.1-6c-8.9-4-15.6-9.4-20.1-16.2c-4.5-6.8-6.8-14.3-6.8-22.7c0-8.4,2.3-16,6.8-22.8
								c4.5-6.8,11.3-12.2,20.2-16.2c8.9-4,19.7-5.9,32.3-5.9c12.6,0,23.4,2,32.3,5.9c8.9,4,15.7,9.4,20.3,16.3
								c4.6,6.9,6.9,14.6,6.9,23C2854,629.7,2853.8,632.4,2853.4,635.2z M2775.8,608.2c-4.8,2.5-8.1,5.9-9.9,10.2h57.5
								c-1.8-4.4-5.1-7.8-9.9-10.2c-4.8-2.5-11.1-3.7-18.9-3.7C2786.9,604.5,2780.6,605.7,2775.8,608.2z"/>
						</g>
					</g>
					<g>
						<g>
							<path class="st15" d="M2981.5,635.2h-87.3c1.8,4.2,5.1,7.6,9.9,10.1c4.8,2.5,11.1,3.7,18.8,3.7c7.6,0,13.4-0.7,17.3-2.2
								c4-1.4,7.2-3.3,9.6-5.5h30.7c-1.7,4.8-4.7,9.5-9.2,14.1c-4.5,4.6-10.8,8.5-18.9,11.6c-8.2,3.2-18.2,4.8-30,4.8
								c-12.5,0-23.2-2-32.1-6c-8.9-4-15.6-9.4-20.1-16.2c-4.5-6.8-6.8-14.3-6.8-22.7c0-8.4,2.3-16,6.8-22.8
								c4.5-6.8,11.3-12.2,20.2-16.2c8.9-4,19.7-5.9,32.3-5.9c12.6,0,23.4,2,32.3,5.9c8.9,4,15.7,9.4,20.3,16.3
								c4.6,6.9,6.9,14.6,6.9,23C2982.2,629.7,2981.9,632.4,2981.5,635.2z M2903.9,608.2c-4.8,2.5-8.1,5.9-9.9,10.2h57.5
								c-1.8-4.4-5.1-7.8-9.9-10.2c-4.8-2.5-11.1-3.7-18.9-3.7C2915,604.5,2908.7,605.7,2903.9,608.2z"/>
						</g>
					</g>
					<g>
						<g>
							<path class="st15" d="M2994.6,669.4v-85.3h31.9l-4.5,25h3.2c5-18.1,14.6-27.1,35.7-27.1c14.1,0,25.1,4,33.2,12.1
								c8,8.1,12.1,19.4,12.1,33.8v41.6h-31.9v-34c0-8.5-2.3-15.1-6.8-19.7c-4.5-4.6-8.9-7-16.9-7c-8,0-12.8,2.3-17.3,7
								c-4.5,4.6-6.7,11.2-6.7,19.7v34H2994.6z"/>
						</g>
					</g>
					<g>
						<g>
							<path class="st15" d="M3144.2,703c-6-1.2-12.1-2.9-18.1-5.1v-26.3c7,2.3,13.3,4,18.9,4.9c5.6,0.9,11.1,1.4,16.6,1.4
								c14.2,0,24.8-3.2,31.8-9.5c7-6.3,10.5-15.3,10.5-26.9v-2.3h-2.8c-2.3,8.6-6.5,14.9-12.3,18.9c-5.9,4-13.8,5.9-23.9,5.9
								c-14,0-24.9-3.9-32.8-11.7c-7.9-7.8-11.8-18.7-11.8-32.5v-35.7h31.8v29.7c0,7.8,2.1,13.9,6.4,18.3c4.2,4.4,10.1,6.5,17.4,6.5
								c7.5,0,13.3-2.2,17.6-6.5c4.2-4.4,6.4-10.4,6.4-18.3v-29.7h31.8v50.8c0,23.9-5.6,41.5-16.7,52.9c-11.1,11.3-28.2,17-51.2,17
								C3156.7,704.7,3150.2,704.1,3144.2,703z"/>
						</g>
					</g>
				</g>
			</g>
		</g>
	</g>
	<g>
		<g>
			<g>
				<g>
					<path class="st14" d="M2458.5,777.4l-31.2-117.3h39l15.1,67c1.7,8.9,2.5,17.9,2.5,27v1.7h3v-1.7c0-10.5,0.8-19.5,2.5-27
						l12.1-47.8h39.9l12.1,47.8c1.7,7.5,2.5,16.5,2.5,27v1.7h3v-1.7c0-9,0.8-18,2.5-27l15.1-67h39l-31.2,117.3h-45.6l-12.2-43.6
						c-1.6-6.1-2.6-11.1-3-14.8c-0.4-3.7-0.7-9.5-0.7-17.3V701h-3v0.7c0,7.8-0.2,13.6-0.7,17.3c-0.4,3.7-1.5,8.7-3,14.8l-12.2,43.6
						H2458.5z"/>
				</g>
			</g>
			<g>
				<g>
					<path class="st14" d="M2729.3,743.2H2642c1.8,4.2,5.1,7.6,9.9,10.1c4.8,2.5,11.1,3.7,18.8,3.7c7.6,0,13.4-0.7,17.3-2.2
						c4-1.4,7.2-3.3,9.6-5.5h30.7c-1.7,4.8-4.7,9.5-9.2,14.1c-4.5,4.6-10.8,8.5-18.9,11.6c-8.2,3.2-18.2,4.8-30,4.8
						c-12.5,0-23.2-2-32.1-6c-8.9-4-15.6-9.4-20.1-16.2c-4.5-6.8-6.8-14.3-6.8-22.7c0-8.4,2.3-16,6.8-22.8
						c4.5-6.8,11.3-12.2,20.2-16.2c8.9-4,19.7-5.9,32.3-5.9c12.6,0,23.4,2,32.3,5.9c8.9,4,15.7,9.4,20.3,16.3
						c4.6,6.9,6.9,14.6,6.9,23C2729.9,737.7,2729.7,740.4,2729.3,743.2z M2651.7,716.2c-4.8,2.5-8.1,5.9-9.9,10.2h57.5
						c-1.8-4.4-5.1-7.8-9.9-10.2c-4.8-2.5-11.1-3.7-18.9-3.7C2662.8,712.5,2656.5,713.8,2651.7,716.2z"/>
				</g>
			</g>
			<g>
				<g>
					<path class="st14" d="M2855.3,743.2H2768c1.8,4.2,5.1,7.6,9.9,10.1c4.8,2.5,11.1,3.7,18.8,3.7c7.6,0,13.4-0.7,17.3-2.2
						c4-1.4,7.2-3.3,9.6-5.5h30.7c-1.7,4.8-4.7,9.5-9.2,14.1c-4.5,4.6-10.8,8.5-18.9,11.6c-8.2,3.2-18.2,4.8-30,4.8
						c-12.5,0-23.2-2-32.1-6c-8.9-4-15.6-9.4-20.1-16.2c-4.5-6.8-6.8-14.3-6.8-22.7c0-8.4,2.3-16,6.8-22.8
						c4.5-6.8,11.3-12.2,20.2-16.2c8.9-4,19.7-5.9,32.3-5.9c12.6,0,23.4,2,32.3,5.9c8.9,4,15.7,9.4,20.3,16.3
						c4.6,6.9,6.9,14.6,6.9,23C2856,737.7,2855.8,740.4,2855.3,743.2z M2777.7,716.2c-4.8,2.5-8.1,5.9-9.9,10.2h57.5
						c-1.8-4.4-5.1-7.8-9.9-10.2c-4.8-2.5-11.1-3.7-18.9-3.7C2788.8,712.5,2782.5,713.8,2777.7,716.2z"/>
				</g>
			</g>
			<g>
				<g>
					<path class="st14" d="M3018.6,811c-6-1.2-12.1-2.9-18.1-5.1v-26.3c7,2.3,13.3,4,18.9,4.9c5.6,0.9,11.1,1.4,16.6,1.4
						c14.2,0,24.8-3.2,31.8-9.5c7-6.3,10.5-15.3,10.5-26.9v-2.3h-2.8c-2.3,8.6-6.5,14.9-12.3,18.9c-5.9,4-13.8,5.9-23.9,5.9
						c-14,0-24.9-3.9-32.8-11.7c-7.9-7.8-11.8-18.7-11.8-32.5v-35.7h31.8v29.7c0,7.8,2.1,13.9,6.4,18.3c4.2,4.4,10.1,6.5,17.4,6.5
						c7.5,0,13.3-2.2,17.6-6.5c4.2-4.4,6.4-10.4,6.4-18.3v-29.7h31.8v50.8c0,23.9-5.6,41.5-16.7,52.9c-11.1,11.3-28.2,17-51.2,17
						C3031.2,812.7,3024.6,812.2,3018.6,811z"/>
				</g>
			</g>
			<g>
				<g>
					<path class="st14" d="M2869.3,777.4v-85.3h31.9l-4.5,25h3.2c5-18.1,16.6-27.1,37.6-27.1c14.1,0,25.1,4,33.2,12.1
						c8,8.1,12.1,19.4,12.1,33.8v41.6h-31.9v-34c0-8.5-2.3-15.1-6.8-19.7c-4.5-4.6-9.8-7-17.9-7s-13.8,2.3-18.3,7
						c-4.5,4.6-6.7,11.2-6.7,19.7v34H2869.3z"/>
				</g>
			</g>
		</g>
	</g>
</g>
</svg>
